<?xml version="1.0" encoding="utf-8" standalone="no"?>
<!DOCTYPE svg PUBLIC "-//W3C//DTD SVG 1.1//EN"
  "http://www.w3.org/Graphics/SVG/1.1/DTD/svg11.dtd">
<svg xmlns:xlink="http://www.w3.org/1999/xlink" width="506.475313pt" height="203.307687pt" viewBox="0 0 506.475313 203.307687" xmlns="http://www.w3.org/2000/svg" version="1.1">
 <metadata>
  <rdf:RDF xmlns:dc="http://purl.org/dc/elements/1.1/" xmlns:cc="http://creativecommons.org/ns#" xmlns:rdf="http://www.w3.org/1999/02/22-rdf-syntax-ns#">
   <cc:Work>
    <dc:type rdf:resource="http://purl.org/dc/dcmitype/StillImage"/>
    <dc:date>2026-02-16T14:45:33.167494</dc:date>
    <dc:format>image/svg+xml</dc:format>
    <dc:creator>
     <cc:Agent>
      <dc:title>Matplotlib v3.10.8, https://matplotlib.org/</dc:title>
     </cc:Agent>
    </dc:creator>
   </cc:Work>
  </rdf:RDF>
 </metadata>
 <defs>
  <style type="text/css">*{stroke-linejoin: round; stroke-linecap: butt}</style>
 </defs>
 <g id="figure_1">
  <g id="patch_1">
   <path d="M 0 203.307687 
L 506.475312 203.307687 
L 506.475312 0 
L 0 0 
z
" style="fill: #ffffff"/>
  </g>
  <g id="axes_1">
   <g id="patch_2">
    <path d="M 50.870312 159.53686 
L 495.675313 159.53686 
L 495.675313 25.158281 
L 50.870312 25.158281 
z
" style="fill: #ffffff"/>
   </g>
   <g id="FillBetweenPolyCollection_1">
    <defs>
     <path id="m23ba503eca" d="M 71.088722 -169.823591 
L 71.088722 -51.706024 
L 75.532328 -51.466613 
L 79.975934 -50.760982 
L 84.419541 -50.760982 
L 88.863147 -50.382966 
L 93.306754 -50.508971 
L 97.75036 -50.382966 
L 102.193966 -49.878944 
L 106.637573 -49.878944 
L 111.081179 -51.454013 
L 115.524786 -124.53721 
L 119.968392 -124.348202 
L 124.411998 -124.411205 
L 128.855605 -124.222196 
L 133.299211 -123.970185 
L 137.742817 -124.033188 
L 142.186424 -123.907182 
L 146.63003 -124.222196 
L 151.073637 -124.159194 
L 155.517243 -123.907182 
L 159.960849 -123.907182 
L 164.404456 -123.84418 
L 168.848062 -123.781177 
L 173.291669 -123.655171 
L 177.735275 -123.592169 
L 182.178881 -123.592169 
L 186.622488 -123.655171 
L 191.066094 -123.592169 
L 195.509701 -123.529166 
L 199.953307 -123.529166 
L 204.396913 -123.466163 
L 208.84052 -123.655171 
L 213.284126 -123.592169 
L 217.727733 -123.088147 
L 222.171339 -122.962141 
L 226.614945 -123.214152 
L 231.058552 -122.962141 
L 235.502158 -122.899138 
L 239.945765 -122.899138 
L 244.389371 -122.584125 
L 248.832977 -122.71013 
L 253.276584 -122.836136 
L 257.72019 -122.773133 
L 262.163797 -122.71013 
L 266.607403 -122.71013 
L 271.051009 -122.647127 
L 275.494616 -122.521122 
L 279.938222 -122.71013 
L 284.381828 -122.584125 
L 288.825435 -122.647127 
L 293.269041 -122.773133 
L 297.712648 -122.773133 
L 302.156254 -122.647127 
L 306.59986 -122.647127 
L 311.043467 -122.773133 
L 315.487073 -122.836136 
L 319.93068 -122.647127 
L 324.374286 -122.521122 
L 328.817892 -122.395116 
L 333.261499 -122.332114 
L 337.705105 -122.269111 
L 342.148712 -122.206108 
L 346.592318 -122.143105 
L 351.035924 -122.395116 
L 355.479531 -122.206108 
L 359.923137 -122.143105 
L 364.366744 -122.332114 
L 368.81035 -122.332114 
L 373.253956 -122.458119 
L 377.697563 -122.521122 
L 382.141169 -122.584125 
L 386.584776 -122.458119 
L 391.028382 -122.332114 
L 395.471988 -122.395116 
L 399.915595 -122.269111 
L 404.359201 -122.206108 
L 408.802808 -122.143105 
L 413.246414 -122.080103 
L 417.69002 -122.143105 
L 422.133627 -122.206108 
L 426.577233 -122.269111 
L 431.020839 -122.206108 
L 435.464446 -122.269111 
L 439.908052 -122.332114 
L 444.351659 -122.332114 
L 448.795265 -122.269111 
L 453.238871 -122.269111 
L 457.682478 -122.269111 
L 462.126084 -122.395116 
L 466.569691 -122.269111 
L 471.013297 -122.269111 
L 475.456903 -122.269111 
L 475.456903 -123.592169 
L 475.456903 -123.592169 
L 471.013297 -123.970185 
L 466.569691 -123.907182 
L 462.126084 -124.096191 
L 457.682478 -123.718174 
L 453.238871 -123.718174 
L 448.795265 -123.84418 
L 444.351659 -123.907182 
L 439.908052 -123.781177 
L 435.464446 -124.096191 
L 431.020839 -123.907182 
L 426.577233 -124.033188 
L 422.133627 -123.907182 
L 417.69002 -123.781177 
L 413.246414 -123.781177 
L 408.802808 -123.781177 
L 404.359201 -123.907182 
L 399.915595 -124.096191 
L 395.471988 -124.285199 
L 391.028382 -124.096191 
L 386.584776 -124.474207 
L 382.141169 -124.53721 
L 377.697563 -124.411205 
L 373.253956 -124.159194 
L 368.81035 -124.222196 
L 364.366744 -124.159194 
L 359.923137 -123.592169 
L 355.479531 -124.033188 
L 351.035924 -124.348202 
L 346.592318 -123.84418 
L 342.148712 -123.655171 
L 337.705105 -123.781177 
L 333.261499 -123.84418 
L 328.817892 -123.970185 
L 324.374286 -124.096191 
L 319.93068 -124.285199 
L 315.487073 -124.53721 
L 311.043467 -124.096191 
L 306.59986 -124.033188 
L 302.156254 -124.033188 
L 297.712648 -124.159194 
L 293.269041 -124.222196 
L 288.825435 -123.970185 
L 284.381828 -123.970185 
L 279.938222 -124.222196 
L 275.494616 -123.907182 
L 271.051009 -124.096191 
L 266.607403 -124.159194 
L 262.163797 -124.159194 
L 257.72019 -124.159194 
L 253.276584 -124.348202 
L 248.832977 -124.285199 
L 244.389371 -124.159194 
L 239.945765 -124.474207 
L 235.502158 -124.600213 
L 231.058552 -124.915227 
L 226.614945 -124.978229 
L 222.171339 -124.663216 
L 217.727733 -124.915227 
L 213.284126 -125.67126 
L 208.84052 -125.545254 
L 204.396913 -125.167238 
L 199.953307 -125.167238 
L 195.509701 -125.23024 
L 191.066094 -125.293243 
L 186.622488 -125.167238 
L 182.178881 -125.041232 
L 177.735275 -125.041232 
L 173.291669 -125.419249 
L 168.848062 -125.482251 
L 164.404456 -125.482251 
L 159.960849 -125.545254 
L 155.517243 -125.482251 
L 151.073637 -125.608257 
L 146.63003 -125.608257 
L 142.186424 -125.482251 
L 137.742817 -125.545254 
L 133.299211 -125.419249 
L 128.855605 -125.608257 
L 124.411998 -125.797265 
L 119.968392 -125.860268 
L 115.524786 -125.860268 
L 111.081179 -126.301287 
L 106.637573 -146.613376 
L 102.193966 -148.364852 
L 97.75036 -147.835629 
L 93.306754 -153.707486 
L 88.863147 -132.173144 
L 84.419541 -129.514428 
L 79.975934 -131.637621 
L 75.532328 -172.041288 
L 71.088722 -169.823591 
z
" style="stroke: #b3cde3; stroke-opacity: 0.4"/>
    </defs>
    <g clip-path="url(#pda10992cd5)">
     <use xlink:href="#m23ba503eca" x="0" y="203.307687" style="fill: #b3cde3; fill-opacity: 0.4; stroke: #b3cde3; stroke-opacity: 0.4"/>
    </g>
   </g>
   <g id="matplotlib.axis_1">
    <g id="xtick_1">
     <g id="line2d_1">
      <path d="M 142.186424 159.53686 
L 142.186424 25.158281 
" clip-path="url(#pda10992cd5)" style="fill: none; stroke: #b0b0b0; stroke-opacity: 0.25; stroke-width: 0.5; stroke-linecap: square"/>
     </g>
     <g id="line2d_2">
      <defs>
       <path id="m9bc3ba90f3" d="M 0 0 
L 0 3.5 
" style="stroke: #000000; stroke-width: 0.8"/>
      </defs>
      <g>
       <use xlink:href="#m9bc3ba90f3" x="142.186424" y="159.53686" style="stroke: #000000; stroke-width: 0.8"/>
      </g>
     </g>
     <g id="text_1">
      <!-- Dec 2025 -->
      <g transform="translate(107.985508 191.066837) rotate(-30) scale(0.08 -0.08)">
       <defs>
        <path id="DejaVuSerif-44" d="M 1581 331 
L 2163 331 
Q 3072 331 3558 850 
Q 4044 1369 4044 2338 
Q 4044 3306 3559 3818 
Q 3075 4331 2163 4331 
L 1581 4331 
L 1581 331 
z
M 353 0 
L 353 331 
L 947 331 
L 947 4331 
L 353 4331 
L 353 4666 
L 2209 4666 
Q 3416 4666 4089 4050 
Q 4763 3434 4763 2338 
Q 4763 1238 4088 619 
Q 3413 0 2209 0 
L 353 0 
z
" transform="scale(0.015625)"/>
        <path id="DejaVuSerif-65" d="M 3469 1600 
L 991 1600 
L 991 1575 
Q 991 903 1244 561 
Q 1497 219 1991 219 
Q 2369 219 2611 417 
Q 2853 616 2950 1006 
L 3413 1006 
Q 3275 459 2904 184 
Q 2534 -91 1931 -91 
Q 1203 -91 761 389 
Q 319 869 319 1663 
Q 319 2450 753 2931 
Q 1188 3413 1894 3413 
Q 2647 3413 3050 2948 
Q 3453 2484 3469 1600 
z
M 2791 1931 
Q 2772 2513 2545 2808 
Q 2319 3103 1894 3103 
Q 1497 3103 1269 2806 
Q 1041 2509 991 1931 
L 2791 1931 
z
" transform="scale(0.015625)"/>
        <path id="DejaVuSerif-63" d="M 3291 997 
Q 3169 466 2822 187 
Q 2475 -91 1925 -91 
Q 1200 -91 759 389 
Q 319 869 319 1663 
Q 319 2459 759 2936 
Q 1200 3413 1925 3413 
Q 2241 3413 2553 3339 
Q 2866 3266 3181 3116 
L 3181 2266 
L 2847 2266 
Q 2781 2703 2561 2903 
Q 2341 3103 1931 3103 
Q 1466 3103 1228 2742 
Q 991 2381 991 1663 
Q 991 944 1227 581 
Q 1463 219 1931 219 
Q 2303 219 2525 412 
Q 2747 606 2828 997 
L 3291 997 
z
" transform="scale(0.015625)"/>
        <path id="DejaVuSerif-20" transform="scale(0.015625)"/>
        <path id="DejaVuSerif-32" d="M 819 3553 
L 469 3553 
L 469 4384 
Q 803 4563 1142 4656 
Q 1481 4750 1806 4750 
Q 2534 4750 2956 4397 
Q 3378 4044 3378 3438 
Q 3378 2753 2422 1800 
Q 2347 1728 2309 1691 
L 1131 513 
L 3078 513 
L 3078 1088 
L 3444 1088 
L 3444 0 
L 434 0 
L 434 341 
L 1850 1753 
Q 2319 2222 2519 2614 
Q 2719 3006 2719 3438 
Q 2719 3909 2473 4175 
Q 2228 4441 1797 4441 
Q 1350 4441 1106 4219 
Q 863 3997 819 3553 
z
" transform="scale(0.015625)"/>
        <path id="DejaVuSerif-30" d="M 2034 219 
Q 2513 219 2750 744 
Q 2988 1269 2988 2328 
Q 2988 3391 2750 3916 
Q 2513 4441 2034 4441 
Q 1556 4441 1318 3916 
Q 1081 3391 1081 2328 
Q 1081 1269 1318 744 
Q 1556 219 2034 219 
z
M 2034 -91 
Q 1275 -91 848 546 
Q 422 1184 422 2328 
Q 422 3475 848 4112 
Q 1275 4750 2034 4750 
Q 2797 4750 3222 4112 
Q 3647 3475 3647 2328 
Q 3647 1184 3222 546 
Q 2797 -91 2034 -91 
z
" transform="scale(0.015625)"/>
        <path id="DejaVuSerif-35" d="M 3219 4666 
L 3219 4153 
L 1081 4153 
L 1081 2816 
Q 1244 2928 1461 2984 
Q 1678 3041 1947 3041 
Q 2703 3041 3140 2622 
Q 3578 2203 3578 1478 
Q 3578 738 3136 323 
Q 2694 -91 1894 -91 
Q 1572 -91 1234 -12 
Q 897 66 544 225 
L 544 1131 
L 897 1131 
Q 925 688 1179 453 
Q 1434 219 1894 219 
Q 2388 219 2653 544 
Q 2919 869 2919 1478 
Q 2919 2084 2655 2407 
Q 2391 2731 1894 2731 
Q 1613 2731 1398 2631 
Q 1184 2531 1019 2322 
L 750 2322 
L 750 4666 
L 3219 4666 
z
" transform="scale(0.015625)"/>
       </defs>
       <use xlink:href="#DejaVuSerif-44"/>
       <use xlink:href="#DejaVuSerif-65" transform="translate(80.175781 0)"/>
       <use xlink:href="#DejaVuSerif-63" transform="translate(139.355469 0)"/>
       <use xlink:href="#DejaVuSerif-20" transform="translate(195.361328 0)"/>
       <use xlink:href="#DejaVuSerif-32" transform="translate(227.148438 0)"/>
       <use xlink:href="#DejaVuSerif-30" transform="translate(290.771484 0)"/>
       <use xlink:href="#DejaVuSerif-32" transform="translate(354.394531 0)"/>
       <use xlink:href="#DejaVuSerif-35" transform="translate(418.017578 0)"/>
      </g>
     </g>
    </g>
    <g id="xtick_2">
     <g id="line2d_3">
      <path d="M 279.938222 159.53686 
L 279.938222 25.158281 
" clip-path="url(#pda10992cd5)" style="fill: none; stroke: #b0b0b0; stroke-opacity: 0.25; stroke-width: 0.5; stroke-linecap: square"/>
     </g>
     <g id="line2d_4">
      <g>
       <use xlink:href="#m9bc3ba90f3" x="279.938222" y="159.53686" style="stroke: #000000; stroke-width: 0.8"/>
      </g>
     </g>
     <g id="text_2">
      <!-- Jan 2026 -->
      <g transform="translate(247.901287 189.817462) rotate(-30) scale(0.08 -0.08)">
       <defs>
        <path id="DejaVuSerif-4a" d="M -538 -1119 
L -538 -384 
L -181 -384 
Q -172 -694 -34 -845 
Q 103 -997 378 -997 
Q 750 -997 897 -762 
Q 1044 -528 1044 153 
L 1044 4331 
L 319 4331 
L 319 4666 
L 2272 4666 
L 2272 4331 
L 1678 4331 
L 1678 128 
Q 1678 -644 1368 -987 
Q 1059 -1331 372 -1331 
Q 150 -1331 -79 -1278 
Q -309 -1225 -538 -1119 
z
" transform="scale(0.015625)"/>
        <path id="DejaVuSerif-61" d="M 2547 1044 
L 2547 1747 
L 1806 1747 
Q 1378 1747 1168 1562 
Q 959 1378 959 997 
Q 959 650 1171 447 
Q 1384 244 1747 244 
Q 2106 244 2326 466 
Q 2547 688 2547 1044 
z
M 3122 2075 
L 3122 331 
L 3634 331 
L 3634 0 
L 2547 0 
L 2547 359 
Q 2356 128 2106 18 
Q 1856 -91 1522 -91 
Q 969 -91 644 203 
Q 319 497 319 997 
Q 319 1513 691 1797 
Q 1063 2081 1741 2081 
L 2547 2081 
L 2547 2309 
Q 2547 2688 2317 2895 
Q 2088 3103 1672 3103 
Q 1328 3103 1125 2947 
Q 922 2791 872 2484 
L 575 2484 
L 575 3156 
Q 875 3284 1158 3348 
Q 1441 3413 1709 3413 
Q 2400 3413 2761 3070 
Q 3122 2728 3122 2075 
z
" transform="scale(0.015625)"/>
        <path id="DejaVuSerif-6e" d="M 263 0 
L 263 331 
L 781 331 
L 781 2988 
L 231 2988 
L 231 3322 
L 1356 3322 
L 1356 2731 
Q 1516 3069 1770 3241 
Q 2025 3413 2363 3413 
Q 2913 3413 3172 3097 
Q 3431 2781 3431 2113 
L 3431 331 
L 3944 331 
L 3944 0 
L 2356 0 
L 2356 331 
L 2853 331 
L 2853 1931 
Q 2853 2541 2703 2767 
Q 2553 2994 2175 2994 
Q 1775 2994 1565 2701 
Q 1356 2409 1356 1850 
L 1356 331 
L 1856 331 
L 1856 0 
L 263 0 
z
" transform="scale(0.015625)"/>
        <path id="DejaVuSerif-36" d="M 2094 219 
Q 2534 219 2771 542 
Q 3009 866 3009 1472 
Q 3009 2078 2771 2401 
Q 2534 2725 2094 2725 
Q 1647 2725 1412 2412 
Q 1178 2100 1178 1509 
Q 1178 888 1415 553 
Q 1653 219 2094 219 
z
M 1075 2569 
Q 1288 2803 1556 2918 
Q 1825 3034 2163 3034 
Q 2859 3034 3264 2615 
Q 3669 2197 3669 1472 
Q 3669 763 3233 336 
Q 2797 -91 2069 -91 
Q 1278 -91 853 498 
Q 428 1088 428 2181 
Q 428 3406 931 4078 
Q 1434 4750 2350 4750 
Q 2597 4750 2869 4703 
Q 3141 4656 3425 4563 
L 3425 3794 
L 3072 3794 
Q 3034 4109 2831 4275 
Q 2628 4441 2284 4441 
Q 1678 4441 1381 3981 
Q 1084 3522 1075 2569 
z
" transform="scale(0.015625)"/>
       </defs>
       <use xlink:href="#DejaVuSerif-4a"/>
       <use xlink:href="#DejaVuSerif-61" transform="translate(40.087891 0)"/>
       <use xlink:href="#DejaVuSerif-6e" transform="translate(99.707031 0)"/>
       <use xlink:href="#DejaVuSerif-20" transform="translate(164.111328 0)"/>
       <use xlink:href="#DejaVuSerif-32" transform="translate(195.898438 0)"/>
       <use xlink:href="#DejaVuSerif-30" transform="translate(259.521484 0)"/>
       <use xlink:href="#DejaVuSerif-32" transform="translate(323.144531 0)"/>
       <use xlink:href="#DejaVuSerif-36" transform="translate(386.767578 0)"/>
      </g>
     </g>
    </g>
    <g id="xtick_3">
     <g id="line2d_5">
      <path d="M 417.69002 159.53686 
L 417.69002 25.158281 
" clip-path="url(#pda10992cd5)" style="fill: none; stroke: #b0b0b0; stroke-opacity: 0.25; stroke-width: 0.5; stroke-linecap: square"/>
     </g>
     <g id="line2d_6">
      <g>
       <use xlink:href="#m9bc3ba90f3" x="417.69002" y="159.53686" style="stroke: #000000; stroke-width: 0.8"/>
      </g>
     </g>
     <g id="text_3">
      <!-- Feb 2026 -->
      <g transform="translate(384.061763 190.736212) rotate(-30) scale(0.08 -0.08)">
       <defs>
        <path id="DejaVuSerif-46" d="M 353 0 
L 353 331 
L 947 331 
L 947 4331 
L 353 4331 
L 353 4666 
L 4172 4666 
L 4172 3628 
L 3788 3628 
L 3788 4281 
L 1581 4281 
L 1581 2719 
L 3175 2719 
L 3175 3303 
L 3559 3303 
L 3559 1753 
L 3175 1753 
L 3175 2338 
L 1581 2338 
L 1581 331 
L 2328 331 
L 2328 0 
L 353 0 
z
" transform="scale(0.015625)"/>
        <path id="DejaVuSerif-62" d="M 738 331 
L 738 4531 
L 184 4531 
L 184 4863 
L 1313 4863 
L 1313 2803 
Q 1481 3116 1742 3264 
Q 2003 3413 2388 3413 
Q 3000 3413 3387 2928 
Q 3775 2444 3775 1663 
Q 3775 881 3387 395 
Q 3000 -91 2388 -91 
Q 2003 -91 1742 57 
Q 1481 206 1313 519 
L 1313 0 
L 184 0 
L 184 331 
L 738 331 
z
M 1313 1497 
Q 1313 897 1542 583 
Q 1772 269 2209 269 
Q 2650 269 2876 622 
Q 3103 975 3103 1663 
Q 3103 2353 2876 2703 
Q 2650 3053 2209 3053 
Q 1772 3053 1542 2737 
Q 1313 2422 1313 1825 
L 1313 1497 
z
" transform="scale(0.015625)"/>
       </defs>
       <use xlink:href="#DejaVuSerif-46"/>
       <use xlink:href="#DejaVuSerif-65" transform="translate(63.884766 0)"/>
       <use xlink:href="#DejaVuSerif-62" transform="translate(123.064453 0)"/>
       <use xlink:href="#DejaVuSerif-20" transform="translate(187.078125 0)"/>
       <use xlink:href="#DejaVuSerif-32" transform="translate(218.865234 0)"/>
       <use xlink:href="#DejaVuSerif-30" transform="translate(282.488281 0)"/>
       <use xlink:href="#DejaVuSerif-32" transform="translate(346.111328 0)"/>
       <use xlink:href="#DejaVuSerif-36" transform="translate(409.734375 0)"/>
      </g>
     </g>
    </g>
   </g>
   <g id="matplotlib.axis_2">
    <g id="ytick_1">
     <g id="line2d_7">
      <path d="M 50.870312 148.514528 
L 495.675313 148.514528 
" clip-path="url(#pda10992cd5)" style="fill: none; stroke: #b0b0b0; stroke-opacity: 0.25; stroke-width: 0.5; stroke-linecap: square"/>
     </g>
     <g id="line2d_8">
      <defs>
       <path id="md10129a9c4" d="M 0 0 
L -3.5 0 
" style="stroke: #000000; stroke-width: 0.8"/>
      </defs>
      <g>
       <use xlink:href="#md10129a9c4" x="50.870312" y="148.514528" style="stroke: #000000; stroke-width: 0.8"/>
      </g>
     </g>
     <g id="text_4">
      <!-- 5000 -->
      <g transform="translate(23.510312 151.553903) scale(0.08 -0.08)">
       <use xlink:href="#DejaVuSerif-35"/>
       <use xlink:href="#DejaVuSerif-30" transform="translate(63.623047 0)"/>
       <use xlink:href="#DejaVuSerif-30" transform="translate(127.246094 0)"/>
       <use xlink:href="#DejaVuSerif-30" transform="translate(190.869141 0)"/>
      </g>
     </g>
    </g>
    <g id="ytick_2">
     <g id="line2d_9">
      <path d="M 50.870312 117.01315 
L 495.675313 117.01315 
" clip-path="url(#pda10992cd5)" style="fill: none; stroke: #b0b0b0; stroke-opacity: 0.25; stroke-width: 0.5; stroke-linecap: square"/>
     </g>
     <g id="line2d_10">
      <g>
       <use xlink:href="#md10129a9c4" x="50.870312" y="117.01315" style="stroke: #000000; stroke-width: 0.8"/>
      </g>
     </g>
     <g id="text_5">
      <!-- 5500 -->
      <g transform="translate(23.510312 120.052525) scale(0.08 -0.08)">
       <use xlink:href="#DejaVuSerif-35"/>
       <use xlink:href="#DejaVuSerif-35" transform="translate(63.623047 0)"/>
       <use xlink:href="#DejaVuSerif-30" transform="translate(127.246094 0)"/>
       <use xlink:href="#DejaVuSerif-30" transform="translate(190.869141 0)"/>
      </g>
     </g>
    </g>
    <g id="ytick_3">
     <g id="line2d_11">
      <path d="M 50.870312 85.511772 
L 495.675313 85.511772 
" clip-path="url(#pda10992cd5)" style="fill: none; stroke: #b0b0b0; stroke-opacity: 0.25; stroke-width: 0.5; stroke-linecap: square"/>
     </g>
     <g id="line2d_12">
      <g>
       <use xlink:href="#md10129a9c4" x="50.870312" y="85.511772" style="stroke: #000000; stroke-width: 0.8"/>
      </g>
     </g>
     <g id="text_6">
      <!-- 6000 -->
      <g transform="translate(23.510312 88.551147) scale(0.08 -0.08)">
       <use xlink:href="#DejaVuSerif-36"/>
       <use xlink:href="#DejaVuSerif-30" transform="translate(63.623047 0)"/>
       <use xlink:href="#DejaVuSerif-30" transform="translate(127.246094 0)"/>
       <use xlink:href="#DejaVuSerif-30" transform="translate(190.869141 0)"/>
      </g>
     </g>
    </g>
    <g id="ytick_4">
     <g id="line2d_13">
      <path d="M 50.870312 54.010393 
L 495.675313 54.010393 
" clip-path="url(#pda10992cd5)" style="fill: none; stroke: #b0b0b0; stroke-opacity: 0.25; stroke-width: 0.5; stroke-linecap: square"/>
     </g>
     <g id="line2d_14">
      <g>
       <use xlink:href="#md10129a9c4" x="50.870312" y="54.010393" style="stroke: #000000; stroke-width: 0.8"/>
      </g>
     </g>
     <g id="text_7">
      <!-- 6500 -->
      <g transform="translate(23.510312 57.049768) scale(0.08 -0.08)">
       <use xlink:href="#DejaVuSerif-36"/>
       <use xlink:href="#DejaVuSerif-35" transform="translate(63.623047 0)"/>
       <use xlink:href="#DejaVuSerif-30" transform="translate(127.246094 0)"/>
       <use xlink:href="#DejaVuSerif-30" transform="translate(190.869141 0)"/>
      </g>
     </g>
    </g>
    <g id="text_8">
     <!-- ms -->
     <g transform="translate(17.638594 98.923899) rotate(-90) scale(0.09 -0.09)">
      <defs>
       <path id="DejaVuSerif-6d" d="M 3316 2675 
Q 3481 3041 3739 3227 
Q 3997 3413 4341 3413 
Q 4863 3413 5119 3089 
Q 5375 2766 5375 2113 
L 5375 331 
L 5894 331 
L 5894 0 
L 4300 0 
L 4300 331 
L 4800 331 
L 4800 2047 
Q 4800 2556 4650 2772 
Q 4500 2988 4153 2988 
Q 3769 2988 3567 2697 
Q 3366 2406 3366 1850 
L 3366 331 
L 3866 331 
L 3866 0 
L 2291 0 
L 2291 331 
L 2791 331 
L 2791 2069 
Q 2791 2566 2641 2777 
Q 2491 2988 2144 2988 
Q 1759 2988 1557 2697 
Q 1356 2406 1356 1850 
L 1356 331 
L 1856 331 
L 1856 0 
L 263 0 
L 263 331 
L 781 331 
L 781 2994 
L 231 2994 
L 231 3322 
L 1356 3322 
L 1356 2731 
Q 1516 3063 1762 3238 
Q 2009 3413 2322 3413 
Q 2709 3413 2968 3220 
Q 3228 3028 3316 2675 
z
" transform="scale(0.015625)"/>
       <path id="DejaVuSerif-73" d="M 359 184 
L 359 959 
L 691 959 
Q 703 588 923 403 
Q 1144 219 1575 219 
Q 1963 219 2166 364 
Q 2369 509 2369 788 
Q 2369 1006 2220 1140 
Q 2072 1275 1594 1428 
L 1178 1569 
Q 750 1706 558 1912 
Q 366 2119 366 2438 
Q 366 2894 700 3153 
Q 1034 3413 1625 3413 
Q 1888 3413 2178 3344 
Q 2469 3275 2778 3144 
L 2778 2419 
L 2447 2419 
Q 2434 2741 2221 2922 
Q 2009 3103 1644 3103 
Q 1281 3103 1095 2975 
Q 909 2847 909 2591 
Q 909 2381 1050 2254 
Q 1191 2128 1613 1997 
L 2069 1856 
Q 2541 1709 2748 1489 
Q 2956 1269 2956 922 
Q 2956 450 2595 179 
Q 2234 -91 1600 -91 
Q 1278 -91 972 -22 
Q 666 47 359 184 
z
" transform="scale(0.015625)"/>
      </defs>
      <use xlink:href="#DejaVuSerif-6d"/>
      <use xlink:href="#DejaVuSerif-73" transform="translate(94.824219 0)"/>
     </g>
    </g>
   </g>
   <g id="line2d_15">
    <path d="M 71.088722 144.797365 
L 75.532328 145.112379 
L 79.975934 145.868412 
L 84.419541 146.120423 
L 88.863147 146.435437 
L 93.306754 146.246429 
L 97.75036 146.309431 
L 102.193966 146.876456 
L 106.637573 146.939459 
L 111.081179 89.197433 
L 115.524786 78.140449 
L 119.968392 78.203452 
L 124.411998 78.140449 
L 128.855605 78.329457 
L 133.299211 78.644471 
L 137.742817 78.518466 
L 142.186424 78.581468 
L 146.63003 78.39246 
L 151.073637 78.455463 
L 155.517243 78.644471 
L 159.960849 78.518466 
L 164.404456 78.644471 
L 168.848062 78.707474 
L 173.291669 78.833479 
L 177.735275 79.022488 
L 182.178881 79.022488 
L 186.622488 78.896482 
L 191.066094 78.833479 
L 195.509701 79.022488 
L 199.953307 79.022488 
L 204.396913 79.022488 
L 208.84052 78.770477 
L 213.284126 78.707474 
L 217.727733 79.400504 
L 222.171339 79.589513 
L 226.614945 79.211496 
L 231.058552 79.463507 
L 235.502158 79.52651 
L 239.945765 79.589513 
L 244.389371 79.967529 
L 248.832977 79.904526 
L 253.276584 79.715518 
L 257.72019 79.904526 
L 262.163797 79.904526 
L 266.607403 79.904526 
L 271.051009 79.967529 
L 275.494616 80.156537 
L 279.938222 79.904526 
L 284.381828 80.030532 
L 288.825435 80.030532 
L 293.269041 79.841524 
L 297.712648 79.904526 
L 302.156254 80.030532 
L 306.59986 79.967529 
L 311.043467 79.904526 
L 315.487073 79.652515 
L 319.93068 79.904526 
L 324.374286 80.093535 
L 328.817892 80.156537 
L 333.261499 80.282543 
L 337.705105 80.345546 
L 342.148712 80.471551 
L 346.592318 80.408548 
L 351.035924 80.030532 
L 355.479531 80.345546 
L 359.923137 80.471551 
L 364.366744 80.21954 
L 368.81035 80.156537 
L 373.253956 80.093535 
L 377.697563 79.904526 
L 382.141169 79.841524 
L 386.584776 79.904526 
L 391.028382 80.156537 
L 395.471988 80.030532 
L 399.915595 80.21954 
L 404.359201 80.345546 
L 408.802808 80.408548 
L 413.246414 80.471551 
L 417.69002 80.408548 
L 422.133627 80.345546 
L 426.577233 80.21954 
L 431.020839 80.345546 
L 435.464446 80.282543 
L 439.908052 80.345546 
L 444.351659 80.282543 
L 448.795265 80.345546 
L 453.238871 80.408548 
L 457.682478 80.345546 
L 462.126084 80.156537 
L 466.569691 80.282543 
L 471.013297 80.282543 
L 475.456903 80.408548 
" clip-path="url(#pda10992cd5)" style="fill: none; stroke: #6497b1; stroke-width: 1.2; stroke-linecap: square"/>
   </g>
   <g id="patch_3">
    <path d="M 50.870312 159.53686 
L 50.870312 25.158281 
" style="fill: none; stroke: #000000; stroke-width: 0.6; stroke-linejoin: miter; stroke-linecap: square"/>
   </g>
   <g id="patch_4">
    <path d="M 50.870313 159.53686 
L 495.675312 159.53686 
" style="fill: none; stroke: #000000; stroke-width: 0.6; stroke-linejoin: miter; stroke-linecap: square"/>
   </g>
   <g id="text_9">
    <!-- Celestia — Block Time (ms) -->
    <g transform="translate(196.479062 19.158281) scale(0.11 -0.11)">
     <defs>
      <path id="DejaVuSerif-43" d="M 4513 1234 
Q 4306 581 3820 245 
Q 3334 -91 2591 -91 
Q 2134 -91 1743 65 
Q 1353 222 1050 525 
Q 700 875 529 1320 
Q 359 1766 359 2328 
Q 359 3416 987 4083 
Q 1616 4750 2644 4750 
Q 3025 4750 3456 4650 
Q 3888 4550 4384 4347 
L 4384 3272 
L 4031 3272 
Q 3916 3859 3567 4137 
Q 3219 4416 2591 4416 
Q 1844 4416 1459 3886 
Q 1075 3356 1075 2328 
Q 1075 1303 1459 773 
Q 1844 244 2591 244 
Q 3113 244 3450 492 
Q 3788 741 3938 1234 
L 4513 1234 
z
" transform="scale(0.015625)"/>
      <path id="DejaVuSerif-6c" d="M 1313 331 
L 1856 331 
L 1856 0 
L 184 0 
L 184 331 
L 738 331 
L 738 4531 
L 184 4531 
L 184 4863 
L 1313 4863 
L 1313 331 
z
" transform="scale(0.015625)"/>
      <path id="DejaVuSerif-74" d="M 691 2988 
L 184 2988 
L 184 3322 
L 691 3322 
L 691 4353 
L 1269 4353 
L 1269 3322 
L 2350 3322 
L 2350 2988 
L 1269 2988 
L 1269 878 
Q 1269 456 1350 337 
Q 1431 219 1650 219 
Q 1875 219 1978 351 
Q 2081 484 2088 781 
L 2522 781 
Q 2497 328 2275 118 
Q 2053 -91 1600 -91 
Q 1103 -91 897 129 
Q 691 350 691 878 
L 691 2988 
z
" transform="scale(0.015625)"/>
      <path id="DejaVuSerif-69" d="M 622 4353 
Q 622 4497 726 4603 
Q 831 4709 978 4709 
Q 1122 4709 1226 4603 
Q 1331 4497 1331 4353 
Q 1331 4206 1228 4103 
Q 1125 4000 978 4000 
Q 831 4000 726 4103 
Q 622 4206 622 4353 
z
M 1356 331 
L 1900 331 
L 1900 0 
L 231 0 
L 231 331 
L 781 331 
L 781 2988 
L 231 2988 
L 231 3322 
L 1356 3322 
L 1356 331 
z
" transform="scale(0.015625)"/>
      <path id="DejaVuSerif-2014" d="M 281 1906 
L 6119 1906 
L 6119 1491 
L 281 1491 
L 281 1906 
z
" transform="scale(0.015625)"/>
      <path id="DejaVuSerif-42" d="M 1581 331 
L 2516 331 
Q 3078 331 3337 575 
Q 3597 819 3597 1350 
Q 3597 1878 3339 2120 
Q 3081 2363 2516 2363 
L 1581 2363 
L 1581 331 
z
M 1581 2694 
L 2375 2694 
Q 2888 2694 3123 2891 
Q 3359 3088 3359 3513 
Q 3359 3941 3123 4136 
Q 2888 4331 2375 4331 
L 1581 4331 
L 1581 2694 
z
M 353 0 
L 353 331 
L 947 331 
L 947 4331 
L 353 4331 
L 353 4666 
L 2656 4666 
Q 3363 4666 3720 4377 
Q 4078 4088 4078 3513 
Q 4078 3097 3829 2850 
Q 3581 2603 3103 2547 
Q 3697 2472 4005 2167 
Q 4313 1863 4313 1350 
Q 4313 656 3875 328 
Q 3438 0 2509 0 
L 353 0 
z
" transform="scale(0.015625)"/>
      <path id="DejaVuSerif-6f" d="M 1925 219 
Q 2388 219 2623 584 
Q 2859 950 2859 1663 
Q 2859 2375 2623 2739 
Q 2388 3103 1925 3103 
Q 1463 3103 1227 2739 
Q 991 2375 991 1663 
Q 991 950 1228 584 
Q 1466 219 1925 219 
z
M 1925 -91 
Q 1200 -91 759 389 
Q 319 869 319 1663 
Q 319 2456 758 2934 
Q 1197 3413 1925 3413 
Q 2653 3413 3092 2934 
Q 3531 2456 3531 1663 
Q 3531 869 3092 389 
Q 2653 -91 1925 -91 
z
" transform="scale(0.015625)"/>
      <path id="DejaVuSerif-6b" d="M 1831 0 
L 219 0 
L 219 331 
L 738 331 
L 738 4531 
L 184 4531 
L 184 4863 
L 1313 4863 
L 1313 1697 
L 2713 2988 
L 2234 2988 
L 2234 3322 
L 3738 3322 
L 3738 2988 
L 3169 2988 
L 2181 2075 
L 3444 331 
L 3922 331 
L 3922 0 
L 2284 0 
L 2284 331 
L 2759 331 
L 1766 1697 
L 1313 1275 
L 1313 331 
L 1831 331 
L 1831 0 
z
" transform="scale(0.015625)"/>
      <path id="DejaVuSerif-54" d="M 1222 0 
L 1222 331 
L 1819 331 
L 1819 4294 
L 447 4294 
L 447 3566 
L 63 3566 
L 63 4666 
L 4206 4666 
L 4206 3566 
L 3822 3566 
L 3822 4294 
L 2450 4294 
L 2450 331 
L 3047 331 
L 3047 0 
L 1222 0 
z
" transform="scale(0.015625)"/>
      <path id="DejaVuSerif-28" d="M 2041 -997 
Q 1281 -656 893 83 
Q 506 822 506 1931 
Q 506 3044 893 3783 
Q 1281 4522 2041 4863 
L 2041 4556 
Q 1559 4225 1350 3623 
Q 1141 3022 1141 1931 
Q 1141 844 1350 242 
Q 1559 -359 2041 -691 
L 2041 -997 
z
" transform="scale(0.015625)"/>
      <path id="DejaVuSerif-29" d="M 453 -997 
L 453 -691 
Q 934 -359 1145 242 
Q 1356 844 1356 1931 
Q 1356 3022 1145 3623 
Q 934 4225 453 4556 
L 453 4863 
Q 1216 4522 1603 3783 
Q 1991 3044 1991 1931 
Q 1991 822 1603 83 
Q 1216 -656 453 -997 
z
" transform="scale(0.015625)"/>
     </defs>
     <use xlink:href="#DejaVuSerif-43"/>
     <use xlink:href="#DejaVuSerif-65" transform="translate(76.513672 0)"/>
     <use xlink:href="#DejaVuSerif-6c" transform="translate(135.693359 0)"/>
     <use xlink:href="#DejaVuSerif-65" transform="translate(167.675781 0)"/>
     <use xlink:href="#DejaVuSerif-73" transform="translate(226.855469 0)"/>
     <use xlink:href="#DejaVuSerif-74" transform="translate(278.173828 0)"/>
     <use xlink:href="#DejaVuSerif-69" transform="translate(318.359375 0)"/>
     <use xlink:href="#DejaVuSerif-61" transform="translate(350.341797 0)"/>
     <use xlink:href="#DejaVuSerif-20" transform="translate(409.960938 0)"/>
     <use xlink:href="#DejaVuSerif-2014" transform="translate(441.748047 0)"/>
     <use xlink:href="#DejaVuSerif-20" transform="translate(541.748047 0)"/>
     <use xlink:href="#DejaVuSerif-42" transform="translate(573.535156 0)"/>
     <use xlink:href="#DejaVuSerif-6c" transform="translate(647.021484 0)"/>
     <use xlink:href="#DejaVuSerif-6f" transform="translate(679.003906 0)"/>
     <use xlink:href="#DejaVuSerif-63" transform="translate(739.208984 0)"/>
     <use xlink:href="#DejaVuSerif-6b" transform="translate(795.214844 0)"/>
     <use xlink:href="#DejaVuSerif-20" transform="translate(855.810547 0)"/>
     <use xlink:href="#DejaVuSerif-54" transform="translate(887.597656 0)"/>
     <use xlink:href="#DejaVuSerif-69" transform="translate(954.296875 0)"/>
     <use xlink:href="#DejaVuSerif-6d" transform="translate(986.279297 0)"/>
     <use xlink:href="#DejaVuSerif-65" transform="translate(1081.103516 0)"/>
     <use xlink:href="#DejaVuSerif-20" transform="translate(1140.283203 0)"/>
     <use xlink:href="#DejaVuSerif-28" transform="translate(1172.070312 0)"/>
     <use xlink:href="#DejaVuSerif-6d" transform="translate(1211.083984 0)"/>
     <use xlink:href="#DejaVuSerif-73" transform="translate(1305.908203 0)"/>
     <use xlink:href="#DejaVuSerif-29" transform="translate(1357.226562 0)"/>
    </g>
   </g>
   <g id="legend_1">
    <g id="patch_5">
     <path d="M 429.872813 55.043281 
L 490.075312 55.043281 
Q 491.675313 55.043281 491.675313 53.443281 
L 491.675313 30.758281 
Q 491.675313 29.158281 490.075312 29.158281 
L 429.872813 29.158281 
Q 428.272813 29.158281 428.272813 30.758281 
L 428.272813 53.443281 
Q 428.272813 55.043281 429.872813 55.043281 
z
" style="fill: #ffffff; opacity: 0.9; stroke: #cccccc; stroke-linejoin: miter"/>
    </g>
    <g id="patch_6">
     <path d="M 431.472813 38.437031 
L 447.472813 38.437031 
L 447.472813 32.837031 
L 431.472813 32.837031 
z
" style="fill: #b3cde3; fill-opacity: 0.4; stroke: #b3cde3; stroke-opacity: 0.4; stroke-linejoin: miter"/>
    </g>
    <g id="text_10">
     <!-- p10–p90 -->
     <g transform="translate(453.872813 38.437031) scale(0.08 -0.08)">
      <defs>
       <path id="DejaVuSerif-70" d="M 1313 1825 
L 1313 1497 
Q 1313 897 1542 583 
Q 1772 269 2209 269 
Q 2650 269 2876 622 
Q 3103 975 3103 1663 
Q 3103 2353 2876 2703 
Q 2650 3053 2209 3053 
Q 1772 3053 1542 2737 
Q 1313 2422 1313 1825 
z
M 738 2988 
L 184 2988 
L 184 3322 
L 1313 3322 
L 1313 2803 
Q 1481 3116 1742 3264 
Q 2003 3413 2388 3413 
Q 3000 3413 3387 2928 
Q 3775 2444 3775 1663 
Q 3775 881 3387 395 
Q 3000 -91 2388 -91 
Q 2003 -91 1742 57 
Q 1481 206 1313 519 
L 1313 -997 
L 1856 -997 
L 1856 -1331 
L 184 -1331 
L 184 -997 
L 738 -997 
L 738 2988 
z
" transform="scale(0.015625)"/>
       <path id="DejaVuSerif-31" d="M 909 0 
L 909 331 
L 1722 331 
L 1722 4213 
L 781 3603 
L 781 4013 
L 1919 4750 
L 2350 4750 
L 2350 331 
L 3163 331 
L 3163 0 
L 909 0 
z
" transform="scale(0.015625)"/>
       <path id="DejaVuSerif-2013" d="M 281 1906 
L 2919 1906 
L 2919 1491 
L 281 1491 
L 281 1906 
z
" transform="scale(0.015625)"/>
       <path id="DejaVuSerif-39" d="M 2994 2091 
Q 2784 1856 2512 1740 
Q 2241 1625 1900 1625 
Q 1206 1625 804 2044 
Q 403 2463 403 3188 
Q 403 3897 839 4323 
Q 1275 4750 2003 4750 
Q 2794 4750 3217 4161 
Q 3641 3572 3641 2478 
Q 3641 1253 3137 581 
Q 2634 -91 1722 -91 
Q 1475 -91 1203 -44 
Q 931 3 647 97 
L 647 872 
L 997 872 
Q 1038 556 1241 387 
Q 1444 219 1784 219 
Q 2391 219 2687 676 
Q 2984 1134 2994 2091 
z
M 1978 4441 
Q 1534 4441 1298 4117 
Q 1063 3794 1063 3188 
Q 1063 2581 1298 2256 
Q 1534 1931 1978 1931 
Q 2422 1931 2658 2245 
Q 2894 2559 2894 3150 
Q 2894 3772 2656 4106 
Q 2419 4441 1978 4441 
z
" transform="scale(0.015625)"/>
      </defs>
      <use xlink:href="#DejaVuSerif-70"/>
      <use xlink:href="#DejaVuSerif-31" transform="translate(64.013672 0)"/>
      <use xlink:href="#DejaVuSerif-30" transform="translate(127.636719 0)"/>
      <use xlink:href="#DejaVuSerif-2013" transform="translate(191.259766 0)"/>
      <use xlink:href="#DejaVuSerif-70" transform="translate(241.259766 0)"/>
      <use xlink:href="#DejaVuSerif-39" transform="translate(305.273438 0)"/>
      <use xlink:href="#DejaVuSerif-30" transform="translate(368.896484 0)"/>
     </g>
    </g>
    <g id="line2d_16">
     <path d="M 431.472813 47.379531 
L 439.472813 47.379531 
L 447.472813 47.379531 
" style="fill: none; stroke: #6497b1; stroke-width: 1.2; stroke-linecap: square"/>
    </g>
    <g id="text_11">
     <!-- p50 -->
     <g transform="translate(453.872813 50.179531) scale(0.08 -0.08)">
      <use xlink:href="#DejaVuSerif-70"/>
      <use xlink:href="#DejaVuSerif-35" transform="translate(64.013672 0)"/>
      <use xlink:href="#DejaVuSerif-30" transform="translate(127.636719 0)"/>
     </g>
    </g>
   </g>
  </g>
 </g>
 <defs>
  <clipPath id="pda10992cd5">
   <rect x="50.870312" y="25.158281" width="444.805" height="134.378579"/>
  </clipPath>
 </defs>
</svg>
