<?xml version="1.0" encoding="utf-8" standalone="no"?>
<!DOCTYPE svg PUBLIC "-//W3C//DTD SVG 1.1//EN"
  "http://www.w3.org/Graphics/SVG/1.1/DTD/svg11.dtd">
<svg xmlns:xlink="http://www.w3.org/1999/xlink" width="506.654248pt" height="203.228937pt" viewBox="0 0 506.654248 203.228937" xmlns="http://www.w3.org/2000/svg" version="1.1">
 <metadata>
  <rdf:RDF xmlns:dc="http://purl.org/dc/elements/1.1/" xmlns:cc="http://creativecommons.org/ns#" xmlns:rdf="http://www.w3.org/1999/02/22-rdf-syntax-ns#">
   <cc:Work>
    <dc:type rdf:resource="http://purl.org/dc/dcmitype/StillImage"/>
    <dc:date>2026-02-16T16:57:27.515721</dc:date>
    <dc:format>image/svg+xml</dc:format>
    <dc:creator>
     <cc:Agent>
      <dc:title>Matplotlib v3.10.8, https://matplotlib.org/</dc:title>
     </cc:Agent>
    </dc:creator>
   </cc:Work>
  </rdf:RDF>
 </metadata>
 <defs>
  <style type="text/css">*{stroke-linejoin: round; stroke-linecap: butt}</style>
 </defs>
 <g id="figure_1">
  <g id="patch_1">
   <path d="M 0 203.228937 
L 506.654248 203.228937 
L 506.654248 0 
L 0 0 
z
" style="fill: #ffffff"/>
  </g>
  <g id="axes_1">
   <g id="patch_2">
    <path d="M 49.230312 159.45811 
L 495.854248 159.45811 
L 495.854248 25.158281 
L 49.230312 25.158281 
z
" style="fill: #ffffff"/>
   </g>
   <g id="FillBetweenPolyCollection_1">
    <path d="M 69.5314 90278.797805 
L 69.5314 90278.797805 
L 73.993178 114.460081 
L 78.454956 114.620073 
L 82.916733 115.306621 
L 87.378511 117.258701 
L 91.840288 119.037203 
L 96.302066 122.309788 
L 100.763843 124.035171 
L 105.225621 125.276016 
L 109.687399 125.006106 
L 114.149176 125.093252 
L 118.610954 125.516494 
L 123.072731 124.008462 
L 127.534509 125.236806 
L 131.996286 124.892097 
L 136.458064 123.762798 
L 140.919842 128.768332 
L 145.381619 128.189056 
L 149.843397 125.312449 
L 154.305174 125.11227 
L 158.766952 127.240285 
L 163.22873 129.317858 
L 167.690507 128.655989 
L 172.152285 128.653029 
L 176.614062 127.519691 
L 181.07584 126.547485 
L 185.537617 128.826294 
L 189.999395 128.592797 
L 194.461173 128.839999 
L 198.92295 129.963272 
L 203.384728 132.001524 
L 207.846505 133.278937 
L 212.308283 132.019225 
L 216.77006 134.625448 
L 221.231838 134.892497 
L 225.693616 134.1964 
L 230.155393 136.748404 
L 234.617171 137.948289 
L 239.078948 139.063299 
L 243.540726 139.724186 
L 248.002503 138.319034 
L 252.464281 138.148985 
L 256.926059 137.606433 
L 261.387836 136.44707 
L 265.849614 137.277764 
L 270.311391 137.775736 
L 274.773169 137.953128 
L 279.234946 136.382103 
L 283.696724 133.938091 
L 288.158502 132.377957 
L 292.620279 130.263004 
L 297.082057 128.686963 
L 301.543834 128.027679 
L 306.005612 128.745424 
L 310.467389 130.174081 
L 314.929167 130.252473 
L 319.390945 130.607215 
L 323.852722 130.16683 
L 328.3145 130.863868 
L 332.776277 129.29763 
L 337.238055 126.991238 
L 341.699832 128.796211 
L 346.16161 130.03264 
L 350.623388 128.32759 
L 355.085165 129.434581 
L 359.546943 134.869114 
L 364.00872 135.995033 
L 368.470498 136.740109 
L 372.932275 137.001219 
L 377.394053 137.685962 
L 381.855831 137.973028 
L 386.317608 139.181123 
L 390.779386 139.377461 
L 395.241163 139.26253 
L 399.702941 138.031058 
L 404.164719 140.04383 
L 408.626496 142.210326 
L 413.088274 144.72623 
L 417.550051 145.980486 
L 422.011829 146.31105 
L 426.473606 145.918196 
L 430.935384 146.10857 
L 435.397162 148.844845 
L 439.858939 151.186311 
L 444.320717 149.586159 
L 448.782494 149.899092 
L 453.244272 150.764622 
L 457.706049 151.853911 
L 462.167827 153.353572 
L 466.629605 151.837247 
L 471.091382 151.389264 
L 475.55316 149.145208 
L 475.55316 98.771979 
L 475.55316 98.771979 
L 471.091382 138.900235 
L 466.629605 136.659786 
L 462.167827 139.063144 
L 457.706049 139.107461 
L 453.244272 137.011599 
L 448.782494 136.067439 
L 444.320717 136.329943 
L 439.858939 126.212078 
L 435.397162 116.811698 
L 430.935384 132.533156 
L 426.473606 128.675579 
L 422.011829 129.736371 
L 417.550051 82.513298 
L 413.088274 121.7732 
L 408.626496 127.973912 
L 404.164719 122.524881 
L 399.702941 121.419563 
L 395.241163 123.17024 
L 390.779386 122.811341 
L 386.317608 121.312293 
L 381.855831 121.511699 
L 377.394053 120.25522 
L 372.932275 123.000978 
L 368.470498 119.562845 
L 364.00872 119.046192 
L 359.546943 112.052994 
L 355.085165 112.501997 
L 350.623388 110.122276 
L 346.16161 107.337047 
L 341.699832 104.913617 
L 337.238055 93.32469 
L 332.776277 82.63685 
L 328.3145 102.076339 
L 323.852722 110.882641 
L 319.390945 114.051419 
L 314.929167 110.856941 
L 310.467389 108.342535 
L 306.005612 103.748945 
L 301.543834 90.11381 
L 297.082057 97.424729 
L 292.620279 89.500321 
L 288.158502 103.223806 
L 283.696724 92.002403 
L 279.234946 89.628467 
L 274.773169 100.373473 
L 270.311391 98.198376 
L 265.849614 109.467195 
L 261.387836 108.773229 
L 256.926059 107.54964 
L 252.464281 88.075154 
L 248.002503 108.039836 
L 243.540726 110.229121 
L 239.078948 111.240748 
L 234.617171 99.252058 
L 230.155393 120.146063 
L 225.693616 133.58798 
L 221.231838 134.291414 
L 216.77006 133.504798 
L 212.308283 129.310996 
L 207.846505 119.518623 
L 203.384728 94.433013 
L 198.92295 96.034317 
L 194.461173 97.792527 
L 189.999395 95.97636 
L 185.537617 93.484371 
L 181.07584 91.970825 
L 176.614062 90.403132 
L 172.152285 97.951974 
L 167.690507 97.297334 
L 163.22873 106.484186 
L 158.766952 99.866633 
L 154.305174 87.216305 
L 149.843397 86.459839 
L 145.381619 82.617107 
L 140.919842 77.557303 
L 136.458064 60.868895 
L 131.996286 92.222535 
L 127.534509 31.262819 
L 123.072731 86.301835 
L 118.610954 83.526725 
L 114.149176 67.751142 
L 109.687399 71.557316 
L 105.225621 79.432349 
L 100.763843 78.205758 
L 96.302066 69.852237 
L 91.840288 65.656737 
L 87.378511 64.934473 
L 82.916733 65.495101 
L 78.454956 61.656023 
L 73.993178 64.137657 
L 69.5314 90278.797805 
z
" clip-path="url(#pb2629bfb37)" style="fill: #b3cde3; fill-opacity: 0.4; stroke: #b3cde3; stroke-opacity: 0.4"/>
   </g>
   <g id="matplotlib.axis_1">
    <g id="xtick_1">
     <g id="line2d_1">
      <path d="M 140.919842 159.45811 
L 140.919842 25.158281 
" clip-path="url(#pb2629bfb37)" style="fill: none; stroke: #b0b0b0; stroke-opacity: 0.25; stroke-width: 0.5; stroke-linecap: square"/>
     </g>
     <g id="line2d_2">
      <defs>
       <path id="m1dc7e6f6cf" d="M 0 0 
L 0 3.5 
" style="stroke: #000000; stroke-width: 0.8"/>
      </defs>
      <g>
       <use xlink:href="#m1dc7e6f6cf" x="140.919842" y="159.45811" style="stroke: #000000; stroke-width: 0.8"/>
      </g>
     </g>
     <g id="text_1">
      <!-- Dec 2025 -->
      <g transform="translate(106.718925 190.988087) rotate(-30) scale(0.08 -0.08)">
       <defs>
        <path id="DejaVuSerif-44" d="M 1581 331 
L 2163 331 
Q 3072 331 3558 850 
Q 4044 1369 4044 2338 
Q 4044 3306 3559 3818 
Q 3075 4331 2163 4331 
L 1581 4331 
L 1581 331 
z
M 353 0 
L 353 331 
L 947 331 
L 947 4331 
L 353 4331 
L 353 4666 
L 2209 4666 
Q 3416 4666 4089 4050 
Q 4763 3434 4763 2338 
Q 4763 1238 4088 619 
Q 3413 0 2209 0 
L 353 0 
z
" transform="scale(0.015625)"/>
        <path id="DejaVuSerif-65" d="M 3469 1600 
L 991 1600 
L 991 1575 
Q 991 903 1244 561 
Q 1497 219 1991 219 
Q 2369 219 2611 417 
Q 2853 616 2950 1006 
L 3413 1006 
Q 3275 459 2904 184 
Q 2534 -91 1931 -91 
Q 1203 -91 761 389 
Q 319 869 319 1663 
Q 319 2450 753 2931 
Q 1188 3413 1894 3413 
Q 2647 3413 3050 2948 
Q 3453 2484 3469 1600 
z
M 2791 1931 
Q 2772 2513 2545 2808 
Q 2319 3103 1894 3103 
Q 1497 3103 1269 2806 
Q 1041 2509 991 1931 
L 2791 1931 
z
" transform="scale(0.015625)"/>
        <path id="DejaVuSerif-63" d="M 3291 997 
Q 3169 466 2822 187 
Q 2475 -91 1925 -91 
Q 1200 -91 759 389 
Q 319 869 319 1663 
Q 319 2459 759 2936 
Q 1200 3413 1925 3413 
Q 2241 3413 2553 3339 
Q 2866 3266 3181 3116 
L 3181 2266 
L 2847 2266 
Q 2781 2703 2561 2903 
Q 2341 3103 1931 3103 
Q 1466 3103 1228 2742 
Q 991 2381 991 1663 
Q 991 944 1227 581 
Q 1463 219 1931 219 
Q 2303 219 2525 412 
Q 2747 606 2828 997 
L 3291 997 
z
" transform="scale(0.015625)"/>
        <path id="DejaVuSerif-20" transform="scale(0.015625)"/>
        <path id="DejaVuSerif-32" d="M 819 3553 
L 469 3553 
L 469 4384 
Q 803 4563 1142 4656 
Q 1481 4750 1806 4750 
Q 2534 4750 2956 4397 
Q 3378 4044 3378 3438 
Q 3378 2753 2422 1800 
Q 2347 1728 2309 1691 
L 1131 513 
L 3078 513 
L 3078 1088 
L 3444 1088 
L 3444 0 
L 434 0 
L 434 341 
L 1850 1753 
Q 2319 2222 2519 2614 
Q 2719 3006 2719 3438 
Q 2719 3909 2473 4175 
Q 2228 4441 1797 4441 
Q 1350 4441 1106 4219 
Q 863 3997 819 3553 
z
" transform="scale(0.015625)"/>
        <path id="DejaVuSerif-30" d="M 2034 219 
Q 2513 219 2750 744 
Q 2988 1269 2988 2328 
Q 2988 3391 2750 3916 
Q 2513 4441 2034 4441 
Q 1556 4441 1318 3916 
Q 1081 3391 1081 2328 
Q 1081 1269 1318 744 
Q 1556 219 2034 219 
z
M 2034 -91 
Q 1275 -91 848 546 
Q 422 1184 422 2328 
Q 422 3475 848 4112 
Q 1275 4750 2034 4750 
Q 2797 4750 3222 4112 
Q 3647 3475 3647 2328 
Q 3647 1184 3222 546 
Q 2797 -91 2034 -91 
z
" transform="scale(0.015625)"/>
        <path id="DejaVuSerif-35" d="M 3219 4666 
L 3219 4153 
L 1081 4153 
L 1081 2816 
Q 1244 2928 1461 2984 
Q 1678 3041 1947 3041 
Q 2703 3041 3140 2622 
Q 3578 2203 3578 1478 
Q 3578 738 3136 323 
Q 2694 -91 1894 -91 
Q 1572 -91 1234 -12 
Q 897 66 544 225 
L 544 1131 
L 897 1131 
Q 925 688 1179 453 
Q 1434 219 1894 219 
Q 2388 219 2653 544 
Q 2919 869 2919 1478 
Q 2919 2084 2655 2407 
Q 2391 2731 1894 2731 
Q 1613 2731 1398 2631 
Q 1184 2531 1019 2322 
L 750 2322 
L 750 4666 
L 3219 4666 
z
" transform="scale(0.015625)"/>
       </defs>
       <use xlink:href="#DejaVuSerif-44"/>
       <use xlink:href="#DejaVuSerif-65" transform="translate(80.175781 0)"/>
       <use xlink:href="#DejaVuSerif-63" transform="translate(139.355469 0)"/>
       <use xlink:href="#DejaVuSerif-20" transform="translate(195.361328 0)"/>
       <use xlink:href="#DejaVuSerif-32" transform="translate(227.148438 0)"/>
       <use xlink:href="#DejaVuSerif-30" transform="translate(290.771484 0)"/>
       <use xlink:href="#DejaVuSerif-32" transform="translate(354.394531 0)"/>
       <use xlink:href="#DejaVuSerif-35" transform="translate(418.017578 0)"/>
      </g>
     </g>
    </g>
    <g id="xtick_2">
     <g id="line2d_3">
      <path d="M 279.234946 159.45811 
L 279.234946 25.158281 
" clip-path="url(#pb2629bfb37)" style="fill: none; stroke: #b0b0b0; stroke-opacity: 0.25; stroke-width: 0.5; stroke-linecap: square"/>
     </g>
     <g id="line2d_4">
      <g>
       <use xlink:href="#m1dc7e6f6cf" x="279.234946" y="159.45811" style="stroke: #000000; stroke-width: 0.8"/>
      </g>
     </g>
     <g id="text_2">
      <!-- Jan 2026 -->
      <g transform="translate(247.198011 189.738712) rotate(-30) scale(0.08 -0.08)">
       <defs>
        <path id="DejaVuSerif-4a" d="M -538 -1119 
L -538 -384 
L -181 -384 
Q -172 -694 -34 -845 
Q 103 -997 378 -997 
Q 750 -997 897 -762 
Q 1044 -528 1044 153 
L 1044 4331 
L 319 4331 
L 319 4666 
L 2272 4666 
L 2272 4331 
L 1678 4331 
L 1678 128 
Q 1678 -644 1368 -987 
Q 1059 -1331 372 -1331 
Q 150 -1331 -79 -1278 
Q -309 -1225 -538 -1119 
z
" transform="scale(0.015625)"/>
        <path id="DejaVuSerif-61" d="M 2547 1044 
L 2547 1747 
L 1806 1747 
Q 1378 1747 1168 1562 
Q 959 1378 959 997 
Q 959 650 1171 447 
Q 1384 244 1747 244 
Q 2106 244 2326 466 
Q 2547 688 2547 1044 
z
M 3122 2075 
L 3122 331 
L 3634 331 
L 3634 0 
L 2547 0 
L 2547 359 
Q 2356 128 2106 18 
Q 1856 -91 1522 -91 
Q 969 -91 644 203 
Q 319 497 319 997 
Q 319 1513 691 1797 
Q 1063 2081 1741 2081 
L 2547 2081 
L 2547 2309 
Q 2547 2688 2317 2895 
Q 2088 3103 1672 3103 
Q 1328 3103 1125 2947 
Q 922 2791 872 2484 
L 575 2484 
L 575 3156 
Q 875 3284 1158 3348 
Q 1441 3413 1709 3413 
Q 2400 3413 2761 3070 
Q 3122 2728 3122 2075 
z
" transform="scale(0.015625)"/>
        <path id="DejaVuSerif-6e" d="M 263 0 
L 263 331 
L 781 331 
L 781 2988 
L 231 2988 
L 231 3322 
L 1356 3322 
L 1356 2731 
Q 1516 3069 1770 3241 
Q 2025 3413 2363 3413 
Q 2913 3413 3172 3097 
Q 3431 2781 3431 2113 
L 3431 331 
L 3944 331 
L 3944 0 
L 2356 0 
L 2356 331 
L 2853 331 
L 2853 1931 
Q 2853 2541 2703 2767 
Q 2553 2994 2175 2994 
Q 1775 2994 1565 2701 
Q 1356 2409 1356 1850 
L 1356 331 
L 1856 331 
L 1856 0 
L 263 0 
z
" transform="scale(0.015625)"/>
        <path id="DejaVuSerif-36" d="M 2094 219 
Q 2534 219 2771 542 
Q 3009 866 3009 1472 
Q 3009 2078 2771 2401 
Q 2534 2725 2094 2725 
Q 1647 2725 1412 2412 
Q 1178 2100 1178 1509 
Q 1178 888 1415 553 
Q 1653 219 2094 219 
z
M 1075 2569 
Q 1288 2803 1556 2918 
Q 1825 3034 2163 3034 
Q 2859 3034 3264 2615 
Q 3669 2197 3669 1472 
Q 3669 763 3233 336 
Q 2797 -91 2069 -91 
Q 1278 -91 853 498 
Q 428 1088 428 2181 
Q 428 3406 931 4078 
Q 1434 4750 2350 4750 
Q 2597 4750 2869 4703 
Q 3141 4656 3425 4563 
L 3425 3794 
L 3072 3794 
Q 3034 4109 2831 4275 
Q 2628 4441 2284 4441 
Q 1678 4441 1381 3981 
Q 1084 3522 1075 2569 
z
" transform="scale(0.015625)"/>
       </defs>
       <use xlink:href="#DejaVuSerif-4a"/>
       <use xlink:href="#DejaVuSerif-61" transform="translate(40.087891 0)"/>
       <use xlink:href="#DejaVuSerif-6e" transform="translate(99.707031 0)"/>
       <use xlink:href="#DejaVuSerif-20" transform="translate(164.111328 0)"/>
       <use xlink:href="#DejaVuSerif-32" transform="translate(195.898438 0)"/>
       <use xlink:href="#DejaVuSerif-30" transform="translate(259.521484 0)"/>
       <use xlink:href="#DejaVuSerif-32" transform="translate(323.144531 0)"/>
       <use xlink:href="#DejaVuSerif-36" transform="translate(386.767578 0)"/>
      </g>
     </g>
    </g>
    <g id="xtick_3">
     <g id="line2d_5">
      <path d="M 417.550051 159.45811 
L 417.550051 25.158281 
" clip-path="url(#pb2629bfb37)" style="fill: none; stroke: #b0b0b0; stroke-opacity: 0.25; stroke-width: 0.5; stroke-linecap: square"/>
     </g>
     <g id="line2d_6">
      <g>
       <use xlink:href="#m1dc7e6f6cf" x="417.550051" y="159.45811" style="stroke: #000000; stroke-width: 0.8"/>
      </g>
     </g>
     <g id="text_3">
      <!-- Feb 2026 -->
      <g transform="translate(383.921794 190.657462) rotate(-30) scale(0.08 -0.08)">
       <defs>
        <path id="DejaVuSerif-46" d="M 353 0 
L 353 331 
L 947 331 
L 947 4331 
L 353 4331 
L 353 4666 
L 4172 4666 
L 4172 3628 
L 3788 3628 
L 3788 4281 
L 1581 4281 
L 1581 2719 
L 3175 2719 
L 3175 3303 
L 3559 3303 
L 3559 1753 
L 3175 1753 
L 3175 2338 
L 1581 2338 
L 1581 331 
L 2328 331 
L 2328 0 
L 353 0 
z
" transform="scale(0.015625)"/>
        <path id="DejaVuSerif-62" d="M 738 331 
L 738 4531 
L 184 4531 
L 184 4863 
L 1313 4863 
L 1313 2803 
Q 1481 3116 1742 3264 
Q 2003 3413 2388 3413 
Q 3000 3413 3387 2928 
Q 3775 2444 3775 1663 
Q 3775 881 3387 395 
Q 3000 -91 2388 -91 
Q 2003 -91 1742 57 
Q 1481 206 1313 519 
L 1313 0 
L 184 0 
L 184 331 
L 738 331 
z
M 1313 1497 
Q 1313 897 1542 583 
Q 1772 269 2209 269 
Q 2650 269 2876 622 
Q 3103 975 3103 1663 
Q 3103 2353 2876 2703 
Q 2650 3053 2209 3053 
Q 1772 3053 1542 2737 
Q 1313 2422 1313 1825 
L 1313 1497 
z
" transform="scale(0.015625)"/>
       </defs>
       <use xlink:href="#DejaVuSerif-46"/>
       <use xlink:href="#DejaVuSerif-65" transform="translate(63.884766 0)"/>
       <use xlink:href="#DejaVuSerif-62" transform="translate(123.064453 0)"/>
       <use xlink:href="#DejaVuSerif-20" transform="translate(187.078125 0)"/>
       <use xlink:href="#DejaVuSerif-32" transform="translate(218.865234 0)"/>
       <use xlink:href="#DejaVuSerif-30" transform="translate(282.488281 0)"/>
       <use xlink:href="#DejaVuSerif-32" transform="translate(346.111328 0)"/>
       <use xlink:href="#DejaVuSerif-36" transform="translate(409.734375 0)"/>
      </g>
     </g>
    </g>
   </g>
   <g id="matplotlib.axis_2">
    <g id="ytick_1">
     <g id="line2d_7">
      <path d="M 49.230312 156.166771 
L 495.854248 156.166771 
" clip-path="url(#pb2629bfb37)" style="fill: none; stroke: #b0b0b0; stroke-opacity: 0.25; stroke-width: 0.5; stroke-linecap: square"/>
     </g>
     <g id="line2d_8">
      <defs>
       <path id="m0fa87388ba" d="M 0 0 
L -3.5 0 
" style="stroke: #000000; stroke-width: 0.8"/>
      </defs>
      <g>
       <use xlink:href="#m0fa87388ba" x="49.230312" y="156.166771" style="stroke: #000000; stroke-width: 0.8"/>
      </g>
     </g>
     <g id="text_4">
      <!-- $\mathdefault{10^{-2}}$ -->
      <g transform="translate(23.510312 159.206146) scale(0.08 -0.08)">
       <defs>
        <path id="DejaVuSerif-31" d="M 909 0 
L 909 331 
L 1722 331 
L 1722 4213 
L 781 3603 
L 781 4013 
L 1919 4750 
L 2350 4750 
L 2350 331 
L 3163 331 
L 3163 0 
L 909 0 
z
" transform="scale(0.015625)"/>
        <path id="DejaVuSerif-2212" d="M 678 2259 
L 4684 2259 
L 4684 1753 
L 678 1753 
L 678 2259 
z
" transform="scale(0.015625)"/>
       </defs>
       <use xlink:href="#DejaVuSerif-31" transform="translate(0 0.7125)"/>
       <use xlink:href="#DejaVuSerif-30" transform="translate(63.623047 0.7125)"/>
       <use xlink:href="#DejaVuSerif-2212" transform="translate(128.154453 37.046875) scale(0.7)"/>
       <use xlink:href="#DejaVuSerif-32" transform="translate(186.806797 37.046875) scale(0.7)"/>
      </g>
     </g>
    </g>
    <g id="ytick_2">
     <g id="line2d_9">
      <path d="M 49.230312 65.863534 
L 495.854248 65.863534 
" clip-path="url(#pb2629bfb37)" style="fill: none; stroke: #b0b0b0; stroke-opacity: 0.25; stroke-width: 0.5; stroke-linecap: square"/>
     </g>
     <g id="line2d_10">
      <g>
       <use xlink:href="#m0fa87388ba" x="49.230312" y="65.863534" style="stroke: #000000; stroke-width: 0.8"/>
      </g>
     </g>
     <g id="text_5">
      <!-- $\mathdefault{10^{-1}}$ -->
      <g transform="translate(23.510312 68.902909) scale(0.08 -0.08)">
       <use xlink:href="#DejaVuSerif-31" transform="translate(0 0.7125)"/>
       <use xlink:href="#DejaVuSerif-30" transform="translate(63.623047 0.7125)"/>
       <use xlink:href="#DejaVuSerif-2212" transform="translate(128.154453 37.046875) scale(0.7)"/>
       <use xlink:href="#DejaVuSerif-31" transform="translate(186.806797 37.046875) scale(0.7)"/>
      </g>
     </g>
    </g>
    <g id="ytick_3">
     <g id="line2d_11">
      <defs>
       <path id="m4bd2b1e88c" d="M 0 0 
L -2 0 
" style="stroke: #000000; stroke-width: 0.6"/>
      </defs>
      <g>
       <use xlink:href="#m4bd2b1e88c" x="49.230312" y="128.982788" style="stroke: #000000; stroke-width: 0.6"/>
      </g>
     </g>
    </g>
    <g id="ytick_4">
     <g id="line2d_12">
      <g>
       <use xlink:href="#m4bd2b1e88c" x="49.230312" y="113.081177" style="stroke: #000000; stroke-width: 0.6"/>
      </g>
     </g>
    </g>
    <g id="ytick_5">
     <g id="line2d_13">
      <g>
       <use xlink:href="#m4bd2b1e88c" x="49.230312" y="101.798805" style="stroke: #000000; stroke-width: 0.6"/>
      </g>
     </g>
    </g>
    <g id="ytick_6">
     <g id="line2d_14">
      <g>
       <use xlink:href="#m4bd2b1e88c" x="49.230312" y="93.047517" style="stroke: #000000; stroke-width: 0.6"/>
      </g>
     </g>
    </g>
    <g id="ytick_7">
     <g id="line2d_15">
      <g>
       <use xlink:href="#m4bd2b1e88c" x="49.230312" y="85.897194" style="stroke: #000000; stroke-width: 0.6"/>
      </g>
     </g>
    </g>
    <g id="ytick_8">
     <g id="line2d_16">
      <g>
       <use xlink:href="#m4bd2b1e88c" x="49.230312" y="79.851682" style="stroke: #000000; stroke-width: 0.6"/>
      </g>
     </g>
    </g>
    <g id="ytick_9">
     <g id="line2d_17">
      <g>
       <use xlink:href="#m4bd2b1e88c" x="49.230312" y="74.614822" style="stroke: #000000; stroke-width: 0.6"/>
      </g>
     </g>
    </g>
    <g id="ytick_10">
     <g id="line2d_18">
      <g>
       <use xlink:href="#m4bd2b1e88c" x="49.230312" y="69.995583" style="stroke: #000000; stroke-width: 0.6"/>
      </g>
     </g>
    </g>
    <g id="ytick_11">
     <g id="line2d_19">
      <g>
       <use xlink:href="#m4bd2b1e88c" x="49.230312" y="38.679551" style="stroke: #000000; stroke-width: 0.6"/>
      </g>
     </g>
    </g>
    <g id="text_6">
     <!-- $/MiB -->
     <g transform="translate(17.638594 106.04093) rotate(-90) scale(0.09 -0.09)">
      <defs>
       <path id="DejaVuSerif-24" d="M 2156 213 
Q 2509 244 2695 416 
Q 2881 588 2881 884 
Q 2881 1153 2697 1340 
Q 2513 1528 2156 1625 
L 2156 213 
z
M 1844 3709 
Q 1522 3688 1344 3523 
Q 1166 3359 1166 3084 
Q 1166 2834 1330 2668 
Q 1494 2503 1844 2400 
L 1844 3709 
z
M 550 225 
L 550 1088 
L 888 1088 
Q 900 659 1137 440 
Q 1375 222 1844 213 
L 1844 1728 
Q 1125 1928 834 2189 
Q 544 2450 544 2881 
Q 544 3381 887 3684 
Q 1231 3988 1844 4025 
L 1844 4863 
L 2156 4863 
L 2156 4025 
Q 2472 4000 2764 3923 
Q 3056 3847 3334 3719 
L 3334 2900 
L 2994 2900 
Q 2956 3263 2740 3472 
Q 2525 3681 2156 3709 
L 2156 2297 
Q 2925 2088 3233 1817 
Q 3541 1547 3541 1094 
Q 3541 575 3178 262 
Q 2816 -50 2156 -97 
L 2156 -941 
L 1844 -941 
L 1844 -97 
Q 1544 -91 1222 -11 
Q 900 69 550 225 
z
" transform="scale(0.015625)"/>
       <path id="DejaVuSerif-2f" d="M 1656 4666 
L 2156 4666 
L 500 -594 
L 0 -594 
L 1656 4666 
z
" transform="scale(0.015625)"/>
       <path id="DejaVuSerif-4d" d="M 353 0 
L 353 331 
L 947 331 
L 947 4331 
L 319 4331 
L 319 4666 
L 1678 4666 
L 3316 1344 
L 4953 4666 
L 6228 4666 
L 6228 4331 
L 5606 4331 
L 5606 331 
L 6203 331 
L 6203 0 
L 4378 0 
L 4378 331 
L 4972 331 
L 4972 3938 
L 3372 684 
L 2931 684 
L 1331 3938 
L 1331 331 
L 1925 331 
L 1925 0 
L 353 0 
z
" transform="scale(0.015625)"/>
       <path id="DejaVuSerif-69" d="M 622 4353 
Q 622 4497 726 4603 
Q 831 4709 978 4709 
Q 1122 4709 1226 4603 
Q 1331 4497 1331 4353 
Q 1331 4206 1228 4103 
Q 1125 4000 978 4000 
Q 831 4000 726 4103 
Q 622 4206 622 4353 
z
M 1356 331 
L 1900 331 
L 1900 0 
L 231 0 
L 231 331 
L 781 331 
L 781 2988 
L 231 2988 
L 231 3322 
L 1356 3322 
L 1356 331 
z
" transform="scale(0.015625)"/>
       <path id="DejaVuSerif-42" d="M 1581 331 
L 2516 331 
Q 3078 331 3337 575 
Q 3597 819 3597 1350 
Q 3597 1878 3339 2120 
Q 3081 2363 2516 2363 
L 1581 2363 
L 1581 331 
z
M 1581 2694 
L 2375 2694 
Q 2888 2694 3123 2891 
Q 3359 3088 3359 3513 
Q 3359 3941 3123 4136 
Q 2888 4331 2375 4331 
L 1581 4331 
L 1581 2694 
z
M 353 0 
L 353 331 
L 947 331 
L 947 4331 
L 353 4331 
L 353 4666 
L 2656 4666 
Q 3363 4666 3720 4377 
Q 4078 4088 4078 3513 
Q 4078 3097 3829 2850 
Q 3581 2603 3103 2547 
Q 3697 2472 4005 2167 
Q 4313 1863 4313 1350 
Q 4313 656 3875 328 
Q 3438 0 2509 0 
L 353 0 
z
" transform="scale(0.015625)"/>
      </defs>
      <use xlink:href="#DejaVuSerif-24"/>
      <use xlink:href="#DejaVuSerif-2f" transform="translate(63.623047 0)"/>
      <use xlink:href="#DejaVuSerif-4d" transform="translate(97.314453 0)"/>
      <use xlink:href="#DejaVuSerif-69" transform="translate(199.707031 0)"/>
      <use xlink:href="#DejaVuSerif-42" transform="translate(231.689453 0)"/>
     </g>
    </g>
   </g>
   <g id="FillBetweenPolyCollection_2">
    <path d="M 69.5314 90278.797805 
L 69.5314 90278.797805 
L 73.993178 114.460081 
L 78.454956 114.620073 
L 82.916733 115.306621 
L 87.378511 117.258701 
L 91.840288 119.037203 
L 96.302066 122.309788 
L 100.763843 124.035171 
L 105.225621 125.276016 
L 109.687399 125.006106 
L 114.149176 125.093252 
L 118.610954 125.516494 
L 123.072731 124.008462 
L 127.534509 125.236806 
L 131.996286 124.892097 
L 136.458064 123.762798 
L 140.919842 128.768332 
L 145.381619 128.189056 
L 149.843397 125.312449 
L 154.305174 125.11227 
L 158.766952 127.240285 
L 163.22873 129.317858 
L 167.690507 128.655989 
L 172.152285 128.653029 
L 176.614062 127.519691 
L 181.07584 126.547485 
L 185.537617 128.826294 
L 189.999395 128.592797 
L 194.461173 128.839999 
L 198.92295 129.963272 
L 203.384728 132.001524 
L 207.846505 133.278937 
L 212.308283 132.019225 
L 216.77006 134.625448 
L 221.231838 134.892497 
L 225.693616 134.1964 
L 230.155393 136.748404 
L 234.617171 137.948289 
L 239.078948 139.063299 
L 243.540726 139.724186 
L 248.002503 138.319034 
L 252.464281 138.148985 
L 256.926059 137.606433 
L 261.387836 136.44707 
L 265.849614 137.277764 
L 270.311391 137.775736 
L 274.773169 137.953128 
L 279.234946 136.382103 
L 283.696724 133.938091 
L 288.158502 132.377957 
L 292.620279 130.263004 
L 297.082057 128.686963 
L 301.543834 128.027679 
L 306.005612 128.745424 
L 310.467389 130.174081 
L 314.929167 130.252473 
L 319.390945 130.607215 
L 323.852722 130.16683 
L 328.3145 130.863868 
L 332.776277 129.29763 
L 337.238055 126.991238 
L 341.699832 128.796211 
L 346.16161 130.03264 
L 350.623388 128.32759 
L 355.085165 129.434581 
L 359.546943 134.869114 
L 364.00872 135.995033 
L 368.470498 136.740109 
L 372.932275 137.001219 
L 377.394053 137.685962 
L 381.855831 137.973028 
L 386.317608 139.181123 
L 390.779386 139.377461 
L 395.241163 139.26253 
L 399.702941 138.031058 
L 404.164719 140.04383 
L 408.626496 142.210326 
L 413.088274 144.72623 
L 417.550051 145.980486 
L 422.011829 146.31105 
L 426.473606 145.918196 
L 430.935384 146.10857 
L 435.397162 148.844845 
L 439.858939 151.186311 
L 444.320717 149.586159 
L 448.782494 149.899092 
L 453.244272 150.764622 
L 457.706049 151.853911 
L 462.167827 153.353572 
L 466.629605 151.837247 
L 471.091382 151.389264 
L 475.55316 149.145208 
L 475.55316 147.62247 
L 475.55316 147.62247 
L 471.091382 149.91489 
L 466.629605 150.407273 
L 462.167827 151.942813 
L 457.706049 150.40631 
L 453.244272 149.358909 
L 448.782494 148.398182 
L 444.320717 148.180833 
L 439.858939 149.71419 
L 435.397162 147.230669 
L 430.935384 144.843705 
L 426.473606 144.331332 
L 422.011829 144.926937 
L 417.550051 143.977312 
L 413.088274 143.237988 
L 408.626496 140.8092 
L 404.164719 138.560621 
L 399.702941 136.627467 
L 395.241163 137.681362 
L 390.779386 137.774813 
L 386.317608 137.564 
L 381.855831 136.459133 
L 377.394053 136.059761 
L 372.932275 135.506375 
L 368.470498 135.109862 
L 364.00872 134.55717 
L 359.546943 133.261664 
L 355.085165 128.003255 
L 350.623388 126.866998 
L 346.16161 127.98036 
L 341.699832 126.587392 
L 337.238055 124.712206 
L 332.776277 126.726562 
L 328.3145 128.72555 
L 323.852722 128.14804 
L 319.390945 128.343949 
L 314.929167 128.061803 
L 310.467389 128.111164 
L 306.005612 126.388993 
L 301.543834 125.142052 
L 297.082057 125.884816 
L 292.620279 126.831522 
L 288.158502 129.897558 
L 283.696724 130.085435 
L 279.234946 132.527213 
L 274.773169 134.761581 
L 270.311391 134.351471 
L 265.849614 135.03905 
L 261.387836 134.209664 
L 256.926059 135.14316 
L 252.464281 134.693251 
L 248.002503 135.7672 
L 243.540726 137.314925 
L 239.078948 136.835807 
L 234.617171 135.014987 
L 230.155393 135.006585 
L 225.693616 134.159152 
L 221.231838 134.854866 
L 216.77006 134.587782 
L 212.308283 131.979476 
L 207.846505 131.583445 
L 203.384728 129.005365 
L 198.92295 127.506173 
L 194.461173 124.898598 
L 189.999395 124.63867 
L 185.537617 124.962535 
L 181.07584 123.163807 
L 176.614062 123.966363 
L 172.152285 125.439735 
L 167.690507 125.723182 
L 163.22873 126.898462 
L 158.766952 124.562533 
L 154.305174 119.838132 
L 149.843397 121.59769 
L 145.381619 123.460397 
L 140.919842 122.508812 
L 136.458064 114.806641 
L 131.996286 119.425192 
L 127.534509 116.569678 
L 123.072731 116.431896 
L 118.610954 118.825791 
L 114.149176 113.544763 
L 109.687399 110.531649 
L 105.225621 111.029906 
L 100.763843 108.318861 
L 96.302066 106.248309 
L 91.840288 104.196272 
L 87.378511 102.152743 
L 82.916733 100.362883 
L 78.454956 99.706747 
L 73.993178 97.922038 
L 69.5314 90278.797805 
z
" clip-path="url(#pb2629bfb37)" style="fill: #6497b1; fill-opacity: 0.3; stroke: #6497b1; stroke-opacity: 0.3"/>
   </g>
   <g id="patch_3">
    <path d="M 49.230312 159.45811 
L 49.230312 25.158281 
" style="fill: none; stroke: #000000; stroke-width: 0.6; stroke-linejoin: miter; stroke-linecap: square"/>
   </g>
   <g id="patch_4">
    <path d="M 49.230312 159.45811 
L 495.854248 159.45811 
" style="fill: none; stroke: #000000; stroke-width: 0.6; stroke-linejoin: miter; stroke-linecap: square"/>
   </g>
   <g id="line2d_20">
    <path d="M 73.987918 204.228937 
L 73.993178 97.922038 
L 78.454956 99.706747 
L 82.916733 100.362883 
L 87.378511 102.152743 
L 91.840288 104.196272 
L 96.302066 106.248309 
L 100.763843 108.318861 
L 105.225621 111.029906 
L 109.687399 110.531649 
L 114.149176 113.544763 
L 118.610954 118.825791 
L 123.072731 116.431896 
L 127.534509 116.569678 
L 131.996286 119.425192 
L 136.458064 114.806641 
L 140.919842 122.508812 
L 145.381619 123.460397 
L 149.843397 121.59769 
L 154.305174 119.838132 
L 158.766952 124.562533 
L 163.22873 126.898462 
L 167.690507 125.723182 
L 172.152285 125.439735 
L 176.614062 123.966363 
L 181.07584 123.163807 
L 185.537617 124.962535 
L 189.999395 124.63867 
L 194.461173 124.898598 
L 198.92295 127.506173 
L 203.384728 129.005365 
L 207.846505 131.583445 
L 212.308283 131.979476 
L 216.77006 134.587782 
L 221.231838 134.854866 
L 225.693616 134.159152 
L 230.155393 135.006585 
L 234.617171 135.014987 
L 239.078948 136.835807 
L 243.540726 137.314925 
L 248.002503 135.7672 
L 252.464281 134.693251 
L 256.926059 135.14316 
L 261.387836 134.209664 
L 265.849614 135.03905 
L 270.311391 134.351471 
L 274.773169 134.761581 
L 279.234946 132.527213 
L 283.696724 130.085435 
L 288.158502 129.897558 
L 292.620279 126.831522 
L 297.082057 125.884816 
L 301.543834 125.142052 
L 306.005612 126.388993 
L 310.467389 128.111164 
L 314.929167 128.061803 
L 319.390945 128.343949 
L 323.852722 128.14804 
L 328.3145 128.72555 
L 332.776277 126.726562 
L 337.238055 124.712206 
L 341.699832 126.587392 
L 346.16161 127.98036 
L 350.623388 126.866998 
L 355.085165 128.003255 
L 359.546943 133.261664 
L 364.00872 134.55717 
L 368.470498 135.109862 
L 372.932275 135.506375 
L 377.394053 136.059761 
L 381.855831 136.459133 
L 386.317608 137.564 
L 390.779386 137.774813 
L 395.241163 137.681362 
L 399.702941 136.627467 
L 404.164719 138.560621 
L 408.626496 140.8092 
L 413.088274 143.237988 
L 417.550051 143.977312 
L 422.011829 144.926937 
L 426.473606 144.331332 
L 430.935384 144.843705 
L 435.397162 147.230669 
L 439.858939 149.71419 
L 444.320717 148.180833 
L 448.782494 148.398182 
L 453.244272 149.358909 
L 457.706049 150.40631 
L 462.167827 151.942813 
L 466.629605 150.407273 
L 471.091382 149.91489 
L 475.55316 147.62247 
" clip-path="url(#pb2629bfb37)" style="fill: none; stroke: #6497b1; stroke-linecap: square"/>
   </g>
   <g id="text_7">
    <!-- Celestia — Cost per MiB (USD) — Quantile Bands -->
    <g transform="translate(133.452436 19.158281) scale(0.11 -0.11)">
     <defs>
      <path id="DejaVuSerif-43" d="M 4513 1234 
Q 4306 581 3820 245 
Q 3334 -91 2591 -91 
Q 2134 -91 1743 65 
Q 1353 222 1050 525 
Q 700 875 529 1320 
Q 359 1766 359 2328 
Q 359 3416 987 4083 
Q 1616 4750 2644 4750 
Q 3025 4750 3456 4650 
Q 3888 4550 4384 4347 
L 4384 3272 
L 4031 3272 
Q 3916 3859 3567 4137 
Q 3219 4416 2591 4416 
Q 1844 4416 1459 3886 
Q 1075 3356 1075 2328 
Q 1075 1303 1459 773 
Q 1844 244 2591 244 
Q 3113 244 3450 492 
Q 3788 741 3938 1234 
L 4513 1234 
z
" transform="scale(0.015625)"/>
      <path id="DejaVuSerif-6c" d="M 1313 331 
L 1856 331 
L 1856 0 
L 184 0 
L 184 331 
L 738 331 
L 738 4531 
L 184 4531 
L 184 4863 
L 1313 4863 
L 1313 331 
z
" transform="scale(0.015625)"/>
      <path id="DejaVuSerif-73" d="M 359 184 
L 359 959 
L 691 959 
Q 703 588 923 403 
Q 1144 219 1575 219 
Q 1963 219 2166 364 
Q 2369 509 2369 788 
Q 2369 1006 2220 1140 
Q 2072 1275 1594 1428 
L 1178 1569 
Q 750 1706 558 1912 
Q 366 2119 366 2438 
Q 366 2894 700 3153 
Q 1034 3413 1625 3413 
Q 1888 3413 2178 3344 
Q 2469 3275 2778 3144 
L 2778 2419 
L 2447 2419 
Q 2434 2741 2221 2922 
Q 2009 3103 1644 3103 
Q 1281 3103 1095 2975 
Q 909 2847 909 2591 
Q 909 2381 1050 2254 
Q 1191 2128 1613 1997 
L 2069 1856 
Q 2541 1709 2748 1489 
Q 2956 1269 2956 922 
Q 2956 450 2595 179 
Q 2234 -91 1600 -91 
Q 1278 -91 972 -22 
Q 666 47 359 184 
z
" transform="scale(0.015625)"/>
      <path id="DejaVuSerif-74" d="M 691 2988 
L 184 2988 
L 184 3322 
L 691 3322 
L 691 4353 
L 1269 4353 
L 1269 3322 
L 2350 3322 
L 2350 2988 
L 1269 2988 
L 1269 878 
Q 1269 456 1350 337 
Q 1431 219 1650 219 
Q 1875 219 1978 351 
Q 2081 484 2088 781 
L 2522 781 
Q 2497 328 2275 118 
Q 2053 -91 1600 -91 
Q 1103 -91 897 129 
Q 691 350 691 878 
L 691 2988 
z
" transform="scale(0.015625)"/>
      <path id="DejaVuSerif-2014" d="M 281 1906 
L 6119 1906 
L 6119 1491 
L 281 1491 
L 281 1906 
z
" transform="scale(0.015625)"/>
      <path id="DejaVuSerif-6f" d="M 1925 219 
Q 2388 219 2623 584 
Q 2859 950 2859 1663 
Q 2859 2375 2623 2739 
Q 2388 3103 1925 3103 
Q 1463 3103 1227 2739 
Q 991 2375 991 1663 
Q 991 950 1228 584 
Q 1466 219 1925 219 
z
M 1925 -91 
Q 1200 -91 759 389 
Q 319 869 319 1663 
Q 319 2456 758 2934 
Q 1197 3413 1925 3413 
Q 2653 3413 3092 2934 
Q 3531 2456 3531 1663 
Q 3531 869 3092 389 
Q 2653 -91 1925 -91 
z
" transform="scale(0.015625)"/>
      <path id="DejaVuSerif-70" d="M 1313 1825 
L 1313 1497 
Q 1313 897 1542 583 
Q 1772 269 2209 269 
Q 2650 269 2876 622 
Q 3103 975 3103 1663 
Q 3103 2353 2876 2703 
Q 2650 3053 2209 3053 
Q 1772 3053 1542 2737 
Q 1313 2422 1313 1825 
z
M 738 2988 
L 184 2988 
L 184 3322 
L 1313 3322 
L 1313 2803 
Q 1481 3116 1742 3264 
Q 2003 3413 2388 3413 
Q 3000 3413 3387 2928 
Q 3775 2444 3775 1663 
Q 3775 881 3387 395 
Q 3000 -91 2388 -91 
Q 2003 -91 1742 57 
Q 1481 206 1313 519 
L 1313 -997 
L 1856 -997 
L 1856 -1331 
L 184 -1331 
L 184 -997 
L 738 -997 
L 738 2988 
z
" transform="scale(0.015625)"/>
      <path id="DejaVuSerif-72" d="M 3059 3328 
L 3059 2497 
L 2728 2497 
Q 2713 2744 2591 2866 
Q 2469 2988 2234 2988 
Q 1809 2988 1582 2694 
Q 1356 2400 1356 1850 
L 1356 331 
L 2022 331 
L 2022 0 
L 263 0 
L 263 331 
L 781 331 
L 781 2994 
L 231 2994 
L 231 3322 
L 1356 3322 
L 1356 2731 
Q 1525 3078 1790 3245 
Q 2056 3413 2438 3413 
Q 2578 3413 2733 3391 
Q 2888 3369 3059 3328 
z
" transform="scale(0.015625)"/>
      <path id="DejaVuSerif-28" d="M 2041 -997 
Q 1281 -656 893 83 
Q 506 822 506 1931 
Q 506 3044 893 3783 
Q 1281 4522 2041 4863 
L 2041 4556 
Q 1559 4225 1350 3623 
Q 1141 3022 1141 1931 
Q 1141 844 1350 242 
Q 1559 -359 2041 -691 
L 2041 -997 
z
" transform="scale(0.015625)"/>
      <path id="DejaVuSerif-55" d="M 897 4331 
L 300 4331 
L 300 4666 
L 2125 4666 
L 2125 4331 
L 1528 4331 
L 1528 1919 
Q 1528 1025 1820 672 
Q 2113 319 2828 319 
Q 3544 319 3836 672 
Q 4128 1025 4128 1919 
L 4128 4331 
L 3531 4331 
L 3531 4666 
L 5106 4666 
L 5106 4331 
L 4513 4331 
L 4513 1856 
Q 4513 791 4103 350 
Q 3694 -91 2713 -91 
Q 1731 -91 1314 353 
Q 897 797 897 1856 
L 897 4331 
z
" transform="scale(0.015625)"/>
      <path id="DejaVuSerif-53" d="M 594 225 
L 594 1288 
L 953 1284 
Q 969 753 1261 498 
Q 1553 244 2150 244 
Q 2706 244 2998 464 
Q 3291 684 3291 1106 
Q 3291 1444 3114 1625 
Q 2938 1806 2369 1978 
L 1753 2163 
Q 1084 2366 811 2669 
Q 538 2972 538 3500 
Q 538 4094 959 4422 
Q 1381 4750 2144 4750 
Q 2469 4750 2856 4679 
Q 3244 4609 3681 4475 
L 3681 3481 
L 3328 3481 
Q 3275 3975 2998 4195 
Q 2722 4416 2156 4416 
Q 1663 4416 1405 4214 
Q 1147 4013 1147 3628 
Q 1147 3294 1340 3103 
Q 1534 2913 2163 2725 
L 2741 2553 
Q 3375 2363 3645 2067 
Q 3916 1772 3916 1275 
Q 3916 597 3481 253 
Q 3047 -91 2188 -91 
Q 1803 -91 1404 -12 
Q 1006 66 594 225 
z
" transform="scale(0.015625)"/>
      <path id="DejaVuSerif-29" d="M 453 -997 
L 453 -691 
Q 934 -359 1145 242 
Q 1356 844 1356 1931 
Q 1356 3022 1145 3623 
Q 934 4225 453 4556 
L 453 4863 
Q 1216 4522 1603 3783 
Q 1991 3044 1991 1931 
Q 1991 822 1603 83 
Q 1216 -656 453 -997 
z
" transform="scale(0.015625)"/>
      <path id="DejaVuSerif-51" d="M 2700 -91 
Q 1628 -91 993 567 
Q 359 1225 359 2328 
Q 359 2894 529 3339 
Q 700 3784 1050 4134 
Q 1356 4441 1750 4595 
Q 2144 4750 2625 4750 
Q 3641 4750 4266 4084 
Q 4891 3419 4891 2328 
Q 4891 1403 4422 773 
Q 3953 144 3128 -38 
Q 3297 -247 3539 -347 
Q 3781 -447 4122 -447 
L 4219 -447 
L 4219 -1025 
Q 3691 -1000 3314 -767 
Q 2938 -534 2700 -91 
z
M 2625 244 
Q 3391 244 3781 770 
Q 4172 1297 4172 2328 
Q 4172 3363 3781 3889 
Q 3391 4416 2625 4416 
Q 1856 4416 1465 3889 
Q 1075 3363 1075 2328 
Q 1075 1297 1465 770 
Q 1856 244 2625 244 
z
" transform="scale(0.015625)"/>
      <path id="DejaVuSerif-75" d="M 2266 3322 
L 3341 3322 
L 3341 331 
L 3884 331 
L 3884 0 
L 2766 0 
L 2766 588 
Q 2606 256 2353 82 
Q 2100 -91 1766 -91 
Q 1213 -91 952 223 
Q 691 538 691 1209 
L 691 2988 
L 172 2988 
L 172 3322 
L 1269 3322 
L 1269 1388 
Q 1269 781 1417 556 
Q 1566 331 1947 331 
Q 2347 331 2556 625 
Q 2766 919 2766 1478 
L 2766 2988 
L 2266 2988 
L 2266 3322 
z
" transform="scale(0.015625)"/>
      <path id="DejaVuSerif-64" d="M 3359 331 
L 3909 331 
L 3909 0 
L 2784 0 
L 2784 519 
Q 2616 206 2355 57 
Q 2094 -91 1709 -91 
Q 1097 -91 708 395 
Q 319 881 319 1663 
Q 319 2444 706 2928 
Q 1094 3413 1709 3413 
Q 2094 3413 2355 3264 
Q 2616 3116 2784 2803 
L 2784 4531 
L 2241 4531 
L 2241 4863 
L 3359 4863 
L 3359 331 
z
M 2784 1497 
L 2784 1825 
Q 2784 2422 2554 2737 
Q 2325 3053 1888 3053 
Q 1444 3053 1217 2703 
Q 991 2353 991 1663 
Q 991 975 1217 622 
Q 1444 269 1888 269 
Q 2325 269 2554 583 
Q 2784 897 2784 1497 
z
" transform="scale(0.015625)"/>
     </defs>
     <use xlink:href="#DejaVuSerif-43"/>
     <use xlink:href="#DejaVuSerif-65" transform="translate(76.513672 0)"/>
     <use xlink:href="#DejaVuSerif-6c" transform="translate(135.693359 0)"/>
     <use xlink:href="#DejaVuSerif-65" transform="translate(167.675781 0)"/>
     <use xlink:href="#DejaVuSerif-73" transform="translate(226.855469 0)"/>
     <use xlink:href="#DejaVuSerif-74" transform="translate(278.173828 0)"/>
     <use xlink:href="#DejaVuSerif-69" transform="translate(318.359375 0)"/>
     <use xlink:href="#DejaVuSerif-61" transform="translate(350.341797 0)"/>
     <use xlink:href="#DejaVuSerif-20" transform="translate(409.960938 0)"/>
     <use xlink:href="#DejaVuSerif-2014" transform="translate(441.748047 0)"/>
     <use xlink:href="#DejaVuSerif-20" transform="translate(541.748047 0)"/>
     <use xlink:href="#DejaVuSerif-43" transform="translate(573.535156 0)"/>
     <use xlink:href="#DejaVuSerif-6f" transform="translate(650.048828 0)"/>
     <use xlink:href="#DejaVuSerif-73" transform="translate(710.253906 0)"/>
     <use xlink:href="#DejaVuSerif-74" transform="translate(761.572266 0)"/>
     <use xlink:href="#DejaVuSerif-20" transform="translate(801.757812 0)"/>
     <use xlink:href="#DejaVuSerif-70" transform="translate(833.544922 0)"/>
     <use xlink:href="#DejaVuSerif-65" transform="translate(897.558594 0)"/>
     <use xlink:href="#DejaVuSerif-72" transform="translate(956.738281 0)"/>
     <use xlink:href="#DejaVuSerif-20" transform="translate(1004.541016 0)"/>
     <use xlink:href="#DejaVuSerif-4d" transform="translate(1036.328125 0)"/>
     <use xlink:href="#DejaVuSerif-69" transform="translate(1138.720703 0)"/>
     <use xlink:href="#DejaVuSerif-42" transform="translate(1170.703125 0)"/>
     <use xlink:href="#DejaVuSerif-20" transform="translate(1244.189453 0)"/>
     <use xlink:href="#DejaVuSerif-28" transform="translate(1275.976562 0)"/>
     <use xlink:href="#DejaVuSerif-55" transform="translate(1314.990234 0)"/>
     <use xlink:href="#DejaVuSerif-53" transform="translate(1399.267578 0)"/>
     <use xlink:href="#DejaVuSerif-44" transform="translate(1467.773438 0)"/>
     <use xlink:href="#DejaVuSerif-29" transform="translate(1547.949219 0)"/>
     <use xlink:href="#DejaVuSerif-20" transform="translate(1586.962891 0)"/>
     <use xlink:href="#DejaVuSerif-2014" transform="translate(1618.75 0)"/>
     <use xlink:href="#DejaVuSerif-20" transform="translate(1718.75 0)"/>
     <use xlink:href="#DejaVuSerif-51" transform="translate(1750.537109 0)"/>
     <use xlink:href="#DejaVuSerif-75" transform="translate(1832.519531 0)"/>
     <use xlink:href="#DejaVuSerif-61" transform="translate(1896.923828 0)"/>
     <use xlink:href="#DejaVuSerif-6e" transform="translate(1956.542969 0)"/>
     <use xlink:href="#DejaVuSerif-74" transform="translate(2020.947266 0)"/>
     <use xlink:href="#DejaVuSerif-69" transform="translate(2061.132812 0)"/>
     <use xlink:href="#DejaVuSerif-6c" transform="translate(2093.115234 0)"/>
     <use xlink:href="#DejaVuSerif-65" transform="translate(2125.097656 0)"/>
     <use xlink:href="#DejaVuSerif-20" transform="translate(2184.277344 0)"/>
     <use xlink:href="#DejaVuSerif-42" transform="translate(2216.064453 0)"/>
     <use xlink:href="#DejaVuSerif-61" transform="translate(2289.550781 0)"/>
     <use xlink:href="#DejaVuSerif-6e" transform="translate(2349.169922 0)"/>
     <use xlink:href="#DejaVuSerif-64" transform="translate(2413.574219 0)"/>
     <use xlink:href="#DejaVuSerif-73" transform="translate(2477.587891 0)"/>
    </g>
   </g>
   <g id="line2d_21">
    <path d="M 73.989103 204.228937 
L 73.993178 121.892326 
L 78.454956 109.91413 
L 82.916733 105.839611 
L 87.378511 104.092239 
L 91.840288 103.228616 
L 96.302066 103.147861 
L 100.763843 98.097717 
L 105.225621 99.545906 
L 109.687399 100.986797 
L 114.149176 101.77529 
L 118.610954 95.110213 
L 123.072731 95.276714 
L 127.534509 90.909984 
L 131.996286 90.863693 
L 136.458064 88.996502 
L 140.919842 88.912305 
L 145.381619 89.412657 
L 149.843397 95.566654 
L 154.305174 95.854367 
L 158.766952 101.362142 
L 163.22873 102.463125 
L 167.690507 105.772286 
L 172.152285 107.119119 
L 176.614062 106.881539 
L 181.07584 107.504242 
L 185.537617 108.061651 
L 189.999395 108.057423 
L 194.461173 107.407785 
L 198.92295 107.453711 
L 203.384728 108.367198 
L 207.846505 111.556351 
L 212.308283 114.670148 
L 216.77006 118.336594 
L 221.231838 122.384016 
L 225.693616 126.349454 
L 230.155393 130.138854 
L 234.617171 129.214505 
L 239.078948 127.434232 
L 243.540726 125.917895 
L 248.002503 123.954951 
L 252.464281 120.303331 
L 256.926059 118.292815 
L 261.387836 116.672968 
L 265.849614 117.298571 
L 270.311391 116.888125 
L 274.773169 116.659325 
L 279.234946 115.096535 
L 283.696724 115.276927 
L 288.158502 114.617982 
L 292.620279 113.032744 
L 297.082057 112.245704 
L 301.543834 110.756919 
L 306.005612 109.876558 
L 310.467389 110.352327 
L 314.929167 110.424196 
L 319.390945 110.796695 
L 323.852722 111.778409 
L 328.3145 111.009908 
L 332.776277 109.929037 
L 337.238055 108.522402 
L 341.699832 108.123877 
L 346.16161 108.348096 
L 350.623388 108.266515 
L 355.085165 108.545301 
L 359.546943 109.535402 
L 364.00872 112.570131 
L 368.470498 115.653618 
L 372.932275 117.797588 
L 377.394053 119.174451 
L 381.855831 120.667069 
L 386.317608 121.599111 
L 390.779386 123.098726 
L 395.241163 123.467588 
L 399.702941 123.462656 
L 404.164719 123.51862 
L 408.626496 124.335938 
L 413.088274 124.218676 
L 417.550051 123.530085 
L 422.011829 124.392421 
L 426.473606 125.24921 
L 430.935384 126.739909 
L 435.397162 126.975178 
L 439.858939 125.545801 
L 444.320717 127.290044 
L 448.782494 130.193082 
L 453.244272 131.134529 
L 457.706049 132.645135 
L 462.167827 133.668711 
L 466.629605 135.044964 
L 471.091382 138.512797 
L 475.55316 135.052057 
" clip-path="url(#pb2629bfb37)" style="fill: none; stroke: #cc3333; stroke-width: 1.5; stroke-linecap: square"/>
   </g>
   <g id="legend_1">
    <g id="patch_5">
     <path d="M 430.051748 66.899531 
L 490.254248 66.899531 
Q 491.854248 66.899531 491.854248 65.299531 
L 491.854248 30.758281 
Q 491.854248 29.158281 490.254248 29.158281 
L 430.051748 29.158281 
Q 428.451748 29.158281 428.451748 30.758281 
L 428.451748 65.299531 
Q 428.451748 66.899531 430.051748 66.899531 
z
" style="fill: #ffffff; opacity: 0.9; stroke: #cccccc; stroke-linejoin: miter"/>
    </g>
    <g id="patch_6">
     <path d="M 431.651748 38.437031 
L 447.651748 38.437031 
L 447.651748 32.837031 
L 431.651748 32.837031 
z
" style="fill: #b3cde3; fill-opacity: 0.4; stroke: #b3cde3; stroke-opacity: 0.4; stroke-linejoin: miter"/>
    </g>
    <g id="text_8">
     <!-- p10–p90 -->
     <g transform="translate(454.051748 38.437031) scale(0.08 -0.08)">
      <defs>
       <path id="DejaVuSerif-2013" d="M 281 1906 
L 2919 1906 
L 2919 1491 
L 281 1491 
L 281 1906 
z
" transform="scale(0.015625)"/>
       <path id="DejaVuSerif-39" d="M 2994 2091 
Q 2784 1856 2512 1740 
Q 2241 1625 1900 1625 
Q 1206 1625 804 2044 
Q 403 2463 403 3188 
Q 403 3897 839 4323 
Q 1275 4750 2003 4750 
Q 2794 4750 3217 4161 
Q 3641 3572 3641 2478 
Q 3641 1253 3137 581 
Q 2634 -91 1722 -91 
Q 1475 -91 1203 -44 
Q 931 3 647 97 
L 647 872 
L 997 872 
Q 1038 556 1241 387 
Q 1444 219 1784 219 
Q 2391 219 2687 676 
Q 2984 1134 2994 2091 
z
M 1978 4441 
Q 1534 4441 1298 4117 
Q 1063 3794 1063 3188 
Q 1063 2581 1298 2256 
Q 1534 1931 1978 1931 
Q 2422 1931 2658 2245 
Q 2894 2559 2894 3150 
Q 2894 3772 2656 4106 
Q 2419 4441 1978 4441 
z
" transform="scale(0.015625)"/>
      </defs>
      <use xlink:href="#DejaVuSerif-70"/>
      <use xlink:href="#DejaVuSerif-31" transform="translate(64.013672 0)"/>
      <use xlink:href="#DejaVuSerif-30" transform="translate(127.636719 0)"/>
      <use xlink:href="#DejaVuSerif-2013" transform="translate(191.259766 0)"/>
      <use xlink:href="#DejaVuSerif-70" transform="translate(241.259766 0)"/>
      <use xlink:href="#DejaVuSerif-39" transform="translate(305.273438 0)"/>
      <use xlink:href="#DejaVuSerif-30" transform="translate(368.896484 0)"/>
     </g>
    </g>
    <g id="line2d_22">
     <path d="M 431.651748 47.379531 
L 439.651748 47.379531 
L 447.651748 47.379531 
" style="fill: none; stroke: #6497b1; stroke-linecap: square"/>
    </g>
    <g id="text_9">
     <!-- p50 -->
     <g transform="translate(454.051748 50.179531) scale(0.08 -0.08)">
      <use xlink:href="#DejaVuSerif-70"/>
      <use xlink:href="#DejaVuSerif-35" transform="translate(64.013672 0)"/>
      <use xlink:href="#DejaVuSerif-30" transform="translate(127.636719 0)"/>
     </g>
    </g>
    <g id="line2d_23">
     <path d="M 431.651748 59.122031 
L 439.651748 59.122031 
L 447.651748 59.122031 
" style="fill: none; stroke: #cc3333; stroke-width: 1.5; stroke-linecap: square"/>
    </g>
    <g id="text_10">
     <!-- 7d avg -->
     <g transform="translate(454.051748 61.922031) scale(0.08 -0.08)">
      <defs>
       <path id="DejaVuSerif-37" d="M 3609 4347 
L 1784 0 
L 1319 0 
L 3059 4153 
L 903 4153 
L 903 3578 
L 538 3578 
L 538 4666 
L 3609 4666 
L 3609 4347 
z
" transform="scale(0.015625)"/>
       <path id="DejaVuSerif-76" d="M 1581 0 
L 359 2988 
L -19 2988 
L -19 3322 
L 1509 3322 
L 1509 2988 
L 978 2988 
L 1913 703 
L 2847 2988 
L 2350 2988 
L 2350 3322 
L 3597 3322 
L 3597 2988 
L 3225 2988 
L 2003 0 
L 1581 0 
z
" transform="scale(0.015625)"/>
       <path id="DejaVuSerif-67" d="M 3359 2988 
L 3359 72 
Q 3359 -644 2965 -1033 
Q 2572 -1422 1844 -1422 
Q 1516 -1422 1216 -1362 
Q 916 -1303 641 -1184 
L 641 -488 
L 941 -488 
Q 997 -813 1206 -963 
Q 1416 -1113 1806 -1113 
Q 2313 -1113 2548 -827 
Q 2784 -541 2784 72 
L 2784 519 
Q 2616 206 2355 57 
Q 2094 -91 1709 -91 
Q 1097 -91 708 395 
Q 319 881 319 1663 
Q 319 2444 706 2928 
Q 1094 3413 1709 3413 
Q 2094 3413 2355 3264 
Q 2616 3116 2784 2803 
L 2784 3322 
L 3909 3322 
L 3909 2988 
L 3359 2988 
z
M 2784 1825 
Q 2784 2422 2554 2737 
Q 2325 3053 1888 3053 
Q 1444 3053 1217 2703 
Q 991 2353 991 1663 
Q 991 975 1217 622 
Q 1444 269 1888 269 
Q 2325 269 2554 583 
Q 2784 897 2784 1497 
L 2784 1825 
z
" transform="scale(0.015625)"/>
      </defs>
      <use xlink:href="#DejaVuSerif-37"/>
      <use xlink:href="#DejaVuSerif-64" transform="translate(63.623047 0)"/>
      <use xlink:href="#DejaVuSerif-20" transform="translate(127.636719 0)"/>
      <use xlink:href="#DejaVuSerif-61" transform="translate(159.423828 0)"/>
      <use xlink:href="#DejaVuSerif-76" transform="translate(219.042969 0)"/>
      <use xlink:href="#DejaVuSerif-67" transform="translate(275.537109 0)"/>
     </g>
    </g>
   </g>
  </g>
 </g>
 <defs>
  <clipPath id="pb2629bfb37">
   <rect x="49.230312" y="25.158281" width="446.623935" height="134.299829"/>
  </clipPath>
 </defs>
</svg>
