<?xml version="1.0" encoding="utf-8" standalone="no"?>
<!DOCTYPE svg PUBLIC "-//W3C//DTD SVG 1.1//EN"
  "http://www.w3.org/Graphics/SVG/1.1/DTD/svg11.dtd">
<svg xmlns:xlink="http://www.w3.org/1999/xlink" width="506.395313pt" height="203.228937pt" viewBox="0 0 506.395313 203.228937" xmlns="http://www.w3.org/2000/svg" version="1.1">
 <metadata>
  <rdf:RDF xmlns:dc="http://purl.org/dc/elements/1.1/" xmlns:cc="http://creativecommons.org/ns#" xmlns:rdf="http://www.w3.org/1999/02/22-rdf-syntax-ns#">
   <cc:Work>
    <dc:type rdf:resource="http://purl.org/dc/dcmitype/StillImage"/>
    <dc:date>2026-02-16T14:45:32.640842</dc:date>
    <dc:format>image/svg+xml</dc:format>
    <dc:creator>
     <cc:Agent>
      <dc:title>Matplotlib v3.10.8, https://matplotlib.org/</dc:title>
     </cc:Agent>
    </dc:creator>
   </cc:Work>
  </rdf:RDF>
 </metadata>
 <defs>
  <style type="text/css">*{stroke-linejoin: round; stroke-linecap: butt}</style>
 </defs>
 <g id="figure_1">
  <g id="patch_1">
   <path d="M 0 203.228937 
L 506.395313 203.228937 
L 506.395313 0 
L 0 0 
z
" style="fill: #ffffff"/>
  </g>
  <g id="axes_1">
   <g id="patch_2">
    <path d="M 61.050312 159.45811 
L 495.595313 159.45811 
L 495.595313 25.158281 
L 61.050312 25.158281 
z
" style="fill: #ffffff"/>
   </g>
   <g id="matplotlib.axis_1">
    <g id="xtick_1">
     <g id="line2d_1">
      <path d="M 151.376115 159.45811 
L 151.376115 25.158281 
" clip-path="url(#pb3220a12a9)" style="fill: none; stroke: #b0b0b0; stroke-opacity: 0.25; stroke-width: 0.5; stroke-linecap: square"/>
     </g>
     <g id="line2d_2">
      <defs>
       <path id="m5856c40d3a" d="M 0 0 
L 0 3.5 
" style="stroke: #000000; stroke-width: 0.8"/>
      </defs>
      <g>
       <use xlink:href="#m5856c40d3a" x="151.376115" y="159.45811" style="stroke: #000000; stroke-width: 0.8"/>
      </g>
     </g>
     <g id="text_1">
      <!-- Dec 2025 -->
      <g transform="translate(117.175199 190.988087) rotate(-30) scale(0.08 -0.08)">
       <defs>
        <path id="DejaVuSerif-44" d="M 1581 331 
L 2163 331 
Q 3072 331 3558 850 
Q 4044 1369 4044 2338 
Q 4044 3306 3559 3818 
Q 3075 4331 2163 4331 
L 1581 4331 
L 1581 331 
z
M 353 0 
L 353 331 
L 947 331 
L 947 4331 
L 353 4331 
L 353 4666 
L 2209 4666 
Q 3416 4666 4089 4050 
Q 4763 3434 4763 2338 
Q 4763 1238 4088 619 
Q 3413 0 2209 0 
L 353 0 
z
" transform="scale(0.015625)"/>
        <path id="DejaVuSerif-65" d="M 3469 1600 
L 991 1600 
L 991 1575 
Q 991 903 1244 561 
Q 1497 219 1991 219 
Q 2369 219 2611 417 
Q 2853 616 2950 1006 
L 3413 1006 
Q 3275 459 2904 184 
Q 2534 -91 1931 -91 
Q 1203 -91 761 389 
Q 319 869 319 1663 
Q 319 2450 753 2931 
Q 1188 3413 1894 3413 
Q 2647 3413 3050 2948 
Q 3453 2484 3469 1600 
z
M 2791 1931 
Q 2772 2513 2545 2808 
Q 2319 3103 1894 3103 
Q 1497 3103 1269 2806 
Q 1041 2509 991 1931 
L 2791 1931 
z
" transform="scale(0.015625)"/>
        <path id="DejaVuSerif-63" d="M 3291 997 
Q 3169 466 2822 187 
Q 2475 -91 1925 -91 
Q 1200 -91 759 389 
Q 319 869 319 1663 
Q 319 2459 759 2936 
Q 1200 3413 1925 3413 
Q 2241 3413 2553 3339 
Q 2866 3266 3181 3116 
L 3181 2266 
L 2847 2266 
Q 2781 2703 2561 2903 
Q 2341 3103 1931 3103 
Q 1466 3103 1228 2742 
Q 991 2381 991 1663 
Q 991 944 1227 581 
Q 1463 219 1931 219 
Q 2303 219 2525 412 
Q 2747 606 2828 997 
L 3291 997 
z
" transform="scale(0.015625)"/>
        <path id="DejaVuSerif-20" transform="scale(0.015625)"/>
        <path id="DejaVuSerif-32" d="M 819 3553 
L 469 3553 
L 469 4384 
Q 803 4563 1142 4656 
Q 1481 4750 1806 4750 
Q 2534 4750 2956 4397 
Q 3378 4044 3378 3438 
Q 3378 2753 2422 1800 
Q 2347 1728 2309 1691 
L 1131 513 
L 3078 513 
L 3078 1088 
L 3444 1088 
L 3444 0 
L 434 0 
L 434 341 
L 1850 1753 
Q 2319 2222 2519 2614 
Q 2719 3006 2719 3438 
Q 2719 3909 2473 4175 
Q 2228 4441 1797 4441 
Q 1350 4441 1106 4219 
Q 863 3997 819 3553 
z
" transform="scale(0.015625)"/>
        <path id="DejaVuSerif-30" d="M 2034 219 
Q 2513 219 2750 744 
Q 2988 1269 2988 2328 
Q 2988 3391 2750 3916 
Q 2513 4441 2034 4441 
Q 1556 4441 1318 3916 
Q 1081 3391 1081 2328 
Q 1081 1269 1318 744 
Q 1556 219 2034 219 
z
M 2034 -91 
Q 1275 -91 848 546 
Q 422 1184 422 2328 
Q 422 3475 848 4112 
Q 1275 4750 2034 4750 
Q 2797 4750 3222 4112 
Q 3647 3475 3647 2328 
Q 3647 1184 3222 546 
Q 2797 -91 2034 -91 
z
" transform="scale(0.015625)"/>
        <path id="DejaVuSerif-35" d="M 3219 4666 
L 3219 4153 
L 1081 4153 
L 1081 2816 
Q 1244 2928 1461 2984 
Q 1678 3041 1947 3041 
Q 2703 3041 3140 2622 
Q 3578 2203 3578 1478 
Q 3578 738 3136 323 
Q 2694 -91 1894 -91 
Q 1572 -91 1234 -12 
Q 897 66 544 225 
L 544 1131 
L 897 1131 
Q 925 688 1179 453 
Q 1434 219 1894 219 
Q 2388 219 2653 544 
Q 2919 869 2919 1478 
Q 2919 2084 2655 2407 
Q 2391 2731 1894 2731 
Q 1613 2731 1398 2631 
Q 1184 2531 1019 2322 
L 750 2322 
L 750 4666 
L 3219 4666 
z
" transform="scale(0.015625)"/>
       </defs>
       <use xlink:href="#DejaVuSerif-44"/>
       <use xlink:href="#DejaVuSerif-65" transform="translate(80.175781 0)"/>
       <use xlink:href="#DejaVuSerif-63" transform="translate(139.355469 0)"/>
       <use xlink:href="#DejaVuSerif-20" transform="translate(195.361328 0)"/>
       <use xlink:href="#DejaVuSerif-32" transform="translate(227.148438 0)"/>
       <use xlink:href="#DejaVuSerif-30" transform="translate(290.771484 0)"/>
       <use xlink:href="#DejaVuSerif-32" transform="translate(354.394531 0)"/>
       <use xlink:href="#DejaVuSerif-35" transform="translate(418.017578 0)"/>
      </g>
     </g>
    </g>
    <g id="xtick_2">
     <g id="line2d_3">
      <path d="M 284.777729 159.45811 
L 284.777729 25.158281 
" clip-path="url(#pb3220a12a9)" style="fill: none; stroke: #b0b0b0; stroke-opacity: 0.25; stroke-width: 0.5; stroke-linecap: square"/>
     </g>
     <g id="line2d_4">
      <g>
       <use xlink:href="#m5856c40d3a" x="284.777729" y="159.45811" style="stroke: #000000; stroke-width: 0.8"/>
      </g>
     </g>
     <g id="text_2">
      <!-- Jan 2026 -->
      <g transform="translate(252.740794 189.738712) rotate(-30) scale(0.08 -0.08)">
       <defs>
        <path id="DejaVuSerif-4a" d="M -538 -1119 
L -538 -384 
L -181 -384 
Q -172 -694 -34 -845 
Q 103 -997 378 -997 
Q 750 -997 897 -762 
Q 1044 -528 1044 153 
L 1044 4331 
L 319 4331 
L 319 4666 
L 2272 4666 
L 2272 4331 
L 1678 4331 
L 1678 128 
Q 1678 -644 1368 -987 
Q 1059 -1331 372 -1331 
Q 150 -1331 -79 -1278 
Q -309 -1225 -538 -1119 
z
" transform="scale(0.015625)"/>
        <path id="DejaVuSerif-61" d="M 2547 1044 
L 2547 1747 
L 1806 1747 
Q 1378 1747 1168 1562 
Q 959 1378 959 997 
Q 959 650 1171 447 
Q 1384 244 1747 244 
Q 2106 244 2326 466 
Q 2547 688 2547 1044 
z
M 3122 2075 
L 3122 331 
L 3634 331 
L 3634 0 
L 2547 0 
L 2547 359 
Q 2356 128 2106 18 
Q 1856 -91 1522 -91 
Q 969 -91 644 203 
Q 319 497 319 997 
Q 319 1513 691 1797 
Q 1063 2081 1741 2081 
L 2547 2081 
L 2547 2309 
Q 2547 2688 2317 2895 
Q 2088 3103 1672 3103 
Q 1328 3103 1125 2947 
Q 922 2791 872 2484 
L 575 2484 
L 575 3156 
Q 875 3284 1158 3348 
Q 1441 3413 1709 3413 
Q 2400 3413 2761 3070 
Q 3122 2728 3122 2075 
z
" transform="scale(0.015625)"/>
        <path id="DejaVuSerif-6e" d="M 263 0 
L 263 331 
L 781 331 
L 781 2988 
L 231 2988 
L 231 3322 
L 1356 3322 
L 1356 2731 
Q 1516 3069 1770 3241 
Q 2025 3413 2363 3413 
Q 2913 3413 3172 3097 
Q 3431 2781 3431 2113 
L 3431 331 
L 3944 331 
L 3944 0 
L 2356 0 
L 2356 331 
L 2853 331 
L 2853 1931 
Q 2853 2541 2703 2767 
Q 2553 2994 2175 2994 
Q 1775 2994 1565 2701 
Q 1356 2409 1356 1850 
L 1356 331 
L 1856 331 
L 1856 0 
L 263 0 
z
" transform="scale(0.015625)"/>
        <path id="DejaVuSerif-36" d="M 2094 219 
Q 2534 219 2771 542 
Q 3009 866 3009 1472 
Q 3009 2078 2771 2401 
Q 2534 2725 2094 2725 
Q 1647 2725 1412 2412 
Q 1178 2100 1178 1509 
Q 1178 888 1415 553 
Q 1653 219 2094 219 
z
M 1075 2569 
Q 1288 2803 1556 2918 
Q 1825 3034 2163 3034 
Q 2859 3034 3264 2615 
Q 3669 2197 3669 1472 
Q 3669 763 3233 336 
Q 2797 -91 2069 -91 
Q 1278 -91 853 498 
Q 428 1088 428 2181 
Q 428 3406 931 4078 
Q 1434 4750 2350 4750 
Q 2597 4750 2869 4703 
Q 3141 4656 3425 4563 
L 3425 3794 
L 3072 3794 
Q 3034 4109 2831 4275 
Q 2628 4441 2284 4441 
Q 1678 4441 1381 3981 
Q 1084 3522 1075 2569 
z
" transform="scale(0.015625)"/>
       </defs>
       <use xlink:href="#DejaVuSerif-4a"/>
       <use xlink:href="#DejaVuSerif-61" transform="translate(40.087891 0)"/>
       <use xlink:href="#DejaVuSerif-6e" transform="translate(99.707031 0)"/>
       <use xlink:href="#DejaVuSerif-20" transform="translate(164.111328 0)"/>
       <use xlink:href="#DejaVuSerif-32" transform="translate(195.898438 0)"/>
       <use xlink:href="#DejaVuSerif-30" transform="translate(259.521484 0)"/>
       <use xlink:href="#DejaVuSerif-32" transform="translate(323.144531 0)"/>
       <use xlink:href="#DejaVuSerif-36" transform="translate(386.767578 0)"/>
      </g>
     </g>
    </g>
    <g id="xtick_3">
     <g id="line2d_5">
      <path d="M 418.179343 159.45811 
L 418.179343 25.158281 
" clip-path="url(#pb3220a12a9)" style="fill: none; stroke: #b0b0b0; stroke-opacity: 0.25; stroke-width: 0.5; stroke-linecap: square"/>
     </g>
     <g id="line2d_6">
      <g>
       <use xlink:href="#m5856c40d3a" x="418.179343" y="159.45811" style="stroke: #000000; stroke-width: 0.8"/>
      </g>
     </g>
     <g id="text_3">
      <!-- Feb 2026 -->
      <g transform="translate(384.551086 190.657462) rotate(-30) scale(0.08 -0.08)">
       <defs>
        <path id="DejaVuSerif-46" d="M 353 0 
L 353 331 
L 947 331 
L 947 4331 
L 353 4331 
L 353 4666 
L 4172 4666 
L 4172 3628 
L 3788 3628 
L 3788 4281 
L 1581 4281 
L 1581 2719 
L 3175 2719 
L 3175 3303 
L 3559 3303 
L 3559 1753 
L 3175 1753 
L 3175 2338 
L 1581 2338 
L 1581 331 
L 2328 331 
L 2328 0 
L 353 0 
z
" transform="scale(0.015625)"/>
        <path id="DejaVuSerif-62" d="M 738 331 
L 738 4531 
L 184 4531 
L 184 4863 
L 1313 4863 
L 1313 2803 
Q 1481 3116 1742 3264 
Q 2003 3413 2388 3413 
Q 3000 3413 3387 2928 
Q 3775 2444 3775 1663 
Q 3775 881 3387 395 
Q 3000 -91 2388 -91 
Q 2003 -91 1742 57 
Q 1481 206 1313 519 
L 1313 0 
L 184 0 
L 184 331 
L 738 331 
z
M 1313 1497 
Q 1313 897 1542 583 
Q 1772 269 2209 269 
Q 2650 269 2876 622 
Q 3103 975 3103 1663 
Q 3103 2353 2876 2703 
Q 2650 3053 2209 3053 
Q 1772 3053 1542 2737 
Q 1313 2422 1313 1825 
L 1313 1497 
z
" transform="scale(0.015625)"/>
       </defs>
       <use xlink:href="#DejaVuSerif-46"/>
       <use xlink:href="#DejaVuSerif-65" transform="translate(63.884766 0)"/>
       <use xlink:href="#DejaVuSerif-62" transform="translate(123.064453 0)"/>
       <use xlink:href="#DejaVuSerif-20" transform="translate(187.078125 0)"/>
       <use xlink:href="#DejaVuSerif-32" transform="translate(218.865234 0)"/>
       <use xlink:href="#DejaVuSerif-30" transform="translate(282.488281 0)"/>
       <use xlink:href="#DejaVuSerif-32" transform="translate(346.111328 0)"/>
       <use xlink:href="#DejaVuSerif-36" transform="translate(409.734375 0)"/>
      </g>
     </g>
    </g>
   </g>
   <g id="matplotlib.axis_2">
    <g id="ytick_1">
     <g id="line2d_7">
      <path d="M 61.050312 159.45811 
L 495.595313 159.45811 
" clip-path="url(#pb3220a12a9)" style="fill: none; stroke: #b0b0b0; stroke-opacity: 0.25; stroke-width: 0.5; stroke-linecap: square"/>
     </g>
     <g id="line2d_8">
      <defs>
       <path id="meabf849ab7" d="M 0 0 
L -3.5 0 
" style="stroke: #000000; stroke-width: 0.8"/>
      </defs>
      <g>
       <use xlink:href="#meabf849ab7" x="61.050312" y="159.45811" style="stroke: #000000; stroke-width: 0.8"/>
      </g>
     </g>
     <g id="text_4">
      <!-- 0 -->
      <g transform="translate(48.960313 162.497485) scale(0.08 -0.08)">
       <use xlink:href="#DejaVuSerif-30"/>
      </g>
     </g>
    </g>
    <g id="ytick_2">
     <g id="line2d_9">
      <path d="M 61.050312 134.525853 
L 495.595313 134.525853 
" clip-path="url(#pb3220a12a9)" style="fill: none; stroke: #b0b0b0; stroke-opacity: 0.25; stroke-width: 0.5; stroke-linecap: square"/>
     </g>
     <g id="line2d_10">
      <g>
       <use xlink:href="#meabf849ab7" x="61.050312" y="134.525853" style="stroke: #000000; stroke-width: 0.8"/>
      </g>
     </g>
     <g id="text_5">
      <!-- 20000 -->
      <g transform="translate(28.600312 137.565228) scale(0.08 -0.08)">
       <use xlink:href="#DejaVuSerif-32"/>
       <use xlink:href="#DejaVuSerif-30" transform="translate(63.623047 0)"/>
       <use xlink:href="#DejaVuSerif-30" transform="translate(127.246094 0)"/>
       <use xlink:href="#DejaVuSerif-30" transform="translate(190.869141 0)"/>
       <use xlink:href="#DejaVuSerif-30" transform="translate(254.492188 0)"/>
      </g>
     </g>
    </g>
    <g id="ytick_3">
     <g id="line2d_11">
      <path d="M 61.050312 109.593596 
L 495.595313 109.593596 
" clip-path="url(#pb3220a12a9)" style="fill: none; stroke: #b0b0b0; stroke-opacity: 0.25; stroke-width: 0.5; stroke-linecap: square"/>
     </g>
     <g id="line2d_12">
      <g>
       <use xlink:href="#meabf849ab7" x="61.050312" y="109.593596" style="stroke: #000000; stroke-width: 0.8"/>
      </g>
     </g>
     <g id="text_6">
      <!-- 40000 -->
      <g transform="translate(28.600312 112.632971) scale(0.08 -0.08)">
       <defs>
        <path id="DejaVuSerif-34" d="M 2234 1581 
L 2234 4063 
L 641 1581 
L 2234 1581 
z
M 3609 0 
L 1484 0 
L 1484 331 
L 2234 331 
L 2234 1247 
L 197 1247 
L 197 1588 
L 2241 4750 
L 2859 4750 
L 2859 1581 
L 3750 1581 
L 3750 1247 
L 2859 1247 
L 2859 331 
L 3609 331 
L 3609 0 
z
" transform="scale(0.015625)"/>
       </defs>
       <use xlink:href="#DejaVuSerif-34"/>
       <use xlink:href="#DejaVuSerif-30" transform="translate(63.623047 0)"/>
       <use xlink:href="#DejaVuSerif-30" transform="translate(127.246094 0)"/>
       <use xlink:href="#DejaVuSerif-30" transform="translate(190.869141 0)"/>
       <use xlink:href="#DejaVuSerif-30" transform="translate(254.492188 0)"/>
      </g>
     </g>
    </g>
    <g id="ytick_4">
     <g id="line2d_13">
      <path d="M 61.050312 84.661339 
L 495.595313 84.661339 
" clip-path="url(#pb3220a12a9)" style="fill: none; stroke: #b0b0b0; stroke-opacity: 0.25; stroke-width: 0.5; stroke-linecap: square"/>
     </g>
     <g id="line2d_14">
      <g>
       <use xlink:href="#meabf849ab7" x="61.050312" y="84.661339" style="stroke: #000000; stroke-width: 0.8"/>
      </g>
     </g>
     <g id="text_7">
      <!-- 60000 -->
      <g transform="translate(28.600312 87.700714) scale(0.08 -0.08)">
       <use xlink:href="#DejaVuSerif-36"/>
       <use xlink:href="#DejaVuSerif-30" transform="translate(63.623047 0)"/>
       <use xlink:href="#DejaVuSerif-30" transform="translate(127.246094 0)"/>
       <use xlink:href="#DejaVuSerif-30" transform="translate(190.869141 0)"/>
       <use xlink:href="#DejaVuSerif-30" transform="translate(254.492188 0)"/>
      </g>
     </g>
    </g>
    <g id="ytick_5">
     <g id="line2d_15">
      <path d="M 61.050312 59.729082 
L 495.595313 59.729082 
" clip-path="url(#pb3220a12a9)" style="fill: none; stroke: #b0b0b0; stroke-opacity: 0.25; stroke-width: 0.5; stroke-linecap: square"/>
     </g>
     <g id="line2d_16">
      <g>
       <use xlink:href="#meabf849ab7" x="61.050312" y="59.729082" style="stroke: #000000; stroke-width: 0.8"/>
      </g>
     </g>
     <g id="text_8">
      <!-- 80000 -->
      <g transform="translate(28.600312 62.768457) scale(0.08 -0.08)">
       <defs>
        <path id="DejaVuSerif-38" d="M 2981 1275 
Q 2981 1775 2732 2051 
Q 2484 2328 2034 2328 
Q 1584 2328 1336 2051 
Q 1088 1775 1088 1275 
Q 1088 772 1336 495 
Q 1584 219 2034 219 
Q 2484 219 2732 495 
Q 2981 772 2981 1275 
z
M 2853 3541 
Q 2853 3966 2637 4203 
Q 2422 4441 2034 4441 
Q 1650 4441 1433 4203 
Q 1216 3966 1216 3541 
Q 1216 3113 1433 2875 
Q 1650 2638 2034 2638 
Q 2422 2638 2637 2875 
Q 2853 3113 2853 3541 
z
M 2516 2484 
Q 3047 2413 3344 2092 
Q 3641 1772 3641 1275 
Q 3641 619 3225 264 
Q 2809 -91 2034 -91 
Q 1263 -91 845 264 
Q 428 619 428 1275 
Q 428 1772 725 2092 
Q 1022 2413 1556 2484 
Q 1084 2569 832 2842 
Q 581 3116 581 3541 
Q 581 4103 968 4426 
Q 1356 4750 2034 4750 
Q 2713 4750 3100 4426 
Q 3488 4103 3488 3541 
Q 3488 3116 3236 2842 
Q 2984 2569 2516 2484 
z
" transform="scale(0.015625)"/>
       </defs>
       <use xlink:href="#DejaVuSerif-38"/>
       <use xlink:href="#DejaVuSerif-30" transform="translate(63.623047 0)"/>
       <use xlink:href="#DejaVuSerif-30" transform="translate(127.246094 0)"/>
       <use xlink:href="#DejaVuSerif-30" transform="translate(190.869141 0)"/>
       <use xlink:href="#DejaVuSerif-30" transform="translate(254.492188 0)"/>
      </g>
     </g>
    </g>
    <g id="ytick_6">
     <g id="line2d_17">
      <path d="M 61.050312 34.796825 
L 495.595313 34.796825 
" clip-path="url(#pb3220a12a9)" style="fill: none; stroke: #b0b0b0; stroke-opacity: 0.25; stroke-width: 0.5; stroke-linecap: square"/>
     </g>
     <g id="line2d_18">
      <g>
       <use xlink:href="#meabf849ab7" x="61.050312" y="34.796825" style="stroke: #000000; stroke-width: 0.8"/>
      </g>
     </g>
     <g id="text_9">
      <!-- 100000 -->
      <g transform="translate(23.510312 37.8362) scale(0.08 -0.08)">
       <defs>
        <path id="DejaVuSerif-31" d="M 909 0 
L 909 331 
L 1722 331 
L 1722 4213 
L 781 3603 
L 781 4013 
L 1919 4750 
L 2350 4750 
L 2350 331 
L 3163 331 
L 3163 0 
L 909 0 
z
" transform="scale(0.015625)"/>
       </defs>
       <use xlink:href="#DejaVuSerif-31"/>
       <use xlink:href="#DejaVuSerif-30" transform="translate(63.623047 0)"/>
       <use xlink:href="#DejaVuSerif-30" transform="translate(127.246094 0)"/>
       <use xlink:href="#DejaVuSerif-30" transform="translate(190.869141 0)"/>
       <use xlink:href="#DejaVuSerif-30" transform="translate(254.492188 0)"/>
       <use xlink:href="#DejaVuSerif-30" transform="translate(318.115234 0)"/>
      </g>
     </g>
    </g>
    <g id="text_10">
     <!-- MiB -->
     <g transform="translate(17.638594 101.661868) rotate(-90) scale(0.09 -0.09)">
      <defs>
       <path id="DejaVuSerif-4d" d="M 353 0 
L 353 331 
L 947 331 
L 947 4331 
L 319 4331 
L 319 4666 
L 1678 4666 
L 3316 1344 
L 4953 4666 
L 6228 4666 
L 6228 4331 
L 5606 4331 
L 5606 331 
L 6203 331 
L 6203 0 
L 4378 0 
L 4378 331 
L 4972 331 
L 4972 3938 
L 3372 684 
L 2931 684 
L 1331 3938 
L 1331 331 
L 1925 331 
L 1925 0 
L 353 0 
z
" transform="scale(0.015625)"/>
       <path id="DejaVuSerif-69" d="M 622 4353 
Q 622 4497 726 4603 
Q 831 4709 978 4709 
Q 1122 4709 1226 4603 
Q 1331 4497 1331 4353 
Q 1331 4206 1228 4103 
Q 1125 4000 978 4000 
Q 831 4000 726 4103 
Q 622 4206 622 4353 
z
M 1356 331 
L 1900 331 
L 1900 0 
L 231 0 
L 231 331 
L 781 331 
L 781 2988 
L 231 2988 
L 231 3322 
L 1356 3322 
L 1356 331 
z
" transform="scale(0.015625)"/>
       <path id="DejaVuSerif-42" d="M 1581 331 
L 2516 331 
Q 3078 331 3337 575 
Q 3597 819 3597 1350 
Q 3597 1878 3339 2120 
Q 3081 2363 2516 2363 
L 1581 2363 
L 1581 331 
z
M 1581 2694 
L 2375 2694 
Q 2888 2694 3123 2891 
Q 3359 3088 3359 3513 
Q 3359 3941 3123 4136 
Q 2888 4331 2375 4331 
L 1581 4331 
L 1581 2694 
z
M 353 0 
L 353 331 
L 947 331 
L 947 4331 
L 353 4331 
L 353 4666 
L 2656 4666 
Q 3363 4666 3720 4377 
Q 4078 4088 4078 3513 
Q 4078 3097 3829 2850 
Q 3581 2603 3103 2547 
Q 3697 2472 4005 2167 
Q 4313 1863 4313 1350 
Q 4313 656 3875 328 
Q 3438 0 2509 0 
L 353 0 
z
" transform="scale(0.015625)"/>
      </defs>
      <use xlink:href="#DejaVuSerif-4d"/>
      <use xlink:href="#DejaVuSerif-69" transform="translate(102.392578 0)"/>
      <use xlink:href="#DejaVuSerif-42" transform="translate(134.375 0)"/>
     </g>
    </g>
   </g>
   <g id="patch_3">
    <path d="M 80.802358 159.45811 
L 84.24498 159.45811 
L 84.24498 159.133587 
L 80.802358 159.133587 
z
" clip-path="url(#pb3220a12a9)" style="fill: #3366cc; opacity: 0.7"/>
   </g>
   <g id="patch_4">
    <path d="M 85.105636 159.45811 
L 88.548258 159.45811 
L 88.548258 157.93721 
L 85.105636 157.93721 
z
" clip-path="url(#pb3220a12a9)" style="fill: #3366cc; opacity: 0.7"/>
   </g>
   <g id="patch_5">
    <path d="M 89.408914 159.45811 
L 92.851536 159.45811 
L 92.851536 157.761581 
L 89.408914 157.761581 
z
" clip-path="url(#pb3220a12a9)" style="fill: #3366cc; opacity: 0.7"/>
   </g>
   <g id="patch_6">
    <path d="M 93.712192 159.45811 
L 97.154814 159.45811 
L 97.154814 157.534528 
L 93.712192 157.534528 
z
" clip-path="url(#pb3220a12a9)" style="fill: #3366cc; opacity: 0.7"/>
   </g>
   <g id="patch_7">
    <path d="M 98.015469 159.45811 
L 101.458092 159.45811 
L 101.458092 157.488687 
L 98.015469 157.488687 
z
" clip-path="url(#pb3220a12a9)" style="fill: #3366cc; opacity: 0.7"/>
   </g>
   <g id="patch_8">
    <path d="M 102.318747 159.45811 
L 105.76137 159.45811 
L 105.76137 157.14192 
L 102.318747 157.14192 
z
" clip-path="url(#pb3220a12a9)" style="fill: #3366cc; opacity: 0.7"/>
   </g>
   <g id="patch_9">
    <path d="M 106.622025 159.45811 
L 110.064648 159.45811 
L 110.064648 157.097606 
L 106.622025 157.097606 
z
" clip-path="url(#pb3220a12a9)" style="fill: #3366cc; opacity: 0.7"/>
   </g>
   <g id="patch_10">
    <path d="M 110.925303 159.45811 
L 114.367925 159.45811 
L 114.367925 157.833349 
L 110.925303 157.833349 
z
" clip-path="url(#pb3220a12a9)" style="fill: #3366cc; opacity: 0.7"/>
   </g>
   <g id="patch_11">
    <path d="M 115.228581 159.45811 
L 118.671203 159.45811 
L 118.671203 157.736237 
L 115.228581 157.736237 
z
" clip-path="url(#pb3220a12a9)" style="fill: #3366cc; opacity: 0.7"/>
   </g>
   <g id="patch_12">
    <path d="M 119.531859 159.45811 
L 122.974481 159.45811 
L 122.974481 157.666046 
L 119.531859 157.666046 
z
" clip-path="url(#pb3220a12a9)" style="fill: #3366cc; opacity: 0.7"/>
   </g>
   <g id="patch_13">
    <path d="M 123.835137 159.45811 
L 127.277759 159.45811 
L 127.277759 157.632397 
L 123.835137 157.632397 
z
" clip-path="url(#pb3220a12a9)" style="fill: #3366cc; opacity: 0.7"/>
   </g>
   <g id="patch_14">
    <path d="M 128.138415 159.45811 
L 131.581037 159.45811 
L 131.581037 157.789897 
L 128.138415 157.789897 
z
" clip-path="url(#pb3220a12a9)" style="fill: #3366cc; opacity: 0.7"/>
   </g>
   <g id="patch_15">
    <path d="M 132.441692 159.45811 
L 135.884315 159.45811 
L 135.884315 157.946753 
L 132.441692 157.946753 
z
" clip-path="url(#pb3220a12a9)" style="fill: #3366cc; opacity: 0.7"/>
   </g>
   <g id="patch_16">
    <path d="M 136.74497 159.45811 
L 140.187593 159.45811 
L 140.187593 157.979266 
L 136.74497 157.979266 
z
" clip-path="url(#pb3220a12a9)" style="fill: #3366cc; opacity: 0.7"/>
   </g>
   <g id="patch_17">
    <path d="M 141.048248 159.45811 
L 144.490871 159.45811 
L 144.490871 157.989804 
L 141.048248 157.989804 
z
" clip-path="url(#pb3220a12a9)" style="fill: #3366cc; opacity: 0.7"/>
   </g>
   <g id="patch_18">
    <path d="M 145.351526 159.45811 
L 148.794148 159.45811 
L 148.794148 157.981434 
L 145.351526 157.981434 
z
" clip-path="url(#pb3220a12a9)" style="fill: #3366cc; opacity: 0.7"/>
   </g>
   <g id="patch_19">
    <path d="M 149.654804 159.45811 
L 153.097426 159.45811 
L 153.097426 157.901237 
L 149.654804 157.901237 
z
" clip-path="url(#pb3220a12a9)" style="fill: #3366cc; opacity: 0.7"/>
   </g>
   <g id="patch_20">
    <path d="M 153.958082 159.45811 
L 157.400704 159.45811 
L 157.400704 157.976846 
L 153.958082 157.976846 
z
" clip-path="url(#pb3220a12a9)" style="fill: #3366cc; opacity: 0.7"/>
   </g>
   <g id="patch_21">
    <path d="M 158.26136 159.45811 
L 161.703982 159.45811 
L 161.703982 157.98437 
L 158.26136 157.98437 
z
" clip-path="url(#pb3220a12a9)" style="fill: #3366cc; opacity: 0.7"/>
   </g>
   <g id="patch_22">
    <path d="M 162.564638 159.45811 
L 166.00726 159.45811 
L 166.00726 157.993263 
L 162.564638 157.993263 
z
" clip-path="url(#pb3220a12a9)" style="fill: #3366cc; opacity: 0.7"/>
   </g>
   <g id="patch_23">
    <path d="M 166.867915 159.45811 
L 170.310538 159.45811 
L 170.310538 157.951241 
L 166.867915 157.951241 
z
" clip-path="url(#pb3220a12a9)" style="fill: #3366cc; opacity: 0.7"/>
   </g>
   <g id="patch_24">
    <path d="M 171.171193 159.45811 
L 174.613816 159.45811 
L 174.613816 158.031435 
L 171.171193 158.031435 
z
" clip-path="url(#pb3220a12a9)" style="fill: #3366cc; opacity: 0.7"/>
   </g>
   <g id="patch_25">
    <path d="M 175.474471 159.45811 
L 178.917094 159.45811 
L 178.917094 157.975599 
L 175.474471 157.975599 
z
" clip-path="url(#pb3220a12a9)" style="fill: #3366cc; opacity: 0.7"/>
   </g>
   <g id="patch_26">
    <path d="M 179.777749 159.45811 
L 183.220371 159.45811 
L 183.220371 157.37191 
L 179.777749 157.37191 
z
" clip-path="url(#pb3220a12a9)" style="fill: #3366cc; opacity: 0.7"/>
   </g>
   <g id="patch_27">
    <path d="M 184.081027 159.45811 
L 187.523649 159.45811 
L 187.523649 157.949275 
L 184.081027 157.949275 
z
" clip-path="url(#pb3220a12a9)" style="fill: #3366cc; opacity: 0.7"/>
   </g>
   <g id="patch_28">
    <path d="M 188.384305 159.45811 
L 191.826927 159.45811 
L 191.826927 157.949949 
L 188.384305 157.949949 
z
" clip-path="url(#pb3220a12a9)" style="fill: #3366cc; opacity: 0.7"/>
   </g>
   <g id="patch_29">
    <path d="M 192.687583 159.45811 
L 196.130205 159.45811 
L 196.130205 157.967933 
L 192.687583 157.967933 
z
" clip-path="url(#pb3220a12a9)" style="fill: #3366cc; opacity: 0.7"/>
   </g>
   <g id="patch_30">
    <path d="M 196.990861 159.45811 
L 200.433483 159.45811 
L 200.433483 158.034715 
L 196.990861 158.034715 
z
" clip-path="url(#pb3220a12a9)" style="fill: #3366cc; opacity: 0.7"/>
   </g>
   <g id="patch_31">
    <path d="M 201.294139 159.45811 
L 204.736761 159.45811 
L 204.736761 158.025018 
L 201.294139 158.025018 
z
" clip-path="url(#pb3220a12a9)" style="fill: #3366cc; opacity: 0.7"/>
   </g>
   <g id="patch_32">
    <path d="M 205.597416 159.45811 
L 209.040039 159.45811 
L 209.040039 158.038064 
L 205.597416 158.038064 
z
" clip-path="url(#pb3220a12a9)" style="fill: #3366cc; opacity: 0.7"/>
   </g>
   <g id="patch_33">
    <path d="M 209.900694 159.45811 
L 213.343317 159.45811 
L 213.343317 154.760949 
L 209.900694 154.760949 
z
" clip-path="url(#pb3220a12a9)" style="fill: #3366cc; opacity: 0.7"/>
   </g>
   <g id="patch_34">
    <path d="M 214.203972 159.45811 
L 217.646594 159.45811 
L 217.646594 81.487512 
L 214.203972 81.487512 
z
" clip-path="url(#pb3220a12a9)" style="fill: #3366cc; opacity: 0.7"/>
   </g>
   <g id="patch_35">
    <path d="M 218.50725 159.45811 
L 221.949872 159.45811 
L 221.949872 38.817749 
L 218.50725 38.817749 
z
" clip-path="url(#pb3220a12a9)" style="fill: #3366cc; opacity: 0.7"/>
   </g>
   <g id="patch_36">
    <path d="M 222.810528 159.45811 
L 226.25315 159.45811 
L 226.25315 31.553511 
L 222.810528 31.553511 
z
" clip-path="url(#pb3220a12a9)" style="fill: #3366cc; opacity: 0.7"/>
   </g>
   <g id="patch_37">
    <path d="M 227.113806 159.45811 
L 230.556428 159.45811 
L 230.556428 31.59927 
L 227.113806 31.59927 
z
" clip-path="url(#pb3220a12a9)" style="fill: #3366cc; opacity: 0.7"/>
   </g>
   <g id="patch_38">
    <path d="M 231.417084 159.45811 
L 234.859706 159.45811 
L 234.859706 31.822069 
L 231.417084 31.822069 
z
" clip-path="url(#pb3220a12a9)" style="fill: #3366cc; opacity: 0.7"/>
   </g>
   <g id="patch_39">
    <path d="M 235.720362 159.45811 
L 239.162984 159.45811 
L 239.162984 108.085271 
L 235.720362 108.085271 
z
" clip-path="url(#pb3220a12a9)" style="fill: #3366cc; opacity: 0.7"/>
   </g>
   <g id="patch_40">
    <path d="M 240.023639 159.45811 
L 243.466262 159.45811 
L 243.466262 157.788469 
L 240.023639 157.788469 
z
" clip-path="url(#pb3220a12a9)" style="fill: #3366cc; opacity: 0.7"/>
   </g>
   <g id="patch_41">
    <path d="M 244.326917 159.45811 
L 247.76954 159.45811 
L 247.76954 157.692913 
L 244.326917 157.692913 
z
" clip-path="url(#pb3220a12a9)" style="fill: #3366cc; opacity: 0.7"/>
   </g>
   <g id="patch_42">
    <path d="M 248.630195 159.45811 
L 252.072817 159.45811 
L 252.072817 157.75839 
L 248.630195 157.75839 
z
" clip-path="url(#pb3220a12a9)" style="fill: #3366cc; opacity: 0.7"/>
   </g>
   <g id="patch_43">
    <path d="M 252.933473 159.45811 
L 256.376095 159.45811 
L 256.376095 157.740871 
L 252.933473 157.740871 
z
" clip-path="url(#pb3220a12a9)" style="fill: #3366cc; opacity: 0.7"/>
   </g>
   <g id="patch_44">
    <path d="M 257.236751 159.45811 
L 260.679373 159.45811 
L 260.679373 157.743736 
L 257.236751 157.743736 
z
" clip-path="url(#pb3220a12a9)" style="fill: #3366cc; opacity: 0.7"/>
   </g>
   <g id="patch_45">
    <path d="M 261.540029 159.45811 
L 264.982651 159.45811 
L 264.982651 157.748764 
L 261.540029 157.748764 
z
" clip-path="url(#pb3220a12a9)" style="fill: #3366cc; opacity: 0.7"/>
   </g>
   <g id="patch_46">
    <path d="M 265.843307 159.45811 
L 269.285929 159.45811 
L 269.285929 157.752822 
L 265.843307 157.752822 
z
" clip-path="url(#pb3220a12a9)" style="fill: #3366cc; opacity: 0.7"/>
   </g>
   <g id="patch_47">
    <path d="M 270.146585 159.45811 
L 273.589207 159.45811 
L 273.589207 157.741967 
L 270.146585 157.741967 
z
" clip-path="url(#pb3220a12a9)" style="fill: #3366cc; opacity: 0.7"/>
   </g>
   <g id="patch_48">
    <path d="M 274.449862 159.45811 
L 277.892485 159.45811 
L 277.892485 157.732366 
L 274.449862 157.732366 
z
" clip-path="url(#pb3220a12a9)" style="fill: #3366cc; opacity: 0.7"/>
   </g>
   <g id="patch_49">
    <path d="M 278.75314 159.45811 
L 282.195763 159.45811 
L 282.195763 157.719896 
L 278.75314 157.719896 
z
" clip-path="url(#pb3220a12a9)" style="fill: #3366cc; opacity: 0.7"/>
   </g>
   <g id="patch_50">
    <path d="M 283.056418 159.45811 
L 286.49904 159.45811 
L 286.49904 157.678239 
L 283.056418 157.678239 
z
" clip-path="url(#pb3220a12a9)" style="fill: #3366cc; opacity: 0.7"/>
   </g>
   <g id="patch_51">
    <path d="M 287.359696 159.45811 
L 290.802318 159.45811 
L 290.802318 157.705631 
L 287.359696 157.705631 
z
" clip-path="url(#pb3220a12a9)" style="fill: #3366cc; opacity: 0.7"/>
   </g>
   <g id="patch_52">
    <path d="M 291.662974 159.45811 
L 295.105596 159.45811 
L 295.105596 157.743333 
L 291.662974 157.743333 
z
" clip-path="url(#pb3220a12a9)" style="fill: #3366cc; opacity: 0.7"/>
   </g>
   <g id="patch_53">
    <path d="M 295.966252 159.45811 
L 299.408874 159.45811 
L 299.408874 157.713871 
L 295.966252 157.713871 
z
" clip-path="url(#pb3220a12a9)" style="fill: #3366cc; opacity: 0.7"/>
   </g>
   <g id="patch_54">
    <path d="M 300.26953 159.45811 
L 303.712152 159.45811 
L 303.712152 156.179835 
L 300.26953 156.179835 
z
" clip-path="url(#pb3220a12a9)" style="fill: #3366cc; opacity: 0.7"/>
   </g>
   <g id="patch_55">
    <path d="M 304.572808 159.45811 
L 308.01543 159.45811 
L 308.01543 157.721414 
L 304.572808 157.721414 
z
" clip-path="url(#pb3220a12a9)" style="fill: #3366cc; opacity: 0.7"/>
   </g>
   <g id="patch_56">
    <path d="M 308.876085 159.45811 
L 312.318708 159.45811 
L 312.318708 157.696717 
L 308.876085 157.696717 
z
" clip-path="url(#pb3220a12a9)" style="fill: #3366cc; opacity: 0.7"/>
   </g>
   <g id="patch_57">
    <path d="M 313.179363 159.45811 
L 316.621986 159.45811 
L 316.621986 157.733556 
L 313.179363 157.733556 
z
" clip-path="url(#pb3220a12a9)" style="fill: #3366cc; opacity: 0.7"/>
   </g>
   <g id="patch_58">
    <path d="M 317.482641 159.45811 
L 320.925263 159.45811 
L 320.925263 157.93796 
L 317.482641 157.93796 
z
" clip-path="url(#pb3220a12a9)" style="fill: #3366cc; opacity: 0.7"/>
   </g>
   <g id="patch_59">
    <path d="M 321.785919 159.45811 
L 325.228541 159.45811 
L 325.228541 157.927732 
L 321.785919 157.927732 
z
" clip-path="url(#pb3220a12a9)" style="fill: #3366cc; opacity: 0.7"/>
   </g>
   <g id="patch_60">
    <path d="M 326.089197 159.45811 
L 329.531819 159.45811 
L 329.531819 157.945755 
L 326.089197 157.945755 
z
" clip-path="url(#pb3220a12a9)" style="fill: #3366cc; opacity: 0.7"/>
   </g>
   <g id="patch_61">
    <path d="M 330.392475 159.45811 
L 333.835097 159.45811 
L 333.835097 157.959986 
L 330.392475 157.959986 
z
" clip-path="url(#pb3220a12a9)" style="fill: #3366cc; opacity: 0.7"/>
   </g>
   <g id="patch_62">
    <path d="M 334.695753 159.45811 
L 338.138375 159.45811 
L 338.138375 157.980209 
L 334.695753 157.980209 
z
" clip-path="url(#pb3220a12a9)" style="fill: #3366cc; opacity: 0.7"/>
   </g>
   <g id="patch_63">
    <path d="M 338.999031 159.45811 
L 342.441653 159.45811 
L 342.441653 157.98233 
L 338.999031 157.98233 
z
" clip-path="url(#pb3220a12a9)" style="fill: #3366cc; opacity: 0.7"/>
   </g>
   <g id="patch_64">
    <path d="M 343.302308 159.45811 
L 346.744931 159.45811 
L 346.744931 157.958064 
L 343.302308 157.958064 
z
" clip-path="url(#pb3220a12a9)" style="fill: #3366cc; opacity: 0.7"/>
   </g>
   <g id="patch_65">
    <path d="M 347.605586 159.45811 
L 351.048209 159.45811 
L 351.048209 157.838981 
L 347.605586 157.838981 
z
" clip-path="url(#pb3220a12a9)" style="fill: #3366cc; opacity: 0.7"/>
   </g>
   <g id="patch_66">
    <path d="M 351.908864 159.45811 
L 355.351486 159.45811 
L 355.351486 157.680183 
L 351.908864 157.680183 
z
" clip-path="url(#pb3220a12a9)" style="fill: #3366cc; opacity: 0.7"/>
   </g>
   <g id="patch_67">
    <path d="M 356.212142 159.45811 
L 359.654764 159.45811 
L 359.654764 157.673225 
L 356.212142 157.673225 
z
" clip-path="url(#pb3220a12a9)" style="fill: #3366cc; opacity: 0.7"/>
   </g>
   <g id="patch_68">
    <path d="M 360.51542 159.45811 
L 363.958042 159.45811 
L 363.958042 157.672897 
L 360.51542 157.672897 
z
" clip-path="url(#pb3220a12a9)" style="fill: #3366cc; opacity: 0.7"/>
   </g>
   <g id="patch_69">
    <path d="M 364.818698 159.45811 
L 368.26132 159.45811 
L 368.26132 157.748744 
L 364.818698 157.748744 
z
" clip-path="url(#pb3220a12a9)" style="fill: #3366cc; opacity: 0.7"/>
   </g>
   <g id="patch_70">
    <path d="M 369.121976 159.45811 
L 372.564598 159.45811 
L 372.564598 157.741239 
L 369.121976 157.741239 
z
" clip-path="url(#pb3220a12a9)" style="fill: #3366cc; opacity: 0.7"/>
   </g>
   <g id="patch_71">
    <path d="M 373.425254 159.45811 
L 376.867876 159.45811 
L 376.867876 157.700156 
L 373.425254 157.700156 
z
" clip-path="url(#pb3220a12a9)" style="fill: #3366cc; opacity: 0.7"/>
   </g>
   <g id="patch_72">
    <path d="M 377.728531 159.45811 
L 381.171154 159.45811 
L 381.171154 157.542809 
L 377.728531 157.542809 
z
" clip-path="url(#pb3220a12a9)" style="fill: #3366cc; opacity: 0.7"/>
   </g>
   <g id="patch_73">
    <path d="M 382.031809 159.45811 
L 385.474432 159.45811 
L 385.474432 157.665424 
L 382.031809 157.665424 
z
" clip-path="url(#pb3220a12a9)" style="fill: #3366cc; opacity: 0.7"/>
   </g>
   <g id="patch_74">
    <path d="M 386.335087 159.45811 
L 389.77771 159.45811 
L 389.77771 157.725631 
L 386.335087 157.725631 
z
" clip-path="url(#pb3220a12a9)" style="fill: #3366cc; opacity: 0.7"/>
   </g>
   <g id="patch_75">
    <path d="M 390.638365 159.45811 
L 394.080987 159.45811 
L 394.080987 157.723308 
L 390.638365 157.723308 
z
" clip-path="url(#pb3220a12a9)" style="fill: #3366cc; opacity: 0.7"/>
   </g>
   <g id="patch_76">
    <path d="M 394.941643 159.45811 
L 398.384265 159.45811 
L 398.384265 157.68997 
L 394.941643 157.68997 
z
" clip-path="url(#pb3220a12a9)" style="fill: #3366cc; opacity: 0.7"/>
   </g>
   <g id="patch_77">
    <path d="M 399.244921 159.45811 
L 402.687543 159.45811 
L 402.687543 157.63065 
L 399.244921 157.63065 
z
" clip-path="url(#pb3220a12a9)" style="fill: #3366cc; opacity: 0.7"/>
   </g>
   <g id="patch_78">
    <path d="M 403.548199 159.45811 
L 406.990821 159.45811 
L 406.990821 157.578689 
L 403.548199 157.578689 
z
" clip-path="url(#pb3220a12a9)" style="fill: #3366cc; opacity: 0.7"/>
   </g>
   <g id="patch_79">
    <path d="M 407.851477 159.45811 
L 411.294099 159.45811 
L 411.294099 157.544697 
L 407.851477 157.544697 
z
" clip-path="url(#pb3220a12a9)" style="fill: #3366cc; opacity: 0.7"/>
   </g>
   <g id="patch_80">
    <path d="M 412.154754 159.45811 
L 415.597377 159.45811 
L 415.597377 157.520017 
L 412.154754 157.520017 
z
" clip-path="url(#pb3220a12a9)" style="fill: #3366cc; opacity: 0.7"/>
   </g>
   <g id="patch_81">
    <path d="M 416.458032 159.45811 
L 419.900655 159.45811 
L 419.900655 157.544308 
L 416.458032 157.544308 
z
" clip-path="url(#pb3220a12a9)" style="fill: #3366cc; opacity: 0.7"/>
   </g>
   <g id="patch_82">
    <path d="M 420.76131 159.45811 
L 424.203933 159.45811 
L 424.203933 157.529671 
L 420.76131 157.529671 
z
" clip-path="url(#pb3220a12a9)" style="fill: #3366cc; opacity: 0.7"/>
   </g>
   <g id="patch_83">
    <path d="M 425.064588 159.45811 
L 428.50721 159.45811 
L 428.50721 157.540038 
L 425.064588 157.540038 
z
" clip-path="url(#pb3220a12a9)" style="fill: #3366cc; opacity: 0.7"/>
   </g>
   <g id="patch_84">
    <path d="M 429.367866 159.45811 
L 432.810488 159.45811 
L 432.810488 157.590078 
L 429.367866 157.590078 
z
" clip-path="url(#pb3220a12a9)" style="fill: #3366cc; opacity: 0.7"/>
   </g>
   <g id="patch_85">
    <path d="M 433.671144 159.45811 
L 437.113766 159.45811 
L 437.113766 157.348514 
L 433.671144 157.348514 
z
" clip-path="url(#pb3220a12a9)" style="fill: #3366cc; opacity: 0.7"/>
   </g>
   <g id="patch_86">
    <path d="M 437.974422 159.45811 
L 441.417044 159.45811 
L 441.417044 157.482076 
L 437.974422 157.482076 
z
" clip-path="url(#pb3220a12a9)" style="fill: #3366cc; opacity: 0.7"/>
   </g>
   <g id="patch_87">
    <path d="M 442.2777 159.45811 
L 445.720322 159.45811 
L 445.720322 157.531149 
L 442.2777 157.531149 
z
" clip-path="url(#pb3220a12a9)" style="fill: #3366cc; opacity: 0.7"/>
   </g>
   <g id="patch_88">
    <path d="M 446.580977 159.45811 
L 450.0236 159.45811 
L 450.0236 157.851417 
L 446.580977 157.851417 
z
" clip-path="url(#pb3220a12a9)" style="fill: #3366cc; opacity: 0.7"/>
   </g>
   <g id="patch_89">
    <path d="M 450.884255 159.45811 
L 454.326878 159.45811 
L 454.326878 157.658387 
L 450.884255 157.658387 
z
" clip-path="url(#pb3220a12a9)" style="fill: #3366cc; opacity: 0.7"/>
   </g>
   <g id="patch_90">
    <path d="M 455.187533 159.45811 
L 458.630156 159.45811 
L 458.630156 157.470841 
L 455.187533 157.470841 
z
" clip-path="url(#pb3220a12a9)" style="fill: #3366cc; opacity: 0.7"/>
   </g>
   <g id="patch_91">
    <path d="M 459.490811 159.45811 
L 462.933433 159.45811 
L 462.933433 157.394925 
L 459.490811 157.394925 
z
" clip-path="url(#pb3220a12a9)" style="fill: #3366cc; opacity: 0.7"/>
   </g>
   <g id="patch_92">
    <path d="M 463.794089 159.45811 
L 467.236711 159.45811 
L 467.236711 157.355844 
L 463.794089 157.355844 
z
" clip-path="url(#pb3220a12a9)" style="fill: #3366cc; opacity: 0.7"/>
   </g>
   <g id="patch_93">
    <path d="M 468.097367 159.45811 
L 471.539989 159.45811 
L 471.539989 157.450949 
L 468.097367 157.450949 
z
" clip-path="url(#pb3220a12a9)" style="fill: #3366cc; opacity: 0.7"/>
   </g>
   <g id="patch_94">
    <path d="M 472.400645 159.45811 
L 475.843267 159.45811 
L 475.843267 158.413148 
L 472.400645 158.413148 
z
" clip-path="url(#pb3220a12a9)" style="fill: #3366cc; opacity: 0.7"/>
   </g>
   <g id="patch_95">
    <path d="M 61.050312 159.45811 
L 61.050312 25.158281 
" style="fill: none; stroke: #000000; stroke-width: 0.6; stroke-linejoin: miter; stroke-linecap: square"/>
   </g>
   <g id="patch_96">
    <path d="M 61.050312 159.45811 
L 495.595312 159.45811 
" style="fill: none; stroke: #000000; stroke-width: 0.6; stroke-linejoin: miter; stroke-linecap: square"/>
   </g>
   <g id="line2d_19">
    <path d="M 82.523669 159.133587 
L 86.826947 158.535398 
L 91.130225 158.277459 
L 95.433503 158.091726 
L 99.736781 157.971118 
L 104.040058 157.832919 
L 108.343336 157.727874 
L 112.646614 157.542126 
L 116.949892 157.513416 
L 121.25317 157.499768 
L 125.556448 157.513749 
L 129.859726 157.556779 
L 134.163004 157.671755 
L 138.466282 157.797706 
L 142.769559 157.820057 
L 147.072837 157.855085 
L 151.376115 157.888684 
L 155.679393 157.937891 
L 159.982671 157.965673 
L 164.285949 157.972317 
L 168.589227 157.968314 
L 172.892505 157.974261 
L 177.195782 157.973427 
L 181.49906 157.897809 
L 185.802338 157.89387 
L 190.105616 157.888953 
L 194.408894 157.885335 
L 198.712172 157.897259 
L 203.01545 157.896343 
L 207.318728 157.905266 
L 211.622005 157.532272 
L 215.925283 146.609163 
L 220.228561 129.590277 
L 224.531839 111.531074 
L 228.835117 93.468867 
L 233.138395 75.439875 
L 237.441673 68.303761 
L 241.744951 68.736264 
L 246.048228 79.62275 
L 250.351506 96.61427 
L 254.654784 114.641036 
L 258.958062 132.661674 
L 263.26134 150.651202 
L 267.564618 157.746566 
L 271.867896 157.739923 
L 276.171174 157.745559 
L 280.474451 157.74006 
L 284.777729 157.731113 
L 289.081007 157.725669 
L 293.384285 157.724894 
L 297.687563 157.719329 
L 301.990841 157.496167 
L 306.294119 157.494603 
L 310.597397 157.491291 
L 314.900674 157.499194 
L 319.203952 157.532384 
L 323.50723 157.558726 
L 327.810508 157.591853 
L 332.113786 157.84616 
L 336.417064 157.883131 
L 340.720342 157.923933 
L 345.02362 157.956005 
L 349.326897 157.941865 
L 353.630175 157.906501 
L 357.933453 157.867568 
L 362.236731 157.826556 
L 366.540009 157.793489 
L 370.843287 157.759048 
L 375.146565 157.722204 
L 379.449843 157.679894 
L 383.75312 157.677785 
L 388.056398 157.685272 
L 392.359676 157.692473 
L 396.662954 157.684077 
L 400.966232 157.668278 
L 405.26951 157.650926 
L 409.572788 157.651196 
L 413.876066 157.630423 
L 418.179343 157.60452 
L 422.482621 157.576858 
L 426.785899 157.555439 
L 431.089177 157.549643 
L 435.392455 157.516761 
L 439.695733 157.507815 
L 443.999011 157.509405 
L 448.302289 157.553278 
L 452.605567 157.571666 
L 456.908844 157.56178 
L 461.212122 157.533901 
L 465.5154 157.534948 
L 469.818678 157.530502 
L 474.121956 157.656502 
" clip-path="url(#pb3220a12a9)" style="fill: none; stroke: #cc3333; stroke-width: 1.5; stroke-linecap: square"/>
   </g>
   <g id="text_11">
    <!-- Celestia — Daily Blob Volume (MiB) -->
    <g transform="translate(178.30875 19.158281) scale(0.11 -0.11)">
     <defs>
      <path id="DejaVuSerif-43" d="M 4513 1234 
Q 4306 581 3820 245 
Q 3334 -91 2591 -91 
Q 2134 -91 1743 65 
Q 1353 222 1050 525 
Q 700 875 529 1320 
Q 359 1766 359 2328 
Q 359 3416 987 4083 
Q 1616 4750 2644 4750 
Q 3025 4750 3456 4650 
Q 3888 4550 4384 4347 
L 4384 3272 
L 4031 3272 
Q 3916 3859 3567 4137 
Q 3219 4416 2591 4416 
Q 1844 4416 1459 3886 
Q 1075 3356 1075 2328 
Q 1075 1303 1459 773 
Q 1844 244 2591 244 
Q 3113 244 3450 492 
Q 3788 741 3938 1234 
L 4513 1234 
z
" transform="scale(0.015625)"/>
      <path id="DejaVuSerif-6c" d="M 1313 331 
L 1856 331 
L 1856 0 
L 184 0 
L 184 331 
L 738 331 
L 738 4531 
L 184 4531 
L 184 4863 
L 1313 4863 
L 1313 331 
z
" transform="scale(0.015625)"/>
      <path id="DejaVuSerif-73" d="M 359 184 
L 359 959 
L 691 959 
Q 703 588 923 403 
Q 1144 219 1575 219 
Q 1963 219 2166 364 
Q 2369 509 2369 788 
Q 2369 1006 2220 1140 
Q 2072 1275 1594 1428 
L 1178 1569 
Q 750 1706 558 1912 
Q 366 2119 366 2438 
Q 366 2894 700 3153 
Q 1034 3413 1625 3413 
Q 1888 3413 2178 3344 
Q 2469 3275 2778 3144 
L 2778 2419 
L 2447 2419 
Q 2434 2741 2221 2922 
Q 2009 3103 1644 3103 
Q 1281 3103 1095 2975 
Q 909 2847 909 2591 
Q 909 2381 1050 2254 
Q 1191 2128 1613 1997 
L 2069 1856 
Q 2541 1709 2748 1489 
Q 2956 1269 2956 922 
Q 2956 450 2595 179 
Q 2234 -91 1600 -91 
Q 1278 -91 972 -22 
Q 666 47 359 184 
z
" transform="scale(0.015625)"/>
      <path id="DejaVuSerif-74" d="M 691 2988 
L 184 2988 
L 184 3322 
L 691 3322 
L 691 4353 
L 1269 4353 
L 1269 3322 
L 2350 3322 
L 2350 2988 
L 1269 2988 
L 1269 878 
Q 1269 456 1350 337 
Q 1431 219 1650 219 
Q 1875 219 1978 351 
Q 2081 484 2088 781 
L 2522 781 
Q 2497 328 2275 118 
Q 2053 -91 1600 -91 
Q 1103 -91 897 129 
Q 691 350 691 878 
L 691 2988 
z
" transform="scale(0.015625)"/>
      <path id="DejaVuSerif-2014" d="M 281 1906 
L 6119 1906 
L 6119 1491 
L 281 1491 
L 281 1906 
z
" transform="scale(0.015625)"/>
      <path id="DejaVuSerif-79" d="M 1381 -609 
L 1600 -56 
L 359 2988 
L -19 2988 
L -19 3322 
L 1509 3322 
L 1509 2988 
L 978 2988 
L 1913 703 
L 2847 2988 
L 2350 2988 
L 2350 3322 
L 3597 3322 
L 3597 2988 
L 3225 2988 
L 1703 -750 
Q 1547 -1138 1356 -1280 
Q 1166 -1422 819 -1422 
Q 672 -1422 517 -1397 
Q 363 -1372 206 -1325 
L 206 -691 
L 500 -691 
Q 519 -903 608 -995 
Q 697 -1088 884 -1088 
Q 1056 -1088 1161 -992 
Q 1266 -897 1381 -609 
z
" transform="scale(0.015625)"/>
      <path id="DejaVuSerif-6f" d="M 1925 219 
Q 2388 219 2623 584 
Q 2859 950 2859 1663 
Q 2859 2375 2623 2739 
Q 2388 3103 1925 3103 
Q 1463 3103 1227 2739 
Q 991 2375 991 1663 
Q 991 950 1228 584 
Q 1466 219 1925 219 
z
M 1925 -91 
Q 1200 -91 759 389 
Q 319 869 319 1663 
Q 319 2456 758 2934 
Q 1197 3413 1925 3413 
Q 2653 3413 3092 2934 
Q 3531 2456 3531 1663 
Q 3531 869 3092 389 
Q 2653 -91 1925 -91 
z
" transform="scale(0.015625)"/>
      <path id="DejaVuSerif-56" d="M 1119 4331 
L 2497 750 
L 3872 4331 
L 3347 4331 
L 3347 4666 
L 4716 4666 
L 4716 4331 
L 4263 4331 
L 2597 0 
L 2059 0 
L 403 4331 
L -63 4331 
L -63 4666 
L 1638 4666 
L 1638 4331 
L 1119 4331 
z
" transform="scale(0.015625)"/>
      <path id="DejaVuSerif-75" d="M 2266 3322 
L 3341 3322 
L 3341 331 
L 3884 331 
L 3884 0 
L 2766 0 
L 2766 588 
Q 2606 256 2353 82 
Q 2100 -91 1766 -91 
Q 1213 -91 952 223 
Q 691 538 691 1209 
L 691 2988 
L 172 2988 
L 172 3322 
L 1269 3322 
L 1269 1388 
Q 1269 781 1417 556 
Q 1566 331 1947 331 
Q 2347 331 2556 625 
Q 2766 919 2766 1478 
L 2766 2988 
L 2266 2988 
L 2266 3322 
z
" transform="scale(0.015625)"/>
      <path id="DejaVuSerif-6d" d="M 3316 2675 
Q 3481 3041 3739 3227 
Q 3997 3413 4341 3413 
Q 4863 3413 5119 3089 
Q 5375 2766 5375 2113 
L 5375 331 
L 5894 331 
L 5894 0 
L 4300 0 
L 4300 331 
L 4800 331 
L 4800 2047 
Q 4800 2556 4650 2772 
Q 4500 2988 4153 2988 
Q 3769 2988 3567 2697 
Q 3366 2406 3366 1850 
L 3366 331 
L 3866 331 
L 3866 0 
L 2291 0 
L 2291 331 
L 2791 331 
L 2791 2069 
Q 2791 2566 2641 2777 
Q 2491 2988 2144 2988 
Q 1759 2988 1557 2697 
Q 1356 2406 1356 1850 
L 1356 331 
L 1856 331 
L 1856 0 
L 263 0 
L 263 331 
L 781 331 
L 781 2994 
L 231 2994 
L 231 3322 
L 1356 3322 
L 1356 2731 
Q 1516 3063 1762 3238 
Q 2009 3413 2322 3413 
Q 2709 3413 2968 3220 
Q 3228 3028 3316 2675 
z
" transform="scale(0.015625)"/>
      <path id="DejaVuSerif-28" d="M 2041 -997 
Q 1281 -656 893 83 
Q 506 822 506 1931 
Q 506 3044 893 3783 
Q 1281 4522 2041 4863 
L 2041 4556 
Q 1559 4225 1350 3623 
Q 1141 3022 1141 1931 
Q 1141 844 1350 242 
Q 1559 -359 2041 -691 
L 2041 -997 
z
" transform="scale(0.015625)"/>
      <path id="DejaVuSerif-29" d="M 453 -997 
L 453 -691 
Q 934 -359 1145 242 
Q 1356 844 1356 1931 
Q 1356 3022 1145 3623 
Q 934 4225 453 4556 
L 453 4863 
Q 1216 4522 1603 3783 
Q 1991 3044 1991 1931 
Q 1991 822 1603 83 
Q 1216 -656 453 -997 
z
" transform="scale(0.015625)"/>
     </defs>
     <use xlink:href="#DejaVuSerif-43"/>
     <use xlink:href="#DejaVuSerif-65" transform="translate(76.513672 0)"/>
     <use xlink:href="#DejaVuSerif-6c" transform="translate(135.693359 0)"/>
     <use xlink:href="#DejaVuSerif-65" transform="translate(167.675781 0)"/>
     <use xlink:href="#DejaVuSerif-73" transform="translate(226.855469 0)"/>
     <use xlink:href="#DejaVuSerif-74" transform="translate(278.173828 0)"/>
     <use xlink:href="#DejaVuSerif-69" transform="translate(318.359375 0)"/>
     <use xlink:href="#DejaVuSerif-61" transform="translate(350.341797 0)"/>
     <use xlink:href="#DejaVuSerif-20" transform="translate(409.960938 0)"/>
     <use xlink:href="#DejaVuSerif-2014" transform="translate(441.748047 0)"/>
     <use xlink:href="#DejaVuSerif-20" transform="translate(541.748047 0)"/>
     <use xlink:href="#DejaVuSerif-44" transform="translate(573.535156 0)"/>
     <use xlink:href="#DejaVuSerif-61" transform="translate(653.710938 0)"/>
     <use xlink:href="#DejaVuSerif-69" transform="translate(713.330078 0)"/>
     <use xlink:href="#DejaVuSerif-6c" transform="translate(745.3125 0)"/>
     <use xlink:href="#DejaVuSerif-79" transform="translate(777.294922 0)"/>
     <use xlink:href="#DejaVuSerif-20" transform="translate(833.789062 0)"/>
     <use xlink:href="#DejaVuSerif-42" transform="translate(865.576172 0)"/>
     <use xlink:href="#DejaVuSerif-6c" transform="translate(939.0625 0)"/>
     <use xlink:href="#DejaVuSerif-6f" transform="translate(971.044922 0)"/>
     <use xlink:href="#DejaVuSerif-62" transform="translate(1031.25 0)"/>
     <use xlink:href="#DejaVuSerif-20" transform="translate(1095.263672 0)"/>
     <use xlink:href="#DejaVuSerif-56" transform="translate(1127.050781 0)"/>
     <use xlink:href="#DejaVuSerif-6f" transform="translate(1190.142578 0)"/>
     <use xlink:href="#DejaVuSerif-6c" transform="translate(1250.347656 0)"/>
     <use xlink:href="#DejaVuSerif-75" transform="translate(1282.330078 0)"/>
     <use xlink:href="#DejaVuSerif-6d" transform="translate(1346.734375 0)"/>
     <use xlink:href="#DejaVuSerif-65" transform="translate(1441.558594 0)"/>
     <use xlink:href="#DejaVuSerif-20" transform="translate(1500.738281 0)"/>
     <use xlink:href="#DejaVuSerif-28" transform="translate(1532.525391 0)"/>
     <use xlink:href="#DejaVuSerif-4d" transform="translate(1571.539062 0)"/>
     <use xlink:href="#DejaVuSerif-69" transform="translate(1673.931641 0)"/>
     <use xlink:href="#DejaVuSerif-42" transform="translate(1705.914062 0)"/>
     <use xlink:href="#DejaVuSerif-29" transform="translate(1779.400391 0)"/>
    </g>
   </g>
   <g id="legend_1">
    <g id="patch_97">
     <path d="M 437.230313 55.270781 
L 489.995313 55.270781 
Q 491.595313 55.270781 491.595313 53.670781 
L 491.595313 30.758281 
Q 491.595313 29.158281 489.995313 29.158281 
L 437.230313 29.158281 
Q 435.630313 29.158281 435.630313 30.758281 
L 435.630313 53.670781 
Q 435.630313 55.270781 437.230313 55.270781 
z
" style="fill: #ffffff; opacity: 0.9; stroke: #cccccc; stroke-linejoin: miter"/>
    </g>
    <g id="line2d_20">
     <path d="M 438.830313 35.637031 
L 446.830313 35.637031 
L 454.830313 35.637031 
" style="fill: none; stroke: #cc3333; stroke-width: 1.5; stroke-linecap: square"/>
    </g>
    <g id="text_12">
     <!-- 7d avg -->
     <g transform="translate(461.230313 38.437031) scale(0.08 -0.08)">
      <defs>
       <path id="DejaVuSerif-37" d="M 3609 4347 
L 1784 0 
L 1319 0 
L 3059 4153 
L 903 4153 
L 903 3578 
L 538 3578 
L 538 4666 
L 3609 4666 
L 3609 4347 
z
" transform="scale(0.015625)"/>
       <path id="DejaVuSerif-64" d="M 3359 331 
L 3909 331 
L 3909 0 
L 2784 0 
L 2784 519 
Q 2616 206 2355 57 
Q 2094 -91 1709 -91 
Q 1097 -91 708 395 
Q 319 881 319 1663 
Q 319 2444 706 2928 
Q 1094 3413 1709 3413 
Q 2094 3413 2355 3264 
Q 2616 3116 2784 2803 
L 2784 4531 
L 2241 4531 
L 2241 4863 
L 3359 4863 
L 3359 331 
z
M 2784 1497 
L 2784 1825 
Q 2784 2422 2554 2737 
Q 2325 3053 1888 3053 
Q 1444 3053 1217 2703 
Q 991 2353 991 1663 
Q 991 975 1217 622 
Q 1444 269 1888 269 
Q 2325 269 2554 583 
Q 2784 897 2784 1497 
z
" transform="scale(0.015625)"/>
       <path id="DejaVuSerif-76" d="M 1581 0 
L 359 2988 
L -19 2988 
L -19 3322 
L 1509 3322 
L 1509 2988 
L 978 2988 
L 1913 703 
L 2847 2988 
L 2350 2988 
L 2350 3322 
L 3597 3322 
L 3597 2988 
L 3225 2988 
L 2003 0 
L 1581 0 
z
" transform="scale(0.015625)"/>
       <path id="DejaVuSerif-67" d="M 3359 2988 
L 3359 72 
Q 3359 -644 2965 -1033 
Q 2572 -1422 1844 -1422 
Q 1516 -1422 1216 -1362 
Q 916 -1303 641 -1184 
L 641 -488 
L 941 -488 
Q 997 -813 1206 -963 
Q 1416 -1113 1806 -1113 
Q 2313 -1113 2548 -827 
Q 2784 -541 2784 72 
L 2784 519 
Q 2616 206 2355 57 
Q 2094 -91 1709 -91 
Q 1097 -91 708 395 
Q 319 881 319 1663 
Q 319 2444 706 2928 
Q 1094 3413 1709 3413 
Q 2094 3413 2355 3264 
Q 2616 3116 2784 2803 
L 2784 3322 
L 3909 3322 
L 3909 2988 
L 3359 2988 
z
M 2784 1825 
Q 2784 2422 2554 2737 
Q 2325 3053 1888 3053 
Q 1444 3053 1217 2703 
Q 991 2353 991 1663 
Q 991 975 1217 622 
Q 1444 269 1888 269 
Q 2325 269 2554 583 
Q 2784 897 2784 1497 
L 2784 1825 
z
" transform="scale(0.015625)"/>
      </defs>
      <use xlink:href="#DejaVuSerif-37"/>
      <use xlink:href="#DejaVuSerif-64" transform="translate(63.623047 0)"/>
      <use xlink:href="#DejaVuSerif-20" transform="translate(127.636719 0)"/>
      <use xlink:href="#DejaVuSerif-61" transform="translate(159.423828 0)"/>
      <use xlink:href="#DejaVuSerif-76" transform="translate(219.042969 0)"/>
      <use xlink:href="#DejaVuSerif-67" transform="translate(275.537109 0)"/>
     </g>
    </g>
    <g id="patch_98">
     <path d="M 438.830313 50.293281 
L 454.830313 50.293281 
L 454.830313 44.693281 
L 438.830313 44.693281 
z
" style="fill: #3366cc; opacity: 0.7"/>
    </g>
    <g id="text_13">
     <!-- Daily -->
     <g transform="translate(461.230313 50.293281) scale(0.08 -0.08)">
      <use xlink:href="#DejaVuSerif-44"/>
      <use xlink:href="#DejaVuSerif-61" transform="translate(80.175781 0)"/>
      <use xlink:href="#DejaVuSerif-69" transform="translate(139.794922 0)"/>
      <use xlink:href="#DejaVuSerif-6c" transform="translate(171.777344 0)"/>
      <use xlink:href="#DejaVuSerif-79" transform="translate(203.759766 0)"/>
     </g>
    </g>
   </g>
  </g>
 </g>
 <defs>
  <clipPath id="pb3220a12a9">
   <rect x="61.050312" y="25.158281" width="434.545" height="134.299829"/>
  </clipPath>
 </defs>
</svg>
