<?xml version="1.0" encoding="utf-8" standalone="no"?>
<!DOCTYPE svg PUBLIC "-//W3C//DTD SVG 1.1//EN"
  "http://www.w3.org/Graphics/SVG/1.1/DTD/svg11.dtd">
<svg xmlns:xlink="http://www.w3.org/1999/xlink" width="506.492812pt" height="203.228937pt" viewBox="0 0 506.492812 203.228937" xmlns="http://www.w3.org/2000/svg" version="1.1">
 <metadata>
  <rdf:RDF xmlns:dc="http://purl.org/dc/elements/1.1/" xmlns:cc="http://creativecommons.org/ns#" xmlns:rdf="http://www.w3.org/1999/02/22-rdf-syntax-ns#">
   <cc:Work>
    <dc:type rdf:resource="http://purl.org/dc/dcmitype/StillImage"/>
    <dc:date>2026-02-16T16:57:26.916156</dc:date>
    <dc:format>image/svg+xml</dc:format>
    <dc:creator>
     <cc:Agent>
      <dc:title>Matplotlib v3.10.8, https://matplotlib.org/</dc:title>
     </cc:Agent>
    </dc:creator>
   </cc:Work>
  </rdf:RDF>
 </metadata>
 <defs>
  <style type="text/css">*{stroke-linejoin: round; stroke-linecap: butt}</style>
 </defs>
 <g id="figure_1">
  <g id="patch_1">
   <path d="M 0 203.228937 
L 506.492812 203.228937 
L 506.492812 0 
L 0 0 
z
" style="fill: #ffffff"/>
  </g>
  <g id="axes_1">
   <g id="patch_2">
    <path d="M 48.322812 159.45811 
L 495.692812 159.45811 
L 495.692812 25.158281 
L 48.322812 25.158281 
z
" style="fill: #ffffff"/>
   </g>
   <g id="matplotlib.axis_1">
    <g id="xtick_1">
     <g id="line2d_1">
      <path d="M 141.314457 159.45811 
L 141.314457 25.158281 
" clip-path="url(#p499cb8cca5)" style="fill: none; stroke: #b0b0b0; stroke-opacity: 0.25; stroke-width: 0.5; stroke-linecap: square"/>
     </g>
     <g id="line2d_2">
      <defs>
       <path id="m9e37658e32" d="M 0 0 
L 0 3.5 
" style="stroke: #000000; stroke-width: 0.8"/>
      </defs>
      <g>
       <use xlink:href="#m9e37658e32" x="141.314457" y="159.45811" style="stroke: #000000; stroke-width: 0.8"/>
      </g>
     </g>
     <g id="text_1">
      <!-- Dec 2025 -->
      <g transform="translate(107.113541 190.988087) rotate(-30) scale(0.08 -0.08)">
       <defs>
        <path id="DejaVuSerif-44" d="M 1581 331 
L 2163 331 
Q 3072 331 3558 850 
Q 4044 1369 4044 2338 
Q 4044 3306 3559 3818 
Q 3075 4331 2163 4331 
L 1581 4331 
L 1581 331 
z
M 353 0 
L 353 331 
L 947 331 
L 947 4331 
L 353 4331 
L 353 4666 
L 2209 4666 
Q 3416 4666 4089 4050 
Q 4763 3434 4763 2338 
Q 4763 1238 4088 619 
Q 3413 0 2209 0 
L 353 0 
z
" transform="scale(0.015625)"/>
        <path id="DejaVuSerif-65" d="M 3469 1600 
L 991 1600 
L 991 1575 
Q 991 903 1244 561 
Q 1497 219 1991 219 
Q 2369 219 2611 417 
Q 2853 616 2950 1006 
L 3413 1006 
Q 3275 459 2904 184 
Q 2534 -91 1931 -91 
Q 1203 -91 761 389 
Q 319 869 319 1663 
Q 319 2450 753 2931 
Q 1188 3413 1894 3413 
Q 2647 3413 3050 2948 
Q 3453 2484 3469 1600 
z
M 2791 1931 
Q 2772 2513 2545 2808 
Q 2319 3103 1894 3103 
Q 1497 3103 1269 2806 
Q 1041 2509 991 1931 
L 2791 1931 
z
" transform="scale(0.015625)"/>
        <path id="DejaVuSerif-63" d="M 3291 997 
Q 3169 466 2822 187 
Q 2475 -91 1925 -91 
Q 1200 -91 759 389 
Q 319 869 319 1663 
Q 319 2459 759 2936 
Q 1200 3413 1925 3413 
Q 2241 3413 2553 3339 
Q 2866 3266 3181 3116 
L 3181 2266 
L 2847 2266 
Q 2781 2703 2561 2903 
Q 2341 3103 1931 3103 
Q 1466 3103 1228 2742 
Q 991 2381 991 1663 
Q 991 944 1227 581 
Q 1463 219 1931 219 
Q 2303 219 2525 412 
Q 2747 606 2828 997 
L 3291 997 
z
" transform="scale(0.015625)"/>
        <path id="DejaVuSerif-20" transform="scale(0.015625)"/>
        <path id="DejaVuSerif-32" d="M 819 3553 
L 469 3553 
L 469 4384 
Q 803 4563 1142 4656 
Q 1481 4750 1806 4750 
Q 2534 4750 2956 4397 
Q 3378 4044 3378 3438 
Q 3378 2753 2422 1800 
Q 2347 1728 2309 1691 
L 1131 513 
L 3078 513 
L 3078 1088 
L 3444 1088 
L 3444 0 
L 434 0 
L 434 341 
L 1850 1753 
Q 2319 2222 2519 2614 
Q 2719 3006 2719 3438 
Q 2719 3909 2473 4175 
Q 2228 4441 1797 4441 
Q 1350 4441 1106 4219 
Q 863 3997 819 3553 
z
" transform="scale(0.015625)"/>
        <path id="DejaVuSerif-30" d="M 2034 219 
Q 2513 219 2750 744 
Q 2988 1269 2988 2328 
Q 2988 3391 2750 3916 
Q 2513 4441 2034 4441 
Q 1556 4441 1318 3916 
Q 1081 3391 1081 2328 
Q 1081 1269 1318 744 
Q 1556 219 2034 219 
z
M 2034 -91 
Q 1275 -91 848 546 
Q 422 1184 422 2328 
Q 422 3475 848 4112 
Q 1275 4750 2034 4750 
Q 2797 4750 3222 4112 
Q 3647 3475 3647 2328 
Q 3647 1184 3222 546 
Q 2797 -91 2034 -91 
z
" transform="scale(0.015625)"/>
        <path id="DejaVuSerif-35" d="M 3219 4666 
L 3219 4153 
L 1081 4153 
L 1081 2816 
Q 1244 2928 1461 2984 
Q 1678 3041 1947 3041 
Q 2703 3041 3140 2622 
Q 3578 2203 3578 1478 
Q 3578 738 3136 323 
Q 2694 -91 1894 -91 
Q 1572 -91 1234 -12 
Q 897 66 544 225 
L 544 1131 
L 897 1131 
Q 925 688 1179 453 
Q 1434 219 1894 219 
Q 2388 219 2653 544 
Q 2919 869 2919 1478 
Q 2919 2084 2655 2407 
Q 2391 2731 1894 2731 
Q 1613 2731 1398 2631 
Q 1184 2531 1019 2322 
L 750 2322 
L 750 4666 
L 3219 4666 
z
" transform="scale(0.015625)"/>
       </defs>
       <use xlink:href="#DejaVuSerif-44"/>
       <use xlink:href="#DejaVuSerif-65" transform="translate(80.175781 0)"/>
       <use xlink:href="#DejaVuSerif-63" transform="translate(139.355469 0)"/>
       <use xlink:href="#DejaVuSerif-20" transform="translate(195.361328 0)"/>
       <use xlink:href="#DejaVuSerif-32" transform="translate(227.148438 0)"/>
       <use xlink:href="#DejaVuSerif-30" transform="translate(290.771484 0)"/>
       <use xlink:href="#DejaVuSerif-32" transform="translate(354.394531 0)"/>
       <use xlink:href="#DejaVuSerif-35" transform="translate(418.017578 0)"/>
      </g>
     </g>
    </g>
    <g id="xtick_2">
     <g id="line2d_3">
      <path d="M 278.653237 159.45811 
L 278.653237 25.158281 
" clip-path="url(#p499cb8cca5)" style="fill: none; stroke: #b0b0b0; stroke-opacity: 0.25; stroke-width: 0.5; stroke-linecap: square"/>
     </g>
     <g id="line2d_4">
      <g>
       <use xlink:href="#m9e37658e32" x="278.653237" y="159.45811" style="stroke: #000000; stroke-width: 0.8"/>
      </g>
     </g>
     <g id="text_2">
      <!-- Jan 2026 -->
      <g transform="translate(246.616302 189.738712) rotate(-30) scale(0.08 -0.08)">
       <defs>
        <path id="DejaVuSerif-4a" d="M -538 -1119 
L -538 -384 
L -181 -384 
Q -172 -694 -34 -845 
Q 103 -997 378 -997 
Q 750 -997 897 -762 
Q 1044 -528 1044 153 
L 1044 4331 
L 319 4331 
L 319 4666 
L 2272 4666 
L 2272 4331 
L 1678 4331 
L 1678 128 
Q 1678 -644 1368 -987 
Q 1059 -1331 372 -1331 
Q 150 -1331 -79 -1278 
Q -309 -1225 -538 -1119 
z
" transform="scale(0.015625)"/>
        <path id="DejaVuSerif-61" d="M 2547 1044 
L 2547 1747 
L 1806 1747 
Q 1378 1747 1168 1562 
Q 959 1378 959 997 
Q 959 650 1171 447 
Q 1384 244 1747 244 
Q 2106 244 2326 466 
Q 2547 688 2547 1044 
z
M 3122 2075 
L 3122 331 
L 3634 331 
L 3634 0 
L 2547 0 
L 2547 359 
Q 2356 128 2106 18 
Q 1856 -91 1522 -91 
Q 969 -91 644 203 
Q 319 497 319 997 
Q 319 1513 691 1797 
Q 1063 2081 1741 2081 
L 2547 2081 
L 2547 2309 
Q 2547 2688 2317 2895 
Q 2088 3103 1672 3103 
Q 1328 3103 1125 2947 
Q 922 2791 872 2484 
L 575 2484 
L 575 3156 
Q 875 3284 1158 3348 
Q 1441 3413 1709 3413 
Q 2400 3413 2761 3070 
Q 3122 2728 3122 2075 
z
" transform="scale(0.015625)"/>
        <path id="DejaVuSerif-6e" d="M 263 0 
L 263 331 
L 781 331 
L 781 2988 
L 231 2988 
L 231 3322 
L 1356 3322 
L 1356 2731 
Q 1516 3069 1770 3241 
Q 2025 3413 2363 3413 
Q 2913 3413 3172 3097 
Q 3431 2781 3431 2113 
L 3431 331 
L 3944 331 
L 3944 0 
L 2356 0 
L 2356 331 
L 2853 331 
L 2853 1931 
Q 2853 2541 2703 2767 
Q 2553 2994 2175 2994 
Q 1775 2994 1565 2701 
Q 1356 2409 1356 1850 
L 1356 331 
L 1856 331 
L 1856 0 
L 263 0 
z
" transform="scale(0.015625)"/>
        <path id="DejaVuSerif-36" d="M 2094 219 
Q 2534 219 2771 542 
Q 3009 866 3009 1472 
Q 3009 2078 2771 2401 
Q 2534 2725 2094 2725 
Q 1647 2725 1412 2412 
Q 1178 2100 1178 1509 
Q 1178 888 1415 553 
Q 1653 219 2094 219 
z
M 1075 2569 
Q 1288 2803 1556 2918 
Q 1825 3034 2163 3034 
Q 2859 3034 3264 2615 
Q 3669 2197 3669 1472 
Q 3669 763 3233 336 
Q 2797 -91 2069 -91 
Q 1278 -91 853 498 
Q 428 1088 428 2181 
Q 428 3406 931 4078 
Q 1434 4750 2350 4750 
Q 2597 4750 2869 4703 
Q 3141 4656 3425 4563 
L 3425 3794 
L 3072 3794 
Q 3034 4109 2831 4275 
Q 2628 4441 2284 4441 
Q 1678 4441 1381 3981 
Q 1084 3522 1075 2569 
z
" transform="scale(0.015625)"/>
       </defs>
       <use xlink:href="#DejaVuSerif-4a"/>
       <use xlink:href="#DejaVuSerif-61" transform="translate(40.087891 0)"/>
       <use xlink:href="#DejaVuSerif-6e" transform="translate(99.707031 0)"/>
       <use xlink:href="#DejaVuSerif-20" transform="translate(164.111328 0)"/>
       <use xlink:href="#DejaVuSerif-32" transform="translate(195.898438 0)"/>
       <use xlink:href="#DejaVuSerif-30" transform="translate(259.521484 0)"/>
       <use xlink:href="#DejaVuSerif-32" transform="translate(323.144531 0)"/>
       <use xlink:href="#DejaVuSerif-36" transform="translate(386.767578 0)"/>
      </g>
     </g>
    </g>
    <g id="xtick_3">
     <g id="line2d_5">
      <path d="M 415.992017 159.45811 
L 415.992017 25.158281 
" clip-path="url(#p499cb8cca5)" style="fill: none; stroke: #b0b0b0; stroke-opacity: 0.25; stroke-width: 0.5; stroke-linecap: square"/>
     </g>
     <g id="line2d_6">
      <g>
       <use xlink:href="#m9e37658e32" x="415.992017" y="159.45811" style="stroke: #000000; stroke-width: 0.8"/>
      </g>
     </g>
     <g id="text_3">
      <!-- Feb 2026 -->
      <g transform="translate(382.36376 190.657462) rotate(-30) scale(0.08 -0.08)">
       <defs>
        <path id="DejaVuSerif-46" d="M 353 0 
L 353 331 
L 947 331 
L 947 4331 
L 353 4331 
L 353 4666 
L 4172 4666 
L 4172 3628 
L 3788 3628 
L 3788 4281 
L 1581 4281 
L 1581 2719 
L 3175 2719 
L 3175 3303 
L 3559 3303 
L 3559 1753 
L 3175 1753 
L 3175 2338 
L 1581 2338 
L 1581 331 
L 2328 331 
L 2328 0 
L 353 0 
z
" transform="scale(0.015625)"/>
        <path id="DejaVuSerif-62" d="M 738 331 
L 738 4531 
L 184 4531 
L 184 4863 
L 1313 4863 
L 1313 2803 
Q 1481 3116 1742 3264 
Q 2003 3413 2388 3413 
Q 3000 3413 3387 2928 
Q 3775 2444 3775 1663 
Q 3775 881 3387 395 
Q 3000 -91 2388 -91 
Q 2003 -91 1742 57 
Q 1481 206 1313 519 
L 1313 0 
L 184 0 
L 184 331 
L 738 331 
z
M 1313 1497 
Q 1313 897 1542 583 
Q 1772 269 2209 269 
Q 2650 269 2876 622 
Q 3103 975 3103 1663 
Q 3103 2353 2876 2703 
Q 2650 3053 2209 3053 
Q 1772 3053 1542 2737 
Q 1313 2422 1313 1825 
L 1313 1497 
z
" transform="scale(0.015625)"/>
       </defs>
       <use xlink:href="#DejaVuSerif-46"/>
       <use xlink:href="#DejaVuSerif-65" transform="translate(63.884766 0)"/>
       <use xlink:href="#DejaVuSerif-62" transform="translate(123.064453 0)"/>
       <use xlink:href="#DejaVuSerif-20" transform="translate(187.078125 0)"/>
       <use xlink:href="#DejaVuSerif-32" transform="translate(218.865234 0)"/>
       <use xlink:href="#DejaVuSerif-30" transform="translate(282.488281 0)"/>
       <use xlink:href="#DejaVuSerif-32" transform="translate(346.111328 0)"/>
       <use xlink:href="#DejaVuSerif-36" transform="translate(409.734375 0)"/>
      </g>
     </g>
    </g>
   </g>
   <g id="matplotlib.axis_2">
    <g id="ytick_1">
     <g id="line2d_7">
      <path d="M 48.322812 99.826759 
L 495.692812 99.826759 
" clip-path="url(#p499cb8cca5)" style="fill: none; stroke: #b0b0b0; stroke-opacity: 0.25; stroke-width: 0.5; stroke-linecap: square"/>
     </g>
     <g id="line2d_8">
      <defs>
       <path id="m6083bb2ddb" d="M 0 0 
L -3.5 0 
" style="stroke: #000000; stroke-width: 0.8"/>
      </defs>
      <g>
       <use xlink:href="#m6083bb2ddb" x="48.322812" y="99.826759" style="stroke: #000000; stroke-width: 0.8"/>
      </g>
     </g>
     <g id="text_4">
      <!-- 0.10 -->
      <g transform="translate(23.510312 102.866134) scale(0.08 -0.08)">
       <defs>
        <path id="DejaVuSerif-2e" d="M 603 325 
Q 603 500 722 622 
Q 841 744 1019 744 
Q 1191 744 1312 622 
Q 1434 500 1434 325 
Q 1434 153 1312 31 
Q 1191 -91 1019 -91 
Q 841 -91 722 29 
Q 603 150 603 325 
z
" transform="scale(0.015625)"/>
        <path id="DejaVuSerif-31" d="M 909 0 
L 909 331 
L 1722 331 
L 1722 4213 
L 781 3603 
L 781 4013 
L 1919 4750 
L 2350 4750 
L 2350 331 
L 3163 331 
L 3163 0 
L 909 0 
z
" transform="scale(0.015625)"/>
       </defs>
       <use xlink:href="#DejaVuSerif-30"/>
       <use xlink:href="#DejaVuSerif-2e" transform="translate(63.623047 0)"/>
       <use xlink:href="#DejaVuSerif-31" transform="translate(95.410156 0)"/>
       <use xlink:href="#DejaVuSerif-30" transform="translate(159.033203 0)"/>
      </g>
     </g>
    </g>
    <g id="ytick_2">
     <g id="line2d_9">
      <path d="M 48.322812 38.877715 
L 495.692812 38.877715 
" clip-path="url(#p499cb8cca5)" style="fill: none; stroke: #b0b0b0; stroke-opacity: 0.25; stroke-width: 0.5; stroke-linecap: square"/>
     </g>
     <g id="line2d_10">
      <g>
       <use xlink:href="#m6083bb2ddb" x="48.322812" y="38.877715" style="stroke: #000000; stroke-width: 0.8"/>
      </g>
     </g>
     <g id="text_5">
      <!-- 1.00 -->
      <g transform="translate(23.510312 41.91709) scale(0.08 -0.08)">
       <use xlink:href="#DejaVuSerif-31"/>
       <use xlink:href="#DejaVuSerif-2e" transform="translate(63.623047 0)"/>
       <use xlink:href="#DejaVuSerif-30" transform="translate(95.410156 0)"/>
       <use xlink:href="#DejaVuSerif-30" transform="translate(159.033203 0)"/>
      </g>
     </g>
    </g>
    <g id="ytick_3">
     <g id="line2d_11">
      <defs>
       <path id="mde640c1b3b" d="M 0 0 
L -2 0 
" style="stroke: #000000; stroke-width: 0.6"/>
      </defs>
      <g>
       <use xlink:href="#mde640c1b3b" x="48.322812" y="142.428312" style="stroke: #000000; stroke-width: 0.6"/>
      </g>
     </g>
    </g>
    <g id="ytick_4">
     <g id="line2d_12">
      <g>
       <use xlink:href="#mde640c1b3b" x="48.322812" y="131.695718" style="stroke: #000000; stroke-width: 0.6"/>
      </g>
     </g>
    </g>
    <g id="ytick_5">
     <g id="line2d_13">
      <g>
       <use xlink:href="#mde640c1b3b" x="48.322812" y="124.080821" style="stroke: #000000; stroke-width: 0.6"/>
      </g>
     </g>
    </g>
    <g id="ytick_6">
     <g id="line2d_14">
      <g>
       <use xlink:href="#mde640c1b3b" x="48.322812" y="118.174249" style="stroke: #000000; stroke-width: 0.6"/>
      </g>
     </g>
    </g>
    <g id="ytick_7">
     <g id="line2d_15">
      <g>
       <use xlink:href="#mde640c1b3b" x="48.322812" y="113.348228" style="stroke: #000000; stroke-width: 0.6"/>
      </g>
     </g>
    </g>
    <g id="ytick_8">
     <g id="line2d_16">
      <g>
       <use xlink:href="#mde640c1b3b" x="48.322812" y="109.267885" style="stroke: #000000; stroke-width: 0.6"/>
      </g>
     </g>
    </g>
    <g id="ytick_9">
     <g id="line2d_17">
      <g>
       <use xlink:href="#mde640c1b3b" x="48.322812" y="105.733331" style="stroke: #000000; stroke-width: 0.6"/>
      </g>
     </g>
    </g>
    <g id="ytick_10">
     <g id="line2d_18">
      <g>
       <use xlink:href="#mde640c1b3b" x="48.322812" y="102.615634" style="stroke: #000000; stroke-width: 0.6"/>
      </g>
     </g>
    </g>
    <g id="ytick_11">
     <g id="line2d_19">
      <g>
       <use xlink:href="#mde640c1b3b" x="48.322812" y="81.479268" style="stroke: #000000; stroke-width: 0.6"/>
      </g>
     </g>
    </g>
    <g id="ytick_12">
     <g id="line2d_20">
      <g>
       <use xlink:href="#mde640c1b3b" x="48.322812" y="70.746675" style="stroke: #000000; stroke-width: 0.6"/>
      </g>
     </g>
    </g>
    <g id="ytick_13">
     <g id="line2d_21">
      <g>
       <use xlink:href="#mde640c1b3b" x="48.322812" y="63.131778" style="stroke: #000000; stroke-width: 0.6"/>
      </g>
     </g>
    </g>
    <g id="ytick_14">
     <g id="line2d_22">
      <g>
       <use xlink:href="#mde640c1b3b" x="48.322812" y="57.225206" style="stroke: #000000; stroke-width: 0.6"/>
      </g>
     </g>
    </g>
    <g id="ytick_15">
     <g id="line2d_23">
      <g>
       <use xlink:href="#mde640c1b3b" x="48.322812" y="52.399184" style="stroke: #000000; stroke-width: 0.6"/>
      </g>
     </g>
    </g>
    <g id="ytick_16">
     <g id="line2d_24">
      <g>
       <use xlink:href="#mde640c1b3b" x="48.322812" y="48.318842" style="stroke: #000000; stroke-width: 0.6"/>
      </g>
     </g>
    </g>
    <g id="ytick_17">
     <g id="line2d_25">
      <g>
       <use xlink:href="#mde640c1b3b" x="48.322812" y="44.784288" style="stroke: #000000; stroke-width: 0.6"/>
      </g>
     </g>
    </g>
    <g id="ytick_18">
     <g id="line2d_26">
      <g>
       <use xlink:href="#mde640c1b3b" x="48.322812" y="41.666591" style="stroke: #000000; stroke-width: 0.6"/>
      </g>
     </g>
    </g>
    <g id="text_6">
     <!-- MiB/s -->
     <g transform="translate(17.638594 105.486868) rotate(-90) scale(0.09 -0.09)">
      <defs>
       <path id="DejaVuSerif-4d" d="M 353 0 
L 353 331 
L 947 331 
L 947 4331 
L 319 4331 
L 319 4666 
L 1678 4666 
L 3316 1344 
L 4953 4666 
L 6228 4666 
L 6228 4331 
L 5606 4331 
L 5606 331 
L 6203 331 
L 6203 0 
L 4378 0 
L 4378 331 
L 4972 331 
L 4972 3938 
L 3372 684 
L 2931 684 
L 1331 3938 
L 1331 331 
L 1925 331 
L 1925 0 
L 353 0 
z
" transform="scale(0.015625)"/>
       <path id="DejaVuSerif-69" d="M 622 4353 
Q 622 4497 726 4603 
Q 831 4709 978 4709 
Q 1122 4709 1226 4603 
Q 1331 4497 1331 4353 
Q 1331 4206 1228 4103 
Q 1125 4000 978 4000 
Q 831 4000 726 4103 
Q 622 4206 622 4353 
z
M 1356 331 
L 1900 331 
L 1900 0 
L 231 0 
L 231 331 
L 781 331 
L 781 2988 
L 231 2988 
L 231 3322 
L 1356 3322 
L 1356 331 
z
" transform="scale(0.015625)"/>
       <path id="DejaVuSerif-42" d="M 1581 331 
L 2516 331 
Q 3078 331 3337 575 
Q 3597 819 3597 1350 
Q 3597 1878 3339 2120 
Q 3081 2363 2516 2363 
L 1581 2363 
L 1581 331 
z
M 1581 2694 
L 2375 2694 
Q 2888 2694 3123 2891 
Q 3359 3088 3359 3513 
Q 3359 3941 3123 4136 
Q 2888 4331 2375 4331 
L 1581 4331 
L 1581 2694 
z
M 353 0 
L 353 331 
L 947 331 
L 947 4331 
L 353 4331 
L 353 4666 
L 2656 4666 
Q 3363 4666 3720 4377 
Q 4078 4088 4078 3513 
Q 4078 3097 3829 2850 
Q 3581 2603 3103 2547 
Q 3697 2472 4005 2167 
Q 4313 1863 4313 1350 
Q 4313 656 3875 328 
Q 3438 0 2509 0 
L 353 0 
z
" transform="scale(0.015625)"/>
       <path id="DejaVuSerif-2f" d="M 1656 4666 
L 2156 4666 
L 500 -594 
L 0 -594 
L 1656 4666 
z
" transform="scale(0.015625)"/>
       <path id="DejaVuSerif-73" d="M 359 184 
L 359 959 
L 691 959 
Q 703 588 923 403 
Q 1144 219 1575 219 
Q 1963 219 2166 364 
Q 2369 509 2369 788 
Q 2369 1006 2220 1140 
Q 2072 1275 1594 1428 
L 1178 1569 
Q 750 1706 558 1912 
Q 366 2119 366 2438 
Q 366 2894 700 3153 
Q 1034 3413 1625 3413 
Q 1888 3413 2178 3344 
Q 2469 3275 2778 3144 
L 2778 2419 
L 2447 2419 
Q 2434 2741 2221 2922 
Q 2009 3103 1644 3103 
Q 1281 3103 1095 2975 
Q 909 2847 909 2591 
Q 909 2381 1050 2254 
Q 1191 2128 1613 1997 
L 2069 1856 
Q 2541 1709 2748 1489 
Q 2956 1269 2956 922 
Q 2956 450 2595 179 
Q 2234 -91 1600 -91 
Q 1278 -91 972 -22 
Q 666 47 359 184 
z
" transform="scale(0.015625)"/>
      </defs>
      <use xlink:href="#DejaVuSerif-4d"/>
      <use xlink:href="#DejaVuSerif-69" transform="translate(102.392578 0)"/>
      <use xlink:href="#DejaVuSerif-42" transform="translate(134.375 0)"/>
      <use xlink:href="#DejaVuSerif-2f" transform="translate(207.861328 0)"/>
      <use xlink:href="#DejaVuSerif-73" transform="translate(241.552734 0)"/>
     </g>
    </g>
   </g>
   <g id="patch_3">
    <path d="M 68.657812 60987.920973 
L 72.202039 60987.920973 
L 72.202039 148.653157 
L 68.657812 148.653157 
z
" clip-path="url(#p499cb8cca5)" style="fill: #3366cc; opacity: 0.7"/>
   </g>
   <g id="patch_4">
    <path d="M 73.088096 60987.920973 
L 76.632322 60987.920973 
L 76.632322 149.224384 
L 73.088096 149.224384 
z
" clip-path="url(#p499cb8cca5)" style="fill: #3366cc; opacity: 0.7"/>
   </g>
   <g id="patch_5">
    <path d="M 77.518379 60987.920973 
L 81.062606 60987.920973 
L 81.062606 146.506907 
L 77.518379 146.506907 
z
" clip-path="url(#p499cb8cca5)" style="fill: #3366cc; opacity: 0.7"/>
   </g>
   <g id="patch_6">
    <path d="M 81.948662 60987.920973 
L 85.492889 60987.920973 
L 85.492889 143.273575 
L 81.948662 143.273575 
z
" clip-path="url(#p499cb8cca5)" style="fill: #3366cc; opacity: 0.7"/>
   </g>
   <g id="patch_7">
    <path d="M 86.378945 60987.920973 
L 89.923172 60987.920973 
L 89.923172 142.737485 
L 86.378945 142.737485 
z
" clip-path="url(#p499cb8cca5)" style="fill: #3366cc; opacity: 0.7"/>
   </g>
   <g id="patch_8">
    <path d="M 90.809229 60987.920973 
L 94.353455 60987.920973 
L 94.353455 138.219165 
L 90.809229 138.219165 
z
" clip-path="url(#p499cb8cca5)" style="fill: #3366cc; opacity: 0.7"/>
   </g>
   <g id="patch_9">
    <path d="M 95.239512 60987.920973 
L 98.783738 60987.920973 
L 98.783738 137.742528 
L 95.239512 137.742528 
z
" clip-path="url(#p499cb8cca5)" style="fill: #3366cc; opacity: 0.7"/>
   </g>
   <g id="patch_10">
    <path d="M 99.669795 60987.920973 
L 103.214022 60987.920973 
L 103.214022 147.692702 
L 99.669795 147.692702 
z
" clip-path="url(#p499cb8cca5)" style="fill: #3366cc; opacity: 0.7"/>
   </g>
   <g id="patch_11">
    <path d="M 104.100078 60987.920973 
L 107.644305 60987.920973 
L 107.644305 146.150816 
L 104.100078 146.150816 
z
" clip-path="url(#p499cb8cca5)" style="fill: #3366cc; opacity: 0.7"/>
   </g>
   <g id="patch_12">
    <path d="M 108.530362 60987.920973 
L 112.074588 60987.920973 
L 112.074588 147.957821 
L 108.530362 147.957821 
z
" clip-path="url(#p499cb8cca5)" style="fill: #3366cc; opacity: 0.7"/>
   </g>
   <g id="patch_13">
    <path d="M 112.960645 60987.920973 
L 116.504871 60987.920973 
L 116.504871 146.589584 
L 112.960645 146.589584 
z
" clip-path="url(#p499cb8cca5)" style="fill: #3366cc; opacity: 0.7"/>
   </g>
   <g id="patch_14">
    <path d="M 117.390928 60987.920973 
L 120.935155 60987.920973 
L 120.935155 149.020495 
L 117.390928 149.020495 
z
" clip-path="url(#p499cb8cca5)" style="fill: #3366cc; opacity: 0.7"/>
   </g>
   <g id="patch_15">
    <path d="M 121.821211 60987.920973 
L 125.365438 60987.920973 
L 125.365438 151.783435 
L 121.821211 151.783435 
z
" clip-path="url(#p499cb8cca5)" style="fill: #3366cc; opacity: 0.7"/>
   </g>
   <g id="patch_16">
    <path d="M 126.251494 60987.920973 
L 129.795721 60987.920973 
L 129.795721 152.347969 
L 126.251494 152.347969 
z
" clip-path="url(#p499cb8cca5)" style="fill: #3366cc; opacity: 0.7"/>
   </g>
   <g id="patch_17">
    <path d="M 130.681778 60987.920973 
L 134.226004 60987.920973 
L 134.226004 152.543727 
L 130.681778 152.543727 
z
" clip-path="url(#p499cb8cca5)" style="fill: #3366cc; opacity: 0.7"/>
   </g>
   <g id="patch_18">
    <path d="M 135.112061 60987.920973 
L 138.656287 60987.920973 
L 138.656287 152.416907 
L 135.112061 152.416907 
z
" clip-path="url(#p499cb8cca5)" style="fill: #3366cc; opacity: 0.7"/>
   </g>
   <g id="patch_19">
    <path d="M 139.542344 60987.920973 
L 143.086571 60987.920973 
L 143.086571 150.971479 
L 139.542344 150.971479 
z
" clip-path="url(#p499cb8cca5)" style="fill: #3366cc; opacity: 0.7"/>
   </g>
   <g id="patch_20">
    <path d="M 143.972627 60987.920973 
L 147.516854 60987.920973 
L 147.516854 152.275954 
L 143.972627 152.275954 
z
" clip-path="url(#p499cb8cca5)" style="fill: #3366cc; opacity: 0.7"/>
   </g>
   <g id="patch_21">
    <path d="M 148.402911 60987.920973 
L 151.947137 60987.920973 
L 151.947137 152.453312 
L 148.402911 152.453312 
z
" clip-path="url(#p499cb8cca5)" style="fill: #3366cc; opacity: 0.7"/>
   </g>
   <g id="patch_22">
    <path d="M 152.833194 60987.920973 
L 156.37742 60987.920973 
L 156.37742 152.363343 
L 152.833194 152.363343 
z
" clip-path="url(#p499cb8cca5)" style="fill: #3366cc; opacity: 0.7"/>
   </g>
   <g id="patch_23">
    <path d="M 157.263477 60987.920973 
L 160.807704 60987.920973 
L 160.807704 151.879282 
L 157.263477 151.879282 
z
" clip-path="url(#p499cb8cca5)" style="fill: #3366cc; opacity: 0.7"/>
   </g>
   <g id="patch_24">
    <path d="M 161.69376 60987.920973 
L 165.237987 60987.920973 
L 165.237987 153.141547 
L 161.69376 153.141547 
z
" clip-path="url(#p499cb8cca5)" style="fill: #3366cc; opacity: 0.7"/>
   </g>
   <g id="patch_25">
    <path d="M 166.124043 60987.920973 
L 169.66827 60987.920973 
L 169.66827 152.282671 
L 166.124043 152.282671 
z
" clip-path="url(#p499cb8cca5)" style="fill: #3366cc; opacity: 0.7"/>
   </g>
   <g id="patch_26">
    <path d="M 170.554327 60987.920973 
L 174.098553 60987.920973 
L 174.098553 142.988883 
L 170.554327 142.988883 
z
" clip-path="url(#p499cb8cca5)" style="fill: #3366cc; opacity: 0.7"/>
   </g>
   <g id="patch_27">
    <path d="M 174.98461 60987.920973 
L 178.528836 60987.920973 
L 178.528836 151.840048 
L 174.98461 151.840048 
z
" clip-path="url(#p499cb8cca5)" style="fill: #3366cc; opacity: 0.7"/>
   </g>
   <g id="patch_28">
    <path d="M 179.414893 60987.920973 
L 182.95912 60987.920973 
L 182.95912 151.848118 
L 179.414893 151.848118 
z
" clip-path="url(#p499cb8cca5)" style="fill: #3366cc; opacity: 0.7"/>
   </g>
   <g id="patch_29">
    <path d="M 183.845176 60987.920973 
L 187.389403 60987.920973 
L 187.389403 152.161237 
L 183.845176 152.161237 
z
" clip-path="url(#p499cb8cca5)" style="fill: #3366cc; opacity: 0.7"/>
   </g>
   <g id="patch_30">
    <path d="M 188.27546 60987.920973 
L 191.819686 60987.920973 
L 191.819686 153.232801 
L 188.27546 153.232801 
z
" clip-path="url(#p499cb8cca5)" style="fill: #3366cc; opacity: 0.7"/>
   </g>
   <g id="patch_31">
    <path d="M 192.705743 60987.920973 
L 196.249969 60987.920973 
L 196.249969 153.192106 
L 192.705743 153.192106 
z
" clip-path="url(#p499cb8cca5)" style="fill: #3366cc; opacity: 0.7"/>
   </g>
   <g id="patch_32">
    <path d="M 197.136026 60987.920973 
L 200.680253 60987.920973 
L 200.680253 153.353572 
L 197.136026 153.353572 
z
" clip-path="url(#p499cb8cca5)" style="fill: #3366cc; opacity: 0.7"/>
   </g>
   <g id="patch_33">
    <path d="M 201.566309 60987.920973 
L 205.110536 60987.920973 
L 205.110536 121.739169 
L 201.566309 121.739169 
z
" clip-path="url(#p499cb8cca5)" style="fill: #3366cc; opacity: 0.7"/>
   </g>
   <g id="patch_34">
    <path d="M 205.996592 60987.920973 
L 209.540819 60987.920973 
L 209.540819 47.282094 
L 205.996592 47.282094 
z
" clip-path="url(#p499cb8cca5)" style="fill: #3366cc; opacity: 0.7"/>
   </g>
   <g id="patch_35">
    <path d="M 210.426876 60987.920973 
L 213.971102 60987.920973 
L 213.971102 35.4681 
L 210.426876 35.4681 
z
" clip-path="url(#p499cb8cca5)" style="fill: #3366cc; opacity: 0.7"/>
   </g>
   <g id="patch_36">
    <path d="M 214.857159 60987.920973 
L 218.401385 60987.920973 
L 218.401385 34.159963 
L 214.857159 34.159963 
z
" clip-path="url(#p499cb8cca5)" style="fill: #3366cc; opacity: 0.7"/>
   </g>
   <g id="patch_37">
    <path d="M 219.287442 60987.920973 
L 222.831669 60987.920973 
L 222.831669 34.130076 
L 219.287442 34.130076 
z
" clip-path="url(#p499cb8cca5)" style="fill: #3366cc; opacity: 0.7"/>
   </g>
   <g id="patch_38">
    <path d="M 223.717725 60987.920973 
L 227.261952 60987.920973 
L 227.261952 34.303707 
L 223.717725 34.303707 
z
" clip-path="url(#p499cb8cca5)" style="fill: #3366cc; opacity: 0.7"/>
   </g>
   <g id="patch_39">
    <path d="M 228.148009 60987.920973 
L 231.692235 60987.920973 
L 231.692235 58.214129 
L 228.148009 58.214129 
z
" clip-path="url(#p499cb8cca5)" style="fill: #3366cc; opacity: 0.7"/>
   </g>
   <g id="patch_40">
    <path d="M 232.578292 60987.920973 
L 236.122518 60987.920973 
L 236.122518 149.147132 
L 232.578292 149.147132 
z
" clip-path="url(#p499cb8cca5)" style="fill: #3366cc; opacity: 0.7"/>
   </g>
   <g id="patch_41">
    <path d="M 237.008575 60987.920973 
L 240.552802 60987.920973 
L 240.552802 147.680869 
L 237.008575 147.680869 
z
" clip-path="url(#p499cb8cca5)" style="fill: #3366cc; opacity: 0.7"/>
   </g>
   <g id="patch_42">
    <path d="M 241.438858 60987.920973 
L 244.983085 60987.920973 
L 244.983085 148.616054 
L 241.438858 148.616054 
z
" clip-path="url(#p499cb8cca5)" style="fill: #3366cc; opacity: 0.7"/>
   </g>
   <g id="patch_43">
    <path d="M 245.869141 60987.920973 
L 249.413368 60987.920973 
L 249.413368 148.410649 
L 245.869141 148.410649 
z
" clip-path="url(#p499cb8cca5)" style="fill: #3366cc; opacity: 0.7"/>
   </g>
   <g id="patch_44">
    <path d="M 250.299425 60987.920973 
L 253.843651 60987.920973 
L 253.843651 148.454818 
L 250.299425 148.454818 
z
" clip-path="url(#p499cb8cca5)" style="fill: #3366cc; opacity: 0.7"/>
   </g>
   <g id="patch_45">
    <path d="M 254.729708 60987.920973 
L 258.273935 60987.920973 
L 258.273935 148.534455 
L 254.729708 148.534455 
z
" clip-path="url(#p499cb8cca5)" style="fill: #3366cc; opacity: 0.7"/>
   </g>
   <g id="patch_46">
    <path d="M 259.159991 60987.920973 
L 262.704218 60987.920973 
L 262.704218 148.595503 
L 259.159991 148.595503 
z
" clip-path="url(#p499cb8cca5)" style="fill: #3366cc; opacity: 0.7"/>
   </g>
   <g id="patch_47">
    <path d="M 263.590274 60987.920973 
L 267.134501 60987.920973 
L 267.134501 148.433139 
L 263.590274 148.433139 
z
" clip-path="url(#p499cb8cca5)" style="fill: #3366cc; opacity: 0.7"/>
   </g>
   <g id="patch_48">
    <path d="M 268.020558 60987.920973 
L 271.564784 60987.920973 
L 271.564784 148.28859 
L 268.020558 148.28859 
z
" clip-path="url(#p499cb8cca5)" style="fill: #3366cc; opacity: 0.7"/>
   </g>
   <g id="patch_49">
    <path d="M 272.450841 60987.920973 
L 275.995067 60987.920973 
L 275.995067 148.090562 
L 272.450841 148.090562 
z
" clip-path="url(#p499cb8cca5)" style="fill: #3366cc; opacity: 0.7"/>
   </g>
   <g id="patch_50">
    <path d="M 276.881124 60987.920973 
L 280.425351 60987.920973 
L 280.425351 147.466152 
L 276.881124 147.466152 
z
" clip-path="url(#p499cb8cca5)" style="fill: #3366cc; opacity: 0.7"/>
   </g>
   <g id="patch_51">
    <path d="M 281.311407 60987.920973 
L 284.855634 60987.920973 
L 284.855634 147.881052 
L 281.311407 147.881052 
z
" clip-path="url(#p499cb8cca5)" style="fill: #3366cc; opacity: 0.7"/>
   </g>
   <g id="patch_52">
    <path d="M 285.74169 60987.920973 
L 289.285917 60987.920973 
L 289.285917 148.451132 
L 285.74169 148.451132 
z
" clip-path="url(#p499cb8cca5)" style="fill: #3366cc; opacity: 0.7"/>
   </g>
   <g id="patch_53">
    <path d="M 290.171974 60987.920973 
L 293.7162 60987.920973 
L 293.7162 147.996444 
L 290.171974 147.996444 
z
" clip-path="url(#p499cb8cca5)" style="fill: #3366cc; opacity: 0.7"/>
   </g>
   <g id="patch_54">
    <path d="M 294.602257 60987.920973 
L 298.146484 60987.920973 
L 298.146484 131.291529 
L 294.602257 131.291529 
z
" clip-path="url(#p499cb8cca5)" style="fill: #3366cc; opacity: 0.7"/>
   </g>
   <g id="patch_55">
    <path d="M 299.03254 60987.920973 
L 302.576767 60987.920973 
L 302.576767 148.107449 
L 299.03254 148.107449 
z
" clip-path="url(#p499cb8cca5)" style="fill: #3366cc; opacity: 0.7"/>
   </g>
   <g id="patch_56">
    <path d="M 303.462823 60987.920973 
L 307.00705 60987.920973 
L 307.00705 147.687594 
L 303.462823 147.687594 
z
" clip-path="url(#p499cb8cca5)" style="fill: #3366cc; opacity: 0.7"/>
   </g>
   <g id="patch_57">
    <path d="M 307.893107 60987.920973 
L 311.437333 60987.920973 
L 311.437333 148.303731 
L 307.893107 148.303731 
z
" clip-path="url(#p499cb8cca5)" style="fill: #3366cc; opacity: 0.7"/>
   </g>
   <g id="patch_58">
    <path d="M 312.32339 60987.920973 
L 315.867616 60987.920973 
L 315.867616 151.621309 
L 312.32339 151.621309 
z
" clip-path="url(#p499cb8cca5)" style="fill: #3366cc; opacity: 0.7"/>
   </g>
   <g id="patch_59">
    <path d="M 316.753673 60987.920973 
L 320.2979 60987.920973 
L 320.2979 151.458183 
L 316.753673 151.458183 
z
" clip-path="url(#p499cb8cca5)" style="fill: #3366cc; opacity: 0.7"/>
   </g>
   <g id="patch_60">
    <path d="M 321.183956 60987.920973 
L 324.728183 60987.920973 
L 324.728183 151.773642 
L 321.183956 151.773642 
z
" clip-path="url(#p499cb8cca5)" style="fill: #3366cc; opacity: 0.7"/>
   </g>
   <g id="patch_61">
    <path d="M 325.61424 60987.920973 
L 329.158466 60987.920973 
L 329.158466 152.010223 
L 325.61424 152.010223 
z
" clip-path="url(#p499cb8cca5)" style="fill: #3366cc; opacity: 0.7"/>
   </g>
   <g id="patch_62">
    <path d="M 330.044523 60987.920973 
L 333.588749 60987.920973 
L 333.588749 152.385522 
L 330.044523 152.385522 
z
" clip-path="url(#p499cb8cca5)" style="fill: #3366cc; opacity: 0.7"/>
   </g>
   <g id="patch_63">
    <path d="M 334.474806 60987.920973 
L 338.019033 60987.920973 
L 338.019033 152.413597 
L 334.474806 152.413597 
z
" clip-path="url(#p499cb8cca5)" style="fill: #3366cc; opacity: 0.7"/>
   </g>
   <g id="patch_64">
    <path d="M 338.905089 60987.920973 
L 342.449316 60987.920973 
L 342.449316 151.991824 
L 338.905089 151.991824 
z
" clip-path="url(#p499cb8cca5)" style="fill: #3366cc; opacity: 0.7"/>
   </g>
   <g id="patch_65">
    <path d="M 343.335372 60987.920973 
L 346.879599 60987.920973 
L 346.879599 149.953576 
L 343.335372 149.953576 
z
" clip-path="url(#p499cb8cca5)" style="fill: #3366cc; opacity: 0.7"/>
   </g>
   <g id="patch_66">
    <path d="M 347.765656 60987.920973 
L 351.309882 60987.920973 
L 351.309882 147.493849 
L 347.765656 147.493849 
z
" clip-path="url(#p499cb8cca5)" style="fill: #3366cc; opacity: 0.7"/>
   </g>
   <g id="patch_67">
    <path d="M 352.195939 60987.920973 
L 355.740165 60987.920973 
L 355.740165 147.39109 
L 352.195939 147.39109 
z
" clip-path="url(#p499cb8cca5)" style="fill: #3366cc; opacity: 0.7"/>
   </g>
   <g id="patch_68">
    <path d="M 356.626222 60987.920973 
L 360.170449 60987.920973 
L 360.170449 147.323398 
L 356.626222 147.323398 
z
" clip-path="url(#p499cb8cca5)" style="fill: #3366cc; opacity: 0.7"/>
   </g>
   <g id="patch_69">
    <path d="M 361.056505 60987.920973 
L 364.600732 60987.920973 
L 364.600732 148.529193 
L 361.056505 148.529193 
z
" clip-path="url(#p499cb8cca5)" style="fill: #3366cc; opacity: 0.7"/>
   </g>
   <g id="patch_70">
    <path d="M 365.486789 60987.920973 
L 369.031015 60987.920973 
L 369.031015 148.413861 
L 365.486789 148.413861 
z
" clip-path="url(#p499cb8cca5)" style="fill: #3366cc; opacity: 0.7"/>
   </g>
   <g id="patch_71">
    <path d="M 369.917072 60987.920973 
L 373.461298 60987.920973 
L 373.461298 147.797867 
L 369.917072 147.797867 
z
" clip-path="url(#p499cb8cca5)" style="fill: #3366cc; opacity: 0.7"/>
   </g>
   <g id="patch_72">
    <path d="M 374.347355 60987.920973 
L 377.891582 60987.920973 
L 377.891582 145.526874 
L 374.347355 145.526874 
z
" clip-path="url(#p499cb8cca5)" style="fill: #3366cc; opacity: 0.7"/>
   </g>
   <g id="patch_73">
    <path d="M 378.777638 60987.920973 
L 382.321865 60987.920973 
L 382.321865 147.274998 
L 378.777638 147.274998 
z
" clip-path="url(#p499cb8cca5)" style="fill: #3366cc; opacity: 0.7"/>
   </g>
   <g id="patch_74">
    <path d="M 383.207921 60987.920973 
L 386.752148 60987.920973 
L 386.752148 148.18424 
L 383.207921 148.18424 
z
" clip-path="url(#p499cb8cca5)" style="fill: #3366cc; opacity: 0.7"/>
   </g>
   <g id="patch_75">
    <path d="M 387.638205 60987.920973 
L 391.182431 60987.920973 
L 391.182431 148.127635 
L 387.638205 148.127635 
z
" clip-path="url(#p499cb8cca5)" style="fill: #3366cc; opacity: 0.7"/>
   </g>
   <g id="patch_76">
    <path d="M 392.068488 60987.920973 
L 395.612714 60987.920973 
L 395.612714 147.632492 
L 392.068488 147.632492 
z
" clip-path="url(#p499cb8cca5)" style="fill: #3366cc; opacity: 0.7"/>
   </g>
   <g id="patch_77">
    <path d="M 396.498771 60987.920973 
L 400.042998 60987.920973 
L 400.042998 146.678687 
L 396.498771 146.678687 
z
" clip-path="url(#p499cb8cca5)" style="fill: #3366cc; opacity: 0.7"/>
   </g>
   <g id="patch_78">
    <path d="M 400.929054 60987.920973 
L 404.473281 60987.920973 
L 404.473281 145.783388 
L 400.929054 145.783388 
z
" clip-path="url(#p499cb8cca5)" style="fill: #3366cc; opacity: 0.7"/>
   </g>
   <g id="patch_79">
    <path d="M 405.359338 60987.920973 
L 408.903564 60987.920973 
L 408.903564 145.551756 
L 405.359338 145.551756 
z
" clip-path="url(#p499cb8cca5)" style="fill: #3366cc; opacity: 0.7"/>
   </g>
   <g id="patch_80">
    <path d="M 409.789621 60987.920973 
L 413.333847 60987.920973 
L 413.333847 145.202575 
L 409.789621 145.202575 
z
" clip-path="url(#p499cb8cca5)" style="fill: #3366cc; opacity: 0.7"/>
   </g>
   <g id="patch_81">
    <path d="M 414.219904 60987.920973 
L 417.764131 60987.920973 
L 417.764131 145.542648 
L 414.219904 145.542648 
z
" clip-path="url(#p499cb8cca5)" style="fill: #3366cc; opacity: 0.7"/>
   </g>
   <g id="patch_82">
    <path d="M 418.650187 60987.920973 
L 422.194414 60987.920973 
L 422.194414 145.272522 
L 418.650187 145.272522 
z
" clip-path="url(#p499cb8cca5)" style="fill: #3366cc; opacity: 0.7"/>
   </g>
   <g id="patch_83">
    <path d="M 423.08047 60987.920973 
L 426.624697 60987.920973 
L 426.624697 145.455666 
L 423.08047 145.455666 
z
" clip-path="url(#p499cb8cca5)" style="fill: #3366cc; opacity: 0.7"/>
   </g>
   <g id="patch_84">
    <path d="M 427.510754 60987.920973 
L 431.05498 60987.920973 
L 431.05498 146.176554 
L 427.510754 146.176554 
z
" clip-path="url(#p499cb8cca5)" style="fill: #3366cc; opacity: 0.7"/>
   </g>
   <g id="patch_85">
    <path d="M 431.941037 60987.920973 
L 435.485263 60987.920973 
L 435.485263 142.961873 
L 431.941037 142.961873 
z
" clip-path="url(#p499cb8cca5)" style="fill: #3366cc; opacity: 0.7"/>
   </g>
   <g id="patch_86">
    <path d="M 436.37132 60987.920973 
L 439.915547 60987.920973 
L 439.915547 144.696236 
L 436.37132 144.696236 
z
" clip-path="url(#p499cb8cca5)" style="fill: #3366cc; opacity: 0.7"/>
   </g>
   <g id="patch_87">
    <path d="M 440.801603 60987.920973 
L 444.34583 60987.920973 
L 444.34583 145.364377 
L 440.801603 145.364377 
z
" clip-path="url(#p499cb8cca5)" style="fill: #3366cc; opacity: 0.7"/>
   </g>
   <g id="patch_88">
    <path d="M 445.231887 60987.920973 
L 448.776113 60987.920973 
L 448.776113 145.729603 
L 445.231887 145.729603 
z
" clip-path="url(#p499cb8cca5)" style="fill: #3366cc; opacity: 0.7"/>
   </g>
   <g id="patch_89">
    <path d="M 449.66217 60987.920973 
L 453.206396 60987.920973 
L 453.206396 145.835175 
L 449.66217 145.835175 
z
" clip-path="url(#p499cb8cca5)" style="fill: #3366cc; opacity: 0.7"/>
   </g>
   <g id="patch_90">
    <path d="M 454.092453 60987.920973 
L 457.63668 60987.920973 
L 457.63668 144.340277 
L 454.092453 144.340277 
z
" clip-path="url(#p499cb8cca5)" style="fill: #3366cc; opacity: 0.7"/>
   </g>
   <g id="patch_91">
    <path d="M 458.522736 60987.920973 
L 462.066963 60987.920973 
L 462.066963 143.55569 
L 458.522736 143.55569 
z
" clip-path="url(#p499cb8cca5)" style="fill: #3366cc; opacity: 0.7"/>
   </g>
   <g id="patch_92">
    <path d="M 462.953019 60987.920973 
L 466.497246 60987.920973 
L 466.497246 143.057743 
L 462.953019 143.057743 
z
" clip-path="url(#p499cb8cca5)" style="fill: #3366cc; opacity: 0.7"/>
   </g>
   <g id="patch_93">
    <path d="M 467.383303 60987.920973 
L 470.927529 60987.920973 
L 470.927529 144.286884 
L 467.383303 144.286884 
z
" clip-path="url(#p499cb8cca5)" style="fill: #3366cc; opacity: 0.7"/>
   </g>
   <g id="patch_94">
    <path d="M 471.813586 60987.920973 
L 475.357812 60987.920973 
L 475.357812 144.459481 
L 471.813586 144.459481 
z
" clip-path="url(#p499cb8cca5)" style="fill: #3366cc; opacity: 0.7"/>
   </g>
   <g id="patch_95">
    <path d="M 48.322812 159.45811 
L 48.322812 25.158281 
" style="fill: none; stroke: #000000; stroke-width: 0.6; stroke-linejoin: miter; stroke-linecap: square"/>
   </g>
   <g id="patch_96">
    <path d="M 48.322812 159.45811 
L 495.692812 159.45811 
" style="fill: none; stroke: #000000; stroke-width: 0.6; stroke-linejoin: miter; stroke-linecap: square"/>
   </g>
   <g id="line2d_27">
    <path d="M 70.429926 67.957799 
L 74.860209 67.957799 
L 79.290492 67.957799 
L 83.720775 67.957799 
L 88.151059 67.957799 
L 92.581342 67.957799 
L 97.011625 67.957799 
L 101.441908 67.957799 
L 105.872192 67.957799 
L 110.302475 31.262819 
L 114.732758 31.262819 
L 119.163041 31.262819 
L 123.593324 31.262819 
L 128.023608 31.262819 
L 132.453891 31.262819 
L 136.884174 31.262819 
L 141.314457 31.262819 
L 145.744741 31.262819 
L 150.175024 31.262819 
L 154.605307 31.262819 
L 159.03559 31.262819 
L 163.465874 31.262819 
L 167.896157 31.262819 
L 172.32644 31.262819 
L 176.756723 31.262819 
L 181.187006 31.262819 
L 185.61729 31.262819 
L 190.047573 31.262819 
L 194.477856 31.262819 
L 198.908139 31.262819 
L 203.338423 31.262819 
L 207.768706 31.262819 
L 212.198989 31.262819 
L 216.629272 31.262819 
L 221.059555 31.262819 
L 225.489839 31.262819 
L 229.920122 31.262819 
L 234.350405 31.262819 
L 238.780688 31.262819 
L 243.210972 31.262819 
L 247.641255 31.262819 
L 252.071538 31.262819 
L 256.501821 31.262819 
L 260.932104 31.262819 
L 265.362388 31.262819 
L 269.792671 31.262819 
L 274.222954 31.262819 
L 278.653237 31.262819 
L 283.083521 31.262819 
L 287.513804 31.262819 
L 291.944087 31.262819 
L 296.37437 31.262819 
L 300.804653 31.262819 
L 305.234937 31.262819 
L 309.66522 31.262819 
L 314.095503 31.262819 
L 318.525786 31.262819 
L 322.95607 31.262819 
L 327.386353 31.262819 
L 331.816636 31.262819 
L 336.246919 31.262819 
L 340.677202 31.262819 
L 345.107486 31.262819 
L 349.537769 31.262819 
L 353.968052 31.262819 
L 358.398335 31.262819 
L 362.828619 31.262819 
L 367.258902 31.262819 
L 371.689185 31.262819 
L 376.119468 31.262819 
L 380.549751 31.262819 
L 384.980035 31.262819 
L 389.410318 31.262819 
L 393.840601 31.262819 
L 398.270884 31.262819 
L 402.701168 31.262819 
L 407.131451 31.262819 
L 411.561734 31.262819 
L 415.992017 31.262819 
L 420.422301 31.262819 
L 424.852584 31.262819 
L 429.282867 31.262819 
L 433.71315 31.262819 
L 438.143433 31.262819 
L 442.573717 31.262819 
L 447.004 31.262819 
L 451.434283 31.262819 
L 455.864566 31.262819 
L 460.29485 31.262819 
L 464.725133 31.262819 
L 469.155416 31.262819 
L 473.585699 31.262819 
" clip-path="url(#p499cb8cca5)" style="fill: none; stroke-dasharray: 3.7,1.6; stroke-dashoffset: 0; stroke: #999999"/>
   </g>
   <g id="text_7">
    <!-- Celestia — Throughput (MiB/s) -->
    <g transform="translate(185.285703 19.158281) scale(0.11 -0.11)">
     <defs>
      <path id="DejaVuSerif-43" d="M 4513 1234 
Q 4306 581 3820 245 
Q 3334 -91 2591 -91 
Q 2134 -91 1743 65 
Q 1353 222 1050 525 
Q 700 875 529 1320 
Q 359 1766 359 2328 
Q 359 3416 987 4083 
Q 1616 4750 2644 4750 
Q 3025 4750 3456 4650 
Q 3888 4550 4384 4347 
L 4384 3272 
L 4031 3272 
Q 3916 3859 3567 4137 
Q 3219 4416 2591 4416 
Q 1844 4416 1459 3886 
Q 1075 3356 1075 2328 
Q 1075 1303 1459 773 
Q 1844 244 2591 244 
Q 3113 244 3450 492 
Q 3788 741 3938 1234 
L 4513 1234 
z
" transform="scale(0.015625)"/>
      <path id="DejaVuSerif-6c" d="M 1313 331 
L 1856 331 
L 1856 0 
L 184 0 
L 184 331 
L 738 331 
L 738 4531 
L 184 4531 
L 184 4863 
L 1313 4863 
L 1313 331 
z
" transform="scale(0.015625)"/>
      <path id="DejaVuSerif-74" d="M 691 2988 
L 184 2988 
L 184 3322 
L 691 3322 
L 691 4353 
L 1269 4353 
L 1269 3322 
L 2350 3322 
L 2350 2988 
L 1269 2988 
L 1269 878 
Q 1269 456 1350 337 
Q 1431 219 1650 219 
Q 1875 219 1978 351 
Q 2081 484 2088 781 
L 2522 781 
Q 2497 328 2275 118 
Q 2053 -91 1600 -91 
Q 1103 -91 897 129 
Q 691 350 691 878 
L 691 2988 
z
" transform="scale(0.015625)"/>
      <path id="DejaVuSerif-2014" d="M 281 1906 
L 6119 1906 
L 6119 1491 
L 281 1491 
L 281 1906 
z
" transform="scale(0.015625)"/>
      <path id="DejaVuSerif-54" d="M 1222 0 
L 1222 331 
L 1819 331 
L 1819 4294 
L 447 4294 
L 447 3566 
L 63 3566 
L 63 4666 
L 4206 4666 
L 4206 3566 
L 3822 3566 
L 3822 4294 
L 2450 4294 
L 2450 331 
L 3047 331 
L 3047 0 
L 1222 0 
z
" transform="scale(0.015625)"/>
      <path id="DejaVuSerif-68" d="M 263 0 
L 263 331 
L 781 331 
L 781 4531 
L 231 4531 
L 231 4863 
L 1356 4863 
L 1356 2731 
Q 1516 3069 1770 3241 
Q 2025 3413 2363 3413 
Q 2913 3413 3172 3097 
Q 3431 2781 3431 2113 
L 3431 331 
L 3944 331 
L 3944 0 
L 2356 0 
L 2356 331 
L 2853 331 
L 2853 1931 
Q 2853 2541 2704 2764 
Q 2556 2988 2175 2988 
Q 1775 2988 1565 2697 
Q 1356 2406 1356 1850 
L 1356 331 
L 1856 331 
L 1856 0 
L 263 0 
z
" transform="scale(0.015625)"/>
      <path id="DejaVuSerif-72" d="M 3059 3328 
L 3059 2497 
L 2728 2497 
Q 2713 2744 2591 2866 
Q 2469 2988 2234 2988 
Q 1809 2988 1582 2694 
Q 1356 2400 1356 1850 
L 1356 331 
L 2022 331 
L 2022 0 
L 263 0 
L 263 331 
L 781 331 
L 781 2994 
L 231 2994 
L 231 3322 
L 1356 3322 
L 1356 2731 
Q 1525 3078 1790 3245 
Q 2056 3413 2438 3413 
Q 2578 3413 2733 3391 
Q 2888 3369 3059 3328 
z
" transform="scale(0.015625)"/>
      <path id="DejaVuSerif-6f" d="M 1925 219 
Q 2388 219 2623 584 
Q 2859 950 2859 1663 
Q 2859 2375 2623 2739 
Q 2388 3103 1925 3103 
Q 1463 3103 1227 2739 
Q 991 2375 991 1663 
Q 991 950 1228 584 
Q 1466 219 1925 219 
z
M 1925 -91 
Q 1200 -91 759 389 
Q 319 869 319 1663 
Q 319 2456 758 2934 
Q 1197 3413 1925 3413 
Q 2653 3413 3092 2934 
Q 3531 2456 3531 1663 
Q 3531 869 3092 389 
Q 2653 -91 1925 -91 
z
" transform="scale(0.015625)"/>
      <path id="DejaVuSerif-75" d="M 2266 3322 
L 3341 3322 
L 3341 331 
L 3884 331 
L 3884 0 
L 2766 0 
L 2766 588 
Q 2606 256 2353 82 
Q 2100 -91 1766 -91 
Q 1213 -91 952 223 
Q 691 538 691 1209 
L 691 2988 
L 172 2988 
L 172 3322 
L 1269 3322 
L 1269 1388 
Q 1269 781 1417 556 
Q 1566 331 1947 331 
Q 2347 331 2556 625 
Q 2766 919 2766 1478 
L 2766 2988 
L 2266 2988 
L 2266 3322 
z
" transform="scale(0.015625)"/>
      <path id="DejaVuSerif-67" d="M 3359 2988 
L 3359 72 
Q 3359 -644 2965 -1033 
Q 2572 -1422 1844 -1422 
Q 1516 -1422 1216 -1362 
Q 916 -1303 641 -1184 
L 641 -488 
L 941 -488 
Q 997 -813 1206 -963 
Q 1416 -1113 1806 -1113 
Q 2313 -1113 2548 -827 
Q 2784 -541 2784 72 
L 2784 519 
Q 2616 206 2355 57 
Q 2094 -91 1709 -91 
Q 1097 -91 708 395 
Q 319 881 319 1663 
Q 319 2444 706 2928 
Q 1094 3413 1709 3413 
Q 2094 3413 2355 3264 
Q 2616 3116 2784 2803 
L 2784 3322 
L 3909 3322 
L 3909 2988 
L 3359 2988 
z
M 2784 1825 
Q 2784 2422 2554 2737 
Q 2325 3053 1888 3053 
Q 1444 3053 1217 2703 
Q 991 2353 991 1663 
Q 991 975 1217 622 
Q 1444 269 1888 269 
Q 2325 269 2554 583 
Q 2784 897 2784 1497 
L 2784 1825 
z
" transform="scale(0.015625)"/>
      <path id="DejaVuSerif-70" d="M 1313 1825 
L 1313 1497 
Q 1313 897 1542 583 
Q 1772 269 2209 269 
Q 2650 269 2876 622 
Q 3103 975 3103 1663 
Q 3103 2353 2876 2703 
Q 2650 3053 2209 3053 
Q 1772 3053 1542 2737 
Q 1313 2422 1313 1825 
z
M 738 2988 
L 184 2988 
L 184 3322 
L 1313 3322 
L 1313 2803 
Q 1481 3116 1742 3264 
Q 2003 3413 2388 3413 
Q 3000 3413 3387 2928 
Q 3775 2444 3775 1663 
Q 3775 881 3387 395 
Q 3000 -91 2388 -91 
Q 2003 -91 1742 57 
Q 1481 206 1313 519 
L 1313 -997 
L 1856 -997 
L 1856 -1331 
L 184 -1331 
L 184 -997 
L 738 -997 
L 738 2988 
z
" transform="scale(0.015625)"/>
      <path id="DejaVuSerif-28" d="M 2041 -997 
Q 1281 -656 893 83 
Q 506 822 506 1931 
Q 506 3044 893 3783 
Q 1281 4522 2041 4863 
L 2041 4556 
Q 1559 4225 1350 3623 
Q 1141 3022 1141 1931 
Q 1141 844 1350 242 
Q 1559 -359 2041 -691 
L 2041 -997 
z
" transform="scale(0.015625)"/>
      <path id="DejaVuSerif-29" d="M 453 -997 
L 453 -691 
Q 934 -359 1145 242 
Q 1356 844 1356 1931 
Q 1356 3022 1145 3623 
Q 934 4225 453 4556 
L 453 4863 
Q 1216 4522 1603 3783 
Q 1991 3044 1991 1931 
Q 1991 822 1603 83 
Q 1216 -656 453 -997 
z
" transform="scale(0.015625)"/>
     </defs>
     <use xlink:href="#DejaVuSerif-43"/>
     <use xlink:href="#DejaVuSerif-65" transform="translate(76.513672 0)"/>
     <use xlink:href="#DejaVuSerif-6c" transform="translate(135.693359 0)"/>
     <use xlink:href="#DejaVuSerif-65" transform="translate(167.675781 0)"/>
     <use xlink:href="#DejaVuSerif-73" transform="translate(226.855469 0)"/>
     <use xlink:href="#DejaVuSerif-74" transform="translate(278.173828 0)"/>
     <use xlink:href="#DejaVuSerif-69" transform="translate(318.359375 0)"/>
     <use xlink:href="#DejaVuSerif-61" transform="translate(350.341797 0)"/>
     <use xlink:href="#DejaVuSerif-20" transform="translate(409.960938 0)"/>
     <use xlink:href="#DejaVuSerif-2014" transform="translate(441.748047 0)"/>
     <use xlink:href="#DejaVuSerif-20" transform="translate(541.748047 0)"/>
     <use xlink:href="#DejaVuSerif-54" transform="translate(573.535156 0)"/>
     <use xlink:href="#DejaVuSerif-68" transform="translate(640.234375 0)"/>
     <use xlink:href="#DejaVuSerif-72" transform="translate(704.638672 0)"/>
     <use xlink:href="#DejaVuSerif-6f" transform="translate(752.441406 0)"/>
     <use xlink:href="#DejaVuSerif-75" transform="translate(812.646484 0)"/>
     <use xlink:href="#DejaVuSerif-67" transform="translate(877.050781 0)"/>
     <use xlink:href="#DejaVuSerif-68" transform="translate(941.064453 0)"/>
     <use xlink:href="#DejaVuSerif-70" transform="translate(1005.46875 0)"/>
     <use xlink:href="#DejaVuSerif-75" transform="translate(1069.482422 0)"/>
     <use xlink:href="#DejaVuSerif-74" transform="translate(1133.886719 0)"/>
     <use xlink:href="#DejaVuSerif-20" transform="translate(1174.072266 0)"/>
     <use xlink:href="#DejaVuSerif-28" transform="translate(1205.859375 0)"/>
     <use xlink:href="#DejaVuSerif-4d" transform="translate(1244.873047 0)"/>
     <use xlink:href="#DejaVuSerif-69" transform="translate(1347.265625 0)"/>
     <use xlink:href="#DejaVuSerif-42" transform="translate(1379.248047 0)"/>
     <use xlink:href="#DejaVuSerif-2f" transform="translate(1452.734375 0)"/>
     <use xlink:href="#DejaVuSerif-73" transform="translate(1486.425781 0)"/>
     <use xlink:href="#DejaVuSerif-29" transform="translate(1537.744141 0)"/>
    </g>
   </g>
   <g id="line2d_28">
    <path d="M 70.429926 148.653157 
L 74.860209 148.93723 
L 79.290492 148.102082 
L 83.720775 146.809904 
L 88.151059 145.943752 
L 92.581342 144.489471 
L 97.011625 143.413802 
L 101.441908 143.299414 
L 105.872192 142.929794 
L 110.302475 143.106582 
L 114.732758 143.552766 
L 119.163041 144.389854 
L 123.593324 146.376894 
L 128.023608 148.697821 
L 132.453891 149.363846 
L 136.884174 150.279464 
L 141.314457 150.727455 
L 145.744741 151.596259 
L 150.175024 152.108116 
L 154.605307 152.191201 
L 159.03559 152.124133 
L 163.465874 152.207381 
L 167.896157 152.188314 
L 172.32644 150.830152 
L 176.756723 150.770768 
L 181.187006 150.688829 
L 185.61729 150.661637 
L 190.047573 150.842276 
L 194.477856 150.848892 
L 198.908139 150.991302 
L 203.338423 145.338339 
L 207.768706 95.020595 
L 212.198989 72.534655 
L 216.629272 60.063794 
L 221.059555 51.609156 
L 225.489839 45.248937 
L 229.920122 43.086378 
L 234.350405 43.211613 
L 238.780688 46.587369 
L 243.210972 52.975169 
L 247.641255 61.926455 
L 252.071538 75.573855 
L 256.501821 104.933762 
L 260.932104 148.488315 
L 265.362388 148.387661 
L 269.792671 148.475959 
L 274.222954 148.400646 
L 278.653237 148.263689 
L 283.083521 148.181551 
L 287.513804 148.16979 
L 291.944087 148.084752 
L 296.37437 144.88644 
L 300.804653 144.863616 
L 305.234937 144.812316 
L 309.66522 144.919076 
L 314.095503 145.368405 
L 318.525786 145.73233 
L 322.95607 146.198045 
L 327.386353 150.073336 
L 331.816636 150.688253 
L 336.246919 151.389998 
L 340.677202 151.948481 
L 345.107486 151.700673 
L 349.537769 151.09118 
L 353.968052 150.4358 
L 358.398335 149.754461 
L 362.828619 149.222892 
L 367.258902 148.681689 
L 371.689185 148.114905 
L 376.119468 147.480421 
L 380.549751 147.449062 
L 384.980035 147.56117 
L 389.410318 147.675601 
L 393.840601 147.549741 
L 398.270884 147.302936 
L 402.701168 147.011073 
L 407.131451 147.014831 
L 411.561734 146.711628 
L 415.992017 146.338897 
L 420.422301 145.939386 
L 424.852584 145.637082 
L 429.282867 145.56755 
L 433.71315 145.14899 
L 438.143433 145.026934 
L 442.573717 145.049836 
L 447.004 145.075972 
L 451.434283 145.155032 
L 455.864566 144.994611 
L 460.29485 144.620877 
L 464.725133 144.635436 
L 469.155416 144.576703 
L 473.585699 144.44936 
" clip-path="url(#p499cb8cca5)" style="fill: none; stroke: #cc3333; stroke-width: 1.5; stroke-linecap: square"/>
   </g>
   <g id="legend_1">
    <g id="patch_97">
     <path d="M 410.562813 67.013281 
L 490.092812 67.013281 
Q 491.692812 67.013281 491.692812 65.413281 
L 491.692812 30.758281 
Q 491.692812 29.158281 490.092812 29.158281 
L 410.562813 29.158281 
Q 408.962812 29.158281 408.962812 30.758281 
L 408.962812 65.413281 
Q 408.962812 67.013281 410.562813 67.013281 
z
" style="fill: #ffffff; opacity: 0.9; stroke: #cccccc; stroke-linejoin: miter"/>
    </g>
    <g id="line2d_29">
     <path d="M 412.162812 35.637031 
L 420.162812 35.637031 
L 428.162812 35.637031 
" style="fill: none; stroke: #cc3333; stroke-width: 1.5; stroke-linecap: square"/>
    </g>
    <g id="text_8">
     <!-- 7d avg -->
     <g transform="translate(434.562812 38.437031) scale(0.08 -0.08)">
      <defs>
       <path id="DejaVuSerif-37" d="M 3609 4347 
L 1784 0 
L 1319 0 
L 3059 4153 
L 903 4153 
L 903 3578 
L 538 3578 
L 538 4666 
L 3609 4666 
L 3609 4347 
z
" transform="scale(0.015625)"/>
       <path id="DejaVuSerif-64" d="M 3359 331 
L 3909 331 
L 3909 0 
L 2784 0 
L 2784 519 
Q 2616 206 2355 57 
Q 2094 -91 1709 -91 
Q 1097 -91 708 395 
Q 319 881 319 1663 
Q 319 2444 706 2928 
Q 1094 3413 1709 3413 
Q 2094 3413 2355 3264 
Q 2616 3116 2784 2803 
L 2784 4531 
L 2241 4531 
L 2241 4863 
L 3359 4863 
L 3359 331 
z
M 2784 1497 
L 2784 1825 
Q 2784 2422 2554 2737 
Q 2325 3053 1888 3053 
Q 1444 3053 1217 2703 
Q 991 2353 991 1663 
Q 991 975 1217 622 
Q 1444 269 1888 269 
Q 2325 269 2554 583 
Q 2784 897 2784 1497 
z
" transform="scale(0.015625)"/>
       <path id="DejaVuSerif-76" d="M 1581 0 
L 359 2988 
L -19 2988 
L -19 3322 
L 1509 3322 
L 1509 2988 
L 978 2988 
L 1913 703 
L 2847 2988 
L 2350 2988 
L 2350 3322 
L 3597 3322 
L 3597 2988 
L 3225 2988 
L 2003 0 
L 1581 0 
z
" transform="scale(0.015625)"/>
      </defs>
      <use xlink:href="#DejaVuSerif-37"/>
      <use xlink:href="#DejaVuSerif-64" transform="translate(63.623047 0)"/>
      <use xlink:href="#DejaVuSerif-20" transform="translate(127.636719 0)"/>
      <use xlink:href="#DejaVuSerif-61" transform="translate(159.423828 0)"/>
      <use xlink:href="#DejaVuSerif-76" transform="translate(219.042969 0)"/>
      <use xlink:href="#DejaVuSerif-67" transform="translate(275.537109 0)"/>
     </g>
    </g>
    <g id="line2d_30">
     <path d="M 412.162812 47.493281 
L 420.162812 47.493281 
L 428.162812 47.493281 
" style="fill: none; stroke-dasharray: 3.7,1.6; stroke-dashoffset: 0; stroke: #999999"/>
    </g>
    <g id="text_9">
     <!-- Max capacity -->
     <g transform="translate(434.562812 50.293281) scale(0.08 -0.08)">
      <defs>
       <path id="DejaVuSerif-78" d="M 1863 2028 
L 2559 2988 
L 2113 2988 
L 2113 3322 
L 3391 3322 
L 3391 2988 
L 2950 2988 
L 2059 1759 
L 3097 331 
L 3531 331 
L 3531 0 
L 1997 0 
L 1997 331 
L 2419 331 
L 1697 1325 
L 972 331 
L 1403 331 
L 1403 0 
L 141 0 
L 141 331 
L 581 331 
L 1497 1594 
L 488 2988 
L 78 2988 
L 78 3322 
L 1563 3322 
L 1563 2988 
L 1166 2988 
L 1863 2028 
z
" transform="scale(0.015625)"/>
       <path id="DejaVuSerif-79" d="M 1381 -609 
L 1600 -56 
L 359 2988 
L -19 2988 
L -19 3322 
L 1509 3322 
L 1509 2988 
L 978 2988 
L 1913 703 
L 2847 2988 
L 2350 2988 
L 2350 3322 
L 3597 3322 
L 3597 2988 
L 3225 2988 
L 1703 -750 
Q 1547 -1138 1356 -1280 
Q 1166 -1422 819 -1422 
Q 672 -1422 517 -1397 
Q 363 -1372 206 -1325 
L 206 -691 
L 500 -691 
Q 519 -903 608 -995 
Q 697 -1088 884 -1088 
Q 1056 -1088 1161 -992 
Q 1266 -897 1381 -609 
z
" transform="scale(0.015625)"/>
      </defs>
      <use xlink:href="#DejaVuSerif-4d"/>
      <use xlink:href="#DejaVuSerif-61" transform="translate(102.392578 0)"/>
      <use xlink:href="#DejaVuSerif-78" transform="translate(162.011719 0)"/>
      <use xlink:href="#DejaVuSerif-20" transform="translate(218.408203 0)"/>
      <use xlink:href="#DejaVuSerif-63" transform="translate(250.195312 0)"/>
      <use xlink:href="#DejaVuSerif-61" transform="translate(306.201172 0)"/>
      <use xlink:href="#DejaVuSerif-70" transform="translate(365.820312 0)"/>
      <use xlink:href="#DejaVuSerif-61" transform="translate(429.833984 0)"/>
      <use xlink:href="#DejaVuSerif-63" transform="translate(489.453125 0)"/>
      <use xlink:href="#DejaVuSerif-69" transform="translate(545.458984 0)"/>
      <use xlink:href="#DejaVuSerif-74" transform="translate(577.441406 0)"/>
      <use xlink:href="#DejaVuSerif-79" transform="translate(617.626953 0)"/>
     </g>
    </g>
    <g id="patch_98">
     <path d="M 412.162812 62.149531 
L 428.162812 62.149531 
L 428.162812 56.549531 
L 412.162812 56.549531 
z
" style="fill: #3366cc; opacity: 0.7"/>
    </g>
    <g id="text_10">
     <!-- Actual -->
     <g transform="translate(434.562812 62.149531) scale(0.08 -0.08)">
      <defs>
       <path id="DejaVuSerif-41" d="M 1281 1691 
L 2994 1691 
L 2138 3909 
L 1281 1691 
z
M -38 0 
L -38 331 
L 372 331 
L 2034 4666 
L 2559 4666 
L 4225 331 
L 4684 331 
L 4684 0 
L 2988 0 
L 2988 331 
L 3506 331 
L 3116 1356 
L 1153 1356 
L 763 331 
L 1275 331 
L 1275 0 
L -38 0 
z
" transform="scale(0.015625)"/>
      </defs>
      <use xlink:href="#DejaVuSerif-41"/>
      <use xlink:href="#DejaVuSerif-63" transform="translate(72.216797 0)"/>
      <use xlink:href="#DejaVuSerif-74" transform="translate(128.222656 0)"/>
      <use xlink:href="#DejaVuSerif-75" transform="translate(168.408203 0)"/>
      <use xlink:href="#DejaVuSerif-61" transform="translate(232.8125 0)"/>
      <use xlink:href="#DejaVuSerif-6c" transform="translate(292.431641 0)"/>
     </g>
    </g>
   </g>
  </g>
 </g>
 <defs>
  <clipPath id="p499cb8cca5">
   <rect x="48.322812" y="25.158281" width="447.37" height="134.299829"/>
  </clipPath>
 </defs>
</svg>
