<?xml version="1.0" encoding="utf-8" standalone="no"?>
<!DOCTYPE svg PUBLIC "-//W3C//DTD SVG 1.1//EN"
  "http://www.w3.org/Graphics/SVG/1.1/DTD/svg11.dtd">
<svg xmlns:xlink="http://www.w3.org/1999/xlink" width="506.470313pt" height="203.307687pt" viewBox="0 0 506.470313 203.307687" xmlns="http://www.w3.org/2000/svg" version="1.1">
 <metadata>
  <rdf:RDF xmlns:dc="http://purl.org/dc/elements/1.1/" xmlns:cc="http://creativecommons.org/ns#" xmlns:rdf="http://www.w3.org/1999/02/22-rdf-syntax-ns#">
   <cc:Work>
    <dc:type rdf:resource="http://purl.org/dc/dcmitype/StillImage"/>
    <dc:date>2026-02-16T14:45:32.437000</dc:date>
    <dc:format>image/svg+xml</dc:format>
    <dc:creator>
     <cc:Agent>
      <dc:title>Matplotlib v3.10.8, https://matplotlib.org/</dc:title>
     </cc:Agent>
    </dc:creator>
   </cc:Work>
  </rdf:RDF>
 </metadata>
 <defs>
  <style type="text/css">*{stroke-linejoin: round; stroke-linecap: butt}</style>
 </defs>
 <g id="figure_1">
  <g id="patch_1">
   <path d="M 0 203.307687 
L 506.470313 203.307687 
L 506.470313 0 
L 0 0 
z
" style="fill: #ffffff"/>
  </g>
  <g id="axes_1">
   <g id="patch_2">
    <path d="M 45.780313 159.53686 
L 495.670313 159.53686 
L 495.670313 25.158281 
L 45.780313 25.158281 
z
" style="fill: #ffffff"/>
   </g>
   <g id="FillBetweenPolyCollection_1">
    <defs>
     <path id="m188ebc4c2d" d="M 66.229858 -51.277357 
L 66.229858 -49.878944 
L 70.724264 -49.878944 
L 75.218669 -49.878944 
L 79.713075 -49.878944 
L 84.20748 -49.878944 
L 88.701886 -49.878944 
L 93.196292 -49.878944 
L 97.690697 -49.878944 
L 102.185103 -49.878944 
L 106.679508 -49.878944 
L 111.173914 -49.878944 
L 115.668319 -49.878944 
L 120.162725 -49.878944 
L 124.657131 -49.878944 
L 129.151536 -49.878944 
L 133.645942 -49.878944 
L 138.140347 -49.878944 
L 142.634753 -49.878944 
L 147.129159 -49.878944 
L 151.623564 -49.878944 
L 156.11797 -49.878944 
L 160.612375 -49.878944 
L 165.106781 -49.878944 
L 169.601187 -49.878944 
L 174.095592 -49.878944 
L 178.589998 -49.878944 
L 183.084403 -49.878944 
L 187.578809 -49.878944 
L 192.073215 -49.878944 
L 196.56762 -49.878944 
L 201.062026 -49.878944 
L 205.556431 -49.878944 
L 210.050837 -49.878944 
L 214.545243 -49.878944 
L 219.039648 -49.878944 
L 223.534054 -49.878944 
L 228.028459 -49.878944 
L 232.522865 -49.878944 
L 237.017271 -49.878944 
L 241.511676 -49.878944 
L 246.006082 -49.878944 
L 250.500487 -49.878944 
L 254.994893 -49.878944 
L 259.489299 -49.878944 
L 263.983704 -49.878944 
L 268.47811 -49.878944 
L 272.972515 -49.878944 
L 277.466921 -49.878944 
L 281.961326 -49.878944 
L 286.455732 -49.878944 
L 290.950138 -49.878944 
L 295.444543 -49.878944 
L 299.938949 -49.878944 
L 304.433354 -49.878944 
L 308.92776 -49.878944 
L 313.422166 -49.878944 
L 317.916571 -49.878944 
L 322.410977 -49.878944 
L 326.905382 -49.878944 
L 331.399788 -49.878944 
L 335.894194 -49.878944 
L 340.388599 -49.878944 
L 344.883005 -49.878944 
L 349.37741 -49.878944 
L 353.871816 -49.878944 
L 358.366222 -49.878944 
L 362.860627 -49.878944 
L 367.355033 -49.878944 
L 371.849438 -49.878944 
L 376.343844 -49.878944 
L 380.83825 -49.878944 
L 385.332655 -49.878944 
L 389.827061 -49.878944 
L 394.321466 -49.878944 
L 398.815872 -49.878944 
L 403.310278 -49.878944 
L 407.804683 -49.878944 
L 412.299089 -49.878944 
L 416.793494 -49.878944 
L 421.2879 -49.878944 
L 425.782306 -49.878944 
L 430.276711 -49.878944 
L 434.771117 -49.878944 
L 439.265522 -49.878944 
L 443.759928 -49.878944 
L 448.254333 -49.878944 
L 452.748739 -49.878944 
L 457.243145 -49.878944 
L 461.73755 -49.878944 
L 466.231956 -49.878944 
L 470.726361 -49.878944 
L 475.220767 -49.878944 
L 475.220767 -51.976042 
L 475.220767 -51.976042 
L 470.726361 -51.987054 
L 466.231956 -52.082393 
L 461.73755 -52.044922 
L 457.243145 -51.985984 
L 452.748739 -51.880515 
L 448.254333 -51.998863 
L 443.759928 -51.914545 
L 439.265522 -51.960983 
L 434.771117 -52.086854 
L 430.276711 -51.852575 
L 425.782306 -51.902991 
L 421.2879 -51.912843 
L 416.793494 -51.896768 
L 412.299089 -51.921412 
L 407.804683 -51.898503 
L 403.310278 -52.234787 
L 398.815872 -51.917908 
L 394.321466 -51.717683 
L 389.827061 -51.684187 
L 385.332655 -51.682069 
L 380.83825 -51.743699 
L 376.343844 -51.863372 
L 371.849438 -51.711469 
L 367.355033 -51.67149 
L 362.860627 -51.665133 
L 358.366222 -51.739019 
L 353.871816 -51.732331 
L 349.37741 -51.729316 
L 344.883005 -51.544063 
L 340.388599 -51.372155 
L 335.894194 -51.350851 
L 331.399788 -51.357451 
L 326.905382 -51.374349 
L 322.410977 -51.384696 
L 317.916571 -51.403285 
L 313.422166 -51.391849 
L 308.92776 -51.590275 
L 304.433354 -51.627326 
L 299.938949 -51.597814 
L 295.444543 -53.061504 
L 290.950138 -51.601986 
L 286.455732 -51.570114 
L 281.961326 -51.6087 
L 277.466921 -51.650166 
L 272.972515 -51.593668 
L 268.47811 -51.584251 
L 263.983704 -51.570061 
L 259.489299 -51.559276 
L 254.994893 -51.56457 
L 250.500487 -51.571321 
L 246.006082 -51.575911 
L 241.511676 -51.55934 
L 237.017271 -51.61638 
L 232.522865 -51.526022 
L 228.028459 -99.112835 
L 223.534054 -171.361124 
L 219.039648 -172.041288 
L 214.545243 -171.971108 
L 210.050837 -166.292112 
L 205.556431 -124.399109 
L 201.062026 -54.415837 
L 196.56762 -51.298397 
L 192.073215 -51.309622 
L 187.578809 -51.310083 
L 183.084403 -51.367224 
L 178.589998 -51.379677 
L 174.095592 -51.3818 
L 169.601187 -51.954517 
L 165.106781 -51.358369 
L 160.612375 -51.310415 
L 156.11797 -51.380807 
L 151.623564 -51.357436 
L 147.129159 -51.348243 
L 142.634753 -51.42652 
L 138.140347 -51.435124 
L 133.645942 -51.359517 
L 129.151536 -51.343946 
L 124.657131 -51.359594 
L 120.162725 -51.403167 
L 115.668319 -51.674686 
L 111.173914 -51.714568 
L 106.679508 -51.572666 
L 102.185103 -51.417225 
L 97.690697 -51.32837 
L 93.196292 -51.979143 
L 88.701886 -51.938231 
L 84.20748 -51.611268 
L 79.713075 -51.57936 
L 75.218669 -51.394677 
L 70.724264 -51.256005 
L 66.229858 -51.277357 
z
" style="stroke: #b3cde3; stroke-opacity: 0.6"/>
    </defs>
    <g clip-path="url(#pbe4fdd1096)">
     <use xlink:href="#m188ebc4c2d" x="0" y="203.307687" style="fill: #b3cde3; fill-opacity: 0.6; stroke: #b3cde3; stroke-opacity: 0.6"/>
    </g>
   </g>
   <g id="matplotlib.axis_1">
    <g id="xtick_1">
     <g id="line2d_1">
      <path d="M 138.140347 159.53686 
L 138.140347 25.158281 
" clip-path="url(#pbe4fdd1096)" style="fill: none; stroke: #b0b0b0; stroke-opacity: 0.25; stroke-width: 0.5; stroke-linecap: square"/>
     </g>
     <g id="line2d_2">
      <defs>
       <path id="m1bd4baf7e9" d="M 0 0 
L 0 3.5 
" style="stroke: #000000; stroke-width: 0.8"/>
      </defs>
      <g>
       <use xlink:href="#m1bd4baf7e9" x="138.140347" y="159.53686" style="stroke: #000000; stroke-width: 0.8"/>
      </g>
     </g>
     <g id="text_1">
      <!-- Dec 2025 -->
      <g transform="translate(103.939431 191.066837) rotate(-30) scale(0.08 -0.08)">
       <defs>
        <path id="DejaVuSerif-44" d="M 1581 331 
L 2163 331 
Q 3072 331 3558 850 
Q 4044 1369 4044 2338 
Q 4044 3306 3559 3818 
Q 3075 4331 2163 4331 
L 1581 4331 
L 1581 331 
z
M 353 0 
L 353 331 
L 947 331 
L 947 4331 
L 353 4331 
L 353 4666 
L 2209 4666 
Q 3416 4666 4089 4050 
Q 4763 3434 4763 2338 
Q 4763 1238 4088 619 
Q 3413 0 2209 0 
L 353 0 
z
" transform="scale(0.015625)"/>
        <path id="DejaVuSerif-65" d="M 3469 1600 
L 991 1600 
L 991 1575 
Q 991 903 1244 561 
Q 1497 219 1991 219 
Q 2369 219 2611 417 
Q 2853 616 2950 1006 
L 3413 1006 
Q 3275 459 2904 184 
Q 2534 -91 1931 -91 
Q 1203 -91 761 389 
Q 319 869 319 1663 
Q 319 2450 753 2931 
Q 1188 3413 1894 3413 
Q 2647 3413 3050 2948 
Q 3453 2484 3469 1600 
z
M 2791 1931 
Q 2772 2513 2545 2808 
Q 2319 3103 1894 3103 
Q 1497 3103 1269 2806 
Q 1041 2509 991 1931 
L 2791 1931 
z
" transform="scale(0.015625)"/>
        <path id="DejaVuSerif-63" d="M 3291 997 
Q 3169 466 2822 187 
Q 2475 -91 1925 -91 
Q 1200 -91 759 389 
Q 319 869 319 1663 
Q 319 2459 759 2936 
Q 1200 3413 1925 3413 
Q 2241 3413 2553 3339 
Q 2866 3266 3181 3116 
L 3181 2266 
L 2847 2266 
Q 2781 2703 2561 2903 
Q 2341 3103 1931 3103 
Q 1466 3103 1228 2742 
Q 991 2381 991 1663 
Q 991 944 1227 581 
Q 1463 219 1931 219 
Q 2303 219 2525 412 
Q 2747 606 2828 997 
L 3291 997 
z
" transform="scale(0.015625)"/>
        <path id="DejaVuSerif-20" transform="scale(0.015625)"/>
        <path id="DejaVuSerif-32" d="M 819 3553 
L 469 3553 
L 469 4384 
Q 803 4563 1142 4656 
Q 1481 4750 1806 4750 
Q 2534 4750 2956 4397 
Q 3378 4044 3378 3438 
Q 3378 2753 2422 1800 
Q 2347 1728 2309 1691 
L 1131 513 
L 3078 513 
L 3078 1088 
L 3444 1088 
L 3444 0 
L 434 0 
L 434 341 
L 1850 1753 
Q 2319 2222 2519 2614 
Q 2719 3006 2719 3438 
Q 2719 3909 2473 4175 
Q 2228 4441 1797 4441 
Q 1350 4441 1106 4219 
Q 863 3997 819 3553 
z
" transform="scale(0.015625)"/>
        <path id="DejaVuSerif-30" d="M 2034 219 
Q 2513 219 2750 744 
Q 2988 1269 2988 2328 
Q 2988 3391 2750 3916 
Q 2513 4441 2034 4441 
Q 1556 4441 1318 3916 
Q 1081 3391 1081 2328 
Q 1081 1269 1318 744 
Q 1556 219 2034 219 
z
M 2034 -91 
Q 1275 -91 848 546 
Q 422 1184 422 2328 
Q 422 3475 848 4112 
Q 1275 4750 2034 4750 
Q 2797 4750 3222 4112 
Q 3647 3475 3647 2328 
Q 3647 1184 3222 546 
Q 2797 -91 2034 -91 
z
" transform="scale(0.015625)"/>
        <path id="DejaVuSerif-35" d="M 3219 4666 
L 3219 4153 
L 1081 4153 
L 1081 2816 
Q 1244 2928 1461 2984 
Q 1678 3041 1947 3041 
Q 2703 3041 3140 2622 
Q 3578 2203 3578 1478 
Q 3578 738 3136 323 
Q 2694 -91 1894 -91 
Q 1572 -91 1234 -12 
Q 897 66 544 225 
L 544 1131 
L 897 1131 
Q 925 688 1179 453 
Q 1434 219 1894 219 
Q 2388 219 2653 544 
Q 2919 869 2919 1478 
Q 2919 2084 2655 2407 
Q 2391 2731 1894 2731 
Q 1613 2731 1398 2631 
Q 1184 2531 1019 2322 
L 750 2322 
L 750 4666 
L 3219 4666 
z
" transform="scale(0.015625)"/>
       </defs>
       <use xlink:href="#DejaVuSerif-44"/>
       <use xlink:href="#DejaVuSerif-65" transform="translate(80.175781 0)"/>
       <use xlink:href="#DejaVuSerif-63" transform="translate(139.355469 0)"/>
       <use xlink:href="#DejaVuSerif-20" transform="translate(195.361328 0)"/>
       <use xlink:href="#DejaVuSerif-32" transform="translate(227.148438 0)"/>
       <use xlink:href="#DejaVuSerif-30" transform="translate(290.771484 0)"/>
       <use xlink:href="#DejaVuSerif-32" transform="translate(354.394531 0)"/>
       <use xlink:href="#DejaVuSerif-35" transform="translate(418.017578 0)"/>
      </g>
     </g>
    </g>
    <g id="xtick_2">
     <g id="line2d_3">
      <path d="M 277.466921 159.53686 
L 277.466921 25.158281 
" clip-path="url(#pbe4fdd1096)" style="fill: none; stroke: #b0b0b0; stroke-opacity: 0.25; stroke-width: 0.5; stroke-linecap: square"/>
     </g>
     <g id="line2d_4">
      <g>
       <use xlink:href="#m1bd4baf7e9" x="277.466921" y="159.53686" style="stroke: #000000; stroke-width: 0.8"/>
      </g>
     </g>
     <g id="text_2">
      <!-- Jan 2026 -->
      <g transform="translate(245.429986 189.817462) rotate(-30) scale(0.08 -0.08)">
       <defs>
        <path id="DejaVuSerif-4a" d="M -538 -1119 
L -538 -384 
L -181 -384 
Q -172 -694 -34 -845 
Q 103 -997 378 -997 
Q 750 -997 897 -762 
Q 1044 -528 1044 153 
L 1044 4331 
L 319 4331 
L 319 4666 
L 2272 4666 
L 2272 4331 
L 1678 4331 
L 1678 128 
Q 1678 -644 1368 -987 
Q 1059 -1331 372 -1331 
Q 150 -1331 -79 -1278 
Q -309 -1225 -538 -1119 
z
" transform="scale(0.015625)"/>
        <path id="DejaVuSerif-61" d="M 2547 1044 
L 2547 1747 
L 1806 1747 
Q 1378 1747 1168 1562 
Q 959 1378 959 997 
Q 959 650 1171 447 
Q 1384 244 1747 244 
Q 2106 244 2326 466 
Q 2547 688 2547 1044 
z
M 3122 2075 
L 3122 331 
L 3634 331 
L 3634 0 
L 2547 0 
L 2547 359 
Q 2356 128 2106 18 
Q 1856 -91 1522 -91 
Q 969 -91 644 203 
Q 319 497 319 997 
Q 319 1513 691 1797 
Q 1063 2081 1741 2081 
L 2547 2081 
L 2547 2309 
Q 2547 2688 2317 2895 
Q 2088 3103 1672 3103 
Q 1328 3103 1125 2947 
Q 922 2791 872 2484 
L 575 2484 
L 575 3156 
Q 875 3284 1158 3348 
Q 1441 3413 1709 3413 
Q 2400 3413 2761 3070 
Q 3122 2728 3122 2075 
z
" transform="scale(0.015625)"/>
        <path id="DejaVuSerif-6e" d="M 263 0 
L 263 331 
L 781 331 
L 781 2988 
L 231 2988 
L 231 3322 
L 1356 3322 
L 1356 2731 
Q 1516 3069 1770 3241 
Q 2025 3413 2363 3413 
Q 2913 3413 3172 3097 
Q 3431 2781 3431 2113 
L 3431 331 
L 3944 331 
L 3944 0 
L 2356 0 
L 2356 331 
L 2853 331 
L 2853 1931 
Q 2853 2541 2703 2767 
Q 2553 2994 2175 2994 
Q 1775 2994 1565 2701 
Q 1356 2409 1356 1850 
L 1356 331 
L 1856 331 
L 1856 0 
L 263 0 
z
" transform="scale(0.015625)"/>
        <path id="DejaVuSerif-36" d="M 2094 219 
Q 2534 219 2771 542 
Q 3009 866 3009 1472 
Q 3009 2078 2771 2401 
Q 2534 2725 2094 2725 
Q 1647 2725 1412 2412 
Q 1178 2100 1178 1509 
Q 1178 888 1415 553 
Q 1653 219 2094 219 
z
M 1075 2569 
Q 1288 2803 1556 2918 
Q 1825 3034 2163 3034 
Q 2859 3034 3264 2615 
Q 3669 2197 3669 1472 
Q 3669 763 3233 336 
Q 2797 -91 2069 -91 
Q 1278 -91 853 498 
Q 428 1088 428 2181 
Q 428 3406 931 4078 
Q 1434 4750 2350 4750 
Q 2597 4750 2869 4703 
Q 3141 4656 3425 4563 
L 3425 3794 
L 3072 3794 
Q 3034 4109 2831 4275 
Q 2628 4441 2284 4441 
Q 1678 4441 1381 3981 
Q 1084 3522 1075 2569 
z
" transform="scale(0.015625)"/>
       </defs>
       <use xlink:href="#DejaVuSerif-4a"/>
       <use xlink:href="#DejaVuSerif-61" transform="translate(40.087891 0)"/>
       <use xlink:href="#DejaVuSerif-6e" transform="translate(99.707031 0)"/>
       <use xlink:href="#DejaVuSerif-20" transform="translate(164.111328 0)"/>
       <use xlink:href="#DejaVuSerif-32" transform="translate(195.898438 0)"/>
       <use xlink:href="#DejaVuSerif-30" transform="translate(259.521484 0)"/>
       <use xlink:href="#DejaVuSerif-32" transform="translate(323.144531 0)"/>
       <use xlink:href="#DejaVuSerif-36" transform="translate(386.767578 0)"/>
      </g>
     </g>
    </g>
    <g id="xtick_3">
     <g id="line2d_5">
      <path d="M 416.793494 159.53686 
L 416.793494 25.158281 
" clip-path="url(#pbe4fdd1096)" style="fill: none; stroke: #b0b0b0; stroke-opacity: 0.25; stroke-width: 0.5; stroke-linecap: square"/>
     </g>
     <g id="line2d_6">
      <g>
       <use xlink:href="#m1bd4baf7e9" x="416.793494" y="159.53686" style="stroke: #000000; stroke-width: 0.8"/>
      </g>
     </g>
     <g id="text_3">
      <!-- Feb 2026 -->
      <g transform="translate(383.165237 190.736212) rotate(-30) scale(0.08 -0.08)">
       <defs>
        <path id="DejaVuSerif-46" d="M 353 0 
L 353 331 
L 947 331 
L 947 4331 
L 353 4331 
L 353 4666 
L 4172 4666 
L 4172 3628 
L 3788 3628 
L 3788 4281 
L 1581 4281 
L 1581 2719 
L 3175 2719 
L 3175 3303 
L 3559 3303 
L 3559 1753 
L 3175 1753 
L 3175 2338 
L 1581 2338 
L 1581 331 
L 2328 331 
L 2328 0 
L 353 0 
z
" transform="scale(0.015625)"/>
        <path id="DejaVuSerif-62" d="M 738 331 
L 738 4531 
L 184 4531 
L 184 4863 
L 1313 4863 
L 1313 2803 
Q 1481 3116 1742 3264 
Q 2003 3413 2388 3413 
Q 3000 3413 3387 2928 
Q 3775 2444 3775 1663 
Q 3775 881 3387 395 
Q 3000 -91 2388 -91 
Q 2003 -91 1742 57 
Q 1481 206 1313 519 
L 1313 0 
L 184 0 
L 184 331 
L 738 331 
z
M 1313 1497 
Q 1313 897 1542 583 
Q 1772 269 2209 269 
Q 2650 269 2876 622 
Q 3103 975 3103 1663 
Q 3103 2353 2876 2703 
Q 2650 3053 2209 3053 
Q 1772 3053 1542 2737 
Q 1313 2422 1313 1825 
L 1313 1497 
z
" transform="scale(0.015625)"/>
       </defs>
       <use xlink:href="#DejaVuSerif-46"/>
       <use xlink:href="#DejaVuSerif-65" transform="translate(63.884766 0)"/>
       <use xlink:href="#DejaVuSerif-62" transform="translate(123.064453 0)"/>
       <use xlink:href="#DejaVuSerif-20" transform="translate(187.078125 0)"/>
       <use xlink:href="#DejaVuSerif-32" transform="translate(218.865234 0)"/>
       <use xlink:href="#DejaVuSerif-30" transform="translate(282.488281 0)"/>
       <use xlink:href="#DejaVuSerif-32" transform="translate(346.111328 0)"/>
       <use xlink:href="#DejaVuSerif-36" transform="translate(409.734375 0)"/>
      </g>
     </g>
    </g>
   </g>
   <g id="matplotlib.axis_2">
    <g id="ytick_1">
     <g id="line2d_7">
      <path d="M 45.780313 153.428743 
L 495.670313 153.428743 
" clip-path="url(#pbe4fdd1096)" style="fill: none; stroke: #b0b0b0; stroke-opacity: 0.25; stroke-width: 0.5; stroke-linecap: square"/>
     </g>
     <g id="line2d_8">
      <defs>
       <path id="m99d15cf3d7" d="M 0 0 
L -3.5 0 
" style="stroke: #000000; stroke-width: 0.8"/>
      </defs>
      <g>
       <use xlink:href="#m99d15cf3d7" x="45.780313" y="153.428743" style="stroke: #000000; stroke-width: 0.8"/>
      </g>
     </g>
     <g id="text_4">
      <!-- 0 -->
      <g transform="translate(33.690313 156.468118) scale(0.08 -0.08)">
       <use xlink:href="#DejaVuSerif-30"/>
      </g>
     </g>
    </g>
    <g id="ytick_2">
     <g id="line2d_9">
      <path d="M 45.780313 122.090617 
L 495.670313 122.090617 
" clip-path="url(#pbe4fdd1096)" style="fill: none; stroke: #b0b0b0; stroke-opacity: 0.25; stroke-width: 0.5; stroke-linecap: square"/>
     </g>
     <g id="line2d_10">
      <g>
       <use xlink:href="#m99d15cf3d7" x="45.780313" y="122.090617" style="stroke: #000000; stroke-width: 0.8"/>
      </g>
     </g>
     <g id="text_5">
      <!-- 100 -->
      <g transform="translate(23.510313 125.129992) scale(0.08 -0.08)">
       <defs>
        <path id="DejaVuSerif-31" d="M 909 0 
L 909 331 
L 1722 331 
L 1722 4213 
L 781 3603 
L 781 4013 
L 1919 4750 
L 2350 4750 
L 2350 331 
L 3163 331 
L 3163 0 
L 909 0 
z
" transform="scale(0.015625)"/>
       </defs>
       <use xlink:href="#DejaVuSerif-31"/>
       <use xlink:href="#DejaVuSerif-30" transform="translate(63.623047 0)"/>
       <use xlink:href="#DejaVuSerif-30" transform="translate(127.246094 0)"/>
      </g>
     </g>
    </g>
    <g id="ytick_3">
     <g id="line2d_11">
      <path d="M 45.780313 90.752491 
L 495.670313 90.752491 
" clip-path="url(#pbe4fdd1096)" style="fill: none; stroke: #b0b0b0; stroke-opacity: 0.25; stroke-width: 0.5; stroke-linecap: square"/>
     </g>
     <g id="line2d_12">
      <g>
       <use xlink:href="#m99d15cf3d7" x="45.780313" y="90.752491" style="stroke: #000000; stroke-width: 0.8"/>
      </g>
     </g>
     <g id="text_6">
      <!-- 200 -->
      <g transform="translate(23.510313 93.791866) scale(0.08 -0.08)">
       <use xlink:href="#DejaVuSerif-32"/>
       <use xlink:href="#DejaVuSerif-30" transform="translate(63.623047 0)"/>
       <use xlink:href="#DejaVuSerif-30" transform="translate(127.246094 0)"/>
      </g>
     </g>
    </g>
    <g id="ytick_4">
     <g id="line2d_13">
      <path d="M 45.780313 59.414366 
L 495.670313 59.414366 
" clip-path="url(#pbe4fdd1096)" style="fill: none; stroke: #b0b0b0; stroke-opacity: 0.25; stroke-width: 0.5; stroke-linecap: square"/>
     </g>
     <g id="line2d_14">
      <g>
       <use xlink:href="#m99d15cf3d7" x="45.780313" y="59.414366" style="stroke: #000000; stroke-width: 0.8"/>
      </g>
     </g>
     <g id="text_7">
      <!-- 300 -->
      <g transform="translate(23.510313 62.453741) scale(0.08 -0.08)">
       <defs>
        <path id="DejaVuSerif-33" d="M 622 4469 
Q 988 4606 1323 4678 
Q 1659 4750 1953 4750 
Q 2638 4750 3022 4454 
Q 3406 4159 3406 3634 
Q 3406 3213 3140 2930 
Q 2875 2647 2388 2547 
Q 2963 2466 3280 2130 
Q 3597 1794 3597 1259 
Q 3597 606 3158 257 
Q 2719 -91 1894 -91 
Q 1528 -91 1179 -12 
Q 831 66 488 225 
L 488 1131 
L 838 1131 
Q 869 681 1141 450 
Q 1413 219 1906 219 
Q 2384 219 2661 495 
Q 2938 772 2938 1253 
Q 2938 1803 2653 2086 
Q 2369 2369 1819 2369 
L 1522 2369 
L 1522 2688 
L 1678 2688 
Q 2225 2688 2498 2914 
Q 2772 3141 2772 3597 
Q 2772 4006 2547 4223 
Q 2322 4441 1900 4441 
Q 1478 4441 1245 4241 
Q 1013 4041 972 3647 
L 622 3647 
L 622 4469 
z
" transform="scale(0.015625)"/>
       </defs>
       <use xlink:href="#DejaVuSerif-33"/>
       <use xlink:href="#DejaVuSerif-30" transform="translate(63.623047 0)"/>
       <use xlink:href="#DejaVuSerif-30" transform="translate(127.246094 0)"/>
      </g>
     </g>
    </g>
    <g id="ytick_5">
     <g id="line2d_15">
      <path d="M 45.780313 28.07624 
L 495.670313 28.07624 
" clip-path="url(#pbe4fdd1096)" style="fill: none; stroke: #b0b0b0; stroke-opacity: 0.25; stroke-width: 0.5; stroke-linecap: square"/>
     </g>
     <g id="line2d_16">
      <g>
       <use xlink:href="#m99d15cf3d7" x="45.780313" y="28.07624" style="stroke: #000000; stroke-width: 0.8"/>
      </g>
     </g>
     <g id="text_8">
      <!-- 400 -->
      <g transform="translate(23.510313 31.115615) scale(0.08 -0.08)">
       <defs>
        <path id="DejaVuSerif-34" d="M 2234 1581 
L 2234 4063 
L 641 1581 
L 2234 1581 
z
M 3609 0 
L 1484 0 
L 1484 331 
L 2234 331 
L 2234 1247 
L 197 1247 
L 197 1588 
L 2241 4750 
L 2859 4750 
L 2859 1581 
L 3750 1581 
L 3750 1247 
L 2859 1247 
L 2859 331 
L 3609 331 
L 3609 0 
z
" transform="scale(0.015625)"/>
       </defs>
       <use xlink:href="#DejaVuSerif-34"/>
       <use xlink:href="#DejaVuSerif-30" transform="translate(63.623047 0)"/>
       <use xlink:href="#DejaVuSerif-30" transform="translate(127.246094 0)"/>
      </g>
     </g>
    </g>
    <g id="text_9">
     <!-- % -->
     <g transform="translate(17.638594 96.623274) rotate(-90) scale(0.09 -0.09)">
      <defs>
       <path id="DejaVuSerif-25" d="M 1434 4459 
Q 1159 4459 1004 4200 
Q 850 3941 850 3475 
Q 850 3016 1008 2753 
Q 1166 2491 1434 2491 
Q 1700 2491 1854 2752 
Q 2009 3013 2009 3475 
Q 2009 3938 1854 4198 
Q 1700 4459 1434 4459 
z
M 4653 2169 
Q 4381 2169 4226 1906 
Q 4072 1644 4072 1178 
Q 4072 719 4228 458 
Q 4384 197 4653 197 
Q 4922 197 5075 458 
Q 5228 719 5228 1178 
Q 5228 1641 5073 1905 
Q 4919 2169 4653 2169 
z
M 4653 2450 
Q 5147 2450 5437 2106 
Q 5728 1763 5728 1178 
Q 5728 594 5436 251 
Q 5144 -91 4653 -91 
Q 4153 -91 3862 251 
Q 3572 594 3572 1178 
Q 3572 1766 3864 2108 
Q 4156 2450 4653 2450 
z
M 4263 4750 
L 4738 4750 
L 1819 -91 
L 1344 -91 
L 4263 4750 
z
M 1428 4750 
Q 1922 4750 2215 4408 
Q 2509 4066 2509 3481 
Q 2509 2891 2217 2550 
Q 1925 2209 1428 2209 
Q 931 2209 642 2551 
Q 353 2894 353 3481 
Q 353 4063 643 4406 
Q 934 4750 1428 4750 
z
" transform="scale(0.015625)"/>
      </defs>
      <use xlink:href="#DejaVuSerif-25"/>
     </g>
    </g>
   </g>
   <g id="patch_3">
    <path d="M 45.780313 159.53686 
L 45.780313 25.158281 
" style="fill: none; stroke: #000000; stroke-width: 0.6; stroke-linejoin: miter; stroke-linecap: square"/>
   </g>
   <g id="patch_4">
    <path d="M 45.780313 159.53686 
L 495.670313 159.53686 
" style="fill: none; stroke: #000000; stroke-width: 0.6; stroke-linejoin: miter; stroke-linecap: square"/>
   </g>
   <g id="line2d_17">
    <path d="M 66.229858 152.03033 
L 70.724264 152.041006 
L 75.218669 151.998341 
L 79.713075 151.930837 
L 84.20748 151.883953 
L 88.701886 151.798204 
L 93.196292 151.73111 
L 97.690697 151.723822 
L 102.185103 151.70079 
L 106.679508 151.675363 
L 111.173914 151.656048 
L 115.668319 151.646988 
L 120.162725 151.723426 
L 124.657131 151.811933 
L 129.151536 151.809708 
L 133.645942 151.817952 
L 138.140347 151.837601 
L 142.634753 151.87875 
L 147.129159 151.925385 
L 151.623564 151.931918 
L 156.11797 151.928888 
L 160.612375 151.933678 
L 165.106781 151.933842 
L 169.601187 151.859643 
L 174.095592 151.866032 
L 178.589998 151.861541 
L 183.084403 151.860143 
L 187.578809 151.870246 
L 192.073215 151.870359 
L 196.56762 151.878927 
L 201.062026 151.52731 
L 205.556431 141.096266 
L 210.050837 124.680203 
L 214.545243 107.451077 
L 219.039648 90.203762 
L 223.534054 73.053547 
L 228.028459 66.222914 
L 232.522865 66.635744 
L 237.017271 77.033277 
L 241.511676 93.423673 
L 246.006082 110.622987 
L 250.500487 127.832982 
L 254.994893 144.946775 
L 259.489299 151.740141 
L 263.983704 151.73385 
L 268.47811 151.738439 
L 272.972515 151.733536 
L 277.466921 151.722928 
L 281.961326 151.717588 
L 286.455732 151.716796 
L 290.950138 151.710694 
L 295.444543 151.497631 
L 299.938949 151.495694 
L 304.433354 151.490885 
L 308.92776 151.499441 
L 313.422166 151.53042 
L 317.916571 151.554253 
L 322.410977 151.585294 
L 326.905382 151.826316 
L 331.399788 151.860654 
L 335.894194 151.90015 
L 340.388599 151.93131 
L 344.883005 151.909565 
L 349.37741 151.86299 
L 353.871816 151.813327 
L 358.366222 151.761232 
L 362.860627 151.717277 
L 367.355033 151.671471 
L 371.849438 151.622998 
L 376.343844 151.577382 
L 380.83825 151.575328 
L 385.332655 151.582508 
L 389.827061 151.590341 
L 394.321466 151.582834 
L 398.815872 151.547631 
L 403.310278 151.472872 
L 407.804683 151.467853 
L 412.299089 151.442465 
L 416.793494 151.411794 
L 421.2879 151.379129 
L 425.782306 151.352656 
L 430.276711 151.36199 
L 434.771117 151.383123 
L 439.265522 151.374197 
L 443.759928 151.375178 
L 448.254333 151.360593 
L 452.748739 151.365212 
L 457.243145 151.353355 
L 461.73755 151.325877 
L 466.231956 151.326514 
L 470.726361 151.32279 
L 475.220767 151.314005 
" clip-path="url(#pbe4fdd1096)" style="fill: none; stroke: #cc3333; stroke-width: 1.5; stroke-linecap: square"/>
   </g>
   <g id="text_10">
    <!-- Celestia — DA Utilization (%) -->
    <g transform="translate(188.661875 19.158281) scale(0.11 -0.11)">
     <defs>
      <path id="DejaVuSerif-43" d="M 4513 1234 
Q 4306 581 3820 245 
Q 3334 -91 2591 -91 
Q 2134 -91 1743 65 
Q 1353 222 1050 525 
Q 700 875 529 1320 
Q 359 1766 359 2328 
Q 359 3416 987 4083 
Q 1616 4750 2644 4750 
Q 3025 4750 3456 4650 
Q 3888 4550 4384 4347 
L 4384 3272 
L 4031 3272 
Q 3916 3859 3567 4137 
Q 3219 4416 2591 4416 
Q 1844 4416 1459 3886 
Q 1075 3356 1075 2328 
Q 1075 1303 1459 773 
Q 1844 244 2591 244 
Q 3113 244 3450 492 
Q 3788 741 3938 1234 
L 4513 1234 
z
" transform="scale(0.015625)"/>
      <path id="DejaVuSerif-6c" d="M 1313 331 
L 1856 331 
L 1856 0 
L 184 0 
L 184 331 
L 738 331 
L 738 4531 
L 184 4531 
L 184 4863 
L 1313 4863 
L 1313 331 
z
" transform="scale(0.015625)"/>
      <path id="DejaVuSerif-73" d="M 359 184 
L 359 959 
L 691 959 
Q 703 588 923 403 
Q 1144 219 1575 219 
Q 1963 219 2166 364 
Q 2369 509 2369 788 
Q 2369 1006 2220 1140 
Q 2072 1275 1594 1428 
L 1178 1569 
Q 750 1706 558 1912 
Q 366 2119 366 2438 
Q 366 2894 700 3153 
Q 1034 3413 1625 3413 
Q 1888 3413 2178 3344 
Q 2469 3275 2778 3144 
L 2778 2419 
L 2447 2419 
Q 2434 2741 2221 2922 
Q 2009 3103 1644 3103 
Q 1281 3103 1095 2975 
Q 909 2847 909 2591 
Q 909 2381 1050 2254 
Q 1191 2128 1613 1997 
L 2069 1856 
Q 2541 1709 2748 1489 
Q 2956 1269 2956 922 
Q 2956 450 2595 179 
Q 2234 -91 1600 -91 
Q 1278 -91 972 -22 
Q 666 47 359 184 
z
" transform="scale(0.015625)"/>
      <path id="DejaVuSerif-74" d="M 691 2988 
L 184 2988 
L 184 3322 
L 691 3322 
L 691 4353 
L 1269 4353 
L 1269 3322 
L 2350 3322 
L 2350 2988 
L 1269 2988 
L 1269 878 
Q 1269 456 1350 337 
Q 1431 219 1650 219 
Q 1875 219 1978 351 
Q 2081 484 2088 781 
L 2522 781 
Q 2497 328 2275 118 
Q 2053 -91 1600 -91 
Q 1103 -91 897 129 
Q 691 350 691 878 
L 691 2988 
z
" transform="scale(0.015625)"/>
      <path id="DejaVuSerif-69" d="M 622 4353 
Q 622 4497 726 4603 
Q 831 4709 978 4709 
Q 1122 4709 1226 4603 
Q 1331 4497 1331 4353 
Q 1331 4206 1228 4103 
Q 1125 4000 978 4000 
Q 831 4000 726 4103 
Q 622 4206 622 4353 
z
M 1356 331 
L 1900 331 
L 1900 0 
L 231 0 
L 231 331 
L 781 331 
L 781 2988 
L 231 2988 
L 231 3322 
L 1356 3322 
L 1356 331 
z
" transform="scale(0.015625)"/>
      <path id="DejaVuSerif-2014" d="M 281 1906 
L 6119 1906 
L 6119 1491 
L 281 1491 
L 281 1906 
z
" transform="scale(0.015625)"/>
      <path id="DejaVuSerif-41" d="M 1281 1691 
L 2994 1691 
L 2138 3909 
L 1281 1691 
z
M -38 0 
L -38 331 
L 372 331 
L 2034 4666 
L 2559 4666 
L 4225 331 
L 4684 331 
L 4684 0 
L 2988 0 
L 2988 331 
L 3506 331 
L 3116 1356 
L 1153 1356 
L 763 331 
L 1275 331 
L 1275 0 
L -38 0 
z
" transform="scale(0.015625)"/>
      <path id="DejaVuSerif-55" d="M 897 4331 
L 300 4331 
L 300 4666 
L 2125 4666 
L 2125 4331 
L 1528 4331 
L 1528 1919 
Q 1528 1025 1820 672 
Q 2113 319 2828 319 
Q 3544 319 3836 672 
Q 4128 1025 4128 1919 
L 4128 4331 
L 3531 4331 
L 3531 4666 
L 5106 4666 
L 5106 4331 
L 4513 4331 
L 4513 1856 
Q 4513 791 4103 350 
Q 3694 -91 2713 -91 
Q 1731 -91 1314 353 
Q 897 797 897 1856 
L 897 4331 
z
" transform="scale(0.015625)"/>
      <path id="DejaVuSerif-7a" d="M 256 0 
L 256 269 
L 2338 2988 
L 691 2988 
L 691 2413 
L 359 2413 
L 359 3322 
L 3078 3322 
L 3078 3053 
L 997 331 
L 2803 331 
L 2803 934 
L 3138 934 
L 3138 0 
L 256 0 
z
" transform="scale(0.015625)"/>
      <path id="DejaVuSerif-6f" d="M 1925 219 
Q 2388 219 2623 584 
Q 2859 950 2859 1663 
Q 2859 2375 2623 2739 
Q 2388 3103 1925 3103 
Q 1463 3103 1227 2739 
Q 991 2375 991 1663 
Q 991 950 1228 584 
Q 1466 219 1925 219 
z
M 1925 -91 
Q 1200 -91 759 389 
Q 319 869 319 1663 
Q 319 2456 758 2934 
Q 1197 3413 1925 3413 
Q 2653 3413 3092 2934 
Q 3531 2456 3531 1663 
Q 3531 869 3092 389 
Q 2653 -91 1925 -91 
z
" transform="scale(0.015625)"/>
      <path id="DejaVuSerif-28" d="M 2041 -997 
Q 1281 -656 893 83 
Q 506 822 506 1931 
Q 506 3044 893 3783 
Q 1281 4522 2041 4863 
L 2041 4556 
Q 1559 4225 1350 3623 
Q 1141 3022 1141 1931 
Q 1141 844 1350 242 
Q 1559 -359 2041 -691 
L 2041 -997 
z
" transform="scale(0.015625)"/>
      <path id="DejaVuSerif-29" d="M 453 -997 
L 453 -691 
Q 934 -359 1145 242 
Q 1356 844 1356 1931 
Q 1356 3022 1145 3623 
Q 934 4225 453 4556 
L 453 4863 
Q 1216 4522 1603 3783 
Q 1991 3044 1991 1931 
Q 1991 822 1603 83 
Q 1216 -656 453 -997 
z
" transform="scale(0.015625)"/>
     </defs>
     <use xlink:href="#DejaVuSerif-43"/>
     <use xlink:href="#DejaVuSerif-65" transform="translate(76.513672 0)"/>
     <use xlink:href="#DejaVuSerif-6c" transform="translate(135.693359 0)"/>
     <use xlink:href="#DejaVuSerif-65" transform="translate(167.675781 0)"/>
     <use xlink:href="#DejaVuSerif-73" transform="translate(226.855469 0)"/>
     <use xlink:href="#DejaVuSerif-74" transform="translate(278.173828 0)"/>
     <use xlink:href="#DejaVuSerif-69" transform="translate(318.359375 0)"/>
     <use xlink:href="#DejaVuSerif-61" transform="translate(350.341797 0)"/>
     <use xlink:href="#DejaVuSerif-20" transform="translate(409.960938 0)"/>
     <use xlink:href="#DejaVuSerif-2014" transform="translate(441.748047 0)"/>
     <use xlink:href="#DejaVuSerif-20" transform="translate(541.748047 0)"/>
     <use xlink:href="#DejaVuSerif-44" transform="translate(573.535156 0)"/>
     <use xlink:href="#DejaVuSerif-41" transform="translate(653.710938 0)"/>
     <use xlink:href="#DejaVuSerif-20" transform="translate(725.927734 0)"/>
     <use xlink:href="#DejaVuSerif-55" transform="translate(757.714844 0)"/>
     <use xlink:href="#DejaVuSerif-74" transform="translate(841.992188 0)"/>
     <use xlink:href="#DejaVuSerif-69" transform="translate(882.177734 0)"/>
     <use xlink:href="#DejaVuSerif-6c" transform="translate(914.160156 0)"/>
     <use xlink:href="#DejaVuSerif-69" transform="translate(946.142578 0)"/>
     <use xlink:href="#DejaVuSerif-7a" transform="translate(978.125 0)"/>
     <use xlink:href="#DejaVuSerif-61" transform="translate(1030.810547 0)"/>
     <use xlink:href="#DejaVuSerif-74" transform="translate(1090.429688 0)"/>
     <use xlink:href="#DejaVuSerif-69" transform="translate(1130.615234 0)"/>
     <use xlink:href="#DejaVuSerif-6f" transform="translate(1162.597656 0)"/>
     <use xlink:href="#DejaVuSerif-6e" transform="translate(1222.802734 0)"/>
     <use xlink:href="#DejaVuSerif-20" transform="translate(1287.207031 0)"/>
     <use xlink:href="#DejaVuSerif-28" transform="translate(1318.994141 0)"/>
     <use xlink:href="#DejaVuSerif-25" transform="translate(1358.007812 0)"/>
     <use xlink:href="#DejaVuSerif-29" transform="translate(1453.027344 0)"/>
    </g>
   </g>
   <g id="legend_1">
    <g id="patch_5">
     <path d="M 422.109063 55.157031 
L 490.070313 55.157031 
Q 491.670313 55.157031 491.670313 53.557031 
L 491.670313 30.758281 
Q 491.670313 29.158281 490.070313 29.158281 
L 422.109063 29.158281 
Q 420.509063 29.158281 420.509063 30.758281 
L 420.509063 53.557031 
Q 420.509063 55.157031 422.109063 55.157031 
z
" style="fill: #ffffff; opacity: 0.9; stroke: #cccccc; stroke-linejoin: miter"/>
    </g>
    <g id="patch_6">
     <path d="M 423.709063 38.437031 
L 439.709063 38.437031 
L 439.709063 32.837031 
L 423.709063 32.837031 
z
" style="fill: #b3cde3; fill-opacity: 0.6; stroke: #b3cde3; stroke-opacity: 0.6; stroke-linejoin: miter"/>
    </g>
    <g id="text_11">
     <!-- Utilization -->
     <g transform="translate(446.109063 38.437031) scale(0.08 -0.08)">
      <use xlink:href="#DejaVuSerif-55"/>
      <use xlink:href="#DejaVuSerif-74" transform="translate(84.277344 0)"/>
      <use xlink:href="#DejaVuSerif-69" transform="translate(124.462891 0)"/>
      <use xlink:href="#DejaVuSerif-6c" transform="translate(156.445312 0)"/>
      <use xlink:href="#DejaVuSerif-69" transform="translate(188.427734 0)"/>
      <use xlink:href="#DejaVuSerif-7a" transform="translate(220.410156 0)"/>
      <use xlink:href="#DejaVuSerif-61" transform="translate(273.095703 0)"/>
      <use xlink:href="#DejaVuSerif-74" transform="translate(332.714844 0)"/>
      <use xlink:href="#DejaVuSerif-69" transform="translate(372.900391 0)"/>
      <use xlink:href="#DejaVuSerif-6f" transform="translate(404.882812 0)"/>
      <use xlink:href="#DejaVuSerif-6e" transform="translate(465.087891 0)"/>
     </g>
    </g>
    <g id="line2d_18">
     <path d="M 423.709063 47.379531 
L 431.709063 47.379531 
L 439.709063 47.379531 
" style="fill: none; stroke: #cc3333; stroke-width: 1.5; stroke-linecap: square"/>
    </g>
    <g id="text_12">
     <!-- 7d avg -->
     <g transform="translate(446.109063 50.179531) scale(0.08 -0.08)">
      <defs>
       <path id="DejaVuSerif-37" d="M 3609 4347 
L 1784 0 
L 1319 0 
L 3059 4153 
L 903 4153 
L 903 3578 
L 538 3578 
L 538 4666 
L 3609 4666 
L 3609 4347 
z
" transform="scale(0.015625)"/>
       <path id="DejaVuSerif-64" d="M 3359 331 
L 3909 331 
L 3909 0 
L 2784 0 
L 2784 519 
Q 2616 206 2355 57 
Q 2094 -91 1709 -91 
Q 1097 -91 708 395 
Q 319 881 319 1663 
Q 319 2444 706 2928 
Q 1094 3413 1709 3413 
Q 2094 3413 2355 3264 
Q 2616 3116 2784 2803 
L 2784 4531 
L 2241 4531 
L 2241 4863 
L 3359 4863 
L 3359 331 
z
M 2784 1497 
L 2784 1825 
Q 2784 2422 2554 2737 
Q 2325 3053 1888 3053 
Q 1444 3053 1217 2703 
Q 991 2353 991 1663 
Q 991 975 1217 622 
Q 1444 269 1888 269 
Q 2325 269 2554 583 
Q 2784 897 2784 1497 
z
" transform="scale(0.015625)"/>
       <path id="DejaVuSerif-76" d="M 1581 0 
L 359 2988 
L -19 2988 
L -19 3322 
L 1509 3322 
L 1509 2988 
L 978 2988 
L 1913 703 
L 2847 2988 
L 2350 2988 
L 2350 3322 
L 3597 3322 
L 3597 2988 
L 3225 2988 
L 2003 0 
L 1581 0 
z
" transform="scale(0.015625)"/>
       <path id="DejaVuSerif-67" d="M 3359 2988 
L 3359 72 
Q 3359 -644 2965 -1033 
Q 2572 -1422 1844 -1422 
Q 1516 -1422 1216 -1362 
Q 916 -1303 641 -1184 
L 641 -488 
L 941 -488 
Q 997 -813 1206 -963 
Q 1416 -1113 1806 -1113 
Q 2313 -1113 2548 -827 
Q 2784 -541 2784 72 
L 2784 519 
Q 2616 206 2355 57 
Q 2094 -91 1709 -91 
Q 1097 -91 708 395 
Q 319 881 319 1663 
Q 319 2444 706 2928 
Q 1094 3413 1709 3413 
Q 2094 3413 2355 3264 
Q 2616 3116 2784 2803 
L 2784 3322 
L 3909 3322 
L 3909 2988 
L 3359 2988 
z
M 2784 1825 
Q 2784 2422 2554 2737 
Q 2325 3053 1888 3053 
Q 1444 3053 1217 2703 
Q 991 2353 991 1663 
Q 991 975 1217 622 
Q 1444 269 1888 269 
Q 2325 269 2554 583 
Q 2784 897 2784 1497 
L 2784 1825 
z
" transform="scale(0.015625)"/>
      </defs>
      <use xlink:href="#DejaVuSerif-37"/>
      <use xlink:href="#DejaVuSerif-64" transform="translate(63.623047 0)"/>
      <use xlink:href="#DejaVuSerif-20" transform="translate(127.636719 0)"/>
      <use xlink:href="#DejaVuSerif-61" transform="translate(159.423828 0)"/>
      <use xlink:href="#DejaVuSerif-76" transform="translate(219.042969 0)"/>
      <use xlink:href="#DejaVuSerif-67" transform="translate(275.537109 0)"/>
     </g>
    </g>
   </g>
  </g>
 </g>
 <defs>
  <clipPath id="pbe4fdd1096">
   <rect x="45.780313" y="25.158281" width="449.89" height="134.378579"/>
  </clipPath>
 </defs>
</svg>
