<svg xmlns="http://www.w3.org/2000/svg" viewBox="0 0 700 280" font-family="Helvetica, Arial, sans-serif">
<rect width="700" height="280" fill="#fff"/>
<text x="58" y="14" font-size="10" font-weight="600" fill="#222">Validator DA Participation</text>
<text x="58" y="24" font-size="7" fill="#888">100 blocks (29938005…29938104)  ·  cadence 6s  ·  effective_cores 100</text>
<defs><clipPath id="clip"><rect x="58" y="28" width="584" height="200"/></clipPath></defs>
<line x1="58" y1="228.0" x2="642" y2="228.0" stroke="#eee" stroke-width="0.5"/>
<line x1="58" y1="165.5" x2="642" y2="165.5" stroke="#eee" stroke-width="0.5"/>
<line x1="58" y1="103.0" x2="642" y2="103.0" stroke="#eee" stroke-width="0.5"/>
<line x1="58" y1="40.5" x2="642" y2="40.5" stroke="#eee" stroke-width="0.5"/>
<line clip-path="url(#clip)" x1="58" y1="103.0" x2="642" y2="103.0" stroke="#888" stroke-width="1" stroke-dasharray="4,4"/>
<polygon clip-path="url(#clip)" fill="#4361ee" opacity="0.1" points="58.0,228.0 58.0,115.5 63.9,115.5 69.8,115.5 75.7,115.5 81.6,115.5 87.5,115.5 93.4,115.5 99.3,115.5 105.2,115.5 111.1,115.5 117.0,115.5 122.9,115.5 128.8,115.5 134.7,115.5 140.6,121.8 146.5,115.5 152.4,115.5 158.3,115.5 164.2,115.5 170.1,115.5 176.0,115.5 181.9,115.5 187.8,115.5 193.7,115.5 199.6,115.5 205.5,128.0 211.4,115.5 217.3,115.5 223.2,115.5 229.1,115.5 235.0,115.5 240.9,115.5 246.8,115.5 252.7,115.5 258.6,121.8 264.5,115.5 270.4,115.5 276.3,115.5 282.2,115.5 288.1,115.5 294.0,115.5 299.9,115.5 305.8,115.5 311.7,115.5 317.6,115.5 323.5,115.5 329.4,115.5 335.3,115.5 341.2,115.5 347.1,115.5 352.9,115.5 358.8,115.5 364.7,115.5 370.6,115.5 376.5,115.5 382.4,115.5 388.3,115.5 394.2,115.5 400.1,115.5 406.0,121.8 411.9,115.5 417.8,121.8 423.7,115.5 429.6,115.5 435.5,153.0 441.4,115.5 447.3,115.5 453.2,115.5 459.1,115.5 465.0,115.5 470.9,115.5 476.8,115.5 482.7,115.5 488.6,115.5 494.5,115.5 500.4,115.5 506.3,115.5 512.2,115.5 518.1,115.5 524.0,115.5 529.9,115.5 535.8,115.5 541.7,115.5 547.6,115.5 553.5,115.5 559.4,128.0 565.3,115.5 571.2,121.8 577.1,115.5 583.0,115.5 588.9,121.8 594.8,115.5 600.7,115.5 606.6,115.5 612.5,115.5 618.4,115.5 624.3,115.5 630.2,115.5 636.1,115.5 642.0,146.8 642.0,228.0"/>
<polyline clip-path="url(#clip)" fill="none" stroke="#4361ee" stroke-width="1" opacity="1"  points="58.0,115.5 63.9,115.5 69.8,115.5 75.7,115.5 81.6,115.5 87.5,115.5 93.4,115.5 99.3,115.5 105.2,115.5 111.1,115.5 117.0,115.5 122.9,115.5 128.8,115.5 134.7,115.5 140.6,121.8 146.5,115.5 152.4,115.5 158.3,115.5 164.2,115.5 170.1,115.5 176.0,115.5 181.9,115.5 187.8,115.5 193.7,115.5 199.6,115.5 205.5,128.0 211.4,115.5 217.3,115.5 223.2,115.5 229.1,115.5 235.0,115.5 240.9,115.5 246.8,115.5 252.7,115.5 258.6,121.8 264.5,115.5 270.4,115.5 276.3,115.5 282.2,115.5 288.1,115.5 294.0,115.5 299.9,115.5 305.8,115.5 311.7,115.5 317.6,115.5 323.5,115.5 329.4,115.5 335.3,115.5 341.2,115.5 347.1,115.5 352.9,115.5 358.8,115.5 364.7,115.5 370.6,115.5 376.5,115.5 382.4,115.5 388.3,115.5 394.2,115.5 400.1,115.5 406.0,121.8 411.9,115.5 417.8,121.8 423.7,115.5 429.6,115.5 435.5,153.0 441.4,115.5 447.3,115.5 453.2,115.5 459.1,115.5 465.0,115.5 470.9,115.5 476.8,115.5 482.7,115.5 488.6,115.5 494.5,115.5 500.4,115.5 506.3,115.5 512.2,115.5 518.1,115.5 524.0,115.5 529.9,115.5 535.8,115.5 541.7,115.5 547.6,115.5 553.5,115.5 559.4,128.0 565.3,115.5 571.2,121.8 577.1,115.5 583.0,115.5 588.9,121.8 594.8,115.5 600.7,115.5 606.6,115.5 612.5,115.5 618.4,115.5 624.3,115.5 630.2,115.5 636.1,115.5 642.0,146.8"/>
<polyline clip-path="url(#clip)" fill="none" stroke="#2d6a4f" stroke-width="1" opacity="0.6"  points="58.0,52.7 63.9,49.8 69.8,50.2 75.7,49.1 81.6,49.1 87.5,49.1 93.4,52.7 99.3,51.3 105.2,47.3 111.1,48.7 117.0,48.0 122.9,47.6 128.8,48.7 134.7,52.4 140.6,49.1 146.5,48.4 152.4,47.3 158.3,52.0 164.2,47.3 170.1,48.4 176.0,48.4 181.9,47.6 187.8,48.7 193.7,47.6 199.6,47.3 205.5,48.0 211.4,49.1 217.3,48.4 223.2,47.3 229.1,48.7 235.0,48.0 240.9,48.4 246.8,49.5 252.7,47.3 258.6,47.6 264.5,48.4 270.4,46.2 276.3,49.1 282.2,48.4 288.1,48.7 294.0,48.0 299.9,46.9 305.8,47.3 311.7,48.7 317.6,47.6 323.5,48.4 329.4,55.3 335.3,48.0 341.2,48.7 347.1,47.3 352.9,48.7 358.8,47.6 364.7,51.3 370.6,50.9 376.5,49.5 382.4,49.8 388.3,48.7 394.2,49.8 400.1,48.7 406.0,49.8 411.9,48.4 417.8,48.0 423.7,46.9 429.6,48.4 435.5,48.4 441.4,48.7 447.3,48.4 453.2,47.6 459.1,48.0 465.0,47.3 470.9,49.5 476.8,51.3 482.7,48.0 488.6,47.6 494.5,48.4 500.4,49.5 506.3,51.6 512.2,51.3 518.1,48.4 524.0,48.4 529.9,50.9 535.8,48.4 541.7,48.4 547.6,49.5 553.5,49.1 559.4,54.2 565.3,49.1 571.2,49.8 577.1,48.7 583.0,48.7 588.9,49.1 594.8,48.4 600.7,50.2 606.6,49.1 612.5,49.5 618.4,48.4 624.3,48.4 630.2,48.4 636.1,52.0 642.0,48.7"/>
<line x1="58" y1="28" x2="58" y2="228" stroke="#333" stroke-width="0.7"/>
<line x1="58" y1="228" x2="642" y2="228" stroke="#333" stroke-width="0.7"/>
<line x1="642" y1="28" x2="642" y2="228" stroke="#333" stroke-width="0.7"/>
<line x1="58.0" y1="228" x2="58.0" y2="231" stroke="#333" stroke-width="0.5"/>
<text x="58.0" y="241" text-anchor="middle" font-size="6.5" fill="#666">Feb 13</text>
<text x="58.0" y="249" text-anchor="middle" font-size="6.5" fill="#666">10:37</text>
<line x1="128.8" y1="228" x2="128.8" y2="231" stroke="#333" stroke-width="0.5"/>
<text x="128.8" y="241" text-anchor="middle" font-size="6.5" fill="#666">Feb 13</text>
<text x="128.8" y="249" text-anchor="middle" font-size="6.5" fill="#666">10:38</text>
<line x1="199.6" y1="228" x2="199.6" y2="231" stroke="#333" stroke-width="0.5"/>
<text x="199.6" y="241" text-anchor="middle" font-size="6.5" fill="#666">Feb 13</text>
<text x="199.6" y="249" text-anchor="middle" font-size="6.5" fill="#666">10:39</text>
<line x1="270.4" y1="228" x2="270.4" y2="231" stroke="#333" stroke-width="0.5"/>
<text x="270.4" y="241" text-anchor="middle" font-size="6.5" fill="#666">Feb 13</text>
<text x="270.4" y="249" text-anchor="middle" font-size="6.5" fill="#666">10:41</text>
<line x1="341.2" y1="228" x2="341.2" y2="231" stroke="#333" stroke-width="0.5"/>
<text x="341.2" y="241" text-anchor="middle" font-size="6.5" fill="#666">Feb 13</text>
<text x="341.2" y="249" text-anchor="middle" font-size="6.5" fill="#666">10:42</text>
<line x1="411.9" y1="228" x2="411.9" y2="231" stroke="#333" stroke-width="0.5"/>
<text x="411.9" y="241" text-anchor="middle" font-size="6.5" fill="#666">Feb 13</text>
<text x="411.9" y="249" text-anchor="middle" font-size="6.5" fill="#666">10:43</text>
<line x1="482.7" y1="228" x2="482.7" y2="231" stroke="#333" stroke-width="0.5"/>
<text x="482.7" y="241" text-anchor="middle" font-size="6.5" fill="#666">Feb 13</text>
<text x="482.7" y="249" text-anchor="middle" font-size="6.5" fill="#666">10:44</text>
<line x1="553.5" y1="228" x2="553.5" y2="231" stroke="#333" stroke-width="0.5"/>
<text x="553.5" y="241" text-anchor="middle" font-size="6.5" fill="#666">Feb 13</text>
<text x="553.5" y="249" text-anchor="middle" font-size="6.5" fill="#666">10:45</text>
<line x1="624.3" y1="228" x2="624.3" y2="231" stroke="#333" stroke-width="0.5"/>
<text x="624.3" y="241" text-anchor="middle" font-size="6.5" fill="#666">Feb 13</text>
<text x="624.3" y="249" text-anchor="middle" font-size="6.5" fill="#666">10:47</text>
<text x="350" y="276" text-anchor="middle" font-size="8" fill="#444">Time (UTC)</text>
<line x1="55" y1="228.0" x2="58" y2="228.0" stroke="#333" stroke-width="0.5"/>
<text x="53" y="231.0" text-anchor="end" font-size="6.5" fill="#4361ee">580</text>
<line x1="55" y1="165.5" x2="58" y2="165.5" stroke="#333" stroke-width="0.5"/>
<text x="53" y="168.5" text-anchor="end" font-size="6.5" fill="#4361ee">590</text>
<line x1="55" y1="103.0" x2="58" y2="103.0" stroke="#333" stroke-width="0.5"/>
<text x="53" y="106.0" text-anchor="end" font-size="6.5" fill="#4361ee">600</text>
<line x1="55" y1="40.5" x2="58" y2="40.5" stroke="#333" stroke-width="0.5"/>
<text x="53" y="43.5" text-anchor="end" font-size="6.5" fill="#4361ee">610</text>
<text x="12" y="128" text-anchor="middle" font-size="8" fill="#4361ee" transform="rotate(-90,12,128)">Bitfields submitted</text>
<line x1="642" y1="191.6" x2="645" y2="191.6" stroke="#333" stroke-width="0.5"/>
<text x="647" y="194.6" text-anchor="start" font-size="6.5" fill="#2d6a4f">96.0%</text>
<line x1="642" y1="118.9" x2="645" y2="118.9" stroke="#333" stroke-width="0.5"/>
<text x="647" y="121.9" text-anchor="start" font-size="6.5" fill="#2d6a4f">98.0%</text>
<line x1="642" y1="46.2" x2="645" y2="46.2" stroke="#333" stroke-width="0.5"/>
<text x="647" y="49.2" text-anchor="start" font-size="6.5" fill="#2d6a4f">100.0%</text>
<text x="688" y="128" text-anchor="middle" font-size="8" fill="#2d6a4f" transform="rotate(90,688,128)">Avg availability (%)</text>
<rect x="519.5" y="29" width="126.5" height="37" rx="2" fill="white" fill-opacity="0.85"/>
<line x1="523.5" y1="34" x2="537.5" y2="34" stroke="#4361ee" stroke-width="1"  opacity="1"/>
<text x="541.5" y="37" font-size="6.5" fill="#444">Bitfields (of 600)</text>
<line x1="523.5" y1="45" x2="537.5" y2="45" stroke="#888" stroke-width="1" stroke-dasharray="4,4" opacity="1"/>
<text x="541.5" y="48" font-size="6.5" fill="#444">Validator count (600)</text>
<line x1="523.5" y1="56" x2="537.5" y2="56" stroke="#2d6a4f" stroke-width="1"  opacity="1"/>
<text x="541.5" y="59" font-size="6.5" fill="#444">Avg core availability</text>
</svg>
