<svg xmlns="http://www.w3.org/2000/svg" viewBox="0 0 700 280" font-family="Helvetica, Arial, sans-serif">
<rect width="700" height="280" fill="#fff"/>
<text x="58" y="14" font-size="10" font-weight="600" fill="#222">DA Throughput &amp; Core Utilization</text>
<text x="58" y="24" font-size="7" fill="#888">100 blocks (29938005…29938104)  ·  cadence 6s  ·  effective_cores 100</text>
<defs><clipPath id="clip"><rect x="58" y="28" width="584" height="200"/></clipPath></defs>
<line x1="58" y1="228.0" x2="642" y2="228.0" stroke="#eee" stroke-width="0.5"/>
<line x1="58" y1="172.4" x2="642" y2="172.4" stroke="#eee" stroke-width="0.5"/>
<line x1="58" y1="116.9" x2="642" y2="116.9" stroke="#eee" stroke-width="0.5"/>
<line x1="58" y1="61.3" x2="642" y2="61.3" stroke="#eee" stroke-width="0.5"/>
<line clip-path="url(#clip)" x1="58" y1="42.8" x2="642" y2="42.8" stroke="#2d6a4f" stroke-width="1" stroke-dasharray="6,3"/>
<polygon clip-path="url(#clip)" fill="#4361ee" opacity="0.1" points="58.0,228.0 58.0,192.8 63.9,179.9 69.8,187.3 75.7,172.4 81.6,185.4 87.5,168.7 93.4,185.4 99.3,172.4 105.2,181.7 111.1,172.4 117.0,181.7 122.9,168.7 128.8,194.7 134.7,178.0 140.6,181.7 146.5,172.4 152.4,183.6 158.3,176.1 164.2,178.0 170.1,168.7 176.0,178.0 181.9,170.6 187.8,181.7 193.7,170.6 199.6,179.9 205.5,174.3 211.4,179.9 217.3,174.3 223.2,181.7 229.1,172.4 235.0,181.7 240.9,178.0 246.8,187.3 252.7,179.9 258.6,181.7 264.5,168.7 270.4,181.7 276.3,170.6 282.2,185.4 288.1,174.3 294.0,181.7 299.9,168.7 305.8,181.7 311.7,168.7 317.6,185.4 323.5,176.1 329.4,179.9 335.3,172.4 341.2,185.4 347.1,172.4 352.9,191.0 358.8,174.3 364.7,183.6 370.6,172.4 376.5,183.6 382.4,168.7 388.3,179.9 394.2,170.6 400.1,181.7 406.0,170.6 411.9,179.9 417.8,168.7 423.7,189.1 429.6,172.4 435.5,183.6 441.4,181.7 447.3,179.9 453.2,170.6 459.1,183.6 465.0,172.4 470.9,183.6 476.8,170.6 482.7,185.4 488.6,170.6 494.5,185.4 500.4,168.7 506.3,191.0 512.2,176.1 518.1,179.9 524.0,168.7 529.9,181.7 535.8,166.9 541.7,179.9 547.6,168.7 553.5,187.3 559.4,166.9 565.3,185.4 571.2,170.6 577.1,185.4 583.0,174.3 588.9,187.3 594.8,166.9 600.7,183.6 606.6,168.7 612.5,185.4 618.4,178.0 624.3,187.3 630.2,178.0 636.1,185.4 642.0,170.6 642.0,228.0"/>
<polyline clip-path="url(#clip)" fill="none" stroke="#4361ee" stroke-width="1.2" opacity="1"  points="58.0,192.8 63.9,179.9 69.8,187.3 75.7,172.4 81.6,185.4 87.5,168.7 93.4,185.4 99.3,172.4 105.2,181.7 111.1,172.4 117.0,181.7 122.9,168.7 128.8,194.7 134.7,178.0 140.6,181.7 146.5,172.4 152.4,183.6 158.3,176.1 164.2,178.0 170.1,168.7 176.0,178.0 181.9,170.6 187.8,181.7 193.7,170.6 199.6,179.9 205.5,174.3 211.4,179.9 217.3,174.3 223.2,181.7 229.1,172.4 235.0,181.7 240.9,178.0 246.8,187.3 252.7,179.9 258.6,181.7 264.5,168.7 270.4,181.7 276.3,170.6 282.2,185.4 288.1,174.3 294.0,181.7 299.9,168.7 305.8,181.7 311.7,168.7 317.6,185.4 323.5,176.1 329.4,179.9 335.3,172.4 341.2,185.4 347.1,172.4 352.9,191.0 358.8,174.3 364.7,183.6 370.6,172.4 376.5,183.6 382.4,168.7 388.3,179.9 394.2,170.6 400.1,181.7 406.0,170.6 411.9,179.9 417.8,168.7 423.7,189.1 429.6,172.4 435.5,183.6 441.4,181.7 447.3,179.9 453.2,170.6 459.1,183.6 465.0,172.4 470.9,183.6 476.8,170.6 482.7,185.4 488.6,170.6 494.5,185.4 500.4,168.7 506.3,191.0 512.2,176.1 518.1,179.9 524.0,168.7 529.9,181.7 535.8,166.9 541.7,179.9 547.6,168.7 553.5,187.3 559.4,166.9 565.3,185.4 571.2,170.6 577.1,185.4 583.0,174.3 588.9,187.3 594.8,166.9 600.7,183.6 606.6,168.7 612.5,185.4 618.4,178.0 624.3,187.3 630.2,178.0 636.1,185.4 642.0,170.6"/>
<polyline clip-path="url(#clip)" fill="none" stroke="#e63946" stroke-width="1" opacity="0.7"  points="58.0,191.8 63.9,178.5 69.8,186.1 75.7,170.9 81.6,184.2 87.5,167.0 93.4,184.2 99.3,170.9 105.2,180.4 111.1,170.9 117.0,180.4 122.9,167.0 128.8,193.7 134.7,176.6 140.6,180.4 146.5,170.9 152.4,182.3 158.3,174.7 164.2,176.6 170.1,167.0 176.0,176.6 181.9,169.0 187.8,180.4 193.7,169.0 199.6,178.5 205.5,172.8 211.4,178.5 217.3,172.8 223.2,180.4 229.1,170.9 235.0,180.4 240.9,176.6 246.8,186.1 252.7,178.5 258.6,180.4 264.5,167.0 270.4,180.4 276.3,169.0 282.2,184.2 288.1,172.8 294.0,180.4 299.9,167.0 305.8,180.4 311.7,167.0 317.6,184.2 323.5,174.7 329.4,178.5 335.3,170.9 341.2,184.2 347.1,170.9 352.9,189.9 358.8,172.8 364.7,182.3 370.6,170.9 376.5,182.3 382.4,167.0 388.3,178.5 394.2,169.0 400.1,180.4 406.0,169.0 411.9,178.5 417.8,167.0 423.7,188.0 429.6,170.9 435.5,182.3 441.4,180.4 447.3,178.5 453.2,169.0 459.1,182.3 465.0,170.9 470.9,182.3 476.8,169.0 482.7,184.2 488.6,169.0 494.5,184.2 500.4,167.0 506.3,189.9 512.2,174.7 518.1,178.5 524.0,167.0 529.9,180.4 535.8,165.1 541.7,178.5 547.6,167.0 553.5,186.1 559.4,165.1 565.3,184.2 571.2,169.0 577.1,184.2 583.0,172.8 588.9,186.1 594.8,165.1 600.7,182.3 606.6,167.0 612.5,184.2 618.4,176.6 624.3,186.1 630.2,176.6 636.1,184.2 642.0,169.0"/>
<line x1="58" y1="28" x2="58" y2="228" stroke="#333" stroke-width="0.7"/>
<line x1="58" y1="228" x2="642" y2="228" stroke="#333" stroke-width="0.7"/>
<line x1="642" y1="28" x2="642" y2="228" stroke="#333" stroke-width="0.7"/>
<line x1="58.0" y1="228" x2="58.0" y2="231" stroke="#333" stroke-width="0.5"/>
<text x="58.0" y="241" text-anchor="middle" font-size="6.5" fill="#666">Feb 13</text>
<text x="58.0" y="249" text-anchor="middle" font-size="6.5" fill="#666">10:37</text>
<line x1="128.8" y1="228" x2="128.8" y2="231" stroke="#333" stroke-width="0.5"/>
<text x="128.8" y="241" text-anchor="middle" font-size="6.5" fill="#666">Feb 13</text>
<text x="128.8" y="249" text-anchor="middle" font-size="6.5" fill="#666">10:38</text>
<line x1="199.6" y1="228" x2="199.6" y2="231" stroke="#333" stroke-width="0.5"/>
<text x="199.6" y="241" text-anchor="middle" font-size="6.5" fill="#666">Feb 13</text>
<text x="199.6" y="249" text-anchor="middle" font-size="6.5" fill="#666">10:39</text>
<line x1="270.4" y1="228" x2="270.4" y2="231" stroke="#333" stroke-width="0.5"/>
<text x="270.4" y="241" text-anchor="middle" font-size="6.5" fill="#666">Feb 13</text>
<text x="270.4" y="249" text-anchor="middle" font-size="6.5" fill="#666">10:41</text>
<line x1="341.2" y1="228" x2="341.2" y2="231" stroke="#333" stroke-width="0.5"/>
<text x="341.2" y="241" text-anchor="middle" font-size="6.5" fill="#666">Feb 13</text>
<text x="341.2" y="249" text-anchor="middle" font-size="6.5" fill="#666">10:42</text>
<line x1="411.9" y1="228" x2="411.9" y2="231" stroke="#333" stroke-width="0.5"/>
<text x="411.9" y="241" text-anchor="middle" font-size="6.5" fill="#666">Feb 13</text>
<text x="411.9" y="249" text-anchor="middle" font-size="6.5" fill="#666">10:43</text>
<line x1="482.7" y1="228" x2="482.7" y2="231" stroke="#333" stroke-width="0.5"/>
<text x="482.7" y="241" text-anchor="middle" font-size="6.5" fill="#666">Feb 13</text>
<text x="482.7" y="249" text-anchor="middle" font-size="6.5" fill="#666">10:44</text>
<line x1="553.5" y1="228" x2="553.5" y2="231" stroke="#333" stroke-width="0.5"/>
<text x="553.5" y="241" text-anchor="middle" font-size="6.5" fill="#666">Feb 13</text>
<text x="553.5" y="249" text-anchor="middle" font-size="6.5" fill="#666">10:45</text>
<line x1="624.3" y1="228" x2="624.3" y2="231" stroke="#333" stroke-width="0.5"/>
<text x="624.3" y="241" text-anchor="middle" font-size="6.5" fill="#666">Feb 13</text>
<text x="624.3" y="249" text-anchor="middle" font-size="6.5" fill="#666">10:47</text>
<text x="350" y="276" text-anchor="middle" font-size="8" fill="#444">Time (UTC)</text>
<line x1="55" y1="228.0" x2="58" y2="228.0" stroke="#333" stroke-width="0.5"/>
<text x="53" y="231.0" text-anchor="end" font-size="6.5" fill="#4361ee">0</text>
<line x1="55" y1="172.4" x2="58" y2="172.4" stroke="#333" stroke-width="0.5"/>
<text x="53" y="175.4" text-anchor="end" font-size="6.5" fill="#4361ee">50</text>
<line x1="55" y1="116.9" x2="58" y2="116.9" stroke="#333" stroke-width="0.5"/>
<text x="53" y="119.9" text-anchor="end" font-size="6.5" fill="#4361ee">100</text>
<line x1="55" y1="61.3" x2="58" y2="61.3" stroke="#333" stroke-width="0.5"/>
<text x="53" y="64.3" text-anchor="end" font-size="6.5" fill="#4361ee">150</text>
<text x="12" y="128" text-anchor="middle" font-size="8" fill="#4361ee" transform="rotate(-90,12,128)">Throughput (MiB/s)</text>
<line x1="642" y1="228.0" x2="645" y2="228.0" stroke="#333" stroke-width="0.5"/>
<text x="647" y="231.0" text-anchor="start" font-size="6.5" fill="#e63946">0%</text>
<line x1="642" y1="132.8" x2="645" y2="132.8" stroke="#333" stroke-width="0.5"/>
<text x="647" y="135.8" text-anchor="start" font-size="6.5" fill="#e63946">50%</text>
<line x1="642" y1="37.5" x2="645" y2="37.5" stroke="#333" stroke-width="0.5"/>
<text x="647" y="40.5" text-anchor="start" font-size="6.5" fill="#e63946">100%</text>
<text x="688" y="128" text-anchor="middle" font-size="8" fill="#e63946" transform="rotate(90,688,128)">Core utilization (%)</text>
<rect x="497" y="29" width="149" height="37" rx="2" fill="white" fill-opacity="0.85"/>
<line x1="501" y1="34" x2="515" y2="34" stroke="#4361ee" stroke-width="1.2"  opacity="1"/>
<text x="519" y="37" font-size="6.5" fill="#444">Used throughput (MiB/s)</text>
<line x1="501" y1="45" x2="515" y2="45" stroke="#2d6a4f" stroke-width="1" stroke-dasharray="6,3" opacity="1"/>
<text x="519" y="48" font-size="6.5" fill="#444">Protocol max (166.7 MiB/s)</text>
<line x1="501" y1="56" x2="515" y2="56" stroke="#e63946" stroke-width="1"  opacity="0.7"/>
<text x="519" y="59" font-size="6.5" fill="#444">Core utilization (%)</text>
</svg>
