<?xml version="1.0" encoding="utf-8" standalone="no"?>
<!DOCTYPE svg PUBLIC "-//W3C//DTD SVG 1.1//EN"
  "http://www.w3.org/Graphics/SVG/1.1/DTD/svg11.dtd">
<svg xmlns:xlink="http://www.w3.org/1999/xlink" width="511.577812pt" height="203.150187pt" viewBox="0 0 511.577812 203.150187" xmlns="http://www.w3.org/2000/svg" version="1.1">
 <metadata>
  <rdf:RDF xmlns:dc="http://purl.org/dc/elements/1.1/" xmlns:cc="http://creativecommons.org/ns#" xmlns:rdf="http://www.w3.org/1999/02/22-rdf-syntax-ns#">
   <cc:Work>
    <dc:type rdf:resource="http://purl.org/dc/dcmitype/StillImage"/>
    <dc:date>2026-02-16T14:45:32.916694</dc:date>
    <dc:format>image/svg+xml</dc:format>
    <dc:creator>
     <cc:Agent>
      <dc:title>Matplotlib v3.10.8, https://matplotlib.org/</dc:title>
     </cc:Agent>
    </dc:creator>
   </cc:Work>
  </rdf:RDF>
 </metadata>
 <defs>
  <style type="text/css">*{stroke-linejoin: round; stroke-linecap: butt}</style>
 </defs>
 <g id="figure_1">
  <g id="patch_1">
   <path d="M 0 203.150187 
L 511.577812 203.150187 
L 511.577812 0 
L 0 0 
z
" style="fill: #ffffff"/>
  </g>
  <g id="axes_1">
   <g id="patch_2">
    <path d="M 48.322812 164.11561 
L 500.777813 164.11561 
L 500.777813 25.158281 
L 48.322812 25.158281 
z
" style="fill: #ffffff"/>
   </g>
   <g id="FillBetweenPolyCollection_1">
    <defs>
     <path id="m5a133d223d" d="M 68.888949 -153.208807 
L 68.888949 -146.083135 
L 73.459201 -141.263456 
L 78.029454 -140.906587 
L 82.599706 -133.968424 
L 87.169959 -126.715456 
L 91.740211 -115.003495 
L 96.310464 -117.005285 
L 100.880717 -122.936701 
L 105.450969 -123.477941 
L 110.021222 -131.077685 
L 114.591474 -133.144861 
L 119.161727 -140.696859 
L 123.731979 -141.326129 
L 128.302232 -139.641857 
L 132.872484 -140.050458 
L 137.442737 -118.807608 
L 142.012989 -123.386519 
L 146.583242 -142.786933 
L 151.153494 -152.421881 
L 155.723747 -142.730366 
L 160.293999 -142.769463 
L 164.864252 -143.221231 
L 169.434504 -148.818337 
L 174.004757 -149.658353 
L 178.575009 -166.86243 
L 183.145262 -155.844785 
L 187.715515 -146.646594 
L 192.285767 -147.837796 
L 196.85602 -147.559035 
L 201.426272 -135.179386 
L 205.996525 -134.106914 
L 210.566777 -125.307487 
L 215.13703 -125.688187 
L 219.707282 -126.200337 
L 224.277535 -138.454811 
L 228.847787 -137.988117 
L 233.41804 -139.870667 
L 237.988292 -134.630684 
L 242.558545 -134.019308 
L 247.128797 -134.110561 
L 251.69905 -133.436683 
L 256.269302 -134.219708 
L 260.839555 -134.785118 
L 265.409807 -134.254055 
L 269.98006 -134.996881 
L 274.550313 -137.728352 
L 279.120565 -138.230665 
L 283.690818 -140.62596 
L 288.26107 -148.934014 
L 292.831323 -151.74249 
L 297.401575 -153.681014 
L 301.971828 -158.926594 
L 306.54208 -152.976266 
L 311.112333 -148.585118 
L 315.682585 -147.07063 
L 320.252838 -147.401463 
L 324.82309 -148.181096 
L 329.393343 -148.994652 
L 333.963595 -149.074794 
L 338.533848 -166.415072 
L 343.1041 -164.996162 
L 347.674353 -164.02724 
L 352.244605 -165.123203 
L 356.814858 -166.289811 
L 361.38511 -157.698501 
L 365.955363 -139.839458 
L 370.525616 -134.244132 
L 375.095868 -135.579337 
L 379.666121 -134.187481 
L 384.236373 -136.309018 
L 388.806626 -124.779477 
L 393.376878 -127.921161 
L 397.947131 -132.909352 
L 402.517383 -140.682103 
L 407.087636 -123.975081 
L 411.657888 -115.593499 
L 416.228141 -88.977178 
L 420.798393 -81.958702 
L 425.368646 -75.309562 
L 429.938898 -73.894469 
L 434.509151 -66.149704 
L 439.079403 -46.433044 
L 443.649656 -45.350819 
L 448.219908 -57.183885 
L 452.790161 -62.485608 
L 457.360414 -58.142207 
L 461.930666 -56.330894 
L 466.500919 -50.058043 
L 471.071171 -48.584264 
L 475.641424 -50.154215 
L 480.211676 -59.930706 
L 480.211676 -62.526146 
L 480.211676 -62.526146 
L 475.641424 -60.733915 
L 471.071171 -54.612445 
L 466.500919 -57.352651 
L 461.930666 -64.416329 
L 457.360414 -66.449837 
L 452.790161 -66.342895 
L 448.219908 -63.677234 
L 443.649656 -60.895303 
L 439.079403 -67.567426 
L 434.509151 -79.093575 
L 429.938898 -84.872593 
L 425.368646 -85.661979 
L 420.798393 -93.679484 
L 416.228141 -115.090931 
L 411.657888 -119.738536 
L 407.087636 -138.8512 
L 402.517383 -142.749024 
L 397.947131 -140.994702 
L 393.376878 -133.901002 
L 388.806626 -136.212253 
L 384.236373 -137.058036 
L 379.666121 -138.207937 
L 375.095868 -141.969731 
L 370.525616 -142.080574 
L 365.955363 -156.337769 
L 361.38511 -159.351818 
L 356.814858 -169.666156 
L 352.244605 -167.453366 
L 347.674353 -167.108625 
L 343.1041 -171.311501 
L 338.533848 -171.675663 
L 333.963595 -158.145435 
L 329.393343 -153.594425 
L 324.82309 -150.874658 
L 320.252838 -148.421355 
L 315.682585 -150.333249 
L 311.112333 -154.350227 
L 306.54208 -162.945693 
L 301.971828 -163.604645 
L 297.401575 -160.288174 
L 292.831323 -153.09101 
L 288.26107 -151.107708 
L 283.690818 -150.97507 
L 279.120565 -139.466222 
L 274.550313 -139.485134 
L 269.98006 -139.198909 
L 265.409807 -143.407637 
L 260.839555 -136.057819 
L 256.269302 -134.827012 
L 251.69905 -138.24186 
L 247.128797 -136.624247 
L 242.558545 -137.319581 
L 237.988292 -140.827971 
L 233.41804 -145.276449 
L 228.847787 -140.127972 
L 224.277535 -139.244366 
L 219.707282 -138.979513 
L 215.13703 -135.982341 
L 210.566777 -136.864166 
L 205.996525 -137.033102 
L 201.426272 -153.752676 
L 196.85602 -150.721581 
L 192.285767 -150.615148 
L 187.715515 -161.735579 
L 183.145262 -162.006962 
L 178.575009 -171.657769 
L 174.004757 -171.563633 
L 169.434504 -153.043518 
L 164.864252 -151.316419 
L 160.293999 -144.797882 
L 155.723747 -155.142412 
L 151.153494 -158.036034 
L 146.583242 -151.992671 
L 142.012989 -141.927157 
L 137.442737 -127.242109 
L 132.872484 -143.876451 
L 128.302232 -143.463101 
L 123.731979 -146.038781 
L 119.161727 -143.849143 
L 114.591474 -142.63623 
L 110.021222 -135.770153 
L 105.450969 -136.823798 
L 100.880717 -126.721817 
L 96.310464 -120.779291 
L 91.740211 -125.930905 
L 87.169959 -143.792322 
L 82.599706 -149.096251 
L 78.029454 -152.201043 
L 73.459201 -157.042941 
L 68.888949 -153.208807 
z
" style="stroke: #b3cde3; stroke-opacity: 0.4"/>
    </defs>
    <g clip-path="url(#p978c5492da)">
     <use xlink:href="#m5a133d223d" x="0" y="203.150187" style="fill: #b3cde3; fill-opacity: 0.4; stroke: #b3cde3; stroke-opacity: 0.4"/>
    </g>
   </g>
   <g id="matplotlib.axis_1">
    <g id="xtick_1">
     <g id="line2d_1">
      <path d="M 78.029454 164.11561 
L 78.029454 25.158281 
" clip-path="url(#p978c5492da)" style="fill: none; stroke: #b0b0b0; stroke-opacity: 0.25; stroke-width: 0.5; stroke-linecap: square"/>
     </g>
     <g id="line2d_2">
      <defs>
       <path id="m675e4df755" d="M 0 0 
L 0 3.5 
" style="stroke: #000000; stroke-width: 0.8"/>
      </defs>
      <g>
       <use xlink:href="#m675e4df755" x="78.029454" y="164.11561" style="stroke: #000000; stroke-width: 0.8"/>
      </g>
     </g>
     <g id="text_1">
      <!-- Nov 18 -->
      <g transform="translate(52.031963 190.909337) rotate(-30) scale(0.08 -0.08)">
       <defs>
        <path id="DejaVuSerif-4e" d="M 313 0 
L 313 331 
L 941 331 
L 941 4331 
L 313 4331 
L 313 4666 
L 1509 4666 
L 4306 984 
L 4306 4331 
L 3681 4331 
L 3681 4666 
L 5319 4666 
L 5319 4331 
L 4691 4331 
L 4691 -91 
L 4313 -91 
L 1325 3841 
L 1325 331 
L 1953 331 
L 1953 0 
L 313 0 
z
" transform="scale(0.015625)"/>
        <path id="DejaVuSerif-6f" d="M 1925 219 
Q 2388 219 2623 584 
Q 2859 950 2859 1663 
Q 2859 2375 2623 2739 
Q 2388 3103 1925 3103 
Q 1463 3103 1227 2739 
Q 991 2375 991 1663 
Q 991 950 1228 584 
Q 1466 219 1925 219 
z
M 1925 -91 
Q 1200 -91 759 389 
Q 319 869 319 1663 
Q 319 2456 758 2934 
Q 1197 3413 1925 3413 
Q 2653 3413 3092 2934 
Q 3531 2456 3531 1663 
Q 3531 869 3092 389 
Q 2653 -91 1925 -91 
z
" transform="scale(0.015625)"/>
        <path id="DejaVuSerif-76" d="M 1581 0 
L 359 2988 
L -19 2988 
L -19 3322 
L 1509 3322 
L 1509 2988 
L 978 2988 
L 1913 703 
L 2847 2988 
L 2350 2988 
L 2350 3322 
L 3597 3322 
L 3597 2988 
L 3225 2988 
L 2003 0 
L 1581 0 
z
" transform="scale(0.015625)"/>
        <path id="DejaVuSerif-20" transform="scale(0.015625)"/>
        <path id="DejaVuSerif-31" d="M 909 0 
L 909 331 
L 1722 331 
L 1722 4213 
L 781 3603 
L 781 4013 
L 1919 4750 
L 2350 4750 
L 2350 331 
L 3163 331 
L 3163 0 
L 909 0 
z
" transform="scale(0.015625)"/>
        <path id="DejaVuSerif-38" d="M 2981 1275 
Q 2981 1775 2732 2051 
Q 2484 2328 2034 2328 
Q 1584 2328 1336 2051 
Q 1088 1775 1088 1275 
Q 1088 772 1336 495 
Q 1584 219 2034 219 
Q 2484 219 2732 495 
Q 2981 772 2981 1275 
z
M 2853 3541 
Q 2853 3966 2637 4203 
Q 2422 4441 2034 4441 
Q 1650 4441 1433 4203 
Q 1216 3966 1216 3541 
Q 1216 3113 1433 2875 
Q 1650 2638 2034 2638 
Q 2422 2638 2637 2875 
Q 2853 3113 2853 3541 
z
M 2516 2484 
Q 3047 2413 3344 2092 
Q 3641 1772 3641 1275 
Q 3641 619 3225 264 
Q 2809 -91 2034 -91 
Q 1263 -91 845 264 
Q 428 619 428 1275 
Q 428 1772 725 2092 
Q 1022 2413 1556 2484 
Q 1084 2569 832 2842 
Q 581 3116 581 3541 
Q 581 4103 968 4426 
Q 1356 4750 2034 4750 
Q 2713 4750 3100 4426 
Q 3488 4103 3488 3541 
Q 3488 3116 3236 2842 
Q 2984 2569 2516 2484 
z
" transform="scale(0.015625)"/>
       </defs>
       <use xlink:href="#DejaVuSerif-4e"/>
       <use xlink:href="#DejaVuSerif-6f" transform="translate(87.5 0)"/>
       <use xlink:href="#DejaVuSerif-76" transform="translate(147.705078 0)"/>
       <use xlink:href="#DejaVuSerif-20" transform="translate(204.199219 0)"/>
       <use xlink:href="#DejaVuSerif-31" transform="translate(235.986328 0)"/>
       <use xlink:href="#DejaVuSerif-38" transform="translate(299.609375 0)"/>
      </g>
     </g>
    </g>
    <g id="xtick_2">
     <g id="line2d_3">
      <path d="M 142.012989 164.11561 
L 142.012989 25.158281 
" clip-path="url(#p978c5492da)" style="fill: none; stroke: #b0b0b0; stroke-opacity: 0.25; stroke-width: 0.5; stroke-linecap: square"/>
     </g>
     <g id="line2d_4">
      <g>
       <use xlink:href="#m675e4df755" x="142.012989" y="164.11561" style="stroke: #000000; stroke-width: 0.8"/>
      </g>
     </g>
     <g id="text_2">
      <!-- Dec 02 -->
      <g transform="translate(116.628212 190.555587) rotate(-30) scale(0.08 -0.08)">
       <defs>
        <path id="DejaVuSerif-44" d="M 1581 331 
L 2163 331 
Q 3072 331 3558 850 
Q 4044 1369 4044 2338 
Q 4044 3306 3559 3818 
Q 3075 4331 2163 4331 
L 1581 4331 
L 1581 331 
z
M 353 0 
L 353 331 
L 947 331 
L 947 4331 
L 353 4331 
L 353 4666 
L 2209 4666 
Q 3416 4666 4089 4050 
Q 4763 3434 4763 2338 
Q 4763 1238 4088 619 
Q 3413 0 2209 0 
L 353 0 
z
" transform="scale(0.015625)"/>
        <path id="DejaVuSerif-65" d="M 3469 1600 
L 991 1600 
L 991 1575 
Q 991 903 1244 561 
Q 1497 219 1991 219 
Q 2369 219 2611 417 
Q 2853 616 2950 1006 
L 3413 1006 
Q 3275 459 2904 184 
Q 2534 -91 1931 -91 
Q 1203 -91 761 389 
Q 319 869 319 1663 
Q 319 2450 753 2931 
Q 1188 3413 1894 3413 
Q 2647 3413 3050 2948 
Q 3453 2484 3469 1600 
z
M 2791 1931 
Q 2772 2513 2545 2808 
Q 2319 3103 1894 3103 
Q 1497 3103 1269 2806 
Q 1041 2509 991 1931 
L 2791 1931 
z
" transform="scale(0.015625)"/>
        <path id="DejaVuSerif-63" d="M 3291 997 
Q 3169 466 2822 187 
Q 2475 -91 1925 -91 
Q 1200 -91 759 389 
Q 319 869 319 1663 
Q 319 2459 759 2936 
Q 1200 3413 1925 3413 
Q 2241 3413 2553 3339 
Q 2866 3266 3181 3116 
L 3181 2266 
L 2847 2266 
Q 2781 2703 2561 2903 
Q 2341 3103 1931 3103 
Q 1466 3103 1228 2742 
Q 991 2381 991 1663 
Q 991 944 1227 581 
Q 1463 219 1931 219 
Q 2303 219 2525 412 
Q 2747 606 2828 997 
L 3291 997 
z
" transform="scale(0.015625)"/>
        <path id="DejaVuSerif-30" d="M 2034 219 
Q 2513 219 2750 744 
Q 2988 1269 2988 2328 
Q 2988 3391 2750 3916 
Q 2513 4441 2034 4441 
Q 1556 4441 1318 3916 
Q 1081 3391 1081 2328 
Q 1081 1269 1318 744 
Q 1556 219 2034 219 
z
M 2034 -91 
Q 1275 -91 848 546 
Q 422 1184 422 2328 
Q 422 3475 848 4112 
Q 1275 4750 2034 4750 
Q 2797 4750 3222 4112 
Q 3647 3475 3647 2328 
Q 3647 1184 3222 546 
Q 2797 -91 2034 -91 
z
" transform="scale(0.015625)"/>
        <path id="DejaVuSerif-32" d="M 819 3553 
L 469 3553 
L 469 4384 
Q 803 4563 1142 4656 
Q 1481 4750 1806 4750 
Q 2534 4750 2956 4397 
Q 3378 4044 3378 3438 
Q 3378 2753 2422 1800 
Q 2347 1728 2309 1691 
L 1131 513 
L 3078 513 
L 3078 1088 
L 3444 1088 
L 3444 0 
L 434 0 
L 434 341 
L 1850 1753 
Q 2319 2222 2519 2614 
Q 2719 3006 2719 3438 
Q 2719 3909 2473 4175 
Q 2228 4441 1797 4441 
Q 1350 4441 1106 4219 
Q 863 3997 819 3553 
z
" transform="scale(0.015625)"/>
       </defs>
       <use xlink:href="#DejaVuSerif-44"/>
       <use xlink:href="#DejaVuSerif-65" transform="translate(80.175781 0)"/>
       <use xlink:href="#DejaVuSerif-63" transform="translate(139.355469 0)"/>
       <use xlink:href="#DejaVuSerif-20" transform="translate(195.361328 0)"/>
       <use xlink:href="#DejaVuSerif-30" transform="translate(227.148438 0)"/>
       <use xlink:href="#DejaVuSerif-32" transform="translate(290.771484 0)"/>
      </g>
     </g>
    </g>
    <g id="xtick_3">
     <g id="line2d_5">
      <path d="M 205.996525 164.11561 
L 205.996525 25.158281 
" clip-path="url(#p978c5492da)" style="fill: none; stroke: #b0b0b0; stroke-opacity: 0.25; stroke-width: 0.5; stroke-linecap: square"/>
     </g>
     <g id="line2d_6">
      <g>
       <use xlink:href="#m675e4df755" x="205.996525" y="164.11561" style="stroke: #000000; stroke-width: 0.8"/>
      </g>
     </g>
     <g id="text_3">
      <!-- Dec 16 -->
      <g transform="translate(180.611747 190.555587) rotate(-30) scale(0.08 -0.08)">
       <defs>
        <path id="DejaVuSerif-36" d="M 2094 219 
Q 2534 219 2771 542 
Q 3009 866 3009 1472 
Q 3009 2078 2771 2401 
Q 2534 2725 2094 2725 
Q 1647 2725 1412 2412 
Q 1178 2100 1178 1509 
Q 1178 888 1415 553 
Q 1653 219 2094 219 
z
M 1075 2569 
Q 1288 2803 1556 2918 
Q 1825 3034 2163 3034 
Q 2859 3034 3264 2615 
Q 3669 2197 3669 1472 
Q 3669 763 3233 336 
Q 2797 -91 2069 -91 
Q 1278 -91 853 498 
Q 428 1088 428 2181 
Q 428 3406 931 4078 
Q 1434 4750 2350 4750 
Q 2597 4750 2869 4703 
Q 3141 4656 3425 4563 
L 3425 3794 
L 3072 3794 
Q 3034 4109 2831 4275 
Q 2628 4441 2284 4441 
Q 1678 4441 1381 3981 
Q 1084 3522 1075 2569 
z
" transform="scale(0.015625)"/>
       </defs>
       <use xlink:href="#DejaVuSerif-44"/>
       <use xlink:href="#DejaVuSerif-65" transform="translate(80.175781 0)"/>
       <use xlink:href="#DejaVuSerif-63" transform="translate(139.355469 0)"/>
       <use xlink:href="#DejaVuSerif-20" transform="translate(195.361328 0)"/>
       <use xlink:href="#DejaVuSerif-31" transform="translate(227.148438 0)"/>
       <use xlink:href="#DejaVuSerif-36" transform="translate(290.771484 0)"/>
      </g>
     </g>
    </g>
    <g id="xtick_4">
     <g id="line2d_7">
      <path d="M 269.98006 164.11561 
L 269.98006 25.158281 
" clip-path="url(#p978c5492da)" style="fill: none; stroke: #b0b0b0; stroke-opacity: 0.25; stroke-width: 0.5; stroke-linecap: square"/>
     </g>
     <g id="line2d_8">
      <g>
       <use xlink:href="#m675e4df755" x="269.98006" y="164.11561" style="stroke: #000000; stroke-width: 0.8"/>
      </g>
     </g>
     <g id="text_4">
      <!-- Dec 30 -->
      <g transform="translate(244.595282 190.555587) rotate(-30) scale(0.08 -0.08)">
       <defs>
        <path id="DejaVuSerif-33" d="M 622 4469 
Q 988 4606 1323 4678 
Q 1659 4750 1953 4750 
Q 2638 4750 3022 4454 
Q 3406 4159 3406 3634 
Q 3406 3213 3140 2930 
Q 2875 2647 2388 2547 
Q 2963 2466 3280 2130 
Q 3597 1794 3597 1259 
Q 3597 606 3158 257 
Q 2719 -91 1894 -91 
Q 1528 -91 1179 -12 
Q 831 66 488 225 
L 488 1131 
L 838 1131 
Q 869 681 1141 450 
Q 1413 219 1906 219 
Q 2384 219 2661 495 
Q 2938 772 2938 1253 
Q 2938 1803 2653 2086 
Q 2369 2369 1819 2369 
L 1522 2369 
L 1522 2688 
L 1678 2688 
Q 2225 2688 2498 2914 
Q 2772 3141 2772 3597 
Q 2772 4006 2547 4223 
Q 2322 4441 1900 4441 
Q 1478 4441 1245 4241 
Q 1013 4041 972 3647 
L 622 3647 
L 622 4469 
z
" transform="scale(0.015625)"/>
       </defs>
       <use xlink:href="#DejaVuSerif-44"/>
       <use xlink:href="#DejaVuSerif-65" transform="translate(80.175781 0)"/>
       <use xlink:href="#DejaVuSerif-63" transform="translate(139.355469 0)"/>
       <use xlink:href="#DejaVuSerif-20" transform="translate(195.361328 0)"/>
       <use xlink:href="#DejaVuSerif-33" transform="translate(227.148438 0)"/>
       <use xlink:href="#DejaVuSerif-30" transform="translate(290.771484 0)"/>
      </g>
     </g>
    </g>
    <g id="xtick_5">
     <g id="line2d_9">
      <path d="M 333.963595 164.11561 
L 333.963595 25.158281 
" clip-path="url(#p978c5492da)" style="fill: none; stroke: #b0b0b0; stroke-opacity: 0.25; stroke-width: 0.5; stroke-linecap: square"/>
     </g>
     <g id="line2d_10">
      <g>
       <use xlink:href="#m675e4df755" x="333.963595" y="164.11561" style="stroke: #000000; stroke-width: 0.8"/>
      </g>
     </g>
     <g id="text_5">
      <!-- Jan 13 -->
      <g transform="translate(310.742799 189.306212) rotate(-30) scale(0.08 -0.08)">
       <defs>
        <path id="DejaVuSerif-4a" d="M -538 -1119 
L -538 -384 
L -181 -384 
Q -172 -694 -34 -845 
Q 103 -997 378 -997 
Q 750 -997 897 -762 
Q 1044 -528 1044 153 
L 1044 4331 
L 319 4331 
L 319 4666 
L 2272 4666 
L 2272 4331 
L 1678 4331 
L 1678 128 
Q 1678 -644 1368 -987 
Q 1059 -1331 372 -1331 
Q 150 -1331 -79 -1278 
Q -309 -1225 -538 -1119 
z
" transform="scale(0.015625)"/>
        <path id="DejaVuSerif-61" d="M 2547 1044 
L 2547 1747 
L 1806 1747 
Q 1378 1747 1168 1562 
Q 959 1378 959 997 
Q 959 650 1171 447 
Q 1384 244 1747 244 
Q 2106 244 2326 466 
Q 2547 688 2547 1044 
z
M 3122 2075 
L 3122 331 
L 3634 331 
L 3634 0 
L 2547 0 
L 2547 359 
Q 2356 128 2106 18 
Q 1856 -91 1522 -91 
Q 969 -91 644 203 
Q 319 497 319 997 
Q 319 1513 691 1797 
Q 1063 2081 1741 2081 
L 2547 2081 
L 2547 2309 
Q 2547 2688 2317 2895 
Q 2088 3103 1672 3103 
Q 1328 3103 1125 2947 
Q 922 2791 872 2484 
L 575 2484 
L 575 3156 
Q 875 3284 1158 3348 
Q 1441 3413 1709 3413 
Q 2400 3413 2761 3070 
Q 3122 2728 3122 2075 
z
" transform="scale(0.015625)"/>
        <path id="DejaVuSerif-6e" d="M 263 0 
L 263 331 
L 781 331 
L 781 2988 
L 231 2988 
L 231 3322 
L 1356 3322 
L 1356 2731 
Q 1516 3069 1770 3241 
Q 2025 3413 2363 3413 
Q 2913 3413 3172 3097 
Q 3431 2781 3431 2113 
L 3431 331 
L 3944 331 
L 3944 0 
L 2356 0 
L 2356 331 
L 2853 331 
L 2853 1931 
Q 2853 2541 2703 2767 
Q 2553 2994 2175 2994 
Q 1775 2994 1565 2701 
Q 1356 2409 1356 1850 
L 1356 331 
L 1856 331 
L 1856 0 
L 263 0 
z
" transform="scale(0.015625)"/>
       </defs>
       <use xlink:href="#DejaVuSerif-4a"/>
       <use xlink:href="#DejaVuSerif-61" transform="translate(40.087891 0)"/>
       <use xlink:href="#DejaVuSerif-6e" transform="translate(99.707031 0)"/>
       <use xlink:href="#DejaVuSerif-20" transform="translate(164.111328 0)"/>
       <use xlink:href="#DejaVuSerif-31" transform="translate(195.898438 0)"/>
       <use xlink:href="#DejaVuSerif-33" transform="translate(259.521484 0)"/>
      </g>
     </g>
    </g>
    <g id="xtick_6">
     <g id="line2d_11">
      <path d="M 397.947131 164.11561 
L 397.947131 25.158281 
" clip-path="url(#p978c5492da)" style="fill: none; stroke: #b0b0b0; stroke-opacity: 0.25; stroke-width: 0.5; stroke-linecap: square"/>
     </g>
     <g id="line2d_12">
      <g>
       <use xlink:href="#m675e4df755" x="397.947131" y="164.11561" style="stroke: #000000; stroke-width: 0.8"/>
      </g>
     </g>
     <g id="text_6">
      <!-- Jan 27 -->
      <g transform="translate(374.726334 189.306212) rotate(-30) scale(0.08 -0.08)">
       <defs>
        <path id="DejaVuSerif-37" d="M 3609 4347 
L 1784 0 
L 1319 0 
L 3059 4153 
L 903 4153 
L 903 3578 
L 538 3578 
L 538 4666 
L 3609 4666 
L 3609 4347 
z
" transform="scale(0.015625)"/>
       </defs>
       <use xlink:href="#DejaVuSerif-4a"/>
       <use xlink:href="#DejaVuSerif-61" transform="translate(40.087891 0)"/>
       <use xlink:href="#DejaVuSerif-6e" transform="translate(99.707031 0)"/>
       <use xlink:href="#DejaVuSerif-20" transform="translate(164.111328 0)"/>
       <use xlink:href="#DejaVuSerif-32" transform="translate(195.898438 0)"/>
       <use xlink:href="#DejaVuSerif-37" transform="translate(259.521484 0)"/>
      </g>
     </g>
    </g>
    <g id="xtick_7">
     <g id="line2d_13">
      <path d="M 461.930666 164.11561 
L 461.930666 25.158281 
" clip-path="url(#p978c5492da)" style="fill: none; stroke: #b0b0b0; stroke-opacity: 0.25; stroke-width: 0.5; stroke-linecap: square"/>
     </g>
     <g id="line2d_14">
      <g>
       <use xlink:href="#m675e4df755" x="461.930666" y="164.11561" style="stroke: #000000; stroke-width: 0.8"/>
      </g>
     </g>
     <g id="text_7">
      <!-- Feb 10 -->
      <g transform="translate(437.118548 190.224962) rotate(-30) scale(0.08 -0.08)">
       <defs>
        <path id="DejaVuSerif-46" d="M 353 0 
L 353 331 
L 947 331 
L 947 4331 
L 353 4331 
L 353 4666 
L 4172 4666 
L 4172 3628 
L 3788 3628 
L 3788 4281 
L 1581 4281 
L 1581 2719 
L 3175 2719 
L 3175 3303 
L 3559 3303 
L 3559 1753 
L 3175 1753 
L 3175 2338 
L 1581 2338 
L 1581 331 
L 2328 331 
L 2328 0 
L 353 0 
z
" transform="scale(0.015625)"/>
        <path id="DejaVuSerif-62" d="M 738 331 
L 738 4531 
L 184 4531 
L 184 4863 
L 1313 4863 
L 1313 2803 
Q 1481 3116 1742 3264 
Q 2003 3413 2388 3413 
Q 3000 3413 3387 2928 
Q 3775 2444 3775 1663 
Q 3775 881 3387 395 
Q 3000 -91 2388 -91 
Q 2003 -91 1742 57 
Q 1481 206 1313 519 
L 1313 0 
L 184 0 
L 184 331 
L 738 331 
z
M 1313 1497 
Q 1313 897 1542 583 
Q 1772 269 2209 269 
Q 2650 269 2876 622 
Q 3103 975 3103 1663 
Q 3103 2353 2876 2703 
Q 2650 3053 2209 3053 
Q 1772 3053 1542 2737 
Q 1313 2422 1313 1825 
L 1313 1497 
z
" transform="scale(0.015625)"/>
       </defs>
       <use xlink:href="#DejaVuSerif-46"/>
       <use xlink:href="#DejaVuSerif-65" transform="translate(63.884766 0)"/>
       <use xlink:href="#DejaVuSerif-62" transform="translate(123.064453 0)"/>
       <use xlink:href="#DejaVuSerif-20" transform="translate(187.078125 0)"/>
       <use xlink:href="#DejaVuSerif-31" transform="translate(218.865234 0)"/>
       <use xlink:href="#DejaVuSerif-30" transform="translate(282.488281 0)"/>
      </g>
     </g>
    </g>
   </g>
   <g id="matplotlib.axis_2">
    <g id="ytick_1">
     <g id="line2d_15">
      <path d="M 48.322812 155.252553 
L 500.777813 155.252553 
" clip-path="url(#p978c5492da)" style="fill: none; stroke: #b0b0b0; stroke-opacity: 0.25; stroke-width: 0.5; stroke-linecap: square"/>
     </g>
     <g id="line2d_16">
      <defs>
       <path id="m171a703591" d="M 0 0 
L -3.5 0 
" style="stroke: #000000; stroke-width: 0.8"/>
      </defs>
      <g>
       <use xlink:href="#m171a703591" x="48.322812" y="155.252553" style="stroke: #000000; stroke-width: 0.8"/>
      </g>
     </g>
     <g id="text_8">
      <!-- 2.00 -->
      <g transform="translate(23.510312 158.291928) scale(0.08 -0.08)">
       <defs>
        <path id="DejaVuSerif-2e" d="M 603 325 
Q 603 500 722 622 
Q 841 744 1019 744 
Q 1191 744 1312 622 
Q 1434 500 1434 325 
Q 1434 153 1312 31 
Q 1191 -91 1019 -91 
Q 841 -91 722 29 
Q 603 150 603 325 
z
" transform="scale(0.015625)"/>
       </defs>
       <use xlink:href="#DejaVuSerif-32"/>
       <use xlink:href="#DejaVuSerif-2e" transform="translate(63.623047 0)"/>
       <use xlink:href="#DejaVuSerif-30" transform="translate(95.410156 0)"/>
       <use xlink:href="#DejaVuSerif-30" transform="translate(159.033203 0)"/>
      </g>
     </g>
    </g>
    <g id="ytick_2">
     <g id="line2d_17">
      <path d="M 48.322812 135.032937 
L 500.777813 135.032937 
" clip-path="url(#p978c5492da)" style="fill: none; stroke: #b0b0b0; stroke-opacity: 0.25; stroke-width: 0.5; stroke-linecap: square"/>
     </g>
     <g id="line2d_18">
      <g>
       <use xlink:href="#m171a703591" x="48.322812" y="135.032937" style="stroke: #000000; stroke-width: 0.8"/>
      </g>
     </g>
     <g id="text_9">
      <!-- 2.25 -->
      <g transform="translate(23.510312 138.072312) scale(0.08 -0.08)">
       <defs>
        <path id="DejaVuSerif-35" d="M 3219 4666 
L 3219 4153 
L 1081 4153 
L 1081 2816 
Q 1244 2928 1461 2984 
Q 1678 3041 1947 3041 
Q 2703 3041 3140 2622 
Q 3578 2203 3578 1478 
Q 3578 738 3136 323 
Q 2694 -91 1894 -91 
Q 1572 -91 1234 -12 
Q 897 66 544 225 
L 544 1131 
L 897 1131 
Q 925 688 1179 453 
Q 1434 219 1894 219 
Q 2388 219 2653 544 
Q 2919 869 2919 1478 
Q 2919 2084 2655 2407 
Q 2391 2731 1894 2731 
Q 1613 2731 1398 2631 
Q 1184 2531 1019 2322 
L 750 2322 
L 750 4666 
L 3219 4666 
z
" transform="scale(0.015625)"/>
       </defs>
       <use xlink:href="#DejaVuSerif-32"/>
       <use xlink:href="#DejaVuSerif-2e" transform="translate(63.623047 0)"/>
       <use xlink:href="#DejaVuSerif-32" transform="translate(95.410156 0)"/>
       <use xlink:href="#DejaVuSerif-35" transform="translate(159.033203 0)"/>
      </g>
     </g>
    </g>
    <g id="ytick_3">
     <g id="line2d_19">
      <path d="M 48.322812 114.813321 
L 500.777813 114.813321 
" clip-path="url(#p978c5492da)" style="fill: none; stroke: #b0b0b0; stroke-opacity: 0.25; stroke-width: 0.5; stroke-linecap: square"/>
     </g>
     <g id="line2d_20">
      <g>
       <use xlink:href="#m171a703591" x="48.322812" y="114.813321" style="stroke: #000000; stroke-width: 0.8"/>
      </g>
     </g>
     <g id="text_10">
      <!-- 2.50 -->
      <g transform="translate(23.510312 117.852696) scale(0.08 -0.08)">
       <use xlink:href="#DejaVuSerif-32"/>
       <use xlink:href="#DejaVuSerif-2e" transform="translate(63.623047 0)"/>
       <use xlink:href="#DejaVuSerif-35" transform="translate(95.410156 0)"/>
       <use xlink:href="#DejaVuSerif-30" transform="translate(159.033203 0)"/>
      </g>
     </g>
    </g>
    <g id="ytick_4">
     <g id="line2d_21">
      <path d="M 48.322812 94.593705 
L 500.777813 94.593705 
" clip-path="url(#p978c5492da)" style="fill: none; stroke: #b0b0b0; stroke-opacity: 0.25; stroke-width: 0.5; stroke-linecap: square"/>
     </g>
     <g id="line2d_22">
      <g>
       <use xlink:href="#m171a703591" x="48.322812" y="94.593705" style="stroke: #000000; stroke-width: 0.8"/>
      </g>
     </g>
     <g id="text_11">
      <!-- 2.75 -->
      <g transform="translate(23.510312 97.63308) scale(0.08 -0.08)">
       <use xlink:href="#DejaVuSerif-32"/>
       <use xlink:href="#DejaVuSerif-2e" transform="translate(63.623047 0)"/>
       <use xlink:href="#DejaVuSerif-37" transform="translate(95.410156 0)"/>
       <use xlink:href="#DejaVuSerif-35" transform="translate(159.033203 0)"/>
      </g>
     </g>
    </g>
    <g id="ytick_5">
     <g id="line2d_23">
      <path d="M 48.322812 74.374089 
L 500.777813 74.374089 
" clip-path="url(#p978c5492da)" style="fill: none; stroke: #b0b0b0; stroke-opacity: 0.25; stroke-width: 0.5; stroke-linecap: square"/>
     </g>
     <g id="line2d_24">
      <g>
       <use xlink:href="#m171a703591" x="48.322812" y="74.374089" style="stroke: #000000; stroke-width: 0.8"/>
      </g>
     </g>
     <g id="text_12">
      <!-- 3.00 -->
      <g transform="translate(23.510312 77.413464) scale(0.08 -0.08)">
       <use xlink:href="#DejaVuSerif-33"/>
       <use xlink:href="#DejaVuSerif-2e" transform="translate(63.623047 0)"/>
       <use xlink:href="#DejaVuSerif-30" transform="translate(95.410156 0)"/>
       <use xlink:href="#DejaVuSerif-30" transform="translate(159.033203 0)"/>
      </g>
     </g>
    </g>
    <g id="ytick_6">
     <g id="line2d_25">
      <path d="M 48.322812 54.154473 
L 500.777813 54.154473 
" clip-path="url(#p978c5492da)" style="fill: none; stroke: #b0b0b0; stroke-opacity: 0.25; stroke-width: 0.5; stroke-linecap: square"/>
     </g>
     <g id="line2d_26">
      <g>
       <use xlink:href="#m171a703591" x="48.322812" y="54.154473" style="stroke: #000000; stroke-width: 0.8"/>
      </g>
     </g>
     <g id="text_13">
      <!-- 3.25 -->
      <g transform="translate(23.510312 57.193848) scale(0.08 -0.08)">
       <use xlink:href="#DejaVuSerif-33"/>
       <use xlink:href="#DejaVuSerif-2e" transform="translate(63.623047 0)"/>
       <use xlink:href="#DejaVuSerif-32" transform="translate(95.410156 0)"/>
       <use xlink:href="#DejaVuSerif-35" transform="translate(159.033203 0)"/>
      </g>
     </g>
    </g>
    <g id="ytick_7">
     <g id="line2d_27">
      <path d="M 48.322812 33.934857 
L 500.777813 33.934857 
" clip-path="url(#p978c5492da)" style="fill: none; stroke: #b0b0b0; stroke-opacity: 0.25; stroke-width: 0.5; stroke-linecap: square"/>
     </g>
     <g id="line2d_28">
      <g>
       <use xlink:href="#m171a703591" x="48.322812" y="33.934857" style="stroke: #000000; stroke-width: 0.8"/>
      </g>
     </g>
     <g id="text_14">
      <!-- 3.50 -->
      <g transform="translate(23.510312 36.974232) scale(0.08 -0.08)">
       <use xlink:href="#DejaVuSerif-33"/>
       <use xlink:href="#DejaVuSerif-2e" transform="translate(63.623047 0)"/>
       <use xlink:href="#DejaVuSerif-35" transform="translate(95.410156 0)"/>
       <use xlink:href="#DejaVuSerif-30" transform="translate(159.033203 0)"/>
      </g>
     </g>
    </g>
    <g id="text_15">
     <!-- $/MiB -->
     <g transform="translate(17.638594 108.36968) rotate(-90) scale(0.09 -0.09)">
      <defs>
       <path id="DejaVuSerif-24" d="M 2156 213 
Q 2509 244 2695 416 
Q 2881 588 2881 884 
Q 2881 1153 2697 1340 
Q 2513 1528 2156 1625 
L 2156 213 
z
M 1844 3709 
Q 1522 3688 1344 3523 
Q 1166 3359 1166 3084 
Q 1166 2834 1330 2668 
Q 1494 2503 1844 2400 
L 1844 3709 
z
M 550 225 
L 550 1088 
L 888 1088 
Q 900 659 1137 440 
Q 1375 222 1844 213 
L 1844 1728 
Q 1125 1928 834 2189 
Q 544 2450 544 2881 
Q 544 3381 887 3684 
Q 1231 3988 1844 4025 
L 1844 4863 
L 2156 4863 
L 2156 4025 
Q 2472 4000 2764 3923 
Q 3056 3847 3334 3719 
L 3334 2900 
L 2994 2900 
Q 2956 3263 2740 3472 
Q 2525 3681 2156 3709 
L 2156 2297 
Q 2925 2088 3233 1817 
Q 3541 1547 3541 1094 
Q 3541 575 3178 262 
Q 2816 -50 2156 -97 
L 2156 -941 
L 1844 -941 
L 1844 -97 
Q 1544 -91 1222 -11 
Q 900 69 550 225 
z
" transform="scale(0.015625)"/>
       <path id="DejaVuSerif-2f" d="M 1656 4666 
L 2156 4666 
L 500 -594 
L 0 -594 
L 1656 4666 
z
" transform="scale(0.015625)"/>
       <path id="DejaVuSerif-4d" d="M 353 0 
L 353 331 
L 947 331 
L 947 4331 
L 319 4331 
L 319 4666 
L 1678 4666 
L 3316 1344 
L 4953 4666 
L 6228 4666 
L 6228 4331 
L 5606 4331 
L 5606 331 
L 6203 331 
L 6203 0 
L 4378 0 
L 4378 331 
L 4972 331 
L 4972 3938 
L 3372 684 
L 2931 684 
L 1331 3938 
L 1331 331 
L 1925 331 
L 1925 0 
L 353 0 
z
" transform="scale(0.015625)"/>
       <path id="DejaVuSerif-69" d="M 622 4353 
Q 622 4497 726 4603 
Q 831 4709 978 4709 
Q 1122 4709 1226 4603 
Q 1331 4497 1331 4353 
Q 1331 4206 1228 4103 
Q 1125 4000 978 4000 
Q 831 4000 726 4103 
Q 622 4206 622 4353 
z
M 1356 331 
L 1900 331 
L 1900 0 
L 231 0 
L 231 331 
L 781 331 
L 781 2988 
L 231 2988 
L 231 3322 
L 1356 3322 
L 1356 331 
z
" transform="scale(0.015625)"/>
       <path id="DejaVuSerif-42" d="M 1581 331 
L 2516 331 
Q 3078 331 3337 575 
Q 3597 819 3597 1350 
Q 3597 1878 3339 2120 
Q 3081 2363 2516 2363 
L 1581 2363 
L 1581 331 
z
M 1581 2694 
L 2375 2694 
Q 2888 2694 3123 2891 
Q 3359 3088 3359 3513 
Q 3359 3941 3123 4136 
Q 2888 4331 2375 4331 
L 1581 4331 
L 1581 2694 
z
M 353 0 
L 353 331 
L 947 331 
L 947 4331 
L 353 4331 
L 353 4666 
L 2656 4666 
Q 3363 4666 3720 4377 
Q 4078 4088 4078 3513 
Q 4078 3097 3829 2850 
Q 3581 2603 3103 2547 
Q 3697 2472 4005 2167 
Q 4313 1863 4313 1350 
Q 4313 656 3875 328 
Q 3438 0 2509 0 
L 353 0 
z
" transform="scale(0.015625)"/>
      </defs>
      <use xlink:href="#DejaVuSerif-24"/>
      <use xlink:href="#DejaVuSerif-2f" transform="translate(63.623047 0)"/>
      <use xlink:href="#DejaVuSerif-4d" transform="translate(97.314453 0)"/>
      <use xlink:href="#DejaVuSerif-69" transform="translate(199.707031 0)"/>
      <use xlink:href="#DejaVuSerif-42" transform="translate(231.689453 0)"/>
     </g>
    </g>
    <g id="text_16">
     <!-- 1e−9 -->
     <g transform="translate(48.322812 22.158281) scale(0.08 -0.08)">
      <defs>
       <path id="DejaVuSerif-2212" d="M 678 2259 
L 4684 2259 
L 4684 1753 
L 678 1753 
L 678 2259 
z
" transform="scale(0.015625)"/>
       <path id="DejaVuSerif-39" d="M 2994 2091 
Q 2784 1856 2512 1740 
Q 2241 1625 1900 1625 
Q 1206 1625 804 2044 
Q 403 2463 403 3188 
Q 403 3897 839 4323 
Q 1275 4750 2003 4750 
Q 2794 4750 3217 4161 
Q 3641 3572 3641 2478 
Q 3641 1253 3137 581 
Q 2634 -91 1722 -91 
Q 1475 -91 1203 -44 
Q 931 3 647 97 
L 647 872 
L 997 872 
Q 1038 556 1241 387 
Q 1444 219 1784 219 
Q 2391 219 2687 676 
Q 2984 1134 2994 2091 
z
M 1978 4441 
Q 1534 4441 1298 4117 
Q 1063 3794 1063 3188 
Q 1063 2581 1298 2256 
Q 1534 1931 1978 1931 
Q 2422 1931 2658 2245 
Q 2894 2559 2894 3150 
Q 2894 3772 2656 4106 
Q 2419 4441 1978 4441 
z
" transform="scale(0.015625)"/>
      </defs>
      <use xlink:href="#DejaVuSerif-31"/>
      <use xlink:href="#DejaVuSerif-65" transform="translate(63.623047 0)"/>
      <use xlink:href="#DejaVuSerif-2212" transform="translate(122.802734 0)"/>
      <use xlink:href="#DejaVuSerif-39" transform="translate(206.591797 0)"/>
     </g>
    </g>
   </g>
   <g id="FillBetweenPolyCollection_2">
    <defs>
     <path id="m8243a6b7c4" d="M 68.888949 -148.221295 
L 68.888949 -146.083135 
L 73.459201 -141.263456 
L 78.029454 -140.906587 
L 82.599706 -133.968424 
L 87.169959 -126.715456 
L 91.740211 -115.003495 
L 96.310464 -117.005285 
L 100.880717 -122.936701 
L 105.450969 -123.477941 
L 110.021222 -131.077685 
L 114.591474 -133.144861 
L 119.161727 -140.696859 
L 123.731979 -141.326129 
L 128.302232 -139.641857 
L 132.872484 -140.050458 
L 137.442737 -118.807608 
L 142.012989 -123.386519 
L 146.583242 -142.786933 
L 151.153494 -152.421881 
L 155.723747 -142.730366 
L 160.293999 -142.769463 
L 164.864252 -143.221231 
L 169.434504 -148.818337 
L 174.004757 -149.658353 
L 178.575009 -166.86243 
L 183.145262 -155.844785 
L 187.715515 -146.646594 
L 192.285767 -147.837796 
L 196.85602 -147.559035 
L 201.426272 -135.179386 
L 205.996525 -134.106914 
L 210.566777 -125.307487 
L 215.13703 -125.688187 
L 219.707282 -126.200337 
L 224.277535 -138.454811 
L 228.847787 -137.988117 
L 233.41804 -139.870667 
L 237.988292 -134.630684 
L 242.558545 -134.019308 
L 247.128797 -134.110561 
L 251.69905 -133.436683 
L 256.269302 -134.219708 
L 260.839555 -134.785118 
L 265.409807 -134.254055 
L 269.98006 -134.996881 
L 274.550313 -137.728352 
L 279.120565 -138.230665 
L 283.690818 -140.62596 
L 288.26107 -148.934014 
L 292.831323 -151.74249 
L 297.401575 -153.681014 
L 301.971828 -158.926594 
L 306.54208 -152.976266 
L 311.112333 -148.585118 
L 315.682585 -147.07063 
L 320.252838 -147.401463 
L 324.82309 -148.181096 
L 329.393343 -148.994652 
L 333.963595 -149.074794 
L 338.533848 -166.415072 
L 343.1041 -164.996162 
L 347.674353 -164.02724 
L 352.244605 -165.123203 
L 356.814858 -166.289811 
L 361.38511 -157.698501 
L 365.955363 -139.839458 
L 370.525616 -134.244132 
L 375.095868 -135.579337 
L 379.666121 -134.187481 
L 384.236373 -136.309018 
L 388.806626 -124.779477 
L 393.376878 -127.921161 
L 397.947131 -132.909352 
L 402.517383 -140.682103 
L 407.087636 -123.975081 
L 411.657888 -115.593499 
L 416.228141 -88.977178 
L 420.798393 -81.958702 
L 425.368646 -75.309562 
L 429.938898 -73.894469 
L 434.509151 -66.149704 
L 439.079403 -46.433044 
L 443.649656 -45.350819 
L 448.219908 -57.183885 
L 452.790161 -62.485608 
L 457.360414 -58.142207 
L 461.930666 -56.330894 
L 466.500919 -50.058043 
L 471.071171 -48.584264 
L 475.641424 -50.154215 
L 480.211676 -59.930706 
L 480.211676 -60.299957 
L 480.211676 -60.299957 
L 475.641424 -52.306876 
L 471.071171 -52.717343 
L 466.500919 -51.611457 
L 461.930666 -57.103573 
L 457.360414 -62.814067 
L 452.790161 -63.793166 
L 448.219908 -60.371619 
L 443.649656 -49.64817 
L 439.079403 -62.512577 
L 434.509151 -76.250498 
L 429.938898 -80.981893 
L 425.368646 -80.425557 
L 420.798393 -89.827285 
L 416.228141 -109.97112 
L 411.657888 -117.90229 
L 407.087636 -135.158863 
L 402.517383 -141.436293 
L 397.947131 -134.443938 
L 393.376878 -131.931948 
L 388.806626 -134.947693 
L 384.236373 -136.797762 
L 379.666121 -136.069692 
L 375.095868 -139.276677 
L 370.525616 -137.479188 
L 365.955363 -149.040108 
L 361.38511 -158.563111 
L 356.814858 -167.813034 
L 352.244605 -165.964236 
L 347.674353 -165.819216 
L 343.1041 -168.025476 
L 338.533848 -168.829024 
L 333.963595 -151.766236 
L 329.393343 -150.285078 
L 324.82309 -149.203362 
L 320.252838 -147.922349 
L 315.682585 -148.910777 
L 311.112333 -150.417377 
L 306.54208 -158.720428 
L 301.971828 -159.668573 
L 297.401575 -155.401498 
L 292.831323 -152.311547 
L 288.26107 -149.830087 
L 283.690818 -144.425324 
L 279.120565 -138.805149 
L 274.550313 -138.197082 
L 269.98006 -137.759052 
L 265.409807 -136.55479 
L 260.839555 -135.517173 
L 256.269302 -134.456659 
L 251.69905 -135.747001 
L 247.128797 -135.649473 
L 242.558545 -135.04819 
L 237.988292 -137.403286 
L 233.41804 -142.833492 
L 228.847787 -138.772498 
L 224.277535 -138.725855 
L 219.707282 -136.682001 
L 215.13703 -126.681958 
L 210.566777 -134.343442 
L 205.996525 -135.950962 
L 201.426272 -150.104015 
L 196.85602 -149.448455 
L 192.285767 -149.284777 
L 187.715515 -160.71679 
L 183.145262 -157.542456 
L 178.575009 -167.964839 
L 174.004757 -150.882121 
L 169.434504 -151.535561 
L 164.864252 -144.472392 
L 160.293999 -143.713367 
L 155.723747 -151.599166 
L 151.153494 -156.395014 
L 146.583242 -146.472146 
L 142.012989 -125.791058 
L 137.442737 -125.616355 
L 132.872484 -141.419332 
L 128.302232 -140.821865 
L 123.731979 -143.645945 
L 119.161727 -143.04127 
L 114.591474 -135.895838 
L 110.021222 -134.222591 
L 105.450969 -126.494958 
L 100.880717 -125.056627 
L 96.310464 -119.110793 
L 91.740211 -119.855825 
L 87.169959 -141.421452 
L 82.599706 -145.304774 
L 78.029454 -145.22548 
L 73.459201 -152.233948 
L 68.888949 -148.221295 
z
" style="stroke: #6497b1; stroke-opacity: 0.3"/>
    </defs>
    <g clip-path="url(#p978c5492da)">
     <use xlink:href="#m8243a6b7c4" x="0" y="203.150187" style="fill: #6497b1; fill-opacity: 0.3; stroke: #6497b1; stroke-opacity: 0.3"/>
    </g>
   </g>
   <g id="patch_3">
    <path d="M 48.322812 164.11561 
L 48.322812 25.158281 
" style="fill: none; stroke: #000000; stroke-width: 0.6; stroke-linejoin: miter; stroke-linecap: square"/>
   </g>
   <g id="patch_4">
    <path d="M 48.322813 164.11561 
L 500.777813 164.11561 
" style="fill: none; stroke: #000000; stroke-width: 0.6; stroke-linejoin: miter; stroke-linecap: square"/>
   </g>
   <g id="line2d_29">
    <path d="M 68.888949 54.928892 
L 73.459201 50.916239 
L 78.029454 57.924707 
L 82.599706 57.845412 
L 87.169959 61.728735 
L 91.740211 83.294362 
L 96.310464 84.039393 
L 100.880717 78.093559 
L 105.450969 76.655229 
L 110.021222 68.927595 
L 114.591474 67.254349 
L 119.161727 60.108917 
L 123.731979 59.504242 
L 128.302232 62.328322 
L 132.872484 61.730855 
L 137.442737 77.533832 
L 142.012989 77.359129 
L 146.583242 56.678041 
L 151.153494 46.755173 
L 155.723747 51.551021 
L 160.293999 59.43682 
L 164.864252 58.677795 
L 169.434504 51.614626 
L 174.004757 52.268066 
L 178.575009 35.185348 
L 183.145262 45.607731 
L 187.715515 42.433397 
L 192.285767 53.86541 
L 196.85602 53.701732 
L 201.426272 53.046172 
L 205.996525 67.199224 
L 210.566777 68.806745 
L 215.13703 76.468229 
L 219.707282 66.468186 
L 224.277535 64.424332 
L 228.847787 64.377688 
L 233.41804 60.316695 
L 237.988292 65.746901 
L 242.558545 68.101997 
L 247.128797 67.500714 
L 251.69905 67.403186 
L 256.269302 68.693528 
L 260.839555 67.633013 
L 265.409807 66.595397 
L 269.98006 65.391134 
L 274.550313 64.953105 
L 279.120565 64.345037 
L 283.690818 58.724863 
L 288.26107 53.320099 
L 292.831323 50.83864 
L 297.401575 47.748689 
L 301.971828 43.481614 
L 306.54208 44.429759 
L 311.112333 52.732809 
L 315.682585 54.23941 
L 320.252838 55.227838 
L 324.82309 53.946825 
L 329.393343 52.865109 
L 333.963595 51.383951 
L 338.533848 34.321163 
L 343.1041 35.124711 
L 347.674353 37.330971 
L 352.244605 37.18595 
L 356.814858 35.337153 
L 361.38511 44.587076 
L 365.955363 54.110079 
L 370.525616 65.670998 
L 375.095868 63.873509 
L 379.666121 67.080494 
L 384.236373 66.352424 
L 388.806626 68.202494 
L 393.376878 71.218238 
L 397.947131 68.706249 
L 402.517383 61.713894 
L 407.087636 67.991324 
L 411.657888 85.247896 
L 416.228141 93.179067 
L 420.798393 113.322901 
L 425.368646 122.724629 
L 429.938898 122.168294 
L 434.509151 126.899689 
L 439.079403 140.63761 
L 443.649656 153.502017 
L 448.219908 142.778568 
L 452.790161 139.357021 
L 457.360414 140.33612 
L 461.930666 146.046614 
L 466.500919 151.538729 
L 471.071171 150.432843 
L 475.641424 150.84331 
L 480.211676 142.85023 
" clip-path="url(#p978c5492da)" style="fill: none; stroke: #6497b1; stroke-linecap: square"/>
   </g>
   <g id="text_17">
    <!-- Espresso — Cost per MiB (USD) — Quantile Bands -->
    <g transform="translate(132.811875 19.158281) scale(0.11 -0.11)">
     <defs>
      <path id="DejaVuSerif-45" d="M 353 0 
L 353 331 
L 947 331 
L 947 4331 
L 353 4331 
L 353 4666 
L 4109 4666 
L 4109 3628 
L 3725 3628 
L 3725 4281 
L 1581 4281 
L 1581 2719 
L 3109 2719 
L 3109 3303 
L 3494 3303 
L 3494 1753 
L 3109 1753 
L 3109 2338 
L 1581 2338 
L 1581 384 
L 3775 384 
L 3775 1038 
L 4159 1038 
L 4159 0 
L 353 0 
z
" transform="scale(0.015625)"/>
      <path id="DejaVuSerif-73" d="M 359 184 
L 359 959 
L 691 959 
Q 703 588 923 403 
Q 1144 219 1575 219 
Q 1963 219 2166 364 
Q 2369 509 2369 788 
Q 2369 1006 2220 1140 
Q 2072 1275 1594 1428 
L 1178 1569 
Q 750 1706 558 1912 
Q 366 2119 366 2438 
Q 366 2894 700 3153 
Q 1034 3413 1625 3413 
Q 1888 3413 2178 3344 
Q 2469 3275 2778 3144 
L 2778 2419 
L 2447 2419 
Q 2434 2741 2221 2922 
Q 2009 3103 1644 3103 
Q 1281 3103 1095 2975 
Q 909 2847 909 2591 
Q 909 2381 1050 2254 
Q 1191 2128 1613 1997 
L 2069 1856 
Q 2541 1709 2748 1489 
Q 2956 1269 2956 922 
Q 2956 450 2595 179 
Q 2234 -91 1600 -91 
Q 1278 -91 972 -22 
Q 666 47 359 184 
z
" transform="scale(0.015625)"/>
      <path id="DejaVuSerif-70" d="M 1313 1825 
L 1313 1497 
Q 1313 897 1542 583 
Q 1772 269 2209 269 
Q 2650 269 2876 622 
Q 3103 975 3103 1663 
Q 3103 2353 2876 2703 
Q 2650 3053 2209 3053 
Q 1772 3053 1542 2737 
Q 1313 2422 1313 1825 
z
M 738 2988 
L 184 2988 
L 184 3322 
L 1313 3322 
L 1313 2803 
Q 1481 3116 1742 3264 
Q 2003 3413 2388 3413 
Q 3000 3413 3387 2928 
Q 3775 2444 3775 1663 
Q 3775 881 3387 395 
Q 3000 -91 2388 -91 
Q 2003 -91 1742 57 
Q 1481 206 1313 519 
L 1313 -997 
L 1856 -997 
L 1856 -1331 
L 184 -1331 
L 184 -997 
L 738 -997 
L 738 2988 
z
" transform="scale(0.015625)"/>
      <path id="DejaVuSerif-72" d="M 3059 3328 
L 3059 2497 
L 2728 2497 
Q 2713 2744 2591 2866 
Q 2469 2988 2234 2988 
Q 1809 2988 1582 2694 
Q 1356 2400 1356 1850 
L 1356 331 
L 2022 331 
L 2022 0 
L 263 0 
L 263 331 
L 781 331 
L 781 2994 
L 231 2994 
L 231 3322 
L 1356 3322 
L 1356 2731 
Q 1525 3078 1790 3245 
Q 2056 3413 2438 3413 
Q 2578 3413 2733 3391 
Q 2888 3369 3059 3328 
z
" transform="scale(0.015625)"/>
      <path id="DejaVuSerif-2014" d="M 281 1906 
L 6119 1906 
L 6119 1491 
L 281 1491 
L 281 1906 
z
" transform="scale(0.015625)"/>
      <path id="DejaVuSerif-43" d="M 4513 1234 
Q 4306 581 3820 245 
Q 3334 -91 2591 -91 
Q 2134 -91 1743 65 
Q 1353 222 1050 525 
Q 700 875 529 1320 
Q 359 1766 359 2328 
Q 359 3416 987 4083 
Q 1616 4750 2644 4750 
Q 3025 4750 3456 4650 
Q 3888 4550 4384 4347 
L 4384 3272 
L 4031 3272 
Q 3916 3859 3567 4137 
Q 3219 4416 2591 4416 
Q 1844 4416 1459 3886 
Q 1075 3356 1075 2328 
Q 1075 1303 1459 773 
Q 1844 244 2591 244 
Q 3113 244 3450 492 
Q 3788 741 3938 1234 
L 4513 1234 
z
" transform="scale(0.015625)"/>
      <path id="DejaVuSerif-74" d="M 691 2988 
L 184 2988 
L 184 3322 
L 691 3322 
L 691 4353 
L 1269 4353 
L 1269 3322 
L 2350 3322 
L 2350 2988 
L 1269 2988 
L 1269 878 
Q 1269 456 1350 337 
Q 1431 219 1650 219 
Q 1875 219 1978 351 
Q 2081 484 2088 781 
L 2522 781 
Q 2497 328 2275 118 
Q 2053 -91 1600 -91 
Q 1103 -91 897 129 
Q 691 350 691 878 
L 691 2988 
z
" transform="scale(0.015625)"/>
      <path id="DejaVuSerif-28" d="M 2041 -997 
Q 1281 -656 893 83 
Q 506 822 506 1931 
Q 506 3044 893 3783 
Q 1281 4522 2041 4863 
L 2041 4556 
Q 1559 4225 1350 3623 
Q 1141 3022 1141 1931 
Q 1141 844 1350 242 
Q 1559 -359 2041 -691 
L 2041 -997 
z
" transform="scale(0.015625)"/>
      <path id="DejaVuSerif-55" d="M 897 4331 
L 300 4331 
L 300 4666 
L 2125 4666 
L 2125 4331 
L 1528 4331 
L 1528 1919 
Q 1528 1025 1820 672 
Q 2113 319 2828 319 
Q 3544 319 3836 672 
Q 4128 1025 4128 1919 
L 4128 4331 
L 3531 4331 
L 3531 4666 
L 5106 4666 
L 5106 4331 
L 4513 4331 
L 4513 1856 
Q 4513 791 4103 350 
Q 3694 -91 2713 -91 
Q 1731 -91 1314 353 
Q 897 797 897 1856 
L 897 4331 
z
" transform="scale(0.015625)"/>
      <path id="DejaVuSerif-53" d="M 594 225 
L 594 1288 
L 953 1284 
Q 969 753 1261 498 
Q 1553 244 2150 244 
Q 2706 244 2998 464 
Q 3291 684 3291 1106 
Q 3291 1444 3114 1625 
Q 2938 1806 2369 1978 
L 1753 2163 
Q 1084 2366 811 2669 
Q 538 2972 538 3500 
Q 538 4094 959 4422 
Q 1381 4750 2144 4750 
Q 2469 4750 2856 4679 
Q 3244 4609 3681 4475 
L 3681 3481 
L 3328 3481 
Q 3275 3975 2998 4195 
Q 2722 4416 2156 4416 
Q 1663 4416 1405 4214 
Q 1147 4013 1147 3628 
Q 1147 3294 1340 3103 
Q 1534 2913 2163 2725 
L 2741 2553 
Q 3375 2363 3645 2067 
Q 3916 1772 3916 1275 
Q 3916 597 3481 253 
Q 3047 -91 2188 -91 
Q 1803 -91 1404 -12 
Q 1006 66 594 225 
z
" transform="scale(0.015625)"/>
      <path id="DejaVuSerif-29" d="M 453 -997 
L 453 -691 
Q 934 -359 1145 242 
Q 1356 844 1356 1931 
Q 1356 3022 1145 3623 
Q 934 4225 453 4556 
L 453 4863 
Q 1216 4522 1603 3783 
Q 1991 3044 1991 1931 
Q 1991 822 1603 83 
Q 1216 -656 453 -997 
z
" transform="scale(0.015625)"/>
      <path id="DejaVuSerif-51" d="M 2700 -91 
Q 1628 -91 993 567 
Q 359 1225 359 2328 
Q 359 2894 529 3339 
Q 700 3784 1050 4134 
Q 1356 4441 1750 4595 
Q 2144 4750 2625 4750 
Q 3641 4750 4266 4084 
Q 4891 3419 4891 2328 
Q 4891 1403 4422 773 
Q 3953 144 3128 -38 
Q 3297 -247 3539 -347 
Q 3781 -447 4122 -447 
L 4219 -447 
L 4219 -1025 
Q 3691 -1000 3314 -767 
Q 2938 -534 2700 -91 
z
M 2625 244 
Q 3391 244 3781 770 
Q 4172 1297 4172 2328 
Q 4172 3363 3781 3889 
Q 3391 4416 2625 4416 
Q 1856 4416 1465 3889 
Q 1075 3363 1075 2328 
Q 1075 1297 1465 770 
Q 1856 244 2625 244 
z
" transform="scale(0.015625)"/>
      <path id="DejaVuSerif-75" d="M 2266 3322 
L 3341 3322 
L 3341 331 
L 3884 331 
L 3884 0 
L 2766 0 
L 2766 588 
Q 2606 256 2353 82 
Q 2100 -91 1766 -91 
Q 1213 -91 952 223 
Q 691 538 691 1209 
L 691 2988 
L 172 2988 
L 172 3322 
L 1269 3322 
L 1269 1388 
Q 1269 781 1417 556 
Q 1566 331 1947 331 
Q 2347 331 2556 625 
Q 2766 919 2766 1478 
L 2766 2988 
L 2266 2988 
L 2266 3322 
z
" transform="scale(0.015625)"/>
      <path id="DejaVuSerif-6c" d="M 1313 331 
L 1856 331 
L 1856 0 
L 184 0 
L 184 331 
L 738 331 
L 738 4531 
L 184 4531 
L 184 4863 
L 1313 4863 
L 1313 331 
z
" transform="scale(0.015625)"/>
      <path id="DejaVuSerif-64" d="M 3359 331 
L 3909 331 
L 3909 0 
L 2784 0 
L 2784 519 
Q 2616 206 2355 57 
Q 2094 -91 1709 -91 
Q 1097 -91 708 395 
Q 319 881 319 1663 
Q 319 2444 706 2928 
Q 1094 3413 1709 3413 
Q 2094 3413 2355 3264 
Q 2616 3116 2784 2803 
L 2784 4531 
L 2241 4531 
L 2241 4863 
L 3359 4863 
L 3359 331 
z
M 2784 1497 
L 2784 1825 
Q 2784 2422 2554 2737 
Q 2325 3053 1888 3053 
Q 1444 3053 1217 2703 
Q 991 2353 991 1663 
Q 991 975 1217 622 
Q 1444 269 1888 269 
Q 2325 269 2554 583 
Q 2784 897 2784 1497 
z
" transform="scale(0.015625)"/>
     </defs>
     <use xlink:href="#DejaVuSerif-45"/>
     <use xlink:href="#DejaVuSerif-73" transform="translate(72.998047 0)"/>
     <use xlink:href="#DejaVuSerif-70" transform="translate(124.316406 0)"/>
     <use xlink:href="#DejaVuSerif-72" transform="translate(188.330078 0)"/>
     <use xlink:href="#DejaVuSerif-65" transform="translate(236.132812 0)"/>
     <use xlink:href="#DejaVuSerif-73" transform="translate(295.3125 0)"/>
     <use xlink:href="#DejaVuSerif-73" transform="translate(346.630859 0)"/>
     <use xlink:href="#DejaVuSerif-6f" transform="translate(397.949219 0)"/>
     <use xlink:href="#DejaVuSerif-20" transform="translate(458.154297 0)"/>
     <use xlink:href="#DejaVuSerif-2014" transform="translate(489.941406 0)"/>
     <use xlink:href="#DejaVuSerif-20" transform="translate(589.941406 0)"/>
     <use xlink:href="#DejaVuSerif-43" transform="translate(621.728516 0)"/>
     <use xlink:href="#DejaVuSerif-6f" transform="translate(698.242188 0)"/>
     <use xlink:href="#DejaVuSerif-73" transform="translate(758.447266 0)"/>
     <use xlink:href="#DejaVuSerif-74" transform="translate(809.765625 0)"/>
     <use xlink:href="#DejaVuSerif-20" transform="translate(849.951172 0)"/>
     <use xlink:href="#DejaVuSerif-70" transform="translate(881.738281 0)"/>
     <use xlink:href="#DejaVuSerif-65" transform="translate(945.751953 0)"/>
     <use xlink:href="#DejaVuSerif-72" transform="translate(1004.931641 0)"/>
     <use xlink:href="#DejaVuSerif-20" transform="translate(1052.734375 0)"/>
     <use xlink:href="#DejaVuSerif-4d" transform="translate(1084.521484 0)"/>
     <use xlink:href="#DejaVuSerif-69" transform="translate(1186.914062 0)"/>
     <use xlink:href="#DejaVuSerif-42" transform="translate(1218.896484 0)"/>
     <use xlink:href="#DejaVuSerif-20" transform="translate(1292.382812 0)"/>
     <use xlink:href="#DejaVuSerif-28" transform="translate(1324.169922 0)"/>
     <use xlink:href="#DejaVuSerif-55" transform="translate(1363.183594 0)"/>
     <use xlink:href="#DejaVuSerif-53" transform="translate(1447.460938 0)"/>
     <use xlink:href="#DejaVuSerif-44" transform="translate(1515.966797 0)"/>
     <use xlink:href="#DejaVuSerif-29" transform="translate(1596.142578 0)"/>
     <use xlink:href="#DejaVuSerif-20" transform="translate(1635.15625 0)"/>
     <use xlink:href="#DejaVuSerif-2014" transform="translate(1666.943359 0)"/>
     <use xlink:href="#DejaVuSerif-20" transform="translate(1766.943359 0)"/>
     <use xlink:href="#DejaVuSerif-51" transform="translate(1798.730469 0)"/>
     <use xlink:href="#DejaVuSerif-75" transform="translate(1880.712891 0)"/>
     <use xlink:href="#DejaVuSerif-61" transform="translate(1945.117188 0)"/>
     <use xlink:href="#DejaVuSerif-6e" transform="translate(2004.736328 0)"/>
     <use xlink:href="#DejaVuSerif-74" transform="translate(2069.140625 0)"/>
     <use xlink:href="#DejaVuSerif-69" transform="translate(2109.326172 0)"/>
     <use xlink:href="#DejaVuSerif-6c" transform="translate(2141.308594 0)"/>
     <use xlink:href="#DejaVuSerif-65" transform="translate(2173.291016 0)"/>
     <use xlink:href="#DejaVuSerif-20" transform="translate(2232.470703 0)"/>
     <use xlink:href="#DejaVuSerif-42" transform="translate(2264.257812 0)"/>
     <use xlink:href="#DejaVuSerif-61" transform="translate(2337.744141 0)"/>
     <use xlink:href="#DejaVuSerif-6e" transform="translate(2397.363281 0)"/>
     <use xlink:href="#DejaVuSerif-64" transform="translate(2461.767578 0)"/>
     <use xlink:href="#DejaVuSerif-73" transform="translate(2525.78125 0)"/>
    </g>
   </g>
   <g id="line2d_30">
    <path d="M 68.888949 54.40402 
L 73.459201 53.231765 
L 78.029454 54.554332 
L 82.599706 55.903295 
L 87.169959 57.759725 
L 91.740211 61.929671 
L 96.310464 65.105483 
L 100.880717 68.518794 
L 105.450969 71.751509 
L 110.021222 73.501552 
L 114.591474 74.407802 
L 119.161727 73.732399 
L 123.731979 70.418986 
L 128.302232 67.239982 
L 132.872484 64.798665 
L 137.442737 65.320432 
L 142.012989 65.811521 
L 146.583242 64.33424 
L 151.153494 62.491763 
L 155.723747 61.596506 
L 160.293999 61.251154 
L 164.864252 60.805033 
L 169.434504 57.072218 
L 174.004757 53.307721 
L 178.575009 50.217574 
L 183.145262 49.80748 
L 187.715515 48.847039 
L 192.285767 48.043051 
L 196.85602 47.455554 
L 201.426272 48.148055 
L 205.996525 51.145466 
L 210.566777 56.315344 
L 215.13703 60.65235 
L 219.707282 63.713784 
L 224.277535 65.208966 
L 228.847787 66.67815 
L 233.41804 67.15782 
L 237.988292 66.865998 
L 242.558545 66.489206 
L 247.128797 65.438823 
L 251.69905 65.343648 
L 256.269302 65.963619 
L 260.839555 66.456636 
L 265.409807 67.181026 
L 269.98006 67.239447 
L 274.550313 66.792119 
L 279.120565 66.299536 
L 283.690818 64.930924 
L 288.26107 62.73262 
L 292.831323 60.308663 
L 297.401575 57.661916 
L 301.971828 54.366055 
L 306.54208 51.519072 
L 311.112333 49.799126 
L 315.682585 49.305331 
L 320.252838 49.585301 
L 324.82309 50.019826 
L 329.393343 50.802153 
L 333.963595 51.794322 
L 338.533848 50.282562 
L 343.1041 47.833042 
L 347.674353 45.411998 
L 352.244605 42.810733 
L 356.814858 40.152784 
L 361.38511 39.01297 
L 365.955363 39.79463 
L 370.525616 44.25021 
L 375.095868 48.417015 
L 379.666121 52.659739 
L 384.236373 56.858044 
L 388.806626 61.876663 
L 393.376878 65.805393 
L 397.947131 67.578636 
L 402.517383 67.036001 
L 407.087636 67.987624 
L 411.657888 70.568337 
L 416.228141 75.072232 
L 420.798393 81.434807 
L 425.368646 88.649595 
L 429.938898 96.566318 
L 434.509151 106.238308 
L 439.079403 116.677315 
L 443.649656 126.112153 
L 448.219908 132.499378 
L 452.790161 135.944808 
L 457.360414 138.559182 
L 461.930666 141.60574 
L 466.500919 144.635826 
L 471.071171 145.669444 
L 475.641424 145.30967 
L 480.211676 145.223919 
" clip-path="url(#p978c5492da)" style="fill: none; stroke: #cc3333; stroke-width: 1.5; stroke-linecap: square"/>
   </g>
   <g id="legend_1">
    <g id="patch_5">
     <path d="M 434.975313 66.899531 
L 495.177812 66.899531 
Q 496.777812 66.899531 496.777812 65.299531 
L 496.777812 30.758281 
Q 496.777812 29.158281 495.177812 29.158281 
L 434.975313 29.158281 
Q 433.375313 29.158281 433.375313 30.758281 
L 433.375313 65.299531 
Q 433.375313 66.899531 434.975313 66.899531 
z
" style="fill: #ffffff; opacity: 0.9; stroke: #cccccc; stroke-linejoin: miter"/>
    </g>
    <g id="patch_6">
     <path d="M 436.575312 38.437031 
L 452.575312 38.437031 
L 452.575312 32.837031 
L 436.575312 32.837031 
z
" style="fill: #b3cde3; fill-opacity: 0.4; stroke: #b3cde3; stroke-opacity: 0.4; stroke-linejoin: miter"/>
    </g>
    <g id="text_18">
     <!-- p10–p90 -->
     <g transform="translate(458.975312 38.437031) scale(0.08 -0.08)">
      <defs>
       <path id="DejaVuSerif-2013" d="M 281 1906 
L 2919 1906 
L 2919 1491 
L 281 1491 
L 281 1906 
z
" transform="scale(0.015625)"/>
      </defs>
      <use xlink:href="#DejaVuSerif-70"/>
      <use xlink:href="#DejaVuSerif-31" transform="translate(64.013672 0)"/>
      <use xlink:href="#DejaVuSerif-30" transform="translate(127.636719 0)"/>
      <use xlink:href="#DejaVuSerif-2013" transform="translate(191.259766 0)"/>
      <use xlink:href="#DejaVuSerif-70" transform="translate(241.259766 0)"/>
      <use xlink:href="#DejaVuSerif-39" transform="translate(305.273438 0)"/>
      <use xlink:href="#DejaVuSerif-30" transform="translate(368.896484 0)"/>
     </g>
    </g>
    <g id="line2d_31">
     <path d="M 436.575312 47.379531 
L 444.575312 47.379531 
L 452.575312 47.379531 
" style="fill: none; stroke: #6497b1; stroke-linecap: square"/>
    </g>
    <g id="text_19">
     <!-- p50 -->
     <g transform="translate(458.975312 50.179531) scale(0.08 -0.08)">
      <use xlink:href="#DejaVuSerif-70"/>
      <use xlink:href="#DejaVuSerif-35" transform="translate(64.013672 0)"/>
      <use xlink:href="#DejaVuSerif-30" transform="translate(127.636719 0)"/>
     </g>
    </g>
    <g id="line2d_32">
     <path d="M 436.575312 59.122031 
L 444.575312 59.122031 
L 452.575312 59.122031 
" style="fill: none; stroke: #cc3333; stroke-width: 1.5; stroke-linecap: square"/>
    </g>
    <g id="text_20">
     <!-- 7d avg -->
     <g transform="translate(458.975312 61.922031) scale(0.08 -0.08)">
      <defs>
       <path id="DejaVuSerif-67" d="M 3359 2988 
L 3359 72 
Q 3359 -644 2965 -1033 
Q 2572 -1422 1844 -1422 
Q 1516 -1422 1216 -1362 
Q 916 -1303 641 -1184 
L 641 -488 
L 941 -488 
Q 997 -813 1206 -963 
Q 1416 -1113 1806 -1113 
Q 2313 -1113 2548 -827 
Q 2784 -541 2784 72 
L 2784 519 
Q 2616 206 2355 57 
Q 2094 -91 1709 -91 
Q 1097 -91 708 395 
Q 319 881 319 1663 
Q 319 2444 706 2928 
Q 1094 3413 1709 3413 
Q 2094 3413 2355 3264 
Q 2616 3116 2784 2803 
L 2784 3322 
L 3909 3322 
L 3909 2988 
L 3359 2988 
z
M 2784 1825 
Q 2784 2422 2554 2737 
Q 2325 3053 1888 3053 
Q 1444 3053 1217 2703 
Q 991 2353 991 1663 
Q 991 975 1217 622 
Q 1444 269 1888 269 
Q 2325 269 2554 583 
Q 2784 897 2784 1497 
L 2784 1825 
z
" transform="scale(0.015625)"/>
      </defs>
      <use xlink:href="#DejaVuSerif-37"/>
      <use xlink:href="#DejaVuSerif-64" transform="translate(63.623047 0)"/>
      <use xlink:href="#DejaVuSerif-20" transform="translate(127.636719 0)"/>
      <use xlink:href="#DejaVuSerif-61" transform="translate(159.423828 0)"/>
      <use xlink:href="#DejaVuSerif-76" transform="translate(219.042969 0)"/>
      <use xlink:href="#DejaVuSerif-67" transform="translate(275.537109 0)"/>
     </g>
    </g>
   </g>
  </g>
 </g>
 <defs>
  <clipPath id="p978c5492da">
   <rect x="48.322812" y="25.158281" width="452.455" height="138.957329"/>
  </clipPath>
 </defs>
</svg>
