<?xml version="1.0" encoding="utf-8" standalone="no"?>
<!DOCTYPE svg PUBLIC "-//W3C//DTD SVG 1.1//EN"
  "http://www.w3.org/Graphics/SVG/1.1/DTD/svg11.dtd">
<svg xmlns:xlink="http://www.w3.org/1999/xlink" width="501.402813pt" height="203.228937pt" viewBox="0 0 501.402813 203.228937" xmlns="http://www.w3.org/2000/svg" version="1.1">
 <metadata>
  <rdf:RDF xmlns:dc="http://purl.org/dc/elements/1.1/" xmlns:cc="http://creativecommons.org/ns#" xmlns:rdf="http://www.w3.org/1999/02/22-rdf-syntax-ns#">
   <cc:Work>
    <dc:type rdf:resource="http://purl.org/dc/dcmitype/StillImage"/>
    <dc:date>2026-02-16T16:57:27.486830</dc:date>
    <dc:format>image/svg+xml</dc:format>
    <dc:creator>
     <cc:Agent>
      <dc:title>Matplotlib v3.10.8, https://matplotlib.org/</dc:title>
     </cc:Agent>
    </dc:creator>
   </cc:Work>
  </rdf:RDF>
 </metadata>
 <defs>
  <style type="text/css">*{stroke-linejoin: round; stroke-linecap: butt}</style>
 </defs>
 <g id="figure_1">
  <g id="patch_1">
   <path d="M 0 203.228937 
L 501.402813 203.228937 
L 501.402813 0 
L 0 0 
z
" style="fill: #ffffff"/>
  </g>
  <g id="axes_1">
   <g id="patch_2">
    <path d="M 43.232813 159.45811 
L 490.602812 159.45811 
L 490.602812 25.158281 
L 43.232813 25.158281 
z
" style="fill: #ffffff"/>
   </g>
   <g id="FillBetweenPolyCollection_1">
    <defs>
     <path id="m5eaac7a231" d="M 63.567813 -171.966118 
L 63.567813 -75.160539 
L 67.988465 -74.704806 
L 72.409117 -74.385799 
L 76.829769 -73.895107 
L 81.250421 -72.996507 
L 85.671073 -73.452126 
L 90.091726 -72.635931 
L 94.512378 -72.063864 
L 98.93303 -69.807995 
L 103.353682 -69.611016 
L 107.774334 -71.938045 
L 112.194986 -66.885796 
L 116.615639 -64.96896 
L 121.036291 -65.960996 
L 125.456943 -64.424811 
L 129.877595 -65.061651 
L 134.298247 -62.844713 
L 138.718899 -64.785457 
L 143.139552 -65.030205 
L 147.560204 -62.98825 
L 151.980856 -62.738868 
L 156.401508 -61.640556 
L 160.82216 -61.397843 
L 165.242813 -61.9012 
L 169.663465 -63.278185 
L 174.084117 -61.405382 
L 178.504769 -59.93499 
L 182.925421 -60.388422 
L 187.346073 -61.142016 
L 191.766726 -59.814263 
L 196.187378 -59.206679 
L 200.60803 -58.013915 
L 205.028682 -57.743387 
L 209.449334 -57.03657 
L 213.869986 -57.176454 
L 218.290639 -56.573237 
L 222.711291 -56.702801 
L 227.131943 -56.114629 
L 231.552595 -55.897438 
L 235.973247 -55.811413 
L 240.393899 -55.612077 
L 244.814552 -55.116072 
L 249.235204 -55.992168 
L 253.655856 -54.521479 
L 258.076508 -53.38159 
L 262.49716 -54.522497 
L 266.917813 -55.637645 
L 271.338465 -56.043152 
L 275.759117 -56.679722 
L 280.179769 -56.580381 
L 284.600421 -55.215515 
L 289.021073 -55.359801 
L 293.441726 -55.512719 
L 297.862378 -57.453165 
L 302.28303 -57.164034 
L 306.703682 -57.941045 
L 311.124334 -58.788044 
L 315.544986 -59.491272 
L 319.965639 -58.680726 
L 324.386291 -58.773855 
L 328.806943 -57.924824 
L 333.227595 -57.764826 
L 337.648247 -57.519437 
L 342.068899 -58.720008 
L 346.489552 -58.776505 
L 350.910204 -59.883647 
L 355.330856 -58.998753 
L 359.751508 -57.028412 
L 364.17216 -57.571021 
L 368.592813 -57.732992 
L 373.013465 -56.660967 
L 377.434117 -56.351762 
L 381.854769 -55.062908 
L 386.275421 -54.688383 
L 390.696073 -54.338131 
L 395.116726 -54.654924 
L 399.537378 -54.732928 
L 403.95803 -54.352916 
L 408.378682 -54.697911 
L 412.799334 -54.432713 
L 417.219986 -54.039039 
L 421.640639 -52.996533 
L 426.061291 -52.726101 
L 430.481943 -51.75543 
L 434.902595 -51.580414 
L 439.323247 -52.029439 
L 443.743899 -51.967225 
L 448.164552 -51.834607 
L 452.585204 -50.767567 
L 457.005856 -51.063969 
L 461.426508 -50.906293 
L 465.84716 -50.222775 
L 470.267813 -49.875364 
L 470.267813 -78.271182 
L 470.267813 -78.271182 
L 465.84716 -79.678904 
L 461.426508 -81.60878 
L 457.005856 -82.827087 
L 452.585204 -81.043635 
L 448.164552 -83.96833 
L 443.743899 -83.903532 
L 439.323247 -86.272957 
L 434.902595 -87.838717 
L 430.481943 -87.116401 
L 426.061291 -91.69438 
L 421.640639 -93.610121 
L 417.219986 -93.695856 
L 412.799334 -96.451101 
L 408.378682 -95.050618 
L 403.95803 -95.864498 
L 399.537378 -97.941023 
L 395.116726 -97.083202 
L 390.696073 -99.801733 
L 386.275421 -100.647041 
L 381.854769 -101.369704 
L 377.434117 -102.210694 
L 373.013465 -103.734658 
L 368.592813 -110.136872 
L 364.17216 -110.197389 
L 359.751508 -105.399351 
L 355.330856 -107.663402 
L 350.910204 -109.351245 
L 346.489552 -108.267446 
L 342.068899 -104.648731 
L 337.648247 -104.030236 
L 333.227595 -102.813869 
L 328.806943 -103.582306 
L 324.386291 -103.746297 
L 319.965639 -104.434955 
L 315.544986 -107.935153 
L 311.124334 -106.62964 
L 306.703682 -106.922238 
L 302.28303 -104.428588 
L 297.862378 -102.612242 
L 293.441726 -99.892255 
L 289.021073 -98.079951 
L 284.600421 -99.031653 
L 280.179769 -97.465292 
L 275.759117 -101.111609 
L 271.338465 -97.06707 
L 266.917813 -97.343708 
L 262.49716 -96.377523 
L 258.076508 -94.954572 
L 253.655856 -97.74303 
L 249.235204 -98.00369 
L 244.814552 -97.5127 
L 240.393899 -96.683788 
L 235.973247 -96.807282 
L 231.552595 -96.25258 
L 227.131943 -97.315553 
L 222.711291 -97.311647 
L 218.290639 -102.069321 
L 213.869986 -101.298147 
L 209.449334 -102.926205 
L 205.028682 -102.585183 
L 200.60803 -104.046364 
L 196.187378 -107.816435 
L 191.766726 -113.409481 
L 187.346073 -113.765039 
L 182.925421 -113.193018 
L 178.504769 -112.561234 
L 174.084117 -114.316667 
L 169.663465 -120.057197 
L 165.242813 -121.012948 
L 160.82216 -114.75781 
L 156.401508 -107.296447 
L 151.980856 -113.63139 
L 147.560204 -114.234777 
L 143.139552 -121.579353 
L 138.718899 -118.834302 
L 134.298247 -121.274579 
L 129.877595 -119.995129 
L 125.456943 -119.858388 
L 121.036291 -118.520985 
L 116.615639 -121.98868 
L 112.194986 -126.902706 
L 107.774334 -141.577561 
L 103.353682 -135.343996 
L 98.93303 -135.857239 
L 94.512378 -137.964025 
L 90.091726 -144.219632 
L 85.671073 -147.616239 
L 81.250421 -143.162359 
L 76.829769 -147.128395 
L 72.409117 -150.130891 
L 67.988465 -155.572303 
L 63.567813 -171.966118 
z
" style="stroke: #b3cde3; stroke-opacity: 0.4"/>
    </defs>
    <g clip-path="url(#pb905be7862)">
     <use xlink:href="#m5eaac7a231" x="0" y="203.228937" style="fill: #b3cde3; fill-opacity: 0.4; stroke: #b3cde3; stroke-opacity: 0.4"/>
    </g>
   </g>
   <g id="matplotlib.axis_1">
    <g id="xtick_1">
     <g id="line2d_1">
      <path d="M 156.401508 159.45811 
L 156.401508 25.158281 
" clip-path="url(#pb905be7862)" style="fill: none; stroke: #b0b0b0; stroke-opacity: 0.25; stroke-width: 0.5; stroke-linecap: square"/>
     </g>
     <g id="line2d_2">
      <defs>
       <path id="m24cb01d5d0" d="M 0 0 
L 0 3.5 
" style="stroke: #000000; stroke-width: 0.8"/>
      </defs>
      <g>
       <use xlink:href="#m24cb01d5d0" x="156.401508" y="159.45811" style="stroke: #000000; stroke-width: 0.8"/>
      </g>
     </g>
     <g id="text_1">
      <!-- Dec 2025 -->
      <g transform="translate(122.200592 190.988087) rotate(-30) scale(0.08 -0.08)">
       <defs>
        <path id="DejaVuSerif-44" d="M 1581 331 
L 2163 331 
Q 3072 331 3558 850 
Q 4044 1369 4044 2338 
Q 4044 3306 3559 3818 
Q 3075 4331 2163 4331 
L 1581 4331 
L 1581 331 
z
M 353 0 
L 353 331 
L 947 331 
L 947 4331 
L 353 4331 
L 353 4666 
L 2209 4666 
Q 3416 4666 4089 4050 
Q 4763 3434 4763 2338 
Q 4763 1238 4088 619 
Q 3413 0 2209 0 
L 353 0 
z
" transform="scale(0.015625)"/>
        <path id="DejaVuSerif-65" d="M 3469 1600 
L 991 1600 
L 991 1575 
Q 991 903 1244 561 
Q 1497 219 1991 219 
Q 2369 219 2611 417 
Q 2853 616 2950 1006 
L 3413 1006 
Q 3275 459 2904 184 
Q 2534 -91 1931 -91 
Q 1203 -91 761 389 
Q 319 869 319 1663 
Q 319 2450 753 2931 
Q 1188 3413 1894 3413 
Q 2647 3413 3050 2948 
Q 3453 2484 3469 1600 
z
M 2791 1931 
Q 2772 2513 2545 2808 
Q 2319 3103 1894 3103 
Q 1497 3103 1269 2806 
Q 1041 2509 991 1931 
L 2791 1931 
z
" transform="scale(0.015625)"/>
        <path id="DejaVuSerif-63" d="M 3291 997 
Q 3169 466 2822 187 
Q 2475 -91 1925 -91 
Q 1200 -91 759 389 
Q 319 869 319 1663 
Q 319 2459 759 2936 
Q 1200 3413 1925 3413 
Q 2241 3413 2553 3339 
Q 2866 3266 3181 3116 
L 3181 2266 
L 2847 2266 
Q 2781 2703 2561 2903 
Q 2341 3103 1931 3103 
Q 1466 3103 1228 2742 
Q 991 2381 991 1663 
Q 991 944 1227 581 
Q 1463 219 1931 219 
Q 2303 219 2525 412 
Q 2747 606 2828 997 
L 3291 997 
z
" transform="scale(0.015625)"/>
        <path id="DejaVuSerif-20" transform="scale(0.015625)"/>
        <path id="DejaVuSerif-32" d="M 819 3553 
L 469 3553 
L 469 4384 
Q 803 4563 1142 4656 
Q 1481 4750 1806 4750 
Q 2534 4750 2956 4397 
Q 3378 4044 3378 3438 
Q 3378 2753 2422 1800 
Q 2347 1728 2309 1691 
L 1131 513 
L 3078 513 
L 3078 1088 
L 3444 1088 
L 3444 0 
L 434 0 
L 434 341 
L 1850 1753 
Q 2319 2222 2519 2614 
Q 2719 3006 2719 3438 
Q 2719 3909 2473 4175 
Q 2228 4441 1797 4441 
Q 1350 4441 1106 4219 
Q 863 3997 819 3553 
z
" transform="scale(0.015625)"/>
        <path id="DejaVuSerif-30" d="M 2034 219 
Q 2513 219 2750 744 
Q 2988 1269 2988 2328 
Q 2988 3391 2750 3916 
Q 2513 4441 2034 4441 
Q 1556 4441 1318 3916 
Q 1081 3391 1081 2328 
Q 1081 1269 1318 744 
Q 1556 219 2034 219 
z
M 2034 -91 
Q 1275 -91 848 546 
Q 422 1184 422 2328 
Q 422 3475 848 4112 
Q 1275 4750 2034 4750 
Q 2797 4750 3222 4112 
Q 3647 3475 3647 2328 
Q 3647 1184 3222 546 
Q 2797 -91 2034 -91 
z
" transform="scale(0.015625)"/>
        <path id="DejaVuSerif-35" d="M 3219 4666 
L 3219 4153 
L 1081 4153 
L 1081 2816 
Q 1244 2928 1461 2984 
Q 1678 3041 1947 3041 
Q 2703 3041 3140 2622 
Q 3578 2203 3578 1478 
Q 3578 738 3136 323 
Q 2694 -91 1894 -91 
Q 1572 -91 1234 -12 
Q 897 66 544 225 
L 544 1131 
L 897 1131 
Q 925 688 1179 453 
Q 1434 219 1894 219 
Q 2388 219 2653 544 
Q 2919 869 2919 1478 
Q 2919 2084 2655 2407 
Q 2391 2731 1894 2731 
Q 1613 2731 1398 2631 
Q 1184 2531 1019 2322 
L 750 2322 
L 750 4666 
L 3219 4666 
z
" transform="scale(0.015625)"/>
       </defs>
       <use xlink:href="#DejaVuSerif-44"/>
       <use xlink:href="#DejaVuSerif-65" transform="translate(80.175781 0)"/>
       <use xlink:href="#DejaVuSerif-63" transform="translate(139.355469 0)"/>
       <use xlink:href="#DejaVuSerif-20" transform="translate(195.361328 0)"/>
       <use xlink:href="#DejaVuSerif-32" transform="translate(227.148438 0)"/>
       <use xlink:href="#DejaVuSerif-30" transform="translate(290.771484 0)"/>
       <use xlink:href="#DejaVuSerif-32" transform="translate(354.394531 0)"/>
       <use xlink:href="#DejaVuSerif-35" transform="translate(418.017578 0)"/>
      </g>
     </g>
    </g>
    <g id="xtick_2">
     <g id="line2d_3">
      <path d="M 293.441726 159.45811 
L 293.441726 25.158281 
" clip-path="url(#pb905be7862)" style="fill: none; stroke: #b0b0b0; stroke-opacity: 0.25; stroke-width: 0.5; stroke-linecap: square"/>
     </g>
     <g id="line2d_4">
      <g>
       <use xlink:href="#m24cb01d5d0" x="293.441726" y="159.45811" style="stroke: #000000; stroke-width: 0.8"/>
      </g>
     </g>
     <g id="text_2">
      <!-- Jan 2026 -->
      <g transform="translate(261.40479 189.738712) rotate(-30) scale(0.08 -0.08)">
       <defs>
        <path id="DejaVuSerif-4a" d="M -538 -1119 
L -538 -384 
L -181 -384 
Q -172 -694 -34 -845 
Q 103 -997 378 -997 
Q 750 -997 897 -762 
Q 1044 -528 1044 153 
L 1044 4331 
L 319 4331 
L 319 4666 
L 2272 4666 
L 2272 4331 
L 1678 4331 
L 1678 128 
Q 1678 -644 1368 -987 
Q 1059 -1331 372 -1331 
Q 150 -1331 -79 -1278 
Q -309 -1225 -538 -1119 
z
" transform="scale(0.015625)"/>
        <path id="DejaVuSerif-61" d="M 2547 1044 
L 2547 1747 
L 1806 1747 
Q 1378 1747 1168 1562 
Q 959 1378 959 997 
Q 959 650 1171 447 
Q 1384 244 1747 244 
Q 2106 244 2326 466 
Q 2547 688 2547 1044 
z
M 3122 2075 
L 3122 331 
L 3634 331 
L 3634 0 
L 2547 0 
L 2547 359 
Q 2356 128 2106 18 
Q 1856 -91 1522 -91 
Q 969 -91 644 203 
Q 319 497 319 997 
Q 319 1513 691 1797 
Q 1063 2081 1741 2081 
L 2547 2081 
L 2547 2309 
Q 2547 2688 2317 2895 
Q 2088 3103 1672 3103 
Q 1328 3103 1125 2947 
Q 922 2791 872 2484 
L 575 2484 
L 575 3156 
Q 875 3284 1158 3348 
Q 1441 3413 1709 3413 
Q 2400 3413 2761 3070 
Q 3122 2728 3122 2075 
z
" transform="scale(0.015625)"/>
        <path id="DejaVuSerif-6e" d="M 263 0 
L 263 331 
L 781 331 
L 781 2988 
L 231 2988 
L 231 3322 
L 1356 3322 
L 1356 2731 
Q 1516 3069 1770 3241 
Q 2025 3413 2363 3413 
Q 2913 3413 3172 3097 
Q 3431 2781 3431 2113 
L 3431 331 
L 3944 331 
L 3944 0 
L 2356 0 
L 2356 331 
L 2853 331 
L 2853 1931 
Q 2853 2541 2703 2767 
Q 2553 2994 2175 2994 
Q 1775 2994 1565 2701 
Q 1356 2409 1356 1850 
L 1356 331 
L 1856 331 
L 1856 0 
L 263 0 
z
" transform="scale(0.015625)"/>
        <path id="DejaVuSerif-36" d="M 2094 219 
Q 2534 219 2771 542 
Q 3009 866 3009 1472 
Q 3009 2078 2771 2401 
Q 2534 2725 2094 2725 
Q 1647 2725 1412 2412 
Q 1178 2100 1178 1509 
Q 1178 888 1415 553 
Q 1653 219 2094 219 
z
M 1075 2569 
Q 1288 2803 1556 2918 
Q 1825 3034 2163 3034 
Q 2859 3034 3264 2615 
Q 3669 2197 3669 1472 
Q 3669 763 3233 336 
Q 2797 -91 2069 -91 
Q 1278 -91 853 498 
Q 428 1088 428 2181 
Q 428 3406 931 4078 
Q 1434 4750 2350 4750 
Q 2597 4750 2869 4703 
Q 3141 4656 3425 4563 
L 3425 3794 
L 3072 3794 
Q 3034 4109 2831 4275 
Q 2628 4441 2284 4441 
Q 1678 4441 1381 3981 
Q 1084 3522 1075 2569 
z
" transform="scale(0.015625)"/>
       </defs>
       <use xlink:href="#DejaVuSerif-4a"/>
       <use xlink:href="#DejaVuSerif-61" transform="translate(40.087891 0)"/>
       <use xlink:href="#DejaVuSerif-6e" transform="translate(99.707031 0)"/>
       <use xlink:href="#DejaVuSerif-20" transform="translate(164.111328 0)"/>
       <use xlink:href="#DejaVuSerif-32" transform="translate(195.898438 0)"/>
       <use xlink:href="#DejaVuSerif-30" transform="translate(259.521484 0)"/>
       <use xlink:href="#DejaVuSerif-32" transform="translate(323.144531 0)"/>
       <use xlink:href="#DejaVuSerif-36" transform="translate(386.767578 0)"/>
      </g>
     </g>
    </g>
    <g id="xtick_3">
     <g id="line2d_5">
      <path d="M 430.481943 159.45811 
L 430.481943 25.158281 
" clip-path="url(#pb905be7862)" style="fill: none; stroke: #b0b0b0; stroke-opacity: 0.25; stroke-width: 0.5; stroke-linecap: square"/>
     </g>
     <g id="line2d_6">
      <g>
       <use xlink:href="#m24cb01d5d0" x="430.481943" y="159.45811" style="stroke: #000000; stroke-width: 0.8"/>
      </g>
     </g>
     <g id="text_3">
      <!-- Feb 2026 -->
      <g transform="translate(396.853686 190.657462) rotate(-30) scale(0.08 -0.08)">
       <defs>
        <path id="DejaVuSerif-46" d="M 353 0 
L 353 331 
L 947 331 
L 947 4331 
L 353 4331 
L 353 4666 
L 4172 4666 
L 4172 3628 
L 3788 3628 
L 3788 4281 
L 1581 4281 
L 1581 2719 
L 3175 2719 
L 3175 3303 
L 3559 3303 
L 3559 1753 
L 3175 1753 
L 3175 2338 
L 1581 2338 
L 1581 331 
L 2328 331 
L 2328 0 
L 353 0 
z
" transform="scale(0.015625)"/>
        <path id="DejaVuSerif-62" d="M 738 331 
L 738 4531 
L 184 4531 
L 184 4863 
L 1313 4863 
L 1313 2803 
Q 1481 3116 1742 3264 
Q 2003 3413 2388 3413 
Q 3000 3413 3387 2928 
Q 3775 2444 3775 1663 
Q 3775 881 3387 395 
Q 3000 -91 2388 -91 
Q 2003 -91 1742 57 
Q 1481 206 1313 519 
L 1313 0 
L 184 0 
L 184 331 
L 738 331 
z
M 1313 1497 
Q 1313 897 1542 583 
Q 1772 269 2209 269 
Q 2650 269 2876 622 
Q 3103 975 3103 1663 
Q 3103 2353 2876 2703 
Q 2650 3053 2209 3053 
Q 1772 3053 1542 2737 
Q 1313 2422 1313 1825 
L 1313 1497 
z
" transform="scale(0.015625)"/>
       </defs>
       <use xlink:href="#DejaVuSerif-46"/>
       <use xlink:href="#DejaVuSerif-65" transform="translate(63.884766 0)"/>
       <use xlink:href="#DejaVuSerif-62" transform="translate(123.064453 0)"/>
       <use xlink:href="#DejaVuSerif-20" transform="translate(187.078125 0)"/>
       <use xlink:href="#DejaVuSerif-32" transform="translate(218.865234 0)"/>
       <use xlink:href="#DejaVuSerif-30" transform="translate(282.488281 0)"/>
       <use xlink:href="#DejaVuSerif-32" transform="translate(346.111328 0)"/>
       <use xlink:href="#DejaVuSerif-36" transform="translate(409.734375 0)"/>
      </g>
     </g>
    </g>
   </g>
   <g id="matplotlib.axis_2">
    <g id="ytick_1">
     <g id="line2d_7">
      <path d="M 43.232813 130.383657 
L 490.602812 130.383657 
" clip-path="url(#pb905be7862)" style="fill: none; stroke: #b0b0b0; stroke-opacity: 0.25; stroke-width: 0.5; stroke-linecap: square"/>
     </g>
     <g id="line2d_8">
      <defs>
       <path id="ma150287900" d="M 0 0 
L -3.5 0 
" style="stroke: #000000; stroke-width: 0.8"/>
      </defs>
      <g>
       <use xlink:href="#ma150287900" x="43.232813" y="130.383657" style="stroke: #000000; stroke-width: 0.8"/>
      </g>
     </g>
     <g id="text_4">
      <!-- 0.5 -->
      <g transform="translate(23.510313 133.423032) scale(0.08 -0.08)">
       <defs>
        <path id="DejaVuSerif-2e" d="M 603 325 
Q 603 500 722 622 
Q 841 744 1019 744 
Q 1191 744 1312 622 
Q 1434 500 1434 325 
Q 1434 153 1312 31 
Q 1191 -91 1019 -91 
Q 841 -91 722 29 
Q 603 150 603 325 
z
" transform="scale(0.015625)"/>
       </defs>
       <use xlink:href="#DejaVuSerif-30"/>
       <use xlink:href="#DejaVuSerif-2e" transform="translate(63.623047 0)"/>
       <use xlink:href="#DejaVuSerif-35" transform="translate(95.410156 0)"/>
      </g>
     </g>
    </g>
    <g id="ytick_2">
     <g id="line2d_9">
      <path d="M 43.232813 97.591497 
L 490.602812 97.591497 
" clip-path="url(#pb905be7862)" style="fill: none; stroke: #b0b0b0; stroke-opacity: 0.25; stroke-width: 0.5; stroke-linecap: square"/>
     </g>
     <g id="line2d_10">
      <g>
       <use xlink:href="#ma150287900" x="43.232813" y="97.591497" style="stroke: #000000; stroke-width: 0.8"/>
      </g>
     </g>
     <g id="text_5">
      <!-- 1.0 -->
      <g transform="translate(23.510313 100.630872) scale(0.08 -0.08)">
       <defs>
        <path id="DejaVuSerif-31" d="M 909 0 
L 909 331 
L 1722 331 
L 1722 4213 
L 781 3603 
L 781 4013 
L 1919 4750 
L 2350 4750 
L 2350 331 
L 3163 331 
L 3163 0 
L 909 0 
z
" transform="scale(0.015625)"/>
       </defs>
       <use xlink:href="#DejaVuSerif-31"/>
       <use xlink:href="#DejaVuSerif-2e" transform="translate(63.623047 0)"/>
       <use xlink:href="#DejaVuSerif-30" transform="translate(95.410156 0)"/>
      </g>
     </g>
    </g>
    <g id="ytick_3">
     <g id="line2d_11">
      <path d="M 43.232813 64.799337 
L 490.602812 64.799337 
" clip-path="url(#pb905be7862)" style="fill: none; stroke: #b0b0b0; stroke-opacity: 0.25; stroke-width: 0.5; stroke-linecap: square"/>
     </g>
     <g id="line2d_12">
      <g>
       <use xlink:href="#ma150287900" x="43.232813" y="64.799337" style="stroke: #000000; stroke-width: 0.8"/>
      </g>
     </g>
     <g id="text_6">
      <!-- 1.5 -->
      <g transform="translate(23.510313 67.838712) scale(0.08 -0.08)">
       <use xlink:href="#DejaVuSerif-31"/>
       <use xlink:href="#DejaVuSerif-2e" transform="translate(63.623047 0)"/>
       <use xlink:href="#DejaVuSerif-35" transform="translate(95.410156 0)"/>
      </g>
     </g>
    </g>
    <g id="ytick_4">
     <g id="line2d_13">
      <path d="M 43.232813 32.007177 
L 490.602812 32.007177 
" clip-path="url(#pb905be7862)" style="fill: none; stroke: #b0b0b0; stroke-opacity: 0.25; stroke-width: 0.5; stroke-linecap: square"/>
     </g>
     <g id="line2d_14">
      <g>
       <use xlink:href="#ma150287900" x="43.232813" y="32.007177" style="stroke: #000000; stroke-width: 0.8"/>
      </g>
     </g>
     <g id="text_7">
      <!-- 2.0 -->
      <g transform="translate(23.510313 35.046552) scale(0.08 -0.08)">
       <use xlink:href="#DejaVuSerif-32"/>
       <use xlink:href="#DejaVuSerif-2e" transform="translate(63.623047 0)"/>
       <use xlink:href="#DejaVuSerif-30" transform="translate(95.410156 0)"/>
      </g>
     </g>
    </g>
    <g id="text_8">
     <!-- $/MiB -->
     <g transform="translate(17.638594 106.04093) rotate(-90) scale(0.09 -0.09)">
      <defs>
       <path id="DejaVuSerif-24" d="M 2156 213 
Q 2509 244 2695 416 
Q 2881 588 2881 884 
Q 2881 1153 2697 1340 
Q 2513 1528 2156 1625 
L 2156 213 
z
M 1844 3709 
Q 1522 3688 1344 3523 
Q 1166 3359 1166 3084 
Q 1166 2834 1330 2668 
Q 1494 2503 1844 2400 
L 1844 3709 
z
M 550 225 
L 550 1088 
L 888 1088 
Q 900 659 1137 440 
Q 1375 222 1844 213 
L 1844 1728 
Q 1125 1928 834 2189 
Q 544 2450 544 2881 
Q 544 3381 887 3684 
Q 1231 3988 1844 4025 
L 1844 4863 
L 2156 4863 
L 2156 4025 
Q 2472 4000 2764 3923 
Q 3056 3847 3334 3719 
L 3334 2900 
L 2994 2900 
Q 2956 3263 2740 3472 
Q 2525 3681 2156 3709 
L 2156 2297 
Q 2925 2088 3233 1817 
Q 3541 1547 3541 1094 
Q 3541 575 3178 262 
Q 2816 -50 2156 -97 
L 2156 -941 
L 1844 -941 
L 1844 -97 
Q 1544 -91 1222 -11 
Q 900 69 550 225 
z
" transform="scale(0.015625)"/>
       <path id="DejaVuSerif-2f" d="M 1656 4666 
L 2156 4666 
L 500 -594 
L 0 -594 
L 1656 4666 
z
" transform="scale(0.015625)"/>
       <path id="DejaVuSerif-4d" d="M 353 0 
L 353 331 
L 947 331 
L 947 4331 
L 319 4331 
L 319 4666 
L 1678 4666 
L 3316 1344 
L 4953 4666 
L 6228 4666 
L 6228 4331 
L 5606 4331 
L 5606 331 
L 6203 331 
L 6203 0 
L 4378 0 
L 4378 331 
L 4972 331 
L 4972 3938 
L 3372 684 
L 2931 684 
L 1331 3938 
L 1331 331 
L 1925 331 
L 1925 0 
L 353 0 
z
" transform="scale(0.015625)"/>
       <path id="DejaVuSerif-69" d="M 622 4353 
Q 622 4497 726 4603 
Q 831 4709 978 4709 
Q 1122 4709 1226 4603 
Q 1331 4497 1331 4353 
Q 1331 4206 1228 4103 
Q 1125 4000 978 4000 
Q 831 4000 726 4103 
Q 622 4206 622 4353 
z
M 1356 331 
L 1900 331 
L 1900 0 
L 231 0 
L 231 331 
L 781 331 
L 781 2988 
L 231 2988 
L 231 3322 
L 1356 3322 
L 1356 331 
z
" transform="scale(0.015625)"/>
       <path id="DejaVuSerif-42" d="M 1581 331 
L 2516 331 
Q 3078 331 3337 575 
Q 3597 819 3597 1350 
Q 3597 1878 3339 2120 
Q 3081 2363 2516 2363 
L 1581 2363 
L 1581 331 
z
M 1581 2694 
L 2375 2694 
Q 2888 2694 3123 2891 
Q 3359 3088 3359 3513 
Q 3359 3941 3123 4136 
Q 2888 4331 2375 4331 
L 1581 4331 
L 1581 2694 
z
M 353 0 
L 353 331 
L 947 331 
L 947 4331 
L 353 4331 
L 353 4666 
L 2656 4666 
Q 3363 4666 3720 4377 
Q 4078 4088 4078 3513 
Q 4078 3097 3829 2850 
Q 3581 2603 3103 2547 
Q 3697 2472 4005 2167 
Q 4313 1863 4313 1350 
Q 4313 656 3875 328 
Q 3438 0 2509 0 
L 353 0 
z
" transform="scale(0.015625)"/>
      </defs>
      <use xlink:href="#DejaVuSerif-24"/>
      <use xlink:href="#DejaVuSerif-2f" transform="translate(63.623047 0)"/>
      <use xlink:href="#DejaVuSerif-4d" transform="translate(97.314453 0)"/>
      <use xlink:href="#DejaVuSerif-69" transform="translate(199.707031 0)"/>
      <use xlink:href="#DejaVuSerif-42" transform="translate(231.689453 0)"/>
     </g>
    </g>
   </g>
   <g id="FillBetweenPolyCollection_2">
    <defs>
     <path id="m9b8a423ab2" d="M 63.567813 -111.914338 
L 63.567813 -75.160539 
L 67.988465 -74.704806 
L 72.409117 -74.385799 
L 76.829769 -73.895107 
L 81.250421 -72.996507 
L 85.671073 -73.452126 
L 90.091726 -72.635931 
L 94.512378 -72.063864 
L 98.93303 -69.807995 
L 103.353682 -69.611016 
L 107.774334 -71.938045 
L 112.194986 -66.885796 
L 116.615639 -64.96896 
L 121.036291 -65.960996 
L 125.456943 -64.424811 
L 129.877595 -65.061651 
L 134.298247 -62.844713 
L 138.718899 -64.785457 
L 143.139552 -65.030205 
L 147.560204 -62.98825 
L 151.980856 -62.738868 
L 156.401508 -61.640556 
L 160.82216 -61.397843 
L 165.242813 -61.9012 
L 169.663465 -63.278185 
L 174.084117 -61.405382 
L 178.504769 -59.93499 
L 182.925421 -60.388422 
L 187.346073 -61.142016 
L 191.766726 -59.814263 
L 196.187378 -59.206679 
L 200.60803 -58.013915 
L 205.028682 -57.743387 
L 209.449334 -57.03657 
L 213.869986 -57.176454 
L 218.290639 -56.573237 
L 222.711291 -56.702801 
L 227.131943 -56.114629 
L 231.552595 -55.897438 
L 235.973247 -55.811413 
L 240.393899 -55.612077 
L 244.814552 -55.116072 
L 249.235204 -55.992168 
L 253.655856 -54.521479 
L 258.076508 -53.38159 
L 262.49716 -54.522497 
L 266.917813 -55.637645 
L 271.338465 -56.043152 
L 275.759117 -56.679722 
L 280.179769 -56.580381 
L 284.600421 -55.215515 
L 289.021073 -55.359801 
L 293.441726 -55.512719 
L 297.862378 -57.453165 
L 302.28303 -57.164034 
L 306.703682 -57.941045 
L 311.124334 -58.788044 
L 315.544986 -59.491272 
L 319.965639 -58.680726 
L 324.386291 -58.773855 
L 328.806943 -57.924824 
L 333.227595 -57.764826 
L 337.648247 -57.519437 
L 342.068899 -58.720008 
L 346.489552 -58.776505 
L 350.910204 -59.883647 
L 355.330856 -58.998753 
L 359.751508 -57.028412 
L 364.17216 -57.571021 
L 368.592813 -57.732992 
L 373.013465 -56.660967 
L 377.434117 -56.351762 
L 381.854769 -55.062908 
L 386.275421 -54.688383 
L 390.696073 -54.338131 
L 395.116726 -54.654924 
L 399.537378 -54.732928 
L 403.95803 -54.352916 
L 408.378682 -54.697911 
L 412.799334 -54.432713 
L 417.219986 -54.039039 
L 421.640639 -52.996533 
L 426.061291 -52.726101 
L 430.481943 -51.75543 
L 434.902595 -51.580414 
L 439.323247 -52.029439 
L 443.743899 -51.967225 
L 448.164552 -51.834607 
L 452.585204 -50.767567 
L 457.005856 -51.063969 
L 461.426508 -50.906293 
L 465.84716 -50.222775 
L 470.267813 -49.875364 
L 470.267813 -60.660699 
L 470.267813 -60.660699 
L 465.84716 -61.562653 
L 461.426508 -62.662022 
L 457.005856 -63.117543 
L 452.585204 -62.347366 
L 448.164552 -64.12265 
L 443.743899 -64.69073 
L 439.323247 -65.249143 
L 434.902595 -65.113581 
L 430.481943 -65.011403 
L 426.061291 -67.103487 
L 421.640639 -68.194162 
L 417.219986 -69.528309 
L 412.799334 -70.527621 
L 408.378682 -70.708138 
L 403.95803 -70.427097 
L 399.537378 -71.155115 
L 395.116726 -71.193409 
L 390.696073 -71.770287 
L 386.275421 -71.786279 
L 381.854769 -73.12084 
L 377.434117 -73.60638 
L 373.013465 -74.556849 
L 368.592813 -77.016286 
L 364.17216 -76.773803 
L 359.751508 -75.431968 
L 355.330856 -78.087162 
L 350.910204 -79.233802 
L 346.489552 -78.346071 
L 342.068899 -76.52197 
L 337.648247 -75.623139 
L 333.227595 -75.596795 
L 328.806943 -75.903425 
L 324.386291 -76.244387 
L 319.965639 -76.831149 
L 315.544986 -78.666848 
L 311.124334 -77.745976 
L 306.703682 -76.661807 
L 302.28303 -75.451277 
L 297.862378 -74.869436 
L 293.441726 -72.14261 
L 289.021073 -71.623133 
L 284.600421 -71.757957 
L 280.179769 -72.690421 
L 275.759117 -73.598043 
L 271.338465 -72.222219 
L 266.917813 -71.707783 
L 262.49716 -70.604419 
L 258.076508 -69.417888 
L 253.655856 -70.761675 
L 249.235204 -71.890209 
L 244.814552 -71.438854 
L 240.393899 -71.291332 
L 235.973247 -71.338168 
L 231.552595 -71.138086 
L 227.131943 -72.191994 
L 222.711291 -72.675807 
L 218.290639 -73.817766 
L 213.869986 -73.973607 
L 209.449334 -74.248965 
L 205.028682 -75.123065 
L 200.60803 -75.806216 
L 196.187378 -77.919074 
L 191.766726 -80.22265 
L 187.346073 -81.312168 
L 182.925421 -79.983098 
L 178.504769 -79.374663 
L 174.084117 -81.263875 
L 169.663465 -85.372929 
L 165.242813 -83.806344 
L 160.82216 -81.377748 
L 156.401508 -79.580898 
L 151.980856 -82.909819 
L 147.560204 -83.414521 
L 143.139552 -86.434739 
L 138.718899 -85.517539 
L 134.298247 -85.340341 
L 129.877595 -86.245757 
L 125.456943 -85.656751 
L 121.036291 -86.235374 
L 116.615639 -86.689193 
L 112.194986 -89.536676 
L 107.774334 -97.964356 
L 103.353682 -95.397458 
L 98.93303 -95.347541 
L 94.512378 -97.540559 
L 90.091726 -99.948105 
L 85.671073 -101.950561 
L 81.250421 -99.900972 
L 76.829769 -102.076265 
L 72.409117 -104.023019 
L 67.988465 -106.038858 
L 63.567813 -111.914338 
z
" style="stroke: #6497b1; stroke-opacity: 0.3"/>
    </defs>
    <g clip-path="url(#pb905be7862)">
     <use xlink:href="#m9b8a423ab2" x="0" y="203.228937" style="fill: #6497b1; fill-opacity: 0.3; stroke: #6497b1; stroke-opacity: 0.3"/>
    </g>
   </g>
   <g id="patch_3">
    <path d="M 43.232813 159.45811 
L 43.232813 25.158281 
" style="fill: none; stroke: #000000; stroke-width: 0.6; stroke-linejoin: miter; stroke-linecap: square"/>
   </g>
   <g id="patch_4">
    <path d="M 43.232813 159.45811 
L 490.602813 159.45811 
" style="fill: none; stroke: #000000; stroke-width: 0.6; stroke-linejoin: miter; stroke-linecap: square"/>
   </g>
   <g id="line2d_15">
    <path d="M 63.567813 91.314599 
L 67.988465 97.190078 
L 72.409117 99.205918 
L 76.829769 101.152671 
L 81.250421 103.327964 
L 85.671073 101.278375 
L 90.091726 103.280832 
L 94.512378 105.688378 
L 98.93303 107.881395 
L 103.353682 107.831479 
L 107.774334 105.26458 
L 112.194986 113.692261 
L 116.615639 116.539744 
L 121.036291 116.993563 
L 125.456943 117.572186 
L 129.877595 116.98318 
L 134.298247 117.888595 
L 138.718899 117.711398 
L 143.139552 116.794198 
L 147.560204 119.814416 
L 151.980856 120.319118 
L 156.401508 123.648039 
L 160.82216 121.851189 
L 165.242813 119.422592 
L 169.663465 117.856008 
L 174.084117 121.965062 
L 178.504769 123.854274 
L 182.925421 123.245838 
L 187.346073 121.916768 
L 191.766726 123.006287 
L 196.187378 125.309863 
L 200.60803 127.422721 
L 205.028682 128.105872 
L 209.449334 128.979971 
L 213.869986 129.255329 
L 218.290639 129.411171 
L 222.711291 130.55313 
L 227.131943 131.036943 
L 231.552595 132.090851 
L 235.973247 131.890768 
L 240.393899 131.937605 
L 244.814552 131.790082 
L 249.235204 131.338728 
L 253.655856 132.467262 
L 258.076508 133.811049 
L 262.49716 132.624517 
L 266.917813 131.521153 
L 271.338465 131.006718 
L 275.759117 129.630894 
L 280.179769 130.538516 
L 284.600421 131.470979 
L 289.021073 131.605804 
L 293.441726 131.086326 
L 297.862378 128.359501 
L 302.28303 127.77766 
L 306.703682 126.56713 
L 311.124334 125.482961 
L 315.544986 124.562089 
L 319.965639 126.397788 
L 324.386291 126.98455 
L 328.806943 127.325512 
L 333.227595 127.632141 
L 337.648247 127.605797 
L 342.068899 126.706967 
L 346.489552 124.882866 
L 350.910204 123.995135 
L 355.330856 125.141775 
L 359.751508 127.796968 
L 364.17216 126.455134 
L 368.592813 126.212651 
L 373.013465 128.672088 
L 377.434117 129.622557 
L 381.854769 130.108097 
L 386.275421 131.442658 
L 390.696073 131.45865 
L 395.116726 132.035528 
L 399.537378 132.073822 
L 403.95803 132.80184 
L 408.378682 132.520799 
L 412.799334 132.701316 
L 417.219986 133.700628 
L 421.640639 135.034775 
L 426.061291 136.12545 
L 430.481943 138.217533 
L 434.902595 138.115356 
L 439.323247 137.979794 
L 443.743899 138.538207 
L 448.164552 139.106286 
L 452.585204 140.88157 
L 457.005856 140.111393 
L 461.426508 140.566915 
L 465.84716 141.666284 
L 470.267813 142.568238 
" clip-path="url(#pb905be7862)" style="fill: none; stroke: #6497b1; stroke-linecap: square"/>
   </g>
   <g id="text_9">
    <!-- NEAR — Cost per MiB (USD) — Quantile Bands -->
    <g transform="translate(133.43625 19.158281) scale(0.11 -0.11)">
     <defs>
      <path id="DejaVuSerif-4e" d="M 313 0 
L 313 331 
L 941 331 
L 941 4331 
L 313 4331 
L 313 4666 
L 1509 4666 
L 4306 984 
L 4306 4331 
L 3681 4331 
L 3681 4666 
L 5319 4666 
L 5319 4331 
L 4691 4331 
L 4691 -91 
L 4313 -91 
L 1325 3841 
L 1325 331 
L 1953 331 
L 1953 0 
L 313 0 
z
" transform="scale(0.015625)"/>
      <path id="DejaVuSerif-45" d="M 353 0 
L 353 331 
L 947 331 
L 947 4331 
L 353 4331 
L 353 4666 
L 4109 4666 
L 4109 3628 
L 3725 3628 
L 3725 4281 
L 1581 4281 
L 1581 2719 
L 3109 2719 
L 3109 3303 
L 3494 3303 
L 3494 1753 
L 3109 1753 
L 3109 2338 
L 1581 2338 
L 1581 384 
L 3775 384 
L 3775 1038 
L 4159 1038 
L 4159 0 
L 353 0 
z
" transform="scale(0.015625)"/>
      <path id="DejaVuSerif-41" d="M 1281 1691 
L 2994 1691 
L 2138 3909 
L 1281 1691 
z
M -38 0 
L -38 331 
L 372 331 
L 2034 4666 
L 2559 4666 
L 4225 331 
L 4684 331 
L 4684 0 
L 2988 0 
L 2988 331 
L 3506 331 
L 3116 1356 
L 1153 1356 
L 763 331 
L 1275 331 
L 1275 0 
L -38 0 
z
" transform="scale(0.015625)"/>
      <path id="DejaVuSerif-52" d="M 3066 2316 
Q 3284 2256 3442 2114 
Q 3600 1972 3725 1716 
L 4403 331 
L 4972 331 
L 4972 0 
L 3872 0 
L 3144 1484 
Q 2934 1916 2759 2042 
Q 2584 2169 2278 2169 
L 1581 2169 
L 1581 331 
L 2241 331 
L 2241 0 
L 353 0 
L 353 331 
L 947 331 
L 947 4331 
L 353 4331 
L 353 4666 
L 2719 4666 
Q 3400 4666 3770 4341 
Q 4141 4016 4141 3419 
Q 4141 2938 3870 2661 
Q 3600 2384 3066 2316 
z
M 1581 2503 
L 2503 2503 
Q 2975 2503 3200 2726 
Q 3425 2950 3425 3419 
Q 3425 3888 3200 4109 
Q 2975 4331 2503 4331 
L 1581 4331 
L 1581 2503 
z
" transform="scale(0.015625)"/>
      <path id="DejaVuSerif-2014" d="M 281 1906 
L 6119 1906 
L 6119 1491 
L 281 1491 
L 281 1906 
z
" transform="scale(0.015625)"/>
      <path id="DejaVuSerif-43" d="M 4513 1234 
Q 4306 581 3820 245 
Q 3334 -91 2591 -91 
Q 2134 -91 1743 65 
Q 1353 222 1050 525 
Q 700 875 529 1320 
Q 359 1766 359 2328 
Q 359 3416 987 4083 
Q 1616 4750 2644 4750 
Q 3025 4750 3456 4650 
Q 3888 4550 4384 4347 
L 4384 3272 
L 4031 3272 
Q 3916 3859 3567 4137 
Q 3219 4416 2591 4416 
Q 1844 4416 1459 3886 
Q 1075 3356 1075 2328 
Q 1075 1303 1459 773 
Q 1844 244 2591 244 
Q 3113 244 3450 492 
Q 3788 741 3938 1234 
L 4513 1234 
z
" transform="scale(0.015625)"/>
      <path id="DejaVuSerif-6f" d="M 1925 219 
Q 2388 219 2623 584 
Q 2859 950 2859 1663 
Q 2859 2375 2623 2739 
Q 2388 3103 1925 3103 
Q 1463 3103 1227 2739 
Q 991 2375 991 1663 
Q 991 950 1228 584 
Q 1466 219 1925 219 
z
M 1925 -91 
Q 1200 -91 759 389 
Q 319 869 319 1663 
Q 319 2456 758 2934 
Q 1197 3413 1925 3413 
Q 2653 3413 3092 2934 
Q 3531 2456 3531 1663 
Q 3531 869 3092 389 
Q 2653 -91 1925 -91 
z
" transform="scale(0.015625)"/>
      <path id="DejaVuSerif-73" d="M 359 184 
L 359 959 
L 691 959 
Q 703 588 923 403 
Q 1144 219 1575 219 
Q 1963 219 2166 364 
Q 2369 509 2369 788 
Q 2369 1006 2220 1140 
Q 2072 1275 1594 1428 
L 1178 1569 
Q 750 1706 558 1912 
Q 366 2119 366 2438 
Q 366 2894 700 3153 
Q 1034 3413 1625 3413 
Q 1888 3413 2178 3344 
Q 2469 3275 2778 3144 
L 2778 2419 
L 2447 2419 
Q 2434 2741 2221 2922 
Q 2009 3103 1644 3103 
Q 1281 3103 1095 2975 
Q 909 2847 909 2591 
Q 909 2381 1050 2254 
Q 1191 2128 1613 1997 
L 2069 1856 
Q 2541 1709 2748 1489 
Q 2956 1269 2956 922 
Q 2956 450 2595 179 
Q 2234 -91 1600 -91 
Q 1278 -91 972 -22 
Q 666 47 359 184 
z
" transform="scale(0.015625)"/>
      <path id="DejaVuSerif-74" d="M 691 2988 
L 184 2988 
L 184 3322 
L 691 3322 
L 691 4353 
L 1269 4353 
L 1269 3322 
L 2350 3322 
L 2350 2988 
L 1269 2988 
L 1269 878 
Q 1269 456 1350 337 
Q 1431 219 1650 219 
Q 1875 219 1978 351 
Q 2081 484 2088 781 
L 2522 781 
Q 2497 328 2275 118 
Q 2053 -91 1600 -91 
Q 1103 -91 897 129 
Q 691 350 691 878 
L 691 2988 
z
" transform="scale(0.015625)"/>
      <path id="DejaVuSerif-70" d="M 1313 1825 
L 1313 1497 
Q 1313 897 1542 583 
Q 1772 269 2209 269 
Q 2650 269 2876 622 
Q 3103 975 3103 1663 
Q 3103 2353 2876 2703 
Q 2650 3053 2209 3053 
Q 1772 3053 1542 2737 
Q 1313 2422 1313 1825 
z
M 738 2988 
L 184 2988 
L 184 3322 
L 1313 3322 
L 1313 2803 
Q 1481 3116 1742 3264 
Q 2003 3413 2388 3413 
Q 3000 3413 3387 2928 
Q 3775 2444 3775 1663 
Q 3775 881 3387 395 
Q 3000 -91 2388 -91 
Q 2003 -91 1742 57 
Q 1481 206 1313 519 
L 1313 -997 
L 1856 -997 
L 1856 -1331 
L 184 -1331 
L 184 -997 
L 738 -997 
L 738 2988 
z
" transform="scale(0.015625)"/>
      <path id="DejaVuSerif-72" d="M 3059 3328 
L 3059 2497 
L 2728 2497 
Q 2713 2744 2591 2866 
Q 2469 2988 2234 2988 
Q 1809 2988 1582 2694 
Q 1356 2400 1356 1850 
L 1356 331 
L 2022 331 
L 2022 0 
L 263 0 
L 263 331 
L 781 331 
L 781 2994 
L 231 2994 
L 231 3322 
L 1356 3322 
L 1356 2731 
Q 1525 3078 1790 3245 
Q 2056 3413 2438 3413 
Q 2578 3413 2733 3391 
Q 2888 3369 3059 3328 
z
" transform="scale(0.015625)"/>
      <path id="DejaVuSerif-28" d="M 2041 -997 
Q 1281 -656 893 83 
Q 506 822 506 1931 
Q 506 3044 893 3783 
Q 1281 4522 2041 4863 
L 2041 4556 
Q 1559 4225 1350 3623 
Q 1141 3022 1141 1931 
Q 1141 844 1350 242 
Q 1559 -359 2041 -691 
L 2041 -997 
z
" transform="scale(0.015625)"/>
      <path id="DejaVuSerif-55" d="M 897 4331 
L 300 4331 
L 300 4666 
L 2125 4666 
L 2125 4331 
L 1528 4331 
L 1528 1919 
Q 1528 1025 1820 672 
Q 2113 319 2828 319 
Q 3544 319 3836 672 
Q 4128 1025 4128 1919 
L 4128 4331 
L 3531 4331 
L 3531 4666 
L 5106 4666 
L 5106 4331 
L 4513 4331 
L 4513 1856 
Q 4513 791 4103 350 
Q 3694 -91 2713 -91 
Q 1731 -91 1314 353 
Q 897 797 897 1856 
L 897 4331 
z
" transform="scale(0.015625)"/>
      <path id="DejaVuSerif-53" d="M 594 225 
L 594 1288 
L 953 1284 
Q 969 753 1261 498 
Q 1553 244 2150 244 
Q 2706 244 2998 464 
Q 3291 684 3291 1106 
Q 3291 1444 3114 1625 
Q 2938 1806 2369 1978 
L 1753 2163 
Q 1084 2366 811 2669 
Q 538 2972 538 3500 
Q 538 4094 959 4422 
Q 1381 4750 2144 4750 
Q 2469 4750 2856 4679 
Q 3244 4609 3681 4475 
L 3681 3481 
L 3328 3481 
Q 3275 3975 2998 4195 
Q 2722 4416 2156 4416 
Q 1663 4416 1405 4214 
Q 1147 4013 1147 3628 
Q 1147 3294 1340 3103 
Q 1534 2913 2163 2725 
L 2741 2553 
Q 3375 2363 3645 2067 
Q 3916 1772 3916 1275 
Q 3916 597 3481 253 
Q 3047 -91 2188 -91 
Q 1803 -91 1404 -12 
Q 1006 66 594 225 
z
" transform="scale(0.015625)"/>
      <path id="DejaVuSerif-29" d="M 453 -997 
L 453 -691 
Q 934 -359 1145 242 
Q 1356 844 1356 1931 
Q 1356 3022 1145 3623 
Q 934 4225 453 4556 
L 453 4863 
Q 1216 4522 1603 3783 
Q 1991 3044 1991 1931 
Q 1991 822 1603 83 
Q 1216 -656 453 -997 
z
" transform="scale(0.015625)"/>
      <path id="DejaVuSerif-51" d="M 2700 -91 
Q 1628 -91 993 567 
Q 359 1225 359 2328 
Q 359 2894 529 3339 
Q 700 3784 1050 4134 
Q 1356 4441 1750 4595 
Q 2144 4750 2625 4750 
Q 3641 4750 4266 4084 
Q 4891 3419 4891 2328 
Q 4891 1403 4422 773 
Q 3953 144 3128 -38 
Q 3297 -247 3539 -347 
Q 3781 -447 4122 -447 
L 4219 -447 
L 4219 -1025 
Q 3691 -1000 3314 -767 
Q 2938 -534 2700 -91 
z
M 2625 244 
Q 3391 244 3781 770 
Q 4172 1297 4172 2328 
Q 4172 3363 3781 3889 
Q 3391 4416 2625 4416 
Q 1856 4416 1465 3889 
Q 1075 3363 1075 2328 
Q 1075 1297 1465 770 
Q 1856 244 2625 244 
z
" transform="scale(0.015625)"/>
      <path id="DejaVuSerif-75" d="M 2266 3322 
L 3341 3322 
L 3341 331 
L 3884 331 
L 3884 0 
L 2766 0 
L 2766 588 
Q 2606 256 2353 82 
Q 2100 -91 1766 -91 
Q 1213 -91 952 223 
Q 691 538 691 1209 
L 691 2988 
L 172 2988 
L 172 3322 
L 1269 3322 
L 1269 1388 
Q 1269 781 1417 556 
Q 1566 331 1947 331 
Q 2347 331 2556 625 
Q 2766 919 2766 1478 
L 2766 2988 
L 2266 2988 
L 2266 3322 
z
" transform="scale(0.015625)"/>
      <path id="DejaVuSerif-6c" d="M 1313 331 
L 1856 331 
L 1856 0 
L 184 0 
L 184 331 
L 738 331 
L 738 4531 
L 184 4531 
L 184 4863 
L 1313 4863 
L 1313 331 
z
" transform="scale(0.015625)"/>
      <path id="DejaVuSerif-64" d="M 3359 331 
L 3909 331 
L 3909 0 
L 2784 0 
L 2784 519 
Q 2616 206 2355 57 
Q 2094 -91 1709 -91 
Q 1097 -91 708 395 
Q 319 881 319 1663 
Q 319 2444 706 2928 
Q 1094 3413 1709 3413 
Q 2094 3413 2355 3264 
Q 2616 3116 2784 2803 
L 2784 4531 
L 2241 4531 
L 2241 4863 
L 3359 4863 
L 3359 331 
z
M 2784 1497 
L 2784 1825 
Q 2784 2422 2554 2737 
Q 2325 3053 1888 3053 
Q 1444 3053 1217 2703 
Q 991 2353 991 1663 
Q 991 975 1217 622 
Q 1444 269 1888 269 
Q 2325 269 2554 583 
Q 2784 897 2784 1497 
z
" transform="scale(0.015625)"/>
     </defs>
     <use xlink:href="#DejaVuSerif-4e"/>
     <use xlink:href="#DejaVuSerif-45" transform="translate(87.5 0)"/>
     <use xlink:href="#DejaVuSerif-41" transform="translate(160.498047 0)"/>
     <use xlink:href="#DejaVuSerif-52" transform="translate(232.714844 0)"/>
     <use xlink:href="#DejaVuSerif-20" transform="translate(308.007812 0)"/>
     <use xlink:href="#DejaVuSerif-2014" transform="translate(339.794922 0)"/>
     <use xlink:href="#DejaVuSerif-20" transform="translate(439.794922 0)"/>
     <use xlink:href="#DejaVuSerif-43" transform="translate(471.582031 0)"/>
     <use xlink:href="#DejaVuSerif-6f" transform="translate(548.095703 0)"/>
     <use xlink:href="#DejaVuSerif-73" transform="translate(608.300781 0)"/>
     <use xlink:href="#DejaVuSerif-74" transform="translate(659.619141 0)"/>
     <use xlink:href="#DejaVuSerif-20" transform="translate(699.804688 0)"/>
     <use xlink:href="#DejaVuSerif-70" transform="translate(731.591797 0)"/>
     <use xlink:href="#DejaVuSerif-65" transform="translate(795.605469 0)"/>
     <use xlink:href="#DejaVuSerif-72" transform="translate(854.785156 0)"/>
     <use xlink:href="#DejaVuSerif-20" transform="translate(902.587891 0)"/>
     <use xlink:href="#DejaVuSerif-4d" transform="translate(934.375 0)"/>
     <use xlink:href="#DejaVuSerif-69" transform="translate(1036.767578 0)"/>
     <use xlink:href="#DejaVuSerif-42" transform="translate(1068.75 0)"/>
     <use xlink:href="#DejaVuSerif-20" transform="translate(1142.236328 0)"/>
     <use xlink:href="#DejaVuSerif-28" transform="translate(1174.023438 0)"/>
     <use xlink:href="#DejaVuSerif-55" transform="translate(1213.037109 0)"/>
     <use xlink:href="#DejaVuSerif-53" transform="translate(1297.314453 0)"/>
     <use xlink:href="#DejaVuSerif-44" transform="translate(1365.820312 0)"/>
     <use xlink:href="#DejaVuSerif-29" transform="translate(1445.996094 0)"/>
     <use xlink:href="#DejaVuSerif-20" transform="translate(1485.009766 0)"/>
     <use xlink:href="#DejaVuSerif-2014" transform="translate(1516.796875 0)"/>
     <use xlink:href="#DejaVuSerif-20" transform="translate(1616.796875 0)"/>
     <use xlink:href="#DejaVuSerif-51" transform="translate(1648.583984 0)"/>
     <use xlink:href="#DejaVuSerif-75" transform="translate(1730.566406 0)"/>
     <use xlink:href="#DejaVuSerif-61" transform="translate(1794.970703 0)"/>
     <use xlink:href="#DejaVuSerif-6e" transform="translate(1854.589844 0)"/>
     <use xlink:href="#DejaVuSerif-74" transform="translate(1918.994141 0)"/>
     <use xlink:href="#DejaVuSerif-69" transform="translate(1959.179688 0)"/>
     <use xlink:href="#DejaVuSerif-6c" transform="translate(1991.162109 0)"/>
     <use xlink:href="#DejaVuSerif-65" transform="translate(2023.144531 0)"/>
     <use xlink:href="#DejaVuSerif-20" transform="translate(2082.324219 0)"/>
     <use xlink:href="#DejaVuSerif-42" transform="translate(2114.111328 0)"/>
     <use xlink:href="#DejaVuSerif-61" transform="translate(2187.597656 0)"/>
     <use xlink:href="#DejaVuSerif-6e" transform="translate(2247.216797 0)"/>
     <use xlink:href="#DejaVuSerif-64" transform="translate(2311.621094 0)"/>
     <use xlink:href="#DejaVuSerif-73" transform="translate(2375.634766 0)"/>
    </g>
   </g>
   <g id="line2d_16">
    <path d="M 63.567813 95.641604 
L 67.988465 98.145683 
L 72.409117 99.825231 
L 76.829769 100.948047 
L 81.250421 102.021482 
L 85.671073 102.459351 
L 90.091726 103.063245 
L 94.512378 104.973347 
L 98.93303 106.388546 
L 103.353682 107.506504 
L 107.774334 108.108682 
L 112.194986 109.568644 
L 116.615639 111.704001 
L 121.036291 113.496629 
L 125.456943 115.013185 
L 129.877595 116.308322 
L 134.298247 117.623072 
L 138.718899 119.145679 
L 143.139552 119.452796 
L 147.560204 119.675167 
L 151.980856 119.992873 
L 156.401508 120.806089 
L 160.82216 121.368278 
L 165.242813 121.525138 
L 169.663465 121.711938 
L 174.084117 122.438055 
L 178.504769 123.008342 
L 182.925421 123.457696 
L 187.346073 123.219918 
L 191.766726 123.352545 
L 196.187378 124.047762 
L 200.60803 125.187872 
L 205.028682 125.940539 
L 209.449334 126.571732 
L 213.869986 127.302537 
L 218.290639 128.240314 
L 222.711291 129.222253 
L 227.131943 130.0228 
L 231.552595 130.618056 
L 235.973247 131.127324 
L 240.393899 131.524132 
L 244.814552 131.912353 
L 249.235204 132.143684 
L 253.655856 132.355123 
L 258.076508 132.698306 
L 262.49716 132.749024 
L 266.917813 132.675788 
L 271.338465 132.585319 
L 275.759117 132.308351 
L 280.179769 132.232809 
L 284.600421 132.144688 
L 289.021073 131.871282 
L 293.441726 131.6528 
L 297.862378 131.228134 
L 302.28303 130.775764 
L 306.703682 130.34031 
L 311.124334 129.695361 
L 315.544986 128.799394 
L 319.965639 128.083186 
L 324.386291 127.592332 
L 328.806943 127.480059 
L 333.227595 127.44448 
L 337.648247 127.541013 
L 342.068899 127.691945 
L 346.489552 127.819174 
L 350.910204 127.472563 
L 355.330856 127.216781 
L 359.751508 127.215468 
L 364.17216 127.034972 
L 368.592813 126.838443 
L 373.013465 127.123468 
L 377.434117 127.701731 
L 381.854769 128.637439 
L 386.275421 129.478893 
L 390.696073 130.048973 
L 395.116726 130.848516 
L 399.537378 131.719364 
L 403.95803 132.253288 
L 408.378682 132.612523 
L 412.799334 132.893883 
L 417.219986 133.232363 
L 421.640639 133.759146 
L 426.061291 134.365298 
L 430.481943 135.208043 
L 434.902595 135.971464 
L 439.323247 136.726053 
L 443.743899 137.560463 
L 448.164552 138.345267 
L 452.585204 139.16192 
L 457.005856 139.73181 
L 461.426508 140.075963 
L 465.84716 140.551818 
L 470.267813 141.157379 
" clip-path="url(#pb905be7862)" style="fill: none; stroke: #cc3333; stroke-width: 1.5; stroke-linecap: square"/>
   </g>
   <g id="legend_1">
    <g id="patch_5">
     <path d="M 424.800313 66.899531 
L 485.002812 66.899531 
Q 486.602812 66.899531 486.602812 65.299531 
L 486.602812 30.758281 
Q 486.602812 29.158281 485.002812 29.158281 
L 424.800313 29.158281 
Q 423.200312 29.158281 423.200312 30.758281 
L 423.200312 65.299531 
Q 423.200312 66.899531 424.800313 66.899531 
z
" style="fill: #ffffff; opacity: 0.9; stroke: #cccccc; stroke-linejoin: miter"/>
    </g>
    <g id="patch_6">
     <path d="M 426.400312 38.437031 
L 442.400312 38.437031 
L 442.400312 32.837031 
L 426.400312 32.837031 
z
" style="fill: #b3cde3; fill-opacity: 0.4; stroke: #b3cde3; stroke-opacity: 0.4; stroke-linejoin: miter"/>
    </g>
    <g id="text_10">
     <!-- p10–p90 -->
     <g transform="translate(448.800312 38.437031) scale(0.08 -0.08)">
      <defs>
       <path id="DejaVuSerif-2013" d="M 281 1906 
L 2919 1906 
L 2919 1491 
L 281 1491 
L 281 1906 
z
" transform="scale(0.015625)"/>
       <path id="DejaVuSerif-39" d="M 2994 2091 
Q 2784 1856 2512 1740 
Q 2241 1625 1900 1625 
Q 1206 1625 804 2044 
Q 403 2463 403 3188 
Q 403 3897 839 4323 
Q 1275 4750 2003 4750 
Q 2794 4750 3217 4161 
Q 3641 3572 3641 2478 
Q 3641 1253 3137 581 
Q 2634 -91 1722 -91 
Q 1475 -91 1203 -44 
Q 931 3 647 97 
L 647 872 
L 997 872 
Q 1038 556 1241 387 
Q 1444 219 1784 219 
Q 2391 219 2687 676 
Q 2984 1134 2994 2091 
z
M 1978 4441 
Q 1534 4441 1298 4117 
Q 1063 3794 1063 3188 
Q 1063 2581 1298 2256 
Q 1534 1931 1978 1931 
Q 2422 1931 2658 2245 
Q 2894 2559 2894 3150 
Q 2894 3772 2656 4106 
Q 2419 4441 1978 4441 
z
" transform="scale(0.015625)"/>
      </defs>
      <use xlink:href="#DejaVuSerif-70"/>
      <use xlink:href="#DejaVuSerif-31" transform="translate(64.013672 0)"/>
      <use xlink:href="#DejaVuSerif-30" transform="translate(127.636719 0)"/>
      <use xlink:href="#DejaVuSerif-2013" transform="translate(191.259766 0)"/>
      <use xlink:href="#DejaVuSerif-70" transform="translate(241.259766 0)"/>
      <use xlink:href="#DejaVuSerif-39" transform="translate(305.273438 0)"/>
      <use xlink:href="#DejaVuSerif-30" transform="translate(368.896484 0)"/>
     </g>
    </g>
    <g id="line2d_17">
     <path d="M 426.400312 47.379531 
L 434.400312 47.379531 
L 442.400312 47.379531 
" style="fill: none; stroke: #6497b1; stroke-linecap: square"/>
    </g>
    <g id="text_11">
     <!-- p50 -->
     <g transform="translate(448.800312 50.179531) scale(0.08 -0.08)">
      <use xlink:href="#DejaVuSerif-70"/>
      <use xlink:href="#DejaVuSerif-35" transform="translate(64.013672 0)"/>
      <use xlink:href="#DejaVuSerif-30" transform="translate(127.636719 0)"/>
     </g>
    </g>
    <g id="line2d_18">
     <path d="M 426.400312 59.122031 
L 434.400312 59.122031 
L 442.400312 59.122031 
" style="fill: none; stroke: #cc3333; stroke-width: 1.5; stroke-linecap: square"/>
    </g>
    <g id="text_12">
     <!-- 7d avg -->
     <g transform="translate(448.800312 61.922031) scale(0.08 -0.08)">
      <defs>
       <path id="DejaVuSerif-37" d="M 3609 4347 
L 1784 0 
L 1319 0 
L 3059 4153 
L 903 4153 
L 903 3578 
L 538 3578 
L 538 4666 
L 3609 4666 
L 3609 4347 
z
" transform="scale(0.015625)"/>
       <path id="DejaVuSerif-76" d="M 1581 0 
L 359 2988 
L -19 2988 
L -19 3322 
L 1509 3322 
L 1509 2988 
L 978 2988 
L 1913 703 
L 2847 2988 
L 2350 2988 
L 2350 3322 
L 3597 3322 
L 3597 2988 
L 3225 2988 
L 2003 0 
L 1581 0 
z
" transform="scale(0.015625)"/>
       <path id="DejaVuSerif-67" d="M 3359 2988 
L 3359 72 
Q 3359 -644 2965 -1033 
Q 2572 -1422 1844 -1422 
Q 1516 -1422 1216 -1362 
Q 916 -1303 641 -1184 
L 641 -488 
L 941 -488 
Q 997 -813 1206 -963 
Q 1416 -1113 1806 -1113 
Q 2313 -1113 2548 -827 
Q 2784 -541 2784 72 
L 2784 519 
Q 2616 206 2355 57 
Q 2094 -91 1709 -91 
Q 1097 -91 708 395 
Q 319 881 319 1663 
Q 319 2444 706 2928 
Q 1094 3413 1709 3413 
Q 2094 3413 2355 3264 
Q 2616 3116 2784 2803 
L 2784 3322 
L 3909 3322 
L 3909 2988 
L 3359 2988 
z
M 2784 1825 
Q 2784 2422 2554 2737 
Q 2325 3053 1888 3053 
Q 1444 3053 1217 2703 
Q 991 2353 991 1663 
Q 991 975 1217 622 
Q 1444 269 1888 269 
Q 2325 269 2554 583 
Q 2784 897 2784 1497 
L 2784 1825 
z
" transform="scale(0.015625)"/>
      </defs>
      <use xlink:href="#DejaVuSerif-37"/>
      <use xlink:href="#DejaVuSerif-64" transform="translate(63.623047 0)"/>
      <use xlink:href="#DejaVuSerif-20" transform="translate(127.636719 0)"/>
      <use xlink:href="#DejaVuSerif-61" transform="translate(159.423828 0)"/>
      <use xlink:href="#DejaVuSerif-76" transform="translate(219.042969 0)"/>
      <use xlink:href="#DejaVuSerif-67" transform="translate(275.537109 0)"/>
     </g>
    </g>
   </g>
  </g>
 </g>
 <defs>
  <clipPath id="pb905be7862">
   <rect x="43.232813" y="25.158281" width="447.37" height="134.299829"/>
  </clipPath>
 </defs>
</svg>
