<?xml version="1.0" encoding="utf-8" standalone="no"?>
<!DOCTYPE svg PUBLIC "-//W3C//DTD SVG 1.1//EN"
  "http://www.w3.org/Graphics/SVG/1.1/DTD/svg11.dtd">
<svg xmlns:xlink="http://www.w3.org/1999/xlink" width="506.435312pt" height="203.228937pt" viewBox="0 0 506.435312 203.228937" xmlns="http://www.w3.org/2000/svg" version="1.1">
 <metadata>
  <rdf:RDF xmlns:dc="http://purl.org/dc/elements/1.1/" xmlns:cc="http://creativecommons.org/ns#" xmlns:rdf="http://www.w3.org/1999/02/22-rdf-syntax-ns#">
   <cc:Work>
    <dc:type rdf:resource="http://purl.org/dc/dcmitype/StillImage"/>
    <dc:date>2026-02-16T16:57:27.304530</dc:date>
    <dc:format>image/svg+xml</dc:format>
    <dc:creator>
     <cc:Agent>
      <dc:title>Matplotlib v3.10.8, https://matplotlib.org/</dc:title>
     </cc:Agent>
    </dc:creator>
   </cc:Work>
  </rdf:RDF>
 </metadata>
 <defs>
  <style type="text/css">*{stroke-linejoin: round; stroke-linecap: butt}</style>
 </defs>
 <g id="figure_1">
  <g id="patch_1">
   <path d="M 0 203.228937 
L 506.435312 203.228937 
L 506.435312 0 
L 0 0 
z
" style="fill: #ffffff"/>
  </g>
  <g id="axes_1">
   <g id="patch_2">
    <path d="M 55.960313 159.45811 
L 495.635312 159.45811 
L 495.635312 25.158281 
L 55.960313 25.158281 
z
" style="fill: #ffffff"/>
   </g>
   <g id="matplotlib.axis_1">
    <g id="xtick_1">
     <g id="line2d_1">
      <path d="M 168.118786 159.45811 
L 168.118786 25.158281 
" clip-path="url(#p029dbc1ff9)" style="fill: none; stroke: #b0b0b0; stroke-opacity: 0.25; stroke-width: 0.5; stroke-linecap: square"/>
     </g>
     <g id="line2d_2">
      <defs>
       <path id="m4a555edd38" d="M 0 0 
L 0 3.5 
" style="stroke: #000000; stroke-width: 0.8"/>
      </defs>
      <g>
       <use xlink:href="#m4a555edd38" x="168.118786" y="159.45811" style="stroke: #000000; stroke-width: 0.8"/>
      </g>
     </g>
     <g id="text_1">
      <!-- Dec 2025 -->
      <g transform="translate(133.91787 190.988087) rotate(-30) scale(0.08 -0.08)">
       <defs>
        <path id="DejaVuSerif-44" d="M 1581 331 
L 2163 331 
Q 3072 331 3558 850 
Q 4044 1369 4044 2338 
Q 4044 3306 3559 3818 
Q 3075 4331 2163 4331 
L 1581 4331 
L 1581 331 
z
M 353 0 
L 353 331 
L 947 331 
L 947 4331 
L 353 4331 
L 353 4666 
L 2209 4666 
Q 3416 4666 4089 4050 
Q 4763 3434 4763 2338 
Q 4763 1238 4088 619 
Q 3413 0 2209 0 
L 353 0 
z
" transform="scale(0.015625)"/>
        <path id="DejaVuSerif-65" d="M 3469 1600 
L 991 1600 
L 991 1575 
Q 991 903 1244 561 
Q 1497 219 1991 219 
Q 2369 219 2611 417 
Q 2853 616 2950 1006 
L 3413 1006 
Q 3275 459 2904 184 
Q 2534 -91 1931 -91 
Q 1203 -91 761 389 
Q 319 869 319 1663 
Q 319 2450 753 2931 
Q 1188 3413 1894 3413 
Q 2647 3413 3050 2948 
Q 3453 2484 3469 1600 
z
M 2791 1931 
Q 2772 2513 2545 2808 
Q 2319 3103 1894 3103 
Q 1497 3103 1269 2806 
Q 1041 2509 991 1931 
L 2791 1931 
z
" transform="scale(0.015625)"/>
        <path id="DejaVuSerif-63" d="M 3291 997 
Q 3169 466 2822 187 
Q 2475 -91 1925 -91 
Q 1200 -91 759 389 
Q 319 869 319 1663 
Q 319 2459 759 2936 
Q 1200 3413 1925 3413 
Q 2241 3413 2553 3339 
Q 2866 3266 3181 3116 
L 3181 2266 
L 2847 2266 
Q 2781 2703 2561 2903 
Q 2341 3103 1931 3103 
Q 1466 3103 1228 2742 
Q 991 2381 991 1663 
Q 991 944 1227 581 
Q 1463 219 1931 219 
Q 2303 219 2525 412 
Q 2747 606 2828 997 
L 3291 997 
z
" transform="scale(0.015625)"/>
        <path id="DejaVuSerif-20" transform="scale(0.015625)"/>
        <path id="DejaVuSerif-32" d="M 819 3553 
L 469 3553 
L 469 4384 
Q 803 4563 1142 4656 
Q 1481 4750 1806 4750 
Q 2534 4750 2956 4397 
Q 3378 4044 3378 3438 
Q 3378 2753 2422 1800 
Q 2347 1728 2309 1691 
L 1131 513 
L 3078 513 
L 3078 1088 
L 3444 1088 
L 3444 0 
L 434 0 
L 434 341 
L 1850 1753 
Q 2319 2222 2519 2614 
Q 2719 3006 2719 3438 
Q 2719 3909 2473 4175 
Q 2228 4441 1797 4441 
Q 1350 4441 1106 4219 
Q 863 3997 819 3553 
z
" transform="scale(0.015625)"/>
        <path id="DejaVuSerif-30" d="M 2034 219 
Q 2513 219 2750 744 
Q 2988 1269 2988 2328 
Q 2988 3391 2750 3916 
Q 2513 4441 2034 4441 
Q 1556 4441 1318 3916 
Q 1081 3391 1081 2328 
Q 1081 1269 1318 744 
Q 1556 219 2034 219 
z
M 2034 -91 
Q 1275 -91 848 546 
Q 422 1184 422 2328 
Q 422 3475 848 4112 
Q 1275 4750 2034 4750 
Q 2797 4750 3222 4112 
Q 3647 3475 3647 2328 
Q 3647 1184 3222 546 
Q 2797 -91 2034 -91 
z
" transform="scale(0.015625)"/>
        <path id="DejaVuSerif-35" d="M 3219 4666 
L 3219 4153 
L 1081 4153 
L 1081 2816 
Q 1244 2928 1461 2984 
Q 1678 3041 1947 3041 
Q 2703 3041 3140 2622 
Q 3578 2203 3578 1478 
Q 3578 738 3136 323 
Q 2694 -91 1894 -91 
Q 1572 -91 1234 -12 
Q 897 66 544 225 
L 544 1131 
L 897 1131 
Q 925 688 1179 453 
Q 1434 219 1894 219 
Q 2388 219 2653 544 
Q 2919 869 2919 1478 
Q 2919 2084 2655 2407 
Q 2391 2731 1894 2731 
Q 1613 2731 1398 2631 
Q 1184 2531 1019 2322 
L 750 2322 
L 750 4666 
L 3219 4666 
z
" transform="scale(0.015625)"/>
       </defs>
       <use xlink:href="#DejaVuSerif-44"/>
       <use xlink:href="#DejaVuSerif-65" transform="translate(80.175781 0)"/>
       <use xlink:href="#DejaVuSerif-63" transform="translate(139.355469 0)"/>
       <use xlink:href="#DejaVuSerif-20" transform="translate(195.361328 0)"/>
       <use xlink:href="#DejaVuSerif-32" transform="translate(227.148438 0)"/>
       <use xlink:href="#DejaVuSerif-30" transform="translate(290.771484 0)"/>
       <use xlink:href="#DejaVuSerif-32" transform="translate(354.394531 0)"/>
       <use xlink:href="#DejaVuSerif-35" transform="translate(418.017578 0)"/>
      </g>
     </g>
    </g>
    <g id="xtick_2">
     <g id="line2d_3">
      <path d="M 301.640779 159.45811 
L 301.640779 25.158281 
" clip-path="url(#p029dbc1ff9)" style="fill: none; stroke: #b0b0b0; stroke-opacity: 0.25; stroke-width: 0.5; stroke-linecap: square"/>
     </g>
     <g id="line2d_4">
      <g>
       <use xlink:href="#m4a555edd38" x="301.640779" y="159.45811" style="stroke: #000000; stroke-width: 0.8"/>
      </g>
     </g>
     <g id="text_2">
      <!-- Jan 2026 -->
      <g transform="translate(269.603843 189.738712) rotate(-30) scale(0.08 -0.08)">
       <defs>
        <path id="DejaVuSerif-4a" d="M -538 -1119 
L -538 -384 
L -181 -384 
Q -172 -694 -34 -845 
Q 103 -997 378 -997 
Q 750 -997 897 -762 
Q 1044 -528 1044 153 
L 1044 4331 
L 319 4331 
L 319 4666 
L 2272 4666 
L 2272 4331 
L 1678 4331 
L 1678 128 
Q 1678 -644 1368 -987 
Q 1059 -1331 372 -1331 
Q 150 -1331 -79 -1278 
Q -309 -1225 -538 -1119 
z
" transform="scale(0.015625)"/>
        <path id="DejaVuSerif-61" d="M 2547 1044 
L 2547 1747 
L 1806 1747 
Q 1378 1747 1168 1562 
Q 959 1378 959 997 
Q 959 650 1171 447 
Q 1384 244 1747 244 
Q 2106 244 2326 466 
Q 2547 688 2547 1044 
z
M 3122 2075 
L 3122 331 
L 3634 331 
L 3634 0 
L 2547 0 
L 2547 359 
Q 2356 128 2106 18 
Q 1856 -91 1522 -91 
Q 969 -91 644 203 
Q 319 497 319 997 
Q 319 1513 691 1797 
Q 1063 2081 1741 2081 
L 2547 2081 
L 2547 2309 
Q 2547 2688 2317 2895 
Q 2088 3103 1672 3103 
Q 1328 3103 1125 2947 
Q 922 2791 872 2484 
L 575 2484 
L 575 3156 
Q 875 3284 1158 3348 
Q 1441 3413 1709 3413 
Q 2400 3413 2761 3070 
Q 3122 2728 3122 2075 
z
" transform="scale(0.015625)"/>
        <path id="DejaVuSerif-6e" d="M 263 0 
L 263 331 
L 781 331 
L 781 2988 
L 231 2988 
L 231 3322 
L 1356 3322 
L 1356 2731 
Q 1516 3069 1770 3241 
Q 2025 3413 2363 3413 
Q 2913 3413 3172 3097 
Q 3431 2781 3431 2113 
L 3431 331 
L 3944 331 
L 3944 0 
L 2356 0 
L 2356 331 
L 2853 331 
L 2853 1931 
Q 2853 2541 2703 2767 
Q 2553 2994 2175 2994 
Q 1775 2994 1565 2701 
Q 1356 2409 1356 1850 
L 1356 331 
L 1856 331 
L 1856 0 
L 263 0 
z
" transform="scale(0.015625)"/>
        <path id="DejaVuSerif-36" d="M 2094 219 
Q 2534 219 2771 542 
Q 3009 866 3009 1472 
Q 3009 2078 2771 2401 
Q 2534 2725 2094 2725 
Q 1647 2725 1412 2412 
Q 1178 2100 1178 1509 
Q 1178 888 1415 553 
Q 1653 219 2094 219 
z
M 1075 2569 
Q 1288 2803 1556 2918 
Q 1825 3034 2163 3034 
Q 2859 3034 3264 2615 
Q 3669 2197 3669 1472 
Q 3669 763 3233 336 
Q 2797 -91 2069 -91 
Q 1278 -91 853 498 
Q 428 1088 428 2181 
Q 428 3406 931 4078 
Q 1434 4750 2350 4750 
Q 2597 4750 2869 4703 
Q 3141 4656 3425 4563 
L 3425 3794 
L 3072 3794 
Q 3034 4109 2831 4275 
Q 2628 4441 2284 4441 
Q 1678 4441 1381 3981 
Q 1084 3522 1075 2569 
z
" transform="scale(0.015625)"/>
       </defs>
       <use xlink:href="#DejaVuSerif-4a"/>
       <use xlink:href="#DejaVuSerif-61" transform="translate(40.087891 0)"/>
       <use xlink:href="#DejaVuSerif-6e" transform="translate(99.707031 0)"/>
       <use xlink:href="#DejaVuSerif-20" transform="translate(164.111328 0)"/>
       <use xlink:href="#DejaVuSerif-32" transform="translate(195.898438 0)"/>
       <use xlink:href="#DejaVuSerif-30" transform="translate(259.521484 0)"/>
       <use xlink:href="#DejaVuSerif-32" transform="translate(323.144531 0)"/>
       <use xlink:href="#DejaVuSerif-36" transform="translate(386.767578 0)"/>
      </g>
     </g>
    </g>
    <g id="xtick_3">
     <g id="line2d_5">
      <path d="M 435.162771 159.45811 
L 435.162771 25.158281 
" clip-path="url(#p029dbc1ff9)" style="fill: none; stroke: #b0b0b0; stroke-opacity: 0.25; stroke-width: 0.5; stroke-linecap: square"/>
     </g>
     <g id="line2d_6">
      <g>
       <use xlink:href="#m4a555edd38" x="435.162771" y="159.45811" style="stroke: #000000; stroke-width: 0.8"/>
      </g>
     </g>
     <g id="text_3">
      <!-- Feb 2026 -->
      <g transform="translate(401.534514 190.657462) rotate(-30) scale(0.08 -0.08)">
       <defs>
        <path id="DejaVuSerif-46" d="M 353 0 
L 353 331 
L 947 331 
L 947 4331 
L 353 4331 
L 353 4666 
L 4172 4666 
L 4172 3628 
L 3788 3628 
L 3788 4281 
L 1581 4281 
L 1581 2719 
L 3175 2719 
L 3175 3303 
L 3559 3303 
L 3559 1753 
L 3175 1753 
L 3175 2338 
L 1581 2338 
L 1581 331 
L 2328 331 
L 2328 0 
L 353 0 
z
" transform="scale(0.015625)"/>
        <path id="DejaVuSerif-62" d="M 738 331 
L 738 4531 
L 184 4531 
L 184 4863 
L 1313 4863 
L 1313 2803 
Q 1481 3116 1742 3264 
Q 2003 3413 2388 3413 
Q 3000 3413 3387 2928 
Q 3775 2444 3775 1663 
Q 3775 881 3387 395 
Q 3000 -91 2388 -91 
Q 2003 -91 1742 57 
Q 1481 206 1313 519 
L 1313 0 
L 184 0 
L 184 331 
L 738 331 
z
M 1313 1497 
Q 1313 897 1542 583 
Q 1772 269 2209 269 
Q 2650 269 2876 622 
Q 3103 975 3103 1663 
Q 3103 2353 2876 2703 
Q 2650 3053 2209 3053 
Q 1772 3053 1542 2737 
Q 1313 2422 1313 1825 
L 1313 1497 
z
" transform="scale(0.015625)"/>
       </defs>
       <use xlink:href="#DejaVuSerif-46"/>
       <use xlink:href="#DejaVuSerif-65" transform="translate(63.884766 0)"/>
       <use xlink:href="#DejaVuSerif-62" transform="translate(123.064453 0)"/>
       <use xlink:href="#DejaVuSerif-20" transform="translate(187.078125 0)"/>
       <use xlink:href="#DejaVuSerif-32" transform="translate(218.865234 0)"/>
       <use xlink:href="#DejaVuSerif-30" transform="translate(282.488281 0)"/>
       <use xlink:href="#DejaVuSerif-32" transform="translate(346.111328 0)"/>
       <use xlink:href="#DejaVuSerif-36" transform="translate(409.734375 0)"/>
      </g>
     </g>
    </g>
   </g>
   <g id="matplotlib.axis_2">
    <g id="ytick_1">
     <g id="line2d_7">
      <path d="M 55.960313 159.45811 
L 495.635312 159.45811 
" clip-path="url(#p029dbc1ff9)" style="fill: none; stroke: #b0b0b0; stroke-opacity: 0.25; stroke-width: 0.5; stroke-linecap: square"/>
     </g>
     <g id="line2d_8">
      <defs>
       <path id="mdea624ed59" d="M 0 0 
L -3.5 0 
" style="stroke: #000000; stroke-width: 0.8"/>
      </defs>
      <g>
       <use xlink:href="#mdea624ed59" x="55.960313" y="159.45811" style="stroke: #000000; stroke-width: 0.8"/>
      </g>
     </g>
     <g id="text_4">
      <!-- 0 -->
      <g transform="translate(43.870312 162.497485) scale(0.08 -0.08)">
       <use xlink:href="#DejaVuSerif-30"/>
      </g>
     </g>
    </g>
    <g id="ytick_2">
     <g id="line2d_9">
      <path d="M 55.960313 135.175378 
L 495.635312 135.175378 
" clip-path="url(#p029dbc1ff9)" style="fill: none; stroke: #b0b0b0; stroke-opacity: 0.25; stroke-width: 0.5; stroke-linecap: square"/>
     </g>
     <g id="line2d_10">
      <g>
       <use xlink:href="#mdea624ed59" x="55.960313" y="135.175378" style="stroke: #000000; stroke-width: 0.8"/>
      </g>
     </g>
     <g id="text_5">
      <!-- 2000 -->
      <g transform="translate(28.600313 138.214753) scale(0.08 -0.08)">
       <use xlink:href="#DejaVuSerif-32"/>
       <use xlink:href="#DejaVuSerif-30" transform="translate(63.623047 0)"/>
       <use xlink:href="#DejaVuSerif-30" transform="translate(127.246094 0)"/>
       <use xlink:href="#DejaVuSerif-30" transform="translate(190.869141 0)"/>
      </g>
     </g>
    </g>
    <g id="ytick_3">
     <g id="line2d_11">
      <path d="M 55.960313 110.892646 
L 495.635312 110.892646 
" clip-path="url(#p029dbc1ff9)" style="fill: none; stroke: #b0b0b0; stroke-opacity: 0.25; stroke-width: 0.5; stroke-linecap: square"/>
     </g>
     <g id="line2d_12">
      <g>
       <use xlink:href="#mdea624ed59" x="55.960313" y="110.892646" style="stroke: #000000; stroke-width: 0.8"/>
      </g>
     </g>
     <g id="text_6">
      <!-- 4000 -->
      <g transform="translate(28.600313 113.932021) scale(0.08 -0.08)">
       <defs>
        <path id="DejaVuSerif-34" d="M 2234 1581 
L 2234 4063 
L 641 1581 
L 2234 1581 
z
M 3609 0 
L 1484 0 
L 1484 331 
L 2234 331 
L 2234 1247 
L 197 1247 
L 197 1588 
L 2241 4750 
L 2859 4750 
L 2859 1581 
L 3750 1581 
L 3750 1247 
L 2859 1247 
L 2859 331 
L 3609 331 
L 3609 0 
z
" transform="scale(0.015625)"/>
       </defs>
       <use xlink:href="#DejaVuSerif-34"/>
       <use xlink:href="#DejaVuSerif-30" transform="translate(63.623047 0)"/>
       <use xlink:href="#DejaVuSerif-30" transform="translate(127.246094 0)"/>
       <use xlink:href="#DejaVuSerif-30" transform="translate(190.869141 0)"/>
      </g>
     </g>
    </g>
    <g id="ytick_4">
     <g id="line2d_13">
      <path d="M 55.960313 86.609914 
L 495.635312 86.609914 
" clip-path="url(#p029dbc1ff9)" style="fill: none; stroke: #b0b0b0; stroke-opacity: 0.25; stroke-width: 0.5; stroke-linecap: square"/>
     </g>
     <g id="line2d_14">
      <g>
       <use xlink:href="#mdea624ed59" x="55.960313" y="86.609914" style="stroke: #000000; stroke-width: 0.8"/>
      </g>
     </g>
     <g id="text_7">
      <!-- 6000 -->
      <g transform="translate(28.600313 89.649289) scale(0.08 -0.08)">
       <use xlink:href="#DejaVuSerif-36"/>
       <use xlink:href="#DejaVuSerif-30" transform="translate(63.623047 0)"/>
       <use xlink:href="#DejaVuSerif-30" transform="translate(127.246094 0)"/>
       <use xlink:href="#DejaVuSerif-30" transform="translate(190.869141 0)"/>
      </g>
     </g>
    </g>
    <g id="ytick_5">
     <g id="line2d_15">
      <path d="M 55.960313 62.327181 
L 495.635312 62.327181 
" clip-path="url(#p029dbc1ff9)" style="fill: none; stroke: #b0b0b0; stroke-opacity: 0.25; stroke-width: 0.5; stroke-linecap: square"/>
     </g>
     <g id="line2d_16">
      <g>
       <use xlink:href="#mdea624ed59" x="55.960313" y="62.327181" style="stroke: #000000; stroke-width: 0.8"/>
      </g>
     </g>
     <g id="text_8">
      <!-- 8000 -->
      <g transform="translate(28.600313 65.366556) scale(0.08 -0.08)">
       <defs>
        <path id="DejaVuSerif-38" d="M 2981 1275 
Q 2981 1775 2732 2051 
Q 2484 2328 2034 2328 
Q 1584 2328 1336 2051 
Q 1088 1775 1088 1275 
Q 1088 772 1336 495 
Q 1584 219 2034 219 
Q 2484 219 2732 495 
Q 2981 772 2981 1275 
z
M 2853 3541 
Q 2853 3966 2637 4203 
Q 2422 4441 2034 4441 
Q 1650 4441 1433 4203 
Q 1216 3966 1216 3541 
Q 1216 3113 1433 2875 
Q 1650 2638 2034 2638 
Q 2422 2638 2637 2875 
Q 2853 3113 2853 3541 
z
M 2516 2484 
Q 3047 2413 3344 2092 
Q 3641 1772 3641 1275 
Q 3641 619 3225 264 
Q 2809 -91 2034 -91 
Q 1263 -91 845 264 
Q 428 619 428 1275 
Q 428 1772 725 2092 
Q 1022 2413 1556 2484 
Q 1084 2569 832 2842 
Q 581 3116 581 3541 
Q 581 4103 968 4426 
Q 1356 4750 2034 4750 
Q 2713 4750 3100 4426 
Q 3488 4103 3488 3541 
Q 3488 3116 3236 2842 
Q 2984 2569 2516 2484 
z
" transform="scale(0.015625)"/>
       </defs>
       <use xlink:href="#DejaVuSerif-38"/>
       <use xlink:href="#DejaVuSerif-30" transform="translate(63.623047 0)"/>
       <use xlink:href="#DejaVuSerif-30" transform="translate(127.246094 0)"/>
       <use xlink:href="#DejaVuSerif-30" transform="translate(190.869141 0)"/>
      </g>
     </g>
    </g>
    <g id="ytick_6">
     <g id="line2d_17">
      <path d="M 55.960313 38.044449 
L 495.635312 38.044449 
" clip-path="url(#p029dbc1ff9)" style="fill: none; stroke: #b0b0b0; stroke-opacity: 0.25; stroke-width: 0.5; stroke-linecap: square"/>
     </g>
     <g id="line2d_18">
      <g>
       <use xlink:href="#mdea624ed59" x="55.960313" y="38.044449" style="stroke: #000000; stroke-width: 0.8"/>
      </g>
     </g>
     <g id="text_9">
      <!-- 10000 -->
      <g transform="translate(23.510313 41.083824) scale(0.08 -0.08)">
       <defs>
        <path id="DejaVuSerif-31" d="M 909 0 
L 909 331 
L 1722 331 
L 1722 4213 
L 781 3603 
L 781 4013 
L 1919 4750 
L 2350 4750 
L 2350 331 
L 3163 331 
L 3163 0 
L 909 0 
z
" transform="scale(0.015625)"/>
       </defs>
       <use xlink:href="#DejaVuSerif-31"/>
       <use xlink:href="#DejaVuSerif-30" transform="translate(63.623047 0)"/>
       <use xlink:href="#DejaVuSerif-30" transform="translate(127.246094 0)"/>
       <use xlink:href="#DejaVuSerif-30" transform="translate(190.869141 0)"/>
       <use xlink:href="#DejaVuSerif-30" transform="translate(254.492188 0)"/>
      </g>
     </g>
    </g>
    <g id="text_10">
     <!-- MiB -->
     <g transform="translate(17.638594 101.661868) rotate(-90) scale(0.09 -0.09)">
      <defs>
       <path id="DejaVuSerif-4d" d="M 353 0 
L 353 331 
L 947 331 
L 947 4331 
L 319 4331 
L 319 4666 
L 1678 4666 
L 3316 1344 
L 4953 4666 
L 6228 4666 
L 6228 4331 
L 5606 4331 
L 5606 331 
L 6203 331 
L 6203 0 
L 4378 0 
L 4378 331 
L 4972 331 
L 4972 3938 
L 3372 684 
L 2931 684 
L 1331 3938 
L 1331 331 
L 1925 331 
L 1925 0 
L 353 0 
z
" transform="scale(0.015625)"/>
       <path id="DejaVuSerif-69" d="M 622 4353 
Q 622 4497 726 4603 
Q 831 4709 978 4709 
Q 1122 4709 1226 4603 
Q 1331 4497 1331 4353 
Q 1331 4206 1228 4103 
Q 1125 4000 978 4000 
Q 831 4000 726 4103 
Q 622 4206 622 4353 
z
M 1356 331 
L 1900 331 
L 1900 0 
L 231 0 
L 231 331 
L 781 331 
L 781 2988 
L 231 2988 
L 231 3322 
L 1356 3322 
L 1356 331 
z
" transform="scale(0.015625)"/>
       <path id="DejaVuSerif-42" d="M 1581 331 
L 2516 331 
Q 3078 331 3337 575 
Q 3597 819 3597 1350 
Q 3597 1878 3339 2120 
Q 3081 2363 2516 2363 
L 1581 2363 
L 1581 331 
z
M 1581 2694 
L 2375 2694 
Q 2888 2694 3123 2891 
Q 3359 3088 3359 3513 
Q 3359 3941 3123 4136 
Q 2888 4331 2375 4331 
L 1581 4331 
L 1581 2694 
z
M 353 0 
L 353 331 
L 947 331 
L 947 4331 
L 353 4331 
L 353 4666 
L 2656 4666 
Q 3363 4666 3720 4377 
Q 4078 4088 4078 3513 
Q 4078 3097 3829 2850 
Q 3581 2603 3103 2547 
Q 3697 2472 4005 2167 
Q 4313 1863 4313 1350 
Q 4313 656 3875 328 
Q 3438 0 2509 0 
L 353 0 
z
" transform="scale(0.015625)"/>
      </defs>
      <use xlink:href="#DejaVuSerif-4d"/>
      <use xlink:href="#DejaVuSerif-69" transform="translate(102.392578 0)"/>
      <use xlink:href="#DejaVuSerif-42" transform="translate(134.375 0)"/>
     </g>
    </g>
   </g>
   <g id="patch_3">
    <path d="M 75.94554 159.45811 
L 79.391269 159.45811 
L 79.391269 64.347921 
L 75.94554 64.347921 
z
" clip-path="url(#p029dbc1ff9)" style="fill: #3366cc; opacity: 0.7"/>
   </g>
   <g id="patch_4">
    <path d="M 80.252701 159.45811 
L 83.69843 159.45811 
L 83.69843 40.300842 
L 80.252701 40.300842 
z
" clip-path="url(#p029dbc1ff9)" style="fill: #3366cc; opacity: 0.7"/>
   </g>
   <g id="patch_5">
    <path d="M 84.559862 159.45811 
L 88.005591 159.45811 
L 88.005591 37.514698 
L 84.559862 37.514698 
z
" clip-path="url(#p029dbc1ff9)" style="fill: #3366cc; opacity: 0.7"/>
   </g>
   <g id="patch_6">
    <path d="M 88.867023 159.45811 
L 92.312752 159.45811 
L 92.312752 37.384958 
L 88.867023 37.384958 
z
" clip-path="url(#p029dbc1ff9)" style="fill: #3366cc; opacity: 0.7"/>
   </g>
   <g id="patch_7">
    <path d="M 93.174184 159.45811 
L 96.619913 159.45811 
L 96.619913 36.929012 
L 93.174184 36.929012 
z
" clip-path="url(#p029dbc1ff9)" style="fill: #3366cc; opacity: 0.7"/>
   </g>
   <g id="patch_8">
    <path d="M 97.481345 159.45811 
L 100.927074 159.45811 
L 100.927074 38.612328 
L 97.481345 38.612328 
z
" clip-path="url(#p029dbc1ff9)" style="fill: #3366cc; opacity: 0.7"/>
   </g>
   <g id="patch_9">
    <path d="M 101.788506 159.45811 
L 105.234235 159.45811 
L 105.234235 40.302391 
L 101.788506 40.302391 
z
" clip-path="url(#p029dbc1ff9)" style="fill: #3366cc; opacity: 0.7"/>
   </g>
   <g id="patch_10">
    <path d="M 106.095667 159.45811 
L 109.541396 159.45811 
L 109.541396 36.963581 
L 106.095667 36.963581 
z
" clip-path="url(#p029dbc1ff9)" style="fill: #3366cc; opacity: 0.7"/>
   </g>
   <g id="patch_11">
    <path d="M 110.402828 159.45811 
L 113.848557 159.45811 
L 113.848557 40.28637 
L 110.402828 40.28637 
z
" clip-path="url(#p029dbc1ff9)" style="fill: #3366cc; opacity: 0.7"/>
   </g>
   <g id="patch_12">
    <path d="M 114.709989 159.45811 
L 118.155718 159.45811 
L 118.155718 38.279566 
L 114.709989 38.279566 
z
" clip-path="url(#p029dbc1ff9)" style="fill: #3366cc; opacity: 0.7"/>
   </g>
   <g id="patch_13">
    <path d="M 119.01715 159.45811 
L 122.462879 159.45811 
L 122.462879 37.604557 
L 119.01715 37.604557 
z
" clip-path="url(#p029dbc1ff9)" style="fill: #3366cc; opacity: 0.7"/>
   </g>
   <g id="patch_14">
    <path d="M 123.324311 159.45811 
L 126.77004 159.45811 
L 126.77004 38.878518 
L 123.324311 38.878518 
z
" clip-path="url(#p029dbc1ff9)" style="fill: #3366cc; opacity: 0.7"/>
   </g>
   <g id="patch_15">
    <path d="M 127.631472 159.45811 
L 131.077201 159.45811 
L 131.077201 40.206227 
L 127.631472 40.206227 
z
" clip-path="url(#p029dbc1ff9)" style="fill: #3366cc; opacity: 0.7"/>
   </g>
   <g id="patch_16">
    <path d="M 131.938633 159.45811 
L 135.384362 159.45811 
L 135.384362 42.799376 
L 131.938633 42.799376 
z
" clip-path="url(#p029dbc1ff9)" style="fill: #3366cc; opacity: 0.7"/>
   </g>
   <g id="patch_17">
    <path d="M 136.245794 159.45811 
L 139.691523 159.45811 
L 139.691523 41.190174 
L 136.245794 41.190174 
z
" clip-path="url(#p029dbc1ff9)" style="fill: #3366cc; opacity: 0.7"/>
   </g>
   <g id="patch_18">
    <path d="M 140.552956 159.45811 
L 143.998684 159.45811 
L 143.998684 37.681507 
L 140.552956 37.681507 
z
" clip-path="url(#p029dbc1ff9)" style="fill: #3366cc; opacity: 0.7"/>
   </g>
   <g id="patch_19">
    <path d="M 144.860117 159.45811 
L 148.305845 159.45811 
L 148.305845 46.520416 
L 144.860117 46.520416 
z
" clip-path="url(#p029dbc1ff9)" style="fill: #3366cc; opacity: 0.7"/>
   </g>
   <g id="patch_20">
    <path d="M 149.167278 159.45811 
L 152.613006 159.45811 
L 152.613006 40.881473 
L 149.167278 40.881473 
z
" clip-path="url(#p029dbc1ff9)" style="fill: #3366cc; opacity: 0.7"/>
   </g>
   <g id="patch_21">
    <path d="M 153.474439 159.45811 
L 156.920168 159.45811 
L 156.920168 38.433903 
L 153.474439 38.433903 
z
" clip-path="url(#p029dbc1ff9)" style="fill: #3366cc; opacity: 0.7"/>
   </g>
   <g id="patch_22">
    <path d="M 157.7816 159.45811 
L 161.227329 159.45811 
L 161.227329 45.67004 
L 157.7816 45.67004 
z
" clip-path="url(#p029dbc1ff9)" style="fill: #3366cc; opacity: 0.7"/>
   </g>
   <g id="patch_23">
    <path d="M 162.088761 159.45811 
L 165.53449 159.45811 
L 165.53449 45.643523 
L 162.088761 45.643523 
z
" clip-path="url(#p029dbc1ff9)" style="fill: #3366cc; opacity: 0.7"/>
   </g>
   <g id="patch_24">
    <path d="M 166.395922 159.45811 
L 169.841651 159.45811 
L 169.841651 39.763263 
L 166.395922 39.763263 
z
" clip-path="url(#p029dbc1ff9)" style="fill: #3366cc; opacity: 0.7"/>
   </g>
   <g id="patch_25">
    <path d="M 170.703083 159.45811 
L 174.148812 159.45811 
L 174.148812 42.281917 
L 170.703083 42.281917 
z
" clip-path="url(#p029dbc1ff9)" style="fill: #3366cc; opacity: 0.7"/>
   </g>
   <g id="patch_26">
    <path d="M 175.010244 159.45811 
L 178.455973 159.45811 
L 178.455973 41.153343 
L 175.010244 41.153343 
z
" clip-path="url(#p029dbc1ff9)" style="fill: #3366cc; opacity: 0.7"/>
   </g>
   <g id="patch_27">
    <path d="M 179.317405 159.45811 
L 182.763134 159.45811 
L 182.763134 39.133808 
L 179.317405 39.133808 
z
" clip-path="url(#p029dbc1ff9)" style="fill: #3366cc; opacity: 0.7"/>
   </g>
   <g id="patch_28">
    <path d="M 183.624566 159.45811 
L 187.070295 159.45811 
L 187.070295 44.699413 
L 183.624566 44.699413 
z
" clip-path="url(#p029dbc1ff9)" style="fill: #3366cc; opacity: 0.7"/>
   </g>
   <g id="patch_29">
    <path d="M 187.931727 159.45811 
L 191.377456 159.45811 
L 191.377456 48.480179 
L 187.931727 48.480179 
z
" clip-path="url(#p029dbc1ff9)" style="fill: #3366cc; opacity: 0.7"/>
   </g>
   <g id="patch_30">
    <path d="M 192.238888 159.45811 
L 195.684617 159.45811 
L 195.684617 49.093812 
L 192.238888 49.093812 
z
" clip-path="url(#p029dbc1ff9)" style="fill: #3366cc; opacity: 0.7"/>
   </g>
   <g id="patch_31">
    <path d="M 196.546049 159.45811 
L 199.991778 159.45811 
L 199.991778 46.000927 
L 196.546049 46.000927 
z
" clip-path="url(#p029dbc1ff9)" style="fill: #3366cc; opacity: 0.7"/>
   </g>
   <g id="patch_32">
    <path d="M 200.85321 159.45811 
L 204.298939 159.45811 
L 204.298939 43.666796 
L 200.85321 43.666796 
z
" clip-path="url(#p029dbc1ff9)" style="fill: #3366cc; opacity: 0.7"/>
   </g>
   <g id="patch_33">
    <path d="M 205.160371 159.45811 
L 208.6061 159.45811 
L 208.6061 44.467233 
L 205.160371 44.467233 
z
" clip-path="url(#p029dbc1ff9)" style="fill: #3366cc; opacity: 0.7"/>
   </g>
   <g id="patch_34">
    <path d="M 209.467532 159.45811 
L 212.913261 159.45811 
L 212.913261 45.481641 
L 209.467532 45.481641 
z
" clip-path="url(#p029dbc1ff9)" style="fill: #3366cc; opacity: 0.7"/>
   </g>
   <g id="patch_35">
    <path d="M 213.774693 159.45811 
L 217.220422 159.45811 
L 217.220422 49.575186 
L 213.774693 49.575186 
z
" clip-path="url(#p029dbc1ff9)" style="fill: #3366cc; opacity: 0.7"/>
   </g>
   <g id="patch_36">
    <path d="M 218.081854 159.45811 
L 221.527583 159.45811 
L 221.527583 53.906224 
L 218.081854 53.906224 
z
" clip-path="url(#p029dbc1ff9)" style="fill: #3366cc; opacity: 0.7"/>
   </g>
   <g id="patch_37">
    <path d="M 222.389015 159.45811 
L 225.834744 159.45811 
L 225.834744 49.959953 
L 222.389015 49.959953 
z
" clip-path="url(#p029dbc1ff9)" style="fill: #3366cc; opacity: 0.7"/>
   </g>
   <g id="patch_38">
    <path d="M 226.696177 159.45811 
L 230.141905 159.45811 
L 230.141905 45.792101 
L 226.696177 45.792101 
z
" clip-path="url(#p029dbc1ff9)" style="fill: #3366cc; opacity: 0.7"/>
   </g>
   <g id="patch_39">
    <path d="M 231.003338 159.45811 
L 234.449066 159.45811 
L 234.449066 45.344557 
L 231.003338 45.344557 
z
" clip-path="url(#p029dbc1ff9)" style="fill: #3366cc; opacity: 0.7"/>
   </g>
   <g id="patch_40">
    <path d="M 235.310499 159.45811 
L 238.756227 159.45811 
L 238.756227 46.058132 
L 235.310499 46.058132 
z
" clip-path="url(#p029dbc1ff9)" style="fill: #3366cc; opacity: 0.7"/>
   </g>
   <g id="patch_41">
    <path d="M 239.61766 159.45811 
L 243.063389 159.45811 
L 243.063389 43.649806 
L 239.61766 43.649806 
z
" clip-path="url(#p029dbc1ff9)" style="fill: #3366cc; opacity: 0.7"/>
   </g>
   <g id="patch_42">
    <path d="M 243.924821 159.45811 
L 247.37055 159.45811 
L 247.37055 45.446172 
L 243.924821 45.446172 
z
" clip-path="url(#p029dbc1ff9)" style="fill: #3366cc; opacity: 0.7"/>
   </g>
   <g id="patch_43">
    <path d="M 248.231982 159.45811 
L 251.677711 159.45811 
L 251.677711 48.649606 
L 248.231982 48.649606 
z
" clip-path="url(#p029dbc1ff9)" style="fill: #3366cc; opacity: 0.7"/>
   </g>
   <g id="patch_44">
    <path d="M 252.539143 159.45811 
L 255.984872 159.45811 
L 255.984872 50.054929 
L 252.539143 50.054929 
z
" clip-path="url(#p029dbc1ff9)" style="fill: #3366cc; opacity: 0.7"/>
   </g>
   <g id="patch_45">
    <path d="M 256.846304 159.45811 
L 260.292033 159.45811 
L 260.292033 46.784206 
L 256.846304 46.784206 
z
" clip-path="url(#p029dbc1ff9)" style="fill: #3366cc; opacity: 0.7"/>
   </g>
   <g id="patch_46">
    <path d="M 261.153465 159.45811 
L 264.599194 159.45811 
L 264.599194 46.797447 
L 261.153465 46.797447 
z
" clip-path="url(#p029dbc1ff9)" style="fill: #3366cc; opacity: 0.7"/>
   </g>
   <g id="patch_47">
    <path d="M 265.460626 159.45811 
L 268.906355 159.45811 
L 268.906355 43.464278 
L 265.460626 43.464278 
z
" clip-path="url(#p029dbc1ff9)" style="fill: #3366cc; opacity: 0.7"/>
   </g>
   <g id="patch_48">
    <path d="M 269.767787 159.45811 
L 273.213516 159.45811 
L 273.213516 45.70889 
L 269.767787 45.70889 
z
" clip-path="url(#p029dbc1ff9)" style="fill: #3366cc; opacity: 0.7"/>
   </g>
   <g id="patch_49">
    <path d="M 274.074948 159.45811 
L 277.520677 159.45811 
L 277.520677 53.002818 
L 274.074948 53.002818 
z
" clip-path="url(#p029dbc1ff9)" style="fill: #3366cc; opacity: 0.7"/>
   </g>
   <g id="patch_50">
    <path d="M 278.382109 159.45811 
L 281.827838 159.45811 
L 281.827838 51.163219 
L 278.382109 51.163219 
z
" clip-path="url(#p029dbc1ff9)" style="fill: #3366cc; opacity: 0.7"/>
   </g>
   <g id="patch_51">
    <path d="M 282.68927 159.45811 
L 286.134999 159.45811 
L 286.134999 52.868478 
L 282.68927 52.868478 
z
" clip-path="url(#p029dbc1ff9)" style="fill: #3366cc; opacity: 0.7"/>
   </g>
   <g id="patch_52">
    <path d="M 286.996431 159.45811 
L 290.44216 159.45811 
L 290.44216 50.934045 
L 286.996431 50.934045 
z
" clip-path="url(#p029dbc1ff9)" style="fill: #3366cc; opacity: 0.7"/>
   </g>
   <g id="patch_53">
    <path d="M 291.303592 159.45811 
L 294.749321 159.45811 
L 294.749321 48.949979 
L 291.303592 48.949979 
z
" clip-path="url(#p029dbc1ff9)" style="fill: #3366cc; opacity: 0.7"/>
   </g>
   <g id="patch_54">
    <path d="M 295.610753 159.45811 
L 299.056482 159.45811 
L 299.056482 49.393619 
L 295.610753 49.393619 
z
" clip-path="url(#p029dbc1ff9)" style="fill: #3366cc; opacity: 0.7"/>
   </g>
   <g id="patch_55">
    <path d="M 299.917914 159.45811 
L 303.363643 159.45811 
L 303.363643 53.535939 
L 299.917914 53.535939 
z
" clip-path="url(#p029dbc1ff9)" style="fill: #3366cc; opacity: 0.7"/>
   </g>
   <g id="patch_56">
    <path d="M 304.225075 159.45811 
L 307.670804 159.45811 
L 307.670804 51.714752 
L 304.225075 51.714752 
z
" clip-path="url(#p029dbc1ff9)" style="fill: #3366cc; opacity: 0.7"/>
   </g>
   <g id="patch_57">
    <path d="M 308.532236 159.45811 
L 311.977965 159.45811 
L 311.977965 53.017103 
L 308.532236 53.017103 
z
" clip-path="url(#p029dbc1ff9)" style="fill: #3366cc; opacity: 0.7"/>
   </g>
   <g id="patch_58">
    <path d="M 312.839398 159.45811 
L 316.285126 159.45811 
L 316.285126 53.353351 
L 312.839398 53.353351 
z
" clip-path="url(#p029dbc1ff9)" style="fill: #3366cc; opacity: 0.7"/>
   </g>
   <g id="patch_59">
    <path d="M 317.146559 159.45811 
L 320.592287 159.45811 
L 320.592287 49.161329 
L 317.146559 49.161329 
z
" clip-path="url(#p029dbc1ff9)" style="fill: #3366cc; opacity: 0.7"/>
   </g>
   <g id="patch_60">
    <path d="M 321.45372 159.45811 
L 324.899448 159.45811 
L 324.899448 48.600424 
L 321.45372 48.600424 
z
" clip-path="url(#p029dbc1ff9)" style="fill: #3366cc; opacity: 0.7"/>
   </g>
   <g id="patch_61">
    <path d="M 325.760881 159.45811 
L 329.20661 159.45811 
L 329.20661 50.5085 
L 325.760881 50.5085 
z
" clip-path="url(#p029dbc1ff9)" style="fill: #3366cc; opacity: 0.7"/>
   </g>
   <g id="patch_62">
    <path d="M 330.068042 159.45811 
L 333.513771 159.45811 
L 333.513771 47.822036 
L 330.068042 47.822036 
z
" clip-path="url(#p029dbc1ff9)" style="fill: #3366cc; opacity: 0.7"/>
   </g>
   <g id="patch_63">
    <path d="M 334.375203 159.45811 
L 337.820932 159.45811 
L 337.820932 51.26749 
L 334.375203 51.26749 
z
" clip-path="url(#p029dbc1ff9)" style="fill: #3366cc; opacity: 0.7"/>
   </g>
   <g id="patch_64">
    <path d="M 338.682364 159.45811 
L 342.128093 159.45811 
L 342.128093 52.893729 
L 338.682364 52.893729 
z
" clip-path="url(#p029dbc1ff9)" style="fill: #3366cc; opacity: 0.7"/>
   </g>
   <g id="patch_65">
    <path d="M 342.989525 159.45811 
L 346.435254 159.45811 
L 346.435254 57.050887 
L 342.989525 57.050887 
z
" clip-path="url(#p029dbc1ff9)" style="fill: #3366cc; opacity: 0.7"/>
   </g>
   <g id="patch_66">
    <path d="M 347.296686 159.45811 
L 350.742415 159.45811 
L 350.742415 51.918178 
L 347.296686 51.918178 
z
" clip-path="url(#p029dbc1ff9)" style="fill: #3366cc; opacity: 0.7"/>
   </g>
   <g id="patch_67">
    <path d="M 351.603847 159.45811 
L 355.049576 159.45811 
L 355.049576 71.811432 
L 351.603847 71.811432 
z
" clip-path="url(#p029dbc1ff9)" style="fill: #3366cc; opacity: 0.7"/>
   </g>
   <g id="patch_68">
    <path d="M 355.911008 159.45811 
L 359.356737 159.45811 
L 359.356737 31.553511 
L 355.911008 31.553511 
z
" clip-path="url(#p029dbc1ff9)" style="fill: #3366cc; opacity: 0.7"/>
   </g>
   <g id="patch_69">
    <path d="M 360.218169 159.45811 
L 363.663898 159.45811 
L 363.663898 47.360019 
L 360.218169 47.360019 
z
" clip-path="url(#p029dbc1ff9)" style="fill: #3366cc; opacity: 0.7"/>
   </g>
   <g id="patch_70">
    <path d="M 364.52533 159.45811 
L 367.971059 159.45811 
L 367.971059 53.547001 
L 364.52533 53.547001 
z
" clip-path="url(#p029dbc1ff9)" style="fill: #3366cc; opacity: 0.7"/>
   </g>
   <g id="patch_71">
    <path d="M 368.832491 159.45811 
L 372.27822 159.45811 
L 372.27822 55.171629 
L 368.832491 55.171629 
z
" clip-path="url(#p029dbc1ff9)" style="fill: #3366cc; opacity: 0.7"/>
   </g>
   <g id="patch_72">
    <path d="M 373.139652 159.45811 
L 376.585381 159.45811 
L 376.585381 55.83408 
L 373.139652 55.83408 
z
" clip-path="url(#p029dbc1ff9)" style="fill: #3366cc; opacity: 0.7"/>
   </g>
   <g id="patch_73">
    <path d="M 377.446813 159.45811 
L 380.892542 159.45811 
L 380.892542 51.215052 
L 377.446813 51.215052 
z
" clip-path="url(#p029dbc1ff9)" style="fill: #3366cc; opacity: 0.7"/>
   </g>
   <g id="patch_74">
    <path d="M 381.753974 159.45811 
L 385.199703 159.45811 
L 385.199703 49.091521 
L 381.753974 49.091521 
z
" clip-path="url(#p029dbc1ff9)" style="fill: #3366cc; opacity: 0.7"/>
   </g>
   <g id="patch_75">
    <path d="M 386.061135 159.45811 
L 389.506864 159.45811 
L 389.506864 49.953147 
L 386.061135 49.953147 
z
" clip-path="url(#p029dbc1ff9)" style="fill: #3366cc; opacity: 0.7"/>
   </g>
   <g id="patch_76">
    <path d="M 390.368296 159.45811 
L 393.814025 159.45811 
L 393.814025 53.367134 
L 390.368296 53.367134 
z
" clip-path="url(#p029dbc1ff9)" style="fill: #3366cc; opacity: 0.7"/>
   </g>
   <g id="patch_77">
    <path d="M 394.675457 159.45811 
L 398.121186 159.45811 
L 398.121186 54.313369 
L 394.675457 54.313369 
z
" clip-path="url(#p029dbc1ff9)" style="fill: #3366cc; opacity: 0.7"/>
   </g>
   <g id="patch_78">
    <path d="M 398.982619 159.45811 
L 402.428347 159.45811 
L 402.428347 54.952544 
L 398.982619 54.952544 
z
" clip-path="url(#p029dbc1ff9)" style="fill: #3366cc; opacity: 0.7"/>
   </g>
   <g id="patch_79">
    <path d="M 403.28978 159.45811 
L 406.735508 159.45811 
L 406.735508 54.585151 
L 403.28978 54.585151 
z
" clip-path="url(#p029dbc1ff9)" style="fill: #3366cc; opacity: 0.7"/>
   </g>
   <g id="patch_80">
    <path d="M 407.596941 159.45811 
L 411.042669 159.45811 
L 411.042669 52.403844 
L 407.596941 52.403844 
z
" clip-path="url(#p029dbc1ff9)" style="fill: #3366cc; opacity: 0.7"/>
   </g>
   <g id="patch_81">
    <path d="M 411.904102 159.45811 
L 415.349831 159.45811 
L 415.349831 52.178394 
L 411.904102 52.178394 
z
" clip-path="url(#p029dbc1ff9)" style="fill: #3366cc; opacity: 0.7"/>
   </g>
   <g id="patch_82">
    <path d="M 416.211263 159.45811 
L 419.656992 159.45811 
L 419.656992 50.978248 
L 416.211263 50.978248 
z
" clip-path="url(#p029dbc1ff9)" style="fill: #3366cc; opacity: 0.7"/>
   </g>
   <g id="patch_83">
    <path d="M 420.518424 159.45811 
L 423.964153 159.45811 
L 423.964153 52.179074 
L 420.518424 52.179074 
z
" clip-path="url(#p029dbc1ff9)" style="fill: #3366cc; opacity: 0.7"/>
   </g>
   <g id="patch_84">
    <path d="M 424.825585 159.45811 
L 428.271314 159.45811 
L 428.271314 50.096508 
L 424.825585 50.096508 
z
" clip-path="url(#p029dbc1ff9)" style="fill: #3366cc; opacity: 0.7"/>
   </g>
   <g id="patch_85">
    <path d="M 429.132746 159.45811 
L 432.578475 159.45811 
L 432.578475 51.306873 
L 429.132746 51.306873 
z
" clip-path="url(#p029dbc1ff9)" style="fill: #3366cc; opacity: 0.7"/>
   </g>
   <g id="patch_86">
    <path d="M 433.439907 159.45811 
L 436.885636 159.45811 
L 436.885636 55.092629 
L 433.439907 55.092629 
z
" clip-path="url(#p029dbc1ff9)" style="fill: #3366cc; opacity: 0.7"/>
   </g>
   <g id="patch_87">
    <path d="M 437.747068 159.45811 
L 441.192797 159.45811 
L 441.192797 52.163276 
L 437.747068 52.163276 
z
" clip-path="url(#p029dbc1ff9)" style="fill: #3366cc; opacity: 0.7"/>
   </g>
   <g id="patch_88">
    <path d="M 442.054229 159.45811 
L 445.499958 159.45811 
L 445.499958 49.211355 
L 442.054229 49.211355 
z
" clip-path="url(#p029dbc1ff9)" style="fill: #3366cc; opacity: 0.7"/>
   </g>
   <g id="patch_89">
    <path d="M 446.36139 159.45811 
L 449.807119 159.45811 
L 449.807119 50.363934 
L 446.36139 50.363934 
z
" clip-path="url(#p029dbc1ff9)" style="fill: #3366cc; opacity: 0.7"/>
   </g>
   <g id="patch_90">
    <path d="M 450.668551 159.45811 
L 454.11428 159.45811 
L 454.11428 47.785132 
L 450.668551 47.785132 
z
" clip-path="url(#p029dbc1ff9)" style="fill: #3366cc; opacity: 0.7"/>
   </g>
   <g id="patch_91">
    <path d="M 454.975712 159.45811 
L 458.421441 159.45811 
L 458.421441 49.70469 
L 454.975712 49.70469 
z
" clip-path="url(#p029dbc1ff9)" style="fill: #3366cc; opacity: 0.7"/>
   </g>
   <g id="patch_92">
    <path d="M 459.282873 159.45811 
L 462.728602 159.45811 
L 462.728602 54.942623 
L 459.282873 54.942623 
z
" clip-path="url(#p029dbc1ff9)" style="fill: #3366cc; opacity: 0.7"/>
   </g>
   <g id="patch_93">
    <path d="M 463.590034 159.45811 
L 467.035763 159.45811 
L 467.035763 56.317343 
L 463.590034 56.317343 
z
" clip-path="url(#p029dbc1ff9)" style="fill: #3366cc; opacity: 0.7"/>
   </g>
   <g id="patch_94">
    <path d="M 467.897195 159.45811 
L 471.342924 159.45811 
L 471.342924 54.505432 
L 467.897195 54.505432 
z
" clip-path="url(#p029dbc1ff9)" style="fill: #3366cc; opacity: 0.7"/>
   </g>
   <g id="patch_95">
    <path d="M 472.204356 159.45811 
L 475.650085 159.45811 
L 475.650085 63.789535 
L 472.204356 63.789535 
z
" clip-path="url(#p029dbc1ff9)" style="fill: #3366cc; opacity: 0.7"/>
   </g>
   <g id="patch_96">
    <path d="M 55.960313 159.45811 
L 55.960313 25.158281 
" style="fill: none; stroke: #000000; stroke-width: 0.6; stroke-linejoin: miter; stroke-linecap: square"/>
   </g>
   <g id="patch_97">
    <path d="M 55.960312 159.45811 
L 495.635312 159.45811 
" style="fill: none; stroke: #000000; stroke-width: 0.6; stroke-linejoin: miter; stroke-linecap: square"/>
   </g>
   <g id="line2d_19">
    <path d="M 77.668404 64.347921 
L 81.975565 52.324381 
L 86.282726 47.38782 
L 90.589887 44.887105 
L 94.897048 43.295486 
L 99.204209 42.51496 
L 103.51137 42.198878 
L 107.818532 38.28683 
L 112.125693 38.284763 
L 116.432854 38.394029 
L 120.740015 38.425401 
L 125.047176 38.703902 
L 129.354337 38.931601 
L 133.661498 39.288314 
L 137.968659 39.892113 
L 142.27582 39.519989 
L 146.582981 40.697254 
L 150.890142 41.165385 
L 155.197303 41.101868 
L 159.504464 41.882413 
L 163.811625 42.288719 
L 168.118786 42.084875 
L 172.425947 42.742076 
L 176.733108 41.975352 
L 181.040269 41.725685 
L 185.34743 42.620758 
L 189.654591 43.022206 
L 193.961753 43.515105 
L 198.268914 44.4062 
L 202.576075 44.60404 
L 206.883236 45.077453 
L 211.190397 45.984286 
L 215.497558 46.680825 
L 219.804719 47.455974 
L 224.11188 47.579709 
L 228.419041 47.549876 
L 232.726202 47.789556 
L 237.033363 48.016828 
L 241.340524 47.755137 
L 245.647685 47.165278 
L 249.954846 46.414332 
L 254.262007 46.4279 
L 258.569168 46.56963 
L 262.876329 46.777185 
L 267.18349 46.406635 
L 271.490651 46.70079 
L 275.797812 47.780311 
L 280.104974 48.139398 
L 284.412135 48.541334 
L 288.719296 49.134168 
L 293.026457 49.441672 
L 297.333618 50.288721 
L 301.640779 51.406871 
L 305.94794 51.222861 
L 310.255101 51.487702 
L 314.562262 51.55697 
L 318.869423 51.303724 
L 323.176584 51.253788 
L 327.483745 51.413057 
L 331.790906 50.596785 
L 336.098067 50.53289 
L 340.405228 50.515265 
L 344.712389 51.043485 
L 349.01955 51.43732 
L 353.326711 54.753179 
L 357.633872 52.045323 
L 361.941034 51.979321 
L 366.248195 52.304965 
L 370.555356 52.630379 
L 374.862517 52.45655 
L 379.169678 52.356103 
L 383.476839 49.110402 
L 387.784 51.738921 
L 392.091161 52.59708 
L 396.398322 52.706562 
L 400.705483 52.675264 
L 405.012644 52.496845 
L 409.319805 52.666673 
L 413.626966 53.107655 
L 417.934127 53.254098 
L 422.241288 53.084375 
L 426.548449 52.481966 
L 430.85561 51.961156 
L 435.162771 52.033653 
L 439.469932 51.999286 
L 443.777093 51.575423 
L 448.084255 51.487664 
L 452.391416 50.859958 
L 456.698577 50.803984 
L 461.005738 51.323377 
L 465.312899 51.498336 
L 469.62006 51.83293 
L 473.927221 53.915527 
" clip-path="url(#p029dbc1ff9)" style="fill: none; stroke: #cc3333; stroke-width: 1.5; stroke-linecap: square"/>
   </g>
   <g id="text_11">
    <!-- NEAR — Daily Data Volume (MiB) -->
    <g transform="translate(180.846328 19.158281) scale(0.11 -0.11)">
     <defs>
      <path id="DejaVuSerif-4e" d="M 313 0 
L 313 331 
L 941 331 
L 941 4331 
L 313 4331 
L 313 4666 
L 1509 4666 
L 4306 984 
L 4306 4331 
L 3681 4331 
L 3681 4666 
L 5319 4666 
L 5319 4331 
L 4691 4331 
L 4691 -91 
L 4313 -91 
L 1325 3841 
L 1325 331 
L 1953 331 
L 1953 0 
L 313 0 
z
" transform="scale(0.015625)"/>
      <path id="DejaVuSerif-45" d="M 353 0 
L 353 331 
L 947 331 
L 947 4331 
L 353 4331 
L 353 4666 
L 4109 4666 
L 4109 3628 
L 3725 3628 
L 3725 4281 
L 1581 4281 
L 1581 2719 
L 3109 2719 
L 3109 3303 
L 3494 3303 
L 3494 1753 
L 3109 1753 
L 3109 2338 
L 1581 2338 
L 1581 384 
L 3775 384 
L 3775 1038 
L 4159 1038 
L 4159 0 
L 353 0 
z
" transform="scale(0.015625)"/>
      <path id="DejaVuSerif-41" d="M 1281 1691 
L 2994 1691 
L 2138 3909 
L 1281 1691 
z
M -38 0 
L -38 331 
L 372 331 
L 2034 4666 
L 2559 4666 
L 4225 331 
L 4684 331 
L 4684 0 
L 2988 0 
L 2988 331 
L 3506 331 
L 3116 1356 
L 1153 1356 
L 763 331 
L 1275 331 
L 1275 0 
L -38 0 
z
" transform="scale(0.015625)"/>
      <path id="DejaVuSerif-52" d="M 3066 2316 
Q 3284 2256 3442 2114 
Q 3600 1972 3725 1716 
L 4403 331 
L 4972 331 
L 4972 0 
L 3872 0 
L 3144 1484 
Q 2934 1916 2759 2042 
Q 2584 2169 2278 2169 
L 1581 2169 
L 1581 331 
L 2241 331 
L 2241 0 
L 353 0 
L 353 331 
L 947 331 
L 947 4331 
L 353 4331 
L 353 4666 
L 2719 4666 
Q 3400 4666 3770 4341 
Q 4141 4016 4141 3419 
Q 4141 2938 3870 2661 
Q 3600 2384 3066 2316 
z
M 1581 2503 
L 2503 2503 
Q 2975 2503 3200 2726 
Q 3425 2950 3425 3419 
Q 3425 3888 3200 4109 
Q 2975 4331 2503 4331 
L 1581 4331 
L 1581 2503 
z
" transform="scale(0.015625)"/>
      <path id="DejaVuSerif-2014" d="M 281 1906 
L 6119 1906 
L 6119 1491 
L 281 1491 
L 281 1906 
z
" transform="scale(0.015625)"/>
      <path id="DejaVuSerif-6c" d="M 1313 331 
L 1856 331 
L 1856 0 
L 184 0 
L 184 331 
L 738 331 
L 738 4531 
L 184 4531 
L 184 4863 
L 1313 4863 
L 1313 331 
z
" transform="scale(0.015625)"/>
      <path id="DejaVuSerif-79" d="M 1381 -609 
L 1600 -56 
L 359 2988 
L -19 2988 
L -19 3322 
L 1509 3322 
L 1509 2988 
L 978 2988 
L 1913 703 
L 2847 2988 
L 2350 2988 
L 2350 3322 
L 3597 3322 
L 3597 2988 
L 3225 2988 
L 1703 -750 
Q 1547 -1138 1356 -1280 
Q 1166 -1422 819 -1422 
Q 672 -1422 517 -1397 
Q 363 -1372 206 -1325 
L 206 -691 
L 500 -691 
Q 519 -903 608 -995 
Q 697 -1088 884 -1088 
Q 1056 -1088 1161 -992 
Q 1266 -897 1381 -609 
z
" transform="scale(0.015625)"/>
      <path id="DejaVuSerif-74" d="M 691 2988 
L 184 2988 
L 184 3322 
L 691 3322 
L 691 4353 
L 1269 4353 
L 1269 3322 
L 2350 3322 
L 2350 2988 
L 1269 2988 
L 1269 878 
Q 1269 456 1350 337 
Q 1431 219 1650 219 
Q 1875 219 1978 351 
Q 2081 484 2088 781 
L 2522 781 
Q 2497 328 2275 118 
Q 2053 -91 1600 -91 
Q 1103 -91 897 129 
Q 691 350 691 878 
L 691 2988 
z
" transform="scale(0.015625)"/>
      <path id="DejaVuSerif-56" d="M 1119 4331 
L 2497 750 
L 3872 4331 
L 3347 4331 
L 3347 4666 
L 4716 4666 
L 4716 4331 
L 4263 4331 
L 2597 0 
L 2059 0 
L 403 4331 
L -63 4331 
L -63 4666 
L 1638 4666 
L 1638 4331 
L 1119 4331 
z
" transform="scale(0.015625)"/>
      <path id="DejaVuSerif-6f" d="M 1925 219 
Q 2388 219 2623 584 
Q 2859 950 2859 1663 
Q 2859 2375 2623 2739 
Q 2388 3103 1925 3103 
Q 1463 3103 1227 2739 
Q 991 2375 991 1663 
Q 991 950 1228 584 
Q 1466 219 1925 219 
z
M 1925 -91 
Q 1200 -91 759 389 
Q 319 869 319 1663 
Q 319 2456 758 2934 
Q 1197 3413 1925 3413 
Q 2653 3413 3092 2934 
Q 3531 2456 3531 1663 
Q 3531 869 3092 389 
Q 2653 -91 1925 -91 
z
" transform="scale(0.015625)"/>
      <path id="DejaVuSerif-75" d="M 2266 3322 
L 3341 3322 
L 3341 331 
L 3884 331 
L 3884 0 
L 2766 0 
L 2766 588 
Q 2606 256 2353 82 
Q 2100 -91 1766 -91 
Q 1213 -91 952 223 
Q 691 538 691 1209 
L 691 2988 
L 172 2988 
L 172 3322 
L 1269 3322 
L 1269 1388 
Q 1269 781 1417 556 
Q 1566 331 1947 331 
Q 2347 331 2556 625 
Q 2766 919 2766 1478 
L 2766 2988 
L 2266 2988 
L 2266 3322 
z
" transform="scale(0.015625)"/>
      <path id="DejaVuSerif-6d" d="M 3316 2675 
Q 3481 3041 3739 3227 
Q 3997 3413 4341 3413 
Q 4863 3413 5119 3089 
Q 5375 2766 5375 2113 
L 5375 331 
L 5894 331 
L 5894 0 
L 4300 0 
L 4300 331 
L 4800 331 
L 4800 2047 
Q 4800 2556 4650 2772 
Q 4500 2988 4153 2988 
Q 3769 2988 3567 2697 
Q 3366 2406 3366 1850 
L 3366 331 
L 3866 331 
L 3866 0 
L 2291 0 
L 2291 331 
L 2791 331 
L 2791 2069 
Q 2791 2566 2641 2777 
Q 2491 2988 2144 2988 
Q 1759 2988 1557 2697 
Q 1356 2406 1356 1850 
L 1356 331 
L 1856 331 
L 1856 0 
L 263 0 
L 263 331 
L 781 331 
L 781 2994 
L 231 2994 
L 231 3322 
L 1356 3322 
L 1356 2731 
Q 1516 3063 1762 3238 
Q 2009 3413 2322 3413 
Q 2709 3413 2968 3220 
Q 3228 3028 3316 2675 
z
" transform="scale(0.015625)"/>
      <path id="DejaVuSerif-28" d="M 2041 -997 
Q 1281 -656 893 83 
Q 506 822 506 1931 
Q 506 3044 893 3783 
Q 1281 4522 2041 4863 
L 2041 4556 
Q 1559 4225 1350 3623 
Q 1141 3022 1141 1931 
Q 1141 844 1350 242 
Q 1559 -359 2041 -691 
L 2041 -997 
z
" transform="scale(0.015625)"/>
      <path id="DejaVuSerif-29" d="M 453 -997 
L 453 -691 
Q 934 -359 1145 242 
Q 1356 844 1356 1931 
Q 1356 3022 1145 3623 
Q 934 4225 453 4556 
L 453 4863 
Q 1216 4522 1603 3783 
Q 1991 3044 1991 1931 
Q 1991 822 1603 83 
Q 1216 -656 453 -997 
z
" transform="scale(0.015625)"/>
     </defs>
     <use xlink:href="#DejaVuSerif-4e"/>
     <use xlink:href="#DejaVuSerif-45" transform="translate(87.5 0)"/>
     <use xlink:href="#DejaVuSerif-41" transform="translate(160.498047 0)"/>
     <use xlink:href="#DejaVuSerif-52" transform="translate(232.714844 0)"/>
     <use xlink:href="#DejaVuSerif-20" transform="translate(308.007812 0)"/>
     <use xlink:href="#DejaVuSerif-2014" transform="translate(339.794922 0)"/>
     <use xlink:href="#DejaVuSerif-20" transform="translate(439.794922 0)"/>
     <use xlink:href="#DejaVuSerif-44" transform="translate(471.582031 0)"/>
     <use xlink:href="#DejaVuSerif-61" transform="translate(551.757812 0)"/>
     <use xlink:href="#DejaVuSerif-69" transform="translate(611.376953 0)"/>
     <use xlink:href="#DejaVuSerif-6c" transform="translate(643.359375 0)"/>
     <use xlink:href="#DejaVuSerif-79" transform="translate(675.341797 0)"/>
     <use xlink:href="#DejaVuSerif-20" transform="translate(731.835938 0)"/>
     <use xlink:href="#DejaVuSerif-44" transform="translate(763.623047 0)"/>
     <use xlink:href="#DejaVuSerif-61" transform="translate(843.798828 0)"/>
     <use xlink:href="#DejaVuSerif-74" transform="translate(903.417969 0)"/>
     <use xlink:href="#DejaVuSerif-61" transform="translate(943.603516 0)"/>
     <use xlink:href="#DejaVuSerif-20" transform="translate(1003.222656 0)"/>
     <use xlink:href="#DejaVuSerif-56" transform="translate(1035.009766 0)"/>
     <use xlink:href="#DejaVuSerif-6f" transform="translate(1098.101562 0)"/>
     <use xlink:href="#DejaVuSerif-6c" transform="translate(1158.306641 0)"/>
     <use xlink:href="#DejaVuSerif-75" transform="translate(1190.289062 0)"/>
     <use xlink:href="#DejaVuSerif-6d" transform="translate(1254.693359 0)"/>
     <use xlink:href="#DejaVuSerif-65" transform="translate(1349.517578 0)"/>
     <use xlink:href="#DejaVuSerif-20" transform="translate(1408.697266 0)"/>
     <use xlink:href="#DejaVuSerif-28" transform="translate(1440.484375 0)"/>
     <use xlink:href="#DejaVuSerif-4d" transform="translate(1479.498047 0)"/>
     <use xlink:href="#DejaVuSerif-69" transform="translate(1581.890625 0)"/>
     <use xlink:href="#DejaVuSerif-42" transform="translate(1613.873047 0)"/>
     <use xlink:href="#DejaVuSerif-29" transform="translate(1687.359375 0)"/>
    </g>
   </g>
   <g id="legend_1">
    <g id="patch_98">
     <path d="M 437.270312 55.270781 
L 490.035312 55.270781 
Q 491.635312 55.270781 491.635312 53.670781 
L 491.635312 30.758281 
Q 491.635312 29.158281 490.035312 29.158281 
L 437.270312 29.158281 
Q 435.670312 29.158281 435.670312 30.758281 
L 435.670312 53.670781 
Q 435.670312 55.270781 437.270312 55.270781 
z
" style="fill: #ffffff; opacity: 0.9; stroke: #cccccc; stroke-linejoin: miter"/>
    </g>
    <g id="line2d_20">
     <path d="M 438.870312 35.637031 
L 446.870312 35.637031 
L 454.870312 35.637031 
" style="fill: none; stroke: #cc3333; stroke-width: 1.5; stroke-linecap: square"/>
    </g>
    <g id="text_12">
     <!-- 7d avg -->
     <g transform="translate(461.270312 38.437031) scale(0.08 -0.08)">
      <defs>
       <path id="DejaVuSerif-37" d="M 3609 4347 
L 1784 0 
L 1319 0 
L 3059 4153 
L 903 4153 
L 903 3578 
L 538 3578 
L 538 4666 
L 3609 4666 
L 3609 4347 
z
" transform="scale(0.015625)"/>
       <path id="DejaVuSerif-64" d="M 3359 331 
L 3909 331 
L 3909 0 
L 2784 0 
L 2784 519 
Q 2616 206 2355 57 
Q 2094 -91 1709 -91 
Q 1097 -91 708 395 
Q 319 881 319 1663 
Q 319 2444 706 2928 
Q 1094 3413 1709 3413 
Q 2094 3413 2355 3264 
Q 2616 3116 2784 2803 
L 2784 4531 
L 2241 4531 
L 2241 4863 
L 3359 4863 
L 3359 331 
z
M 2784 1497 
L 2784 1825 
Q 2784 2422 2554 2737 
Q 2325 3053 1888 3053 
Q 1444 3053 1217 2703 
Q 991 2353 991 1663 
Q 991 975 1217 622 
Q 1444 269 1888 269 
Q 2325 269 2554 583 
Q 2784 897 2784 1497 
z
" transform="scale(0.015625)"/>
       <path id="DejaVuSerif-76" d="M 1581 0 
L 359 2988 
L -19 2988 
L -19 3322 
L 1509 3322 
L 1509 2988 
L 978 2988 
L 1913 703 
L 2847 2988 
L 2350 2988 
L 2350 3322 
L 3597 3322 
L 3597 2988 
L 3225 2988 
L 2003 0 
L 1581 0 
z
" transform="scale(0.015625)"/>
       <path id="DejaVuSerif-67" d="M 3359 2988 
L 3359 72 
Q 3359 -644 2965 -1033 
Q 2572 -1422 1844 -1422 
Q 1516 -1422 1216 -1362 
Q 916 -1303 641 -1184 
L 641 -488 
L 941 -488 
Q 997 -813 1206 -963 
Q 1416 -1113 1806 -1113 
Q 2313 -1113 2548 -827 
Q 2784 -541 2784 72 
L 2784 519 
Q 2616 206 2355 57 
Q 2094 -91 1709 -91 
Q 1097 -91 708 395 
Q 319 881 319 1663 
Q 319 2444 706 2928 
Q 1094 3413 1709 3413 
Q 2094 3413 2355 3264 
Q 2616 3116 2784 2803 
L 2784 3322 
L 3909 3322 
L 3909 2988 
L 3359 2988 
z
M 2784 1825 
Q 2784 2422 2554 2737 
Q 2325 3053 1888 3053 
Q 1444 3053 1217 2703 
Q 991 2353 991 1663 
Q 991 975 1217 622 
Q 1444 269 1888 269 
Q 2325 269 2554 583 
Q 2784 897 2784 1497 
L 2784 1825 
z
" transform="scale(0.015625)"/>
      </defs>
      <use xlink:href="#DejaVuSerif-37"/>
      <use xlink:href="#DejaVuSerif-64" transform="translate(63.623047 0)"/>
      <use xlink:href="#DejaVuSerif-20" transform="translate(127.636719 0)"/>
      <use xlink:href="#DejaVuSerif-61" transform="translate(159.423828 0)"/>
      <use xlink:href="#DejaVuSerif-76" transform="translate(219.042969 0)"/>
      <use xlink:href="#DejaVuSerif-67" transform="translate(275.537109 0)"/>
     </g>
    </g>
    <g id="patch_99">
     <path d="M 438.870312 50.293281 
L 454.870312 50.293281 
L 454.870312 44.693281 
L 438.870312 44.693281 
z
" style="fill: #3366cc; opacity: 0.7"/>
    </g>
    <g id="text_13">
     <!-- Daily -->
     <g transform="translate(461.270312 50.293281) scale(0.08 -0.08)">
      <use xlink:href="#DejaVuSerif-44"/>
      <use xlink:href="#DejaVuSerif-61" transform="translate(80.175781 0)"/>
      <use xlink:href="#DejaVuSerif-69" transform="translate(139.794922 0)"/>
      <use xlink:href="#DejaVuSerif-6c" transform="translate(171.777344 0)"/>
      <use xlink:href="#DejaVuSerif-79" transform="translate(203.759766 0)"/>
     </g>
    </g>
   </g>
  </g>
 </g>
 <defs>
  <clipPath id="p029dbc1ff9">
   <rect x="55.960313" y="25.158281" width="439.675" height="134.299829"/>
  </clipPath>
 </defs>
</svg>
