<?xml version="1.0" encoding="utf-8" standalone="no"?>
<!DOCTYPE svg PUBLIC "-//W3C//DTD SVG 1.1//EN"
  "http://www.w3.org/Graphics/SVG/1.1/DTD/svg11.dtd">
<svg xmlns:xlink="http://www.w3.org/1999/xlink" width="506.492812pt" height="203.228937pt" viewBox="0 0 506.492812 203.228937" xmlns="http://www.w3.org/2000/svg" version="1.1">
 <metadata>
  <rdf:RDF xmlns:dc="http://purl.org/dc/elements/1.1/" xmlns:cc="http://creativecommons.org/ns#" xmlns:rdf="http://www.w3.org/1999/02/22-rdf-syntax-ns#">
   <cc:Work>
    <dc:type rdf:resource="http://purl.org/dc/dcmitype/StillImage"/>
    <dc:date>2026-02-16T16:57:26.917106</dc:date>
    <dc:format>image/svg+xml</dc:format>
    <dc:creator>
     <cc:Agent>
      <dc:title>Matplotlib v3.10.8, https://matplotlib.org/</dc:title>
     </cc:Agent>
    </dc:creator>
   </cc:Work>
  </rdf:RDF>
 </metadata>
 <defs>
  <style type="text/css">*{stroke-linejoin: round; stroke-linecap: butt}</style>
 </defs>
 <g id="figure_1">
  <g id="patch_1">
   <path d="M 0 203.228937 
L 506.492812 203.228937 
L 506.492812 0 
L 0 0 
z
" style="fill: #ffffff"/>
  </g>
  <g id="axes_1">
   <g id="patch_2">
    <path d="M 48.322812 159.45811 
L 495.692812 159.45811 
L 495.692812 25.158281 
L 48.322812 25.158281 
z
" style="fill: #ffffff"/>
   </g>
   <g id="matplotlib.axis_1">
    <g id="xtick_1">
     <g id="line2d_1">
      <path d="M 162.444235 159.45811 
L 162.444235 25.158281 
" clip-path="url(#p96b527afe0)" style="fill: none; stroke: #b0b0b0; stroke-opacity: 0.25; stroke-width: 0.5; stroke-linecap: square"/>
     </g>
     <g id="line2d_2">
      <defs>
       <path id="m07482c2f8a" d="M 0 0 
L 0 3.5 
" style="stroke: #000000; stroke-width: 0.8"/>
      </defs>
      <g>
       <use xlink:href="#m07482c2f8a" x="162.444235" y="159.45811" style="stroke: #000000; stroke-width: 0.8"/>
      </g>
     </g>
     <g id="text_1">
      <!-- Dec 2025 -->
      <g transform="translate(128.243319 190.988087) rotate(-30) scale(0.08 -0.08)">
       <defs>
        <path id="DejaVuSerif-44" d="M 1581 331 
L 2163 331 
Q 3072 331 3558 850 
Q 4044 1369 4044 2338 
Q 4044 3306 3559 3818 
Q 3075 4331 2163 4331 
L 1581 4331 
L 1581 331 
z
M 353 0 
L 353 331 
L 947 331 
L 947 4331 
L 353 4331 
L 353 4666 
L 2209 4666 
Q 3416 4666 4089 4050 
Q 4763 3434 4763 2338 
Q 4763 1238 4088 619 
Q 3413 0 2209 0 
L 353 0 
z
" transform="scale(0.015625)"/>
        <path id="DejaVuSerif-65" d="M 3469 1600 
L 991 1600 
L 991 1575 
Q 991 903 1244 561 
Q 1497 219 1991 219 
Q 2369 219 2611 417 
Q 2853 616 2950 1006 
L 3413 1006 
Q 3275 459 2904 184 
Q 2534 -91 1931 -91 
Q 1203 -91 761 389 
Q 319 869 319 1663 
Q 319 2450 753 2931 
Q 1188 3413 1894 3413 
Q 2647 3413 3050 2948 
Q 3453 2484 3469 1600 
z
M 2791 1931 
Q 2772 2513 2545 2808 
Q 2319 3103 1894 3103 
Q 1497 3103 1269 2806 
Q 1041 2509 991 1931 
L 2791 1931 
z
" transform="scale(0.015625)"/>
        <path id="DejaVuSerif-63" d="M 3291 997 
Q 3169 466 2822 187 
Q 2475 -91 1925 -91 
Q 1200 -91 759 389 
Q 319 869 319 1663 
Q 319 2459 759 2936 
Q 1200 3413 1925 3413 
Q 2241 3413 2553 3339 
Q 2866 3266 3181 3116 
L 3181 2266 
L 2847 2266 
Q 2781 2703 2561 2903 
Q 2341 3103 1931 3103 
Q 1466 3103 1228 2742 
Q 991 2381 991 1663 
Q 991 944 1227 581 
Q 1463 219 1931 219 
Q 2303 219 2525 412 
Q 2747 606 2828 997 
L 3291 997 
z
" transform="scale(0.015625)"/>
        <path id="DejaVuSerif-20" transform="scale(0.015625)"/>
        <path id="DejaVuSerif-32" d="M 819 3553 
L 469 3553 
L 469 4384 
Q 803 4563 1142 4656 
Q 1481 4750 1806 4750 
Q 2534 4750 2956 4397 
Q 3378 4044 3378 3438 
Q 3378 2753 2422 1800 
Q 2347 1728 2309 1691 
L 1131 513 
L 3078 513 
L 3078 1088 
L 3444 1088 
L 3444 0 
L 434 0 
L 434 341 
L 1850 1753 
Q 2319 2222 2519 2614 
Q 2719 3006 2719 3438 
Q 2719 3909 2473 4175 
Q 2228 4441 1797 4441 
Q 1350 4441 1106 4219 
Q 863 3997 819 3553 
z
" transform="scale(0.015625)"/>
        <path id="DejaVuSerif-30" d="M 2034 219 
Q 2513 219 2750 744 
Q 2988 1269 2988 2328 
Q 2988 3391 2750 3916 
Q 2513 4441 2034 4441 
Q 1556 4441 1318 3916 
Q 1081 3391 1081 2328 
Q 1081 1269 1318 744 
Q 1556 219 2034 219 
z
M 2034 -91 
Q 1275 -91 848 546 
Q 422 1184 422 2328 
Q 422 3475 848 4112 
Q 1275 4750 2034 4750 
Q 2797 4750 3222 4112 
Q 3647 3475 3647 2328 
Q 3647 1184 3222 546 
Q 2797 -91 2034 -91 
z
" transform="scale(0.015625)"/>
        <path id="DejaVuSerif-35" d="M 3219 4666 
L 3219 4153 
L 1081 4153 
L 1081 2816 
Q 1244 2928 1461 2984 
Q 1678 3041 1947 3041 
Q 2703 3041 3140 2622 
Q 3578 2203 3578 1478 
Q 3578 738 3136 323 
Q 2694 -91 1894 -91 
Q 1572 -91 1234 -12 
Q 897 66 544 225 
L 544 1131 
L 897 1131 
Q 925 688 1179 453 
Q 1434 219 1894 219 
Q 2388 219 2653 544 
Q 2919 869 2919 1478 
Q 2919 2084 2655 2407 
Q 2391 2731 1894 2731 
Q 1613 2731 1398 2631 
Q 1184 2531 1019 2322 
L 750 2322 
L 750 4666 
L 3219 4666 
z
" transform="scale(0.015625)"/>
       </defs>
       <use xlink:href="#DejaVuSerif-44"/>
       <use xlink:href="#DejaVuSerif-65" transform="translate(80.175781 0)"/>
       <use xlink:href="#DejaVuSerif-63" transform="translate(139.355469 0)"/>
       <use xlink:href="#DejaVuSerif-20" transform="translate(195.361328 0)"/>
       <use xlink:href="#DejaVuSerif-32" transform="translate(227.148438 0)"/>
       <use xlink:href="#DejaVuSerif-30" transform="translate(290.771484 0)"/>
       <use xlink:href="#DejaVuSerif-32" transform="translate(354.394531 0)"/>
       <use xlink:href="#DejaVuSerif-35" transform="translate(418.017578 0)"/>
      </g>
     </g>
    </g>
    <g id="xtick_2">
     <g id="line2d_3">
      <path d="M 298.303071 159.45811 
L 298.303071 25.158281 
" clip-path="url(#p96b527afe0)" style="fill: none; stroke: #b0b0b0; stroke-opacity: 0.25; stroke-width: 0.5; stroke-linecap: square"/>
     </g>
     <g id="line2d_4">
      <g>
       <use xlink:href="#m07482c2f8a" x="298.303071" y="159.45811" style="stroke: #000000; stroke-width: 0.8"/>
      </g>
     </g>
     <g id="text_2">
      <!-- Jan 2026 -->
      <g transform="translate(266.266136 189.738712) rotate(-30) scale(0.08 -0.08)">
       <defs>
        <path id="DejaVuSerif-4a" d="M -538 -1119 
L -538 -384 
L -181 -384 
Q -172 -694 -34 -845 
Q 103 -997 378 -997 
Q 750 -997 897 -762 
Q 1044 -528 1044 153 
L 1044 4331 
L 319 4331 
L 319 4666 
L 2272 4666 
L 2272 4331 
L 1678 4331 
L 1678 128 
Q 1678 -644 1368 -987 
Q 1059 -1331 372 -1331 
Q 150 -1331 -79 -1278 
Q -309 -1225 -538 -1119 
z
" transform="scale(0.015625)"/>
        <path id="DejaVuSerif-61" d="M 2547 1044 
L 2547 1747 
L 1806 1747 
Q 1378 1747 1168 1562 
Q 959 1378 959 997 
Q 959 650 1171 447 
Q 1384 244 1747 244 
Q 2106 244 2326 466 
Q 2547 688 2547 1044 
z
M 3122 2075 
L 3122 331 
L 3634 331 
L 3634 0 
L 2547 0 
L 2547 359 
Q 2356 128 2106 18 
Q 1856 -91 1522 -91 
Q 969 -91 644 203 
Q 319 497 319 997 
Q 319 1513 691 1797 
Q 1063 2081 1741 2081 
L 2547 2081 
L 2547 2309 
Q 2547 2688 2317 2895 
Q 2088 3103 1672 3103 
Q 1328 3103 1125 2947 
Q 922 2791 872 2484 
L 575 2484 
L 575 3156 
Q 875 3284 1158 3348 
Q 1441 3413 1709 3413 
Q 2400 3413 2761 3070 
Q 3122 2728 3122 2075 
z
" transform="scale(0.015625)"/>
        <path id="DejaVuSerif-6e" d="M 263 0 
L 263 331 
L 781 331 
L 781 2988 
L 231 2988 
L 231 3322 
L 1356 3322 
L 1356 2731 
Q 1516 3069 1770 3241 
Q 2025 3413 2363 3413 
Q 2913 3413 3172 3097 
Q 3431 2781 3431 2113 
L 3431 331 
L 3944 331 
L 3944 0 
L 2356 0 
L 2356 331 
L 2853 331 
L 2853 1931 
Q 2853 2541 2703 2767 
Q 2553 2994 2175 2994 
Q 1775 2994 1565 2701 
Q 1356 2409 1356 1850 
L 1356 331 
L 1856 331 
L 1856 0 
L 263 0 
z
" transform="scale(0.015625)"/>
        <path id="DejaVuSerif-36" d="M 2094 219 
Q 2534 219 2771 542 
Q 3009 866 3009 1472 
Q 3009 2078 2771 2401 
Q 2534 2725 2094 2725 
Q 1647 2725 1412 2412 
Q 1178 2100 1178 1509 
Q 1178 888 1415 553 
Q 1653 219 2094 219 
z
M 1075 2569 
Q 1288 2803 1556 2918 
Q 1825 3034 2163 3034 
Q 2859 3034 3264 2615 
Q 3669 2197 3669 1472 
Q 3669 763 3233 336 
Q 2797 -91 2069 -91 
Q 1278 -91 853 498 
Q 428 1088 428 2181 
Q 428 3406 931 4078 
Q 1434 4750 2350 4750 
Q 2597 4750 2869 4703 
Q 3141 4656 3425 4563 
L 3425 3794 
L 3072 3794 
Q 3034 4109 2831 4275 
Q 2628 4441 2284 4441 
Q 1678 4441 1381 3981 
Q 1084 3522 1075 2569 
z
" transform="scale(0.015625)"/>
       </defs>
       <use xlink:href="#DejaVuSerif-4a"/>
       <use xlink:href="#DejaVuSerif-61" transform="translate(40.087891 0)"/>
       <use xlink:href="#DejaVuSerif-6e" transform="translate(99.707031 0)"/>
       <use xlink:href="#DejaVuSerif-20" transform="translate(164.111328 0)"/>
       <use xlink:href="#DejaVuSerif-32" transform="translate(195.898438 0)"/>
       <use xlink:href="#DejaVuSerif-30" transform="translate(259.521484 0)"/>
       <use xlink:href="#DejaVuSerif-32" transform="translate(323.144531 0)"/>
       <use xlink:href="#DejaVuSerif-36" transform="translate(386.767578 0)"/>
      </g>
     </g>
    </g>
    <g id="xtick_3">
     <g id="line2d_5">
      <path d="M 434.161907 159.45811 
L 434.161907 25.158281 
" clip-path="url(#p96b527afe0)" style="fill: none; stroke: #b0b0b0; stroke-opacity: 0.25; stroke-width: 0.5; stroke-linecap: square"/>
     </g>
     <g id="line2d_6">
      <g>
       <use xlink:href="#m07482c2f8a" x="434.161907" y="159.45811" style="stroke: #000000; stroke-width: 0.8"/>
      </g>
     </g>
     <g id="text_3">
      <!-- Feb 2026 -->
      <g transform="translate(400.53365 190.657462) rotate(-30) scale(0.08 -0.08)">
       <defs>
        <path id="DejaVuSerif-46" d="M 353 0 
L 353 331 
L 947 331 
L 947 4331 
L 353 4331 
L 353 4666 
L 4172 4666 
L 4172 3628 
L 3788 3628 
L 3788 4281 
L 1581 4281 
L 1581 2719 
L 3175 2719 
L 3175 3303 
L 3559 3303 
L 3559 1753 
L 3175 1753 
L 3175 2338 
L 1581 2338 
L 1581 331 
L 2328 331 
L 2328 0 
L 353 0 
z
" transform="scale(0.015625)"/>
        <path id="DejaVuSerif-62" d="M 738 331 
L 738 4531 
L 184 4531 
L 184 4863 
L 1313 4863 
L 1313 2803 
Q 1481 3116 1742 3264 
Q 2003 3413 2388 3413 
Q 3000 3413 3387 2928 
Q 3775 2444 3775 1663 
Q 3775 881 3387 395 
Q 3000 -91 2388 -91 
Q 2003 -91 1742 57 
Q 1481 206 1313 519 
L 1313 0 
L 184 0 
L 184 331 
L 738 331 
z
M 1313 1497 
Q 1313 897 1542 583 
Q 1772 269 2209 269 
Q 2650 269 2876 622 
Q 3103 975 3103 1663 
Q 3103 2353 2876 2703 
Q 2650 3053 2209 3053 
Q 1772 3053 1542 2737 
Q 1313 2422 1313 1825 
L 1313 1497 
z
" transform="scale(0.015625)"/>
       </defs>
       <use xlink:href="#DejaVuSerif-46"/>
       <use xlink:href="#DejaVuSerif-65" transform="translate(63.884766 0)"/>
       <use xlink:href="#DejaVuSerif-62" transform="translate(123.064453 0)"/>
       <use xlink:href="#DejaVuSerif-20" transform="translate(187.078125 0)"/>
       <use xlink:href="#DejaVuSerif-32" transform="translate(218.865234 0)"/>
       <use xlink:href="#DejaVuSerif-30" transform="translate(282.488281 0)"/>
       <use xlink:href="#DejaVuSerif-32" transform="translate(346.111328 0)"/>
       <use xlink:href="#DejaVuSerif-36" transform="translate(409.734375 0)"/>
      </g>
     </g>
    </g>
   </g>
   <g id="matplotlib.axis_2">
    <g id="ytick_1">
     <g id="line2d_7">
      <path d="M 48.322812 150.139131 
L 495.692812 150.139131 
" clip-path="url(#p96b527afe0)" style="fill: none; stroke: #b0b0b0; stroke-opacity: 0.25; stroke-width: 0.5; stroke-linecap: square"/>
     </g>
     <g id="line2d_8">
      <defs>
       <path id="md6d81bf07a" d="M 0 0 
L -3.5 0 
" style="stroke: #000000; stroke-width: 0.8"/>
      </defs>
      <g>
       <use xlink:href="#md6d81bf07a" x="48.322812" y="150.139131" style="stroke: #000000; stroke-width: 0.8"/>
      </g>
     </g>
     <g id="text_4">
      <!-- 0.1 -->
      <g transform="translate(28.600312 153.178506) scale(0.08 -0.08)">
       <defs>
        <path id="DejaVuSerif-2e" d="M 603 325 
Q 603 500 722 622 
Q 841 744 1019 744 
Q 1191 744 1312 622 
Q 1434 500 1434 325 
Q 1434 153 1312 31 
Q 1191 -91 1019 -91 
Q 841 -91 722 29 
Q 603 150 603 325 
z
" transform="scale(0.015625)"/>
        <path id="DejaVuSerif-31" d="M 909 0 
L 909 331 
L 1722 331 
L 1722 4213 
L 781 3603 
L 781 4013 
L 1919 4750 
L 2350 4750 
L 2350 331 
L 3163 331 
L 3163 0 
L 909 0 
z
" transform="scale(0.015625)"/>
       </defs>
       <use xlink:href="#DejaVuSerif-30"/>
       <use xlink:href="#DejaVuSerif-2e" transform="translate(63.623047 0)"/>
       <use xlink:href="#DejaVuSerif-31" transform="translate(95.410156 0)"/>
      </g>
     </g>
    </g>
    <g id="ytick_2">
     <g id="line2d_9">
      <path d="M 48.322812 107.238559 
L 495.692812 107.238559 
" clip-path="url(#p96b527afe0)" style="fill: none; stroke: #b0b0b0; stroke-opacity: 0.25; stroke-width: 0.5; stroke-linecap: square"/>
     </g>
     <g id="line2d_10">
      <g>
       <use xlink:href="#md6d81bf07a" x="48.322812" y="107.238559" style="stroke: #000000; stroke-width: 0.8"/>
      </g>
     </g>
     <g id="text_5">
      <!-- 1.0 -->
      <g transform="translate(28.600312 110.277934) scale(0.08 -0.08)">
       <use xlink:href="#DejaVuSerif-31"/>
       <use xlink:href="#DejaVuSerif-2e" transform="translate(63.623047 0)"/>
       <use xlink:href="#DejaVuSerif-30" transform="translate(95.410156 0)"/>
      </g>
     </g>
    </g>
    <g id="ytick_3">
     <g id="line2d_11">
      <path d="M 48.322812 64.337987 
L 495.692812 64.337987 
" clip-path="url(#p96b527afe0)" style="fill: none; stroke: #b0b0b0; stroke-opacity: 0.25; stroke-width: 0.5; stroke-linecap: square"/>
     </g>
     <g id="line2d_12">
      <g>
       <use xlink:href="#md6d81bf07a" x="48.322812" y="64.337987" style="stroke: #000000; stroke-width: 0.8"/>
      </g>
     </g>
     <g id="text_6">
      <!-- 10.0 -->
      <g transform="translate(23.510312 67.377362) scale(0.08 -0.08)">
       <use xlink:href="#DejaVuSerif-31"/>
       <use xlink:href="#DejaVuSerif-30" transform="translate(63.623047 0)"/>
       <use xlink:href="#DejaVuSerif-2e" transform="translate(127.246094 0)"/>
       <use xlink:href="#DejaVuSerif-30" transform="translate(159.033203 0)"/>
      </g>
     </g>
    </g>
    <g id="ytick_4">
     <g id="line2d_13">
      <defs>
       <path id="ma92bbcb563" d="M 0 0 
L -2 0 
" style="stroke: #000000; stroke-width: 0.6"/>
      </defs>
      <g>
       <use xlink:href="#ma92bbcb563" x="48.322812" y="156.784513" style="stroke: #000000; stroke-width: 0.6"/>
      </g>
     </g>
    </g>
    <g id="ytick_5">
     <g id="line2d_14">
      <g>
       <use xlink:href="#ma92bbcb563" x="48.322812" y="154.296626" style="stroke: #000000; stroke-width: 0.6"/>
      </g>
     </g>
    </g>
    <g id="ytick_6">
     <g id="line2d_15">
      <g>
       <use xlink:href="#ma92bbcb563" x="48.322812" y="152.102153" style="stroke: #000000; stroke-width: 0.6"/>
      </g>
     </g>
    </g>
    <g id="ytick_7">
     <g id="line2d_16">
      <g>
       <use xlink:href="#ma92bbcb563" x="48.322812" y="137.224772" style="stroke: #000000; stroke-width: 0.6"/>
      </g>
     </g>
    </g>
    <g id="ytick_8">
     <g id="line2d_17">
      <g>
       <use xlink:href="#ma92bbcb563" x="48.322812" y="129.670356" style="stroke: #000000; stroke-width: 0.6"/>
      </g>
     </g>
    </g>
    <g id="ytick_9">
     <g id="line2d_18">
      <g>
       <use xlink:href="#ma92bbcb563" x="48.322812" y="124.310413" style="stroke: #000000; stroke-width: 0.6"/>
      </g>
     </g>
    </g>
    <g id="ytick_10">
     <g id="line2d_19">
      <g>
       <use xlink:href="#ma92bbcb563" x="48.322812" y="120.152918" style="stroke: #000000; stroke-width: 0.6"/>
      </g>
     </g>
    </g>
    <g id="ytick_11">
     <g id="line2d_20">
      <g>
       <use xlink:href="#ma92bbcb563" x="48.322812" y="116.755997" style="stroke: #000000; stroke-width: 0.6"/>
      </g>
     </g>
    </g>
    <g id="ytick_12">
     <g id="line2d_21">
      <g>
       <use xlink:href="#ma92bbcb563" x="48.322812" y="113.883941" style="stroke: #000000; stroke-width: 0.6"/>
      </g>
     </g>
    </g>
    <g id="ytick_13">
     <g id="line2d_22">
      <g>
       <use xlink:href="#ma92bbcb563" x="48.322812" y="111.396054" style="stroke: #000000; stroke-width: 0.6"/>
      </g>
     </g>
    </g>
    <g id="ytick_14">
     <g id="line2d_23">
      <g>
       <use xlink:href="#ma92bbcb563" x="48.322812" y="109.201581" style="stroke: #000000; stroke-width: 0.6"/>
      </g>
     </g>
    </g>
    <g id="ytick_15">
     <g id="line2d_24">
      <g>
       <use xlink:href="#ma92bbcb563" x="48.322812" y="94.3242" style="stroke: #000000; stroke-width: 0.6"/>
      </g>
     </g>
    </g>
    <g id="ytick_16">
     <g id="line2d_25">
      <g>
       <use xlink:href="#ma92bbcb563" x="48.322812" y="86.769784" style="stroke: #000000; stroke-width: 0.6"/>
      </g>
     </g>
    </g>
    <g id="ytick_17">
     <g id="line2d_26">
      <g>
       <use xlink:href="#ma92bbcb563" x="48.322812" y="81.409841" style="stroke: #000000; stroke-width: 0.6"/>
      </g>
     </g>
    </g>
    <g id="ytick_18">
     <g id="line2d_27">
      <g>
       <use xlink:href="#ma92bbcb563" x="48.322812" y="77.252346" style="stroke: #000000; stroke-width: 0.6"/>
      </g>
     </g>
    </g>
    <g id="ytick_19">
     <g id="line2d_28">
      <g>
       <use xlink:href="#ma92bbcb563" x="48.322812" y="73.855425" style="stroke: #000000; stroke-width: 0.6"/>
      </g>
     </g>
    </g>
    <g id="ytick_20">
     <g id="line2d_29">
      <g>
       <use xlink:href="#ma92bbcb563" x="48.322812" y="70.98337" style="stroke: #000000; stroke-width: 0.6"/>
      </g>
     </g>
    </g>
    <g id="ytick_21">
     <g id="line2d_30">
      <g>
       <use xlink:href="#ma92bbcb563" x="48.322812" y="68.495482" style="stroke: #000000; stroke-width: 0.6"/>
      </g>
     </g>
    </g>
    <g id="ytick_22">
     <g id="line2d_31">
      <g>
       <use xlink:href="#ma92bbcb563" x="48.322812" y="66.30101" style="stroke: #000000; stroke-width: 0.6"/>
      </g>
     </g>
    </g>
    <g id="ytick_23">
     <g id="line2d_32">
      <g>
       <use xlink:href="#ma92bbcb563" x="48.322812" y="51.423628" style="stroke: #000000; stroke-width: 0.6"/>
      </g>
     </g>
    </g>
    <g id="ytick_24">
     <g id="line2d_33">
      <g>
       <use xlink:href="#ma92bbcb563" x="48.322812" y="43.869212" style="stroke: #000000; stroke-width: 0.6"/>
      </g>
     </g>
    </g>
    <g id="ytick_25">
     <g id="line2d_34">
      <g>
       <use xlink:href="#ma92bbcb563" x="48.322812" y="38.509269" style="stroke: #000000; stroke-width: 0.6"/>
      </g>
     </g>
    </g>
    <g id="ytick_26">
     <g id="line2d_35">
      <g>
       <use xlink:href="#ma92bbcb563" x="48.322812" y="34.351774" style="stroke: #000000; stroke-width: 0.6"/>
      </g>
     </g>
    </g>
    <g id="ytick_27">
     <g id="line2d_36">
      <g>
       <use xlink:href="#ma92bbcb563" x="48.322812" y="30.954854" style="stroke: #000000; stroke-width: 0.6"/>
      </g>
     </g>
    </g>
    <g id="ytick_28">
     <g id="line2d_37">
      <g>
       <use xlink:href="#ma92bbcb563" x="48.322812" y="28.082798" style="stroke: #000000; stroke-width: 0.6"/>
      </g>
     </g>
    </g>
    <g id="ytick_29">
     <g id="line2d_38">
      <g>
       <use xlink:href="#ma92bbcb563" x="48.322812" y="25.59491" style="stroke: #000000; stroke-width: 0.6"/>
      </g>
     </g>
    </g>
    <g id="text_7">
     <!-- MiB/s -->
     <g transform="translate(17.638594 105.486868) rotate(-90) scale(0.09 -0.09)">
      <defs>
       <path id="DejaVuSerif-4d" d="M 353 0 
L 353 331 
L 947 331 
L 947 4331 
L 319 4331 
L 319 4666 
L 1678 4666 
L 3316 1344 
L 4953 4666 
L 6228 4666 
L 6228 4331 
L 5606 4331 
L 5606 331 
L 6203 331 
L 6203 0 
L 4378 0 
L 4378 331 
L 4972 331 
L 4972 3938 
L 3372 684 
L 2931 684 
L 1331 3938 
L 1331 331 
L 1925 331 
L 1925 0 
L 353 0 
z
" transform="scale(0.015625)"/>
       <path id="DejaVuSerif-69" d="M 622 4353 
Q 622 4497 726 4603 
Q 831 4709 978 4709 
Q 1122 4709 1226 4603 
Q 1331 4497 1331 4353 
Q 1331 4206 1228 4103 
Q 1125 4000 978 4000 
Q 831 4000 726 4103 
Q 622 4206 622 4353 
z
M 1356 331 
L 1900 331 
L 1900 0 
L 231 0 
L 231 331 
L 781 331 
L 781 2988 
L 231 2988 
L 231 3322 
L 1356 3322 
L 1356 331 
z
" transform="scale(0.015625)"/>
       <path id="DejaVuSerif-42" d="M 1581 331 
L 2516 331 
Q 3078 331 3337 575 
Q 3597 819 3597 1350 
Q 3597 1878 3339 2120 
Q 3081 2363 2516 2363 
L 1581 2363 
L 1581 331 
z
M 1581 2694 
L 2375 2694 
Q 2888 2694 3123 2891 
Q 3359 3088 3359 3513 
Q 3359 3941 3123 4136 
Q 2888 4331 2375 4331 
L 1581 4331 
L 1581 2694 
z
M 353 0 
L 353 331 
L 947 331 
L 947 4331 
L 353 4331 
L 353 4666 
L 2656 4666 
Q 3363 4666 3720 4377 
Q 4078 4088 4078 3513 
Q 4078 3097 3829 2850 
Q 3581 2603 3103 2547 
Q 3697 2472 4005 2167 
Q 4313 1863 4313 1350 
Q 4313 656 3875 328 
Q 3438 0 2509 0 
L 353 0 
z
" transform="scale(0.015625)"/>
       <path id="DejaVuSerif-2f" d="M 1656 4666 
L 2156 4666 
L 500 -594 
L 0 -594 
L 1656 4666 
z
" transform="scale(0.015625)"/>
       <path id="DejaVuSerif-73" d="M 359 184 
L 359 959 
L 691 959 
Q 703 588 923 403 
Q 1144 219 1575 219 
Q 1963 219 2166 364 
Q 2369 509 2369 788 
Q 2369 1006 2220 1140 
Q 2072 1275 1594 1428 
L 1178 1569 
Q 750 1706 558 1912 
Q 366 2119 366 2438 
Q 366 2894 700 3153 
Q 1034 3413 1625 3413 
Q 1888 3413 2178 3344 
Q 2469 3275 2778 3144 
L 2778 2419 
L 2447 2419 
Q 2434 2741 2221 2922 
Q 2009 3103 1644 3103 
Q 1281 3103 1095 2975 
Q 909 2847 909 2591 
Q 909 2381 1050 2254 
Q 1191 2128 1613 1997 
L 2069 1856 
Q 2541 1709 2748 1489 
Q 2956 1269 2956 922 
Q 2956 450 2595 179 
Q 2234 -91 1600 -91 
Q 1278 -91 972 -22 
Q 666 47 359 184 
z
" transform="scale(0.015625)"/>
      </defs>
      <use xlink:href="#DejaVuSerif-4d"/>
      <use xlink:href="#DejaVuSerif-69" transform="translate(102.392578 0)"/>
      <use xlink:href="#DejaVuSerif-42" transform="translate(134.375 0)"/>
      <use xlink:href="#DejaVuSerif-2f" transform="translate(207.861328 0)"/>
      <use xlink:href="#DejaVuSerif-73" transform="translate(241.552734 0)"/>
     </g>
    </g>
   </g>
   <g id="patch_3">
    <path d="M 68.657813 43007.810294 
L 72.163847 43007.810294 
L 72.163847 146.150245 
L 68.657813 146.150245 
z
" clip-path="url(#p96b527afe0)" style="fill: #3366cc; opacity: 0.7"/>
   </g>
   <g id="patch_4">
    <path d="M 73.040356 43007.810294 
L 76.54639 43007.810294 
L 76.54639 147.244343 
L 73.040356 147.244343 
z
" clip-path="url(#p96b527afe0)" style="fill: #3366cc; opacity: 0.7"/>
   </g>
   <g id="patch_5">
    <path d="M 77.422899 43007.810294 
L 80.928933 43007.810294 
L 80.928933 146.998741 
L 77.422899 146.998741 
z
" clip-path="url(#p96b527afe0)" style="fill: #3366cc; opacity: 0.7"/>
   </g>
   <g id="patch_6">
    <path d="M 81.805442 43007.810294 
L 85.311476 43007.810294 
L 85.311476 147.09361 
L 81.805442 147.09361 
z
" clip-path="url(#p96b527afe0)" style="fill: #3366cc; opacity: 0.7"/>
   </g>
   <g id="patch_7">
    <path d="M 86.187985 43007.810294 
L 89.694019 43007.810294 
L 89.694019 146.809976 
L 86.187985 146.809976 
z
" clip-path="url(#p96b527afe0)" style="fill: #3366cc; opacity: 0.7"/>
   </g>
   <g id="patch_8">
    <path d="M 90.570528 43007.810294 
L 94.076563 43007.810294 
L 94.076563 147.06239 
L 90.570528 147.06239 
z
" clip-path="url(#p96b527afe0)" style="fill: #3366cc; opacity: 0.7"/>
   </g>
   <g id="patch_9">
    <path d="M 94.953071 43007.810294 
L 98.459106 43007.810294 
L 98.459106 147.175272 
L 94.953071 147.175272 
z
" clip-path="url(#p96b527afe0)" style="fill: #3366cc; opacity: 0.7"/>
   </g>
   <g id="patch_10">
    <path d="M 99.335614 43007.810294 
L 102.841649 43007.810294 
L 102.841649 146.773922 
L 99.335614 146.773922 
z
" clip-path="url(#p96b527afe0)" style="fill: #3366cc; opacity: 0.7"/>
   </g>
   <g id="patch_11">
    <path d="M 103.718157 43007.810294 
L 107.224192 43007.810294 
L 107.224192 147.543359 
L 103.718157 147.543359 
z
" clip-path="url(#p96b527afe0)" style="fill: #3366cc; opacity: 0.7"/>
   </g>
   <g id="patch_12">
    <path d="M 108.1007 43007.810294 
L 111.606735 43007.810294 
L 111.606735 147.06807 
L 108.1007 147.06807 
z
" clip-path="url(#p96b527afe0)" style="fill: #3366cc; opacity: 0.7"/>
   </g>
   <g id="patch_13">
    <path d="M 112.483244 43007.810294 
L 115.989278 43007.810294 
L 115.989278 147.228799 
L 112.483244 147.228799 
z
" clip-path="url(#p96b527afe0)" style="fill: #3366cc; opacity: 0.7"/>
   </g>
   <g id="patch_14">
    <path d="M 116.865787 43007.810294 
L 120.371821 43007.810294 
L 120.371821 147.357306 
L 116.865787 147.357306 
z
" clip-path="url(#p96b527afe0)" style="fill: #3366cc; opacity: 0.7"/>
   </g>
   <g id="patch_15">
    <path d="M 121.24833 43007.810294 
L 124.754364 43007.810294 
L 124.754364 147.568876 
L 121.24833 147.568876 
z
" clip-path="url(#p96b527afe0)" style="fill: #3366cc; opacity: 0.7"/>
   </g>
   <g id="patch_16">
    <path d="M 125.630873 43007.810294 
L 129.136907 43007.810294 
L 129.136907 148.014239 
L 125.630873 148.014239 
z
" clip-path="url(#p96b527afe0)" style="fill: #3366cc; opacity: 0.7"/>
   </g>
   <g id="patch_17">
    <path d="M 130.013416 43007.810294 
L 133.51945 43007.810294 
L 133.51945 147.627193 
L 130.013416 147.627193 
z
" clip-path="url(#p96b527afe0)" style="fill: #3366cc; opacity: 0.7"/>
   </g>
   <g id="patch_18">
    <path d="M 134.395959 43007.810294 
L 137.901994 43007.810294 
L 137.901994 146.995676 
L 134.395959 146.995676 
z
" clip-path="url(#p96b527afe0)" style="fill: #3366cc; opacity: 0.7"/>
   </g>
   <g id="patch_19">
    <path d="M 138.778502 43007.810294 
L 142.284537 43007.810294 
L 142.284537 148.572394 
L 138.778502 148.572394 
z
" clip-path="url(#p96b527afe0)" style="fill: #3366cc; opacity: 0.7"/>
   </g>
   <g id="patch_20">
    <path d="M 143.161045 43007.810294 
L 146.66708 43007.810294 
L 146.66708 147.313861 
L 143.161045 147.313861 
z
" clip-path="url(#p96b527afe0)" style="fill: #3366cc; opacity: 0.7"/>
   </g>
   <g id="patch_21">
    <path d="M 147.543588 43007.810294 
L 151.049623 43007.810294 
L 151.049623 147.259282 
L 147.543588 147.259282 
z
" clip-path="url(#p96b527afe0)" style="fill: #3366cc; opacity: 0.7"/>
   </g>
   <g id="patch_22">
    <path d="M 151.926131 43007.810294 
L 155.432166 43007.810294 
L 155.432166 148.609863 
L 151.926131 148.609863 
z
" clip-path="url(#p96b527afe0)" style="fill: #3366cc; opacity: 0.7"/>
   </g>
   <g id="patch_23">
    <path d="M 156.308675 43007.810294 
L 159.814709 43007.810294 
L 159.814709 148.543008 
L 156.308675 148.543008 
z
" clip-path="url(#p96b527afe0)" style="fill: #3366cc; opacity: 0.7"/>
   </g>
   <g id="patch_24">
    <path d="M 160.691218 43007.810294 
L 164.197252 43007.810294 
L 164.197252 147.611784 
L 160.691218 147.611784 
z
" clip-path="url(#p96b527afe0)" style="fill: #3366cc; opacity: 0.7"/>
   </g>
   <g id="patch_25">
    <path d="M 165.073761 43007.810294 
L 168.579795 43007.810294 
L 168.579795 147.501247 
L 165.073761 147.501247 
z
" clip-path="url(#p96b527afe0)" style="fill: #3366cc; opacity: 0.7"/>
   </g>
   <g id="patch_26">
    <path d="M 169.456304 43007.810294 
L 172.962338 43007.810294 
L 172.962338 145.879071 
L 169.456304 145.879071 
z
" clip-path="url(#p96b527afe0)" style="fill: #3366cc; opacity: 0.7"/>
   </g>
   <g id="patch_27">
    <path d="M 173.838847 43007.810294 
L 177.344881 43007.810294 
L 177.344881 146.999373 
L 173.838847 146.999373 
z
" clip-path="url(#p96b527afe0)" style="fill: #3366cc; opacity: 0.7"/>
   </g>
   <g id="patch_28">
    <path d="M 178.22139 43007.810294 
L 181.727425 43007.810294 
L 181.727425 148.32637 
L 178.22139 148.32637 
z
" clip-path="url(#p96b527afe0)" style="fill: #3366cc; opacity: 0.7"/>
   </g>
   <g id="patch_29">
    <path d="M 182.603933 43007.810294 
L 186.109968 43007.810294 
L 186.109968 148.909737 
L 182.603933 148.909737 
z
" clip-path="url(#p96b527afe0)" style="fill: #3366cc; opacity: 0.7"/>
   </g>
   <g id="patch_30">
    <path d="M 186.986476 43007.810294 
L 190.492511 43007.810294 
L 190.492511 149.027208 
L 186.986476 149.027208 
z
" clip-path="url(#p96b527afe0)" style="fill: #3366cc; opacity: 0.7"/>
   </g>
   <g id="patch_31">
    <path d="M 191.369019 43007.810294 
L 194.875054 43007.810294 
L 194.875054 148.443435 
L 191.369019 148.443435 
z
" clip-path="url(#p96b527afe0)" style="fill: #3366cc; opacity: 0.7"/>
   </g>
   <g id="patch_32">
    <path d="M 195.751563 43007.810294 
L 199.257597 43007.810294 
L 199.257597 147.104508 
L 195.751563 147.104508 
z
" clip-path="url(#p96b527afe0)" style="fill: #3366cc; opacity: 0.7"/>
   </g>
   <g id="patch_33">
    <path d="M 200.134106 43007.810294 
L 203.64014 43007.810294 
L 203.64014 147.753385 
L 200.134106 147.753385 
z
" clip-path="url(#p96b527afe0)" style="fill: #3366cc; opacity: 0.7"/>
   </g>
   <g id="patch_34">
    <path d="M 204.516649 43007.810294 
L 208.022683 43007.810294 
L 208.022683 148.186452 
L 204.516649 148.186452 
z
" clip-path="url(#p96b527afe0)" style="fill: #3366cc; opacity: 0.7"/>
   </g>
   <g id="patch_35">
    <path d="M 208.899192 43007.810294 
L 212.405226 43007.810294 
L 212.405226 149.200425 
L 208.899192 149.200425 
z
" clip-path="url(#p96b527afe0)" style="fill: #3366cc; opacity: 0.7"/>
   </g>
   <g id="patch_36">
    <path d="M 213.281735 43007.810294 
L 216.787769 43007.810294 
L 216.787769 149.891367 
L 213.281735 149.891367 
z
" clip-path="url(#p96b527afe0)" style="fill: #3366cc; opacity: 0.7"/>
   </g>
   <g id="patch_37">
    <path d="M 217.664278 43007.810294 
L 221.170313 43007.810294 
L 221.170313 148.946767 
L 217.664278 148.946767 
z
" clip-path="url(#p96b527afe0)" style="fill: #3366cc; opacity: 0.7"/>
   </g>
   <g id="patch_38">
    <path d="M 222.046821 43007.810294 
L 225.552856 43007.810294 
L 225.552856 147.494531 
L 222.046821 147.494531 
z
" clip-path="url(#p96b527afe0)" style="fill: #3366cc; opacity: 0.7"/>
   </g>
   <g id="patch_39">
    <path d="M 226.429364 43007.810294 
L 229.935399 43007.810294 
L 229.935399 148.362798 
L 226.429364 148.362798 
z
" clip-path="url(#p96b527afe0)" style="fill: #3366cc; opacity: 0.7"/>
   </g>
   <g id="patch_40">
    <path d="M 230.811907 43007.810294 
L 234.317942 43007.810294 
L 234.317942 148.338273 
L 230.811907 148.338273 
z
" clip-path="url(#p96b527afe0)" style="fill: #3366cc; opacity: 0.7"/>
   </g>
   <g id="patch_41">
    <path d="M 235.19445 43007.810294 
L 238.700485 43007.810294 
L 238.700485 148.149506 
L 235.19445 148.149506 
z
" clip-path="url(#p96b527afe0)" style="fill: #3366cc; opacity: 0.7"/>
   </g>
   <g id="patch_42">
    <path d="M 239.576994 43007.810294 
L 243.083028 43007.810294 
L 243.083028 148.490806 
L 239.576994 148.490806 
z
" clip-path="url(#p96b527afe0)" style="fill: #3366cc; opacity: 0.7"/>
   </g>
   <g id="patch_43">
    <path d="M 243.959537 43007.810294 
L 247.465571 43007.810294 
L 247.465571 149.004902 
L 243.959537 149.004902 
z
" clip-path="url(#p96b527afe0)" style="fill: #3366cc; opacity: 0.7"/>
   </g>
   <g id="patch_44">
    <path d="M 248.34208 43007.810294 
L 251.848114 43007.810294 
L 251.848114 147.960957 
L 248.34208 147.960957 
z
" clip-path="url(#p96b527afe0)" style="fill: #3366cc; opacity: 0.7"/>
   </g>
   <g id="patch_45">
    <path d="M 252.724623 43007.810294 
L 256.230657 43007.810294 
L 256.230657 147.642229 
L 252.724623 147.642229 
z
" clip-path="url(#p96b527afe0)" style="fill: #3366cc; opacity: 0.7"/>
   </g>
   <g id="patch_46">
    <path d="M 257.107166 43007.810294 
L 260.6132 43007.810294 
L 260.6132 146.849069 
L 257.107166 146.849069 
z
" clip-path="url(#p96b527afe0)" style="fill: #3366cc; opacity: 0.7"/>
   </g>
   <g id="patch_47">
    <path d="M 261.489709 43007.810294 
L 264.995744 43007.810294 
L 264.995744 145.996223 
L 261.489709 145.996223 
z
" clip-path="url(#p96b527afe0)" style="fill: #3366cc; opacity: 0.7"/>
   </g>
   <g id="patch_48">
    <path d="M 265.872252 43007.810294 
L 269.378287 43007.810294 
L 269.378287 146.503306 
L 265.872252 146.503306 
z
" clip-path="url(#p96b527afe0)" style="fill: #3366cc; opacity: 0.7"/>
   </g>
   <g id="patch_49">
    <path d="M 270.254795 43007.810294 
L 273.76083 43007.810294 
L 273.76083 147.979983 
L 270.254795 147.979983 
z
" clip-path="url(#p96b527afe0)" style="fill: #3366cc; opacity: 0.7"/>
   </g>
   <g id="patch_50">
    <path d="M 274.637338 43007.810294 
L 278.143373 43007.810294 
L 278.143373 149.321794 
L 274.637338 149.321794 
z
" clip-path="url(#p96b527afe0)" style="fill: #3366cc; opacity: 0.7"/>
   </g>
   <g id="patch_51">
    <path d="M 279.019881 43007.810294 
L 282.525916 43007.810294 
L 282.525916 149.737266 
L 279.019881 149.737266 
z
" clip-path="url(#p96b527afe0)" style="fill: #3366cc; opacity: 0.7"/>
   </g>
   <g id="patch_52">
    <path d="M 283.402425 43007.810294 
L 286.908459 43007.810294 
L 286.908459 149.445861 
L 283.402425 149.445861 
z
" clip-path="url(#p96b527afe0)" style="fill: #3366cc; opacity: 0.7"/>
   </g>
   <g id="patch_53">
    <path d="M 287.784968 43007.810294 
L 291.291002 43007.810294 
L 291.291002 148.137058 
L 287.784968 148.137058 
z
" clip-path="url(#p96b527afe0)" style="fill: #3366cc; opacity: 0.7"/>
   </g>
   <g id="patch_54">
    <path d="M 292.167511 43007.810294 
L 295.673545 43007.810294 
L 295.673545 148.984253 
L 292.167511 148.984253 
z
" clip-path="url(#p96b527afe0)" style="fill: #3366cc; opacity: 0.7"/>
   </g>
   <g id="patch_55">
    <path d="M 296.550054 43007.810294 
L 300.056088 43007.810294 
L 300.056088 149.696924 
L 296.550054 149.696924 
z
" clip-path="url(#p96b527afe0)" style="fill: #3366cc; opacity: 0.7"/>
   </g>
   <g id="patch_56">
    <path d="M 300.932597 43007.810294 
L 304.438631 43007.810294 
L 304.438631 149.371579 
L 300.932597 149.371579 
z
" clip-path="url(#p96b527afe0)" style="fill: #3366cc; opacity: 0.7"/>
   </g>
   <g id="patch_57">
    <path d="M 305.31514 43007.810294 
L 308.821175 43007.810294 
L 308.821175 149.639676 
L 305.31514 149.639676 
z
" clip-path="url(#p96b527afe0)" style="fill: #3366cc; opacity: 0.7"/>
   </g>
   <g id="patch_58">
    <path d="M 309.697683 43007.810294 
L 313.203718 43007.810294 
L 313.203718 149.642159 
L 309.697683 149.642159 
z
" clip-path="url(#p96b527afe0)" style="fill: #3366cc; opacity: 0.7"/>
   </g>
   <g id="patch_59">
    <path d="M 314.080226 43007.810294 
L 317.586261 43007.810294 
L 317.586261 149.08363 
L 314.080226 149.08363 
z
" clip-path="url(#p96b527afe0)" style="fill: #3366cc; opacity: 0.7"/>
   </g>
   <g id="patch_60">
    <path d="M 318.462769 43007.810294 
L 321.968804 43007.810294 
L 321.968804 148.857077 
L 318.462769 148.857077 
z
" clip-path="url(#p96b527afe0)" style="fill: #3366cc; opacity: 0.7"/>
   </g>
   <g id="patch_61">
    <path d="M 322.845313 43007.810294 
L 326.351347 43007.810294 
L 326.351347 149.214906 
L 322.845313 149.214906 
z
" clip-path="url(#p96b527afe0)" style="fill: #3366cc; opacity: 0.7"/>
   </g>
   <g id="patch_62">
    <path d="M 327.227856 43007.810294 
L 330.73389 43007.810294 
L 330.73389 148.735836 
L 327.227856 148.735836 
z
" clip-path="url(#p96b527afe0)" style="fill: #3366cc; opacity: 0.7"/>
   </g>
   <g id="patch_63">
    <path d="M 331.610399 43007.810294 
L 335.116433 43007.810294 
L 335.116433 149.417616 
L 331.610399 149.417616 
z
" clip-path="url(#p96b527afe0)" style="fill: #3366cc; opacity: 0.7"/>
   </g>
   <g id="patch_64">
    <path d="M 335.992942 43007.810294 
L 339.498976 43007.810294 
L 339.498976 149.691248 
L 335.992942 149.691248 
z
" clip-path="url(#p96b527afe0)" style="fill: #3366cc; opacity: 0.7"/>
   </g>
   <g id="patch_65">
    <path d="M 340.375485 43007.810294 
L 343.881519 43007.810294 
L 343.881519 150.578566 
L 340.375485 150.578566 
z
" clip-path="url(#p96b527afe0)" style="fill: #3366cc; opacity: 0.7"/>
   </g>
   <g id="patch_66">
    <path d="M 344.758028 43007.810294 
L 348.264063 43007.810294 
L 348.264063 149.693177 
L 344.758028 149.693177 
z
" clip-path="url(#p96b527afe0)" style="fill: #3366cc; opacity: 0.7"/>
   </g>
   <g id="patch_67">
    <path d="M 349.140571 43007.810294 
L 352.646606 43007.810294 
L 352.646606 153.353572 
L 349.140571 153.353572 
z
" clip-path="url(#p96b527afe0)" style="fill: #3366cc; opacity: 0.7"/>
   </g>
   <g id="patch_68">
    <path d="M 353.523114 43007.810294 
L 357.029149 43007.810294 
L 357.029149 146.285815 
L 353.523114 146.285815 
z
" clip-path="url(#p96b527afe0)" style="fill: #3366cc; opacity: 0.7"/>
   </g>
   <g id="patch_69">
    <path d="M 357.905657 43007.810294 
L 361.411692 43007.810294 
L 361.411692 148.840533 
L 357.905657 148.840533 
z
" clip-path="url(#p96b527afe0)" style="fill: #3366cc; opacity: 0.7"/>
   </g>
   <g id="patch_70">
    <path d="M 362.2882 43007.810294 
L 365.794235 43007.810294 
L 365.794235 149.917488 
L 362.2882 149.917488 
z
" clip-path="url(#p96b527afe0)" style="fill: #3366cc; opacity: 0.7"/>
   </g>
   <g id="patch_71">
    <path d="M 366.670744 43007.810294 
L 370.176778 43007.810294 
L 370.176778 150.218921 
L 366.670744 150.218921 
z
" clip-path="url(#p96b527afe0)" style="fill: #3366cc; opacity: 0.7"/>
   </g>
   <g id="patch_72">
    <path d="M 371.053287 43007.810294 
L 374.559321 43007.810294 
L 374.559321 150.325273 
L 371.053287 150.325273 
z
" clip-path="url(#p96b527afe0)" style="fill: #3366cc; opacity: 0.7"/>
   </g>
   <g id="patch_73">
    <path d="M 375.43583 43007.810294 
L 378.941864 43007.810294 
L 378.941864 149.449948 
L 375.43583 149.449948 
z
" clip-path="url(#p96b527afe0)" style="fill: #3366cc; opacity: 0.7"/>
   </g>
   <g id="patch_74">
    <path d="M 379.818373 43007.810294 
L 383.324407 43007.810294 
L 383.324407 148.069409 
L 379.818373 148.069409 
z
" clip-path="url(#p96b527afe0)" style="fill: #3366cc; opacity: 0.7"/>
   </g>
   <g id="patch_75">
    <path d="M 384.200916 43007.810294 
L 387.70695 43007.810294 
L 387.70695 147.481292 
L 384.200916 147.481292 
z
" clip-path="url(#p96b527afe0)" style="fill: #3366cc; opacity: 0.7"/>
   </g>
   <g id="patch_76">
    <path d="M 388.583459 43007.810294 
L 392.089494 43007.810294 
L 392.089494 149.886594 
L 388.583459 149.886594 
z
" clip-path="url(#p96b527afe0)" style="fill: #3366cc; opacity: 0.7"/>
   </g>
   <g id="patch_77">
    <path d="M 392.966002 43007.810294 
L 396.472037 43007.810294 
L 396.472037 149.801321 
L 392.966002 149.801321 
z
" clip-path="url(#p96b527afe0)" style="fill: #3366cc; opacity: 0.7"/>
   </g>
   <g id="patch_78">
    <path d="M 397.348545 43007.810294 
L 400.85458 43007.810294 
L 400.85458 150.176565 
L 397.348545 150.176565 
z
" clip-path="url(#p96b527afe0)" style="fill: #3366cc; opacity: 0.7"/>
   </g>
   <g id="patch_79">
    <path d="M 401.731088 43007.810294 
L 405.237123 43007.810294 
L 405.237123 150.094499 
L 401.731088 150.094499 
z
" clip-path="url(#p96b527afe0)" style="fill: #3366cc; opacity: 0.7"/>
   </g>
   <g id="patch_80">
    <path d="M 406.113631 43007.810294 
L 409.619666 43007.810294 
L 409.619666 149.703776 
L 406.113631 149.703776 
z
" clip-path="url(#p96b527afe0)" style="fill: #3366cc; opacity: 0.7"/>
   </g>
   <g id="patch_81">
    <path d="M 410.496175 43007.810294 
L 414.002209 43007.810294 
L 414.002209 149.674964 
L 410.496175 149.674964 
z
" clip-path="url(#p96b527afe0)" style="fill: #3366cc; opacity: 0.7"/>
   </g>
   <g id="patch_82">
    <path d="M 414.878718 43007.810294 
L 418.384752 43007.810294 
L 418.384752 149.315869 
L 414.878718 149.315869 
z
" clip-path="url(#p96b527afe0)" style="fill: #3366cc; opacity: 0.7"/>
   </g>
   <g id="patch_83">
    <path d="M 419.261261 43007.810294 
L 422.767295 43007.810294 
L 422.767295 149.362494 
L 419.261261 149.362494 
z
" clip-path="url(#p96b527afe0)" style="fill: #3366cc; opacity: 0.7"/>
   </g>
   <g id="patch_84">
    <path d="M 423.643804 43007.810294 
L 427.149838 43007.810294 
L 427.149838 149.038282 
L 423.643804 149.038282 
z
" clip-path="url(#p96b527afe0)" style="fill: #3366cc; opacity: 0.7"/>
   </g>
   <g id="patch_85">
    <path d="M 428.026347 43007.810294 
L 431.532381 43007.810294 
L 431.532381 149.373186 
L 428.026347 149.373186 
z
" clip-path="url(#p96b527afe0)" style="fill: #3366cc; opacity: 0.7"/>
   </g>
   <g id="patch_86">
    <path d="M 432.40889 43007.810294 
L 435.914925 43007.810294 
L 435.914925 150.015455 
L 432.40889 150.015455 
z
" clip-path="url(#p96b527afe0)" style="fill: #3366cc; opacity: 0.7"/>
   </g>
   <g id="patch_87">
    <path d="M 436.791433 43007.810294 
L 440.297468 43007.810294 
L 440.297468 149.447449 
L 436.791433 149.447449 
z
" clip-path="url(#p96b527afe0)" style="fill: #3366cc; opacity: 0.7"/>
   </g>
   <g id="patch_88">
    <path d="M 441.173976 43007.810294 
L 444.680011 43007.810294 
L 444.680011 148.930936 
L 441.173976 148.930936 
z
" clip-path="url(#p96b527afe0)" style="fill: #3366cc; opacity: 0.7"/>
   </g>
   <g id="patch_89">
    <path d="M 445.556519 43007.810294 
L 449.062554 43007.810294 
L 449.062554 149.298934 
L 445.556519 149.298934 
z
" clip-path="url(#p96b527afe0)" style="fill: #3366cc; opacity: 0.7"/>
   </g>
   <g id="patch_90">
    <path d="M 449.939063 43007.810294 
L 453.445097 43007.810294 
L 453.445097 148.994831 
L 449.939063 148.994831 
z
" clip-path="url(#p96b527afe0)" style="fill: #3366cc; opacity: 0.7"/>
   </g>
   <g id="patch_91">
    <path d="M 454.321606 43007.810294 
L 457.82764 43007.810294 
L 457.82764 149.1859 
L 454.321606 149.1859 
z
" clip-path="url(#p96b527afe0)" style="fill: #3366cc; opacity: 0.7"/>
   </g>
   <g id="patch_92">
    <path d="M 458.704149 43007.810294 
L 462.210183 43007.810294 
L 462.210183 150.282735 
L 458.704149 150.282735 
z
" clip-path="url(#p96b527afe0)" style="fill: #3366cc; opacity: 0.7"/>
   </g>
   <g id="patch_93">
    <path d="M 463.086692 43007.810294 
L 466.592726 43007.810294 
L 466.592726 150.552426 
L 463.086692 150.552426 
z
" clip-path="url(#p96b527afe0)" style="fill: #3366cc; opacity: 0.7"/>
   </g>
   <g id="patch_94">
    <path d="M 467.469235 43007.810294 
L 470.975269 43007.810294 
L 470.975269 150.250748 
L 467.469235 150.250748 
z
" clip-path="url(#p96b527afe0)" style="fill: #3366cc; opacity: 0.7"/>
   </g>
   <g id="patch_95">
    <path d="M 471.851778 43007.810294 
L 475.357813 43007.810294 
L 475.357813 150.19173 
L 471.851778 150.19173 
z
" clip-path="url(#p96b527afe0)" style="fill: #3366cc; opacity: 0.7"/>
   </g>
   <g id="patch_96">
    <path d="M 48.322812 159.45811 
L 48.322812 25.158281 
" style="fill: none; stroke: #000000; stroke-width: 0.6; stroke-linejoin: miter; stroke-linecap: square"/>
   </g>
   <g id="patch_97">
    <path d="M 48.322813 159.45811 
L 495.692812 159.45811 
" style="fill: none; stroke: #000000; stroke-width: 0.6; stroke-linejoin: miter; stroke-linecap: square"/>
   </g>
   <g id="line2d_39">
    <path d="M 70.41083 31.262819 
L 74.793373 31.262819 
L 79.175916 31.262819 
L 83.558459 31.262819 
L 87.941002 31.262819 
L 92.323545 31.262819 
L 96.706088 31.262819 
L 101.088631 31.262819 
L 105.471175 31.262819 
L 109.853718 31.262819 
L 114.236261 31.262819 
L 118.618804 31.262819 
L 123.001347 31.262819 
L 127.38389 31.262819 
L 131.766433 31.262819 
L 136.148976 31.262819 
L 140.531519 31.262819 
L 144.914063 31.262819 
L 149.296606 31.262819 
L 153.679149 31.262819 
L 158.061692 31.262819 
L 162.444235 31.262819 
L 166.826778 31.262819 
L 171.209321 31.262819 
L 175.591864 31.262819 
L 179.974407 31.262819 
L 184.35695 31.262819 
L 188.739494 31.262819 
L 193.122037 31.262819 
L 197.50458 31.262819 
L 201.887123 31.262819 
L 206.269666 31.262819 
L 210.652209 31.262819 
L 215.034752 31.262819 
L 219.417295 31.262819 
L 223.799838 31.262819 
L 228.182381 31.262819 
L 232.564925 31.262819 
L 236.947468 31.262819 
L 241.330011 31.262819 
L 245.712554 31.262819 
L 250.095097 31.262819 
L 254.47764 31.262819 
L 258.860183 31.262819 
L 263.242726 31.262819 
L 267.625269 31.262819 
L 272.007813 31.262819 
L 276.390356 31.262819 
L 280.772899 31.262819 
L 285.155442 31.262819 
L 289.537985 31.262819 
L 293.920528 31.262819 
L 298.303071 31.262819 
L 302.685614 31.262819 
L 307.068157 31.262819 
L 311.4507 31.262819 
L 315.833244 31.262819 
L 320.215787 31.262819 
L 324.59833 31.262819 
L 328.980873 31.262819 
L 333.363416 31.262819 
L 337.745959 31.262819 
L 342.128502 31.262819 
L 346.511045 31.262819 
L 350.893588 31.262819 
L 355.276131 31.262819 
L 359.658675 31.262819 
L 364.041218 31.262819 
L 368.423761 31.262819 
L 372.806304 31.262819 
L 377.188847 31.262819 
L 381.57139 31.262819 
L 385.953933 31.262819 
L 390.336476 31.262819 
L 394.719019 31.262819 
L 399.101563 31.262819 
L 403.484106 31.262819 
L 407.866649 31.262819 
L 412.249192 31.262819 
L 416.631735 31.262819 
L 421.014278 31.262819 
L 425.396821 31.262819 
L 429.779364 31.262819 
L 434.161907 31.262819 
L 438.54445 31.262819 
L 442.926994 31.262819 
L 447.309537 31.262819 
L 451.69208 31.262819 
L 456.074623 31.262819 
L 460.457166 31.262819 
L 464.839709 31.262819 
L 469.222252 31.262819 
L 473.604795 31.262819 
" clip-path="url(#p96b527afe0)" style="fill: none; stroke-dasharray: 3.7,1.6; stroke-dashoffset: 0; stroke: #999999"/>
   </g>
   <g id="text_8">
    <!-- NEAR — Throughput (MiB/s) -->
    <g transform="translate(190.893984 19.158281) scale(0.11 -0.11)">
     <defs>
      <path id="DejaVuSerif-4e" d="M 313 0 
L 313 331 
L 941 331 
L 941 4331 
L 313 4331 
L 313 4666 
L 1509 4666 
L 4306 984 
L 4306 4331 
L 3681 4331 
L 3681 4666 
L 5319 4666 
L 5319 4331 
L 4691 4331 
L 4691 -91 
L 4313 -91 
L 1325 3841 
L 1325 331 
L 1953 331 
L 1953 0 
L 313 0 
z
" transform="scale(0.015625)"/>
      <path id="DejaVuSerif-45" d="M 353 0 
L 353 331 
L 947 331 
L 947 4331 
L 353 4331 
L 353 4666 
L 4109 4666 
L 4109 3628 
L 3725 3628 
L 3725 4281 
L 1581 4281 
L 1581 2719 
L 3109 2719 
L 3109 3303 
L 3494 3303 
L 3494 1753 
L 3109 1753 
L 3109 2338 
L 1581 2338 
L 1581 384 
L 3775 384 
L 3775 1038 
L 4159 1038 
L 4159 0 
L 353 0 
z
" transform="scale(0.015625)"/>
      <path id="DejaVuSerif-41" d="M 1281 1691 
L 2994 1691 
L 2138 3909 
L 1281 1691 
z
M -38 0 
L -38 331 
L 372 331 
L 2034 4666 
L 2559 4666 
L 4225 331 
L 4684 331 
L 4684 0 
L 2988 0 
L 2988 331 
L 3506 331 
L 3116 1356 
L 1153 1356 
L 763 331 
L 1275 331 
L 1275 0 
L -38 0 
z
" transform="scale(0.015625)"/>
      <path id="DejaVuSerif-52" d="M 3066 2316 
Q 3284 2256 3442 2114 
Q 3600 1972 3725 1716 
L 4403 331 
L 4972 331 
L 4972 0 
L 3872 0 
L 3144 1484 
Q 2934 1916 2759 2042 
Q 2584 2169 2278 2169 
L 1581 2169 
L 1581 331 
L 2241 331 
L 2241 0 
L 353 0 
L 353 331 
L 947 331 
L 947 4331 
L 353 4331 
L 353 4666 
L 2719 4666 
Q 3400 4666 3770 4341 
Q 4141 4016 4141 3419 
Q 4141 2938 3870 2661 
Q 3600 2384 3066 2316 
z
M 1581 2503 
L 2503 2503 
Q 2975 2503 3200 2726 
Q 3425 2950 3425 3419 
Q 3425 3888 3200 4109 
Q 2975 4331 2503 4331 
L 1581 4331 
L 1581 2503 
z
" transform="scale(0.015625)"/>
      <path id="DejaVuSerif-2014" d="M 281 1906 
L 6119 1906 
L 6119 1491 
L 281 1491 
L 281 1906 
z
" transform="scale(0.015625)"/>
      <path id="DejaVuSerif-54" d="M 1222 0 
L 1222 331 
L 1819 331 
L 1819 4294 
L 447 4294 
L 447 3566 
L 63 3566 
L 63 4666 
L 4206 4666 
L 4206 3566 
L 3822 3566 
L 3822 4294 
L 2450 4294 
L 2450 331 
L 3047 331 
L 3047 0 
L 1222 0 
z
" transform="scale(0.015625)"/>
      <path id="DejaVuSerif-68" d="M 263 0 
L 263 331 
L 781 331 
L 781 4531 
L 231 4531 
L 231 4863 
L 1356 4863 
L 1356 2731 
Q 1516 3069 1770 3241 
Q 2025 3413 2363 3413 
Q 2913 3413 3172 3097 
Q 3431 2781 3431 2113 
L 3431 331 
L 3944 331 
L 3944 0 
L 2356 0 
L 2356 331 
L 2853 331 
L 2853 1931 
Q 2853 2541 2704 2764 
Q 2556 2988 2175 2988 
Q 1775 2988 1565 2697 
Q 1356 2406 1356 1850 
L 1356 331 
L 1856 331 
L 1856 0 
L 263 0 
z
" transform="scale(0.015625)"/>
      <path id="DejaVuSerif-72" d="M 3059 3328 
L 3059 2497 
L 2728 2497 
Q 2713 2744 2591 2866 
Q 2469 2988 2234 2988 
Q 1809 2988 1582 2694 
Q 1356 2400 1356 1850 
L 1356 331 
L 2022 331 
L 2022 0 
L 263 0 
L 263 331 
L 781 331 
L 781 2994 
L 231 2994 
L 231 3322 
L 1356 3322 
L 1356 2731 
Q 1525 3078 1790 3245 
Q 2056 3413 2438 3413 
Q 2578 3413 2733 3391 
Q 2888 3369 3059 3328 
z
" transform="scale(0.015625)"/>
      <path id="DejaVuSerif-6f" d="M 1925 219 
Q 2388 219 2623 584 
Q 2859 950 2859 1663 
Q 2859 2375 2623 2739 
Q 2388 3103 1925 3103 
Q 1463 3103 1227 2739 
Q 991 2375 991 1663 
Q 991 950 1228 584 
Q 1466 219 1925 219 
z
M 1925 -91 
Q 1200 -91 759 389 
Q 319 869 319 1663 
Q 319 2456 758 2934 
Q 1197 3413 1925 3413 
Q 2653 3413 3092 2934 
Q 3531 2456 3531 1663 
Q 3531 869 3092 389 
Q 2653 -91 1925 -91 
z
" transform="scale(0.015625)"/>
      <path id="DejaVuSerif-75" d="M 2266 3322 
L 3341 3322 
L 3341 331 
L 3884 331 
L 3884 0 
L 2766 0 
L 2766 588 
Q 2606 256 2353 82 
Q 2100 -91 1766 -91 
Q 1213 -91 952 223 
Q 691 538 691 1209 
L 691 2988 
L 172 2988 
L 172 3322 
L 1269 3322 
L 1269 1388 
Q 1269 781 1417 556 
Q 1566 331 1947 331 
Q 2347 331 2556 625 
Q 2766 919 2766 1478 
L 2766 2988 
L 2266 2988 
L 2266 3322 
z
" transform="scale(0.015625)"/>
      <path id="DejaVuSerif-67" d="M 3359 2988 
L 3359 72 
Q 3359 -644 2965 -1033 
Q 2572 -1422 1844 -1422 
Q 1516 -1422 1216 -1362 
Q 916 -1303 641 -1184 
L 641 -488 
L 941 -488 
Q 997 -813 1206 -963 
Q 1416 -1113 1806 -1113 
Q 2313 -1113 2548 -827 
Q 2784 -541 2784 72 
L 2784 519 
Q 2616 206 2355 57 
Q 2094 -91 1709 -91 
Q 1097 -91 708 395 
Q 319 881 319 1663 
Q 319 2444 706 2928 
Q 1094 3413 1709 3413 
Q 2094 3413 2355 3264 
Q 2616 3116 2784 2803 
L 2784 3322 
L 3909 3322 
L 3909 2988 
L 3359 2988 
z
M 2784 1825 
Q 2784 2422 2554 2737 
Q 2325 3053 1888 3053 
Q 1444 3053 1217 2703 
Q 991 2353 991 1663 
Q 991 975 1217 622 
Q 1444 269 1888 269 
Q 2325 269 2554 583 
Q 2784 897 2784 1497 
L 2784 1825 
z
" transform="scale(0.015625)"/>
      <path id="DejaVuSerif-70" d="M 1313 1825 
L 1313 1497 
Q 1313 897 1542 583 
Q 1772 269 2209 269 
Q 2650 269 2876 622 
Q 3103 975 3103 1663 
Q 3103 2353 2876 2703 
Q 2650 3053 2209 3053 
Q 1772 3053 1542 2737 
Q 1313 2422 1313 1825 
z
M 738 2988 
L 184 2988 
L 184 3322 
L 1313 3322 
L 1313 2803 
Q 1481 3116 1742 3264 
Q 2003 3413 2388 3413 
Q 3000 3413 3387 2928 
Q 3775 2444 3775 1663 
Q 3775 881 3387 395 
Q 3000 -91 2388 -91 
Q 2003 -91 1742 57 
Q 1481 206 1313 519 
L 1313 -997 
L 1856 -997 
L 1856 -1331 
L 184 -1331 
L 184 -997 
L 738 -997 
L 738 2988 
z
" transform="scale(0.015625)"/>
      <path id="DejaVuSerif-74" d="M 691 2988 
L 184 2988 
L 184 3322 
L 691 3322 
L 691 4353 
L 1269 4353 
L 1269 3322 
L 2350 3322 
L 2350 2988 
L 1269 2988 
L 1269 878 
Q 1269 456 1350 337 
Q 1431 219 1650 219 
Q 1875 219 1978 351 
Q 2081 484 2088 781 
L 2522 781 
Q 2497 328 2275 118 
Q 2053 -91 1600 -91 
Q 1103 -91 897 129 
Q 691 350 691 878 
L 691 2988 
z
" transform="scale(0.015625)"/>
      <path id="DejaVuSerif-28" d="M 2041 -997 
Q 1281 -656 893 83 
Q 506 822 506 1931 
Q 506 3044 893 3783 
Q 1281 4522 2041 4863 
L 2041 4556 
Q 1559 4225 1350 3623 
Q 1141 3022 1141 1931 
Q 1141 844 1350 242 
Q 1559 -359 2041 -691 
L 2041 -997 
z
" transform="scale(0.015625)"/>
      <path id="DejaVuSerif-29" d="M 453 -997 
L 453 -691 
Q 934 -359 1145 242 
Q 1356 844 1356 1931 
Q 1356 3022 1145 3623 
Q 934 4225 453 4556 
L 453 4863 
Q 1216 4522 1603 3783 
Q 1991 3044 1991 1931 
Q 1991 822 1603 83 
Q 1216 -656 453 -997 
z
" transform="scale(0.015625)"/>
     </defs>
     <use xlink:href="#DejaVuSerif-4e"/>
     <use xlink:href="#DejaVuSerif-45" transform="translate(87.5 0)"/>
     <use xlink:href="#DejaVuSerif-41" transform="translate(160.498047 0)"/>
     <use xlink:href="#DejaVuSerif-52" transform="translate(232.714844 0)"/>
     <use xlink:href="#DejaVuSerif-20" transform="translate(308.007812 0)"/>
     <use xlink:href="#DejaVuSerif-2014" transform="translate(339.794922 0)"/>
     <use xlink:href="#DejaVuSerif-20" transform="translate(439.794922 0)"/>
     <use xlink:href="#DejaVuSerif-54" transform="translate(471.582031 0)"/>
     <use xlink:href="#DejaVuSerif-68" transform="translate(538.28125 0)"/>
     <use xlink:href="#DejaVuSerif-72" transform="translate(602.685547 0)"/>
     <use xlink:href="#DejaVuSerif-6f" transform="translate(650.488281 0)"/>
     <use xlink:href="#DejaVuSerif-75" transform="translate(710.693359 0)"/>
     <use xlink:href="#DejaVuSerif-67" transform="translate(775.097656 0)"/>
     <use xlink:href="#DejaVuSerif-68" transform="translate(839.111328 0)"/>
     <use xlink:href="#DejaVuSerif-70" transform="translate(903.515625 0)"/>
     <use xlink:href="#DejaVuSerif-75" transform="translate(967.529297 0)"/>
     <use xlink:href="#DejaVuSerif-74" transform="translate(1031.933594 0)"/>
     <use xlink:href="#DejaVuSerif-20" transform="translate(1072.119141 0)"/>
     <use xlink:href="#DejaVuSerif-28" transform="translate(1103.90625 0)"/>
     <use xlink:href="#DejaVuSerif-4d" transform="translate(1142.919922 0)"/>
     <use xlink:href="#DejaVuSerif-69" transform="translate(1245.3125 0)"/>
     <use xlink:href="#DejaVuSerif-42" transform="translate(1277.294922 0)"/>
     <use xlink:href="#DejaVuSerif-2f" transform="translate(1350.78125 0)"/>
     <use xlink:href="#DejaVuSerif-73" transform="translate(1384.472656 0)"/>
     <use xlink:href="#DejaVuSerif-29" transform="translate(1435.791016 0)"/>
    </g>
   </g>
   <g id="line2d_40">
    <path d="M 70.41083 146.150245 
L 74.793373 146.689264 
L 79.175916 146.791853 
L 83.558459 146.866835 
L 87.941002 146.85545 
L 92.323545 146.88978 
L 96.706088 146.930298 
L 101.088631 147.021891 
L 105.471175 147.063811 
L 109.853718 147.073734 
L 114.236261 147.092966 
L 118.618804 147.171363 
L 123.001347 147.243301 
L 127.38389 147.361296 
L 131.766433 147.484667 
L 136.148976 147.405683 
L 140.531519 147.617109 
L 144.914063 147.629493 
L 149.296606 147.615251 
L 153.679149 147.760813 
L 158.061692 147.834429 
L 162.444235 147.832202 
L 166.826778 147.906877 
L 171.209321 147.511664 
L 175.591864 147.465928 
L 179.974407 147.616344 
L 184.35695 147.656677 
L 188.739494 147.721899 
L 193.122037 147.839151 
L 197.50458 147.780909 
L 201.887123 148.065173 
L 206.269666 148.239956 
L 210.652209 148.36177 
L 215.034752 148.494888 
L 219.417295 148.4837 
L 223.799838 148.344848 
L 228.182381 148.531567 
L 232.564925 148.617531 
L 236.947468 148.612124 
L 241.330011 148.512275 
L 245.712554 148.392217 
L 250.095097 148.252362 
L 254.47764 148.274264 
L 258.860183 148.051396 
L 263.242726 147.703593 
L 267.625269 147.465067 
L 272.007813 147.395177 
L 276.390356 147.436395 
L 280.772899 147.673211 
L 285.155442 147.920841 
L 289.537985 148.110109 
L 293.920528 148.557206 
L 298.303071 149.031322 
L 302.685614 149.235109 
L 307.068157 149.279981 
L 311.4507 149.266694 
L 315.833244 149.215012 
L 320.215787 149.322228 
L 324.59833 149.355605 
L 328.980873 149.217772 
L 333.363416 149.224288 
L 337.745959 149.231485 
L 342.128502 149.359546 
L 346.511045 149.446697 
L 350.893588 150.045281 
L 355.276131 149.577425 
L 359.658675 149.593036 
L 364.041218 149.664299 
L 368.423761 149.738664 
L 372.806304 149.703871 
L 377.188847 149.668909 
L 381.57139 148.966137 
L 385.953933 149.158136 
L 390.336476 149.306544 
L 394.719019 149.29044 
L 399.101563 149.284678 
L 403.484106 149.253334 
L 407.866649 149.289005 
L 412.249192 149.525122 
L 416.631735 149.805755 
L 421.014278 149.730302 
L 425.396821 149.619785 
L 429.779364 149.506306 
L 434.161907 149.495345 
L 438.54445 149.458919 
L 442.926994 149.352036 
L 447.309537 149.349611 
L 451.69208 149.296678 
L 456.074623 149.317989 
L 460.457166 149.44486 
L 464.839709 149.518339 
L 469.222252 149.631428 
L 473.604795 149.813138 
" clip-path="url(#p96b527afe0)" style="fill: none; stroke: #cc3333; stroke-width: 1.5; stroke-linecap: square"/>
   </g>
   <g id="legend_1">
    <g id="patch_98">
     <path d="M 410.562812 67.013281 
L 490.092812 67.013281 
Q 491.692812 67.013281 491.692812 65.413281 
L 491.692812 30.758281 
Q 491.692812 29.158281 490.092812 29.158281 
L 410.562812 29.158281 
Q 408.962812 29.158281 408.962812 30.758281 
L 408.962812 65.413281 
Q 408.962812 67.013281 410.562812 67.013281 
z
" style="fill: #ffffff; opacity: 0.9; stroke: #cccccc; stroke-linejoin: miter"/>
    </g>
    <g id="line2d_41">
     <path d="M 412.162812 35.637031 
L 420.162812 35.637031 
L 428.162812 35.637031 
" style="fill: none; stroke: #cc3333; stroke-width: 1.5; stroke-linecap: square"/>
    </g>
    <g id="text_9">
     <!-- 7d avg -->
     <g transform="translate(434.562812 38.437031) scale(0.08 -0.08)">
      <defs>
       <path id="DejaVuSerif-37" d="M 3609 4347 
L 1784 0 
L 1319 0 
L 3059 4153 
L 903 4153 
L 903 3578 
L 538 3578 
L 538 4666 
L 3609 4666 
L 3609 4347 
z
" transform="scale(0.015625)"/>
       <path id="DejaVuSerif-64" d="M 3359 331 
L 3909 331 
L 3909 0 
L 2784 0 
L 2784 519 
Q 2616 206 2355 57 
Q 2094 -91 1709 -91 
Q 1097 -91 708 395 
Q 319 881 319 1663 
Q 319 2444 706 2928 
Q 1094 3413 1709 3413 
Q 2094 3413 2355 3264 
Q 2616 3116 2784 2803 
L 2784 4531 
L 2241 4531 
L 2241 4863 
L 3359 4863 
L 3359 331 
z
M 2784 1497 
L 2784 1825 
Q 2784 2422 2554 2737 
Q 2325 3053 1888 3053 
Q 1444 3053 1217 2703 
Q 991 2353 991 1663 
Q 991 975 1217 622 
Q 1444 269 1888 269 
Q 2325 269 2554 583 
Q 2784 897 2784 1497 
z
" transform="scale(0.015625)"/>
       <path id="DejaVuSerif-76" d="M 1581 0 
L 359 2988 
L -19 2988 
L -19 3322 
L 1509 3322 
L 1509 2988 
L 978 2988 
L 1913 703 
L 2847 2988 
L 2350 2988 
L 2350 3322 
L 3597 3322 
L 3597 2988 
L 3225 2988 
L 2003 0 
L 1581 0 
z
" transform="scale(0.015625)"/>
      </defs>
      <use xlink:href="#DejaVuSerif-37"/>
      <use xlink:href="#DejaVuSerif-64" transform="translate(63.623047 0)"/>
      <use xlink:href="#DejaVuSerif-20" transform="translate(127.636719 0)"/>
      <use xlink:href="#DejaVuSerif-61" transform="translate(159.423828 0)"/>
      <use xlink:href="#DejaVuSerif-76" transform="translate(219.042969 0)"/>
      <use xlink:href="#DejaVuSerif-67" transform="translate(275.537109 0)"/>
     </g>
    </g>
    <g id="line2d_42">
     <path d="M 412.162812 47.493281 
L 420.162812 47.493281 
L 428.162812 47.493281 
" style="fill: none; stroke-dasharray: 3.7,1.6; stroke-dashoffset: 0; stroke: #999999"/>
    </g>
    <g id="text_10">
     <!-- Max capacity -->
     <g transform="translate(434.562812 50.293281) scale(0.08 -0.08)">
      <defs>
       <path id="DejaVuSerif-78" d="M 1863 2028 
L 2559 2988 
L 2113 2988 
L 2113 3322 
L 3391 3322 
L 3391 2988 
L 2950 2988 
L 2059 1759 
L 3097 331 
L 3531 331 
L 3531 0 
L 1997 0 
L 1997 331 
L 2419 331 
L 1697 1325 
L 972 331 
L 1403 331 
L 1403 0 
L 141 0 
L 141 331 
L 581 331 
L 1497 1594 
L 488 2988 
L 78 2988 
L 78 3322 
L 1563 3322 
L 1563 2988 
L 1166 2988 
L 1863 2028 
z
" transform="scale(0.015625)"/>
       <path id="DejaVuSerif-79" d="M 1381 -609 
L 1600 -56 
L 359 2988 
L -19 2988 
L -19 3322 
L 1509 3322 
L 1509 2988 
L 978 2988 
L 1913 703 
L 2847 2988 
L 2350 2988 
L 2350 3322 
L 3597 3322 
L 3597 2988 
L 3225 2988 
L 1703 -750 
Q 1547 -1138 1356 -1280 
Q 1166 -1422 819 -1422 
Q 672 -1422 517 -1397 
Q 363 -1372 206 -1325 
L 206 -691 
L 500 -691 
Q 519 -903 608 -995 
Q 697 -1088 884 -1088 
Q 1056 -1088 1161 -992 
Q 1266 -897 1381 -609 
z
" transform="scale(0.015625)"/>
      </defs>
      <use xlink:href="#DejaVuSerif-4d"/>
      <use xlink:href="#DejaVuSerif-61" transform="translate(102.392578 0)"/>
      <use xlink:href="#DejaVuSerif-78" transform="translate(162.011719 0)"/>
      <use xlink:href="#DejaVuSerif-20" transform="translate(218.408203 0)"/>
      <use xlink:href="#DejaVuSerif-63" transform="translate(250.195312 0)"/>
      <use xlink:href="#DejaVuSerif-61" transform="translate(306.201172 0)"/>
      <use xlink:href="#DejaVuSerif-70" transform="translate(365.820312 0)"/>
      <use xlink:href="#DejaVuSerif-61" transform="translate(429.833984 0)"/>
      <use xlink:href="#DejaVuSerif-63" transform="translate(489.453125 0)"/>
      <use xlink:href="#DejaVuSerif-69" transform="translate(545.458984 0)"/>
      <use xlink:href="#DejaVuSerif-74" transform="translate(577.441406 0)"/>
      <use xlink:href="#DejaVuSerif-79" transform="translate(617.626953 0)"/>
     </g>
    </g>
    <g id="patch_99">
     <path d="M 412.162812 62.149531 
L 428.162812 62.149531 
L 428.162812 56.549531 
L 412.162812 56.549531 
z
" style="fill: #3366cc; opacity: 0.7"/>
    </g>
    <g id="text_11">
     <!-- Actual -->
     <g transform="translate(434.562812 62.149531) scale(0.08 -0.08)">
      <defs>
       <path id="DejaVuSerif-6c" d="M 1313 331 
L 1856 331 
L 1856 0 
L 184 0 
L 184 331 
L 738 331 
L 738 4531 
L 184 4531 
L 184 4863 
L 1313 4863 
L 1313 331 
z
" transform="scale(0.015625)"/>
      </defs>
      <use xlink:href="#DejaVuSerif-41"/>
      <use xlink:href="#DejaVuSerif-63" transform="translate(72.216797 0)"/>
      <use xlink:href="#DejaVuSerif-74" transform="translate(128.222656 0)"/>
      <use xlink:href="#DejaVuSerif-75" transform="translate(168.408203 0)"/>
      <use xlink:href="#DejaVuSerif-61" transform="translate(232.8125 0)"/>
      <use xlink:href="#DejaVuSerif-6c" transform="translate(292.431641 0)"/>
     </g>
    </g>
   </g>
  </g>
 </g>
 <defs>
  <clipPath id="p96b527afe0">
   <rect x="48.322812" y="25.158281" width="447.37" height="134.299829"/>
  </clipPath>
 </defs>
</svg>
