<?xml version="1.0" encoding="utf-8" standalone="no"?>
<!DOCTYPE svg PUBLIC "-//W3C//DTD SVG 1.1//EN"
  "http://www.w3.org/Graphics/SVG/1.1/DTD/svg11.dtd">
<svg xmlns:xlink="http://www.w3.org/1999/xlink" width="505.93875pt" height="203.613966pt" viewBox="0 0 505.93875 203.613966" xmlns="http://www.w3.org/2000/svg" version="1.1">
 <metadata>
  <rdf:RDF xmlns:dc="http://purl.org/dc/elements/1.1/" xmlns:cc="http://creativecommons.org/ns#" xmlns:rdf="http://www.w3.org/1999/02/22-rdf-syntax-ns#">
   <cc:Work>
    <dc:type rdf:resource="http://purl.org/dc/dcmitype/StillImage"/>
    <dc:date>2026-02-16T20:28:39.969054</dc:date>
    <dc:format>image/svg+xml</dc:format>
    <dc:creator>
     <cc:Agent>
      <dc:title>Matplotlib v3.9.4, https://matplotlib.org/</dc:title>
     </cc:Agent>
    </dc:creator>
   </cc:Work>
  </rdf:RDF>
 </metadata>
 <defs>
  <style type="text/css">*{stroke-linejoin: round; stroke-linecap: butt}</style>
 </defs>
 <g id="figure_1">
  <g id="patch_1">
   <path d="M 0 203.613966 
L 505.93875 203.613966 
L 505.93875 0 
L 0 0 
z
" style="fill: #ffffff"/>
  </g>
  <g id="axes_1">
   <g id="patch_2">
    <path d="M 48.322812 159.843139 
L 495.13875 159.843139 
L 495.13875 25.158281 
L 48.322812 25.158281 
z
" style="fill: #ffffff"/>
   </g>
   <g id="matplotlib.axis_1">
    <g id="xtick_1">
     <g id="line2d_1">
      <path d="M 162.302897 159.843139 
L 162.302897 25.158281 
" clip-path="url(#p570b346eb4)" style="fill: none; stroke: #b0b0b0; stroke-opacity: 0.25; stroke-width: 0.5; stroke-linecap: square"/>
     </g>
     <g id="line2d_2">
      <defs>
       <path id="m5e5c131f52" d="M 0 0 
L 0 3.5 
" style="stroke: #000000; stroke-width: 0.8"/>
      </defs>
      <g>
       <use xlink:href="#m5e5c131f52" x="162.302897" y="159.843139" style="stroke: #000000; stroke-width: 0.8"/>
      </g>
     </g>
     <g id="text_1">
      <!-- Dec 2025 -->
      <g transform="translate(128.101981 191.373116) rotate(-30) scale(0.08 -0.08)">
       <defs>
        <path id="DejaVuSerif-44" d="M 1581 331 
L 2163 331 
Q 3072 331 3558 850 
Q 4044 1369 4044 2338 
Q 4044 3306 3559 3818 
Q 3075 4331 2163 4331 
L 1581 4331 
L 1581 331 
z
M 353 0 
L 353 331 
L 947 331 
L 947 4331 
L 353 4331 
L 353 4666 
L 2209 4666 
Q 3416 4666 4089 4050 
Q 4763 3434 4763 2338 
Q 4763 1238 4088 619 
Q 3413 0 2209 0 
L 353 0 
z
" transform="scale(0.015625)"/>
        <path id="DejaVuSerif-65" d="M 3469 1600 
L 991 1600 
L 991 1575 
Q 991 903 1244 561 
Q 1497 219 1991 219 
Q 2369 219 2611 417 
Q 2853 616 2950 1006 
L 3413 1006 
Q 3275 459 2904 184 
Q 2534 -91 1931 -91 
Q 1203 -91 761 389 
Q 319 869 319 1663 
Q 319 2450 753 2931 
Q 1188 3413 1894 3413 
Q 2647 3413 3050 2948 
Q 3453 2484 3469 1600 
z
M 2791 1931 
Q 2772 2513 2545 2808 
Q 2319 3103 1894 3103 
Q 1497 3103 1269 2806 
Q 1041 2509 991 1931 
L 2791 1931 
z
" transform="scale(0.015625)"/>
        <path id="DejaVuSerif-63" d="M 3291 997 
Q 3169 466 2822 187 
Q 2475 -91 1925 -91 
Q 1200 -91 759 389 
Q 319 869 319 1663 
Q 319 2459 759 2936 
Q 1200 3413 1925 3413 
Q 2241 3413 2553 3339 
Q 2866 3266 3181 3116 
L 3181 2266 
L 2847 2266 
Q 2781 2703 2561 2903 
Q 2341 3103 1931 3103 
Q 1466 3103 1228 2742 
Q 991 2381 991 1663 
Q 991 944 1227 581 
Q 1463 219 1931 219 
Q 2303 219 2525 412 
Q 2747 606 2828 997 
L 3291 997 
z
" transform="scale(0.015625)"/>
        <path id="DejaVuSerif-20" transform="scale(0.015625)"/>
        <path id="DejaVuSerif-32" d="M 819 3553 
L 469 3553 
L 469 4384 
Q 803 4563 1142 4656 
Q 1481 4750 1806 4750 
Q 2534 4750 2956 4397 
Q 3378 4044 3378 3438 
Q 3378 2753 2422 1800 
Q 2347 1728 2309 1691 
L 1131 513 
L 3078 513 
L 3078 1088 
L 3444 1088 
L 3444 0 
L 434 0 
L 434 341 
L 1850 1753 
Q 2319 2222 2519 2614 
Q 2719 3006 2719 3438 
Q 2719 3909 2473 4175 
Q 2228 4441 1797 4441 
Q 1350 4441 1106 4219 
Q 863 3997 819 3553 
z
" transform="scale(0.015625)"/>
        <path id="DejaVuSerif-30" d="M 2034 219 
Q 2513 219 2750 744 
Q 2988 1269 2988 2328 
Q 2988 3391 2750 3916 
Q 2513 4441 2034 4441 
Q 1556 4441 1318 3916 
Q 1081 3391 1081 2328 
Q 1081 1269 1318 744 
Q 1556 219 2034 219 
z
M 2034 -91 
Q 1275 -91 848 546 
Q 422 1184 422 2328 
Q 422 3475 848 4112 
Q 1275 4750 2034 4750 
Q 2797 4750 3222 4112 
Q 3647 3475 3647 2328 
Q 3647 1184 3222 546 
Q 2797 -91 2034 -91 
z
" transform="scale(0.015625)"/>
        <path id="DejaVuSerif-35" d="M 3219 4666 
L 3219 4153 
L 1081 4153 
L 1081 2816 
Q 1244 2928 1461 2984 
Q 1678 3041 1947 3041 
Q 2703 3041 3140 2622 
Q 3578 2203 3578 1478 
Q 3578 738 3136 323 
Q 2694 -91 1894 -91 
Q 1572 -91 1234 -12 
Q 897 66 544 225 
L 544 1131 
L 897 1131 
Q 925 688 1179 453 
Q 1434 219 1894 219 
Q 2388 219 2653 544 
Q 2919 869 2919 1478 
Q 2919 2084 2655 2407 
Q 2391 2731 1894 2731 
Q 1613 2731 1398 2631 
Q 1184 2531 1019 2322 
L 750 2322 
L 750 4666 
L 3219 4666 
z
" transform="scale(0.015625)"/>
       </defs>
       <use xlink:href="#DejaVuSerif-44"/>
       <use xlink:href="#DejaVuSerif-65" x="80.175781"/>
       <use xlink:href="#DejaVuSerif-63" x="139.355469"/>
       <use xlink:href="#DejaVuSerif-20" x="195.361328"/>
       <use xlink:href="#DejaVuSerif-32" x="227.148438"/>
       <use xlink:href="#DejaVuSerif-30" x="290.771484"/>
       <use xlink:href="#DejaVuSerif-32" x="354.394531"/>
       <use xlink:href="#DejaVuSerif-35" x="418.017578"/>
      </g>
     </g>
    </g>
    <g id="xtick_2">
     <g id="line2d_3">
      <path d="M 297.993474 159.843139 
L 297.993474 25.158281 
" clip-path="url(#p570b346eb4)" style="fill: none; stroke: #b0b0b0; stroke-opacity: 0.25; stroke-width: 0.5; stroke-linecap: square"/>
     </g>
     <g id="line2d_4">
      <g>
       <use xlink:href="#m5e5c131f52" x="297.993474" y="159.843139" style="stroke: #000000; stroke-width: 0.8"/>
      </g>
     </g>
     <g id="text_2">
      <!-- Jan 2026 -->
      <g transform="translate(265.956538 190.123741) rotate(-30) scale(0.08 -0.08)">
       <defs>
        <path id="DejaVuSerif-4a" d="M -538 -1119 
L -538 -384 
L -181 -384 
Q -172 -694 -34 -845 
Q 103 -997 378 -997 
Q 750 -997 897 -762 
Q 1044 -528 1044 153 
L 1044 4331 
L 319 4331 
L 319 4666 
L 2272 4666 
L 2272 4331 
L 1678 4331 
L 1678 128 
Q 1678 -644 1368 -987 
Q 1059 -1331 372 -1331 
Q 150 -1331 -79 -1278 
Q -309 -1225 -538 -1119 
z
" transform="scale(0.015625)"/>
        <path id="DejaVuSerif-61" d="M 2547 1044 
L 2547 1747 
L 1806 1747 
Q 1378 1747 1168 1562 
Q 959 1378 959 997 
Q 959 650 1171 447 
Q 1384 244 1747 244 
Q 2106 244 2326 466 
Q 2547 688 2547 1044 
z
M 3122 2075 
L 3122 331 
L 3634 331 
L 3634 0 
L 2547 0 
L 2547 359 
Q 2356 128 2106 18 
Q 1856 -91 1522 -91 
Q 969 -91 644 203 
Q 319 497 319 997 
Q 319 1513 691 1797 
Q 1063 2081 1741 2081 
L 2547 2081 
L 2547 2309 
Q 2547 2688 2317 2895 
Q 2088 3103 1672 3103 
Q 1328 3103 1125 2947 
Q 922 2791 872 2484 
L 575 2484 
L 575 3156 
Q 875 3284 1158 3348 
Q 1441 3413 1709 3413 
Q 2400 3413 2761 3070 
Q 3122 2728 3122 2075 
z
" transform="scale(0.015625)"/>
        <path id="DejaVuSerif-6e" d="M 263 0 
L 263 331 
L 781 331 
L 781 2988 
L 231 2988 
L 231 3322 
L 1356 3322 
L 1356 2731 
Q 1516 3069 1770 3241 
Q 2025 3413 2363 3413 
Q 2913 3413 3172 3097 
Q 3431 2781 3431 2113 
L 3431 331 
L 3944 331 
L 3944 0 
L 2356 0 
L 2356 331 
L 2853 331 
L 2853 1931 
Q 2853 2541 2703 2767 
Q 2553 2994 2175 2994 
Q 1775 2994 1565 2701 
Q 1356 2409 1356 1850 
L 1356 331 
L 1856 331 
L 1856 0 
L 263 0 
z
" transform="scale(0.015625)"/>
        <path id="DejaVuSerif-36" d="M 2094 219 
Q 2534 219 2771 542 
Q 3009 866 3009 1472 
Q 3009 2078 2771 2401 
Q 2534 2725 2094 2725 
Q 1647 2725 1412 2412 
Q 1178 2100 1178 1509 
Q 1178 888 1415 553 
Q 1653 219 2094 219 
z
M 1075 2569 
Q 1288 2803 1556 2918 
Q 1825 3034 2163 3034 
Q 2859 3034 3264 2615 
Q 3669 2197 3669 1472 
Q 3669 763 3233 336 
Q 2797 -91 2069 -91 
Q 1278 -91 853 498 
Q 428 1088 428 2181 
Q 428 3406 931 4078 
Q 1434 4750 2350 4750 
Q 2597 4750 2869 4703 
Q 3141 4656 3425 4563 
L 3425 3794 
L 3072 3794 
Q 3034 4109 2831 4275 
Q 2628 4441 2284 4441 
Q 1678 4441 1381 3981 
Q 1084 3522 1075 2569 
z
" transform="scale(0.015625)"/>
       </defs>
       <use xlink:href="#DejaVuSerif-4a"/>
       <use xlink:href="#DejaVuSerif-61" x="40.087891"/>
       <use xlink:href="#DejaVuSerif-6e" x="99.707031"/>
       <use xlink:href="#DejaVuSerif-20" x="164.111328"/>
       <use xlink:href="#DejaVuSerif-32" x="195.898438"/>
       <use xlink:href="#DejaVuSerif-30" x="259.521484"/>
       <use xlink:href="#DejaVuSerif-32" x="323.144531"/>
       <use xlink:href="#DejaVuSerif-36" x="386.767578"/>
      </g>
     </g>
    </g>
    <g id="xtick_3">
     <g id="line2d_5">
      <path d="M 433.68405 159.843139 
L 433.68405 25.158281 
" clip-path="url(#p570b346eb4)" style="fill: none; stroke: #b0b0b0; stroke-opacity: 0.25; stroke-width: 0.5; stroke-linecap: square"/>
     </g>
     <g id="line2d_6">
      <g>
       <use xlink:href="#m5e5c131f52" x="433.68405" y="159.843139" style="stroke: #000000; stroke-width: 0.8"/>
      </g>
     </g>
     <g id="text_3">
      <!-- Feb 2026 -->
      <g transform="translate(400.055793 191.042491) rotate(-30) scale(0.08 -0.08)">
       <defs>
        <path id="DejaVuSerif-46" d="M 353 0 
L 353 331 
L 947 331 
L 947 4331 
L 353 4331 
L 353 4666 
L 4172 4666 
L 4172 3628 
L 3788 3628 
L 3788 4281 
L 1581 4281 
L 1581 2719 
L 3175 2719 
L 3175 3303 
L 3559 3303 
L 3559 1753 
L 3175 1753 
L 3175 2338 
L 1581 2338 
L 1581 331 
L 2328 331 
L 2328 0 
L 353 0 
z
" transform="scale(0.015625)"/>
        <path id="DejaVuSerif-62" d="M 738 331 
L 738 4531 
L 184 4531 
L 184 4863 
L 1313 4863 
L 1313 2803 
Q 1481 3116 1742 3264 
Q 2003 3413 2388 3413 
Q 3000 3413 3387 2928 
Q 3775 2444 3775 1663 
Q 3775 881 3387 395 
Q 3000 -91 2388 -91 
Q 2003 -91 1742 57 
Q 1481 206 1313 519 
L 1313 0 
L 184 0 
L 184 331 
L 738 331 
z
M 1313 1497 
Q 1313 897 1542 583 
Q 1772 269 2209 269 
Q 2650 269 2876 622 
Q 3103 975 3103 1663 
Q 3103 2353 2876 2703 
Q 2650 3053 2209 3053 
Q 1772 3053 1542 2737 
Q 1313 2422 1313 1825 
L 1313 1497 
z
" transform="scale(0.015625)"/>
       </defs>
       <use xlink:href="#DejaVuSerif-46"/>
       <use xlink:href="#DejaVuSerif-65" x="63.884766"/>
       <use xlink:href="#DejaVuSerif-62" x="123.064453"/>
       <use xlink:href="#DejaVuSerif-20" x="187.078125"/>
       <use xlink:href="#DejaVuSerif-32" x="218.865234"/>
       <use xlink:href="#DejaVuSerif-30" x="282.488281"/>
       <use xlink:href="#DejaVuSerif-32" x="346.111328"/>
       <use xlink:href="#DejaVuSerif-36" x="409.734375"/>
      </g>
     </g>
    </g>
   </g>
   <g id="matplotlib.axis_2">
    <g id="ytick_1">
     <g id="line2d_7">
      <path d="M 48.322812 150.497443 
L 495.13875 150.497443 
" clip-path="url(#p570b346eb4)" style="fill: none; stroke: #b0b0b0; stroke-opacity: 0.25; stroke-width: 0.5; stroke-linecap: square"/>
     </g>
     <g id="line2d_8">
      <defs>
       <path id="m1ac4b64bc4" d="M 0 0 
L -3.5 0 
" style="stroke: #000000; stroke-width: 0.8"/>
      </defs>
      <g>
       <use xlink:href="#m1ac4b64bc4" x="48.322812" y="150.497443" style="stroke: #000000; stroke-width: 0.8"/>
      </g>
     </g>
     <g id="text_4">
      <!-- 0.1 -->
      <g transform="translate(28.600312 153.536818) scale(0.08 -0.08)">
       <defs>
        <path id="DejaVuSerif-2e" d="M 603 325 
Q 603 500 722 622 
Q 841 744 1019 744 
Q 1191 744 1312 622 
Q 1434 500 1434 325 
Q 1434 153 1312 31 
Q 1191 -91 1019 -91 
Q 841 -91 722 29 
Q 603 150 603 325 
z
" transform="scale(0.015625)"/>
        <path id="DejaVuSerif-31" d="M 909 0 
L 909 331 
L 1722 331 
L 1722 4213 
L 781 3603 
L 781 4013 
L 1919 4750 
L 2350 4750 
L 2350 331 
L 3163 331 
L 3163 0 
L 909 0 
z
" transform="scale(0.015625)"/>
       </defs>
       <use xlink:href="#DejaVuSerif-30"/>
       <use xlink:href="#DejaVuSerif-2e" x="63.623047"/>
       <use xlink:href="#DejaVuSerif-31" x="95.410156"/>
      </g>
     </g>
    </g>
    <g id="ytick_2">
     <g id="line2d_9">
      <path d="M 48.322812 107.473878 
L 495.13875 107.473878 
" clip-path="url(#p570b346eb4)" style="fill: none; stroke: #b0b0b0; stroke-opacity: 0.25; stroke-width: 0.5; stroke-linecap: square"/>
     </g>
     <g id="line2d_10">
      <g>
       <use xlink:href="#m1ac4b64bc4" x="48.322812" y="107.473878" style="stroke: #000000; stroke-width: 0.8"/>
      </g>
     </g>
     <g id="text_5">
      <!-- 1.0 -->
      <g transform="translate(28.600312 110.513253) scale(0.08 -0.08)">
       <use xlink:href="#DejaVuSerif-31"/>
       <use xlink:href="#DejaVuSerif-2e" x="63.623047"/>
       <use xlink:href="#DejaVuSerif-30" x="95.410156"/>
      </g>
     </g>
    </g>
    <g id="ytick_3">
     <g id="line2d_11">
      <path d="M 48.322812 64.450313 
L 495.13875 64.450313 
" clip-path="url(#p570b346eb4)" style="fill: none; stroke: #b0b0b0; stroke-opacity: 0.25; stroke-width: 0.5; stroke-linecap: square"/>
     </g>
     <g id="line2d_12">
      <g>
       <use xlink:href="#m1ac4b64bc4" x="48.322812" y="64.450313" style="stroke: #000000; stroke-width: 0.8"/>
      </g>
     </g>
     <g id="text_6">
      <!-- 10.0 -->
      <g transform="translate(23.510312 67.489688) scale(0.08 -0.08)">
       <use xlink:href="#DejaVuSerif-31"/>
       <use xlink:href="#DejaVuSerif-30" x="63.623047"/>
       <use xlink:href="#DejaVuSerif-2e" x="127.246094"/>
       <use xlink:href="#DejaVuSerif-30" x="159.033203"/>
      </g>
     </g>
    </g>
    <g id="ytick_4">
     <g id="line2d_13">
      <defs>
       <path id="m17974abb52" d="M 0 0 
L -2 0 
" style="stroke: #000000; stroke-width: 0.6"/>
      </defs>
      <g>
       <use xlink:href="#m17974abb52" x="48.322812" y="157.161878" style="stroke: #000000; stroke-width: 0.6"/>
      </g>
     </g>
    </g>
    <g id="ytick_5">
     <g id="line2d_14">
      <g>
       <use xlink:href="#m17974abb52" x="48.322812" y="154.666857" style="stroke: #000000; stroke-width: 0.6"/>
      </g>
     </g>
    </g>
    <g id="ytick_6">
     <g id="line2d_15">
      <g>
       <use xlink:href="#m17974abb52" x="48.322812" y="152.466093" style="stroke: #000000; stroke-width: 0.6"/>
      </g>
     </g>
    </g>
    <g id="ytick_7">
     <g id="line2d_16">
      <g>
       <use xlink:href="#m17974abb52" x="48.322812" y="137.546059" style="stroke: #000000; stroke-width: 0.6"/>
      </g>
     </g>
    </g>
    <g id="ytick_8">
     <g id="line2d_17">
      <g>
       <use xlink:href="#m17974abb52" x="48.322812" y="129.969986" style="stroke: #000000; stroke-width: 0.6"/>
      </g>
     </g>
    </g>
    <g id="ytick_9">
     <g id="line2d_18">
      <g>
       <use xlink:href="#m17974abb52" x="48.322812" y="124.594676" style="stroke: #000000; stroke-width: 0.6"/>
      </g>
     </g>
    </g>
    <g id="ytick_10">
     <g id="line2d_19">
      <g>
       <use xlink:href="#m17974abb52" x="48.322812" y="120.425262" style="stroke: #000000; stroke-width: 0.6"/>
      </g>
     </g>
    </g>
    <g id="ytick_11">
     <g id="line2d_20">
      <g>
       <use xlink:href="#m17974abb52" x="48.322812" y="117.018602" style="stroke: #000000; stroke-width: 0.6"/>
      </g>
     </g>
    </g>
    <g id="ytick_12">
     <g id="line2d_21">
      <g>
       <use xlink:href="#m17974abb52" x="48.322812" y="114.138313" style="stroke: #000000; stroke-width: 0.6"/>
      </g>
     </g>
    </g>
    <g id="ytick_13">
     <g id="line2d_22">
      <g>
       <use xlink:href="#m17974abb52" x="48.322812" y="111.643292" style="stroke: #000000; stroke-width: 0.6"/>
      </g>
     </g>
    </g>
    <g id="ytick_14">
     <g id="line2d_23">
      <g>
       <use xlink:href="#m17974abb52" x="48.322812" y="109.442528" style="stroke: #000000; stroke-width: 0.6"/>
      </g>
     </g>
    </g>
    <g id="ytick_15">
     <g id="line2d_24">
      <g>
       <use xlink:href="#m17974abb52" x="48.322812" y="94.522494" style="stroke: #000000; stroke-width: 0.6"/>
      </g>
     </g>
    </g>
    <g id="ytick_16">
     <g id="line2d_25">
      <g>
       <use xlink:href="#m17974abb52" x="48.322812" y="86.946421" style="stroke: #000000; stroke-width: 0.6"/>
      </g>
     </g>
    </g>
    <g id="ytick_17">
     <g id="line2d_26">
      <g>
       <use xlink:href="#m17974abb52" x="48.322812" y="81.571111" style="stroke: #000000; stroke-width: 0.6"/>
      </g>
     </g>
    </g>
    <g id="ytick_18">
     <g id="line2d_27">
      <g>
       <use xlink:href="#m17974abb52" x="48.322812" y="77.401697" style="stroke: #000000; stroke-width: 0.6"/>
      </g>
     </g>
    </g>
    <g id="ytick_19">
     <g id="line2d_28">
      <g>
       <use xlink:href="#m17974abb52" x="48.322812" y="73.995037" style="stroke: #000000; stroke-width: 0.6"/>
      </g>
     </g>
    </g>
    <g id="ytick_20">
     <g id="line2d_29">
      <g>
       <use xlink:href="#m17974abb52" x="48.322812" y="71.114747" style="stroke: #000000; stroke-width: 0.6"/>
      </g>
     </g>
    </g>
    <g id="ytick_21">
     <g id="line2d_30">
      <g>
       <use xlink:href="#m17974abb52" x="48.322812" y="68.619727" style="stroke: #000000; stroke-width: 0.6"/>
      </g>
     </g>
    </g>
    <g id="ytick_22">
     <g id="line2d_31">
      <g>
       <use xlink:href="#m17974abb52" x="48.322812" y="66.418963" style="stroke: #000000; stroke-width: 0.6"/>
      </g>
     </g>
    </g>
    <g id="ytick_23">
     <g id="line2d_32">
      <g>
       <use xlink:href="#m17974abb52" x="48.322812" y="51.498929" style="stroke: #000000; stroke-width: 0.6"/>
      </g>
     </g>
    </g>
    <g id="ytick_24">
     <g id="line2d_33">
      <g>
       <use xlink:href="#m17974abb52" x="48.322812" y="43.922856" style="stroke: #000000; stroke-width: 0.6"/>
      </g>
     </g>
    </g>
    <g id="ytick_25">
     <g id="line2d_34">
      <g>
       <use xlink:href="#m17974abb52" x="48.322812" y="38.547546" style="stroke: #000000; stroke-width: 0.6"/>
      </g>
     </g>
    </g>
    <g id="ytick_26">
     <g id="line2d_35">
      <g>
       <use xlink:href="#m17974abb52" x="48.322812" y="34.378131" style="stroke: #000000; stroke-width: 0.6"/>
      </g>
     </g>
    </g>
    <g id="ytick_27">
     <g id="line2d_36">
      <g>
       <use xlink:href="#m17974abb52" x="48.322812" y="30.971472" style="stroke: #000000; stroke-width: 0.6"/>
      </g>
     </g>
    </g>
    <g id="ytick_28">
     <g id="line2d_37">
      <g>
       <use xlink:href="#m17974abb52" x="48.322812" y="28.091182" style="stroke: #000000; stroke-width: 0.6"/>
      </g>
     </g>
    </g>
    <g id="ytick_29">
     <g id="line2d_38">
      <g>
       <use xlink:href="#m17974abb52" x="48.322812" y="25.596162" style="stroke: #000000; stroke-width: 0.6"/>
      </g>
     </g>
    </g>
    <g id="text_7">
     <!-- MiB/s -->
     <g transform="translate(17.638594 105.679382) rotate(-90) scale(0.09 -0.09)">
      <defs>
       <path id="DejaVuSerif-4d" d="M 353 0 
L 353 331 
L 947 331 
L 947 4331 
L 319 4331 
L 319 4666 
L 1678 4666 
L 3316 1344 
L 4953 4666 
L 6228 4666 
L 6228 4331 
L 5606 4331 
L 5606 331 
L 6203 331 
L 6203 0 
L 4378 0 
L 4378 331 
L 4972 331 
L 4972 3938 
L 3372 684 
L 2931 684 
L 1331 3938 
L 1331 331 
L 1925 331 
L 1925 0 
L 353 0 
z
" transform="scale(0.015625)"/>
       <path id="DejaVuSerif-69" d="M 622 4353 
Q 622 4497 726 4603 
Q 831 4709 978 4709 
Q 1122 4709 1226 4603 
Q 1331 4497 1331 4353 
Q 1331 4206 1228 4103 
Q 1125 4000 978 4000 
Q 831 4000 726 4103 
Q 622 4206 622 4353 
z
M 1356 331 
L 1900 331 
L 1900 0 
L 231 0 
L 231 331 
L 781 331 
L 781 2988 
L 231 2988 
L 231 3322 
L 1356 3322 
L 1356 331 
z
" transform="scale(0.015625)"/>
       <path id="DejaVuSerif-42" d="M 1581 331 
L 2516 331 
Q 3078 331 3337 575 
Q 3597 819 3597 1350 
Q 3597 1878 3339 2120 
Q 3081 2363 2516 2363 
L 1581 2363 
L 1581 331 
z
M 1581 2694 
L 2375 2694 
Q 2888 2694 3123 2891 
Q 3359 3088 3359 3513 
Q 3359 3941 3123 4136 
Q 2888 4331 2375 4331 
L 1581 4331 
L 1581 2694 
z
M 353 0 
L 353 331 
L 947 331 
L 947 4331 
L 353 4331 
L 353 4666 
L 2656 4666 
Q 3363 4666 3720 4377 
Q 4078 4088 4078 3513 
Q 4078 3097 3829 2850 
Q 3581 2603 3103 2547 
Q 3697 2472 4005 2167 
Q 4313 1863 4313 1350 
Q 4313 656 3875 328 
Q 3438 0 2509 0 
L 353 0 
z
" transform="scale(0.015625)"/>
       <path id="DejaVuSerif-2f" d="M 1656 4666 
L 2156 4666 
L 500 -594 
L 0 -594 
L 1656 4666 
z
" transform="scale(0.015625)"/>
       <path id="DejaVuSerif-73" d="M 359 184 
L 359 959 
L 691 959 
Q 703 588 923 403 
Q 1144 219 1575 219 
Q 1963 219 2166 364 
Q 2369 509 2369 788 
Q 2369 1006 2220 1140 
Q 2072 1275 1594 1428 
L 1178 1569 
Q 750 1706 558 1912 
Q 366 2119 366 2438 
Q 366 2894 700 3153 
Q 1034 3413 1625 3413 
Q 1888 3413 2178 3344 
Q 2469 3275 2778 3144 
L 2778 2419 
L 2447 2419 
Q 2434 2741 2221 2922 
Q 2009 3103 1644 3103 
Q 1281 3103 1095 2975 
Q 909 2847 909 2591 
Q 909 2381 1050 2254 
Q 1191 2128 1613 1997 
L 2069 1856 
Q 2541 1709 2748 1489 
Q 2956 1269 2956 922 
Q 2956 450 2595 179 
Q 2234 -91 1600 -91 
Q 1278 -91 972 -22 
Q 666 47 359 184 
z
" transform="scale(0.015625)"/>
      </defs>
      <use xlink:href="#DejaVuSerif-4d"/>
      <use xlink:href="#DejaVuSerif-69" x="102.392578"/>
      <use xlink:href="#DejaVuSerif-42" x="134.375"/>
      <use xlink:href="#DejaVuSerif-2f" x="207.861328"/>
      <use xlink:href="#DejaVuSerif-73" x="241.552734"/>
     </g>
    </g>
   </g>
   <g id="patch_3">
    <path d="M 68.632628 43131.038934 
L 72.13432 43131.038934 
L 72.13432 146.497121 
L 68.632628 146.497121 
z
" clip-path="url(#p570b346eb4)" style="fill: #3366cc; opacity: 0.7"/>
   </g>
   <g id="patch_4">
    <path d="M 73.009743 43131.038934 
L 76.511436 43131.038934 
L 76.511436 147.594356 
L 73.009743 147.594356 
z
" clip-path="url(#p570b346eb4)" style="fill: #3366cc; opacity: 0.7"/>
   </g>
   <g id="patch_5">
    <path d="M 77.386859 43131.038934 
L 80.888551 43131.038934 
L 80.888551 147.34805 
L 77.386859 147.34805 
z
" clip-path="url(#p570b346eb4)" style="fill: #3366cc; opacity: 0.7"/>
   </g>
   <g id="patch_6">
    <path d="M 81.763974 43131.038934 
L 85.265666 43131.038934 
L 85.265666 147.443192 
L 81.763974 147.443192 
z
" clip-path="url(#p570b346eb4)" style="fill: #3366cc; opacity: 0.7"/>
   </g>
   <g id="patch_7">
    <path d="M 86.141089 43131.038934 
L 89.642782 43131.038934 
L 89.642782 147.158744 
L 86.141089 147.158744 
z
" clip-path="url(#p570b346eb4)" style="fill: #3366cc; opacity: 0.7"/>
   </g>
   <g id="patch_8">
    <path d="M 90.518205 43131.038934 
L 94.019897 43131.038934 
L 94.019897 147.411881 
L 90.518205 147.411881 
z
" clip-path="url(#p570b346eb4)" style="fill: #3366cc; opacity: 0.7"/>
   </g>
   <g id="patch_9">
    <path d="M 94.89532 43131.038934 
L 98.397012 43131.038934 
L 98.397012 147.525087 
L 94.89532 147.525087 
z
" clip-path="url(#p570b346eb4)" style="fill: #3366cc; opacity: 0.7"/>
   </g>
   <g id="patch_10">
    <path d="M 99.272435 43131.038934 
L 102.774128 43131.038934 
L 102.774128 147.122586 
L 99.272435 147.122586 
z
" clip-path="url(#p570b346eb4)" style="fill: #3366cc; opacity: 0.7"/>
   </g>
   <g id="patch_11">
    <path d="M 103.649551 43131.038934 
L 107.151243 43131.038934 
L 107.151243 147.894229 
L 103.649551 147.894229 
z
" clip-path="url(#p570b346eb4)" style="fill: #3366cc; opacity: 0.7"/>
   </g>
   <g id="patch_12">
    <path d="M 108.026666 43131.038934 
L 111.528359 43131.038934 
L 111.528359 147.417578 
L 108.026666 147.417578 
z
" clip-path="url(#p570b346eb4)" style="fill: #3366cc; opacity: 0.7"/>
   </g>
   <g id="patch_13">
    <path d="M 112.403782 43131.038934 
L 115.905474 43131.038934 
L 115.905474 147.578768 
L 112.403782 147.578768 
z
" clip-path="url(#p570b346eb4)" style="fill: #3366cc; opacity: 0.7"/>
   </g>
   <g id="patch_14">
    <path d="M 116.780897 43131.038934 
L 120.282589 43131.038934 
L 120.282589 147.707644 
L 116.780897 147.707644 
z
" clip-path="url(#p570b346eb4)" style="fill: #3366cc; opacity: 0.7"/>
   </g>
   <g id="patch_15">
    <path d="M 121.158012 43131.038934 
L 124.659705 43131.038934 
L 124.659705 147.919819 
L 121.158012 147.919819 
z
" clip-path="url(#p570b346eb4)" style="fill: #3366cc; opacity: 0.7"/>
   </g>
   <g id="patch_16">
    <path d="M 125.535128 43131.038934 
L 129.03682 43131.038934 
L 129.03682 148.36646 
L 125.535128 148.36646 
z
" clip-path="url(#p570b346eb4)" style="fill: #3366cc; opacity: 0.7"/>
   </g>
   <g id="patch_17">
    <path d="M 129.912243 43131.038934 
L 133.413935 43131.038934 
L 133.413935 147.978304 
L 129.912243 147.978304 
z
" clip-path="url(#p570b346eb4)" style="fill: #3366cc; opacity: 0.7"/>
   </g>
   <g id="patch_18">
    <path d="M 134.289358 43131.038934 
L 137.791051 43131.038934 
L 137.791051 147.344977 
L 134.289358 147.344977 
z
" clip-path="url(#p570b346eb4)" style="fill: #3366cc; opacity: 0.7"/>
   </g>
   <g id="patch_19">
    <path d="M 138.666474 43131.038934 
L 142.168166 43131.038934 
L 142.168166 148.926215 
L 138.666474 148.926215 
z
" clip-path="url(#p570b346eb4)" style="fill: #3366cc; opacity: 0.7"/>
   </g>
   <g id="patch_20">
    <path d="M 143.043589 43131.038934 
L 146.545282 43131.038934 
L 146.545282 147.664074 
L 143.043589 147.664074 
z
" clip-path="url(#p570b346eb4)" style="fill: #3366cc; opacity: 0.7"/>
   </g>
   <g id="patch_21">
    <path d="M 147.420705 43131.038934 
L 150.922397 43131.038934 
L 150.922397 147.609338 
L 147.420705 147.609338 
z
" clip-path="url(#p570b346eb4)" style="fill: #3366cc; opacity: 0.7"/>
   </g>
   <g id="patch_22">
    <path d="M 151.79782 43131.038934 
L 155.299512 43131.038934 
L 155.299512 148.963791 
L 151.79782 148.963791 
z
" clip-path="url(#p570b346eb4)" style="fill: #3366cc; opacity: 0.7"/>
   </g>
   <g id="patch_23">
    <path d="M 156.174935 43131.038934 
L 159.676628 43131.038934 
L 159.676628 148.896744 
L 156.174935 148.896744 
z
" clip-path="url(#p570b346eb4)" style="fill: #3366cc; opacity: 0.7"/>
   </g>
   <g id="patch_24">
    <path d="M 160.552051 43131.038934 
L 164.053743 43131.038934 
L 164.053743 147.962851 
L 160.552051 147.962851 
z
" clip-path="url(#p570b346eb4)" style="fill: #3366cc; opacity: 0.7"/>
   </g>
   <g id="patch_25">
    <path d="M 164.929166 43131.038934 
L 168.430858 43131.038934 
L 168.430858 147.851996 
L 164.929166 147.851996 
z
" clip-path="url(#p570b346eb4)" style="fill: #3366cc; opacity: 0.7"/>
   </g>
   <g id="patch_26">
    <path d="M 169.306281 43131.038934 
L 172.807974 43131.038934 
L 172.807974 146.22517 
L 169.306281 146.22517 
z
" clip-path="url(#p570b346eb4)" style="fill: #3366cc; opacity: 0.7"/>
   </g>
   <g id="patch_27">
    <path d="M 173.683397 43131.038934 
L 177.185089 43131.038934 
L 177.185089 147.348684 
L 173.683397 147.348684 
z
" clip-path="url(#p570b346eb4)" style="fill: #3366cc; opacity: 0.7"/>
   </g>
   <g id="patch_28">
    <path d="M 178.060512 43131.038934 
L 181.562205 43131.038934 
L 181.562205 148.679485 
L 178.060512 148.679485 
z
" clip-path="url(#p570b346eb4)" style="fill: #3366cc; opacity: 0.7"/>
   </g>
   <g id="patch_29">
    <path d="M 182.437628 43131.038934 
L 185.93932 43131.038934 
L 185.93932 149.264525 
L 182.437628 149.264525 
z
" clip-path="url(#p570b346eb4)" style="fill: #3366cc; opacity: 0.7"/>
   </g>
   <g id="patch_30">
    <path d="M 186.814743 43131.038934 
L 190.316435 43131.038934 
L 190.316435 149.382332 
L 186.814743 149.382332 
z
" clip-path="url(#p570b346eb4)" style="fill: #3366cc; opacity: 0.7"/>
   </g>
   <g id="patch_31">
    <path d="M 191.191858 43131.038934 
L 194.693551 43131.038934 
L 194.693551 148.796886 
L 191.191858 148.796886 
z
" clip-path="url(#p570b346eb4)" style="fill: #3366cc; opacity: 0.7"/>
   </g>
   <g id="patch_32">
    <path d="M 195.568974 43131.038934 
L 199.070666 43131.038934 
L 199.070666 147.45412 
L 195.568974 147.45412 
z
" clip-path="url(#p570b346eb4)" style="fill: #3366cc; opacity: 0.7"/>
   </g>
   <g id="patch_33">
    <path d="M 199.946089 43131.038934 
L 203.447781 43131.038934 
L 203.447781 148.104858 
L 199.946089 148.104858 
z
" clip-path="url(#p570b346eb4)" style="fill: #3366cc; opacity: 0.7"/>
   </g>
   <g id="patch_34">
    <path d="M 204.323204 43131.038934 
L 207.824897 43131.038934 
L 207.824897 148.539166 
L 204.323204 148.539166 
z
" clip-path="url(#p570b346eb4)" style="fill: #3366cc; opacity: 0.7"/>
   </g>
   <g id="patch_35">
    <path d="M 208.70032 43131.038934 
L 212.202012 43131.038934 
L 212.202012 149.556046 
L 208.70032 149.556046 
z
" clip-path="url(#p570b346eb4)" style="fill: #3366cc; opacity: 0.7"/>
   </g>
   <g id="patch_36">
    <path d="M 213.077435 43131.038934 
L 216.579128 43131.038934 
L 216.579128 150.248969 
L 213.077435 150.248969 
z
" clip-path="url(#p570b346eb4)" style="fill: #3366cc; opacity: 0.7"/>
   </g>
   <g id="patch_37">
    <path d="M 217.454551 43131.038934 
L 220.956243 43131.038934 
L 220.956243 149.301661 
L 217.454551 149.301661 
z
" clip-path="url(#p570b346eb4)" style="fill: #3366cc; opacity: 0.7"/>
   </g>
   <g id="patch_38">
    <path d="M 221.831666 43131.038934 
L 225.333358 43131.038934 
L 225.333358 147.845261 
L 221.831666 147.845261 
z
" clip-path="url(#p570b346eb4)" style="fill: #3366cc; opacity: 0.7"/>
   </g>
   <g id="patch_39">
    <path d="M 226.208781 43131.038934 
L 229.710474 43131.038934 
L 229.710474 148.716018 
L 226.208781 148.716018 
z
" clip-path="url(#p570b346eb4)" style="fill: #3366cc; opacity: 0.7"/>
   </g>
   <g id="patch_40">
    <path d="M 230.585897 43131.038934 
L 234.087589 43131.038934 
L 234.087589 148.691422 
L 230.585897 148.691422 
z
" clip-path="url(#p570b346eb4)" style="fill: #3366cc; opacity: 0.7"/>
   </g>
   <g id="patch_41">
    <path d="M 234.963012 43131.038934 
L 238.464704 43131.038934 
L 238.464704 148.502114 
L 234.963012 148.502114 
z
" clip-path="url(#p570b346eb4)" style="fill: #3366cc; opacity: 0.7"/>
   </g>
   <g id="patch_42">
    <path d="M 239.340127 43131.038934 
L 242.84182 43131.038934 
L 242.84182 148.844393 
L 239.340127 148.844393 
z
" clip-path="url(#p570b346eb4)" style="fill: #3366cc; opacity: 0.7"/>
   </g>
   <g id="patch_43">
    <path d="M 243.717243 43131.038934 
L 247.218935 43131.038934 
L 247.218935 149.359963 
L 243.717243 149.359963 
z
" clip-path="url(#p570b346eb4)" style="fill: #3366cc; opacity: 0.7"/>
   </g>
   <g id="patch_44">
    <path d="M 248.094358 43131.038934 
L 251.596051 43131.038934 
L 251.596051 148.313025 
L 248.094358 148.313025 
z
" clip-path="url(#p570b346eb4)" style="fill: #3366cc; opacity: 0.7"/>
   </g>
   <g id="patch_45">
    <path d="M 252.471474 43131.038934 
L 255.973166 43131.038934 
L 255.973166 147.993383 
L 252.471474 147.993383 
z
" clip-path="url(#p570b346eb4)" style="fill: #3366cc; opacity: 0.7"/>
   </g>
   <g id="patch_46">
    <path d="M 256.848589 43131.038934 
L 260.350281 43131.038934 
L 260.350281 147.197949 
L 256.848589 147.197949 
z
" clip-path="url(#p570b346eb4)" style="fill: #3366cc; opacity: 0.7"/>
   </g>
   <g id="patch_47">
    <path d="M 261.225704 43131.038934 
L 264.727397 43131.038934 
L 264.727397 146.342658 
L 261.225704 146.342658 
z
" clip-path="url(#p570b346eb4)" style="fill: #3366cc; opacity: 0.7"/>
   </g>
   <g id="patch_48">
    <path d="M 265.60282 43131.038934 
L 269.104512 43131.038934 
L 269.104512 146.851195 
L 265.60282 146.851195 
z
" clip-path="url(#p570b346eb4)" style="fill: #3366cc; opacity: 0.7"/>
   </g>
   <g id="patch_49">
    <path d="M 269.979935 43131.038934 
L 273.481627 43131.038934 
L 273.481627 148.332105 
L 269.979935 148.332105 
z
" clip-path="url(#p570b346eb4)" style="fill: #3366cc; opacity: 0.7"/>
   </g>
   <g id="patch_50">
    <path d="M 274.35705 43131.038934 
L 277.858743 43131.038934 
L 277.858743 149.677764 
L 274.35705 149.677764 
z
" clip-path="url(#p570b346eb4)" style="fill: #3366cc; opacity: 0.7"/>
   </g>
   <g id="patch_51">
    <path d="M 278.734166 43131.038934 
L 282.235858 43131.038934 
L 282.235858 150.094426 
L 278.734166 150.094426 
z
" clip-path="url(#p570b346eb4)" style="fill: #3366cc; opacity: 0.7"/>
   </g>
   <g id="patch_52">
    <path d="M 283.111281 43131.038934 
L 286.612974 43131.038934 
L 286.612974 149.802186 
L 283.111281 149.802186 
z
" clip-path="url(#p570b346eb4)" style="fill: #3366cc; opacity: 0.7"/>
   </g>
   <g id="patch_53">
    <path d="M 287.488397 43131.038934 
L 290.990089 43131.038934 
L 290.990089 148.48963 
L 287.488397 148.48963 
z
" clip-path="url(#p570b346eb4)" style="fill: #3366cc; opacity: 0.7"/>
   </g>
   <g id="patch_54">
    <path d="M 291.865512 43131.038934 
L 295.367204 43131.038934 
L 295.367204 149.339254 
L 291.865512 149.339254 
z
" clip-path="url(#p570b346eb4)" style="fill: #3366cc; opacity: 0.7"/>
   </g>
   <g id="patch_55">
    <path d="M 296.242627 43131.038934 
L 299.74432 43131.038934 
L 299.74432 150.053969 
L 296.242627 150.053969 
z
" clip-path="url(#p570b346eb4)" style="fill: #3366cc; opacity: 0.7"/>
   </g>
   <g id="patch_56">
    <path d="M 300.619743 43131.038934 
L 304.121435 43131.038934 
L 304.121435 149.727691 
L 300.619743 149.727691 
z
" clip-path="url(#p570b346eb4)" style="fill: #3366cc; opacity: 0.7"/>
   </g>
   <g id="patch_57">
    <path d="M 304.996858 43131.038934 
L 308.49855 43131.038934 
L 308.49855 149.996556 
L 304.996858 149.996556 
z
" clip-path="url(#p570b346eb4)" style="fill: #3366cc; opacity: 0.7"/>
   </g>
   <g id="patch_58">
    <path d="M 309.373973 43131.038934 
L 312.875666 43131.038934 
L 312.875666 149.999046 
L 309.373973 149.999046 
z
" clip-path="url(#p570b346eb4)" style="fill: #3366cc; opacity: 0.7"/>
   </g>
   <g id="patch_59">
    <path d="M 313.751089 43131.038934 
L 317.252781 43131.038934 
L 317.252781 149.438916 
L 313.751089 149.438916 
z
" clip-path="url(#p570b346eb4)" style="fill: #3366cc; opacity: 0.7"/>
   </g>
   <g id="patch_60">
    <path d="M 318.128204 43131.038934 
L 321.629897 43131.038934 
L 321.629897 149.211714 
L 318.128204 149.211714 
z
" clip-path="url(#p570b346eb4)" style="fill: #3366cc; opacity: 0.7"/>
   </g>
   <g id="patch_61">
    <path d="M 322.50532 43131.038934 
L 326.007012 43131.038934 
L 326.007012 149.570569 
L 322.50532 149.570569 
z
" clip-path="url(#p570b346eb4)" style="fill: #3366cc; opacity: 0.7"/>
   </g>
   <g id="patch_62">
    <path d="M 326.882435 43131.038934 
L 330.384127 43131.038934 
L 330.384127 149.090126 
L 326.882435 149.090126 
z
" clip-path="url(#p570b346eb4)" style="fill: #3366cc; opacity: 0.7"/>
   </g>
   <g id="patch_63">
    <path d="M 331.25955 43131.038934 
L 334.761243 43131.038934 
L 334.761243 149.77386 
L 331.25955 149.77386 
z
" clip-path="url(#p570b346eb4)" style="fill: #3366cc; opacity: 0.7"/>
   </g>
   <g id="patch_64">
    <path d="M 335.636666 43131.038934 
L 339.138358 43131.038934 
L 339.138358 150.048276 
L 335.636666 150.048276 
z
" clip-path="url(#p570b346eb4)" style="fill: #3366cc; opacity: 0.7"/>
   </g>
   <g id="patch_65">
    <path d="M 340.013781 43131.038934 
L 343.515473 43131.038934 
L 343.515473 150.938139 
L 340.013781 150.938139 
z
" clip-path="url(#p570b346eb4)" style="fill: #3366cc; opacity: 0.7"/>
   </g>
   <g id="patch_66">
    <path d="M 344.390896 43131.038934 
L 347.892589 43131.038934 
L 347.892589 150.050211 
L 344.390896 150.050211 
z
" clip-path="url(#p570b346eb4)" style="fill: #3366cc; opacity: 0.7"/>
   </g>
   <g id="patch_67">
    <path d="M 348.768012 43131.038934 
L 352.269704 43131.038934 
L 352.269704 153.7211 
L 348.768012 153.7211 
z
" clip-path="url(#p570b346eb4)" style="fill: #3366cc; opacity: 0.7"/>
   </g>
   <g id="patch_68">
    <path d="M 353.145127 43131.038934 
L 356.64682 43131.038934 
L 356.64682 146.63308 
L 353.145127 146.63308 
z
" clip-path="url(#p570b346eb4)" style="fill: #3366cc; opacity: 0.7"/>
   </g>
   <g id="patch_69">
    <path d="M 357.522243 43131.038934 
L 361.023935 43131.038934 
L 361.023935 149.195122 
L 357.522243 149.195122 
z
" clip-path="url(#p570b346eb4)" style="fill: #3366cc; opacity: 0.7"/>
   </g>
   <g id="patch_70">
    <path d="M 361.899358 43131.038934 
L 365.40105 43131.038934 
L 365.40105 150.275165 
L 361.899358 150.275165 
z
" clip-path="url(#p570b346eb4)" style="fill: #3366cc; opacity: 0.7"/>
   </g>
   <g id="patch_71">
    <path d="M 366.276473 43131.038934 
L 369.778166 43131.038934 
L 369.778166 150.577462 
L 366.276473 150.577462 
z
" clip-path="url(#p570b346eb4)" style="fill: #3366cc; opacity: 0.7"/>
   </g>
   <g id="patch_72">
    <path d="M 370.653589 43131.038934 
L 374.155281 43131.038934 
L 374.155281 150.684119 
L 370.653589 150.684119 
z
" clip-path="url(#p570b346eb4)" style="fill: #3366cc; opacity: 0.7"/>
   </g>
   <g id="patch_73">
    <path d="M 375.030704 43131.038934 
L 378.532396 43131.038934 
L 378.532396 149.806284 
L 375.030704 149.806284 
z
" clip-path="url(#p570b346eb4)" style="fill: #3366cc; opacity: 0.7"/>
   </g>
   <g id="patch_74">
    <path d="M 379.407819 43131.038934 
L 382.909512 43131.038934 
L 382.909512 148.421788 
L 379.407819 148.421788 
z
" clip-path="url(#p570b346eb4)" style="fill: #3366cc; opacity: 0.7"/>
   </g>
   <g id="patch_75">
    <path d="M 383.784935 43131.038934 
L 387.286627 43131.038934 
L 387.286627 147.831985 
L 383.784935 147.831985 
z
" clip-path="url(#p570b346eb4)" style="fill: #3366cc; opacity: 0.7"/>
   </g>
   <g id="patch_76">
    <path d="M 388.16205 43131.038934 
L 391.663743 43131.038934 
L 391.663743 150.244183 
L 388.16205 150.244183 
z
" clip-path="url(#p570b346eb4)" style="fill: #3366cc; opacity: 0.7"/>
   </g>
   <g id="patch_77">
    <path d="M 392.539166 43131.038934 
L 396.040858 43131.038934 
L 396.040858 150.158665 
L 392.539166 150.158665 
z
" clip-path="url(#p570b346eb4)" style="fill: #3366cc; opacity: 0.7"/>
   </g>
   <g id="patch_78">
    <path d="M 396.916281 43131.038934 
L 400.417973 43131.038934 
L 400.417973 150.534985 
L 396.916281 150.534985 
z
" clip-path="url(#p570b346eb4)" style="fill: #3366cc; opacity: 0.7"/>
   </g>
   <g id="patch_79">
    <path d="M 401.293396 43131.038934 
L 404.795089 43131.038934 
L 404.795089 150.452683 
L 401.293396 150.452683 
z
" clip-path="url(#p570b346eb4)" style="fill: #3366cc; opacity: 0.7"/>
   </g>
   <g id="patch_80">
    <path d="M 405.670512 43131.038934 
L 409.172204 43131.038934 
L 409.172204 150.06084 
L 405.670512 150.06084 
z
" clip-path="url(#p570b346eb4)" style="fill: #3366cc; opacity: 0.7"/>
   </g>
   <g id="patch_81">
    <path d="M 410.047627 43131.038934 
L 413.549319 43131.038934 
L 413.549319 150.031946 
L 410.047627 150.031946 
z
" clip-path="url(#p570b346eb4)" style="fill: #3366cc; opacity: 0.7"/>
   </g>
   <g id="patch_82">
    <path d="M 414.424742 43131.038934 
L 417.926435 43131.038934 
L 417.926435 149.671821 
L 414.424742 149.671821 
z
" clip-path="url(#p570b346eb4)" style="fill: #3366cc; opacity: 0.7"/>
   </g>
   <g id="patch_83">
    <path d="M 418.801858 43131.038934 
L 422.30355 43131.038934 
L 422.30355 149.71858 
L 418.801858 149.71858 
z
" clip-path="url(#p570b346eb4)" style="fill: #3366cc; opacity: 0.7"/>
   </g>
   <g id="patch_84">
    <path d="M 423.178973 43131.038934 
L 426.680666 43131.038934 
L 426.680666 149.393438 
L 423.178973 149.393438 
z
" clip-path="url(#p570b346eb4)" style="fill: #3366cc; opacity: 0.7"/>
   </g>
   <g id="patch_85">
    <path d="M 427.556089 43131.038934 
L 431.057781 43131.038934 
L 431.057781 149.729303 
L 427.556089 149.729303 
z
" clip-path="url(#p570b346eb4)" style="fill: #3366cc; opacity: 0.7"/>
   </g>
   <g id="patch_86">
    <path d="M 431.933204 43131.038934 
L 435.434896 43131.038934 
L 435.434896 150.373413 
L 431.933204 150.373413 
z
" clip-path="url(#p570b346eb4)" style="fill: #3366cc; opacity: 0.7"/>
   </g>
   <g id="patch_87">
    <path d="M 436.310319 43131.038934 
L 439.812012 43131.038934 
L 439.812012 149.803778 
L 436.310319 149.803778 
z
" clip-path="url(#p570b346eb4)" style="fill: #3366cc; opacity: 0.7"/>
   </g>
   <g id="patch_88">
    <path d="M 440.687435 43131.038934 
L 444.189127 43131.038934 
L 444.189127 149.285785 
L 440.687435 149.285785 
z
" clip-path="url(#p570b346eb4)" style="fill: #3366cc; opacity: 0.7"/>
   </g>
   <g id="patch_89">
    <path d="M 445.06455 43131.038934 
L 448.566242 43131.038934 
L 448.566242 149.654838 
L 445.06455 149.654838 
z
" clip-path="url(#p570b346eb4)" style="fill: #3366cc; opacity: 0.7"/>
   </g>
   <g id="patch_90">
    <path d="M 449.441665 43131.038934 
L 452.943358 43131.038934 
L 452.943358 149.349863 
L 449.441665 149.349863 
z
" clip-path="url(#p570b346eb4)" style="fill: #3366cc; opacity: 0.7"/>
   </g>
   <g id="patch_91">
    <path d="M 453.818781 43131.038934 
L 457.320473 43131.038934 
L 457.320473 149.54148 
L 453.818781 149.54148 
z
" clip-path="url(#p570b346eb4)" style="fill: #3366cc; opacity: 0.7"/>
   </g>
   <g id="patch_92">
    <path d="M 458.195896 43131.038934 
L 461.697589 43131.038934 
L 461.697589 150.641459 
L 458.195896 150.641459 
z
" clip-path="url(#p570b346eb4)" style="fill: #3366cc; opacity: 0.7"/>
   </g>
   <g id="patch_93">
    <path d="M 462.573012 43131.038934 
L 466.074704 43131.038934 
L 466.074704 150.911924 
L 462.573012 150.911924 
z
" clip-path="url(#p570b346eb4)" style="fill: #3366cc; opacity: 0.7"/>
   </g>
   <g id="patch_94">
    <path d="M 466.950127 43131.038934 
L 470.451819 43131.038934 
L 470.451819 150.609381 
L 466.950127 150.609381 
z
" clip-path="url(#p570b346eb4)" style="fill: #3366cc; opacity: 0.7"/>
   </g>
   <g id="patch_95">
    <path d="M 471.327242 43131.038934 
L 474.828935 43131.038934 
L 474.828935 150.550193 
L 471.327242 150.550193 
z
" clip-path="url(#p570b346eb4)" style="fill: #3366cc; opacity: 0.7"/>
   </g>
   <g id="patch_96">
    <path d="M 48.322812 159.843139 
L 48.322812 25.158281 
" style="fill: none; stroke: #000000; stroke-width: 0.6; stroke-linejoin: miter; stroke-linecap: square"/>
   </g>
   <g id="patch_97">
    <path d="M 48.322813 159.843139 
L 495.13875 159.843139 
" style="fill: none; stroke: #000000; stroke-width: 0.6; stroke-linejoin: miter; stroke-linecap: square"/>
   </g>
   <g id="line2d_39">
    <path d="M 70.383474 31.28032 
L 74.760589 31.28032 
L 79.137705 31.28032 
L 83.51482 31.28032 
L 87.891935 31.28032 
L 92.269051 31.28032 
L 96.646166 31.28032 
L 101.023282 31.28032 
L 105.400397 31.28032 
L 109.777512 31.28032 
L 114.154628 31.28032 
L 118.531743 31.28032 
L 122.908858 31.28032 
L 127.285974 31.28032 
L 131.663089 31.28032 
L 136.040205 31.28032 
L 140.41732 31.28032 
L 144.794435 31.28032 
L 149.171551 31.28032 
L 153.548666 31.28032 
L 157.925781 31.28032 
L 162.302897 31.28032 
L 166.680012 31.28032 
L 171.057128 31.28032 
L 175.434243 31.28032 
L 179.811358 31.28032 
L 184.188474 31.28032 
L 188.565589 31.28032 
L 192.942704 31.28032 
L 197.31982 31.28032 
L 201.696935 31.28032 
L 206.074051 31.28032 
L 210.451166 31.28032 
L 214.828281 31.28032 
L 219.205397 31.28032 
L 223.582512 31.28032 
L 227.959627 31.28032 
L 232.336743 31.28032 
L 236.713858 31.28032 
L 241.090974 31.28032 
L 245.468089 31.28032 
L 249.845204 31.28032 
L 254.22232 31.28032 
L 258.599435 31.28032 
L 262.97655 31.28032 
L 267.353666 31.28032 
L 271.730781 31.28032 
L 276.107897 31.28032 
L 280.485012 31.28032 
L 284.862127 31.28032 
L 289.239243 31.28032 
L 293.616358 31.28032 
L 297.993474 31.28032 
L 302.370589 31.28032 
L 306.747704 31.28032 
L 311.12482 31.28032 
L 315.501935 31.28032 
L 319.87905 31.28032 
L 324.256166 31.28032 
L 328.633281 31.28032 
L 333.010397 31.28032 
L 337.387512 31.28032 
L 341.764627 31.28032 
L 346.141743 31.28032 
L 350.518858 31.28032 
L 354.895973 31.28032 
L 359.273089 31.28032 
L 363.650204 31.28032 
L 368.02732 31.28032 
L 372.404435 31.28032 
L 376.78155 31.28032 
L 381.158666 31.28032 
L 385.535781 31.28032 
L 389.912896 31.28032 
L 394.290012 31.28032 
L 398.667127 31.28032 
L 403.044243 31.28032 
L 407.421358 31.28032 
L 411.798473 31.28032 
L 416.175589 31.28032 
L 420.552704 31.28032 
L 424.929819 31.28032 
L 429.306935 31.28032 
L 433.68405 31.28032 
L 438.061166 31.28032 
L 442.438281 31.28032 
L 446.815396 31.28032 
L 451.192512 31.28032 
L 455.569627 31.28032 
L 459.946742 31.28032 
L 464.323858 31.28032 
L 468.700973 31.28032 
L 473.078089 31.28032 
" clip-path="url(#p570b346eb4)" style="fill: none; stroke-dasharray: 3.7,1.6; stroke-dashoffset: 0; stroke: #999999"/>
   </g>
   <g id="text_8">
    <!-- NEAR — Throughput (MiB/s) -->
    <g transform="translate(190.616953 19.158281) scale(0.11 -0.11)">
     <defs>
      <path id="DejaVuSerif-4e" d="M 313 0 
L 313 331 
L 941 331 
L 941 4331 
L 313 4331 
L 313 4666 
L 1509 4666 
L 4306 984 
L 4306 4331 
L 3681 4331 
L 3681 4666 
L 5319 4666 
L 5319 4331 
L 4691 4331 
L 4691 -91 
L 4313 -91 
L 1325 3841 
L 1325 331 
L 1953 331 
L 1953 0 
L 313 0 
z
" transform="scale(0.015625)"/>
      <path id="DejaVuSerif-45" d="M 353 0 
L 353 331 
L 947 331 
L 947 4331 
L 353 4331 
L 353 4666 
L 4109 4666 
L 4109 3628 
L 3725 3628 
L 3725 4281 
L 1581 4281 
L 1581 2719 
L 3109 2719 
L 3109 3303 
L 3494 3303 
L 3494 1753 
L 3109 1753 
L 3109 2338 
L 1581 2338 
L 1581 384 
L 3775 384 
L 3775 1038 
L 4159 1038 
L 4159 0 
L 353 0 
z
" transform="scale(0.015625)"/>
      <path id="DejaVuSerif-41" d="M 1281 1691 
L 2994 1691 
L 2138 3909 
L 1281 1691 
z
M -38 0 
L -38 331 
L 372 331 
L 2034 4666 
L 2559 4666 
L 4225 331 
L 4684 331 
L 4684 0 
L 2988 0 
L 2988 331 
L 3506 331 
L 3116 1356 
L 1153 1356 
L 763 331 
L 1275 331 
L 1275 0 
L -38 0 
z
" transform="scale(0.015625)"/>
      <path id="DejaVuSerif-52" d="M 3066 2316 
Q 3284 2256 3442 2114 
Q 3600 1972 3725 1716 
L 4403 331 
L 4972 331 
L 4972 0 
L 3872 0 
L 3144 1484 
Q 2934 1916 2759 2042 
Q 2584 2169 2278 2169 
L 1581 2169 
L 1581 331 
L 2241 331 
L 2241 0 
L 353 0 
L 353 331 
L 947 331 
L 947 4331 
L 353 4331 
L 353 4666 
L 2719 4666 
Q 3400 4666 3770 4341 
Q 4141 4016 4141 3419 
Q 4141 2938 3870 2661 
Q 3600 2384 3066 2316 
z
M 1581 2503 
L 2503 2503 
Q 2975 2503 3200 2726 
Q 3425 2950 3425 3419 
Q 3425 3888 3200 4109 
Q 2975 4331 2503 4331 
L 1581 4331 
L 1581 2503 
z
" transform="scale(0.015625)"/>
      <path id="DejaVuSerif-2014" d="M 281 1906 
L 6119 1906 
L 6119 1491 
L 281 1491 
L 281 1906 
z
" transform="scale(0.015625)"/>
      <path id="DejaVuSerif-54" d="M 1222 0 
L 1222 331 
L 1819 331 
L 1819 4294 
L 447 4294 
L 447 3566 
L 63 3566 
L 63 4666 
L 4206 4666 
L 4206 3566 
L 3822 3566 
L 3822 4294 
L 2450 4294 
L 2450 331 
L 3047 331 
L 3047 0 
L 1222 0 
z
" transform="scale(0.015625)"/>
      <path id="DejaVuSerif-68" d="M 263 0 
L 263 331 
L 781 331 
L 781 4531 
L 231 4531 
L 231 4863 
L 1356 4863 
L 1356 2731 
Q 1516 3069 1770 3241 
Q 2025 3413 2363 3413 
Q 2913 3413 3172 3097 
Q 3431 2781 3431 2113 
L 3431 331 
L 3944 331 
L 3944 0 
L 2356 0 
L 2356 331 
L 2853 331 
L 2853 1931 
Q 2853 2541 2704 2764 
Q 2556 2988 2175 2988 
Q 1775 2988 1565 2697 
Q 1356 2406 1356 1850 
L 1356 331 
L 1856 331 
L 1856 0 
L 263 0 
z
" transform="scale(0.015625)"/>
      <path id="DejaVuSerif-72" d="M 3059 3328 
L 3059 2497 
L 2728 2497 
Q 2713 2744 2591 2866 
Q 2469 2988 2234 2988 
Q 1809 2988 1582 2694 
Q 1356 2400 1356 1850 
L 1356 331 
L 2022 331 
L 2022 0 
L 263 0 
L 263 331 
L 781 331 
L 781 2994 
L 231 2994 
L 231 3322 
L 1356 3322 
L 1356 2731 
Q 1525 3078 1790 3245 
Q 2056 3413 2438 3413 
Q 2578 3413 2733 3391 
Q 2888 3369 3059 3328 
z
" transform="scale(0.015625)"/>
      <path id="DejaVuSerif-6f" d="M 1925 219 
Q 2388 219 2623 584 
Q 2859 950 2859 1663 
Q 2859 2375 2623 2739 
Q 2388 3103 1925 3103 
Q 1463 3103 1227 2739 
Q 991 2375 991 1663 
Q 991 950 1228 584 
Q 1466 219 1925 219 
z
M 1925 -91 
Q 1200 -91 759 389 
Q 319 869 319 1663 
Q 319 2456 758 2934 
Q 1197 3413 1925 3413 
Q 2653 3413 3092 2934 
Q 3531 2456 3531 1663 
Q 3531 869 3092 389 
Q 2653 -91 1925 -91 
z
" transform="scale(0.015625)"/>
      <path id="DejaVuSerif-75" d="M 2266 3322 
L 3341 3322 
L 3341 331 
L 3884 331 
L 3884 0 
L 2766 0 
L 2766 588 
Q 2606 256 2353 82 
Q 2100 -91 1766 -91 
Q 1213 -91 952 223 
Q 691 538 691 1209 
L 691 2988 
L 172 2988 
L 172 3322 
L 1269 3322 
L 1269 1388 
Q 1269 781 1417 556 
Q 1566 331 1947 331 
Q 2347 331 2556 625 
Q 2766 919 2766 1478 
L 2766 2988 
L 2266 2988 
L 2266 3322 
z
" transform="scale(0.015625)"/>
      <path id="DejaVuSerif-67" d="M 3359 2988 
L 3359 72 
Q 3359 -644 2965 -1033 
Q 2572 -1422 1844 -1422 
Q 1516 -1422 1216 -1362 
Q 916 -1303 641 -1184 
L 641 -488 
L 941 -488 
Q 997 -813 1206 -963 
Q 1416 -1113 1806 -1113 
Q 2313 -1113 2548 -827 
Q 2784 -541 2784 72 
L 2784 519 
Q 2616 206 2355 57 
Q 2094 -91 1709 -91 
Q 1097 -91 708 395 
Q 319 881 319 1663 
Q 319 2444 706 2928 
Q 1094 3413 1709 3413 
Q 2094 3413 2355 3264 
Q 2616 3116 2784 2803 
L 2784 3322 
L 3909 3322 
L 3909 2988 
L 3359 2988 
z
M 2784 1825 
Q 2784 2422 2554 2737 
Q 2325 3053 1888 3053 
Q 1444 3053 1217 2703 
Q 991 2353 991 1663 
Q 991 975 1217 622 
Q 1444 269 1888 269 
Q 2325 269 2554 583 
Q 2784 897 2784 1497 
L 2784 1825 
z
" transform="scale(0.015625)"/>
      <path id="DejaVuSerif-70" d="M 1313 1825 
L 1313 1497 
Q 1313 897 1542 583 
Q 1772 269 2209 269 
Q 2650 269 2876 622 
Q 3103 975 3103 1663 
Q 3103 2353 2876 2703 
Q 2650 3053 2209 3053 
Q 1772 3053 1542 2737 
Q 1313 2422 1313 1825 
z
M 738 2988 
L 184 2988 
L 184 3322 
L 1313 3322 
L 1313 2803 
Q 1481 3116 1742 3264 
Q 2003 3413 2388 3413 
Q 3000 3413 3387 2928 
Q 3775 2444 3775 1663 
Q 3775 881 3387 395 
Q 3000 -91 2388 -91 
Q 2003 -91 1742 57 
Q 1481 206 1313 519 
L 1313 -997 
L 1856 -997 
L 1856 -1331 
L 184 -1331 
L 184 -997 
L 738 -997 
L 738 2988 
z
" transform="scale(0.015625)"/>
      <path id="DejaVuSerif-74" d="M 691 2988 
L 184 2988 
L 184 3322 
L 691 3322 
L 691 4353 
L 1269 4353 
L 1269 3322 
L 2350 3322 
L 2350 2988 
L 1269 2988 
L 1269 878 
Q 1269 456 1350 337 
Q 1431 219 1650 219 
Q 1875 219 1978 351 
Q 2081 484 2088 781 
L 2522 781 
Q 2497 328 2275 118 
Q 2053 -91 1600 -91 
Q 1103 -91 897 129 
Q 691 350 691 878 
L 691 2988 
z
" transform="scale(0.015625)"/>
      <path id="DejaVuSerif-28" d="M 2041 -997 
Q 1281 -656 893 83 
Q 506 822 506 1931 
Q 506 3044 893 3783 
Q 1281 4522 2041 4863 
L 2041 4556 
Q 1559 4225 1350 3623 
Q 1141 3022 1141 1931 
Q 1141 844 1350 242 
Q 1559 -359 2041 -691 
L 2041 -997 
z
" transform="scale(0.015625)"/>
      <path id="DejaVuSerif-29" d="M 453 -997 
L 453 -691 
Q 934 -359 1145 242 
Q 1356 844 1356 1931 
Q 1356 3022 1145 3623 
Q 934 4225 453 4556 
L 453 4863 
Q 1216 4522 1603 3783 
Q 1991 3044 1991 1931 
Q 1991 822 1603 83 
Q 1216 -656 453 -997 
z
" transform="scale(0.015625)"/>
     </defs>
     <use xlink:href="#DejaVuSerif-4e"/>
     <use xlink:href="#DejaVuSerif-45" x="87.5"/>
     <use xlink:href="#DejaVuSerif-41" x="160.498047"/>
     <use xlink:href="#DejaVuSerif-52" x="232.714844"/>
     <use xlink:href="#DejaVuSerif-20" x="308.007812"/>
     <use xlink:href="#DejaVuSerif-2014" x="339.794922"/>
     <use xlink:href="#DejaVuSerif-20" x="439.794922"/>
     <use xlink:href="#DejaVuSerif-54" x="471.582031"/>
     <use xlink:href="#DejaVuSerif-68" x="538.28125"/>
     <use xlink:href="#DejaVuSerif-72" x="602.685547"/>
     <use xlink:href="#DejaVuSerif-6f" x="650.488281"/>
     <use xlink:href="#DejaVuSerif-75" x="710.693359"/>
     <use xlink:href="#DejaVuSerif-67" x="775.097656"/>
     <use xlink:href="#DejaVuSerif-68" x="839.111328"/>
     <use xlink:href="#DejaVuSerif-70" x="903.515625"/>
     <use xlink:href="#DejaVuSerif-75" x="967.529297"/>
     <use xlink:href="#DejaVuSerif-74" x="1031.933594"/>
     <use xlink:href="#DejaVuSerif-20" x="1072.119141"/>
     <use xlink:href="#DejaVuSerif-28" x="1103.90625"/>
     <use xlink:href="#DejaVuSerif-4d" x="1142.919922"/>
     <use xlink:href="#DejaVuSerif-69" x="1245.3125"/>
     <use xlink:href="#DejaVuSerif-42" x="1277.294922"/>
     <use xlink:href="#DejaVuSerif-2f" x="1350.78125"/>
     <use xlink:href="#DejaVuSerif-73" x="1384.472656"/>
     <use xlink:href="#DejaVuSerif-29" x="1435.791016"/>
    </g>
   </g>
   <g id="line2d_40">
    <path d="M 70.383474 146.497121 
L 74.760589 147.037686 
L 79.137705 147.140569 
L 83.51482 147.215766 
L 87.891935 147.204348 
L 92.269051 147.238777 
L 96.646166 147.279411 
L 101.023282 147.371267 
L 105.400397 147.413307 
L 109.777512 147.423258 
L 114.154628 147.442545 
L 118.531743 147.521167 
L 122.908858 147.593311 
L 127.285974 147.711645 
L 131.663089 147.835369 
L 136.040205 147.756158 
L 140.41732 147.968191 
L 144.794435 147.98061 
L 149.171551 147.966328 
L 153.548666 148.112307 
L 157.925781 148.186134 
L 162.302897 148.183901 
L 166.680012 148.25879 
L 171.057128 147.862443 
L 175.434243 147.816577 
L 179.811358 147.967424 
L 184.188474 148.007872 
L 188.565589 148.073282 
L 192.942704 148.190869 
L 197.31982 148.13246 
L 201.696935 148.41754 
L 206.074051 148.592824 
L 210.451166 148.714987 
L 214.828281 148.848487 
L 219.205397 148.837266 
L 223.582512 148.698017 
L 227.959627 148.88527 
L 232.336743 148.971481 
L 236.713858 148.966059 
L 241.090974 148.865923 
L 245.468089 148.745521 
L 249.845204 148.605265 
L 254.22232 148.62723 
L 258.599435 148.403723 
L 262.97655 148.054923 
L 267.353666 147.815713 
L 271.730781 147.745623 
L 276.107897 147.786959 
L 280.485012 148.024454 
L 284.862127 148.272794 
L 289.239243 148.462604 
L 293.616358 148.910983 
L 297.993474 149.386459 
L 302.370589 149.59083 
L 306.747704 149.63583 
L 311.12482 149.622506 
L 315.501935 149.570676 
L 319.87905 149.678198 
L 324.256166 149.711671 
L 328.633281 149.573443 
L 333.010397 149.579978 
L 337.387512 149.587195 
L 341.764627 149.715623 
L 346.141743 149.803024 
L 350.518858 150.403324 
L 354.895973 149.934127 
L 359.273089 149.949782 
L 363.650204 150.02125 
L 368.02732 150.095829 
L 372.404435 150.060935 
L 376.78155 150.025873 
L 381.158666 149.321087 
L 385.535781 149.513636 
L 389.912896 149.662469 
L 394.290012 149.64632 
L 398.667127 149.640541 
L 403.044243 149.609107 
L 407.421358 149.64488 
L 411.798473 149.881674 
L 416.175589 150.163112 
L 420.552704 150.087443 
L 424.929819 149.976609 
L 429.306935 149.862804 
L 433.68405 149.851812 
L 438.061166 149.815282 
L 442.438281 149.708092 
L 446.815396 149.70566 
L 451.192512 149.652575 
L 455.569627 149.673947 
L 459.946742 149.801182 
L 464.323858 149.874872 
L 468.700973 149.988285 
L 473.078089 150.170516 
" clip-path="url(#p570b346eb4)" style="fill: none; stroke: #cc3333; stroke-width: 1.5; stroke-linecap: square"/>
   </g>
   <g id="legend_1">
    <g id="patch_98">
     <path d="M 410.00875 67.013281 
L 489.53875 67.013281 
Q 491.13875 67.013281 491.13875 65.413281 
L 491.13875 30.758281 
Q 491.13875 29.158281 489.53875 29.158281 
L 410.00875 29.158281 
Q 408.40875 29.158281 408.40875 30.758281 
L 408.40875 65.413281 
Q 408.40875 67.013281 410.00875 67.013281 
z
" style="fill: #ffffff; opacity: 0.9; stroke: #cccccc; stroke-linejoin: miter"/>
    </g>
    <g id="line2d_41">
     <path d="M 411.60875 35.637031 
L 419.60875 35.637031 
L 427.60875 35.637031 
" style="fill: none; stroke: #cc3333; stroke-width: 1.5; stroke-linecap: square"/>
    </g>
    <g id="text_9">
     <!-- 7d avg -->
     <g transform="translate(434.00875 38.437031) scale(0.08 -0.08)">
      <defs>
       <path id="DejaVuSerif-37" d="M 3609 4347 
L 1784 0 
L 1319 0 
L 3059 4153 
L 903 4153 
L 903 3578 
L 538 3578 
L 538 4666 
L 3609 4666 
L 3609 4347 
z
" transform="scale(0.015625)"/>
       <path id="DejaVuSerif-64" d="M 3359 331 
L 3909 331 
L 3909 0 
L 2784 0 
L 2784 519 
Q 2616 206 2355 57 
Q 2094 -91 1709 -91 
Q 1097 -91 708 395 
Q 319 881 319 1663 
Q 319 2444 706 2928 
Q 1094 3413 1709 3413 
Q 2094 3413 2355 3264 
Q 2616 3116 2784 2803 
L 2784 4531 
L 2241 4531 
L 2241 4863 
L 3359 4863 
L 3359 331 
z
M 2784 1497 
L 2784 1825 
Q 2784 2422 2554 2737 
Q 2325 3053 1888 3053 
Q 1444 3053 1217 2703 
Q 991 2353 991 1663 
Q 991 975 1217 622 
Q 1444 269 1888 269 
Q 2325 269 2554 583 
Q 2784 897 2784 1497 
z
" transform="scale(0.015625)"/>
       <path id="DejaVuSerif-76" d="M 1581 0 
L 359 2988 
L -19 2988 
L -19 3322 
L 1509 3322 
L 1509 2988 
L 978 2988 
L 1913 703 
L 2847 2988 
L 2350 2988 
L 2350 3322 
L 3597 3322 
L 3597 2988 
L 3225 2988 
L 2003 0 
L 1581 0 
z
" transform="scale(0.015625)"/>
      </defs>
      <use xlink:href="#DejaVuSerif-37"/>
      <use xlink:href="#DejaVuSerif-64" x="63.623047"/>
      <use xlink:href="#DejaVuSerif-20" x="127.636719"/>
      <use xlink:href="#DejaVuSerif-61" x="159.423828"/>
      <use xlink:href="#DejaVuSerif-76" x="219.042969"/>
      <use xlink:href="#DejaVuSerif-67" x="275.537109"/>
     </g>
    </g>
    <g id="line2d_42">
     <path d="M 411.60875 47.493281 
L 419.60875 47.493281 
L 427.60875 47.493281 
" style="fill: none; stroke-dasharray: 3.7,1.6; stroke-dashoffset: 0; stroke: #999999"/>
    </g>
    <g id="text_10">
     <!-- Max capacity -->
     <g transform="translate(434.00875 50.293281) scale(0.08 -0.08)">
      <defs>
       <path id="DejaVuSerif-78" d="M 1863 2028 
L 2559 2988 
L 2113 2988 
L 2113 3322 
L 3391 3322 
L 3391 2988 
L 2950 2988 
L 2059 1759 
L 3097 331 
L 3531 331 
L 3531 0 
L 1997 0 
L 1997 331 
L 2419 331 
L 1697 1325 
L 972 331 
L 1403 331 
L 1403 0 
L 141 0 
L 141 331 
L 581 331 
L 1497 1594 
L 488 2988 
L 78 2988 
L 78 3322 
L 1563 3322 
L 1563 2988 
L 1166 2988 
L 1863 2028 
z
" transform="scale(0.015625)"/>
       <path id="DejaVuSerif-79" d="M 1381 -609 
L 1600 -56 
L 359 2988 
L -19 2988 
L -19 3322 
L 1509 3322 
L 1509 2988 
L 978 2988 
L 1913 703 
L 2847 2988 
L 2350 2988 
L 2350 3322 
L 3597 3322 
L 3597 2988 
L 3225 2988 
L 1703 -750 
Q 1547 -1138 1356 -1280 
Q 1166 -1422 819 -1422 
Q 672 -1422 517 -1397 
Q 363 -1372 206 -1325 
L 206 -691 
L 500 -691 
Q 519 -903 608 -995 
Q 697 -1088 884 -1088 
Q 1056 -1088 1161 -992 
Q 1266 -897 1381 -609 
z
" transform="scale(0.015625)"/>
      </defs>
      <use xlink:href="#DejaVuSerif-4d"/>
      <use xlink:href="#DejaVuSerif-61" x="102.392578"/>
      <use xlink:href="#DejaVuSerif-78" x="162.011719"/>
      <use xlink:href="#DejaVuSerif-20" x="218.408203"/>
      <use xlink:href="#DejaVuSerif-63" x="250.195312"/>
      <use xlink:href="#DejaVuSerif-61" x="306.201172"/>
      <use xlink:href="#DejaVuSerif-70" x="365.820312"/>
      <use xlink:href="#DejaVuSerif-61" x="429.833984"/>
      <use xlink:href="#DejaVuSerif-63" x="489.453125"/>
      <use xlink:href="#DejaVuSerif-69" x="545.458984"/>
      <use xlink:href="#DejaVuSerif-74" x="577.441406"/>
      <use xlink:href="#DejaVuSerif-79" x="617.626953"/>
     </g>
    </g>
    <g id="patch_99">
     <path d="M 411.60875 62.149531 
L 427.60875 62.149531 
L 427.60875 56.549531 
L 411.60875 56.549531 
z
" style="fill: #3366cc; opacity: 0.7"/>
    </g>
    <g id="text_11">
     <!-- Actual -->
     <g transform="translate(434.00875 62.149531) scale(0.08 -0.08)">
      <defs>
       <path id="DejaVuSerif-6c" d="M 1313 331 
L 1856 331 
L 1856 0 
L 184 0 
L 184 331 
L 738 331 
L 738 4531 
L 184 4531 
L 184 4863 
L 1313 4863 
L 1313 331 
z
" transform="scale(0.015625)"/>
      </defs>
      <use xlink:href="#DejaVuSerif-41"/>
      <use xlink:href="#DejaVuSerif-63" x="72.216797"/>
      <use xlink:href="#DejaVuSerif-74" x="128.222656"/>
      <use xlink:href="#DejaVuSerif-75" x="168.408203"/>
      <use xlink:href="#DejaVuSerif-61" x="232.8125"/>
      <use xlink:href="#DejaVuSerif-6c" x="292.431641"/>
     </g>
    </g>
   </g>
  </g>
 </g>
 <defs>
  <clipPath id="p570b346eb4">
   <rect x="48.322812" y="25.158281" width="446.815937" height="134.684858"/>
  </clipPath>
 </defs>
</svg>
