<?xml version="1.0" encoding="utf-8" standalone="no"?>
<!DOCTYPE svg PUBLIC "-//W3C//DTD SVG 1.1//EN"
  "http://www.w3.org/Graphics/SVG/1.1/DTD/svg11.dtd">
<svg xmlns:xlink="http://www.w3.org/1999/xlink" width="505.91625pt" height="203.619591pt" viewBox="0 0 505.91625 203.619591" xmlns="http://www.w3.org/2000/svg" version="1.1">
 <metadata>
  <rdf:RDF xmlns:dc="http://purl.org/dc/elements/1.1/" xmlns:cc="http://creativecommons.org/ns#" xmlns:rdf="http://www.w3.org/1999/02/22-rdf-syntax-ns#">
   <cc:Work>
    <dc:type rdf:resource="http://purl.org/dc/dcmitype/StillImage"/>
    <dc:date>2026-02-16T20:28:40.112138</dc:date>
    <dc:format>image/svg+xml</dc:format>
    <dc:creator>
     <cc:Agent>
      <dc:title>Matplotlib v3.9.4, https://matplotlib.org/</dc:title>
     </cc:Agent>
    </dc:creator>
   </cc:Work>
  </rdf:RDF>
 </metadata>
 <defs>
  <style type="text/css">*{stroke-linejoin: round; stroke-linecap: butt}</style>
 </defs>
 <g id="figure_1">
  <g id="patch_1">
   <path d="M 0 203.619591 
L 505.91625 203.619591 
L 505.91625 0 
L 0 0 
z
" style="fill: #ffffff"/>
  </g>
  <g id="axes_1">
   <g id="patch_2">
    <path d="M 48.322812 159.848764 
L 495.11625 159.848764 
L 495.11625 25.158281 
L 48.322812 25.158281 
z
" style="fill: #ffffff"/>
   </g>
   <g id="PolyCollection_1">
    <defs>
     <path id="me4a77eef36" d="M 68.631605 -168.414833 
L 68.631605 -49.893121 
L 73.04656 -49.893121 
L 77.461515 -49.893121 
L 81.87647 -49.893121 
L 86.291425 -49.893121 
L 90.70638 -49.893121 
L 95.121335 -49.893121 
L 99.53629 -49.893121 
L 103.951244 -49.893121 
L 108.366199 -49.893121 
L 112.781154 -49.893121 
L 117.196109 -49.893121 
L 121.611064 -49.893121 
L 126.026019 -49.893121 
L 130.440974 -49.893121 
L 134.855929 -49.893121 
L 139.270884 -49.893121 
L 143.685839 -49.893121 
L 148.100794 -49.893121 
L 152.515749 -49.893121 
L 156.930703 -49.893121 
L 161.345658 -49.893121 
L 165.760613 -49.893121 
L 170.175568 -49.893121 
L 174.590523 -49.893121 
L 179.005478 -49.893121 
L 183.420433 -49.893121 
L 187.835388 -49.893121 
L 192.250343 -49.893121 
L 196.665298 -49.893121 
L 201.080253 -49.893121 
L 205.495208 -49.893121 
L 209.910162 -49.893121 
L 214.325117 -49.893121 
L 218.740072 -49.893121 
L 223.155027 -49.893121 
L 227.569982 -49.893121 
L 231.984937 -49.893121 
L 236.399892 -49.893121 
L 240.814847 -49.893121 
L 245.229802 -49.893121 
L 249.644757 -49.893121 
L 254.059712 -49.893121 
L 258.474667 -49.893121 
L 262.889621 -49.893121 
L 267.304576 -49.893121 
L 271.719531 -49.893121 
L 276.134486 -49.893121 
L 280.549441 -49.893121 
L 284.964396 -49.893121 
L 289.379351 -49.893121 
L 293.794306 -49.893121 
L 298.209261 -49.893121 
L 302.624216 -49.893121 
L 307.039171 -49.893121 
L 311.454125 -49.893121 
L 315.86908 -49.893121 
L 320.284035 -49.893121 
L 324.69899 -49.893121 
L 329.113945 -49.893121 
L 333.5289 -49.893121 
L 337.943855 -49.893121 
L 342.35881 -49.893121 
L 346.773765 -49.893121 
L 351.18872 -49.893121 
L 355.603675 -49.893121 
L 360.01863 -49.893121 
L 364.433584 -49.893121 
L 368.848539 -49.893121 
L 373.263494 -49.893121 
L 377.678449 -49.893121 
L 382.093404 -49.893121 
L 386.508359 -49.893121 
L 390.923314 -49.893121 
L 395.338269 -49.893121 
L 399.753224 -49.893121 
L 404.168179 -49.893121 
L 408.583134 -49.893121 
L 412.998089 -49.893121 
L 417.413043 -49.893121 
L 421.827998 -49.893121 
L 426.242953 -49.893121 
L 430.657908 -49.893121 
L 435.072863 -49.893121 
L 439.487818 -49.893121 
L 443.902773 -49.893121 
L 448.317728 -49.893121 
L 452.732683 -49.893121 
L 457.147638 -49.893121 
L 461.562593 -49.893121 
L 465.977548 -49.893121 
L 470.392502 -49.893121 
L 474.807457 -49.893121 
L 474.807457 -144.987313 
L 474.807457 -144.987313 
L 470.392502 -144.686563 
L 465.977548 -143.009364 
L 461.562593 -144.367026 
L 457.147638 -150.26212 
L 452.732683 -151.464884 
L 448.317728 -149.655043 
L 443.902773 -151.81381 
L 439.487818 -149.191244 
L 435.072863 -146.050482 
L 430.657908 -149.423038 
L 426.242953 -151.396054 
L 421.827998 -149.480171 
L 417.413043 -149.729698 
L 412.998089 -147.823916 
L 408.583134 -147.510705 
L 404.168179 -145.484872 
L 399.753224 -145.064746 
L 395.338269 -147.162005 
L 390.923314 -146.397227 
L 386.508359 -160.242927 
L 382.093404 -156.990785 
L 377.678449 -149.013819 
L 373.263494 -144.308152 
L 368.848539 -144.848632 
L 364.433584 -146.397381 
L 360.01863 -152.139987 
L 355.603675 -167.361069 
L 351.18872 -130.277559 
L 346.773765 -147.728231 
L 342.35881 -143.187736 
L 337.943855 -147.900358 
L 333.5289 -149.350364 
L 329.113945 -153.057202 
L 324.69899 -150.438367 
L 320.284035 -152.38806 
L 315.86908 -151.149305 
L 311.454125 -148.321346 
L 307.039171 -148.172019 
L 302.624216 -149.596422 
L 298.209261 -148.032451 
L 293.794306 -151.690829 
L 289.379351 -156.426542 
L 284.964396 -149.03556 
L 280.549441 -147.496994 
L 276.134486 -149.863192 
L 271.719531 -157.32848 
L 267.304576 -166.574477 
L 262.889621 -169.596212 
L 258.474667 -164.240384 
L 254.059712 -159.47467 
L 249.644757 -157.616008 
L 245.229802 -151.746144 
L 240.814847 -154.422914 
L 236.399892 -156.355387 
L 231.984937 -155.456397 
L 227.569982 -155.143561 
L 223.155027 -160.164549 
L 218.740072 -152.064449 
L 214.325117 -146.693041 
L 209.910162 -150.350224 
L 205.495208 -156.320106 
L 201.080253 -158.822848 
L 196.665298 -162.683374 
L 192.250343 -154.862241 
L 187.835388 -151.624278 
L 183.420433 -152.098777 
L 179.005478 -155.34955 
L 174.590523 -163.32163 
L 170.175568 -172.339015 
L 165.760613 -160.489209 
L 161.345658 -159.472757 
L 156.930703 -154.130455 
L 152.515749 -153.757091 
L 148.100794 -161.565705 
L 143.685839 -161.423094 
L 139.270884 -153.966176 
L 134.855929 -163.344138 
L 130.440974 -159.563139 
L 126.026019 -157.131129 
L 121.611064 -159.90695 
L 117.196109 -161.163329 
L 112.781154 -161.748564 
L 108.366199 -162.904171 
L 103.951244 -160.057725 
L 99.53629 -164.513062 
L 95.121335 -162.255799 
L 90.70638 -162.938633 
L 86.291425 -164.291471 
L 81.87647 -162.56313 
L 77.461515 -163.138296 
L 73.04656 -161.655283 
L 68.631605 -168.414833 
z
" style="stroke: #b3cde3; stroke-opacity: 0.6"/>
    </defs>
    <g clip-path="url(#pded21082ae)">
     <use xlink:href="#me4a77eef36" x="0" y="203.619591" style="fill: #b3cde3; fill-opacity: 0.6; stroke: #b3cde3; stroke-opacity: 0.6"/>
    </g>
   </g>
   <g id="matplotlib.axis_1">
    <g id="xtick_1">
     <g id="line2d_1">
      <path d="M 161.345658 159.848764 
L 161.345658 25.158281 
" clip-path="url(#pded21082ae)" style="fill: none; stroke: #b0b0b0; stroke-opacity: 0.25; stroke-width: 0.5; stroke-linecap: square"/>
     </g>
     <g id="line2d_2">
      <defs>
       <path id="m06a04863bd" d="M 0 0 
L 0 3.5 
" style="stroke: #000000; stroke-width: 0.8"/>
      </defs>
      <g>
       <use xlink:href="#m06a04863bd" x="161.345658" y="159.848764" style="stroke: #000000; stroke-width: 0.8"/>
      </g>
     </g>
     <g id="text_1">
      <!-- Dec 2025 -->
      <g transform="translate(127.144742 191.378741) rotate(-30) scale(0.08 -0.08)">
       <defs>
        <path id="DejaVuSerif-44" d="M 1581 331 
L 2163 331 
Q 3072 331 3558 850 
Q 4044 1369 4044 2338 
Q 4044 3306 3559 3818 
Q 3075 4331 2163 4331 
L 1581 4331 
L 1581 331 
z
M 353 0 
L 353 331 
L 947 331 
L 947 4331 
L 353 4331 
L 353 4666 
L 2209 4666 
Q 3416 4666 4089 4050 
Q 4763 3434 4763 2338 
Q 4763 1238 4088 619 
Q 3413 0 2209 0 
L 353 0 
z
" transform="scale(0.015625)"/>
        <path id="DejaVuSerif-65" d="M 3469 1600 
L 991 1600 
L 991 1575 
Q 991 903 1244 561 
Q 1497 219 1991 219 
Q 2369 219 2611 417 
Q 2853 616 2950 1006 
L 3413 1006 
Q 3275 459 2904 184 
Q 2534 -91 1931 -91 
Q 1203 -91 761 389 
Q 319 869 319 1663 
Q 319 2450 753 2931 
Q 1188 3413 1894 3413 
Q 2647 3413 3050 2948 
Q 3453 2484 3469 1600 
z
M 2791 1931 
Q 2772 2513 2545 2808 
Q 2319 3103 1894 3103 
Q 1497 3103 1269 2806 
Q 1041 2509 991 1931 
L 2791 1931 
z
" transform="scale(0.015625)"/>
        <path id="DejaVuSerif-63" d="M 3291 997 
Q 3169 466 2822 187 
Q 2475 -91 1925 -91 
Q 1200 -91 759 389 
Q 319 869 319 1663 
Q 319 2459 759 2936 
Q 1200 3413 1925 3413 
Q 2241 3413 2553 3339 
Q 2866 3266 3181 3116 
L 3181 2266 
L 2847 2266 
Q 2781 2703 2561 2903 
Q 2341 3103 1931 3103 
Q 1466 3103 1228 2742 
Q 991 2381 991 1663 
Q 991 944 1227 581 
Q 1463 219 1931 219 
Q 2303 219 2525 412 
Q 2747 606 2828 997 
L 3291 997 
z
" transform="scale(0.015625)"/>
        <path id="DejaVuSerif-20" transform="scale(0.015625)"/>
        <path id="DejaVuSerif-32" d="M 819 3553 
L 469 3553 
L 469 4384 
Q 803 4563 1142 4656 
Q 1481 4750 1806 4750 
Q 2534 4750 2956 4397 
Q 3378 4044 3378 3438 
Q 3378 2753 2422 1800 
Q 2347 1728 2309 1691 
L 1131 513 
L 3078 513 
L 3078 1088 
L 3444 1088 
L 3444 0 
L 434 0 
L 434 341 
L 1850 1753 
Q 2319 2222 2519 2614 
Q 2719 3006 2719 3438 
Q 2719 3909 2473 4175 
Q 2228 4441 1797 4441 
Q 1350 4441 1106 4219 
Q 863 3997 819 3553 
z
" transform="scale(0.015625)"/>
        <path id="DejaVuSerif-30" d="M 2034 219 
Q 2513 219 2750 744 
Q 2988 1269 2988 2328 
Q 2988 3391 2750 3916 
Q 2513 4441 2034 4441 
Q 1556 4441 1318 3916 
Q 1081 3391 1081 2328 
Q 1081 1269 1318 744 
Q 1556 219 2034 219 
z
M 2034 -91 
Q 1275 -91 848 546 
Q 422 1184 422 2328 
Q 422 3475 848 4112 
Q 1275 4750 2034 4750 
Q 2797 4750 3222 4112 
Q 3647 3475 3647 2328 
Q 3647 1184 3222 546 
Q 2797 -91 2034 -91 
z
" transform="scale(0.015625)"/>
        <path id="DejaVuSerif-35" d="M 3219 4666 
L 3219 4153 
L 1081 4153 
L 1081 2816 
Q 1244 2928 1461 2984 
Q 1678 3041 1947 3041 
Q 2703 3041 3140 2622 
Q 3578 2203 3578 1478 
Q 3578 738 3136 323 
Q 2694 -91 1894 -91 
Q 1572 -91 1234 -12 
Q 897 66 544 225 
L 544 1131 
L 897 1131 
Q 925 688 1179 453 
Q 1434 219 1894 219 
Q 2388 219 2653 544 
Q 2919 869 2919 1478 
Q 2919 2084 2655 2407 
Q 2391 2731 1894 2731 
Q 1613 2731 1398 2631 
Q 1184 2531 1019 2322 
L 750 2322 
L 750 4666 
L 3219 4666 
z
" transform="scale(0.015625)"/>
       </defs>
       <use xlink:href="#DejaVuSerif-44"/>
       <use xlink:href="#DejaVuSerif-65" x="80.175781"/>
       <use xlink:href="#DejaVuSerif-63" x="139.355469"/>
       <use xlink:href="#DejaVuSerif-20" x="195.361328"/>
       <use xlink:href="#DejaVuSerif-32" x="227.148438"/>
       <use xlink:href="#DejaVuSerif-30" x="290.771484"/>
       <use xlink:href="#DejaVuSerif-32" x="354.394531"/>
       <use xlink:href="#DejaVuSerif-35" x="418.017578"/>
      </g>
     </g>
    </g>
    <g id="xtick_2">
     <g id="line2d_3">
      <path d="M 298.209261 159.848764 
L 298.209261 25.158281 
" clip-path="url(#pded21082ae)" style="fill: none; stroke: #b0b0b0; stroke-opacity: 0.25; stroke-width: 0.5; stroke-linecap: square"/>
     </g>
     <g id="line2d_4">
      <g>
       <use xlink:href="#m06a04863bd" x="298.209261" y="159.848764" style="stroke: #000000; stroke-width: 0.8"/>
      </g>
     </g>
     <g id="text_2">
      <!-- Jan 2026 -->
      <g transform="translate(266.172325 190.129366) rotate(-30) scale(0.08 -0.08)">
       <defs>
        <path id="DejaVuSerif-4a" d="M -538 -1119 
L -538 -384 
L -181 -384 
Q -172 -694 -34 -845 
Q 103 -997 378 -997 
Q 750 -997 897 -762 
Q 1044 -528 1044 153 
L 1044 4331 
L 319 4331 
L 319 4666 
L 2272 4666 
L 2272 4331 
L 1678 4331 
L 1678 128 
Q 1678 -644 1368 -987 
Q 1059 -1331 372 -1331 
Q 150 -1331 -79 -1278 
Q -309 -1225 -538 -1119 
z
" transform="scale(0.015625)"/>
        <path id="DejaVuSerif-61" d="M 2547 1044 
L 2547 1747 
L 1806 1747 
Q 1378 1747 1168 1562 
Q 959 1378 959 997 
Q 959 650 1171 447 
Q 1384 244 1747 244 
Q 2106 244 2326 466 
Q 2547 688 2547 1044 
z
M 3122 2075 
L 3122 331 
L 3634 331 
L 3634 0 
L 2547 0 
L 2547 359 
Q 2356 128 2106 18 
Q 1856 -91 1522 -91 
Q 969 -91 644 203 
Q 319 497 319 997 
Q 319 1513 691 1797 
Q 1063 2081 1741 2081 
L 2547 2081 
L 2547 2309 
Q 2547 2688 2317 2895 
Q 2088 3103 1672 3103 
Q 1328 3103 1125 2947 
Q 922 2791 872 2484 
L 575 2484 
L 575 3156 
Q 875 3284 1158 3348 
Q 1441 3413 1709 3413 
Q 2400 3413 2761 3070 
Q 3122 2728 3122 2075 
z
" transform="scale(0.015625)"/>
        <path id="DejaVuSerif-6e" d="M 263 0 
L 263 331 
L 781 331 
L 781 2988 
L 231 2988 
L 231 3322 
L 1356 3322 
L 1356 2731 
Q 1516 3069 1770 3241 
Q 2025 3413 2363 3413 
Q 2913 3413 3172 3097 
Q 3431 2781 3431 2113 
L 3431 331 
L 3944 331 
L 3944 0 
L 2356 0 
L 2356 331 
L 2853 331 
L 2853 1931 
Q 2853 2541 2703 2767 
Q 2553 2994 2175 2994 
Q 1775 2994 1565 2701 
Q 1356 2409 1356 1850 
L 1356 331 
L 1856 331 
L 1856 0 
L 263 0 
z
" transform="scale(0.015625)"/>
        <path id="DejaVuSerif-36" d="M 2094 219 
Q 2534 219 2771 542 
Q 3009 866 3009 1472 
Q 3009 2078 2771 2401 
Q 2534 2725 2094 2725 
Q 1647 2725 1412 2412 
Q 1178 2100 1178 1509 
Q 1178 888 1415 553 
Q 1653 219 2094 219 
z
M 1075 2569 
Q 1288 2803 1556 2918 
Q 1825 3034 2163 3034 
Q 2859 3034 3264 2615 
Q 3669 2197 3669 1472 
Q 3669 763 3233 336 
Q 2797 -91 2069 -91 
Q 1278 -91 853 498 
Q 428 1088 428 2181 
Q 428 3406 931 4078 
Q 1434 4750 2350 4750 
Q 2597 4750 2869 4703 
Q 3141 4656 3425 4563 
L 3425 3794 
L 3072 3794 
Q 3034 4109 2831 4275 
Q 2628 4441 2284 4441 
Q 1678 4441 1381 3981 
Q 1084 3522 1075 2569 
z
" transform="scale(0.015625)"/>
       </defs>
       <use xlink:href="#DejaVuSerif-4a"/>
       <use xlink:href="#DejaVuSerif-61" x="40.087891"/>
       <use xlink:href="#DejaVuSerif-6e" x="99.707031"/>
       <use xlink:href="#DejaVuSerif-20" x="164.111328"/>
       <use xlink:href="#DejaVuSerif-32" x="195.898438"/>
       <use xlink:href="#DejaVuSerif-30" x="259.521484"/>
       <use xlink:href="#DejaVuSerif-32" x="323.144531"/>
       <use xlink:href="#DejaVuSerif-36" x="386.767578"/>
      </g>
     </g>
    </g>
    <g id="xtick_3">
     <g id="line2d_5">
      <path d="M 435.072863 159.848764 
L 435.072863 25.158281 
" clip-path="url(#pded21082ae)" style="fill: none; stroke: #b0b0b0; stroke-opacity: 0.25; stroke-width: 0.5; stroke-linecap: square"/>
     </g>
     <g id="line2d_6">
      <g>
       <use xlink:href="#m06a04863bd" x="435.072863" y="159.848764" style="stroke: #000000; stroke-width: 0.8"/>
      </g>
     </g>
     <g id="text_3">
      <!-- Feb 2026 -->
      <g transform="translate(401.444606 191.048116) rotate(-30) scale(0.08 -0.08)">
       <defs>
        <path id="DejaVuSerif-46" d="M 353 0 
L 353 331 
L 947 331 
L 947 4331 
L 353 4331 
L 353 4666 
L 4172 4666 
L 4172 3628 
L 3788 3628 
L 3788 4281 
L 1581 4281 
L 1581 2719 
L 3175 2719 
L 3175 3303 
L 3559 3303 
L 3559 1753 
L 3175 1753 
L 3175 2338 
L 1581 2338 
L 1581 331 
L 2328 331 
L 2328 0 
L 353 0 
z
" transform="scale(0.015625)"/>
        <path id="DejaVuSerif-62" d="M 738 331 
L 738 4531 
L 184 4531 
L 184 4863 
L 1313 4863 
L 1313 2803 
Q 1481 3116 1742 3264 
Q 2003 3413 2388 3413 
Q 3000 3413 3387 2928 
Q 3775 2444 3775 1663 
Q 3775 881 3387 395 
Q 3000 -91 2388 -91 
Q 2003 -91 1742 57 
Q 1481 206 1313 519 
L 1313 0 
L 184 0 
L 184 331 
L 738 331 
z
M 1313 1497 
Q 1313 897 1542 583 
Q 1772 269 2209 269 
Q 2650 269 2876 622 
Q 3103 975 3103 1663 
Q 3103 2353 2876 2703 
Q 2650 3053 2209 3053 
Q 1772 3053 1542 2737 
Q 1313 2422 1313 1825 
L 1313 1497 
z
" transform="scale(0.015625)"/>
       </defs>
       <use xlink:href="#DejaVuSerif-46"/>
       <use xlink:href="#DejaVuSerif-65" x="63.884766"/>
       <use xlink:href="#DejaVuSerif-62" x="123.064453"/>
       <use xlink:href="#DejaVuSerif-20" x="187.078125"/>
       <use xlink:href="#DejaVuSerif-32" x="218.865234"/>
       <use xlink:href="#DejaVuSerif-30" x="282.488281"/>
       <use xlink:href="#DejaVuSerif-32" x="346.111328"/>
       <use xlink:href="#DejaVuSerif-36" x="409.734375"/>
      </g>
     </g>
    </g>
   </g>
   <g id="matplotlib.axis_2">
    <g id="ytick_1">
     <g id="line2d_7">
      <path d="M 48.322812 153.72647 
L 495.11625 153.72647 
" clip-path="url(#pded21082ae)" style="fill: none; stroke: #b0b0b0; stroke-opacity: 0.25; stroke-width: 0.5; stroke-linecap: square"/>
     </g>
     <g id="line2d_8">
      <defs>
       <path id="mad5c484f4d" d="M 0 0 
L -3.5 0 
" style="stroke: #000000; stroke-width: 0.8"/>
      </defs>
      <g>
       <use xlink:href="#mad5c484f4d" x="48.322812" y="153.72647" style="stroke: #000000; stroke-width: 0.8"/>
      </g>
     </g>
     <g id="text_4">
      <!-- 0.00 -->
      <g transform="translate(23.510312 156.765845) scale(0.08 -0.08)">
       <defs>
        <path id="DejaVuSerif-2e" d="M 603 325 
Q 603 500 722 622 
Q 841 744 1019 744 
Q 1191 744 1312 622 
Q 1434 500 1434 325 
Q 1434 153 1312 31 
Q 1191 -91 1019 -91 
Q 841 -91 722 29 
Q 603 150 603 325 
z
" transform="scale(0.015625)"/>
       </defs>
       <use xlink:href="#DejaVuSerif-30"/>
       <use xlink:href="#DejaVuSerif-2e" x="63.623047"/>
       <use xlink:href="#DejaVuSerif-30" x="95.410156"/>
       <use xlink:href="#DejaVuSerif-30" x="159.033203"/>
      </g>
     </g>
    </g>
    <g id="ytick_2">
     <g id="line2d_9">
      <path d="M 48.322812 125.259892 
L 495.11625 125.259892 
" clip-path="url(#pded21082ae)" style="fill: none; stroke: #b0b0b0; stroke-opacity: 0.25; stroke-width: 0.5; stroke-linecap: square"/>
     </g>
     <g id="line2d_10">
      <g>
       <use xlink:href="#mad5c484f4d" x="48.322812" y="125.259892" style="stroke: #000000; stroke-width: 0.8"/>
      </g>
     </g>
     <g id="text_5">
      <!-- 0.05 -->
      <g transform="translate(23.510312 128.299267) scale(0.08 -0.08)">
       <use xlink:href="#DejaVuSerif-30"/>
       <use xlink:href="#DejaVuSerif-2e" x="63.623047"/>
       <use xlink:href="#DejaVuSerif-30" x="95.410156"/>
       <use xlink:href="#DejaVuSerif-35" x="159.033203"/>
      </g>
     </g>
    </g>
    <g id="ytick_3">
     <g id="line2d_11">
      <path d="M 48.322812 96.793314 
L 495.11625 96.793314 
" clip-path="url(#pded21082ae)" style="fill: none; stroke: #b0b0b0; stroke-opacity: 0.25; stroke-width: 0.5; stroke-linecap: square"/>
     </g>
     <g id="line2d_12">
      <g>
       <use xlink:href="#mad5c484f4d" x="48.322812" y="96.793314" style="stroke: #000000; stroke-width: 0.8"/>
      </g>
     </g>
     <g id="text_6">
      <!-- 0.10 -->
      <g transform="translate(23.510312 99.832689) scale(0.08 -0.08)">
       <defs>
        <path id="DejaVuSerif-31" d="M 909 0 
L 909 331 
L 1722 331 
L 1722 4213 
L 781 3603 
L 781 4013 
L 1919 4750 
L 2350 4750 
L 2350 331 
L 3163 331 
L 3163 0 
L 909 0 
z
" transform="scale(0.015625)"/>
       </defs>
       <use xlink:href="#DejaVuSerif-30"/>
       <use xlink:href="#DejaVuSerif-2e" x="63.623047"/>
       <use xlink:href="#DejaVuSerif-31" x="95.410156"/>
       <use xlink:href="#DejaVuSerif-30" x="159.033203"/>
      </g>
     </g>
    </g>
    <g id="ytick_4">
     <g id="line2d_13">
      <path d="M 48.322812 68.326736 
L 495.11625 68.326736 
" clip-path="url(#pded21082ae)" style="fill: none; stroke: #b0b0b0; stroke-opacity: 0.25; stroke-width: 0.5; stroke-linecap: square"/>
     </g>
     <g id="line2d_14">
      <g>
       <use xlink:href="#mad5c484f4d" x="48.322812" y="68.326736" style="stroke: #000000; stroke-width: 0.8"/>
      </g>
     </g>
     <g id="text_7">
      <!-- 0.15 -->
      <g transform="translate(23.510312 71.366111) scale(0.08 -0.08)">
       <use xlink:href="#DejaVuSerif-30"/>
       <use xlink:href="#DejaVuSerif-2e" x="63.623047"/>
       <use xlink:href="#DejaVuSerif-31" x="95.410156"/>
       <use xlink:href="#DejaVuSerif-35" x="159.033203"/>
      </g>
     </g>
    </g>
    <g id="ytick_5">
     <g id="line2d_15">
      <path d="M 48.322812 39.860159 
L 495.11625 39.860159 
" clip-path="url(#pded21082ae)" style="fill: none; stroke: #b0b0b0; stroke-opacity: 0.25; stroke-width: 0.5; stroke-linecap: square"/>
     </g>
     <g id="line2d_16">
      <g>
       <use xlink:href="#mad5c484f4d" x="48.322812" y="39.860159" style="stroke: #000000; stroke-width: 0.8"/>
      </g>
     </g>
     <g id="text_8">
      <!-- 0.20 -->
      <g transform="translate(23.510312 42.899534) scale(0.08 -0.08)">
       <use xlink:href="#DejaVuSerif-30"/>
       <use xlink:href="#DejaVuSerif-2e" x="63.623047"/>
       <use xlink:href="#DejaVuSerif-32" x="95.410156"/>
       <use xlink:href="#DejaVuSerif-30" x="159.033203"/>
      </g>
     </g>
    </g>
    <g id="text_9">
     <!-- % -->
     <g transform="translate(17.638594 96.779226) rotate(-90) scale(0.09 -0.09)">
      <defs>
       <path id="DejaVuSerif-25" d="M 1434 4459 
Q 1159 4459 1004 4200 
Q 850 3941 850 3475 
Q 850 3016 1008 2753 
Q 1166 2491 1434 2491 
Q 1700 2491 1854 2752 
Q 2009 3013 2009 3475 
Q 2009 3938 1854 4198 
Q 1700 4459 1434 4459 
z
M 4653 2169 
Q 4381 2169 4226 1906 
Q 4072 1644 4072 1178 
Q 4072 719 4228 458 
Q 4384 197 4653 197 
Q 4922 197 5075 458 
Q 5228 719 5228 1178 
Q 5228 1641 5073 1905 
Q 4919 2169 4653 2169 
z
M 4653 2450 
Q 5147 2450 5437 2106 
Q 5728 1763 5728 1178 
Q 5728 594 5436 251 
Q 5144 -91 4653 -91 
Q 4153 -91 3862 251 
Q 3572 594 3572 1178 
Q 3572 1766 3864 2108 
Q 4156 2450 4653 2450 
z
M 4263 4750 
L 4738 4750 
L 1819 -91 
L 1344 -91 
L 4263 4750 
z
M 1428 4750 
Q 1922 4750 2215 4408 
Q 2509 4066 2509 3481 
Q 2509 2891 2217 2550 
Q 1925 2209 1428 2209 
Q 931 2209 642 2551 
Q 353 2894 353 3481 
Q 353 4063 643 4406 
Q 934 4750 1428 4750 
z
" transform="scale(0.015625)"/>
      </defs>
      <use xlink:href="#DejaVuSerif-25"/>
     </g>
    </g>
   </g>
   <g id="patch_3">
    <path d="M 48.322812 159.848764 
L 48.322812 25.158281 
" style="fill: none; stroke: #000000; stroke-width: 0.6; stroke-linejoin: miter; stroke-linecap: square"/>
   </g>
   <g id="patch_4">
    <path d="M 48.322812 159.848764 
L 495.11625 159.848764 
" style="fill: none; stroke: #000000; stroke-width: 0.6; stroke-linejoin: miter; stroke-linecap: square"/>
   </g>
   <g id="line2d_17">
    <path d="M 68.631605 35.204758 
L 73.04656 38.584533 
L 77.461515 39.216787 
L 81.87647 39.676705 
L 86.291425 39.606988 
L 90.70638 39.785983 
L 95.121335 40.011384 
L 99.53629 40.56878 
L 103.951244 40.797003 
L 108.366199 40.83045 
L 112.781154 40.946816 
L 117.196109 41.393693 
L 121.611064 41.826791 
L 126.026019 42.558887 
L 130.440974 43.266019 
L 134.855929 42.796531 
L 139.270884 44.073387 
L 143.685839 44.119883 
L 148.100794 44.062401 
L 152.515749 44.940952 
L 156.930703 45.36962 
L 161.345658 45.382532 
L 165.760613 45.790379 
L 170.175568 43.165687 
L 174.590523 42.894468 
L 179.005478 43.78249 
L 183.420433 44.019392 
L 187.835388 44.377417 
L 192.250343 45.036062 
L 196.665298 44.72261 
L 201.080253 46.653491 
L 205.495208 47.653709 
L 209.910162 48.367899 
L 214.325117 49.140147 
L 218.740072 49.077265 
L 223.155027 48.319793 
L 227.569982 49.396909 
L 231.984937 49.87783 
L 236.399892 49.87279 
L 240.814847 49.290977 
L 245.229802 48.569105 
L 249.644757 47.776025 
L 254.059712 47.87458 
L 258.474667 46.575033 
L 262.889621 44.55506 
L 267.304576 43.09519 
L 271.719531 42.680109 
L 276.134486 42.949102 
L 280.549441 44.394676 
L 284.964396 45.885977 
L 289.379351 47.00224 
L 293.794306 49.560152 
L 298.209261 52.209013 
L 302.624216 53.313593 
L 307.039171 53.555189 
L 311.454125 53.437424 
L 315.86908 53.135461 
L 320.284035 53.712387 
L 324.69899 53.89131 
L 329.113945 53.173488 
L 333.5289 53.208639 
L 337.943855 53.247448 
L 342.35881 53.980821 
L 346.773765 54.469546 
L 351.18872 57.628189 
L 355.603675 55.21066 
L 360.01863 55.341691 
L 364.433584 55.763545 
L 368.848539 56.199506 
L 373.263494 56.039447 
L 377.678449 55.855791 
L 382.093404 52.039616 
L 386.508359 53.056494 
L 390.923314 53.876888 
L 395.338269 53.767656 
L 399.753224 53.736782 
L 404.168179 53.568679 
L 408.583134 53.78341 
L 412.998089 55.092963 
L 417.413043 56.594853 
L 421.827998 56.154432 
L 426.242953 55.549568 
L 430.657908 54.926955 
L 435.072863 54.846154 
L 439.487818 54.606077 
L 443.902773 54.036092 
L 448.317728 54.046757 
L 452.732683 53.763226 
L 457.147638 53.925217 
L 461.562593 54.647504 
L 465.977548 55.08195 
L 470.392502 55.725476 
L 474.807457 56.700689 
" clip-path="url(#pded21082ae)" style="fill: none; stroke: #cc3333; stroke-width: 1.5; stroke-linecap: square"/>
   </g>
   <g id="text_10">
    <!-- NEAR — DA Utilization (%) -->
    <g transform="translate(195.264375 19.158281) scale(0.11 -0.11)">
     <defs>
      <path id="DejaVuSerif-4e" d="M 313 0 
L 313 331 
L 941 331 
L 941 4331 
L 313 4331 
L 313 4666 
L 1509 4666 
L 4306 984 
L 4306 4331 
L 3681 4331 
L 3681 4666 
L 5319 4666 
L 5319 4331 
L 4691 4331 
L 4691 -91 
L 4313 -91 
L 1325 3841 
L 1325 331 
L 1953 331 
L 1953 0 
L 313 0 
z
" transform="scale(0.015625)"/>
      <path id="DejaVuSerif-45" d="M 353 0 
L 353 331 
L 947 331 
L 947 4331 
L 353 4331 
L 353 4666 
L 4109 4666 
L 4109 3628 
L 3725 3628 
L 3725 4281 
L 1581 4281 
L 1581 2719 
L 3109 2719 
L 3109 3303 
L 3494 3303 
L 3494 1753 
L 3109 1753 
L 3109 2338 
L 1581 2338 
L 1581 384 
L 3775 384 
L 3775 1038 
L 4159 1038 
L 4159 0 
L 353 0 
z
" transform="scale(0.015625)"/>
      <path id="DejaVuSerif-41" d="M 1281 1691 
L 2994 1691 
L 2138 3909 
L 1281 1691 
z
M -38 0 
L -38 331 
L 372 331 
L 2034 4666 
L 2559 4666 
L 4225 331 
L 4684 331 
L 4684 0 
L 2988 0 
L 2988 331 
L 3506 331 
L 3116 1356 
L 1153 1356 
L 763 331 
L 1275 331 
L 1275 0 
L -38 0 
z
" transform="scale(0.015625)"/>
      <path id="DejaVuSerif-52" d="M 3066 2316 
Q 3284 2256 3442 2114 
Q 3600 1972 3725 1716 
L 4403 331 
L 4972 331 
L 4972 0 
L 3872 0 
L 3144 1484 
Q 2934 1916 2759 2042 
Q 2584 2169 2278 2169 
L 1581 2169 
L 1581 331 
L 2241 331 
L 2241 0 
L 353 0 
L 353 331 
L 947 331 
L 947 4331 
L 353 4331 
L 353 4666 
L 2719 4666 
Q 3400 4666 3770 4341 
Q 4141 4016 4141 3419 
Q 4141 2938 3870 2661 
Q 3600 2384 3066 2316 
z
M 1581 2503 
L 2503 2503 
Q 2975 2503 3200 2726 
Q 3425 2950 3425 3419 
Q 3425 3888 3200 4109 
Q 2975 4331 2503 4331 
L 1581 4331 
L 1581 2503 
z
" transform="scale(0.015625)"/>
      <path id="DejaVuSerif-2014" d="M 281 1906 
L 6119 1906 
L 6119 1491 
L 281 1491 
L 281 1906 
z
" transform="scale(0.015625)"/>
      <path id="DejaVuSerif-55" d="M 897 4331 
L 300 4331 
L 300 4666 
L 2125 4666 
L 2125 4331 
L 1528 4331 
L 1528 1919 
Q 1528 1025 1820 672 
Q 2113 319 2828 319 
Q 3544 319 3836 672 
Q 4128 1025 4128 1919 
L 4128 4331 
L 3531 4331 
L 3531 4666 
L 5106 4666 
L 5106 4331 
L 4513 4331 
L 4513 1856 
Q 4513 791 4103 350 
Q 3694 -91 2713 -91 
Q 1731 -91 1314 353 
Q 897 797 897 1856 
L 897 4331 
z
" transform="scale(0.015625)"/>
      <path id="DejaVuSerif-74" d="M 691 2988 
L 184 2988 
L 184 3322 
L 691 3322 
L 691 4353 
L 1269 4353 
L 1269 3322 
L 2350 3322 
L 2350 2988 
L 1269 2988 
L 1269 878 
Q 1269 456 1350 337 
Q 1431 219 1650 219 
Q 1875 219 1978 351 
Q 2081 484 2088 781 
L 2522 781 
Q 2497 328 2275 118 
Q 2053 -91 1600 -91 
Q 1103 -91 897 129 
Q 691 350 691 878 
L 691 2988 
z
" transform="scale(0.015625)"/>
      <path id="DejaVuSerif-69" d="M 622 4353 
Q 622 4497 726 4603 
Q 831 4709 978 4709 
Q 1122 4709 1226 4603 
Q 1331 4497 1331 4353 
Q 1331 4206 1228 4103 
Q 1125 4000 978 4000 
Q 831 4000 726 4103 
Q 622 4206 622 4353 
z
M 1356 331 
L 1900 331 
L 1900 0 
L 231 0 
L 231 331 
L 781 331 
L 781 2988 
L 231 2988 
L 231 3322 
L 1356 3322 
L 1356 331 
z
" transform="scale(0.015625)"/>
      <path id="DejaVuSerif-6c" d="M 1313 331 
L 1856 331 
L 1856 0 
L 184 0 
L 184 331 
L 738 331 
L 738 4531 
L 184 4531 
L 184 4863 
L 1313 4863 
L 1313 331 
z
" transform="scale(0.015625)"/>
      <path id="DejaVuSerif-7a" d="M 256 0 
L 256 269 
L 2338 2988 
L 691 2988 
L 691 2413 
L 359 2413 
L 359 3322 
L 3078 3322 
L 3078 3053 
L 997 331 
L 2803 331 
L 2803 934 
L 3138 934 
L 3138 0 
L 256 0 
z
" transform="scale(0.015625)"/>
      <path id="DejaVuSerif-6f" d="M 1925 219 
Q 2388 219 2623 584 
Q 2859 950 2859 1663 
Q 2859 2375 2623 2739 
Q 2388 3103 1925 3103 
Q 1463 3103 1227 2739 
Q 991 2375 991 1663 
Q 991 950 1228 584 
Q 1466 219 1925 219 
z
M 1925 -91 
Q 1200 -91 759 389 
Q 319 869 319 1663 
Q 319 2456 758 2934 
Q 1197 3413 1925 3413 
Q 2653 3413 3092 2934 
Q 3531 2456 3531 1663 
Q 3531 869 3092 389 
Q 2653 -91 1925 -91 
z
" transform="scale(0.015625)"/>
      <path id="DejaVuSerif-28" d="M 2041 -997 
Q 1281 -656 893 83 
Q 506 822 506 1931 
Q 506 3044 893 3783 
Q 1281 4522 2041 4863 
L 2041 4556 
Q 1559 4225 1350 3623 
Q 1141 3022 1141 1931 
Q 1141 844 1350 242 
Q 1559 -359 2041 -691 
L 2041 -997 
z
" transform="scale(0.015625)"/>
      <path id="DejaVuSerif-29" d="M 453 -997 
L 453 -691 
Q 934 -359 1145 242 
Q 1356 844 1356 1931 
Q 1356 3022 1145 3623 
Q 934 4225 453 4556 
L 453 4863 
Q 1216 4522 1603 3783 
Q 1991 3044 1991 1931 
Q 1991 822 1603 83 
Q 1216 -656 453 -997 
z
" transform="scale(0.015625)"/>
     </defs>
     <use xlink:href="#DejaVuSerif-4e"/>
     <use xlink:href="#DejaVuSerif-45" x="87.5"/>
     <use xlink:href="#DejaVuSerif-41" x="160.498047"/>
     <use xlink:href="#DejaVuSerif-52" x="232.714844"/>
     <use xlink:href="#DejaVuSerif-20" x="308.007812"/>
     <use xlink:href="#DejaVuSerif-2014" x="339.794922"/>
     <use xlink:href="#DejaVuSerif-20" x="439.794922"/>
     <use xlink:href="#DejaVuSerif-44" x="471.582031"/>
     <use xlink:href="#DejaVuSerif-41" x="551.757812"/>
     <use xlink:href="#DejaVuSerif-20" x="623.974609"/>
     <use xlink:href="#DejaVuSerif-55" x="655.761719"/>
     <use xlink:href="#DejaVuSerif-74" x="740.039062"/>
     <use xlink:href="#DejaVuSerif-69" x="780.224609"/>
     <use xlink:href="#DejaVuSerif-6c" x="812.207031"/>
     <use xlink:href="#DejaVuSerif-69" x="844.189453"/>
     <use xlink:href="#DejaVuSerif-7a" x="876.171875"/>
     <use xlink:href="#DejaVuSerif-61" x="928.857422"/>
     <use xlink:href="#DejaVuSerif-74" x="988.476562"/>
     <use xlink:href="#DejaVuSerif-69" x="1028.662109"/>
     <use xlink:href="#DejaVuSerif-6f" x="1060.644531"/>
     <use xlink:href="#DejaVuSerif-6e" x="1120.849609"/>
     <use xlink:href="#DejaVuSerif-20" x="1185.253906"/>
     <use xlink:href="#DejaVuSerif-28" x="1217.041016"/>
     <use xlink:href="#DejaVuSerif-25" x="1256.054688"/>
     <use xlink:href="#DejaVuSerif-29" x="1351.074219"/>
    </g>
   </g>
   <g id="legend_1">
    <g id="patch_5">
     <path d="M 421.555 55.157031 
L 489.51625 55.157031 
Q 491.11625 55.157031 491.11625 53.557031 
L 491.11625 30.758281 
Q 491.11625 29.158281 489.51625 29.158281 
L 421.555 29.158281 
Q 419.955 29.158281 419.955 30.758281 
L 419.955 53.557031 
Q 419.955 55.157031 421.555 55.157031 
z
" style="fill: #ffffff; opacity: 0.9; stroke: #cccccc; stroke-linejoin: miter"/>
    </g>
    <g id="patch_6">
     <path d="M 423.155 38.437031 
L 439.155 38.437031 
L 439.155 32.837031 
L 423.155 32.837031 
z
" style="fill: #b3cde3; fill-opacity: 0.6; stroke: #b3cde3; stroke-opacity: 0.6; stroke-linejoin: miter"/>
    </g>
    <g id="text_11">
     <!-- Utilization -->
     <g transform="translate(445.555 38.437031) scale(0.08 -0.08)">
      <use xlink:href="#DejaVuSerif-55"/>
      <use xlink:href="#DejaVuSerif-74" x="84.277344"/>
      <use xlink:href="#DejaVuSerif-69" x="124.462891"/>
      <use xlink:href="#DejaVuSerif-6c" x="156.445312"/>
      <use xlink:href="#DejaVuSerif-69" x="188.427734"/>
      <use xlink:href="#DejaVuSerif-7a" x="220.410156"/>
      <use xlink:href="#DejaVuSerif-61" x="273.095703"/>
      <use xlink:href="#DejaVuSerif-74" x="332.714844"/>
      <use xlink:href="#DejaVuSerif-69" x="372.900391"/>
      <use xlink:href="#DejaVuSerif-6f" x="404.882812"/>
      <use xlink:href="#DejaVuSerif-6e" x="465.087891"/>
     </g>
    </g>
    <g id="line2d_18">
     <path d="M 423.155 47.379531 
L 431.155 47.379531 
L 439.155 47.379531 
" style="fill: none; stroke: #cc3333; stroke-width: 1.5; stroke-linecap: square"/>
    </g>
    <g id="text_12">
     <!-- 7d avg -->
     <g transform="translate(445.555 50.179531) scale(0.08 -0.08)">
      <defs>
       <path id="DejaVuSerif-37" d="M 3609 4347 
L 1784 0 
L 1319 0 
L 3059 4153 
L 903 4153 
L 903 3578 
L 538 3578 
L 538 4666 
L 3609 4666 
L 3609 4347 
z
" transform="scale(0.015625)"/>
       <path id="DejaVuSerif-64" d="M 3359 331 
L 3909 331 
L 3909 0 
L 2784 0 
L 2784 519 
Q 2616 206 2355 57 
Q 2094 -91 1709 -91 
Q 1097 -91 708 395 
Q 319 881 319 1663 
Q 319 2444 706 2928 
Q 1094 3413 1709 3413 
Q 2094 3413 2355 3264 
Q 2616 3116 2784 2803 
L 2784 4531 
L 2241 4531 
L 2241 4863 
L 3359 4863 
L 3359 331 
z
M 2784 1497 
L 2784 1825 
Q 2784 2422 2554 2737 
Q 2325 3053 1888 3053 
Q 1444 3053 1217 2703 
Q 991 2353 991 1663 
Q 991 975 1217 622 
Q 1444 269 1888 269 
Q 2325 269 2554 583 
Q 2784 897 2784 1497 
z
" transform="scale(0.015625)"/>
       <path id="DejaVuSerif-76" d="M 1581 0 
L 359 2988 
L -19 2988 
L -19 3322 
L 1509 3322 
L 1509 2988 
L 978 2988 
L 1913 703 
L 2847 2988 
L 2350 2988 
L 2350 3322 
L 3597 3322 
L 3597 2988 
L 3225 2988 
L 2003 0 
L 1581 0 
z
" transform="scale(0.015625)"/>
       <path id="DejaVuSerif-67" d="M 3359 2988 
L 3359 72 
Q 3359 -644 2965 -1033 
Q 2572 -1422 1844 -1422 
Q 1516 -1422 1216 -1362 
Q 916 -1303 641 -1184 
L 641 -488 
L 941 -488 
Q 997 -813 1206 -963 
Q 1416 -1113 1806 -1113 
Q 2313 -1113 2548 -827 
Q 2784 -541 2784 72 
L 2784 519 
Q 2616 206 2355 57 
Q 2094 -91 1709 -91 
Q 1097 -91 708 395 
Q 319 881 319 1663 
Q 319 2444 706 2928 
Q 1094 3413 1709 3413 
Q 2094 3413 2355 3264 
Q 2616 3116 2784 2803 
L 2784 3322 
L 3909 3322 
L 3909 2988 
L 3359 2988 
z
M 2784 1825 
Q 2784 2422 2554 2737 
Q 2325 3053 1888 3053 
Q 1444 3053 1217 2703 
Q 991 2353 991 1663 
Q 991 975 1217 622 
Q 1444 269 1888 269 
Q 2325 269 2554 583 
Q 2784 897 2784 1497 
L 2784 1825 
z
" transform="scale(0.015625)"/>
      </defs>
      <use xlink:href="#DejaVuSerif-37"/>
      <use xlink:href="#DejaVuSerif-64" x="63.623047"/>
      <use xlink:href="#DejaVuSerif-20" x="127.636719"/>
      <use xlink:href="#DejaVuSerif-61" x="159.423828"/>
      <use xlink:href="#DejaVuSerif-76" x="219.042969"/>
      <use xlink:href="#DejaVuSerif-67" x="275.537109"/>
     </g>
    </g>
   </g>
  </g>
 </g>
 <defs>
  <clipPath id="pded21082ae">
   <rect x="48.322812" y="25.158281" width="446.793437" height="134.690483"/>
  </clipPath>
 </defs>
</svg>
