<?xml version="1.0" encoding="utf-8" standalone="no"?>
<!DOCTYPE svg PUBLIC "-//W3C//DTD SVG 1.1//EN"
  "http://www.w3.org/Graphics/SVG/1.1/DTD/svg11.dtd">
<svg xmlns:xlink="http://www.w3.org/1999/xlink" width="506.447813pt" height="203.307687pt" viewBox="0 0 506.447813 203.307687" xmlns="http://www.w3.org/2000/svg" version="1.1">
 <metadata>
  <rdf:RDF xmlns:dc="http://purl.org/dc/elements/1.1/" xmlns:cc="http://creativecommons.org/ns#" xmlns:rdf="http://www.w3.org/1999/02/22-rdf-syntax-ns#">
   <cc:Work>
    <dc:type rdf:resource="http://purl.org/dc/dcmitype/StillImage"/>
    <dc:date>2026-02-16T16:57:27.076748</dc:date>
    <dc:format>image/svg+xml</dc:format>
    <dc:creator>
     <cc:Agent>
      <dc:title>Matplotlib v3.10.8, https://matplotlib.org/</dc:title>
     </cc:Agent>
    </dc:creator>
   </cc:Work>
  </rdf:RDF>
 </metadata>
 <defs>
  <style type="text/css">*{stroke-linejoin: round; stroke-linecap: butt}</style>
 </defs>
 <g id="figure_1">
  <g id="patch_1">
   <path d="M 0 203.307687 
L 506.447813 203.307687 
L 506.447813 0 
L 0 0 
z
" style="fill: #ffffff"/>
  </g>
  <g id="axes_1">
   <g id="patch_2">
    <path d="M 48.322812 159.53686 
L 495.647813 159.53686 
L 495.647813 25.158281 
L 48.322812 25.158281 
z
" style="fill: #ffffff"/>
   </g>
   <g id="FillBetweenPolyCollection_1">
    <defs>
     <path id="mb19b96f2ba" d="M 68.655767 -168.126194 
L 68.655767 -49.878944 
L 73.075975 -49.878944 
L 77.496182 -49.878944 
L 81.91639 -49.878944 
L 86.336597 -49.878944 
L 90.756805 -49.878944 
L 95.177012 -49.878944 
L 99.59722 -49.878944 
L 104.017427 -49.878944 
L 108.437635 -49.878944 
L 112.857842 -49.878944 
L 117.27805 -49.878944 
L 121.698257 -49.878944 
L 126.118465 -49.878944 
L 130.538672 -49.878944 
L 134.95888 -49.878944 
L 139.379087 -49.878944 
L 143.799295 -49.878944 
L 148.219502 -49.878944 
L 152.63971 -49.878944 
L 157.059917 -49.878944 
L 161.480125 -49.878944 
L 165.900332 -49.878944 
L 170.32054 -49.878944 
L 174.740747 -49.878944 
L 179.160955 -49.878944 
L 183.581162 -49.878944 
L 188.00137 -49.878944 
L 192.421577 -49.878944 
L 196.841785 -49.878944 
L 201.261992 -49.878944 
L 205.6822 -49.878944 
L 210.102407 -49.878944 
L 214.522615 -49.878944 
L 218.942822 -49.878944 
L 223.36303 -49.878944 
L 227.783237 -49.878944 
L 232.203445 -49.878944 
L 236.623652 -49.878944 
L 241.04386 -49.878944 
L 245.464067 -49.878944 
L 249.884275 -49.878944 
L 254.304482 -49.878944 
L 258.72469 -49.878944 
L 263.144897 -49.878944 
L 267.565105 -49.878944 
L 271.985313 -49.878944 
L 276.40552 -49.878944 
L 280.825728 -49.878944 
L 285.245935 -49.878944 
L 289.666143 -49.878944 
L 294.08635 -49.878944 
L 298.506558 -49.878944 
L 302.926765 -49.878944 
L 307.346973 -49.878944 
L 311.76718 -49.878944 
L 316.187388 -49.878944 
L 320.607595 -49.878944 
L 325.027803 -49.878944 
L 329.44801 -49.878944 
L 333.868218 -49.878944 
L 338.288425 -49.878944 
L 342.708633 -49.878944 
L 347.12884 -49.878944 
L 351.549048 -49.878944 
L 355.969255 -49.878944 
L 360.389463 -49.878944 
L 364.80967 -49.878944 
L 369.229878 -49.878944 
L 373.650085 -49.878944 
L 378.070293 -49.878944 
L 382.4905 -49.878944 
L 386.910708 -49.878944 
L 391.330915 -49.878944 
L 395.751123 -49.878944 
L 400.17133 -49.878944 
L 404.591538 -49.878944 
L 409.011745 -49.878944 
L 413.431953 -49.878944 
L 417.85216 -49.878944 
L 422.272368 -49.878944 
L 426.692575 -49.878944 
L 431.112783 -49.878944 
L 435.53299 -49.878944 
L 439.953198 -49.878944 
L 444.373405 -49.878944 
L 448.793613 -49.878944 
L 453.21382 -49.878944 
L 457.634028 -49.878944 
L 462.054235 -49.878944 
L 466.474443 -49.878944 
L 470.89465 -49.878944 
L 475.314858 -49.878944 
L 475.314858 -144.752925 
L 475.314858 -144.752925 
L 470.89465 -144.452871 
L 466.474443 -142.779556 
L 462.054235 -144.134074 
L 457.634028 -150.015517 
L 453.21382 -151.215495 
L 448.793613 -149.409845 
L 444.373405 -151.563614 
L 439.953198 -148.947121 
L 435.53299 -145.813631 
L 431.112783 -149.178377 
L 426.692575 -151.146825 
L 422.272368 -149.235379 
L 417.85216 -149.484328 
L 413.431953 -147.582959 
L 409.011745 -147.270473 
L 404.591538 -145.249332 
L 400.17133 -144.830179 
L 395.751123 -146.922581 
L 391.330915 -146.159574 
L 386.910708 -159.973211 
L 382.4905 -156.7286 
L 378.070293 -148.770107 
L 373.650085 -144.075337 
L 369.229878 -144.614565 
L 364.80967 -146.159727 
L 360.389463 -151.889035 
L 355.969255 -167.07487 
L 351.549048 -130.077234 
L 347.12884 -147.487495 
L 342.708633 -142.957515 
L 338.288425 -147.659224 
L 333.868218 -149.105872 
L 329.44801 -152.804127 
L 325.027803 -150.191355 
L 320.607595 -152.136534 
L 316.187388 -150.900647 
L 311.76718 -148.079237 
L 307.346973 -147.930256 
L 302.926765 -149.35136 
L 298.506558 -147.791011 
L 294.08635 -151.440917 
L 289.666143 -156.165663 
L 285.245935 -148.791798 
L 280.825728 -147.256794 
L 276.40552 -149.617513 
L 271.985313 -157.065513 
L 267.565105 -166.290099 
L 263.144897 -169.304836 
L 258.72469 -163.961411 
L 254.304482 -159.206733 
L 249.884275 -157.352375 
L 245.464067 -151.496105 
L 241.04386 -154.166676 
L 236.623652 -156.094673 
L 232.203445 -155.197765 
L 227.783237 -154.885654 
L 223.36303 -159.895014 
L 218.942822 -151.813672 
L 214.522615 -146.454703 
L 210.102407 -150.103416 
L 205.6822 -156.059474 
L 201.261992 -158.556421 
L 196.841785 -162.408006 
L 192.421577 -154.604986 
L 188.00137 -151.37452 
L 183.581162 -151.847921 
L 179.160955 -155.091166 
L 174.740747 -163.044785 
L 170.32054 -172.041288 
L 165.900332 -160.218923 
L 161.480125 -159.204825 
L 157.059917 -153.874894 
L 152.63971 -153.502394 
L 148.219502 -161.292926 
L 143.799295 -161.150645 
L 139.379087 -153.710996 
L 134.95888 -163.067241 
L 130.538672 -159.294997 
L 126.118465 -156.868619 
L 121.698257 -159.638012 
L 117.27805 -160.891482 
L 112.857842 -161.475362 
L 108.437635 -162.628292 
L 104.017427 -159.788438 
L 99.59722 -164.233458 
L 95.177012 -161.981422 
L 90.756805 -162.662675 
L 86.336597 -164.01238 
L 81.91639 -162.288041 
L 77.496182 -162.861876 
L 73.075975 -161.382297 
L 68.655767 -168.126194 
z
" style="stroke: #b3cde3; stroke-opacity: 0.6"/>
    </defs>
    <g clip-path="url(#p6e4f3a6f90)">
     <use xlink:href="#mb19b96f2ba" x="0" y="203.307687" style="fill: #b3cde3; fill-opacity: 0.6; stroke: #b3cde3; stroke-opacity: 0.6"/>
    </g>
   </g>
   <g id="matplotlib.axis_1">
    <g id="xtick_1">
     <g id="line2d_1">
      <path d="M 161.480125 159.53686 
L 161.480125 25.158281 
" clip-path="url(#p6e4f3a6f90)" style="fill: none; stroke: #b0b0b0; stroke-opacity: 0.25; stroke-width: 0.5; stroke-linecap: square"/>
     </g>
     <g id="line2d_2">
      <defs>
       <path id="m1c7f75aceb" d="M 0 0 
L 0 3.5 
" style="stroke: #000000; stroke-width: 0.8"/>
      </defs>
      <g>
       <use xlink:href="#m1c7f75aceb" x="161.480125" y="159.53686" style="stroke: #000000; stroke-width: 0.8"/>
      </g>
     </g>
     <g id="text_1">
      <!-- Dec 2025 -->
      <g transform="translate(127.279208 191.066837) rotate(-30) scale(0.08 -0.08)">
       <defs>
        <path id="DejaVuSerif-44" d="M 1581 331 
L 2163 331 
Q 3072 331 3558 850 
Q 4044 1369 4044 2338 
Q 4044 3306 3559 3818 
Q 3075 4331 2163 4331 
L 1581 4331 
L 1581 331 
z
M 353 0 
L 353 331 
L 947 331 
L 947 4331 
L 353 4331 
L 353 4666 
L 2209 4666 
Q 3416 4666 4089 4050 
Q 4763 3434 4763 2338 
Q 4763 1238 4088 619 
Q 3413 0 2209 0 
L 353 0 
z
" transform="scale(0.015625)"/>
        <path id="DejaVuSerif-65" d="M 3469 1600 
L 991 1600 
L 991 1575 
Q 991 903 1244 561 
Q 1497 219 1991 219 
Q 2369 219 2611 417 
Q 2853 616 2950 1006 
L 3413 1006 
Q 3275 459 2904 184 
Q 2534 -91 1931 -91 
Q 1203 -91 761 389 
Q 319 869 319 1663 
Q 319 2450 753 2931 
Q 1188 3413 1894 3413 
Q 2647 3413 3050 2948 
Q 3453 2484 3469 1600 
z
M 2791 1931 
Q 2772 2513 2545 2808 
Q 2319 3103 1894 3103 
Q 1497 3103 1269 2806 
Q 1041 2509 991 1931 
L 2791 1931 
z
" transform="scale(0.015625)"/>
        <path id="DejaVuSerif-63" d="M 3291 997 
Q 3169 466 2822 187 
Q 2475 -91 1925 -91 
Q 1200 -91 759 389 
Q 319 869 319 1663 
Q 319 2459 759 2936 
Q 1200 3413 1925 3413 
Q 2241 3413 2553 3339 
Q 2866 3266 3181 3116 
L 3181 2266 
L 2847 2266 
Q 2781 2703 2561 2903 
Q 2341 3103 1931 3103 
Q 1466 3103 1228 2742 
Q 991 2381 991 1663 
Q 991 944 1227 581 
Q 1463 219 1931 219 
Q 2303 219 2525 412 
Q 2747 606 2828 997 
L 3291 997 
z
" transform="scale(0.015625)"/>
        <path id="DejaVuSerif-20" transform="scale(0.015625)"/>
        <path id="DejaVuSerif-32" d="M 819 3553 
L 469 3553 
L 469 4384 
Q 803 4563 1142 4656 
Q 1481 4750 1806 4750 
Q 2534 4750 2956 4397 
Q 3378 4044 3378 3438 
Q 3378 2753 2422 1800 
Q 2347 1728 2309 1691 
L 1131 513 
L 3078 513 
L 3078 1088 
L 3444 1088 
L 3444 0 
L 434 0 
L 434 341 
L 1850 1753 
Q 2319 2222 2519 2614 
Q 2719 3006 2719 3438 
Q 2719 3909 2473 4175 
Q 2228 4441 1797 4441 
Q 1350 4441 1106 4219 
Q 863 3997 819 3553 
z
" transform="scale(0.015625)"/>
        <path id="DejaVuSerif-30" d="M 2034 219 
Q 2513 219 2750 744 
Q 2988 1269 2988 2328 
Q 2988 3391 2750 3916 
Q 2513 4441 2034 4441 
Q 1556 4441 1318 3916 
Q 1081 3391 1081 2328 
Q 1081 1269 1318 744 
Q 1556 219 2034 219 
z
M 2034 -91 
Q 1275 -91 848 546 
Q 422 1184 422 2328 
Q 422 3475 848 4112 
Q 1275 4750 2034 4750 
Q 2797 4750 3222 4112 
Q 3647 3475 3647 2328 
Q 3647 1184 3222 546 
Q 2797 -91 2034 -91 
z
" transform="scale(0.015625)"/>
        <path id="DejaVuSerif-35" d="M 3219 4666 
L 3219 4153 
L 1081 4153 
L 1081 2816 
Q 1244 2928 1461 2984 
Q 1678 3041 1947 3041 
Q 2703 3041 3140 2622 
Q 3578 2203 3578 1478 
Q 3578 738 3136 323 
Q 2694 -91 1894 -91 
Q 1572 -91 1234 -12 
Q 897 66 544 225 
L 544 1131 
L 897 1131 
Q 925 688 1179 453 
Q 1434 219 1894 219 
Q 2388 219 2653 544 
Q 2919 869 2919 1478 
Q 2919 2084 2655 2407 
Q 2391 2731 1894 2731 
Q 1613 2731 1398 2631 
Q 1184 2531 1019 2322 
L 750 2322 
L 750 4666 
L 3219 4666 
z
" transform="scale(0.015625)"/>
       </defs>
       <use xlink:href="#DejaVuSerif-44"/>
       <use xlink:href="#DejaVuSerif-65" transform="translate(80.175781 0)"/>
       <use xlink:href="#DejaVuSerif-63" transform="translate(139.355469 0)"/>
       <use xlink:href="#DejaVuSerif-20" transform="translate(195.361328 0)"/>
       <use xlink:href="#DejaVuSerif-32" transform="translate(227.148438 0)"/>
       <use xlink:href="#DejaVuSerif-30" transform="translate(290.771484 0)"/>
       <use xlink:href="#DejaVuSerif-32" transform="translate(354.394531 0)"/>
       <use xlink:href="#DejaVuSerif-35" transform="translate(418.017578 0)"/>
      </g>
     </g>
    </g>
    <g id="xtick_2">
     <g id="line2d_3">
      <path d="M 298.506558 159.53686 
L 298.506558 25.158281 
" clip-path="url(#p6e4f3a6f90)" style="fill: none; stroke: #b0b0b0; stroke-opacity: 0.25; stroke-width: 0.5; stroke-linecap: square"/>
     </g>
     <g id="line2d_4">
      <g>
       <use xlink:href="#m1c7f75aceb" x="298.506558" y="159.53686" style="stroke: #000000; stroke-width: 0.8"/>
      </g>
     </g>
     <g id="text_2">
      <!-- Jan 2026 -->
      <g transform="translate(266.469622 189.817462) rotate(-30) scale(0.08 -0.08)">
       <defs>
        <path id="DejaVuSerif-4a" d="M -538 -1119 
L -538 -384 
L -181 -384 
Q -172 -694 -34 -845 
Q 103 -997 378 -997 
Q 750 -997 897 -762 
Q 1044 -528 1044 153 
L 1044 4331 
L 319 4331 
L 319 4666 
L 2272 4666 
L 2272 4331 
L 1678 4331 
L 1678 128 
Q 1678 -644 1368 -987 
Q 1059 -1331 372 -1331 
Q 150 -1331 -79 -1278 
Q -309 -1225 -538 -1119 
z
" transform="scale(0.015625)"/>
        <path id="DejaVuSerif-61" d="M 2547 1044 
L 2547 1747 
L 1806 1747 
Q 1378 1747 1168 1562 
Q 959 1378 959 997 
Q 959 650 1171 447 
Q 1384 244 1747 244 
Q 2106 244 2326 466 
Q 2547 688 2547 1044 
z
M 3122 2075 
L 3122 331 
L 3634 331 
L 3634 0 
L 2547 0 
L 2547 359 
Q 2356 128 2106 18 
Q 1856 -91 1522 -91 
Q 969 -91 644 203 
Q 319 497 319 997 
Q 319 1513 691 1797 
Q 1063 2081 1741 2081 
L 2547 2081 
L 2547 2309 
Q 2547 2688 2317 2895 
Q 2088 3103 1672 3103 
Q 1328 3103 1125 2947 
Q 922 2791 872 2484 
L 575 2484 
L 575 3156 
Q 875 3284 1158 3348 
Q 1441 3413 1709 3413 
Q 2400 3413 2761 3070 
Q 3122 2728 3122 2075 
z
" transform="scale(0.015625)"/>
        <path id="DejaVuSerif-6e" d="M 263 0 
L 263 331 
L 781 331 
L 781 2988 
L 231 2988 
L 231 3322 
L 1356 3322 
L 1356 2731 
Q 1516 3069 1770 3241 
Q 2025 3413 2363 3413 
Q 2913 3413 3172 3097 
Q 3431 2781 3431 2113 
L 3431 331 
L 3944 331 
L 3944 0 
L 2356 0 
L 2356 331 
L 2853 331 
L 2853 1931 
Q 2853 2541 2703 2767 
Q 2553 2994 2175 2994 
Q 1775 2994 1565 2701 
Q 1356 2409 1356 1850 
L 1356 331 
L 1856 331 
L 1856 0 
L 263 0 
z
" transform="scale(0.015625)"/>
        <path id="DejaVuSerif-36" d="M 2094 219 
Q 2534 219 2771 542 
Q 3009 866 3009 1472 
Q 3009 2078 2771 2401 
Q 2534 2725 2094 2725 
Q 1647 2725 1412 2412 
Q 1178 2100 1178 1509 
Q 1178 888 1415 553 
Q 1653 219 2094 219 
z
M 1075 2569 
Q 1288 2803 1556 2918 
Q 1825 3034 2163 3034 
Q 2859 3034 3264 2615 
Q 3669 2197 3669 1472 
Q 3669 763 3233 336 
Q 2797 -91 2069 -91 
Q 1278 -91 853 498 
Q 428 1088 428 2181 
Q 428 3406 931 4078 
Q 1434 4750 2350 4750 
Q 2597 4750 2869 4703 
Q 3141 4656 3425 4563 
L 3425 3794 
L 3072 3794 
Q 3034 4109 2831 4275 
Q 2628 4441 2284 4441 
Q 1678 4441 1381 3981 
Q 1084 3522 1075 2569 
z
" transform="scale(0.015625)"/>
       </defs>
       <use xlink:href="#DejaVuSerif-4a"/>
       <use xlink:href="#DejaVuSerif-61" transform="translate(40.087891 0)"/>
       <use xlink:href="#DejaVuSerif-6e" transform="translate(99.707031 0)"/>
       <use xlink:href="#DejaVuSerif-20" transform="translate(164.111328 0)"/>
       <use xlink:href="#DejaVuSerif-32" transform="translate(195.898438 0)"/>
       <use xlink:href="#DejaVuSerif-30" transform="translate(259.521484 0)"/>
       <use xlink:href="#DejaVuSerif-32" transform="translate(323.144531 0)"/>
       <use xlink:href="#DejaVuSerif-36" transform="translate(386.767578 0)"/>
      </g>
     </g>
    </g>
    <g id="xtick_3">
     <g id="line2d_5">
      <path d="M 435.53299 159.53686 
L 435.53299 25.158281 
" clip-path="url(#p6e4f3a6f90)" style="fill: none; stroke: #b0b0b0; stroke-opacity: 0.25; stroke-width: 0.5; stroke-linecap: square"/>
     </g>
     <g id="line2d_6">
      <g>
       <use xlink:href="#m1c7f75aceb" x="435.53299" y="159.53686" style="stroke: #000000; stroke-width: 0.8"/>
      </g>
     </g>
     <g id="text_3">
      <!-- Feb 2026 -->
      <g transform="translate(401.904733 190.736212) rotate(-30) scale(0.08 -0.08)">
       <defs>
        <path id="DejaVuSerif-46" d="M 353 0 
L 353 331 
L 947 331 
L 947 4331 
L 353 4331 
L 353 4666 
L 4172 4666 
L 4172 3628 
L 3788 3628 
L 3788 4281 
L 1581 4281 
L 1581 2719 
L 3175 2719 
L 3175 3303 
L 3559 3303 
L 3559 1753 
L 3175 1753 
L 3175 2338 
L 1581 2338 
L 1581 331 
L 2328 331 
L 2328 0 
L 353 0 
z
" transform="scale(0.015625)"/>
        <path id="DejaVuSerif-62" d="M 738 331 
L 738 4531 
L 184 4531 
L 184 4863 
L 1313 4863 
L 1313 2803 
Q 1481 3116 1742 3264 
Q 2003 3413 2388 3413 
Q 3000 3413 3387 2928 
Q 3775 2444 3775 1663 
Q 3775 881 3387 395 
Q 3000 -91 2388 -91 
Q 2003 -91 1742 57 
Q 1481 206 1313 519 
L 1313 0 
L 184 0 
L 184 331 
L 738 331 
z
M 1313 1497 
Q 1313 897 1542 583 
Q 1772 269 2209 269 
Q 2650 269 2876 622 
Q 3103 975 3103 1663 
Q 3103 2353 2876 2703 
Q 2650 3053 2209 3053 
Q 1772 3053 1542 2737 
Q 1313 2422 1313 1825 
L 1313 1497 
z
" transform="scale(0.015625)"/>
       </defs>
       <use xlink:href="#DejaVuSerif-46"/>
       <use xlink:href="#DejaVuSerif-65" transform="translate(63.884766 0)"/>
       <use xlink:href="#DejaVuSerif-62" transform="translate(123.064453 0)"/>
       <use xlink:href="#DejaVuSerif-20" transform="translate(187.078125 0)"/>
       <use xlink:href="#DejaVuSerif-32" transform="translate(218.865234 0)"/>
       <use xlink:href="#DejaVuSerif-30" transform="translate(282.488281 0)"/>
       <use xlink:href="#DejaVuSerif-32" transform="translate(346.111328 0)"/>
       <use xlink:href="#DejaVuSerif-36" transform="translate(409.734375 0)"/>
      </g>
     </g>
    </g>
   </g>
   <g id="matplotlib.axis_2">
    <g id="ytick_1">
     <g id="line2d_7">
      <path d="M 48.322812 153.428743 
L 495.647813 153.428743 
" clip-path="url(#p6e4f3a6f90)" style="fill: none; stroke: #b0b0b0; stroke-opacity: 0.25; stroke-width: 0.5; stroke-linecap: square"/>
     </g>
     <g id="line2d_8">
      <defs>
       <path id="m879ff47f27" d="M 0 0 
L -3.5 0 
" style="stroke: #000000; stroke-width: 0.8"/>
      </defs>
      <g>
       <use xlink:href="#m879ff47f27" x="48.322812" y="153.428743" style="stroke: #000000; stroke-width: 0.8"/>
      </g>
     </g>
     <g id="text_4">
      <!-- 0.00 -->
      <g transform="translate(23.510312 156.468118) scale(0.08 -0.08)">
       <defs>
        <path id="DejaVuSerif-2e" d="M 603 325 
Q 603 500 722 622 
Q 841 744 1019 744 
Q 1191 744 1312 622 
Q 1434 500 1434 325 
Q 1434 153 1312 31 
Q 1191 -91 1019 -91 
Q 841 -91 722 29 
Q 603 150 603 325 
z
" transform="scale(0.015625)"/>
       </defs>
       <use xlink:href="#DejaVuSerif-30"/>
       <use xlink:href="#DejaVuSerif-2e" transform="translate(63.623047 0)"/>
       <use xlink:href="#DejaVuSerif-30" transform="translate(95.410156 0)"/>
       <use xlink:href="#DejaVuSerif-30" transform="translate(159.033203 0)"/>
      </g>
     </g>
    </g>
    <g id="ytick_2">
     <g id="line2d_9">
      <path d="M 48.322812 125.028085 
L 495.647813 125.028085 
" clip-path="url(#p6e4f3a6f90)" style="fill: none; stroke: #b0b0b0; stroke-opacity: 0.25; stroke-width: 0.5; stroke-linecap: square"/>
     </g>
     <g id="line2d_10">
      <g>
       <use xlink:href="#m879ff47f27" x="48.322812" y="125.028085" style="stroke: #000000; stroke-width: 0.8"/>
      </g>
     </g>
     <g id="text_5">
      <!-- 0.05 -->
      <g transform="translate(23.510312 128.06746) scale(0.08 -0.08)">
       <use xlink:href="#DejaVuSerif-30"/>
       <use xlink:href="#DejaVuSerif-2e" transform="translate(63.623047 0)"/>
       <use xlink:href="#DejaVuSerif-30" transform="translate(95.410156 0)"/>
       <use xlink:href="#DejaVuSerif-35" transform="translate(159.033203 0)"/>
      </g>
     </g>
    </g>
    <g id="ytick_3">
     <g id="line2d_11">
      <path d="M 48.322812 96.627428 
L 495.647813 96.627428 
" clip-path="url(#p6e4f3a6f90)" style="fill: none; stroke: #b0b0b0; stroke-opacity: 0.25; stroke-width: 0.5; stroke-linecap: square"/>
     </g>
     <g id="line2d_12">
      <g>
       <use xlink:href="#m879ff47f27" x="48.322812" y="96.627428" style="stroke: #000000; stroke-width: 0.8"/>
      </g>
     </g>
     <g id="text_6">
      <!-- 0.10 -->
      <g transform="translate(23.510312 99.666803) scale(0.08 -0.08)">
       <defs>
        <path id="DejaVuSerif-31" d="M 909 0 
L 909 331 
L 1722 331 
L 1722 4213 
L 781 3603 
L 781 4013 
L 1919 4750 
L 2350 4750 
L 2350 331 
L 3163 331 
L 3163 0 
L 909 0 
z
" transform="scale(0.015625)"/>
       </defs>
       <use xlink:href="#DejaVuSerif-30"/>
       <use xlink:href="#DejaVuSerif-2e" transform="translate(63.623047 0)"/>
       <use xlink:href="#DejaVuSerif-31" transform="translate(95.410156 0)"/>
       <use xlink:href="#DejaVuSerif-30" transform="translate(159.033203 0)"/>
      </g>
     </g>
    </g>
    <g id="ytick_4">
     <g id="line2d_13">
      <path d="M 48.322812 68.226771 
L 495.647813 68.226771 
" clip-path="url(#p6e4f3a6f90)" style="fill: none; stroke: #b0b0b0; stroke-opacity: 0.25; stroke-width: 0.5; stroke-linecap: square"/>
     </g>
     <g id="line2d_14">
      <g>
       <use xlink:href="#m879ff47f27" x="48.322812" y="68.226771" style="stroke: #000000; stroke-width: 0.8"/>
      </g>
     </g>
     <g id="text_7">
      <!-- 0.15 -->
      <g transform="translate(23.510312 71.266146) scale(0.08 -0.08)">
       <use xlink:href="#DejaVuSerif-30"/>
       <use xlink:href="#DejaVuSerif-2e" transform="translate(63.623047 0)"/>
       <use xlink:href="#DejaVuSerif-31" transform="translate(95.410156 0)"/>
       <use xlink:href="#DejaVuSerif-35" transform="translate(159.033203 0)"/>
      </g>
     </g>
    </g>
    <g id="ytick_5">
     <g id="line2d_15">
      <path d="M 48.322812 39.826113 
L 495.647813 39.826113 
" clip-path="url(#p6e4f3a6f90)" style="fill: none; stroke: #b0b0b0; stroke-opacity: 0.25; stroke-width: 0.5; stroke-linecap: square"/>
     </g>
     <g id="line2d_16">
      <g>
       <use xlink:href="#m879ff47f27" x="48.322812" y="39.826113" style="stroke: #000000; stroke-width: 0.8"/>
      </g>
     </g>
     <g id="text_8">
      <!-- 0.20 -->
      <g transform="translate(23.510312 42.865488) scale(0.08 -0.08)">
       <use xlink:href="#DejaVuSerif-30"/>
       <use xlink:href="#DejaVuSerif-2e" transform="translate(63.623047 0)"/>
       <use xlink:href="#DejaVuSerif-32" transform="translate(95.410156 0)"/>
       <use xlink:href="#DejaVuSerif-30" transform="translate(159.033203 0)"/>
      </g>
     </g>
    </g>
    <g id="text_9">
     <!-- % -->
     <g transform="translate(17.638594 96.623274) rotate(-90) scale(0.09 -0.09)">
      <defs>
       <path id="DejaVuSerif-25" d="M 1434 4459 
Q 1159 4459 1004 4200 
Q 850 3941 850 3475 
Q 850 3016 1008 2753 
Q 1166 2491 1434 2491 
Q 1700 2491 1854 2752 
Q 2009 3013 2009 3475 
Q 2009 3938 1854 4198 
Q 1700 4459 1434 4459 
z
M 4653 2169 
Q 4381 2169 4226 1906 
Q 4072 1644 4072 1178 
Q 4072 719 4228 458 
Q 4384 197 4653 197 
Q 4922 197 5075 458 
Q 5228 719 5228 1178 
Q 5228 1641 5073 1905 
Q 4919 2169 4653 2169 
z
M 4653 2450 
Q 5147 2450 5437 2106 
Q 5728 1763 5728 1178 
Q 5728 594 5436 251 
Q 5144 -91 4653 -91 
Q 4153 -91 3862 251 
Q 3572 594 3572 1178 
Q 3572 1766 3864 2108 
Q 4156 2450 4653 2450 
z
M 4263 4750 
L 4738 4750 
L 1819 -91 
L 1344 -91 
L 4263 4750 
z
M 1428 4750 
Q 1922 4750 2215 4408 
Q 2509 4066 2509 3481 
Q 2509 2891 2217 2550 
Q 1925 2209 1428 2209 
Q 931 2209 642 2551 
Q 353 2894 353 3481 
Q 353 4063 643 4406 
Q 934 4750 1428 4750 
z
" transform="scale(0.015625)"/>
      </defs>
      <use xlink:href="#DejaVuSerif-25"/>
     </g>
    </g>
   </g>
   <g id="patch_3">
    <path d="M 48.322812 159.53686 
L 48.322812 25.158281 
" style="fill: none; stroke: #000000; stroke-width: 0.6; stroke-linejoin: miter; stroke-linecap: square"/>
   </g>
   <g id="patch_4">
    <path d="M 48.322813 159.53686 
L 495.647813 159.53686 
" style="fill: none; stroke: #000000; stroke-width: 0.6; stroke-linejoin: miter; stroke-linecap: square"/>
   </g>
   <g id="line2d_17">
    <path d="M 68.655767 35.181493 
L 73.075975 38.553441 
L 77.496182 39.184231 
L 81.91639 39.643085 
L 86.336597 39.573529 
L 90.756805 39.75211 
L 95.177012 39.976989 
L 99.59722 40.533094 
L 104.017427 40.760788 
L 108.437635 40.794157 
L 112.857842 40.910254 
L 117.27805 41.356097 
L 121.698257 41.788192 
L 126.118465 42.518592 
L 130.538672 43.224086 
L 134.95888 42.755686 
L 139.379087 44.029585 
L 143.799295 44.075974 
L 148.219502 44.018624 
L 152.63971 44.895141 
L 157.059917 45.322816 
L 161.480125 45.335698 
L 165.900332 45.742601 
L 170.32054 43.123987 
L 174.740747 42.853396 
L 179.160955 43.739362 
L 183.581162 43.975715 
L 188.00137 44.332911 
L 192.421577 44.990031 
L 196.841785 44.677305 
L 201.261992 46.603715 
L 205.6822 47.601616 
L 210.102407 48.314152 
L 214.522615 49.084612 
L 218.942822 49.021876 
L 223.36303 48.266157 
L 227.783237 49.340779 
L 232.203445 49.820587 
L 236.623652 49.815559 
L 241.04386 49.235093 
L 245.464067 48.514893 
L 249.884275 47.723649 
L 254.304482 47.821975 
L 258.72469 46.525438 
L 263.144897 44.510143 
L 267.565105 43.053653 
L 271.985313 42.639534 
L 276.40552 42.907904 
L 280.825728 44.35013 
L 285.245935 45.837978 
L 289.666143 46.951656 
L 294.08635 49.503644 
L 298.506558 52.146371 
L 302.926765 53.248393 
L 307.346973 53.48943 
L 311.76718 53.371938 
L 316.187388 53.070674 
L 320.607595 53.646263 
L 325.027803 53.824772 
L 329.44801 53.108613 
L 333.868218 53.143683 
L 338.288425 53.182402 
L 342.708633 53.914076 
L 347.12884 54.401669 
L 351.549048 57.552998 
L 355.969255 55.141067 
L 360.389463 55.271794 
L 364.80967 55.692672 
L 369.229878 56.127624 
L 373.650085 55.967935 
L 378.070293 55.784705 
L 382.4905 51.977367 
L 386.910708 52.991889 
L 391.330915 53.810384 
L 395.751123 53.701405 
L 400.17133 53.670603 
L 404.591538 53.502889 
L 409.011745 53.717122 
L 413.431953 55.023643 
L 417.85216 56.522055 
L 422.272368 56.082654 
L 426.692575 55.47919 
L 431.112783 54.858019 
L 435.53299 54.777405 
L 439.953198 54.537884 
L 444.373405 53.969219 
L 448.793613 53.979859 
L 453.21382 53.696985 
L 457.634028 53.858601 
L 462.054235 54.579216 
L 466.474443 55.012655 
L 470.89465 55.654691 
L 475.314858 56.627646 
" clip-path="url(#p6e4f3a6f90)" style="fill: none; stroke: #cc3333; stroke-width: 1.5; stroke-linecap: square"/>
   </g>
   <g id="text_10">
    <!-- NEAR — DA Utilization (%) -->
    <g transform="translate(195.530156 19.158281) scale(0.11 -0.11)">
     <defs>
      <path id="DejaVuSerif-4e" d="M 313 0 
L 313 331 
L 941 331 
L 941 4331 
L 313 4331 
L 313 4666 
L 1509 4666 
L 4306 984 
L 4306 4331 
L 3681 4331 
L 3681 4666 
L 5319 4666 
L 5319 4331 
L 4691 4331 
L 4691 -91 
L 4313 -91 
L 1325 3841 
L 1325 331 
L 1953 331 
L 1953 0 
L 313 0 
z
" transform="scale(0.015625)"/>
      <path id="DejaVuSerif-45" d="M 353 0 
L 353 331 
L 947 331 
L 947 4331 
L 353 4331 
L 353 4666 
L 4109 4666 
L 4109 3628 
L 3725 3628 
L 3725 4281 
L 1581 4281 
L 1581 2719 
L 3109 2719 
L 3109 3303 
L 3494 3303 
L 3494 1753 
L 3109 1753 
L 3109 2338 
L 1581 2338 
L 1581 384 
L 3775 384 
L 3775 1038 
L 4159 1038 
L 4159 0 
L 353 0 
z
" transform="scale(0.015625)"/>
      <path id="DejaVuSerif-41" d="M 1281 1691 
L 2994 1691 
L 2138 3909 
L 1281 1691 
z
M -38 0 
L -38 331 
L 372 331 
L 2034 4666 
L 2559 4666 
L 4225 331 
L 4684 331 
L 4684 0 
L 2988 0 
L 2988 331 
L 3506 331 
L 3116 1356 
L 1153 1356 
L 763 331 
L 1275 331 
L 1275 0 
L -38 0 
z
" transform="scale(0.015625)"/>
      <path id="DejaVuSerif-52" d="M 3066 2316 
Q 3284 2256 3442 2114 
Q 3600 1972 3725 1716 
L 4403 331 
L 4972 331 
L 4972 0 
L 3872 0 
L 3144 1484 
Q 2934 1916 2759 2042 
Q 2584 2169 2278 2169 
L 1581 2169 
L 1581 331 
L 2241 331 
L 2241 0 
L 353 0 
L 353 331 
L 947 331 
L 947 4331 
L 353 4331 
L 353 4666 
L 2719 4666 
Q 3400 4666 3770 4341 
Q 4141 4016 4141 3419 
Q 4141 2938 3870 2661 
Q 3600 2384 3066 2316 
z
M 1581 2503 
L 2503 2503 
Q 2975 2503 3200 2726 
Q 3425 2950 3425 3419 
Q 3425 3888 3200 4109 
Q 2975 4331 2503 4331 
L 1581 4331 
L 1581 2503 
z
" transform="scale(0.015625)"/>
      <path id="DejaVuSerif-2014" d="M 281 1906 
L 6119 1906 
L 6119 1491 
L 281 1491 
L 281 1906 
z
" transform="scale(0.015625)"/>
      <path id="DejaVuSerif-55" d="M 897 4331 
L 300 4331 
L 300 4666 
L 2125 4666 
L 2125 4331 
L 1528 4331 
L 1528 1919 
Q 1528 1025 1820 672 
Q 2113 319 2828 319 
Q 3544 319 3836 672 
Q 4128 1025 4128 1919 
L 4128 4331 
L 3531 4331 
L 3531 4666 
L 5106 4666 
L 5106 4331 
L 4513 4331 
L 4513 1856 
Q 4513 791 4103 350 
Q 3694 -91 2713 -91 
Q 1731 -91 1314 353 
Q 897 797 897 1856 
L 897 4331 
z
" transform="scale(0.015625)"/>
      <path id="DejaVuSerif-74" d="M 691 2988 
L 184 2988 
L 184 3322 
L 691 3322 
L 691 4353 
L 1269 4353 
L 1269 3322 
L 2350 3322 
L 2350 2988 
L 1269 2988 
L 1269 878 
Q 1269 456 1350 337 
Q 1431 219 1650 219 
Q 1875 219 1978 351 
Q 2081 484 2088 781 
L 2522 781 
Q 2497 328 2275 118 
Q 2053 -91 1600 -91 
Q 1103 -91 897 129 
Q 691 350 691 878 
L 691 2988 
z
" transform="scale(0.015625)"/>
      <path id="DejaVuSerif-69" d="M 622 4353 
Q 622 4497 726 4603 
Q 831 4709 978 4709 
Q 1122 4709 1226 4603 
Q 1331 4497 1331 4353 
Q 1331 4206 1228 4103 
Q 1125 4000 978 4000 
Q 831 4000 726 4103 
Q 622 4206 622 4353 
z
M 1356 331 
L 1900 331 
L 1900 0 
L 231 0 
L 231 331 
L 781 331 
L 781 2988 
L 231 2988 
L 231 3322 
L 1356 3322 
L 1356 331 
z
" transform="scale(0.015625)"/>
      <path id="DejaVuSerif-6c" d="M 1313 331 
L 1856 331 
L 1856 0 
L 184 0 
L 184 331 
L 738 331 
L 738 4531 
L 184 4531 
L 184 4863 
L 1313 4863 
L 1313 331 
z
" transform="scale(0.015625)"/>
      <path id="DejaVuSerif-7a" d="M 256 0 
L 256 269 
L 2338 2988 
L 691 2988 
L 691 2413 
L 359 2413 
L 359 3322 
L 3078 3322 
L 3078 3053 
L 997 331 
L 2803 331 
L 2803 934 
L 3138 934 
L 3138 0 
L 256 0 
z
" transform="scale(0.015625)"/>
      <path id="DejaVuSerif-6f" d="M 1925 219 
Q 2388 219 2623 584 
Q 2859 950 2859 1663 
Q 2859 2375 2623 2739 
Q 2388 3103 1925 3103 
Q 1463 3103 1227 2739 
Q 991 2375 991 1663 
Q 991 950 1228 584 
Q 1466 219 1925 219 
z
M 1925 -91 
Q 1200 -91 759 389 
Q 319 869 319 1663 
Q 319 2456 758 2934 
Q 1197 3413 1925 3413 
Q 2653 3413 3092 2934 
Q 3531 2456 3531 1663 
Q 3531 869 3092 389 
Q 2653 -91 1925 -91 
z
" transform="scale(0.015625)"/>
      <path id="DejaVuSerif-28" d="M 2041 -997 
Q 1281 -656 893 83 
Q 506 822 506 1931 
Q 506 3044 893 3783 
Q 1281 4522 2041 4863 
L 2041 4556 
Q 1559 4225 1350 3623 
Q 1141 3022 1141 1931 
Q 1141 844 1350 242 
Q 1559 -359 2041 -691 
L 2041 -997 
z
" transform="scale(0.015625)"/>
      <path id="DejaVuSerif-29" d="M 453 -997 
L 453 -691 
Q 934 -359 1145 242 
Q 1356 844 1356 1931 
Q 1356 3022 1145 3623 
Q 934 4225 453 4556 
L 453 4863 
Q 1216 4522 1603 3783 
Q 1991 3044 1991 1931 
Q 1991 822 1603 83 
Q 1216 -656 453 -997 
z
" transform="scale(0.015625)"/>
     </defs>
     <use xlink:href="#DejaVuSerif-4e"/>
     <use xlink:href="#DejaVuSerif-45" transform="translate(87.5 0)"/>
     <use xlink:href="#DejaVuSerif-41" transform="translate(160.498047 0)"/>
     <use xlink:href="#DejaVuSerif-52" transform="translate(232.714844 0)"/>
     <use xlink:href="#DejaVuSerif-20" transform="translate(308.007812 0)"/>
     <use xlink:href="#DejaVuSerif-2014" transform="translate(339.794922 0)"/>
     <use xlink:href="#DejaVuSerif-20" transform="translate(439.794922 0)"/>
     <use xlink:href="#DejaVuSerif-44" transform="translate(471.582031 0)"/>
     <use xlink:href="#DejaVuSerif-41" transform="translate(551.757812 0)"/>
     <use xlink:href="#DejaVuSerif-20" transform="translate(623.974609 0)"/>
     <use xlink:href="#DejaVuSerif-55" transform="translate(655.761719 0)"/>
     <use xlink:href="#DejaVuSerif-74" transform="translate(740.039062 0)"/>
     <use xlink:href="#DejaVuSerif-69" transform="translate(780.224609 0)"/>
     <use xlink:href="#DejaVuSerif-6c" transform="translate(812.207031 0)"/>
     <use xlink:href="#DejaVuSerif-69" transform="translate(844.189453 0)"/>
     <use xlink:href="#DejaVuSerif-7a" transform="translate(876.171875 0)"/>
     <use xlink:href="#DejaVuSerif-61" transform="translate(928.857422 0)"/>
     <use xlink:href="#DejaVuSerif-74" transform="translate(988.476562 0)"/>
     <use xlink:href="#DejaVuSerif-69" transform="translate(1028.662109 0)"/>
     <use xlink:href="#DejaVuSerif-6f" transform="translate(1060.644531 0)"/>
     <use xlink:href="#DejaVuSerif-6e" transform="translate(1120.849609 0)"/>
     <use xlink:href="#DejaVuSerif-20" transform="translate(1185.253906 0)"/>
     <use xlink:href="#DejaVuSerif-28" transform="translate(1217.041016 0)"/>
     <use xlink:href="#DejaVuSerif-25" transform="translate(1256.054688 0)"/>
     <use xlink:href="#DejaVuSerif-29" transform="translate(1351.074219 0)"/>
    </g>
   </g>
   <g id="legend_1">
    <g id="patch_5">
     <path d="M 422.086563 55.157031 
L 490.047813 55.157031 
Q 491.647813 55.157031 491.647813 53.557031 
L 491.647813 30.758281 
Q 491.647813 29.158281 490.047813 29.158281 
L 422.086563 29.158281 
Q 420.486563 29.158281 420.486563 30.758281 
L 420.486563 53.557031 
Q 420.486563 55.157031 422.086563 55.157031 
z
" style="fill: #ffffff; opacity: 0.9; stroke: #cccccc; stroke-linejoin: miter"/>
    </g>
    <g id="patch_6">
     <path d="M 423.686563 38.437031 
L 439.686563 38.437031 
L 439.686563 32.837031 
L 423.686563 32.837031 
z
" style="fill: #b3cde3; fill-opacity: 0.6; stroke: #b3cde3; stroke-opacity: 0.6; stroke-linejoin: miter"/>
    </g>
    <g id="text_11">
     <!-- Utilization -->
     <g transform="translate(446.086563 38.437031) scale(0.08 -0.08)">
      <use xlink:href="#DejaVuSerif-55"/>
      <use xlink:href="#DejaVuSerif-74" transform="translate(84.277344 0)"/>
      <use xlink:href="#DejaVuSerif-69" transform="translate(124.462891 0)"/>
      <use xlink:href="#DejaVuSerif-6c" transform="translate(156.445312 0)"/>
      <use xlink:href="#DejaVuSerif-69" transform="translate(188.427734 0)"/>
      <use xlink:href="#DejaVuSerif-7a" transform="translate(220.410156 0)"/>
      <use xlink:href="#DejaVuSerif-61" transform="translate(273.095703 0)"/>
      <use xlink:href="#DejaVuSerif-74" transform="translate(332.714844 0)"/>
      <use xlink:href="#DejaVuSerif-69" transform="translate(372.900391 0)"/>
      <use xlink:href="#DejaVuSerif-6f" transform="translate(404.882812 0)"/>
      <use xlink:href="#DejaVuSerif-6e" transform="translate(465.087891 0)"/>
     </g>
    </g>
    <g id="line2d_18">
     <path d="M 423.686563 47.379531 
L 431.686563 47.379531 
L 439.686563 47.379531 
" style="fill: none; stroke: #cc3333; stroke-width: 1.5; stroke-linecap: square"/>
    </g>
    <g id="text_12">
     <!-- 7d avg -->
     <g transform="translate(446.086563 50.179531) scale(0.08 -0.08)">
      <defs>
       <path id="DejaVuSerif-37" d="M 3609 4347 
L 1784 0 
L 1319 0 
L 3059 4153 
L 903 4153 
L 903 3578 
L 538 3578 
L 538 4666 
L 3609 4666 
L 3609 4347 
z
" transform="scale(0.015625)"/>
       <path id="DejaVuSerif-64" d="M 3359 331 
L 3909 331 
L 3909 0 
L 2784 0 
L 2784 519 
Q 2616 206 2355 57 
Q 2094 -91 1709 -91 
Q 1097 -91 708 395 
Q 319 881 319 1663 
Q 319 2444 706 2928 
Q 1094 3413 1709 3413 
Q 2094 3413 2355 3264 
Q 2616 3116 2784 2803 
L 2784 4531 
L 2241 4531 
L 2241 4863 
L 3359 4863 
L 3359 331 
z
M 2784 1497 
L 2784 1825 
Q 2784 2422 2554 2737 
Q 2325 3053 1888 3053 
Q 1444 3053 1217 2703 
Q 991 2353 991 1663 
Q 991 975 1217 622 
Q 1444 269 1888 269 
Q 2325 269 2554 583 
Q 2784 897 2784 1497 
z
" transform="scale(0.015625)"/>
       <path id="DejaVuSerif-76" d="M 1581 0 
L 359 2988 
L -19 2988 
L -19 3322 
L 1509 3322 
L 1509 2988 
L 978 2988 
L 1913 703 
L 2847 2988 
L 2350 2988 
L 2350 3322 
L 3597 3322 
L 3597 2988 
L 3225 2988 
L 2003 0 
L 1581 0 
z
" transform="scale(0.015625)"/>
       <path id="DejaVuSerif-67" d="M 3359 2988 
L 3359 72 
Q 3359 -644 2965 -1033 
Q 2572 -1422 1844 -1422 
Q 1516 -1422 1216 -1362 
Q 916 -1303 641 -1184 
L 641 -488 
L 941 -488 
Q 997 -813 1206 -963 
Q 1416 -1113 1806 -1113 
Q 2313 -1113 2548 -827 
Q 2784 -541 2784 72 
L 2784 519 
Q 2616 206 2355 57 
Q 2094 -91 1709 -91 
Q 1097 -91 708 395 
Q 319 881 319 1663 
Q 319 2444 706 2928 
Q 1094 3413 1709 3413 
Q 2094 3413 2355 3264 
Q 2616 3116 2784 2803 
L 2784 3322 
L 3909 3322 
L 3909 2988 
L 3359 2988 
z
M 2784 1825 
Q 2784 2422 2554 2737 
Q 2325 3053 1888 3053 
Q 1444 3053 1217 2703 
Q 991 2353 991 1663 
Q 991 975 1217 622 
Q 1444 269 1888 269 
Q 2325 269 2554 583 
Q 2784 897 2784 1497 
L 2784 1825 
z
" transform="scale(0.015625)"/>
      </defs>
      <use xlink:href="#DejaVuSerif-37"/>
      <use xlink:href="#DejaVuSerif-64" transform="translate(63.623047 0)"/>
      <use xlink:href="#DejaVuSerif-20" transform="translate(127.636719 0)"/>
      <use xlink:href="#DejaVuSerif-61" transform="translate(159.423828 0)"/>
      <use xlink:href="#DejaVuSerif-76" transform="translate(219.042969 0)"/>
      <use xlink:href="#DejaVuSerif-67" transform="translate(275.537109 0)"/>
     </g>
    </g>
   </g>
  </g>
 </g>
 <defs>
  <clipPath id="p6e4f3a6f90">
   <rect x="48.322812" y="25.158281" width="447.325" height="134.378579"/>
  </clipPath>
 </defs>
</svg>
