<?xml version="1.0" encoding="utf-8" standalone="no"?>
<!DOCTYPE svg PUBLIC "-//W3C//DTD SVG 1.1//EN"
  "http://www.w3.org/Graphics/SVG/1.1/DTD/svg11.dtd">
<svg xmlns:xlink="http://www.w3.org/1999/xlink" width="506.200366pt" height="203.554692pt" viewBox="0 0 506.200366 203.554692" xmlns="http://www.w3.org/2000/svg" version="1.1">
 <metadata>
  <rdf:RDF xmlns:dc="http://purl.org/dc/elements/1.1/" xmlns:cc="http://creativecommons.org/ns#" xmlns:rdf="http://www.w3.org/1999/02/22-rdf-syntax-ns#">
   <cc:Work>
    <dc:type rdf:resource="http://purl.org/dc/dcmitype/StillImage"/>
    <dc:date>2026-02-16T20:35:36.726604</dc:date>
    <dc:format>image/svg+xml</dc:format>
    <dc:creator>
     <cc:Agent>
      <dc:title>Matplotlib v3.9.4, https://matplotlib.org/</dc:title>
     </cc:Agent>
    </dc:creator>
   </cc:Work>
  </rdf:RDF>
 </metadata>
 <defs>
  <style type="text/css">*{stroke-linejoin: round; stroke-linecap: butt}</style>
 </defs>
 <g id="figure_1">
  <g id="patch_1">
   <path d="M 0 203.554692 
L 506.200366 203.554692 
L 506.200366 0 
L 0 0 
z
" style="fill: #ffffff"/>
  </g>
  <g id="axes_1">
   <g id="patch_2">
    <path d="M 49.358281 159.572615 
L 495.400366 159.572615 
L 495.400366 25.158281 
L 49.358281 25.158281 
z
" style="fill: #ffffff"/>
   </g>
   <g id="PolyCollection_1">
    <path d="M 69.632921 10226.094454 
L 69.632921 10226.094454 
L 70.208906 10226.094454 
L 70.78489 10226.094454 
L 71.360874 10226.094454 
L 71.936858 10226.094454 
L 72.512842 10226.094454 
L 73.088826 10226.094454 
L 73.66481 10226.094454 
L 74.240794 10226.094454 
L 74.816778 10226.094454 
L 75.392762 10226.094454 
L 75.968747 10226.094454 
L 76.544731 10226.094454 
L 77.120715 10226.094454 
L 77.696699 10226.094454 
L 78.272683 10226.094454 
L 78.848667 10226.094454 
L 79.424651 10226.094454 
L 80.000635 10226.094454 
L 80.576619 10226.094454 
L 81.152603 10226.094454 
L 81.728588 10226.094454 
L 82.304572 10226.094454 
L 82.880556 10226.094454 
L 83.45654 10226.094454 
L 84.032524 10226.094454 
L 84.608508 10226.094454 
L 85.184492 10226.094454 
L 85.760476 10226.094454 
L 86.33646 10226.094454 
L 86.912444 10226.094454 
L 87.488429 10226.094454 
L 88.064413 10226.094454 
L 88.640397 10226.094454 
L 89.216381 10226.094454 
L 89.792365 10226.094454 
L 90.368349 10226.094454 
L 90.944333 10226.094454 
L 91.520317 10226.094454 
L 92.096301 10226.094454 
L 92.672285 10226.094454 
L 93.248269 10226.094454 
L 93.824254 10226.094454 
L 94.400238 10226.094454 
L 94.976222 10226.094454 
L 95.552206 10226.094454 
L 96.12819 10226.094454 
L 96.704174 10226.094454 
L 97.280158 10226.094454 
L 97.856142 10226.094454 
L 98.432126 10226.094454 
L 99.00811 10226.094454 
L 99.584095 10226.094454 
L 100.160079 10226.094454 
L 100.736063 10226.094454 
L 101.312047 10226.094454 
L 101.888031 10226.094454 
L 102.464015 10226.094454 
L 103.039999 10226.094454 
L 103.615983 10226.094454 
L 104.191967 10226.094454 
L 104.767951 10226.094454 
L 105.343936 10226.094454 
L 105.91992 10226.094454 
L 106.495904 10226.094454 
L 107.071888 10226.094454 
L 107.647872 10226.094454 
L 108.223856 10226.094454 
L 108.79984 10226.094454 
L 109.375824 10226.094454 
L 109.951808 10226.094454 
L 110.527792 10226.094454 
L 111.103777 10226.094454 
L 111.679761 10226.094454 
L 112.255745 10226.094454 
L 112.831729 10226.094454 
L 113.407713 10226.094454 
L 113.983697 10226.094454 
L 114.559681 10226.094454 
L 115.135665 10226.094454 
L 115.711649 10226.094454 
L 116.287633 10226.094454 
L 116.863617 10226.094454 
L 117.439602 10226.094454 
L 118.015586 10226.094454 
L 118.59157 10226.094454 
L 119.167554 10226.094454 
L 119.743538 10226.094454 
L 120.319522 10226.094454 
L 120.895506 10226.094454 
L 121.47149 10226.094454 
L 122.047474 10226.094454 
L 122.623458 10226.094454 
L 123.199443 10226.094454 
L 123.775427 10226.094454 
L 124.351411 10226.094454 
L 124.927395 10226.094454 
L 125.503379 10226.094454 
L 126.079363 10226.094454 
L 126.655347 10226.094454 
L 127.231331 10226.094454 
L 127.807315 10226.094454 
L 128.383299 10226.094454 
L 128.959284 10226.094454 
L 129.535268 10226.094454 
L 130.111252 10226.094454 
L 130.687236 10226.094454 
L 131.26322 10226.094454 
L 131.839204 10226.094454 
L 132.415188 10226.094454 
L 132.991172 10226.094454 
L 133.567156 10226.094454 
L 134.14314 10226.094454 
L 134.719125 10226.094454 
L 135.295109 10226.094454 
L 135.871093 10226.094454 
L 136.447077 10226.094454 
L 137.023061 10226.094454 
L 137.599045 10226.094454 
L 138.175029 10226.094454 
L 138.751013 10226.094454 
L 139.326997 10226.094454 
L 139.902981 10226.094454 
L 140.478965 10226.094454 
L 141.05495 10226.094454 
L 141.630934 10226.094454 
L 142.206918 10226.094454 
L 142.782902 10226.094454 
L 143.358886 10226.094454 
L 143.93487 10226.094454 
L 144.510854 10226.094454 
L 145.086838 10226.094454 
L 145.662822 10226.094454 
L 146.238806 10226.094454 
L 146.814791 10226.094454 
L 147.390775 10226.094454 
L 147.966759 10226.094454 
L 148.542743 10226.094454 
L 149.118727 10226.094454 
L 149.694711 10226.094454 
L 150.270695 10226.094454 
L 150.846679 10226.094454 
L 151.422663 10226.094454 
L 151.998647 10226.094454 
L 152.574632 10226.094454 
L 153.150616 10226.094454 
L 153.7266 10226.094454 
L 154.302584 10226.094454 
L 154.878568 10226.094454 
L 155.454552 10226.094454 
L 156.030536 10226.094454 
L 156.60652 10226.094454 
L 157.182504 10226.094454 
L 157.758488 10226.094454 
L 158.334473 10226.094454 
L 158.910457 10226.094454 
L 159.486441 10226.094454 
L 160.062425 10226.094454 
L 160.638409 10226.094454 
L 161.214393 10226.094454 
L 161.790377 10226.094454 
L 162.366361 10226.094454 
L 162.942345 10226.094454 
L 163.518329 10226.094454 
L 164.094313 10226.094454 
L 164.670298 10226.094454 
L 165.246282 10226.094454 
L 165.822266 10226.094454 
L 166.39825 10226.094454 
L 166.974234 10226.094454 
L 167.550218 10226.094454 
L 168.126202 10226.094454 
L 168.702186 10226.094454 
L 169.27817 10226.094454 
L 169.854154 10226.094454 
L 170.430139 10226.094454 
L 171.006123 10226.094454 
L 171.582107 10226.094454 
L 172.158091 10226.094454 
L 172.734075 10226.094454 
L 173.310059 10226.094454 
L 173.886043 10226.094454 
L 174.462027 10226.094454 
L 175.038011 10226.094454 
L 175.613995 10226.094454 
L 176.18998 10226.094454 
L 176.765964 10226.094454 
L 177.341948 10226.094454 
L 177.917932 10226.094454 
L 178.493916 10226.094454 
L 179.0699 10226.094454 
L 179.645884 10226.094454 
L 180.221868 10226.094454 
L 180.797852 10226.094454 
L 181.373836 10226.094454 
L 181.949821 10226.094454 
L 182.525805 10226.094454 
L 183.101789 10226.094454 
L 183.677773 10226.094454 
L 184.253757 10226.094454 
L 184.829741 10226.094454 
L 185.405725 10226.094454 
L 185.981709 10226.094454 
L 186.557693 10226.094454 
L 187.133677 10226.094454 
L 187.709661 10226.094454 
L 188.285646 10226.094454 
L 188.86163 10226.094454 
L 189.437614 10226.094454 
L 190.013598 10226.094454 
L 190.589582 10226.094454 
L 191.165566 10226.094454 
L 191.74155 10226.094454 
L 192.317534 10226.094454 
L 192.893518 10226.094454 
L 193.469502 10226.094454 
L 194.045487 10226.094454 
L 194.621471 10226.094454 
L 195.197455 10226.094454 
L 195.773439 10226.094454 
L 196.349423 10226.094454 
L 196.925407 10226.094454 
L 197.501391 10226.094454 
L 198.077375 10226.094454 
L 198.653359 10226.094454 
L 199.229343 10226.094454 
L 199.805328 10226.094454 
L 200.381312 10226.094454 
L 200.957296 10226.094454 
L 201.53328 10226.094454 
L 202.109264 10226.094454 
L 202.685248 10226.094454 
L 203.261232 10226.094454 
L 203.837216 10226.094454 
L 204.4132 10226.094454 
L 204.989184 10226.094454 
L 205.565169 10226.094454 
L 206.141153 10226.094454 
L 206.717137 10226.094454 
L 207.293121 10226.094454 
L 207.869105 10226.094454 
L 208.445089 10226.094454 
L 209.021073 10226.094454 
L 209.597057 10226.094454 
L 210.173041 10226.094454 
L 210.749025 10226.094454 
L 211.325009 10226.094454 
L 211.900994 10226.094454 
L 212.476978 10226.094454 
L 213.052962 10226.094454 
L 213.628946 10226.094454 
L 214.20493 10226.094454 
L 214.780914 10226.094454 
L 215.356898 10226.094454 
L 215.932882 10226.094454 
L 216.508866 10226.094454 
L 217.08485 10226.094454 
L 217.660835 10226.094454 
L 218.236819 10226.094454 
L 218.812803 10226.094454 
L 219.388787 10226.094454 
L 219.964771 10226.094454 
L 220.540755 10226.094454 
L 221.116739 10226.094454 
L 221.692723 10226.094454 
L 222.268707 10226.094454 
L 222.844691 10226.094454 
L 223.420676 10226.094454 
L 223.99666 10226.094454 
L 224.572644 10226.094454 
L 225.148628 10226.094454 
L 225.724612 10226.094454 
L 226.300596 10226.094454 
L 226.87658 10226.094454 
L 227.452564 10226.094454 
L 228.028548 10226.094454 
L 228.604532 10226.094454 
L 229.180517 10226.094454 
L 229.756501 10226.094454 
L 230.332485 10226.094454 
L 230.908469 10226.094454 
L 231.484453 10226.094454 
L 232.060437 10226.094454 
L 232.636421 10226.094454 
L 233.212405 10226.094454 
L 233.788389 10226.094454 
L 234.364373 10226.094454 
L 234.940357 10226.094454 
L 235.516342 10226.094454 
L 236.092326 10226.094454 
L 236.66831 10226.094454 
L 237.244294 10226.094454 
L 237.820278 10226.094454 
L 238.396262 10226.094454 
L 238.972246 10226.094454 
L 239.54823 10226.094454 
L 240.124214 10226.094454 
L 240.700198 10226.094454 
L 241.276183 10226.094454 
L 241.852167 10226.094454 
L 242.428151 10226.094454 
L 243.004135 10226.094454 
L 243.580119 10226.094454 
L 244.156103 10226.094454 
L 244.732087 10226.094454 
L 245.308071 10226.094454 
L 245.884055 10226.094454 
L 246.460039 10226.094454 
L 247.036024 10226.094454 
L 247.612008 10226.094454 
L 248.187992 10226.094454 
L 248.763976 10226.094454 
L 249.33996 10226.094454 
L 249.915944 10226.094454 
L 250.491928 10226.094454 
L 251.067912 10226.094454 
L 251.643896 10226.094454 
L 252.21988 10226.094454 
L 252.795865 10226.094454 
L 253.371849 10226.094454 
L 253.947833 10226.094454 
L 254.523817 10226.094454 
L 255.099801 10226.094454 
L 255.675785 10226.094454 
L 256.251769 10226.094454 
L 256.827753 10226.094454 
L 257.403737 10226.094454 
L 257.979721 10226.094454 
L 258.555705 10226.094454 
L 259.13169 10226.094454 
L 259.707674 10226.094454 
L 260.283658 10226.094454 
L 260.859642 10226.094454 
L 261.435626 10226.094454 
L 262.01161 10226.094454 
L 262.587594 10226.094454 
L 263.163578 10226.094454 
L 263.739562 10226.094454 
L 264.315546 10226.094454 
L 264.891531 10226.094454 
L 265.467515 10226.094454 
L 266.043499 148.482513 
L 266.619483 107.521692 
L 267.195467 111.456625 
L 267.771451 99.93229 
L 268.347435 100.46718 
L 268.923419 104.142136 
L 269.499403 149.584518 
L 270.075387 140.23273 
L 270.651372 93.814292 
L 271.227356 103.311857 
L 271.80334 113.106442 
L 272.379324 132.228892 
L 272.955308 152.142593 
L 273.531292 152.071402 
L 274.107276 98.299818 
L 274.68326 97.843947 
L 275.259244 125.206798 
L 275.835228 145.422333 
L 276.411213 116.238996 
L 276.987197 151.523776 
L 277.563181 151.518796 
L 278.139165 104.020287 
L 278.715149 103.524165 
L 279.291133 104.941014 
L 279.867117 113.165736 
L 280.443101 136.987376 
L 281.019085 138.725734 
L 281.595069 151.612392 
L 282.171053 101.075115 
L 282.747038 130.008917 
L 283.323022 152.669249 
L 283.899006 152.38605 
L 284.47499 152.329474 
L 285.050974 152.597298 
L 285.626958 152.679321 
L 286.202942 152.515909 
L 286.778926 152.118413 
L 287.35491 151.906582 
L 287.930894 134.801054 
L 288.506879 114.22874 
L 289.082863 133.876713 
L 289.658847 152.681201 
L 290.234831 115.845058 
L 290.810815 147.488911 
L 291.386799 152.843893 
L 291.962783 150.033048 
L 292.538767 153.054797 
L 293.114751 153.064041 
L 293.690735 153.075111 
L 294.26672 108.700261 
L 294.26672 83.949833 
L 294.26672 83.949833 
L 293.690735 95.177253 
L 293.114751 124.612615 
L 292.538767 109.105439 
L 291.962783 101.180231 
L 291.386799 130.637901 
L 290.810815 83.877999 
L 290.234831 87.971913 
L 289.658847 119.48787 
L 289.082863 99.434539 
L 288.506879 87.859125 
L 287.930894 100.682474 
L 287.35491 102.29007 
L 286.778926 106.087244 
L 286.202942 114.69633 
L 285.626958 135.677859 
L 285.050974 93.496977 
L 284.47499 101.903369 
L 283.899006 131.683589 
L 283.323022 103.977988 
L 282.747038 91.148433 
L 282.171053 84.998902 
L 281.595069 94.478227 
L 281.019085 90.728409 
L 280.443101 86.676927 
L 279.867117 84.71431 
L 279.291133 84.921061 
L 278.715149 85.250485 
L 278.139165 80.77339 
L 277.563181 85.941728 
L 276.987197 96.587079 
L 276.411213 85.705758 
L 275.835228 90.716948 
L 275.259244 88.89075 
L 274.68326 85.353077 
L 274.107276 83.958448 
L 273.531292 98.54547 
L 272.955308 135.256787 
L 272.379324 84.000255 
L 271.80334 85.233297 
L 271.227356 80.643241 
L 270.651372 81.207766 
L 270.075387 81.479379 
L 269.499403 94.069541 
L 268.923419 84.064583 
L 268.347435 80.574313 
L 267.771451 82.930828 
L 267.195467 93.64557 
L 266.619483 82.886921 
L 266.043499 84.177664 
L 265.467515 10226.094454 
L 264.891531 10226.094454 
L 264.315546 10226.094454 
L 263.739562 10226.094454 
L 263.163578 10226.094454 
L 262.587594 10226.094454 
L 262.01161 10226.094454 
L 261.435626 10226.094454 
L 260.859642 10226.094454 
L 260.283658 10226.094454 
L 259.707674 10226.094454 
L 259.13169 10226.094454 
L 258.555705 10226.094454 
L 257.979721 10226.094454 
L 257.403737 10226.094454 
L 256.827753 10226.094454 
L 256.251769 10226.094454 
L 255.675785 10226.094454 
L 255.099801 10226.094454 
L 254.523817 10226.094454 
L 253.947833 10226.094454 
L 253.371849 10226.094454 
L 252.795865 10226.094454 
L 252.21988 10226.094454 
L 251.643896 10226.094454 
L 251.067912 10226.094454 
L 250.491928 10226.094454 
L 249.915944 10226.094454 
L 249.33996 10226.094454 
L 248.763976 10226.094454 
L 248.187992 10226.094454 
L 247.612008 10226.094454 
L 247.036024 10226.094454 
L 246.460039 10226.094454 
L 245.884055 10226.094454 
L 245.308071 10226.094454 
L 244.732087 10226.094454 
L 244.156103 10226.094454 
L 243.580119 10226.094454 
L 243.004135 10226.094454 
L 242.428151 10226.094454 
L 241.852167 10226.094454 
L 241.276183 10226.094454 
L 240.700198 10226.094454 
L 240.124214 10226.094454 
L 239.54823 10226.094454 
L 238.972246 10226.094454 
L 238.396262 10226.094454 
L 237.820278 10226.094454 
L 237.244294 10226.094454 
L 236.66831 10226.094454 
L 236.092326 10226.094454 
L 235.516342 10226.094454 
L 234.940357 10226.094454 
L 234.364373 10226.094454 
L 233.788389 10226.094454 
L 233.212405 10226.094454 
L 232.636421 10226.094454 
L 232.060437 10226.094454 
L 231.484453 10226.094454 
L 230.908469 10226.094454 
L 230.332485 10226.094454 
L 229.756501 10226.094454 
L 229.180517 10226.094454 
L 228.604532 10226.094454 
L 228.028548 10226.094454 
L 227.452564 10226.094454 
L 226.87658 10226.094454 
L 226.300596 10226.094454 
L 225.724612 10226.094454 
L 225.148628 10226.094454 
L 224.572644 10226.094454 
L 223.99666 10226.094454 
L 223.420676 10226.094454 
L 222.844691 10226.094454 
L 222.268707 10226.094454 
L 221.692723 10226.094454 
L 221.116739 10226.094454 
L 220.540755 10226.094454 
L 219.964771 10226.094454 
L 219.388787 10226.094454 
L 218.812803 10226.094454 
L 218.236819 10226.094454 
L 217.660835 10226.094454 
L 217.08485 10226.094454 
L 216.508866 10226.094454 
L 215.932882 10226.094454 
L 215.356898 10226.094454 
L 214.780914 10226.094454 
L 214.20493 10226.094454 
L 213.628946 10226.094454 
L 213.052962 10226.094454 
L 212.476978 10226.094454 
L 211.900994 10226.094454 
L 211.325009 10226.094454 
L 210.749025 10226.094454 
L 210.173041 10226.094454 
L 209.597057 10226.094454 
L 209.021073 10226.094454 
L 208.445089 10226.094454 
L 207.869105 10226.094454 
L 207.293121 10226.094454 
L 206.717137 10226.094454 
L 206.141153 10226.094454 
L 205.565169 10226.094454 
L 204.989184 10226.094454 
L 204.4132 10226.094454 
L 203.837216 10226.094454 
L 203.261232 10226.094454 
L 202.685248 10226.094454 
L 202.109264 10226.094454 
L 201.53328 10226.094454 
L 200.957296 10226.094454 
L 200.381312 10226.094454 
L 199.805328 10226.094454 
L 199.229343 10226.094454 
L 198.653359 10226.094454 
L 198.077375 10226.094454 
L 197.501391 10226.094454 
L 196.925407 10226.094454 
L 196.349423 10226.094454 
L 195.773439 10226.094454 
L 195.197455 10226.094454 
L 194.621471 10226.094454 
L 194.045487 10226.094454 
L 193.469502 10226.094454 
L 192.893518 10226.094454 
L 192.317534 10226.094454 
L 191.74155 10226.094454 
L 191.165566 10226.094454 
L 190.589582 10226.094454 
L 190.013598 10226.094454 
L 189.437614 10226.094454 
L 188.86163 10226.094454 
L 188.285646 10226.094454 
L 187.709661 10226.094454 
L 187.133677 10226.094454 
L 186.557693 10226.094454 
L 185.981709 10226.094454 
L 185.405725 10226.094454 
L 184.829741 10226.094454 
L 184.253757 10226.094454 
L 183.677773 10226.094454 
L 183.101789 10226.094454 
L 182.525805 10226.094454 
L 181.949821 10226.094454 
L 181.373836 10226.094454 
L 180.797852 10226.094454 
L 180.221868 10226.094454 
L 179.645884 10226.094454 
L 179.0699 10226.094454 
L 178.493916 10226.094454 
L 177.917932 10226.094454 
L 177.341948 10226.094454 
L 176.765964 10226.094454 
L 176.18998 10226.094454 
L 175.613995 10226.094454 
L 175.038011 10226.094454 
L 174.462027 10226.094454 
L 173.886043 10226.094454 
L 173.310059 10226.094454 
L 172.734075 10226.094454 
L 172.158091 10226.094454 
L 171.582107 10226.094454 
L 171.006123 10226.094454 
L 170.430139 10226.094454 
L 169.854154 10226.094454 
L 169.27817 10226.094454 
L 168.702186 10226.094454 
L 168.126202 10226.094454 
L 167.550218 10226.094454 
L 166.974234 10226.094454 
L 166.39825 10226.094454 
L 165.822266 10226.094454 
L 165.246282 10226.094454 
L 164.670298 10226.094454 
L 164.094313 10226.094454 
L 163.518329 10226.094454 
L 162.942345 10226.094454 
L 162.366361 10226.094454 
L 161.790377 10226.094454 
L 161.214393 10226.094454 
L 160.638409 10226.094454 
L 160.062425 10226.094454 
L 159.486441 10226.094454 
L 158.910457 10226.094454 
L 158.334473 10226.094454 
L 157.758488 10226.094454 
L 157.182504 10226.094454 
L 156.60652 10226.094454 
L 156.030536 10226.094454 
L 155.454552 10226.094454 
L 154.878568 10226.094454 
L 154.302584 10226.094454 
L 153.7266 10226.094454 
L 153.150616 10226.094454 
L 152.574632 10226.094454 
L 151.998647 10226.094454 
L 151.422663 10226.094454 
L 150.846679 10226.094454 
L 150.270695 10226.094454 
L 149.694711 10226.094454 
L 149.118727 10226.094454 
L 148.542743 10226.094454 
L 147.966759 10226.094454 
L 147.390775 10226.094454 
L 146.814791 10226.094454 
L 146.238806 10226.094454 
L 145.662822 10226.094454 
L 145.086838 10226.094454 
L 144.510854 10226.094454 
L 143.93487 10226.094454 
L 143.358886 10226.094454 
L 142.782902 10226.094454 
L 142.206918 10226.094454 
L 141.630934 10226.094454 
L 141.05495 10226.094454 
L 140.478965 10226.094454 
L 139.902981 10226.094454 
L 139.326997 10226.094454 
L 138.751013 10226.094454 
L 138.175029 10226.094454 
L 137.599045 10226.094454 
L 137.023061 10226.094454 
L 136.447077 10226.094454 
L 135.871093 10226.094454 
L 135.295109 10226.094454 
L 134.719125 10226.094454 
L 134.14314 10226.094454 
L 133.567156 10226.094454 
L 132.991172 10226.094454 
L 132.415188 10226.094454 
L 131.839204 10226.094454 
L 131.26322 10226.094454 
L 130.687236 10226.094454 
L 130.111252 10226.094454 
L 129.535268 10226.094454 
L 128.959284 10226.094454 
L 128.383299 10226.094454 
L 127.807315 10226.094454 
L 127.231331 10226.094454 
L 126.655347 10226.094454 
L 126.079363 10226.094454 
L 125.503379 10226.094454 
L 124.927395 10226.094454 
L 124.351411 10226.094454 
L 123.775427 10226.094454 
L 123.199443 10226.094454 
L 122.623458 10226.094454 
L 122.047474 10226.094454 
L 121.47149 10226.094454 
L 120.895506 10226.094454 
L 120.319522 10226.094454 
L 119.743538 10226.094454 
L 119.167554 10226.094454 
L 118.59157 10226.094454 
L 118.015586 10226.094454 
L 117.439602 10226.094454 
L 116.863617 10226.094454 
L 116.287633 10226.094454 
L 115.711649 10226.094454 
L 115.135665 10226.094454 
L 114.559681 10226.094454 
L 113.983697 10226.094454 
L 113.407713 10226.094454 
L 112.831729 10226.094454 
L 112.255745 10226.094454 
L 111.679761 10226.094454 
L 111.103777 10226.094454 
L 110.527792 10226.094454 
L 109.951808 10226.094454 
L 109.375824 10226.094454 
L 108.79984 10226.094454 
L 108.223856 10226.094454 
L 107.647872 10226.094454 
L 107.071888 10226.094454 
L 106.495904 10226.094454 
L 105.91992 10226.094454 
L 105.343936 10226.094454 
L 104.767951 10226.094454 
L 104.191967 10226.094454 
L 103.615983 10226.094454 
L 103.039999 10226.094454 
L 102.464015 10226.094454 
L 101.888031 10226.094454 
L 101.312047 10226.094454 
L 100.736063 10226.094454 
L 100.160079 10226.094454 
L 99.584095 10226.094454 
L 99.00811 10226.094454 
L 98.432126 10226.094454 
L 97.856142 10226.094454 
L 97.280158 10226.094454 
L 96.704174 10226.094454 
L 96.12819 10226.094454 
L 95.552206 10226.094454 
L 94.976222 10226.094454 
L 94.400238 10226.094454 
L 93.824254 10226.094454 
L 93.248269 10226.094454 
L 92.672285 10226.094454 
L 92.096301 10226.094454 
L 91.520317 10226.094454 
L 90.944333 10226.094454 
L 90.368349 10226.094454 
L 89.792365 10226.094454 
L 89.216381 10226.094454 
L 88.640397 10226.094454 
L 88.064413 10226.094454 
L 87.488429 10226.094454 
L 86.912444 10226.094454 
L 86.33646 10226.094454 
L 85.760476 10226.094454 
L 85.184492 10226.094454 
L 84.608508 10226.094454 
L 84.032524 10226.094454 
L 83.45654 10226.094454 
L 82.880556 10226.094454 
L 82.304572 10226.094454 
L 81.728588 10226.094454 
L 81.152603 10226.094454 
L 80.576619 10226.094454 
L 80.000635 10226.094454 
L 79.424651 10226.094454 
L 78.848667 10226.094454 
L 78.272683 10226.094454 
L 77.696699 10226.094454 
L 77.120715 10226.094454 
L 76.544731 10226.094454 
L 75.968747 10226.094454 
L 75.392762 10226.094454 
L 74.816778 10226.094454 
L 74.240794 10226.094454 
L 73.66481 10226.094454 
L 73.088826 10226.094454 
L 72.512842 10226.094454 
L 71.936858 10226.094454 
L 71.360874 10226.094454 
L 70.78489 10226.094454 
L 70.208906 10226.094454 
L 69.632921 10226.094454 
z
" clip-path="url(#pde933d1fbf)" style="fill: #3366cc; fill-opacity: 0.25; stroke: #3366cc; stroke-opacity: 0.25"/>
   </g>
   <g id="PolyCollection_2">
    <defs>
     <path id="m67e8c31b6d" d="M 294.842704 -116.776262 
L 294.842704 -50.852226 
L 295.418688 -69.572953 
L 295.994672 -79.48087 
L 296.570656 -73.660386 
L 297.14664 -86.624562 
L 297.722624 -50.290977 
L 298.298608 -59.86856 
L 298.874592 -83.187214 
L 299.450576 -66.55552 
L 300.026561 -110.476653 
L 300.602545 -113.03722 
L 301.178529 -50.945633 
L 301.754513 -50.091819 
L 302.330497 -56.255546 
L 302.906481 -92.086588 
L 303.482465 -99.312806 
L 304.058449 -69.176724 
L 304.634433 -93.981846 
L 305.210417 -79.110405 
L 305.786401 -93.29995 
L 306.362386 -108.036519 
L 306.93837 -108.513433 
L 307.514354 -106.194092 
L 308.090338 -107.459124 
L 308.666322 -94.036336 
L 309.242306 -51.828016 
L 309.81829 -98.883431 
L 310.394274 -78.926659 
L 310.970258 -65.539379 
L 311.546242 -50.494764 
L 312.122227 -50.480508 
L 312.698211 -51.337055 
L 313.274195 -51.617228 
L 313.850179 -52.052304 
L 314.426163 -51.920005 
L 315.002147 -51.893421 
L 315.578131 -52.208496 
L 316.154115 -52.086445 
L 316.730099 -51.980961 
L 317.306083 -51.984592 
L 317.882068 -51.862501 
L 318.458052 -51.845131 
L 319.034036 -51.95427 
L 319.61002 -51.949511 
L 320.186004 -52.009806 
L 320.761988 -52.176236 
L 321.337972 -51.941697 
L 321.913956 -51.958552 
L 322.48994 -51.988463 
L 323.065924 -52.015362 
L 323.641909 -52.18441 
L 324.217893 -52.207885 
L 324.793877 -52.136093 
L 325.369861 -51.949879 
L 325.945845 -51.96365 
L 326.521829 -51.974055 
L 327.097813 -52.09665 
L 327.673797 -52.072422 
L 328.249781 -52.097666 
L 328.825765 -51.76603 
L 329.401749 -51.873823 
L 329.977734 -51.953046 
L 330.553718 -51.922313 
L 331.129702 -52.222275 
L 331.705686 -52.420985 
L 332.28167 -52.369776 
L 332.857654 -52.169563 
L 333.433638 -52.04095 
L 334.009622 -51.966633 
L 334.585606 -51.990597 
L 335.16159 -52.013913 
L 335.737575 -51.933237 
L 336.313559 -51.944362 
L 336.889543 -51.945851 
L 337.465527 -51.736921 
L 338.041511 -51.481493 
L 338.617495 -51.396711 
L 339.193479 -51.770225 
L 339.769463 -51.811306 
L 340.345447 -51.758049 
L 340.921431 -51.754025 
L 341.497416 -51.768639 
L 342.0734 -51.794278 
L 342.649384 -51.911538 
L 343.225368 -51.885898 
L 343.801352 -51.735819 
L 344.377336 -52.035838 
L 344.95332 -52.063321 
L 345.529304 -51.923123 
L 346.105288 -51.937434 
L 346.681272 -52.031183 
L 347.257257 -51.983272 
L 347.833241 -52.106865 
L 348.409225 -52.364106 
L 348.985209 -52.635865 
L 349.561193 -52.651423 
L 350.137177 -52.627629 
L 350.713161 -52.674392 
L 351.289145 -52.730357 
L 351.865129 -52.904231 
L 352.441113 -53.223902 
L 353.017097 -53.370669 
L 353.593082 -53.452947 
L 354.169066 -53.511108 
L 354.74505 -53.708601 
L 355.321034 -53.716635 
L 355.897018 -53.69486 
L 356.473002 -53.554816 
L 357.048986 -53.64921 
L 357.62497 -53.666596 
L 358.200954 -53.689538 
L 358.776938 -53.830933 
L 359.352923 -53.741035 
L 359.928907 -53.743718 
L 360.504891 -53.765614 
L 361.080875 -53.635164 
L 361.656859 -53.372319 
L 362.232843 -53.262254 
L 362.808827 -53.390536 
L 363.384811 -53.657876 
L 363.960795 -53.533328 
L 364.536779 -53.620065 
L 365.112764 -53.884513 
L 365.688748 -53.997962 
L 366.264732 -54.267679 
L 366.840716 -54.255262 
L 367.4167 -54.229455 
L 367.992684 -54.607755 
L 368.568668 -54.755688 
L 369.144652 -54.55709 
L 369.720636 -54.435352 
L 370.29662 -54.43166 
L 370.872605 -54.491434 
L 371.448589 -54.320934 
L 372.024573 -54.065188 
L 372.600557 -54.334434 
L 373.176541 -54.224876 
L 373.752525 -54.816105 
L 374.328509 -54.765167 
L 374.904493 -54.769081 
L 375.480477 -54.386311 
L 376.056461 -54.603494 
L 376.632445 -54.504246 
L 377.20843 -54.511516 
L 377.784414 -54.36886 
L 378.360398 -54.377963 
L 378.936382 -54.393666 
L 379.512366 -54.3065 
L 380.08835 -54.329707 
L 380.664334 -54.454598 
L 381.240318 -54.301249 
L 381.816302 -54.31 
L 382.392286 -54.275493 
L 382.968271 -54.307352 
L 383.544255 -54.313159 
L 384.120239 -54.3128 
L 384.696223 -54.351736 
L 385.272207 -54.463972 
L 385.848191 -54.704552 
L 386.424175 -54.665777 
L 387.000159 -54.610613 
L 387.576143 -54.527838 
L 388.152127 -54.50829 
L 388.728112 -54.593305 
L 389.304096 -54.592218 
L 389.88008 -54.475017 
L 390.456064 -54.486192 
L 391.032048 -54.457576 
L 391.608032 -54.199185 
L 392.184016 -54.163523 
L 392.76 -54.260547 
L 393.335984 -53.82972 
L 393.911968 -54.024441 
L 394.487953 -54.003673 
L 395.063937 -54.137621 
L 395.639921 -54.21563 
L 396.215905 -54.14017 
L 396.791889 -54.348147 
L 397.367873 -54.48837 
L 397.943857 -54.519548 
L 398.519841 -54.492015 
L 399.095825 -54.634773 
L 399.671809 -54.686017 
L 400.247793 -54.459025 
L 400.823778 -54.531098 
L 401.399762 -54.373201 
L 401.975746 -53.798233 
L 402.55173 -53.697548 
L 403.127714 -54.156666 
L 403.703698 -54.247599 
L 404.279682 -54.123783 
L 404.855666 -53.964993 
L 405.43165 -53.860656 
L 406.007634 -53.793173 
L 406.583619 -53.859861 
L 407.159603 -53.967134 
L 407.735587 -53.960154 
L 408.311571 -53.846195 
L 408.887555 -53.759075 
L 409.463539 -53.821454 
L 410.039523 -53.909264 
L 410.615507 -53.930535 
L 411.191491 -54.158641 
L 411.767475 -54.1177 
L 412.34346 -53.964061 
L 412.919444 -53.868781 
L 413.495428 -53.759668 
L 414.071412 -53.811657 
L 414.647396 -53.840174 
L 415.22338 -53.883191 
L 415.799364 -53.518969 
L 416.375348 -53.129237 
L 416.951332 -53.301358 
L 417.527316 -53.145532 
L 418.103301 -53.309935 
L 418.679285 -53.267414 
L 419.255269 -53.488837 
L 419.831253 -53.474432 
L 420.407237 -53.287271 
L 420.983221 -54.550207 
L 421.559205 -53.393666 
L 422.135189 -52.866741 
L 422.711173 -52.956165 
L 423.287157 -52.859751 
L 423.863141 -52.743715 
L 424.439126 -53.113133 
L 425.01511 -52.73852 
L 425.591094 -52.804883 
L 426.167078 -52.351594 
L 426.743062 -52.35779 
L 427.319046 -52.407292 
L 427.89503 -52.643172 
L 428.471014 -52.645745 
L 429.046998 -52.752745 
L 429.622982 -52.735386 
L 430.198967 -52.760998 
L 430.774951 -52.699517 
L 431.350935 -52.70188 
L 431.926919 -52.406076 
L 432.502903 -55.366282 
L 433.078887 -116.833478 
L 433.654871 -115.204746 
L 434.230855 -114.968069 
L 434.806839 -122.740699 
L 435.382823 -126.306377 
L 435.382823 -128.427092 
L 435.382823 -128.427092 
L 434.806839 -129.471754 
L 434.230855 -117.358401 
L 433.654871 -121.334634 
L 433.078887 -136.649245 
L 432.502903 -132.046345 
L 431.926919 -116.248301 
L 431.350935 -55.13066 
L 430.774951 -53.046485 
L 430.198967 -53.107967 
L 429.622982 -54.585885 
L 429.046998 -61.42696 
L 428.471014 -59.111062 
L 427.89503 -60.854762 
L 427.319046 -74.38197 
L 426.743062 -53.398696 
L 426.167078 -53.623812 
L 425.591094 -103.335214 
L 425.01511 -118.315588 
L 424.439126 -124.588667 
L 423.863141 -140.064149 
L 423.287157 -93.200876 
L 422.711173 -91.007056 
L 422.135189 -57.839957 
L 421.559205 -107.405113 
L 420.983221 -127.182303 
L 420.407237 -58.260488 
L 419.831253 -85.626856 
L 419.255269 -72.456455 
L 418.679285 -58.009318 
L 418.103301 -54.466497 
L 417.527316 -78.011616 
L 416.951332 -55.498826 
L 416.375348 -54.170143 
L 415.799364 -58.029561 
L 415.22338 -60.244282 
L 414.647396 -54.88108 
L 414.071412 -54.62125 
L 413.495428 -54.91623 
L 412.919444 -130.895813 
L 412.34346 -55.698904 
L 411.767475 -60.363135 
L 411.191491 -55.315203 
L 410.615507 -55.202754 
L 410.039523 -54.95017 
L 409.463539 -55.324985 
L 408.887555 -55.840887 
L 408.311571 -60.322943 
L 407.735587 -56.967215 
L 407.159603 -56.164601 
L 406.583619 -55.016423 
L 406.007634 -54.602766 
L 405.43165 -76.066647 
L 404.855666 -59.863459 
L 404.279682 -55.396002 
L 403.703698 -100.753096 
L 403.127714 -90.704026 
L 402.55173 -55.548047 
L 401.975746 -60.043668 
L 401.399762 -112.316959 
L 400.823778 -120.339479 
L 400.247793 -57.697398 
L 399.671809 -65.095076 
L 399.095825 -79.847826 
L 398.519841 -123.885737 
L 397.943857 -57.642265 
L 397.367873 -55.991901 
L 396.791889 -57.355208 
L 396.215905 -91.61278 
L 395.639921 -55.256536 
L 395.063937 -55.294183 
L 394.487953 -55.160235 
L 393.911968 -57.609783 
L 393.335984 -81.934178 
L 392.76 -88.032158 
L 392.184016 -125.5234 
L 391.608032 -68.077929 
L 391.032048 -59.315137 
L 390.456064 -56.221035 
L 389.88008 -55.168954 
L 389.304096 -55.517468 
L 388.728112 -56.328149 
L 388.152127 -56.127477 
L 387.576143 -55.337431 
L 387.000159 -55.998487 
L 386.424175 -55.359714 
L 385.848191 -55.282833 
L 385.272207 -55.620534 
L 384.696223 -55.508298 
L 384.120239 -55.353706 
L 383.544255 -55.354065 
L 382.968271 -55.116945 
L 382.392286 -54.853774 
L 381.816302 -54.772625 
L 381.240318 -54.87953 
L 380.664334 -55.032879 
L 380.08835 -54.792332 
L 379.512366 -54.653468 
L 378.936382 -54.740635 
L 378.360398 -54.724931 
L 377.784414 -54.715828 
L 377.20843 -55.205454 
L 376.632445 -55.082527 
L 376.056461 -55.991369 
L 375.480477 -55.080248 
L 374.904493 -55.463018 
L 374.328509 -55.227792 
L 373.752525 -55.27873 
L 373.176541 -54.918813 
L 372.600557 -54.797059 
L 372.024573 -54.759126 
L 371.448589 -54.899215 
L 370.872605 -55.185371 
L 370.29662 -54.894285 
L 369.720636 -54.897976 
L 369.144652 -55.019715 
L 368.568668 -55.449625 
L 367.992684 -55.186036 
L 367.4167 -54.69208 
L 366.840716 -54.717887 
L 366.264732 -54.730304 
L 365.688748 -54.576243 
L 365.112764 -54.925419 
L 364.536779 -54.198346 
L 363.960795 -54.111609 
L 363.384811 -54.120501 
L 362.808827 -53.853161 
L 362.232843 -53.609222 
L 361.656859 -53.9506 
L 361.080875 -54.444757 
L 360.504891 -54.228239 
L 359.928907 -54.206343 
L 359.352923 -54.319316 
L 358.776938 -54.409214 
L 358.200954 -54.152163 
L 357.62497 -54.129221 
L 357.048986 -54.227491 
L 356.473002 -54.248754 
L 355.897018 -54.388797 
L 355.321034 -54.641885 
L 354.74505 -54.286882 
L 354.169066 -54.205045 
L 353.593082 -53.915571 
L 353.017097 -54.180263 
L 352.441113 -53.91784 
L 351.865129 -53.482512 
L 351.289145 -53.308638 
L 350.713161 -53.137016 
L 350.137177 -53.090254 
L 349.561193 -53.114048 
L 348.985209 -53.121864 
L 348.409225 -53.058043 
L 347.833241 -52.56949 
L 347.257257 -52.330241 
L 346.681272 -52.378152 
L 346.105288 -52.284403 
L 345.529304 -52.385748 
L 344.95332 -52.525946 
L 344.377336 -52.498463 
L 343.801352 -52.198444 
L 343.225368 -52.348522 
L 342.649384 -52.374163 
L 342.0734 -52.141246 
L 341.497416 -52.115607 
L 340.921431 -52.100994 
L 340.345447 -52.220674 
L 339.769463 -52.273931 
L 339.193479 -52.117194 
L 338.617495 -51.859336 
L 338.041511 -51.944118 
L 337.465527 -52.08389 
L 336.889543 -52.408476 
L 336.313559 -52.291331 
L 335.737575 -52.511518 
L 335.16159 -52.476538 
L 334.585606 -52.684534 
L 334.009622 -52.313602 
L 333.433638 -52.503575 
L 332.857654 -52.8635 
L 332.28167 -53.17937 
L 331.705686 -52.999266 
L 331.129702 -52.916212 
L 330.553718 -52.384937 
L 329.977734 -52.415671 
L 329.401749 -52.220791 
L 328.825765 -52.344311 
L 328.249781 -52.675947 
L 327.673797 -52.419391 
L 327.097813 -52.559275 
L 326.521829 -52.321024 
L 325.945845 -52.310619 
L 325.369861 -52.296848 
L 324.793877 -52.830031 
L 324.217893 -52.901822 
L 323.641909 -53.340972 
L 323.065924 -52.362331 
L 322.48994 -52.335432 
L 321.913956 -52.305521 
L 321.337972 -52.288666 
L 320.761988 -52.523205 
L 320.186004 -52.47243 
L 319.61002 -52.412136 
L 319.034036 -52.301239 
L 318.458052 -52.1921 
L 317.882068 -52.209469 
L 317.306083 -52.331561 
L 316.730099 -52.327929 
L 316.154115 -52.433414 
L 315.578131 -52.555464 
L 315.002147 -52.24039 
L 314.426163 -52.266973 
L 313.850179 -52.399273 
L 313.274195 -51.964197 
L 312.698211 -51.684024 
L 312.122227 -50.827477 
L 311.546242 -111.214271 
L 310.970258 -115.155891 
L 310.394274 -115.127051 
L 309.81829 -112.29955 
L 309.242306 -108.268244 
L 308.666322 -118.786763 
L 308.090338 -120.643932 
L 307.514354 -119.95718 
L 306.93837 -119.038148 
L 306.362386 -120.064764 
L 305.786401 -115.737254 
L 305.210417 -116.698671 
L 304.634433 -121.739335 
L 304.058449 -117.636673 
L 303.482465 -124.259531 
L 302.906481 -123.545076 
L 302.330497 -115.355866 
L 301.754513 -76.461434 
L 301.178529 -106.691923 
L 300.602545 -120.67053 
L 300.026561 -121.926617 
L 299.450576 -119.410406 
L 298.874592 -117.884076 
L 298.298608 -111.370587 
L 297.722624 -66.020221 
L 297.14664 -118.08305 
L 296.570656 -115.8749 
L 295.994672 -118.572667 
L 295.418688 -109.59 
L 294.842704 -116.776262 
z
" style="stroke: #e6a817; stroke-opacity: 0.25"/>
    </defs>
    <g clip-path="url(#pde933d1fbf)">
     <use xlink:href="#m67e8c31b6d" x="0" y="203.554692" style="fill: #e6a817; fill-opacity: 0.25; stroke: #e6a817; stroke-opacity: 0.25"/>
    </g>
   </g>
   <g id="PolyCollection_3">
    <defs>
     <path id="m312e3bb03a" d="M 435.958808 -127.412093 
L 435.958808 -124.737128 
L 436.534792 -123.665174 
L 437.110776 -122.5593 
L 437.68676 -116.00675 
L 438.262744 -116.420285 
L 438.838728 -117.201872 
L 439.414712 -117.408076 
L 439.990696 -116.681069 
L 440.56668 -116.12481 
L 441.142664 -115.522667 
L 441.718649 -115.17282 
L 442.294633 -115.077576 
L 442.870617 -115.14618 
L 443.446601 -115.45965 
L 444.022585 -115.649644 
L 444.598569 -115.635594 
L 445.174553 -115.39804 
L 445.750537 -115.472848 
L 446.326521 -115.459773 
L 446.902505 -115.44625 
L 447.478489 -116.808857 
L 448.054474 -115.977889 
L 448.630458 -115.892011 
L 449.206442 -115.678055 
L 449.782426 -115.981677 
L 450.35841 -116.50313 
L 450.934394 -116.438741 
L 451.510378 -117.311793 
L 452.086362 -117.410986 
L 452.662346 -142.182202 
L 453.23833 -142.720111 
L 453.814315 -141.662232 
L 454.390299 -141.514538 
L 454.966283 -141.490913 
L 455.542267 -141.749696 
L 456.118251 -141.938695 
L 456.694235 -142.740257 
L 457.270219 -145.054798 
L 457.846203 -142.204317 
L 458.422187 -141.968219 
L 458.998171 -141.331724 
L 459.574156 -141.902107 
L 460.15014 -142.09065 
L 460.726124 -144.157016 
L 461.302108 -142.389293 
L 461.878092 -142.231181 
L 462.454076 -142.21015 
L 463.03006 -141.397615 
L 463.606044 -142.253704 
L 464.182028 -142.54319 
L 464.758012 -143.953065 
L 465.333997 -143.977254 
L 465.909981 -146.489456 
L 466.485965 -146.164084 
L 467.061949 -145.904124 
L 467.637933 -147.957827 
L 468.213917 -147.569536 
L 468.789901 -147.989174 
L 469.365885 -149.757129 
L 469.941869 -151.561305 
L 470.517853 -145.839546 
L 471.093837 -141.763217 
L 471.669822 -141.516831 
L 472.245806 -141.639458 
L 472.82179 -141.050723 
L 473.397774 -142.191077 
L 473.973758 -141.209895 
L 474.549742 -140.253886 
L 475.125726 -139.918834 
L 475.125726 -142.856039 
L 475.125726 -142.856039 
L 474.549742 -143.816472 
L 473.973758 -151.657914 
L 473.397774 -157.42031 
L 472.82179 -154.11715 
L 472.245806 -150.371555 
L 471.669822 -153.452082 
L 471.093837 -146.505285 
L 470.517853 -152.267946 
L 469.941869 -162.479886 
L 469.365885 -172.286668 
L 468.789901 -160.202252 
L 468.213917 -161.471008 
L 467.637933 -161.420524 
L 467.061949 -161.841187 
L 466.485965 -171.214747 
L 465.909981 -164.693829 
L 465.333997 -162.627563 
L 464.758012 -153.690736 
L 464.182028 -152.373449 
L 463.606044 -153.541288 
L 463.03006 -152.661926 
L 462.454076 -151.069751 
L 461.878092 -153.264364 
L 461.302108 -153.56119 
L 460.726124 -160.186659 
L 460.15014 -154.974146 
L 459.574156 -147.730897 
L 458.998171 -142.812312 
L 458.422187 -145.620308 
L 457.846203 -149.446431 
L 457.270219 -156.597078 
L 456.694235 -157.382036 
L 456.118251 -156.776891 
L 455.542267 -151.071009 
L 454.966283 -144.08056 
L 454.390299 -142.995177 
L 453.814315 -150.606453 
L 453.23833 -154.111693 
L 452.662346 -152.498586 
L 452.086362 -129.693962 
L 451.510378 -125.846838 
L 450.934394 -119.977203 
L 450.35841 -121.707383 
L 449.782426 -124.863731 
L 449.206442 -120.072714 
L 448.630458 -122.814886 
L 448.054474 -122.199903 
L 447.478489 -122.244051 
L 446.902505 -116.995566 
L 446.326521 -117.148279 
L 445.750537 -119.89066 
L 445.174553 -117.780256 
L 444.598569 -118.480384 
L 444.022585 -120.137219 
L 443.446601 -118.836957 
L 442.870617 -117.135804 
L 442.294633 -116.118148 
L 441.718649 -126.969962 
L 441.142664 -122.785817 
L 440.56668 -124.636826 
L 439.990696 -119.981661 
L 439.414712 -124.740361 
L 438.838728 -118.913933 
L 438.262744 -118.663755 
L 437.68676 -122.414594 
L 437.110776 -123.924535 
L 436.534792 -125.123056 
L 435.958808 -127.412093 
z
" style="stroke: #999999; stroke-opacity: 0.25"/>
    </defs>
    <g clip-path="url(#pde933d1fbf)">
     <use xlink:href="#m312e3bb03a" x="0" y="203.554692" style="fill: #999999; fill-opacity: 0.25; stroke: #999999; stroke-opacity: 0.25"/>
    </g>
   </g>
   <g id="matplotlib.axis_1">
    <g id="xtick_1">
     <g id="line2d_1">
      <path d="M 80.576619 159.572615 
L 80.576619 25.158281 
" clip-path="url(#pde933d1fbf)" style="fill: none; stroke: #b0b0b0; stroke-opacity: 0.25; stroke-width: 0.5; stroke-linecap: square"/>
     </g>
     <g id="line2d_2">
      <defs>
       <path id="ma3878d7a93" d="M 0 0 
L 0 3.5 
" style="stroke: #000000; stroke-width: 0.8"/>
      </defs>
      <g>
       <use xlink:href="#ma3878d7a93" x="80.576619" y="159.572615" style="stroke: #000000; stroke-width: 0.8"/>
      </g>
     </g>
     <g id="text_1">
      <!-- Apr 2024 -->
      <g transform="translate(47.160539 190.649467) rotate(-30) scale(0.08 -0.08)">
       <defs>
        <path id="DejaVuSerif-41" d="M 1281 1691 
L 2994 1691 
L 2138 3909 
L 1281 1691 
z
M -38 0 
L -38 331 
L 372 331 
L 2034 4666 
L 2559 4666 
L 4225 331 
L 4684 331 
L 4684 0 
L 2988 0 
L 2988 331 
L 3506 331 
L 3116 1356 
L 1153 1356 
L 763 331 
L 1275 331 
L 1275 0 
L -38 0 
z
" transform="scale(0.015625)"/>
        <path id="DejaVuSerif-70" d="M 1313 1825 
L 1313 1497 
Q 1313 897 1542 583 
Q 1772 269 2209 269 
Q 2650 269 2876 622 
Q 3103 975 3103 1663 
Q 3103 2353 2876 2703 
Q 2650 3053 2209 3053 
Q 1772 3053 1542 2737 
Q 1313 2422 1313 1825 
z
M 738 2988 
L 184 2988 
L 184 3322 
L 1313 3322 
L 1313 2803 
Q 1481 3116 1742 3264 
Q 2003 3413 2388 3413 
Q 3000 3413 3387 2928 
Q 3775 2444 3775 1663 
Q 3775 881 3387 395 
Q 3000 -91 2388 -91 
Q 2003 -91 1742 57 
Q 1481 206 1313 519 
L 1313 -997 
L 1856 -997 
L 1856 -1331 
L 184 -1331 
L 184 -997 
L 738 -997 
L 738 2988 
z
" transform="scale(0.015625)"/>
        <path id="DejaVuSerif-72" d="M 3059 3328 
L 3059 2497 
L 2728 2497 
Q 2713 2744 2591 2866 
Q 2469 2988 2234 2988 
Q 1809 2988 1582 2694 
Q 1356 2400 1356 1850 
L 1356 331 
L 2022 331 
L 2022 0 
L 263 0 
L 263 331 
L 781 331 
L 781 2994 
L 231 2994 
L 231 3322 
L 1356 3322 
L 1356 2731 
Q 1525 3078 1790 3245 
Q 2056 3413 2438 3413 
Q 2578 3413 2733 3391 
Q 2888 3369 3059 3328 
z
" transform="scale(0.015625)"/>
        <path id="DejaVuSerif-20" transform="scale(0.015625)"/>
        <path id="DejaVuSerif-32" d="M 819 3553 
L 469 3553 
L 469 4384 
Q 803 4563 1142 4656 
Q 1481 4750 1806 4750 
Q 2534 4750 2956 4397 
Q 3378 4044 3378 3438 
Q 3378 2753 2422 1800 
Q 2347 1728 2309 1691 
L 1131 513 
L 3078 513 
L 3078 1088 
L 3444 1088 
L 3444 0 
L 434 0 
L 434 341 
L 1850 1753 
Q 2319 2222 2519 2614 
Q 2719 3006 2719 3438 
Q 2719 3909 2473 4175 
Q 2228 4441 1797 4441 
Q 1350 4441 1106 4219 
Q 863 3997 819 3553 
z
" transform="scale(0.015625)"/>
        <path id="DejaVuSerif-30" d="M 2034 219 
Q 2513 219 2750 744 
Q 2988 1269 2988 2328 
Q 2988 3391 2750 3916 
Q 2513 4441 2034 4441 
Q 1556 4441 1318 3916 
Q 1081 3391 1081 2328 
Q 1081 1269 1318 744 
Q 1556 219 2034 219 
z
M 2034 -91 
Q 1275 -91 848 546 
Q 422 1184 422 2328 
Q 422 3475 848 4112 
Q 1275 4750 2034 4750 
Q 2797 4750 3222 4112 
Q 3647 3475 3647 2328 
Q 3647 1184 3222 546 
Q 2797 -91 2034 -91 
z
" transform="scale(0.015625)"/>
        <path id="DejaVuSerif-34" d="M 2234 1581 
L 2234 4063 
L 641 1581 
L 2234 1581 
z
M 3609 0 
L 1484 0 
L 1484 331 
L 2234 331 
L 2234 1247 
L 197 1247 
L 197 1588 
L 2241 4750 
L 2859 4750 
L 2859 1581 
L 3750 1581 
L 3750 1247 
L 2859 1247 
L 2859 331 
L 3609 331 
L 3609 0 
z
" transform="scale(0.015625)"/>
       </defs>
       <use xlink:href="#DejaVuSerif-41"/>
       <use xlink:href="#DejaVuSerif-70" x="72.216797"/>
       <use xlink:href="#DejaVuSerif-72" x="136.230469"/>
       <use xlink:href="#DejaVuSerif-20" x="184.033203"/>
       <use xlink:href="#DejaVuSerif-32" x="215.820312"/>
       <use xlink:href="#DejaVuSerif-30" x="279.443359"/>
       <use xlink:href="#DejaVuSerif-32" x="343.066406"/>
       <use xlink:href="#DejaVuSerif-34" x="406.689453"/>
      </g>
     </g>
    </g>
    <g id="xtick_2">
     <g id="line2d_3">
      <path d="M 115.711649 159.572615 
L 115.711649 25.158281 
" clip-path="url(#pde933d1fbf)" style="fill: none; stroke: #b0b0b0; stroke-opacity: 0.25; stroke-width: 0.5; stroke-linecap: square"/>
     </g>
     <g id="line2d_4">
      <g>
       <use xlink:href="#ma3878d7a93" x="115.711649" y="159.572615" style="stroke: #000000; stroke-width: 0.8"/>
      </g>
     </g>
     <g id="text_2">
      <!-- Jun 2024 -->
      <g transform="translate(83.343459 190.044467) rotate(-30) scale(0.08 -0.08)">
       <defs>
        <path id="DejaVuSerif-4a" d="M -538 -1119 
L -538 -384 
L -181 -384 
Q -172 -694 -34 -845 
Q 103 -997 378 -997 
Q 750 -997 897 -762 
Q 1044 -528 1044 153 
L 1044 4331 
L 319 4331 
L 319 4666 
L 2272 4666 
L 2272 4331 
L 1678 4331 
L 1678 128 
Q 1678 -644 1368 -987 
Q 1059 -1331 372 -1331 
Q 150 -1331 -79 -1278 
Q -309 -1225 -538 -1119 
z
" transform="scale(0.015625)"/>
        <path id="DejaVuSerif-75" d="M 2266 3322 
L 3341 3322 
L 3341 331 
L 3884 331 
L 3884 0 
L 2766 0 
L 2766 588 
Q 2606 256 2353 82 
Q 2100 -91 1766 -91 
Q 1213 -91 952 223 
Q 691 538 691 1209 
L 691 2988 
L 172 2988 
L 172 3322 
L 1269 3322 
L 1269 1388 
Q 1269 781 1417 556 
Q 1566 331 1947 331 
Q 2347 331 2556 625 
Q 2766 919 2766 1478 
L 2766 2988 
L 2266 2988 
L 2266 3322 
z
" transform="scale(0.015625)"/>
        <path id="DejaVuSerif-6e" d="M 263 0 
L 263 331 
L 781 331 
L 781 2988 
L 231 2988 
L 231 3322 
L 1356 3322 
L 1356 2731 
Q 1516 3069 1770 3241 
Q 2025 3413 2363 3413 
Q 2913 3413 3172 3097 
Q 3431 2781 3431 2113 
L 3431 331 
L 3944 331 
L 3944 0 
L 2356 0 
L 2356 331 
L 2853 331 
L 2853 1931 
Q 2853 2541 2703 2767 
Q 2553 2994 2175 2994 
Q 1775 2994 1565 2701 
Q 1356 2409 1356 1850 
L 1356 331 
L 1856 331 
L 1856 0 
L 263 0 
z
" transform="scale(0.015625)"/>
       </defs>
       <use xlink:href="#DejaVuSerif-4a"/>
       <use xlink:href="#DejaVuSerif-75" x="40.087891"/>
       <use xlink:href="#DejaVuSerif-6e" x="104.492188"/>
       <use xlink:href="#DejaVuSerif-20" x="168.896484"/>
       <use xlink:href="#DejaVuSerif-32" x="200.683594"/>
       <use xlink:href="#DejaVuSerif-30" x="264.306641"/>
       <use xlink:href="#DejaVuSerif-32" x="327.929688"/>
       <use xlink:href="#DejaVuSerif-34" x="391.552734"/>
      </g>
     </g>
    </g>
    <g id="xtick_3">
     <g id="line2d_5">
      <path d="M 150.846679 159.572615 
L 150.846679 25.158281 
" clip-path="url(#pde933d1fbf)" style="fill: none; stroke: #b0b0b0; stroke-opacity: 0.25; stroke-width: 0.5; stroke-linecap: square"/>
     </g>
     <g id="line2d_6">
      <g>
       <use xlink:href="#ma3878d7a93" x="150.846679" y="159.572615" style="stroke: #000000; stroke-width: 0.8"/>
      </g>
     </g>
     <g id="text_3">
      <!-- Aug 2024 -->
      <g transform="translate(116.222992 191.215331) rotate(-30) scale(0.08 -0.08)">
       <defs>
        <path id="DejaVuSerif-67" d="M 3359 2988 
L 3359 72 
Q 3359 -644 2965 -1033 
Q 2572 -1422 1844 -1422 
Q 1516 -1422 1216 -1362 
Q 916 -1303 641 -1184 
L 641 -488 
L 941 -488 
Q 997 -813 1206 -963 
Q 1416 -1113 1806 -1113 
Q 2313 -1113 2548 -827 
Q 2784 -541 2784 72 
L 2784 519 
Q 2616 206 2355 57 
Q 2094 -91 1709 -91 
Q 1097 -91 708 395 
Q 319 881 319 1663 
Q 319 2444 706 2928 
Q 1094 3413 1709 3413 
Q 2094 3413 2355 3264 
Q 2616 3116 2784 2803 
L 2784 3322 
L 3909 3322 
L 3909 2988 
L 3359 2988 
z
M 2784 1825 
Q 2784 2422 2554 2737 
Q 2325 3053 1888 3053 
Q 1444 3053 1217 2703 
Q 991 2353 991 1663 
Q 991 975 1217 622 
Q 1444 269 1888 269 
Q 2325 269 2554 583 
Q 2784 897 2784 1497 
L 2784 1825 
z
" transform="scale(0.015625)"/>
       </defs>
       <use xlink:href="#DejaVuSerif-41"/>
       <use xlink:href="#DejaVuSerif-75" x="72.216797"/>
       <use xlink:href="#DejaVuSerif-67" x="136.621094"/>
       <use xlink:href="#DejaVuSerif-20" x="200.634766"/>
       <use xlink:href="#DejaVuSerif-32" x="232.421875"/>
       <use xlink:href="#DejaVuSerif-30" x="296.044922"/>
       <use xlink:href="#DejaVuSerif-32" x="359.667969"/>
       <use xlink:href="#DejaVuSerif-34" x="423.291016"/>
      </g>
     </g>
    </g>
    <g id="xtick_4">
     <g id="line2d_7">
      <path d="M 185.981709 159.572615 
L 185.981709 25.158281 
" clip-path="url(#pde933d1fbf)" style="fill: none; stroke: #b0b0b0; stroke-opacity: 0.25; stroke-width: 0.5; stroke-linecap: square"/>
     </g>
     <g id="line2d_8">
      <g>
       <use xlink:href="#ma3878d7a93" x="185.981709" y="159.572615" style="stroke: #000000; stroke-width: 0.8"/>
      </g>
     </g>
     <g id="text_4">
      <!-- Oct 2024 -->
      <g transform="translate(152.971578 190.415092) rotate(-30) scale(0.08 -0.08)">
       <defs>
        <path id="DejaVuSerif-4f" d="M 2625 244 
Q 3391 244 3781 770 
Q 4172 1297 4172 2328 
Q 4172 3363 3781 3889 
Q 3391 4416 2625 4416 
Q 1856 4416 1465 3889 
Q 1075 3363 1075 2328 
Q 1075 1297 1465 770 
Q 1856 244 2625 244 
z
M 2625 -91 
Q 2150 -91 1751 65 
Q 1353 222 1050 525 
Q 700 875 529 1319 
Q 359 1763 359 2328 
Q 359 2894 529 3339 
Q 700 3784 1050 4134 
Q 1356 4441 1750 4595 
Q 2144 4750 2625 4750 
Q 3641 4750 4266 4084 
Q 4891 3419 4891 2328 
Q 4891 1769 4719 1320 
Q 4547 872 4197 525 
Q 3891 219 3497 64 
Q 3103 -91 2625 -91 
z
" transform="scale(0.015625)"/>
        <path id="DejaVuSerif-63" d="M 3291 997 
Q 3169 466 2822 187 
Q 2475 -91 1925 -91 
Q 1200 -91 759 389 
Q 319 869 319 1663 
Q 319 2459 759 2936 
Q 1200 3413 1925 3413 
Q 2241 3413 2553 3339 
Q 2866 3266 3181 3116 
L 3181 2266 
L 2847 2266 
Q 2781 2703 2561 2903 
Q 2341 3103 1931 3103 
Q 1466 3103 1228 2742 
Q 991 2381 991 1663 
Q 991 944 1227 581 
Q 1463 219 1931 219 
Q 2303 219 2525 412 
Q 2747 606 2828 997 
L 3291 997 
z
" transform="scale(0.015625)"/>
        <path id="DejaVuSerif-74" d="M 691 2988 
L 184 2988 
L 184 3322 
L 691 3322 
L 691 4353 
L 1269 4353 
L 1269 3322 
L 2350 3322 
L 2350 2988 
L 1269 2988 
L 1269 878 
Q 1269 456 1350 337 
Q 1431 219 1650 219 
Q 1875 219 1978 351 
Q 2081 484 2088 781 
L 2522 781 
Q 2497 328 2275 118 
Q 2053 -91 1600 -91 
Q 1103 -91 897 129 
Q 691 350 691 878 
L 691 2988 
z
" transform="scale(0.015625)"/>
       </defs>
       <use xlink:href="#DejaVuSerif-4f"/>
       <use xlink:href="#DejaVuSerif-63" x="81.982422"/>
       <use xlink:href="#DejaVuSerif-74" x="137.988281"/>
       <use xlink:href="#DejaVuSerif-20" x="178.173828"/>
       <use xlink:href="#DejaVuSerif-32" x="209.960938"/>
       <use xlink:href="#DejaVuSerif-30" x="273.583984"/>
       <use xlink:href="#DejaVuSerif-32" x="337.207031"/>
       <use xlink:href="#DejaVuSerif-34" x="400.830078"/>
      </g>
     </g>
    </g>
    <g id="xtick_5">
     <g id="line2d_9">
      <path d="M 221.116739 159.572615 
L 221.116739 25.158281 
" clip-path="url(#pde933d1fbf)" style="fill: none; stroke: #b0b0b0; stroke-opacity: 0.25; stroke-width: 0.5; stroke-linecap: square"/>
     </g>
     <g id="line2d_10">
      <g>
       <use xlink:href="#ma3878d7a93" x="221.116739" y="159.572615" style="stroke: #000000; stroke-width: 0.8"/>
      </g>
     </g>
     <g id="text_5">
      <!-- Dec 2024 -->
      <g transform="translate(186.915823 191.102592) rotate(-30) scale(0.08 -0.08)">
       <defs>
        <path id="DejaVuSerif-44" d="M 1581 331 
L 2163 331 
Q 3072 331 3558 850 
Q 4044 1369 4044 2338 
Q 4044 3306 3559 3818 
Q 3075 4331 2163 4331 
L 1581 4331 
L 1581 331 
z
M 353 0 
L 353 331 
L 947 331 
L 947 4331 
L 353 4331 
L 353 4666 
L 2209 4666 
Q 3416 4666 4089 4050 
Q 4763 3434 4763 2338 
Q 4763 1238 4088 619 
Q 3413 0 2209 0 
L 353 0 
z
" transform="scale(0.015625)"/>
        <path id="DejaVuSerif-65" d="M 3469 1600 
L 991 1600 
L 991 1575 
Q 991 903 1244 561 
Q 1497 219 1991 219 
Q 2369 219 2611 417 
Q 2853 616 2950 1006 
L 3413 1006 
Q 3275 459 2904 184 
Q 2534 -91 1931 -91 
Q 1203 -91 761 389 
Q 319 869 319 1663 
Q 319 2450 753 2931 
Q 1188 3413 1894 3413 
Q 2647 3413 3050 2948 
Q 3453 2484 3469 1600 
z
M 2791 1931 
Q 2772 2513 2545 2808 
Q 2319 3103 1894 3103 
Q 1497 3103 1269 2806 
Q 1041 2509 991 1931 
L 2791 1931 
z
" transform="scale(0.015625)"/>
       </defs>
       <use xlink:href="#DejaVuSerif-44"/>
       <use xlink:href="#DejaVuSerif-65" x="80.175781"/>
       <use xlink:href="#DejaVuSerif-63" x="139.355469"/>
       <use xlink:href="#DejaVuSerif-20" x="195.361328"/>
       <use xlink:href="#DejaVuSerif-32" x="227.148438"/>
       <use xlink:href="#DejaVuSerif-30" x="290.771484"/>
       <use xlink:href="#DejaVuSerif-32" x="354.394531"/>
       <use xlink:href="#DejaVuSerif-34" x="418.017578"/>
      </g>
     </g>
    </g>
    <g id="xtick_6">
     <g id="line2d_11">
      <path d="M 256.827753 159.572615 
L 256.827753 25.158281 
" clip-path="url(#pde933d1fbf)" style="fill: none; stroke: #b0b0b0; stroke-opacity: 0.25; stroke-width: 0.5; stroke-linecap: square"/>
     </g>
     <g id="line2d_12">
      <g>
       <use xlink:href="#ma3878d7a93" x="256.827753" y="159.572615" style="stroke: #000000; stroke-width: 0.8"/>
      </g>
     </g>
     <g id="text_6">
      <!-- Feb 2025 -->
      <g transform="translate(223.199496 190.771967) rotate(-30) scale(0.08 -0.08)">
       <defs>
        <path id="DejaVuSerif-46" d="M 353 0 
L 353 331 
L 947 331 
L 947 4331 
L 353 4331 
L 353 4666 
L 4172 4666 
L 4172 3628 
L 3788 3628 
L 3788 4281 
L 1581 4281 
L 1581 2719 
L 3175 2719 
L 3175 3303 
L 3559 3303 
L 3559 1753 
L 3175 1753 
L 3175 2338 
L 1581 2338 
L 1581 331 
L 2328 331 
L 2328 0 
L 353 0 
z
" transform="scale(0.015625)"/>
        <path id="DejaVuSerif-62" d="M 738 331 
L 738 4531 
L 184 4531 
L 184 4863 
L 1313 4863 
L 1313 2803 
Q 1481 3116 1742 3264 
Q 2003 3413 2388 3413 
Q 3000 3413 3387 2928 
Q 3775 2444 3775 1663 
Q 3775 881 3387 395 
Q 3000 -91 2388 -91 
Q 2003 -91 1742 57 
Q 1481 206 1313 519 
L 1313 0 
L 184 0 
L 184 331 
L 738 331 
z
M 1313 1497 
Q 1313 897 1542 583 
Q 1772 269 2209 269 
Q 2650 269 2876 622 
Q 3103 975 3103 1663 
Q 3103 2353 2876 2703 
Q 2650 3053 2209 3053 
Q 1772 3053 1542 2737 
Q 1313 2422 1313 1825 
L 1313 1497 
z
" transform="scale(0.015625)"/>
        <path id="DejaVuSerif-35" d="M 3219 4666 
L 3219 4153 
L 1081 4153 
L 1081 2816 
Q 1244 2928 1461 2984 
Q 1678 3041 1947 3041 
Q 2703 3041 3140 2622 
Q 3578 2203 3578 1478 
Q 3578 738 3136 323 
Q 2694 -91 1894 -91 
Q 1572 -91 1234 -12 
Q 897 66 544 225 
L 544 1131 
L 897 1131 
Q 925 688 1179 453 
Q 1434 219 1894 219 
Q 2388 219 2653 544 
Q 2919 869 2919 1478 
Q 2919 2084 2655 2407 
Q 2391 2731 1894 2731 
Q 1613 2731 1398 2631 
Q 1184 2531 1019 2322 
L 750 2322 
L 750 4666 
L 3219 4666 
z
" transform="scale(0.015625)"/>
       </defs>
       <use xlink:href="#DejaVuSerif-46"/>
       <use xlink:href="#DejaVuSerif-65" x="63.884766"/>
       <use xlink:href="#DejaVuSerif-62" x="123.064453"/>
       <use xlink:href="#DejaVuSerif-20" x="187.078125"/>
       <use xlink:href="#DejaVuSerif-32" x="218.865234"/>
       <use xlink:href="#DejaVuSerif-30" x="282.488281"/>
       <use xlink:href="#DejaVuSerif-32" x="346.111328"/>
       <use xlink:href="#DejaVuSerif-35" x="409.734375"/>
      </g>
     </g>
    </g>
    <g id="xtick_7">
     <g id="line2d_13">
      <path d="M 290.810815 159.572615 
L 290.810815 25.158281 
" clip-path="url(#pde933d1fbf)" style="fill: none; stroke: #b0b0b0; stroke-opacity: 0.25; stroke-width: 0.5; stroke-linecap: square"/>
     </g>
     <g id="line2d_14">
      <g>
       <use xlink:href="#ma3878d7a93" x="290.810815" y="159.572615" style="stroke: #000000; stroke-width: 0.8"/>
      </g>
     </g>
     <g id="text_7">
      <!-- Apr 2025 -->
      <g transform="translate(257.394734 190.649467) rotate(-30) scale(0.08 -0.08)">
       <use xlink:href="#DejaVuSerif-41"/>
       <use xlink:href="#DejaVuSerif-70" x="72.216797"/>
       <use xlink:href="#DejaVuSerif-72" x="136.230469"/>
       <use xlink:href="#DejaVuSerif-20" x="184.033203"/>
       <use xlink:href="#DejaVuSerif-32" x="215.820312"/>
       <use xlink:href="#DejaVuSerif-30" x="279.443359"/>
       <use xlink:href="#DejaVuSerif-32" x="343.066406"/>
       <use xlink:href="#DejaVuSerif-35" x="406.689453"/>
      </g>
     </g>
    </g>
    <g id="xtick_8">
     <g id="line2d_15">
      <path d="M 325.945845 159.572615 
L 325.945845 25.158281 
" clip-path="url(#pde933d1fbf)" style="fill: none; stroke: #b0b0b0; stroke-opacity: 0.25; stroke-width: 0.5; stroke-linecap: square"/>
     </g>
     <g id="line2d_16">
      <g>
       <use xlink:href="#ma3878d7a93" x="325.945845" y="159.572615" style="stroke: #000000; stroke-width: 0.8"/>
      </g>
     </g>
     <g id="text_8">
      <!-- Jun 2025 -->
      <g transform="translate(293.577655 190.044467) rotate(-30) scale(0.08 -0.08)">
       <use xlink:href="#DejaVuSerif-4a"/>
       <use xlink:href="#DejaVuSerif-75" x="40.087891"/>
       <use xlink:href="#DejaVuSerif-6e" x="104.492188"/>
       <use xlink:href="#DejaVuSerif-20" x="168.896484"/>
       <use xlink:href="#DejaVuSerif-32" x="200.683594"/>
       <use xlink:href="#DejaVuSerif-30" x="264.306641"/>
       <use xlink:href="#DejaVuSerif-32" x="327.929688"/>
       <use xlink:href="#DejaVuSerif-35" x="391.552734"/>
      </g>
     </g>
    </g>
    <g id="xtick_9">
     <g id="line2d_17">
      <path d="M 361.080875 159.572615 
L 361.080875 25.158281 
" clip-path="url(#pde933d1fbf)" style="fill: none; stroke: #b0b0b0; stroke-opacity: 0.25; stroke-width: 0.5; stroke-linecap: square"/>
     </g>
     <g id="line2d_18">
      <g>
       <use xlink:href="#ma3878d7a93" x="361.080875" y="159.572615" style="stroke: #000000; stroke-width: 0.8"/>
      </g>
     </g>
     <g id="text_9">
      <!-- Aug 2025 -->
      <g transform="translate(326.457188 191.215331) rotate(-30) scale(0.08 -0.08)">
       <use xlink:href="#DejaVuSerif-41"/>
       <use xlink:href="#DejaVuSerif-75" x="72.216797"/>
       <use xlink:href="#DejaVuSerif-67" x="136.621094"/>
       <use xlink:href="#DejaVuSerif-20" x="200.634766"/>
       <use xlink:href="#DejaVuSerif-32" x="232.421875"/>
       <use xlink:href="#DejaVuSerif-30" x="296.044922"/>
       <use xlink:href="#DejaVuSerif-32" x="359.667969"/>
       <use xlink:href="#DejaVuSerif-35" x="423.291016"/>
      </g>
     </g>
    </g>
    <g id="xtick_10">
     <g id="line2d_19">
      <path d="M 396.215905 159.572615 
L 396.215905 25.158281 
" clip-path="url(#pde933d1fbf)" style="fill: none; stroke: #b0b0b0; stroke-opacity: 0.25; stroke-width: 0.5; stroke-linecap: square"/>
     </g>
     <g id="line2d_20">
      <g>
       <use xlink:href="#ma3878d7a93" x="396.215905" y="159.572615" style="stroke: #000000; stroke-width: 0.8"/>
      </g>
     </g>
     <g id="text_10">
      <!-- Oct 2025 -->
      <g transform="translate(363.205773 190.415092) rotate(-30) scale(0.08 -0.08)">
       <use xlink:href="#DejaVuSerif-4f"/>
       <use xlink:href="#DejaVuSerif-63" x="81.982422"/>
       <use xlink:href="#DejaVuSerif-74" x="137.988281"/>
       <use xlink:href="#DejaVuSerif-20" x="178.173828"/>
       <use xlink:href="#DejaVuSerif-32" x="209.960938"/>
       <use xlink:href="#DejaVuSerif-30" x="273.583984"/>
       <use xlink:href="#DejaVuSerif-32" x="337.207031"/>
       <use xlink:href="#DejaVuSerif-35" x="400.830078"/>
      </g>
     </g>
    </g>
    <g id="xtick_11">
     <g id="line2d_21">
      <path d="M 431.350935 159.572615 
L 431.350935 25.158281 
" clip-path="url(#pde933d1fbf)" style="fill: none; stroke: #b0b0b0; stroke-opacity: 0.25; stroke-width: 0.5; stroke-linecap: square"/>
     </g>
     <g id="line2d_22">
      <g>
       <use xlink:href="#ma3878d7a93" x="431.350935" y="159.572615" style="stroke: #000000; stroke-width: 0.8"/>
      </g>
     </g>
     <g id="text_11">
      <!-- Dec 2025 -->
      <g transform="translate(397.150018 191.102592) rotate(-30) scale(0.08 -0.08)">
       <use xlink:href="#DejaVuSerif-44"/>
       <use xlink:href="#DejaVuSerif-65" x="80.175781"/>
       <use xlink:href="#DejaVuSerif-63" x="139.355469"/>
       <use xlink:href="#DejaVuSerif-20" x="195.361328"/>
       <use xlink:href="#DejaVuSerif-32" x="227.148438"/>
       <use xlink:href="#DejaVuSerif-30" x="290.771484"/>
       <use xlink:href="#DejaVuSerif-32" x="354.394531"/>
       <use xlink:href="#DejaVuSerif-35" x="418.017578"/>
      </g>
     </g>
    </g>
    <g id="xtick_12">
     <g id="line2d_23">
      <path d="M 467.061949 159.572615 
L 467.061949 25.158281 
" clip-path="url(#pde933d1fbf)" style="fill: none; stroke: #b0b0b0; stroke-opacity: 0.25; stroke-width: 0.5; stroke-linecap: square"/>
     </g>
     <g id="line2d_24">
      <g>
       <use xlink:href="#ma3878d7a93" x="467.061949" y="159.572615" style="stroke: #000000; stroke-width: 0.8"/>
      </g>
     </g>
     <g id="text_12">
      <!-- Feb 2026 -->
      <g transform="translate(433.433692 190.771967) rotate(-30) scale(0.08 -0.08)">
       <defs>
        <path id="DejaVuSerif-36" d="M 2094 219 
Q 2534 219 2771 542 
Q 3009 866 3009 1472 
Q 3009 2078 2771 2401 
Q 2534 2725 2094 2725 
Q 1647 2725 1412 2412 
Q 1178 2100 1178 1509 
Q 1178 888 1415 553 
Q 1653 219 2094 219 
z
M 1075 2569 
Q 1288 2803 1556 2918 
Q 1825 3034 2163 3034 
Q 2859 3034 3264 2615 
Q 3669 2197 3669 1472 
Q 3669 763 3233 336 
Q 2797 -91 2069 -91 
Q 1278 -91 853 498 
Q 428 1088 428 2181 
Q 428 3406 931 4078 
Q 1434 4750 2350 4750 
Q 2597 4750 2869 4703 
Q 3141 4656 3425 4563 
L 3425 3794 
L 3072 3794 
Q 3034 4109 2831 4275 
Q 2628 4441 2284 4441 
Q 1678 4441 1381 3981 
Q 1084 3522 1075 2569 
z
" transform="scale(0.015625)"/>
       </defs>
       <use xlink:href="#DejaVuSerif-46"/>
       <use xlink:href="#DejaVuSerif-65" x="63.884766"/>
       <use xlink:href="#DejaVuSerif-62" x="123.064453"/>
       <use xlink:href="#DejaVuSerif-20" x="187.078125"/>
       <use xlink:href="#DejaVuSerif-32" x="218.865234"/>
       <use xlink:href="#DejaVuSerif-30" x="282.488281"/>
       <use xlink:href="#DejaVuSerif-32" x="346.111328"/>
       <use xlink:href="#DejaVuSerif-36" x="409.734375"/>
      </g>
     </g>
    </g>
   </g>
   <g id="matplotlib.axis_2">
    <g id="ytick_1">
     <g id="line2d_25">
      <path d="M 49.358281 143.134509 
L 495.400366 143.134509 
" clip-path="url(#pde933d1fbf)" style="fill: none; stroke: #b0b0b0; stroke-opacity: 0.25; stroke-width: 0.5; stroke-linecap: square"/>
     </g>
     <g id="line2d_26">
      <defs>
       <path id="mcc3f87f19a" d="M 0 0 
L -3.5 0 
" style="stroke: #000000; stroke-width: 0.8"/>
      </defs>
      <g>
       <use xlink:href="#mcc3f87f19a" x="49.358281" y="143.134509" style="stroke: #000000; stroke-width: 0.8"/>
      </g>
     </g>
     <g id="text_13">
      <!-- $\mathdefault{10^{-9}}$ -->
      <g transform="translate(23.638281 146.173884) scale(0.08 -0.08)">
       <defs>
        <path id="DejaVuSerif-31" d="M 909 0 
L 909 331 
L 1722 331 
L 1722 4213 
L 781 3603 
L 781 4013 
L 1919 4750 
L 2350 4750 
L 2350 331 
L 3163 331 
L 3163 0 
L 909 0 
z
" transform="scale(0.015625)"/>
        <path id="DejaVuSerif-2212" d="M 678 2259 
L 4684 2259 
L 4684 1753 
L 678 1753 
L 678 2259 
z
" transform="scale(0.015625)"/>
        <path id="DejaVuSerif-39" d="M 2994 2091 
Q 2784 1856 2512 1740 
Q 2241 1625 1900 1625 
Q 1206 1625 804 2044 
Q 403 2463 403 3188 
Q 403 3897 839 4323 
Q 1275 4750 2003 4750 
Q 2794 4750 3217 4161 
Q 3641 3572 3641 2478 
Q 3641 1253 3137 581 
Q 2634 -91 1722 -91 
Q 1475 -91 1203 -44 
Q 931 3 647 97 
L 647 872 
L 997 872 
Q 1038 556 1241 387 
Q 1444 219 1784 219 
Q 2391 219 2687 676 
Q 2984 1134 2994 2091 
z
M 1978 4441 
Q 1534 4441 1298 4117 
Q 1063 3794 1063 3188 
Q 1063 2581 1298 2256 
Q 1534 1931 1978 1931 
Q 2422 1931 2658 2245 
Q 2894 2559 2894 3150 
Q 2894 3772 2656 4106 
Q 2419 4441 1978 4441 
z
" transform="scale(0.015625)"/>
       </defs>
       <use xlink:href="#DejaVuSerif-31" transform="translate(0 0.7125)"/>
       <use xlink:href="#DejaVuSerif-30" transform="translate(63.623047 0.7125)"/>
       <use xlink:href="#DejaVuSerif-2212" transform="translate(128.154453 37.046875) scale(0.7)"/>
       <use xlink:href="#DejaVuSerif-39" transform="translate(186.806797 37.046875) scale(0.7)"/>
      </g>
     </g>
    </g>
    <g id="ytick_2">
     <g id="line2d_27">
      <path d="M 49.358281 122.785448 
L 495.400366 122.785448 
" clip-path="url(#pde933d1fbf)" style="fill: none; stroke: #b0b0b0; stroke-opacity: 0.25; stroke-width: 0.5; stroke-linecap: square"/>
     </g>
     <g id="line2d_28">
      <g>
       <use xlink:href="#mcc3f87f19a" x="49.358281" y="122.785448" style="stroke: #000000; stroke-width: 0.8"/>
      </g>
     </g>
     <g id="text_14">
      <!-- $\mathdefault{10^{-7}}$ -->
      <g transform="translate(23.638281 125.824823) scale(0.08 -0.08)">
       <defs>
        <path id="DejaVuSerif-37" d="M 3609 4347 
L 1784 0 
L 1319 0 
L 3059 4153 
L 903 4153 
L 903 3578 
L 538 3578 
L 538 4666 
L 3609 4666 
L 3609 4347 
z
" transform="scale(0.015625)"/>
       </defs>
       <use xlink:href="#DejaVuSerif-31" transform="translate(0 0.63125)"/>
       <use xlink:href="#DejaVuSerif-30" transform="translate(63.623047 0.63125)"/>
       <use xlink:href="#DejaVuSerif-2212" transform="translate(128.154453 36.965625) scale(0.7)"/>
       <use xlink:href="#DejaVuSerif-37" transform="translate(186.806797 36.965625) scale(0.7)"/>
      </g>
     </g>
    </g>
    <g id="ytick_3">
     <g id="line2d_29">
      <path d="M 49.358281 102.436386 
L 495.400366 102.436386 
" clip-path="url(#pde933d1fbf)" style="fill: none; stroke: #b0b0b0; stroke-opacity: 0.25; stroke-width: 0.5; stroke-linecap: square"/>
     </g>
     <g id="line2d_30">
      <g>
       <use xlink:href="#mcc3f87f19a" x="49.358281" y="102.436386" style="stroke: #000000; stroke-width: 0.8"/>
      </g>
     </g>
     <g id="text_15">
      <!-- $\mathdefault{10^{-5}}$ -->
      <g transform="translate(23.638281 105.475761) scale(0.08 -0.08)">
       <use xlink:href="#DejaVuSerif-31" transform="translate(0 0.63125)"/>
       <use xlink:href="#DejaVuSerif-30" transform="translate(63.623047 0.63125)"/>
       <use xlink:href="#DejaVuSerif-2212" transform="translate(128.154453 36.965625) scale(0.7)"/>
       <use xlink:href="#DejaVuSerif-35" transform="translate(186.806797 36.965625) scale(0.7)"/>
      </g>
     </g>
    </g>
    <g id="ytick_4">
     <g id="line2d_31">
      <path d="M 49.358281 82.087325 
L 495.400366 82.087325 
" clip-path="url(#pde933d1fbf)" style="fill: none; stroke: #b0b0b0; stroke-opacity: 0.25; stroke-width: 0.5; stroke-linecap: square"/>
     </g>
     <g id="line2d_32">
      <g>
       <use xlink:href="#mcc3f87f19a" x="49.358281" y="82.087325" style="stroke: #000000; stroke-width: 0.8"/>
      </g>
     </g>
     <g id="text_16">
      <!-- $\mathdefault{10^{-3}}$ -->
      <g transform="translate(23.638281 85.1267) scale(0.08 -0.08)">
       <defs>
        <path id="DejaVuSerif-33" d="M 622 4469 
Q 988 4606 1323 4678 
Q 1659 4750 1953 4750 
Q 2638 4750 3022 4454 
Q 3406 4159 3406 3634 
Q 3406 3213 3140 2930 
Q 2875 2647 2388 2547 
Q 2963 2466 3280 2130 
Q 3597 1794 3597 1259 
Q 3597 606 3158 257 
Q 2719 -91 1894 -91 
Q 1528 -91 1179 -12 
Q 831 66 488 225 
L 488 1131 
L 838 1131 
Q 869 681 1141 450 
Q 1413 219 1906 219 
Q 2384 219 2661 495 
Q 2938 772 2938 1253 
Q 2938 1803 2653 2086 
Q 2369 2369 1819 2369 
L 1522 2369 
L 1522 2688 
L 1678 2688 
Q 2225 2688 2498 2914 
Q 2772 3141 2772 3597 
Q 2772 4006 2547 4223 
Q 2322 4441 1900 4441 
Q 1478 4441 1245 4241 
Q 1013 4041 972 3647 
L 622 3647 
L 622 4469 
z
" transform="scale(0.015625)"/>
       </defs>
       <use xlink:href="#DejaVuSerif-31" transform="translate(0 0.7125)"/>
       <use xlink:href="#DejaVuSerif-30" transform="translate(63.623047 0.7125)"/>
       <use xlink:href="#DejaVuSerif-2212" transform="translate(128.154453 37.046875) scale(0.7)"/>
       <use xlink:href="#DejaVuSerif-33" transform="translate(186.806797 37.046875) scale(0.7)"/>
      </g>
     </g>
    </g>
    <g id="ytick_5">
     <g id="line2d_33">
      <path d="M 49.358281 61.738263 
L 495.400366 61.738263 
" clip-path="url(#pde933d1fbf)" style="fill: none; stroke: #b0b0b0; stroke-opacity: 0.25; stroke-width: 0.5; stroke-linecap: square"/>
     </g>
     <g id="line2d_34">
      <g>
       <use xlink:href="#mcc3f87f19a" x="49.358281" y="61.738263" style="stroke: #000000; stroke-width: 0.8"/>
      </g>
     </g>
     <g id="text_17">
      <!-- $\mathdefault{10^{-1}}$ -->
      <g transform="translate(23.638281 64.777638) scale(0.08 -0.08)">
       <use xlink:href="#DejaVuSerif-31" transform="translate(0 0.7125)"/>
       <use xlink:href="#DejaVuSerif-30" transform="translate(63.623047 0.7125)"/>
       <use xlink:href="#DejaVuSerif-2212" transform="translate(128.154453 37.046875) scale(0.7)"/>
       <use xlink:href="#DejaVuSerif-31" transform="translate(186.806797 37.046875) scale(0.7)"/>
      </g>
     </g>
    </g>
    <g id="ytick_6">
     <g id="line2d_35">
      <path d="M 49.358281 41.389202 
L 495.400366 41.389202 
" clip-path="url(#pde933d1fbf)" style="fill: none; stroke: #b0b0b0; stroke-opacity: 0.25; stroke-width: 0.5; stroke-linecap: square"/>
     </g>
     <g id="line2d_36">
      <g>
       <use xlink:href="#mcc3f87f19a" x="49.358281" y="41.389202" style="stroke: #000000; stroke-width: 0.8"/>
      </g>
     </g>
     <g id="text_18">
      <!-- $\mathdefault{10^{1}}$ -->
      <g transform="translate(28.278281 44.428577) scale(0.08 -0.08)">
       <use xlink:href="#DejaVuSerif-31" transform="translate(0 0.7125)"/>
       <use xlink:href="#DejaVuSerif-30" transform="translate(63.623047 0.7125)"/>
       <use xlink:href="#DejaVuSerif-31" transform="translate(128.154453 37.046875) scale(0.7)"/>
      </g>
     </g>
    </g>
    <g id="text_19">
     <!-- $/MiB/day -->
     <g transform="translate(17.638594 115.720448) rotate(-90) scale(0.09 -0.09)">
      <defs>
       <path id="DejaVuSerif-24" d="M 2156 213 
Q 2509 244 2695 416 
Q 2881 588 2881 884 
Q 2881 1153 2697 1340 
Q 2513 1528 2156 1625 
L 2156 213 
z
M 1844 3709 
Q 1522 3688 1344 3523 
Q 1166 3359 1166 3084 
Q 1166 2834 1330 2668 
Q 1494 2503 1844 2400 
L 1844 3709 
z
M 550 225 
L 550 1088 
L 888 1088 
Q 900 659 1137 440 
Q 1375 222 1844 213 
L 1844 1728 
Q 1125 1928 834 2189 
Q 544 2450 544 2881 
Q 544 3381 887 3684 
Q 1231 3988 1844 4025 
L 1844 4863 
L 2156 4863 
L 2156 4025 
Q 2472 4000 2764 3923 
Q 3056 3847 3334 3719 
L 3334 2900 
L 2994 2900 
Q 2956 3263 2740 3472 
Q 2525 3681 2156 3709 
L 2156 2297 
Q 2925 2088 3233 1817 
Q 3541 1547 3541 1094 
Q 3541 575 3178 262 
Q 2816 -50 2156 -97 
L 2156 -941 
L 1844 -941 
L 1844 -97 
Q 1544 -91 1222 -11 
Q 900 69 550 225 
z
" transform="scale(0.015625)"/>
       <path id="DejaVuSerif-2f" d="M 1656 4666 
L 2156 4666 
L 500 -594 
L 0 -594 
L 1656 4666 
z
" transform="scale(0.015625)"/>
       <path id="DejaVuSerif-4d" d="M 353 0 
L 353 331 
L 947 331 
L 947 4331 
L 319 4331 
L 319 4666 
L 1678 4666 
L 3316 1344 
L 4953 4666 
L 6228 4666 
L 6228 4331 
L 5606 4331 
L 5606 331 
L 6203 331 
L 6203 0 
L 4378 0 
L 4378 331 
L 4972 331 
L 4972 3938 
L 3372 684 
L 2931 684 
L 1331 3938 
L 1331 331 
L 1925 331 
L 1925 0 
L 353 0 
z
" transform="scale(0.015625)"/>
       <path id="DejaVuSerif-69" d="M 622 4353 
Q 622 4497 726 4603 
Q 831 4709 978 4709 
Q 1122 4709 1226 4603 
Q 1331 4497 1331 4353 
Q 1331 4206 1228 4103 
Q 1125 4000 978 4000 
Q 831 4000 726 4103 
Q 622 4206 622 4353 
z
M 1356 331 
L 1900 331 
L 1900 0 
L 231 0 
L 231 331 
L 781 331 
L 781 2988 
L 231 2988 
L 231 3322 
L 1356 3322 
L 1356 331 
z
" transform="scale(0.015625)"/>
       <path id="DejaVuSerif-42" d="M 1581 331 
L 2516 331 
Q 3078 331 3337 575 
Q 3597 819 3597 1350 
Q 3597 1878 3339 2120 
Q 3081 2363 2516 2363 
L 1581 2363 
L 1581 331 
z
M 1581 2694 
L 2375 2694 
Q 2888 2694 3123 2891 
Q 3359 3088 3359 3513 
Q 3359 3941 3123 4136 
Q 2888 4331 2375 4331 
L 1581 4331 
L 1581 2694 
z
M 353 0 
L 353 331 
L 947 331 
L 947 4331 
L 353 4331 
L 353 4666 
L 2656 4666 
Q 3363 4666 3720 4377 
Q 4078 4088 4078 3513 
Q 4078 3097 3829 2850 
Q 3581 2603 3103 2547 
Q 3697 2472 4005 2167 
Q 4313 1863 4313 1350 
Q 4313 656 3875 328 
Q 3438 0 2509 0 
L 353 0 
z
" transform="scale(0.015625)"/>
       <path id="DejaVuSerif-64" d="M 3359 331 
L 3909 331 
L 3909 0 
L 2784 0 
L 2784 519 
Q 2616 206 2355 57 
Q 2094 -91 1709 -91 
Q 1097 -91 708 395 
Q 319 881 319 1663 
Q 319 2444 706 2928 
Q 1094 3413 1709 3413 
Q 2094 3413 2355 3264 
Q 2616 3116 2784 2803 
L 2784 4531 
L 2241 4531 
L 2241 4863 
L 3359 4863 
L 3359 331 
z
M 2784 1497 
L 2784 1825 
Q 2784 2422 2554 2737 
Q 2325 3053 1888 3053 
Q 1444 3053 1217 2703 
Q 991 2353 991 1663 
Q 991 975 1217 622 
Q 1444 269 1888 269 
Q 2325 269 2554 583 
Q 2784 897 2784 1497 
z
" transform="scale(0.015625)"/>
       <path id="DejaVuSerif-61" d="M 2547 1044 
L 2547 1747 
L 1806 1747 
Q 1378 1747 1168 1562 
Q 959 1378 959 997 
Q 959 650 1171 447 
Q 1384 244 1747 244 
Q 2106 244 2326 466 
Q 2547 688 2547 1044 
z
M 3122 2075 
L 3122 331 
L 3634 331 
L 3634 0 
L 2547 0 
L 2547 359 
Q 2356 128 2106 18 
Q 1856 -91 1522 -91 
Q 969 -91 644 203 
Q 319 497 319 997 
Q 319 1513 691 1797 
Q 1063 2081 1741 2081 
L 2547 2081 
L 2547 2309 
Q 2547 2688 2317 2895 
Q 2088 3103 1672 3103 
Q 1328 3103 1125 2947 
Q 922 2791 872 2484 
L 575 2484 
L 575 3156 
Q 875 3284 1158 3348 
Q 1441 3413 1709 3413 
Q 2400 3413 2761 3070 
Q 3122 2728 3122 2075 
z
" transform="scale(0.015625)"/>
       <path id="DejaVuSerif-79" d="M 1381 -609 
L 1600 -56 
L 359 2988 
L -19 2988 
L -19 3322 
L 1509 3322 
L 1509 2988 
L 978 2988 
L 1913 703 
L 2847 2988 
L 2350 2988 
L 2350 3322 
L 3597 3322 
L 3597 2988 
L 3225 2988 
L 1703 -750 
Q 1547 -1138 1356 -1280 
Q 1166 -1422 819 -1422 
Q 672 -1422 517 -1397 
Q 363 -1372 206 -1325 
L 206 -691 
L 500 -691 
Q 519 -903 608 -995 
Q 697 -1088 884 -1088 
Q 1056 -1088 1161 -992 
Q 1266 -897 1381 -609 
z
" transform="scale(0.015625)"/>
      </defs>
      <use xlink:href="#DejaVuSerif-24"/>
      <use xlink:href="#DejaVuSerif-2f" x="63.623047"/>
      <use xlink:href="#DejaVuSerif-4d" x="97.314453"/>
      <use xlink:href="#DejaVuSerif-69" x="199.707031"/>
      <use xlink:href="#DejaVuSerif-42" x="231.689453"/>
      <use xlink:href="#DejaVuSerif-2f" x="305.175781"/>
      <use xlink:href="#DejaVuSerif-64" x="338.867188"/>
      <use xlink:href="#DejaVuSerif-61" x="402.880859"/>
      <use xlink:href="#DejaVuSerif-79" x="462.5"/>
     </g>
    </g>
   </g>
   <g id="line2d_37">
    <path d="M 266.037211 204.554692 
L 266.043499 93.950234 
L 266.619483 87.628825 
L 267.195467 104.28594 
L 267.771451 91.142418 
L 268.347435 85.431873 
L 268.923419 86.955988 
L 269.499403 108.41091 
L 270.651372 85.37139 
L 271.227356 87.351301 
L 271.80334 89.975201 
L 272.379324 88.74216 
L 272.955308 150.870375 
L 273.531292 146.635561 
L 274.107276 88.46904 
L 274.68326 92.408105 
L 275.259244 111.559366 
L 275.835228 123.678966 
L 276.411213 96.577442 
L 276.987197 127.929911 
L 277.563181 137.871364 
L 278.139165 89.678917 
L 278.715149 89.298452 
L 279.291133 88.159434 
L 279.867117 89.687527 
L 281.019085 109.464714 
L 281.595069 131.719525 
L 282.171053 91.013025 
L 282.747038 102.135772 
L 283.323022 136.361725 
L 283.899006 149.494645 
L 284.47499 136.715886 
L 285.050974 146.583175 
L 285.626958 151.869727 
L 286.202942 150.896722 
L 286.778926 147.145196 
L 287.35491 142.075804 
L 287.930894 128.439963 
L 288.506879 95.02981 
L 289.082863 121.293561 
L 289.658847 137.645894 
L 290.234831 100.347127 
L 290.810815 117.765267 
L 291.386799 151.109049 
L 291.962783 128.243782 
L 292.538767 148.659861 
L 293.114751 152.601416 
L 293.690735 152.034205 
L 294.26672 92.508392 
L 294.26672 92.508392 
" clip-path="url(#pde933d1fbf)" style="fill: none; stroke: #3366cc; stroke-width: 1.2; stroke-linecap: square"/>
   </g>
   <g id="line2d_38">
    <path d="M 294.842704 139.864627 
L 295.418688 115.361089 
L 295.994672 106.14711 
L 296.570656 100.055005 
L 297.14664 102.704416 
L 297.722624 150.487966 
L 298.298608 110.839769 
L 298.874592 100.127641 
L 299.450576 98.94828 
L 300.026561 85.560385 
L 300.602545 87.279098 
L 301.178529 103.339516 
L 301.754513 149.067937 
L 302.330497 100.111415 
L 302.906481 92.847455 
L 303.482465 83.690097 
L 304.058449 89.965985 
L 304.634433 87.366855 
L 305.210417 91.366613 
L 305.786401 92.328029 
L 306.362386 87.769207 
L 307.514354 89.149009 
L 308.090338 88.346602 
L 308.666322 89.856801 
L 309.242306 121.887374 
L 309.81829 94.262202 
L 310.394274 96.06095 
L 310.970258 116.618915 
L 311.546242 152.828615 
L 312.122227 153.074183 
L 312.698211 152.217637 
L 313.274195 151.937463 
L 313.850179 151.502388 
L 315.002147 151.661271 
L 315.578131 151.346196 
L 316.730099 151.573731 
L 317.306083 151.5701 
L 318.458052 151.70956 
L 319.034036 151.600421 
L 320.186004 151.544886 
L 320.761988 151.378456 
L 321.337972 151.612994 
L 323.065924 151.539329 
L 323.641909 151.370281 
L 324.793877 151.418598 
L 325.369861 151.604812 
L 328.249781 151.457026 
L 328.825765 151.788661 
L 329.977734 151.601645 
L 330.553718 151.632379 
L 331.705686 151.133706 
L 332.28167 151.184915 
L 333.433638 151.513741 
L 334.585606 151.564095 
L 335.737575 151.621455 
L 336.889543 151.60884 
L 338.617495 152.15798 
L 339.193479 151.784467 
L 340.345447 151.796643 
L 342.0734 151.760414 
L 342.649384 151.643154 
L 343.225368 151.668794 
L 343.801352 151.818872 
L 344.377336 151.518854 
L 344.95332 151.49137 
L 345.529304 151.631569 
L 347.257257 151.57142 
L 347.833241 151.447827 
L 348.985209 150.918827 
L 351.289145 150.824335 
L 351.865129 150.65046 
L 353.017097 150.068366 
L 354.169066 150.043584 
L 355.321034 149.606744 
L 357.048986 149.905481 
L 358.200954 149.865153 
L 358.776938 149.723759 
L 359.928907 149.810973 
L 361.080875 149.803872 
L 361.656859 150.182373 
L 362.232843 150.292438 
L 362.808827 150.164155 
L 363.384811 149.896815 
L 363.960795 150.021363 
L 364.536779 149.934627 
L 365.112764 149.554523 
L 365.688748 149.55673 
L 366.264732 149.287012 
L 367.4167 149.325237 
L 367.992684 148.946936 
L 368.568668 148.799003 
L 369.720636 149.11934 
L 371.448589 149.233757 
L 372.024573 149.489503 
L 372.600557 149.220258 
L 373.176541 149.329816 
L 373.752525 148.738587 
L 374.904493 148.785611 
L 375.480477 149.168381 
L 376.056461 148.951197 
L 377.784414 149.185832 
L 380.664334 149.100093 
L 381.240318 149.253442 
L 384.120239 149.126235 
L 385.272207 148.975063 
L 385.848191 148.85014 
L 386.424175 148.888915 
L 387.000159 148.712767 
L 387.576143 148.911198 
L 388.152127 148.699433 
L 388.728112 148.614417 
L 389.88008 148.964019 
L 391.032048 148.518834 
L 391.608032 148.66157 
L 392.184016 146.037139 
L 392.76 146.171427 
L 393.335984 147.296191 
L 393.911968 149.067626 
L 394.487953 149.435362 
L 395.639921 149.223405 
L 396.215905 146.40746 
L 396.791889 148.859576 
L 397.367873 148.835009 
L 397.943857 148.456863 
L 398.519841 145.592991 
L 399.095825 145.565888 
L 399.671809 146.092925 
L 400.247793 148.633042 
L 400.823778 141.621596 
L 401.399762 148.140585 
L 401.975746 149.40949 
L 402.55173 149.510175 
L 403.127714 148.588432 
L 403.703698 148.497499 
L 404.279682 149.199596 
L 404.855666 149.358386 
L 405.43165 149.000098 
L 406.007634 149.761519 
L 406.583619 149.694831 
L 407.735587 149.363226 
L 408.887555 149.67996 
L 409.463539 149.501925 
L 410.615507 149.5085 
L 411.191491 149.164738 
L 411.767475 148.511742 
L 412.34346 149.243662 
L 412.919444 138.351602 
L 413.495428 149.563711 
L 414.647396 149.598861 
L 415.22338 149.09322 
L 415.799364 149.573098 
L 416.375348 150.309798 
L 416.951332 150.137677 
L 417.527316 149.830878 
L 418.103301 150.1291 
L 418.679285 150.055965 
L 419.255269 149.024948 
L 419.831253 148.808042 
L 420.407237 149.573483 
L 420.983221 121.70962 
L 421.559205 118.586882 
L 422.135189 150.456638 
L 422.711173 146.434904 
L 423.287157 149.654034 
L 423.863141 145.028166 
L 424.439126 135.637565 
L 425.01511 140.291457 
L 425.591094 132.244816 
L 426.167078 150.971786 
L 426.743062 151.081245 
L 427.319046 149.296901 
L 427.89503 150.333238 
L 428.471014 150.446322 
L 429.046998 149.992353 
L 429.622982 150.70365 
L 430.774951 150.855175 
L 431.926919 150.339022 
L 432.502903 121.356171 
L 433.078887 83.598555 
L 433.654871 87.115898 
L 434.230855 87.815773 
L 434.806839 76.149381 
L 435.382823 76.207278 
L 435.382823 76.207278 
" clip-path="url(#pde933d1fbf)" style="fill: none; stroke: #e6a817; stroke-width: 1.2; stroke-linecap: square"/>
   </g>
   <g id="line2d_39">
    <path d="M 435.958808 77.607604 
L 436.534792 79.264528 
L 437.110776 80.43996 
L 437.68676 82.065622 
L 438.262744 86.209638 
L 438.838728 85.311962 
L 439.414712 85.591918 
L 439.990696 86.295212 
L 440.56668 86.805685 
L 441.142664 87.22246 
L 441.718649 87.594772 
L 442.294633 87.991644 
L 442.870617 87.807051 
L 443.446601 87.470667 
L 444.022585 87.141212 
L 444.598569 87.271555 
L 445.174553 87.497682 
L 445.750537 87.272408 
L 446.326521 87.516877 
L 446.902505 87.600005 
L 447.478489 84.132391 
L 448.054474 85.171281 
L 448.630458 85.002705 
L 449.206442 86.997883 
L 449.782426 83.802455 
L 450.35841 85.432304 
L 450.934394 85.798193 
L 451.510378 83.513306 
L 452.086362 84.107452 
L 452.662346 56.70058 
L 453.23833 59.076982 
L 453.814315 60.667468 
L 454.390299 61.368904 
L 454.966283 61.440244 
L 455.542267 60.394305 
L 456.118251 58.135199 
L 456.694235 54.98534 
L 457.270219 54.313256 
L 457.846203 59.245292 
L 458.422187 60.895446 
L 458.998171 61.598425 
L 459.574156 58.830713 
L 460.15014 57.208324 
L 460.726124 53.985094 
L 461.302108 58.205052 
L 461.878092 57.553295 
L 462.454076 59.585637 
L 463.03006 60.722636 
L 463.606044 58.109062 
L 464.182028 56.732454 
L 464.758012 55.531245 
L 465.333997 56.524151 
L 465.909981 52.045499 
L 466.485965 55.193138 
L 467.061949 53.18609 
L 467.637933 52.080831 
L 468.213917 53.001731 
L 468.789901 52.535359 
L 469.365885 42.278559 
L 469.941869 47.991361 
L 470.517853 55.794858 
L 471.093837 60.403994 
L 471.669822 58.846007 
L 472.245806 57.948116 
L 472.82179 59.011292 
L 473.397774 59.236218 
L 473.973758 60.424869 
L 474.549742 61.450375 
L 475.125726 62.780169 
" clip-path="url(#pde933d1fbf)" style="fill: none; stroke: #999999; stroke-width: 1.2; stroke-linecap: square"/>
   </g>
   <g id="patch_3">
    <path d="M 49.358281 159.572615 
L 49.358281 25.158281 
" style="fill: none; stroke: #000000; stroke-width: 0.6; stroke-linejoin: miter; stroke-linecap: square"/>
   </g>
   <g id="patch_4">
    <path d="M 49.358281 159.572615 
L 495.400366 159.572615 
" style="fill: none; stroke: #000000; stroke-width: 0.6; stroke-linejoin: miter; stroke-linecap: square"/>
   </g>
   <g id="text_20">
    <!-- Ethereum  Cost Quantile Bands by Era -->
    <g transform="translate(158.559402 19.158281) scale(0.11 -0.11)">
     <defs>
      <path id="DejaVuSerif-45" d="M 353 0 
L 353 331 
L 947 331 
L 947 4331 
L 353 4331 
L 353 4666 
L 4109 4666 
L 4109 3628 
L 3725 3628 
L 3725 4281 
L 1581 4281 
L 1581 2719 
L 3109 2719 
L 3109 3303 
L 3494 3303 
L 3494 1753 
L 3109 1753 
L 3109 2338 
L 1581 2338 
L 1581 384 
L 3775 384 
L 3775 1038 
L 4159 1038 
L 4159 0 
L 353 0 
z
" transform="scale(0.015625)"/>
      <path id="DejaVuSerif-68" d="M 263 0 
L 263 331 
L 781 331 
L 781 4531 
L 231 4531 
L 231 4863 
L 1356 4863 
L 1356 2731 
Q 1516 3069 1770 3241 
Q 2025 3413 2363 3413 
Q 2913 3413 3172 3097 
Q 3431 2781 3431 2113 
L 3431 331 
L 3944 331 
L 3944 0 
L 2356 0 
L 2356 331 
L 2853 331 
L 2853 1931 
Q 2853 2541 2704 2764 
Q 2556 2988 2175 2988 
Q 1775 2988 1565 2697 
Q 1356 2406 1356 1850 
L 1356 331 
L 1856 331 
L 1856 0 
L 263 0 
z
" transform="scale(0.015625)"/>
      <path id="DejaVuSerif-6d" d="M 3316 2675 
Q 3481 3041 3739 3227 
Q 3997 3413 4341 3413 
Q 4863 3413 5119 3089 
Q 5375 2766 5375 2113 
L 5375 331 
L 5894 331 
L 5894 0 
L 4300 0 
L 4300 331 
L 4800 331 
L 4800 2047 
Q 4800 2556 4650 2772 
Q 4500 2988 4153 2988 
Q 3769 2988 3567 2697 
Q 3366 2406 3366 1850 
L 3366 331 
L 3866 331 
L 3866 0 
L 2291 0 
L 2291 331 
L 2791 331 
L 2791 2069 
Q 2791 2566 2641 2777 
Q 2491 2988 2144 2988 
Q 1759 2988 1557 2697 
Q 1356 2406 1356 1850 
L 1356 331 
L 1856 331 
L 1856 0 
L 263 0 
L 263 331 
L 781 331 
L 781 2994 
L 231 2994 
L 231 3322 
L 1356 3322 
L 1356 2731 
Q 1516 3063 1762 3238 
Q 2009 3413 2322 3413 
Q 2709 3413 2968 3220 
Q 3228 3028 3316 2675 
z
" transform="scale(0.015625)"/>
      <path id="DejaVuSerif-2014" d="M 281 1906 
L 6119 1906 
L 6119 1491 
L 281 1491 
L 281 1906 
z
" transform="scale(0.015625)"/>
      <path id="DejaVuSerif-43" d="M 4513 1234 
Q 4306 581 3820 245 
Q 3334 -91 2591 -91 
Q 2134 -91 1743 65 
Q 1353 222 1050 525 
Q 700 875 529 1320 
Q 359 1766 359 2328 
Q 359 3416 987 4083 
Q 1616 4750 2644 4750 
Q 3025 4750 3456 4650 
Q 3888 4550 4384 4347 
L 4384 3272 
L 4031 3272 
Q 3916 3859 3567 4137 
Q 3219 4416 2591 4416 
Q 1844 4416 1459 3886 
Q 1075 3356 1075 2328 
Q 1075 1303 1459 773 
Q 1844 244 2591 244 
Q 3113 244 3450 492 
Q 3788 741 3938 1234 
L 4513 1234 
z
" transform="scale(0.015625)"/>
      <path id="DejaVuSerif-6f" d="M 1925 219 
Q 2388 219 2623 584 
Q 2859 950 2859 1663 
Q 2859 2375 2623 2739 
Q 2388 3103 1925 3103 
Q 1463 3103 1227 2739 
Q 991 2375 991 1663 
Q 991 950 1228 584 
Q 1466 219 1925 219 
z
M 1925 -91 
Q 1200 -91 759 389 
Q 319 869 319 1663 
Q 319 2456 758 2934 
Q 1197 3413 1925 3413 
Q 2653 3413 3092 2934 
Q 3531 2456 3531 1663 
Q 3531 869 3092 389 
Q 2653 -91 1925 -91 
z
" transform="scale(0.015625)"/>
      <path id="DejaVuSerif-73" d="M 359 184 
L 359 959 
L 691 959 
Q 703 588 923 403 
Q 1144 219 1575 219 
Q 1963 219 2166 364 
Q 2369 509 2369 788 
Q 2369 1006 2220 1140 
Q 2072 1275 1594 1428 
L 1178 1569 
Q 750 1706 558 1912 
Q 366 2119 366 2438 
Q 366 2894 700 3153 
Q 1034 3413 1625 3413 
Q 1888 3413 2178 3344 
Q 2469 3275 2778 3144 
L 2778 2419 
L 2447 2419 
Q 2434 2741 2221 2922 
Q 2009 3103 1644 3103 
Q 1281 3103 1095 2975 
Q 909 2847 909 2591 
Q 909 2381 1050 2254 
Q 1191 2128 1613 1997 
L 2069 1856 
Q 2541 1709 2748 1489 
Q 2956 1269 2956 922 
Q 2956 450 2595 179 
Q 2234 -91 1600 -91 
Q 1278 -91 972 -22 
Q 666 47 359 184 
z
" transform="scale(0.015625)"/>
      <path id="DejaVuSerif-51" d="M 2700 -91 
Q 1628 -91 993 567 
Q 359 1225 359 2328 
Q 359 2894 529 3339 
Q 700 3784 1050 4134 
Q 1356 4441 1750 4595 
Q 2144 4750 2625 4750 
Q 3641 4750 4266 4084 
Q 4891 3419 4891 2328 
Q 4891 1403 4422 773 
Q 3953 144 3128 -38 
Q 3297 -247 3539 -347 
Q 3781 -447 4122 -447 
L 4219 -447 
L 4219 -1025 
Q 3691 -1000 3314 -767 
Q 2938 -534 2700 -91 
z
M 2625 244 
Q 3391 244 3781 770 
Q 4172 1297 4172 2328 
Q 4172 3363 3781 3889 
Q 3391 4416 2625 4416 
Q 1856 4416 1465 3889 
Q 1075 3363 1075 2328 
Q 1075 1297 1465 770 
Q 1856 244 2625 244 
z
" transform="scale(0.015625)"/>
      <path id="DejaVuSerif-6c" d="M 1313 331 
L 1856 331 
L 1856 0 
L 184 0 
L 184 331 
L 738 331 
L 738 4531 
L 184 4531 
L 184 4863 
L 1313 4863 
L 1313 331 
z
" transform="scale(0.015625)"/>
     </defs>
     <use xlink:href="#DejaVuSerif-45"/>
     <use xlink:href="#DejaVuSerif-74" x="72.998047"/>
     <use xlink:href="#DejaVuSerif-68" x="113.183594"/>
     <use xlink:href="#DejaVuSerif-65" x="177.587891"/>
     <use xlink:href="#DejaVuSerif-72" x="236.767578"/>
     <use xlink:href="#DejaVuSerif-65" x="284.570312"/>
     <use xlink:href="#DejaVuSerif-75" x="343.75"/>
     <use xlink:href="#DejaVuSerif-6d" x="408.154297"/>
     <use xlink:href="#DejaVuSerif-20" x="502.978516"/>
     <use xlink:href="#DejaVuSerif-2014" x="534.765625"/>
     <use xlink:href="#DejaVuSerif-20" x="634.765625"/>
     <use xlink:href="#DejaVuSerif-43" x="666.552734"/>
     <use xlink:href="#DejaVuSerif-6f" x="743.066406"/>
     <use xlink:href="#DejaVuSerif-73" x="803.271484"/>
     <use xlink:href="#DejaVuSerif-74" x="854.589844"/>
     <use xlink:href="#DejaVuSerif-20" x="894.775391"/>
     <use xlink:href="#DejaVuSerif-51" x="926.5625"/>
     <use xlink:href="#DejaVuSerif-75" x="1008.544922"/>
     <use xlink:href="#DejaVuSerif-61" x="1072.949219"/>
     <use xlink:href="#DejaVuSerif-6e" x="1132.568359"/>
     <use xlink:href="#DejaVuSerif-74" x="1196.972656"/>
     <use xlink:href="#DejaVuSerif-69" x="1237.158203"/>
     <use xlink:href="#DejaVuSerif-6c" x="1269.140625"/>
     <use xlink:href="#DejaVuSerif-65" x="1301.123047"/>
     <use xlink:href="#DejaVuSerif-20" x="1360.302734"/>
     <use xlink:href="#DejaVuSerif-42" x="1392.089844"/>
     <use xlink:href="#DejaVuSerif-61" x="1465.576172"/>
     <use xlink:href="#DejaVuSerif-6e" x="1525.195312"/>
     <use xlink:href="#DejaVuSerif-64" x="1589.599609"/>
     <use xlink:href="#DejaVuSerif-73" x="1653.613281"/>
     <use xlink:href="#DejaVuSerif-20" x="1704.931641"/>
     <use xlink:href="#DejaVuSerif-62" x="1736.71875"/>
     <use xlink:href="#DejaVuSerif-79" x="1800.732422"/>
     <use xlink:href="#DejaVuSerif-20" x="1857.226562"/>
     <use xlink:href="#DejaVuSerif-45" x="1889.013672"/>
     <use xlink:href="#DejaVuSerif-72" x="1962.011719"/>
     <use xlink:href="#DejaVuSerif-61" x="2009.814453"/>
    </g>
   </g>
   <g id="legend_1">
    <g id="patch_5">
     <path d="M 433.114116 66.785781 
L 489.800366 66.785781 
Q 491.400366 66.785781 491.400366 65.185781 
L 491.400366 30.758281 
Q 491.400366 29.158281 489.800366 29.158281 
L 433.114116 29.158281 
Q 431.514116 29.158281 431.514116 30.758281 
L 431.514116 65.185781 
Q 431.514116 66.785781 433.114116 66.785781 
z
" style="fill: #ffffff; opacity: 0.9; stroke: #cccccc; stroke-linejoin: miter"/>
    </g>
    <g id="line2d_40">
     <path d="M 434.714116 35.637031 
L 442.714116 35.637031 
L 450.714116 35.637031 
" style="fill: none; stroke: #3366cc; stroke-width: 1.2; stroke-linecap: square"/>
    </g>
    <g id="text_21">
     <!-- Dencun -->
     <g transform="translate(457.114116 38.437031) scale(0.08 -0.08)">
      <use xlink:href="#DejaVuSerif-44"/>
      <use xlink:href="#DejaVuSerif-65" x="80.175781"/>
      <use xlink:href="#DejaVuSerif-6e" x="139.355469"/>
      <use xlink:href="#DejaVuSerif-63" x="203.759766"/>
      <use xlink:href="#DejaVuSerif-75" x="259.765625"/>
      <use xlink:href="#DejaVuSerif-6e" x="324.169922"/>
     </g>
    </g>
    <g id="line2d_41">
     <path d="M 434.714116 47.379531 
L 442.714116 47.379531 
L 450.714116 47.379531 
" style="fill: none; stroke: #e6a817; stroke-width: 1.2; stroke-linecap: square"/>
    </g>
    <g id="text_22">
     <!-- Pectra -->
     <g transform="translate(457.114116 50.179531) scale(0.08 -0.08)">
      <defs>
       <path id="DejaVuSerif-50" d="M 1581 2375 
L 2406 2375 
Q 2872 2375 3115 2626 
Q 3359 2878 3359 3353 
Q 3359 3831 3115 4081 
Q 2872 4331 2406 4331 
L 1581 4331 
L 1581 2375 
z
M 353 0 
L 353 331 
L 947 331 
L 947 4331 
L 353 4331 
L 353 4666 
L 2559 4666 
Q 3259 4666 3668 4311 
Q 4078 3956 4078 3353 
Q 4078 2753 3668 2397 
Q 3259 2041 2559 2041 
L 1581 2041 
L 1581 331 
L 2303 331 
L 2303 0 
L 353 0 
z
" transform="scale(0.015625)"/>
      </defs>
      <use xlink:href="#DejaVuSerif-50"/>
      <use xlink:href="#DejaVuSerif-65" x="62.785156"/>
      <use xlink:href="#DejaVuSerif-63" x="121.964844"/>
      <use xlink:href="#DejaVuSerif-74" x="177.970703"/>
      <use xlink:href="#DejaVuSerif-72" x="218.15625"/>
      <use xlink:href="#DejaVuSerif-61" x="265.958984"/>
     </g>
    </g>
    <g id="line2d_42">
     <path d="M 434.714116 59.122031 
L 442.714116 59.122031 
L 450.714116 59.122031 
" style="fill: none; stroke: #999999; stroke-width: 1.2; stroke-linecap: square"/>
    </g>
    <g id="text_23">
     <!-- BPO1 -->
     <g transform="translate(457.114116 61.922031) scale(0.08 -0.08)">
      <use xlink:href="#DejaVuSerif-42"/>
      <use xlink:href="#DejaVuSerif-50" x="73.486328"/>
      <use xlink:href="#DejaVuSerif-4f" x="140.771484"/>
      <use xlink:href="#DejaVuSerif-31" x="222.753906"/>
     </g>
    </g>
   </g>
  </g>
 </g>
 <defs>
  <clipPath id="pde933d1fbf">
   <rect x="49.358281" y="25.158281" width="446.042085" height="134.414334"/>
  </clipPath>
 </defs>
</svg>
