<?xml version="1.0" encoding="utf-8" standalone="no"?>
<!DOCTYPE svg PUBLIC "-//W3C//DTD SVG 1.1//EN"
  "http://www.w3.org/Graphics/SVG/1.1/DTD/svg11.dtd">
<svg xmlns:xlink="http://www.w3.org/1999/xlink" width="506.557216pt" height="203.293937pt" viewBox="0 0 506.557216 203.293937" xmlns="http://www.w3.org/2000/svg" version="1.1">
 <metadata>
  <rdf:RDF xmlns:dc="http://purl.org/dc/elements/1.1/" xmlns:cc="http://creativecommons.org/ns#" xmlns:rdf="http://www.w3.org/1999/02/22-rdf-syntax-ns#">
   <cc:Work>
    <dc:type rdf:resource="http://purl.org/dc/dcmitype/StillImage"/>
    <dc:date>2026-02-16T16:57:28.954774</dc:date>
    <dc:format>image/svg+xml</dc:format>
    <dc:creator>
     <cc:Agent>
      <dc:title>Matplotlib v3.10.8, https://matplotlib.org/</dc:title>
     </cc:Agent>
    </dc:creator>
   </cc:Work>
  </rdf:RDF>
 </metadata>
 <defs>
  <style type="text/css">*{stroke-linejoin: round; stroke-linecap: butt}</style>
 </defs>
 <g id="figure_1">
  <g id="patch_1">
   <path d="M 0 203.293937 
L 506.557216 203.293937 
L 506.557216 0 
L 0 0 
z
" style="fill: #ffffff"/>
  </g>
  <g id="axes_1">
   <g id="patch_2">
    <path d="M 49.358281 159.31186 
L 495.757216 159.31186 
L 495.757216 25.158281 
L 49.358281 25.158281 
z
" style="fill: #ffffff"/>
   </g>
   <g id="FillBetweenPolyCollection_1">
    <path d="M 69.649142 10206.305322 
L 69.649142 10206.305322 
L 70.225587 10206.305322 
L 70.802032 10206.305322 
L 71.378477 10206.305322 
L 71.954922 10206.305322 
L 72.531366 10206.305322 
L 73.107811 10206.305322 
L 73.684256 10206.305322 
L 74.260701 10206.305322 
L 74.837146 10206.305322 
L 75.413591 10206.305322 
L 75.990036 10206.305322 
L 76.566481 10206.305322 
L 77.142926 10206.305322 
L 77.719371 10206.305322 
L 78.295816 10206.305322 
L 78.87226 10206.305322 
L 79.448705 10206.305322 
L 80.02515 10206.305322 
L 80.601595 10206.305322 
L 81.17804 10206.305322 
L 81.754485 10206.305322 
L 82.33093 10206.305322 
L 82.907375 10206.305322 
L 83.48382 10206.305322 
L 84.060265 10206.305322 
L 84.636709 10206.305322 
L 85.213154 10206.305322 
L 85.789599 10206.305322 
L 86.366044 10206.305322 
L 86.942489 10206.305322 
L 87.518934 10206.305322 
L 88.095379 10206.305322 
L 88.671824 10206.305322 
L 89.248269 10206.305322 
L 89.824714 10206.305322 
L 90.401159 10206.305322 
L 90.977603 10206.305322 
L 91.554048 10206.305322 
L 92.130493 10206.305322 
L 92.706938 10206.305322 
L 93.283383 10206.305322 
L 93.859828 10206.305322 
L 94.436273 10206.305322 
L 95.012718 10206.305322 
L 95.589163 10206.305322 
L 96.165608 10206.305322 
L 96.742053 10206.305322 
L 97.318497 10206.305322 
L 97.894942 10206.305322 
L 98.471387 10206.305322 
L 99.047832 10206.305322 
L 99.624277 10206.305322 
L 100.200722 10206.305322 
L 100.777167 10206.305322 
L 101.353612 10206.305322 
L 101.930057 10206.305322 
L 102.506502 10206.305322 
L 103.082946 10206.305322 
L 103.659391 10206.305322 
L 104.235836 10206.305322 
L 104.812281 10206.305322 
L 105.388726 10206.305322 
L 105.965171 10206.305322 
L 106.541616 10206.305322 
L 107.118061 10206.305322 
L 107.694506 10206.305322 
L 108.270951 10206.305322 
L 108.847396 10206.305322 
L 109.42384 10206.305322 
L 110.000285 10206.305322 
L 110.57673 10206.305322 
L 111.153175 10206.305322 
L 111.72962 10206.305322 
L 112.306065 10206.305322 
L 112.88251 10206.305322 
L 113.458955 10206.305322 
L 114.0354 10206.305322 
L 114.611845 10206.305322 
L 115.18829 10206.305322 
L 115.764734 10206.305322 
L 116.341179 10206.305322 
L 116.917624 10206.305322 
L 117.494069 10206.305322 
L 118.070514 10206.305322 
L 118.646959 10206.305322 
L 119.223404 10206.305322 
L 119.799849 10206.305322 
L 120.376294 10206.305322 
L 120.952739 10206.305322 
L 121.529183 10206.305322 
L 122.105628 10206.305322 
L 122.682073 10206.305322 
L 123.258518 10206.305322 
L 123.834963 10206.305322 
L 124.411408 10206.305322 
L 124.987853 10206.305322 
L 125.564298 10206.305322 
L 126.140743 10206.305322 
L 126.717188 10206.305322 
L 127.293633 10206.305322 
L 127.870077 10206.305322 
L 128.446522 10206.305322 
L 129.022967 10206.305322 
L 129.599412 10206.305322 
L 130.175857 10206.305322 
L 130.752302 10206.305322 
L 131.328747 10206.305322 
L 131.905192 10206.305322 
L 132.481637 10206.305322 
L 133.058082 10206.305322 
L 133.634526 10206.305322 
L 134.210971 10206.305322 
L 134.787416 10206.305322 
L 135.363861 10206.305322 
L 135.940306 10206.305322 
L 136.516751 10206.305322 
L 137.093196 10206.305322 
L 137.669641 10206.305322 
L 138.246086 10206.305322 
L 138.822531 10206.305322 
L 139.398976 10206.305322 
L 139.97542 10206.305322 
L 140.551865 10206.305322 
L 141.12831 10206.305322 
L 141.704755 10206.305322 
L 142.2812 10206.305322 
L 142.857645 10206.305322 
L 143.43409 10206.305322 
L 144.010535 10206.305322 
L 144.58698 10206.305322 
L 145.163425 10206.305322 
L 145.73987 10206.305322 
L 146.316314 10206.305322 
L 146.892759 10206.305322 
L 147.469204 10206.305322 
L 148.045649 10206.305322 
L 148.622094 10206.305322 
L 149.198539 10206.305322 
L 149.774984 10206.305322 
L 150.351429 10206.305322 
L 150.927874 10206.305322 
L 151.504319 10206.305322 
L 152.080763 10206.305322 
L 152.657208 10206.305322 
L 153.233653 10206.305322 
L 153.810098 10206.305322 
L 154.386543 10206.305322 
L 154.962988 10206.305322 
L 155.539433 10206.305322 
L 156.115878 10206.305322 
L 156.692323 10206.305322 
L 157.268768 10206.305322 
L 157.845213 10206.305322 
L 158.421657 10206.305322 
L 158.998102 10206.305322 
L 159.574547 10206.305322 
L 160.150992 10206.305322 
L 160.727437 10206.305322 
L 161.303882 10206.305322 
L 161.880327 10206.305322 
L 162.456772 10206.305322 
L 163.033217 10206.305322 
L 163.609662 10206.305322 
L 164.186107 10206.305322 
L 164.762551 10206.305322 
L 165.338996 10206.305322 
L 165.915441 10206.305322 
L 166.491886 10206.305322 
L 167.068331 10206.305322 
L 167.644776 10206.305322 
L 168.221221 10206.305322 
L 168.797666 10206.305322 
L 169.374111 10206.305322 
L 169.950556 10206.305322 
L 170.527 10206.305322 
L 171.103445 10206.305322 
L 171.67989 10206.305322 
L 172.256335 10206.305322 
L 172.83278 10206.305322 
L 173.409225 10206.305322 
L 173.98567 10206.305322 
L 174.562115 10206.305322 
L 175.13856 10206.305322 
L 175.715005 10206.305322 
L 176.29145 10206.305322 
L 176.867894 10206.305322 
L 177.444339 10206.305322 
L 178.020784 10206.305322 
L 178.597229 10206.305322 
L 179.173674 10206.305322 
L 179.750119 10206.305322 
L 180.326564 10206.305322 
L 180.903009 10206.305322 
L 181.479454 10206.305322 
L 182.055899 10206.305322 
L 182.632344 10206.305322 
L 183.208788 10206.305322 
L 183.785233 10206.305322 
L 184.361678 10206.305322 
L 184.938123 10206.305322 
L 185.514568 10206.305322 
L 186.091013 10206.305322 
L 186.667458 10206.305322 
L 187.243903 10206.305322 
L 187.820348 10206.305322 
L 188.396793 10206.305322 
L 188.973237 10206.305322 
L 189.549682 10206.305322 
L 190.126127 10206.305322 
L 190.702572 10206.305322 
L 191.279017 10206.305322 
L 191.855462 10206.305322 
L 192.431907 10206.305322 
L 193.008352 10206.305322 
L 193.584797 10206.305322 
L 194.161242 10206.305322 
L 194.737687 10206.305322 
L 195.314131 10206.305322 
L 195.890576 10206.305322 
L 196.467021 10206.305322 
L 197.043466 10206.305322 
L 197.619911 10206.305322 
L 198.196356 10206.305322 
L 198.772801 10206.305322 
L 199.349246 10206.305322 
L 199.925691 10206.305322 
L 200.502136 10206.305322 
L 201.07858 10206.305322 
L 201.655025 10206.305322 
L 202.23147 10206.305322 
L 202.807915 10206.305322 
L 203.38436 10206.305322 
L 203.960805 10206.305322 
L 204.53725 10206.305322 
L 205.113695 10206.305322 
L 205.69014 10206.305322 
L 206.266585 10206.305322 
L 206.84303 10206.305322 
L 207.419474 10206.305322 
L 207.995919 10206.305322 
L 208.572364 10206.305322 
L 209.148809 10206.305322 
L 209.725254 10206.305322 
L 210.301699 10206.305322 
L 210.878144 10206.305322 
L 211.454589 10206.305322 
L 212.031034 10206.305322 
L 212.607479 10206.305322 
L 213.183924 10206.305322 
L 213.760368 10206.305322 
L 214.336813 10206.305322 
L 214.913258 10206.305322 
L 215.489703 10206.305322 
L 216.066148 10206.305322 
L 216.642593 10206.305322 
L 217.219038 10206.305322 
L 217.795483 10206.305322 
L 218.371928 10206.305322 
L 218.948373 10206.305322 
L 219.524817 10206.305322 
L 220.101262 10206.305322 
L 220.677707 10206.305322 
L 221.254152 10206.305322 
L 221.830597 10206.305322 
L 222.407042 10206.305322 
L 222.983487 10206.305322 
L 223.559932 10206.305322 
L 224.136377 10206.305322 
L 224.712822 10206.305322 
L 225.289267 10206.305322 
L 225.865711 10206.305322 
L 226.442156 10206.305322 
L 227.018601 10206.305322 
L 227.595046 10206.305322 
L 228.171491 10206.305322 
L 228.747936 10206.305322 
L 229.324381 10206.305322 
L 229.900826 10206.305322 
L 230.477271 10206.305322 
L 231.053716 10206.305322 
L 231.630161 10206.305322 
L 232.206605 10206.305322 
L 232.78305 10206.305322 
L 233.359495 10206.305322 
L 233.93594 10206.305322 
L 234.512385 10206.305322 
L 235.08883 10206.305322 
L 235.665275 10206.305322 
L 236.24172 10206.305322 
L 236.818165 10206.305322 
L 237.39461 10206.305322 
L 237.971054 10206.305322 
L 238.547499 10206.305322 
L 239.123944 10206.305322 
L 239.700389 10206.305322 
L 240.276834 10206.305322 
L 240.853279 10206.305322 
L 241.429724 10206.305322 
L 242.006169 10206.305322 
L 242.582614 10206.305322 
L 243.159059 10206.305322 
L 243.735504 10206.305322 
L 244.311948 10206.305322 
L 244.888393 10206.305322 
L 245.464838 10206.305322 
L 246.041283 10206.305322 
L 246.617728 10206.305322 
L 247.194173 10206.305322 
L 247.770618 10206.305322 
L 248.347063 10206.305322 
L 248.923508 10206.305322 
L 249.499953 10206.305322 
L 250.076397 10206.305322 
L 250.652842 10206.305322 
L 251.229287 10206.305322 
L 251.805732 10206.305322 
L 252.382177 10206.305322 
L 252.958622 10206.305322 
L 253.535067 10206.305322 
L 254.111512 10206.305322 
L 254.687957 10206.305322 
L 255.264402 10206.305322 
L 255.840847 10206.305322 
L 256.417291 10206.305322 
L 256.993736 10206.305322 
L 257.570181 10206.305322 
L 258.146626 10206.305322 
L 258.723071 10206.305322 
L 259.299516 10206.305322 
L 259.875961 10206.305322 
L 260.452406 10206.305322 
L 261.028851 10206.305322 
L 261.605296 10206.305322 
L 262.181741 10206.305322 
L 262.758185 10206.305322 
L 263.33463 10206.305322 
L 263.911075 10206.305322 
L 264.48752 10206.305322 
L 265.063965 10206.305322 
L 265.64041 10206.305322 
L 266.216855 148.243272 
L 266.7933 107.361913 
L 267.369745 111.289212 
L 267.94619 99.787233 
L 268.522634 100.321085 
L 269.099079 103.988913 
L 269.675524 149.34314 
L 270.251969 140.009494 
L 270.828414 93.681104 
L 271.404859 103.160244 
L 271.981304 112.935828 
L 272.557749 132.021183 
L 273.134194 151.896252 
L 273.710639 151.825199 
L 274.287084 98.157928 
L 274.863528 97.702941 
L 275.439973 125.012711 
L 276.016418 145.189029 
L 276.592863 116.062306 
L 277.169308 151.278636 
L 277.745753 151.273665 
L 278.322198 103.8673 
L 278.898643 103.372141 
L 279.475088 104.786241 
L 280.051533 112.995007 
L 280.627978 136.770435 
L 281.204422 138.505421 
L 281.780867 151.367079 
L 282.357312 100.927841 
L 282.933757 129.805514 
L 283.510202 152.421887 
L 284.086647 152.139236 
L 284.663092 152.08277 
L 285.239537 152.350075 
L 285.815982 152.431939 
L 286.392427 152.268844 
L 286.968871 151.872119 
L 287.545316 151.660699 
L 288.121761 134.588354 
L 288.698206 114.055949 
L 289.274651 133.665806 
L 289.851096 152.433815 
L 290.427541 115.669132 
L 291.003986 147.251598 
L 291.580431 152.596191 
L 292.156876 149.7908 
L 292.733321 152.806686 
L 293.309765 152.815913 
L 293.88621 152.826961 
L 294.462655 108.538195 
L 294.462655 83.835782 
L 294.462655 83.835782 
L 293.88621 95.041421 
L 293.309765 124.41968 
L 292.733321 108.942587 
L 292.156876 101.032753 
L 291.580431 130.433278 
L 291.003986 83.764087 
L 290.427541 87.850059 
L 289.851096 119.304877 
L 289.274651 99.290448 
L 288.698206 87.73749 
L 288.121761 100.535962 
L 287.545316 102.14044 
L 286.968871 105.930247 
L 286.392427 114.522632 
L 285.815982 135.463458 
L 285.239537 93.364405 
L 284.663092 101.754488 
L 284.086647 131.476937 
L 283.510202 103.825083 
L 282.933757 91.020416 
L 282.357312 84.882816 
L 281.780867 94.343751 
L 281.204422 90.601208 
L 280.627978 86.557585 
L 280.051533 84.598775 
L 279.475088 84.805125 
L 278.898643 85.13391 
L 278.322198 80.6655 
L 277.745753 85.823812 
L 277.169308 96.448512 
L 276.592863 85.5883 
L 276.016418 90.589769 
L 275.439973 88.767113 
L 274.863528 85.236303 
L 274.287084 83.84438 
L 273.710639 98.403104 
L 273.134194 135.043203 
L 272.557749 83.886106 
L 271.981304 85.116755 
L 271.404859 80.535604 
L 270.828414 81.099034 
L 270.251969 81.37012 
L 269.675524 93.935857 
L 269.099079 83.950309 
L 268.522634 80.466809 
L 267.94619 82.818753 
L 267.369745 93.512709 
L 266.7933 82.774931 
L 266.216855 84.06317 
L 265.64041 10206.305322 
L 265.063965 10206.305322 
L 264.48752 10206.305322 
L 263.911075 10206.305322 
L 263.33463 10206.305322 
L 262.758185 10206.305322 
L 262.181741 10206.305322 
L 261.605296 10206.305322 
L 261.028851 10206.305322 
L 260.452406 10206.305322 
L 259.875961 10206.305322 
L 259.299516 10206.305322 
L 258.723071 10206.305322 
L 258.146626 10206.305322 
L 257.570181 10206.305322 
L 256.993736 10206.305322 
L 256.417291 10206.305322 
L 255.840847 10206.305322 
L 255.264402 10206.305322 
L 254.687957 10206.305322 
L 254.111512 10206.305322 
L 253.535067 10206.305322 
L 252.958622 10206.305322 
L 252.382177 10206.305322 
L 251.805732 10206.305322 
L 251.229287 10206.305322 
L 250.652842 10206.305322 
L 250.076397 10206.305322 
L 249.499953 10206.305322 
L 248.923508 10206.305322 
L 248.347063 10206.305322 
L 247.770618 10206.305322 
L 247.194173 10206.305322 
L 246.617728 10206.305322 
L 246.041283 10206.305322 
L 245.464838 10206.305322 
L 244.888393 10206.305322 
L 244.311948 10206.305322 
L 243.735504 10206.305322 
L 243.159059 10206.305322 
L 242.582614 10206.305322 
L 242.006169 10206.305322 
L 241.429724 10206.305322 
L 240.853279 10206.305322 
L 240.276834 10206.305322 
L 239.700389 10206.305322 
L 239.123944 10206.305322 
L 238.547499 10206.305322 
L 237.971054 10206.305322 
L 237.39461 10206.305322 
L 236.818165 10206.305322 
L 236.24172 10206.305322 
L 235.665275 10206.305322 
L 235.08883 10206.305322 
L 234.512385 10206.305322 
L 233.93594 10206.305322 
L 233.359495 10206.305322 
L 232.78305 10206.305322 
L 232.206605 10206.305322 
L 231.630161 10206.305322 
L 231.053716 10206.305322 
L 230.477271 10206.305322 
L 229.900826 10206.305322 
L 229.324381 10206.305322 
L 228.747936 10206.305322 
L 228.171491 10206.305322 
L 227.595046 10206.305322 
L 227.018601 10206.305322 
L 226.442156 10206.305322 
L 225.865711 10206.305322 
L 225.289267 10206.305322 
L 224.712822 10206.305322 
L 224.136377 10206.305322 
L 223.559932 10206.305322 
L 222.983487 10206.305322 
L 222.407042 10206.305322 
L 221.830597 10206.305322 
L 221.254152 10206.305322 
L 220.677707 10206.305322 
L 220.101262 10206.305322 
L 219.524817 10206.305322 
L 218.948373 10206.305322 
L 218.371928 10206.305322 
L 217.795483 10206.305322 
L 217.219038 10206.305322 
L 216.642593 10206.305322 
L 216.066148 10206.305322 
L 215.489703 10206.305322 
L 214.913258 10206.305322 
L 214.336813 10206.305322 
L 213.760368 10206.305322 
L 213.183924 10206.305322 
L 212.607479 10206.305322 
L 212.031034 10206.305322 
L 211.454589 10206.305322 
L 210.878144 10206.305322 
L 210.301699 10206.305322 
L 209.725254 10206.305322 
L 209.148809 10206.305322 
L 208.572364 10206.305322 
L 207.995919 10206.305322 
L 207.419474 10206.305322 
L 206.84303 10206.305322 
L 206.266585 10206.305322 
L 205.69014 10206.305322 
L 205.113695 10206.305322 
L 204.53725 10206.305322 
L 203.960805 10206.305322 
L 203.38436 10206.305322 
L 202.807915 10206.305322 
L 202.23147 10206.305322 
L 201.655025 10206.305322 
L 201.07858 10206.305322 
L 200.502136 10206.305322 
L 199.925691 10206.305322 
L 199.349246 10206.305322 
L 198.772801 10206.305322 
L 198.196356 10206.305322 
L 197.619911 10206.305322 
L 197.043466 10206.305322 
L 196.467021 10206.305322 
L 195.890576 10206.305322 
L 195.314131 10206.305322 
L 194.737687 10206.305322 
L 194.161242 10206.305322 
L 193.584797 10206.305322 
L 193.008352 10206.305322 
L 192.431907 10206.305322 
L 191.855462 10206.305322 
L 191.279017 10206.305322 
L 190.702572 10206.305322 
L 190.126127 10206.305322 
L 189.549682 10206.305322 
L 188.973237 10206.305322 
L 188.396793 10206.305322 
L 187.820348 10206.305322 
L 187.243903 10206.305322 
L 186.667458 10206.305322 
L 186.091013 10206.305322 
L 185.514568 10206.305322 
L 184.938123 10206.305322 
L 184.361678 10206.305322 
L 183.785233 10206.305322 
L 183.208788 10206.305322 
L 182.632344 10206.305322 
L 182.055899 10206.305322 
L 181.479454 10206.305322 
L 180.903009 10206.305322 
L 180.326564 10206.305322 
L 179.750119 10206.305322 
L 179.173674 10206.305322 
L 178.597229 10206.305322 
L 178.020784 10206.305322 
L 177.444339 10206.305322 
L 176.867894 10206.305322 
L 176.29145 10206.305322 
L 175.715005 10206.305322 
L 175.13856 10206.305322 
L 174.562115 10206.305322 
L 173.98567 10206.305322 
L 173.409225 10206.305322 
L 172.83278 10206.305322 
L 172.256335 10206.305322 
L 171.67989 10206.305322 
L 171.103445 10206.305322 
L 170.527 10206.305322 
L 169.950556 10206.305322 
L 169.374111 10206.305322 
L 168.797666 10206.305322 
L 168.221221 10206.305322 
L 167.644776 10206.305322 
L 167.068331 10206.305322 
L 166.491886 10206.305322 
L 165.915441 10206.305322 
L 165.338996 10206.305322 
L 164.762551 10206.305322 
L 164.186107 10206.305322 
L 163.609662 10206.305322 
L 163.033217 10206.305322 
L 162.456772 10206.305322 
L 161.880327 10206.305322 
L 161.303882 10206.305322 
L 160.727437 10206.305322 
L 160.150992 10206.305322 
L 159.574547 10206.305322 
L 158.998102 10206.305322 
L 158.421657 10206.305322 
L 157.845213 10206.305322 
L 157.268768 10206.305322 
L 156.692323 10206.305322 
L 156.115878 10206.305322 
L 155.539433 10206.305322 
L 154.962988 10206.305322 
L 154.386543 10206.305322 
L 153.810098 10206.305322 
L 153.233653 10206.305322 
L 152.657208 10206.305322 
L 152.080763 10206.305322 
L 151.504319 10206.305322 
L 150.927874 10206.305322 
L 150.351429 10206.305322 
L 149.774984 10206.305322 
L 149.198539 10206.305322 
L 148.622094 10206.305322 
L 148.045649 10206.305322 
L 147.469204 10206.305322 
L 146.892759 10206.305322 
L 146.316314 10206.305322 
L 145.73987 10206.305322 
L 145.163425 10206.305322 
L 144.58698 10206.305322 
L 144.010535 10206.305322 
L 143.43409 10206.305322 
L 142.857645 10206.305322 
L 142.2812 10206.305322 
L 141.704755 10206.305322 
L 141.12831 10206.305322 
L 140.551865 10206.305322 
L 139.97542 10206.305322 
L 139.398976 10206.305322 
L 138.822531 10206.305322 
L 138.246086 10206.305322 
L 137.669641 10206.305322 
L 137.093196 10206.305322 
L 136.516751 10206.305322 
L 135.940306 10206.305322 
L 135.363861 10206.305322 
L 134.787416 10206.305322 
L 134.210971 10206.305322 
L 133.634526 10206.305322 
L 133.058082 10206.305322 
L 132.481637 10206.305322 
L 131.905192 10206.305322 
L 131.328747 10206.305322 
L 130.752302 10206.305322 
L 130.175857 10206.305322 
L 129.599412 10206.305322 
L 129.022967 10206.305322 
L 128.446522 10206.305322 
L 127.870077 10206.305322 
L 127.293633 10206.305322 
L 126.717188 10206.305322 
L 126.140743 10206.305322 
L 125.564298 10206.305322 
L 124.987853 10206.305322 
L 124.411408 10206.305322 
L 123.834963 10206.305322 
L 123.258518 10206.305322 
L 122.682073 10206.305322 
L 122.105628 10206.305322 
L 121.529183 10206.305322 
L 120.952739 10206.305322 
L 120.376294 10206.305322 
L 119.799849 10206.305322 
L 119.223404 10206.305322 
L 118.646959 10206.305322 
L 118.070514 10206.305322 
L 117.494069 10206.305322 
L 116.917624 10206.305322 
L 116.341179 10206.305322 
L 115.764734 10206.305322 
L 115.18829 10206.305322 
L 114.611845 10206.305322 
L 114.0354 10206.305322 
L 113.458955 10206.305322 
L 112.88251 10206.305322 
L 112.306065 10206.305322 
L 111.72962 10206.305322 
L 111.153175 10206.305322 
L 110.57673 10206.305322 
L 110.000285 10206.305322 
L 109.42384 10206.305322 
L 108.847396 10206.305322 
L 108.270951 10206.305322 
L 107.694506 10206.305322 
L 107.118061 10206.305322 
L 106.541616 10206.305322 
L 105.965171 10206.305322 
L 105.388726 10206.305322 
L 104.812281 10206.305322 
L 104.235836 10206.305322 
L 103.659391 10206.305322 
L 103.082946 10206.305322 
L 102.506502 10206.305322 
L 101.930057 10206.305322 
L 101.353612 10206.305322 
L 100.777167 10206.305322 
L 100.200722 10206.305322 
L 99.624277 10206.305322 
L 99.047832 10206.305322 
L 98.471387 10206.305322 
L 97.894942 10206.305322 
L 97.318497 10206.305322 
L 96.742053 10206.305322 
L 96.165608 10206.305322 
L 95.589163 10206.305322 
L 95.012718 10206.305322 
L 94.436273 10206.305322 
L 93.859828 10206.305322 
L 93.283383 10206.305322 
L 92.706938 10206.305322 
L 92.130493 10206.305322 
L 91.554048 10206.305322 
L 90.977603 10206.305322 
L 90.401159 10206.305322 
L 89.824714 10206.305322 
L 89.248269 10206.305322 
L 88.671824 10206.305322 
L 88.095379 10206.305322 
L 87.518934 10206.305322 
L 86.942489 10206.305322 
L 86.366044 10206.305322 
L 85.789599 10206.305322 
L 85.213154 10206.305322 
L 84.636709 10206.305322 
L 84.060265 10206.305322 
L 83.48382 10206.305322 
L 82.907375 10206.305322 
L 82.33093 10206.305322 
L 81.754485 10206.305322 
L 81.17804 10206.305322 
L 80.601595 10206.305322 
L 80.02515 10206.305322 
L 79.448705 10206.305322 
L 78.87226 10206.305322 
L 78.295816 10206.305322 
L 77.719371 10206.305322 
L 77.142926 10206.305322 
L 76.566481 10206.305322 
L 75.990036 10206.305322 
L 75.413591 10206.305322 
L 74.837146 10206.305322 
L 74.260701 10206.305322 
L 73.684256 10206.305322 
L 73.107811 10206.305322 
L 72.531366 10206.305322 
L 71.954922 10206.305322 
L 71.378477 10206.305322 
L 70.802032 10206.305322 
L 70.225587 10206.305322 
L 69.649142 10206.305322 
z
" clip-path="url(#p671a06e2d3)" style="fill: #3366cc; fill-opacity: 0.25; stroke: #3366cc; stroke-opacity: 0.25"/>
   </g>
   <g id="FillBetweenPolyCollection_2">
    <defs>
     <path id="me57724c6c6" d="M 295.0391 -116.635047 
L 295.0391 -50.838898 
L 295.615545 -69.523309 
L 296.19199 -79.412005 
L 296.768435 -73.602812 
L 297.34488 -86.541838 
L 297.921325 -50.278738 
L 298.49777 -59.837741 
L 299.074215 -83.111159 
L 299.650659 -66.511729 
L 300.227104 -110.347658 
L 300.803549 -112.903258 
L 301.379994 -50.932124 
L 301.956439 -50.079967 
L 302.532884 -56.231736 
L 303.109329 -91.993269 
L 303.685774 -99.205469 
L 304.262219 -69.127848 
L 304.838664 -93.88485 
L 305.415108 -79.042258 
L 305.991553 -93.204277 
L 306.567998 -107.912257 
L 307.144443 -108.388247 
L 307.720888 -106.073405 
L 308.297333 -107.335983 
L 308.873778 -93.939234 
L 309.450223 -51.812796 
L 310.026668 -98.776926 
L 310.603113 -78.858869 
L 311.179558 -65.497559 
L 311.756002 -50.48213 
L 312.332447 -50.467902 
L 312.908892 -51.322787 
L 313.485337 -51.602417 
L 314.061782 -52.036648 
L 314.638227 -51.904606 
L 315.214672 -51.878073 
L 315.791117 -52.192537 
L 316.367562 -52.070723 
L 316.944007 -51.965444 
L 317.520451 -51.969068 
L 318.096896 -51.847213 
L 318.673341 -51.829877 
L 319.249786 -51.938805 
L 319.826231 -51.934055 
L 320.402676 -51.994232 
L 320.979121 -52.16034 
L 321.555566 -51.926256 
L 322.132011 -51.943078 
L 322.708456 -51.972931 
L 323.284901 -51.999778 
L 323.861345 -52.168498 
L 324.43779 -52.191927 
L 325.014235 -52.120275 
L 325.59068 -51.934422 
L 326.167125 -51.948167 
L 326.74357 -51.958551 
L 327.320015 -52.080908 
L 327.89646 -52.056727 
L 328.472905 -52.081922 
L 329.04935 -51.75093 
L 329.625795 -51.858513 
L 330.202239 -51.937583 
L 330.778684 -51.906909 
L 331.355129 -52.20629 
L 331.931574 -52.404614 
L 332.508019 -52.353505 
L 333.084464 -52.153679 
L 333.660909 -52.025317 
L 334.237354 -51.951144 
L 334.813799 -51.975061 
L 335.390244 -51.998332 
L 335.966688 -51.917812 
L 336.543133 -51.928916 
L 337.119578 -51.930402 
L 337.696023 -51.721878 
L 338.272468 -51.466945 
L 338.848913 -51.382328 
L 339.425358 -51.755116 
L 340.001803 -51.796118 
L 340.578248 -51.742964 
L 341.154693 -51.738948 
L 341.731138 -51.753533 
L 342.307582 -51.779122 
L 342.884027 -51.896155 
L 343.460472 -51.870565 
L 344.036917 -51.720777 
L 344.613362 -52.020214 
L 345.189807 -52.047644 
L 345.766252 -51.907718 
L 346.342697 -51.922001 
L 346.919142 -52.015568 
L 347.495587 -51.96775 
L 348.072032 -52.091103 
L 348.648476 -52.347846 
L 349.224921 -52.619077 
L 349.801366 -52.634605 
L 350.377811 -52.610857 
L 350.954256 -52.657529 
L 351.530701 -52.713386 
L 352.107146 -52.886923 
L 352.683591 -53.205974 
L 353.260036 -53.352456 
L 353.836481 -53.434574 
L 354.412925 -53.492622 
L 354.98937 -53.689732 
L 355.565815 -53.697751 
L 356.14226 -53.676018 
L 356.718705 -53.536246 
L 357.29515 -53.630457 
L 357.871595 -53.647809 
L 358.44804 -53.670706 
L 359.024485 -53.811827 
L 359.60093 -53.722103 
L 360.177375 -53.724781 
L 360.753819 -53.746635 
L 361.330264 -53.616437 
L 361.906709 -53.354103 
L 362.483154 -53.244251 
L 363.059599 -53.372285 
L 363.636044 -53.639106 
L 364.212489 -53.514799 
L 364.788934 -53.601368 
L 365.365379 -53.865303 
L 365.941824 -53.978532 
L 366.518268 -54.247726 
L 367.094713 -54.235332 
L 367.671158 -54.209576 
L 368.247603 -54.587142 
L 368.824048 -54.734788 
L 369.400493 -54.536575 
L 369.976938 -54.415073 
L 370.553383 -54.411388 
L 371.129828 -54.471046 
L 371.706273 -54.300878 
L 372.282718 -54.045628 
L 372.859162 -54.314351 
L 373.435607 -54.205005 
L 374.012052 -54.795088 
L 374.588497 -54.744249 
L 375.164942 -54.748155 
L 375.741387 -54.366127 
L 376.317832 -54.582889 
L 376.894277 -54.483834 
L 377.470722 -54.49109 
L 378.047167 -54.34871 
L 378.623612 -54.357795 
L 379.200056 -54.373468 
L 379.776501 -54.286471 
L 380.352946 -54.309633 
L 380.929391 -54.434282 
L 381.505836 -54.281231 
L 382.082281 -54.289964 
L 382.658726 -54.255525 
L 383.235171 -54.287322 
L 383.811616 -54.293117 
L 384.388061 -54.292759 
L 384.964505 -54.33162 
L 385.54095 -54.443638 
L 386.117395 -54.683751 
L 386.69384 -54.645051 
L 387.270285 -54.589994 
L 387.84673 -54.507379 
L 388.423175 -54.48787 
L 388.99962 -54.57272 
L 389.576065 -54.571635 
L 390.15251 -54.454661 
L 390.728955 -54.465814 
L 391.305399 -54.437254 
L 391.881844 -54.179364 
L 392.458289 -54.143771 
L 393.034734 -54.240607 
L 393.611179 -53.810617 
L 394.187624 -54.00496 
L 394.764069 -53.984232 
L 395.340514 -54.11792 
L 395.916959 -54.195778 
L 396.493404 -54.120464 
L 397.069849 -54.328038 
L 397.646293 -54.467988 
L 398.222738 -54.499106 
L 398.799183 -54.471626 
L 399.375628 -54.614108 
L 399.952073 -54.665252 
L 400.528518 -54.4387 
L 401.104963 -54.510634 
L 401.681408 -54.353043 
L 402.257853 -53.77919 
L 402.834298 -53.678701 
L 403.410742 -54.136928 
L 403.987187 -54.227685 
L 404.563632 -54.104109 
L 405.140077 -53.945627 
L 405.716522 -53.841492 
L 406.292967 -53.77414 
L 406.869412 -53.840698 
L 407.445857 -53.947763 
L 408.022302 -53.940797 
L 408.598747 -53.82706 
L 409.175192 -53.740109 
L 409.751636 -53.802366 
L 410.328081 -53.890006 
L 410.904526 -53.911236 
L 411.480971 -54.138899 
L 412.057416 -54.098038 
L 412.633861 -53.944697 
L 413.210306 -53.849602 
L 413.786751 -53.7407 
L 414.363196 -53.792588 
L 414.939641 -53.82105 
L 415.516086 -53.863983 
L 416.09253 -53.500468 
L 416.668975 -53.111492 
L 417.24542 -53.283279 
L 417.821865 -53.127756 
L 418.39831 -53.29184 
L 418.974755 -53.249401 
L 419.5512 -53.470395 
L 420.127645 -53.456017 
L 420.70409 -53.26922 
L 421.280535 -54.529706 
L 421.856979 -53.375408 
L 422.433424 -52.849505 
L 423.009869 -52.938755 
L 423.586314 -52.842529 
L 424.162759 -52.726718 
L 424.739204 -53.095419 
L 425.315649 -52.721533 
L 425.892094 -52.787767 
L 426.468539 -52.335357 
L 427.044984 -52.341542 
L 427.621429 -52.390947 
L 428.197873 -52.62637 
L 428.774318 -52.628938 
L 429.350763 -52.73573 
L 429.927208 -52.718405 
L 430.503653 -52.743967 
L 431.080098 -52.682606 
L 431.656543 -52.684964 
L 432.232988 -52.389734 
L 432.809433 -55.344197 
L 433.385878 -116.692151 
L 433.962322 -115.066579 
L 434.538767 -114.83036 
L 435.115212 -122.587913 
L 435.691657 -126.146673 
L 435.691657 -128.263274 
L 435.691657 -128.263274 
L 435.115212 -129.30591 
L 434.538767 -117.216055 
L 433.962322 -121.184576 
L 433.385878 -136.469477 
L 432.809433 -131.875506 
L 432.232988 -116.108109 
L 431.656543 -55.109033 
L 431.080098 -53.028901 
L 430.503653 -53.090263 
L 429.927208 -54.565314 
L 429.350763 -61.393118 
L 428.774318 -59.081713 
L 428.197873 -60.822031 
L 427.621429 -74.322997 
L 427.044984 -53.380429 
L 426.468539 -53.605107 
L 425.892094 -103.220073 
L 425.315649 -118.171386 
L 424.739204 -124.432296 
L 424.162759 -139.877757 
L 423.586314 -93.105395 
L 423.009869 -90.91583 
L 422.433424 -57.813074 
L 421.856979 -107.282076 
L 421.280535 -127.0209 
L 420.70409 -58.232789 
L 420.127645 -85.546068 
L 419.5512 -72.401216 
L 418.974755 -57.982106 
L 418.39831 -54.446158 
L 417.821865 -77.945601 
L 417.24542 -55.476484 
L 416.668975 -54.150379 
L 416.09253 -58.00231 
L 415.516086 -60.212734 
L 414.939641 -54.859937 
L 414.363196 -54.600611 
L 413.786751 -54.895019 
L 413.210306 -130.727206 
L 412.633861 -55.676174 
L 412.057416 -60.331357 
L 411.480971 -55.293218 
L 410.904526 -55.180986 
L 410.328081 -54.928892 
L 409.751636 -55.30298 
L 409.175192 -55.817882 
L 408.598747 -60.291243 
L 408.022302 -56.942025 
L 407.445857 -56.140968 
L 406.869412 -54.995017 
L 406.292967 -54.582163 
L 405.716522 -76.004405 
L 405.140077 -59.832651 
L 404.563632 -55.373859 
L 403.987187 -100.642964 
L 403.410742 -90.613389 
L 402.834298 -55.52561 
L 402.257853 -60.012509 
L 401.681408 -112.184394 
L 401.104963 -120.19135 
L 400.528518 -57.670792 
L 399.952073 -65.054118 
L 399.375628 -79.778248 
L 398.799183 -123.730729 
L 398.222738 -57.615765 
L 397.646293 -55.968602 
L 397.069849 -57.329265 
L 396.493404 -91.52038 
L 395.916959 -55.234664 
L 395.340514 -55.272238 
L 394.764069 -55.13855 
L 394.187624 -57.583347 
L 393.611179 -81.860553 
L 393.034734 -87.946704 
L 392.458289 -125.365216 
L 391.881844 -68.031185 
L 391.305399 -59.285392 
L 390.728955 -56.197292 
L 390.15251 -55.147252 
L 389.576065 -55.49509 
L 388.99962 -56.304198 
L 388.423175 -56.103916 
L 387.84673 -55.315402 
L 387.270285 -55.975176 
L 386.69384 -55.337642 
L 386.117395 -55.26091 
L 385.54095 -55.597956 
L 384.964505 -55.485938 
L 384.388061 -55.331646 
L 383.811616 -55.332004 
L 383.235171 -55.095344 
L 382.658726 -54.832684 
L 382.082281 -54.751692 
L 381.505836 -54.85839 
L 380.929391 -55.011441 
L 380.352946 -54.771361 
L 379.776501 -54.632767 
L 379.200056 -54.719764 
L 378.623612 -54.704091 
L 378.047167 -54.695006 
L 377.470722 -55.183681 
L 376.894277 -55.060993 
L 376.317832 -55.968072 
L 375.741387 -55.058718 
L 375.164942 -55.440746 
L 374.588497 -55.205976 
L 374.012052 -55.256815 
L 373.435607 -54.897596 
L 372.859162 -54.776078 
L 372.282718 -54.738219 
L 371.706273 -54.878037 
L 371.129828 -55.163637 
L 370.553383 -54.873116 
L 369.976938 -54.8768 
L 369.400493 -54.998302 
L 368.824048 -55.427379 
L 368.247603 -55.164301 
L 367.671158 -54.671303 
L 367.094713 -54.69706 
L 366.518268 -54.709453 
L 365.941824 -54.555691 
L 365.365379 -54.904189 
L 364.788934 -54.178527 
L 364.212489 -54.091959 
L 363.636044 -54.100833 
L 363.059599 -53.834012 
L 362.483154 -53.590546 
L 361.906709 -53.931262 
L 361.330264 -54.42446 
L 360.753819 -54.208362 
L 360.177375 -54.186509 
L 359.60093 -54.299262 
L 359.024485 -54.388986 
L 358.44804 -54.132434 
L 357.871595 -54.109536 
L 357.29515 -54.207616 
L 356.718705 -54.228837 
L 356.14226 -54.368609 
L 355.565815 -54.621205 
L 354.98937 -54.266891 
L 354.412925 -54.185213 
L 353.836481 -53.896301 
L 353.260036 -54.160479 
L 352.683591 -53.898565 
L 352.107146 -53.464082 
L 351.530701 -53.290545 
L 350.954256 -53.119257 
L 350.377811 -53.072585 
L 349.801366 -53.096333 
L 349.224921 -53.104133 
L 348.648476 -53.040437 
L 348.072032 -52.552831 
L 347.495587 -52.314046 
L 346.919142 -52.361864 
L 346.342697 -52.268297 
L 345.766252 -52.369445 
L 345.189807 -52.509372 
L 344.613362 -52.481941 
L 344.036917 -52.182505 
L 343.460472 -52.332292 
L 342.884027 -52.357883 
L 342.307582 -52.125418 
L 341.731138 -52.099829 
L 341.154693 -52.085244 
L 340.578248 -52.204691 
L 340.001803 -52.257845 
L 339.425358 -52.101412 
L 338.848913 -51.844055 
L 338.272468 -51.928672 
L 337.696023 -52.068173 
L 337.119578 -52.39213 
L 336.543133 -52.275211 
L 335.966688 -52.494971 
L 335.390244 -52.46006 
L 334.813799 -52.667652 
L 334.237354 -52.297439 
L 333.660909 -52.487044 
L 333.084464 -52.84627 
L 332.508019 -53.161527 
L 331.931574 -52.981773 
L 331.355129 -52.898881 
L 330.778684 -52.368636 
L 330.202239 -52.39931 
L 329.625795 -52.204809 
L 329.04935 -52.328089 
L 328.472905 -52.659081 
L 327.89646 -52.403023 
L 327.320015 -52.542635 
L 326.74357 -52.304847 
L 326.167125 -52.294462 
L 325.59068 -52.280718 
L 325.014235 -52.812866 
L 324.43779 -52.884518 
L 323.861345 -53.322817 
L 323.284901 -52.346074 
L 322.708456 -52.319227 
L 322.132011 -52.289374 
L 321.555566 -52.272552 
L 320.979121 -52.506635 
L 320.402676 -52.45596 
L 319.826231 -52.395783 
L 319.249786 -52.2851 
L 318.673341 -52.176173 
L 318.096896 -52.193509 
L 317.520451 -52.315363 
L 316.944007 -52.311739 
L 316.367562 -52.417019 
L 315.791117 -52.538832 
L 315.214672 -52.224369 
L 314.638227 -52.250901 
L 314.061782 -52.382944 
L 313.485337 -51.948712 
L 312.908892 -51.669082 
L 312.332447 -50.814197 
L 311.756002 -111.083845 
L 311.179558 -115.017818 
L 310.603113 -114.989034 
L 310.026668 -112.167019 
L 309.450223 -108.143533 
L 308.873778 -118.641647 
L 308.297333 -120.495213 
L 307.720888 -119.809794 
L 307.144443 -118.892544 
L 306.567998 -119.917168 
L 305.991553 -115.598054 
L 305.415108 -116.557606 
L 304.838664 -121.588491 
L 304.262219 -117.493788 
L 303.685774 -124.103798 
L 303.109329 -123.390729 
L 302.532884 -115.217406 
L 301.956439 -76.398426 
L 301.379994 -106.57027 
L 300.803549 -120.521759 
L 300.227104 -121.77541 
L 299.650659 -119.26408 
L 299.074215 -117.740711 
L 298.49777 -111.239858 
L 297.921325 -65.977468 
L 297.34488 -117.939299 
L 296.768435 -115.735433 
L 296.19199 -118.427966 
L 295.615545 -109.462725 
L 295.0391 -116.635047 
z
" style="stroke: #e6a817; stroke-opacity: 0.25"/>
    </defs>
    <g clip-path="url(#p671a06e2d3)">
     <use xlink:href="#me57724c6c6" x="0" y="203.293937" style="fill: #e6a817; fill-opacity: 0.25; stroke: #e6a817; stroke-opacity: 0.25"/>
    </g>
   </g>
   <g id="FillBetweenPolyCollection_3">
    <defs>
     <path id="ma37fc464a2" d="M 436.268102 -127.250244 
L 436.268102 -124.580468 
L 436.844547 -123.510594 
L 437.420992 -122.406866 
L 437.997437 -115.867027 
L 438.573882 -116.27976 
L 439.150327 -117.059831 
L 439.726772 -117.265635 
L 440.303216 -116.540038 
L 440.879661 -115.984857 
L 441.456106 -115.383883 
L 442.032551 -115.034715 
L 442.608996 -114.939655 
L 443.185441 -115.008126 
L 443.761886 -115.320988 
L 444.338331 -115.510614 
L 444.914776 -115.496591 
L 445.491221 -115.259498 
L 446.067666 -115.33416 
L 446.64411 -115.321111 
L 447.220555 -115.307614 
L 447.797 -116.667578 
L 448.373445 -115.838222 
L 448.94989 -115.752511 
L 449.526335 -115.53897 
L 450.10278 -115.842003 
L 450.679225 -116.362444 
L 451.25567 -116.29818 
L 451.832115 -117.169538 
L 452.408559 -117.268538 
L 452.985004 -141.9917 
L 453.561449 -142.528566 
L 454.137894 -141.472739 
L 454.714339 -141.325331 
L 455.290784 -141.301752 
L 455.867229 -141.560034 
L 456.443674 -141.748666 
L 457.020119 -142.548673 
L 457.596564 -144.858724 
L 458.173009 -142.013773 
L 458.749453 -141.778132 
L 459.325898 -141.142872 
L 459.902343 -141.712149 
L 460.478788 -141.900326 
L 461.055233 -143.962683 
L 461.631678 -142.19839 
L 462.208123 -142.040585 
L 462.784568 -142.019594 
L 463.361013 -141.208636 
L 463.937458 -142.063064 
L 464.513903 -142.351988 
L 465.090347 -143.759128 
L 465.666792 -143.783271 
L 466.243237 -146.290598 
L 466.819682 -145.965858 
L 467.396127 -145.706402 
L 467.972572 -147.756121 
L 468.549017 -147.368583 
L 469.125462 -147.787407 
L 469.701907 -149.551933 
L 470.278352 -151.352609 
L 470.854796 -145.64195 
L 471.431241 -141.573528 
L 472.007686 -141.327621 
L 472.584131 -141.450009 
L 473.160576 -140.862416 
L 473.737021 -142.000558 
L 474.313466 -141.02128 
L 474.889911 -140.067125 
L 475.466356 -139.732723 
L 475.466356 -142.66423 
L 475.466356 -142.66423 
L 474.889911 -143.6228 
L 474.313466 -151.44903 
L 473.737021 -157.200248 
L 473.160576 -153.903495 
L 472.584131 -150.165166 
L 472.007686 -153.239718 
L 471.431241 -146.306397 
L 470.854796 -152.057879 
L 470.278352 -162.250009 
L 469.701907 -172.037766 
L 469.125462 -159.976793 
L 468.549017 -161.243087 
L 467.972572 -161.192701 
L 467.396127 -161.612548 
L 466.819682 -170.967924 
L 466.243237 -164.459657 
L 465.666792 -162.397398 
L 465.090347 -153.477908 
L 464.513903 -152.163177 
L 463.937458 -153.32875 
L 463.361013 -152.451095 
L 462.784568 -150.862009 
L 462.208123 -153.052364 
L 461.631678 -153.348614 
L 461.055233 -159.96123 
L 460.478788 -154.758829 
L 459.902343 -147.529631 
L 459.325898 -142.620588 
L 458.749453 -145.423137 
L 458.173009 -149.241837 
L 457.596564 -156.378613 
L 457.020119 -157.162047 
L 456.443674 -156.558077 
L 455.867229 -150.863263 
L 455.290784 -143.886376 
L 454.714339 -142.803098 
L 454.137894 -150.399609 
L 453.561449 -153.898049 
L 452.985004 -152.288071 
L 452.408559 -129.527687 
L 451.832115 -125.688026 
L 451.25567 -119.829778 
L 450.679225 -121.556602 
L 450.10278 -124.706826 
L 449.526335 -119.925103 
L 448.94989 -122.661956 
L 448.373445 -122.048165 
L 447.797 -122.092228 
L 447.220555 -116.853925 
L 446.64411 -117.006342 
L 446.067666 -119.743402 
L 445.491221 -117.637092 
L 444.914776 -118.335862 
L 444.338331 -119.989483 
L 443.761886 -118.691744 
L 443.185441 -116.993891 
L 442.608996 -115.978209 
L 442.032551 -126.808971 
L 441.456106 -122.632943 
L 440.879661 -124.480361 
L 440.303216 -119.834227 
L 439.726772 -124.583695 
L 439.150327 -118.76857 
L 438.573882 -118.518878 
L 437.997437 -122.26244 
L 437.420992 -123.769452 
L 436.844547 -124.965648 
L 436.268102 -127.250244 
z
" style="stroke: #999999; stroke-opacity: 0.25"/>
    </defs>
    <g clip-path="url(#p671a06e2d3)">
     <use xlink:href="#ma37fc464a2" x="0" y="203.293937" style="fill: #999999; fill-opacity: 0.25; stroke: #999999; stroke-opacity: 0.25"/>
    </g>
   </g>
   <g id="matplotlib.axis_1">
    <g id="xtick_1">
     <g id="line2d_1">
      <path d="M 80.601595 159.31186 
L 80.601595 25.158281 
" clip-path="url(#p671a06e2d3)" style="fill: none; stroke: #b0b0b0; stroke-opacity: 0.25; stroke-width: 0.5; stroke-linecap: square"/>
     </g>
     <g id="line2d_2">
      <defs>
       <path id="m2c97588cbd" d="M 0 0 
L 0 3.5 
" style="stroke: #000000; stroke-width: 0.8"/>
      </defs>
      <g>
       <use xlink:href="#m2c97588cbd" x="80.601595" y="159.31186" style="stroke: #000000; stroke-width: 0.8"/>
      </g>
     </g>
     <g id="text_1">
      <!-- Apr 2024 -->
      <g transform="translate(47.185514 190.388712) rotate(-30) scale(0.08 -0.08)">
       <defs>
        <path id="DejaVuSerif-41" d="M 1281 1691 
L 2994 1691 
L 2138 3909 
L 1281 1691 
z
M -38 0 
L -38 331 
L 372 331 
L 2034 4666 
L 2559 4666 
L 4225 331 
L 4684 331 
L 4684 0 
L 2988 0 
L 2988 331 
L 3506 331 
L 3116 1356 
L 1153 1356 
L 763 331 
L 1275 331 
L 1275 0 
L -38 0 
z
" transform="scale(0.015625)"/>
        <path id="DejaVuSerif-70" d="M 1313 1825 
L 1313 1497 
Q 1313 897 1542 583 
Q 1772 269 2209 269 
Q 2650 269 2876 622 
Q 3103 975 3103 1663 
Q 3103 2353 2876 2703 
Q 2650 3053 2209 3053 
Q 1772 3053 1542 2737 
Q 1313 2422 1313 1825 
z
M 738 2988 
L 184 2988 
L 184 3322 
L 1313 3322 
L 1313 2803 
Q 1481 3116 1742 3264 
Q 2003 3413 2388 3413 
Q 3000 3413 3387 2928 
Q 3775 2444 3775 1663 
Q 3775 881 3387 395 
Q 3000 -91 2388 -91 
Q 2003 -91 1742 57 
Q 1481 206 1313 519 
L 1313 -997 
L 1856 -997 
L 1856 -1331 
L 184 -1331 
L 184 -997 
L 738 -997 
L 738 2988 
z
" transform="scale(0.015625)"/>
        <path id="DejaVuSerif-72" d="M 3059 3328 
L 3059 2497 
L 2728 2497 
Q 2713 2744 2591 2866 
Q 2469 2988 2234 2988 
Q 1809 2988 1582 2694 
Q 1356 2400 1356 1850 
L 1356 331 
L 2022 331 
L 2022 0 
L 263 0 
L 263 331 
L 781 331 
L 781 2994 
L 231 2994 
L 231 3322 
L 1356 3322 
L 1356 2731 
Q 1525 3078 1790 3245 
Q 2056 3413 2438 3413 
Q 2578 3413 2733 3391 
Q 2888 3369 3059 3328 
z
" transform="scale(0.015625)"/>
        <path id="DejaVuSerif-20" transform="scale(0.015625)"/>
        <path id="DejaVuSerif-32" d="M 819 3553 
L 469 3553 
L 469 4384 
Q 803 4563 1142 4656 
Q 1481 4750 1806 4750 
Q 2534 4750 2956 4397 
Q 3378 4044 3378 3438 
Q 3378 2753 2422 1800 
Q 2347 1728 2309 1691 
L 1131 513 
L 3078 513 
L 3078 1088 
L 3444 1088 
L 3444 0 
L 434 0 
L 434 341 
L 1850 1753 
Q 2319 2222 2519 2614 
Q 2719 3006 2719 3438 
Q 2719 3909 2473 4175 
Q 2228 4441 1797 4441 
Q 1350 4441 1106 4219 
Q 863 3997 819 3553 
z
" transform="scale(0.015625)"/>
        <path id="DejaVuSerif-30" d="M 2034 219 
Q 2513 219 2750 744 
Q 2988 1269 2988 2328 
Q 2988 3391 2750 3916 
Q 2513 4441 2034 4441 
Q 1556 4441 1318 3916 
Q 1081 3391 1081 2328 
Q 1081 1269 1318 744 
Q 1556 219 2034 219 
z
M 2034 -91 
Q 1275 -91 848 546 
Q 422 1184 422 2328 
Q 422 3475 848 4112 
Q 1275 4750 2034 4750 
Q 2797 4750 3222 4112 
Q 3647 3475 3647 2328 
Q 3647 1184 3222 546 
Q 2797 -91 2034 -91 
z
" transform="scale(0.015625)"/>
        <path id="DejaVuSerif-34" d="M 2234 1581 
L 2234 4063 
L 641 1581 
L 2234 1581 
z
M 3609 0 
L 1484 0 
L 1484 331 
L 2234 331 
L 2234 1247 
L 197 1247 
L 197 1588 
L 2241 4750 
L 2859 4750 
L 2859 1581 
L 3750 1581 
L 3750 1247 
L 2859 1247 
L 2859 331 
L 3609 331 
L 3609 0 
z
" transform="scale(0.015625)"/>
       </defs>
       <use xlink:href="#DejaVuSerif-41"/>
       <use xlink:href="#DejaVuSerif-70" transform="translate(72.216797 0)"/>
       <use xlink:href="#DejaVuSerif-72" transform="translate(136.230469 0)"/>
       <use xlink:href="#DejaVuSerif-20" transform="translate(184.033203 0)"/>
       <use xlink:href="#DejaVuSerif-32" transform="translate(215.820312 0)"/>
       <use xlink:href="#DejaVuSerif-30" transform="translate(279.443359 0)"/>
       <use xlink:href="#DejaVuSerif-32" transform="translate(343.066406 0)"/>
       <use xlink:href="#DejaVuSerif-34" transform="translate(406.689453 0)"/>
      </g>
     </g>
    </g>
    <g id="xtick_2">
     <g id="line2d_3">
      <path d="M 115.764734 159.31186 
L 115.764734 25.158281 
" clip-path="url(#p671a06e2d3)" style="fill: none; stroke: #b0b0b0; stroke-opacity: 0.25; stroke-width: 0.5; stroke-linecap: square"/>
     </g>
     <g id="line2d_4">
      <g>
       <use xlink:href="#m2c97588cbd" x="115.764734" y="159.31186" style="stroke: #000000; stroke-width: 0.8"/>
      </g>
     </g>
     <g id="text_2">
      <!-- Jun 2024 -->
      <g transform="translate(83.396544 189.783712) rotate(-30) scale(0.08 -0.08)">
       <defs>
        <path id="DejaVuSerif-4a" d="M -538 -1119 
L -538 -384 
L -181 -384 
Q -172 -694 -34 -845 
Q 103 -997 378 -997 
Q 750 -997 897 -762 
Q 1044 -528 1044 153 
L 1044 4331 
L 319 4331 
L 319 4666 
L 2272 4666 
L 2272 4331 
L 1678 4331 
L 1678 128 
Q 1678 -644 1368 -987 
Q 1059 -1331 372 -1331 
Q 150 -1331 -79 -1278 
Q -309 -1225 -538 -1119 
z
" transform="scale(0.015625)"/>
        <path id="DejaVuSerif-75" d="M 2266 3322 
L 3341 3322 
L 3341 331 
L 3884 331 
L 3884 0 
L 2766 0 
L 2766 588 
Q 2606 256 2353 82 
Q 2100 -91 1766 -91 
Q 1213 -91 952 223 
Q 691 538 691 1209 
L 691 2988 
L 172 2988 
L 172 3322 
L 1269 3322 
L 1269 1388 
Q 1269 781 1417 556 
Q 1566 331 1947 331 
Q 2347 331 2556 625 
Q 2766 919 2766 1478 
L 2766 2988 
L 2266 2988 
L 2266 3322 
z
" transform="scale(0.015625)"/>
        <path id="DejaVuSerif-6e" d="M 263 0 
L 263 331 
L 781 331 
L 781 2988 
L 231 2988 
L 231 3322 
L 1356 3322 
L 1356 2731 
Q 1516 3069 1770 3241 
Q 2025 3413 2363 3413 
Q 2913 3413 3172 3097 
Q 3431 2781 3431 2113 
L 3431 331 
L 3944 331 
L 3944 0 
L 2356 0 
L 2356 331 
L 2853 331 
L 2853 1931 
Q 2853 2541 2703 2767 
Q 2553 2994 2175 2994 
Q 1775 2994 1565 2701 
Q 1356 2409 1356 1850 
L 1356 331 
L 1856 331 
L 1856 0 
L 263 0 
z
" transform="scale(0.015625)"/>
       </defs>
       <use xlink:href="#DejaVuSerif-4a"/>
       <use xlink:href="#DejaVuSerif-75" transform="translate(40.087891 0)"/>
       <use xlink:href="#DejaVuSerif-6e" transform="translate(104.492188 0)"/>
       <use xlink:href="#DejaVuSerif-20" transform="translate(168.896484 0)"/>
       <use xlink:href="#DejaVuSerif-32" transform="translate(200.683594 0)"/>
       <use xlink:href="#DejaVuSerif-30" transform="translate(264.306641 0)"/>
       <use xlink:href="#DejaVuSerif-32" transform="translate(327.929688 0)"/>
       <use xlink:href="#DejaVuSerif-34" transform="translate(391.552734 0)"/>
      </g>
     </g>
    </g>
    <g id="xtick_3">
     <g id="line2d_5">
      <path d="M 150.927874 159.31186 
L 150.927874 25.158281 
" clip-path="url(#p671a06e2d3)" style="fill: none; stroke: #b0b0b0; stroke-opacity: 0.25; stroke-width: 0.5; stroke-linecap: square"/>
     </g>
     <g id="line2d_6">
      <g>
       <use xlink:href="#m2c97588cbd" x="150.927874" y="159.31186" style="stroke: #000000; stroke-width: 0.8"/>
      </g>
     </g>
     <g id="text_3">
      <!-- Aug 2024 -->
      <g transform="translate(116.304187 190.954577) rotate(-30) scale(0.08 -0.08)">
       <defs>
        <path id="DejaVuSerif-67" d="M 3359 2988 
L 3359 72 
Q 3359 -644 2965 -1033 
Q 2572 -1422 1844 -1422 
Q 1516 -1422 1216 -1362 
Q 916 -1303 641 -1184 
L 641 -488 
L 941 -488 
Q 997 -813 1206 -963 
Q 1416 -1113 1806 -1113 
Q 2313 -1113 2548 -827 
Q 2784 -541 2784 72 
L 2784 519 
Q 2616 206 2355 57 
Q 2094 -91 1709 -91 
Q 1097 -91 708 395 
Q 319 881 319 1663 
Q 319 2444 706 2928 
Q 1094 3413 1709 3413 
Q 2094 3413 2355 3264 
Q 2616 3116 2784 2803 
L 2784 3322 
L 3909 3322 
L 3909 2988 
L 3359 2988 
z
M 2784 1825 
Q 2784 2422 2554 2737 
Q 2325 3053 1888 3053 
Q 1444 3053 1217 2703 
Q 991 2353 991 1663 
Q 991 975 1217 622 
Q 1444 269 1888 269 
Q 2325 269 2554 583 
Q 2784 897 2784 1497 
L 2784 1825 
z
" transform="scale(0.015625)"/>
       </defs>
       <use xlink:href="#DejaVuSerif-41"/>
       <use xlink:href="#DejaVuSerif-75" transform="translate(72.216797 0)"/>
       <use xlink:href="#DejaVuSerif-67" transform="translate(136.621094 0)"/>
       <use xlink:href="#DejaVuSerif-20" transform="translate(200.634766 0)"/>
       <use xlink:href="#DejaVuSerif-32" transform="translate(232.421875 0)"/>
       <use xlink:href="#DejaVuSerif-30" transform="translate(296.044922 0)"/>
       <use xlink:href="#DejaVuSerif-32" transform="translate(359.667969 0)"/>
       <use xlink:href="#DejaVuSerif-34" transform="translate(423.291016 0)"/>
      </g>
     </g>
    </g>
    <g id="xtick_4">
     <g id="line2d_7">
      <path d="M 186.091013 159.31186 
L 186.091013 25.158281 
" clip-path="url(#p671a06e2d3)" style="fill: none; stroke: #b0b0b0; stroke-opacity: 0.25; stroke-width: 0.5; stroke-linecap: square"/>
     </g>
     <g id="line2d_8">
      <g>
       <use xlink:href="#m2c97588cbd" x="186.091013" y="159.31186" style="stroke: #000000; stroke-width: 0.8"/>
      </g>
     </g>
     <g id="text_4">
      <!-- Oct 2024 -->
      <g transform="translate(153.080882 190.154337) rotate(-30) scale(0.08 -0.08)">
       <defs>
        <path id="DejaVuSerif-4f" d="M 2625 244 
Q 3391 244 3781 770 
Q 4172 1297 4172 2328 
Q 4172 3363 3781 3889 
Q 3391 4416 2625 4416 
Q 1856 4416 1465 3889 
Q 1075 3363 1075 2328 
Q 1075 1297 1465 770 
Q 1856 244 2625 244 
z
M 2625 -91 
Q 2150 -91 1751 65 
Q 1353 222 1050 525 
Q 700 875 529 1319 
Q 359 1763 359 2328 
Q 359 2894 529 3339 
Q 700 3784 1050 4134 
Q 1356 4441 1750 4595 
Q 2144 4750 2625 4750 
Q 3641 4750 4266 4084 
Q 4891 3419 4891 2328 
Q 4891 1769 4719 1320 
Q 4547 872 4197 525 
Q 3891 219 3497 64 
Q 3103 -91 2625 -91 
z
" transform="scale(0.015625)"/>
        <path id="DejaVuSerif-63" d="M 3291 997 
Q 3169 466 2822 187 
Q 2475 -91 1925 -91 
Q 1200 -91 759 389 
Q 319 869 319 1663 
Q 319 2459 759 2936 
Q 1200 3413 1925 3413 
Q 2241 3413 2553 3339 
Q 2866 3266 3181 3116 
L 3181 2266 
L 2847 2266 
Q 2781 2703 2561 2903 
Q 2341 3103 1931 3103 
Q 1466 3103 1228 2742 
Q 991 2381 991 1663 
Q 991 944 1227 581 
Q 1463 219 1931 219 
Q 2303 219 2525 412 
Q 2747 606 2828 997 
L 3291 997 
z
" transform="scale(0.015625)"/>
        <path id="DejaVuSerif-74" d="M 691 2988 
L 184 2988 
L 184 3322 
L 691 3322 
L 691 4353 
L 1269 4353 
L 1269 3322 
L 2350 3322 
L 2350 2988 
L 1269 2988 
L 1269 878 
Q 1269 456 1350 337 
Q 1431 219 1650 219 
Q 1875 219 1978 351 
Q 2081 484 2088 781 
L 2522 781 
Q 2497 328 2275 118 
Q 2053 -91 1600 -91 
Q 1103 -91 897 129 
Q 691 350 691 878 
L 691 2988 
z
" transform="scale(0.015625)"/>
       </defs>
       <use xlink:href="#DejaVuSerif-4f"/>
       <use xlink:href="#DejaVuSerif-63" transform="translate(81.982422 0)"/>
       <use xlink:href="#DejaVuSerif-74" transform="translate(137.988281 0)"/>
       <use xlink:href="#DejaVuSerif-20" transform="translate(178.173828 0)"/>
       <use xlink:href="#DejaVuSerif-32" transform="translate(209.960938 0)"/>
       <use xlink:href="#DejaVuSerif-30" transform="translate(273.583984 0)"/>
       <use xlink:href="#DejaVuSerif-32" transform="translate(337.207031 0)"/>
       <use xlink:href="#DejaVuSerif-34" transform="translate(400.830078 0)"/>
      </g>
     </g>
    </g>
    <g id="xtick_5">
     <g id="line2d_9">
      <path d="M 221.254152 159.31186 
L 221.254152 25.158281 
" clip-path="url(#p671a06e2d3)" style="fill: none; stroke: #b0b0b0; stroke-opacity: 0.25; stroke-width: 0.5; stroke-linecap: square"/>
     </g>
     <g id="line2d_10">
      <g>
       <use xlink:href="#m2c97588cbd" x="221.254152" y="159.31186" style="stroke: #000000; stroke-width: 0.8"/>
      </g>
     </g>
     <g id="text_5">
      <!-- Dec 2024 -->
      <g transform="translate(187.053236 190.841837) rotate(-30) scale(0.08 -0.08)">
       <defs>
        <path id="DejaVuSerif-44" d="M 1581 331 
L 2163 331 
Q 3072 331 3558 850 
Q 4044 1369 4044 2338 
Q 4044 3306 3559 3818 
Q 3075 4331 2163 4331 
L 1581 4331 
L 1581 331 
z
M 353 0 
L 353 331 
L 947 331 
L 947 4331 
L 353 4331 
L 353 4666 
L 2209 4666 
Q 3416 4666 4089 4050 
Q 4763 3434 4763 2338 
Q 4763 1238 4088 619 
Q 3413 0 2209 0 
L 353 0 
z
" transform="scale(0.015625)"/>
        <path id="DejaVuSerif-65" d="M 3469 1600 
L 991 1600 
L 991 1575 
Q 991 903 1244 561 
Q 1497 219 1991 219 
Q 2369 219 2611 417 
Q 2853 616 2950 1006 
L 3413 1006 
Q 3275 459 2904 184 
Q 2534 -91 1931 -91 
Q 1203 -91 761 389 
Q 319 869 319 1663 
Q 319 2450 753 2931 
Q 1188 3413 1894 3413 
Q 2647 3413 3050 2948 
Q 3453 2484 3469 1600 
z
M 2791 1931 
Q 2772 2513 2545 2808 
Q 2319 3103 1894 3103 
Q 1497 3103 1269 2806 
Q 1041 2509 991 1931 
L 2791 1931 
z
" transform="scale(0.015625)"/>
       </defs>
       <use xlink:href="#DejaVuSerif-44"/>
       <use xlink:href="#DejaVuSerif-65" transform="translate(80.175781 0)"/>
       <use xlink:href="#DejaVuSerif-63" transform="translate(139.355469 0)"/>
       <use xlink:href="#DejaVuSerif-20" transform="translate(195.361328 0)"/>
       <use xlink:href="#DejaVuSerif-32" transform="translate(227.148438 0)"/>
       <use xlink:href="#DejaVuSerif-30" transform="translate(290.771484 0)"/>
       <use xlink:href="#DejaVuSerif-32" transform="translate(354.394531 0)"/>
       <use xlink:href="#DejaVuSerif-34" transform="translate(418.017578 0)"/>
      </g>
     </g>
    </g>
    <g id="xtick_6">
     <g id="line2d_11">
      <path d="M 256.993736 159.31186 
L 256.993736 25.158281 
" clip-path="url(#p671a06e2d3)" style="fill: none; stroke: #b0b0b0; stroke-opacity: 0.25; stroke-width: 0.5; stroke-linecap: square"/>
     </g>
     <g id="line2d_12">
      <g>
       <use xlink:href="#m2c97588cbd" x="256.993736" y="159.31186" style="stroke: #000000; stroke-width: 0.8"/>
      </g>
     </g>
     <g id="text_6">
      <!-- Feb 2025 -->
      <g transform="translate(223.365479 190.511212) rotate(-30) scale(0.08 -0.08)">
       <defs>
        <path id="DejaVuSerif-46" d="M 353 0 
L 353 331 
L 947 331 
L 947 4331 
L 353 4331 
L 353 4666 
L 4172 4666 
L 4172 3628 
L 3788 3628 
L 3788 4281 
L 1581 4281 
L 1581 2719 
L 3175 2719 
L 3175 3303 
L 3559 3303 
L 3559 1753 
L 3175 1753 
L 3175 2338 
L 1581 2338 
L 1581 331 
L 2328 331 
L 2328 0 
L 353 0 
z
" transform="scale(0.015625)"/>
        <path id="DejaVuSerif-62" d="M 738 331 
L 738 4531 
L 184 4531 
L 184 4863 
L 1313 4863 
L 1313 2803 
Q 1481 3116 1742 3264 
Q 2003 3413 2388 3413 
Q 3000 3413 3387 2928 
Q 3775 2444 3775 1663 
Q 3775 881 3387 395 
Q 3000 -91 2388 -91 
Q 2003 -91 1742 57 
Q 1481 206 1313 519 
L 1313 0 
L 184 0 
L 184 331 
L 738 331 
z
M 1313 1497 
Q 1313 897 1542 583 
Q 1772 269 2209 269 
Q 2650 269 2876 622 
Q 3103 975 3103 1663 
Q 3103 2353 2876 2703 
Q 2650 3053 2209 3053 
Q 1772 3053 1542 2737 
Q 1313 2422 1313 1825 
L 1313 1497 
z
" transform="scale(0.015625)"/>
        <path id="DejaVuSerif-35" d="M 3219 4666 
L 3219 4153 
L 1081 4153 
L 1081 2816 
Q 1244 2928 1461 2984 
Q 1678 3041 1947 3041 
Q 2703 3041 3140 2622 
Q 3578 2203 3578 1478 
Q 3578 738 3136 323 
Q 2694 -91 1894 -91 
Q 1572 -91 1234 -12 
Q 897 66 544 225 
L 544 1131 
L 897 1131 
Q 925 688 1179 453 
Q 1434 219 1894 219 
Q 2388 219 2653 544 
Q 2919 869 2919 1478 
Q 2919 2084 2655 2407 
Q 2391 2731 1894 2731 
Q 1613 2731 1398 2631 
Q 1184 2531 1019 2322 
L 750 2322 
L 750 4666 
L 3219 4666 
z
" transform="scale(0.015625)"/>
       </defs>
       <use xlink:href="#DejaVuSerif-46"/>
       <use xlink:href="#DejaVuSerif-65" transform="translate(63.884766 0)"/>
       <use xlink:href="#DejaVuSerif-62" transform="translate(123.064453 0)"/>
       <use xlink:href="#DejaVuSerif-20" transform="translate(187.078125 0)"/>
       <use xlink:href="#DejaVuSerif-32" transform="translate(218.865234 0)"/>
       <use xlink:href="#DejaVuSerif-30" transform="translate(282.488281 0)"/>
       <use xlink:href="#DejaVuSerif-32" transform="translate(346.111328 0)"/>
       <use xlink:href="#DejaVuSerif-35" transform="translate(409.734375 0)"/>
      </g>
     </g>
    </g>
    <g id="xtick_7">
     <g id="line2d_13">
      <path d="M 291.003986 159.31186 
L 291.003986 25.158281 
" clip-path="url(#p671a06e2d3)" style="fill: none; stroke: #b0b0b0; stroke-opacity: 0.25; stroke-width: 0.5; stroke-linecap: square"/>
     </g>
     <g id="line2d_14">
      <g>
       <use xlink:href="#m2c97588cbd" x="291.003986" y="159.31186" style="stroke: #000000; stroke-width: 0.8"/>
      </g>
     </g>
     <g id="text_7">
      <!-- Apr 2025 -->
      <g transform="translate(257.587905 190.388712) rotate(-30) scale(0.08 -0.08)">
       <use xlink:href="#DejaVuSerif-41"/>
       <use xlink:href="#DejaVuSerif-70" transform="translate(72.216797 0)"/>
       <use xlink:href="#DejaVuSerif-72" transform="translate(136.230469 0)"/>
       <use xlink:href="#DejaVuSerif-20" transform="translate(184.033203 0)"/>
       <use xlink:href="#DejaVuSerif-32" transform="translate(215.820312 0)"/>
       <use xlink:href="#DejaVuSerif-30" transform="translate(279.443359 0)"/>
       <use xlink:href="#DejaVuSerif-32" transform="translate(343.066406 0)"/>
       <use xlink:href="#DejaVuSerif-35" transform="translate(406.689453 0)"/>
      </g>
     </g>
    </g>
    <g id="xtick_8">
     <g id="line2d_15">
      <path d="M 326.167125 159.31186 
L 326.167125 25.158281 
" clip-path="url(#p671a06e2d3)" style="fill: none; stroke: #b0b0b0; stroke-opacity: 0.25; stroke-width: 0.5; stroke-linecap: square"/>
     </g>
     <g id="line2d_16">
      <g>
       <use xlink:href="#m2c97588cbd" x="326.167125" y="159.31186" style="stroke: #000000; stroke-width: 0.8"/>
      </g>
     </g>
     <g id="text_8">
      <!-- Jun 2025 -->
      <g transform="translate(293.798935 189.783712) rotate(-30) scale(0.08 -0.08)">
       <use xlink:href="#DejaVuSerif-4a"/>
       <use xlink:href="#DejaVuSerif-75" transform="translate(40.087891 0)"/>
       <use xlink:href="#DejaVuSerif-6e" transform="translate(104.492188 0)"/>
       <use xlink:href="#DejaVuSerif-20" transform="translate(168.896484 0)"/>
       <use xlink:href="#DejaVuSerif-32" transform="translate(200.683594 0)"/>
       <use xlink:href="#DejaVuSerif-30" transform="translate(264.306641 0)"/>
       <use xlink:href="#DejaVuSerif-32" transform="translate(327.929688 0)"/>
       <use xlink:href="#DejaVuSerif-35" transform="translate(391.552734 0)"/>
      </g>
     </g>
    </g>
    <g id="xtick_9">
     <g id="line2d_17">
      <path d="M 361.330264 159.31186 
L 361.330264 25.158281 
" clip-path="url(#p671a06e2d3)" style="fill: none; stroke: #b0b0b0; stroke-opacity: 0.25; stroke-width: 0.5; stroke-linecap: square"/>
     </g>
     <g id="line2d_18">
      <g>
       <use xlink:href="#m2c97588cbd" x="361.330264" y="159.31186" style="stroke: #000000; stroke-width: 0.8"/>
      </g>
     </g>
     <g id="text_9">
      <!-- Aug 2025 -->
      <g transform="translate(326.706577 190.954577) rotate(-30) scale(0.08 -0.08)">
       <use xlink:href="#DejaVuSerif-41"/>
       <use xlink:href="#DejaVuSerif-75" transform="translate(72.216797 0)"/>
       <use xlink:href="#DejaVuSerif-67" transform="translate(136.621094 0)"/>
       <use xlink:href="#DejaVuSerif-20" transform="translate(200.634766 0)"/>
       <use xlink:href="#DejaVuSerif-32" transform="translate(232.421875 0)"/>
       <use xlink:href="#DejaVuSerif-30" transform="translate(296.044922 0)"/>
       <use xlink:href="#DejaVuSerif-32" transform="translate(359.667969 0)"/>
       <use xlink:href="#DejaVuSerif-35" transform="translate(423.291016 0)"/>
      </g>
     </g>
    </g>
    <g id="xtick_10">
     <g id="line2d_19">
      <path d="M 396.493404 159.31186 
L 396.493404 25.158281 
" clip-path="url(#p671a06e2d3)" style="fill: none; stroke: #b0b0b0; stroke-opacity: 0.25; stroke-width: 0.5; stroke-linecap: square"/>
     </g>
     <g id="line2d_20">
      <g>
       <use xlink:href="#m2c97588cbd" x="396.493404" y="159.31186" style="stroke: #000000; stroke-width: 0.8"/>
      </g>
     </g>
     <g id="text_10">
      <!-- Oct 2025 -->
      <g transform="translate(363.483272 190.154337) rotate(-30) scale(0.08 -0.08)">
       <use xlink:href="#DejaVuSerif-4f"/>
       <use xlink:href="#DejaVuSerif-63" transform="translate(81.982422 0)"/>
       <use xlink:href="#DejaVuSerif-74" transform="translate(137.988281 0)"/>
       <use xlink:href="#DejaVuSerif-20" transform="translate(178.173828 0)"/>
       <use xlink:href="#DejaVuSerif-32" transform="translate(209.960938 0)"/>
       <use xlink:href="#DejaVuSerif-30" transform="translate(273.583984 0)"/>
       <use xlink:href="#DejaVuSerif-32" transform="translate(337.207031 0)"/>
       <use xlink:href="#DejaVuSerif-35" transform="translate(400.830078 0)"/>
      </g>
     </g>
    </g>
    <g id="xtick_11">
     <g id="line2d_21">
      <path d="M 431.656543 159.31186 
L 431.656543 25.158281 
" clip-path="url(#p671a06e2d3)" style="fill: none; stroke: #b0b0b0; stroke-opacity: 0.25; stroke-width: 0.5; stroke-linecap: square"/>
     </g>
     <g id="line2d_22">
      <g>
       <use xlink:href="#m2c97588cbd" x="431.656543" y="159.31186" style="stroke: #000000; stroke-width: 0.8"/>
      </g>
     </g>
     <g id="text_11">
      <!-- Dec 2025 -->
      <g transform="translate(397.455627 190.841837) rotate(-30) scale(0.08 -0.08)">
       <use xlink:href="#DejaVuSerif-44"/>
       <use xlink:href="#DejaVuSerif-65" transform="translate(80.175781 0)"/>
       <use xlink:href="#DejaVuSerif-63" transform="translate(139.355469 0)"/>
       <use xlink:href="#DejaVuSerif-20" transform="translate(195.361328 0)"/>
       <use xlink:href="#DejaVuSerif-32" transform="translate(227.148438 0)"/>
       <use xlink:href="#DejaVuSerif-30" transform="translate(290.771484 0)"/>
       <use xlink:href="#DejaVuSerif-32" transform="translate(354.394531 0)"/>
       <use xlink:href="#DejaVuSerif-35" transform="translate(418.017578 0)"/>
      </g>
     </g>
    </g>
    <g id="xtick_12">
     <g id="line2d_23">
      <path d="M 467.396127 159.31186 
L 467.396127 25.158281 
" clip-path="url(#p671a06e2d3)" style="fill: none; stroke: #b0b0b0; stroke-opacity: 0.25; stroke-width: 0.5; stroke-linecap: square"/>
     </g>
     <g id="line2d_24">
      <g>
       <use xlink:href="#m2c97588cbd" x="467.396127" y="159.31186" style="stroke: #000000; stroke-width: 0.8"/>
      </g>
     </g>
     <g id="text_12">
      <!-- Feb 2026 -->
      <g transform="translate(433.76787 190.511212) rotate(-30) scale(0.08 -0.08)">
       <defs>
        <path id="DejaVuSerif-36" d="M 2094 219 
Q 2534 219 2771 542 
Q 3009 866 3009 1472 
Q 3009 2078 2771 2401 
Q 2534 2725 2094 2725 
Q 1647 2725 1412 2412 
Q 1178 2100 1178 1509 
Q 1178 888 1415 553 
Q 1653 219 2094 219 
z
M 1075 2569 
Q 1288 2803 1556 2918 
Q 1825 3034 2163 3034 
Q 2859 3034 3264 2615 
Q 3669 2197 3669 1472 
Q 3669 763 3233 336 
Q 2797 -91 2069 -91 
Q 1278 -91 853 498 
Q 428 1088 428 2181 
Q 428 3406 931 4078 
Q 1434 4750 2350 4750 
Q 2597 4750 2869 4703 
Q 3141 4656 3425 4563 
L 3425 3794 
L 3072 3794 
Q 3034 4109 2831 4275 
Q 2628 4441 2284 4441 
Q 1678 4441 1381 3981 
Q 1084 3522 1075 2569 
z
" transform="scale(0.015625)"/>
       </defs>
       <use xlink:href="#DejaVuSerif-46"/>
       <use xlink:href="#DejaVuSerif-65" transform="translate(63.884766 0)"/>
       <use xlink:href="#DejaVuSerif-62" transform="translate(123.064453 0)"/>
       <use xlink:href="#DejaVuSerif-20" transform="translate(187.078125 0)"/>
       <use xlink:href="#DejaVuSerif-32" transform="translate(218.865234 0)"/>
       <use xlink:href="#DejaVuSerif-30" transform="translate(282.488281 0)"/>
       <use xlink:href="#DejaVuSerif-32" transform="translate(346.111328 0)"/>
       <use xlink:href="#DejaVuSerif-36" transform="translate(409.734375 0)"/>
      </g>
     </g>
    </g>
   </g>
   <g id="matplotlib.axis_2">
    <g id="ytick_1">
     <g id="line2d_25">
      <path d="M 49.358281 142.905643 
L 495.757216 142.905643 
" clip-path="url(#p671a06e2d3)" style="fill: none; stroke: #b0b0b0; stroke-opacity: 0.25; stroke-width: 0.5; stroke-linecap: square"/>
     </g>
     <g id="line2d_26">
      <defs>
       <path id="m7d55440a0a" d="M 0 0 
L -3.5 0 
" style="stroke: #000000; stroke-width: 0.8"/>
      </defs>
      <g>
       <use xlink:href="#m7d55440a0a" x="49.358281" y="142.905643" style="stroke: #000000; stroke-width: 0.8"/>
      </g>
     </g>
     <g id="text_13">
      <!-- $\mathdefault{10^{-9}}$ -->
      <g transform="translate(23.638281 145.945018) scale(0.08 -0.08)">
       <defs>
        <path id="DejaVuSerif-31" d="M 909 0 
L 909 331 
L 1722 331 
L 1722 4213 
L 781 3603 
L 781 4013 
L 1919 4750 
L 2350 4750 
L 2350 331 
L 3163 331 
L 3163 0 
L 909 0 
z
" transform="scale(0.015625)"/>
        <path id="DejaVuSerif-2212" d="M 678 2259 
L 4684 2259 
L 4684 1753 
L 678 1753 
L 678 2259 
z
" transform="scale(0.015625)"/>
        <path id="DejaVuSerif-39" d="M 2994 2091 
Q 2784 1856 2512 1740 
Q 2241 1625 1900 1625 
Q 1206 1625 804 2044 
Q 403 2463 403 3188 
Q 403 3897 839 4323 
Q 1275 4750 2003 4750 
Q 2794 4750 3217 4161 
Q 3641 3572 3641 2478 
Q 3641 1253 3137 581 
Q 2634 -91 1722 -91 
Q 1475 -91 1203 -44 
Q 931 3 647 97 
L 647 872 
L 997 872 
Q 1038 556 1241 387 
Q 1444 219 1784 219 
Q 2391 219 2687 676 
Q 2984 1134 2994 2091 
z
M 1978 4441 
Q 1534 4441 1298 4117 
Q 1063 3794 1063 3188 
Q 1063 2581 1298 2256 
Q 1534 1931 1978 1931 
Q 2422 1931 2658 2245 
Q 2894 2559 2894 3150 
Q 2894 3772 2656 4106 
Q 2419 4441 1978 4441 
z
" transform="scale(0.015625)"/>
       </defs>
       <use xlink:href="#DejaVuSerif-31" transform="translate(0 0.7125)"/>
       <use xlink:href="#DejaVuSerif-30" transform="translate(63.623047 0.7125)"/>
       <use xlink:href="#DejaVuSerif-2212" transform="translate(128.154453 37.046875) scale(0.7)"/>
       <use xlink:href="#DejaVuSerif-39" transform="translate(186.806797 37.046875) scale(0.7)"/>
      </g>
     </g>
    </g>
    <g id="ytick_2">
     <g id="line2d_27">
      <path d="M 49.358281 122.596057 
L 495.757216 122.596057 
" clip-path="url(#p671a06e2d3)" style="fill: none; stroke: #b0b0b0; stroke-opacity: 0.25; stroke-width: 0.5; stroke-linecap: square"/>
     </g>
     <g id="line2d_28">
      <g>
       <use xlink:href="#m7d55440a0a" x="49.358281" y="122.596057" style="stroke: #000000; stroke-width: 0.8"/>
      </g>
     </g>
     <g id="text_14">
      <!-- $\mathdefault{10^{-7}}$ -->
      <g transform="translate(23.638281 125.635432) scale(0.08 -0.08)">
       <defs>
        <path id="DejaVuSerif-37" d="M 3609 4347 
L 1784 0 
L 1319 0 
L 3059 4153 
L 903 4153 
L 903 3578 
L 538 3578 
L 538 4666 
L 3609 4666 
L 3609 4347 
z
" transform="scale(0.015625)"/>
       </defs>
       <use xlink:href="#DejaVuSerif-31" transform="translate(0 0.63125)"/>
       <use xlink:href="#DejaVuSerif-30" transform="translate(63.623047 0.63125)"/>
       <use xlink:href="#DejaVuSerif-2212" transform="translate(128.154453 36.965625) scale(0.7)"/>
       <use xlink:href="#DejaVuSerif-37" transform="translate(186.806797 36.965625) scale(0.7)"/>
      </g>
     </g>
    </g>
    <g id="ytick_3">
     <g id="line2d_29">
      <path d="M 49.358281 102.286472 
L 495.757216 102.286472 
" clip-path="url(#p671a06e2d3)" style="fill: none; stroke: #b0b0b0; stroke-opacity: 0.25; stroke-width: 0.5; stroke-linecap: square"/>
     </g>
     <g id="line2d_30">
      <g>
       <use xlink:href="#m7d55440a0a" x="49.358281" y="102.286472" style="stroke: #000000; stroke-width: 0.8"/>
      </g>
     </g>
     <g id="text_15">
      <!-- $\mathdefault{10^{-5}}$ -->
      <g transform="translate(23.638281 105.325847) scale(0.08 -0.08)">
       <use xlink:href="#DejaVuSerif-31" transform="translate(0 0.63125)"/>
       <use xlink:href="#DejaVuSerif-30" transform="translate(63.623047 0.63125)"/>
       <use xlink:href="#DejaVuSerif-2212" transform="translate(128.154453 36.965625) scale(0.7)"/>
       <use xlink:href="#DejaVuSerif-35" transform="translate(186.806797 36.965625) scale(0.7)"/>
      </g>
     </g>
    </g>
    <g id="ytick_4">
     <g id="line2d_31">
      <path d="M 49.358281 81.976886 
L 495.757216 81.976886 
" clip-path="url(#p671a06e2d3)" style="fill: none; stroke: #b0b0b0; stroke-opacity: 0.25; stroke-width: 0.5; stroke-linecap: square"/>
     </g>
     <g id="line2d_32">
      <g>
       <use xlink:href="#m7d55440a0a" x="49.358281" y="81.976886" style="stroke: #000000; stroke-width: 0.8"/>
      </g>
     </g>
     <g id="text_16">
      <!-- $\mathdefault{10^{-3}}$ -->
      <g transform="translate(23.638281 85.016261) scale(0.08 -0.08)">
       <defs>
        <path id="DejaVuSerif-33" d="M 622 4469 
Q 988 4606 1323 4678 
Q 1659 4750 1953 4750 
Q 2638 4750 3022 4454 
Q 3406 4159 3406 3634 
Q 3406 3213 3140 2930 
Q 2875 2647 2388 2547 
Q 2963 2466 3280 2130 
Q 3597 1794 3597 1259 
Q 3597 606 3158 257 
Q 2719 -91 1894 -91 
Q 1528 -91 1179 -12 
Q 831 66 488 225 
L 488 1131 
L 838 1131 
Q 869 681 1141 450 
Q 1413 219 1906 219 
Q 2384 219 2661 495 
Q 2938 772 2938 1253 
Q 2938 1803 2653 2086 
Q 2369 2369 1819 2369 
L 1522 2369 
L 1522 2688 
L 1678 2688 
Q 2225 2688 2498 2914 
Q 2772 3141 2772 3597 
Q 2772 4006 2547 4223 
Q 2322 4441 1900 4441 
Q 1478 4441 1245 4241 
Q 1013 4041 972 3647 
L 622 3647 
L 622 4469 
z
" transform="scale(0.015625)"/>
       </defs>
       <use xlink:href="#DejaVuSerif-31" transform="translate(0 0.7125)"/>
       <use xlink:href="#DejaVuSerif-30" transform="translate(63.623047 0.7125)"/>
       <use xlink:href="#DejaVuSerif-2212" transform="translate(128.154453 37.046875) scale(0.7)"/>
       <use xlink:href="#DejaVuSerif-33" transform="translate(186.806797 37.046875) scale(0.7)"/>
      </g>
     </g>
    </g>
    <g id="ytick_5">
     <g id="line2d_33">
      <path d="M 49.358281 61.6673 
L 495.757216 61.6673 
" clip-path="url(#p671a06e2d3)" style="fill: none; stroke: #b0b0b0; stroke-opacity: 0.25; stroke-width: 0.5; stroke-linecap: square"/>
     </g>
     <g id="line2d_34">
      <g>
       <use xlink:href="#m7d55440a0a" x="49.358281" y="61.6673" style="stroke: #000000; stroke-width: 0.8"/>
      </g>
     </g>
     <g id="text_17">
      <!-- $\mathdefault{10^{-1}}$ -->
      <g transform="translate(23.638281 64.706675) scale(0.08 -0.08)">
       <use xlink:href="#DejaVuSerif-31" transform="translate(0 0.7125)"/>
       <use xlink:href="#DejaVuSerif-30" transform="translate(63.623047 0.7125)"/>
       <use xlink:href="#DejaVuSerif-2212" transform="translate(128.154453 37.046875) scale(0.7)"/>
       <use xlink:href="#DejaVuSerif-31" transform="translate(186.806797 37.046875) scale(0.7)"/>
      </g>
     </g>
    </g>
    <g id="ytick_6">
     <g id="line2d_35">
      <path d="M 49.358281 41.357715 
L 495.757216 41.357715 
" clip-path="url(#p671a06e2d3)" style="fill: none; stroke: #b0b0b0; stroke-opacity: 0.25; stroke-width: 0.5; stroke-linecap: square"/>
     </g>
     <g id="line2d_36">
      <g>
       <use xlink:href="#m7d55440a0a" x="49.358281" y="41.357715" style="stroke: #000000; stroke-width: 0.8"/>
      </g>
     </g>
     <g id="text_18">
      <!-- $\mathdefault{10^{1}}$ -->
      <g transform="translate(28.278281 44.39709) scale(0.08 -0.08)">
       <use xlink:href="#DejaVuSerif-31" transform="translate(0 0.7125)"/>
       <use xlink:href="#DejaVuSerif-30" transform="translate(63.623047 0.7125)"/>
       <use xlink:href="#DejaVuSerif-31" transform="translate(128.154453 37.046875) scale(0.7)"/>
      </g>
     </g>
    </g>
    <g id="text_19">
     <!-- $/MiB/day -->
     <g transform="translate(17.638594 115.590071) rotate(-90) scale(0.09 -0.09)">
      <defs>
       <path id="DejaVuSerif-24" d="M 2156 213 
Q 2509 244 2695 416 
Q 2881 588 2881 884 
Q 2881 1153 2697 1340 
Q 2513 1528 2156 1625 
L 2156 213 
z
M 1844 3709 
Q 1522 3688 1344 3523 
Q 1166 3359 1166 3084 
Q 1166 2834 1330 2668 
Q 1494 2503 1844 2400 
L 1844 3709 
z
M 550 225 
L 550 1088 
L 888 1088 
Q 900 659 1137 440 
Q 1375 222 1844 213 
L 1844 1728 
Q 1125 1928 834 2189 
Q 544 2450 544 2881 
Q 544 3381 887 3684 
Q 1231 3988 1844 4025 
L 1844 4863 
L 2156 4863 
L 2156 4025 
Q 2472 4000 2764 3923 
Q 3056 3847 3334 3719 
L 3334 2900 
L 2994 2900 
Q 2956 3263 2740 3472 
Q 2525 3681 2156 3709 
L 2156 2297 
Q 2925 2088 3233 1817 
Q 3541 1547 3541 1094 
Q 3541 575 3178 262 
Q 2816 -50 2156 -97 
L 2156 -941 
L 1844 -941 
L 1844 -97 
Q 1544 -91 1222 -11 
Q 900 69 550 225 
z
" transform="scale(0.015625)"/>
       <path id="DejaVuSerif-2f" d="M 1656 4666 
L 2156 4666 
L 500 -594 
L 0 -594 
L 1656 4666 
z
" transform="scale(0.015625)"/>
       <path id="DejaVuSerif-4d" d="M 353 0 
L 353 331 
L 947 331 
L 947 4331 
L 319 4331 
L 319 4666 
L 1678 4666 
L 3316 1344 
L 4953 4666 
L 6228 4666 
L 6228 4331 
L 5606 4331 
L 5606 331 
L 6203 331 
L 6203 0 
L 4378 0 
L 4378 331 
L 4972 331 
L 4972 3938 
L 3372 684 
L 2931 684 
L 1331 3938 
L 1331 331 
L 1925 331 
L 1925 0 
L 353 0 
z
" transform="scale(0.015625)"/>
       <path id="DejaVuSerif-69" d="M 622 4353 
Q 622 4497 726 4603 
Q 831 4709 978 4709 
Q 1122 4709 1226 4603 
Q 1331 4497 1331 4353 
Q 1331 4206 1228 4103 
Q 1125 4000 978 4000 
Q 831 4000 726 4103 
Q 622 4206 622 4353 
z
M 1356 331 
L 1900 331 
L 1900 0 
L 231 0 
L 231 331 
L 781 331 
L 781 2988 
L 231 2988 
L 231 3322 
L 1356 3322 
L 1356 331 
z
" transform="scale(0.015625)"/>
       <path id="DejaVuSerif-42" d="M 1581 331 
L 2516 331 
Q 3078 331 3337 575 
Q 3597 819 3597 1350 
Q 3597 1878 3339 2120 
Q 3081 2363 2516 2363 
L 1581 2363 
L 1581 331 
z
M 1581 2694 
L 2375 2694 
Q 2888 2694 3123 2891 
Q 3359 3088 3359 3513 
Q 3359 3941 3123 4136 
Q 2888 4331 2375 4331 
L 1581 4331 
L 1581 2694 
z
M 353 0 
L 353 331 
L 947 331 
L 947 4331 
L 353 4331 
L 353 4666 
L 2656 4666 
Q 3363 4666 3720 4377 
Q 4078 4088 4078 3513 
Q 4078 3097 3829 2850 
Q 3581 2603 3103 2547 
Q 3697 2472 4005 2167 
Q 4313 1863 4313 1350 
Q 4313 656 3875 328 
Q 3438 0 2509 0 
L 353 0 
z
" transform="scale(0.015625)"/>
       <path id="DejaVuSerif-64" d="M 3359 331 
L 3909 331 
L 3909 0 
L 2784 0 
L 2784 519 
Q 2616 206 2355 57 
Q 2094 -91 1709 -91 
Q 1097 -91 708 395 
Q 319 881 319 1663 
Q 319 2444 706 2928 
Q 1094 3413 1709 3413 
Q 2094 3413 2355 3264 
Q 2616 3116 2784 2803 
L 2784 4531 
L 2241 4531 
L 2241 4863 
L 3359 4863 
L 3359 331 
z
M 2784 1497 
L 2784 1825 
Q 2784 2422 2554 2737 
Q 2325 3053 1888 3053 
Q 1444 3053 1217 2703 
Q 991 2353 991 1663 
Q 991 975 1217 622 
Q 1444 269 1888 269 
Q 2325 269 2554 583 
Q 2784 897 2784 1497 
z
" transform="scale(0.015625)"/>
       <path id="DejaVuSerif-61" d="M 2547 1044 
L 2547 1747 
L 1806 1747 
Q 1378 1747 1168 1562 
Q 959 1378 959 997 
Q 959 650 1171 447 
Q 1384 244 1747 244 
Q 2106 244 2326 466 
Q 2547 688 2547 1044 
z
M 3122 2075 
L 3122 331 
L 3634 331 
L 3634 0 
L 2547 0 
L 2547 359 
Q 2356 128 2106 18 
Q 1856 -91 1522 -91 
Q 969 -91 644 203 
Q 319 497 319 997 
Q 319 1513 691 1797 
Q 1063 2081 1741 2081 
L 2547 2081 
L 2547 2309 
Q 2547 2688 2317 2895 
Q 2088 3103 1672 3103 
Q 1328 3103 1125 2947 
Q 922 2791 872 2484 
L 575 2484 
L 575 3156 
Q 875 3284 1158 3348 
Q 1441 3413 1709 3413 
Q 2400 3413 2761 3070 
Q 3122 2728 3122 2075 
z
" transform="scale(0.015625)"/>
       <path id="DejaVuSerif-79" d="M 1381 -609 
L 1600 -56 
L 359 2988 
L -19 2988 
L -19 3322 
L 1509 3322 
L 1509 2988 
L 978 2988 
L 1913 703 
L 2847 2988 
L 2350 2988 
L 2350 3322 
L 3597 3322 
L 3597 2988 
L 3225 2988 
L 1703 -750 
Q 1547 -1138 1356 -1280 
Q 1166 -1422 819 -1422 
Q 672 -1422 517 -1397 
Q 363 -1372 206 -1325 
L 206 -691 
L 500 -691 
Q 519 -903 608 -995 
Q 697 -1088 884 -1088 
Q 1056 -1088 1161 -992 
Q 1266 -897 1381 -609 
z
" transform="scale(0.015625)"/>
      </defs>
      <use xlink:href="#DejaVuSerif-24"/>
      <use xlink:href="#DejaVuSerif-2f" transform="translate(63.623047 0)"/>
      <use xlink:href="#DejaVuSerif-4d" transform="translate(97.314453 0)"/>
      <use xlink:href="#DejaVuSerif-69" transform="translate(199.707031 0)"/>
      <use xlink:href="#DejaVuSerif-42" transform="translate(231.689453 0)"/>
      <use xlink:href="#DejaVuSerif-2f" transform="translate(305.175781 0)"/>
      <use xlink:href="#DejaVuSerif-64" transform="translate(338.867188 0)"/>
      <use xlink:href="#DejaVuSerif-61" transform="translate(402.880859 0)"/>
      <use xlink:href="#DejaVuSerif-79" transform="translate(462.5 0)"/>
     </g>
    </g>
   </g>
   <g id="line2d_37">
    <path d="M 266.210557 204.293937 
L 266.216855 93.816783 
L 266.7933 87.507637 
L 267.369745 104.132438 
L 267.94619 91.014413 
L 268.522634 85.314946 
L 269.099079 86.836105 
L 269.675524 108.249405 
L 270.828414 85.25458 
L 271.404859 87.23065 
L 271.981304 89.849461 
L 272.557749 88.618811 
L 273.134194 150.626502 
L 273.710639 146.399903 
L 274.287084 88.346222 
L 274.863528 92.277645 
L 275.439973 111.391754 
L 276.016418 123.487843 
L 276.592863 96.438893 
L 277.169308 127.730541 
L 277.745753 137.652708 
L 278.322198 89.553752 
L 278.898643 89.174025 
L 279.475088 88.037216 
L 280.051533 89.562344 
L 281.204422 109.301165 
L 281.780867 131.512803 
L 282.357312 90.885271 
L 282.933757 101.986441 
L 283.510202 136.145997 
L 284.086647 149.25344 
L 284.663092 136.499472 
L 285.239537 146.347619 
L 285.815982 151.623916 
L 286.392427 150.652798 
L 286.968871 146.90855 
L 287.545316 141.848992 
L 288.121761 128.239603 
L 288.698206 94.894264 
L 289.274651 121.107065 
L 289.851096 137.427676 
L 290.427541 100.201265 
L 291.003986 117.585616 
L 291.580431 150.864713 
L 292.156876 128.043803 
L 292.733321 148.420276 
L 293.309765 152.354185 
L 293.88621 151.788074 
L 294.462655 92.377738 
L 294.462655 92.377738 
" clip-path="url(#p671a06e2d3)" style="fill: none; stroke: #3366cc; stroke-width: 1.2; stroke-linecap: square"/>
   </g>
   <g id="line2d_38">
    <path d="M 295.0391 139.642104 
L 295.615545 115.186102 
L 296.19199 105.989997 
L 296.768435 99.90971 
L 297.34488 102.553982 
L 297.921325 150.244835 
L 298.49777 110.673553 
L 299.074215 99.982206 
L 299.650659 98.805132 
L 300.227104 85.443209 
L 300.803549 87.158588 
L 301.379994 103.18785 
L 301.956439 148.82756 
L 302.532884 99.966011 
L 303.109329 92.716142 
L 303.685774 83.576549 
L 304.262219 89.840263 
L 304.838664 87.246174 
L 305.415108 91.238173 
L 305.991553 92.197725 
L 306.567998 87.647746 
L 307.720888 89.024871 
L 308.297333 88.22402 
L 308.873778 89.731291 
L 309.450223 121.699726 
L 310.026668 94.128145 
L 310.603113 95.923404 
L 311.179558 116.441487 
L 311.756002 152.580943 
L 312.332447 152.826035 
L 312.908892 151.97115 
L 313.485337 151.69152 
L 314.061782 151.257289 
L 315.214672 151.415863 
L 315.791117 151.1014 
L 316.944007 151.328493 
L 317.520451 151.324869 
L 318.673341 151.464059 
L 319.249786 151.355132 
L 320.402676 151.299704 
L 320.979121 151.133597 
L 321.555566 151.367681 
L 323.284901 151.294158 
L 323.861345 151.125439 
L 325.014235 151.173662 
L 325.59068 151.359515 
L 328.472905 151.212015 
L 329.04935 151.543007 
L 330.202239 151.356354 
L 330.778684 151.387028 
L 331.931574 150.889322 
L 332.508019 150.940432 
L 333.660909 151.26862 
L 334.813799 151.318876 
L 335.966688 151.376125 
L 337.119578 151.363535 
L 338.848913 151.911609 
L 339.425358 151.53882 
L 340.578248 151.550973 
L 342.307582 151.514814 
L 342.884027 151.397781 
L 343.460472 151.423372 
L 344.036917 151.573159 
L 344.613362 151.273723 
L 345.189807 151.246293 
L 345.766252 151.386219 
L 347.495587 151.326187 
L 348.072032 151.202834 
L 349.224921 150.67486 
L 351.530701 150.580551 
L 352.107146 150.407014 
L 353.260036 149.826049 
L 354.412925 149.801314 
L 355.565815 149.365323 
L 357.29515 149.66348 
L 358.44804 149.62323 
L 359.024485 149.48211 
L 360.177375 149.569155 
L 361.330264 149.562068 
L 361.906709 149.939834 
L 362.483154 150.049686 
L 363.059599 149.921652 
L 363.636044 149.654831 
L 364.212489 149.779137 
L 364.788934 149.692569 
L 365.365379 149.313202 
L 365.941824 149.315405 
L 366.518268 149.046211 
L 367.671158 149.084361 
L 368.247603 148.706795 
L 368.824048 148.559149 
L 369.976938 148.878864 
L 371.706273 148.993059 
L 372.282718 149.248309 
L 372.859162 148.979586 
L 373.435607 149.088931 
L 374.012052 148.498849 
L 375.164942 148.545782 
L 375.741387 148.92781 
L 376.317832 148.711047 
L 378.047167 148.945227 
L 380.929391 148.859655 
L 381.505836 149.012706 
L 384.388061 148.885746 
L 385.54095 148.734867 
L 386.117395 148.610186 
L 386.69384 148.648886 
L 387.270285 148.473079 
L 387.84673 148.671125 
L 388.423175 148.459771 
L 388.99962 148.374921 
L 390.15251 148.723844 
L 391.305399 148.279523 
L 391.881844 148.421981 
L 392.458289 145.802642 
L 393.034734 145.93667 
L 393.611179 147.059251 
L 394.187624 148.82725 
L 394.764069 149.194273 
L 395.916959 148.982727 
L 396.493404 146.172245 
L 397.069849 148.619604 
L 397.646293 148.595085 
L 398.222738 148.217672 
L 398.799183 145.359356 
L 399.375628 145.332306 
L 399.952073 145.85832 
L 400.528518 148.393509 
L 401.104963 141.395665 
L 401.681408 147.902007 
L 402.257853 149.168451 
L 402.834298 149.268941 
L 403.410742 148.348986 
L 403.987187 148.258229 
L 404.563632 148.958964 
L 405.140077 149.117446 
L 405.716522 148.759854 
L 406.292967 149.519797 
L 406.869412 149.453238 
L 408.022302 149.122276 
L 409.175192 149.438396 
L 409.751636 149.260707 
L 410.904526 149.267269 
L 411.480971 148.924174 
L 412.057416 148.272444 
L 412.633861 149.002945 
L 413.210306 138.132015 
L 413.786751 149.322373 
L 414.939641 149.357455 
L 415.516086 148.852794 
L 416.09253 149.331741 
L 416.668975 150.067013 
L 417.24542 149.895226 
L 417.821865 149.589022 
L 418.39831 149.886665 
L 418.974755 149.813672 
L 419.5512 148.784655 
L 420.127645 148.568169 
L 420.70409 149.332126 
L 421.280535 121.522317 
L 421.856979 118.405637 
L 422.433424 150.213568 
L 423.009869 146.199635 
L 423.586314 149.412521 
L 424.162759 144.795626 
L 424.739204 135.423242 
L 425.315649 140.068106 
L 425.892094 132.037075 
L 426.468539 150.727716 
L 427.044984 150.836963 
L 427.621429 149.05608 
L 428.197873 150.090407 
L 428.774318 150.203272 
L 429.350763 149.750184 
L 429.927208 150.4601 
L 431.080098 150.611331 
L 432.232988 150.09618 
L 432.809433 121.169553 
L 433.385878 83.485185 
L 433.962322 86.995705 
L 434.538767 87.694222 
L 435.115212 76.050461 
L 435.691657 76.108247 
L 435.691657 76.108247 
" clip-path="url(#p671a06e2d3)" style="fill: none; stroke: #e6a817; stroke-width: 1.2; stroke-linecap: square"/>
   </g>
   <g id="line2d_39">
    <path d="M 436.268102 77.505856 
L 436.844547 79.159566 
L 437.420992 80.332717 
L 437.997437 81.955226 
L 438.573882 86.091202 
L 439.150327 85.195268 
L 439.726772 85.474681 
L 440.303216 86.176611 
L 440.879661 86.686093 
L 441.456106 87.10206 
L 442.032551 87.47365 
L 442.608996 87.869752 
L 443.185441 87.685517 
L 443.761886 87.349785 
L 444.338331 87.020969 
L 444.914776 87.151059 
L 445.491221 87.376748 
L 446.067666 87.151911 
L 446.64411 87.395905 
L 447.220555 87.478872 
L 447.797 84.017985 
L 448.373445 85.05486 
L 448.94989 84.886611 
L 449.526335 86.877918 
L 450.10278 83.688689 
L 450.679225 85.315377 
L 451.25567 85.680556 
L 451.832115 83.400101 
L 452.408559 83.993094 
L 452.985004 56.63939 
L 453.561449 59.011182 
L 454.137894 60.598583 
L 454.714339 61.298658 
L 455.290784 61.36986 
L 455.867229 60.32595 
L 456.443674 58.071226 
L 457.020119 54.927477 
L 457.596564 54.256697 
L 458.173009 59.179166 
L 458.749453 60.826118 
L 459.325898 61.527734 
L 459.902343 58.76539 
L 460.478788 57.146149 
L 461.055233 53.929171 
L 461.631678 58.140943 
L 462.208123 57.490451 
L 462.784568 59.51885 
L 463.361013 60.653644 
L 463.937458 58.04514 
L 464.513903 56.671202 
L 465.090347 55.472323 
L 465.666792 56.463303 
L 466.243237 51.993339 
L 466.819682 55.134872 
L 467.396127 53.131718 
L 467.972572 52.028603 
L 468.549017 52.947717 
L 469.125462 52.48225 
L 469.701907 42.245347 
L 470.278352 47.947066 
L 470.854796 55.735425 
L 471.431241 60.33562 
L 472.007686 58.780656 
L 472.584131 57.884506 
L 473.160576 58.94562 
L 473.737021 59.170109 
L 474.313466 60.356454 
L 474.889911 61.379971 
L 475.466356 62.707185 
" clip-path="url(#p671a06e2d3)" style="fill: none; stroke: #999999; stroke-width: 1.2; stroke-linecap: square"/>
   </g>
   <g id="patch_3">
    <path d="M 49.358281 159.31186 
L 49.358281 25.158281 
" style="fill: none; stroke: #000000; stroke-width: 0.6; stroke-linejoin: miter; stroke-linecap: square"/>
   </g>
   <g id="patch_4">
    <path d="M 49.358281 159.31186 
L 495.757216 159.31186 
" style="fill: none; stroke: #000000; stroke-width: 0.6; stroke-linejoin: miter; stroke-linecap: square"/>
   </g>
   <g id="text_20">
    <!-- Ethereum  Cost Quantile Bands by Era -->
    <g transform="translate(158.737827 19.158281) scale(0.11 -0.11)">
     <defs>
      <path id="DejaVuSerif-45" d="M 353 0 
L 353 331 
L 947 331 
L 947 4331 
L 353 4331 
L 353 4666 
L 4109 4666 
L 4109 3628 
L 3725 3628 
L 3725 4281 
L 1581 4281 
L 1581 2719 
L 3109 2719 
L 3109 3303 
L 3494 3303 
L 3494 1753 
L 3109 1753 
L 3109 2338 
L 1581 2338 
L 1581 384 
L 3775 384 
L 3775 1038 
L 4159 1038 
L 4159 0 
L 353 0 
z
" transform="scale(0.015625)"/>
      <path id="DejaVuSerif-68" d="M 263 0 
L 263 331 
L 781 331 
L 781 4531 
L 231 4531 
L 231 4863 
L 1356 4863 
L 1356 2731 
Q 1516 3069 1770 3241 
Q 2025 3413 2363 3413 
Q 2913 3413 3172 3097 
Q 3431 2781 3431 2113 
L 3431 331 
L 3944 331 
L 3944 0 
L 2356 0 
L 2356 331 
L 2853 331 
L 2853 1931 
Q 2853 2541 2704 2764 
Q 2556 2988 2175 2988 
Q 1775 2988 1565 2697 
Q 1356 2406 1356 1850 
L 1356 331 
L 1856 331 
L 1856 0 
L 263 0 
z
" transform="scale(0.015625)"/>
      <path id="DejaVuSerif-6d" d="M 3316 2675 
Q 3481 3041 3739 3227 
Q 3997 3413 4341 3413 
Q 4863 3413 5119 3089 
Q 5375 2766 5375 2113 
L 5375 331 
L 5894 331 
L 5894 0 
L 4300 0 
L 4300 331 
L 4800 331 
L 4800 2047 
Q 4800 2556 4650 2772 
Q 4500 2988 4153 2988 
Q 3769 2988 3567 2697 
Q 3366 2406 3366 1850 
L 3366 331 
L 3866 331 
L 3866 0 
L 2291 0 
L 2291 331 
L 2791 331 
L 2791 2069 
Q 2791 2566 2641 2777 
Q 2491 2988 2144 2988 
Q 1759 2988 1557 2697 
Q 1356 2406 1356 1850 
L 1356 331 
L 1856 331 
L 1856 0 
L 263 0 
L 263 331 
L 781 331 
L 781 2994 
L 231 2994 
L 231 3322 
L 1356 3322 
L 1356 2731 
Q 1516 3063 1762 3238 
Q 2009 3413 2322 3413 
Q 2709 3413 2968 3220 
Q 3228 3028 3316 2675 
z
" transform="scale(0.015625)"/>
      <path id="DejaVuSerif-2014" d="M 281 1906 
L 6119 1906 
L 6119 1491 
L 281 1491 
L 281 1906 
z
" transform="scale(0.015625)"/>
      <path id="DejaVuSerif-43" d="M 4513 1234 
Q 4306 581 3820 245 
Q 3334 -91 2591 -91 
Q 2134 -91 1743 65 
Q 1353 222 1050 525 
Q 700 875 529 1320 
Q 359 1766 359 2328 
Q 359 3416 987 4083 
Q 1616 4750 2644 4750 
Q 3025 4750 3456 4650 
Q 3888 4550 4384 4347 
L 4384 3272 
L 4031 3272 
Q 3916 3859 3567 4137 
Q 3219 4416 2591 4416 
Q 1844 4416 1459 3886 
Q 1075 3356 1075 2328 
Q 1075 1303 1459 773 
Q 1844 244 2591 244 
Q 3113 244 3450 492 
Q 3788 741 3938 1234 
L 4513 1234 
z
" transform="scale(0.015625)"/>
      <path id="DejaVuSerif-6f" d="M 1925 219 
Q 2388 219 2623 584 
Q 2859 950 2859 1663 
Q 2859 2375 2623 2739 
Q 2388 3103 1925 3103 
Q 1463 3103 1227 2739 
Q 991 2375 991 1663 
Q 991 950 1228 584 
Q 1466 219 1925 219 
z
M 1925 -91 
Q 1200 -91 759 389 
Q 319 869 319 1663 
Q 319 2456 758 2934 
Q 1197 3413 1925 3413 
Q 2653 3413 3092 2934 
Q 3531 2456 3531 1663 
Q 3531 869 3092 389 
Q 2653 -91 1925 -91 
z
" transform="scale(0.015625)"/>
      <path id="DejaVuSerif-73" d="M 359 184 
L 359 959 
L 691 959 
Q 703 588 923 403 
Q 1144 219 1575 219 
Q 1963 219 2166 364 
Q 2369 509 2369 788 
Q 2369 1006 2220 1140 
Q 2072 1275 1594 1428 
L 1178 1569 
Q 750 1706 558 1912 
Q 366 2119 366 2438 
Q 366 2894 700 3153 
Q 1034 3413 1625 3413 
Q 1888 3413 2178 3344 
Q 2469 3275 2778 3144 
L 2778 2419 
L 2447 2419 
Q 2434 2741 2221 2922 
Q 2009 3103 1644 3103 
Q 1281 3103 1095 2975 
Q 909 2847 909 2591 
Q 909 2381 1050 2254 
Q 1191 2128 1613 1997 
L 2069 1856 
Q 2541 1709 2748 1489 
Q 2956 1269 2956 922 
Q 2956 450 2595 179 
Q 2234 -91 1600 -91 
Q 1278 -91 972 -22 
Q 666 47 359 184 
z
" transform="scale(0.015625)"/>
      <path id="DejaVuSerif-51" d="M 2700 -91 
Q 1628 -91 993 567 
Q 359 1225 359 2328 
Q 359 2894 529 3339 
Q 700 3784 1050 4134 
Q 1356 4441 1750 4595 
Q 2144 4750 2625 4750 
Q 3641 4750 4266 4084 
Q 4891 3419 4891 2328 
Q 4891 1403 4422 773 
Q 3953 144 3128 -38 
Q 3297 -247 3539 -347 
Q 3781 -447 4122 -447 
L 4219 -447 
L 4219 -1025 
Q 3691 -1000 3314 -767 
Q 2938 -534 2700 -91 
z
M 2625 244 
Q 3391 244 3781 770 
Q 4172 1297 4172 2328 
Q 4172 3363 3781 3889 
Q 3391 4416 2625 4416 
Q 1856 4416 1465 3889 
Q 1075 3363 1075 2328 
Q 1075 1297 1465 770 
Q 1856 244 2625 244 
z
" transform="scale(0.015625)"/>
      <path id="DejaVuSerif-6c" d="M 1313 331 
L 1856 331 
L 1856 0 
L 184 0 
L 184 331 
L 738 331 
L 738 4531 
L 184 4531 
L 184 4863 
L 1313 4863 
L 1313 331 
z
" transform="scale(0.015625)"/>
     </defs>
     <use xlink:href="#DejaVuSerif-45"/>
     <use xlink:href="#DejaVuSerif-74" transform="translate(72.998047 0)"/>
     <use xlink:href="#DejaVuSerif-68" transform="translate(113.183594 0)"/>
     <use xlink:href="#DejaVuSerif-65" transform="translate(177.587891 0)"/>
     <use xlink:href="#DejaVuSerif-72" transform="translate(236.767578 0)"/>
     <use xlink:href="#DejaVuSerif-65" transform="translate(284.570312 0)"/>
     <use xlink:href="#DejaVuSerif-75" transform="translate(343.75 0)"/>
     <use xlink:href="#DejaVuSerif-6d" transform="translate(408.154297 0)"/>
     <use xlink:href="#DejaVuSerif-20" transform="translate(502.978516 0)"/>
     <use xlink:href="#DejaVuSerif-2014" transform="translate(534.765625 0)"/>
     <use xlink:href="#DejaVuSerif-20" transform="translate(634.765625 0)"/>
     <use xlink:href="#DejaVuSerif-43" transform="translate(666.552734 0)"/>
     <use xlink:href="#DejaVuSerif-6f" transform="translate(743.066406 0)"/>
     <use xlink:href="#DejaVuSerif-73" transform="translate(803.271484 0)"/>
     <use xlink:href="#DejaVuSerif-74" transform="translate(854.589844 0)"/>
     <use xlink:href="#DejaVuSerif-20" transform="translate(894.775391 0)"/>
     <use xlink:href="#DejaVuSerif-51" transform="translate(926.5625 0)"/>
     <use xlink:href="#DejaVuSerif-75" transform="translate(1008.544922 0)"/>
     <use xlink:href="#DejaVuSerif-61" transform="translate(1072.949219 0)"/>
     <use xlink:href="#DejaVuSerif-6e" transform="translate(1132.568359 0)"/>
     <use xlink:href="#DejaVuSerif-74" transform="translate(1196.972656 0)"/>
     <use xlink:href="#DejaVuSerif-69" transform="translate(1237.158203 0)"/>
     <use xlink:href="#DejaVuSerif-6c" transform="translate(1269.140625 0)"/>
     <use xlink:href="#DejaVuSerif-65" transform="translate(1301.123047 0)"/>
     <use xlink:href="#DejaVuSerif-20" transform="translate(1360.302734 0)"/>
     <use xlink:href="#DejaVuSerif-42" transform="translate(1392.089844 0)"/>
     <use xlink:href="#DejaVuSerif-61" transform="translate(1465.576172 0)"/>
     <use xlink:href="#DejaVuSerif-6e" transform="translate(1525.195312 0)"/>
     <use xlink:href="#DejaVuSerif-64" transform="translate(1589.599609 0)"/>
     <use xlink:href="#DejaVuSerif-73" transform="translate(1653.613281 0)"/>
     <use xlink:href="#DejaVuSerif-20" transform="translate(1704.931641 0)"/>
     <use xlink:href="#DejaVuSerif-62" transform="translate(1736.71875 0)"/>
     <use xlink:href="#DejaVuSerif-79" transform="translate(1800.732422 0)"/>
     <use xlink:href="#DejaVuSerif-20" transform="translate(1857.226562 0)"/>
     <use xlink:href="#DejaVuSerif-45" transform="translate(1889.013672 0)"/>
     <use xlink:href="#DejaVuSerif-72" transform="translate(1962.011719 0)"/>
     <use xlink:href="#DejaVuSerif-61" transform="translate(2009.814453 0)"/>
    </g>
   </g>
   <g id="legend_1">
    <g id="patch_5">
     <path d="M 433.470966 66.785781 
L 490.157216 66.785781 
Q 491.757216 66.785781 491.757216 65.185781 
L 491.757216 30.758281 
Q 491.757216 29.158281 490.157216 29.158281 
L 433.470966 29.158281 
Q 431.870966 29.158281 431.870966 30.758281 
L 431.870966 65.185781 
Q 431.870966 66.785781 433.470966 66.785781 
z
" style="fill: #ffffff; opacity: 0.9; stroke: #cccccc; stroke-linejoin: miter"/>
    </g>
    <g id="line2d_40">
     <path d="M 435.070966 35.637031 
L 443.070966 35.637031 
L 451.070966 35.637031 
" style="fill: none; stroke: #3366cc; stroke-width: 1.2; stroke-linecap: square"/>
    </g>
    <g id="text_21">
     <!-- Dencun -->
     <g transform="translate(457.470966 38.437031) scale(0.08 -0.08)">
      <use xlink:href="#DejaVuSerif-44"/>
      <use xlink:href="#DejaVuSerif-65" transform="translate(80.175781 0)"/>
      <use xlink:href="#DejaVuSerif-6e" transform="translate(139.355469 0)"/>
      <use xlink:href="#DejaVuSerif-63" transform="translate(203.759766 0)"/>
      <use xlink:href="#DejaVuSerif-75" transform="translate(259.765625 0)"/>
      <use xlink:href="#DejaVuSerif-6e" transform="translate(324.169922 0)"/>
     </g>
    </g>
    <g id="line2d_41">
     <path d="M 435.070966 47.379531 
L 443.070966 47.379531 
L 451.070966 47.379531 
" style="fill: none; stroke: #e6a817; stroke-width: 1.2; stroke-linecap: square"/>
    </g>
    <g id="text_22">
     <!-- Pectra -->
     <g transform="translate(457.470966 50.179531) scale(0.08 -0.08)">
      <defs>
       <path id="DejaVuSerif-50" d="M 1581 2375 
L 2406 2375 
Q 2872 2375 3115 2626 
Q 3359 2878 3359 3353 
Q 3359 3831 3115 4081 
Q 2872 4331 2406 4331 
L 1581 4331 
L 1581 2375 
z
M 353 0 
L 353 331 
L 947 331 
L 947 4331 
L 353 4331 
L 353 4666 
L 2559 4666 
Q 3259 4666 3668 4311 
Q 4078 3956 4078 3353 
Q 4078 2753 3668 2397 
Q 3259 2041 2559 2041 
L 1581 2041 
L 1581 331 
L 2303 331 
L 2303 0 
L 353 0 
z
" transform="scale(0.015625)"/>
      </defs>
      <use xlink:href="#DejaVuSerif-50"/>
      <use xlink:href="#DejaVuSerif-65" transform="translate(62.785156 0)"/>
      <use xlink:href="#DejaVuSerif-63" transform="translate(121.964844 0)"/>
      <use xlink:href="#DejaVuSerif-74" transform="translate(177.970703 0)"/>
      <use xlink:href="#DejaVuSerif-72" transform="translate(218.15625 0)"/>
      <use xlink:href="#DejaVuSerif-61" transform="translate(265.958984 0)"/>
     </g>
    </g>
    <g id="line2d_42">
     <path d="M 435.070966 59.122031 
L 443.070966 59.122031 
L 451.070966 59.122031 
" style="fill: none; stroke: #999999; stroke-width: 1.2; stroke-linecap: square"/>
    </g>
    <g id="text_23">
     <!-- BPO1 -->
     <g transform="translate(457.470966 61.922031) scale(0.08 -0.08)">
      <use xlink:href="#DejaVuSerif-42"/>
      <use xlink:href="#DejaVuSerif-50" transform="translate(73.486328 0)"/>
      <use xlink:href="#DejaVuSerif-4f" transform="translate(140.771484 0)"/>
      <use xlink:href="#DejaVuSerif-31" transform="translate(222.753906 0)"/>
     </g>
    </g>
   </g>
  </g>
 </g>
 <defs>
  <clipPath id="p671a06e2d3">
   <rect x="49.358281" y="25.158281" width="446.398935" height="134.153579"/>
  </clipPath>
 </defs>
</svg>
