<?xml version="1.0" encoding="utf-8" standalone="no"?>
<!DOCTYPE svg PUBLIC "-//W3C//DTD SVG 1.1//EN"
  "http://www.w3.org/Graphics/SVG/1.1/DTD/svg11.dtd">
<svg xmlns:xlink="http://www.w3.org/1999/xlink" width="506.515313pt" height="203.293937pt" viewBox="0 0 506.515313 203.293937" xmlns="http://www.w3.org/2000/svg" version="1.1">
 <metadata>
  <rdf:RDF xmlns:dc="http://purl.org/dc/elements/1.1/" xmlns:cc="http://creativecommons.org/ns#" xmlns:rdf="http://www.w3.org/1999/02/22-rdf-syntax-ns#">
   <cc:Work>
    <dc:type rdf:resource="http://purl.org/dc/dcmitype/StillImage"/>
    <dc:date>2026-02-16T16:57:28.607614</dc:date>
    <dc:format>image/svg+xml</dc:format>
    <dc:creator>
     <cc:Agent>
      <dc:title>Matplotlib v3.10.8, https://matplotlib.org/</dc:title>
     </cc:Agent>
    </dc:creator>
   </cc:Work>
  </rdf:RDF>
 </metadata>
 <defs>
  <style type="text/css">*{stroke-linejoin: round; stroke-linecap: butt}</style>
 </defs>
 <g id="figure_1">
  <g id="patch_1">
   <path d="M 0 203.293937 
L 506.515313 203.293937 
L 506.515313 0 
L 0 0 
z
" style="fill: #ffffff"/>
  </g>
  <g id="axes_1">
   <g id="patch_2">
    <path d="M 45.780313 159.31186 
L 495.715313 159.31186 
L 495.715313 25.158281 
L 45.780313 25.158281 
z
" style="fill: #ffffff"/>
   </g>
   <g id="matplotlib.axis_1">
    <g id="xtick_1">
     <g id="line2d_1">
      <path d="M 77.271114 159.31186 
L 77.271114 25.158281 
" clip-path="url(#p6750f6bda3)" style="fill: none; stroke: #b0b0b0; stroke-opacity: 0.25; stroke-width: 0.5; stroke-linecap: square"/>
     </g>
     <g id="line2d_2">
      <defs>
       <path id="m8f82ac4c67" d="M 0 0 
L 0 3.5 
" style="stroke: #000000; stroke-width: 0.8"/>
      </defs>
      <g>
       <use xlink:href="#m8f82ac4c67" x="77.271114" y="159.31186" style="stroke: #000000; stroke-width: 0.8"/>
      </g>
     </g>
     <g id="text_1">
      <!-- Apr 2024 -->
      <g transform="translate(43.855034 190.388712) rotate(-30) scale(0.08 -0.08)">
       <defs>
        <path id="DejaVuSerif-41" d="M 1281 1691 
L 2994 1691 
L 2138 3909 
L 1281 1691 
z
M -38 0 
L -38 331 
L 372 331 
L 2034 4666 
L 2559 4666 
L 4225 331 
L 4684 331 
L 4684 0 
L 2988 0 
L 2988 331 
L 3506 331 
L 3116 1356 
L 1153 1356 
L 763 331 
L 1275 331 
L 1275 0 
L -38 0 
z
" transform="scale(0.015625)"/>
        <path id="DejaVuSerif-70" d="M 1313 1825 
L 1313 1497 
Q 1313 897 1542 583 
Q 1772 269 2209 269 
Q 2650 269 2876 622 
Q 3103 975 3103 1663 
Q 3103 2353 2876 2703 
Q 2650 3053 2209 3053 
Q 1772 3053 1542 2737 
Q 1313 2422 1313 1825 
z
M 738 2988 
L 184 2988 
L 184 3322 
L 1313 3322 
L 1313 2803 
Q 1481 3116 1742 3264 
Q 2003 3413 2388 3413 
Q 3000 3413 3387 2928 
Q 3775 2444 3775 1663 
Q 3775 881 3387 395 
Q 3000 -91 2388 -91 
Q 2003 -91 1742 57 
Q 1481 206 1313 519 
L 1313 -997 
L 1856 -997 
L 1856 -1331 
L 184 -1331 
L 184 -997 
L 738 -997 
L 738 2988 
z
" transform="scale(0.015625)"/>
        <path id="DejaVuSerif-72" d="M 3059 3328 
L 3059 2497 
L 2728 2497 
Q 2713 2744 2591 2866 
Q 2469 2988 2234 2988 
Q 1809 2988 1582 2694 
Q 1356 2400 1356 1850 
L 1356 331 
L 2022 331 
L 2022 0 
L 263 0 
L 263 331 
L 781 331 
L 781 2994 
L 231 2994 
L 231 3322 
L 1356 3322 
L 1356 2731 
Q 1525 3078 1790 3245 
Q 2056 3413 2438 3413 
Q 2578 3413 2733 3391 
Q 2888 3369 3059 3328 
z
" transform="scale(0.015625)"/>
        <path id="DejaVuSerif-20" transform="scale(0.015625)"/>
        <path id="DejaVuSerif-32" d="M 819 3553 
L 469 3553 
L 469 4384 
Q 803 4563 1142 4656 
Q 1481 4750 1806 4750 
Q 2534 4750 2956 4397 
Q 3378 4044 3378 3438 
Q 3378 2753 2422 1800 
Q 2347 1728 2309 1691 
L 1131 513 
L 3078 513 
L 3078 1088 
L 3444 1088 
L 3444 0 
L 434 0 
L 434 341 
L 1850 1753 
Q 2319 2222 2519 2614 
Q 2719 3006 2719 3438 
Q 2719 3909 2473 4175 
Q 2228 4441 1797 4441 
Q 1350 4441 1106 4219 
Q 863 3997 819 3553 
z
" transform="scale(0.015625)"/>
        <path id="DejaVuSerif-30" d="M 2034 219 
Q 2513 219 2750 744 
Q 2988 1269 2988 2328 
Q 2988 3391 2750 3916 
Q 2513 4441 2034 4441 
Q 1556 4441 1318 3916 
Q 1081 3391 1081 2328 
Q 1081 1269 1318 744 
Q 1556 219 2034 219 
z
M 2034 -91 
Q 1275 -91 848 546 
Q 422 1184 422 2328 
Q 422 3475 848 4112 
Q 1275 4750 2034 4750 
Q 2797 4750 3222 4112 
Q 3647 3475 3647 2328 
Q 3647 1184 3222 546 
Q 2797 -91 2034 -91 
z
" transform="scale(0.015625)"/>
        <path id="DejaVuSerif-34" d="M 2234 1581 
L 2234 4063 
L 641 1581 
L 2234 1581 
z
M 3609 0 
L 1484 0 
L 1484 331 
L 2234 331 
L 2234 1247 
L 197 1247 
L 197 1588 
L 2241 4750 
L 2859 4750 
L 2859 1581 
L 3750 1581 
L 3750 1247 
L 2859 1247 
L 2859 331 
L 3609 331 
L 3609 0 
z
" transform="scale(0.015625)"/>
       </defs>
       <use xlink:href="#DejaVuSerif-41"/>
       <use xlink:href="#DejaVuSerif-70" transform="translate(72.216797 0)"/>
       <use xlink:href="#DejaVuSerif-72" transform="translate(136.230469 0)"/>
       <use xlink:href="#DejaVuSerif-20" transform="translate(184.033203 0)"/>
       <use xlink:href="#DejaVuSerif-32" transform="translate(215.820312 0)"/>
       <use xlink:href="#DejaVuSerif-30" transform="translate(279.443359 0)"/>
       <use xlink:href="#DejaVuSerif-32" transform="translate(343.066406 0)"/>
       <use xlink:href="#DejaVuSerif-34" transform="translate(406.689453 0)"/>
      </g>
     </g>
    </g>
    <g id="xtick_2">
     <g id="line2d_3">
      <path d="M 112.712792 159.31186 
L 112.712792 25.158281 
" clip-path="url(#p6750f6bda3)" style="fill: none; stroke: #b0b0b0; stroke-opacity: 0.25; stroke-width: 0.5; stroke-linecap: square"/>
     </g>
     <g id="line2d_4">
      <g>
       <use xlink:href="#m8f82ac4c67" x="112.712792" y="159.31186" style="stroke: #000000; stroke-width: 0.8"/>
      </g>
     </g>
     <g id="text_2">
      <!-- Jun 2024 -->
      <g transform="translate(80.344602 189.783712) rotate(-30) scale(0.08 -0.08)">
       <defs>
        <path id="DejaVuSerif-4a" d="M -538 -1119 
L -538 -384 
L -181 -384 
Q -172 -694 -34 -845 
Q 103 -997 378 -997 
Q 750 -997 897 -762 
Q 1044 -528 1044 153 
L 1044 4331 
L 319 4331 
L 319 4666 
L 2272 4666 
L 2272 4331 
L 1678 4331 
L 1678 128 
Q 1678 -644 1368 -987 
Q 1059 -1331 372 -1331 
Q 150 -1331 -79 -1278 
Q -309 -1225 -538 -1119 
z
" transform="scale(0.015625)"/>
        <path id="DejaVuSerif-75" d="M 2266 3322 
L 3341 3322 
L 3341 331 
L 3884 331 
L 3884 0 
L 2766 0 
L 2766 588 
Q 2606 256 2353 82 
Q 2100 -91 1766 -91 
Q 1213 -91 952 223 
Q 691 538 691 1209 
L 691 2988 
L 172 2988 
L 172 3322 
L 1269 3322 
L 1269 1388 
Q 1269 781 1417 556 
Q 1566 331 1947 331 
Q 2347 331 2556 625 
Q 2766 919 2766 1478 
L 2766 2988 
L 2266 2988 
L 2266 3322 
z
" transform="scale(0.015625)"/>
        <path id="DejaVuSerif-6e" d="M 263 0 
L 263 331 
L 781 331 
L 781 2988 
L 231 2988 
L 231 3322 
L 1356 3322 
L 1356 2731 
Q 1516 3069 1770 3241 
Q 2025 3413 2363 3413 
Q 2913 3413 3172 3097 
Q 3431 2781 3431 2113 
L 3431 331 
L 3944 331 
L 3944 0 
L 2356 0 
L 2356 331 
L 2853 331 
L 2853 1931 
Q 2853 2541 2703 2767 
Q 2553 2994 2175 2994 
Q 1775 2994 1565 2701 
Q 1356 2409 1356 1850 
L 1356 331 
L 1856 331 
L 1856 0 
L 263 0 
z
" transform="scale(0.015625)"/>
       </defs>
       <use xlink:href="#DejaVuSerif-4a"/>
       <use xlink:href="#DejaVuSerif-75" transform="translate(40.087891 0)"/>
       <use xlink:href="#DejaVuSerif-6e" transform="translate(104.492188 0)"/>
       <use xlink:href="#DejaVuSerif-20" transform="translate(168.896484 0)"/>
       <use xlink:href="#DejaVuSerif-32" transform="translate(200.683594 0)"/>
       <use xlink:href="#DejaVuSerif-30" transform="translate(264.306641 0)"/>
       <use xlink:href="#DejaVuSerif-32" transform="translate(327.929688 0)"/>
       <use xlink:href="#DejaVuSerif-34" transform="translate(391.552734 0)"/>
      </g>
     </g>
    </g>
    <g id="xtick_3">
     <g id="line2d_5">
      <path d="M 148.154469 159.31186 
L 148.154469 25.158281 
" clip-path="url(#p6750f6bda3)" style="fill: none; stroke: #b0b0b0; stroke-opacity: 0.25; stroke-width: 0.5; stroke-linecap: square"/>
     </g>
     <g id="line2d_6">
      <g>
       <use xlink:href="#m8f82ac4c67" x="148.154469" y="159.31186" style="stroke: #000000; stroke-width: 0.8"/>
      </g>
     </g>
     <g id="text_3">
      <!-- Aug 2024 -->
      <g transform="translate(113.530782 190.954577) rotate(-30) scale(0.08 -0.08)">
       <defs>
        <path id="DejaVuSerif-67" d="M 3359 2988 
L 3359 72 
Q 3359 -644 2965 -1033 
Q 2572 -1422 1844 -1422 
Q 1516 -1422 1216 -1362 
Q 916 -1303 641 -1184 
L 641 -488 
L 941 -488 
Q 997 -813 1206 -963 
Q 1416 -1113 1806 -1113 
Q 2313 -1113 2548 -827 
Q 2784 -541 2784 72 
L 2784 519 
Q 2616 206 2355 57 
Q 2094 -91 1709 -91 
Q 1097 -91 708 395 
Q 319 881 319 1663 
Q 319 2444 706 2928 
Q 1094 3413 1709 3413 
Q 2094 3413 2355 3264 
Q 2616 3116 2784 2803 
L 2784 3322 
L 3909 3322 
L 3909 2988 
L 3359 2988 
z
M 2784 1825 
Q 2784 2422 2554 2737 
Q 2325 3053 1888 3053 
Q 1444 3053 1217 2703 
Q 991 2353 991 1663 
Q 991 975 1217 622 
Q 1444 269 1888 269 
Q 2325 269 2554 583 
Q 2784 897 2784 1497 
L 2784 1825 
z
" transform="scale(0.015625)"/>
       </defs>
       <use xlink:href="#DejaVuSerif-41"/>
       <use xlink:href="#DejaVuSerif-75" transform="translate(72.216797 0)"/>
       <use xlink:href="#DejaVuSerif-67" transform="translate(136.621094 0)"/>
       <use xlink:href="#DejaVuSerif-20" transform="translate(200.634766 0)"/>
       <use xlink:href="#DejaVuSerif-32" transform="translate(232.421875 0)"/>
       <use xlink:href="#DejaVuSerif-30" transform="translate(296.044922 0)"/>
       <use xlink:href="#DejaVuSerif-32" transform="translate(359.667969 0)"/>
       <use xlink:href="#DejaVuSerif-34" transform="translate(423.291016 0)"/>
      </g>
     </g>
    </g>
    <g id="xtick_4">
     <g id="line2d_7">
      <path d="M 183.596147 159.31186 
L 183.596147 25.158281 
" clip-path="url(#p6750f6bda3)" style="fill: none; stroke: #b0b0b0; stroke-opacity: 0.25; stroke-width: 0.5; stroke-linecap: square"/>
     </g>
     <g id="line2d_8">
      <g>
       <use xlink:href="#m8f82ac4c67" x="183.596147" y="159.31186" style="stroke: #000000; stroke-width: 0.8"/>
      </g>
     </g>
     <g id="text_4">
      <!-- Oct 2024 -->
      <g transform="translate(150.586015 190.154337) rotate(-30) scale(0.08 -0.08)">
       <defs>
        <path id="DejaVuSerif-4f" d="M 2625 244 
Q 3391 244 3781 770 
Q 4172 1297 4172 2328 
Q 4172 3363 3781 3889 
Q 3391 4416 2625 4416 
Q 1856 4416 1465 3889 
Q 1075 3363 1075 2328 
Q 1075 1297 1465 770 
Q 1856 244 2625 244 
z
M 2625 -91 
Q 2150 -91 1751 65 
Q 1353 222 1050 525 
Q 700 875 529 1319 
Q 359 1763 359 2328 
Q 359 2894 529 3339 
Q 700 3784 1050 4134 
Q 1356 4441 1750 4595 
Q 2144 4750 2625 4750 
Q 3641 4750 4266 4084 
Q 4891 3419 4891 2328 
Q 4891 1769 4719 1320 
Q 4547 872 4197 525 
Q 3891 219 3497 64 
Q 3103 -91 2625 -91 
z
" transform="scale(0.015625)"/>
        <path id="DejaVuSerif-63" d="M 3291 997 
Q 3169 466 2822 187 
Q 2475 -91 1925 -91 
Q 1200 -91 759 389 
Q 319 869 319 1663 
Q 319 2459 759 2936 
Q 1200 3413 1925 3413 
Q 2241 3413 2553 3339 
Q 2866 3266 3181 3116 
L 3181 2266 
L 2847 2266 
Q 2781 2703 2561 2903 
Q 2341 3103 1931 3103 
Q 1466 3103 1228 2742 
Q 991 2381 991 1663 
Q 991 944 1227 581 
Q 1463 219 1931 219 
Q 2303 219 2525 412 
Q 2747 606 2828 997 
L 3291 997 
z
" transform="scale(0.015625)"/>
        <path id="DejaVuSerif-74" d="M 691 2988 
L 184 2988 
L 184 3322 
L 691 3322 
L 691 4353 
L 1269 4353 
L 1269 3322 
L 2350 3322 
L 2350 2988 
L 1269 2988 
L 1269 878 
Q 1269 456 1350 337 
Q 1431 219 1650 219 
Q 1875 219 1978 351 
Q 2081 484 2088 781 
L 2522 781 
Q 2497 328 2275 118 
Q 2053 -91 1600 -91 
Q 1103 -91 897 129 
Q 691 350 691 878 
L 691 2988 
z
" transform="scale(0.015625)"/>
       </defs>
       <use xlink:href="#DejaVuSerif-4f"/>
       <use xlink:href="#DejaVuSerif-63" transform="translate(81.982422 0)"/>
       <use xlink:href="#DejaVuSerif-74" transform="translate(137.988281 0)"/>
       <use xlink:href="#DejaVuSerif-20" transform="translate(178.173828 0)"/>
       <use xlink:href="#DejaVuSerif-32" transform="translate(209.960938 0)"/>
       <use xlink:href="#DejaVuSerif-30" transform="translate(273.583984 0)"/>
       <use xlink:href="#DejaVuSerif-32" transform="translate(337.207031 0)"/>
       <use xlink:href="#DejaVuSerif-34" transform="translate(400.830078 0)"/>
      </g>
     </g>
    </g>
    <g id="xtick_5">
     <g id="line2d_9">
      <path d="M 219.037824 159.31186 
L 219.037824 25.158281 
" clip-path="url(#p6750f6bda3)" style="fill: none; stroke: #b0b0b0; stroke-opacity: 0.25; stroke-width: 0.5; stroke-linecap: square"/>
     </g>
     <g id="line2d_10">
      <g>
       <use xlink:href="#m8f82ac4c67" x="219.037824" y="159.31186" style="stroke: #000000; stroke-width: 0.8"/>
      </g>
     </g>
     <g id="text_5">
      <!-- Dec 2024 -->
      <g transform="translate(184.836908 190.841837) rotate(-30) scale(0.08 -0.08)">
       <defs>
        <path id="DejaVuSerif-44" d="M 1581 331 
L 2163 331 
Q 3072 331 3558 850 
Q 4044 1369 4044 2338 
Q 4044 3306 3559 3818 
Q 3075 4331 2163 4331 
L 1581 4331 
L 1581 331 
z
M 353 0 
L 353 331 
L 947 331 
L 947 4331 
L 353 4331 
L 353 4666 
L 2209 4666 
Q 3416 4666 4089 4050 
Q 4763 3434 4763 2338 
Q 4763 1238 4088 619 
Q 3413 0 2209 0 
L 353 0 
z
" transform="scale(0.015625)"/>
        <path id="DejaVuSerif-65" d="M 3469 1600 
L 991 1600 
L 991 1575 
Q 991 903 1244 561 
Q 1497 219 1991 219 
Q 2369 219 2611 417 
Q 2853 616 2950 1006 
L 3413 1006 
Q 3275 459 2904 184 
Q 2534 -91 1931 -91 
Q 1203 -91 761 389 
Q 319 869 319 1663 
Q 319 2450 753 2931 
Q 1188 3413 1894 3413 
Q 2647 3413 3050 2948 
Q 3453 2484 3469 1600 
z
M 2791 1931 
Q 2772 2513 2545 2808 
Q 2319 3103 1894 3103 
Q 1497 3103 1269 2806 
Q 1041 2509 991 1931 
L 2791 1931 
z
" transform="scale(0.015625)"/>
       </defs>
       <use xlink:href="#DejaVuSerif-44"/>
       <use xlink:href="#DejaVuSerif-65" transform="translate(80.175781 0)"/>
       <use xlink:href="#DejaVuSerif-63" transform="translate(139.355469 0)"/>
       <use xlink:href="#DejaVuSerif-20" transform="translate(195.361328 0)"/>
       <use xlink:href="#DejaVuSerif-32" transform="translate(227.148438 0)"/>
       <use xlink:href="#DejaVuSerif-30" transform="translate(290.771484 0)"/>
       <use xlink:href="#DejaVuSerif-32" transform="translate(354.394531 0)"/>
       <use xlink:href="#DejaVuSerif-34" transform="translate(418.017578 0)"/>
      </g>
     </g>
    </g>
    <g id="xtick_6">
     <g id="line2d_11">
      <path d="M 255.060513 159.31186 
L 255.060513 25.158281 
" clip-path="url(#p6750f6bda3)" style="fill: none; stroke: #b0b0b0; stroke-opacity: 0.25; stroke-width: 0.5; stroke-linecap: square"/>
     </g>
     <g id="line2d_12">
      <g>
       <use xlink:href="#m8f82ac4c67" x="255.060513" y="159.31186" style="stroke: #000000; stroke-width: 0.8"/>
      </g>
     </g>
     <g id="text_6">
      <!-- Feb 2025 -->
      <g transform="translate(221.432256 190.511212) rotate(-30) scale(0.08 -0.08)">
       <defs>
        <path id="DejaVuSerif-46" d="M 353 0 
L 353 331 
L 947 331 
L 947 4331 
L 353 4331 
L 353 4666 
L 4172 4666 
L 4172 3628 
L 3788 3628 
L 3788 4281 
L 1581 4281 
L 1581 2719 
L 3175 2719 
L 3175 3303 
L 3559 3303 
L 3559 1753 
L 3175 1753 
L 3175 2338 
L 1581 2338 
L 1581 331 
L 2328 331 
L 2328 0 
L 353 0 
z
" transform="scale(0.015625)"/>
        <path id="DejaVuSerif-62" d="M 738 331 
L 738 4531 
L 184 4531 
L 184 4863 
L 1313 4863 
L 1313 2803 
Q 1481 3116 1742 3264 
Q 2003 3413 2388 3413 
Q 3000 3413 3387 2928 
Q 3775 2444 3775 1663 
Q 3775 881 3387 395 
Q 3000 -91 2388 -91 
Q 2003 -91 1742 57 
Q 1481 206 1313 519 
L 1313 0 
L 184 0 
L 184 331 
L 738 331 
z
M 1313 1497 
Q 1313 897 1542 583 
Q 1772 269 2209 269 
Q 2650 269 2876 622 
Q 3103 975 3103 1663 
Q 3103 2353 2876 2703 
Q 2650 3053 2209 3053 
Q 1772 3053 1542 2737 
Q 1313 2422 1313 1825 
L 1313 1497 
z
" transform="scale(0.015625)"/>
        <path id="DejaVuSerif-35" d="M 3219 4666 
L 3219 4153 
L 1081 4153 
L 1081 2816 
Q 1244 2928 1461 2984 
Q 1678 3041 1947 3041 
Q 2703 3041 3140 2622 
Q 3578 2203 3578 1478 
Q 3578 738 3136 323 
Q 2694 -91 1894 -91 
Q 1572 -91 1234 -12 
Q 897 66 544 225 
L 544 1131 
L 897 1131 
Q 925 688 1179 453 
Q 1434 219 1894 219 
Q 2388 219 2653 544 
Q 2919 869 2919 1478 
Q 2919 2084 2655 2407 
Q 2391 2731 1894 2731 
Q 1613 2731 1398 2631 
Q 1184 2531 1019 2322 
L 750 2322 
L 750 4666 
L 3219 4666 
z
" transform="scale(0.015625)"/>
       </defs>
       <use xlink:href="#DejaVuSerif-46"/>
       <use xlink:href="#DejaVuSerif-65" transform="translate(63.884766 0)"/>
       <use xlink:href="#DejaVuSerif-62" transform="translate(123.064453 0)"/>
       <use xlink:href="#DejaVuSerif-20" transform="translate(187.078125 0)"/>
       <use xlink:href="#DejaVuSerif-32" transform="translate(218.865234 0)"/>
       <use xlink:href="#DejaVuSerif-30" transform="translate(282.488281 0)"/>
       <use xlink:href="#DejaVuSerif-32" transform="translate(346.111328 0)"/>
       <use xlink:href="#DejaVuSerif-35" transform="translate(409.734375 0)"/>
      </g>
     </g>
    </g>
    <g id="xtick_7">
     <g id="line2d_13">
      <path d="M 289.340168 159.31186 
L 289.340168 25.158281 
" clip-path="url(#p6750f6bda3)" style="fill: none; stroke: #b0b0b0; stroke-opacity: 0.25; stroke-width: 0.5; stroke-linecap: square"/>
     </g>
     <g id="line2d_14">
      <g>
       <use xlink:href="#m8f82ac4c67" x="289.340168" y="159.31186" style="stroke: #000000; stroke-width: 0.8"/>
      </g>
     </g>
     <g id="text_7">
      <!-- Apr 2025 -->
      <g transform="translate(255.924087 190.388712) rotate(-30) scale(0.08 -0.08)">
       <use xlink:href="#DejaVuSerif-41"/>
       <use xlink:href="#DejaVuSerif-70" transform="translate(72.216797 0)"/>
       <use xlink:href="#DejaVuSerif-72" transform="translate(136.230469 0)"/>
       <use xlink:href="#DejaVuSerif-20" transform="translate(184.033203 0)"/>
       <use xlink:href="#DejaVuSerif-32" transform="translate(215.820312 0)"/>
       <use xlink:href="#DejaVuSerif-30" transform="translate(279.443359 0)"/>
       <use xlink:href="#DejaVuSerif-32" transform="translate(343.066406 0)"/>
       <use xlink:href="#DejaVuSerif-35" transform="translate(406.689453 0)"/>
      </g>
     </g>
    </g>
    <g id="xtick_8">
     <g id="line2d_15">
      <path d="M 324.781845 159.31186 
L 324.781845 25.158281 
" clip-path="url(#p6750f6bda3)" style="fill: none; stroke: #b0b0b0; stroke-opacity: 0.25; stroke-width: 0.5; stroke-linecap: square"/>
     </g>
     <g id="line2d_16">
      <g>
       <use xlink:href="#m8f82ac4c67" x="324.781845" y="159.31186" style="stroke: #000000; stroke-width: 0.8"/>
      </g>
     </g>
     <g id="text_8">
      <!-- Jun 2025 -->
      <g transform="translate(292.413655 189.783712) rotate(-30) scale(0.08 -0.08)">
       <use xlink:href="#DejaVuSerif-4a"/>
       <use xlink:href="#DejaVuSerif-75" transform="translate(40.087891 0)"/>
       <use xlink:href="#DejaVuSerif-6e" transform="translate(104.492188 0)"/>
       <use xlink:href="#DejaVuSerif-20" transform="translate(168.896484 0)"/>
       <use xlink:href="#DejaVuSerif-32" transform="translate(200.683594 0)"/>
       <use xlink:href="#DejaVuSerif-30" transform="translate(264.306641 0)"/>
       <use xlink:href="#DejaVuSerif-32" transform="translate(327.929688 0)"/>
       <use xlink:href="#DejaVuSerif-35" transform="translate(391.552734 0)"/>
      </g>
     </g>
    </g>
    <g id="xtick_9">
     <g id="line2d_17">
      <path d="M 360.223523 159.31186 
L 360.223523 25.158281 
" clip-path="url(#p6750f6bda3)" style="fill: none; stroke: #b0b0b0; stroke-opacity: 0.25; stroke-width: 0.5; stroke-linecap: square"/>
     </g>
     <g id="line2d_18">
      <g>
       <use xlink:href="#m8f82ac4c67" x="360.223523" y="159.31186" style="stroke: #000000; stroke-width: 0.8"/>
      </g>
     </g>
     <g id="text_9">
      <!-- Aug 2025 -->
      <g transform="translate(325.599836 190.954577) rotate(-30) scale(0.08 -0.08)">
       <use xlink:href="#DejaVuSerif-41"/>
       <use xlink:href="#DejaVuSerif-75" transform="translate(72.216797 0)"/>
       <use xlink:href="#DejaVuSerif-67" transform="translate(136.621094 0)"/>
       <use xlink:href="#DejaVuSerif-20" transform="translate(200.634766 0)"/>
       <use xlink:href="#DejaVuSerif-32" transform="translate(232.421875 0)"/>
       <use xlink:href="#DejaVuSerif-30" transform="translate(296.044922 0)"/>
       <use xlink:href="#DejaVuSerif-32" transform="translate(359.667969 0)"/>
       <use xlink:href="#DejaVuSerif-35" transform="translate(423.291016 0)"/>
      </g>
     </g>
    </g>
    <g id="xtick_10">
     <g id="line2d_19">
      <path d="M 395.6652 159.31186 
L 395.6652 25.158281 
" clip-path="url(#p6750f6bda3)" style="fill: none; stroke: #b0b0b0; stroke-opacity: 0.25; stroke-width: 0.5; stroke-linecap: square"/>
     </g>
     <g id="line2d_20">
      <g>
       <use xlink:href="#m8f82ac4c67" x="395.6652" y="159.31186" style="stroke: #000000; stroke-width: 0.8"/>
      </g>
     </g>
     <g id="text_10">
      <!-- Oct 2025 -->
      <g transform="translate(362.655069 190.154337) rotate(-30) scale(0.08 -0.08)">
       <use xlink:href="#DejaVuSerif-4f"/>
       <use xlink:href="#DejaVuSerif-63" transform="translate(81.982422 0)"/>
       <use xlink:href="#DejaVuSerif-74" transform="translate(137.988281 0)"/>
       <use xlink:href="#DejaVuSerif-20" transform="translate(178.173828 0)"/>
       <use xlink:href="#DejaVuSerif-32" transform="translate(209.960938 0)"/>
       <use xlink:href="#DejaVuSerif-30" transform="translate(273.583984 0)"/>
       <use xlink:href="#DejaVuSerif-32" transform="translate(337.207031 0)"/>
       <use xlink:href="#DejaVuSerif-35" transform="translate(400.830078 0)"/>
      </g>
     </g>
    </g>
    <g id="xtick_11">
     <g id="line2d_21">
      <path d="M 431.106878 159.31186 
L 431.106878 25.158281 
" clip-path="url(#p6750f6bda3)" style="fill: none; stroke: #b0b0b0; stroke-opacity: 0.25; stroke-width: 0.5; stroke-linecap: square"/>
     </g>
     <g id="line2d_22">
      <g>
       <use xlink:href="#m8f82ac4c67" x="431.106878" y="159.31186" style="stroke: #000000; stroke-width: 0.8"/>
      </g>
     </g>
     <g id="text_11">
      <!-- Dec 2025 -->
      <g transform="translate(396.905961 190.841837) rotate(-30) scale(0.08 -0.08)">
       <use xlink:href="#DejaVuSerif-44"/>
       <use xlink:href="#DejaVuSerif-65" transform="translate(80.175781 0)"/>
       <use xlink:href="#DejaVuSerif-63" transform="translate(139.355469 0)"/>
       <use xlink:href="#DejaVuSerif-20" transform="translate(195.361328 0)"/>
       <use xlink:href="#DejaVuSerif-32" transform="translate(227.148438 0)"/>
       <use xlink:href="#DejaVuSerif-30" transform="translate(290.771484 0)"/>
       <use xlink:href="#DejaVuSerif-32" transform="translate(354.394531 0)"/>
       <use xlink:href="#DejaVuSerif-35" transform="translate(418.017578 0)"/>
      </g>
     </g>
    </g>
    <g id="xtick_12">
     <g id="line2d_23">
      <path d="M 467.129566 159.31186 
L 467.129566 25.158281 
" clip-path="url(#p6750f6bda3)" style="fill: none; stroke: #b0b0b0; stroke-opacity: 0.25; stroke-width: 0.5; stroke-linecap: square"/>
     </g>
     <g id="line2d_24">
      <g>
       <use xlink:href="#m8f82ac4c67" x="467.129566" y="159.31186" style="stroke: #000000; stroke-width: 0.8"/>
      </g>
     </g>
     <g id="text_12">
      <!-- Feb 2026 -->
      <g transform="translate(433.501309 190.511212) rotate(-30) scale(0.08 -0.08)">
       <defs>
        <path id="DejaVuSerif-36" d="M 2094 219 
Q 2534 219 2771 542 
Q 3009 866 3009 1472 
Q 3009 2078 2771 2401 
Q 2534 2725 2094 2725 
Q 1647 2725 1412 2412 
Q 1178 2100 1178 1509 
Q 1178 888 1415 553 
Q 1653 219 2094 219 
z
M 1075 2569 
Q 1288 2803 1556 2918 
Q 1825 3034 2163 3034 
Q 2859 3034 3264 2615 
Q 3669 2197 3669 1472 
Q 3669 763 3233 336 
Q 2797 -91 2069 -91 
Q 1278 -91 853 498 
Q 428 1088 428 2181 
Q 428 3406 931 4078 
Q 1434 4750 2350 4750 
Q 2597 4750 2869 4703 
Q 3141 4656 3425 4563 
L 3425 3794 
L 3072 3794 
Q 3034 4109 2831 4275 
Q 2628 4441 2284 4441 
Q 1678 4441 1381 3981 
Q 1084 3522 1075 2569 
z
" transform="scale(0.015625)"/>
       </defs>
       <use xlink:href="#DejaVuSerif-46"/>
       <use xlink:href="#DejaVuSerif-65" transform="translate(63.884766 0)"/>
       <use xlink:href="#DejaVuSerif-62" transform="translate(123.064453 0)"/>
       <use xlink:href="#DejaVuSerif-20" transform="translate(187.078125 0)"/>
       <use xlink:href="#DejaVuSerif-32" transform="translate(218.865234 0)"/>
       <use xlink:href="#DejaVuSerif-30" transform="translate(282.488281 0)"/>
       <use xlink:href="#DejaVuSerif-32" transform="translate(346.111328 0)"/>
       <use xlink:href="#DejaVuSerif-36" transform="translate(409.734375 0)"/>
      </g>
     </g>
    </g>
   </g>
   <g id="matplotlib.axis_2">
    <g id="ytick_1">
     <g id="line2d_25">
      <path d="M 45.780313 153.21397 
L 495.715313 153.21397 
" clip-path="url(#p6750f6bda3)" style="fill: none; stroke: #b0b0b0; stroke-opacity: 0.25; stroke-width: 0.5; stroke-linecap: square"/>
     </g>
     <g id="line2d_26">
      <defs>
       <path id="m1cd24a01d2" d="M 0 0 
L -3.5 0 
" style="stroke: #000000; stroke-width: 0.8"/>
      </defs>
      <g>
       <use xlink:href="#m1cd24a01d2" x="45.780313" y="153.21397" style="stroke: #000000; stroke-width: 0.8"/>
      </g>
     </g>
     <g id="text_13">
      <!-- 0 -->
      <g transform="translate(33.690313 156.253345) scale(0.08 -0.08)">
       <use xlink:href="#DejaVuSerif-30"/>
      </g>
     </g>
    </g>
    <g id="ytick_2">
     <g id="line2d_27">
      <path d="M 45.780313 128.781264 
L 495.715313 128.781264 
" clip-path="url(#p6750f6bda3)" style="fill: none; stroke: #b0b0b0; stroke-opacity: 0.25; stroke-width: 0.5; stroke-linecap: square"/>
     </g>
     <g id="line2d_28">
      <g>
       <use xlink:href="#m1cd24a01d2" x="45.780313" y="128.781264" style="stroke: #000000; stroke-width: 0.8"/>
      </g>
     </g>
     <g id="text_14">
      <!-- 20 -->
      <g transform="translate(28.600313 131.820639) scale(0.08 -0.08)">
       <use xlink:href="#DejaVuSerif-32"/>
       <use xlink:href="#DejaVuSerif-30" transform="translate(63.623047 0)"/>
      </g>
     </g>
    </g>
    <g id="ytick_3">
     <g id="line2d_29">
      <path d="M 45.780313 104.348558 
L 495.715313 104.348558 
" clip-path="url(#p6750f6bda3)" style="fill: none; stroke: #b0b0b0; stroke-opacity: 0.25; stroke-width: 0.5; stroke-linecap: square"/>
     </g>
     <g id="line2d_30">
      <g>
       <use xlink:href="#m1cd24a01d2" x="45.780313" y="104.348558" style="stroke: #000000; stroke-width: 0.8"/>
      </g>
     </g>
     <g id="text_15">
      <!-- 40 -->
      <g transform="translate(28.600313 107.387933) scale(0.08 -0.08)">
       <use xlink:href="#DejaVuSerif-34"/>
       <use xlink:href="#DejaVuSerif-30" transform="translate(63.623047 0)"/>
      </g>
     </g>
    </g>
    <g id="ytick_4">
     <g id="line2d_31">
      <path d="M 45.780313 79.915852 
L 495.715313 79.915852 
" clip-path="url(#p6750f6bda3)" style="fill: none; stroke: #b0b0b0; stroke-opacity: 0.25; stroke-width: 0.5; stroke-linecap: square"/>
     </g>
     <g id="line2d_32">
      <g>
       <use xlink:href="#m1cd24a01d2" x="45.780313" y="79.915852" style="stroke: #000000; stroke-width: 0.8"/>
      </g>
     </g>
     <g id="text_16">
      <!-- 60 -->
      <g transform="translate(28.600313 82.955227) scale(0.08 -0.08)">
       <use xlink:href="#DejaVuSerif-36"/>
       <use xlink:href="#DejaVuSerif-30" transform="translate(63.623047 0)"/>
      </g>
     </g>
    </g>
    <g id="ytick_5">
     <g id="line2d_33">
      <path d="M 45.780313 55.483146 
L 495.715313 55.483146 
" clip-path="url(#p6750f6bda3)" style="fill: none; stroke: #b0b0b0; stroke-opacity: 0.25; stroke-width: 0.5; stroke-linecap: square"/>
     </g>
     <g id="line2d_34">
      <g>
       <use xlink:href="#m1cd24a01d2" x="45.780313" y="55.483146" style="stroke: #000000; stroke-width: 0.8"/>
      </g>
     </g>
     <g id="text_17">
      <!-- 80 -->
      <g transform="translate(28.600313 58.522521) scale(0.08 -0.08)">
       <defs>
        <path id="DejaVuSerif-38" d="M 2981 1275 
Q 2981 1775 2732 2051 
Q 2484 2328 2034 2328 
Q 1584 2328 1336 2051 
Q 1088 1775 1088 1275 
Q 1088 772 1336 495 
Q 1584 219 2034 219 
Q 2484 219 2732 495 
Q 2981 772 2981 1275 
z
M 2853 3541 
Q 2853 3966 2637 4203 
Q 2422 4441 2034 4441 
Q 1650 4441 1433 4203 
Q 1216 3966 1216 3541 
Q 1216 3113 1433 2875 
Q 1650 2638 2034 2638 
Q 2422 2638 2637 2875 
Q 2853 3113 2853 3541 
z
M 2516 2484 
Q 3047 2413 3344 2092 
Q 3641 1772 3641 1275 
Q 3641 619 3225 264 
Q 2809 -91 2034 -91 
Q 1263 -91 845 264 
Q 428 619 428 1275 
Q 428 1772 725 2092 
Q 1022 2413 1556 2484 
Q 1084 2569 832 2842 
Q 581 3116 581 3541 
Q 581 4103 968 4426 
Q 1356 4750 2034 4750 
Q 2713 4750 3100 4426 
Q 3488 4103 3488 3541 
Q 3488 3116 3236 2842 
Q 2984 2569 2516 2484 
z
" transform="scale(0.015625)"/>
       </defs>
       <use xlink:href="#DejaVuSerif-38"/>
       <use xlink:href="#DejaVuSerif-30" transform="translate(63.623047 0)"/>
      </g>
     </g>
    </g>
    <g id="ytick_6">
     <g id="line2d_35">
      <path d="M 45.780313 31.050439 
L 495.715313 31.050439 
" clip-path="url(#p6750f6bda3)" style="fill: none; stroke: #b0b0b0; stroke-opacity: 0.25; stroke-width: 0.5; stroke-linecap: square"/>
     </g>
     <g id="line2d_36">
      <g>
       <use xlink:href="#m1cd24a01d2" x="45.780313" y="31.050439" style="stroke: #000000; stroke-width: 0.8"/>
      </g>
     </g>
     <g id="text_18">
      <!-- 100 -->
      <g transform="translate(23.510313 34.089814) scale(0.08 -0.08)">
       <defs>
        <path id="DejaVuSerif-31" d="M 909 0 
L 909 331 
L 1722 331 
L 1722 4213 
L 781 3603 
L 781 4013 
L 1919 4750 
L 2350 4750 
L 2350 331 
L 3163 331 
L 3163 0 
L 909 0 
z
" transform="scale(0.015625)"/>
       </defs>
       <use xlink:href="#DejaVuSerif-31"/>
       <use xlink:href="#DejaVuSerif-30" transform="translate(63.623047 0)"/>
       <use xlink:href="#DejaVuSerif-30" transform="translate(127.246094 0)"/>
      </g>
     </g>
    </g>
    <g id="text_19">
     <!-- % -->
     <g transform="translate(17.638594 96.510774) rotate(-90) scale(0.09 -0.09)">
      <defs>
       <path id="DejaVuSerif-25" d="M 1434 4459 
Q 1159 4459 1004 4200 
Q 850 3941 850 3475 
Q 850 3016 1008 2753 
Q 1166 2491 1434 2491 
Q 1700 2491 1854 2752 
Q 2009 3013 2009 3475 
Q 2009 3938 1854 4198 
Q 1700 4459 1434 4459 
z
M 4653 2169 
Q 4381 2169 4226 1906 
Q 4072 1644 4072 1178 
Q 4072 719 4228 458 
Q 4384 197 4653 197 
Q 4922 197 5075 458 
Q 5228 719 5228 1178 
Q 5228 1641 5073 1905 
Q 4919 2169 4653 2169 
z
M 4653 2450 
Q 5147 2450 5437 2106 
Q 5728 1763 5728 1178 
Q 5728 594 5436 251 
Q 5144 -91 4653 -91 
Q 4153 -91 3862 251 
Q 3572 594 3572 1178 
Q 3572 1766 3864 2108 
Q 4156 2450 4653 2450 
z
M 4263 4750 
L 4738 4750 
L 1819 -91 
L 1344 -91 
L 4263 4750 
z
M 1428 4750 
Q 1922 4750 2215 4408 
Q 2509 4066 2509 3481 
Q 2509 2891 2217 2550 
Q 1925 2209 1428 2209 
Q 931 2209 642 2551 
Q 353 2894 353 3481 
Q 353 4063 643 4406 
Q 934 4750 1428 4750 
z
" transform="scale(0.015625)"/>
      </defs>
      <use xlink:href="#DejaVuSerif-25"/>
     </g>
    </g>
   </g>
   <g id="line2d_37">
    <path d="M 66.231903 31.256171 
L 66.812915 65.94692 
L 67.393926 54.992639 
L 67.974937 52.500443 
L 68.555948 51.17917 
L 69.136959 51.247868 
L 70.298981 56.696895 
L 70.879992 54.312326 
L 71.461003 53.003572 
L 72.042014 52.137375 
L 72.623026 51.52852 
L 73.204037 54.294248 
L 73.785048 61.363244 
L 74.366059 101.249018 
L 74.94707 153.21397 
L 78.433137 153.21397 
L 79.595159 92.491409 
L 80.17617 64.879288 
L 80.757181 65.37894 
L 81.338192 66.428888 
L 81.919203 71.366799 
L 82.500214 68.92438 
L 83.081225 98.24808 
L 83.662237 108.148745 
L 84.243248 63.471686 
L 84.824259 67.781694 
L 85.40527 67.213446 
L 85.986281 69.367856 
L 86.567292 65.505506 
L 87.148303 63.436073 
L 87.729314 59.930747 
L 88.310325 57.571323 
L 88.891337 57.479393 
L 89.472348 63.017987 
L 90.053359 63.968858 
L 90.63437 65.609521 
L 91.215381 68.10745 
L 91.796392 68.620777 
L 92.377403 63.082685 
L 92.958414 61.864772 
L 93.539425 68.400017 
L 94.120436 69.68408 
L 94.701448 67.941575 
L 95.86347 68.725925 
L 96.444481 62.969652 
L 97.025492 62.620598 
L 97.606503 69.253251 
L 98.187514 80.131253 
L 98.768525 75.680211 
L 99.349536 82.720557 
L 99.930548 76.599179 
L 100.511559 66.825194 
L 101.09257 67.431214 
L 102.254592 71.565694 
L 102.835603 65.119203 
L 103.416614 69.478347 
L 103.997625 71.213089 
L 104.578636 67.668727 
L 105.159647 68.082114 
L 105.740659 71.931195 
L 106.32167 78.532868 
L 106.902681 78.892976 
L 107.483692 79.475469 
L 108.064703 78.308167 
L 108.645714 73.0639 
L 109.226725 72.493905 
L 110.388747 94.462137 
L 110.969759 114.407475 
L 111.55077 103.774153 
L 112.131781 104.737733 
L 112.712792 96.700978 
L 113.293803 94.239061 
L 113.874814 109.954833 
L 114.455825 115.792975 
L 115.036836 122.758302 
L 115.617847 124.708577 
L 116.198858 111.747963 
L 116.77987 104.205318 
L 118.522903 123.585647 
L 119.103914 124.516808 
L 119.684925 126.328758 
L 120.265936 121.914043 
L 120.846947 115.556724 
L 121.427958 105.119435 
L 122.00897 135.410558 
L 122.589981 133.238513 
L 123.170992 127.902808 
L 123.752003 142.429808 
L 124.333014 153.21397 
L 124.914025 136.272456 
L 125.495036 133.904306 
L 126.076047 140.213488 
L 126.657058 131.756036 
L 127.238069 141.630527 
L 127.819081 134.163759 
L 128.400092 124.25492 
L 128.981103 108.714833 
L 129.562114 109.571961 
L 130.724136 140.486823 
L 131.305147 130.514032 
L 131.886158 132.554589 
L 132.467169 132.44992 
L 133.629192 121.444627 
L 134.210203 141.466161 
L 134.791214 146.146376 
L 135.372225 127.778862 
L 135.953236 102.93039 
L 136.534247 99.159763 
L 137.115258 96.282895 
L 137.696269 115.8455 
L 138.27728 113.39695 
L 138.858292 111.9478 
L 139.439303 111.41356 
L 140.020314 124.400368 
L 140.601325 113.71352 
L 141.182336 112.384779 
L 141.763347 109.947009 
L 142.925369 129.224565 
L 143.50638 131.383826 
L 144.087392 128.839258 
L 144.668403 117.810433 
L 145.249414 113.823439 
L 145.830425 103.861674 
L 146.411436 114.497056 
L 146.992447 107.781252 
L 147.573458 106.76318 
L 148.154469 114.749082 
L 148.73548 120.799754 
L 149.316491 102.097953 
L 149.897503 98.803715 
L 151.059525 126.646301 
L 151.640536 112.362186 
L 152.221547 112.861696 
L 152.802558 106.243729 
L 153.383569 94.398279 
L 153.96458 102.447592 
L 154.545591 118.918864 
L 155.126603 117.657513 
L 155.707614 101.087225 
L 156.288625 100.440964 
L 156.869636 99.966698 
L 158.031658 101.804478 
L 158.612669 100.709426 
L 159.19368 115.491265 
L 159.774691 113.977597 
L 160.355702 102.686492 
L 160.936714 103.276019 
L 161.517725 103.408838 
L 162.098736 93.745685 
L 162.679747 99.33637 
L 163.260758 101.484151 
L 163.841769 122.515242 
L 164.42278 106.631541 
L 165.003791 97.193192 
L 165.584802 82.979749 
L 166.165814 87.886152 
L 166.746825 96.238399 
L 167.327836 91.961823 
L 167.908847 89.344523 
L 168.489858 92.592363 
L 169.070869 93.693155 
L 169.65188 89.366976 
L 170.232891 85.895193 
L 170.813902 92.353763 
L 171.975925 100.831367 
L 173.137947 92.643492 
L 173.718958 86.49704 
L 174.299969 88.481086 
L 174.88098 91.457598 
L 175.461991 86.967957 
L 176.043002 90.928497 
L 177.205025 104.461261 
L 177.786036 101.314543 
L 178.367047 93.145551 
L 178.948058 98.621556 
L 179.529069 93.255782 
L 180.11008 90.895041 
L 180.691091 92.396259 
L 181.272102 96.627768 
L 181.853113 93.53844 
L 182.434124 88.144165 
L 183.015136 94.66806 
L 183.596147 93.231625 
L 184.177158 100.848443 
L 184.758169 102.987585 
L 185.33918 97.150061 
L 185.920191 87.077514 
L 186.501202 80.266789 
L 187.082213 88.241701 
L 188.244236 98.444554 
L 188.825247 120.370284 
L 189.406258 104.153889 
L 189.987269 96.406048 
L 190.56828 104.105327 
L 191.149291 109.146315 
L 191.730302 127.798084 
L 192.311313 125.603886 
L 192.892324 127.515974 
L 193.473335 114.083464 
L 194.054347 87.200348 
L 195.216369 102.208865 
L 195.79738 137.254364 
L 196.378391 132.475966 
L 196.959402 129.282046 
L 197.540413 135.326408 
L 198.121424 130.299777 
L 198.702435 118.144729 
L 199.283447 128.023502 
L 199.864458 151.526723 
L 200.445469 153.21397 
L 202.188502 153.21397 
L 202.769513 153.026472 
L 203.350524 153.21397 
L 203.931535 152.719174 
L 204.512546 153.21397 
L 205.093558 152.616719 
L 205.674569 144.561147 
L 206.25558 153.21397 
L 207.998613 153.21397 
L 208.579624 151.679895 
L 209.160635 150.790835 
L 209.741646 153.21397 
L 217.294791 153.21397 
L 217.875802 142.664649 
L 218.456813 153.21397 
L 220.199846 153.179827 
L 220.780857 152.651162 
L 221.361869 153.21397 
L 224.266924 153.21397 
L 224.847935 152.616552 
L 225.428946 153.21397 
L 228.334002 153.21397 
L 228.915013 150.44723 
L 229.496024 153.21397 
L 236.468157 153.128613 
L 237.049168 146.925139 
L 237.630179 145.993823 
L 238.211191 153.21397 
L 238.792202 153.21397 
L 239.373213 144.469705 
L 239.954224 153.111513 
L 241.116246 153.21397 
L 259.12759 153.179837 
L 259.708601 151.065665 
L 260.289613 153.21397 
L 262.613657 153.21397 
L 263.194668 143.243535 
L 263.775679 149.417204 
L 264.35669 153.025868 
L 264.937701 153.21397 
L 267.261746 153.21397 
L 267.842757 149.850418 
L 268.423768 153.043255 
L 269.004779 153.21397 
L 270.747812 153.21397 
L 271.328824 139.125386 
L 271.909835 142.160836 
L 272.490846 153.21397 
L 273.071857 153.21397 
L 273.652868 152.207596 
L 274.233879 152.241167 
L 274.81489 152.701539 
L 275.395901 150.873869 
L 275.976912 150.84236 
L 276.557924 153.21397 
L 278.881968 153.21397 
L 279.462979 150.62381 
L 280.04399 151.081525 
L 280.625001 153.21397 
L 281.206012 152.650454 
L 281.787024 144.219812 
L 282.368035 143.16729 
L 282.949046 146.574648 
L 283.530057 143.874459 
L 284.111068 132.024423 
L 284.692079 142.047753 
L 285.27309 147.541482 
L 285.854101 150.047524 
L 286.435112 153.21397 
L 287.597135 153.21397 
L 288.178146 148.495061 
L 288.759157 153.21397 
L 289.340168 151.491916 
L 289.921179 139.77087 
L 290.50219 152.497068 
L 291.664212 127.708425 
L 292.245223 135.081522 
L 292.826235 153.21397 
L 293.407246 151.015742 
L 293.988257 153.21397 
L 295.73129 153.21397 
L 296.312301 144.872257 
L 296.893312 152.992412 
L 297.474323 153.21397 
L 299.217357 153.21397 
L 300.379379 142.887166 
L 300.96039 150.810921 
L 301.541401 153.21397 
L 307.351512 153.21397 
L 307.932523 151.710209 
L 308.513534 153.21397 
L 309.094545 152.033729 
L 309.675557 152.922451 
L 310.256568 96.853501 
L 310.837579 57.378489 
L 311.41859 60.926827 
L 311.999601 58.018258 
L 312.580612 60.435675 
L 313.161623 68.640541 
L 313.742634 68.08271 
L 314.323645 72.700224 
L 314.904657 74.026591 
L 315.485668 73.833448 
L 316.066679 69.076665 
L 316.64769 69.822442 
L 317.228701 71.205568 
L 317.809712 74.889519 
L 318.390723 82.208557 
L 318.971734 75.860248 
L 319.552745 73.270101 
L 320.133756 67.749138 
L 320.714768 66.384734 
L 321.295779 70.219464 
L 321.87679 69.711945 
L 322.457801 83.695024 
L 323.038812 80.056112 
L 323.619823 83.798992 
L 324.200834 64.724815 
L 324.781845 58.277703 
L 325.362856 60.507461 
L 325.943868 77.745954 
L 326.524879 73.197628 
L 327.10589 76.74624 
L 327.686901 78.883291 
L 328.267912 67.939971 
L 328.848923 76.979146 
L 329.429934 75.880779 
L 330.010945 86.054757 
L 330.591956 84.043206 
L 331.172967 88.593334 
L 331.753979 86.633651 
L 332.916001 70.664566 
L 333.497012 87.473064 
L 334.078023 79.700239 
L 334.659034 82.064345 
L 335.240045 69.11564 
L 335.821056 77.171487 
L 336.402067 72.460359 
L 337.56409 75.917773 
L 338.145101 73.02711 
L 338.726112 76.041001 
L 339.307123 76.190043 
L 339.888134 71.600878 
L 340.469145 69.332099 
L 341.050156 69.222265 
L 341.631167 78.179431 
L 342.212178 78.275614 
L 342.79319 79.192021 
L 343.374201 76.263927 
L 343.955212 79.482841 
L 344.536223 79.406481 
L 345.698245 72.033342 
L 346.860267 76.229058 
L 347.441278 87.434919 
L 348.02229 82.605534 
L 348.603301 80.202372 
L 349.184312 80.19904 
L 349.765323 80.53656 
L 350.346334 83.688624 
L 350.927345 86.139116 
L 352.089367 92.677426 
L 352.670378 85.176335 
L 353.251389 90.809719 
L 353.832401 90.604947 
L 354.413412 103.31956 
L 354.994423 93.233777 
L 355.575434 92.542379 
L 356.156445 91.242997 
L 356.737456 82.095455 
L 357.318467 84.898501 
L 357.899478 90.773693 
L 358.480489 85.700297 
L 359.061501 77.549852 
L 359.642512 83.176511 
L 360.223523 95.909225 
L 360.804534 87.032804 
L 361.385545 75.600589 
L 361.966556 81.620856 
L 362.547567 80.489053 
L 363.128578 87.004374 
L 363.709589 90.424579 
L 364.2906 100.972762 
L 364.871612 88.174939 
L 365.452623 81.813935 
L 366.033634 80.469897 
L 366.614645 77.136695 
L 367.195656 82.064157 
L 367.776667 89.396945 
L 368.357678 79.459038 
L 368.938689 77.831755 
L 369.5197 79.183722 
L 370.100712 86.261744 
L 370.681723 83.381918 
L 371.262734 83.22853 
L 371.843745 77.853905 
L 372.424756 80.760826 
L 373.005767 73.290554 
L 373.586778 75.188699 
L 374.167789 87.411321 
L 374.7488 84.674894 
L 375.329811 86.122066 
L 376.491834 80.052157 
L 377.653856 63.859294 
L 378.234867 69.157277 
L 379.396889 75.317035 
L 379.9779 80.127449 
L 380.558911 82.853098 
L 381.139923 74.472685 
L 381.720934 81.324972 
L 382.301945 97.362422 
L 382.882956 96.537181 
L 383.463967 102.012322 
L 384.044978 100.121659 
L 384.625989 100.478199 
L 385.207 88.135086 
L 385.788011 88.920961 
L 386.369022 105.069277 
L 386.950034 96.073514 
L 387.531045 112.174526 
L 388.112056 113.55647 
L 388.693067 98.232702 
L 389.274078 92.610474 
L 389.855089 113.381753 
L 390.4361 125.548177 
L 391.017111 129.831107 
L 391.598122 138.303912 
L 392.179134 141.643641 
L 392.760145 126.516886 
L 393.341156 117.524596 
L 393.922167 99.991677 
L 394.503178 103.164293 
L 395.084189 103.221682 
L 395.6652 129.824958 
L 396.246211 114.640511 
L 396.827222 110.480608 
L 397.408233 120.781628 
L 397.989245 134.010266 
L 398.570256 141.340994 
L 399.151267 134.304052 
L 399.732278 121.783381 
L 400.313289 135.25226 
L 400.8943 128.295891 
L 401.475311 113.460042 
L 402.056322 111.275708 
L 402.637333 121.172759 
L 403.218345 122.972089 
L 403.799356 106.283213 
L 404.380367 105.351329 
L 404.961378 118.793051 
L 405.542389 91.106482 
L 406.1234 86.590185 
L 406.704411 95.467991 
L 407.285422 106.712239 
L 407.866433 105.781139 
L 408.447444 100.040533 
L 409.028456 112.05352 
L 409.609467 98.47692 
L 410.190478 100.448742 
L 410.771489 111.36355 
L 411.3525 131.070973 
L 411.933511 115.853942 
L 412.514522 131.864007 
L 413.095533 105.173478 
L 413.676544 101.995121 
L 414.257556 99.939135 
L 414.838567 121.499587 
L 415.419578 119.700988 
L 416.000589 98.702344 
L 416.5816 98.119943 
L 417.162611 123.822269 
L 417.743622 97.903979 
L 418.324633 109.820502 
L 418.905644 131.157853 
L 419.486655 129.986296 
L 420.067667 127.452174 
L 420.648678 149.602804 
L 421.229689 145.326945 
L 421.8107 108.911971 
L 422.391711 135.049912 
L 422.972722 125.309988 
L 423.553733 133.101995 
L 424.134744 144.185163 
L 424.715755 139.984871 
L 425.296767 146.935979 
L 425.877778 107.951014 
L 426.458789 99.02964 
L 427.0398 135.452545 
L 427.620811 125.865724 
L 428.201822 121.275119 
L 428.782833 125.803838 
L 429.363844 100.990346 
L 429.944855 69.718209 
L 430.525866 74.752186 
L 431.106878 108.697621 
L 432.2689 152.111691 
L 432.849911 153.21397 
L 475.263722 153.21397 
L 475.263722 153.21397 
" clip-path="url(#p6750f6bda3)" style="fill: none; stroke: #3366cc; stroke-width: 1.2; stroke-linecap: square"/>
   </g>
   <g id="patch_3">
    <path d="M 45.780313 159.31186 
L 45.780313 25.158281 
" style="fill: none; stroke: #000000; stroke-width: 0.6; stroke-linejoin: miter; stroke-linecap: square"/>
   </g>
   <g id="patch_4">
    <path d="M 45.780312 159.31186 
L 495.715312 159.31186 
" style="fill: none; stroke: #000000; stroke-width: 0.6; stroke-linejoin: miter; stroke-linecap: square"/>
   </g>
   <g id="text_20">
    <!-- Ethereum — Pct Time at Blob Fee Floor -->
    <g transform="translate(159.483672 19.158281) scale(0.11 -0.11)">
     <defs>
      <path id="DejaVuSerif-45" d="M 353 0 
L 353 331 
L 947 331 
L 947 4331 
L 353 4331 
L 353 4666 
L 4109 4666 
L 4109 3628 
L 3725 3628 
L 3725 4281 
L 1581 4281 
L 1581 2719 
L 3109 2719 
L 3109 3303 
L 3494 3303 
L 3494 1753 
L 3109 1753 
L 3109 2338 
L 1581 2338 
L 1581 384 
L 3775 384 
L 3775 1038 
L 4159 1038 
L 4159 0 
L 353 0 
z
" transform="scale(0.015625)"/>
      <path id="DejaVuSerif-68" d="M 263 0 
L 263 331 
L 781 331 
L 781 4531 
L 231 4531 
L 231 4863 
L 1356 4863 
L 1356 2731 
Q 1516 3069 1770 3241 
Q 2025 3413 2363 3413 
Q 2913 3413 3172 3097 
Q 3431 2781 3431 2113 
L 3431 331 
L 3944 331 
L 3944 0 
L 2356 0 
L 2356 331 
L 2853 331 
L 2853 1931 
Q 2853 2541 2704 2764 
Q 2556 2988 2175 2988 
Q 1775 2988 1565 2697 
Q 1356 2406 1356 1850 
L 1356 331 
L 1856 331 
L 1856 0 
L 263 0 
z
" transform="scale(0.015625)"/>
      <path id="DejaVuSerif-6d" d="M 3316 2675 
Q 3481 3041 3739 3227 
Q 3997 3413 4341 3413 
Q 4863 3413 5119 3089 
Q 5375 2766 5375 2113 
L 5375 331 
L 5894 331 
L 5894 0 
L 4300 0 
L 4300 331 
L 4800 331 
L 4800 2047 
Q 4800 2556 4650 2772 
Q 4500 2988 4153 2988 
Q 3769 2988 3567 2697 
Q 3366 2406 3366 1850 
L 3366 331 
L 3866 331 
L 3866 0 
L 2291 0 
L 2291 331 
L 2791 331 
L 2791 2069 
Q 2791 2566 2641 2777 
Q 2491 2988 2144 2988 
Q 1759 2988 1557 2697 
Q 1356 2406 1356 1850 
L 1356 331 
L 1856 331 
L 1856 0 
L 263 0 
L 263 331 
L 781 331 
L 781 2994 
L 231 2994 
L 231 3322 
L 1356 3322 
L 1356 2731 
Q 1516 3063 1762 3238 
Q 2009 3413 2322 3413 
Q 2709 3413 2968 3220 
Q 3228 3028 3316 2675 
z
" transform="scale(0.015625)"/>
      <path id="DejaVuSerif-2014" d="M 281 1906 
L 6119 1906 
L 6119 1491 
L 281 1491 
L 281 1906 
z
" transform="scale(0.015625)"/>
      <path id="DejaVuSerif-50" d="M 1581 2375 
L 2406 2375 
Q 2872 2375 3115 2626 
Q 3359 2878 3359 3353 
Q 3359 3831 3115 4081 
Q 2872 4331 2406 4331 
L 1581 4331 
L 1581 2375 
z
M 353 0 
L 353 331 
L 947 331 
L 947 4331 
L 353 4331 
L 353 4666 
L 2559 4666 
Q 3259 4666 3668 4311 
Q 4078 3956 4078 3353 
Q 4078 2753 3668 2397 
Q 3259 2041 2559 2041 
L 1581 2041 
L 1581 331 
L 2303 331 
L 2303 0 
L 353 0 
z
" transform="scale(0.015625)"/>
      <path id="DejaVuSerif-54" d="M 1222 0 
L 1222 331 
L 1819 331 
L 1819 4294 
L 447 4294 
L 447 3566 
L 63 3566 
L 63 4666 
L 4206 4666 
L 4206 3566 
L 3822 3566 
L 3822 4294 
L 2450 4294 
L 2450 331 
L 3047 331 
L 3047 0 
L 1222 0 
z
" transform="scale(0.015625)"/>
      <path id="DejaVuSerif-69" d="M 622 4353 
Q 622 4497 726 4603 
Q 831 4709 978 4709 
Q 1122 4709 1226 4603 
Q 1331 4497 1331 4353 
Q 1331 4206 1228 4103 
Q 1125 4000 978 4000 
Q 831 4000 726 4103 
Q 622 4206 622 4353 
z
M 1356 331 
L 1900 331 
L 1900 0 
L 231 0 
L 231 331 
L 781 331 
L 781 2988 
L 231 2988 
L 231 3322 
L 1356 3322 
L 1356 331 
z
" transform="scale(0.015625)"/>
      <path id="DejaVuSerif-61" d="M 2547 1044 
L 2547 1747 
L 1806 1747 
Q 1378 1747 1168 1562 
Q 959 1378 959 997 
Q 959 650 1171 447 
Q 1384 244 1747 244 
Q 2106 244 2326 466 
Q 2547 688 2547 1044 
z
M 3122 2075 
L 3122 331 
L 3634 331 
L 3634 0 
L 2547 0 
L 2547 359 
Q 2356 128 2106 18 
Q 1856 -91 1522 -91 
Q 969 -91 644 203 
Q 319 497 319 997 
Q 319 1513 691 1797 
Q 1063 2081 1741 2081 
L 2547 2081 
L 2547 2309 
Q 2547 2688 2317 2895 
Q 2088 3103 1672 3103 
Q 1328 3103 1125 2947 
Q 922 2791 872 2484 
L 575 2484 
L 575 3156 
Q 875 3284 1158 3348 
Q 1441 3413 1709 3413 
Q 2400 3413 2761 3070 
Q 3122 2728 3122 2075 
z
" transform="scale(0.015625)"/>
      <path id="DejaVuSerif-42" d="M 1581 331 
L 2516 331 
Q 3078 331 3337 575 
Q 3597 819 3597 1350 
Q 3597 1878 3339 2120 
Q 3081 2363 2516 2363 
L 1581 2363 
L 1581 331 
z
M 1581 2694 
L 2375 2694 
Q 2888 2694 3123 2891 
Q 3359 3088 3359 3513 
Q 3359 3941 3123 4136 
Q 2888 4331 2375 4331 
L 1581 4331 
L 1581 2694 
z
M 353 0 
L 353 331 
L 947 331 
L 947 4331 
L 353 4331 
L 353 4666 
L 2656 4666 
Q 3363 4666 3720 4377 
Q 4078 4088 4078 3513 
Q 4078 3097 3829 2850 
Q 3581 2603 3103 2547 
Q 3697 2472 4005 2167 
Q 4313 1863 4313 1350 
Q 4313 656 3875 328 
Q 3438 0 2509 0 
L 353 0 
z
" transform="scale(0.015625)"/>
      <path id="DejaVuSerif-6c" d="M 1313 331 
L 1856 331 
L 1856 0 
L 184 0 
L 184 331 
L 738 331 
L 738 4531 
L 184 4531 
L 184 4863 
L 1313 4863 
L 1313 331 
z
" transform="scale(0.015625)"/>
      <path id="DejaVuSerif-6f" d="M 1925 219 
Q 2388 219 2623 584 
Q 2859 950 2859 1663 
Q 2859 2375 2623 2739 
Q 2388 3103 1925 3103 
Q 1463 3103 1227 2739 
Q 991 2375 991 1663 
Q 991 950 1228 584 
Q 1466 219 1925 219 
z
M 1925 -91 
Q 1200 -91 759 389 
Q 319 869 319 1663 
Q 319 2456 758 2934 
Q 1197 3413 1925 3413 
Q 2653 3413 3092 2934 
Q 3531 2456 3531 1663 
Q 3531 869 3092 389 
Q 2653 -91 1925 -91 
z
" transform="scale(0.015625)"/>
     </defs>
     <use xlink:href="#DejaVuSerif-45"/>
     <use xlink:href="#DejaVuSerif-74" transform="translate(72.998047 0)"/>
     <use xlink:href="#DejaVuSerif-68" transform="translate(113.183594 0)"/>
     <use xlink:href="#DejaVuSerif-65" transform="translate(177.587891 0)"/>
     <use xlink:href="#DejaVuSerif-72" transform="translate(236.767578 0)"/>
     <use xlink:href="#DejaVuSerif-65" transform="translate(284.570312 0)"/>
     <use xlink:href="#DejaVuSerif-75" transform="translate(343.75 0)"/>
     <use xlink:href="#DejaVuSerif-6d" transform="translate(408.154297 0)"/>
     <use xlink:href="#DejaVuSerif-20" transform="translate(502.978516 0)"/>
     <use xlink:href="#DejaVuSerif-2014" transform="translate(534.765625 0)"/>
     <use xlink:href="#DejaVuSerif-20" transform="translate(634.765625 0)"/>
     <use xlink:href="#DejaVuSerif-50" transform="translate(666.552734 0)"/>
     <use xlink:href="#DejaVuSerif-63" transform="translate(733.837891 0)"/>
     <use xlink:href="#DejaVuSerif-74" transform="translate(789.84375 0)"/>
     <use xlink:href="#DejaVuSerif-20" transform="translate(830.029297 0)"/>
     <use xlink:href="#DejaVuSerif-54" transform="translate(861.816406 0)"/>
     <use xlink:href="#DejaVuSerif-69" transform="translate(928.515625 0)"/>
     <use xlink:href="#DejaVuSerif-6d" transform="translate(960.498047 0)"/>
     <use xlink:href="#DejaVuSerif-65" transform="translate(1055.322266 0)"/>
     <use xlink:href="#DejaVuSerif-20" transform="translate(1114.501953 0)"/>
     <use xlink:href="#DejaVuSerif-61" transform="translate(1146.289062 0)"/>
     <use xlink:href="#DejaVuSerif-74" transform="translate(1205.908203 0)"/>
     <use xlink:href="#DejaVuSerif-20" transform="translate(1246.09375 0)"/>
     <use xlink:href="#DejaVuSerif-42" transform="translate(1277.880859 0)"/>
     <use xlink:href="#DejaVuSerif-6c" transform="translate(1351.367188 0)"/>
     <use xlink:href="#DejaVuSerif-6f" transform="translate(1383.349609 0)"/>
     <use xlink:href="#DejaVuSerif-62" transform="translate(1443.554688 0)"/>
     <use xlink:href="#DejaVuSerif-20" transform="translate(1507.568359 0)"/>
     <use xlink:href="#DejaVuSerif-46" transform="translate(1539.355469 0)"/>
     <use xlink:href="#DejaVuSerif-65" transform="translate(1603.240234 0)"/>
     <use xlink:href="#DejaVuSerif-65" transform="translate(1662.419922 0)"/>
     <use xlink:href="#DejaVuSerif-20" transform="translate(1721.599609 0)"/>
     <use xlink:href="#DejaVuSerif-46" transform="translate(1753.386719 0)"/>
     <use xlink:href="#DejaVuSerif-6c" transform="translate(1822.771484 0)"/>
     <use xlink:href="#DejaVuSerif-6f" transform="translate(1854.753906 0)"/>
     <use xlink:href="#DejaVuSerif-6f" transform="translate(1914.958984 0)"/>
     <use xlink:href="#DejaVuSerif-72" transform="translate(1975.164062 0)"/>
    </g>
   </g>
   <g id="legend_1">
    <g id="patch_5">
     <path d="M 372.080313 43.300781 
L 490.115313 43.300781 
Q 491.715313 43.300781 491.715313 41.700781 
L 491.715313 30.758281 
Q 491.715313 29.158281 490.115313 29.158281 
L 372.080313 29.158281 
Q 370.480313 29.158281 370.480313 30.758281 
L 370.480313 41.700781 
Q 370.480313 43.300781 372.080313 43.300781 
z
" style="fill: #ffffff; opacity: 0.9; stroke: #cccccc; stroke-linejoin: miter"/>
    </g>
    <g id="line2d_38">
     <path d="M 373.680313 35.637031 
L 381.680313 35.637031 
L 389.680313 35.637031 
" style="fill: none; stroke: #3366cc; stroke-width: 1.2; stroke-linecap: square"/>
    </g>
    <g id="text_21">
     <!-- % blocks at 1 wei floor -->
     <g transform="translate(396.080312 38.437031) scale(0.08 -0.08)">
      <defs>
       <path id="DejaVuSerif-6b" d="M 1831 0 
L 219 0 
L 219 331 
L 738 331 
L 738 4531 
L 184 4531 
L 184 4863 
L 1313 4863 
L 1313 1697 
L 2713 2988 
L 2234 2988 
L 2234 3322 
L 3738 3322 
L 3738 2988 
L 3169 2988 
L 2181 2075 
L 3444 331 
L 3922 331 
L 3922 0 
L 2284 0 
L 2284 331 
L 2759 331 
L 1766 1697 
L 1313 1275 
L 1313 331 
L 1831 331 
L 1831 0 
z
" transform="scale(0.015625)"/>
       <path id="DejaVuSerif-73" d="M 359 184 
L 359 959 
L 691 959 
Q 703 588 923 403 
Q 1144 219 1575 219 
Q 1963 219 2166 364 
Q 2369 509 2369 788 
Q 2369 1006 2220 1140 
Q 2072 1275 1594 1428 
L 1178 1569 
Q 750 1706 558 1912 
Q 366 2119 366 2438 
Q 366 2894 700 3153 
Q 1034 3413 1625 3413 
Q 1888 3413 2178 3344 
Q 2469 3275 2778 3144 
L 2778 2419 
L 2447 2419 
Q 2434 2741 2221 2922 
Q 2009 3103 1644 3103 
Q 1281 3103 1095 2975 
Q 909 2847 909 2591 
Q 909 2381 1050 2254 
Q 1191 2128 1613 1997 
L 2069 1856 
Q 2541 1709 2748 1489 
Q 2956 1269 2956 922 
Q 2956 450 2595 179 
Q 2234 -91 1600 -91 
Q 1278 -91 972 -22 
Q 666 47 359 184 
z
" transform="scale(0.015625)"/>
       <path id="DejaVuSerif-77" d="M 3072 3322 
L 3922 728 
L 4672 2988 
L 4191 2988 
L 4191 3322 
L 5394 3322 
L 5394 2988 
L 5025 2988 
L 4038 0 
L 3559 0 
L 2741 2484 
L 1919 0 
L 1459 0 
L 475 2988 
L 103 2988 
L 103 3322 
L 1606 3322 
L 1606 2988 
L 1069 2988 
L 1813 728 
L 2669 3322 
L 3072 3322 
z
" transform="scale(0.015625)"/>
       <path id="DejaVuSerif-66" d="M 2753 4078 
L 2450 4078 
Q 2447 4313 2317 4434 
Q 2188 4556 1941 4556 
Q 1619 4556 1487 4379 
Q 1356 4203 1356 3750 
L 1356 3322 
L 2284 3322 
L 2284 2988 
L 1356 2988 
L 1356 331 
L 2094 331 
L 2094 0 
L 231 0 
L 231 331 
L 781 331 
L 781 2988 
L 231 2988 
L 231 3322 
L 781 3322 
L 781 3738 
Q 781 4294 1070 4578 
Q 1359 4863 1919 4863 
Q 2128 4863 2337 4825 
Q 2547 4788 2753 4709 
L 2753 4078 
z
" transform="scale(0.015625)"/>
      </defs>
      <use xlink:href="#DejaVuSerif-25"/>
      <use xlink:href="#DejaVuSerif-20" transform="translate(95.019531 0)"/>
      <use xlink:href="#DejaVuSerif-62" transform="translate(126.806641 0)"/>
      <use xlink:href="#DejaVuSerif-6c" transform="translate(190.820312 0)"/>
      <use xlink:href="#DejaVuSerif-6f" transform="translate(222.802734 0)"/>
      <use xlink:href="#DejaVuSerif-63" transform="translate(283.007812 0)"/>
      <use xlink:href="#DejaVuSerif-6b" transform="translate(339.013672 0)"/>
      <use xlink:href="#DejaVuSerif-73" transform="translate(399.609375 0)"/>
      <use xlink:href="#DejaVuSerif-20" transform="translate(450.927734 0)"/>
      <use xlink:href="#DejaVuSerif-61" transform="translate(482.714844 0)"/>
      <use xlink:href="#DejaVuSerif-74" transform="translate(542.333984 0)"/>
      <use xlink:href="#DejaVuSerif-20" transform="translate(582.519531 0)"/>
      <use xlink:href="#DejaVuSerif-31" transform="translate(614.306641 0)"/>
      <use xlink:href="#DejaVuSerif-20" transform="translate(677.929688 0)"/>
      <use xlink:href="#DejaVuSerif-77" transform="translate(709.716797 0)"/>
      <use xlink:href="#DejaVuSerif-65" transform="translate(795.3125 0)"/>
      <use xlink:href="#DejaVuSerif-69" transform="translate(854.492188 0)"/>
      <use xlink:href="#DejaVuSerif-20" transform="translate(886.474609 0)"/>
      <use xlink:href="#DejaVuSerif-66" transform="translate(918.261719 0)"/>
      <use xlink:href="#DejaVuSerif-6c" transform="translate(955.273438 0)"/>
      <use xlink:href="#DejaVuSerif-6f" transform="translate(987.255859 0)"/>
      <use xlink:href="#DejaVuSerif-6f" transform="translate(1047.460938 0)"/>
      <use xlink:href="#DejaVuSerif-72" transform="translate(1107.666016 0)"/>
     </g>
    </g>
   </g>
  </g>
 </g>
 <defs>
  <clipPath id="p6750f6bda3">
   <rect x="45.780313" y="25.158281" width="449.935" height="134.153579"/>
  </clipPath>
 </defs>
</svg>
