<?xml version="1.0" encoding="utf-8" standalone="no"?>
<!DOCTYPE svg PUBLIC "-//W3C//DTD SVG 1.1//EN"
  "http://www.w3.org/Graphics/SVG/1.1/DTD/svg11.dtd">
<svg xmlns:xlink="http://www.w3.org/1999/xlink" width="505.93875pt" height="203.554692pt" viewBox="0 0 505.93875 203.554692" xmlns="http://www.w3.org/2000/svg" version="1.1">
 <metadata>
  <rdf:RDF xmlns:dc="http://purl.org/dc/elements/1.1/" xmlns:cc="http://creativecommons.org/ns#" xmlns:rdf="http://www.w3.org/1999/02/22-rdf-syntax-ns#">
   <cc:Work>
    <dc:type rdf:resource="http://purl.org/dc/dcmitype/StillImage"/>
    <dc:date>2026-02-16T20:35:36.304637</dc:date>
    <dc:format>image/svg+xml</dc:format>
    <dc:creator>
     <cc:Agent>
      <dc:title>Matplotlib v3.9.4, https://matplotlib.org/</dc:title>
     </cc:Agent>
    </dc:creator>
   </cc:Work>
  </rdf:RDF>
 </metadata>
 <defs>
  <style type="text/css">*{stroke-linejoin: round; stroke-linecap: butt}</style>
 </defs>
 <g id="figure_1">
  <g id="patch_1">
   <path d="M 0 203.554692 
L 505.93875 203.554692 
L 505.93875 0 
L 0 0 
z
" style="fill: #ffffff"/>
  </g>
  <g id="axes_1">
   <g id="patch_2">
    <path d="M 45.780313 159.572615 
L 495.13875 159.572615 
L 495.13875 25.158281 
L 45.780313 25.158281 
z
" style="fill: #ffffff"/>
   </g>
   <g id="matplotlib.axis_1">
    <g id="xtick_1">
     <g id="line2d_1">
      <path d="M 77.230761 159.572615 
L 77.230761 25.158281 
" clip-path="url(#p8a094985e8)" style="fill: none; stroke: #b0b0b0; stroke-opacity: 0.25; stroke-width: 0.5; stroke-linecap: square"/>
     </g>
     <g id="line2d_2">
      <defs>
       <path id="m9016274c89" d="M 0 0 
L 0 3.5 
" style="stroke: #000000; stroke-width: 0.8"/>
      </defs>
      <g>
       <use xlink:href="#m9016274c89" x="77.230761" y="159.572615" style="stroke: #000000; stroke-width: 0.8"/>
      </g>
     </g>
     <g id="text_1">
      <!-- Apr 2024 -->
      <g transform="translate(43.81468 190.649467) rotate(-30) scale(0.08 -0.08)">
       <defs>
        <path id="DejaVuSerif-41" d="M 1281 1691 
L 2994 1691 
L 2138 3909 
L 1281 1691 
z
M -38 0 
L -38 331 
L 372 331 
L 2034 4666 
L 2559 4666 
L 4225 331 
L 4684 331 
L 4684 0 
L 2988 0 
L 2988 331 
L 3506 331 
L 3116 1356 
L 1153 1356 
L 763 331 
L 1275 331 
L 1275 0 
L -38 0 
z
" transform="scale(0.015625)"/>
        <path id="DejaVuSerif-70" d="M 1313 1825 
L 1313 1497 
Q 1313 897 1542 583 
Q 1772 269 2209 269 
Q 2650 269 2876 622 
Q 3103 975 3103 1663 
Q 3103 2353 2876 2703 
Q 2650 3053 2209 3053 
Q 1772 3053 1542 2737 
Q 1313 2422 1313 1825 
z
M 738 2988 
L 184 2988 
L 184 3322 
L 1313 3322 
L 1313 2803 
Q 1481 3116 1742 3264 
Q 2003 3413 2388 3413 
Q 3000 3413 3387 2928 
Q 3775 2444 3775 1663 
Q 3775 881 3387 395 
Q 3000 -91 2388 -91 
Q 2003 -91 1742 57 
Q 1481 206 1313 519 
L 1313 -997 
L 1856 -997 
L 1856 -1331 
L 184 -1331 
L 184 -997 
L 738 -997 
L 738 2988 
z
" transform="scale(0.015625)"/>
        <path id="DejaVuSerif-72" d="M 3059 3328 
L 3059 2497 
L 2728 2497 
Q 2713 2744 2591 2866 
Q 2469 2988 2234 2988 
Q 1809 2988 1582 2694 
Q 1356 2400 1356 1850 
L 1356 331 
L 2022 331 
L 2022 0 
L 263 0 
L 263 331 
L 781 331 
L 781 2994 
L 231 2994 
L 231 3322 
L 1356 3322 
L 1356 2731 
Q 1525 3078 1790 3245 
Q 2056 3413 2438 3413 
Q 2578 3413 2733 3391 
Q 2888 3369 3059 3328 
z
" transform="scale(0.015625)"/>
        <path id="DejaVuSerif-20" transform="scale(0.015625)"/>
        <path id="DejaVuSerif-32" d="M 819 3553 
L 469 3553 
L 469 4384 
Q 803 4563 1142 4656 
Q 1481 4750 1806 4750 
Q 2534 4750 2956 4397 
Q 3378 4044 3378 3438 
Q 3378 2753 2422 1800 
Q 2347 1728 2309 1691 
L 1131 513 
L 3078 513 
L 3078 1088 
L 3444 1088 
L 3444 0 
L 434 0 
L 434 341 
L 1850 1753 
Q 2319 2222 2519 2614 
Q 2719 3006 2719 3438 
Q 2719 3909 2473 4175 
Q 2228 4441 1797 4441 
Q 1350 4441 1106 4219 
Q 863 3997 819 3553 
z
" transform="scale(0.015625)"/>
        <path id="DejaVuSerif-30" d="M 2034 219 
Q 2513 219 2750 744 
Q 2988 1269 2988 2328 
Q 2988 3391 2750 3916 
Q 2513 4441 2034 4441 
Q 1556 4441 1318 3916 
Q 1081 3391 1081 2328 
Q 1081 1269 1318 744 
Q 1556 219 2034 219 
z
M 2034 -91 
Q 1275 -91 848 546 
Q 422 1184 422 2328 
Q 422 3475 848 4112 
Q 1275 4750 2034 4750 
Q 2797 4750 3222 4112 
Q 3647 3475 3647 2328 
Q 3647 1184 3222 546 
Q 2797 -91 2034 -91 
z
" transform="scale(0.015625)"/>
        <path id="DejaVuSerif-34" d="M 2234 1581 
L 2234 4063 
L 641 1581 
L 2234 1581 
z
M 3609 0 
L 1484 0 
L 1484 331 
L 2234 331 
L 2234 1247 
L 197 1247 
L 197 1588 
L 2241 4750 
L 2859 4750 
L 2859 1581 
L 3750 1581 
L 3750 1247 
L 2859 1247 
L 2859 331 
L 3609 331 
L 3609 0 
z
" transform="scale(0.015625)"/>
       </defs>
       <use xlink:href="#DejaVuSerif-41"/>
       <use xlink:href="#DejaVuSerif-70" x="72.216797"/>
       <use xlink:href="#DejaVuSerif-72" x="136.230469"/>
       <use xlink:href="#DejaVuSerif-20" x="184.033203"/>
       <use xlink:href="#DejaVuSerif-32" x="215.820312"/>
       <use xlink:href="#DejaVuSerif-30" x="279.443359"/>
       <use xlink:href="#DejaVuSerif-32" x="343.066406"/>
       <use xlink:href="#DejaVuSerif-34" x="406.689453"/>
      </g>
     </g>
    </g>
    <g id="xtick_2">
     <g id="line2d_3">
      <path d="M 112.627022 159.572615 
L 112.627022 25.158281 
" clip-path="url(#p8a094985e8)" style="fill: none; stroke: #b0b0b0; stroke-opacity: 0.25; stroke-width: 0.5; stroke-linecap: square"/>
     </g>
     <g id="line2d_4">
      <g>
       <use xlink:href="#m9016274c89" x="112.627022" y="159.572615" style="stroke: #000000; stroke-width: 0.8"/>
      </g>
     </g>
     <g id="text_2">
      <!-- Jun 2024 -->
      <g transform="translate(80.258832 190.044467) rotate(-30) scale(0.08 -0.08)">
       <defs>
        <path id="DejaVuSerif-4a" d="M -538 -1119 
L -538 -384 
L -181 -384 
Q -172 -694 -34 -845 
Q 103 -997 378 -997 
Q 750 -997 897 -762 
Q 1044 -528 1044 153 
L 1044 4331 
L 319 4331 
L 319 4666 
L 2272 4666 
L 2272 4331 
L 1678 4331 
L 1678 128 
Q 1678 -644 1368 -987 
Q 1059 -1331 372 -1331 
Q 150 -1331 -79 -1278 
Q -309 -1225 -538 -1119 
z
" transform="scale(0.015625)"/>
        <path id="DejaVuSerif-75" d="M 2266 3322 
L 3341 3322 
L 3341 331 
L 3884 331 
L 3884 0 
L 2766 0 
L 2766 588 
Q 2606 256 2353 82 
Q 2100 -91 1766 -91 
Q 1213 -91 952 223 
Q 691 538 691 1209 
L 691 2988 
L 172 2988 
L 172 3322 
L 1269 3322 
L 1269 1388 
Q 1269 781 1417 556 
Q 1566 331 1947 331 
Q 2347 331 2556 625 
Q 2766 919 2766 1478 
L 2766 2988 
L 2266 2988 
L 2266 3322 
z
" transform="scale(0.015625)"/>
        <path id="DejaVuSerif-6e" d="M 263 0 
L 263 331 
L 781 331 
L 781 2988 
L 231 2988 
L 231 3322 
L 1356 3322 
L 1356 2731 
Q 1516 3069 1770 3241 
Q 2025 3413 2363 3413 
Q 2913 3413 3172 3097 
Q 3431 2781 3431 2113 
L 3431 331 
L 3944 331 
L 3944 0 
L 2356 0 
L 2356 331 
L 2853 331 
L 2853 1931 
Q 2853 2541 2703 2767 
Q 2553 2994 2175 2994 
Q 1775 2994 1565 2701 
Q 1356 2409 1356 1850 
L 1356 331 
L 1856 331 
L 1856 0 
L 263 0 
z
" transform="scale(0.015625)"/>
       </defs>
       <use xlink:href="#DejaVuSerif-4a"/>
       <use xlink:href="#DejaVuSerif-75" x="40.087891"/>
       <use xlink:href="#DejaVuSerif-6e" x="104.492188"/>
       <use xlink:href="#DejaVuSerif-20" x="168.896484"/>
       <use xlink:href="#DejaVuSerif-32" x="200.683594"/>
       <use xlink:href="#DejaVuSerif-30" x="264.306641"/>
       <use xlink:href="#DejaVuSerif-32" x="327.929688"/>
       <use xlink:href="#DejaVuSerif-34" x="391.552734"/>
      </g>
     </g>
    </g>
    <g id="xtick_3">
     <g id="line2d_5">
      <path d="M 148.023283 159.572615 
L 148.023283 25.158281 
" clip-path="url(#p8a094985e8)" style="fill: none; stroke: #b0b0b0; stroke-opacity: 0.25; stroke-width: 0.5; stroke-linecap: square"/>
     </g>
     <g id="line2d_6">
      <g>
       <use xlink:href="#m9016274c89" x="148.023283" y="159.572615" style="stroke: #000000; stroke-width: 0.8"/>
      </g>
     </g>
     <g id="text_3">
      <!-- Aug 2024 -->
      <g transform="translate(113.399596 191.215331) rotate(-30) scale(0.08 -0.08)">
       <defs>
        <path id="DejaVuSerif-67" d="M 3359 2988 
L 3359 72 
Q 3359 -644 2965 -1033 
Q 2572 -1422 1844 -1422 
Q 1516 -1422 1216 -1362 
Q 916 -1303 641 -1184 
L 641 -488 
L 941 -488 
Q 997 -813 1206 -963 
Q 1416 -1113 1806 -1113 
Q 2313 -1113 2548 -827 
Q 2784 -541 2784 72 
L 2784 519 
Q 2616 206 2355 57 
Q 2094 -91 1709 -91 
Q 1097 -91 708 395 
Q 319 881 319 1663 
Q 319 2444 706 2928 
Q 1094 3413 1709 3413 
Q 2094 3413 2355 3264 
Q 2616 3116 2784 2803 
L 2784 3322 
L 3909 3322 
L 3909 2988 
L 3359 2988 
z
M 2784 1825 
Q 2784 2422 2554 2737 
Q 2325 3053 1888 3053 
Q 1444 3053 1217 2703 
Q 991 2353 991 1663 
Q 991 975 1217 622 
Q 1444 269 1888 269 
Q 2325 269 2554 583 
Q 2784 897 2784 1497 
L 2784 1825 
z
" transform="scale(0.015625)"/>
       </defs>
       <use xlink:href="#DejaVuSerif-41"/>
       <use xlink:href="#DejaVuSerif-75" x="72.216797"/>
       <use xlink:href="#DejaVuSerif-67" x="136.621094"/>
       <use xlink:href="#DejaVuSerif-20" x="200.634766"/>
       <use xlink:href="#DejaVuSerif-32" x="232.421875"/>
       <use xlink:href="#DejaVuSerif-30" x="296.044922"/>
       <use xlink:href="#DejaVuSerif-32" x="359.667969"/>
       <use xlink:href="#DejaVuSerif-34" x="423.291016"/>
      </g>
     </g>
    </g>
    <g id="xtick_4">
     <g id="line2d_7">
      <path d="M 183.419545 159.572615 
L 183.419545 25.158281 
" clip-path="url(#p8a094985e8)" style="fill: none; stroke: #b0b0b0; stroke-opacity: 0.25; stroke-width: 0.5; stroke-linecap: square"/>
     </g>
     <g id="line2d_8">
      <g>
       <use xlink:href="#m9016274c89" x="183.419545" y="159.572615" style="stroke: #000000; stroke-width: 0.8"/>
      </g>
     </g>
     <g id="text_4">
      <!-- Oct 2024 -->
      <g transform="translate(150.409413 190.415092) rotate(-30) scale(0.08 -0.08)">
       <defs>
        <path id="DejaVuSerif-4f" d="M 2625 244 
Q 3391 244 3781 770 
Q 4172 1297 4172 2328 
Q 4172 3363 3781 3889 
Q 3391 4416 2625 4416 
Q 1856 4416 1465 3889 
Q 1075 3363 1075 2328 
Q 1075 1297 1465 770 
Q 1856 244 2625 244 
z
M 2625 -91 
Q 2150 -91 1751 65 
Q 1353 222 1050 525 
Q 700 875 529 1319 
Q 359 1763 359 2328 
Q 359 2894 529 3339 
Q 700 3784 1050 4134 
Q 1356 4441 1750 4595 
Q 2144 4750 2625 4750 
Q 3641 4750 4266 4084 
Q 4891 3419 4891 2328 
Q 4891 1769 4719 1320 
Q 4547 872 4197 525 
Q 3891 219 3497 64 
Q 3103 -91 2625 -91 
z
" transform="scale(0.015625)"/>
        <path id="DejaVuSerif-63" d="M 3291 997 
Q 3169 466 2822 187 
Q 2475 -91 1925 -91 
Q 1200 -91 759 389 
Q 319 869 319 1663 
Q 319 2459 759 2936 
Q 1200 3413 1925 3413 
Q 2241 3413 2553 3339 
Q 2866 3266 3181 3116 
L 3181 2266 
L 2847 2266 
Q 2781 2703 2561 2903 
Q 2341 3103 1931 3103 
Q 1466 3103 1228 2742 
Q 991 2381 991 1663 
Q 991 944 1227 581 
Q 1463 219 1931 219 
Q 2303 219 2525 412 
Q 2747 606 2828 997 
L 3291 997 
z
" transform="scale(0.015625)"/>
        <path id="DejaVuSerif-74" d="M 691 2988 
L 184 2988 
L 184 3322 
L 691 3322 
L 691 4353 
L 1269 4353 
L 1269 3322 
L 2350 3322 
L 2350 2988 
L 1269 2988 
L 1269 878 
Q 1269 456 1350 337 
Q 1431 219 1650 219 
Q 1875 219 1978 351 
Q 2081 484 2088 781 
L 2522 781 
Q 2497 328 2275 118 
Q 2053 -91 1600 -91 
Q 1103 -91 897 129 
Q 691 350 691 878 
L 691 2988 
z
" transform="scale(0.015625)"/>
       </defs>
       <use xlink:href="#DejaVuSerif-4f"/>
       <use xlink:href="#DejaVuSerif-63" x="81.982422"/>
       <use xlink:href="#DejaVuSerif-74" x="137.988281"/>
       <use xlink:href="#DejaVuSerif-20" x="178.173828"/>
       <use xlink:href="#DejaVuSerif-32" x="209.960938"/>
       <use xlink:href="#DejaVuSerif-30" x="273.583984"/>
       <use xlink:href="#DejaVuSerif-32" x="337.207031"/>
       <use xlink:href="#DejaVuSerif-34" x="400.830078"/>
      </g>
     </g>
    </g>
    <g id="xtick_5">
     <g id="line2d_9">
      <path d="M 218.815806 159.572615 
L 218.815806 25.158281 
" clip-path="url(#p8a094985e8)" style="fill: none; stroke: #b0b0b0; stroke-opacity: 0.25; stroke-width: 0.5; stroke-linecap: square"/>
     </g>
     <g id="line2d_10">
      <g>
       <use xlink:href="#m9016274c89" x="218.815806" y="159.572615" style="stroke: #000000; stroke-width: 0.8"/>
      </g>
     </g>
     <g id="text_5">
      <!-- Dec 2024 -->
      <g transform="translate(184.61489 191.102592) rotate(-30) scale(0.08 -0.08)">
       <defs>
        <path id="DejaVuSerif-44" d="M 1581 331 
L 2163 331 
Q 3072 331 3558 850 
Q 4044 1369 4044 2338 
Q 4044 3306 3559 3818 
Q 3075 4331 2163 4331 
L 1581 4331 
L 1581 331 
z
M 353 0 
L 353 331 
L 947 331 
L 947 4331 
L 353 4331 
L 353 4666 
L 2209 4666 
Q 3416 4666 4089 4050 
Q 4763 3434 4763 2338 
Q 4763 1238 4088 619 
Q 3413 0 2209 0 
L 353 0 
z
" transform="scale(0.015625)"/>
        <path id="DejaVuSerif-65" d="M 3469 1600 
L 991 1600 
L 991 1575 
Q 991 903 1244 561 
Q 1497 219 1991 219 
Q 2369 219 2611 417 
Q 2853 616 2950 1006 
L 3413 1006 
Q 3275 459 2904 184 
Q 2534 -91 1931 -91 
Q 1203 -91 761 389 
Q 319 869 319 1663 
Q 319 2450 753 2931 
Q 1188 3413 1894 3413 
Q 2647 3413 3050 2948 
Q 3453 2484 3469 1600 
z
M 2791 1931 
Q 2772 2513 2545 2808 
Q 2319 3103 1894 3103 
Q 1497 3103 1269 2806 
Q 1041 2509 991 1931 
L 2791 1931 
z
" transform="scale(0.015625)"/>
       </defs>
       <use xlink:href="#DejaVuSerif-44"/>
       <use xlink:href="#DejaVuSerif-65" x="80.175781"/>
       <use xlink:href="#DejaVuSerif-63" x="139.355469"/>
       <use xlink:href="#DejaVuSerif-20" x="195.361328"/>
       <use xlink:href="#DejaVuSerif-32" x="227.148438"/>
       <use xlink:href="#DejaVuSerif-30" x="290.771484"/>
       <use xlink:href="#DejaVuSerif-32" x="354.394531"/>
       <use xlink:href="#DejaVuSerif-34" x="418.017578"/>
      </g>
     </g>
    </g>
    <g id="xtick_6">
     <g id="line2d_11">
      <path d="M 254.792334 159.572615 
L 254.792334 25.158281 
" clip-path="url(#p8a094985e8)" style="fill: none; stroke: #b0b0b0; stroke-opacity: 0.25; stroke-width: 0.5; stroke-linecap: square"/>
     </g>
     <g id="line2d_12">
      <g>
       <use xlink:href="#m9016274c89" x="254.792334" y="159.572615" style="stroke: #000000; stroke-width: 0.8"/>
      </g>
     </g>
     <g id="text_6">
      <!-- Feb 2025 -->
      <g transform="translate(221.164077 190.771967) rotate(-30) scale(0.08 -0.08)">
       <defs>
        <path id="DejaVuSerif-46" d="M 353 0 
L 353 331 
L 947 331 
L 947 4331 
L 353 4331 
L 353 4666 
L 4172 4666 
L 4172 3628 
L 3788 3628 
L 3788 4281 
L 1581 4281 
L 1581 2719 
L 3175 2719 
L 3175 3303 
L 3559 3303 
L 3559 1753 
L 3175 1753 
L 3175 2338 
L 1581 2338 
L 1581 331 
L 2328 331 
L 2328 0 
L 353 0 
z
" transform="scale(0.015625)"/>
        <path id="DejaVuSerif-62" d="M 738 331 
L 738 4531 
L 184 4531 
L 184 4863 
L 1313 4863 
L 1313 2803 
Q 1481 3116 1742 3264 
Q 2003 3413 2388 3413 
Q 3000 3413 3387 2928 
Q 3775 2444 3775 1663 
Q 3775 881 3387 395 
Q 3000 -91 2388 -91 
Q 2003 -91 1742 57 
Q 1481 206 1313 519 
L 1313 0 
L 184 0 
L 184 331 
L 738 331 
z
M 1313 1497 
Q 1313 897 1542 583 
Q 1772 269 2209 269 
Q 2650 269 2876 622 
Q 3103 975 3103 1663 
Q 3103 2353 2876 2703 
Q 2650 3053 2209 3053 
Q 1772 3053 1542 2737 
Q 1313 2422 1313 1825 
L 1313 1497 
z
" transform="scale(0.015625)"/>
        <path id="DejaVuSerif-35" d="M 3219 4666 
L 3219 4153 
L 1081 4153 
L 1081 2816 
Q 1244 2928 1461 2984 
Q 1678 3041 1947 3041 
Q 2703 3041 3140 2622 
Q 3578 2203 3578 1478 
Q 3578 738 3136 323 
Q 2694 -91 1894 -91 
Q 1572 -91 1234 -12 
Q 897 66 544 225 
L 544 1131 
L 897 1131 
Q 925 688 1179 453 
Q 1434 219 1894 219 
Q 2388 219 2653 544 
Q 2919 869 2919 1478 
Q 2919 2084 2655 2407 
Q 2391 2731 1894 2731 
Q 1613 2731 1398 2631 
Q 1184 2531 1019 2322 
L 750 2322 
L 750 4666 
L 3219 4666 
z
" transform="scale(0.015625)"/>
       </defs>
       <use xlink:href="#DejaVuSerif-46"/>
       <use xlink:href="#DejaVuSerif-65" x="63.884766"/>
       <use xlink:href="#DejaVuSerif-62" x="123.064453"/>
       <use xlink:href="#DejaVuSerif-20" x="187.078125"/>
       <use xlink:href="#DejaVuSerif-32" x="218.865234"/>
       <use xlink:href="#DejaVuSerif-30" x="282.488281"/>
       <use xlink:href="#DejaVuSerif-32" x="346.111328"/>
       <use xlink:href="#DejaVuSerif-35" x="409.734375"/>
      </g>
     </g>
    </g>
    <g id="xtick_7">
     <g id="line2d_13">
      <path d="M 289.028062 159.572615 
L 289.028062 25.158281 
" clip-path="url(#p8a094985e8)" style="fill: none; stroke: #b0b0b0; stroke-opacity: 0.25; stroke-width: 0.5; stroke-linecap: square"/>
     </g>
     <g id="line2d_14">
      <g>
       <use xlink:href="#m9016274c89" x="289.028062" y="159.572615" style="stroke: #000000; stroke-width: 0.8"/>
      </g>
     </g>
     <g id="text_7">
      <!-- Apr 2025 -->
      <g transform="translate(255.611981 190.649467) rotate(-30) scale(0.08 -0.08)">
       <use xlink:href="#DejaVuSerif-41"/>
       <use xlink:href="#DejaVuSerif-70" x="72.216797"/>
       <use xlink:href="#DejaVuSerif-72" x="136.230469"/>
       <use xlink:href="#DejaVuSerif-20" x="184.033203"/>
       <use xlink:href="#DejaVuSerif-32" x="215.820312"/>
       <use xlink:href="#DejaVuSerif-30" x="279.443359"/>
       <use xlink:href="#DejaVuSerif-32" x="343.066406"/>
       <use xlink:href="#DejaVuSerif-35" x="406.689453"/>
      </g>
     </g>
    </g>
    <g id="xtick_8">
     <g id="line2d_15">
      <path d="M 324.424323 159.572615 
L 324.424323 25.158281 
" clip-path="url(#p8a094985e8)" style="fill: none; stroke: #b0b0b0; stroke-opacity: 0.25; stroke-width: 0.5; stroke-linecap: square"/>
     </g>
     <g id="line2d_16">
      <g>
       <use xlink:href="#m9016274c89" x="324.424323" y="159.572615" style="stroke: #000000; stroke-width: 0.8"/>
      </g>
     </g>
     <g id="text_8">
      <!-- Jun 2025 -->
      <g transform="translate(292.056133 190.044467) rotate(-30) scale(0.08 -0.08)">
       <use xlink:href="#DejaVuSerif-4a"/>
       <use xlink:href="#DejaVuSerif-75" x="40.087891"/>
       <use xlink:href="#DejaVuSerif-6e" x="104.492188"/>
       <use xlink:href="#DejaVuSerif-20" x="168.896484"/>
       <use xlink:href="#DejaVuSerif-32" x="200.683594"/>
       <use xlink:href="#DejaVuSerif-30" x="264.306641"/>
       <use xlink:href="#DejaVuSerif-32" x="327.929688"/>
       <use xlink:href="#DejaVuSerif-35" x="391.552734"/>
      </g>
     </g>
    </g>
    <g id="xtick_9">
     <g id="line2d_17">
      <path d="M 359.820584 159.572615 
L 359.820584 25.158281 
" clip-path="url(#p8a094985e8)" style="fill: none; stroke: #b0b0b0; stroke-opacity: 0.25; stroke-width: 0.5; stroke-linecap: square"/>
     </g>
     <g id="line2d_18">
      <g>
       <use xlink:href="#m9016274c89" x="359.820584" y="159.572615" style="stroke: #000000; stroke-width: 0.8"/>
      </g>
     </g>
     <g id="text_9">
      <!-- Aug 2025 -->
      <g transform="translate(325.196897 191.215331) rotate(-30) scale(0.08 -0.08)">
       <use xlink:href="#DejaVuSerif-41"/>
       <use xlink:href="#DejaVuSerif-75" x="72.216797"/>
       <use xlink:href="#DejaVuSerif-67" x="136.621094"/>
       <use xlink:href="#DejaVuSerif-20" x="200.634766"/>
       <use xlink:href="#DejaVuSerif-32" x="232.421875"/>
       <use xlink:href="#DejaVuSerif-30" x="296.044922"/>
       <use xlink:href="#DejaVuSerif-32" x="359.667969"/>
       <use xlink:href="#DejaVuSerif-35" x="423.291016"/>
      </g>
     </g>
    </g>
    <g id="xtick_10">
     <g id="line2d_19">
      <path d="M 395.216845 159.572615 
L 395.216845 25.158281 
" clip-path="url(#p8a094985e8)" style="fill: none; stroke: #b0b0b0; stroke-opacity: 0.25; stroke-width: 0.5; stroke-linecap: square"/>
     </g>
     <g id="line2d_20">
      <g>
       <use xlink:href="#m9016274c89" x="395.216845" y="159.572615" style="stroke: #000000; stroke-width: 0.8"/>
      </g>
     </g>
     <g id="text_10">
      <!-- Oct 2025 -->
      <g transform="translate(362.206714 190.415092) rotate(-30) scale(0.08 -0.08)">
       <use xlink:href="#DejaVuSerif-4f"/>
       <use xlink:href="#DejaVuSerif-63" x="81.982422"/>
       <use xlink:href="#DejaVuSerif-74" x="137.988281"/>
       <use xlink:href="#DejaVuSerif-20" x="178.173828"/>
       <use xlink:href="#DejaVuSerif-32" x="209.960938"/>
       <use xlink:href="#DejaVuSerif-30" x="273.583984"/>
       <use xlink:href="#DejaVuSerif-32" x="337.207031"/>
       <use xlink:href="#DejaVuSerif-35" x="400.830078"/>
      </g>
     </g>
    </g>
    <g id="xtick_11">
     <g id="line2d_21">
      <path d="M 430.613107 159.572615 
L 430.613107 25.158281 
" clip-path="url(#p8a094985e8)" style="fill: none; stroke: #b0b0b0; stroke-opacity: 0.25; stroke-width: 0.5; stroke-linecap: square"/>
     </g>
     <g id="line2d_22">
      <g>
       <use xlink:href="#m9016274c89" x="430.613107" y="159.572615" style="stroke: #000000; stroke-width: 0.8"/>
      </g>
     </g>
     <g id="text_11">
      <!-- Dec 2025 -->
      <g transform="translate(396.41219 191.102592) rotate(-30) scale(0.08 -0.08)">
       <use xlink:href="#DejaVuSerif-44"/>
       <use xlink:href="#DejaVuSerif-65" x="80.175781"/>
       <use xlink:href="#DejaVuSerif-63" x="139.355469"/>
       <use xlink:href="#DejaVuSerif-20" x="195.361328"/>
       <use xlink:href="#DejaVuSerif-32" x="227.148438"/>
       <use xlink:href="#DejaVuSerif-30" x="290.771484"/>
       <use xlink:href="#DejaVuSerif-32" x="354.394531"/>
       <use xlink:href="#DejaVuSerif-35" x="418.017578"/>
      </g>
     </g>
    </g>
    <g id="xtick_12">
     <g id="line2d_23">
      <path d="M 466.589634 159.572615 
L 466.589634 25.158281 
" clip-path="url(#p8a094985e8)" style="fill: none; stroke: #b0b0b0; stroke-opacity: 0.25; stroke-width: 0.5; stroke-linecap: square"/>
     </g>
     <g id="line2d_24">
      <g>
       <use xlink:href="#m9016274c89" x="466.589634" y="159.572615" style="stroke: #000000; stroke-width: 0.8"/>
      </g>
     </g>
     <g id="text_12">
      <!-- Feb 2026 -->
      <g transform="translate(432.961377 190.771967) rotate(-30) scale(0.08 -0.08)">
       <defs>
        <path id="DejaVuSerif-36" d="M 2094 219 
Q 2534 219 2771 542 
Q 3009 866 3009 1472 
Q 3009 2078 2771 2401 
Q 2534 2725 2094 2725 
Q 1647 2725 1412 2412 
Q 1178 2100 1178 1509 
Q 1178 888 1415 553 
Q 1653 219 2094 219 
z
M 1075 2569 
Q 1288 2803 1556 2918 
Q 1825 3034 2163 3034 
Q 2859 3034 3264 2615 
Q 3669 2197 3669 1472 
Q 3669 763 3233 336 
Q 2797 -91 2069 -91 
Q 1278 -91 853 498 
Q 428 1088 428 2181 
Q 428 3406 931 4078 
Q 1434 4750 2350 4750 
Q 2597 4750 2869 4703 
Q 3141 4656 3425 4563 
L 3425 3794 
L 3072 3794 
Q 3034 4109 2831 4275 
Q 2628 4441 2284 4441 
Q 1678 4441 1381 3981 
Q 1084 3522 1075 2569 
z
" transform="scale(0.015625)"/>
       </defs>
       <use xlink:href="#DejaVuSerif-46"/>
       <use xlink:href="#DejaVuSerif-65" x="63.884766"/>
       <use xlink:href="#DejaVuSerif-62" x="123.064453"/>
       <use xlink:href="#DejaVuSerif-20" x="187.078125"/>
       <use xlink:href="#DejaVuSerif-32" x="218.865234"/>
       <use xlink:href="#DejaVuSerif-30" x="282.488281"/>
       <use xlink:href="#DejaVuSerif-32" x="346.111328"/>
       <use xlink:href="#DejaVuSerif-36" x="409.734375"/>
      </g>
     </g>
    </g>
   </g>
   <g id="matplotlib.axis_2">
    <g id="ytick_1">
     <g id="line2d_25">
      <path d="M 45.780313 153.462872 
L 495.13875 153.462872 
" clip-path="url(#p8a094985e8)" style="fill: none; stroke: #b0b0b0; stroke-opacity: 0.25; stroke-width: 0.5; stroke-linecap: square"/>
     </g>
     <g id="line2d_26">
      <defs>
       <path id="m6dd88a5374" d="M 0 0 
L -3.5 0 
" style="stroke: #000000; stroke-width: 0.8"/>
      </defs>
      <g>
       <use xlink:href="#m6dd88a5374" x="45.780313" y="153.462872" style="stroke: #000000; stroke-width: 0.8"/>
      </g>
     </g>
     <g id="text_13">
      <!-- 0 -->
      <g transform="translate(33.690313 156.502247) scale(0.08 -0.08)">
       <use xlink:href="#DejaVuSerif-30"/>
      </g>
     </g>
    </g>
    <g id="ytick_2">
     <g id="line2d_27">
      <path d="M 45.780313 128.982676 
L 495.13875 128.982676 
" clip-path="url(#p8a094985e8)" style="fill: none; stroke: #b0b0b0; stroke-opacity: 0.25; stroke-width: 0.5; stroke-linecap: square"/>
     </g>
     <g id="line2d_28">
      <g>
       <use xlink:href="#m6dd88a5374" x="45.780313" y="128.982676" style="stroke: #000000; stroke-width: 0.8"/>
      </g>
     </g>
     <g id="text_14">
      <!-- 20 -->
      <g transform="translate(28.600313 132.022051) scale(0.08 -0.08)">
       <use xlink:href="#DejaVuSerif-32"/>
       <use xlink:href="#DejaVuSerif-30" x="63.623047"/>
      </g>
     </g>
    </g>
    <g id="ytick_3">
     <g id="line2d_29">
      <path d="M 45.780313 104.50248 
L 495.13875 104.50248 
" clip-path="url(#p8a094985e8)" style="fill: none; stroke: #b0b0b0; stroke-opacity: 0.25; stroke-width: 0.5; stroke-linecap: square"/>
     </g>
     <g id="line2d_30">
      <g>
       <use xlink:href="#m6dd88a5374" x="45.780313" y="104.50248" style="stroke: #000000; stroke-width: 0.8"/>
      </g>
     </g>
     <g id="text_15">
      <!-- 40 -->
      <g transform="translate(28.600313 107.541855) scale(0.08 -0.08)">
       <use xlink:href="#DejaVuSerif-34"/>
       <use xlink:href="#DejaVuSerif-30" x="63.623047"/>
      </g>
     </g>
    </g>
    <g id="ytick_4">
     <g id="line2d_31">
      <path d="M 45.780313 80.022284 
L 495.13875 80.022284 
" clip-path="url(#p8a094985e8)" style="fill: none; stroke: #b0b0b0; stroke-opacity: 0.25; stroke-width: 0.5; stroke-linecap: square"/>
     </g>
     <g id="line2d_32">
      <g>
       <use xlink:href="#m6dd88a5374" x="45.780313" y="80.022284" style="stroke: #000000; stroke-width: 0.8"/>
      </g>
     </g>
     <g id="text_16">
      <!-- 60 -->
      <g transform="translate(28.600313 83.061659) scale(0.08 -0.08)">
       <use xlink:href="#DejaVuSerif-36"/>
       <use xlink:href="#DejaVuSerif-30" x="63.623047"/>
      </g>
     </g>
    </g>
    <g id="ytick_5">
     <g id="line2d_33">
      <path d="M 45.780313 55.542088 
L 495.13875 55.542088 
" clip-path="url(#p8a094985e8)" style="fill: none; stroke: #b0b0b0; stroke-opacity: 0.25; stroke-width: 0.5; stroke-linecap: square"/>
     </g>
     <g id="line2d_34">
      <g>
       <use xlink:href="#m6dd88a5374" x="45.780313" y="55.542088" style="stroke: #000000; stroke-width: 0.8"/>
      </g>
     </g>
     <g id="text_17">
      <!-- 80 -->
      <g transform="translate(28.600313 58.581463) scale(0.08 -0.08)">
       <defs>
        <path id="DejaVuSerif-38" d="M 2981 1275 
Q 2981 1775 2732 2051 
Q 2484 2328 2034 2328 
Q 1584 2328 1336 2051 
Q 1088 1775 1088 1275 
Q 1088 772 1336 495 
Q 1584 219 2034 219 
Q 2484 219 2732 495 
Q 2981 772 2981 1275 
z
M 2853 3541 
Q 2853 3966 2637 4203 
Q 2422 4441 2034 4441 
Q 1650 4441 1433 4203 
Q 1216 3966 1216 3541 
Q 1216 3113 1433 2875 
Q 1650 2638 2034 2638 
Q 2422 2638 2637 2875 
Q 2853 3113 2853 3541 
z
M 2516 2484 
Q 3047 2413 3344 2092 
Q 3641 1772 3641 1275 
Q 3641 619 3225 264 
Q 2809 -91 2034 -91 
Q 1263 -91 845 264 
Q 428 619 428 1275 
Q 428 1772 725 2092 
Q 1022 2413 1556 2484 
Q 1084 2569 832 2842 
Q 581 3116 581 3541 
Q 581 4103 968 4426 
Q 1356 4750 2034 4750 
Q 2713 4750 3100 4426 
Q 3488 4103 3488 3541 
Q 3488 3116 3236 2842 
Q 2984 2569 2516 2484 
z
" transform="scale(0.015625)"/>
       </defs>
       <use xlink:href="#DejaVuSerif-38"/>
       <use xlink:href="#DejaVuSerif-30" x="63.623047"/>
      </g>
     </g>
    </g>
    <g id="ytick_6">
     <g id="line2d_35">
      <path d="M 45.780313 31.061892 
L 495.13875 31.061892 
" clip-path="url(#p8a094985e8)" style="fill: none; stroke: #b0b0b0; stroke-opacity: 0.25; stroke-width: 0.5; stroke-linecap: square"/>
     </g>
     <g id="line2d_36">
      <g>
       <use xlink:href="#m6dd88a5374" x="45.780313" y="31.061892" style="stroke: #000000; stroke-width: 0.8"/>
      </g>
     </g>
     <g id="text_18">
      <!-- 100 -->
      <g transform="translate(23.510313 34.101267) scale(0.08 -0.08)">
       <defs>
        <path id="DejaVuSerif-31" d="M 909 0 
L 909 331 
L 1722 331 
L 1722 4213 
L 781 3603 
L 781 4013 
L 1919 4750 
L 2350 4750 
L 2350 331 
L 3163 331 
L 3163 0 
L 909 0 
z
" transform="scale(0.015625)"/>
       </defs>
       <use xlink:href="#DejaVuSerif-31"/>
       <use xlink:href="#DejaVuSerif-30" x="63.623047"/>
       <use xlink:href="#DejaVuSerif-30" x="127.246094"/>
      </g>
     </g>
    </g>
    <g id="text_19">
     <!-- % -->
     <g transform="translate(17.638594 96.641151) rotate(-90) scale(0.09 -0.09)">
      <defs>
       <path id="DejaVuSerif-25" d="M 1434 4459 
Q 1159 4459 1004 4200 
Q 850 3941 850 3475 
Q 850 3016 1008 2753 
Q 1166 2491 1434 2491 
Q 1700 2491 1854 2752 
Q 2009 3013 2009 3475 
Q 2009 3938 1854 4198 
Q 1700 4459 1434 4459 
z
M 4653 2169 
Q 4381 2169 4226 1906 
Q 4072 1644 4072 1178 
Q 4072 719 4228 458 
Q 4384 197 4653 197 
Q 4922 197 5075 458 
Q 5228 719 5228 1178 
Q 5228 1641 5073 1905 
Q 4919 2169 4653 2169 
z
M 4653 2450 
Q 5147 2450 5437 2106 
Q 5728 1763 5728 1178 
Q 5728 594 5436 251 
Q 5144 -91 4653 -91 
Q 4153 -91 3862 251 
Q 3572 594 3572 1178 
Q 3572 1766 3864 2108 
Q 4156 2450 4653 2450 
z
M 4263 4750 
L 4738 4750 
L 1819 -91 
L 1344 -91 
L 4263 4750 
z
M 1428 4750 
Q 1922 4750 2215 4408 
Q 2509 4066 2509 3481 
Q 2509 2891 2217 2550 
Q 1925 2209 1428 2209 
Q 931 2209 642 2551 
Q 353 2894 353 3481 
Q 353 4063 643 4406 
Q 934 4750 1428 4750 
z
" transform="scale(0.015625)"/>
      </defs>
      <use xlink:href="#DejaVuSerif-25"/>
     </g>
    </g>
   </g>
   <g id="line2d_37">
    <path d="M 66.205696 31.268024 
L 66.785963 66.026201 
L 67.366229 55.050628 
L 67.946496 52.553588 
L 68.526762 51.229747 
L 69.107029 51.298579 
L 70.267562 56.758197 
L 70.847829 54.368993 
L 71.428095 53.057695 
L 72.008362 52.189814 
L 72.588628 51.579776 
L 73.168895 54.35088 
L 73.749162 61.433616 
L 74.329428 101.396916 
L 74.909695 153.462872 
L 78.391294 153.462872 
L 79.551827 92.622284 
L 80.132094 64.956494 
L 80.71236 65.457117 
L 81.292627 66.509106 
L 81.872894 71.456615 
L 82.45316 69.009448 
L 83.033427 98.390144 
L 83.613693 108.310054 
L 84.19396 63.546156 
L 84.774226 67.864542 
L 85.354493 67.295189 
L 85.93476 69.453787 
L 86.515026 65.58393 
L 87.095293 63.510474 
L 87.675559 59.998335 
L 88.255826 57.634325 
L 88.836093 57.542216 
L 89.416359 63.091575 
L 89.996626 64.044295 
L 90.576892 65.688147 
L 91.157159 68.190931 
L 91.737425 68.705255 
L 92.317692 63.156398 
L 92.897959 61.936118 
L 93.478225 68.484066 
L 94.058492 69.770625 
L 94.638758 68.024733 
L 95.799291 68.810608 
L 96.379558 63.043146 
L 96.959825 62.693414 
L 97.540091 69.338958 
L 98.120358 80.238105 
L 98.700624 75.778411 
L 99.280891 82.832441 
L 99.861158 76.699165 
L 100.441424 66.906182 
L 101.021691 67.51338 
L 102.182224 71.655896 
L 102.76249 65.196875 
L 103.342757 69.564492 
L 103.923024 71.302606 
L 104.50329 67.751355 
L 105.083557 68.165545 
L 105.663823 72.022108 
L 106.24409 78.636613 
L 106.824356 78.99742 
L 107.404623 79.581045 
L 107.98489 78.411475 
L 108.565156 73.157015 
L 109.145423 72.585912 
L 110.305956 94.596843 
L 110.886222 114.580949 
L 111.466489 103.926959 
L 112.046756 104.892412 
L 112.627022 96.840035 
L 113.207289 94.373333 
L 113.787555 110.119652 
L 114.367822 115.969142 
L 114.948089 122.948007 
L 115.528355 124.902074 
L 116.108622 111.916268 
L 116.688888 104.358962 
L 118.429688 123.77696 
L 119.009955 124.709931 
L 119.590221 126.525403 
L 120.170488 122.102107 
L 120.750754 115.732431 
L 121.331021 105.274856 
L 121.911287 135.624855 
L 122.491554 133.448589 
L 123.071821 128.102513 
L 123.652087 142.657749 
L 124.232354 153.462872 
L 124.81262 136.488429 
L 125.392887 134.115676 
L 125.973153 140.437121 
L 126.55342 131.963231 
L 127.133687 141.856914 
L 127.713953 134.375633 
L 128.29422 124.447535 
L 128.874486 108.877242 
L 129.454753 109.736036 
L 130.615286 140.710987 
L 131.195553 130.718812 
L 131.775819 132.763336 
L 132.356086 132.658464 
L 133.516619 121.631779 
L 134.096886 141.692229 
L 134.677152 146.381541 
L 135.257419 127.978326 
L 135.837685 103.081556 
L 136.417952 99.3036 
L 136.998218 96.42114 
L 137.578485 116.021769 
L 138.158752 113.56846 
L 138.739018 112.116494 
L 139.319285 111.581215 
L 139.899551 124.593265 
L 140.479818 113.885645 
L 141.060085 112.554322 
L 141.640351 110.111813 
L 142.800884 129.426839 
L 143.381151 131.590297 
L 143.961417 129.040783 
L 144.541684 117.990521 
L 145.121951 113.995778 
L 145.702217 104.01465 
L 146.282484 114.670704 
L 146.86275 107.941847 
L 147.443017 106.921796 
L 148.023283 114.92322 
L 148.60355 120.985653 
L 149.183817 102.247501 
L 149.764083 98.94686 
L 150.924616 126.843564 
L 151.504883 112.531684 
L 152.085149 113.032165 
L 152.665416 106.401335 
L 153.245683 94.532861 
L 153.825949 102.597819 
L 154.406216 119.101107 
L 154.986482 117.837305 
L 155.566749 101.234808 
L 156.147016 100.587292 
L 156.727282 100.112103 
L 157.887815 101.953455 
L 158.468082 100.856275 
L 159.048348 115.666845 
L 159.628615 114.150236 
L 160.208882 102.837184 
L 160.789148 103.427857 
L 161.369415 103.560934 
L 161.949681 93.878999 
L 162.529948 99.480551 
L 163.110214 101.632506 
L 163.690481 122.704475 
L 164.270748 106.789901 
L 164.851014 97.333207 
L 165.431281 83.092137 
L 166.011547 88.008077 
L 166.591814 96.376557 
L 167.17208 92.09167 
L 167.752347 89.469282 
L 168.332614 92.723435 
L 168.91288 93.826366 
L 169.493147 89.491779 
L 170.073413 86.013247 
L 170.65368 92.484371 
L 171.814213 100.978453 
L 172.974746 92.774663 
L 173.555013 86.616265 
L 174.135279 88.604167 
L 174.715546 91.586465 
L 175.295813 87.088097 
L 175.876079 91.056335 
L 177.036612 104.615403 
L 177.616879 101.462568 
L 178.197145 93.277698 
L 178.777412 98.764347 
L 179.357679 93.388144 
L 179.937945 91.022814 
L 180.518212 92.52695 
L 181.098478 96.766684 
L 181.678745 93.671351 
L 182.259011 88.266591 
L 182.839278 94.803166 
L 183.419545 93.36394 
L 183.999811 100.995563 
L 184.580078 103.138862 
L 185.160344 97.289991 
L 185.740611 87.197867 
L 186.320878 80.373903 
L 186.901144 88.364316 
L 188.061677 98.587001 
L 188.641944 120.555348 
L 189.22221 104.307433 
L 189.802477 96.544532 
L 190.382744 104.258777 
L 190.96301 109.309563 
L 191.543277 127.997585 
L 192.123543 125.799122 
L 192.70381 127.714927 
L 193.284076 114.256308 
L 193.864343 87.32094 
L 195.024876 102.358628 
L 195.605143 137.472246 
L 196.185409 132.68456 
L 196.765676 129.484432 
L 197.345943 135.540542 
L 197.926209 130.504141 
L 198.506476 118.325467 
L 199.086742 128.223441 
L 199.667009 151.772345 
L 200.247275 153.462872 
L 201.988075 153.462872 
L 202.568342 153.27501 
L 203.148608 153.462872 
L 203.728875 152.967114 
L 204.309141 153.462872 
L 204.889408 152.86446 
L 205.469675 144.79323 
L 206.049941 153.462872 
L 207.790741 153.462872 
L 208.371007 151.925815 
L 208.951274 151.035028 
L 209.531541 153.462872 
L 217.075006 153.462872 
L 217.655273 142.893047 
L 218.235539 153.462872 
L 219.976339 153.428663 
L 220.556606 152.89897 
L 221.136872 153.462872 
L 224.038205 153.462872 
L 224.618472 152.864293 
L 225.198738 153.462872 
L 228.100071 153.462872 
L 228.680338 150.690755 
L 229.260604 153.462872 
L 236.223803 153.377349 
L 236.80407 147.161817 
L 237.384336 146.228691 
L 237.964603 153.462872 
L 238.544869 153.462872 
L 239.125136 144.701611 
L 239.705403 153.360216 
L 240.865936 153.462872 
L 258.8542 153.428673 
L 259.434466 151.310392 
L 260.014733 153.462872 
L 262.335799 153.462872 
L 262.916066 143.473057 
L 263.496332 149.658726 
L 264.076599 153.274405 
L 264.656865 153.462872 
L 266.977932 153.462872 
L 267.558198 150.092783 
L 268.138465 153.291826 
L 268.718732 153.462872 
L 270.459531 153.462872 
L 271.039798 139.346904 
L 271.620064 142.388254 
L 272.200331 153.462872 
L 272.780598 153.462872 
L 273.360864 152.454543 
L 273.941131 152.488179 
L 274.521397 152.949445 
L 275.101664 151.118223 
L 275.68193 151.086652 
L 276.262197 153.462872 
L 278.583263 153.462872 
L 279.16353 150.867678 
L 279.743796 151.326282 
L 280.324063 153.462872 
L 280.90433 152.898261 
L 281.484596 144.451233 
L 282.064863 143.396665 
L 282.645129 146.810645 
L 283.225396 144.105208 
L 283.805663 132.232139 
L 284.385929 142.274951 
L 284.966196 147.779358 
L 285.546462 150.290272 
L 286.126729 153.462872 
L 287.287262 153.462872 
L 287.867529 148.734791 
L 288.447795 153.462872 
L 289.028062 151.737471 
L 289.608328 139.993643 
L 290.188595 152.744577 
L 291.349128 127.907752 
L 291.929395 135.29518 
L 292.509661 153.462872 
L 293.089928 151.260372 
L 293.670194 153.462872 
L 295.410994 153.462872 
L 295.991261 145.104946 
L 296.571527 153.240884 
L 297.151794 153.462872 
L 298.892594 153.462872 
L 300.053127 143.115996 
L 300.633393 151.055152 
L 301.21366 153.462872 
L 307.016326 153.462872 
L 307.596592 151.956188 
L 308.176859 153.462872 
L 308.757125 152.280337 
L 309.337392 153.170787 
L 309.917659 96.992855 
L 310.497925 57.441116 
L 311.078192 60.99635 
L 311.658458 58.082128 
L 312.238725 60.504243 
L 312.818991 68.725058 
L 313.399258 68.166142 
L 313.979525 72.792632 
L 314.559791 74.121576 
L 315.140058 73.928058 
L 315.720324 69.162029 
L 316.300591 69.909255 
L 316.880857 71.29507 
L 317.461124 74.986182 
L 318.041391 82.319445 
L 318.621657 75.958798 
L 319.201924 73.363616 
L 319.78219 67.831922 
L 320.362457 66.464866 
L 320.942723 70.307049 
L 321.52299 69.798544 
L 322.103257 83.808802 
L 322.683523 80.162817 
L 323.26379 83.912972 
L 323.844056 64.801721 
L 324.424323 58.342077 
L 325.00459 60.57617 
L 325.584856 77.848169 
L 326.165123 73.291002 
L 326.745389 76.846512 
L 327.325656 78.987717 
L 327.905922 68.023126 
L 328.486189 77.079871 
L 329.066456 75.979369 
L 329.646722 86.173122 
L 330.226989 84.157661 
L 330.807255 88.716633 
L 331.387522 86.75314 
L 332.548055 70.753017 
L 333.128322 87.594185 
L 333.708588 79.806252 
L 334.288855 82.174953 
L 334.869121 69.20108 
L 335.449388 77.272585 
L 336.029654 72.5523 
L 337.190188 76.016434 
L 337.770454 73.120153 
L 338.350721 76.139902 
L 338.930987 76.289234 
L 339.511254 71.691148 
L 340.091521 69.41796 
L 340.671787 69.307913 
L 341.252054 78.282488 
L 341.83232 78.378858 
L 342.412587 79.297046 
L 342.992853 76.363262 
L 343.57312 79.588432 
L 344.153387 79.511923 
L 345.31392 72.124454 
L 346.474453 76.328324 
L 347.054719 87.555966 
L 347.634986 82.717195 
L 348.215253 80.309362 
L 348.795519 80.306023 
L 349.375786 80.644199 
L 349.956052 83.80239 
L 350.536319 86.257645 
L 351.696852 92.808663 
L 352.277119 85.292992 
L 352.857385 90.937326 
L 353.437652 90.732156 
L 354.017918 103.471483 
L 354.598185 93.366096 
L 355.178452 92.673354 
L 355.758718 91.371446 
L 356.338985 82.206124 
L 356.919251 85.014619 
L 357.499518 90.90123 
L 358.079784 85.817973 
L 358.660051 77.651686 
L 359.240318 83.289281 
L 359.820584 96.046744 
L 360.400851 87.15307 
L 360.981117 75.698633 
L 361.561384 81.730602 
L 362.14165 80.5966 
L 362.721917 87.124584 
L 363.302184 90.551438 
L 363.88245 101.120123 
L 364.462717 88.297424 
L 365.042983 81.924057 
L 365.62325 80.577406 
L 366.203517 77.237726 
L 366.783783 82.174765 
L 367.36405 89.521806 
L 367.944316 79.564583 
L 368.524583 77.934137 
L 369.104849 79.288731 
L 369.685116 86.380511 
L 370.265383 83.495088 
L 370.845649 83.341401 
L 371.425916 77.956329 
L 372.006182 80.868901 
L 372.586449 73.384109 
L 373.166715 75.285943 
L 373.746982 87.532322 
L 374.327249 84.790577 
L 374.907515 86.240561 
L 376.068048 80.158854 
L 377.228581 63.934517 
L 377.808848 69.242798 
L 378.969381 75.414529 
L 379.549648 80.234293 
L 380.129914 82.96524 
L 380.710181 74.568538 
L 381.290448 81.434143 
L 381.870714 97.502765 
L 382.450981 96.67592 
L 383.031247 102.161703 
L 383.611514 100.267365 
L 384.19178 100.624599 
L 384.772047 88.257495 
L 385.352314 89.044897 
L 385.93258 105.2246 
L 386.512847 96.211352 
L 387.093113 112.34366 
L 387.67338 113.72829 
L 388.253646 98.374737 
L 388.833913 92.741581 
L 389.41418 113.553233 
L 389.994446 125.743305 
L 390.574713 130.03456 
L 391.154979 138.523834 
L 391.735246 141.870054 
L 392.315512 126.713897 
L 392.895779 117.704129 
L 393.476046 100.137131 
L 394.056312 103.315914 
L 394.636579 103.373415 
L 395.216845 130.028399 
L 395.797112 114.814437 
L 396.377379 110.646449 
L 396.957645 120.967491 
L 397.537912 134.221842 
L 398.118178 141.566819 
L 398.698445 134.516199 
L 399.278711 121.971192 
L 399.858978 135.46625 
L 400.439245 128.49636 
L 401.019511 113.631675 
L 401.599778 111.443095 
L 402.180044 121.359382 
L 402.760311 123.16221 
L 403.340577 106.440895 
L 403.920844 105.5072 
L 404.501111 118.975049 
L 405.081377 91.234666 
L 405.661644 86.709591 
L 406.24191 95.604652 
L 406.822177 106.870755 
L 407.402444 105.937846 
L 407.98271 100.186082 
L 408.562977 112.222419 
L 409.143243 98.61943 
L 409.72351 100.595084 
L 410.303776 111.531108 
L 410.884043 131.276836 
L 411.46431 116.030228 
L 412.044576 132.071411 
L 412.624843 105.329004 
L 413.205109 102.144469 
L 413.785376 100.084487 
L 414.365642 121.686846 
L 414.945909 119.884751 
L 415.526176 98.845292 
L 416.106442 98.261759 
L 416.686709 124.014042 
L 417.266975 98.045375 
L 417.847242 109.98506 
L 418.427508 131.363885 
L 419.007775 130.19005 
L 419.588042 127.651003 
L 420.168308 149.844687 
L 420.748575 145.560517 
L 421.328841 109.074763 
L 421.909108 135.263509 
L 422.489375 125.504653 
L 423.069641 133.311806 
L 423.649908 144.416516 
L 424.230174 140.20806 
L 424.810441 147.172679 
L 425.390707 108.111939 
L 425.970974 99.173224 
L 426.551241 135.666924 
L 427.131507 126.061469 
L 427.711774 121.461942 
L 428.29204 125.999464 
L 428.872307 101.137741 
L 429.452573 69.80482 
L 430.03284 74.848582 
L 430.613107 108.859996 
L 431.77364 152.358451 
L 432.353906 153.462872 
L 474.713366 153.462872 
L 474.713366 153.462872 
" clip-path="url(#p8a094985e8)" style="fill: none; stroke: #3366cc; stroke-width: 1.2; stroke-linecap: square"/>
   </g>
   <g id="patch_3">
    <path d="M 45.780313 159.572615 
L 45.780313 25.158281 
" style="fill: none; stroke: #000000; stroke-width: 0.6; stroke-linejoin: miter; stroke-linecap: square"/>
   </g>
   <g id="patch_4">
    <path d="M 45.780312 159.572615 
L 495.13875 159.572615 
" style="fill: none; stroke: #000000; stroke-width: 0.6; stroke-linejoin: miter; stroke-linecap: square"/>
   </g>
   <g id="text_20">
    <!-- Ethereum — Pct Time at Blob Fee Floor -->
    <g transform="translate(159.195391 19.158281) scale(0.11 -0.11)">
     <defs>
      <path id="DejaVuSerif-45" d="M 353 0 
L 353 331 
L 947 331 
L 947 4331 
L 353 4331 
L 353 4666 
L 4109 4666 
L 4109 3628 
L 3725 3628 
L 3725 4281 
L 1581 4281 
L 1581 2719 
L 3109 2719 
L 3109 3303 
L 3494 3303 
L 3494 1753 
L 3109 1753 
L 3109 2338 
L 1581 2338 
L 1581 384 
L 3775 384 
L 3775 1038 
L 4159 1038 
L 4159 0 
L 353 0 
z
" transform="scale(0.015625)"/>
      <path id="DejaVuSerif-68" d="M 263 0 
L 263 331 
L 781 331 
L 781 4531 
L 231 4531 
L 231 4863 
L 1356 4863 
L 1356 2731 
Q 1516 3069 1770 3241 
Q 2025 3413 2363 3413 
Q 2913 3413 3172 3097 
Q 3431 2781 3431 2113 
L 3431 331 
L 3944 331 
L 3944 0 
L 2356 0 
L 2356 331 
L 2853 331 
L 2853 1931 
Q 2853 2541 2704 2764 
Q 2556 2988 2175 2988 
Q 1775 2988 1565 2697 
Q 1356 2406 1356 1850 
L 1356 331 
L 1856 331 
L 1856 0 
L 263 0 
z
" transform="scale(0.015625)"/>
      <path id="DejaVuSerif-6d" d="M 3316 2675 
Q 3481 3041 3739 3227 
Q 3997 3413 4341 3413 
Q 4863 3413 5119 3089 
Q 5375 2766 5375 2113 
L 5375 331 
L 5894 331 
L 5894 0 
L 4300 0 
L 4300 331 
L 4800 331 
L 4800 2047 
Q 4800 2556 4650 2772 
Q 4500 2988 4153 2988 
Q 3769 2988 3567 2697 
Q 3366 2406 3366 1850 
L 3366 331 
L 3866 331 
L 3866 0 
L 2291 0 
L 2291 331 
L 2791 331 
L 2791 2069 
Q 2791 2566 2641 2777 
Q 2491 2988 2144 2988 
Q 1759 2988 1557 2697 
Q 1356 2406 1356 1850 
L 1356 331 
L 1856 331 
L 1856 0 
L 263 0 
L 263 331 
L 781 331 
L 781 2994 
L 231 2994 
L 231 3322 
L 1356 3322 
L 1356 2731 
Q 1516 3063 1762 3238 
Q 2009 3413 2322 3413 
Q 2709 3413 2968 3220 
Q 3228 3028 3316 2675 
z
" transform="scale(0.015625)"/>
      <path id="DejaVuSerif-2014" d="M 281 1906 
L 6119 1906 
L 6119 1491 
L 281 1491 
L 281 1906 
z
" transform="scale(0.015625)"/>
      <path id="DejaVuSerif-50" d="M 1581 2375 
L 2406 2375 
Q 2872 2375 3115 2626 
Q 3359 2878 3359 3353 
Q 3359 3831 3115 4081 
Q 2872 4331 2406 4331 
L 1581 4331 
L 1581 2375 
z
M 353 0 
L 353 331 
L 947 331 
L 947 4331 
L 353 4331 
L 353 4666 
L 2559 4666 
Q 3259 4666 3668 4311 
Q 4078 3956 4078 3353 
Q 4078 2753 3668 2397 
Q 3259 2041 2559 2041 
L 1581 2041 
L 1581 331 
L 2303 331 
L 2303 0 
L 353 0 
z
" transform="scale(0.015625)"/>
      <path id="DejaVuSerif-54" d="M 1222 0 
L 1222 331 
L 1819 331 
L 1819 4294 
L 447 4294 
L 447 3566 
L 63 3566 
L 63 4666 
L 4206 4666 
L 4206 3566 
L 3822 3566 
L 3822 4294 
L 2450 4294 
L 2450 331 
L 3047 331 
L 3047 0 
L 1222 0 
z
" transform="scale(0.015625)"/>
      <path id="DejaVuSerif-69" d="M 622 4353 
Q 622 4497 726 4603 
Q 831 4709 978 4709 
Q 1122 4709 1226 4603 
Q 1331 4497 1331 4353 
Q 1331 4206 1228 4103 
Q 1125 4000 978 4000 
Q 831 4000 726 4103 
Q 622 4206 622 4353 
z
M 1356 331 
L 1900 331 
L 1900 0 
L 231 0 
L 231 331 
L 781 331 
L 781 2988 
L 231 2988 
L 231 3322 
L 1356 3322 
L 1356 331 
z
" transform="scale(0.015625)"/>
      <path id="DejaVuSerif-61" d="M 2547 1044 
L 2547 1747 
L 1806 1747 
Q 1378 1747 1168 1562 
Q 959 1378 959 997 
Q 959 650 1171 447 
Q 1384 244 1747 244 
Q 2106 244 2326 466 
Q 2547 688 2547 1044 
z
M 3122 2075 
L 3122 331 
L 3634 331 
L 3634 0 
L 2547 0 
L 2547 359 
Q 2356 128 2106 18 
Q 1856 -91 1522 -91 
Q 969 -91 644 203 
Q 319 497 319 997 
Q 319 1513 691 1797 
Q 1063 2081 1741 2081 
L 2547 2081 
L 2547 2309 
Q 2547 2688 2317 2895 
Q 2088 3103 1672 3103 
Q 1328 3103 1125 2947 
Q 922 2791 872 2484 
L 575 2484 
L 575 3156 
Q 875 3284 1158 3348 
Q 1441 3413 1709 3413 
Q 2400 3413 2761 3070 
Q 3122 2728 3122 2075 
z
" transform="scale(0.015625)"/>
      <path id="DejaVuSerif-42" d="M 1581 331 
L 2516 331 
Q 3078 331 3337 575 
Q 3597 819 3597 1350 
Q 3597 1878 3339 2120 
Q 3081 2363 2516 2363 
L 1581 2363 
L 1581 331 
z
M 1581 2694 
L 2375 2694 
Q 2888 2694 3123 2891 
Q 3359 3088 3359 3513 
Q 3359 3941 3123 4136 
Q 2888 4331 2375 4331 
L 1581 4331 
L 1581 2694 
z
M 353 0 
L 353 331 
L 947 331 
L 947 4331 
L 353 4331 
L 353 4666 
L 2656 4666 
Q 3363 4666 3720 4377 
Q 4078 4088 4078 3513 
Q 4078 3097 3829 2850 
Q 3581 2603 3103 2547 
Q 3697 2472 4005 2167 
Q 4313 1863 4313 1350 
Q 4313 656 3875 328 
Q 3438 0 2509 0 
L 353 0 
z
" transform="scale(0.015625)"/>
      <path id="DejaVuSerif-6c" d="M 1313 331 
L 1856 331 
L 1856 0 
L 184 0 
L 184 331 
L 738 331 
L 738 4531 
L 184 4531 
L 184 4863 
L 1313 4863 
L 1313 331 
z
" transform="scale(0.015625)"/>
      <path id="DejaVuSerif-6f" d="M 1925 219 
Q 2388 219 2623 584 
Q 2859 950 2859 1663 
Q 2859 2375 2623 2739 
Q 2388 3103 1925 3103 
Q 1463 3103 1227 2739 
Q 991 2375 991 1663 
Q 991 950 1228 584 
Q 1466 219 1925 219 
z
M 1925 -91 
Q 1200 -91 759 389 
Q 319 869 319 1663 
Q 319 2456 758 2934 
Q 1197 3413 1925 3413 
Q 2653 3413 3092 2934 
Q 3531 2456 3531 1663 
Q 3531 869 3092 389 
Q 2653 -91 1925 -91 
z
" transform="scale(0.015625)"/>
     </defs>
     <use xlink:href="#DejaVuSerif-45"/>
     <use xlink:href="#DejaVuSerif-74" x="72.998047"/>
     <use xlink:href="#DejaVuSerif-68" x="113.183594"/>
     <use xlink:href="#DejaVuSerif-65" x="177.587891"/>
     <use xlink:href="#DejaVuSerif-72" x="236.767578"/>
     <use xlink:href="#DejaVuSerif-65" x="284.570312"/>
     <use xlink:href="#DejaVuSerif-75" x="343.75"/>
     <use xlink:href="#DejaVuSerif-6d" x="408.154297"/>
     <use xlink:href="#DejaVuSerif-20" x="502.978516"/>
     <use xlink:href="#DejaVuSerif-2014" x="534.765625"/>
     <use xlink:href="#DejaVuSerif-20" x="634.765625"/>
     <use xlink:href="#DejaVuSerif-50" x="666.552734"/>
     <use xlink:href="#DejaVuSerif-63" x="733.837891"/>
     <use xlink:href="#DejaVuSerif-74" x="789.84375"/>
     <use xlink:href="#DejaVuSerif-20" x="830.029297"/>
     <use xlink:href="#DejaVuSerif-54" x="861.816406"/>
     <use xlink:href="#DejaVuSerif-69" x="928.515625"/>
     <use xlink:href="#DejaVuSerif-6d" x="960.498047"/>
     <use xlink:href="#DejaVuSerif-65" x="1055.322266"/>
     <use xlink:href="#DejaVuSerif-20" x="1114.501953"/>
     <use xlink:href="#DejaVuSerif-61" x="1146.289062"/>
     <use xlink:href="#DejaVuSerif-74" x="1205.908203"/>
     <use xlink:href="#DejaVuSerif-20" x="1246.09375"/>
     <use xlink:href="#DejaVuSerif-42" x="1277.880859"/>
     <use xlink:href="#DejaVuSerif-6c" x="1351.367188"/>
     <use xlink:href="#DejaVuSerif-6f" x="1383.349609"/>
     <use xlink:href="#DejaVuSerif-62" x="1443.554688"/>
     <use xlink:href="#DejaVuSerif-20" x="1507.568359"/>
     <use xlink:href="#DejaVuSerif-46" x="1539.355469"/>
     <use xlink:href="#DejaVuSerif-65" x="1603.240234"/>
     <use xlink:href="#DejaVuSerif-65" x="1662.419922"/>
     <use xlink:href="#DejaVuSerif-20" x="1721.599609"/>
     <use xlink:href="#DejaVuSerif-46" x="1753.386719"/>
     <use xlink:href="#DejaVuSerif-6c" x="1822.771484"/>
     <use xlink:href="#DejaVuSerif-6f" x="1854.753906"/>
     <use xlink:href="#DejaVuSerif-6f" x="1914.958984"/>
     <use xlink:href="#DejaVuSerif-72" x="1975.164062"/>
    </g>
   </g>
   <g id="legend_1">
    <g id="patch_5">
     <path d="M 371.50375 43.300781 
L 489.53875 43.300781 
Q 491.13875 43.300781 491.13875 41.700781 
L 491.13875 30.758281 
Q 491.13875 29.158281 489.53875 29.158281 
L 371.50375 29.158281 
Q 369.90375 29.158281 369.90375 30.758281 
L 369.90375 41.700781 
Q 369.90375 43.300781 371.50375 43.300781 
z
" style="fill: #ffffff; opacity: 0.9; stroke: #cccccc; stroke-linejoin: miter"/>
    </g>
    <g id="line2d_38">
     <path d="M 373.10375 35.637031 
L 381.10375 35.637031 
L 389.10375 35.637031 
" style="fill: none; stroke: #3366cc; stroke-width: 1.2; stroke-linecap: square"/>
    </g>
    <g id="text_21">
     <!-- % blocks at 1 wei floor -->
     <g transform="translate(395.50375 38.437031) scale(0.08 -0.08)">
      <defs>
       <path id="DejaVuSerif-6b" d="M 1831 0 
L 219 0 
L 219 331 
L 738 331 
L 738 4531 
L 184 4531 
L 184 4863 
L 1313 4863 
L 1313 1697 
L 2713 2988 
L 2234 2988 
L 2234 3322 
L 3738 3322 
L 3738 2988 
L 3169 2988 
L 2181 2075 
L 3444 331 
L 3922 331 
L 3922 0 
L 2284 0 
L 2284 331 
L 2759 331 
L 1766 1697 
L 1313 1275 
L 1313 331 
L 1831 331 
L 1831 0 
z
" transform="scale(0.015625)"/>
       <path id="DejaVuSerif-73" d="M 359 184 
L 359 959 
L 691 959 
Q 703 588 923 403 
Q 1144 219 1575 219 
Q 1963 219 2166 364 
Q 2369 509 2369 788 
Q 2369 1006 2220 1140 
Q 2072 1275 1594 1428 
L 1178 1569 
Q 750 1706 558 1912 
Q 366 2119 366 2438 
Q 366 2894 700 3153 
Q 1034 3413 1625 3413 
Q 1888 3413 2178 3344 
Q 2469 3275 2778 3144 
L 2778 2419 
L 2447 2419 
Q 2434 2741 2221 2922 
Q 2009 3103 1644 3103 
Q 1281 3103 1095 2975 
Q 909 2847 909 2591 
Q 909 2381 1050 2254 
Q 1191 2128 1613 1997 
L 2069 1856 
Q 2541 1709 2748 1489 
Q 2956 1269 2956 922 
Q 2956 450 2595 179 
Q 2234 -91 1600 -91 
Q 1278 -91 972 -22 
Q 666 47 359 184 
z
" transform="scale(0.015625)"/>
       <path id="DejaVuSerif-77" d="M 3072 3322 
L 3922 728 
L 4672 2988 
L 4191 2988 
L 4191 3322 
L 5394 3322 
L 5394 2988 
L 5025 2988 
L 4038 0 
L 3559 0 
L 2741 2484 
L 1919 0 
L 1459 0 
L 475 2988 
L 103 2988 
L 103 3322 
L 1606 3322 
L 1606 2988 
L 1069 2988 
L 1813 728 
L 2669 3322 
L 3072 3322 
z
" transform="scale(0.015625)"/>
       <path id="DejaVuSerif-66" d="M 2753 4078 
L 2450 4078 
Q 2447 4313 2317 4434 
Q 2188 4556 1941 4556 
Q 1619 4556 1487 4379 
Q 1356 4203 1356 3750 
L 1356 3322 
L 2284 3322 
L 2284 2988 
L 1356 2988 
L 1356 331 
L 2094 331 
L 2094 0 
L 231 0 
L 231 331 
L 781 331 
L 781 2988 
L 231 2988 
L 231 3322 
L 781 3322 
L 781 3738 
Q 781 4294 1070 4578 
Q 1359 4863 1919 4863 
Q 2128 4863 2337 4825 
Q 2547 4788 2753 4709 
L 2753 4078 
z
" transform="scale(0.015625)"/>
      </defs>
      <use xlink:href="#DejaVuSerif-25"/>
      <use xlink:href="#DejaVuSerif-20" x="95.019531"/>
      <use xlink:href="#DejaVuSerif-62" x="126.806641"/>
      <use xlink:href="#DejaVuSerif-6c" x="190.820312"/>
      <use xlink:href="#DejaVuSerif-6f" x="222.802734"/>
      <use xlink:href="#DejaVuSerif-63" x="283.007812"/>
      <use xlink:href="#DejaVuSerif-6b" x="339.013672"/>
      <use xlink:href="#DejaVuSerif-73" x="399.609375"/>
      <use xlink:href="#DejaVuSerif-20" x="450.927734"/>
      <use xlink:href="#DejaVuSerif-61" x="482.714844"/>
      <use xlink:href="#DejaVuSerif-74" x="542.333984"/>
      <use xlink:href="#DejaVuSerif-20" x="582.519531"/>
      <use xlink:href="#DejaVuSerif-31" x="614.306641"/>
      <use xlink:href="#DejaVuSerif-20" x="677.929688"/>
      <use xlink:href="#DejaVuSerif-77" x="709.716797"/>
      <use xlink:href="#DejaVuSerif-65" x="795.3125"/>
      <use xlink:href="#DejaVuSerif-69" x="854.492188"/>
      <use xlink:href="#DejaVuSerif-20" x="886.474609"/>
      <use xlink:href="#DejaVuSerif-66" x="918.261719"/>
      <use xlink:href="#DejaVuSerif-6c" x="955.273438"/>
      <use xlink:href="#DejaVuSerif-6f" x="987.255859"/>
      <use xlink:href="#DejaVuSerif-6f" x="1047.460938"/>
      <use xlink:href="#DejaVuSerif-72" x="1107.666016"/>
     </g>
    </g>
   </g>
  </g>
 </g>
 <defs>
  <clipPath id="p8a094985e8">
   <rect x="45.780313" y="25.158281" width="449.358438" height="134.414334"/>
  </clipPath>
 </defs>
</svg>
