<?xml version="1.0" encoding="utf-8" standalone="no"?>
<!DOCTYPE svg PUBLIC "-//W3C//DTD SVG 1.1//EN"
  "http://www.w3.org/Graphics/SVG/1.1/DTD/svg11.dtd">
<svg xmlns:xlink="http://www.w3.org/1999/xlink" width="505.93875pt" height="203.549067pt" viewBox="0 0 505.93875 203.549067" xmlns="http://www.w3.org/2000/svg" version="1.1">
 <metadata>
  <rdf:RDF xmlns:dc="http://purl.org/dc/elements/1.1/" xmlns:cc="http://creativecommons.org/ns#" xmlns:rdf="http://www.w3.org/1999/02/22-rdf-syntax-ns#">
   <cc:Work>
    <dc:type rdf:resource="http://purl.org/dc/dcmitype/StillImage"/>
    <dc:date>2026-02-16T20:35:36.484075</dc:date>
    <dc:format>image/svg+xml</dc:format>
    <dc:creator>
     <cc:Agent>
      <dc:title>Matplotlib v3.9.4, https://matplotlib.org/</dc:title>
     </cc:Agent>
    </dc:creator>
   </cc:Work>
  </rdf:RDF>
 </metadata>
 <defs>
  <style type="text/css">*{stroke-linejoin: round; stroke-linecap: butt}</style>
 </defs>
 <g id="figure_1">
  <g id="patch_1">
   <path d="M 0 203.549067 
L 505.93875 203.549067 
L 505.93875 0 
L 0 0 
z
" style="fill: #ffffff"/>
  </g>
  <g id="axes_1">
   <g id="patch_2">
    <path d="M 45.780313 159.56699 
L 495.13875 159.56699 
L 495.13875 25.158281 
L 45.780313 25.158281 
z
" style="fill: #ffffff"/>
   </g>
   <g id="matplotlib.axis_1">
    <g id="xtick_1">
     <g id="line2d_1">
      <path d="M 77.230761 159.56699 
L 77.230761 25.158281 
" clip-path="url(#pad480ccb47)" style="fill: none; stroke: #b0b0b0; stroke-opacity: 0.25; stroke-width: 0.5; stroke-linecap: square"/>
     </g>
     <g id="line2d_2">
      <defs>
       <path id="m9ef0e01fdf" d="M 0 0 
L 0 3.5 
" style="stroke: #000000; stroke-width: 0.8"/>
      </defs>
      <g>
       <use xlink:href="#m9ef0e01fdf" x="77.230761" y="159.56699" style="stroke: #000000; stroke-width: 0.8"/>
      </g>
     </g>
     <g id="text_1">
      <!-- Apr 2024 -->
      <g transform="translate(43.81468 190.643842) rotate(-30) scale(0.08 -0.08)">
       <defs>
        <path id="DejaVuSerif-41" d="M 1281 1691 
L 2994 1691 
L 2138 3909 
L 1281 1691 
z
M -38 0 
L -38 331 
L 372 331 
L 2034 4666 
L 2559 4666 
L 4225 331 
L 4684 331 
L 4684 0 
L 2988 0 
L 2988 331 
L 3506 331 
L 3116 1356 
L 1153 1356 
L 763 331 
L 1275 331 
L 1275 0 
L -38 0 
z
" transform="scale(0.015625)"/>
        <path id="DejaVuSerif-70" d="M 1313 1825 
L 1313 1497 
Q 1313 897 1542 583 
Q 1772 269 2209 269 
Q 2650 269 2876 622 
Q 3103 975 3103 1663 
Q 3103 2353 2876 2703 
Q 2650 3053 2209 3053 
Q 1772 3053 1542 2737 
Q 1313 2422 1313 1825 
z
M 738 2988 
L 184 2988 
L 184 3322 
L 1313 3322 
L 1313 2803 
Q 1481 3116 1742 3264 
Q 2003 3413 2388 3413 
Q 3000 3413 3387 2928 
Q 3775 2444 3775 1663 
Q 3775 881 3387 395 
Q 3000 -91 2388 -91 
Q 2003 -91 1742 57 
Q 1481 206 1313 519 
L 1313 -997 
L 1856 -997 
L 1856 -1331 
L 184 -1331 
L 184 -997 
L 738 -997 
L 738 2988 
z
" transform="scale(0.015625)"/>
        <path id="DejaVuSerif-72" d="M 3059 3328 
L 3059 2497 
L 2728 2497 
Q 2713 2744 2591 2866 
Q 2469 2988 2234 2988 
Q 1809 2988 1582 2694 
Q 1356 2400 1356 1850 
L 1356 331 
L 2022 331 
L 2022 0 
L 263 0 
L 263 331 
L 781 331 
L 781 2994 
L 231 2994 
L 231 3322 
L 1356 3322 
L 1356 2731 
Q 1525 3078 1790 3245 
Q 2056 3413 2438 3413 
Q 2578 3413 2733 3391 
Q 2888 3369 3059 3328 
z
" transform="scale(0.015625)"/>
        <path id="DejaVuSerif-20" transform="scale(0.015625)"/>
        <path id="DejaVuSerif-32" d="M 819 3553 
L 469 3553 
L 469 4384 
Q 803 4563 1142 4656 
Q 1481 4750 1806 4750 
Q 2534 4750 2956 4397 
Q 3378 4044 3378 3438 
Q 3378 2753 2422 1800 
Q 2347 1728 2309 1691 
L 1131 513 
L 3078 513 
L 3078 1088 
L 3444 1088 
L 3444 0 
L 434 0 
L 434 341 
L 1850 1753 
Q 2319 2222 2519 2614 
Q 2719 3006 2719 3438 
Q 2719 3909 2473 4175 
Q 2228 4441 1797 4441 
Q 1350 4441 1106 4219 
Q 863 3997 819 3553 
z
" transform="scale(0.015625)"/>
        <path id="DejaVuSerif-30" d="M 2034 219 
Q 2513 219 2750 744 
Q 2988 1269 2988 2328 
Q 2988 3391 2750 3916 
Q 2513 4441 2034 4441 
Q 1556 4441 1318 3916 
Q 1081 3391 1081 2328 
Q 1081 1269 1318 744 
Q 1556 219 2034 219 
z
M 2034 -91 
Q 1275 -91 848 546 
Q 422 1184 422 2328 
Q 422 3475 848 4112 
Q 1275 4750 2034 4750 
Q 2797 4750 3222 4112 
Q 3647 3475 3647 2328 
Q 3647 1184 3222 546 
Q 2797 -91 2034 -91 
z
" transform="scale(0.015625)"/>
        <path id="DejaVuSerif-34" d="M 2234 1581 
L 2234 4063 
L 641 1581 
L 2234 1581 
z
M 3609 0 
L 1484 0 
L 1484 331 
L 2234 331 
L 2234 1247 
L 197 1247 
L 197 1588 
L 2241 4750 
L 2859 4750 
L 2859 1581 
L 3750 1581 
L 3750 1247 
L 2859 1247 
L 2859 331 
L 3609 331 
L 3609 0 
z
" transform="scale(0.015625)"/>
       </defs>
       <use xlink:href="#DejaVuSerif-41"/>
       <use xlink:href="#DejaVuSerif-70" x="72.216797"/>
       <use xlink:href="#DejaVuSerif-72" x="136.230469"/>
       <use xlink:href="#DejaVuSerif-20" x="184.033203"/>
       <use xlink:href="#DejaVuSerif-32" x="215.820312"/>
       <use xlink:href="#DejaVuSerif-30" x="279.443359"/>
       <use xlink:href="#DejaVuSerif-32" x="343.066406"/>
       <use xlink:href="#DejaVuSerif-34" x="406.689453"/>
      </g>
     </g>
    </g>
    <g id="xtick_2">
     <g id="line2d_3">
      <path d="M 112.627022 159.56699 
L 112.627022 25.158281 
" clip-path="url(#pad480ccb47)" style="fill: none; stroke: #b0b0b0; stroke-opacity: 0.25; stroke-width: 0.5; stroke-linecap: square"/>
     </g>
     <g id="line2d_4">
      <g>
       <use xlink:href="#m9ef0e01fdf" x="112.627022" y="159.56699" style="stroke: #000000; stroke-width: 0.8"/>
      </g>
     </g>
     <g id="text_2">
      <!-- Jun 2024 -->
      <g transform="translate(80.258832 190.038842) rotate(-30) scale(0.08 -0.08)">
       <defs>
        <path id="DejaVuSerif-4a" d="M -538 -1119 
L -538 -384 
L -181 -384 
Q -172 -694 -34 -845 
Q 103 -997 378 -997 
Q 750 -997 897 -762 
Q 1044 -528 1044 153 
L 1044 4331 
L 319 4331 
L 319 4666 
L 2272 4666 
L 2272 4331 
L 1678 4331 
L 1678 128 
Q 1678 -644 1368 -987 
Q 1059 -1331 372 -1331 
Q 150 -1331 -79 -1278 
Q -309 -1225 -538 -1119 
z
" transform="scale(0.015625)"/>
        <path id="DejaVuSerif-75" d="M 2266 3322 
L 3341 3322 
L 3341 331 
L 3884 331 
L 3884 0 
L 2766 0 
L 2766 588 
Q 2606 256 2353 82 
Q 2100 -91 1766 -91 
Q 1213 -91 952 223 
Q 691 538 691 1209 
L 691 2988 
L 172 2988 
L 172 3322 
L 1269 3322 
L 1269 1388 
Q 1269 781 1417 556 
Q 1566 331 1947 331 
Q 2347 331 2556 625 
Q 2766 919 2766 1478 
L 2766 2988 
L 2266 2988 
L 2266 3322 
z
" transform="scale(0.015625)"/>
        <path id="DejaVuSerif-6e" d="M 263 0 
L 263 331 
L 781 331 
L 781 2988 
L 231 2988 
L 231 3322 
L 1356 3322 
L 1356 2731 
Q 1516 3069 1770 3241 
Q 2025 3413 2363 3413 
Q 2913 3413 3172 3097 
Q 3431 2781 3431 2113 
L 3431 331 
L 3944 331 
L 3944 0 
L 2356 0 
L 2356 331 
L 2853 331 
L 2853 1931 
Q 2853 2541 2703 2767 
Q 2553 2994 2175 2994 
Q 1775 2994 1565 2701 
Q 1356 2409 1356 1850 
L 1356 331 
L 1856 331 
L 1856 0 
L 263 0 
z
" transform="scale(0.015625)"/>
       </defs>
       <use xlink:href="#DejaVuSerif-4a"/>
       <use xlink:href="#DejaVuSerif-75" x="40.087891"/>
       <use xlink:href="#DejaVuSerif-6e" x="104.492188"/>
       <use xlink:href="#DejaVuSerif-20" x="168.896484"/>
       <use xlink:href="#DejaVuSerif-32" x="200.683594"/>
       <use xlink:href="#DejaVuSerif-30" x="264.306641"/>
       <use xlink:href="#DejaVuSerif-32" x="327.929688"/>
       <use xlink:href="#DejaVuSerif-34" x="391.552734"/>
      </g>
     </g>
    </g>
    <g id="xtick_3">
     <g id="line2d_5">
      <path d="M 148.023283 159.56699 
L 148.023283 25.158281 
" clip-path="url(#pad480ccb47)" style="fill: none; stroke: #b0b0b0; stroke-opacity: 0.25; stroke-width: 0.5; stroke-linecap: square"/>
     </g>
     <g id="line2d_6">
      <g>
       <use xlink:href="#m9ef0e01fdf" x="148.023283" y="159.56699" style="stroke: #000000; stroke-width: 0.8"/>
      </g>
     </g>
     <g id="text_3">
      <!-- Aug 2024 -->
      <g transform="translate(113.399596 191.209706) rotate(-30) scale(0.08 -0.08)">
       <defs>
        <path id="DejaVuSerif-67" d="M 3359 2988 
L 3359 72 
Q 3359 -644 2965 -1033 
Q 2572 -1422 1844 -1422 
Q 1516 -1422 1216 -1362 
Q 916 -1303 641 -1184 
L 641 -488 
L 941 -488 
Q 997 -813 1206 -963 
Q 1416 -1113 1806 -1113 
Q 2313 -1113 2548 -827 
Q 2784 -541 2784 72 
L 2784 519 
Q 2616 206 2355 57 
Q 2094 -91 1709 -91 
Q 1097 -91 708 395 
Q 319 881 319 1663 
Q 319 2444 706 2928 
Q 1094 3413 1709 3413 
Q 2094 3413 2355 3264 
Q 2616 3116 2784 2803 
L 2784 3322 
L 3909 3322 
L 3909 2988 
L 3359 2988 
z
M 2784 1825 
Q 2784 2422 2554 2737 
Q 2325 3053 1888 3053 
Q 1444 3053 1217 2703 
Q 991 2353 991 1663 
Q 991 975 1217 622 
Q 1444 269 1888 269 
Q 2325 269 2554 583 
Q 2784 897 2784 1497 
L 2784 1825 
z
" transform="scale(0.015625)"/>
       </defs>
       <use xlink:href="#DejaVuSerif-41"/>
       <use xlink:href="#DejaVuSerif-75" x="72.216797"/>
       <use xlink:href="#DejaVuSerif-67" x="136.621094"/>
       <use xlink:href="#DejaVuSerif-20" x="200.634766"/>
       <use xlink:href="#DejaVuSerif-32" x="232.421875"/>
       <use xlink:href="#DejaVuSerif-30" x="296.044922"/>
       <use xlink:href="#DejaVuSerif-32" x="359.667969"/>
       <use xlink:href="#DejaVuSerif-34" x="423.291016"/>
      </g>
     </g>
    </g>
    <g id="xtick_4">
     <g id="line2d_7">
      <path d="M 183.419545 159.56699 
L 183.419545 25.158281 
" clip-path="url(#pad480ccb47)" style="fill: none; stroke: #b0b0b0; stroke-opacity: 0.25; stroke-width: 0.5; stroke-linecap: square"/>
     </g>
     <g id="line2d_8">
      <g>
       <use xlink:href="#m9ef0e01fdf" x="183.419545" y="159.56699" style="stroke: #000000; stroke-width: 0.8"/>
      </g>
     </g>
     <g id="text_4">
      <!-- Oct 2024 -->
      <g transform="translate(150.409413 190.409467) rotate(-30) scale(0.08 -0.08)">
       <defs>
        <path id="DejaVuSerif-4f" d="M 2625 244 
Q 3391 244 3781 770 
Q 4172 1297 4172 2328 
Q 4172 3363 3781 3889 
Q 3391 4416 2625 4416 
Q 1856 4416 1465 3889 
Q 1075 3363 1075 2328 
Q 1075 1297 1465 770 
Q 1856 244 2625 244 
z
M 2625 -91 
Q 2150 -91 1751 65 
Q 1353 222 1050 525 
Q 700 875 529 1319 
Q 359 1763 359 2328 
Q 359 2894 529 3339 
Q 700 3784 1050 4134 
Q 1356 4441 1750 4595 
Q 2144 4750 2625 4750 
Q 3641 4750 4266 4084 
Q 4891 3419 4891 2328 
Q 4891 1769 4719 1320 
Q 4547 872 4197 525 
Q 3891 219 3497 64 
Q 3103 -91 2625 -91 
z
" transform="scale(0.015625)"/>
        <path id="DejaVuSerif-63" d="M 3291 997 
Q 3169 466 2822 187 
Q 2475 -91 1925 -91 
Q 1200 -91 759 389 
Q 319 869 319 1663 
Q 319 2459 759 2936 
Q 1200 3413 1925 3413 
Q 2241 3413 2553 3339 
Q 2866 3266 3181 3116 
L 3181 2266 
L 2847 2266 
Q 2781 2703 2561 2903 
Q 2341 3103 1931 3103 
Q 1466 3103 1228 2742 
Q 991 2381 991 1663 
Q 991 944 1227 581 
Q 1463 219 1931 219 
Q 2303 219 2525 412 
Q 2747 606 2828 997 
L 3291 997 
z
" transform="scale(0.015625)"/>
        <path id="DejaVuSerif-74" d="M 691 2988 
L 184 2988 
L 184 3322 
L 691 3322 
L 691 4353 
L 1269 4353 
L 1269 3322 
L 2350 3322 
L 2350 2988 
L 1269 2988 
L 1269 878 
Q 1269 456 1350 337 
Q 1431 219 1650 219 
Q 1875 219 1978 351 
Q 2081 484 2088 781 
L 2522 781 
Q 2497 328 2275 118 
Q 2053 -91 1600 -91 
Q 1103 -91 897 129 
Q 691 350 691 878 
L 691 2988 
z
" transform="scale(0.015625)"/>
       </defs>
       <use xlink:href="#DejaVuSerif-4f"/>
       <use xlink:href="#DejaVuSerif-63" x="81.982422"/>
       <use xlink:href="#DejaVuSerif-74" x="137.988281"/>
       <use xlink:href="#DejaVuSerif-20" x="178.173828"/>
       <use xlink:href="#DejaVuSerif-32" x="209.960938"/>
       <use xlink:href="#DejaVuSerif-30" x="273.583984"/>
       <use xlink:href="#DejaVuSerif-32" x="337.207031"/>
       <use xlink:href="#DejaVuSerif-34" x="400.830078"/>
      </g>
     </g>
    </g>
    <g id="xtick_5">
     <g id="line2d_9">
      <path d="M 218.815806 159.56699 
L 218.815806 25.158281 
" clip-path="url(#pad480ccb47)" style="fill: none; stroke: #b0b0b0; stroke-opacity: 0.25; stroke-width: 0.5; stroke-linecap: square"/>
     </g>
     <g id="line2d_10">
      <g>
       <use xlink:href="#m9ef0e01fdf" x="218.815806" y="159.56699" style="stroke: #000000; stroke-width: 0.8"/>
      </g>
     </g>
     <g id="text_5">
      <!-- Dec 2024 -->
      <g transform="translate(184.61489 191.096967) rotate(-30) scale(0.08 -0.08)">
       <defs>
        <path id="DejaVuSerif-44" d="M 1581 331 
L 2163 331 
Q 3072 331 3558 850 
Q 4044 1369 4044 2338 
Q 4044 3306 3559 3818 
Q 3075 4331 2163 4331 
L 1581 4331 
L 1581 331 
z
M 353 0 
L 353 331 
L 947 331 
L 947 4331 
L 353 4331 
L 353 4666 
L 2209 4666 
Q 3416 4666 4089 4050 
Q 4763 3434 4763 2338 
Q 4763 1238 4088 619 
Q 3413 0 2209 0 
L 353 0 
z
" transform="scale(0.015625)"/>
        <path id="DejaVuSerif-65" d="M 3469 1600 
L 991 1600 
L 991 1575 
Q 991 903 1244 561 
Q 1497 219 1991 219 
Q 2369 219 2611 417 
Q 2853 616 2950 1006 
L 3413 1006 
Q 3275 459 2904 184 
Q 2534 -91 1931 -91 
Q 1203 -91 761 389 
Q 319 869 319 1663 
Q 319 2450 753 2931 
Q 1188 3413 1894 3413 
Q 2647 3413 3050 2948 
Q 3453 2484 3469 1600 
z
M 2791 1931 
Q 2772 2513 2545 2808 
Q 2319 3103 1894 3103 
Q 1497 3103 1269 2806 
Q 1041 2509 991 1931 
L 2791 1931 
z
" transform="scale(0.015625)"/>
       </defs>
       <use xlink:href="#DejaVuSerif-44"/>
       <use xlink:href="#DejaVuSerif-65" x="80.175781"/>
       <use xlink:href="#DejaVuSerif-63" x="139.355469"/>
       <use xlink:href="#DejaVuSerif-20" x="195.361328"/>
       <use xlink:href="#DejaVuSerif-32" x="227.148438"/>
       <use xlink:href="#DejaVuSerif-30" x="290.771484"/>
       <use xlink:href="#DejaVuSerif-32" x="354.394531"/>
       <use xlink:href="#DejaVuSerif-34" x="418.017578"/>
      </g>
     </g>
    </g>
    <g id="xtick_6">
     <g id="line2d_11">
      <path d="M 254.792334 159.56699 
L 254.792334 25.158281 
" clip-path="url(#pad480ccb47)" style="fill: none; stroke: #b0b0b0; stroke-opacity: 0.25; stroke-width: 0.5; stroke-linecap: square"/>
     </g>
     <g id="line2d_12">
      <g>
       <use xlink:href="#m9ef0e01fdf" x="254.792334" y="159.56699" style="stroke: #000000; stroke-width: 0.8"/>
      </g>
     </g>
     <g id="text_6">
      <!-- Feb 2025 -->
      <g transform="translate(221.164077 190.766342) rotate(-30) scale(0.08 -0.08)">
       <defs>
        <path id="DejaVuSerif-46" d="M 353 0 
L 353 331 
L 947 331 
L 947 4331 
L 353 4331 
L 353 4666 
L 4172 4666 
L 4172 3628 
L 3788 3628 
L 3788 4281 
L 1581 4281 
L 1581 2719 
L 3175 2719 
L 3175 3303 
L 3559 3303 
L 3559 1753 
L 3175 1753 
L 3175 2338 
L 1581 2338 
L 1581 331 
L 2328 331 
L 2328 0 
L 353 0 
z
" transform="scale(0.015625)"/>
        <path id="DejaVuSerif-62" d="M 738 331 
L 738 4531 
L 184 4531 
L 184 4863 
L 1313 4863 
L 1313 2803 
Q 1481 3116 1742 3264 
Q 2003 3413 2388 3413 
Q 3000 3413 3387 2928 
Q 3775 2444 3775 1663 
Q 3775 881 3387 395 
Q 3000 -91 2388 -91 
Q 2003 -91 1742 57 
Q 1481 206 1313 519 
L 1313 0 
L 184 0 
L 184 331 
L 738 331 
z
M 1313 1497 
Q 1313 897 1542 583 
Q 1772 269 2209 269 
Q 2650 269 2876 622 
Q 3103 975 3103 1663 
Q 3103 2353 2876 2703 
Q 2650 3053 2209 3053 
Q 1772 3053 1542 2737 
Q 1313 2422 1313 1825 
L 1313 1497 
z
" transform="scale(0.015625)"/>
        <path id="DejaVuSerif-35" d="M 3219 4666 
L 3219 4153 
L 1081 4153 
L 1081 2816 
Q 1244 2928 1461 2984 
Q 1678 3041 1947 3041 
Q 2703 3041 3140 2622 
Q 3578 2203 3578 1478 
Q 3578 738 3136 323 
Q 2694 -91 1894 -91 
Q 1572 -91 1234 -12 
Q 897 66 544 225 
L 544 1131 
L 897 1131 
Q 925 688 1179 453 
Q 1434 219 1894 219 
Q 2388 219 2653 544 
Q 2919 869 2919 1478 
Q 2919 2084 2655 2407 
Q 2391 2731 1894 2731 
Q 1613 2731 1398 2631 
Q 1184 2531 1019 2322 
L 750 2322 
L 750 4666 
L 3219 4666 
z
" transform="scale(0.015625)"/>
       </defs>
       <use xlink:href="#DejaVuSerif-46"/>
       <use xlink:href="#DejaVuSerif-65" x="63.884766"/>
       <use xlink:href="#DejaVuSerif-62" x="123.064453"/>
       <use xlink:href="#DejaVuSerif-20" x="187.078125"/>
       <use xlink:href="#DejaVuSerif-32" x="218.865234"/>
       <use xlink:href="#DejaVuSerif-30" x="282.488281"/>
       <use xlink:href="#DejaVuSerif-32" x="346.111328"/>
       <use xlink:href="#DejaVuSerif-35" x="409.734375"/>
      </g>
     </g>
    </g>
    <g id="xtick_7">
     <g id="line2d_13">
      <path d="M 289.028062 159.56699 
L 289.028062 25.158281 
" clip-path="url(#pad480ccb47)" style="fill: none; stroke: #b0b0b0; stroke-opacity: 0.25; stroke-width: 0.5; stroke-linecap: square"/>
     </g>
     <g id="line2d_14">
      <g>
       <use xlink:href="#m9ef0e01fdf" x="289.028062" y="159.56699" style="stroke: #000000; stroke-width: 0.8"/>
      </g>
     </g>
     <g id="text_7">
      <!-- Apr 2025 -->
      <g transform="translate(255.611981 190.643842) rotate(-30) scale(0.08 -0.08)">
       <use xlink:href="#DejaVuSerif-41"/>
       <use xlink:href="#DejaVuSerif-70" x="72.216797"/>
       <use xlink:href="#DejaVuSerif-72" x="136.230469"/>
       <use xlink:href="#DejaVuSerif-20" x="184.033203"/>
       <use xlink:href="#DejaVuSerif-32" x="215.820312"/>
       <use xlink:href="#DejaVuSerif-30" x="279.443359"/>
       <use xlink:href="#DejaVuSerif-32" x="343.066406"/>
       <use xlink:href="#DejaVuSerif-35" x="406.689453"/>
      </g>
     </g>
    </g>
    <g id="xtick_8">
     <g id="line2d_15">
      <path d="M 324.424323 159.56699 
L 324.424323 25.158281 
" clip-path="url(#pad480ccb47)" style="fill: none; stroke: #b0b0b0; stroke-opacity: 0.25; stroke-width: 0.5; stroke-linecap: square"/>
     </g>
     <g id="line2d_16">
      <g>
       <use xlink:href="#m9ef0e01fdf" x="324.424323" y="159.56699" style="stroke: #000000; stroke-width: 0.8"/>
      </g>
     </g>
     <g id="text_8">
      <!-- Jun 2025 -->
      <g transform="translate(292.056133 190.038842) rotate(-30) scale(0.08 -0.08)">
       <use xlink:href="#DejaVuSerif-4a"/>
       <use xlink:href="#DejaVuSerif-75" x="40.087891"/>
       <use xlink:href="#DejaVuSerif-6e" x="104.492188"/>
       <use xlink:href="#DejaVuSerif-20" x="168.896484"/>
       <use xlink:href="#DejaVuSerif-32" x="200.683594"/>
       <use xlink:href="#DejaVuSerif-30" x="264.306641"/>
       <use xlink:href="#DejaVuSerif-32" x="327.929688"/>
       <use xlink:href="#DejaVuSerif-35" x="391.552734"/>
      </g>
     </g>
    </g>
    <g id="xtick_9">
     <g id="line2d_17">
      <path d="M 359.820584 159.56699 
L 359.820584 25.158281 
" clip-path="url(#pad480ccb47)" style="fill: none; stroke: #b0b0b0; stroke-opacity: 0.25; stroke-width: 0.5; stroke-linecap: square"/>
     </g>
     <g id="line2d_18">
      <g>
       <use xlink:href="#m9ef0e01fdf" x="359.820584" y="159.56699" style="stroke: #000000; stroke-width: 0.8"/>
      </g>
     </g>
     <g id="text_9">
      <!-- Aug 2025 -->
      <g transform="translate(325.196897 191.209706) rotate(-30) scale(0.08 -0.08)">
       <use xlink:href="#DejaVuSerif-41"/>
       <use xlink:href="#DejaVuSerif-75" x="72.216797"/>
       <use xlink:href="#DejaVuSerif-67" x="136.621094"/>
       <use xlink:href="#DejaVuSerif-20" x="200.634766"/>
       <use xlink:href="#DejaVuSerif-32" x="232.421875"/>
       <use xlink:href="#DejaVuSerif-30" x="296.044922"/>
       <use xlink:href="#DejaVuSerif-32" x="359.667969"/>
       <use xlink:href="#DejaVuSerif-35" x="423.291016"/>
      </g>
     </g>
    </g>
    <g id="xtick_10">
     <g id="line2d_19">
      <path d="M 395.216845 159.56699 
L 395.216845 25.158281 
" clip-path="url(#pad480ccb47)" style="fill: none; stroke: #b0b0b0; stroke-opacity: 0.25; stroke-width: 0.5; stroke-linecap: square"/>
     </g>
     <g id="line2d_20">
      <g>
       <use xlink:href="#m9ef0e01fdf" x="395.216845" y="159.56699" style="stroke: #000000; stroke-width: 0.8"/>
      </g>
     </g>
     <g id="text_10">
      <!-- Oct 2025 -->
      <g transform="translate(362.206714 190.409467) rotate(-30) scale(0.08 -0.08)">
       <use xlink:href="#DejaVuSerif-4f"/>
       <use xlink:href="#DejaVuSerif-63" x="81.982422"/>
       <use xlink:href="#DejaVuSerif-74" x="137.988281"/>
       <use xlink:href="#DejaVuSerif-20" x="178.173828"/>
       <use xlink:href="#DejaVuSerif-32" x="209.960938"/>
       <use xlink:href="#DejaVuSerif-30" x="273.583984"/>
       <use xlink:href="#DejaVuSerif-32" x="337.207031"/>
       <use xlink:href="#DejaVuSerif-35" x="400.830078"/>
      </g>
     </g>
    </g>
    <g id="xtick_11">
     <g id="line2d_21">
      <path d="M 430.613107 159.56699 
L 430.613107 25.158281 
" clip-path="url(#pad480ccb47)" style="fill: none; stroke: #b0b0b0; stroke-opacity: 0.25; stroke-width: 0.5; stroke-linecap: square"/>
     </g>
     <g id="line2d_22">
      <g>
       <use xlink:href="#m9ef0e01fdf" x="430.613107" y="159.56699" style="stroke: #000000; stroke-width: 0.8"/>
      </g>
     </g>
     <g id="text_11">
      <!-- Dec 2025 -->
      <g transform="translate(396.41219 191.096967) rotate(-30) scale(0.08 -0.08)">
       <use xlink:href="#DejaVuSerif-44"/>
       <use xlink:href="#DejaVuSerif-65" x="80.175781"/>
       <use xlink:href="#DejaVuSerif-63" x="139.355469"/>
       <use xlink:href="#DejaVuSerif-20" x="195.361328"/>
       <use xlink:href="#DejaVuSerif-32" x="227.148438"/>
       <use xlink:href="#DejaVuSerif-30" x="290.771484"/>
       <use xlink:href="#DejaVuSerif-32" x="354.394531"/>
       <use xlink:href="#DejaVuSerif-35" x="418.017578"/>
      </g>
     </g>
    </g>
    <g id="xtick_12">
     <g id="line2d_23">
      <path d="M 466.589634 159.56699 
L 466.589634 25.158281 
" clip-path="url(#pad480ccb47)" style="fill: none; stroke: #b0b0b0; stroke-opacity: 0.25; stroke-width: 0.5; stroke-linecap: square"/>
     </g>
     <g id="line2d_24">
      <g>
       <use xlink:href="#m9ef0e01fdf" x="466.589634" y="159.56699" style="stroke: #000000; stroke-width: 0.8"/>
      </g>
     </g>
     <g id="text_12">
      <!-- Feb 2026 -->
      <g transform="translate(432.961377 190.766342) rotate(-30) scale(0.08 -0.08)">
       <defs>
        <path id="DejaVuSerif-36" d="M 2094 219 
Q 2534 219 2771 542 
Q 3009 866 3009 1472 
Q 3009 2078 2771 2401 
Q 2534 2725 2094 2725 
Q 1647 2725 1412 2412 
Q 1178 2100 1178 1509 
Q 1178 888 1415 553 
Q 1653 219 2094 219 
z
M 1075 2569 
Q 1288 2803 1556 2918 
Q 1825 3034 2163 3034 
Q 2859 3034 3264 2615 
Q 3669 2197 3669 1472 
Q 3669 763 3233 336 
Q 2797 -91 2069 -91 
Q 1278 -91 853 498 
Q 428 1088 428 2181 
Q 428 3406 931 4078 
Q 1434 4750 2350 4750 
Q 2597 4750 2869 4703 
Q 3141 4656 3425 4563 
L 3425 3794 
L 3072 3794 
Q 3034 4109 2831 4275 
Q 2628 4441 2284 4441 
Q 1678 4441 1381 3981 
Q 1084 3522 1075 2569 
z
" transform="scale(0.015625)"/>
       </defs>
       <use xlink:href="#DejaVuSerif-46"/>
       <use xlink:href="#DejaVuSerif-65" x="63.884766"/>
       <use xlink:href="#DejaVuSerif-62" x="123.064453"/>
       <use xlink:href="#DejaVuSerif-20" x="187.078125"/>
       <use xlink:href="#DejaVuSerif-32" x="218.865234"/>
       <use xlink:href="#DejaVuSerif-30" x="282.488281"/>
       <use xlink:href="#DejaVuSerif-32" x="346.111328"/>
       <use xlink:href="#DejaVuSerif-36" x="409.734375"/>
      </g>
     </g>
    </g>
   </g>
   <g id="matplotlib.axis_2">
    <g id="ytick_1">
     <g id="line2d_25">
      <path d="M 45.780313 138.598583 
L 495.13875 138.598583 
" clip-path="url(#pad480ccb47)" style="fill: none; stroke: #b0b0b0; stroke-opacity: 0.25; stroke-width: 0.5; stroke-linecap: square"/>
     </g>
     <g id="line2d_26">
      <defs>
       <path id="m96a9cbe607" d="M 0 0 
L -3.5 0 
" style="stroke: #000000; stroke-width: 0.8"/>
      </defs>
      <g>
       <use xlink:href="#m96a9cbe607" x="45.780313" y="138.598583" style="stroke: #000000; stroke-width: 0.8"/>
      </g>
     </g>
     <g id="text_13">
      <!-- 20 -->
      <g transform="translate(28.600313 141.637958) scale(0.08 -0.08)">
       <use xlink:href="#DejaVuSerif-32"/>
       <use xlink:href="#DejaVuSerif-30" x="63.623047"/>
      </g>
     </g>
    </g>
    <g id="ytick_2">
     <g id="line2d_27">
      <path d="M 45.780313 112.645373 
L 495.13875 112.645373 
" clip-path="url(#pad480ccb47)" style="fill: none; stroke: #b0b0b0; stroke-opacity: 0.25; stroke-width: 0.5; stroke-linecap: square"/>
     </g>
     <g id="line2d_28">
      <g>
       <use xlink:href="#m96a9cbe607" x="45.780313" y="112.645373" style="stroke: #000000; stroke-width: 0.8"/>
      </g>
     </g>
     <g id="text_14">
      <!-- 40 -->
      <g transform="translate(28.600313 115.684748) scale(0.08 -0.08)">
       <use xlink:href="#DejaVuSerif-34"/>
       <use xlink:href="#DejaVuSerif-30" x="63.623047"/>
      </g>
     </g>
    </g>
    <g id="ytick_3">
     <g id="line2d_29">
      <path d="M 45.780313 86.692162 
L 495.13875 86.692162 
" clip-path="url(#pad480ccb47)" style="fill: none; stroke: #b0b0b0; stroke-opacity: 0.25; stroke-width: 0.5; stroke-linecap: square"/>
     </g>
     <g id="line2d_30">
      <g>
       <use xlink:href="#m96a9cbe607" x="45.780313" y="86.692162" style="stroke: #000000; stroke-width: 0.8"/>
      </g>
     </g>
     <g id="text_15">
      <!-- 60 -->
      <g transform="translate(28.600313 89.731537) scale(0.08 -0.08)">
       <use xlink:href="#DejaVuSerif-36"/>
       <use xlink:href="#DejaVuSerif-30" x="63.623047"/>
      </g>
     </g>
    </g>
    <g id="ytick_4">
     <g id="line2d_31">
      <path d="M 45.780313 60.738952 
L 495.13875 60.738952 
" clip-path="url(#pad480ccb47)" style="fill: none; stroke: #b0b0b0; stroke-opacity: 0.25; stroke-width: 0.5; stroke-linecap: square"/>
     </g>
     <g id="line2d_32">
      <g>
       <use xlink:href="#m96a9cbe607" x="45.780313" y="60.738952" style="stroke: #000000; stroke-width: 0.8"/>
      </g>
     </g>
     <g id="text_16">
      <!-- 80 -->
      <g transform="translate(28.600313 63.778327) scale(0.08 -0.08)">
       <defs>
        <path id="DejaVuSerif-38" d="M 2981 1275 
Q 2981 1775 2732 2051 
Q 2484 2328 2034 2328 
Q 1584 2328 1336 2051 
Q 1088 1775 1088 1275 
Q 1088 772 1336 495 
Q 1584 219 2034 219 
Q 2484 219 2732 495 
Q 2981 772 2981 1275 
z
M 2853 3541 
Q 2853 3966 2637 4203 
Q 2422 4441 2034 4441 
Q 1650 4441 1433 4203 
Q 1216 3966 1216 3541 
Q 1216 3113 1433 2875 
Q 1650 2638 2034 2638 
Q 2422 2638 2637 2875 
Q 2853 3113 2853 3541 
z
M 2516 2484 
Q 3047 2413 3344 2092 
Q 3641 1772 3641 1275 
Q 3641 619 3225 264 
Q 2809 -91 2034 -91 
Q 1263 -91 845 264 
Q 428 619 428 1275 
Q 428 1772 725 2092 
Q 1022 2413 1556 2484 
Q 1084 2569 832 2842 
Q 581 3116 581 3541 
Q 581 4103 968 4426 
Q 1356 4750 2034 4750 
Q 2713 4750 3100 4426 
Q 3488 4103 3488 3541 
Q 3488 3116 3236 2842 
Q 2984 2569 2516 2484 
z
" transform="scale(0.015625)"/>
       </defs>
       <use xlink:href="#DejaVuSerif-38"/>
       <use xlink:href="#DejaVuSerif-30" x="63.623047"/>
      </g>
     </g>
    </g>
    <g id="ytick_5">
     <g id="line2d_33">
      <path d="M 45.780313 34.785741 
L 495.13875 34.785741 
" clip-path="url(#pad480ccb47)" style="fill: none; stroke: #b0b0b0; stroke-opacity: 0.25; stroke-width: 0.5; stroke-linecap: square"/>
     </g>
     <g id="line2d_34">
      <g>
       <use xlink:href="#m96a9cbe607" x="45.780313" y="34.785741" style="stroke: #000000; stroke-width: 0.8"/>
      </g>
     </g>
     <g id="text_17">
      <!-- 100 -->
      <g transform="translate(23.510313 37.825116) scale(0.08 -0.08)">
       <defs>
        <path id="DejaVuSerif-31" d="M 909 0 
L 909 331 
L 1722 331 
L 1722 4213 
L 781 3603 
L 781 4013 
L 1919 4750 
L 2350 4750 
L 2350 331 
L 3163 331 
L 3163 0 
L 909 0 
z
" transform="scale(0.015625)"/>
       </defs>
       <use xlink:href="#DejaVuSerif-31"/>
       <use xlink:href="#DejaVuSerif-30" x="63.623047"/>
       <use xlink:href="#DejaVuSerif-30" x="127.246094"/>
      </g>
     </g>
    </g>
    <g id="text_18">
     <!-- % -->
     <g transform="translate(17.638594 96.638339) rotate(-90) scale(0.09 -0.09)">
      <defs>
       <path id="DejaVuSerif-25" d="M 1434 4459 
Q 1159 4459 1004 4200 
Q 850 3941 850 3475 
Q 850 3016 1008 2753 
Q 1166 2491 1434 2491 
Q 1700 2491 1854 2752 
Q 2009 3013 2009 3475 
Q 2009 3938 1854 4198 
Q 1700 4459 1434 4459 
z
M 4653 2169 
Q 4381 2169 4226 1906 
Q 4072 1644 4072 1178 
Q 4072 719 4228 458 
Q 4384 197 4653 197 
Q 4922 197 5075 458 
Q 5228 719 5228 1178 
Q 5228 1641 5073 1905 
Q 4919 2169 4653 2169 
z
M 4653 2450 
Q 5147 2450 5437 2106 
Q 5728 1763 5728 1178 
Q 5728 594 5436 251 
Q 5144 -91 4653 -91 
Q 4153 -91 3862 251 
Q 3572 594 3572 1178 
Q 3572 1766 3864 2108 
Q 4156 2450 4653 2450 
z
M 4263 4750 
L 4738 4750 
L 1819 -91 
L 1344 -91 
L 4263 4750 
z
M 1428 4750 
Q 1922 4750 2215 4408 
Q 2509 4066 2509 3481 
Q 2509 2891 2217 2550 
Q 1925 2209 1428 2209 
Q 931 2209 642 2551 
Q 353 2894 353 3481 
Q 353 4063 643 4406 
Q 934 4750 1428 4750 
z
" transform="scale(0.015625)"/>
      </defs>
      <use xlink:href="#DejaVuSerif-25"/>
     </g>
    </g>
   </g>
   <g id="line2d_35">
    <path d="M 66.205696 153.457503 
L 66.785963 130.613825 
L 67.366229 142.468671 
L 67.946496 144.114828 
L 68.526762 145.2228 
L 69.107029 145.469087 
L 69.687295 143.914514 
L 70.267562 141.85275 
L 70.847829 143.714337 
L 71.428095 144.415682 
L 72.008362 145.408871 
L 72.588628 145.840278 
L 73.168895 143.229163 
L 73.749162 139.706023 
L 74.909695 99.644149 
L 75.489961 99.641437 
L 76.070228 99.766121 
L 76.650494 99.595722 
L 77.811028 99.638404 
L 78.391294 100.019601 
L 78.971561 112.65869 
L 79.551827 120.54544 
L 80.132094 133.407699 
L 80.71236 134.164424 
L 81.292627 133.895913 
L 81.872894 131.219979 
L 82.45316 132.468675 
L 83.033427 120.699797 
L 83.613693 118.73794 
L 84.19396 135.636863 
L 84.774226 132.774209 
L 85.354493 132.964722 
L 85.93476 131.649343 
L 86.515026 133.892184 
L 87.095293 135.612077 
L 87.675559 137.917263 
L 88.255826 139.28169 
L 88.836093 139.248018 
L 89.416359 136.027461 
L 89.996626 135.270551 
L 90.576892 134.714875 
L 91.157159 132.864243 
L 91.737425 132.580184 
L 92.317692 136.009436 
L 92.897959 136.34323 
L 93.478225 132.318995 
L 94.058492 131.01213 
L 94.638758 132.810479 
L 95.219025 131.065831 
L 95.799291 131.077728 
L 96.379558 134.55348 
L 96.959825 135.178562 
L 97.540091 131.343159 
L 98.120358 125.93008 
L 98.700624 128.156656 
L 99.280891 124.229727 
L 99.861158 127.718529 
L 100.441424 133.346753 
L 101.021691 132.662393 
L 102.182224 130.027717 
L 102.76249 133.830115 
L 103.342757 131.466528 
L 103.923024 130.162428 
L 104.50329 132.509784 
L 105.083557 132.185881 
L 105.663823 130.431828 
L 106.24409 126.698072 
L 106.824356 126.910796 
L 107.404623 126.361133 
L 107.98489 127.100685 
L 108.565156 129.248461 
L 109.145423 129.893142 
L 110.886222 111.426887 
L 111.466489 113.62113 
L 112.046756 113.300519 
L 112.627022 115.417192 
L 113.207289 116.449017 
L 113.787555 111.736865 
L 114.948089 108.292079 
L 115.528355 107.531728 
L 116.108622 111.844527 
L 116.688888 115.261585 
L 117.269155 112.622403 
L 117.849421 110.688065 
L 118.429688 108.260046 
L 119.009955 108.082888 
L 119.590221 107.238303 
L 120.170488 108.383857 
L 120.750754 110.284117 
L 121.331021 113.684636 
L 121.911287 104.64767 
L 122.491554 105.42645 
L 123.071821 106.706537 
L 123.652087 101.732292 
L 124.232354 99.671789 
L 124.81262 105.180102 
L 125.392887 104.775428 
L 125.973153 103.237591 
L 126.55342 105.518084 
L 127.133687 102.519839 
L 128.29422 107.712342 
L 128.874486 111.97693 
L 129.454753 111.973545 
L 130.615286 102.95027 
L 131.195553 105.888649 
L 131.775819 105.442193 
L 132.356086 105.41824 
L 133.516619 108.61888 
L 134.096886 102.799089 
L 134.677152 100.895827 
L 135.837685 114.12343 
L 136.417952 115.015297 
L 136.998218 116.548757 
L 137.578485 109.640556 
L 138.158752 110.967348 
L 138.739018 111.852991 
L 139.319285 111.787385 
L 139.899551 107.838417 
L 140.479818 110.766069 
L 141.060085 111.208761 
L 141.640351 112.462476 
L 142.800884 106.17669 
L 143.381151 105.314971 
L 143.961417 106.285109 
L 144.541684 109.718387 
L 145.121951 110.888823 
L 145.702217 114.035982 
L 146.282484 110.346905 
L 146.86275 113.001643 
L 147.443017 112.505294 
L 148.60355 108.060559 
L 149.183817 114.070113 
L 149.764083 115.207068 
L 150.34435 111.826604 
L 150.924616 106.787424 
L 151.504883 110.342362 
L 152.085149 110.432869 
L 152.665416 112.380458 
L 153.245683 115.866901 
L 153.825949 113.819352 
L 154.406216 108.914923 
L 154.986482 109.120125 
L 155.566749 114.178818 
L 156.147016 114.296853 
L 156.727282 114.592316 
L 157.307549 114.236319 
L 157.887815 113.732485 
L 158.468082 114.624107 
L 159.048348 109.813256 
L 159.628615 110.259017 
L 160.208882 113.172848 
L 160.789148 113.507698 
L 161.369415 113.495356 
L 161.949681 117.252022 
L 162.529948 115.684007 
L 163.110214 114.845872 
L 163.690481 108.529498 
L 164.270748 111.942299 
L 164.851014 116.237797 
L 165.431281 121.516918 
L 166.011547 120.119057 
L 166.591814 116.98599 
L 167.17208 118.708361 
L 167.752347 119.434018 
L 168.332614 118.324448 
L 168.91288 118.043684 
L 169.493147 119.732888 
L 170.073413 120.477739 
L 170.65368 118.125309 
L 171.233947 116.833013 
L 171.814213 114.84015 
L 172.39448 116.876585 
L 172.974746 118.155482 
L 173.555013 120.637394 
L 174.135279 120.042839 
L 174.715546 119.276691 
L 175.295813 120.796924 
L 175.876079 119.053573 
L 177.036612 114.092256 
L 177.616879 115.214321 
L 178.197145 118.257171 
L 178.777412 116.239015 
L 179.357679 118.171039 
L 179.937945 119.003468 
L 180.518212 118.648402 
L 181.098478 116.524125 
L 182.259011 119.55247 
L 182.839278 117.475895 
L 183.419545 118.179185 
L 183.999811 114.792468 
L 184.580078 114.086211 
L 185.160344 116.318645 
L 185.740611 120.54318 
L 186.320878 123.268901 
L 186.901144 119.828474 
L 187.481411 117.677758 
L 188.061677 116.190745 
L 188.641944 108.835285 
L 189.22221 113.478555 
L 189.802477 115.894064 
L 190.96301 111.554165 
L 191.543277 106.026827 
L 192.123543 106.931364 
L 192.70381 106.301375 
L 193.284076 110.491657 
L 193.864343 120.310214 
L 195.024876 114.236007 
L 195.605143 103.754364 
L 196.185409 105.398971 
L 196.765676 105.83561 
L 197.345943 104.153547 
L 197.926209 105.531801 
L 198.506476 109.123341 
L 199.667009 99.683854 
L 201.407809 99.671784 
L 201.988075 101.12593 
L 202.568342 98.860031 
L 203.148608 100.594935 
L 203.728875 98.560198 
L 204.309141 100.230447 
L 204.889408 100.535808 
L 205.469675 101.013321 
L 206.049941 99.650679 
L 206.630208 98.71598 
L 207.790741 100.532425 
L 208.371007 100.996544 
L 208.951274 99.985977 
L 209.531541 98.502806 
L 210.111807 99.409428 
L 211.27234 100.154071 
L 211.852607 99.994268 
L 212.432874 100.197377 
L 213.01314 98.938082 
L 214.173673 99.991569 
L 214.75394 98.802574 
L 215.334206 99.765468 
L 215.914473 99.659714 
L 216.49474 100.216036 
L 217.075006 99.407167 
L 217.655273 103.503934 
L 218.235539 98.490065 
L 218.815806 100.371396 
L 219.396072 98.943209 
L 219.976339 100.883738 
L 220.556606 98.083603 
L 221.136872 99.756439 
L 221.717139 99.789559 
L 222.297405 99.992291 
L 222.877672 100.042803 
L 223.457938 99.385304 
L 224.038205 99.185197 
L 224.618472 101.412399 
L 225.198738 98.389095 
L 225.779005 99.523818 
L 226.359271 100.082247 
L 226.939538 99.200571 
L 227.519805 99.765252 
L 228.100071 100.965825 
L 228.680338 98.937061 
L 229.260604 99.686899 
L 229.840871 99.943414 
L 230.421137 99.708151 
L 231.001404 100.336605 
L 231.581671 98.597371 
L 232.161937 100.125712 
L 232.742204 99.641582 
L 233.32247 99.342221 
L 233.902737 99.717111 
L 234.483003 99.69593 
L 235.06327 99.415389 
L 235.643537 99.714058 
L 236.223803 101.364285 
L 236.80407 100.395926 
L 237.384336 101.115838 
L 237.964603 99.868017 
L 238.544869 99.167344 
L 239.125136 103.544998 
L 239.705403 97.963706 
L 240.285669 99.894935 
L 240.865936 99.49075 
L 241.446202 100.143072 
L 242.026469 99.638553 
L 242.606736 99.502633 
L 243.187002 99.888904 
L 243.767269 99.907664 
L 244.347535 98.870988 
L 244.927802 99.756317 
L 246.088335 99.596293 
L 246.668602 100.082535 
L 247.248868 100.097696 
L 247.829135 99.002326 
L 248.409401 99.587199 
L 248.989668 99.563134 
L 249.569934 100.197008 
L 250.150201 99.074368 
L 250.730468 100.260645 
L 251.310734 100.287736 
L 251.891001 98.402581 
L 252.471267 99.922429 
L 253.631801 100.021885 
L 254.792334 99.614404 
L 255.952867 99.342403 
L 256.533133 99.499447 
L 257.1134 100.752415 
L 257.693667 99.56917 
L 258.273933 99.765306 
L 258.8542 100.227739 
L 259.434466 99.913267 
L 260.014733 98.925901 
L 260.594999 99.569101 
L 261.175266 99.480569 
L 262.335799 100.588126 
L 262.916066 102.243707 
L 263.496332 100.162301 
L 264.076599 99.287316 
L 264.656865 99.566081 
L 265.817399 99.411223 
L 266.397665 99.143325 
L 266.977932 101.016908 
L 267.558198 101.086431 
L 268.138465 97.909781 
L 268.718732 100.275828 
L 269.298998 99.318668 
L 269.879265 101.052915 
L 270.459531 99.309864 
L 271.039798 103.637812 
L 271.620064 101.043676 
L 272.200331 99.481619 
L 272.780598 99.94945 
L 273.360864 100.858561 
L 274.521397 98.933935 
L 275.101664 101.123313 
L 275.68193 98.992147 
L 276.262197 99.659702 
L 276.842464 99.862169 
L 277.42273 99.701994 
L 278.002997 100.537615 
L 278.583263 99.251921 
L 279.16353 100.86645 
L 279.743796 98.95902 
L 280.324063 99.318424 
L 280.90433 101.349644 
L 281.484596 101.418198 
L 282.064863 102.806321 
L 282.645129 100.973782 
L 283.225396 101.789897 
L 283.805663 105.672769 
L 284.385929 102.388072 
L 284.966196 101.060198 
L 286.126729 99.297334 
L 287.287262 99.94089 
L 287.867529 100.667061 
L 288.447795 99.750302 
L 289.028062 100.66186 
L 289.608328 102.268915 
L 290.188595 100.324518 
L 291.349128 106.425337 
L 291.929395 102.70964 
L 292.509661 100.727465 
L 293.089928 121.328623 
L 293.670194 121.234095 
L 294.250461 121.776589 
L 294.830727 120.900619 
L 295.410994 121.927263 
L 295.991261 122.640638 
L 296.571527 120.419428 
L 297.151794 121.852393 
L 297.73206 120.976748 
L 298.312327 120.923951 
L 298.892594 121.342701 
L 299.47286 123.270002 
L 300.053127 123.087417 
L 301.21366 120.216718 
L 301.793926 122.264516 
L 302.374193 120.953818 
L 302.95446 121.157746 
L 303.534726 121.768488 
L 304.114993 120.487162 
L 304.695259 121.296443 
L 305.275526 121.340795 
L 305.855792 121.258091 
L 306.436059 121.431875 
L 307.016326 122.104784 
L 307.596592 120.552226 
L 308.176859 121.583478 
L 308.757125 122.180688 
L 309.337392 121.116314 
L 309.917659 119.71488 
L 310.497925 114.524449 
L 311.078192 113.496465 
L 311.658458 113.564516 
L 312.238725 112.668494 
L 312.818991 108.057703 
L 313.399258 109.605917 
L 313.979525 110.529287 
L 314.559791 112.404221 
L 315.140058 112.501391 
L 315.720324 115.714651 
L 316.300591 114.075074 
L 316.880857 114.103414 
L 317.461124 111.475883 
L 318.041391 106.381223 
L 318.621657 106.845732 
L 319.201924 107.009124 
L 319.78219 107.421437 
L 320.362457 109.500631 
L 320.942723 108.662114 
L 321.52299 110.097314 
L 322.103257 102.959474 
L 322.683523 104.970203 
L 323.26379 103.830649 
L 323.844056 112.269292 
L 324.424323 115.489096 
L 325.00459 113.364172 
L 325.584856 104.204025 
L 326.165123 106.898189 
L 326.745389 105.641779 
L 327.325656 105.284013 
L 327.905922 112.016943 
L 328.486189 107.758616 
L 329.066456 107.384505 
L 329.646722 103.11219 
L 330.226989 103.734605 
L 330.807255 101.08686 
L 331.967788 104.622278 
L 332.548055 109.555185 
L 333.128322 101.87139 
L 333.708588 104.779552 
L 334.288855 103.187208 
L 334.869121 110.418165 
L 335.449388 105.692086 
L 336.029654 108.363371 
L 336.609921 108.704518 
L 337.190188 108.269424 
L 337.770454 110.054155 
L 338.350721 108.764086 
L 338.930987 107.947145 
L 339.511254 110.890171 
L 340.091521 111.237153 
L 340.671787 111.932528 
L 341.252054 106.888059 
L 341.83232 106.992937 
L 342.412587 106.698669 
L 342.992853 109.1843 
L 343.57312 108.161689 
L 344.153387 108.651299 
L 344.733653 109.803212 
L 345.31392 111.680785 
L 345.894186 111.038981 
L 346.474453 109.227247 
L 347.054719 103.51134 
L 347.634986 105.710237 
L 348.215253 106.604237 
L 349.375786 106.82969 
L 349.956052 105.894505 
L 350.536319 103.682389 
L 351.116586 102.249377 
L 351.696852 101.406221 
L 352.277119 103.646549 
L 352.857385 101.7261 
L 353.437652 101.075568 
L 354.017918 96.155443 
L 354.598185 100.711903 
L 355.178452 101.324832 
L 355.758718 102.379291 
L 356.338985 104.138427 
L 356.919251 103.497129 
L 357.499518 100.535004 
L 358.079784 103.119638 
L 358.660051 106.825533 
L 359.240318 105.555477 
L 359.820584 102.666224 
L 360.400851 105.76702 
L 360.981117 109.764499 
L 361.561384 106.467474 
L 362.14165 105.665884 
L 362.721917 104.066405 
L 363.302184 104.77589 
L 363.88245 100.913613 
L 364.462717 101.963801 
L 365.042983 105.014493 
L 366.203517 106.805548 
L 366.783783 105.797364 
L 367.36405 102.334143 
L 367.944316 106.562143 
L 368.524583 106.696831 
L 369.104849 105.961642 
L 369.685116 104.154798 
L 370.265383 104.832566 
L 370.845649 104.333797 
L 371.425916 106.595949 
L 372.006182 104.873364 
L 372.586449 105.63919 
L 373.166715 106.12632 
L 373.746982 100.022792 
L 374.327249 100.750101 
L 374.907515 97.856651 
L 376.068048 101.506768 
L 376.648315 104.460853 
L 377.228581 109.747997 
L 378.389115 103.619277 
L 378.969381 102.59893 
L 379.549648 101.087653 
L 380.129914 101.47661 
L 380.710181 104.821961 
L 381.290448 100.767115 
L 381.870714 94.801861 
L 382.450981 96.701209 
L 383.031247 93.700557 
L 383.611514 94.822991 
L 384.19178 95.323109 
L 384.772047 98.993814 
L 385.352314 98.125585 
L 385.93258 92.73368 
L 386.512847 94.926386 
L 387.093113 90.171506 
L 387.67338 90.352866 
L 388.253646 94.324535 
L 388.833913 94.721497 
L 389.41418 88.167904 
L 389.994446 86.915226 
L 390.574713 84.154048 
L 391.154979 81.977424 
L 391.735246 81.433906 
L 392.315512 85.539978 
L 392.895779 87.314127 
L 393.476046 90.874521 
L 394.056312 90.949019 
L 394.636579 90.240854 
L 395.216845 83.634804 
L 395.797112 87.277534 
L 396.377379 87.695657 
L 396.957645 85.464991 
L 397.537912 82.429228 
L 398.118178 80.587659 
L 399.278711 85.052417 
L 399.858978 82.835151 
L 400.439245 85.433876 
L 401.019511 88.970265 
L 401.599778 89.076442 
L 402.180044 86.86369 
L 402.760311 86.427992 
L 403.340577 90.016797 
L 403.920844 90.670111 
L 404.501111 87.498225 
L 405.081377 93.712531 
L 405.661644 95.618177 
L 406.24191 95.728642 
L 406.822177 91.344046 
L 407.402444 90.738389 
L 407.98271 91.75571 
L 408.562977 87.387431 
L 409.143243 90.838903 
L 409.72351 90.129959 
L 410.303776 88.511633 
L 410.884043 83.516786 
L 411.46431 87.779799 
L 412.044576 83.664308 
L 412.624843 90.24769 
L 413.205109 89.44604 
L 413.785376 90.717405 
L 414.365642 86.466125 
L 414.945909 86.865135 
L 415.526176 92.552434 
L 416.106442 92.540194 
L 416.686709 85.059725 
L 417.266975 92.270091 
L 417.847242 88.213729 
L 418.427508 83.075946 
L 419.588042 83.706851 
L 420.168308 78.11179 
L 420.748575 80.700728 
L 421.328841 87.226731 
L 421.909108 82.167557 
L 422.489375 84.326265 
L 423.069641 83.474571 
L 423.649908 79.386301 
L 424.230174 81.366093 
L 424.810441 79.551365 
L 425.390707 88.847315 
L 425.970974 90.527632 
L 426.551241 81.898865 
L 427.131507 83.944166 
L 427.711774 84.651067 
L 428.29204 83.989638 
L 428.872307 91.42012 
L 429.452573 100.680818 
L 430.03284 98.545945 
L 430.613107 89.394663 
L 431.193373 82.180543 
L 431.77364 79.862455 
L 432.353906 83.098739 
L 432.934173 90.09623 
L 433.514439 94.274268 
L 434.674973 93.190077 
L 435.255239 120.774123 
L 435.835506 119.518208 
L 436.415772 120.281452 
L 436.996039 119.959515 
L 437.576306 125.961971 
L 438.156572 124.682747 
L 438.736839 121.341148 
L 439.317105 121.725132 
L 439.897372 112.04254 
L 440.477638 113.897995 
L 441.057905 122.98145 
L 441.638172 129.649533 
L 442.218438 128.072191 
L 442.798705 123.504816 
L 443.378971 125.305328 
L 443.959238 125.194973 
L 444.539504 129.040117 
L 445.119771 129.073107 
L 445.700038 131.260698 
L 446.280304 130.331147 
L 446.860571 126.621665 
L 447.440837 125.229738 
L 448.021104 127.982678 
L 448.60137 131.441241 
L 449.181637 126.636133 
L 449.761904 125.015076 
L 450.922437 120.948613 
L 451.502703 120.087607 
L 452.08297 120.966683 
L 452.663237 120.631534 
L 453.243503 121.694387 
L 453.82377 124.998874 
L 454.404036 126.079266 
L 454.984303 123.400627 
L 455.564569 114.596888 
L 456.144836 127.927803 
L 456.725103 128.394881 
L 457.305369 128.237782 
L 457.885636 122.952595 
L 458.465902 129.319943 
L 459.046169 128.583649 
L 459.626435 122.902605 
L 460.206702 121.337449 
L 460.786969 117.339527 
L 461.367235 120.890584 
L 461.947502 125.290265 
L 462.527768 125.529124 
L 463.108035 125.039207 
L 464.268568 122.207145 
L 464.848835 120.749869 
L 465.429101 122.198702 
L 466.009368 121.495665 
L 466.589634 124.267115 
L 467.169901 122.573563 
L 467.750168 121.826471 
L 468.330434 122.391132 
L 468.910701 110.593315 
L 469.490967 119.280519 
L 470.071234 124.679806 
L 470.6515 125.803907 
L 471.231767 124.749622 
L 471.812034 126.36184 
L 472.3923 124.554183 
L 472.972567 125.279774 
L 473.552833 127.063823 
L 474.1331 128.435114 
L 474.713366 126.198073 
L 474.713366 126.198073 
" clip-path="url(#pad480ccb47)" style="fill: none; stroke: #3366cc; stroke-width: 1.2; stroke-linecap: square"/>
   </g>
   <g id="line2d_36">
    <path d="M 45.780313 34.785741 
L 495.13875 34.785741 
" clip-path="url(#pad480ccb47)" style="fill: none; stroke-dasharray: 0.8,1.32; stroke-dashoffset: 0; stroke: #999999; stroke-opacity: 0.5; stroke-width: 0.8"/>
   </g>
   <g id="line2d_37">
    <path d="M 293.089928 159.56699 
L 293.089928 25.158281 
" clip-path="url(#pad480ccb47)" style="fill: none; stroke-dasharray: 0.8,1.32; stroke-dashoffset: 0; stroke: #888888; stroke-opacity: 0.7; stroke-width: 0.8"/>
   </g>
   <g id="line2d_38">
    <path d="M 435.255239 159.56699 
L 435.255239 25.158281 
" clip-path="url(#pad480ccb47)" style="fill: none; stroke-dasharray: 0.8,1.32; stroke-dashoffset: 0; stroke: #888888; stroke-opacity: 0.7; stroke-width: 0.8"/>
   </g>
   <g id="patch_3">
    <path d="M 45.780313 159.56699 
L 45.780313 25.158281 
" style="fill: none; stroke: #000000; stroke-width: 0.6; stroke-linejoin: miter; stroke-linecap: square"/>
   </g>
   <g id="patch_4">
    <path d="M 45.780312 159.56699 
L 495.13875 159.56699 
" style="fill: none; stroke: #000000; stroke-width: 0.6; stroke-linejoin: miter; stroke-linecap: square"/>
   </g>
   <g id="line2d_39">
    <path d="M 66.205696 142.363212 
L 66.785963 96.675856 
L 67.366229 120.385548 
L 67.946496 123.677863 
L 68.526762 125.893806 
L 69.107029 126.386381 
L 69.687295 123.277233 
L 70.267562 119.153707 
L 70.847829 122.87688 
L 71.428095 124.279571 
L 72.008362 126.265948 
L 72.588628 127.128762 
L 73.168895 121.906533 
L 73.749162 114.860252 
L 74.909695 34.736503 
L 75.489961 34.73108 
L 76.070228 34.980448 
L 76.650494 34.639649 
L 77.811028 34.725015 
L 78.391294 35.487408 
L 78.971561 60.765585 
L 79.551827 76.539086 
L 80.132094 102.263604 
L 80.71236 103.777055 
L 81.292627 103.240032 
L 81.872894 97.888164 
L 82.45316 100.385557 
L 83.033427 76.847799 
L 83.613693 72.924086 
L 84.19396 106.721931 
L 84.774226 100.996623 
L 85.354493 101.377651 
L 85.93476 98.746892 
L 86.515026 103.232573 
L 87.095293 106.67236 
L 87.675559 111.282732 
L 88.255826 114.011586 
L 88.836093 113.944242 
L 89.416359 107.503128 
L 89.996626 105.989308 
L 90.576892 104.877955 
L 91.157159 101.176691 
L 91.737425 100.608574 
L 92.317692 107.467077 
L 92.897959 108.134665 
L 93.478225 100.086197 
L 94.058492 97.472466 
L 94.638758 101.069164 
L 95.219025 97.579868 
L 95.799291 97.603662 
L 96.379558 104.555166 
L 96.959825 105.805329 
L 97.540091 98.134525 
L 98.120358 87.308366 
L 98.700624 91.761517 
L 99.280891 83.907659 
L 99.861158 90.885264 
L 100.441424 102.141711 
L 101.021691 100.772992 
L 102.182224 95.50364 
L 102.76249 103.108437 
L 103.342757 98.381262 
L 103.923024 95.773062 
L 104.50329 100.467775 
L 105.083557 99.819968 
L 105.663823 96.311862 
L 106.24409 88.84435 
L 106.824356 89.269798 
L 107.404623 88.170471 
L 107.98489 89.649576 
L 108.565156 93.945128 
L 109.145423 95.23449 
L 110.886222 58.301979 
L 111.466489 62.690466 
L 112.046756 62.049244 
L 112.627022 66.28259 
L 113.207289 68.34624 
L 113.787555 58.921937 
L 114.948089 52.032364 
L 115.528355 50.511663 
L 116.108622 59.137259 
L 116.688888 65.971376 
L 117.269155 60.693012 
L 117.849421 56.824336 
L 118.429688 51.968298 
L 119.009955 51.613983 
L 119.590221 49.924811 
L 120.170488 52.21592 
L 120.750754 56.016439 
L 121.331021 62.817479 
L 121.911287 44.743546 
L 122.491554 46.301107 
L 123.071821 48.861279 
L 123.652087 38.91279 
L 124.232354 34.791784 
L 124.81262 45.80841 
L 125.392887 44.999062 
L 125.973153 41.923388 
L 126.55342 46.484375 
L 127.133687 40.487885 
L 128.29422 50.872891 
L 128.874486 59.402067 
L 129.454753 59.395295 
L 130.615286 41.348747 
L 131.195553 47.225504 
L 131.775819 46.332592 
L 132.356086 46.284686 
L 133.516619 52.685965 
L 134.096886 41.046384 
L 134.677152 37.23986 
L 135.837685 63.695066 
L 136.417952 65.478801 
L 136.998218 68.54572 
L 137.578485 54.729319 
L 138.158752 57.382902 
L 138.739018 59.154188 
L 139.319285 59.022977 
L 139.899551 51.125041 
L 140.479818 56.980344 
L 141.060085 57.865729 
L 141.640351 60.373158 
L 142.800884 47.801587 
L 143.381151 46.078147 
L 143.961417 48.018424 
L 144.541684 54.88498 
L 145.121951 57.225851 
L 145.702217 63.520169 
L 146.282484 56.142015 
L 146.86275 61.451492 
L 147.443017 60.458794 
L 148.60355 51.569325 
L 149.183817 63.588432 
L 149.764083 65.862342 
L 150.34435 59.101415 
L 150.924616 49.023055 
L 151.504883 56.132929 
L 152.085149 56.313944 
L 152.665416 60.209122 
L 153.245683 67.182008 
L 153.825949 63.086909 
L 154.406216 53.278052 
L 154.986482 53.688456 
L 155.566749 63.805842 
L 156.147016 64.041912 
L 156.727282 64.632839 
L 157.307549 63.920843 
L 157.887815 62.913175 
L 158.468082 64.69642 
L 159.048348 55.074719 
L 159.628615 55.966239 
L 160.208882 61.793901 
L 160.789148 62.463602 
L 161.369415 62.438917 
L 161.949681 69.952251 
L 162.529948 66.81622 
L 163.110214 65.13995 
L 163.690481 52.507203 
L 164.270748 59.332805 
L 164.851014 67.9238 
L 165.431281 78.482042 
L 166.011547 75.68632 
L 166.591814 69.420186 
L 167.17208 72.864929 
L 167.752347 74.316242 
L 168.332614 72.097102 
L 168.91288 71.535574 
L 169.493147 74.913981 
L 170.073413 76.403684 
L 170.65368 71.698824 
L 171.233947 69.114233 
L 171.814213 65.128506 
L 172.39448 69.201377 
L 172.974746 71.759169 
L 173.555013 76.722995 
L 174.135279 75.533885 
L 174.715546 74.001588 
L 175.295813 77.042053 
L 175.876079 73.555352 
L 177.036612 63.632719 
L 177.616879 65.876848 
L 178.197145 71.962548 
L 178.777412 67.926236 
L 179.357679 71.790284 
L 179.937945 73.455143 
L 180.518212 72.745011 
L 181.098478 68.496456 
L 182.259011 74.553147 
L 182.839278 70.399996 
L 183.419545 71.806576 
L 183.999811 65.033142 
L 184.580078 63.620629 
L 185.160344 68.085495 
L 185.740611 76.534567 
L 186.320878 81.986009 
L 186.901144 75.105154 
L 187.481411 70.803721 
L 188.061677 67.829696 
L 188.641944 53.118775 
L 189.22221 62.405316 
L 189.802477 67.236334 
L 190.96301 58.556536 
L 191.543277 47.501859 
L 192.123543 49.310935 
L 192.70381 48.050957 
L 193.284076 56.43152 
L 193.864343 76.068633 
L 195.024876 63.920219 
L 195.605143 42.956935 
L 196.185409 46.246148 
L 196.765676 47.119426 
L 197.345943 43.7553 
L 197.926209 46.511807 
L 198.506476 53.694888 
L 199.667009 34.815913 
L 201.407809 34.791774 
L 201.988075 37.700066 
L 202.568342 33.168267 
L 203.148608 36.638076 
L 203.728875 32.568602 
L 204.309141 35.9091 
L 204.889408 36.519822 
L 205.469675 37.474848 
L 206.049941 34.749564 
L 206.630208 32.880166 
L 207.790741 36.513056 
L 208.371007 37.441295 
L 208.951274 35.420161 
L 209.531541 32.453818 
L 210.111807 34.267063 
L 211.27234 35.756349 
L 211.852607 35.436741 
L 212.432874 35.84296 
L 213.01314 33.324371 
L 214.173673 35.431343 
L 214.75394 33.053354 
L 215.334206 34.979142 
L 215.914473 34.767635 
L 216.49474 35.880277 
L 217.075006 34.26254 
L 217.655273 42.456074 
L 218.235539 32.428336 
L 218.815806 36.190997 
L 219.396072 33.334625 
L 219.976339 37.215681 
L 220.556606 31.615413 
L 221.136872 34.961084 
L 221.717139 35.027323 
L 222.297405 35.432787 
L 222.877672 35.533811 
L 223.457938 34.218814 
L 224.038205 33.818601 
L 224.618472 38.273003 
L 225.198738 32.226396 
L 225.779005 34.495842 
L 226.359271 35.612699 
L 226.939538 33.849347 
L 227.519805 34.978711 
L 228.100071 37.379855 
L 228.680338 33.322328 
L 229.260604 34.822004 
L 229.840871 35.335034 
L 230.421137 34.864508 
L 231.001404 36.121417 
L 231.581671 32.642949 
L 232.161937 35.699629 
L 232.742204 34.73137 
L 233.32247 34.132647 
L 233.902737 34.882428 
L 234.483003 34.840067 
L 235.06327 34.278984 
L 235.643537 34.876322 
L 236.223803 38.176777 
L 236.80407 36.240057 
L 237.384336 37.679882 
L 237.964603 35.184241 
L 238.544869 33.782893 
L 239.125136 42.538203 
L 239.705403 31.375618 
L 240.285669 35.238077 
L 240.865936 34.429705 
L 241.446202 35.73435 
L 242.026469 34.725312 
L 242.606736 34.453472 
L 243.187002 35.226014 
L 243.767269 35.263534 
L 244.347535 33.190182 
L 244.927802 34.960839 
L 245.508068 34.70727 
L 246.088335 34.640791 
L 246.668602 35.613277 
L 247.248868 35.643598 
L 247.829135 33.452859 
L 248.409401 34.622604 
L 248.989668 34.574474 
L 249.569934 35.842222 
L 250.150201 33.596943 
L 250.730468 35.969495 
L 251.310734 36.023679 
L 251.891001 32.253367 
L 252.471267 35.293064 
L 253.631801 35.491975 
L 254.212067 35.003317 
L 255.952867 34.133012 
L 256.533133 34.4471 
L 257.1134 36.953036 
L 257.693667 34.586547 
L 258.273933 34.978818 
L 258.8542 35.903684 
L 259.434466 35.274741 
L 260.014733 33.300008 
L 260.594999 34.586408 
L 261.175266 34.409343 
L 261.755533 35.378943 
L 262.335799 36.624457 
L 262.916066 39.935621 
L 263.496332 35.772808 
L 264.076599 34.022839 
L 264.656865 34.580367 
L 265.237132 34.489596 
L 265.817399 34.270652 
L 266.397665 33.734857 
L 266.977932 37.482021 
L 267.558198 37.621067 
L 268.138465 31.267768 
L 268.718732 35.999863 
L 269.298998 34.085543 
L 269.879265 37.554035 
L 270.459531 34.067935 
L 271.039798 42.723831 
L 271.620064 37.535558 
L 272.200331 34.411445 
L 272.780598 35.347107 
L 273.360864 37.165329 
L 274.521397 33.316075 
L 275.101664 37.694833 
L 275.68193 33.432501 
L 276.262197 34.76761 
L 276.842464 35.172543 
L 277.42273 34.852195 
L 278.002997 36.523437 
L 278.583263 33.952048 
L 279.16353 37.181106 
L 279.743796 33.366245 
L 280.324063 34.085054 
L 280.90433 38.147493 
L 281.484596 38.284602 
L 282.064863 41.060847 
L 282.645129 37.39577 
L 283.225396 39.028 
L 283.805663 46.793745 
L 284.385929 40.22435 
L 284.966196 37.568603 
L 286.126729 34.042875 
L 286.706995 34.574297 
L 287.287262 35.329986 
L 287.867529 36.782327 
L 288.447795 34.948809 
L 289.028062 36.771925 
L 289.608328 39.986036 
L 290.188595 36.097242 
L 291.349128 48.29888 
L 291.929395 40.867486 
L 292.509661 36.903136 
L 293.089928 99.717037 
L 293.670194 99.575246 
L 294.250461 100.388987 
L 294.830727 99.075031 
L 295.410994 100.614997 
L 295.991261 101.68506 
L 296.571527 98.353245 
L 297.151794 100.502693 
L 297.73206 99.189225 
L 298.312327 99.11003 
L 298.892594 99.738155 
L 299.47286 102.629106 
L 300.053127 102.355229 
L 301.21366 98.04918 
L 301.793926 101.120877 
L 302.374193 99.154831 
L 302.95446 99.460722 
L 303.534726 100.376834 
L 304.114993 98.454846 
L 304.695259 99.668767 
L 305.275526 99.735296 
L 305.855792 99.611239 
L 306.436059 99.871915 
L 307.016326 100.881279 
L 307.596592 98.552442 
L 308.176859 100.09932 
L 308.757125 100.995136 
L 309.337392 99.398573 
L 309.917659 97.296422 
L 310.497925 89.510776 
L 311.078192 87.9688 
L 311.658458 88.070877 
L 312.238725 86.726844 
L 312.818991 79.810657 
L 313.399258 82.132979 
L 313.979525 83.518033 
L 314.559791 86.330434 
L 315.140058 86.47619 
L 315.720324 91.296079 
L 316.300591 88.836714 
L 316.880857 88.879224 
L 317.461124 84.937927 
L 318.041391 77.295937 
L 318.621657 77.992701 
L 319.201924 78.23779 
L 319.78219 78.856259 
L 320.362457 81.97505 
L 320.942723 80.717274 
L 321.52299 82.870074 
L 322.103257 72.163314 
L 322.683523 75.179407 
L 323.26379 73.470076 
L 323.844056 86.128041 
L 324.424323 90.957747 
L 325.00459 87.770361 
L 325.584856 74.030141 
L 326.165123 78.071387 
L 326.745389 76.186772 
L 327.325656 75.650123 
L 327.905922 85.749518 
L 328.486189 79.362028 
L 329.066456 78.800861 
L 329.646722 72.392388 
L 330.226989 73.326011 
L 330.807255 69.354393 
L 331.967788 74.657519 
L 332.548055 82.056881 
L 333.128322 70.531188 
L 333.708588 74.893431 
L 334.288855 72.504915 
L 334.869121 83.351351 
L 335.449388 76.262232 
L 336.029654 80.26916 
L 336.609921 80.78088 
L 337.190188 80.128238 
L 337.770454 82.805336 
L 338.350721 80.870232 
L 338.930987 79.64482 
L 339.511254 84.059359 
L 340.091521 84.579832 
L 340.671787 85.622895 
L 341.252054 78.056191 
L 341.83232 78.213508 
L 342.412587 77.772106 
L 342.992853 81.500552 
L 343.57312 79.966637 
L 344.153387 80.701051 
L 344.733653 82.428922 
L 345.31392 85.245281 
L 345.894186 84.282575 
L 346.474453 81.564974 
L 347.054719 72.991113 
L 347.634986 76.289459 
L 348.215253 77.630459 
L 349.375786 77.968637 
L 349.956052 76.565861 
L 350.536319 73.247687 
L 351.116586 71.098168 
L 351.696852 69.833434 
L 352.277119 73.193927 
L 352.857385 70.313254 
L 353.437652 69.337456 
L 354.017918 61.957267 
L 354.598185 68.791957 
L 355.178452 69.711351 
L 355.758718 71.293039 
L 356.338985 73.931743 
L 356.919251 72.969796 
L 357.499518 68.526609 
L 358.079784 72.403561 
L 358.660051 77.962402 
L 359.240318 76.057318 
L 359.820584 71.723439 
L 360.400851 76.374633 
L 360.981117 82.370851 
L 361.561384 77.425314 
L 362.14165 76.22293 
L 362.721917 73.82371 
L 363.302184 74.887938 
L 363.88245 69.094522 
L 364.462717 70.669805 
L 365.042983 75.245843 
L 366.203517 77.932425 
L 366.783783 76.420148 
L 367.36405 71.225317 
L 367.944316 77.567317 
L 368.524583 77.76935 
L 369.104849 76.666567 
L 369.685116 73.9563 
L 370.265383 74.972952 
L 370.845649 74.224798 
L 371.425916 77.618027 
L 372.006182 75.034148 
L 372.586449 76.182888 
L 373.166715 76.913583 
L 373.746982 67.758291 
L 374.327249 68.849254 
L 374.907515 64.509079 
L 376.068048 69.984255 
L 376.648315 74.415382 
L 377.228581 82.346098 
L 378.389115 73.153019 
L 378.969381 71.622498 
L 379.549648 69.355582 
L 380.129914 69.939018 
L 380.710181 74.957045 
L 381.290448 68.874775 
L 381.870714 59.926894 
L 382.450981 62.775917 
L 383.031247 58.274939 
L 383.611514 59.95859 
L 384.19178 60.708766 
L 384.772047 66.214824 
L 385.352314 64.912481 
L 385.93258 56.824623 
L 386.512847 60.113682 
L 387.093113 52.981362 
L 387.67338 53.253401 
L 388.253646 59.210906 
L 388.833913 59.806349 
L 389.41418 49.97596 
L 389.994446 48.096941 
L 390.574713 43.955175 
L 391.154979 40.690238 
L 391.735246 39.874962 
L 392.315512 46.03407 
L 392.895779 48.695293 
L 393.476046 54.035885 
L 394.056312 54.147631 
L 394.636579 53.085384 
L 395.216845 43.17631 
L 395.797112 48.640403 
L 396.377379 49.267589 
L 396.957645 45.92159 
L 397.537912 41.367946 
L 398.118178 38.605592 
L 399.278711 45.302728 
L 399.858978 41.97683 
L 400.439245 45.874917 
L 401.019511 51.179501 
L 401.599778 51.338766 
L 402.180044 48.019638 
L 402.760311 47.366091 
L 403.340577 52.749299 
L 403.920844 53.72927 
L 404.501111 48.971441 
L 405.081377 58.2929 
L 405.661644 61.151368 
L 406.24191 61.317066 
L 406.822177 54.740172 
L 407.402444 53.831687 
L 407.98271 55.357668 
L 408.562977 48.80525 
L 409.143243 53.982457 
L 409.72351 52.919041 
L 410.303776 50.491553 
L 410.884043 42.999282 
L 411.46431 49.393802 
L 412.044576 43.220565 
L 412.624843 53.095638 
L 413.205109 51.893163 
L 413.785376 53.800211 
L 414.365642 47.42329 
L 414.945909 48.021806 
L 415.526176 56.552754 
L 416.106442 56.534394 
L 416.686709 45.31369 
L 417.266975 56.12924 
L 417.847242 50.044697 
L 418.427508 42.338022 
L 419.007775 42.734374 
L 419.588042 43.28438 
L 420.168308 34.891789 
L 420.748575 38.775195 
L 421.328841 48.5642 
L 421.909108 40.975439 
L 422.489375 44.213501 
L 423.069641 42.93596 
L 423.649908 36.803554 
L 424.230174 39.773242 
L 424.810441 37.05115 
L 425.390707 50.995076 
L 425.970974 53.515551 
L 426.551241 40.5724 
L 427.131507 43.640351 
L 427.711774 44.700703 
L 428.29204 43.70856 
L 428.872307 54.854282 
L 429.452573 68.74533 
L 430.03284 65.543021 
L 430.613107 51.816098 
L 431.193373 40.994918 
L 431.77364 37.517786 
L 432.353906 42.372212 
L 432.934173 52.868447 
L 433.514439 59.135505 
L 434.674973 57.509219 
L 435.255239 98.885288 
L 435.835506 97.001415 
L 436.415772 98.146281 
L 436.996039 97.663375 
L 437.576306 106.66706 
L 438.156572 104.748223 
L 438.736839 99.735825 
L 439.317105 100.311801 
L 439.897372 85.787913 
L 440.477638 88.571095 
L 441.057905 102.196277 
L 441.638172 112.198403 
L 442.218438 109.832389 
L 442.798705 102.981326 
L 443.378971 105.682095 
L 443.959238 105.516563 
L 444.539504 111.284279 
L 445.119771 111.333763 
L 445.700038 114.615149 
L 446.280304 113.220824 
L 446.860571 107.656601 
L 447.440837 105.56871 
L 448.021104 109.698119 
L 448.60137 114.885964 
L 449.181637 107.678303 
L 449.761904 105.246717 
L 450.922437 99.147022 
L 451.502703 97.855514 
L 452.08297 99.174127 
L 452.663237 98.671404 
L 453.243503 100.265684 
L 453.82377 105.222414 
L 454.404036 106.843002 
L 454.984303 102.825043 
L 455.564569 89.619434 
L 456.144836 109.615808 
L 456.725103 110.316424 
L 457.305369 110.080776 
L 457.885636 102.152995 
L 458.465902 111.704018 
L 459.046169 110.599577 
L 459.626435 102.07801 
L 460.206702 99.730277 
L 460.786969 93.733394 
L 461.367235 99.05998 
L 461.947502 105.659501 
L 462.527768 106.01779 
L 463.108035 105.282914 
L 464.268568 101.034821 
L 464.848835 98.848907 
L 465.429101 101.022156 
L 466.009368 99.967601 
L 466.589634 104.124775 
L 467.169901 101.584448 
L 467.750168 100.463809 
L 468.330434 101.310802 
L 468.910701 83.614075 
L 469.490967 96.644881 
L 470.071234 104.743812 
L 470.6515 106.429964 
L 471.231767 104.848535 
L 471.812034 107.266864 
L 472.3923 104.555378 
L 472.972567 105.643764 
L 473.552833 108.319838 
L 474.1331 110.376773 
L 474.713366 107.021213 
L 474.713366 107.021213 
" clip-path="url(#pad480ccb47)" style="fill: none; stroke-dasharray: 4.44,1.92; stroke-dashoffset: 0; stroke: #e6a817; stroke-width: 1.2"/>
   </g>
   <g id="text_19">
    <!-- Pectra -->
    <g style="fill: #888888" transform="translate(291.842115 51.662644) rotate(-90) scale(0.06 -0.06)">
     <defs>
      <path id="DejaVuSerif-50" d="M 1581 2375 
L 2406 2375 
Q 2872 2375 3115 2626 
Q 3359 2878 3359 3353 
Q 3359 3831 3115 4081 
Q 2872 4331 2406 4331 
L 1581 4331 
L 1581 2375 
z
M 353 0 
L 353 331 
L 947 331 
L 947 4331 
L 353 4331 
L 353 4666 
L 2559 4666 
Q 3259 4666 3668 4311 
Q 4078 3956 4078 3353 
Q 4078 2753 3668 2397 
Q 3259 2041 2559 2041 
L 1581 2041 
L 1581 331 
L 2303 331 
L 2303 0 
L 353 0 
z
" transform="scale(0.015625)"/>
      <path id="DejaVuSerif-61" d="M 2547 1044 
L 2547 1747 
L 1806 1747 
Q 1378 1747 1168 1562 
Q 959 1378 959 997 
Q 959 650 1171 447 
Q 1384 244 1747 244 
Q 2106 244 2326 466 
Q 2547 688 2547 1044 
z
M 3122 2075 
L 3122 331 
L 3634 331 
L 3634 0 
L 2547 0 
L 2547 359 
Q 2356 128 2106 18 
Q 1856 -91 1522 -91 
Q 969 -91 644 203 
Q 319 497 319 997 
Q 319 1513 691 1797 
Q 1063 2081 1741 2081 
L 2547 2081 
L 2547 2309 
Q 2547 2688 2317 2895 
Q 2088 3103 1672 3103 
Q 1328 3103 1125 2947 
Q 922 2791 872 2484 
L 575 2484 
L 575 3156 
Q 875 3284 1158 3348 
Q 1441 3413 1709 3413 
Q 2400 3413 2761 3070 
Q 3122 2728 3122 2075 
z
" transform="scale(0.015625)"/>
     </defs>
     <use xlink:href="#DejaVuSerif-50"/>
     <use xlink:href="#DejaVuSerif-65" x="62.785156"/>
     <use xlink:href="#DejaVuSerif-63" x="121.964844"/>
     <use xlink:href="#DejaVuSerif-74" x="177.970703"/>
     <use xlink:href="#DejaVuSerif-72" x="218.15625"/>
     <use xlink:href="#DejaVuSerif-61" x="265.958984"/>
    </g>
   </g>
   <g id="text_20">
    <!-- BPO1 -->
    <g style="fill: #888888" transform="translate(434.007427 49.310457) rotate(-90) scale(0.06 -0.06)">
     <defs>
      <path id="DejaVuSerif-42" d="M 1581 331 
L 2516 331 
Q 3078 331 3337 575 
Q 3597 819 3597 1350 
Q 3597 1878 3339 2120 
Q 3081 2363 2516 2363 
L 1581 2363 
L 1581 331 
z
M 1581 2694 
L 2375 2694 
Q 2888 2694 3123 2891 
Q 3359 3088 3359 3513 
Q 3359 3941 3123 4136 
Q 2888 4331 2375 4331 
L 1581 4331 
L 1581 2694 
z
M 353 0 
L 353 331 
L 947 331 
L 947 4331 
L 353 4331 
L 353 4666 
L 2656 4666 
Q 3363 4666 3720 4377 
Q 4078 4088 4078 3513 
Q 4078 3097 3829 2850 
Q 3581 2603 3103 2547 
Q 3697 2472 4005 2167 
Q 4313 1863 4313 1350 
Q 4313 656 3875 328 
Q 3438 0 2509 0 
L 353 0 
z
" transform="scale(0.015625)"/>
     </defs>
     <use xlink:href="#DejaVuSerif-42"/>
     <use xlink:href="#DejaVuSerif-50" x="73.486328"/>
     <use xlink:href="#DejaVuSerif-4f" x="140.771484"/>
     <use xlink:href="#DejaVuSerif-31" x="222.753906"/>
    </g>
   </g>
   <g id="text_21">
    <!-- Ethereum  Target vs Actual Utilization (%) -->
    <g transform="translate(146.255781 19.158281) scale(0.11 -0.11)">
     <defs>
      <path id="DejaVuSerif-45" d="M 353 0 
L 353 331 
L 947 331 
L 947 4331 
L 353 4331 
L 353 4666 
L 4109 4666 
L 4109 3628 
L 3725 3628 
L 3725 4281 
L 1581 4281 
L 1581 2719 
L 3109 2719 
L 3109 3303 
L 3494 3303 
L 3494 1753 
L 3109 1753 
L 3109 2338 
L 1581 2338 
L 1581 384 
L 3775 384 
L 3775 1038 
L 4159 1038 
L 4159 0 
L 353 0 
z
" transform="scale(0.015625)"/>
      <path id="DejaVuSerif-68" d="M 263 0 
L 263 331 
L 781 331 
L 781 4531 
L 231 4531 
L 231 4863 
L 1356 4863 
L 1356 2731 
Q 1516 3069 1770 3241 
Q 2025 3413 2363 3413 
Q 2913 3413 3172 3097 
Q 3431 2781 3431 2113 
L 3431 331 
L 3944 331 
L 3944 0 
L 2356 0 
L 2356 331 
L 2853 331 
L 2853 1931 
Q 2853 2541 2704 2764 
Q 2556 2988 2175 2988 
Q 1775 2988 1565 2697 
Q 1356 2406 1356 1850 
L 1356 331 
L 1856 331 
L 1856 0 
L 263 0 
z
" transform="scale(0.015625)"/>
      <path id="DejaVuSerif-6d" d="M 3316 2675 
Q 3481 3041 3739 3227 
Q 3997 3413 4341 3413 
Q 4863 3413 5119 3089 
Q 5375 2766 5375 2113 
L 5375 331 
L 5894 331 
L 5894 0 
L 4300 0 
L 4300 331 
L 4800 331 
L 4800 2047 
Q 4800 2556 4650 2772 
Q 4500 2988 4153 2988 
Q 3769 2988 3567 2697 
Q 3366 2406 3366 1850 
L 3366 331 
L 3866 331 
L 3866 0 
L 2291 0 
L 2291 331 
L 2791 331 
L 2791 2069 
Q 2791 2566 2641 2777 
Q 2491 2988 2144 2988 
Q 1759 2988 1557 2697 
Q 1356 2406 1356 1850 
L 1356 331 
L 1856 331 
L 1856 0 
L 263 0 
L 263 331 
L 781 331 
L 781 2994 
L 231 2994 
L 231 3322 
L 1356 3322 
L 1356 2731 
Q 1516 3063 1762 3238 
Q 2009 3413 2322 3413 
Q 2709 3413 2968 3220 
Q 3228 3028 3316 2675 
z
" transform="scale(0.015625)"/>
      <path id="DejaVuSerif-2014" d="M 281 1906 
L 6119 1906 
L 6119 1491 
L 281 1491 
L 281 1906 
z
" transform="scale(0.015625)"/>
      <path id="DejaVuSerif-54" d="M 1222 0 
L 1222 331 
L 1819 331 
L 1819 4294 
L 447 4294 
L 447 3566 
L 63 3566 
L 63 4666 
L 4206 4666 
L 4206 3566 
L 3822 3566 
L 3822 4294 
L 2450 4294 
L 2450 331 
L 3047 331 
L 3047 0 
L 1222 0 
z
" transform="scale(0.015625)"/>
      <path id="DejaVuSerif-76" d="M 1581 0 
L 359 2988 
L -19 2988 
L -19 3322 
L 1509 3322 
L 1509 2988 
L 978 2988 
L 1913 703 
L 2847 2988 
L 2350 2988 
L 2350 3322 
L 3597 3322 
L 3597 2988 
L 3225 2988 
L 2003 0 
L 1581 0 
z
" transform="scale(0.015625)"/>
      <path id="DejaVuSerif-73" d="M 359 184 
L 359 959 
L 691 959 
Q 703 588 923 403 
Q 1144 219 1575 219 
Q 1963 219 2166 364 
Q 2369 509 2369 788 
Q 2369 1006 2220 1140 
Q 2072 1275 1594 1428 
L 1178 1569 
Q 750 1706 558 1912 
Q 366 2119 366 2438 
Q 366 2894 700 3153 
Q 1034 3413 1625 3413 
Q 1888 3413 2178 3344 
Q 2469 3275 2778 3144 
L 2778 2419 
L 2447 2419 
Q 2434 2741 2221 2922 
Q 2009 3103 1644 3103 
Q 1281 3103 1095 2975 
Q 909 2847 909 2591 
Q 909 2381 1050 2254 
Q 1191 2128 1613 1997 
L 2069 1856 
Q 2541 1709 2748 1489 
Q 2956 1269 2956 922 
Q 2956 450 2595 179 
Q 2234 -91 1600 -91 
Q 1278 -91 972 -22 
Q 666 47 359 184 
z
" transform="scale(0.015625)"/>
      <path id="DejaVuSerif-6c" d="M 1313 331 
L 1856 331 
L 1856 0 
L 184 0 
L 184 331 
L 738 331 
L 738 4531 
L 184 4531 
L 184 4863 
L 1313 4863 
L 1313 331 
z
" transform="scale(0.015625)"/>
      <path id="DejaVuSerif-55" d="M 897 4331 
L 300 4331 
L 300 4666 
L 2125 4666 
L 2125 4331 
L 1528 4331 
L 1528 1919 
Q 1528 1025 1820 672 
Q 2113 319 2828 319 
Q 3544 319 3836 672 
Q 4128 1025 4128 1919 
L 4128 4331 
L 3531 4331 
L 3531 4666 
L 5106 4666 
L 5106 4331 
L 4513 4331 
L 4513 1856 
Q 4513 791 4103 350 
Q 3694 -91 2713 -91 
Q 1731 -91 1314 353 
Q 897 797 897 1856 
L 897 4331 
z
" transform="scale(0.015625)"/>
      <path id="DejaVuSerif-69" d="M 622 4353 
Q 622 4497 726 4603 
Q 831 4709 978 4709 
Q 1122 4709 1226 4603 
Q 1331 4497 1331 4353 
Q 1331 4206 1228 4103 
Q 1125 4000 978 4000 
Q 831 4000 726 4103 
Q 622 4206 622 4353 
z
M 1356 331 
L 1900 331 
L 1900 0 
L 231 0 
L 231 331 
L 781 331 
L 781 2988 
L 231 2988 
L 231 3322 
L 1356 3322 
L 1356 331 
z
" transform="scale(0.015625)"/>
      <path id="DejaVuSerif-7a" d="M 256 0 
L 256 269 
L 2338 2988 
L 691 2988 
L 691 2413 
L 359 2413 
L 359 3322 
L 3078 3322 
L 3078 3053 
L 997 331 
L 2803 331 
L 2803 934 
L 3138 934 
L 3138 0 
L 256 0 
z
" transform="scale(0.015625)"/>
      <path id="DejaVuSerif-6f" d="M 1925 219 
Q 2388 219 2623 584 
Q 2859 950 2859 1663 
Q 2859 2375 2623 2739 
Q 2388 3103 1925 3103 
Q 1463 3103 1227 2739 
Q 991 2375 991 1663 
Q 991 950 1228 584 
Q 1466 219 1925 219 
z
M 1925 -91 
Q 1200 -91 759 389 
Q 319 869 319 1663 
Q 319 2456 758 2934 
Q 1197 3413 1925 3413 
Q 2653 3413 3092 2934 
Q 3531 2456 3531 1663 
Q 3531 869 3092 389 
Q 2653 -91 1925 -91 
z
" transform="scale(0.015625)"/>
      <path id="DejaVuSerif-28" d="M 2041 -997 
Q 1281 -656 893 83 
Q 506 822 506 1931 
Q 506 3044 893 3783 
Q 1281 4522 2041 4863 
L 2041 4556 
Q 1559 4225 1350 3623 
Q 1141 3022 1141 1931 
Q 1141 844 1350 242 
Q 1559 -359 2041 -691 
L 2041 -997 
z
" transform="scale(0.015625)"/>
      <path id="DejaVuSerif-29" d="M 453 -997 
L 453 -691 
Q 934 -359 1145 242 
Q 1356 844 1356 1931 
Q 1356 3022 1145 3623 
Q 934 4225 453 4556 
L 453 4863 
Q 1216 4522 1603 3783 
Q 1991 3044 1991 1931 
Q 1991 822 1603 83 
Q 1216 -656 453 -997 
z
" transform="scale(0.015625)"/>
     </defs>
     <use xlink:href="#DejaVuSerif-45"/>
     <use xlink:href="#DejaVuSerif-74" x="72.998047"/>
     <use xlink:href="#DejaVuSerif-68" x="113.183594"/>
     <use xlink:href="#DejaVuSerif-65" x="177.587891"/>
     <use xlink:href="#DejaVuSerif-72" x="236.767578"/>
     <use xlink:href="#DejaVuSerif-65" x="284.570312"/>
     <use xlink:href="#DejaVuSerif-75" x="343.75"/>
     <use xlink:href="#DejaVuSerif-6d" x="408.154297"/>
     <use xlink:href="#DejaVuSerif-20" x="502.978516"/>
     <use xlink:href="#DejaVuSerif-2014" x="534.765625"/>
     <use xlink:href="#DejaVuSerif-20" x="634.765625"/>
     <use xlink:href="#DejaVuSerif-54" x="666.552734"/>
     <use xlink:href="#DejaVuSerif-61" x="725.501953"/>
     <use xlink:href="#DejaVuSerif-72" x="785.121094"/>
     <use xlink:href="#DejaVuSerif-67" x="832.923828"/>
     <use xlink:href="#DejaVuSerif-65" x="896.9375"/>
     <use xlink:href="#DejaVuSerif-74" x="956.117188"/>
     <use xlink:href="#DejaVuSerif-20" x="996.302734"/>
     <use xlink:href="#DejaVuSerif-76" x="1028.089844"/>
     <use xlink:href="#DejaVuSerif-73" x="1084.583984"/>
     <use xlink:href="#DejaVuSerif-20" x="1135.902344"/>
     <use xlink:href="#DejaVuSerif-41" x="1167.689453"/>
     <use xlink:href="#DejaVuSerif-63" x="1239.90625"/>
     <use xlink:href="#DejaVuSerif-74" x="1295.912109"/>
     <use xlink:href="#DejaVuSerif-75" x="1336.097656"/>
     <use xlink:href="#DejaVuSerif-61" x="1400.501953"/>
     <use xlink:href="#DejaVuSerif-6c" x="1460.121094"/>
     <use xlink:href="#DejaVuSerif-20" x="1492.103516"/>
     <use xlink:href="#DejaVuSerif-55" x="1523.890625"/>
     <use xlink:href="#DejaVuSerif-74" x="1608.167969"/>
     <use xlink:href="#DejaVuSerif-69" x="1648.353516"/>
     <use xlink:href="#DejaVuSerif-6c" x="1680.335938"/>
     <use xlink:href="#DejaVuSerif-69" x="1712.318359"/>
     <use xlink:href="#DejaVuSerif-7a" x="1744.300781"/>
     <use xlink:href="#DejaVuSerif-61" x="1796.986328"/>
     <use xlink:href="#DejaVuSerif-74" x="1856.605469"/>
     <use xlink:href="#DejaVuSerif-69" x="1896.791016"/>
     <use xlink:href="#DejaVuSerif-6f" x="1928.773438"/>
     <use xlink:href="#DejaVuSerif-6e" x="1988.978516"/>
     <use xlink:href="#DejaVuSerif-20" x="2053.382812"/>
     <use xlink:href="#DejaVuSerif-28" x="2085.169922"/>
     <use xlink:href="#DejaVuSerif-25" x="2124.183594"/>
     <use xlink:href="#DejaVuSerif-29" x="2219.203125"/>
    </g>
   </g>
   <g id="legend_1">
    <g id="patch_5">
     <path d="M 394.24375 55.157031 
L 489.53875 55.157031 
Q 491.13875 55.157031 491.13875 53.557031 
L 491.13875 30.758281 
Q 491.13875 29.158281 489.53875 29.158281 
L 394.24375 29.158281 
Q 392.64375 29.158281 392.64375 30.758281 
L 392.64375 53.557031 
Q 392.64375 55.157031 394.24375 55.157031 
z
" style="fill: #ffffff; opacity: 0.9; stroke: #cccccc; stroke-linejoin: miter"/>
    </g>
    <g id="line2d_40">
     <path d="M 395.84375 35.637031 
L 403.84375 35.637031 
L 411.84375 35.637031 
" style="fill: none; stroke: #3366cc; stroke-width: 1.2; stroke-linecap: square"/>
    </g>
    <g id="text_22">
     <!-- Actual utilization -->
     <g transform="translate(418.24375 38.437031) scale(0.08 -0.08)">
      <use xlink:href="#DejaVuSerif-41"/>
      <use xlink:href="#DejaVuSerif-63" x="72.216797"/>
      <use xlink:href="#DejaVuSerif-74" x="128.222656"/>
      <use xlink:href="#DejaVuSerif-75" x="168.408203"/>
      <use xlink:href="#DejaVuSerif-61" x="232.8125"/>
      <use xlink:href="#DejaVuSerif-6c" x="292.431641"/>
      <use xlink:href="#DejaVuSerif-20" x="324.414062"/>
      <use xlink:href="#DejaVuSerif-75" x="356.201172"/>
      <use xlink:href="#DejaVuSerif-74" x="420.605469"/>
      <use xlink:href="#DejaVuSerif-69" x="460.791016"/>
      <use xlink:href="#DejaVuSerif-6c" x="492.773438"/>
      <use xlink:href="#DejaVuSerif-69" x="524.755859"/>
      <use xlink:href="#DejaVuSerif-7a" x="556.738281"/>
      <use xlink:href="#DejaVuSerif-61" x="609.423828"/>
      <use xlink:href="#DejaVuSerif-74" x="669.042969"/>
      <use xlink:href="#DejaVuSerif-69" x="709.228516"/>
      <use xlink:href="#DejaVuSerif-6f" x="741.210938"/>
      <use xlink:href="#DejaVuSerif-6e" x="801.416016"/>
     </g>
    </g>
    <g id="line2d_41">
     <path d="M 395.84375 47.379531 
L 403.84375 47.379531 
L 411.84375 47.379531 
" style="fill: none; stroke-dasharray: 4.44,1.92; stroke-dashoffset: 0; stroke: #e6a817; stroke-width: 1.2"/>
    </g>
    <g id="text_23">
     <!-- Target utilization -->
     <g transform="translate(418.24375 50.179531) scale(0.08 -0.08)">
      <use xlink:href="#DejaVuSerif-54"/>
      <use xlink:href="#DejaVuSerif-61" x="58.949219"/>
      <use xlink:href="#DejaVuSerif-72" x="118.568359"/>
      <use xlink:href="#DejaVuSerif-67" x="166.371094"/>
      <use xlink:href="#DejaVuSerif-65" x="230.384766"/>
      <use xlink:href="#DejaVuSerif-74" x="289.564453"/>
      <use xlink:href="#DejaVuSerif-20" x="329.75"/>
      <use xlink:href="#DejaVuSerif-75" x="361.537109"/>
      <use xlink:href="#DejaVuSerif-74" x="425.941406"/>
      <use xlink:href="#DejaVuSerif-69" x="466.126953"/>
      <use xlink:href="#DejaVuSerif-6c" x="498.109375"/>
      <use xlink:href="#DejaVuSerif-69" x="530.091797"/>
      <use xlink:href="#DejaVuSerif-7a" x="562.074219"/>
      <use xlink:href="#DejaVuSerif-61" x="614.759766"/>
      <use xlink:href="#DejaVuSerif-74" x="674.378906"/>
      <use xlink:href="#DejaVuSerif-69" x="714.564453"/>
      <use xlink:href="#DejaVuSerif-6f" x="746.546875"/>
      <use xlink:href="#DejaVuSerif-6e" x="806.751953"/>
     </g>
    </g>
   </g>
  </g>
 </g>
 <defs>
  <clipPath id="pad480ccb47">
   <rect x="45.780313" y="25.158281" width="449.358438" height="134.408709"/>
  </clipPath>
 </defs>
</svg>
