<?xml version="1.0" encoding="utf-8" standalone="no"?>
<!DOCTYPE svg PUBLIC "-//W3C//DTD SVG 1.1//EN"
  "http://www.w3.org/Graphics/SVG/1.1/DTD/svg11.dtd">
<svg xmlns:xlink="http://www.w3.org/1999/xlink" width="506.515313pt" height="203.215187pt" viewBox="0 0 506.515313 203.215187" xmlns="http://www.w3.org/2000/svg" version="1.1">
 <metadata>
  <rdf:RDF xmlns:dc="http://purl.org/dc/elements/1.1/" xmlns:cc="http://creativecommons.org/ns#" xmlns:rdf="http://www.w3.org/1999/02/22-rdf-syntax-ns#">
   <cc:Work>
    <dc:type rdf:resource="http://purl.org/dc/dcmitype/StillImage"/>
    <dc:date>2026-02-16T16:57:28.755822</dc:date>
    <dc:format>image/svg+xml</dc:format>
    <dc:creator>
     <cc:Agent>
      <dc:title>Matplotlib v3.10.8, https://matplotlib.org/</dc:title>
     </cc:Agent>
    </dc:creator>
   </cc:Work>
  </rdf:RDF>
 </metadata>
 <defs>
  <style type="text/css">*{stroke-linejoin: round; stroke-linecap: butt}</style>
 </defs>
 <g id="figure_1">
  <g id="patch_1">
   <path d="M 0 203.215187 
L 506.515313 203.215187 
L 506.515313 0 
L 0 0 
z
" style="fill: #ffffff"/>
  </g>
  <g id="axes_1">
   <g id="patch_2">
    <path d="M 45.780313 159.23311 
L 495.715313 159.23311 
L 495.715313 25.158281 
L 45.780313 25.158281 
z
" style="fill: #ffffff"/>
   </g>
   <g id="matplotlib.axis_1">
    <g id="xtick_1">
     <g id="line2d_1">
      <path d="M 77.271114 159.23311 
L 77.271114 25.158281 
" clip-path="url(#ped4889c15d)" style="fill: none; stroke: #b0b0b0; stroke-opacity: 0.25; stroke-width: 0.5; stroke-linecap: square"/>
     </g>
     <g id="line2d_2">
      <defs>
       <path id="mfe1cc5f0b7" d="M 0 0 
L 0 3.5 
" style="stroke: #000000; stroke-width: 0.8"/>
      </defs>
      <g>
       <use xlink:href="#mfe1cc5f0b7" x="77.271114" y="159.23311" style="stroke: #000000; stroke-width: 0.8"/>
      </g>
     </g>
     <g id="text_1">
      <!-- Apr 2024 -->
      <g transform="translate(43.855034 190.309962) rotate(-30) scale(0.08 -0.08)">
       <defs>
        <path id="DejaVuSerif-41" d="M 1281 1691 
L 2994 1691 
L 2138 3909 
L 1281 1691 
z
M -38 0 
L -38 331 
L 372 331 
L 2034 4666 
L 2559 4666 
L 4225 331 
L 4684 331 
L 4684 0 
L 2988 0 
L 2988 331 
L 3506 331 
L 3116 1356 
L 1153 1356 
L 763 331 
L 1275 331 
L 1275 0 
L -38 0 
z
" transform="scale(0.015625)"/>
        <path id="DejaVuSerif-70" d="M 1313 1825 
L 1313 1497 
Q 1313 897 1542 583 
Q 1772 269 2209 269 
Q 2650 269 2876 622 
Q 3103 975 3103 1663 
Q 3103 2353 2876 2703 
Q 2650 3053 2209 3053 
Q 1772 3053 1542 2737 
Q 1313 2422 1313 1825 
z
M 738 2988 
L 184 2988 
L 184 3322 
L 1313 3322 
L 1313 2803 
Q 1481 3116 1742 3264 
Q 2003 3413 2388 3413 
Q 3000 3413 3387 2928 
Q 3775 2444 3775 1663 
Q 3775 881 3387 395 
Q 3000 -91 2388 -91 
Q 2003 -91 1742 57 
Q 1481 206 1313 519 
L 1313 -997 
L 1856 -997 
L 1856 -1331 
L 184 -1331 
L 184 -997 
L 738 -997 
L 738 2988 
z
" transform="scale(0.015625)"/>
        <path id="DejaVuSerif-72" d="M 3059 3328 
L 3059 2497 
L 2728 2497 
Q 2713 2744 2591 2866 
Q 2469 2988 2234 2988 
Q 1809 2988 1582 2694 
Q 1356 2400 1356 1850 
L 1356 331 
L 2022 331 
L 2022 0 
L 263 0 
L 263 331 
L 781 331 
L 781 2994 
L 231 2994 
L 231 3322 
L 1356 3322 
L 1356 2731 
Q 1525 3078 1790 3245 
Q 2056 3413 2438 3413 
Q 2578 3413 2733 3391 
Q 2888 3369 3059 3328 
z
" transform="scale(0.015625)"/>
        <path id="DejaVuSerif-20" transform="scale(0.015625)"/>
        <path id="DejaVuSerif-32" d="M 819 3553 
L 469 3553 
L 469 4384 
Q 803 4563 1142 4656 
Q 1481 4750 1806 4750 
Q 2534 4750 2956 4397 
Q 3378 4044 3378 3438 
Q 3378 2753 2422 1800 
Q 2347 1728 2309 1691 
L 1131 513 
L 3078 513 
L 3078 1088 
L 3444 1088 
L 3444 0 
L 434 0 
L 434 341 
L 1850 1753 
Q 2319 2222 2519 2614 
Q 2719 3006 2719 3438 
Q 2719 3909 2473 4175 
Q 2228 4441 1797 4441 
Q 1350 4441 1106 4219 
Q 863 3997 819 3553 
z
" transform="scale(0.015625)"/>
        <path id="DejaVuSerif-30" d="M 2034 219 
Q 2513 219 2750 744 
Q 2988 1269 2988 2328 
Q 2988 3391 2750 3916 
Q 2513 4441 2034 4441 
Q 1556 4441 1318 3916 
Q 1081 3391 1081 2328 
Q 1081 1269 1318 744 
Q 1556 219 2034 219 
z
M 2034 -91 
Q 1275 -91 848 546 
Q 422 1184 422 2328 
Q 422 3475 848 4112 
Q 1275 4750 2034 4750 
Q 2797 4750 3222 4112 
Q 3647 3475 3647 2328 
Q 3647 1184 3222 546 
Q 2797 -91 2034 -91 
z
" transform="scale(0.015625)"/>
        <path id="DejaVuSerif-34" d="M 2234 1581 
L 2234 4063 
L 641 1581 
L 2234 1581 
z
M 3609 0 
L 1484 0 
L 1484 331 
L 2234 331 
L 2234 1247 
L 197 1247 
L 197 1588 
L 2241 4750 
L 2859 4750 
L 2859 1581 
L 3750 1581 
L 3750 1247 
L 2859 1247 
L 2859 331 
L 3609 331 
L 3609 0 
z
" transform="scale(0.015625)"/>
       </defs>
       <use xlink:href="#DejaVuSerif-41"/>
       <use xlink:href="#DejaVuSerif-70" transform="translate(72.216797 0)"/>
       <use xlink:href="#DejaVuSerif-72" transform="translate(136.230469 0)"/>
       <use xlink:href="#DejaVuSerif-20" transform="translate(184.033203 0)"/>
       <use xlink:href="#DejaVuSerif-32" transform="translate(215.820312 0)"/>
       <use xlink:href="#DejaVuSerif-30" transform="translate(279.443359 0)"/>
       <use xlink:href="#DejaVuSerif-32" transform="translate(343.066406 0)"/>
       <use xlink:href="#DejaVuSerif-34" transform="translate(406.689453 0)"/>
      </g>
     </g>
    </g>
    <g id="xtick_2">
     <g id="line2d_3">
      <path d="M 112.712792 159.23311 
L 112.712792 25.158281 
" clip-path="url(#ped4889c15d)" style="fill: none; stroke: #b0b0b0; stroke-opacity: 0.25; stroke-width: 0.5; stroke-linecap: square"/>
     </g>
     <g id="line2d_4">
      <g>
       <use xlink:href="#mfe1cc5f0b7" x="112.712792" y="159.23311" style="stroke: #000000; stroke-width: 0.8"/>
      </g>
     </g>
     <g id="text_2">
      <!-- Jun 2024 -->
      <g transform="translate(80.344602 189.704962) rotate(-30) scale(0.08 -0.08)">
       <defs>
        <path id="DejaVuSerif-4a" d="M -538 -1119 
L -538 -384 
L -181 -384 
Q -172 -694 -34 -845 
Q 103 -997 378 -997 
Q 750 -997 897 -762 
Q 1044 -528 1044 153 
L 1044 4331 
L 319 4331 
L 319 4666 
L 2272 4666 
L 2272 4331 
L 1678 4331 
L 1678 128 
Q 1678 -644 1368 -987 
Q 1059 -1331 372 -1331 
Q 150 -1331 -79 -1278 
Q -309 -1225 -538 -1119 
z
" transform="scale(0.015625)"/>
        <path id="DejaVuSerif-75" d="M 2266 3322 
L 3341 3322 
L 3341 331 
L 3884 331 
L 3884 0 
L 2766 0 
L 2766 588 
Q 2606 256 2353 82 
Q 2100 -91 1766 -91 
Q 1213 -91 952 223 
Q 691 538 691 1209 
L 691 2988 
L 172 2988 
L 172 3322 
L 1269 3322 
L 1269 1388 
Q 1269 781 1417 556 
Q 1566 331 1947 331 
Q 2347 331 2556 625 
Q 2766 919 2766 1478 
L 2766 2988 
L 2266 2988 
L 2266 3322 
z
" transform="scale(0.015625)"/>
        <path id="DejaVuSerif-6e" d="M 263 0 
L 263 331 
L 781 331 
L 781 2988 
L 231 2988 
L 231 3322 
L 1356 3322 
L 1356 2731 
Q 1516 3069 1770 3241 
Q 2025 3413 2363 3413 
Q 2913 3413 3172 3097 
Q 3431 2781 3431 2113 
L 3431 331 
L 3944 331 
L 3944 0 
L 2356 0 
L 2356 331 
L 2853 331 
L 2853 1931 
Q 2853 2541 2703 2767 
Q 2553 2994 2175 2994 
Q 1775 2994 1565 2701 
Q 1356 2409 1356 1850 
L 1356 331 
L 1856 331 
L 1856 0 
L 263 0 
z
" transform="scale(0.015625)"/>
       </defs>
       <use xlink:href="#DejaVuSerif-4a"/>
       <use xlink:href="#DejaVuSerif-75" transform="translate(40.087891 0)"/>
       <use xlink:href="#DejaVuSerif-6e" transform="translate(104.492188 0)"/>
       <use xlink:href="#DejaVuSerif-20" transform="translate(168.896484 0)"/>
       <use xlink:href="#DejaVuSerif-32" transform="translate(200.683594 0)"/>
       <use xlink:href="#DejaVuSerif-30" transform="translate(264.306641 0)"/>
       <use xlink:href="#DejaVuSerif-32" transform="translate(327.929688 0)"/>
       <use xlink:href="#DejaVuSerif-34" transform="translate(391.552734 0)"/>
      </g>
     </g>
    </g>
    <g id="xtick_3">
     <g id="line2d_5">
      <path d="M 148.154469 159.23311 
L 148.154469 25.158281 
" clip-path="url(#ped4889c15d)" style="fill: none; stroke: #b0b0b0; stroke-opacity: 0.25; stroke-width: 0.5; stroke-linecap: square"/>
     </g>
     <g id="line2d_6">
      <g>
       <use xlink:href="#mfe1cc5f0b7" x="148.154469" y="159.23311" style="stroke: #000000; stroke-width: 0.8"/>
      </g>
     </g>
     <g id="text_3">
      <!-- Aug 2024 -->
      <g transform="translate(113.530782 190.875827) rotate(-30) scale(0.08 -0.08)">
       <defs>
        <path id="DejaVuSerif-67" d="M 3359 2988 
L 3359 72 
Q 3359 -644 2965 -1033 
Q 2572 -1422 1844 -1422 
Q 1516 -1422 1216 -1362 
Q 916 -1303 641 -1184 
L 641 -488 
L 941 -488 
Q 997 -813 1206 -963 
Q 1416 -1113 1806 -1113 
Q 2313 -1113 2548 -827 
Q 2784 -541 2784 72 
L 2784 519 
Q 2616 206 2355 57 
Q 2094 -91 1709 -91 
Q 1097 -91 708 395 
Q 319 881 319 1663 
Q 319 2444 706 2928 
Q 1094 3413 1709 3413 
Q 2094 3413 2355 3264 
Q 2616 3116 2784 2803 
L 2784 3322 
L 3909 3322 
L 3909 2988 
L 3359 2988 
z
M 2784 1825 
Q 2784 2422 2554 2737 
Q 2325 3053 1888 3053 
Q 1444 3053 1217 2703 
Q 991 2353 991 1663 
Q 991 975 1217 622 
Q 1444 269 1888 269 
Q 2325 269 2554 583 
Q 2784 897 2784 1497 
L 2784 1825 
z
" transform="scale(0.015625)"/>
       </defs>
       <use xlink:href="#DejaVuSerif-41"/>
       <use xlink:href="#DejaVuSerif-75" transform="translate(72.216797 0)"/>
       <use xlink:href="#DejaVuSerif-67" transform="translate(136.621094 0)"/>
       <use xlink:href="#DejaVuSerif-20" transform="translate(200.634766 0)"/>
       <use xlink:href="#DejaVuSerif-32" transform="translate(232.421875 0)"/>
       <use xlink:href="#DejaVuSerif-30" transform="translate(296.044922 0)"/>
       <use xlink:href="#DejaVuSerif-32" transform="translate(359.667969 0)"/>
       <use xlink:href="#DejaVuSerif-34" transform="translate(423.291016 0)"/>
      </g>
     </g>
    </g>
    <g id="xtick_4">
     <g id="line2d_7">
      <path d="M 183.596147 159.23311 
L 183.596147 25.158281 
" clip-path="url(#ped4889c15d)" style="fill: none; stroke: #b0b0b0; stroke-opacity: 0.25; stroke-width: 0.5; stroke-linecap: square"/>
     </g>
     <g id="line2d_8">
      <g>
       <use xlink:href="#mfe1cc5f0b7" x="183.596147" y="159.23311" style="stroke: #000000; stroke-width: 0.8"/>
      </g>
     </g>
     <g id="text_4">
      <!-- Oct 2024 -->
      <g transform="translate(150.586015 190.075587) rotate(-30) scale(0.08 -0.08)">
       <defs>
        <path id="DejaVuSerif-4f" d="M 2625 244 
Q 3391 244 3781 770 
Q 4172 1297 4172 2328 
Q 4172 3363 3781 3889 
Q 3391 4416 2625 4416 
Q 1856 4416 1465 3889 
Q 1075 3363 1075 2328 
Q 1075 1297 1465 770 
Q 1856 244 2625 244 
z
M 2625 -91 
Q 2150 -91 1751 65 
Q 1353 222 1050 525 
Q 700 875 529 1319 
Q 359 1763 359 2328 
Q 359 2894 529 3339 
Q 700 3784 1050 4134 
Q 1356 4441 1750 4595 
Q 2144 4750 2625 4750 
Q 3641 4750 4266 4084 
Q 4891 3419 4891 2328 
Q 4891 1769 4719 1320 
Q 4547 872 4197 525 
Q 3891 219 3497 64 
Q 3103 -91 2625 -91 
z
" transform="scale(0.015625)"/>
        <path id="DejaVuSerif-63" d="M 3291 997 
Q 3169 466 2822 187 
Q 2475 -91 1925 -91 
Q 1200 -91 759 389 
Q 319 869 319 1663 
Q 319 2459 759 2936 
Q 1200 3413 1925 3413 
Q 2241 3413 2553 3339 
Q 2866 3266 3181 3116 
L 3181 2266 
L 2847 2266 
Q 2781 2703 2561 2903 
Q 2341 3103 1931 3103 
Q 1466 3103 1228 2742 
Q 991 2381 991 1663 
Q 991 944 1227 581 
Q 1463 219 1931 219 
Q 2303 219 2525 412 
Q 2747 606 2828 997 
L 3291 997 
z
" transform="scale(0.015625)"/>
        <path id="DejaVuSerif-74" d="M 691 2988 
L 184 2988 
L 184 3322 
L 691 3322 
L 691 4353 
L 1269 4353 
L 1269 3322 
L 2350 3322 
L 2350 2988 
L 1269 2988 
L 1269 878 
Q 1269 456 1350 337 
Q 1431 219 1650 219 
Q 1875 219 1978 351 
Q 2081 484 2088 781 
L 2522 781 
Q 2497 328 2275 118 
Q 2053 -91 1600 -91 
Q 1103 -91 897 129 
Q 691 350 691 878 
L 691 2988 
z
" transform="scale(0.015625)"/>
       </defs>
       <use xlink:href="#DejaVuSerif-4f"/>
       <use xlink:href="#DejaVuSerif-63" transform="translate(81.982422 0)"/>
       <use xlink:href="#DejaVuSerif-74" transform="translate(137.988281 0)"/>
       <use xlink:href="#DejaVuSerif-20" transform="translate(178.173828 0)"/>
       <use xlink:href="#DejaVuSerif-32" transform="translate(209.960938 0)"/>
       <use xlink:href="#DejaVuSerif-30" transform="translate(273.583984 0)"/>
       <use xlink:href="#DejaVuSerif-32" transform="translate(337.207031 0)"/>
       <use xlink:href="#DejaVuSerif-34" transform="translate(400.830078 0)"/>
      </g>
     </g>
    </g>
    <g id="xtick_5">
     <g id="line2d_9">
      <path d="M 219.037824 159.23311 
L 219.037824 25.158281 
" clip-path="url(#ped4889c15d)" style="fill: none; stroke: #b0b0b0; stroke-opacity: 0.25; stroke-width: 0.5; stroke-linecap: square"/>
     </g>
     <g id="line2d_10">
      <g>
       <use xlink:href="#mfe1cc5f0b7" x="219.037824" y="159.23311" style="stroke: #000000; stroke-width: 0.8"/>
      </g>
     </g>
     <g id="text_5">
      <!-- Dec 2024 -->
      <g transform="translate(184.836908 190.763087) rotate(-30) scale(0.08 -0.08)">
       <defs>
        <path id="DejaVuSerif-44" d="M 1581 331 
L 2163 331 
Q 3072 331 3558 850 
Q 4044 1369 4044 2338 
Q 4044 3306 3559 3818 
Q 3075 4331 2163 4331 
L 1581 4331 
L 1581 331 
z
M 353 0 
L 353 331 
L 947 331 
L 947 4331 
L 353 4331 
L 353 4666 
L 2209 4666 
Q 3416 4666 4089 4050 
Q 4763 3434 4763 2338 
Q 4763 1238 4088 619 
Q 3413 0 2209 0 
L 353 0 
z
" transform="scale(0.015625)"/>
        <path id="DejaVuSerif-65" d="M 3469 1600 
L 991 1600 
L 991 1575 
Q 991 903 1244 561 
Q 1497 219 1991 219 
Q 2369 219 2611 417 
Q 2853 616 2950 1006 
L 3413 1006 
Q 3275 459 2904 184 
Q 2534 -91 1931 -91 
Q 1203 -91 761 389 
Q 319 869 319 1663 
Q 319 2450 753 2931 
Q 1188 3413 1894 3413 
Q 2647 3413 3050 2948 
Q 3453 2484 3469 1600 
z
M 2791 1931 
Q 2772 2513 2545 2808 
Q 2319 3103 1894 3103 
Q 1497 3103 1269 2806 
Q 1041 2509 991 1931 
L 2791 1931 
z
" transform="scale(0.015625)"/>
       </defs>
       <use xlink:href="#DejaVuSerif-44"/>
       <use xlink:href="#DejaVuSerif-65" transform="translate(80.175781 0)"/>
       <use xlink:href="#DejaVuSerif-63" transform="translate(139.355469 0)"/>
       <use xlink:href="#DejaVuSerif-20" transform="translate(195.361328 0)"/>
       <use xlink:href="#DejaVuSerif-32" transform="translate(227.148438 0)"/>
       <use xlink:href="#DejaVuSerif-30" transform="translate(290.771484 0)"/>
       <use xlink:href="#DejaVuSerif-32" transform="translate(354.394531 0)"/>
       <use xlink:href="#DejaVuSerif-34" transform="translate(418.017578 0)"/>
      </g>
     </g>
    </g>
    <g id="xtick_6">
     <g id="line2d_11">
      <path d="M 255.060513 159.23311 
L 255.060513 25.158281 
" clip-path="url(#ped4889c15d)" style="fill: none; stroke: #b0b0b0; stroke-opacity: 0.25; stroke-width: 0.5; stroke-linecap: square"/>
     </g>
     <g id="line2d_12">
      <g>
       <use xlink:href="#mfe1cc5f0b7" x="255.060513" y="159.23311" style="stroke: #000000; stroke-width: 0.8"/>
      </g>
     </g>
     <g id="text_6">
      <!-- Feb 2025 -->
      <g transform="translate(221.432256 190.432462) rotate(-30) scale(0.08 -0.08)">
       <defs>
        <path id="DejaVuSerif-46" d="M 353 0 
L 353 331 
L 947 331 
L 947 4331 
L 353 4331 
L 353 4666 
L 4172 4666 
L 4172 3628 
L 3788 3628 
L 3788 4281 
L 1581 4281 
L 1581 2719 
L 3175 2719 
L 3175 3303 
L 3559 3303 
L 3559 1753 
L 3175 1753 
L 3175 2338 
L 1581 2338 
L 1581 331 
L 2328 331 
L 2328 0 
L 353 0 
z
" transform="scale(0.015625)"/>
        <path id="DejaVuSerif-62" d="M 738 331 
L 738 4531 
L 184 4531 
L 184 4863 
L 1313 4863 
L 1313 2803 
Q 1481 3116 1742 3264 
Q 2003 3413 2388 3413 
Q 3000 3413 3387 2928 
Q 3775 2444 3775 1663 
Q 3775 881 3387 395 
Q 3000 -91 2388 -91 
Q 2003 -91 1742 57 
Q 1481 206 1313 519 
L 1313 0 
L 184 0 
L 184 331 
L 738 331 
z
M 1313 1497 
Q 1313 897 1542 583 
Q 1772 269 2209 269 
Q 2650 269 2876 622 
Q 3103 975 3103 1663 
Q 3103 2353 2876 2703 
Q 2650 3053 2209 3053 
Q 1772 3053 1542 2737 
Q 1313 2422 1313 1825 
L 1313 1497 
z
" transform="scale(0.015625)"/>
        <path id="DejaVuSerif-35" d="M 3219 4666 
L 3219 4153 
L 1081 4153 
L 1081 2816 
Q 1244 2928 1461 2984 
Q 1678 3041 1947 3041 
Q 2703 3041 3140 2622 
Q 3578 2203 3578 1478 
Q 3578 738 3136 323 
Q 2694 -91 1894 -91 
Q 1572 -91 1234 -12 
Q 897 66 544 225 
L 544 1131 
L 897 1131 
Q 925 688 1179 453 
Q 1434 219 1894 219 
Q 2388 219 2653 544 
Q 2919 869 2919 1478 
Q 2919 2084 2655 2407 
Q 2391 2731 1894 2731 
Q 1613 2731 1398 2631 
Q 1184 2531 1019 2322 
L 750 2322 
L 750 4666 
L 3219 4666 
z
" transform="scale(0.015625)"/>
       </defs>
       <use xlink:href="#DejaVuSerif-46"/>
       <use xlink:href="#DejaVuSerif-65" transform="translate(63.884766 0)"/>
       <use xlink:href="#DejaVuSerif-62" transform="translate(123.064453 0)"/>
       <use xlink:href="#DejaVuSerif-20" transform="translate(187.078125 0)"/>
       <use xlink:href="#DejaVuSerif-32" transform="translate(218.865234 0)"/>
       <use xlink:href="#DejaVuSerif-30" transform="translate(282.488281 0)"/>
       <use xlink:href="#DejaVuSerif-32" transform="translate(346.111328 0)"/>
       <use xlink:href="#DejaVuSerif-35" transform="translate(409.734375 0)"/>
      </g>
     </g>
    </g>
    <g id="xtick_7">
     <g id="line2d_13">
      <path d="M 289.340168 159.23311 
L 289.340168 25.158281 
" clip-path="url(#ped4889c15d)" style="fill: none; stroke: #b0b0b0; stroke-opacity: 0.25; stroke-width: 0.5; stroke-linecap: square"/>
     </g>
     <g id="line2d_14">
      <g>
       <use xlink:href="#mfe1cc5f0b7" x="289.340168" y="159.23311" style="stroke: #000000; stroke-width: 0.8"/>
      </g>
     </g>
     <g id="text_7">
      <!-- Apr 2025 -->
      <g transform="translate(255.924087 190.309962) rotate(-30) scale(0.08 -0.08)">
       <use xlink:href="#DejaVuSerif-41"/>
       <use xlink:href="#DejaVuSerif-70" transform="translate(72.216797 0)"/>
       <use xlink:href="#DejaVuSerif-72" transform="translate(136.230469 0)"/>
       <use xlink:href="#DejaVuSerif-20" transform="translate(184.033203 0)"/>
       <use xlink:href="#DejaVuSerif-32" transform="translate(215.820312 0)"/>
       <use xlink:href="#DejaVuSerif-30" transform="translate(279.443359 0)"/>
       <use xlink:href="#DejaVuSerif-32" transform="translate(343.066406 0)"/>
       <use xlink:href="#DejaVuSerif-35" transform="translate(406.689453 0)"/>
      </g>
     </g>
    </g>
    <g id="xtick_8">
     <g id="line2d_15">
      <path d="M 324.781845 159.23311 
L 324.781845 25.158281 
" clip-path="url(#ped4889c15d)" style="fill: none; stroke: #b0b0b0; stroke-opacity: 0.25; stroke-width: 0.5; stroke-linecap: square"/>
     </g>
     <g id="line2d_16">
      <g>
       <use xlink:href="#mfe1cc5f0b7" x="324.781845" y="159.23311" style="stroke: #000000; stroke-width: 0.8"/>
      </g>
     </g>
     <g id="text_8">
      <!-- Jun 2025 -->
      <g transform="translate(292.413655 189.704962) rotate(-30) scale(0.08 -0.08)">
       <use xlink:href="#DejaVuSerif-4a"/>
       <use xlink:href="#DejaVuSerif-75" transform="translate(40.087891 0)"/>
       <use xlink:href="#DejaVuSerif-6e" transform="translate(104.492188 0)"/>
       <use xlink:href="#DejaVuSerif-20" transform="translate(168.896484 0)"/>
       <use xlink:href="#DejaVuSerif-32" transform="translate(200.683594 0)"/>
       <use xlink:href="#DejaVuSerif-30" transform="translate(264.306641 0)"/>
       <use xlink:href="#DejaVuSerif-32" transform="translate(327.929688 0)"/>
       <use xlink:href="#DejaVuSerif-35" transform="translate(391.552734 0)"/>
      </g>
     </g>
    </g>
    <g id="xtick_9">
     <g id="line2d_17">
      <path d="M 360.223523 159.23311 
L 360.223523 25.158281 
" clip-path="url(#ped4889c15d)" style="fill: none; stroke: #b0b0b0; stroke-opacity: 0.25; stroke-width: 0.5; stroke-linecap: square"/>
     </g>
     <g id="line2d_18">
      <g>
       <use xlink:href="#mfe1cc5f0b7" x="360.223523" y="159.23311" style="stroke: #000000; stroke-width: 0.8"/>
      </g>
     </g>
     <g id="text_9">
      <!-- Aug 2025 -->
      <g transform="translate(325.599836 190.875827) rotate(-30) scale(0.08 -0.08)">
       <use xlink:href="#DejaVuSerif-41"/>
       <use xlink:href="#DejaVuSerif-75" transform="translate(72.216797 0)"/>
       <use xlink:href="#DejaVuSerif-67" transform="translate(136.621094 0)"/>
       <use xlink:href="#DejaVuSerif-20" transform="translate(200.634766 0)"/>
       <use xlink:href="#DejaVuSerif-32" transform="translate(232.421875 0)"/>
       <use xlink:href="#DejaVuSerif-30" transform="translate(296.044922 0)"/>
       <use xlink:href="#DejaVuSerif-32" transform="translate(359.667969 0)"/>
       <use xlink:href="#DejaVuSerif-35" transform="translate(423.291016 0)"/>
      </g>
     </g>
    </g>
    <g id="xtick_10">
     <g id="line2d_19">
      <path d="M 395.6652 159.23311 
L 395.6652 25.158281 
" clip-path="url(#ped4889c15d)" style="fill: none; stroke: #b0b0b0; stroke-opacity: 0.25; stroke-width: 0.5; stroke-linecap: square"/>
     </g>
     <g id="line2d_20">
      <g>
       <use xlink:href="#mfe1cc5f0b7" x="395.6652" y="159.23311" style="stroke: #000000; stroke-width: 0.8"/>
      </g>
     </g>
     <g id="text_10">
      <!-- Oct 2025 -->
      <g transform="translate(362.655069 190.075587) rotate(-30) scale(0.08 -0.08)">
       <use xlink:href="#DejaVuSerif-4f"/>
       <use xlink:href="#DejaVuSerif-63" transform="translate(81.982422 0)"/>
       <use xlink:href="#DejaVuSerif-74" transform="translate(137.988281 0)"/>
       <use xlink:href="#DejaVuSerif-20" transform="translate(178.173828 0)"/>
       <use xlink:href="#DejaVuSerif-32" transform="translate(209.960938 0)"/>
       <use xlink:href="#DejaVuSerif-30" transform="translate(273.583984 0)"/>
       <use xlink:href="#DejaVuSerif-32" transform="translate(337.207031 0)"/>
       <use xlink:href="#DejaVuSerif-35" transform="translate(400.830078 0)"/>
      </g>
     </g>
    </g>
    <g id="xtick_11">
     <g id="line2d_21">
      <path d="M 431.106878 159.23311 
L 431.106878 25.158281 
" clip-path="url(#ped4889c15d)" style="fill: none; stroke: #b0b0b0; stroke-opacity: 0.25; stroke-width: 0.5; stroke-linecap: square"/>
     </g>
     <g id="line2d_22">
      <g>
       <use xlink:href="#mfe1cc5f0b7" x="431.106878" y="159.23311" style="stroke: #000000; stroke-width: 0.8"/>
      </g>
     </g>
     <g id="text_11">
      <!-- Dec 2025 -->
      <g transform="translate(396.905961 190.763087) rotate(-30) scale(0.08 -0.08)">
       <use xlink:href="#DejaVuSerif-44"/>
       <use xlink:href="#DejaVuSerif-65" transform="translate(80.175781 0)"/>
       <use xlink:href="#DejaVuSerif-63" transform="translate(139.355469 0)"/>
       <use xlink:href="#DejaVuSerif-20" transform="translate(195.361328 0)"/>
       <use xlink:href="#DejaVuSerif-32" transform="translate(227.148438 0)"/>
       <use xlink:href="#DejaVuSerif-30" transform="translate(290.771484 0)"/>
       <use xlink:href="#DejaVuSerif-32" transform="translate(354.394531 0)"/>
       <use xlink:href="#DejaVuSerif-35" transform="translate(418.017578 0)"/>
      </g>
     </g>
    </g>
    <g id="xtick_12">
     <g id="line2d_23">
      <path d="M 467.129566 159.23311 
L 467.129566 25.158281 
" clip-path="url(#ped4889c15d)" style="fill: none; stroke: #b0b0b0; stroke-opacity: 0.25; stroke-width: 0.5; stroke-linecap: square"/>
     </g>
     <g id="line2d_24">
      <g>
       <use xlink:href="#mfe1cc5f0b7" x="467.129566" y="159.23311" style="stroke: #000000; stroke-width: 0.8"/>
      </g>
     </g>
     <g id="text_12">
      <!-- Feb 2026 -->
      <g transform="translate(433.501309 190.432462) rotate(-30) scale(0.08 -0.08)">
       <defs>
        <path id="DejaVuSerif-36" d="M 2094 219 
Q 2534 219 2771 542 
Q 3009 866 3009 1472 
Q 3009 2078 2771 2401 
Q 2534 2725 2094 2725 
Q 1647 2725 1412 2412 
Q 1178 2100 1178 1509 
Q 1178 888 1415 553 
Q 1653 219 2094 219 
z
M 1075 2569 
Q 1288 2803 1556 2918 
Q 1825 3034 2163 3034 
Q 2859 3034 3264 2615 
Q 3669 2197 3669 1472 
Q 3669 763 3233 336 
Q 2797 -91 2069 -91 
Q 1278 -91 853 498 
Q 428 1088 428 2181 
Q 428 3406 931 4078 
Q 1434 4750 2350 4750 
Q 2597 4750 2869 4703 
Q 3141 4656 3425 4563 
L 3425 3794 
L 3072 3794 
Q 3034 4109 2831 4275 
Q 2628 4441 2284 4441 
Q 1678 4441 1381 3981 
Q 1084 3522 1075 2569 
z
" transform="scale(0.015625)"/>
       </defs>
       <use xlink:href="#DejaVuSerif-46"/>
       <use xlink:href="#DejaVuSerif-65" transform="translate(63.884766 0)"/>
       <use xlink:href="#DejaVuSerif-62" transform="translate(123.064453 0)"/>
       <use xlink:href="#DejaVuSerif-20" transform="translate(187.078125 0)"/>
       <use xlink:href="#DejaVuSerif-32" transform="translate(218.865234 0)"/>
       <use xlink:href="#DejaVuSerif-30" transform="translate(282.488281 0)"/>
       <use xlink:href="#DejaVuSerif-32" transform="translate(346.111328 0)"/>
       <use xlink:href="#DejaVuSerif-36" transform="translate(409.734375 0)"/>
      </g>
     </g>
    </g>
   </g>
   <g id="matplotlib.axis_2">
    <g id="ytick_1">
     <g id="line2d_25">
      <path d="M 45.780313 138.31679 
L 495.715313 138.31679 
" clip-path="url(#ped4889c15d)" style="fill: none; stroke: #b0b0b0; stroke-opacity: 0.25; stroke-width: 0.5; stroke-linecap: square"/>
     </g>
     <g id="line2d_26">
      <defs>
       <path id="m056a66befa" d="M 0 0 
L -3.5 0 
" style="stroke: #000000; stroke-width: 0.8"/>
      </defs>
      <g>
       <use xlink:href="#m056a66befa" x="45.780313" y="138.31679" style="stroke: #000000; stroke-width: 0.8"/>
      </g>
     </g>
     <g id="text_13">
      <!-- 20 -->
      <g transform="translate(28.600313 141.356165) scale(0.08 -0.08)">
       <use xlink:href="#DejaVuSerif-32"/>
       <use xlink:href="#DejaVuSerif-30" transform="translate(63.623047 0)"/>
      </g>
     </g>
    </g>
    <g id="ytick_2">
     <g id="line2d_27">
      <path d="M 45.780313 112.428049 
L 495.715313 112.428049 
" clip-path="url(#ped4889c15d)" style="fill: none; stroke: #b0b0b0; stroke-opacity: 0.25; stroke-width: 0.5; stroke-linecap: square"/>
     </g>
     <g id="line2d_28">
      <g>
       <use xlink:href="#m056a66befa" x="45.780313" y="112.428049" style="stroke: #000000; stroke-width: 0.8"/>
      </g>
     </g>
     <g id="text_14">
      <!-- 40 -->
      <g transform="translate(28.600313 115.467424) scale(0.08 -0.08)">
       <use xlink:href="#DejaVuSerif-34"/>
       <use xlink:href="#DejaVuSerif-30" transform="translate(63.623047 0)"/>
      </g>
     </g>
    </g>
    <g id="ytick_3">
     <g id="line2d_29">
      <path d="M 45.780313 86.539308 
L 495.715313 86.539308 
" clip-path="url(#ped4889c15d)" style="fill: none; stroke: #b0b0b0; stroke-opacity: 0.25; stroke-width: 0.5; stroke-linecap: square"/>
     </g>
     <g id="line2d_30">
      <g>
       <use xlink:href="#m056a66befa" x="45.780313" y="86.539308" style="stroke: #000000; stroke-width: 0.8"/>
      </g>
     </g>
     <g id="text_15">
      <!-- 60 -->
      <g transform="translate(28.600313 89.578683) scale(0.08 -0.08)">
       <use xlink:href="#DejaVuSerif-36"/>
       <use xlink:href="#DejaVuSerif-30" transform="translate(63.623047 0)"/>
      </g>
     </g>
    </g>
    <g id="ytick_4">
     <g id="line2d_31">
      <path d="M 45.780313 60.650567 
L 495.715313 60.650567 
" clip-path="url(#ped4889c15d)" style="fill: none; stroke: #b0b0b0; stroke-opacity: 0.25; stroke-width: 0.5; stroke-linecap: square"/>
     </g>
     <g id="line2d_32">
      <g>
       <use xlink:href="#m056a66befa" x="45.780313" y="60.650567" style="stroke: #000000; stroke-width: 0.8"/>
      </g>
     </g>
     <g id="text_16">
      <!-- 80 -->
      <g transform="translate(28.600313 63.689942) scale(0.08 -0.08)">
       <defs>
        <path id="DejaVuSerif-38" d="M 2981 1275 
Q 2981 1775 2732 2051 
Q 2484 2328 2034 2328 
Q 1584 2328 1336 2051 
Q 1088 1775 1088 1275 
Q 1088 772 1336 495 
Q 1584 219 2034 219 
Q 2484 219 2732 495 
Q 2981 772 2981 1275 
z
M 2853 3541 
Q 2853 3966 2637 4203 
Q 2422 4441 2034 4441 
Q 1650 4441 1433 4203 
Q 1216 3966 1216 3541 
Q 1216 3113 1433 2875 
Q 1650 2638 2034 2638 
Q 2422 2638 2637 2875 
Q 2853 3113 2853 3541 
z
M 2516 2484 
Q 3047 2413 3344 2092 
Q 3641 1772 3641 1275 
Q 3641 619 3225 264 
Q 2809 -91 2034 -91 
Q 1263 -91 845 264 
Q 428 619 428 1275 
Q 428 1772 725 2092 
Q 1022 2413 1556 2484 
Q 1084 2569 832 2842 
Q 581 3116 581 3541 
Q 581 4103 968 4426 
Q 1356 4750 2034 4750 
Q 2713 4750 3100 4426 
Q 3488 4103 3488 3541 
Q 3488 3116 3236 2842 
Q 2984 2569 2516 2484 
z
" transform="scale(0.015625)"/>
       </defs>
       <use xlink:href="#DejaVuSerif-38"/>
       <use xlink:href="#DejaVuSerif-30" transform="translate(63.623047 0)"/>
      </g>
     </g>
    </g>
    <g id="ytick_5">
     <g id="line2d_33">
      <path d="M 45.780313 34.761826 
L 495.715313 34.761826 
" clip-path="url(#ped4889c15d)" style="fill: none; stroke: #b0b0b0; stroke-opacity: 0.25; stroke-width: 0.5; stroke-linecap: square"/>
     </g>
     <g id="line2d_34">
      <g>
       <use xlink:href="#m056a66befa" x="45.780313" y="34.761826" style="stroke: #000000; stroke-width: 0.8"/>
      </g>
     </g>
     <g id="text_17">
      <!-- 100 -->
      <g transform="translate(23.510313 37.801201) scale(0.08 -0.08)">
       <defs>
        <path id="DejaVuSerif-31" d="M 909 0 
L 909 331 
L 1722 331 
L 1722 4213 
L 781 3603 
L 781 4013 
L 1919 4750 
L 2350 4750 
L 2350 331 
L 3163 331 
L 3163 0 
L 909 0 
z
" transform="scale(0.015625)"/>
       </defs>
       <use xlink:href="#DejaVuSerif-31"/>
       <use xlink:href="#DejaVuSerif-30" transform="translate(63.623047 0)"/>
       <use xlink:href="#DejaVuSerif-30" transform="translate(127.246094 0)"/>
      </g>
     </g>
    </g>
    <g id="text_18">
     <!-- % -->
     <g transform="translate(17.638594 96.471399) rotate(-90) scale(0.09 -0.09)">
      <defs>
       <path id="DejaVuSerif-25" d="M 1434 4459 
Q 1159 4459 1004 4200 
Q 850 3941 850 3475 
Q 850 3016 1008 2753 
Q 1166 2491 1434 2491 
Q 1700 2491 1854 2752 
Q 2009 3013 2009 3475 
Q 2009 3938 1854 4198 
Q 1700 4459 1434 4459 
z
M 4653 2169 
Q 4381 2169 4226 1906 
Q 4072 1644 4072 1178 
Q 4072 719 4228 458 
Q 4384 197 4653 197 
Q 4922 197 5075 458 
Q 5228 719 5228 1178 
Q 5228 1641 5073 1905 
Q 4919 2169 4653 2169 
z
M 4653 2450 
Q 5147 2450 5437 2106 
Q 5728 1763 5728 1178 
Q 5728 594 5436 251 
Q 5144 -91 4653 -91 
Q 4153 -91 3862 251 
Q 3572 594 3572 1178 
Q 3572 1766 3864 2108 
Q 4156 2450 4653 2450 
z
M 4263 4750 
L 4738 4750 
L 1819 -91 
L 1344 -91 
L 4263 4750 
z
M 1428 4750 
Q 1922 4750 2215 4408 
Q 2509 4066 2509 3481 
Q 2509 2891 2217 2550 
Q 1925 2209 1428 2209 
Q 931 2209 642 2551 
Q 353 2894 353 3481 
Q 353 4063 643 4406 
Q 934 4750 1428 4750 
z
" transform="scale(0.015625)"/>
      </defs>
      <use xlink:href="#DejaVuSerif-25"/>
     </g>
    </g>
   </g>
   <g id="line2d_35">
    <path d="M 66.231903 153.1388 
L 66.812915 130.351867 
L 67.393926 142.177265 
L 67.974937 143.819333 
L 68.555948 144.924552 
L 69.136959 145.170228 
L 69.71797 143.619516 
L 70.298981 141.562874 
L 70.879992 143.419836 
L 71.461003 144.119439 
L 72.042014 145.110161 
L 72.623026 145.540496 
L 73.204037 142.935868 
L 73.785048 139.421479 
L 74.94707 99.459121 
L 75.528081 99.456416 
L 76.109092 99.58079 
L 76.690103 99.410814 
L 77.852126 99.453391 
L 78.433137 99.833641 
L 79.014148 112.441333 
L 79.595159 120.308492 
L 80.17617 133.138801 
L 80.757181 133.893646 
L 81.338192 133.625802 
L 81.919203 130.956515 
L 82.500214 132.202109 
L 83.081225 120.462465 
L 83.662237 118.505482 
L 84.243248 135.362427 
L 84.824259 132.506884 
L 85.40527 132.696924 
L 85.986281 131.384813 
L 86.567292 133.622082 
L 87.148303 135.337703 
L 87.729314 137.637163 
L 88.310325 138.9982 
L 88.891337 138.964612 
L 89.472348 135.752055 
L 90.053359 134.997025 
L 90.63437 134.442729 
L 91.215381 132.596694 
L 91.796392 132.313341 
L 92.377403 135.734074 
L 92.958414 136.067039 
L 93.539425 132.052801 
L 94.120436 130.749182 
L 94.701448 132.543064 
L 95.282459 130.80275 
L 95.86347 130.814617 
L 96.444481 134.281735 
L 97.025492 134.905264 
L 97.606503 131.079389 
L 98.187514 125.679757 
L 98.768525 127.900801 
L 99.349536 123.983627 
L 99.930548 127.463763 
L 100.511559 133.078006 
L 101.09257 132.395346 
L 102.254592 129.767215 
L 102.835603 133.560168 
L 103.416614 131.202452 
L 103.997625 129.901591 
L 104.578636 132.243116 
L 105.159647 131.920017 
L 105.740659 130.170322 
L 106.32167 126.445841 
L 106.902681 126.658036 
L 107.483692 126.109738 
L 108.064703 126.847454 
L 108.645714 128.989895 
L 109.226725 129.632974 
L 110.969759 111.21259 
L 111.55077 113.401383 
L 112.131781 113.081568 
L 112.712792 115.192983 
L 113.293803 116.222245 
L 113.874814 111.521799 
L 115.036836 108.085569 
L 115.617847 107.327108 
L 116.198858 111.629193 
L 116.77987 115.037763 
L 117.360881 112.405137 
L 117.941892 110.475604 
L 118.522903 108.053616 
L 119.103914 107.876898 
L 119.684925 107.034411 
L 120.265936 108.177119 
L 120.846947 110.072659 
L 121.427958 113.464731 
L 122.00897 104.450213 
L 122.589981 105.227059 
L 123.170992 106.503965 
L 123.752003 101.542077 
L 124.333014 99.486693 
L 124.914025 104.981323 
L 125.495036 104.577654 
L 126.076047 103.043637 
L 126.657058 105.318465 
L 127.238069 102.327668 
L 128.400092 107.507273 
L 128.981103 111.761267 
L 129.562114 111.75789 
L 130.724136 102.75703 
L 131.305147 105.68811 
L 131.886158 105.242763 
L 132.467169 105.218869 
L 133.629192 108.411558 
L 134.210203 102.606224 
L 134.791214 100.70769 
L 135.953236 113.902435 
L 136.534247 114.792087 
L 137.115258 116.321737 
L 137.696269 109.430697 
L 138.27728 110.754193 
L 138.858292 111.637636 
L 139.439303 111.572193 
L 140.020314 107.633035 
L 140.601325 110.553414 
L 141.182336 110.995006 
L 141.763347 112.245607 
L 142.925369 105.975436 
L 143.50638 105.115856 
L 144.087392 106.083585 
L 144.668403 109.508334 
L 145.249414 110.675862 
L 145.830425 113.815204 
L 146.411436 110.135291 
L 146.992447 112.783435 
L 147.573458 112.288319 
L 148.73548 107.854625 
L 149.316491 113.84925 
L 149.897503 114.983381 
L 150.478514 111.611315 
L 151.059525 106.584653 
L 151.640536 110.130759 
L 152.221547 110.221042 
L 152.802558 112.163792 
L 153.383569 115.641575 
L 153.96458 113.599112 
L 154.545591 108.706866 
L 155.126603 108.911558 
L 155.707614 113.957685 
L 156.288625 114.075427 
L 156.869636 114.370157 
L 157.450647 114.015043 
L 158.031658 113.512461 
L 158.612669 114.401868 
L 159.19368 109.602968 
L 159.774691 110.047621 
L 160.355702 112.954214 
L 160.936714 113.288233 
L 161.517725 113.275921 
L 162.098736 117.023256 
L 162.679747 115.459135 
L 163.260758 114.623082 
L 163.841769 108.322399 
L 164.42278 111.726722 
L 165.003791 116.01155 
L 165.584802 121.277557 
L 166.165814 119.883168 
L 166.746825 116.757884 
L 167.327836 118.475977 
L 167.908847 119.199831 
L 168.489858 118.093017 
L 169.070869 117.812951 
L 169.65188 119.497958 
L 170.232891 120.24096 
L 170.813902 117.894373 
L 171.394913 116.605287 
L 171.975925 114.617375 
L 172.556936 116.648751 
L 173.137947 117.924471 
L 173.718958 120.400218 
L 174.299969 119.80714 
L 174.88098 119.042895 
L 175.461991 120.559351 
L 176.043002 118.820331 
L 177.205025 113.871339 
L 177.786036 114.990616 
L 178.367047 118.025908 
L 178.948058 116.012765 
L 179.529069 117.939989 
L 180.11008 118.770351 
L 180.691091 118.416167 
L 181.272102 116.297166 
L 182.434124 119.317989 
L 183.015136 117.246572 
L 183.596147 117.948115 
L 184.177158 114.569811 
L 184.758169 113.865309 
L 185.33918 116.092197 
L 185.920191 120.306238 
L 186.501202 123.025188 
L 187.082213 119.593307 
L 187.663224 117.447933 
L 188.244236 115.964615 
L 188.825247 108.627426 
L 189.406258 113.259162 
L 189.987269 115.66867 
L 191.149291 111.339552 
L 191.730302 105.825944 
L 192.311313 106.728235 
L 192.892324 106.099811 
L 193.473335 110.279683 
L 194.054347 120.07385 
L 195.216369 114.014732 
L 195.79738 103.559127 
L 196.378391 105.199648 
L 196.959402 105.635203 
L 197.540413 103.957318 
L 198.121424 105.332148 
L 198.702435 108.914766 
L 199.864458 99.498727 
L 201.607491 99.486688 
L 202.188502 100.937221 
L 202.769513 98.676951 
L 203.350524 100.407546 
L 203.931535 98.377863 
L 204.512546 100.043963 
L 205.093558 100.348565 
L 205.674569 100.824892 
L 206.25558 99.465635 
L 206.836591 98.533258 
L 207.998613 100.345191 
L 208.579624 100.808157 
L 209.160635 99.800101 
L 209.741646 98.320614 
L 210.322658 99.224984 
L 211.48468 99.967777 
L 212.065691 99.80837 
L 212.646702 100.010975 
L 213.227713 98.754809 
L 214.389735 99.805678 
L 214.970746 98.619637 
L 215.551757 99.580139 
L 216.132769 99.474648 
L 216.71378 100.029587 
L 217.294791 99.222728 
L 217.875802 103.309318 
L 218.456813 98.307904 
L 219.037824 100.184561 
L 219.618835 98.759923 
L 220.199846 100.695631 
L 220.780857 97.902452 
L 221.361869 99.571133 
L 221.94288 99.60417 
L 222.523891 99.806398 
L 223.104902 99.856785 
L 223.685913 99.200919 
L 224.266924 99.00131 
L 224.847935 101.222979 
L 225.428946 98.207185 
L 226.009957 99.339089 
L 226.590968 99.896131 
L 227.17198 99.016645 
L 227.752991 99.579924 
L 228.334002 100.777514 
L 228.915013 98.75379 
L 229.496024 99.501765 
L 230.077035 99.757643 
L 230.658046 99.522964 
L 231.239057 100.149858 
L 231.820068 98.414944 
L 232.40108 99.939488 
L 232.982091 99.456561 
L 233.563102 99.157943 
L 234.144113 99.531902 
L 234.725124 99.510774 
L 235.306135 99.230929 
L 235.887146 99.528857 
L 236.468157 101.174985 
L 237.049168 100.209031 
L 237.630179 100.927155 
L 238.211191 99.682434 
L 238.792202 98.9835 
L 239.373213 103.350281 
L 239.954224 97.782853 
L 240.535235 99.709285 
L 241.116246 99.306103 
L 241.697257 99.956805 
L 242.278268 99.453539 
L 242.859279 99.317957 
L 243.440291 99.703269 
L 244.021302 99.721982 
L 244.602313 98.687881 
L 245.183324 99.57101 
L 246.345346 99.411384 
L 246.926357 99.896419 
L 247.507368 99.911542 
L 248.088379 98.818893 
L 248.66939 99.402313 
L 249.250402 99.378308 
L 249.831413 100.010607 
L 250.412424 98.890756 
L 250.993435 100.074086 
L 251.574446 100.10111 
L 252.155457 98.220637 
L 252.736468 99.73671 
L 253.89849 99.835919 
L 255.060513 99.42945 
L 256.222535 99.158125 
L 256.803546 99.314779 
L 257.384557 100.564635 
L 257.965568 99.384329 
L 258.546579 99.579978 
L 259.12759 100.041262 
L 259.708601 99.727571 
L 260.289613 98.742658 
L 260.870624 99.38426 
L 261.451635 99.295947 
L 262.613657 100.400753 
L 263.194668 102.052222 
L 263.775679 99.975986 
L 264.35669 99.103175 
L 264.937701 99.381247 
L 266.099724 99.226774 
L 266.680735 98.959542 
L 267.261746 100.82847 
L 267.842757 100.89782 
L 268.423768 97.729062 
L 269.004779 100.089232 
L 269.58579 99.134449 
L 270.166801 100.864387 
L 270.747812 99.125667 
L 271.328824 103.442864 
L 271.909835 100.855172 
L 272.490846 99.296996 
L 273.071857 99.763664 
L 273.652868 100.670517 
L 274.81489 98.750671 
L 275.395901 100.934611 
L 275.976912 98.808739 
L 276.557924 99.474636 
L 277.138935 99.676599 
L 277.719946 99.516823 
L 278.300957 100.350368 
L 278.881968 99.067868 
L 279.462979 100.678386 
L 280.04399 98.775694 
L 280.625001 99.134205 
L 281.206012 101.160379 
L 281.787024 101.228764 
L 282.368035 102.613438 
L 282.949046 100.785451 
L 283.530057 101.599539 
L 284.111068 105.472766 
L 284.692079 102.196228 
L 285.27309 100.871653 
L 286.435112 99.113168 
L 287.597135 99.755125 
L 288.178146 100.479492 
L 288.759157 99.56501 
L 289.340168 100.474304 
L 289.921179 102.077367 
L 290.50219 100.1378 
L 291.664212 106.223464 
L 292.245223 102.516997 
L 292.826235 100.539746 
L 293.407246 121.089729 
L 293.988257 120.995437 
L 294.569268 121.536583 
L 295.150279 120.662789 
L 295.73129 121.686882 
L 296.312301 122.398486 
L 296.893312 120.182793 
L 297.474323 121.612199 
L 298.055334 120.738729 
L 298.636346 120.686063 
L 299.217357 121.103773 
L 299.798368 123.026287 
L 300.379379 122.844155 
L 301.541401 119.980587 
L 302.122412 122.023298 
L 302.703423 120.715856 
L 303.284434 120.919277 
L 303.865446 121.528502 
L 304.446457 120.250359 
L 305.027468 121.05763 
L 305.608479 121.101872 
L 306.18949 121.019373 
L 306.770501 121.192725 
L 307.351512 121.863963 
L 307.932523 120.315261 
L 308.513534 121.343952 
L 309.094545 121.939679 
L 309.675557 120.877948 
L 310.256568 119.479995 
L 310.837579 114.302457 
L 311.41859 113.277027 
L 311.999601 113.344909 
L 312.580612 112.451113 
L 313.161623 107.851775 
L 313.742634 109.396144 
L 314.323645 110.31722 
L 314.904657 112.187496 
L 315.485668 112.284425 
L 316.066679 115.489703 
L 316.64769 113.854199 
L 317.228701 113.882468 
L 317.809712 111.261465 
L 318.390723 106.17946 
L 318.971734 106.642815 
L 319.552745 106.805802 
L 320.133756 107.21709 
L 320.714768 109.291119 
L 321.295779 108.454685 
L 321.87679 109.88632 
L 322.457801 102.766211 
L 323.038812 104.771945 
L 323.619823 103.635222 
L 324.200834 112.052903 
L 324.781845 115.264708 
L 325.362856 113.145063 
L 325.943868 104.007671 
L 326.524879 106.695142 
L 327.10589 105.441853 
L 327.686901 105.084976 
L 328.267912 111.801181 
L 328.848923 107.553432 
L 329.429934 107.18025 
L 330.010945 102.918548 
L 330.591956 103.539417 
L 331.172967 100.898249 
L 332.33499 104.424884 
L 332.916001 109.345538 
L 333.497012 101.68083 
L 334.078023 104.581767 
L 334.659034 102.993379 
L 335.240045 110.206374 
L 335.821056 105.492035 
L 336.402067 108.156684 
L 336.983079 108.496984 
L 337.56409 108.06297 
L 338.145101 109.843268 
L 338.726112 108.556404 
L 339.307123 107.741492 
L 339.888134 110.677207 
L 340.469145 111.023327 
L 341.050156 111.716975 
L 341.631167 106.685037 
L 342.212178 106.789654 
L 342.79319 106.496117 
L 343.374201 108.975574 
L 343.955212 107.955504 
L 344.536223 108.443897 
L 345.117234 109.592949 
L 345.698245 111.465858 
L 346.279256 110.825648 
L 346.860267 109.018415 
L 347.441278 103.316706 
L 348.02229 105.510141 
L 348.603301 106.40192 
L 349.765323 106.626813 
L 350.346334 105.693951 
L 350.927345 103.48733 
L 351.508356 102.057877 
L 352.089367 101.216816 
L 352.670378 103.451579 
L 353.251389 101.535901 
L 353.832401 100.886985 
L 354.413412 95.979081 
L 354.994423 100.524223 
L 355.575434 101.135629 
L 356.156445 102.187469 
L 356.737456 103.942235 
L 357.318467 103.30253 
L 357.899478 100.347763 
L 358.480489 102.925977 
L 359.061501 106.622666 
L 359.642512 105.355765 
L 360.223523 102.473689 
L 360.804534 105.566783 
L 361.385545 109.554332 
L 361.966556 106.265497 
L 362.547567 105.465898 
L 363.128578 103.870392 
L 363.709589 104.578115 
L 364.2906 100.725432 
L 364.871612 101.773012 
L 365.452623 104.816125 
L 366.614645 106.602731 
L 367.195656 105.597051 
L 367.776667 102.142433 
L 368.357678 106.35993 
L 368.938689 106.494284 
L 369.5197 105.760922 
L 370.100712 103.958566 
L 370.681723 104.63465 
L 371.262734 104.13712 
L 371.843745 106.393653 
L 372.424756 104.675346 
L 373.005767 105.439271 
L 373.586778 105.92519 
L 374.167789 99.836824 
L 374.7488 100.562326 
L 375.329811 97.676064 
L 376.491834 101.317113 
L 377.072845 104.26386 
L 377.653856 109.537871 
L 378.815878 103.424375 
L 379.396889 102.406562 
L 379.9779 100.899039 
L 380.558911 101.28703 
L 381.139923 104.624072 
L 381.720934 100.579298 
L 382.301945 94.628862 
L 382.882956 96.523492 
L 383.463967 93.530294 
L 384.044978 94.64994 
L 384.625989 95.148815 
L 385.207 98.810402 
L 385.788011 97.94433 
L 386.369022 92.565819 
L 386.950034 94.753078 
L 387.531045 90.010009 
L 388.112056 90.190918 
L 388.693067 94.152722 
L 389.274078 94.548698 
L 389.855089 88.011385 
L 390.4361 86.761817 
L 391.017111 84.007499 
L 391.598122 81.836281 
L 392.179134 81.294114 
L 392.760145 85.389986 
L 393.341156 87.159728 
L 393.922167 90.711278 
L 394.503178 90.78559 
L 395.084189 90.079185 
L 395.6652 83.489545 
L 396.246211 87.123225 
L 396.827222 87.540311 
L 397.408233 85.315186 
L 397.989245 82.286964 
L 398.570256 80.449969 
L 399.732278 84.903636 
L 400.313289 82.691878 
L 400.8943 85.284148 
L 401.475311 88.811752 
L 402.056322 88.917665 
L 402.637333 86.71041 
L 403.218345 86.275794 
L 403.799356 89.855684 
L 404.380367 90.507376 
L 404.961378 87.343369 
L 405.542389 93.542238 
L 406.1234 95.44315 
L 406.704411 95.553341 
L 407.285422 91.179636 
L 407.866433 90.575484 
L 408.447444 91.590278 
L 409.028456 87.23285 
L 409.609467 90.675748 
L 410.190478 89.968565 
L 410.771489 88.35426 
L 411.3525 83.371819 
L 411.933511 87.624243 
L 412.514522 83.518975 
L 413.095533 90.086004 
L 413.676544 89.286345 
L 414.257556 90.554552 
L 414.838567 86.313832 
L 415.419578 86.711851 
L 416.000589 92.385023 
L 416.5816 92.372813 
L 417.162611 84.910926 
L 417.743622 92.103381 
L 418.324633 88.057096 
L 418.905644 82.932075 
L 420.067667 83.561413 
L 420.648678 77.980251 
L 421.229689 80.562757 
L 421.8107 87.072549 
L 422.391711 82.025943 
L 422.972722 84.179288 
L 423.553733 83.32971 
L 424.134744 79.251595 
L 424.715755 81.226469 
L 425.296767 79.416249 
L 425.877778 88.689108 
L 426.458789 90.36525 
L 427.0398 81.757917 
L 427.620811 83.798138 
L 428.201822 84.503283 
L 428.782833 83.843497 
L 429.363844 91.255521 
L 429.944855 100.493215 
L 430.525866 98.363645 
L 431.106878 89.235096 
L 431.687889 82.038897 
L 432.2689 79.726567 
L 432.849911 82.954811 
L 433.430922 89.93492 
L 434.011933 94.102579 
L 435.173955 93.021082 
L 435.754966 120.536608 
L 436.335978 119.283812 
L 436.916989 120.04516 
L 437.498 119.724022 
L 438.079011 125.711568 
L 438.660022 124.435522 
L 439.241033 121.102224 
L 439.822044 121.485254 
L 440.403055 111.826714 
L 440.984066 113.677559 
L 441.565077 122.738451 
L 442.146089 129.38997 
L 442.7271 127.816546 
L 443.308111 123.260517 
L 443.889122 125.056557 
L 444.470133 124.946476 
L 445.051144 128.782068 
L 445.632155 128.814976 
L 446.213166 130.997132 
L 446.794177 130.069891 
L 447.375189 126.369624 
L 447.9562 124.981154 
L 448.537211 127.727255 
L 449.118222 131.177227 
L 449.699233 126.384056 
L 450.280244 124.767025 
L 451.442266 120.710663 
L 452.023277 119.851797 
L 452.604288 120.728689 
L 453.1853 120.394372 
L 453.766311 121.454586 
L 454.347322 124.750864 
L 454.928333 125.828572 
L 455.509344 123.156587 
L 456.090355 114.374716 
L 456.671366 127.672517 
L 457.252377 128.138434 
L 457.833388 127.981726 
L 458.4144 122.709667 
L 458.995411 129.061199 
L 459.576422 128.326734 
L 460.157433 122.659802 
L 460.738444 121.098534 
L 461.319455 117.110543 
L 461.900466 120.652779 
L 462.481477 125.041531 
L 463.062488 125.279797 
L 463.643499 124.791097 
L 464.805522 121.96607 
L 465.386533 120.512414 
L 465.967544 121.957647 
L 466.548555 121.256357 
L 467.129566 124.020922 
L 467.710577 122.331578 
L 468.291588 121.586341 
L 468.872599 122.1496 
L 469.453611 110.381089 
L 470.034622 119.046713 
L 470.615633 124.432588 
L 471.196644 125.553897 
L 471.777655 124.50223 
L 472.358666 126.110444 
L 472.939677 124.307278 
L 473.520688 125.031066 
L 474.101699 126.810683 
L 474.68271 128.178567 
L 475.263722 125.947084 
L 475.263722 125.947084 
" clip-path="url(#ped4889c15d)" style="fill: none; stroke: #3366cc; stroke-width: 1.2; stroke-linecap: square"/>
   </g>
   <g id="line2d_36">
    <path d="M 45.780313 34.761826 
L 495.715313 34.761826 
" clip-path="url(#ped4889c15d)" style="fill: none; stroke-dasharray: 0.8,1.32; stroke-dashoffset: 0; stroke: #999999; stroke-opacity: 0.5; stroke-width: 0.8"/>
   </g>
   <g id="line2d_37">
    <path d="M 293.407246 159.23311 
L 293.407246 25.158281 
" clip-path="url(#ped4889c15d)" style="fill: none; stroke-dasharray: 0.8,1.32; stroke-dashoffset: 0; stroke: #888888; stroke-opacity: 0.7; stroke-width: 0.8"/>
   </g>
   <g id="line2d_38">
    <path d="M 435.754966 159.23311 
L 435.754966 25.158281 
" clip-path="url(#ped4889c15d)" style="fill: none; stroke-dasharray: 0.8,1.32; stroke-dashoffset: 0; stroke: #888888; stroke-opacity: 0.7; stroke-width: 0.8"/>
   </g>
   <g id="patch_3">
    <path d="M 45.780313 159.23311 
L 45.780313 25.158281 
" style="fill: none; stroke: #000000; stroke-width: 0.6; stroke-linejoin: miter; stroke-linecap: square"/>
   </g>
   <g id="patch_4">
    <path d="M 45.780312 159.23311 
L 495.715312 159.23311 
" style="fill: none; stroke: #000000; stroke-width: 0.6; stroke-linejoin: miter; stroke-linecap: square"/>
   </g>
   <g id="line2d_39">
    <path d="M 66.231903 142.072068 
L 66.812915 96.498202 
L 67.393926 120.148998 
L 67.974937 123.433134 
L 68.555948 125.643573 
L 69.136959 126.134924 
L 69.71797 123.033499 
L 70.298981 118.920216 
L 70.879992 122.634141 
L 71.461003 124.033347 
L 72.042014 126.01479 
L 72.623026 126.875461 
L 73.204037 121.666204 
L 73.785048 114.637426 
L 74.94707 34.71271 
L 75.528081 34.7073 
L 76.109092 34.956049 
L 76.690103 34.616097 
L 77.852126 34.70125 
L 78.433137 35.46175 
L 79.014148 60.677134 
L 79.595159 76.411453 
L 80.17617 102.07207 
L 80.757181 103.581761 
L 81.338192 103.046072 
L 81.919203 97.707498 
L 82.500214 100.198687 
L 83.081225 76.719399 
L 83.662237 72.805433 
L 84.243248 106.519322 
L 84.824259 100.808236 
L 85.40527 101.188317 
L 85.986281 98.564094 
L 86.567292 103.038632 
L 87.148303 106.469874 
L 87.729314 111.068794 
L 88.310325 113.790869 
L 88.891337 113.723692 
L 89.472348 107.298578 
L 90.053359 105.788519 
L 90.63437 104.679927 
L 91.215381 100.987857 
L 91.796392 100.421151 
L 92.377403 107.262617 
L 92.958414 107.928546 
L 93.539425 99.900071 
L 94.120436 97.292833 
L 94.701448 100.880597 
L 95.282459 97.399968 
L 95.86347 97.423703 
L 96.444481 104.357939 
L 97.025492 105.604997 
L 97.606503 97.953247 
L 98.187514 87.153982 
L 98.768525 91.596071 
L 99.349536 83.761722 
L 99.930548 90.721994 
L 100.511559 101.950479 
L 101.09257 100.58516 
L 102.254592 95.328898 
L 102.835603 102.914804 
L 103.416614 98.199371 
L 103.997625 95.59765 
L 104.578636 100.280701 
L 105.159647 99.634503 
L 105.740659 96.135112 
L 106.32167 88.68615 
L 106.902681 89.110541 
L 107.483692 88.013945 
L 108.064703 89.489376 
L 108.645714 93.774258 
L 109.226725 95.060416 
L 110.969759 58.219648 
L 111.55077 62.597234 
L 112.131781 61.957604 
L 112.712792 66.180435 
L 113.293803 68.238958 
L 113.874814 58.838066 
L 115.036836 51.965607 
L 115.617847 50.448683 
L 116.198858 59.052853 
L 116.77987 65.869993 
L 117.360881 60.604742 
L 117.941892 56.745676 
L 118.522903 51.9017 
L 119.103914 51.548265 
L 119.684925 49.863289 
L 120.265936 52.148707 
L 120.846947 55.939786 
L 121.427958 62.723931 
L 122.00897 44.694895 
L 122.589981 46.248587 
L 123.170992 48.802399 
L 123.752003 38.878623 
L 124.333014 34.767854 
L 124.914025 45.757114 
L 125.495036 44.949776 
L 126.076047 41.881742 
L 126.657058 46.431399 
L 127.238069 40.449805 
L 128.400092 50.809014 
L 128.981103 59.317003 
L 129.562114 59.310248 
L 130.724136 41.308529 
L 131.305147 47.170688 
L 131.886158 46.279994 
L 132.467169 46.232207 
L 133.629192 52.617585 
L 134.210203 41.006917 
L 134.791214 37.209848 
L 135.953236 63.599338 
L 136.534247 65.378642 
L 137.115258 68.437943 
L 137.696269 54.655863 
L 138.27728 57.302854 
L 138.858292 59.06974 
L 139.439303 58.938855 
L 140.020314 51.060537 
L 140.601325 56.901296 
L 141.182336 57.784481 
L 141.763347 60.285682 
L 142.925369 47.74534 
L 143.50638 46.026181 
L 144.087392 47.961638 
L 144.668403 54.811137 
L 145.249414 57.146193 
L 145.830425 63.424876 
L 146.411436 56.065049 
L 146.992447 61.361338 
L 147.573458 60.371105 
L 148.73548 51.503718 
L 149.316491 63.492969 
L 149.897503 65.761231 
L 150.478514 59.017098 
L 151.059525 48.963773 
L 151.640536 56.055986 
L 152.221547 56.236552 
L 152.802558 60.122053 
L 153.383569 67.077618 
L 153.96458 62.992692 
L 154.545591 53.208201 
L 155.126603 53.617585 
L 155.707614 63.709839 
L 156.288625 63.945322 
L 156.869636 64.534781 
L 157.450647 63.824555 
L 158.031658 62.81939 
L 158.612669 64.598205 
L 159.19368 55.000404 
L 159.774691 55.88971 
L 160.355702 61.702896 
L 160.936714 62.370933 
L 161.517725 62.34631 
L 162.098736 69.84098 
L 162.679747 66.712739 
L 163.260758 65.040633 
L 163.841769 52.439266 
L 164.42278 59.247913 
L 165.003791 67.817568 
L 165.584802 78.349582 
L 166.165814 75.560805 
L 166.746825 69.310236 
L 167.327836 72.746422 
L 167.908847 74.19413 
L 168.489858 71.980503 
L 169.070869 71.42037 
L 169.65188 74.790385 
L 170.232891 76.276388 
L 170.813902 71.583215 
L 171.394913 69.005043 
L 171.975925 65.029217 
L 172.556936 69.091971 
L 173.137947 71.64341 
L 173.718958 76.594905 
L 174.299969 75.408749 
L 174.88098 73.880258 
L 175.461991 76.913171 
L 176.043002 73.43513 
L 177.205025 63.537146 
L 177.786036 65.7757 
L 178.367047 71.846284 
L 178.948058 67.819998 
L 179.529069 71.674447 
L 180.11008 73.33517 
L 180.691091 72.626802 
L 181.272102 68.388801 
L 182.434124 74.430447 
L 183.015136 70.287613 
L 183.596147 71.690698 
L 184.177158 64.934091 
L 184.758169 63.525086 
L 185.33918 67.978861 
L 185.920191 76.406945 
L 186.501202 81.844845 
L 187.082213 74.981083 
L 187.663224 70.690335 
L 188.244236 67.723698 
L 188.825247 53.04932 
L 189.406258 62.312792 
L 189.987269 67.131809 
L 191.149291 58.473573 
L 191.730302 47.446356 
L 192.311313 49.250938 
L 192.892324 47.99409 
L 193.473335 56.353835 
L 194.054347 75.942169 
L 195.216369 63.823932 
L 195.79738 42.912722 
L 196.378391 46.193765 
L 196.959402 47.064874 
L 197.540413 43.709104 
L 198.121424 46.458764 
L 198.702435 53.624001 
L 199.864458 34.791923 
L 201.607491 34.767844 
L 202.188502 37.668911 
L 202.769513 33.14837 
L 203.350524 36.60956 
L 203.931535 32.550194 
L 204.512546 35.882394 
L 205.093558 36.491599 
L 205.674569 37.444253 
L 206.25558 34.725739 
L 206.836591 32.860984 
L 207.998613 36.48485 
L 208.579624 37.410783 
L 209.160635 35.39467 
L 209.741646 32.435696 
L 210.322658 34.244436 
L 211.48468 35.730023 
L 212.065691 35.411209 
L 212.646702 35.816418 
L 213.227713 33.304086 
L 214.389735 35.405824 
L 214.970746 33.033742 
L 215.551757 34.954746 
L 216.132769 34.743765 
L 216.71378 35.853643 
L 217.294791 34.239924 
L 217.875802 42.413105 
L 218.456813 32.410277 
L 219.037824 36.163591 
L 219.618835 33.314314 
L 220.199846 37.18573 
L 220.780857 31.599373 
L 221.361869 34.936733 
L 221.94288 35.002808 
L 222.523891 35.407265 
L 223.104902 35.508038 
L 223.685913 34.196307 
L 224.266924 33.797088 
L 224.847935 38.240426 
L 225.428946 32.208838 
L 226.009957 34.472647 
L 226.590968 35.58673 
L 227.17198 33.827758 
L 227.752991 34.954316 
L 228.334002 37.349496 
L 228.915013 33.302048 
L 229.496024 34.797998 
L 230.077035 35.309755 
L 230.658046 34.840397 
L 231.239057 36.094184 
L 231.820068 32.624356 
L 232.40108 35.673444 
L 232.982091 34.70759 
L 233.563102 34.110355 
L 234.144113 34.858273 
L 234.725124 34.816016 
L 235.306135 34.256327 
L 235.887146 34.852182 
L 236.468157 38.144438 
L 237.049168 36.212529 
L 237.630179 37.648778 
L 238.211191 35.159336 
L 238.792202 33.761469 
L 239.373213 42.49503 
L 239.954224 31.360174 
L 240.535235 35.213038 
L 241.116246 34.406674 
L 241.697257 35.708078 
L 242.278268 34.701546 
L 242.859279 34.430382 
L 243.440291 35.201005 
L 244.021302 35.238431 
L 244.602313 33.170231 
L 245.183324 34.936489 
L 245.764335 34.68355 
L 246.345346 34.617236 
L 246.926357 35.587306 
L 247.507368 35.617552 
L 248.088379 33.432254 
L 248.66939 34.599094 
L 249.250402 34.551084 
L 249.831413 35.815682 
L 250.412424 33.575981 
L 250.993435 35.94264 
L 251.574446 35.996688 
L 252.155457 32.235743 
L 252.736468 35.267889 
L 253.89849 35.466306 
L 254.479502 34.978861 
L 256.222535 34.110719 
L 256.803546 34.424026 
L 257.384557 36.923737 
L 257.965568 34.563126 
L 258.546579 34.954423 
L 259.12759 35.876992 
L 259.708601 35.249611 
L 260.289613 33.279784 
L 260.870624 34.562987 
L 261.451635 34.386363 
L 262.032646 35.353555 
L 262.613657 36.595975 
L 263.194668 39.898913 
L 263.775679 35.746441 
L 264.35669 34.000818 
L 264.937701 34.556962 
L 265.518713 34.466416 
L 266.099724 34.248016 
L 266.680735 33.713552 
L 267.261746 37.451408 
L 267.842757 37.590109 
L 268.423768 31.252592 
L 269.004779 35.972931 
L 269.58579 34.063367 
L 270.166801 37.523243 
L 270.747812 34.045803 
L 271.328824 42.680197 
L 271.909835 37.504812 
L 272.490846 34.388459 
L 273.071857 35.321797 
L 273.652868 37.135503 
L 274.81489 33.295811 
L 275.395901 37.663691 
L 275.976912 33.411947 
L 276.557924 34.743739 
L 277.138935 35.147667 
L 277.719946 34.828114 
L 278.300957 36.495205 
L 278.881968 33.930204 
L 279.462979 37.151241 
L 280.04399 33.345856 
L 280.625001 34.062879 
L 281.206012 38.115227 
L 281.787024 38.251995 
L 282.368035 41.021344 
L 282.949046 37.365371 
L 283.530057 38.993547 
L 284.111068 46.740001 
L 284.692079 40.186925 
L 285.27309 37.537775 
L 286.435112 34.020805 
L 287.016123 34.550907 
L 287.597135 35.304718 
L 288.178146 36.753452 
L 288.759157 34.924489 
L 289.340168 36.743076 
L 289.921179 39.949202 
L 290.50219 36.070069 
L 291.664212 48.241397 
L 292.245223 40.828463 
L 292.826235 36.873961 
L 293.407246 99.531828 
L 293.988257 99.390389 
L 294.569268 100.202109 
L 295.150279 98.891417 
L 295.73129 100.427558 
L 296.312301 101.494963 
L 296.893312 98.171424 
L 297.474323 100.315533 
L 298.055334 99.005327 
L 298.636346 98.926329 
L 299.217357 99.552893 
L 299.798368 102.436664 
L 300.379379 102.163467 
L 301.541401 97.868114 
L 302.122412 100.932181 
L 302.703423 98.971018 
L 303.284434 99.27615 
L 303.865446 100.189987 
L 304.446457 98.272773 
L 305.027468 99.483679 
L 305.608479 99.550042 
L 306.18949 99.426293 
L 306.770501 99.686322 
L 307.351512 100.693178 
L 307.932523 98.370126 
L 308.513534 99.913162 
L 309.094545 100.806752 
L 309.675557 99.214156 
L 310.256568 97.117227 
L 310.837579 89.35092 
L 311.41859 87.812775 
L 311.999601 87.914598 
L 312.580612 86.573904 
L 313.161623 79.674897 
L 313.742634 81.99145 
L 314.323645 83.373064 
L 314.904657 86.178479 
L 315.485668 86.323872 
L 316.066679 91.131789 
L 316.64769 88.678533 
L 317.228701 88.720937 
L 317.809712 84.789431 
L 318.390723 77.166424 
L 318.971734 77.861457 
L 319.552745 78.105937 
L 320.133756 78.722869 
L 320.714768 81.833913 
L 321.295779 80.579262 
L 321.87679 82.726714 
L 322.457801 72.04655 
L 323.038812 75.055151 
L 323.619823 73.350067 
L 324.200834 85.976588 
L 324.781845 90.794296 
L 325.362856 87.614828 
L 325.943868 73.90874 
L 326.524879 77.939948 
L 327.10589 76.060014 
L 327.686901 75.524698 
L 328.267912 85.599005 
L 328.848923 79.227382 
L 329.429934 78.667609 
L 330.010945 72.275055 
L 330.591956 73.206359 
L 331.172967 69.244607 
L 332.33499 74.53456 
L 332.916001 81.915541 
L 333.497012 70.418479 
L 334.078023 74.769885 
L 334.659034 72.387303 
L 335.240045 83.206796 
L 335.821056 76.135286 
L 336.402067 80.132261 
L 336.983079 80.64271 
L 337.56409 79.991689 
L 338.145101 82.662137 
L 338.726112 80.73184 
L 339.307123 79.509472 
L 339.888134 83.913045 
L 340.469145 84.432225 
L 341.050156 85.472697 
L 341.631167 77.924789 
L 342.212178 78.081716 
L 342.79319 77.64141 
L 343.374201 81.360595 
L 343.955212 79.83049 
L 344.536223 80.563079 
L 345.117234 82.286658 
L 345.698245 85.096021 
L 346.279256 84.135707 
L 346.860267 81.424856 
L 347.441278 72.872293 
L 348.02229 76.162446 
L 348.603301 77.500115 
L 349.765323 77.837453 
L 350.346334 76.438161 
L 350.927345 73.12823 
L 351.508356 70.98405 
L 352.089367 69.722458 
L 352.670378 73.074603 
L 353.251389 70.201086 
L 353.832401 69.227712 
L 354.413412 61.865856 
L 354.994423 68.683569 
L 355.575434 69.600678 
L 356.156445 71.178438 
L 356.737456 73.810587 
L 357.318467 72.851029 
L 357.899478 68.418879 
L 358.480489 72.2862 
L 359.061501 77.831233 
L 359.642512 75.930882 
L 360.223523 71.607768 
L 360.804534 76.247408 
L 361.385545 82.228732 
L 361.966556 77.29548 
L 362.547567 76.096082 
L 363.128578 73.702822 
L 363.709589 74.764406 
L 364.2906 68.985382 
L 364.871612 70.556752 
L 365.452623 75.121422 
L 366.614645 77.801331 
L 367.195656 76.292811 
L 367.776667 71.110884 
L 368.357678 77.43713 
L 368.938689 77.63866 
L 369.5197 76.538617 
L 370.100712 73.835083 
L 370.681723 74.849209 
L 371.262734 74.102914 
L 371.843745 77.487714 
L 372.424756 74.910254 
L 373.005767 76.05614 
L 373.586778 76.785019 
L 374.167789 67.65247 
L 374.7488 68.740723 
L 375.329811 64.41133 
L 376.491834 69.872904 
L 377.072845 74.293024 
L 377.653856 82.20404 
L 378.815878 73.033797 
L 379.396889 71.507078 
L 379.9779 69.245793 
L 380.558911 69.82778 
L 381.139923 74.833341 
L 381.720934 68.766181 
L 382.301945 59.840527 
L 382.882956 62.682473 
L 383.463967 58.192675 
L 384.044978 59.872144 
L 384.625989 60.620457 
L 385.207 66.112837 
L 385.788011 64.813729 
L 386.369022 56.745962 
L 386.950034 60.026851 
L 387.531045 52.912248 
L 388.112056 53.183611 
L 388.693067 59.126317 
L 389.274078 59.720281 
L 389.855089 49.914311 
L 390.4361 48.03996 
L 391.017111 43.908483 
L 391.598122 40.651656 
L 392.179134 39.838405 
L 392.760145 45.982213 
L 393.341156 48.636826 
L 393.922167 53.964151 
L 394.503178 54.07562 
L 395.084189 53.016012 
L 395.6652 43.131552 
L 396.246211 48.582072 
L 396.827222 49.2077 
L 397.408233 45.870013 
L 397.989245 41.32768 
L 398.570256 38.572188 
L 399.732278 45.252688 
L 400.313289 41.935051 
L 400.8943 45.823456 
L 401.475311 51.114862 
L 402.056322 51.273732 
L 402.637333 47.962849 
L 403.218345 47.310925 
L 403.799356 52.680761 
L 404.380367 53.658298 
L 404.961378 48.912287 
L 405.542389 58.210591 
L 406.1234 61.061959 
L 406.704411 61.227245 
L 407.285422 54.666688 
L 407.866433 53.76046 
L 408.447444 55.282651 
L 409.028456 48.746509 
L 409.609467 53.910856 
L 410.190478 52.850082 
L 410.771489 50.428623 
L 411.3525 42.954963 
L 411.933511 49.333599 
L 412.514522 43.175697 
L 413.095533 53.02624 
L 413.676544 51.826752 
L 414.257556 53.729062 
L 414.838567 47.367982 
L 415.419578 47.965011 
L 416.000589 56.474769 
L 416.5816 56.456453 
L 417.162611 45.263623 
L 417.743622 56.052306 
L 418.324633 49.982878 
L 418.905644 42.295347 
L 419.486655 42.690714 
L 420.067667 43.239354 
L 420.648678 34.86761 
L 421.229689 38.741369 
L 421.8107 48.506058 
L 422.391711 40.936148 
L 422.972722 44.166166 
L 423.553733 42.891799 
L 424.134744 36.774627 
L 424.715755 39.736938 
L 425.296767 37.021608 
L 425.877778 50.930896 
L 426.458789 53.44511 
L 427.0398 40.53411 
L 427.620811 43.594441 
L 428.201822 44.652158 
L 428.782833 43.66248 
L 429.363844 54.780516 
L 429.944855 68.637057 
L 430.525866 65.442702 
L 431.106878 51.749878 
L 431.687889 40.955579 
L 432.2689 37.487084 
L 432.849911 42.329451 
L 433.430922 52.799614 
L 434.011933 59.051103 
L 435.173955 57.428857 
L 435.754966 98.702146 
L 436.335978 96.822952 
L 436.916989 97.964974 
L 437.498 97.483268 
L 438.079011 106.464587 
L 438.660022 104.550516 
L 439.241033 99.55057 
L 439.822044 100.125115 
L 440.403055 85.637305 
L 440.984066 88.413573 
L 441.565077 102.00491 
L 442.146089 111.98219 
L 442.7271 109.622053 
L 443.308111 102.788009 
L 443.889122 105.482069 
L 444.470133 105.316948 
L 445.051144 111.070337 
L 445.632155 111.119697 
L 446.213166 114.392933 
L 446.794177 113.002071 
L 447.375189 107.45167 
L 447.9562 105.368966 
L 448.537211 109.488117 
L 449.118222 114.663075 
L 449.699233 107.473318 
L 450.280244 105.047772 
L 451.442266 98.963229 
L 452.023277 97.674929 
L 452.604288 98.990267 
L 453.1853 98.488793 
L 453.766311 100.079113 
L 454.347322 105.02353 
L 454.928333 106.640092 
L 455.509344 102.632114 
L 456.090355 89.459309 
L 456.671366 109.40601 
L 457.252377 110.104886 
L 457.833388 109.869823 
L 458.4144 101.961735 
L 458.995411 111.489033 
L 459.576422 110.387335 
L 460.157433 101.886937 
L 460.738444 99.545035 
L 461.319455 93.563049 
L 461.900466 98.876403 
L 462.481477 105.459531 
L 463.062488 105.816929 
L 463.643499 105.083879 
L 464.805522 100.846339 
L 465.386533 98.665854 
L 465.967544 100.833705 
L 466.548555 99.78177 
L 467.129566 103.928618 
L 467.710577 101.3946 
L 468.291588 100.276745 
L 468.872599 101.121634 
L 469.453611 83.468867 
L 470.034622 96.467304 
L 470.615633 104.546117 
L 471.196644 106.22808 
L 471.777655 104.65058 
L 472.358666 107.062901 
L 472.939677 104.358151 
L 473.520688 105.443833 
L 474.101699 108.113259 
L 474.68271 110.165085 
L 475.263722 106.81786 
L 475.263722 106.81786 
" clip-path="url(#ped4889c15d)" style="fill: none; stroke-dasharray: 4.44,1.92; stroke-dashoffset: 0; stroke: #e6a817; stroke-width: 1.2"/>
   </g>
   <g id="text_19">
    <!-- Pectra -->
    <g style="fill: #888888" transform="translate(292.159433 51.645331) rotate(-90) scale(0.06 -0.06)">
     <defs>
      <path id="DejaVuSerif-50" d="M 1581 2375 
L 2406 2375 
Q 2872 2375 3115 2626 
Q 3359 2878 3359 3353 
Q 3359 3831 3115 4081 
Q 2872 4331 2406 4331 
L 1581 4331 
L 1581 2375 
z
M 353 0 
L 353 331 
L 947 331 
L 947 4331 
L 353 4331 
L 353 4666 
L 2559 4666 
Q 3259 4666 3668 4311 
Q 4078 3956 4078 3353 
Q 4078 2753 3668 2397 
Q 3259 2041 2559 2041 
L 1581 2041 
L 1581 331 
L 2303 331 
L 2303 0 
L 353 0 
z
" transform="scale(0.015625)"/>
      <path id="DejaVuSerif-61" d="M 2547 1044 
L 2547 1747 
L 1806 1747 
Q 1378 1747 1168 1562 
Q 959 1378 959 997 
Q 959 650 1171 447 
Q 1384 244 1747 244 
Q 2106 244 2326 466 
Q 2547 688 2547 1044 
z
M 3122 2075 
L 3122 331 
L 3634 331 
L 3634 0 
L 2547 0 
L 2547 359 
Q 2356 128 2106 18 
Q 1856 -91 1522 -91 
Q 969 -91 644 203 
Q 319 497 319 997 
Q 319 1513 691 1797 
Q 1063 2081 1741 2081 
L 2547 2081 
L 2547 2309 
Q 2547 2688 2317 2895 
Q 2088 3103 1672 3103 
Q 1328 3103 1125 2947 
Q 922 2791 872 2484 
L 575 2484 
L 575 3156 
Q 875 3284 1158 3348 
Q 1441 3413 1709 3413 
Q 2400 3413 2761 3070 
Q 3122 2728 3122 2075 
z
" transform="scale(0.015625)"/>
     </defs>
     <use xlink:href="#DejaVuSerif-50"/>
     <use xlink:href="#DejaVuSerif-65" transform="translate(62.785156 0)"/>
     <use xlink:href="#DejaVuSerif-63" transform="translate(121.964844 0)"/>
     <use xlink:href="#DejaVuSerif-74" transform="translate(177.970703 0)"/>
     <use xlink:href="#DejaVuSerif-72" transform="translate(218.15625 0)"/>
     <use xlink:href="#DejaVuSerif-61" transform="translate(265.958984 0)"/>
    </g>
   </g>
   <g id="text_20">
    <!-- BPO1 -->
    <g style="fill: #888888" transform="translate(434.507154 49.293144) rotate(-90) scale(0.06 -0.06)">
     <defs>
      <path id="DejaVuSerif-42" d="M 1581 331 
L 2516 331 
Q 3078 331 3337 575 
Q 3597 819 3597 1350 
Q 3597 1878 3339 2120 
Q 3081 2363 2516 2363 
L 1581 2363 
L 1581 331 
z
M 1581 2694 
L 2375 2694 
Q 2888 2694 3123 2891 
Q 3359 3088 3359 3513 
Q 3359 3941 3123 4136 
Q 2888 4331 2375 4331 
L 1581 4331 
L 1581 2694 
z
M 353 0 
L 353 331 
L 947 331 
L 947 4331 
L 353 4331 
L 353 4666 
L 2656 4666 
Q 3363 4666 3720 4377 
Q 4078 4088 4078 3513 
Q 4078 3097 3829 2850 
Q 3581 2603 3103 2547 
Q 3697 2472 4005 2167 
Q 4313 1863 4313 1350 
Q 4313 656 3875 328 
Q 3438 0 2509 0 
L 353 0 
z
" transform="scale(0.015625)"/>
     </defs>
     <use xlink:href="#DejaVuSerif-42"/>
     <use xlink:href="#DejaVuSerif-50" transform="translate(73.486328 0)"/>
     <use xlink:href="#DejaVuSerif-4f" transform="translate(140.771484 0)"/>
     <use xlink:href="#DejaVuSerif-31" transform="translate(222.753906 0)"/>
    </g>
   </g>
   <g id="text_21">
    <!-- Ethereum  Target vs Actual Utilization (%) -->
    <g transform="translate(146.544062 19.158281) scale(0.11 -0.11)">
     <defs>
      <path id="DejaVuSerif-45" d="M 353 0 
L 353 331 
L 947 331 
L 947 4331 
L 353 4331 
L 353 4666 
L 4109 4666 
L 4109 3628 
L 3725 3628 
L 3725 4281 
L 1581 4281 
L 1581 2719 
L 3109 2719 
L 3109 3303 
L 3494 3303 
L 3494 1753 
L 3109 1753 
L 3109 2338 
L 1581 2338 
L 1581 384 
L 3775 384 
L 3775 1038 
L 4159 1038 
L 4159 0 
L 353 0 
z
" transform="scale(0.015625)"/>
      <path id="DejaVuSerif-68" d="M 263 0 
L 263 331 
L 781 331 
L 781 4531 
L 231 4531 
L 231 4863 
L 1356 4863 
L 1356 2731 
Q 1516 3069 1770 3241 
Q 2025 3413 2363 3413 
Q 2913 3413 3172 3097 
Q 3431 2781 3431 2113 
L 3431 331 
L 3944 331 
L 3944 0 
L 2356 0 
L 2356 331 
L 2853 331 
L 2853 1931 
Q 2853 2541 2704 2764 
Q 2556 2988 2175 2988 
Q 1775 2988 1565 2697 
Q 1356 2406 1356 1850 
L 1356 331 
L 1856 331 
L 1856 0 
L 263 0 
z
" transform="scale(0.015625)"/>
      <path id="DejaVuSerif-6d" d="M 3316 2675 
Q 3481 3041 3739 3227 
Q 3997 3413 4341 3413 
Q 4863 3413 5119 3089 
Q 5375 2766 5375 2113 
L 5375 331 
L 5894 331 
L 5894 0 
L 4300 0 
L 4300 331 
L 4800 331 
L 4800 2047 
Q 4800 2556 4650 2772 
Q 4500 2988 4153 2988 
Q 3769 2988 3567 2697 
Q 3366 2406 3366 1850 
L 3366 331 
L 3866 331 
L 3866 0 
L 2291 0 
L 2291 331 
L 2791 331 
L 2791 2069 
Q 2791 2566 2641 2777 
Q 2491 2988 2144 2988 
Q 1759 2988 1557 2697 
Q 1356 2406 1356 1850 
L 1356 331 
L 1856 331 
L 1856 0 
L 263 0 
L 263 331 
L 781 331 
L 781 2994 
L 231 2994 
L 231 3322 
L 1356 3322 
L 1356 2731 
Q 1516 3063 1762 3238 
Q 2009 3413 2322 3413 
Q 2709 3413 2968 3220 
Q 3228 3028 3316 2675 
z
" transform="scale(0.015625)"/>
      <path id="DejaVuSerif-2014" d="M 281 1906 
L 6119 1906 
L 6119 1491 
L 281 1491 
L 281 1906 
z
" transform="scale(0.015625)"/>
      <path id="DejaVuSerif-54" d="M 1222 0 
L 1222 331 
L 1819 331 
L 1819 4294 
L 447 4294 
L 447 3566 
L 63 3566 
L 63 4666 
L 4206 4666 
L 4206 3566 
L 3822 3566 
L 3822 4294 
L 2450 4294 
L 2450 331 
L 3047 331 
L 3047 0 
L 1222 0 
z
" transform="scale(0.015625)"/>
      <path id="DejaVuSerif-76" d="M 1581 0 
L 359 2988 
L -19 2988 
L -19 3322 
L 1509 3322 
L 1509 2988 
L 978 2988 
L 1913 703 
L 2847 2988 
L 2350 2988 
L 2350 3322 
L 3597 3322 
L 3597 2988 
L 3225 2988 
L 2003 0 
L 1581 0 
z
" transform="scale(0.015625)"/>
      <path id="DejaVuSerif-73" d="M 359 184 
L 359 959 
L 691 959 
Q 703 588 923 403 
Q 1144 219 1575 219 
Q 1963 219 2166 364 
Q 2369 509 2369 788 
Q 2369 1006 2220 1140 
Q 2072 1275 1594 1428 
L 1178 1569 
Q 750 1706 558 1912 
Q 366 2119 366 2438 
Q 366 2894 700 3153 
Q 1034 3413 1625 3413 
Q 1888 3413 2178 3344 
Q 2469 3275 2778 3144 
L 2778 2419 
L 2447 2419 
Q 2434 2741 2221 2922 
Q 2009 3103 1644 3103 
Q 1281 3103 1095 2975 
Q 909 2847 909 2591 
Q 909 2381 1050 2254 
Q 1191 2128 1613 1997 
L 2069 1856 
Q 2541 1709 2748 1489 
Q 2956 1269 2956 922 
Q 2956 450 2595 179 
Q 2234 -91 1600 -91 
Q 1278 -91 972 -22 
Q 666 47 359 184 
z
" transform="scale(0.015625)"/>
      <path id="DejaVuSerif-6c" d="M 1313 331 
L 1856 331 
L 1856 0 
L 184 0 
L 184 331 
L 738 331 
L 738 4531 
L 184 4531 
L 184 4863 
L 1313 4863 
L 1313 331 
z
" transform="scale(0.015625)"/>
      <path id="DejaVuSerif-55" d="M 897 4331 
L 300 4331 
L 300 4666 
L 2125 4666 
L 2125 4331 
L 1528 4331 
L 1528 1919 
Q 1528 1025 1820 672 
Q 2113 319 2828 319 
Q 3544 319 3836 672 
Q 4128 1025 4128 1919 
L 4128 4331 
L 3531 4331 
L 3531 4666 
L 5106 4666 
L 5106 4331 
L 4513 4331 
L 4513 1856 
Q 4513 791 4103 350 
Q 3694 -91 2713 -91 
Q 1731 -91 1314 353 
Q 897 797 897 1856 
L 897 4331 
z
" transform="scale(0.015625)"/>
      <path id="DejaVuSerif-69" d="M 622 4353 
Q 622 4497 726 4603 
Q 831 4709 978 4709 
Q 1122 4709 1226 4603 
Q 1331 4497 1331 4353 
Q 1331 4206 1228 4103 
Q 1125 4000 978 4000 
Q 831 4000 726 4103 
Q 622 4206 622 4353 
z
M 1356 331 
L 1900 331 
L 1900 0 
L 231 0 
L 231 331 
L 781 331 
L 781 2988 
L 231 2988 
L 231 3322 
L 1356 3322 
L 1356 331 
z
" transform="scale(0.015625)"/>
      <path id="DejaVuSerif-7a" d="M 256 0 
L 256 269 
L 2338 2988 
L 691 2988 
L 691 2413 
L 359 2413 
L 359 3322 
L 3078 3322 
L 3078 3053 
L 997 331 
L 2803 331 
L 2803 934 
L 3138 934 
L 3138 0 
L 256 0 
z
" transform="scale(0.015625)"/>
      <path id="DejaVuSerif-6f" d="M 1925 219 
Q 2388 219 2623 584 
Q 2859 950 2859 1663 
Q 2859 2375 2623 2739 
Q 2388 3103 1925 3103 
Q 1463 3103 1227 2739 
Q 991 2375 991 1663 
Q 991 950 1228 584 
Q 1466 219 1925 219 
z
M 1925 -91 
Q 1200 -91 759 389 
Q 319 869 319 1663 
Q 319 2456 758 2934 
Q 1197 3413 1925 3413 
Q 2653 3413 3092 2934 
Q 3531 2456 3531 1663 
Q 3531 869 3092 389 
Q 2653 -91 1925 -91 
z
" transform="scale(0.015625)"/>
      <path id="DejaVuSerif-28" d="M 2041 -997 
Q 1281 -656 893 83 
Q 506 822 506 1931 
Q 506 3044 893 3783 
Q 1281 4522 2041 4863 
L 2041 4556 
Q 1559 4225 1350 3623 
Q 1141 3022 1141 1931 
Q 1141 844 1350 242 
Q 1559 -359 2041 -691 
L 2041 -997 
z
" transform="scale(0.015625)"/>
      <path id="DejaVuSerif-29" d="M 453 -997 
L 453 -691 
Q 934 -359 1145 242 
Q 1356 844 1356 1931 
Q 1356 3022 1145 3623 
Q 934 4225 453 4556 
L 453 4863 
Q 1216 4522 1603 3783 
Q 1991 3044 1991 1931 
Q 1991 822 1603 83 
Q 1216 -656 453 -997 
z
" transform="scale(0.015625)"/>
     </defs>
     <use xlink:href="#DejaVuSerif-45"/>
     <use xlink:href="#DejaVuSerif-74" transform="translate(72.998047 0)"/>
     <use xlink:href="#DejaVuSerif-68" transform="translate(113.183594 0)"/>
     <use xlink:href="#DejaVuSerif-65" transform="translate(177.587891 0)"/>
     <use xlink:href="#DejaVuSerif-72" transform="translate(236.767578 0)"/>
     <use xlink:href="#DejaVuSerif-65" transform="translate(284.570312 0)"/>
     <use xlink:href="#DejaVuSerif-75" transform="translate(343.75 0)"/>
     <use xlink:href="#DejaVuSerif-6d" transform="translate(408.154297 0)"/>
     <use xlink:href="#DejaVuSerif-20" transform="translate(502.978516 0)"/>
     <use xlink:href="#DejaVuSerif-2014" transform="translate(534.765625 0)"/>
     <use xlink:href="#DejaVuSerif-20" transform="translate(634.765625 0)"/>
     <use xlink:href="#DejaVuSerif-54" transform="translate(666.552734 0)"/>
     <use xlink:href="#DejaVuSerif-61" transform="translate(725.501953 0)"/>
     <use xlink:href="#DejaVuSerif-72" transform="translate(785.121094 0)"/>
     <use xlink:href="#DejaVuSerif-67" transform="translate(832.923828 0)"/>
     <use xlink:href="#DejaVuSerif-65" transform="translate(896.9375 0)"/>
     <use xlink:href="#DejaVuSerif-74" transform="translate(956.117188 0)"/>
     <use xlink:href="#DejaVuSerif-20" transform="translate(996.302734 0)"/>
     <use xlink:href="#DejaVuSerif-76" transform="translate(1028.089844 0)"/>
     <use xlink:href="#DejaVuSerif-73" transform="translate(1084.583984 0)"/>
     <use xlink:href="#DejaVuSerif-20" transform="translate(1135.902344 0)"/>
     <use xlink:href="#DejaVuSerif-41" transform="translate(1167.689453 0)"/>
     <use xlink:href="#DejaVuSerif-63" transform="translate(1239.90625 0)"/>
     <use xlink:href="#DejaVuSerif-74" transform="translate(1295.912109 0)"/>
     <use xlink:href="#DejaVuSerif-75" transform="translate(1336.097656 0)"/>
     <use xlink:href="#DejaVuSerif-61" transform="translate(1400.501953 0)"/>
     <use xlink:href="#DejaVuSerif-6c" transform="translate(1460.121094 0)"/>
     <use xlink:href="#DejaVuSerif-20" transform="translate(1492.103516 0)"/>
     <use xlink:href="#DejaVuSerif-55" transform="translate(1523.890625 0)"/>
     <use xlink:href="#DejaVuSerif-74" transform="translate(1608.167969 0)"/>
     <use xlink:href="#DejaVuSerif-69" transform="translate(1648.353516 0)"/>
     <use xlink:href="#DejaVuSerif-6c" transform="translate(1680.335938 0)"/>
     <use xlink:href="#DejaVuSerif-69" transform="translate(1712.318359 0)"/>
     <use xlink:href="#DejaVuSerif-7a" transform="translate(1744.300781 0)"/>
     <use xlink:href="#DejaVuSerif-61" transform="translate(1796.986328 0)"/>
     <use xlink:href="#DejaVuSerif-74" transform="translate(1856.605469 0)"/>
     <use xlink:href="#DejaVuSerif-69" transform="translate(1896.791016 0)"/>
     <use xlink:href="#DejaVuSerif-6f" transform="translate(1928.773438 0)"/>
     <use xlink:href="#DejaVuSerif-6e" transform="translate(1988.978516 0)"/>
     <use xlink:href="#DejaVuSerif-20" transform="translate(2053.382812 0)"/>
     <use xlink:href="#DejaVuSerif-28" transform="translate(2085.169922 0)"/>
     <use xlink:href="#DejaVuSerif-25" transform="translate(2124.183594 0)"/>
     <use xlink:href="#DejaVuSerif-29" transform="translate(2219.203125 0)"/>
    </g>
   </g>
   <g id="legend_1">
    <g id="patch_5">
     <path d="M 394.820313 55.157031 
L 490.115313 55.157031 
Q 491.715313 55.157031 491.715313 53.557031 
L 491.715313 30.758281 
Q 491.715313 29.158281 490.115313 29.158281 
L 394.820313 29.158281 
Q 393.220313 29.158281 393.220313 30.758281 
L 393.220313 53.557031 
Q 393.220313 55.157031 394.820313 55.157031 
z
" style="fill: #ffffff; opacity: 0.9; stroke: #cccccc; stroke-linejoin: miter"/>
    </g>
    <g id="line2d_40">
     <path d="M 396.420313 35.637031 
L 404.420313 35.637031 
L 412.420313 35.637031 
" style="fill: none; stroke: #3366cc; stroke-width: 1.2; stroke-linecap: square"/>
    </g>
    <g id="text_22">
     <!-- Actual utilization -->
     <g transform="translate(418.820312 38.437031) scale(0.08 -0.08)">
      <use xlink:href="#DejaVuSerif-41"/>
      <use xlink:href="#DejaVuSerif-63" transform="translate(72.216797 0)"/>
      <use xlink:href="#DejaVuSerif-74" transform="translate(128.222656 0)"/>
      <use xlink:href="#DejaVuSerif-75" transform="translate(168.408203 0)"/>
      <use xlink:href="#DejaVuSerif-61" transform="translate(232.8125 0)"/>
      <use xlink:href="#DejaVuSerif-6c" transform="translate(292.431641 0)"/>
      <use xlink:href="#DejaVuSerif-20" transform="translate(324.414062 0)"/>
      <use xlink:href="#DejaVuSerif-75" transform="translate(356.201172 0)"/>
      <use xlink:href="#DejaVuSerif-74" transform="translate(420.605469 0)"/>
      <use xlink:href="#DejaVuSerif-69" transform="translate(460.791016 0)"/>
      <use xlink:href="#DejaVuSerif-6c" transform="translate(492.773438 0)"/>
      <use xlink:href="#DejaVuSerif-69" transform="translate(524.755859 0)"/>
      <use xlink:href="#DejaVuSerif-7a" transform="translate(556.738281 0)"/>
      <use xlink:href="#DejaVuSerif-61" transform="translate(609.423828 0)"/>
      <use xlink:href="#DejaVuSerif-74" transform="translate(669.042969 0)"/>
      <use xlink:href="#DejaVuSerif-69" transform="translate(709.228516 0)"/>
      <use xlink:href="#DejaVuSerif-6f" transform="translate(741.210938 0)"/>
      <use xlink:href="#DejaVuSerif-6e" transform="translate(801.416016 0)"/>
     </g>
    </g>
    <g id="line2d_41">
     <path d="M 396.420313 47.379531 
L 404.420313 47.379531 
L 412.420313 47.379531 
" style="fill: none; stroke-dasharray: 4.44,1.92; stroke-dashoffset: 0; stroke: #e6a817; stroke-width: 1.2"/>
    </g>
    <g id="text_23">
     <!-- Target utilization -->
     <g transform="translate(418.820312 50.179531) scale(0.08 -0.08)">
      <use xlink:href="#DejaVuSerif-54"/>
      <use xlink:href="#DejaVuSerif-61" transform="translate(58.949219 0)"/>
      <use xlink:href="#DejaVuSerif-72" transform="translate(118.568359 0)"/>
      <use xlink:href="#DejaVuSerif-67" transform="translate(166.371094 0)"/>
      <use xlink:href="#DejaVuSerif-65" transform="translate(230.384766 0)"/>
      <use xlink:href="#DejaVuSerif-74" transform="translate(289.564453 0)"/>
      <use xlink:href="#DejaVuSerif-20" transform="translate(329.75 0)"/>
      <use xlink:href="#DejaVuSerif-75" transform="translate(361.537109 0)"/>
      <use xlink:href="#DejaVuSerif-74" transform="translate(425.941406 0)"/>
      <use xlink:href="#DejaVuSerif-69" transform="translate(466.126953 0)"/>
      <use xlink:href="#DejaVuSerif-6c" transform="translate(498.109375 0)"/>
      <use xlink:href="#DejaVuSerif-69" transform="translate(530.091797 0)"/>
      <use xlink:href="#DejaVuSerif-7a" transform="translate(562.074219 0)"/>
      <use xlink:href="#DejaVuSerif-61" transform="translate(614.759766 0)"/>
      <use xlink:href="#DejaVuSerif-74" transform="translate(674.378906 0)"/>
      <use xlink:href="#DejaVuSerif-69" transform="translate(714.564453 0)"/>
      <use xlink:href="#DejaVuSerif-6f" transform="translate(746.546875 0)"/>
      <use xlink:href="#DejaVuSerif-6e" transform="translate(806.751953 0)"/>
     </g>
    </g>
   </g>
  </g>
 </g>
 <defs>
  <clipPath id="ped4889c15d">
   <rect x="45.780313" y="25.158281" width="449.935" height="134.074829"/>
  </clipPath>
 </defs>
</svg>
