<?xml version="1.0" encoding="utf-8" standalone="no"?>
<!DOCTYPE svg PUBLIC "-//W3C//DTD SVG 1.1//EN"
  "http://www.w3.org/Graphics/SVG/1.1/DTD/svg11.dtd">
<svg xmlns:xlink="http://www.w3.org/1999/xlink" width="505.93375pt" height="203.554692pt" viewBox="0 0 505.93375 203.554692" xmlns="http://www.w3.org/2000/svg" version="1.1">
 <metadata>
  <rdf:RDF xmlns:dc="http://purl.org/dc/elements/1.1/" xmlns:cc="http://creativecommons.org/ns#" xmlns:rdf="http://www.w3.org/1999/02/22-rdf-syntax-ns#">
   <cc:Work>
    <dc:type rdf:resource="http://purl.org/dc/dcmitype/StillImage"/>
    <dc:date>2026-02-16T20:35:34.888730</dc:date>
    <dc:format>image/svg+xml</dc:format>
    <dc:creator>
     <cc:Agent>
      <dc:title>Matplotlib v3.9.4, https://matplotlib.org/</dc:title>
     </cc:Agent>
    </dc:creator>
   </cc:Work>
  </rdf:RDF>
 </metadata>
 <defs>
  <style type="text/css">*{stroke-linejoin: round; stroke-linecap: butt}</style>
 </defs>
 <g id="figure_1">
  <g id="patch_1">
   <path d="M 0 203.554692 
L 505.93375 203.554692 
L 505.93375 0 
L 0 0 
z
" style="fill: #ffffff"/>
  </g>
  <g id="axes_1">
   <g id="patch_2">
    <path d="M 40.690312 159.572615 
L 495.13375 159.572615 
L 495.13375 25.158281 
L 40.690312 25.158281 
z
" style="fill: #ffffff"/>
   </g>
   <g id="PolyCollection_1">
    <defs>
     <path id="mf894e8c11c" d="M 61.346832 -65.775127 
L 61.346832 -50.091819 
L 61.933665 -50.091819 
L 62.520498 -50.091819 
L 63.107331 -50.091819 
L 63.694164 -50.091819 
L 64.280997 -50.091819 
L 64.86783 -50.091819 
L 65.454663 -50.091819 
L 66.041496 -50.091819 
L 66.628329 -50.091819 
L 67.215162 -50.091819 
L 67.801995 -50.091819 
L 68.388828 -50.091819 
L 68.975661 -50.091819 
L 69.562494 -50.091819 
L 70.149327 -50.091819 
L 70.73616 -50.091819 
L 71.322993 -50.091819 
L 71.909826 -50.091819 
L 72.496658 -50.091819 
L 73.083491 -50.091819 
L 73.670324 -50.091819 
L 74.257157 -50.091819 
L 74.84399 -50.091819 
L 75.430823 -50.091819 
L 76.017656 -50.091819 
L 76.604489 -50.091819 
L 77.191322 -50.091819 
L 77.778155 -50.091819 
L 78.364988 -50.091819 
L 78.951821 -50.091819 
L 79.538654 -50.091819 
L 80.125487 -50.091819 
L 80.71232 -50.091819 
L 81.299153 -50.091819 
L 81.885986 -50.091819 
L 82.472819 -50.091819 
L 83.059652 -50.091819 
L 83.646485 -50.091819 
L 84.233317 -50.091819 
L 84.82015 -50.091819 
L 85.406983 -50.091819 
L 85.993816 -50.091819 
L 86.580649 -50.091819 
L 87.167482 -50.091819 
L 87.754315 -50.091819 
L 88.341148 -50.091819 
L 88.927981 -50.091819 
L 89.514814 -50.091819 
L 90.101647 -50.091819 
L 90.68848 -50.091819 
L 91.275313 -50.091819 
L 91.862146 -50.091819 
L 92.448979 -50.091819 
L 93.035812 -50.091819 
L 93.622645 -50.091819 
L 94.209478 -50.091819 
L 94.796311 -50.091819 
L 95.383144 -50.091819 
L 95.969977 -50.091819 
L 96.556809 -50.091819 
L 97.143642 -50.091819 
L 97.730475 -50.091819 
L 98.317308 -50.091819 
L 98.904141 -50.091819 
L 99.490974 -50.091819 
L 100.077807 -50.091819 
L 100.66464 -50.091819 
L 101.251473 -50.091819 
L 101.838306 -50.091819 
L 102.425139 -50.091819 
L 103.011972 -50.091819 
L 103.598805 -50.091819 
L 104.185638 -50.091819 
L 104.772471 -50.091819 
L 105.359304 -50.091819 
L 105.946137 -50.091819 
L 106.53297 -50.091819 
L 107.119803 -50.091819 
L 107.706636 -50.091819 
L 108.293468 -50.091819 
L 108.880301 -50.091819 
L 109.467134 -50.091819 
L 110.053967 -50.091819 
L 110.6408 -50.091819 
L 111.227633 -50.091819 
L 111.814466 -50.091819 
L 112.401299 -50.091819 
L 112.988132 -50.091819 
L 113.574965 -50.091819 
L 114.161798 -50.091819 
L 114.748631 -50.091819 
L 115.335464 -50.091819 
L 115.922297 -50.091819 
L 116.50913 -50.091819 
L 117.095963 -50.091819 
L 117.682796 -50.091819 
L 118.269629 -50.091819 
L 118.856462 -50.091819 
L 119.443295 -50.091819 
L 120.030128 -50.091819 
L 120.61696 -50.091819 
L 121.203793 -50.091819 
L 121.790626 -50.091819 
L 122.377459 -50.091819 
L 122.964292 -50.091819 
L 123.551125 -50.091819 
L 124.137958 -50.091819 
L 124.724791 -50.091819 
L 125.311624 -50.091819 
L 125.898457 -50.091819 
L 126.48529 -50.091819 
L 127.072123 -50.091819 
L 127.658956 -50.091819 
L 128.245789 -50.091819 
L 128.832622 -50.091819 
L 129.419455 -50.091819 
L 130.006288 -50.091819 
L 130.593121 -50.091819 
L 131.179954 -50.091819 
L 131.766787 -50.091819 
L 132.353619 -50.091819 
L 132.940452 -50.091819 
L 133.527285 -50.091819 
L 134.114118 -50.091819 
L 134.700951 -50.091819 
L 135.287784 -50.091819 
L 135.874617 -50.091819 
L 136.46145 -50.091819 
L 137.048283 -50.091819 
L 137.635116 -50.091819 
L 138.221949 -50.091819 
L 138.808782 -50.091819 
L 139.395615 -50.091819 
L 139.982448 -50.091819 
L 140.569281 -50.091819 
L 141.156114 -50.091819 
L 141.742947 -50.091819 
L 142.32978 -50.091819 
L 142.916613 -50.091819 
L 143.503446 -50.091819 
L 144.090279 -50.091819 
L 144.677111 -50.091819 
L 145.263944 -50.091819 
L 145.850777 -50.091819 
L 146.43761 -50.091819 
L 147.024443 -50.091819 
L 147.611276 -50.091819 
L 148.198109 -50.091819 
L 148.784942 -50.091819 
L 149.371775 -50.091819 
L 149.958608 -50.091819 
L 150.545441 -50.091819 
L 151.132274 -50.091819 
L 151.719107 -50.091819 
L 152.30594 -50.091819 
L 152.892773 -50.091819 
L 153.479606 -50.091819 
L 154.066439 -50.091819 
L 154.653272 -50.091819 
L 155.240105 -50.091819 
L 155.826938 -50.091819 
L 156.41377 -50.091819 
L 157.000603 -50.091819 
L 157.587436 -50.091819 
L 158.174269 -50.091819 
L 158.761102 -50.091819 
L 159.347935 -50.091819 
L 159.934768 -50.091819 
L 160.521601 -50.091819 
L 161.108434 -50.091819 
L 161.695267 -50.091819 
L 162.2821 -50.091819 
L 162.868933 -50.091819 
L 163.455766 -50.091819 
L 164.042599 -50.091819 
L 164.629432 -50.091819 
L 165.216265 -50.091819 
L 165.803098 -50.091819 
L 166.389931 -50.091819 
L 166.976764 -50.091819 
L 167.563597 -50.091819 
L 168.15043 -50.091819 
L 168.737262 -50.091819 
L 169.324095 -50.091819 
L 169.910928 -50.091819 
L 170.497761 -50.091819 
L 171.084594 -50.091819 
L 171.671427 -50.091819 
L 172.25826 -50.091819 
L 172.845093 -50.091819 
L 173.431926 -50.091819 
L 174.018759 -50.091819 
L 174.605592 -50.091819 
L 175.192425 -50.091819 
L 175.779258 -50.091819 
L 176.366091 -50.091819 
L 176.952924 -50.091819 
L 177.539757 -50.091819 
L 178.12659 -50.091819 
L 178.713423 -50.091819 
L 179.300256 -50.091819 
L 179.887089 -50.091819 
L 180.473922 -50.091819 
L 181.060754 -50.091819 
L 181.647587 -50.091819 
L 182.23442 -50.091819 
L 182.821253 -50.091819 
L 183.408086 -50.091819 
L 183.994919 -50.091819 
L 184.581752 -50.091819 
L 185.168585 -50.091819 
L 185.755418 -50.091819 
L 186.342251 -50.091819 
L 186.929084 -50.091819 
L 187.515917 -50.091819 
L 188.10275 -50.091819 
L 188.689583 -50.091819 
L 189.276416 -50.091819 
L 189.863249 -50.091819 
L 190.450082 -50.091819 
L 191.036915 -50.091819 
L 191.623748 -50.091819 
L 192.210581 -50.091819 
L 192.797413 -50.091819 
L 193.384246 -50.091819 
L 193.971079 -50.091819 
L 194.557912 -50.091819 
L 195.144745 -50.091819 
L 195.731578 -50.091819 
L 196.318411 -50.091819 
L 196.905244 -50.091819 
L 197.492077 -50.091819 
L 198.07891 -50.091819 
L 198.665743 -50.091819 
L 199.252576 -50.091819 
L 199.839409 -50.091819 
L 200.426242 -50.091819 
L 201.013075 -50.091819 
L 201.599908 -50.091819 
L 202.186741 -50.091819 
L 202.773574 -50.091819 
L 203.360407 -50.091819 
L 203.94724 -50.091819 
L 204.534073 -50.091819 
L 205.120905 -50.091819 
L 205.707738 -50.091819 
L 206.294571 -50.091819 
L 206.881404 -50.091819 
L 207.468237 -50.091819 
L 208.05507 -50.091819 
L 208.641903 -50.091819 
L 209.228736 -50.091819 
L 209.815569 -50.091819 
L 210.402402 -50.091819 
L 210.989235 -50.091819 
L 211.576068 -50.091819 
L 212.162901 -50.091819 
L 212.749734 -50.091819 
L 213.336567 -50.091819 
L 213.9234 -50.091819 
L 214.510233 -50.091819 
L 215.097066 -50.091819 
L 215.683899 -50.091819 
L 216.270732 -50.091819 
L 216.857564 -50.091819 
L 217.444397 -50.091819 
L 218.03123 -50.091819 
L 218.618063 -50.091819 
L 219.204896 -50.091819 
L 219.791729 -50.091819 
L 220.378562 -50.091819 
L 220.965395 -50.091819 
L 221.552228 -50.091819 
L 222.139061 -50.091819 
L 222.725894 -50.091819 
L 223.312727 -50.091819 
L 223.89956 -50.091819 
L 224.486393 -50.091819 
L 225.073226 -50.091819 
L 225.660059 -50.091819 
L 226.246892 -50.091819 
L 226.833725 -50.091819 
L 227.420558 -50.091819 
L 228.007391 -50.091819 
L 228.594224 -50.091819 
L 229.181056 -50.091819 
L 229.767889 -50.091819 
L 230.354722 -50.091819 
L 230.941555 -50.091819 
L 231.528388 -50.091819 
L 232.115221 -50.091819 
L 232.702054 -50.091819 
L 233.288887 -50.091819 
L 233.87572 -50.091819 
L 234.462553 -50.091819 
L 235.049386 -50.091819 
L 235.636219 -50.091819 
L 236.223052 -50.091819 
L 236.809885 -50.091819 
L 237.396718 -50.091819 
L 237.983551 -50.091819 
L 238.570384 -50.091819 
L 239.157217 -50.091819 
L 239.74405 -50.091819 
L 240.330883 -50.091819 
L 240.917715 -50.091819 
L 241.504548 -50.091819 
L 242.091381 -50.091819 
L 242.678214 -50.091819 
L 243.265047 -50.091819 
L 243.85188 -50.091819 
L 244.438713 -50.091819 
L 245.025546 -50.091819 
L 245.612379 -50.091819 
L 246.199212 -50.091819 
L 246.786045 -50.091819 
L 247.372878 -50.091819 
L 247.959711 -50.091819 
L 248.546544 -50.091819 
L 249.133377 -50.091819 
L 249.72021 -50.091819 
L 250.307043 -50.091819 
L 250.893876 -50.091819 
L 251.480709 -50.091819 
L 252.067542 -50.091819 
L 252.654375 -50.091819 
L 253.241207 -50.091819 
L 253.82804 -50.091819 
L 254.414873 -50.091819 
L 255.001706 -50.091819 
L 255.588539 -50.091819 
L 256.175372 -50.091819 
L 256.762205 -50.091819 
L 257.349038 -50.091819 
L 257.935871 -50.091819 
L 258.522704 -50.091819 
L 259.109537 -50.091819 
L 259.69637 -50.091819 
L 260.283203 -50.091819 
L 260.870036 -50.091819 
L 261.456869 -50.091819 
L 262.043702 -50.091819 
L 262.630535 -50.091819 
L 263.217368 -50.091819 
L 263.804201 -50.091819 
L 264.391034 -50.091819 
L 264.977866 -50.091819 
L 265.564699 -50.091819 
L 266.151532 -50.091819 
L 266.738365 -50.091819 
L 267.325198 -50.091819 
L 267.912031 -50.091819 
L 268.498864 -50.091819 
L 269.085697 -50.091819 
L 269.67253 -50.091819 
L 270.259363 -50.091819 
L 270.846196 -50.091819 
L 271.433029 -50.091819 
L 272.019862 -50.091819 
L 272.606695 -50.091819 
L 273.193528 -50.091819 
L 273.780361 -50.091819 
L 274.367194 -50.091819 
L 274.954027 -50.091819 
L 275.54086 -50.091819 
L 276.127693 -50.091819 
L 276.714526 -50.091819 
L 277.301358 -50.091819 
L 277.888191 -50.091819 
L 278.475024 -50.091819 
L 279.061857 -50.091819 
L 279.64869 -50.091819 
L 280.235523 -50.091819 
L 280.822356 -50.091819 
L 281.409189 -50.091819 
L 281.996022 -50.091819 
L 282.582855 -50.091819 
L 283.169688 -50.091819 
L 283.756521 -50.091819 
L 284.343354 -50.091819 
L 284.930187 -50.091819 
L 285.51702 -50.091819 
L 286.103853 -50.091819 
L 286.690686 -50.091819 
L 287.277519 -50.091819 
L 287.864352 -50.091819 
L 288.451185 -50.091819 
L 289.038017 -50.091819 
L 289.62485 -50.091819 
L 290.211683 -50.091819 
L 290.798516 -50.091819 
L 291.385349 -50.091819 
L 291.972182 -50.091819 
L 292.559015 -50.091819 
L 293.145848 -50.091819 
L 293.732681 -50.091819 
L 294.319514 -50.091819 
L 294.906347 -50.091819 
L 295.49318 -50.091819 
L 296.080013 -50.091819 
L 296.666846 -50.091819 
L 297.253679 -50.091819 
L 297.840512 -50.091819 
L 298.427345 -50.091819 
L 299.014178 -50.091819 
L 299.601011 -50.091819 
L 300.187844 -50.091819 
L 300.774677 -50.091819 
L 301.361509 -50.091819 
L 301.948342 -50.091819 
L 302.535175 -50.091819 
L 303.122008 -50.091819 
L 303.708841 -50.091819 
L 304.295674 -50.091819 
L 304.882507 -50.091819 
L 305.46934 -50.091819 
L 306.056173 -50.091819 
L 306.643006 -50.091819 
L 307.229839 -50.091819 
L 307.816672 -50.091819 
L 308.403505 -50.091819 
L 308.990338 -50.091819 
L 309.577171 -50.091819 
L 310.164004 -50.091819 
L 310.750837 -50.091819 
L 311.33767 -50.091819 
L 311.924503 -50.091819 
L 312.511336 -50.091819 
L 313.098169 -50.091819 
L 313.685001 -50.091819 
L 314.271834 -50.091819 
L 314.858667 -50.091819 
L 315.4455 -50.091819 
L 316.032333 -50.091819 
L 316.619166 -50.091819 
L 317.205999 -50.091819 
L 317.792832 -50.091819 
L 318.379665 -50.091819 
L 318.966498 -50.091819 
L 319.553331 -50.091819 
L 320.140164 -50.091819 
L 320.726997 -50.091819 
L 321.31383 -50.091819 
L 321.900663 -50.091819 
L 322.487496 -50.091819 
L 323.074329 -50.091819 
L 323.661162 -50.091819 
L 324.247995 -50.091819 
L 324.834828 -50.091819 
L 325.42166 -50.091819 
L 326.008493 -50.091819 
L 326.595326 -50.091819 
L 327.182159 -50.091819 
L 327.768992 -50.091819 
L 328.355825 -50.091819 
L 328.942658 -50.091819 
L 329.529491 -50.091819 
L 330.116324 -50.091819 
L 330.703157 -50.091819 
L 331.28999 -50.091819 
L 331.876823 -50.091819 
L 332.463656 -50.091819 
L 333.050489 -50.091819 
L 333.637322 -50.091819 
L 334.224155 -50.091819 
L 334.810988 -50.091819 
L 335.397821 -50.091819 
L 335.984654 -50.091819 
L 336.571487 -50.091819 
L 337.15832 -50.091819 
L 337.745152 -50.091819 
L 338.331985 -50.091819 
L 338.918818 -50.091819 
L 339.505651 -50.091819 
L 340.092484 -50.091819 
L 340.679317 -50.091819 
L 341.26615 -50.091819 
L 341.852983 -50.091819 
L 342.439816 -50.091819 
L 343.026649 -50.091819 
L 343.613482 -50.091819 
L 344.200315 -50.091819 
L 344.787148 -50.091819 
L 345.373981 -50.091819 
L 345.960814 -50.091819 
L 346.547647 -50.091819 
L 347.13448 -50.091819 
L 347.721313 -50.091819 
L 348.308146 -50.091819 
L 348.894979 -50.091819 
L 349.481811 -50.091819 
L 350.068644 -50.091819 
L 350.655477 -50.091819 
L 351.24231 -50.091819 
L 351.829143 -50.091819 
L 352.415976 -50.091819 
L 353.002809 -50.091819 
L 353.589642 -50.091819 
L 354.176475 -50.091819 
L 354.763308 -50.091819 
L 355.350141 -50.091819 
L 355.936974 -50.091819 
L 356.523807 -50.091819 
L 357.11064 -50.091819 
L 357.697473 -50.091819 
L 358.284306 -50.091819 
L 358.871139 -50.091819 
L 359.457972 -50.091819 
L 360.044805 -50.091819 
L 360.631638 -50.091819 
L 361.218471 -50.091819 
L 361.805303 -50.091819 
L 362.392136 -50.091819 
L 362.978969 -50.091819 
L 363.565802 -50.091819 
L 364.152635 -50.091819 
L 364.739468 -50.091819 
L 365.326301 -50.091819 
L 365.913134 -50.091819 
L 366.499967 -50.091819 
L 367.0868 -50.091819 
L 367.673633 -50.091819 
L 368.260466 -50.091819 
L 368.847299 -50.091819 
L 369.434132 -50.091819 
L 370.020965 -50.091819 
L 370.607798 -50.091819 
L 371.194631 -50.091819 
L 371.781464 -50.091819 
L 372.368297 -50.091819 
L 372.95513 -50.091819 
L 373.541962 -50.091819 
L 374.128795 -50.091819 
L 374.715628 -50.091819 
L 375.302461 -50.091819 
L 375.889294 -50.091819 
L 376.476127 -50.091819 
L 377.06296 -50.091819 
L 377.649793 -50.091819 
L 378.236626 -50.091819 
L 378.823459 -50.091819 
L 379.410292 -50.091819 
L 379.997125 -50.091819 
L 380.583958 -50.091819 
L 381.170791 -50.091819 
L 381.757624 -50.091819 
L 382.344457 -50.091819 
L 382.93129 -50.091819 
L 383.518123 -50.091819 
L 384.104956 -50.091819 
L 384.691789 -50.091819 
L 385.278622 -50.091819 
L 385.865454 -50.091819 
L 386.452287 -50.091819 
L 387.03912 -50.091819 
L 387.625953 -50.091819 
L 388.212786 -50.091819 
L 388.799619 -50.091819 
L 389.386452 -50.091819 
L 389.973285 -50.091819 
L 390.560118 -50.091819 
L 391.146951 -50.091819 
L 391.733784 -50.091819 
L 392.320617 -50.091819 
L 392.90745 -50.091819 
L 393.494283 -50.091819 
L 394.081116 -50.091819 
L 394.667949 -50.091819 
L 395.254782 -50.091819 
L 395.841615 -50.091819 
L 396.428448 -50.091819 
L 397.015281 -50.091819 
L 397.602113 -50.091819 
L 398.188946 -50.091819 
L 398.775779 -50.091819 
L 399.362612 -50.091819 
L 399.949445 -50.091819 
L 400.536278 -50.091819 
L 401.123111 -50.091819 
L 401.709944 -50.091819 
L 402.296777 -50.091819 
L 402.88361 -50.091819 
L 403.470443 -50.091819 
L 404.057276 -50.091819 
L 404.644109 -50.091819 
L 405.230942 -50.091819 
L 405.817775 -50.091819 
L 406.404608 -50.091819 
L 406.991441 -50.091819 
L 407.578274 -50.091819 
L 408.165107 -50.091819 
L 408.75194 -50.091819 
L 409.338773 -50.091819 
L 409.925605 -50.091819 
L 410.512438 -50.091819 
L 411.099271 -50.091819 
L 411.686104 -50.091819 
L 412.272937 -50.091819 
L 412.85977 -50.091819 
L 413.446603 -50.091819 
L 414.033436 -50.091819 
L 414.620269 -50.091819 
L 415.207102 -50.091819 
L 415.793935 -50.091819 
L 416.380768 -50.091819 
L 416.967601 -50.091819 
L 417.554434 -50.091819 
L 418.141267 -50.091819 
L 418.7281 -50.091819 
L 419.314933 -50.091819 
L 419.901766 -50.091819 
L 420.488599 -50.091819 
L 421.075432 -50.091819 
L 421.662264 -50.091819 
L 422.249097 -50.091819 
L 422.83593 -50.091819 
L 423.422763 -50.091819 
L 424.009596 -50.091819 
L 424.596429 -50.091819 
L 425.183262 -50.091819 
L 425.770095 -50.091819 
L 426.356928 -50.091819 
L 426.943761 -50.091819 
L 427.530594 -50.091819 
L 428.117427 -50.091819 
L 428.70426 -50.091819 
L 429.291093 -50.091819 
L 429.877926 -50.091819 
L 430.464759 -50.091819 
L 431.051592 -50.091819 
L 431.638425 -50.091819 
L 432.225258 -50.091819 
L 432.812091 -50.091819 
L 433.398924 -50.091819 
L 433.985756 -50.091819 
L 434.572589 -50.091819 
L 435.159422 -50.091819 
L 435.746255 -50.091819 
L 436.333088 -50.091819 
L 436.919921 -50.091819 
L 437.506754 -50.091819 
L 438.093587 -50.091819 
L 438.68042 -50.091819 
L 439.267253 -50.091819 
L 439.854086 -50.091819 
L 440.440919 -50.091819 
L 441.027752 -50.091819 
L 441.614585 -50.091819 
L 442.201418 -50.091819 
L 442.788251 -50.091819 
L 443.375084 -50.091819 
L 443.961917 -50.091819 
L 444.54875 -50.091819 
L 445.135583 -50.091819 
L 445.722415 -50.091819 
L 446.309248 -50.091819 
L 446.896081 -50.091819 
L 447.482914 -50.091819 
L 448.069747 -50.091819 
L 448.65658 -50.091819 
L 449.243413 -50.091819 
L 449.830246 -50.091819 
L 450.417079 -50.091819 
L 451.003912 -50.091819 
L 451.590745 -50.091819 
L 452.177578 -50.091819 
L 452.764411 -50.091819 
L 453.351244 -50.091819 
L 453.938077 -50.091819 
L 454.52491 -50.091819 
L 455.111743 -50.091819 
L 455.698576 -50.091819 
L 456.285409 -50.091819 
L 456.872242 -50.091819 
L 457.459075 -50.091819 
L 458.045907 -50.091819 
L 458.63274 -50.091819 
L 459.219573 -50.091819 
L 459.806406 -50.091819 
L 460.393239 -50.091819 
L 460.980072 -50.091819 
L 461.566905 -50.091819 
L 462.153738 -50.091819 
L 462.740571 -50.091819 
L 463.327404 -50.091819 
L 463.914237 -50.091819 
L 464.50107 -50.091819 
L 465.087903 -50.091819 
L 465.674736 -50.091819 
L 466.261569 -50.091819 
L 466.848402 -50.091819 
L 467.435235 -50.091819 
L 468.022068 -50.091819 
L 468.608901 -50.091819 
L 469.195734 -50.091819 
L 469.782567 -50.091819 
L 470.369399 -50.091819 
L 470.956232 -50.091819 
L 471.543065 -50.091819 
L 472.129898 -50.091819 
L 472.716731 -50.091819 
L 473.303564 -50.091819 
L 473.890397 -50.091819 
L 474.47723 -50.091819 
L 474.47723 -104.310085 
L 474.47723 -104.310085 
L 473.890397 -101.14772 
L 473.303564 -103.086228 
L 472.716731 -105.608228 
L 472.129898 -106.63395 
L 471.543065 -104.078578 
L 470.956232 -106.357671 
L 470.369399 -104.867293 
L 469.782567 -106.456365 
L 469.195734 -114.089001 
L 468.608901 -126.36956 
L 468.022068 -109.69172 
L 467.435235 -110.489947 
L 466.848402 -109.433829 
L 466.261569 -107.039761 
L 465.674736 -110.957587 
L 465.087903 -109.963747 
L 464.50107 -112.011872 
L 463.914237 -109.951811 
L 463.327404 -107.821101 
L 462.740571 -105.948302 
L 462.153738 -105.255736 
L 461.566905 -105.593397 
L 460.980072 -111.812952 
L 460.393239 -116.83286 
L 459.806406 -111.181247 
L 459.219573 -108.968684 
L 458.63274 -100.937745 
L 458.045907 -99.896892 
L 457.459075 -108.898016 
L 456.872242 -101.426676 
L 456.285409 -101.204595 
L 455.698576 -101.864873 
L 455.111743 -120.709959 
L 454.52491 -108.264661 
L 453.938077 -104.478035 
L 453.351244 -106.005318 
L 452.764411 -110.676665 
L 452.177578 -112.179155 
L 451.590745 -111.705376 
L 451.003912 -112.94807 
L 450.417079 -111.73092 
L 449.830246 -108.949171 
L 449.243413 -105.982415 
L 448.65658 -103.690827 
L 448.069747 -96.898146 
L 447.482914 -101.787301 
L 446.896081 -105.67896 
L 446.309248 -103.711279 
L 445.722415 -98.467416 
L 445.135583 -97.153368 
L 444.54875 -100.24583 
L 443.961917 -100.292464 
L 443.375084 -105.728105 
L 442.788251 -105.572103 
L 442.201418 -108.117376 
L 441.614585 -101.660762 
L 441.027752 -99.430971 
L 440.440919 -108.857226 
L 439.854086 -121.69794 
L 439.267253 -124.32088 
L 438.68042 -110.633203 
L 438.093587 -111.176017 
L 437.506754 -106.452208 
L 436.919921 -104.643848 
L 436.333088 -113.129147 
L 435.746255 -112.674044 
L 435.159422 -113.752994 
L 434.572589 -111.977585 
L 433.985756 -150.971433 
L 433.398924 -150.184435 
L 432.812091 -149.43878 
L 432.225258 -155.345013 
L 431.638425 -165.236929 
L 431.051592 -169.811862 
L 430.464759 -166.534925 
L 429.877926 -156.336773 
L 429.291093 -143.400176 
L 428.70426 -140.382239 
L 428.117427 -153.473512 
L 427.530594 -163.977521 
L 426.943761 -163.0425 
L 426.356928 -164.041802 
L 425.770095 -166.933117 
L 425.183262 -154.735166 
L 424.596429 -157.110525 
L 424.009596 -170.251631 
L 423.422763 -167.686263 
L 422.83593 -170.484972 
L 422.249097 -164.705639 
L 421.662264 -163.501652 
L 421.075432 -166.553283 
L 420.488599 -159.401444 
L 419.901766 -168.626848 
L 419.314933 -172.286668 
L 418.7281 -164.377279 
L 418.141267 -164.895618 
L 417.554434 -165.26915 
L 416.967601 -158.006186 
L 416.380768 -152.27196 
L 415.793935 -162.464806 
L 415.207102 -151.890133 
L 414.620269 -151.872829 
L 414.033436 -159.91261 
L 413.446603 -160.476666 
L 412.85977 -154.466895 
L 412.272937 -156.264146 
L 411.686104 -155.130903 
L 411.099271 -164.43742 
L 410.512438 -158.619606 
L 409.925605 -164.645963 
L 409.338773 -157.585058 
L 408.75194 -155.297332 
L 408.165107 -154.295142 
L 407.578274 -159.174272 
L 406.991441 -152.999109 
L 406.404608 -154.437232 
L 405.817775 -153.581053 
L 405.230942 -147.382822 
L 404.644109 -147.53898 
L 404.057276 -150.232873 
L 403.470443 -159.01765 
L 402.88361 -154.533752 
L 402.296777 -155.457302 
L 401.709944 -160.530572 
L 401.123111 -159.914652 
L 400.536278 -156.786623 
L 399.949445 -156.936718 
L 399.362612 -161.935892 
L 398.775779 -165.609547 
L 398.188946 -162.475137 
L 397.602113 -165.475707 
L 397.015281 -168.786686 
L 396.428448 -166.183375 
L 395.841615 -161.891906 
L 395.254782 -158.738552 
L 394.667949 -159.329628 
L 394.081116 -164.479127 
L 393.494283 -155.140566 
L 392.90745 -154.139478 
L 392.320617 -154.244791 
L 391.733784 -159.277898 
L 391.146951 -161.785902 
L 390.560118 -167.5904 
L 389.973285 -166.822063 
L 389.386452 -163.745104 
L 388.799619 -159.8418 
L 388.212786 -158.070966 
L 387.625953 -148.80656 
L 387.03912 -149.36772 
L 386.452287 -154.982222 
L 385.865454 -155.238599 
L 385.278622 -148.516921 
L 384.691789 -151.616613 
L 384.104956 -143.994413 
L 383.518123 -142.767052 
L 382.93129 -147.956099 
L 382.344457 -148.663084 
L 381.757624 -150.249799 
L 381.170791 -146.007964 
L 380.583958 -148.692955 
L 379.997125 -140.260247 
L 379.410292 -134.528163 
L 378.823459 -139.257278 
L 378.236626 -139.807123 
L 377.649793 -137.670724 
L 377.06296 -136.228323 
L 376.476127 -131.56763 
L 375.889294 -127.564533 
L 375.302461 -135.03864 
L 374.715628 -139.214645 
L 374.128795 -141.551015 
L 373.541962 -144.374588 
L 372.95513 -140.284298 
L 372.368297 -141.31245 
L 371.781464 -132.684273 
L 371.194631 -133.372897 
L 370.607798 -134.455499 
L 370.020965 -132.020387 
L 369.434132 -135.218251 
L 368.847299 -134.513172 
L 368.260466 -135.47129 
L 367.673633 -132.917067 
L 367.0868 -131.877776 
L 366.499967 -132.068177 
L 365.913134 -138.045037 
L 365.326301 -133.149298 
L 364.739468 -131.72409 
L 364.152635 -132.976897 
L 363.565802 -134.255993 
L 362.978969 -138.568566 
L 362.392136 -140.053152 
L 361.805303 -134.593291 
L 361.218471 -135.596246 
L 360.631638 -133.335162 
L 360.044805 -132.202004 
L 359.457972 -127.541206 
L 358.871139 -133.192193 
L 358.284306 -137.575595 
L 357.697473 -133.491238 
L 357.11064 -131.695839 
L 356.523807 -136.934631 
L 355.936974 -140.588368 
L 355.350141 -136.400997 
L 354.763308 -135.494433 
L 354.176475 -137.981214 
L 353.589642 -139.471837 
L 353.002809 -140.338297 
L 352.415976 -146.77948 
L 351.829143 -139.824205 
L 351.24231 -138.904589 
L 350.655477 -136.18977 
L 350.068644 -139.356783 
L 349.481811 -138.164866 
L 348.894979 -136.139105 
L 348.308146 -133.011975 
L 347.721313 -131.689963 
L 347.13448 -131.843692 
L 346.547647 -132.00867 
L 345.960814 -133.272463 
L 345.373981 -136.380907 
L 344.787148 -128.300684 
L 344.200315 -125.739549 
L 343.613482 -124.832271 
L 343.026649 -127.486479 
L 342.439816 -129.114867 
L 341.852983 -129.806997 
L 341.26615 -128.361397 
L 340.679317 -131.875179 
L 340.092484 -131.45919 
L 339.505651 -131.60745 
L 338.918818 -124.476398 
L 338.331985 -125.459407 
L 337.745152 -125.949913 
L 337.15832 -130.110286 
L 336.571487 -128.955427 
L 335.984654 -127.131736 
L 335.397821 -129.6547 
L 334.810988 -129.039634 
L 334.224155 -129.521893 
L 333.637322 -133.298122 
L 333.050489 -126.617158 
L 332.463656 -136.839112 
L 331.876823 -134.588115 
L 331.28999 -138.699202 
L 330.703157 -127.837099 
L 330.116324 -134.810444 
L 329.529491 -137.468034 
L 328.942658 -139.808243 
L 328.355825 -136.065291 
L 327.768992 -136.94516 
L 327.182159 -130.905655 
L 326.595326 -130.376797 
L 326.008493 -124.357065 
L 325.42166 -133.874989 
L 324.834828 -133.369238 
L 324.247995 -131.593129 
L 323.661162 -135.4017 
L 323.074329 -122.452572 
L 322.487496 -119.4487 
L 321.900663 -124.000336 
L 321.31383 -135.92952 
L 320.726997 -134.318603 
L 320.140164 -137.161045 
L 319.553331 -127.070725 
L 318.966498 -129.099578 
L 318.379665 -127.914219 
L 317.792832 -130.853446 
L 317.205999 -131.436307 
L 316.619166 -131.667284 
L 316.032333 -132.323933 
L 315.4455 -125.121928 
L 314.858667 -121.407552 
L 314.271834 -121.447614 
L 313.685001 -119.129846 
L 313.098169 -123.672232 
L 312.511336 -123.809595 
L 311.924503 -126.460073 
L 311.33767 -127.765383 
L 310.750837 -129.953997 
L 310.164004 -123.436008 
L 309.577171 -122.169358 
L 308.990338 -122.265558 
L 308.403505 -120.812361 
L 307.816672 -113.474972 
L 307.229839 -111.493852 
L 306.643006 -109.989212 
L 306.056173 -110.833451 
L 305.46934 -112.291268 
L 304.882507 -110.096513 
L 304.295674 -111.047763 
L 303.708841 -111.293431 
L 303.122008 -111.176517 
L 302.535175 -111.239215 
L 301.948342 -112.383244 
L 301.361509 -110.571915 
L 300.774677 -111.435282 
L 300.187844 -111.723562 
L 299.601011 -109.87071 
L 299.014178 -112.765554 
L 298.427345 -110.647759 
L 297.840512 -108.707426 
L 297.253679 -108.449317 
L 296.666846 -111.173822 
L 296.080013 -111.765783 
L 295.49318 -111.691148 
L 294.906347 -110.453302 
L 294.319514 -112.478996 
L 293.732681 -109.33901 
L 293.145848 -110.347464 
L 292.559015 -111.798767 
L 291.972182 -110.560462 
L 291.385349 -111.327352 
L 290.798516 -111.193724 
L 290.211683 -140.316298 
L 289.62485 -137.51422 
L 289.038017 -132.261571 
L 288.451185 -136.352867 
L 287.864352 -140.885919 
L 287.277519 -138.137246 
L 286.690686 -140.40904 
L 286.103853 -141.697653 
L 285.51702 -140.401687 
L 284.930187 -141.42823 
L 284.343354 -141.962365 
L 283.756521 -142.337984 
L 283.169688 -141.046013 
L 282.582855 -139.845933 
L 281.996022 -137.968801 
L 281.409189 -133.325429 
L 280.822356 -138.814404 
L 280.235523 -139.968095 
L 279.64869 -137.377549 
L 279.061857 -139.339851 
L 278.475024 -139.436762 
L 277.888191 -142.308171 
L 277.301358 -142.816238 
L 276.714526 -140.119823 
L 276.127693 -142.402182 
L 275.54086 -140.584676 
L 274.954027 -141.765941 
L 274.367194 -141.539513 
L 273.780361 -141.825728 
L 273.193528 -142.769408 
L 272.606695 -139.756711 
L 272.019862 -142.8517 
L 271.433029 -141.445584 
L 270.846196 -140.130975 
L 270.259363 -141.416128 
L 269.67253 -142.077472 
L 269.085697 -139.869289 
L 268.498864 -136.202121 
L 267.912031 -142.320271 
L 267.325198 -139.85623 
L 266.738365 -142.307826 
L 266.151532 -140.954748 
L 265.564699 -144.299482 
L 264.977866 -139.80885 
L 264.391034 -139.90713 
L 263.804201 -142.555697 
L 263.217368 -142.176987 
L 262.630535 -142.022233 
L 262.043702 -141.958074 
L 261.456869 -142.352146 
L 260.870036 -141.115234 
L 260.283203 -138.17288 
L 259.69637 -140.513273 
L 259.109537 -141.393626 
L 258.522704 -142.078957 
L 257.935871 -141.953805 
L 257.349038 -142.863056 
L 256.762205 -141.467278 
L 256.175372 -141.022729 
L 255.588539 -141.676442 
L 255.001706 -141.953707 
L 254.414873 -140.281027 
L 253.82804 -142.05227 
L 253.241207 -142.274273 
L 252.654375 -142.124889 
L 252.067542 -141.889763 
L 251.480709 -141.659125 
L 250.893876 -141.313732 
L 250.307043 -141.34754 
L 249.72021 -141.454327 
L 249.133377 -143.602842 
L 248.546544 -140.937915 
L 247.959711 -140.976212 
L 247.372878 -142.653177 
L 246.786045 -141.066171 
L 246.199212 -141.962239 
L 245.612379 -141.92822 
L 245.025546 -142.755019 
L 244.438713 -141.206562 
L 243.85188 -141.227994 
L 243.265047 -141.915365 
L 242.678214 -141.868377 
L 242.091381 -141.689149 
L 241.504548 -142.940683 
L 240.917715 -141.475199 
L 240.330883 -141.501719 
L 239.74405 -142.047766 
L 239.157217 -141.855625 
L 238.570384 -141.142418 
L 237.983551 -142.064565 
L 237.396718 -141.493193 
L 236.809885 -144.223251 
L 236.223052 -136.333326 
L 235.636219 -142.521744 
L 235.049386 -141.531245 
L 234.462553 -139.767279 
L 233.87572 -140.784974 
L 233.288887 -139.416064 
L 232.702054 -141.748888 
L 232.115221 -142.171098 
L 231.528388 -141.774514 
L 230.941555 -141.744572 
L 230.354722 -142.274531 
L 229.767889 -141.851343 
L 229.181056 -141.166959 
L 228.594224 -143.327478 
L 228.007391 -140.868831 
L 227.420558 -141.757238 
L 226.833725 -141.424661 
L 226.246892 -141.787281 
L 225.660059 -142.84728 
L 225.073226 -139.979343 
L 224.486393 -141.676518 
L 223.89956 -142.474773 
L 223.312727 -141.228402 
L 222.725894 -142.017818 
L 222.139061 -143.621906 
L 221.552228 -139.348049 
L 220.965395 -142.496505 
L 220.378562 -142.213627 
L 219.791729 -141.284162 
L 219.204896 -141.355568 
L 218.618063 -141.642157 
L 218.03123 -141.688976 
L 217.444397 -144.05376 
L 216.857564 -140.095385 
L 216.270732 -142.838588 
L 215.683899 -140.819651 
L 215.097066 -143.47917 
L 214.510233 -136.391376 
L 213.9234 -142.182721 
L 213.336567 -141.039273 
L 212.749734 -141.82571 
L 212.162901 -141.676213 
L 211.576068 -143.037396 
L 210.989235 -141.356588 
L 210.402402 -142.08612 
L 209.815569 -142.845836 
L 209.228736 -141.06565 
L 208.641903 -141.352773 
L 208.05507 -141.126868 
L 207.468237 -141.625317 
L 206.881404 -142.179524 
L 206.294571 -143.461159 
L 205.707738 -141.364492 
L 205.120905 -139.935917 
L 204.534073 -140.592013 
L 203.94724 -141.99203 
L 203.360407 -143.159809 
L 202.773574 -141.838483 
L 202.186741 -139.9122 
L 201.599908 -140.587231 
L 201.013075 -141.018901 
L 200.426242 -143.380028 
L 199.839409 -140.503647 
L 199.252576 -142.956173 
L 198.665743 -139.753013 
L 198.07891 -141.808648 
L 197.492077 -141.838483 
L 196.905244 -141.795822 
L 196.318411 -141.791586 
L 195.731578 -134.56458 
L 195.144745 -128.447571 
L 194.557912 -133.524707 
L 193.971079 -135.473059 
L 193.384246 -133.095231 
L 192.797413 -133.71248 
L 192.210581 -136.037358 
L 191.623748 -121.220113 
L 191.036915 -117.070698 
L 190.450082 -112.633385 
L 189.863249 -126.513267 
L 189.276416 -132.436808 
L 188.689583 -131.546231 
L 188.10275 -132.82492 
L 187.515917 -125.011266 
L 186.929084 -121.720523 
L 186.342251 -118.876221 
L 185.755418 -122.290875 
L 185.168585 -128.854778 
L 184.581752 -118.456821 
L 183.994919 -116.354724 
L 183.408086 -113.314391 
L 182.821253 -108.450873 
L 182.23442 -112.304055 
L 181.647587 -118.276018 
L 181.060754 -121.43187 
L 180.473922 -120.433479 
L 179.887089 -115.645888 
L 179.300256 -116.640085 
L 178.713423 -113.70456 
L 178.12659 -115.803726 
L 177.539757 -117.985543 
L 176.952924 -114.982585 
L 176.366091 -114.48065 
L 175.779258 -115.657404 
L 175.192425 -118.388585 
L 174.605592 -115.535644 
L 174.018759 -119.837132 
L 173.431926 -121.423324 
L 172.845093 -117.965599 
L 172.25826 -114.40982 
L 171.671427 -111.945354 
L 171.084594 -114.094412 
L 170.497761 -113.011356 
L 169.910928 -112.17087 
L 169.324095 -115.679396 
L 168.737262 -117.487292 
L 168.15043 -120.366074 
L 167.563597 -117.548887 
L 166.976764 -115.722049 
L 166.389931 -112.396565 
L 165.803098 -113.449515 
L 165.216265 -115.837437 
L 164.629432 -115.440539 
L 164.042599 -113.872009 
L 163.455766 -114.897824 
L 162.868933 -117.332633 
L 162.2821 -112.903612 
L 161.695267 -110.927543 
L 161.108434 -118.390307 
L 160.521601 -124.462585 
L 159.934768 -129.287049 
L 159.347935 -120.357985 
L 158.761102 -119.173166 
L 158.174269 -116.95656 
L 157.587436 -122.267126 
L 157.000603 -122.249678 
L 156.41377 -122.723035 
L 155.826938 -126.842137 
L 155.240105 -127.47228 
L 154.653272 -120.67148 
L 154.066439 -121.931911 
L 153.479606 -121.219673 
L 152.892773 -120.716421 
L 152.30594 -121.134099 
L 151.719107 -121.300958 
L 151.132274 -128.452117 
L 150.545441 -128.742198 
L 149.958608 -121.809113 
L 149.371775 -118.91462 
L 148.784942 -123.843187 
L 148.198109 -126.596372 
L 147.611276 -126.724317 
L 147.024443 -131.74971 
L 146.43761 -124.626136 
L 145.850777 -119.847384 
L 145.263944 -121.454627 
L 144.677111 -129.949959 
L 144.090279 -126.843962 
L 143.503446 -123.666714 
L 142.916613 -122.965056 
L 142.32978 -126.717895 
L 141.742947 -121.502876 
L 141.156114 -125.951819 
L 140.569281 -127.606391 
L 139.982448 -132.459802 
L 139.395615 -133.831226 
L 138.808782 -132.613067 
L 138.221949 -128.428645 
L 137.635116 -123.727243 
L 137.048283 -125.499542 
L 136.46145 -126.125348 
L 135.874617 -130.263987 
L 135.287784 -124.681577 
L 134.700951 -124.588834 
L 134.114118 -125.840813 
L 133.527285 -127.716415 
L 132.940452 -117.950723 
L 132.353619 -120.118479 
L 131.766787 -121.379256 
L 131.179954 -131.172276 
L 130.593121 -140.078295 
L 130.006288 -137.387772 
L 129.419455 -129.160696 
L 128.832622 -131.449598 
L 128.245789 -133.685241 
L 127.658956 -133.65138 
L 127.072123 -133.020253 
L 126.48529 -137.174056 
L 125.898457 -130.832158 
L 125.311624 -124.418415 
L 124.724791 -124.413629 
L 124.137958 -130.442211 
L 123.551125 -133.942202 
L 122.964292 -137.782529 
L 122.377459 -133.544097 
L 121.790626 -136.767889 
L 121.203793 -134.593944 
L 120.61696 -134.021882 
L 120.030128 -141.808641 
L 119.443295 -138.895836 
L 118.856462 -131.864056 
L 118.269629 -133.673634 
L 117.682796 -134.774548 
L 117.095963 -121.999551 
L 116.50913 -126.806654 
L 115.922297 -129.492933 
L 115.335464 -131.112332 
L 114.748631 -129.918394 
L 114.161798 -129.667957 
L 113.574965 -126.235617 
L 112.988132 -123.501164 
L 112.401299 -119.770317 
L 111.814466 -124.6008 
L 111.227633 -130.697534 
L 110.6408 -129.622674 
L 110.053967 -127.04849 
L 109.467134 -124.752994 
L 108.880301 -118.091719 
L 108.293468 -119.550345 
L 107.706636 -122.542554 
L 107.119803 -122.089326 
L 106.53297 -125.191192 
L 105.946137 -117.459042 
L 105.359304 -107.670716 
L 104.772471 -99.086597 
L 104.185638 -99.997942 
L 103.598805 -103.034119 
L 103.011972 -104.079578 
L 102.425139 -103.302553 
L 101.838306 -103.603268 
L 101.251473 -98.32509 
L 100.66464 -95.845495 
L 100.077807 -95.387612 
L 99.490974 -98.705924 
L 98.904141 -96.862399 
L 98.317308 -93.521142 
L 97.730475 -98.896356 
L 97.143642 -97.061223 
L 96.556809 -95.171879 
L 95.969977 -94.204442 
L 95.383144 -102.160711 
L 94.796311 -107.092614 
L 94.209478 -101.541359 
L 93.622645 -104.68893 
L 93.035812 -97.036797 
L 92.448979 -91.614928 
L 91.862146 -92.498567 
L 91.275313 -97.412021 
L 90.68848 -97.428839 
L 90.101647 -94.962539 
L 89.514814 -97.504753 
L 88.927981 -95.657319 
L 88.341148 -89.96851 
L 87.754315 -90.440373 
L 87.167482 -95.288093 
L 86.580649 -94.886537 
L 85.993816 -92.270413 
L 85.406983 -91.484888 
L 84.82015 -90.414892 
L 84.233317 -85.862191 
L 83.646485 -85.814591 
L 83.059652 -87.743396 
L 82.472819 -91.002094 
L 81.885986 -93.433401 
L 81.299153 -96.603964 
L 80.71232 -94.744495 
L 80.125487 -95.013812 
L 79.538654 -90.967057 
L 78.951821 -114.856011 
L 78.364988 -112.082656 
L 77.778155 -95.445726 
L 77.191322 -97.21093 
L 76.604489 -93.428128 
L 76.017656 -93.048551 
L 75.430823 -94.118286 
L 74.84399 -112.300861 
L 74.257157 -123.449868 
L 73.670324 -141.316961 
L 73.083491 -141.855835 
L 72.496658 -141.847265 
L 71.909826 -141.916173 
L 71.322993 -141.67529 
L 70.73616 -141.851548 
L 70.149327 -141.847714 
L 69.562494 -113.355209 
L 68.975661 -85.214738 
L 68.388828 -80.234294 
L 67.801995 -76.543124 
L 67.215162 -77.152977 
L 66.628329 -78.556986 
L 66.041496 -79.548434 
L 65.454663 -82.180043 
L 64.86783 -79.265457 
L 64.280997 -77.067853 
L 63.694164 -77.416014 
L 63.107331 -78.982285 
L 62.520498 -81.309354 
L 61.933665 -98.067812 
L 61.346832 -65.775127 
z
" style="stroke: #b3cde3; stroke-opacity: 0.6"/>
    </defs>
    <g clip-path="url(#p61553af1d0)">
     <use xlink:href="#mf894e8c11c" x="0" y="203.554692" style="fill: #b3cde3; fill-opacity: 0.6; stroke: #b3cde3; stroke-opacity: 0.6"/>
    </g>
   </g>
   <g id="matplotlib.axis_1">
    <g id="xtick_1">
     <g id="line2d_1">
      <path d="M 72.496658 159.572615 
L 72.496658 25.158281 
" clip-path="url(#p61553af1d0)" style="fill: none; stroke: #b0b0b0; stroke-opacity: 0.25; stroke-width: 0.5; stroke-linecap: square"/>
     </g>
     <g id="line2d_2">
      <defs>
       <path id="m20dcee7f95" d="M 0 0 
L 0 3.5 
" style="stroke: #000000; stroke-width: 0.8"/>
      </defs>
      <g>
       <use xlink:href="#m20dcee7f95" x="72.496658" y="159.572615" style="stroke: #000000; stroke-width: 0.8"/>
      </g>
     </g>
     <g id="text_1">
      <!-- Apr 2024 -->
      <g transform="translate(39.080578 190.649467) rotate(-30) scale(0.08 -0.08)">
       <defs>
        <path id="DejaVuSerif-41" d="M 1281 1691 
L 2994 1691 
L 2138 3909 
L 1281 1691 
z
M -38 0 
L -38 331 
L 372 331 
L 2034 4666 
L 2559 4666 
L 4225 331 
L 4684 331 
L 4684 0 
L 2988 0 
L 2988 331 
L 3506 331 
L 3116 1356 
L 1153 1356 
L 763 331 
L 1275 331 
L 1275 0 
L -38 0 
z
" transform="scale(0.015625)"/>
        <path id="DejaVuSerif-70" d="M 1313 1825 
L 1313 1497 
Q 1313 897 1542 583 
Q 1772 269 2209 269 
Q 2650 269 2876 622 
Q 3103 975 3103 1663 
Q 3103 2353 2876 2703 
Q 2650 3053 2209 3053 
Q 1772 3053 1542 2737 
Q 1313 2422 1313 1825 
z
M 738 2988 
L 184 2988 
L 184 3322 
L 1313 3322 
L 1313 2803 
Q 1481 3116 1742 3264 
Q 2003 3413 2388 3413 
Q 3000 3413 3387 2928 
Q 3775 2444 3775 1663 
Q 3775 881 3387 395 
Q 3000 -91 2388 -91 
Q 2003 -91 1742 57 
Q 1481 206 1313 519 
L 1313 -997 
L 1856 -997 
L 1856 -1331 
L 184 -1331 
L 184 -997 
L 738 -997 
L 738 2988 
z
" transform="scale(0.015625)"/>
        <path id="DejaVuSerif-72" d="M 3059 3328 
L 3059 2497 
L 2728 2497 
Q 2713 2744 2591 2866 
Q 2469 2988 2234 2988 
Q 1809 2988 1582 2694 
Q 1356 2400 1356 1850 
L 1356 331 
L 2022 331 
L 2022 0 
L 263 0 
L 263 331 
L 781 331 
L 781 2994 
L 231 2994 
L 231 3322 
L 1356 3322 
L 1356 2731 
Q 1525 3078 1790 3245 
Q 2056 3413 2438 3413 
Q 2578 3413 2733 3391 
Q 2888 3369 3059 3328 
z
" transform="scale(0.015625)"/>
        <path id="DejaVuSerif-20" transform="scale(0.015625)"/>
        <path id="DejaVuSerif-32" d="M 819 3553 
L 469 3553 
L 469 4384 
Q 803 4563 1142 4656 
Q 1481 4750 1806 4750 
Q 2534 4750 2956 4397 
Q 3378 4044 3378 3438 
Q 3378 2753 2422 1800 
Q 2347 1728 2309 1691 
L 1131 513 
L 3078 513 
L 3078 1088 
L 3444 1088 
L 3444 0 
L 434 0 
L 434 341 
L 1850 1753 
Q 2319 2222 2519 2614 
Q 2719 3006 2719 3438 
Q 2719 3909 2473 4175 
Q 2228 4441 1797 4441 
Q 1350 4441 1106 4219 
Q 863 3997 819 3553 
z
" transform="scale(0.015625)"/>
        <path id="DejaVuSerif-30" d="M 2034 219 
Q 2513 219 2750 744 
Q 2988 1269 2988 2328 
Q 2988 3391 2750 3916 
Q 2513 4441 2034 4441 
Q 1556 4441 1318 3916 
Q 1081 3391 1081 2328 
Q 1081 1269 1318 744 
Q 1556 219 2034 219 
z
M 2034 -91 
Q 1275 -91 848 546 
Q 422 1184 422 2328 
Q 422 3475 848 4112 
Q 1275 4750 2034 4750 
Q 2797 4750 3222 4112 
Q 3647 3475 3647 2328 
Q 3647 1184 3222 546 
Q 2797 -91 2034 -91 
z
" transform="scale(0.015625)"/>
        <path id="DejaVuSerif-34" d="M 2234 1581 
L 2234 4063 
L 641 1581 
L 2234 1581 
z
M 3609 0 
L 1484 0 
L 1484 331 
L 2234 331 
L 2234 1247 
L 197 1247 
L 197 1588 
L 2241 4750 
L 2859 4750 
L 2859 1581 
L 3750 1581 
L 3750 1247 
L 2859 1247 
L 2859 331 
L 3609 331 
L 3609 0 
z
" transform="scale(0.015625)"/>
       </defs>
       <use xlink:href="#DejaVuSerif-41"/>
       <use xlink:href="#DejaVuSerif-70" x="72.216797"/>
       <use xlink:href="#DejaVuSerif-72" x="136.230469"/>
       <use xlink:href="#DejaVuSerif-20" x="184.033203"/>
       <use xlink:href="#DejaVuSerif-32" x="215.820312"/>
       <use xlink:href="#DejaVuSerif-30" x="279.443359"/>
       <use xlink:href="#DejaVuSerif-32" x="343.066406"/>
       <use xlink:href="#DejaVuSerif-34" x="406.689453"/>
      </g>
     </g>
    </g>
    <g id="xtick_2">
     <g id="line2d_3">
      <path d="M 108.293468 159.572615 
L 108.293468 25.158281 
" clip-path="url(#p61553af1d0)" style="fill: none; stroke: #b0b0b0; stroke-opacity: 0.25; stroke-width: 0.5; stroke-linecap: square"/>
     </g>
     <g id="line2d_4">
      <g>
       <use xlink:href="#m20dcee7f95" x="108.293468" y="159.572615" style="stroke: #000000; stroke-width: 0.8"/>
      </g>
     </g>
     <g id="text_2">
      <!-- Jun 2024 -->
      <g transform="translate(75.925278 190.044467) rotate(-30) scale(0.08 -0.08)">
       <defs>
        <path id="DejaVuSerif-4a" d="M -538 -1119 
L -538 -384 
L -181 -384 
Q -172 -694 -34 -845 
Q 103 -997 378 -997 
Q 750 -997 897 -762 
Q 1044 -528 1044 153 
L 1044 4331 
L 319 4331 
L 319 4666 
L 2272 4666 
L 2272 4331 
L 1678 4331 
L 1678 128 
Q 1678 -644 1368 -987 
Q 1059 -1331 372 -1331 
Q 150 -1331 -79 -1278 
Q -309 -1225 -538 -1119 
z
" transform="scale(0.015625)"/>
        <path id="DejaVuSerif-75" d="M 2266 3322 
L 3341 3322 
L 3341 331 
L 3884 331 
L 3884 0 
L 2766 0 
L 2766 588 
Q 2606 256 2353 82 
Q 2100 -91 1766 -91 
Q 1213 -91 952 223 
Q 691 538 691 1209 
L 691 2988 
L 172 2988 
L 172 3322 
L 1269 3322 
L 1269 1388 
Q 1269 781 1417 556 
Q 1566 331 1947 331 
Q 2347 331 2556 625 
Q 2766 919 2766 1478 
L 2766 2988 
L 2266 2988 
L 2266 3322 
z
" transform="scale(0.015625)"/>
        <path id="DejaVuSerif-6e" d="M 263 0 
L 263 331 
L 781 331 
L 781 2988 
L 231 2988 
L 231 3322 
L 1356 3322 
L 1356 2731 
Q 1516 3069 1770 3241 
Q 2025 3413 2363 3413 
Q 2913 3413 3172 3097 
Q 3431 2781 3431 2113 
L 3431 331 
L 3944 331 
L 3944 0 
L 2356 0 
L 2356 331 
L 2853 331 
L 2853 1931 
Q 2853 2541 2703 2767 
Q 2553 2994 2175 2994 
Q 1775 2994 1565 2701 
Q 1356 2409 1356 1850 
L 1356 331 
L 1856 331 
L 1856 0 
L 263 0 
z
" transform="scale(0.015625)"/>
       </defs>
       <use xlink:href="#DejaVuSerif-4a"/>
       <use xlink:href="#DejaVuSerif-75" x="40.087891"/>
       <use xlink:href="#DejaVuSerif-6e" x="104.492188"/>
       <use xlink:href="#DejaVuSerif-20" x="168.896484"/>
       <use xlink:href="#DejaVuSerif-32" x="200.683594"/>
       <use xlink:href="#DejaVuSerif-30" x="264.306641"/>
       <use xlink:href="#DejaVuSerif-32" x="327.929688"/>
       <use xlink:href="#DejaVuSerif-34" x="391.552734"/>
      </g>
     </g>
    </g>
    <g id="xtick_3">
     <g id="line2d_5">
      <path d="M 144.090279 159.572615 
L 144.090279 25.158281 
" clip-path="url(#p61553af1d0)" style="fill: none; stroke: #b0b0b0; stroke-opacity: 0.25; stroke-width: 0.5; stroke-linecap: square"/>
     </g>
     <g id="line2d_6">
      <g>
       <use xlink:href="#m20dcee7f95" x="144.090279" y="159.572615" style="stroke: #000000; stroke-width: 0.8"/>
      </g>
     </g>
     <g id="text_3">
      <!-- Aug 2024 -->
      <g transform="translate(109.466591 191.215331) rotate(-30) scale(0.08 -0.08)">
       <defs>
        <path id="DejaVuSerif-67" d="M 3359 2988 
L 3359 72 
Q 3359 -644 2965 -1033 
Q 2572 -1422 1844 -1422 
Q 1516 -1422 1216 -1362 
Q 916 -1303 641 -1184 
L 641 -488 
L 941 -488 
Q 997 -813 1206 -963 
Q 1416 -1113 1806 -1113 
Q 2313 -1113 2548 -827 
Q 2784 -541 2784 72 
L 2784 519 
Q 2616 206 2355 57 
Q 2094 -91 1709 -91 
Q 1097 -91 708 395 
Q 319 881 319 1663 
Q 319 2444 706 2928 
Q 1094 3413 1709 3413 
Q 2094 3413 2355 3264 
Q 2616 3116 2784 2803 
L 2784 3322 
L 3909 3322 
L 3909 2988 
L 3359 2988 
z
M 2784 1825 
Q 2784 2422 2554 2737 
Q 2325 3053 1888 3053 
Q 1444 3053 1217 2703 
Q 991 2353 991 1663 
Q 991 975 1217 622 
Q 1444 269 1888 269 
Q 2325 269 2554 583 
Q 2784 897 2784 1497 
L 2784 1825 
z
" transform="scale(0.015625)"/>
       </defs>
       <use xlink:href="#DejaVuSerif-41"/>
       <use xlink:href="#DejaVuSerif-75" x="72.216797"/>
       <use xlink:href="#DejaVuSerif-67" x="136.621094"/>
       <use xlink:href="#DejaVuSerif-20" x="200.634766"/>
       <use xlink:href="#DejaVuSerif-32" x="232.421875"/>
       <use xlink:href="#DejaVuSerif-30" x="296.044922"/>
       <use xlink:href="#DejaVuSerif-32" x="359.667969"/>
       <use xlink:href="#DejaVuSerif-34" x="423.291016"/>
      </g>
     </g>
    </g>
    <g id="xtick_4">
     <g id="line2d_7">
      <path d="M 179.887089 159.572615 
L 179.887089 25.158281 
" clip-path="url(#p61553af1d0)" style="fill: none; stroke: #b0b0b0; stroke-opacity: 0.25; stroke-width: 0.5; stroke-linecap: square"/>
     </g>
     <g id="line2d_8">
      <g>
       <use xlink:href="#m20dcee7f95" x="179.887089" y="159.572615" style="stroke: #000000; stroke-width: 0.8"/>
      </g>
     </g>
     <g id="text_4">
      <!-- Oct 2024 -->
      <g transform="translate(146.876957 190.415092) rotate(-30) scale(0.08 -0.08)">
       <defs>
        <path id="DejaVuSerif-4f" d="M 2625 244 
Q 3391 244 3781 770 
Q 4172 1297 4172 2328 
Q 4172 3363 3781 3889 
Q 3391 4416 2625 4416 
Q 1856 4416 1465 3889 
Q 1075 3363 1075 2328 
Q 1075 1297 1465 770 
Q 1856 244 2625 244 
z
M 2625 -91 
Q 2150 -91 1751 65 
Q 1353 222 1050 525 
Q 700 875 529 1319 
Q 359 1763 359 2328 
Q 359 2894 529 3339 
Q 700 3784 1050 4134 
Q 1356 4441 1750 4595 
Q 2144 4750 2625 4750 
Q 3641 4750 4266 4084 
Q 4891 3419 4891 2328 
Q 4891 1769 4719 1320 
Q 4547 872 4197 525 
Q 3891 219 3497 64 
Q 3103 -91 2625 -91 
z
" transform="scale(0.015625)"/>
        <path id="DejaVuSerif-63" d="M 3291 997 
Q 3169 466 2822 187 
Q 2475 -91 1925 -91 
Q 1200 -91 759 389 
Q 319 869 319 1663 
Q 319 2459 759 2936 
Q 1200 3413 1925 3413 
Q 2241 3413 2553 3339 
Q 2866 3266 3181 3116 
L 3181 2266 
L 2847 2266 
Q 2781 2703 2561 2903 
Q 2341 3103 1931 3103 
Q 1466 3103 1228 2742 
Q 991 2381 991 1663 
Q 991 944 1227 581 
Q 1463 219 1931 219 
Q 2303 219 2525 412 
Q 2747 606 2828 997 
L 3291 997 
z
" transform="scale(0.015625)"/>
        <path id="DejaVuSerif-74" d="M 691 2988 
L 184 2988 
L 184 3322 
L 691 3322 
L 691 4353 
L 1269 4353 
L 1269 3322 
L 2350 3322 
L 2350 2988 
L 1269 2988 
L 1269 878 
Q 1269 456 1350 337 
Q 1431 219 1650 219 
Q 1875 219 1978 351 
Q 2081 484 2088 781 
L 2522 781 
Q 2497 328 2275 118 
Q 2053 -91 1600 -91 
Q 1103 -91 897 129 
Q 691 350 691 878 
L 691 2988 
z
" transform="scale(0.015625)"/>
       </defs>
       <use xlink:href="#DejaVuSerif-4f"/>
       <use xlink:href="#DejaVuSerif-63" x="81.982422"/>
       <use xlink:href="#DejaVuSerif-74" x="137.988281"/>
       <use xlink:href="#DejaVuSerif-20" x="178.173828"/>
       <use xlink:href="#DejaVuSerif-32" x="209.960938"/>
       <use xlink:href="#DejaVuSerif-30" x="273.583984"/>
       <use xlink:href="#DejaVuSerif-32" x="337.207031"/>
       <use xlink:href="#DejaVuSerif-34" x="400.830078"/>
      </g>
     </g>
    </g>
    <g id="xtick_5">
     <g id="line2d_9">
      <path d="M 215.683899 159.572615 
L 215.683899 25.158281 
" clip-path="url(#p61553af1d0)" style="fill: none; stroke: #b0b0b0; stroke-opacity: 0.25; stroke-width: 0.5; stroke-linecap: square"/>
     </g>
     <g id="line2d_10">
      <g>
       <use xlink:href="#m20dcee7f95" x="215.683899" y="159.572615" style="stroke: #000000; stroke-width: 0.8"/>
      </g>
     </g>
     <g id="text_5">
      <!-- Dec 2024 -->
      <g transform="translate(181.482982 191.102592) rotate(-30) scale(0.08 -0.08)">
       <defs>
        <path id="DejaVuSerif-44" d="M 1581 331 
L 2163 331 
Q 3072 331 3558 850 
Q 4044 1369 4044 2338 
Q 4044 3306 3559 3818 
Q 3075 4331 2163 4331 
L 1581 4331 
L 1581 331 
z
M 353 0 
L 353 331 
L 947 331 
L 947 4331 
L 353 4331 
L 353 4666 
L 2209 4666 
Q 3416 4666 4089 4050 
Q 4763 3434 4763 2338 
Q 4763 1238 4088 619 
Q 3413 0 2209 0 
L 353 0 
z
" transform="scale(0.015625)"/>
        <path id="DejaVuSerif-65" d="M 3469 1600 
L 991 1600 
L 991 1575 
Q 991 903 1244 561 
Q 1497 219 1991 219 
Q 2369 219 2611 417 
Q 2853 616 2950 1006 
L 3413 1006 
Q 3275 459 2904 184 
Q 2534 -91 1931 -91 
Q 1203 -91 761 389 
Q 319 869 319 1663 
Q 319 2450 753 2931 
Q 1188 3413 1894 3413 
Q 2647 3413 3050 2948 
Q 3453 2484 3469 1600 
z
M 2791 1931 
Q 2772 2513 2545 2808 
Q 2319 3103 1894 3103 
Q 1497 3103 1269 2806 
Q 1041 2509 991 1931 
L 2791 1931 
z
" transform="scale(0.015625)"/>
       </defs>
       <use xlink:href="#DejaVuSerif-44"/>
       <use xlink:href="#DejaVuSerif-65" x="80.175781"/>
       <use xlink:href="#DejaVuSerif-63" x="139.355469"/>
       <use xlink:href="#DejaVuSerif-20" x="195.361328"/>
       <use xlink:href="#DejaVuSerif-32" x="227.148438"/>
       <use xlink:href="#DejaVuSerif-30" x="290.771484"/>
       <use xlink:href="#DejaVuSerif-32" x="354.394531"/>
       <use xlink:href="#DejaVuSerif-34" x="418.017578"/>
      </g>
     </g>
    </g>
    <g id="xtick_6">
     <g id="line2d_11">
      <path d="M 252.067542 159.572615 
L 252.067542 25.158281 
" clip-path="url(#p61553af1d0)" style="fill: none; stroke: #b0b0b0; stroke-opacity: 0.25; stroke-width: 0.5; stroke-linecap: square"/>
     </g>
     <g id="line2d_12">
      <g>
       <use xlink:href="#m20dcee7f95" x="252.067542" y="159.572615" style="stroke: #000000; stroke-width: 0.8"/>
      </g>
     </g>
     <g id="text_6">
      <!-- Feb 2025 -->
      <g transform="translate(218.439285 190.771967) rotate(-30) scale(0.08 -0.08)">
       <defs>
        <path id="DejaVuSerif-46" d="M 353 0 
L 353 331 
L 947 331 
L 947 4331 
L 353 4331 
L 353 4666 
L 4172 4666 
L 4172 3628 
L 3788 3628 
L 3788 4281 
L 1581 4281 
L 1581 2719 
L 3175 2719 
L 3175 3303 
L 3559 3303 
L 3559 1753 
L 3175 1753 
L 3175 2338 
L 1581 2338 
L 1581 331 
L 2328 331 
L 2328 0 
L 353 0 
z
" transform="scale(0.015625)"/>
        <path id="DejaVuSerif-62" d="M 738 331 
L 738 4531 
L 184 4531 
L 184 4863 
L 1313 4863 
L 1313 2803 
Q 1481 3116 1742 3264 
Q 2003 3413 2388 3413 
Q 3000 3413 3387 2928 
Q 3775 2444 3775 1663 
Q 3775 881 3387 395 
Q 3000 -91 2388 -91 
Q 2003 -91 1742 57 
Q 1481 206 1313 519 
L 1313 0 
L 184 0 
L 184 331 
L 738 331 
z
M 1313 1497 
Q 1313 897 1542 583 
Q 1772 269 2209 269 
Q 2650 269 2876 622 
Q 3103 975 3103 1663 
Q 3103 2353 2876 2703 
Q 2650 3053 2209 3053 
Q 1772 3053 1542 2737 
Q 1313 2422 1313 1825 
L 1313 1497 
z
" transform="scale(0.015625)"/>
        <path id="DejaVuSerif-35" d="M 3219 4666 
L 3219 4153 
L 1081 4153 
L 1081 2816 
Q 1244 2928 1461 2984 
Q 1678 3041 1947 3041 
Q 2703 3041 3140 2622 
Q 3578 2203 3578 1478 
Q 3578 738 3136 323 
Q 2694 -91 1894 -91 
Q 1572 -91 1234 -12 
Q 897 66 544 225 
L 544 1131 
L 897 1131 
Q 925 688 1179 453 
Q 1434 219 1894 219 
Q 2388 219 2653 544 
Q 2919 869 2919 1478 
Q 2919 2084 2655 2407 
Q 2391 2731 1894 2731 
Q 1613 2731 1398 2631 
Q 1184 2531 1019 2322 
L 750 2322 
L 750 4666 
L 3219 4666 
z
" transform="scale(0.015625)"/>
       </defs>
       <use xlink:href="#DejaVuSerif-46"/>
       <use xlink:href="#DejaVuSerif-65" x="63.884766"/>
       <use xlink:href="#DejaVuSerif-62" x="123.064453"/>
       <use xlink:href="#DejaVuSerif-20" x="187.078125"/>
       <use xlink:href="#DejaVuSerif-32" x="218.865234"/>
       <use xlink:href="#DejaVuSerif-30" x="282.488281"/>
       <use xlink:href="#DejaVuSerif-32" x="346.111328"/>
       <use xlink:href="#DejaVuSerif-35" x="409.734375"/>
      </g>
     </g>
    </g>
    <g id="xtick_7">
     <g id="line2d_13">
      <path d="M 286.690686 159.572615 
L 286.690686 25.158281 
" clip-path="url(#p61553af1d0)" style="fill: none; stroke: #b0b0b0; stroke-opacity: 0.25; stroke-width: 0.5; stroke-linecap: square"/>
     </g>
     <g id="line2d_14">
      <g>
       <use xlink:href="#m20dcee7f95" x="286.690686" y="159.572615" style="stroke: #000000; stroke-width: 0.8"/>
      </g>
     </g>
     <g id="text_7">
      <!-- Apr 2025 -->
      <g transform="translate(253.274605 190.649467) rotate(-30) scale(0.08 -0.08)">
       <use xlink:href="#DejaVuSerif-41"/>
       <use xlink:href="#DejaVuSerif-70" x="72.216797"/>
       <use xlink:href="#DejaVuSerif-72" x="136.230469"/>
       <use xlink:href="#DejaVuSerif-20" x="184.033203"/>
       <use xlink:href="#DejaVuSerif-32" x="215.820312"/>
       <use xlink:href="#DejaVuSerif-30" x="279.443359"/>
       <use xlink:href="#DejaVuSerif-32" x="343.066406"/>
       <use xlink:href="#DejaVuSerif-35" x="406.689453"/>
      </g>
     </g>
    </g>
    <g id="xtick_8">
     <g id="line2d_15">
      <path d="M 322.487496 159.572615 
L 322.487496 25.158281 
" clip-path="url(#p61553af1d0)" style="fill: none; stroke: #b0b0b0; stroke-opacity: 0.25; stroke-width: 0.5; stroke-linecap: square"/>
     </g>
     <g id="line2d_16">
      <g>
       <use xlink:href="#m20dcee7f95" x="322.487496" y="159.572615" style="stroke: #000000; stroke-width: 0.8"/>
      </g>
     </g>
     <g id="text_8">
      <!-- Jun 2025 -->
      <g transform="translate(290.119306 190.044467) rotate(-30) scale(0.08 -0.08)">
       <use xlink:href="#DejaVuSerif-4a"/>
       <use xlink:href="#DejaVuSerif-75" x="40.087891"/>
       <use xlink:href="#DejaVuSerif-6e" x="104.492188"/>
       <use xlink:href="#DejaVuSerif-20" x="168.896484"/>
       <use xlink:href="#DejaVuSerif-32" x="200.683594"/>
       <use xlink:href="#DejaVuSerif-30" x="264.306641"/>
       <use xlink:href="#DejaVuSerif-32" x="327.929688"/>
       <use xlink:href="#DejaVuSerif-35" x="391.552734"/>
      </g>
     </g>
    </g>
    <g id="xtick_9">
     <g id="line2d_17">
      <path d="M 358.284306 159.572615 
L 358.284306 25.158281 
" clip-path="url(#p61553af1d0)" style="fill: none; stroke: #b0b0b0; stroke-opacity: 0.25; stroke-width: 0.5; stroke-linecap: square"/>
     </g>
     <g id="line2d_18">
      <g>
       <use xlink:href="#m20dcee7f95" x="358.284306" y="159.572615" style="stroke: #000000; stroke-width: 0.8"/>
      </g>
     </g>
     <g id="text_9">
      <!-- Aug 2025 -->
      <g transform="translate(323.660619 191.215331) rotate(-30) scale(0.08 -0.08)">
       <use xlink:href="#DejaVuSerif-41"/>
       <use xlink:href="#DejaVuSerif-75" x="72.216797"/>
       <use xlink:href="#DejaVuSerif-67" x="136.621094"/>
       <use xlink:href="#DejaVuSerif-20" x="200.634766"/>
       <use xlink:href="#DejaVuSerif-32" x="232.421875"/>
       <use xlink:href="#DejaVuSerif-30" x="296.044922"/>
       <use xlink:href="#DejaVuSerif-32" x="359.667969"/>
       <use xlink:href="#DejaVuSerif-35" x="423.291016"/>
      </g>
     </g>
    </g>
    <g id="xtick_10">
     <g id="line2d_19">
      <path d="M 394.081116 159.572615 
L 394.081116 25.158281 
" clip-path="url(#p61553af1d0)" style="fill: none; stroke: #b0b0b0; stroke-opacity: 0.25; stroke-width: 0.5; stroke-linecap: square"/>
     </g>
     <g id="line2d_20">
      <g>
       <use xlink:href="#m20dcee7f95" x="394.081116" y="159.572615" style="stroke: #000000; stroke-width: 0.8"/>
      </g>
     </g>
     <g id="text_10">
      <!-- Oct 2025 -->
      <g transform="translate(361.070984 190.415092) rotate(-30) scale(0.08 -0.08)">
       <use xlink:href="#DejaVuSerif-4f"/>
       <use xlink:href="#DejaVuSerif-63" x="81.982422"/>
       <use xlink:href="#DejaVuSerif-74" x="137.988281"/>
       <use xlink:href="#DejaVuSerif-20" x="178.173828"/>
       <use xlink:href="#DejaVuSerif-32" x="209.960938"/>
       <use xlink:href="#DejaVuSerif-30" x="273.583984"/>
       <use xlink:href="#DejaVuSerif-32" x="337.207031"/>
       <use xlink:href="#DejaVuSerif-35" x="400.830078"/>
      </g>
     </g>
    </g>
    <g id="xtick_11">
     <g id="line2d_21">
      <path d="M 429.877926 159.572615 
L 429.877926 25.158281 
" clip-path="url(#p61553af1d0)" style="fill: none; stroke: #b0b0b0; stroke-opacity: 0.25; stroke-width: 0.5; stroke-linecap: square"/>
     </g>
     <g id="line2d_22">
      <g>
       <use xlink:href="#m20dcee7f95" x="429.877926" y="159.572615" style="stroke: #000000; stroke-width: 0.8"/>
      </g>
     </g>
     <g id="text_11">
      <!-- Dec 2025 -->
      <g transform="translate(395.677009 191.102592) rotate(-30) scale(0.08 -0.08)">
       <use xlink:href="#DejaVuSerif-44"/>
       <use xlink:href="#DejaVuSerif-65" x="80.175781"/>
       <use xlink:href="#DejaVuSerif-63" x="139.355469"/>
       <use xlink:href="#DejaVuSerif-20" x="195.361328"/>
       <use xlink:href="#DejaVuSerif-32" x="227.148438"/>
       <use xlink:href="#DejaVuSerif-30" x="290.771484"/>
       <use xlink:href="#DejaVuSerif-32" x="354.394531"/>
       <use xlink:href="#DejaVuSerif-35" x="418.017578"/>
      </g>
     </g>
    </g>
    <g id="xtick_12">
     <g id="line2d_23">
      <path d="M 466.261569 159.572615 
L 466.261569 25.158281 
" clip-path="url(#p61553af1d0)" style="fill: none; stroke: #b0b0b0; stroke-opacity: 0.25; stroke-width: 0.5; stroke-linecap: square"/>
     </g>
     <g id="line2d_24">
      <g>
       <use xlink:href="#m20dcee7f95" x="466.261569" y="159.572615" style="stroke: #000000; stroke-width: 0.8"/>
      </g>
     </g>
     <g id="text_12">
      <!-- Feb 2026 -->
      <g transform="translate(432.633312 190.771967) rotate(-30) scale(0.08 -0.08)">
       <defs>
        <path id="DejaVuSerif-36" d="M 2094 219 
Q 2534 219 2771 542 
Q 3009 866 3009 1472 
Q 3009 2078 2771 2401 
Q 2534 2725 2094 2725 
Q 1647 2725 1412 2412 
Q 1178 2100 1178 1509 
Q 1178 888 1415 553 
Q 1653 219 2094 219 
z
M 1075 2569 
Q 1288 2803 1556 2918 
Q 1825 3034 2163 3034 
Q 2859 3034 3264 2615 
Q 3669 2197 3669 1472 
Q 3669 763 3233 336 
Q 2797 -91 2069 -91 
Q 1278 -91 853 498 
Q 428 1088 428 2181 
Q 428 3406 931 4078 
Q 1434 4750 2350 4750 
Q 2597 4750 2869 4703 
Q 3141 4656 3425 4563 
L 3425 3794 
L 3072 3794 
Q 3034 4109 2831 4275 
Q 2628 4441 2284 4441 
Q 1678 4441 1381 3981 
Q 1084 3522 1075 2569 
z
" transform="scale(0.015625)"/>
       </defs>
       <use xlink:href="#DejaVuSerif-46"/>
       <use xlink:href="#DejaVuSerif-65" x="63.884766"/>
       <use xlink:href="#DejaVuSerif-62" x="123.064453"/>
       <use xlink:href="#DejaVuSerif-20" x="187.078125"/>
       <use xlink:href="#DejaVuSerif-32" x="218.865234"/>
       <use xlink:href="#DejaVuSerif-30" x="282.488281"/>
       <use xlink:href="#DejaVuSerif-32" x="346.111328"/>
       <use xlink:href="#DejaVuSerif-36" x="409.734375"/>
      </g>
     </g>
    </g>
   </g>
   <g id="matplotlib.axis_2">
    <g id="ytick_1">
     <g id="line2d_25">
      <path d="M 40.690312 153.462872 
L 495.13375 153.462872 
" clip-path="url(#p61553af1d0)" style="fill: none; stroke: #b0b0b0; stroke-opacity: 0.25; stroke-width: 0.5; stroke-linecap: square"/>
     </g>
     <g id="line2d_26">
      <defs>
       <path id="m2066d7fb7c" d="M 0 0 
L -3.5 0 
" style="stroke: #000000; stroke-width: 0.8"/>
      </defs>
      <g>
       <use xlink:href="#m2066d7fb7c" x="40.690312" y="153.462872" style="stroke: #000000; stroke-width: 0.8"/>
      </g>
     </g>
     <g id="text_13">
      <!-- 0 -->
      <g transform="translate(28.600312 156.502247) scale(0.08 -0.08)">
       <use xlink:href="#DejaVuSerif-30"/>
      </g>
     </g>
    </g>
    <g id="ytick_2">
     <g id="line2d_27">
      <path d="M 40.690312 135.118654 
L 495.13375 135.118654 
" clip-path="url(#p61553af1d0)" style="fill: none; stroke: #b0b0b0; stroke-opacity: 0.25; stroke-width: 0.5; stroke-linecap: square"/>
     </g>
     <g id="line2d_28">
      <g>
       <use xlink:href="#m2066d7fb7c" x="40.690312" y="135.118654" style="stroke: #000000; stroke-width: 0.8"/>
      </g>
     </g>
     <g id="text_14">
      <!-- 10 -->
      <g transform="translate(23.510312 138.158029) scale(0.08 -0.08)">
       <defs>
        <path id="DejaVuSerif-31" d="M 909 0 
L 909 331 
L 1722 331 
L 1722 4213 
L 781 3603 
L 781 4013 
L 1919 4750 
L 2350 4750 
L 2350 331 
L 3163 331 
L 3163 0 
L 909 0 
z
" transform="scale(0.015625)"/>
       </defs>
       <use xlink:href="#DejaVuSerif-31"/>
       <use xlink:href="#DejaVuSerif-30" x="63.623047"/>
      </g>
     </g>
    </g>
    <g id="ytick_3">
     <g id="line2d_29">
      <path d="M 40.690312 116.774435 
L 495.13375 116.774435 
" clip-path="url(#p61553af1d0)" style="fill: none; stroke: #b0b0b0; stroke-opacity: 0.25; stroke-width: 0.5; stroke-linecap: square"/>
     </g>
     <g id="line2d_30">
      <g>
       <use xlink:href="#m2066d7fb7c" x="40.690312" y="116.774435" style="stroke: #000000; stroke-width: 0.8"/>
      </g>
     </g>
     <g id="text_15">
      <!-- 20 -->
      <g transform="translate(23.510312 119.81381) scale(0.08 -0.08)">
       <use xlink:href="#DejaVuSerif-32"/>
       <use xlink:href="#DejaVuSerif-30" x="63.623047"/>
      </g>
     </g>
    </g>
    <g id="ytick_4">
     <g id="line2d_31">
      <path d="M 40.690312 98.430217 
L 495.13375 98.430217 
" clip-path="url(#p61553af1d0)" style="fill: none; stroke: #b0b0b0; stroke-opacity: 0.25; stroke-width: 0.5; stroke-linecap: square"/>
     </g>
     <g id="line2d_32">
      <g>
       <use xlink:href="#m2066d7fb7c" x="40.690312" y="98.430217" style="stroke: #000000; stroke-width: 0.8"/>
      </g>
     </g>
     <g id="text_16">
      <!-- 30 -->
      <g transform="translate(23.510312 101.469592) scale(0.08 -0.08)">
       <defs>
        <path id="DejaVuSerif-33" d="M 622 4469 
Q 988 4606 1323 4678 
Q 1659 4750 1953 4750 
Q 2638 4750 3022 4454 
Q 3406 4159 3406 3634 
Q 3406 3213 3140 2930 
Q 2875 2647 2388 2547 
Q 2963 2466 3280 2130 
Q 3597 1794 3597 1259 
Q 3597 606 3158 257 
Q 2719 -91 1894 -91 
Q 1528 -91 1179 -12 
Q 831 66 488 225 
L 488 1131 
L 838 1131 
Q 869 681 1141 450 
Q 1413 219 1906 219 
Q 2384 219 2661 495 
Q 2938 772 2938 1253 
Q 2938 1803 2653 2086 
Q 2369 2369 1819 2369 
L 1522 2369 
L 1522 2688 
L 1678 2688 
Q 2225 2688 2498 2914 
Q 2772 3141 2772 3597 
Q 2772 4006 2547 4223 
Q 2322 4441 1900 4441 
Q 1478 4441 1245 4241 
Q 1013 4041 972 3647 
L 622 3647 
L 622 4469 
z
" transform="scale(0.015625)"/>
       </defs>
       <use xlink:href="#DejaVuSerif-33"/>
       <use xlink:href="#DejaVuSerif-30" x="63.623047"/>
      </g>
     </g>
    </g>
    <g id="ytick_5">
     <g id="line2d_33">
      <path d="M 40.690312 80.085998 
L 495.13375 80.085998 
" clip-path="url(#p61553af1d0)" style="fill: none; stroke: #b0b0b0; stroke-opacity: 0.25; stroke-width: 0.5; stroke-linecap: square"/>
     </g>
     <g id="line2d_34">
      <g>
       <use xlink:href="#m2066d7fb7c" x="40.690312" y="80.085998" style="stroke: #000000; stroke-width: 0.8"/>
      </g>
     </g>
     <g id="text_17">
      <!-- 40 -->
      <g transform="translate(23.510312 83.125373) scale(0.08 -0.08)">
       <use xlink:href="#DejaVuSerif-34"/>
       <use xlink:href="#DejaVuSerif-30" x="63.623047"/>
      </g>
     </g>
    </g>
    <g id="ytick_6">
     <g id="line2d_35">
      <path d="M 40.690312 61.741779 
L 495.13375 61.741779 
" clip-path="url(#p61553af1d0)" style="fill: none; stroke: #b0b0b0; stroke-opacity: 0.25; stroke-width: 0.5; stroke-linecap: square"/>
     </g>
     <g id="line2d_36">
      <g>
       <use xlink:href="#m2066d7fb7c" x="40.690312" y="61.741779" style="stroke: #000000; stroke-width: 0.8"/>
      </g>
     </g>
     <g id="text_18">
      <!-- 50 -->
      <g transform="translate(23.510312 64.781154) scale(0.08 -0.08)">
       <use xlink:href="#DejaVuSerif-35"/>
       <use xlink:href="#DejaVuSerif-30" x="63.623047"/>
      </g>
     </g>
    </g>
    <g id="ytick_7">
     <g id="line2d_37">
      <path d="M 40.690312 43.397561 
L 495.13375 43.397561 
" clip-path="url(#p61553af1d0)" style="fill: none; stroke: #b0b0b0; stroke-opacity: 0.25; stroke-width: 0.5; stroke-linecap: square"/>
     </g>
     <g id="line2d_38">
      <g>
       <use xlink:href="#m2066d7fb7c" x="40.690312" y="43.397561" style="stroke: #000000; stroke-width: 0.8"/>
      </g>
     </g>
     <g id="text_19">
      <!-- 60 -->
      <g transform="translate(23.510312 46.436936) scale(0.08 -0.08)">
       <use xlink:href="#DejaVuSerif-36"/>
       <use xlink:href="#DejaVuSerif-30" x="63.623047"/>
      </g>
     </g>
    </g>
    <g id="text_20">
     <!-- % -->
     <g transform="translate(17.638594 96.641151) rotate(-90) scale(0.09 -0.09)">
      <defs>
       <path id="DejaVuSerif-25" d="M 1434 4459 
Q 1159 4459 1004 4200 
Q 850 3941 850 3475 
Q 850 3016 1008 2753 
Q 1166 2491 1434 2491 
Q 1700 2491 1854 2752 
Q 2009 3013 2009 3475 
Q 2009 3938 1854 4198 
Q 1700 4459 1434 4459 
z
M 4653 2169 
Q 4381 2169 4226 1906 
Q 4072 1644 4072 1178 
Q 4072 719 4228 458 
Q 4384 197 4653 197 
Q 4922 197 5075 458 
Q 5228 719 5228 1178 
Q 5228 1641 5073 1905 
Q 4919 2169 4653 2169 
z
M 4653 2450 
Q 5147 2450 5437 2106 
Q 5728 1763 5728 1178 
Q 5728 594 5436 251 
Q 5144 -91 4653 -91 
Q 4153 -91 3862 251 
Q 3572 594 3572 1178 
Q 3572 1766 3864 2108 
Q 4156 2450 4653 2450 
z
M 4263 4750 
L 4738 4750 
L 1819 -91 
L 1344 -91 
L 4263 4750 
z
M 1428 4750 
Q 1922 4750 2215 4408 
Q 2509 4066 2509 3481 
Q 2509 2891 2217 2550 
Q 1925 2209 1428 2209 
Q 931 2209 642 2551 
Q 353 2894 353 3481 
Q 353 4063 643 4406 
Q 934 4750 1428 4750 
z
" transform="scale(0.015625)"/>
      </defs>
      <use xlink:href="#DejaVuSerif-25"/>
     </g>
    </g>
   </g>
   <g id="line2d_39">
    <path d="M 290.798516 159.572615 
L 290.798516 25.158281 
" clip-path="url(#p61553af1d0)" style="fill: none; stroke-dasharray: 0.8,1.32; stroke-dashoffset: 0; stroke: #888888; stroke-opacity: 0.7; stroke-width: 0.8"/>
   </g>
   <g id="line2d_40">
    <path d="M 434.572589 159.572615 
L 434.572589 25.158281 
" clip-path="url(#p61553af1d0)" style="fill: none; stroke-dasharray: 0.8,1.32; stroke-dashoffset: 0; stroke: #888888; stroke-opacity: 0.7; stroke-width: 0.8"/>
   </g>
   <g id="patch_3">
    <path d="M 40.690312 159.572615 
L 40.690312 25.158281 
" style="fill: none; stroke: #000000; stroke-width: 0.6; stroke-linejoin: miter; stroke-linecap: square"/>
   </g>
   <g id="patch_4">
    <path d="M 40.690313 159.572615 
L 495.13375 159.572615 
" style="fill: none; stroke: #000000; stroke-width: 0.6; stroke-linejoin: miter; stroke-linecap: square"/>
   </g>
   <g id="line2d_41">
    <path d="M 61.346832 137.779564 
L 61.933665 121.633222 
L 62.520498 121.83726 
L 64.280997 123.784951 
L 64.86783 123.856991 
L 65.454663 121.513432 
L 66.041496 124.159057 
L 67.215162 124.813582 
L 67.801995 124.938281 
L 68.388828 124.485932 
L 68.975661 123.636035 
L 69.562494 119.18244 
L 73.083491 65.790544 
L 73.670324 61.796008 
L 74.257157 64.424272 
L 74.84399 68.645798 
L 77.778155 102.268642 
L 78.364988 103.892529 
L 78.951821 103.527508 
L 79.538654 103.977683 
L 80.71232 103.508879 
L 81.299153 103.595589 
L 81.885986 103.883064 
L 82.472819 106.894572 
L 83.059652 110.767803 
L 83.646485 111.50387 
L 84.233317 112.811244 
L 85.406983 114.161055 
L 85.993816 114.327196 
L 86.580649 113.772276 
L 87.167482 112.694462 
L 88.927981 110.698101 
L 89.514814 109.83812 
L 91.275313 108.786927 
L 92.448979 108.257696 
L 93.035812 108.060628 
L 94.209478 106.094485 
L 94.796311 104.713946 
L 95.383144 104.035562 
L 95.969977 103.791865 
L 96.556809 103.28373 
L 97.143642 103.28024 
L 97.730475 104.107751 
L 98.317308 105.253496 
L 98.904141 106.714955 
L 99.490974 107.208496 
L 101.251473 106.762689 
L 101.838306 106.090273 
L 102.425139 104.692929 
L 103.011972 103.661903 
L 104.772471 101.921956 
L 105.359304 100.586867 
L 105.946137 98.607471 
L 107.119803 92.907701 
L 109.467134 82.172238 
L 110.053967 80.802317 
L 110.6408 80.169248 
L 111.227633 78.939504 
L 111.814466 78.645469 
L 112.401299 78.614045 
L 112.988132 77.841267 
L 113.574965 77.629463 
L 114.161798 77.255254 
L 115.335464 77.153751 
L 115.922297 76.454875 
L 116.50913 75.449684 
L 117.095963 75.6642 
L 117.682796 74.444353 
L 118.269629 73.872114 
L 118.856462 73.594162 
L 119.443295 72.482233 
L 120.030128 70.722846 
L 120.61696 69.692099 
L 121.203793 67.8929 
L 121.790626 67.608137 
L 122.377459 67.626642 
L 122.964292 66.781146 
L 123.551125 67.488808 
L 124.724791 70.485191 
L 125.311624 71.938838 
L 125.898457 72.7868 
L 126.48529 72.268234 
L 127.072123 72.94856 
L 127.658956 72.990106 
L 128.245789 72.526816 
L 128.832622 71.521677 
L 129.419455 70.844208 
L 130.006288 69.907692 
L 130.593121 69.492801 
L 131.179954 69.756798 
L 132.353619 73.448067 
L 132.940452 75.376478 
L 133.527285 75.582804 
L 134.114118 77.232369 
L 134.700951 79.445149 
L 135.287784 80.372392 
L 135.874617 79.103145 
L 136.46145 78.245021 
L 137.048283 77.166618 
L 137.635116 77.7365 
L 138.221949 77.366809 
L 139.395615 74.913397 
L 140.569281 74.388132 
L 141.156114 74.323521 
L 142.32978 74.88568 
L 143.503446 77.716041 
L 144.090279 78.518304 
L 144.677111 78.183509 
L 145.263944 78.825964 
L 146.43761 79.361286 
L 147.024443 78.106336 
L 147.611276 77.669535 
L 148.198109 77.704905 
L 148.784942 78.577301 
L 149.371775 78.940159 
L 149.958608 78.659912 
L 150.545441 78.071903 
L 151.132274 78.542988 
L 152.30594 80.098078 
L 152.892773 80.544759 
L 153.479606 80.215466 
L 154.066439 80.197923 
L 154.653272 81.350883 
L 155.240105 81.49086 
L 155.826938 80.699263 
L 157.587436 80.103599 
L 158.174269 80.814363 
L 158.761102 81.028408 
L 159.347935 82.044736 
L 160.521601 81.446956 
L 161.108434 81.998295 
L 161.695267 83.618235 
L 162.2821 84.197228 
L 162.868933 84.460161 
L 163.455766 85.240184 
L 164.042599 87.442332 
L 164.629432 88.731196 
L 165.216265 89.095892 
L 165.803098 88.73561 
L 166.389931 88.808045 
L 166.976764 89.038129 
L 167.563597 88.659406 
L 168.15043 87.731682 
L 168.737262 87.439289 
L 169.324095 87.461866 
L 169.910928 87.64453 
L 170.497761 87.556702 
L 171.084594 87.789222 
L 172.25826 89.44062 
L 172.845093 89.372291 
L 173.431926 88.551729 
L 174.018759 87.456549 
L 174.605592 87.095937 
L 175.779258 85.95219 
L 176.366091 85.942072 
L 177.539757 86.859328 
L 178.12659 87.435529 
L 179.300256 87.946898 
L 179.887089 87.948543 
L 181.060754 86.176813 
L 181.647587 86.135316 
L 182.23442 86.635269 
L 182.821253 87.385796 
L 183.408086 87.860895 
L 183.994919 87.759633 
L 184.581752 88.042013 
L 185.168585 86.981597 
L 185.755418 86.408046 
L 186.342251 85.469165 
L 188.689583 77.679718 
L 189.863249 76.564801 
L 190.450082 77.456634 
L 191.623748 78.662488 
L 192.210581 78.203568 
L 192.797413 77.894104 
L 193.384246 77.800044 
L 193.971079 76.520074 
L 194.557912 73.535599 
L 195.731578 70.003979 
L 196.318411 69.181947 
L 198.07891 65.873063 
L 198.665743 64.983306 
L 199.252576 62.910648 
L 199.839409 62.06221 
L 200.426242 61.83529 
L 201.599908 62.125029 
L 202.186741 62.39595 
L 202.773574 62.098025 
L 203.360407 62.068935 
L 203.94724 61.856308 
L 204.534073 62.254596 
L 205.120905 62.409308 
L 205.707738 62.298271 
L 206.294571 61.791277 
L 206.881404 61.742557 
L 208.05507 62.085364 
L 209.228736 61.815294 
L 209.815569 61.603673 
L 210.989235 61.91767 
L 211.576068 61.715944 
L 213.336567 61.573672 
L 213.9234 61.668403 
L 214.510233 62.481938 
L 215.097066 62.178712 
L 215.683899 62.495532 
L 216.270732 62.329479 
L 216.857564 62.576668 
L 217.444397 62.146027 
L 218.03123 62.216562 
L 218.618063 61.466451 
L 219.204896 61.769822 
L 219.791729 61.703464 
L 220.378562 61.792744 
L 220.965395 61.449726 
L 221.552228 62.121971 
L 222.139061 61.845838 
L 224.486393 61.716981 
L 225.073226 62.076576 
L 225.660059 61.576686 
L 226.246892 61.838775 
L 226.833725 61.923512 
L 227.420558 61.847964 
L 228.007391 62.077384 
L 229.181056 61.671873 
L 229.767889 61.81415 
L 232.115221 61.510335 
L 235.049386 62.526968 
L 235.636219 62.420221 
L 236.223052 63.254189 
L 237.396718 62.603976 
L 238.570384 62.224728 
L 239.157217 62.178388 
L 239.74405 62.2461 
L 240.330883 61.507758 
L 240.917715 61.900337 
L 241.504548 61.693552 
L 242.091381 61.747183 
L 243.265047 61.63494 
L 244.438713 61.794216 
L 245.025546 61.611384 
L 245.612379 61.756022 
L 246.199212 61.717009 
L 246.786045 61.83161 
L 247.372878 61.726208 
L 248.546544 61.800555 
L 249.133377 61.679438 
L 251.480709 61.941593 
L 252.654375 61.641518 
L 253.241207 61.831313 
L 253.82804 61.745893 
L 254.414873 61.898252 
L 255.588539 61.804353 
L 256.762205 62.022159 
L 259.109537 61.775278 
L 259.69637 61.941445 
L 260.283203 62.348567 
L 262.630535 62.479339 
L 263.217368 62.36743 
L 264.391034 61.827906 
L 264.977866 62.014532 
L 265.564699 61.736341 
L 266.151532 61.879673 
L 266.738365 61.838874 
L 267.325198 62.170411 
L 267.912031 62.204043 
L 268.498864 62.733331 
L 269.085697 62.724696 
L 269.67253 63.042126 
L 270.259363 62.976215 
L 270.846196 63.287194 
L 271.433029 63.060143 
L 272.019862 62.984225 
L 273.193528 62.062123 
L 274.367194 62.08046 
L 274.954027 61.846894 
L 276.127693 62.034097 
L 277.888191 61.906614 
L 279.061857 62.553591 
L 280.235523 63.359479 
L 280.822356 63.545967 
L 281.409189 64.901797 
L 281.996022 65.521707 
L 282.582855 65.463254 
L 283.169688 65.219517 
L 283.756521 64.510883 
L 284.930187 63.852584 
L 285.51702 62.84169 
L 286.103853 62.308997 
L 286.690686 62.228553 
L 287.277519 62.644091 
L 287.864352 62.851529 
L 288.451185 63.652886 
L 289.038017 64.962408 
L 289.62485 65.374904 
L 290.211683 65.57224 
L 291.972182 77.90805 
L 294.319514 92.548152 
L 294.906347 92.653927 
L 295.49318 92.601956 
L 296.080013 92.429767 
L 296.666846 92.519045 
L 297.253679 92.790209 
L 297.840512 92.880435 
L 298.427345 93.142041 
L 299.014178 92.811719 
L 299.601011 93.071781 
L 300.774677 93.040462 
L 301.361509 92.737233 
L 301.948342 92.212116 
L 302.535175 92.127623 
L 303.122008 92.354628 
L 303.708841 92.151382 
L 304.882507 92.439178 
L 305.46934 92.193556 
L 306.643006 92.593527 
L 307.229839 92.548193 
L 307.816672 92.236544 
L 308.403505 90.841602 
L 310.164004 85.891646 
L 311.33767 80.715029 
L 311.924503 78.860015 
L 312.511336 78.431838 
L 313.098169 78.230885 
L 313.685001 78.665101 
L 314.271834 78.949157 
L 314.858667 80.170078 
L 315.4455 80.547714 
L 316.032333 79.71002 
L 317.205999 77.47834 
L 317.792832 75.80354 
L 318.966498 73.780878 
L 319.553331 73.502478 
L 320.140164 72.811462 
L 320.726997 72.432702 
L 321.31383 71.790815 
L 321.900663 72.769831 
L 322.487496 73.97919 
L 323.074329 74.928763 
L 323.661162 73.738623 
L 324.247995 74.53404 
L 324.834828 74.669664 
L 325.42166 74.963168 
L 326.008493 74.912207 
L 326.595326 73.35105 
L 327.182159 72.143467 
L 327.768992 71.922973 
L 328.355825 71.284092 
L 328.942658 70.364235 
L 329.529491 69.850942 
L 330.116324 68.357603 
L 330.703157 68.720417 
L 331.28999 67.607053 
L 331.876823 67.943773 
L 332.463656 67.833228 
L 333.050489 69.717668 
L 333.637322 70.31337 
L 334.224155 71.068877 
L 334.810988 70.897086 
L 335.984654 73.254355 
L 336.571487 74.380596 
L 337.15832 73.881577 
L 337.745152 74.931322 
L 338.918818 76.163568 
L 339.505651 75.884603 
L 340.092484 75.266396 
L 340.679317 74.849288 
L 341.26615 75.09913 
L 343.026649 73.595897 
L 344.200315 75.380872 
L 344.787148 75.891514 
L 345.373981 74.745869 
L 347.13448 73.214943 
L 348.894979 70.076581 
L 349.481811 69.82173 
L 350.068644 68.952541 
L 350.655477 68.355241 
L 351.829143 66.184507 
L 352.415976 64.21772 
L 353.002809 63.617836 
L 353.589642 63.431126 
L 355.350141 64.084625 
L 355.936974 63.975459 
L 357.11064 66.616503 
L 357.697473 67.470874 
L 358.284306 67.52882 
L 358.871139 67.857712 
L 360.044805 70.321448 
L 360.631638 70.835658 
L 361.218471 70.278457 
L 361.805303 70.121021 
L 362.392136 69.767084 
L 362.978969 68.999031 
L 363.565802 68.039775 
L 364.152635 67.929076 
L 364.739468 68.159229 
L 365.326301 68.508793 
L 365.913134 68.015687 
L 367.0868 70.112225 
L 367.673633 70.3035 
L 369.434132 69.253153 
L 370.020965 70.113817 
L 371.194631 69.559183 
L 371.781464 69.592439 
L 372.95513 67.933541 
L 374.128795 65.263974 
L 374.715628 64.584096 
L 375.302461 64.346133 
L 375.889294 65.077524 
L 376.476127 66.469642 
L 377.06296 67.049067 
L 377.649793 68.006762 
L 378.236626 68.255889 
L 379.410292 68.322724 
L 379.997125 66.50905 
L 380.583958 64.062575 
L 381.170791 62.665484 
L 381.757624 60.868473 
L 383.518123 57.183663 
L 384.691789 56.232545 
L 385.278622 55.874123 
L 385.865454 55.161437 
L 386.452287 54.258703 
L 387.03912 54.057043 
L 387.625953 53.194256 
L 388.212786 51.18332 
L 388.799619 50.008293 
L 389.386452 47.832838 
L 391.733784 41.106958 
L 392.320617 41.653555 
L 392.90745 42.468172 
L 393.494283 43.697392 
L 394.081116 44.032097 
L 394.667949 45.212207 
L 395.254782 45.647543 
L 395.841615 45.274113 
L 396.428448 43.568601 
L 397.015281 41.476143 
L 397.602113 39.999694 
L 398.188946 40.285979 
L 398.775779 39.388847 
L 399.362612 38.932085 
L 399.949445 39.639968 
L 401.123111 42.249795 
L 401.709944 42.956243 
L 402.296777 43.958791 
L 402.88361 45.541047 
L 403.470443 45.957939 
L 404.057276 46.915631 
L 404.644109 48.236723 
L 405.230942 50.026984 
L 405.817775 51.019773 
L 407.578274 51.362357 
L 408.165107 50.782033 
L 408.75194 49.673697 
L 409.925605 46.635533 
L 410.512438 46.038051 
L 411.099271 44.404007 
L 411.686104 44.981631 
L 412.272937 44.700345 
L 412.85977 44.818979 
L 413.446603 44.405892 
L 414.033436 45.082085 
L 414.620269 46.04591 
L 415.207102 47.83838 
L 415.793935 46.79068 
L 416.380768 47.360992 
L 416.967601 46.855379 
L 418.141267 45.45888 
L 418.7281 43.67253 
L 419.314933 40.758739 
L 420.488599 38.85995 
L 421.075432 37.638936 
L 421.662264 37.891436 
L 422.249097 37.918575 
L 422.83593 37.046048 
L 423.422763 37.703249 
L 424.009596 37.471137 
L 424.596429 37.798411 
L 425.183262 39.486713 
L 425.770095 38.996504 
L 426.356928 39.091338 
L 426.943761 40.154548 
L 427.530594 40.684368 
L 428.70426 45.470998 
L 429.877926 48.604045 
L 430.464759 48.247885 
L 431.051592 47.280833 
L 432.225258 46.83356 
L 432.812091 45.539769 
L 433.398924 44.570589 
L 433.985756 45.337066 
L 435.746255 68.648365 
L 438.093587 93.011 
L 438.68042 93.203054 
L 439.854086 90.404228 
L 441.027752 91.759199 
L 441.614585 92.443691 
L 442.201418 92.88064 
L 442.788251 93.603655 
L 443.961917 99.31769 
L 444.54875 100.54789 
L 445.135583 100.873262 
L 445.722415 101.329454 
L 446.309248 101.958896 
L 446.896081 101.943631 
L 448.069747 102.991506 
L 448.65658 102.499363 
L 451.590745 96.139702 
L 452.177578 93.956701 
L 452.764411 92.958724 
L 453.351244 92.955452 
L 454.52491 94.089366 
L 455.111743 92.980525 
L 456.872242 97.275532 
L 457.459075 96.862289 
L 458.045907 97.516738 
L 458.63274 98.563441 
L 459.219573 100.240766 
L 459.806406 98.909855 
L 460.393239 96.677246 
L 460.980072 95.193492 
L 461.566905 95.665581 
L 462.740571 94.184238 
L 463.914237 94.523812 
L 464.50107 95.212524 
L 465.087903 95.476696 
L 465.674736 94.710384 
L 466.261569 94.455523 
L 467.435235 93.576327 
L 468.022068 93.613483 
L 468.608901 91.562384 
L 469.195734 90.973062 
L 469.782567 91.616094 
L 470.369399 91.926446 
L 470.956232 92.365898 
L 471.543065 93.281808 
L 472.129898 93.718632 
L 472.716731 96.684537 
L 473.303564 98.256361 
L 473.890397 99.014739 
L 474.47723 99.09434 
L 474.47723 99.09434 
" clip-path="url(#p61553af1d0)" style="fill: none; stroke: #cc3333; stroke-width: 1.5; stroke-linecap: square"/>
   </g>
   <g id="text_21">
    <!-- Pectra -->
    <g style="fill: #888888" transform="translate(289.550704 51.108198) rotate(-90) scale(0.06 -0.06)">
     <defs>
      <path id="DejaVuSerif-50" d="M 1581 2375 
L 2406 2375 
Q 2872 2375 3115 2626 
Q 3359 2878 3359 3353 
Q 3359 3831 3115 4081 
Q 2872 4331 2406 4331 
L 1581 4331 
L 1581 2375 
z
M 353 0 
L 353 331 
L 947 331 
L 947 4331 
L 353 4331 
L 353 4666 
L 2559 4666 
Q 3259 4666 3668 4311 
Q 4078 3956 4078 3353 
Q 4078 2753 3668 2397 
Q 3259 2041 2559 2041 
L 1581 2041 
L 1581 331 
L 2303 331 
L 2303 0 
L 353 0 
z
" transform="scale(0.015625)"/>
      <path id="DejaVuSerif-61" d="M 2547 1044 
L 2547 1747 
L 1806 1747 
Q 1378 1747 1168 1562 
Q 959 1378 959 997 
Q 959 650 1171 447 
Q 1384 244 1747 244 
Q 2106 244 2326 466 
Q 2547 688 2547 1044 
z
M 3122 2075 
L 3122 331 
L 3634 331 
L 3634 0 
L 2547 0 
L 2547 359 
Q 2356 128 2106 18 
Q 1856 -91 1522 -91 
Q 969 -91 644 203 
Q 319 497 319 997 
Q 319 1513 691 1797 
Q 1063 2081 1741 2081 
L 2547 2081 
L 2547 2309 
Q 2547 2688 2317 2895 
Q 2088 3103 1672 3103 
Q 1328 3103 1125 2947 
Q 922 2791 872 2484 
L 575 2484 
L 575 3156 
Q 875 3284 1158 3348 
Q 1441 3413 1709 3413 
Q 2400 3413 2761 3070 
Q 3122 2728 3122 2075 
z
" transform="scale(0.015625)"/>
     </defs>
     <use xlink:href="#DejaVuSerif-50"/>
     <use xlink:href="#DejaVuSerif-65" x="62.785156"/>
     <use xlink:href="#DejaVuSerif-63" x="121.964844"/>
     <use xlink:href="#DejaVuSerif-74" x="177.970703"/>
     <use xlink:href="#DejaVuSerif-72" x="218.15625"/>
     <use xlink:href="#DejaVuSerif-61" x="265.958984"/>
    </g>
   </g>
   <g id="text_22">
    <!-- BPO1 -->
    <g style="fill: #888888" transform="translate(433.324777 48.756011) rotate(-90) scale(0.06 -0.06)">
     <defs>
      <path id="DejaVuSerif-42" d="M 1581 331 
L 2516 331 
Q 3078 331 3337 575 
Q 3597 819 3597 1350 
Q 3597 1878 3339 2120 
Q 3081 2363 2516 2363 
L 1581 2363 
L 1581 331 
z
M 1581 2694 
L 2375 2694 
Q 2888 2694 3123 2891 
Q 3359 3088 3359 3513 
Q 3359 3941 3123 4136 
Q 2888 4331 2375 4331 
L 1581 4331 
L 1581 2694 
z
M 353 0 
L 353 331 
L 947 331 
L 947 4331 
L 353 4331 
L 353 4666 
L 2656 4666 
Q 3363 4666 3720 4377 
Q 4078 4088 4078 3513 
Q 4078 3097 3829 2850 
Q 3581 2603 3103 2547 
Q 3697 2472 4005 2167 
Q 4313 1863 4313 1350 
Q 4313 656 3875 328 
Q 3438 0 2509 0 
L 353 0 
z
" transform="scale(0.015625)"/>
     </defs>
     <use xlink:href="#DejaVuSerif-42"/>
     <use xlink:href="#DejaVuSerif-50" x="73.486328"/>
     <use xlink:href="#DejaVuSerif-4f" x="140.771484"/>
     <use xlink:href="#DejaVuSerif-31" x="222.753906"/>
    </g>
   </g>
   <g id="text_23">
    <!-- Ethereum  DA Utilization (%) -->
    <g transform="translate(180.732734 19.158281) scale(0.11 -0.11)">
     <defs>
      <path id="DejaVuSerif-45" d="M 353 0 
L 353 331 
L 947 331 
L 947 4331 
L 353 4331 
L 353 4666 
L 4109 4666 
L 4109 3628 
L 3725 3628 
L 3725 4281 
L 1581 4281 
L 1581 2719 
L 3109 2719 
L 3109 3303 
L 3494 3303 
L 3494 1753 
L 3109 1753 
L 3109 2338 
L 1581 2338 
L 1581 384 
L 3775 384 
L 3775 1038 
L 4159 1038 
L 4159 0 
L 353 0 
z
" transform="scale(0.015625)"/>
      <path id="DejaVuSerif-68" d="M 263 0 
L 263 331 
L 781 331 
L 781 4531 
L 231 4531 
L 231 4863 
L 1356 4863 
L 1356 2731 
Q 1516 3069 1770 3241 
Q 2025 3413 2363 3413 
Q 2913 3413 3172 3097 
Q 3431 2781 3431 2113 
L 3431 331 
L 3944 331 
L 3944 0 
L 2356 0 
L 2356 331 
L 2853 331 
L 2853 1931 
Q 2853 2541 2704 2764 
Q 2556 2988 2175 2988 
Q 1775 2988 1565 2697 
Q 1356 2406 1356 1850 
L 1356 331 
L 1856 331 
L 1856 0 
L 263 0 
z
" transform="scale(0.015625)"/>
      <path id="DejaVuSerif-6d" d="M 3316 2675 
Q 3481 3041 3739 3227 
Q 3997 3413 4341 3413 
Q 4863 3413 5119 3089 
Q 5375 2766 5375 2113 
L 5375 331 
L 5894 331 
L 5894 0 
L 4300 0 
L 4300 331 
L 4800 331 
L 4800 2047 
Q 4800 2556 4650 2772 
Q 4500 2988 4153 2988 
Q 3769 2988 3567 2697 
Q 3366 2406 3366 1850 
L 3366 331 
L 3866 331 
L 3866 0 
L 2291 0 
L 2291 331 
L 2791 331 
L 2791 2069 
Q 2791 2566 2641 2777 
Q 2491 2988 2144 2988 
Q 1759 2988 1557 2697 
Q 1356 2406 1356 1850 
L 1356 331 
L 1856 331 
L 1856 0 
L 263 0 
L 263 331 
L 781 331 
L 781 2994 
L 231 2994 
L 231 3322 
L 1356 3322 
L 1356 2731 
Q 1516 3063 1762 3238 
Q 2009 3413 2322 3413 
Q 2709 3413 2968 3220 
Q 3228 3028 3316 2675 
z
" transform="scale(0.015625)"/>
      <path id="DejaVuSerif-2014" d="M 281 1906 
L 6119 1906 
L 6119 1491 
L 281 1491 
L 281 1906 
z
" transform="scale(0.015625)"/>
      <path id="DejaVuSerif-55" d="M 897 4331 
L 300 4331 
L 300 4666 
L 2125 4666 
L 2125 4331 
L 1528 4331 
L 1528 1919 
Q 1528 1025 1820 672 
Q 2113 319 2828 319 
Q 3544 319 3836 672 
Q 4128 1025 4128 1919 
L 4128 4331 
L 3531 4331 
L 3531 4666 
L 5106 4666 
L 5106 4331 
L 4513 4331 
L 4513 1856 
Q 4513 791 4103 350 
Q 3694 -91 2713 -91 
Q 1731 -91 1314 353 
Q 897 797 897 1856 
L 897 4331 
z
" transform="scale(0.015625)"/>
      <path id="DejaVuSerif-69" d="M 622 4353 
Q 622 4497 726 4603 
Q 831 4709 978 4709 
Q 1122 4709 1226 4603 
Q 1331 4497 1331 4353 
Q 1331 4206 1228 4103 
Q 1125 4000 978 4000 
Q 831 4000 726 4103 
Q 622 4206 622 4353 
z
M 1356 331 
L 1900 331 
L 1900 0 
L 231 0 
L 231 331 
L 781 331 
L 781 2988 
L 231 2988 
L 231 3322 
L 1356 3322 
L 1356 331 
z
" transform="scale(0.015625)"/>
      <path id="DejaVuSerif-6c" d="M 1313 331 
L 1856 331 
L 1856 0 
L 184 0 
L 184 331 
L 738 331 
L 738 4531 
L 184 4531 
L 184 4863 
L 1313 4863 
L 1313 331 
z
" transform="scale(0.015625)"/>
      <path id="DejaVuSerif-7a" d="M 256 0 
L 256 269 
L 2338 2988 
L 691 2988 
L 691 2413 
L 359 2413 
L 359 3322 
L 3078 3322 
L 3078 3053 
L 997 331 
L 2803 331 
L 2803 934 
L 3138 934 
L 3138 0 
L 256 0 
z
" transform="scale(0.015625)"/>
      <path id="DejaVuSerif-6f" d="M 1925 219 
Q 2388 219 2623 584 
Q 2859 950 2859 1663 
Q 2859 2375 2623 2739 
Q 2388 3103 1925 3103 
Q 1463 3103 1227 2739 
Q 991 2375 991 1663 
Q 991 950 1228 584 
Q 1466 219 1925 219 
z
M 1925 -91 
Q 1200 -91 759 389 
Q 319 869 319 1663 
Q 319 2456 758 2934 
Q 1197 3413 1925 3413 
Q 2653 3413 3092 2934 
Q 3531 2456 3531 1663 
Q 3531 869 3092 389 
Q 2653 -91 1925 -91 
z
" transform="scale(0.015625)"/>
      <path id="DejaVuSerif-28" d="M 2041 -997 
Q 1281 -656 893 83 
Q 506 822 506 1931 
Q 506 3044 893 3783 
Q 1281 4522 2041 4863 
L 2041 4556 
Q 1559 4225 1350 3623 
Q 1141 3022 1141 1931 
Q 1141 844 1350 242 
Q 1559 -359 2041 -691 
L 2041 -997 
z
" transform="scale(0.015625)"/>
      <path id="DejaVuSerif-29" d="M 453 -997 
L 453 -691 
Q 934 -359 1145 242 
Q 1356 844 1356 1931 
Q 1356 3022 1145 3623 
Q 934 4225 453 4556 
L 453 4863 
Q 1216 4522 1603 3783 
Q 1991 3044 1991 1931 
Q 1991 822 1603 83 
Q 1216 -656 453 -997 
z
" transform="scale(0.015625)"/>
     </defs>
     <use xlink:href="#DejaVuSerif-45"/>
     <use xlink:href="#DejaVuSerif-74" x="72.998047"/>
     <use xlink:href="#DejaVuSerif-68" x="113.183594"/>
     <use xlink:href="#DejaVuSerif-65" x="177.587891"/>
     <use xlink:href="#DejaVuSerif-72" x="236.767578"/>
     <use xlink:href="#DejaVuSerif-65" x="284.570312"/>
     <use xlink:href="#DejaVuSerif-75" x="343.75"/>
     <use xlink:href="#DejaVuSerif-6d" x="408.154297"/>
     <use xlink:href="#DejaVuSerif-20" x="502.978516"/>
     <use xlink:href="#DejaVuSerif-2014" x="534.765625"/>
     <use xlink:href="#DejaVuSerif-20" x="634.765625"/>
     <use xlink:href="#DejaVuSerif-44" x="666.552734"/>
     <use xlink:href="#DejaVuSerif-41" x="746.728516"/>
     <use xlink:href="#DejaVuSerif-20" x="818.945312"/>
     <use xlink:href="#DejaVuSerif-55" x="850.732422"/>
     <use xlink:href="#DejaVuSerif-74" x="935.009766"/>
     <use xlink:href="#DejaVuSerif-69" x="975.195312"/>
     <use xlink:href="#DejaVuSerif-6c" x="1007.177734"/>
     <use xlink:href="#DejaVuSerif-69" x="1039.160156"/>
     <use xlink:href="#DejaVuSerif-7a" x="1071.142578"/>
     <use xlink:href="#DejaVuSerif-61" x="1123.828125"/>
     <use xlink:href="#DejaVuSerif-74" x="1183.447266"/>
     <use xlink:href="#DejaVuSerif-69" x="1223.632812"/>
     <use xlink:href="#DejaVuSerif-6f" x="1255.615234"/>
     <use xlink:href="#DejaVuSerif-6e" x="1315.820312"/>
     <use xlink:href="#DejaVuSerif-20" x="1380.224609"/>
     <use xlink:href="#DejaVuSerif-28" x="1412.011719"/>
     <use xlink:href="#DejaVuSerif-25" x="1451.025391"/>
     <use xlink:href="#DejaVuSerif-29" x="1546.044922"/>
    </g>
   </g>
   <g id="legend_1">
    <g id="patch_5">
     <path d="M 421.5725 55.157031 
L 489.53375 55.157031 
Q 491.13375 55.157031 491.13375 53.557031 
L 491.13375 30.758281 
Q 491.13375 29.158281 489.53375 29.158281 
L 421.5725 29.158281 
Q 419.9725 29.158281 419.9725 30.758281 
L 419.9725 53.557031 
Q 419.9725 55.157031 421.5725 55.157031 
z
" style="fill: #ffffff; opacity: 0.9; stroke: #cccccc; stroke-linejoin: miter"/>
    </g>
    <g id="patch_6">
     <path d="M 423.1725 38.437031 
L 439.1725 38.437031 
L 439.1725 32.837031 
L 423.1725 32.837031 
z
" style="fill: #b3cde3; fill-opacity: 0.6; stroke: #b3cde3; stroke-opacity: 0.6; stroke-linejoin: miter"/>
    </g>
    <g id="text_24">
     <!-- Utilization -->
     <g transform="translate(445.5725 38.437031) scale(0.08 -0.08)">
      <use xlink:href="#DejaVuSerif-55"/>
      <use xlink:href="#DejaVuSerif-74" x="84.277344"/>
      <use xlink:href="#DejaVuSerif-69" x="124.462891"/>
      <use xlink:href="#DejaVuSerif-6c" x="156.445312"/>
      <use xlink:href="#DejaVuSerif-69" x="188.427734"/>
      <use xlink:href="#DejaVuSerif-7a" x="220.410156"/>
      <use xlink:href="#DejaVuSerif-61" x="273.095703"/>
      <use xlink:href="#DejaVuSerif-74" x="332.714844"/>
      <use xlink:href="#DejaVuSerif-69" x="372.900391"/>
      <use xlink:href="#DejaVuSerif-6f" x="404.882812"/>
      <use xlink:href="#DejaVuSerif-6e" x="465.087891"/>
     </g>
    </g>
    <g id="line2d_42">
     <path d="M 423.1725 47.379531 
L 431.1725 47.379531 
L 439.1725 47.379531 
" style="fill: none; stroke: #cc3333; stroke-width: 1.5; stroke-linecap: square"/>
    </g>
    <g id="text_25">
     <!-- 7d avg -->
     <g transform="translate(445.5725 50.179531) scale(0.08 -0.08)">
      <defs>
       <path id="DejaVuSerif-37" d="M 3609 4347 
L 1784 0 
L 1319 0 
L 3059 4153 
L 903 4153 
L 903 3578 
L 538 3578 
L 538 4666 
L 3609 4666 
L 3609 4347 
z
" transform="scale(0.015625)"/>
       <path id="DejaVuSerif-64" d="M 3359 331 
L 3909 331 
L 3909 0 
L 2784 0 
L 2784 519 
Q 2616 206 2355 57 
Q 2094 -91 1709 -91 
Q 1097 -91 708 395 
Q 319 881 319 1663 
Q 319 2444 706 2928 
Q 1094 3413 1709 3413 
Q 2094 3413 2355 3264 
Q 2616 3116 2784 2803 
L 2784 4531 
L 2241 4531 
L 2241 4863 
L 3359 4863 
L 3359 331 
z
M 2784 1497 
L 2784 1825 
Q 2784 2422 2554 2737 
Q 2325 3053 1888 3053 
Q 1444 3053 1217 2703 
Q 991 2353 991 1663 
Q 991 975 1217 622 
Q 1444 269 1888 269 
Q 2325 269 2554 583 
Q 2784 897 2784 1497 
z
" transform="scale(0.015625)"/>
       <path id="DejaVuSerif-76" d="M 1581 0 
L 359 2988 
L -19 2988 
L -19 3322 
L 1509 3322 
L 1509 2988 
L 978 2988 
L 1913 703 
L 2847 2988 
L 2350 2988 
L 2350 3322 
L 3597 3322 
L 3597 2988 
L 3225 2988 
L 2003 0 
L 1581 0 
z
" transform="scale(0.015625)"/>
      </defs>
      <use xlink:href="#DejaVuSerif-37"/>
      <use xlink:href="#DejaVuSerif-64" x="63.623047"/>
      <use xlink:href="#DejaVuSerif-20" x="127.636719"/>
      <use xlink:href="#DejaVuSerif-61" x="159.423828"/>
      <use xlink:href="#DejaVuSerif-76" x="219.042969"/>
      <use xlink:href="#DejaVuSerif-67" x="275.537109"/>
     </g>
    </g>
   </g>
  </g>
 </g>
 <defs>
  <clipPath id="p61553af1d0">
   <rect x="40.690312" y="25.158281" width="454.443438" height="134.414334"/>
  </clipPath>
 </defs>
</svg>
