<?xml version="1.0" encoding="utf-8" standalone="no"?>
<!DOCTYPE svg PUBLIC "-//W3C//DTD SVG 1.1//EN"
  "http://www.w3.org/Graphics/SVG/1.1/DTD/svg11.dtd">
<svg xmlns:xlink="http://www.w3.org/1999/xlink" width="506.510313pt" height="203.293937pt" viewBox="0 0 506.510313 203.293937" xmlns="http://www.w3.org/2000/svg" version="1.1">
 <metadata>
  <rdf:RDF xmlns:dc="http://purl.org/dc/elements/1.1/" xmlns:cc="http://creativecommons.org/ns#" xmlns:rdf="http://www.w3.org/1999/02/22-rdf-syntax-ns#">
   <cc:Work>
    <dc:type rdf:resource="http://purl.org/dc/dcmitype/StillImage"/>
    <dc:date>2026-02-16T16:57:27.398571</dc:date>
    <dc:format>image/svg+xml</dc:format>
    <dc:creator>
     <cc:Agent>
      <dc:title>Matplotlib v3.10.8, https://matplotlib.org/</dc:title>
     </cc:Agent>
    </dc:creator>
   </cc:Work>
  </rdf:RDF>
 </metadata>
 <defs>
  <style type="text/css">*{stroke-linejoin: round; stroke-linecap: butt}</style>
 </defs>
 <g id="figure_1">
  <g id="patch_1">
   <path d="M 0 203.293937 
L 506.510313 203.293937 
L 506.510313 0 
L 0 0 
z
" style="fill: #ffffff"/>
  </g>
  <g id="axes_1">
   <g id="patch_2">
    <path d="M 40.690312 159.31186 
L 495.710313 159.31186 
L 495.710313 25.158281 
L 40.690312 25.158281 
z
" style="fill: #ffffff"/>
   </g>
   <g id="FillBetweenPolyCollection_1">
    <defs>
     <path id="m5f17c5ae8b" d="M 61.37304 -65.73285 
L 61.37304 -50.079967 
L 61.960617 -50.079967 
L 62.548195 -50.079967 
L 63.135772 -50.079967 
L 63.72335 -50.079967 
L 64.310927 -50.079967 
L 64.898505 -50.079967 
L 65.486082 -50.079967 
L 66.07366 -50.079967 
L 66.661237 -50.079967 
L 67.248815 -50.079967 
L 67.836392 -50.079967 
L 68.42397 -50.079967 
L 69.011547 -50.079967 
L 69.599124 -50.079967 
L 70.186702 -50.079967 
L 70.774279 -50.079967 
L 71.361857 -50.079967 
L 71.949434 -50.079967 
L 72.537012 -50.079967 
L 73.124589 -50.079967 
L 73.712167 -50.079967 
L 74.299744 -50.079967 
L 74.887322 -50.079967 
L 75.474899 -50.079967 
L 76.062477 -50.079967 
L 76.650054 -50.079967 
L 77.237632 -50.079967 
L 77.825209 -50.079967 
L 78.412787 -50.079967 
L 79.000364 -50.079967 
L 79.587942 -50.079967 
L 80.175519 -50.079967 
L 80.763097 -50.079967 
L 81.350674 -50.079967 
L 81.938252 -50.079967 
L 82.525829 -50.079967 
L 83.113407 -50.079967 
L 83.700984 -50.079967 
L 84.288561 -50.079967 
L 84.876139 -50.079967 
L 85.463716 -50.079967 
L 86.051294 -50.079967 
L 86.638871 -50.079967 
L 87.226449 -50.079967 
L 87.814026 -50.079967 
L 88.401604 -50.079967 
L 88.989181 -50.079967 
L 89.576759 -50.079967 
L 90.164336 -50.079967 
L 90.751914 -50.079967 
L 91.339491 -50.079967 
L 91.927069 -50.079967 
L 92.514646 -50.079967 
L 93.102224 -50.079967 
L 93.689801 -50.079967 
L 94.277379 -50.079967 
L 94.864956 -50.079967 
L 95.452534 -50.079967 
L 96.040111 -50.079967 
L 96.627689 -50.079967 
L 97.215266 -50.079967 
L 97.802843 -50.079967 
L 98.390421 -50.079967 
L 98.977998 -50.079967 
L 99.565576 -50.079967 
L 100.153153 -50.079967 
L 100.740731 -50.079967 
L 101.328308 -50.079967 
L 101.915886 -50.079967 
L 102.503463 -50.079967 
L 103.091041 -50.079967 
L 103.678618 -50.079967 
L 104.266196 -50.079967 
L 104.853773 -50.079967 
L 105.441351 -50.079967 
L 106.028928 -50.079967 
L 106.616506 -50.079967 
L 107.204083 -50.079967 
L 107.791661 -50.079967 
L 108.379238 -50.079967 
L 108.966816 -50.079967 
L 109.554393 -50.079967 
L 110.141971 -50.079967 
L 110.729548 -50.079967 
L 111.317126 -50.079967 
L 111.904703 -50.079967 
L 112.49228 -50.079967 
L 113.079858 -50.079967 
L 113.667435 -50.079967 
L 114.255013 -50.079967 
L 114.84259 -50.079967 
L 115.430168 -50.079967 
L 116.017745 -50.079967 
L 116.605323 -50.079967 
L 117.1929 -50.079967 
L 117.780478 -50.079967 
L 118.368055 -50.079967 
L 118.955633 -50.079967 
L 119.54321 -50.079967 
L 120.130788 -50.079967 
L 120.718365 -50.079967 
L 121.305943 -50.079967 
L 121.89352 -50.079967 
L 122.481098 -50.079967 
L 123.068675 -50.079967 
L 123.656253 -50.079967 
L 124.24383 -50.079967 
L 124.831408 -50.079967 
L 125.418985 -50.079967 
L 126.006563 -50.079967 
L 126.59414 -50.079967 
L 127.181717 -50.079967 
L 127.769295 -50.079967 
L 128.356872 -50.079967 
L 128.94445 -50.079967 
L 129.532027 -50.079967 
L 130.119605 -50.079967 
L 130.707182 -50.079967 
L 131.29476 -50.079967 
L 131.882337 -50.079967 
L 132.469915 -50.079967 
L 133.057492 -50.079967 
L 133.64507 -50.079967 
L 134.232647 -50.079967 
L 134.820225 -50.079967 
L 135.407802 -50.079967 
L 135.99538 -50.079967 
L 136.582957 -50.079967 
L 137.170535 -50.079967 
L 137.758112 -50.079967 
L 138.34569 -50.079967 
L 138.933267 -50.079967 
L 139.520845 -50.079967 
L 140.108422 -50.079967 
L 140.695999 -50.079967 
L 141.283577 -50.079967 
L 141.871154 -50.079967 
L 142.458732 -50.079967 
L 143.046309 -50.079967 
L 143.633887 -50.079967 
L 144.221464 -50.079967 
L 144.809042 -50.079967 
L 145.396619 -50.079967 
L 145.984197 -50.079967 
L 146.571774 -50.079967 
L 147.159352 -50.079967 
L 147.746929 -50.079967 
L 148.334507 -50.079967 
L 148.922084 -50.079967 
L 149.509662 -50.079967 
L 150.097239 -50.079967 
L 150.684817 -50.079967 
L 151.272394 -50.079967 
L 151.859972 -50.079967 
L 152.447549 -50.079967 
L 153.035127 -50.079967 
L 153.622704 -50.079967 
L 154.210282 -50.079967 
L 154.797859 -50.079967 
L 155.385436 -50.079967 
L 155.973014 -50.079967 
L 156.560591 -50.079967 
L 157.148169 -50.079967 
L 157.735746 -50.079967 
L 158.323324 -50.079967 
L 158.910901 -50.079967 
L 159.498479 -50.079967 
L 160.086056 -50.079967 
L 160.673634 -50.079967 
L 161.261211 -50.079967 
L 161.848789 -50.079967 
L 162.436366 -50.079967 
L 163.023944 -50.079967 
L 163.611521 -50.079967 
L 164.199099 -50.079967 
L 164.786676 -50.079967 
L 165.374254 -50.079967 
L 165.961831 -50.079967 
L 166.549409 -50.079967 
L 167.136986 -50.079967 
L 167.724564 -50.079967 
L 168.312141 -50.079967 
L 168.899718 -50.079967 
L 169.487296 -50.079967 
L 170.074873 -50.079967 
L 170.662451 -50.079967 
L 171.250028 -50.079967 
L 171.837606 -50.079967 
L 172.425183 -50.079967 
L 173.012761 -50.079967 
L 173.600338 -50.079967 
L 174.187916 -50.079967 
L 174.775493 -50.079967 
L 175.363071 -50.079967 
L 175.950648 -50.079967 
L 176.538226 -50.079967 
L 177.125803 -50.079967 
L 177.713381 -50.079967 
L 178.300958 -50.079967 
L 178.888536 -50.079967 
L 179.476113 -50.079967 
L 180.063691 -50.079967 
L 180.651268 -50.079967 
L 181.238846 -50.079967 
L 181.826423 -50.079967 
L 182.414001 -50.079967 
L 183.001578 -50.079967 
L 183.589155 -50.079967 
L 184.176733 -50.079967 
L 184.76431 -50.079967 
L 185.351888 -50.079967 
L 185.939465 -50.079967 
L 186.527043 -50.079967 
L 187.11462 -50.079967 
L 187.702198 -50.079967 
L 188.289775 -50.079967 
L 188.877353 -50.079967 
L 189.46493 -50.079967 
L 190.052508 -50.079967 
L 190.640085 -50.079967 
L 191.227663 -50.079967 
L 191.81524 -50.079967 
L 192.402818 -50.079967 
L 192.990395 -50.079967 
L 193.577973 -50.079967 
L 194.16555 -50.079967 
L 194.753128 -50.079967 
L 195.340705 -50.079967 
L 195.928283 -50.079967 
L 196.51586 -50.079967 
L 197.103438 -50.079967 
L 197.691015 -50.079967 
L 198.278592 -50.079967 
L 198.86617 -50.079967 
L 199.453747 -50.079967 
L 200.041325 -50.079967 
L 200.628902 -50.079967 
L 201.21648 -50.079967 
L 201.804057 -50.079967 
L 202.391635 -50.079967 
L 202.979212 -50.079967 
L 203.56679 -50.079967 
L 204.154367 -50.079967 
L 204.741945 -50.079967 
L 205.329522 -50.079967 
L 205.9171 -50.079967 
L 206.504677 -50.079967 
L 207.092255 -50.079967 
L 207.679832 -50.079967 
L 208.26741 -50.079967 
L 208.854987 -50.079967 
L 209.442565 -50.079967 
L 210.030142 -50.079967 
L 210.61772 -50.079967 
L 211.205297 -50.079967 
L 211.792874 -50.079967 
L 212.380452 -50.079967 
L 212.968029 -50.079967 
L 213.555607 -50.079967 
L 214.143184 -50.079967 
L 214.730762 -50.079967 
L 215.318339 -50.079967 
L 215.905917 -50.079967 
L 216.493494 -50.079967 
L 217.081072 -50.079967 
L 217.668649 -50.079967 
L 218.256227 -50.079967 
L 218.843804 -50.079967 
L 219.431382 -50.079967 
L 220.018959 -50.079967 
L 220.606537 -50.079967 
L 221.194114 -50.079967 
L 221.781692 -50.079967 
L 222.369269 -50.079967 
L 222.956847 -50.079967 
L 223.544424 -50.079967 
L 224.132002 -50.079967 
L 224.719579 -50.079967 
L 225.307157 -50.079967 
L 225.894734 -50.079967 
L 226.482311 -50.079967 
L 227.069889 -50.079967 
L 227.657466 -50.079967 
L 228.245044 -50.079967 
L 228.832621 -50.079967 
L 229.420199 -50.079967 
L 230.007776 -50.079967 
L 230.595354 -50.079967 
L 231.182931 -50.079967 
L 231.770509 -50.079967 
L 232.358086 -50.079967 
L 232.945664 -50.079967 
L 233.533241 -50.079967 
L 234.120819 -50.079967 
L 234.708396 -50.079967 
L 235.295974 -50.079967 
L 235.883551 -50.079967 
L 236.471129 -50.079967 
L 237.058706 -50.079967 
L 237.646284 -50.079967 
L 238.233861 -50.079967 
L 238.821439 -50.079967 
L 239.409016 -50.079967 
L 239.996593 -50.079967 
L 240.584171 -50.079967 
L 241.171748 -50.079967 
L 241.759326 -50.079967 
L 242.346903 -50.079967 
L 242.934481 -50.079967 
L 243.522058 -50.079967 
L 244.109636 -50.079967 
L 244.697213 -50.079967 
L 245.284791 -50.079967 
L 245.872368 -50.079967 
L 246.459946 -50.079967 
L 247.047523 -50.079967 
L 247.635101 -50.079967 
L 248.222678 -50.079967 
L 248.810256 -50.079967 
L 249.397833 -50.079967 
L 249.985411 -50.079967 
L 250.572988 -50.079967 
L 251.160566 -50.079967 
L 251.748143 -50.079967 
L 252.335721 -50.079967 
L 252.923298 -50.079967 
L 253.510876 -50.079967 
L 254.098453 -50.079967 
L 254.68603 -50.079967 
L 255.273608 -50.079967 
L 255.861185 -50.079967 
L 256.448763 -50.079967 
L 257.03634 -50.079967 
L 257.623918 -50.079967 
L 258.211495 -50.079967 
L 258.799073 -50.079967 
L 259.38665 -50.079967 
L 259.974228 -50.079967 
L 260.561805 -50.079967 
L 261.149383 -50.079967 
L 261.73696 -50.079967 
L 262.324538 -50.079967 
L 262.912115 -50.079967 
L 263.499693 -50.079967 
L 264.08727 -50.079967 
L 264.674848 -50.079967 
L 265.262425 -50.079967 
L 265.850003 -50.079967 
L 266.43758 -50.079967 
L 267.025158 -50.079967 
L 267.612735 -50.079967 
L 268.200313 -50.079967 
L 268.78789 -50.079967 
L 269.375467 -50.079967 
L 269.963045 -50.079967 
L 270.550622 -50.079967 
L 271.1382 -50.079967 
L 271.725777 -50.079967 
L 272.313355 -50.079967 
L 272.900932 -50.079967 
L 273.48851 -50.079967 
L 274.076087 -50.079967 
L 274.663665 -50.079967 
L 275.251242 -50.079967 
L 275.83882 -50.079967 
L 276.426397 -50.079967 
L 277.013975 -50.079967 
L 277.601552 -50.079967 
L 278.18913 -50.079967 
L 278.776707 -50.079967 
L 279.364285 -50.079967 
L 279.951862 -50.079967 
L 280.53944 -50.079967 
L 281.127017 -50.079967 
L 281.714595 -50.079967 
L 282.302172 -50.079967 
L 282.889749 -50.079967 
L 283.477327 -50.079967 
L 284.064904 -50.079967 
L 284.652482 -50.079967 
L 285.240059 -50.079967 
L 285.827637 -50.079967 
L 286.415214 -50.079967 
L 287.002792 -50.079967 
L 287.590369 -50.079967 
L 288.177947 -50.079967 
L 288.765524 -50.079967 
L 289.353102 -50.079967 
L 289.940679 -50.079967 
L 290.528257 -50.079967 
L 291.115834 -50.079967 
L 291.703412 -50.079967 
L 292.290989 -50.079967 
L 292.878567 -50.079967 
L 293.466144 -50.079967 
L 294.053722 -50.079967 
L 294.641299 -50.079967 
L 295.228877 -50.079967 
L 295.816454 -50.079967 
L 296.404032 -50.079967 
L 296.991609 -50.079967 
L 297.579186 -50.079967 
L 298.166764 -50.079967 
L 298.754341 -50.079967 
L 299.341919 -50.079967 
L 299.929496 -50.079967 
L 300.517074 -50.079967 
L 301.104651 -50.079967 
L 301.692229 -50.079967 
L 302.279806 -50.079967 
L 302.867384 -50.079967 
L 303.454961 -50.079967 
L 304.042539 -50.079967 
L 304.630116 -50.079967 
L 305.217694 -50.079967 
L 305.805271 -50.079967 
L 306.392849 -50.079967 
L 306.980426 -50.079967 
L 307.568004 -50.079967 
L 308.155581 -50.079967 
L 308.743159 -50.079967 
L 309.330736 -50.079967 
L 309.918314 -50.079967 
L 310.505891 -50.079967 
L 311.093468 -50.079967 
L 311.681046 -50.079967 
L 312.268623 -50.079967 
L 312.856201 -50.079967 
L 313.443778 -50.079967 
L 314.031356 -50.079967 
L 314.618933 -50.079967 
L 315.206511 -50.079967 
L 315.794088 -50.079967 
L 316.381666 -50.079967 
L 316.969243 -50.079967 
L 317.556821 -50.079967 
L 318.144398 -50.079967 
L 318.731976 -50.079967 
L 319.319553 -50.079967 
L 319.907131 -50.079967 
L 320.494708 -50.079967 
L 321.082286 -50.079967 
L 321.669863 -50.079967 
L 322.257441 -50.079967 
L 322.845018 -50.079967 
L 323.432596 -50.079967 
L 324.020173 -50.079967 
L 324.607751 -50.079967 
L 325.195328 -50.079967 
L 325.782905 -50.079967 
L 326.370483 -50.079967 
L 326.95806 -50.079967 
L 327.545638 -50.079967 
L 328.133215 -50.079967 
L 328.720793 -50.079967 
L 329.30837 -50.079967 
L 329.895948 -50.079967 
L 330.483525 -50.079967 
L 331.071103 -50.079967 
L 331.65868 -50.079967 
L 332.246258 -50.079967 
L 332.833835 -50.079967 
L 333.421413 -50.079967 
L 334.00899 -50.079967 
L 334.596568 -50.079967 
L 335.184145 -50.079967 
L 335.771723 -50.079967 
L 336.3593 -50.079967 
L 336.946878 -50.079967 
L 337.534455 -50.079967 
L 338.122033 -50.079967 
L 338.70961 -50.079967 
L 339.297188 -50.079967 
L 339.884765 -50.079967 
L 340.472342 -50.079967 
L 341.05992 -50.079967 
L 341.647497 -50.079967 
L 342.235075 -50.079967 
L 342.822652 -50.079967 
L 343.41023 -50.079967 
L 343.997807 -50.079967 
L 344.585385 -50.079967 
L 345.172962 -50.079967 
L 345.76054 -50.079967 
L 346.348117 -50.079967 
L 346.935695 -50.079967 
L 347.523272 -50.079967 
L 348.11085 -50.079967 
L 348.698427 -50.079967 
L 349.286005 -50.079967 
L 349.873582 -50.079967 
L 350.46116 -50.079967 
L 351.048737 -50.079967 
L 351.636315 -50.079967 
L 352.223892 -50.079967 
L 352.81147 -50.079967 
L 353.399047 -50.079967 
L 353.986624 -50.079967 
L 354.574202 -50.079967 
L 355.161779 -50.079967 
L 355.749357 -50.079967 
L 356.336934 -50.079967 
L 356.924512 -50.079967 
L 357.512089 -50.079967 
L 358.099667 -50.079967 
L 358.687244 -50.079967 
L 359.274822 -50.079967 
L 359.862399 -50.079967 
L 360.449977 -50.079967 
L 361.037554 -50.079967 
L 361.625132 -50.079967 
L 362.212709 -50.079967 
L 362.800287 -50.079967 
L 363.387864 -50.079967 
L 363.975442 -50.079967 
L 364.563019 -50.079967 
L 365.150597 -50.079967 
L 365.738174 -50.079967 
L 366.325752 -50.079967 
L 366.913329 -50.079967 
L 367.500907 -50.079967 
L 368.088484 -50.079967 
L 368.676061 -50.079967 
L 369.263639 -50.079967 
L 369.851216 -50.079967 
L 370.438794 -50.079967 
L 371.026371 -50.079967 
L 371.613949 -50.079967 
L 372.201526 -50.079967 
L 372.789104 -50.079967 
L 373.376681 -50.079967 
L 373.964259 -50.079967 
L 374.551836 -50.079967 
L 375.139414 -50.079967 
L 375.726991 -50.079967 
L 376.314569 -50.079967 
L 376.902146 -50.079967 
L 377.489724 -50.079967 
L 378.077301 -50.079967 
L 378.664879 -50.079967 
L 379.252456 -50.079967 
L 379.840034 -50.079967 
L 380.427611 -50.079967 
L 381.015189 -50.079967 
L 381.602766 -50.079967 
L 382.190343 -50.079967 
L 382.777921 -50.079967 
L 383.365498 -50.079967 
L 383.953076 -50.079967 
L 384.540653 -50.079967 
L 385.128231 -50.079967 
L 385.715808 -50.079967 
L 386.303386 -50.079967 
L 386.890963 -50.079967 
L 387.478541 -50.079967 
L 388.066118 -50.079967 
L 388.653696 -50.079967 
L 389.241273 -50.079967 
L 389.828851 -50.079967 
L 390.416428 -50.079967 
L 391.004006 -50.079967 
L 391.591583 -50.079967 
L 392.179161 -50.079967 
L 392.766738 -50.079967 
L 393.354316 -50.079967 
L 393.941893 -50.079967 
L 394.529471 -50.079967 
L 395.117048 -50.079967 
L 395.704626 -50.079967 
L 396.292203 -50.079967 
L 396.87978 -50.079967 
L 397.467358 -50.079967 
L 398.054935 -50.079967 
L 398.642513 -50.079967 
L 399.23009 -50.079967 
L 399.817668 -50.079967 
L 400.405245 -50.079967 
L 400.992823 -50.079967 
L 401.5804 -50.079967 
L 402.167978 -50.079967 
L 402.755555 -50.079967 
L 403.343133 -50.079967 
L 403.93071 -50.079967 
L 404.518288 -50.079967 
L 405.105865 -50.079967 
L 405.693443 -50.079967 
L 406.28102 -50.079967 
L 406.868598 -50.079967 
L 407.456175 -50.079967 
L 408.043753 -50.079967 
L 408.63133 -50.079967 
L 409.218908 -50.079967 
L 409.806485 -50.079967 
L 410.394063 -50.079967 
L 410.98164 -50.079967 
L 411.569217 -50.079967 
L 412.156795 -50.079967 
L 412.744372 -50.079967 
L 413.33195 -50.079967 
L 413.919527 -50.079967 
L 414.507105 -50.079967 
L 415.094682 -50.079967 
L 415.68226 -50.079967 
L 416.269837 -50.079967 
L 416.857415 -50.079967 
L 417.444992 -50.079967 
L 418.03257 -50.079967 
L 418.620147 -50.079967 
L 419.207725 -50.079967 
L 419.795302 -50.079967 
L 420.38288 -50.079967 
L 420.970457 -50.079967 
L 421.558035 -50.079967 
L 422.145612 -50.079967 
L 422.73319 -50.079967 
L 423.320767 -50.079967 
L 423.908345 -50.079967 
L 424.495922 -50.079967 
L 425.083499 -50.079967 
L 425.671077 -50.079967 
L 426.258654 -50.079967 
L 426.846232 -50.079967 
L 427.433809 -50.079967 
L 428.021387 -50.079967 
L 428.608964 -50.079967 
L 429.196542 -50.079967 
L 429.784119 -50.079967 
L 430.371697 -50.079967 
L 430.959274 -50.079967 
L 431.546852 -50.079967 
L 432.134429 -50.079967 
L 432.722007 -50.079967 
L 433.309584 -50.079967 
L 433.897162 -50.079967 
L 434.484739 -50.079967 
L 435.072317 -50.079967 
L 435.659894 -50.079967 
L 436.247472 -50.079967 
L 436.835049 -50.079967 
L 437.422627 -50.079967 
L 438.010204 -50.079967 
L 438.597782 -50.079967 
L 439.185359 -50.079967 
L 439.772936 -50.079967 
L 440.360514 -50.079967 
L 440.948091 -50.079967 
L 441.535669 -50.079967 
L 442.123246 -50.079967 
L 442.710824 -50.079967 
L 443.298401 -50.079967 
L 443.885979 -50.079967 
L 444.473556 -50.079967 
L 445.061134 -50.079967 
L 445.648711 -50.079967 
L 446.236289 -50.079967 
L 446.823866 -50.079967 
L 447.411444 -50.079967 
L 447.999021 -50.079967 
L 448.586599 -50.079967 
L 449.174176 -50.079967 
L 449.761754 -50.079967 
L 450.349331 -50.079967 
L 450.936909 -50.079967 
L 451.524486 -50.079967 
L 452.112064 -50.079967 
L 452.699641 -50.079967 
L 453.287218 -50.079967 
L 453.874796 -50.079967 
L 454.462373 -50.079967 
L 455.049951 -50.079967 
L 455.637528 -50.079967 
L 456.225106 -50.079967 
L 456.812683 -50.079967 
L 457.400261 -50.079967 
L 457.987838 -50.079967 
L 458.575416 -50.079967 
L 459.162993 -50.079967 
L 459.750571 -50.079967 
L 460.338148 -50.079967 
L 460.925726 -50.079967 
L 461.513303 -50.079967 
L 462.100881 -50.079967 
L 462.688458 -50.079967 
L 463.276036 -50.079967 
L 463.863613 -50.079967 
L 464.451191 -50.079967 
L 465.038768 -50.079967 
L 465.626346 -50.079967 
L 466.213923 -50.079967 
L 466.801501 -50.079967 
L 467.389078 -50.079967 
L 467.976655 -50.079967 
L 468.564233 -50.079967 
L 469.15181 -50.079967 
L 469.739388 -50.079967 
L 470.326965 -50.079967 
L 470.914543 -50.079967 
L 471.50212 -50.079967 
L 472.089698 -50.079967 
L 472.677275 -50.079967 
L 473.264853 -50.079967 
L 473.85243 -50.079967 
L 474.440008 -50.079967 
L 475.027585 -50.079967 
L 475.027585 -104.193053 
L 475.027585 -104.193053 
L 474.440008 -101.036823 
L 473.85243 -102.97157 
L 473.264853 -105.488677 
L 472.677275 -106.512409 
L 472.089698 -103.961994 
L 471.50212 -106.236667 
L 470.914543 -104.74918 
L 470.326965 -106.335169 
L 469.739388 -113.952998 
L 469.15181 -126.209734 
L 468.564233 -109.564248 
L 467.976655 -110.360926 
L 467.389078 -109.306857 
L 466.801501 -106.917433 
L 466.213923 -110.827659 
L 465.626346 -109.835747 
L 465.038768 -111.879899 
L 464.451191 -109.823834 
L 463.863613 -107.697257 
L 463.276036 -105.828091 
L 462.688458 -105.13687 
L 462.100881 -105.473875 
L 461.513303 -111.681364 
L 460.925726 -116.691534 
L 460.338148 -111.050885 
L 459.750571 -108.842614 
L 459.162993 -100.827255 
L 458.575416 -99.788421 
L 457.987838 -108.772084 
L 457.400261 -101.315237 
L 456.812683 -101.093587 
L 456.225106 -101.752585 
L 455.637528 -120.561112 
L 455.049951 -108.139957 
L 454.462373 -104.360677 
L 453.874796 -105.884997 
L 453.287218 -110.547282 
L 452.699641 -112.046857 
L 452.112064 -111.573997 
L 451.524486 -112.814281 
L 450.936909 -111.599492 
L 450.349331 -108.823139 
L 449.761754 -105.862138 
L 449.174176 -103.574996 
L 448.586599 -96.795493 
L 447.999021 -101.675163 
L 447.411444 -105.559272 
L 446.823866 -103.595409 
L 446.236289 -98.361718 
L 445.648711 -97.05022 
L 445.061134 -100.136682 
L 444.473556 -100.183226 
L 443.885979 -105.608322 
L 443.298401 -105.452623 
L 442.710824 -107.992958 
L 442.123246 -101.548869 
L 441.535669 -99.323404 
L 440.948091 -108.731372 
L 440.360514 -121.547177 
L 439.772936 -124.165029 
L 439.185359 -110.503904 
L 438.597782 -111.045666 
L 438.010204 -106.33102 
L 437.422627 -104.526168 
L 436.835049 -112.995006 
L 436.247472 -112.540786 
L 435.659894 -113.617644 
L 435.072317 -111.845678 
L 434.484739 -150.763881 
L 433.897162 -149.978409 
L 433.309584 -149.234201 
L 432.722007 -155.128976 
L 432.134429 -165.001703 
L 431.546852 -169.56776 
L 430.959274 -166.297181 
L 430.371697 -156.118813 
L 429.784119 -143.207312 
L 429.196542 -140.195229 
L 428.608964 -153.261106 
L 428.021387 -163.744738 
L 427.433809 -162.811531 
L 426.846232 -163.808895 
L 426.258654 -166.6946 
L 425.671077 -154.520313 
L 425.083499 -156.891063 
L 424.495922 -170.006677 
L 423.908345 -167.446285 
L 423.320767 -170.239565 
L 422.73319 -164.471443 
L 422.145612 -163.269792 
L 421.558035 -166.315503 
L 420.970457 -159.177538 
L 420.38288 -168.385046 
L 419.795302 -172.037766 
L 419.207725 -164.14372 
L 418.620147 -164.661054 
L 418.03257 -165.033861 
L 417.444992 -157.784987 
L 416.857415 -152.061885 
L 416.269837 -162.234957 
L 415.68226 -151.680799 
L 415.094682 -151.663528 
L 414.507105 -159.687712 
L 413.919527 -160.250674 
L 413.33195 -154.252562 
L 412.744372 -156.046326 
L 412.156795 -154.915282 
L 411.569217 -164.203745 
L 410.98164 -158.397217 
L 410.394063 -164.411883 
L 409.806485 -157.364676 
L 409.218908 -155.081388 
L 408.63133 -154.081142 
L 408.043753 -158.950807 
L 407.456175 -152.787623 
L 406.868598 -154.222956 
L 406.28102 -153.368438 
L 405.693443 -147.182232 
L 405.105865 -147.338087 
L 404.518288 -150.026753 
L 403.93071 -158.794489 
L 403.343133 -154.319289 
L 402.755555 -155.241047 
L 402.167978 -160.304476 
L 401.5804 -159.689751 
L 400.992823 -156.567789 
L 400.405245 -156.717594 
L 399.817668 -161.707069 
L 399.23009 -165.373598 
L 398.642513 -162.245268 
L 398.054935 -165.240018 
L 397.467358 -168.544574 
L 396.87978 -165.946312 
L 396.292203 -161.663169 
L 395.704626 -158.515932 
L 395.117048 -159.105861 
L 394.529471 -164.245371 
L 393.941893 -154.924926 
L 393.354316 -153.92578 
L 392.766738 -154.030888 
L 392.179161 -159.054232 
L 391.591583 -161.55737 
L 391.004006 -167.350608 
L 390.416428 -166.583762 
L 389.828851 -163.512772 
L 389.241273 -159.61704 
L 388.653696 -157.849641 
L 388.066118 -148.603208 
L 387.478541 -149.163279 
L 386.890963 -154.76689 
L 386.303386 -155.022769 
L 385.715808 -148.314131 
L 385.128231 -151.407809 
L 384.540653 -143.800396 
L 383.953076 -142.575415 
L 383.365498 -147.754396 
L 382.777921 -148.46001 
L 382.190343 -150.043647 
L 381.602766 -145.810041 
L 381.015189 -148.489823 
L 380.427611 -140.073474 
L 379.840034 -134.35251 
L 379.252456 -139.07245 
L 378.664879 -139.621229 
L 378.077301 -137.488975 
L 377.489724 -136.049371 
L 376.902146 -131.39772 
L 376.314569 -127.402389 
L 375.726991 -134.861996 
L 375.139414 -139.029901 
L 374.551836 -141.361737 
L 373.964259 -144.179834 
L 373.376681 -140.097479 
L 372.789104 -141.123635 
L 372.201526 -132.512196 
L 371.613949 -133.199485 
L 371.026371 -134.279986 
L 370.438794 -131.849598 
L 369.851216 -135.041259 
L 369.263639 -134.337548 
L 368.676061 -135.293807 
L 368.088484 -132.744539 
L 367.500907 -131.707265 
L 366.913329 -131.897296 
L 366.325752 -137.862561 
L 365.738174 -132.976319 
L 365.150597 -131.553876 
L 364.563019 -132.804253 
L 363.975442 -134.080868 
L 363.387864 -138.385074 
L 362.800287 -139.866781 
L 362.212709 -134.417512 
L 361.625132 -135.418521 
L 361.037554 -133.161823 
L 360.449977 -132.030863 
L 359.862399 -127.379107 
L 359.274822 -133.019131 
L 358.687244 -137.39403 
L 358.099667 -133.317596 
L 357.512089 -131.52568 
L 356.924512 -136.754309 
L 356.336934 -140.400958 
L 355.749357 -136.22171 
L 355.161779 -135.316906 
L 354.574202 -137.798862 
L 353.986624 -139.286593 
L 353.399047 -140.151372 
L 352.81147 -146.58006 
L 352.223892 -139.638278 
L 351.636315 -138.720445 
L 351.048737 -136.010893 
L 350.46116 -139.171762 
L 349.873582 -137.982157 
L 349.286005 -135.960327 
L 348.698427 -132.839263 
L 348.11085 -131.519815 
L 347.523272 -131.673247 
L 346.935695 -131.837905 
L 346.348117 -133.099245 
L 345.76054 -136.201659 
L 345.172962 -128.137112 
L 344.585385 -125.580945 
L 343.997807 -124.675427 
L 343.41023 -127.324486 
L 342.822652 -128.949716 
L 342.235075 -129.640503 
L 341.647497 -128.197707 
L 341.05992 -131.704672 
L 340.472342 -131.28949 
L 339.884765 -131.437463 
L 339.297188 -124.320245 
L 338.70961 -125.301346 
L 338.122033 -125.790901 
L 337.534455 -129.943203 
L 336.946878 -128.790584 
L 336.3593 -126.970432 
L 335.771723 -129.488501 
L 335.184145 -128.874628 
L 334.596568 -129.355951 
L 334.00899 -133.124855 
L 333.421413 -126.456852 
L 332.833835 -136.658976 
L 332.246258 -134.412345 
L 331.65868 -138.515457 
L 331.071103 -127.674426 
L 330.483525 -134.634243 
L 329.895948 -137.286677 
L 329.30837 -139.622346 
L 328.720793 -135.886655 
L 328.133215 -136.764818 
L 327.545638 -130.737029 
L 326.95806 -130.209197 
L 326.370483 -124.201143 
L 325.782905 -133.700603 
L 325.195328 -133.195832 
L 324.607751 -131.423169 
L 324.020173 -135.224352 
L 323.432596 -122.300345 
L 322.845018 -119.302299 
L 322.257441 -123.845106 
L 321.669863 -135.751148 
L 321.082286 -134.143357 
L 320.494708 -136.980284 
L 319.907131 -126.909539 
L 319.319553 -128.934456 
L 318.731976 -127.751396 
L 318.144398 -130.684921 
L 317.556821 -131.266651 
L 316.969243 -131.497181 
L 316.381666 -132.152555 
L 315.794088 -124.964523 
L 315.206511 -121.257352 
L 314.618933 -121.297336 
L 314.031356 -118.984065 
L 313.443778 -123.517638 
L 312.856201 -123.654735 
L 312.268623 -126.300071 
L 311.681046 -127.602849 
L 311.093468 -129.787218 
L 310.505891 -123.281873 
L 309.918314 -122.01768 
L 309.330736 -122.113693 
L 308.743159 -120.663315 
L 308.155581 -113.340161 
L 307.568004 -111.362884 
L 306.980426 -109.861162 
L 306.392849 -110.703764 
L 305.805271 -112.158753 
L 305.217694 -109.968256 
L 304.630116 -110.91766 
L 304.042539 -111.162851 
L 303.454961 -111.046164 
L 302.867384 -111.10874 
L 302.279806 -112.250551 
L 301.692229 -110.442735 
L 301.104651 -111.304427 
L 300.517074 -111.592148 
L 299.929496 -109.742891 
L 299.341919 -112.632119 
L 298.754341 -110.518432 
L 298.166764 -108.581863 
L 297.579186 -108.324254 
L 296.991609 -111.043475 
L 296.404032 -111.634287 
L 295.816454 -111.559797 
L 295.228877 -110.324352 
L 294.641299 -112.346117 
L 294.053722 -109.212222 
L 293.466144 -110.21872 
L 292.878567 -111.667207 
L 292.290989 -110.431304 
L 291.703412 -111.196707 
L 291.115834 -111.063338 
L 290.528257 -140.129416 
L 289.940679 -137.332774 
L 289.353102 -132.090315 
L 288.765524 -136.173674 
L 288.177947 -140.697932 
L 287.590369 -137.954591 
L 287.002792 -140.221978 
L 286.415214 -141.508091 
L 285.827637 -140.21464 
L 285.240059 -141.239191 
L 284.652482 -141.772289 
L 284.064904 -142.14718 
L 283.477327 -140.857716 
L 282.889749 -139.659964 
L 282.302172 -137.786473 
L 281.714595 -133.152109 
L 281.127017 -138.630435 
L 280.53944 -139.781888 
L 279.951862 -137.196368 
L 279.364285 -139.154863 
L 278.776707 -139.251587 
L 278.18913 -142.117425 
L 277.601552 -142.624507 
L 277.013975 -139.933322 
L 276.426397 -142.211253 
L 275.83882 -140.397273 
L 275.251242 -141.576247 
L 274.663665 -141.350258 
L 274.076087 -141.635918 
L 273.48851 -142.577767 
L 272.900932 -139.570915 
L 272.313355 -142.659899 
L 271.725777 -141.256511 
L 271.1382 -139.944452 
L 270.550622 -141.227113 
L 269.963045 -141.887173 
L 269.375467 -139.683275 
L 268.78789 -136.02322 
L 268.200313 -142.129502 
L 267.612735 -139.67024 
L 267.025158 -142.11708 
L 266.43758 -140.766628 
L 265.850003 -144.104873 
L 265.262425 -139.622953 
L 264.674848 -139.721042 
L 264.08727 -142.364471 
L 263.499693 -141.986495 
L 262.912115 -141.832042 
L 262.324538 -141.768007 
L 261.73696 -142.161315 
L 261.149383 -140.926803 
L 260.561805 -137.990156 
L 259.974228 -140.326009 
L 259.38665 -141.204654 
L 258.799073 -141.888656 
L 258.211495 -141.763746 
L 257.623918 -142.671233 
L 257.03634 -141.278163 
L 256.448763 -140.834476 
L 255.861185 -141.486921 
L 255.273608 -141.763648 
L 254.68603 -140.094213 
L 254.098453 -141.862021 
L 253.510876 -142.083593 
L 252.923298 -141.934498 
L 252.335721 -141.699828 
L 251.748143 -141.469638 
L 251.160566 -141.124915 
L 250.572988 -141.158657 
L 249.985411 -141.265237 
L 249.397833 -143.409584 
L 248.810256 -140.749827 
L 248.222678 -140.78805 
L 247.635101 -142.461762 
L 247.047523 -140.877835 
L 246.459946 -141.772165 
L 245.872368 -141.738211 
L 245.284791 -142.563406 
L 244.697213 -141.017953 
L 244.109636 -141.039344 
L 243.522058 -141.725381 
L 242.934481 -141.678484 
L 242.346903 -141.499604 
L 241.759326 -142.74871 
L 241.171748 -141.286069 
L 240.584171 -141.312537 
L 239.996593 -141.857525 
L 239.409016 -141.665757 
L 238.821439 -140.953933 
L 238.233861 -141.874292 
L 237.646284 -141.304028 
L 237.058706 -144.02879 
L 236.471129 -136.154171 
L 235.883551 -142.330583 
L 235.295974 -141.342006 
L 234.708396 -139.581462 
L 234.120819 -140.597183 
L 233.533241 -139.230929 
L 232.945664 -141.559227 
L 232.358086 -141.980618 
L 231.770509 -141.584803 
L 231.182931 -141.554919 
L 230.595354 -142.08385 
L 230.007776 -141.661483 
L 229.420199 -140.978427 
L 228.832621 -143.134755 
L 228.245044 -140.680877 
L 227.657466 -141.567561 
L 227.069889 -141.235629 
L 226.482311 -141.597546 
L 225.894734 -142.655488 
L 225.307157 -139.793115 
L 224.719579 -141.486997 
L 224.132002 -142.283704 
L 223.544424 -141.039751 
L 222.956847 -141.827636 
L 222.369269 -143.428611 
L 221.781692 -139.163046 
L 221.194114 -142.305394 
L 220.606537 -142.023065 
L 220.018959 -141.095403 
L 219.431382 -141.16667 
L 218.843804 -141.452703 
L 218.256227 -141.499431 
L 217.668649 -143.859627 
L 217.081072 -139.908931 
L 216.493494 -142.646813 
L 215.905917 -140.631792 
L 215.318339 -143.286152 
L 214.730762 -136.212108 
L 214.143184 -141.992218 
L 213.555607 -140.850989 
L 212.968029 -141.6359 
L 212.380452 -141.486693 
L 211.792874 -142.845235 
L 211.205297 -141.167688 
L 210.61772 -141.895805 
L 210.030142 -142.654047 
L 209.442565 -140.877314 
L 208.854987 -141.16388 
L 208.26741 -140.938414 
L 207.679832 -141.435896 
L 207.092255 -141.989027 
L 206.504677 -143.268176 
L 205.9171 -141.175577 
L 205.329522 -139.749773 
L 204.741945 -140.404597 
L 204.154367 -141.801897 
L 203.56679 -142.967411 
L 202.979212 -141.648648 
L 202.391635 -139.726102 
L 201.804057 -140.399824 
L 201.21648 -140.830656 
L 200.628902 -143.187202 
L 200.041325 -140.316401 
L 199.453747 -142.76417 
L 198.86617 -139.567223 
L 198.278592 -141.618871 
L 197.691015 -141.648648 
L 197.103438 -141.60607 
L 196.51586 -141.601842 
L 195.928283 -134.388856 
L 195.340705 -128.283713 
L 194.753128 -133.351001 
L 194.16555 -135.295572 
L 193.577973 -132.922357 
L 192.990395 -133.538409 
L 192.402818 -135.858777 
L 191.81524 -121.070277 
L 191.227663 -116.928911 
L 190.640085 -112.500206 
L 190.052508 -126.353162 
L 189.46493 -132.265211 
L 188.877353 -131.376363 
L 188.289775 -132.652571 
L 187.702198 -124.854075 
L 187.11462 -121.569715 
L 186.527043 -118.730932 
L 185.939465 -122.138962 
L 185.351888 -128.69013 
L 184.76431 -118.312345 
L 184.176733 -116.214326 
L 183.589155 -113.179891 
L 183.001578 -108.325808 
L 182.414001 -112.171515 
L 181.826423 -118.131893 
L 181.238846 -121.281622 
L 180.651268 -120.285168 
L 180.063691 -115.506865 
L 179.476113 -116.499133 
L 178.888536 -113.569303 
L 178.300958 -115.664397 
L 177.713381 -117.841982 
L 177.125803 -114.844848 
L 176.538226 -114.343887 
L 175.950648 -115.518358 
L 175.363071 -118.244242 
L 174.775493 -115.396835 
L 174.187916 -119.689978 
L 173.600338 -121.273093 
L 173.012761 -117.822076 
L 172.425183 -114.273195 
L 171.837606 -111.81351 
L 171.250028 -113.958399 
L 170.662451 -112.877444 
L 170.074873 -112.038589 
L 169.487296 -115.540308 
L 168.899718 -117.344697 
L 168.312141 -120.217894 
L 167.724564 -117.406172 
L 167.136986 -115.582878 
L 166.549409 -112.263845 
L 165.961831 -113.314753 
L 165.374254 -115.698043 
L 164.786676 -115.301914 
L 164.199099 -113.736427 
L 163.611521 -114.760253 
L 163.023944 -117.190338 
L 162.436366 -112.769909 
L 161.848789 -110.797673 
L 161.261211 -118.24596 
L 160.673634 -124.306458 
L 160.086056 -129.121563 
L 159.498479 -120.209821 
L 158.910901 -119.0273 
L 158.323324 -116.814994 
L 157.735746 -122.115258 
L 157.148169 -122.097844 
L 156.560591 -122.570283 
L 155.973014 -126.681394 
L 155.385436 -127.310315 
L 154.797859 -120.522708 
L 154.210282 -121.780694 
L 153.622704 -121.069837 
L 153.035127 -120.567561 
L 152.447549 -120.984429 
L 151.859972 -121.150964 
L 151.272394 -128.288251 
L 150.684817 -128.577769 
L 150.097239 -121.658134 
L 149.509662 -118.769256 
L 148.922084 -123.688262 
L 148.334507 -126.436106 
L 147.746929 -126.563803 
L 147.159352 -131.579447 
L 146.571774 -124.469691 
L 145.984197 -119.700211 
L 145.396619 -121.304336 
L 144.809042 -129.783187 
L 144.221464 -126.683215 
L 143.633887 -123.512131 
L 143.046309 -122.811835 
L 142.458732 -126.557393 
L 141.871154 -121.352491 
L 141.283577 -125.792803 
L 140.695999 -127.444165 
L 140.108422 -132.288162 
L 139.520845 -133.656925 
L 138.933267 -132.441129 
L 138.34569 -128.264824 
L 137.758112 -123.572543 
L 137.170535 -125.341403 
L 136.582957 -125.965996 
L 135.99538 -130.096606 
L 135.407802 -124.525025 
L 134.820225 -124.432462 
L 134.232647 -125.682012 
L 133.64507 -127.553976 
L 133.057492 -117.807228 
L 132.469915 -119.970779 
L 131.882337 -121.229111 
L 131.29476 -131.003132 
L 130.707182 -139.891875 
L 130.119605 -137.206571 
L 129.532027 -128.995455 
L 128.94445 -131.279917 
L 128.356872 -133.511223 
L 127.769295 -133.477428 
L 127.181717 -132.847525 
L 126.59414 -136.99327 
L 126.006563 -130.663675 
L 125.418985 -124.262374 
L 124.831408 -124.257597 
L 124.24383 -130.274484 
L 123.656253 -133.767685 
L 123.068675 -137.600563 
L 122.481098 -133.370353 
L 121.89352 -136.58789 
L 121.305943 -134.418163 
L 120.718365 -133.847211 
L 120.130788 -141.618864 
L 119.54321 -138.71171 
L 118.955633 -131.693571 
L 118.368055 -133.499639 
L 117.780478 -134.598416 
L 117.1929 -121.848203 
L 116.605323 -126.64598 
L 116.017745 -129.327048 
L 115.430168 -130.943305 
L 114.84259 -129.751683 
L 114.255013 -129.501732 
L 113.667435 -126.076051 
L 113.079858 -123.346903 
L 112.49228 -119.623293 
L 111.904703 -124.444405 
L 111.317126 -130.529312 
L 110.729548 -129.456537 
L 110.141971 -126.887347 
L 109.554393 -124.596304 
L 108.966816 -117.947951 
L 108.379238 -119.403748 
L 107.791661 -122.390152 
L 107.204083 -121.937803 
L 106.616506 -125.033651 
L 106.028928 -117.316501 
L 105.441351 -107.547164 
L 104.853773 -98.979698 
L 104.266196 -99.889275 
L 103.678618 -102.919562 
L 103.091041 -103.962993 
L 102.503463 -103.187475 
L 101.915886 -103.487607 
L 101.328308 -98.219668 
L 100.740731 -95.744883 
L 100.153153 -95.287889 
L 99.565576 -98.599763 
L 98.977998 -96.759815 
L 98.390421 -93.42504 
L 97.802843 -98.789826 
L 97.215266 -96.958253 
L 96.627689 -95.072574 
L 96.040111 -94.107014 
L 95.452534 -102.047849 
L 94.864956 -106.970184 
L 94.277379 -101.429698 
L 93.689801 -104.571163 
L 93.102224 -96.933875 
L 92.514646 -91.522524 
L 91.927069 -92.404449 
L 91.339491 -97.308371 
L 90.751914 -97.325156 
L 90.164336 -94.86364 
L 89.576759 -97.400922 
L 88.989181 -95.557072 
L 88.401604 -89.879299 
L 87.814026 -90.350247 
L 87.226449 -95.188562 
L 86.638871 -94.787786 
L 86.051294 -92.176737 
L 85.463716 -91.392736 
L 84.876139 -90.324815 
L 84.288561 -85.780947 
L 83.700984 -85.733439 
L 83.113407 -87.658502 
L 82.525829 -90.910878 
L 81.938252 -93.337468 
L 81.350674 -96.501881 
L 80.763097 -94.646019 
L 80.175519 -94.914814 
L 79.587942 -90.875909 
L 79.000364 -114.71852 
L 78.412787 -111.950546 
L 77.825209 -95.34589 
L 77.237632 -97.10767 
L 76.650054 -93.332206 
L 76.062477 -92.953365 
L 75.474899 -94.021025 
L 74.887322 -112.168327 
L 74.299744 -123.295706 
L 73.712167 -141.128138 
L 73.124589 -141.665966 
L 72.537012 -141.657413 
L 71.949434 -141.726187 
L 71.361857 -141.485771 
L 70.774279 -141.661688 
L 70.186702 -141.657862 
L 69.599124 -113.22063 
L 69.011547 -85.13475 
L 68.42397 -80.163967 
L 67.836392 -76.479958 
L 67.248815 -77.088628 
L 66.661237 -78.489913 
L 66.07366 -79.479438 
L 65.486082 -82.105942 
L 64.898505 -79.19701 
L 64.310927 -77.003668 
L 63.72335 -77.351154 
L 63.135772 -78.914386 
L 62.548195 -81.236942 
L 61.960617 -97.962889 
L 61.37304 -65.73285 
z
" style="stroke: #b3cde3; stroke-opacity: 0.6"/>
    </defs>
    <g clip-path="url(#pf9872c2e4b)">
     <use xlink:href="#m5f17c5ae8b" x="0" y="203.293937" style="fill: #b3cde3; fill-opacity: 0.6; stroke: #b3cde3; stroke-opacity: 0.6"/>
    </g>
   </g>
   <g id="matplotlib.axis_1">
    <g id="xtick_1">
     <g id="line2d_1">
      <path d="M 72.537012 159.31186 
L 72.537012 25.158281 
" clip-path="url(#pf9872c2e4b)" style="fill: none; stroke: #b0b0b0; stroke-opacity: 0.25; stroke-width: 0.5; stroke-linecap: square"/>
     </g>
     <g id="line2d_2">
      <defs>
       <path id="m74374b4a2f" d="M 0 0 
L 0 3.5 
" style="stroke: #000000; stroke-width: 0.8"/>
      </defs>
      <g>
       <use xlink:href="#m74374b4a2f" x="72.537012" y="159.31186" style="stroke: #000000; stroke-width: 0.8"/>
      </g>
     </g>
     <g id="text_1">
      <!-- Apr 2024 -->
      <g transform="translate(39.120931 190.388712) rotate(-30) scale(0.08 -0.08)">
       <defs>
        <path id="DejaVuSerif-41" d="M 1281 1691 
L 2994 1691 
L 2138 3909 
L 1281 1691 
z
M -38 0 
L -38 331 
L 372 331 
L 2034 4666 
L 2559 4666 
L 4225 331 
L 4684 331 
L 4684 0 
L 2988 0 
L 2988 331 
L 3506 331 
L 3116 1356 
L 1153 1356 
L 763 331 
L 1275 331 
L 1275 0 
L -38 0 
z
" transform="scale(0.015625)"/>
        <path id="DejaVuSerif-70" d="M 1313 1825 
L 1313 1497 
Q 1313 897 1542 583 
Q 1772 269 2209 269 
Q 2650 269 2876 622 
Q 3103 975 3103 1663 
Q 3103 2353 2876 2703 
Q 2650 3053 2209 3053 
Q 1772 3053 1542 2737 
Q 1313 2422 1313 1825 
z
M 738 2988 
L 184 2988 
L 184 3322 
L 1313 3322 
L 1313 2803 
Q 1481 3116 1742 3264 
Q 2003 3413 2388 3413 
Q 3000 3413 3387 2928 
Q 3775 2444 3775 1663 
Q 3775 881 3387 395 
Q 3000 -91 2388 -91 
Q 2003 -91 1742 57 
Q 1481 206 1313 519 
L 1313 -997 
L 1856 -997 
L 1856 -1331 
L 184 -1331 
L 184 -997 
L 738 -997 
L 738 2988 
z
" transform="scale(0.015625)"/>
        <path id="DejaVuSerif-72" d="M 3059 3328 
L 3059 2497 
L 2728 2497 
Q 2713 2744 2591 2866 
Q 2469 2988 2234 2988 
Q 1809 2988 1582 2694 
Q 1356 2400 1356 1850 
L 1356 331 
L 2022 331 
L 2022 0 
L 263 0 
L 263 331 
L 781 331 
L 781 2994 
L 231 2994 
L 231 3322 
L 1356 3322 
L 1356 2731 
Q 1525 3078 1790 3245 
Q 2056 3413 2438 3413 
Q 2578 3413 2733 3391 
Q 2888 3369 3059 3328 
z
" transform="scale(0.015625)"/>
        <path id="DejaVuSerif-20" transform="scale(0.015625)"/>
        <path id="DejaVuSerif-32" d="M 819 3553 
L 469 3553 
L 469 4384 
Q 803 4563 1142 4656 
Q 1481 4750 1806 4750 
Q 2534 4750 2956 4397 
Q 3378 4044 3378 3438 
Q 3378 2753 2422 1800 
Q 2347 1728 2309 1691 
L 1131 513 
L 3078 513 
L 3078 1088 
L 3444 1088 
L 3444 0 
L 434 0 
L 434 341 
L 1850 1753 
Q 2319 2222 2519 2614 
Q 2719 3006 2719 3438 
Q 2719 3909 2473 4175 
Q 2228 4441 1797 4441 
Q 1350 4441 1106 4219 
Q 863 3997 819 3553 
z
" transform="scale(0.015625)"/>
        <path id="DejaVuSerif-30" d="M 2034 219 
Q 2513 219 2750 744 
Q 2988 1269 2988 2328 
Q 2988 3391 2750 3916 
Q 2513 4441 2034 4441 
Q 1556 4441 1318 3916 
Q 1081 3391 1081 2328 
Q 1081 1269 1318 744 
Q 1556 219 2034 219 
z
M 2034 -91 
Q 1275 -91 848 546 
Q 422 1184 422 2328 
Q 422 3475 848 4112 
Q 1275 4750 2034 4750 
Q 2797 4750 3222 4112 
Q 3647 3475 3647 2328 
Q 3647 1184 3222 546 
Q 2797 -91 2034 -91 
z
" transform="scale(0.015625)"/>
        <path id="DejaVuSerif-34" d="M 2234 1581 
L 2234 4063 
L 641 1581 
L 2234 1581 
z
M 3609 0 
L 1484 0 
L 1484 331 
L 2234 331 
L 2234 1247 
L 197 1247 
L 197 1588 
L 2241 4750 
L 2859 4750 
L 2859 1581 
L 3750 1581 
L 3750 1247 
L 2859 1247 
L 2859 331 
L 3609 331 
L 3609 0 
z
" transform="scale(0.015625)"/>
       </defs>
       <use xlink:href="#DejaVuSerif-41"/>
       <use xlink:href="#DejaVuSerif-70" transform="translate(72.216797 0)"/>
       <use xlink:href="#DejaVuSerif-72" transform="translate(136.230469 0)"/>
       <use xlink:href="#DejaVuSerif-20" transform="translate(184.033203 0)"/>
       <use xlink:href="#DejaVuSerif-32" transform="translate(215.820312 0)"/>
       <use xlink:href="#DejaVuSerif-30" transform="translate(279.443359 0)"/>
       <use xlink:href="#DejaVuSerif-32" transform="translate(343.066406 0)"/>
       <use xlink:href="#DejaVuSerif-34" transform="translate(406.689453 0)"/>
      </g>
     </g>
    </g>
    <g id="xtick_2">
     <g id="line2d_3">
      <path d="M 108.379238 159.31186 
L 108.379238 25.158281 
" clip-path="url(#pf9872c2e4b)" style="fill: none; stroke: #b0b0b0; stroke-opacity: 0.25; stroke-width: 0.5; stroke-linecap: square"/>
     </g>
     <g id="line2d_4">
      <g>
       <use xlink:href="#m74374b4a2f" x="108.379238" y="159.31186" style="stroke: #000000; stroke-width: 0.8"/>
      </g>
     </g>
     <g id="text_2">
      <!-- Jun 2024 -->
      <g transform="translate(76.011048 189.783712) rotate(-30) scale(0.08 -0.08)">
       <defs>
        <path id="DejaVuSerif-4a" d="M -538 -1119 
L -538 -384 
L -181 -384 
Q -172 -694 -34 -845 
Q 103 -997 378 -997 
Q 750 -997 897 -762 
Q 1044 -528 1044 153 
L 1044 4331 
L 319 4331 
L 319 4666 
L 2272 4666 
L 2272 4331 
L 1678 4331 
L 1678 128 
Q 1678 -644 1368 -987 
Q 1059 -1331 372 -1331 
Q 150 -1331 -79 -1278 
Q -309 -1225 -538 -1119 
z
" transform="scale(0.015625)"/>
        <path id="DejaVuSerif-75" d="M 2266 3322 
L 3341 3322 
L 3341 331 
L 3884 331 
L 3884 0 
L 2766 0 
L 2766 588 
Q 2606 256 2353 82 
Q 2100 -91 1766 -91 
Q 1213 -91 952 223 
Q 691 538 691 1209 
L 691 2988 
L 172 2988 
L 172 3322 
L 1269 3322 
L 1269 1388 
Q 1269 781 1417 556 
Q 1566 331 1947 331 
Q 2347 331 2556 625 
Q 2766 919 2766 1478 
L 2766 2988 
L 2266 2988 
L 2266 3322 
z
" transform="scale(0.015625)"/>
        <path id="DejaVuSerif-6e" d="M 263 0 
L 263 331 
L 781 331 
L 781 2988 
L 231 2988 
L 231 3322 
L 1356 3322 
L 1356 2731 
Q 1516 3069 1770 3241 
Q 2025 3413 2363 3413 
Q 2913 3413 3172 3097 
Q 3431 2781 3431 2113 
L 3431 331 
L 3944 331 
L 3944 0 
L 2356 0 
L 2356 331 
L 2853 331 
L 2853 1931 
Q 2853 2541 2703 2767 
Q 2553 2994 2175 2994 
Q 1775 2994 1565 2701 
Q 1356 2409 1356 1850 
L 1356 331 
L 1856 331 
L 1856 0 
L 263 0 
z
" transform="scale(0.015625)"/>
       </defs>
       <use xlink:href="#DejaVuSerif-4a"/>
       <use xlink:href="#DejaVuSerif-75" transform="translate(40.087891 0)"/>
       <use xlink:href="#DejaVuSerif-6e" transform="translate(104.492188 0)"/>
       <use xlink:href="#DejaVuSerif-20" transform="translate(168.896484 0)"/>
       <use xlink:href="#DejaVuSerif-32" transform="translate(200.683594 0)"/>
       <use xlink:href="#DejaVuSerif-30" transform="translate(264.306641 0)"/>
       <use xlink:href="#DejaVuSerif-32" transform="translate(327.929688 0)"/>
       <use xlink:href="#DejaVuSerif-34" transform="translate(391.552734 0)"/>
      </g>
     </g>
    </g>
    <g id="xtick_3">
     <g id="line2d_5">
      <path d="M 144.221464 159.31186 
L 144.221464 25.158281 
" clip-path="url(#pf9872c2e4b)" style="fill: none; stroke: #b0b0b0; stroke-opacity: 0.25; stroke-width: 0.5; stroke-linecap: square"/>
     </g>
     <g id="line2d_6">
      <g>
       <use xlink:href="#m74374b4a2f" x="144.221464" y="159.31186" style="stroke: #000000; stroke-width: 0.8"/>
      </g>
     </g>
     <g id="text_3">
      <!-- Aug 2024 -->
      <g transform="translate(109.597777 190.954577) rotate(-30) scale(0.08 -0.08)">
       <defs>
        <path id="DejaVuSerif-67" d="M 3359 2988 
L 3359 72 
Q 3359 -644 2965 -1033 
Q 2572 -1422 1844 -1422 
Q 1516 -1422 1216 -1362 
Q 916 -1303 641 -1184 
L 641 -488 
L 941 -488 
Q 997 -813 1206 -963 
Q 1416 -1113 1806 -1113 
Q 2313 -1113 2548 -827 
Q 2784 -541 2784 72 
L 2784 519 
Q 2616 206 2355 57 
Q 2094 -91 1709 -91 
Q 1097 -91 708 395 
Q 319 881 319 1663 
Q 319 2444 706 2928 
Q 1094 3413 1709 3413 
Q 2094 3413 2355 3264 
Q 2616 3116 2784 2803 
L 2784 3322 
L 3909 3322 
L 3909 2988 
L 3359 2988 
z
M 2784 1825 
Q 2784 2422 2554 2737 
Q 2325 3053 1888 3053 
Q 1444 3053 1217 2703 
Q 991 2353 991 1663 
Q 991 975 1217 622 
Q 1444 269 1888 269 
Q 2325 269 2554 583 
Q 2784 897 2784 1497 
L 2784 1825 
z
" transform="scale(0.015625)"/>
       </defs>
       <use xlink:href="#DejaVuSerif-41"/>
       <use xlink:href="#DejaVuSerif-75" transform="translate(72.216797 0)"/>
       <use xlink:href="#DejaVuSerif-67" transform="translate(136.621094 0)"/>
       <use xlink:href="#DejaVuSerif-20" transform="translate(200.634766 0)"/>
       <use xlink:href="#DejaVuSerif-32" transform="translate(232.421875 0)"/>
       <use xlink:href="#DejaVuSerif-30" transform="translate(296.044922 0)"/>
       <use xlink:href="#DejaVuSerif-32" transform="translate(359.667969 0)"/>
       <use xlink:href="#DejaVuSerif-34" transform="translate(423.291016 0)"/>
      </g>
     </g>
    </g>
    <g id="xtick_4">
     <g id="line2d_7">
      <path d="M 180.063691 159.31186 
L 180.063691 25.158281 
" clip-path="url(#pf9872c2e4b)" style="fill: none; stroke: #b0b0b0; stroke-opacity: 0.25; stroke-width: 0.5; stroke-linecap: square"/>
     </g>
     <g id="line2d_8">
      <g>
       <use xlink:href="#m74374b4a2f" x="180.063691" y="159.31186" style="stroke: #000000; stroke-width: 0.8"/>
      </g>
     </g>
     <g id="text_4">
      <!-- Oct 2024 -->
      <g transform="translate(147.053559 190.154337) rotate(-30) scale(0.08 -0.08)">
       <defs>
        <path id="DejaVuSerif-4f" d="M 2625 244 
Q 3391 244 3781 770 
Q 4172 1297 4172 2328 
Q 4172 3363 3781 3889 
Q 3391 4416 2625 4416 
Q 1856 4416 1465 3889 
Q 1075 3363 1075 2328 
Q 1075 1297 1465 770 
Q 1856 244 2625 244 
z
M 2625 -91 
Q 2150 -91 1751 65 
Q 1353 222 1050 525 
Q 700 875 529 1319 
Q 359 1763 359 2328 
Q 359 2894 529 3339 
Q 700 3784 1050 4134 
Q 1356 4441 1750 4595 
Q 2144 4750 2625 4750 
Q 3641 4750 4266 4084 
Q 4891 3419 4891 2328 
Q 4891 1769 4719 1320 
Q 4547 872 4197 525 
Q 3891 219 3497 64 
Q 3103 -91 2625 -91 
z
" transform="scale(0.015625)"/>
        <path id="DejaVuSerif-63" d="M 3291 997 
Q 3169 466 2822 187 
Q 2475 -91 1925 -91 
Q 1200 -91 759 389 
Q 319 869 319 1663 
Q 319 2459 759 2936 
Q 1200 3413 1925 3413 
Q 2241 3413 2553 3339 
Q 2866 3266 3181 3116 
L 3181 2266 
L 2847 2266 
Q 2781 2703 2561 2903 
Q 2341 3103 1931 3103 
Q 1466 3103 1228 2742 
Q 991 2381 991 1663 
Q 991 944 1227 581 
Q 1463 219 1931 219 
Q 2303 219 2525 412 
Q 2747 606 2828 997 
L 3291 997 
z
" transform="scale(0.015625)"/>
        <path id="DejaVuSerif-74" d="M 691 2988 
L 184 2988 
L 184 3322 
L 691 3322 
L 691 4353 
L 1269 4353 
L 1269 3322 
L 2350 3322 
L 2350 2988 
L 1269 2988 
L 1269 878 
Q 1269 456 1350 337 
Q 1431 219 1650 219 
Q 1875 219 1978 351 
Q 2081 484 2088 781 
L 2522 781 
Q 2497 328 2275 118 
Q 2053 -91 1600 -91 
Q 1103 -91 897 129 
Q 691 350 691 878 
L 691 2988 
z
" transform="scale(0.015625)"/>
       </defs>
       <use xlink:href="#DejaVuSerif-4f"/>
       <use xlink:href="#DejaVuSerif-63" transform="translate(81.982422 0)"/>
       <use xlink:href="#DejaVuSerif-74" transform="translate(137.988281 0)"/>
       <use xlink:href="#DejaVuSerif-20" transform="translate(178.173828 0)"/>
       <use xlink:href="#DejaVuSerif-32" transform="translate(209.960938 0)"/>
       <use xlink:href="#DejaVuSerif-30" transform="translate(273.583984 0)"/>
       <use xlink:href="#DejaVuSerif-32" transform="translate(337.207031 0)"/>
       <use xlink:href="#DejaVuSerif-34" transform="translate(400.830078 0)"/>
      </g>
     </g>
    </g>
    <g id="xtick_5">
     <g id="line2d_9">
      <path d="M 215.905917 159.31186 
L 215.905917 25.158281 
" clip-path="url(#pf9872c2e4b)" style="fill: none; stroke: #b0b0b0; stroke-opacity: 0.25; stroke-width: 0.5; stroke-linecap: square"/>
     </g>
     <g id="line2d_10">
      <g>
       <use xlink:href="#m74374b4a2f" x="215.905917" y="159.31186" style="stroke: #000000; stroke-width: 0.8"/>
      </g>
     </g>
     <g id="text_5">
      <!-- Dec 2024 -->
      <g transform="translate(181.705 190.841837) rotate(-30) scale(0.08 -0.08)">
       <defs>
        <path id="DejaVuSerif-44" d="M 1581 331 
L 2163 331 
Q 3072 331 3558 850 
Q 4044 1369 4044 2338 
Q 4044 3306 3559 3818 
Q 3075 4331 2163 4331 
L 1581 4331 
L 1581 331 
z
M 353 0 
L 353 331 
L 947 331 
L 947 4331 
L 353 4331 
L 353 4666 
L 2209 4666 
Q 3416 4666 4089 4050 
Q 4763 3434 4763 2338 
Q 4763 1238 4088 619 
Q 3413 0 2209 0 
L 353 0 
z
" transform="scale(0.015625)"/>
        <path id="DejaVuSerif-65" d="M 3469 1600 
L 991 1600 
L 991 1575 
Q 991 903 1244 561 
Q 1497 219 1991 219 
Q 2369 219 2611 417 
Q 2853 616 2950 1006 
L 3413 1006 
Q 3275 459 2904 184 
Q 2534 -91 1931 -91 
Q 1203 -91 761 389 
Q 319 869 319 1663 
Q 319 2450 753 2931 
Q 1188 3413 1894 3413 
Q 2647 3413 3050 2948 
Q 3453 2484 3469 1600 
z
M 2791 1931 
Q 2772 2513 2545 2808 
Q 2319 3103 1894 3103 
Q 1497 3103 1269 2806 
Q 1041 2509 991 1931 
L 2791 1931 
z
" transform="scale(0.015625)"/>
       </defs>
       <use xlink:href="#DejaVuSerif-44"/>
       <use xlink:href="#DejaVuSerif-65" transform="translate(80.175781 0)"/>
       <use xlink:href="#DejaVuSerif-63" transform="translate(139.355469 0)"/>
       <use xlink:href="#DejaVuSerif-20" transform="translate(195.361328 0)"/>
       <use xlink:href="#DejaVuSerif-32" transform="translate(227.148438 0)"/>
       <use xlink:href="#DejaVuSerif-30" transform="translate(290.771484 0)"/>
       <use xlink:href="#DejaVuSerif-32" transform="translate(354.394531 0)"/>
       <use xlink:href="#DejaVuSerif-34" transform="translate(418.017578 0)"/>
      </g>
     </g>
    </g>
    <g id="xtick_6">
     <g id="line2d_11">
      <path d="M 252.335721 159.31186 
L 252.335721 25.158281 
" clip-path="url(#pf9872c2e4b)" style="fill: none; stroke: #b0b0b0; stroke-opacity: 0.25; stroke-width: 0.5; stroke-linecap: square"/>
     </g>
     <g id="line2d_12">
      <g>
       <use xlink:href="#m74374b4a2f" x="252.335721" y="159.31186" style="stroke: #000000; stroke-width: 0.8"/>
      </g>
     </g>
     <g id="text_6">
      <!-- Feb 2025 -->
      <g transform="translate(218.707464 190.511212) rotate(-30) scale(0.08 -0.08)">
       <defs>
        <path id="DejaVuSerif-46" d="M 353 0 
L 353 331 
L 947 331 
L 947 4331 
L 353 4331 
L 353 4666 
L 4172 4666 
L 4172 3628 
L 3788 3628 
L 3788 4281 
L 1581 4281 
L 1581 2719 
L 3175 2719 
L 3175 3303 
L 3559 3303 
L 3559 1753 
L 3175 1753 
L 3175 2338 
L 1581 2338 
L 1581 331 
L 2328 331 
L 2328 0 
L 353 0 
z
" transform="scale(0.015625)"/>
        <path id="DejaVuSerif-62" d="M 738 331 
L 738 4531 
L 184 4531 
L 184 4863 
L 1313 4863 
L 1313 2803 
Q 1481 3116 1742 3264 
Q 2003 3413 2388 3413 
Q 3000 3413 3387 2928 
Q 3775 2444 3775 1663 
Q 3775 881 3387 395 
Q 3000 -91 2388 -91 
Q 2003 -91 1742 57 
Q 1481 206 1313 519 
L 1313 0 
L 184 0 
L 184 331 
L 738 331 
z
M 1313 1497 
Q 1313 897 1542 583 
Q 1772 269 2209 269 
Q 2650 269 2876 622 
Q 3103 975 3103 1663 
Q 3103 2353 2876 2703 
Q 2650 3053 2209 3053 
Q 1772 3053 1542 2737 
Q 1313 2422 1313 1825 
L 1313 1497 
z
" transform="scale(0.015625)"/>
        <path id="DejaVuSerif-35" d="M 3219 4666 
L 3219 4153 
L 1081 4153 
L 1081 2816 
Q 1244 2928 1461 2984 
Q 1678 3041 1947 3041 
Q 2703 3041 3140 2622 
Q 3578 2203 3578 1478 
Q 3578 738 3136 323 
Q 2694 -91 1894 -91 
Q 1572 -91 1234 -12 
Q 897 66 544 225 
L 544 1131 
L 897 1131 
Q 925 688 1179 453 
Q 1434 219 1894 219 
Q 2388 219 2653 544 
Q 2919 869 2919 1478 
Q 2919 2084 2655 2407 
Q 2391 2731 1894 2731 
Q 1613 2731 1398 2631 
Q 1184 2531 1019 2322 
L 750 2322 
L 750 4666 
L 3219 4666 
z
" transform="scale(0.015625)"/>
       </defs>
       <use xlink:href="#DejaVuSerif-46"/>
       <use xlink:href="#DejaVuSerif-65" transform="translate(63.884766 0)"/>
       <use xlink:href="#DejaVuSerif-62" transform="translate(123.064453 0)"/>
       <use xlink:href="#DejaVuSerif-20" transform="translate(187.078125 0)"/>
       <use xlink:href="#DejaVuSerif-32" transform="translate(218.865234 0)"/>
       <use xlink:href="#DejaVuSerif-30" transform="translate(282.488281 0)"/>
       <use xlink:href="#DejaVuSerif-32" transform="translate(346.111328 0)"/>
       <use xlink:href="#DejaVuSerif-35" transform="translate(409.734375 0)"/>
      </g>
     </g>
    </g>
    <g id="xtick_7">
     <g id="line2d_13">
      <path d="M 287.002792 159.31186 
L 287.002792 25.158281 
" clip-path="url(#pf9872c2e4b)" style="fill: none; stroke: #b0b0b0; stroke-opacity: 0.25; stroke-width: 0.5; stroke-linecap: square"/>
     </g>
     <g id="line2d_14">
      <g>
       <use xlink:href="#m74374b4a2f" x="287.002792" y="159.31186" style="stroke: #000000; stroke-width: 0.8"/>
      </g>
     </g>
     <g id="text_7">
      <!-- Apr 2025 -->
      <g transform="translate(253.586711 190.388712) rotate(-30) scale(0.08 -0.08)">
       <use xlink:href="#DejaVuSerif-41"/>
       <use xlink:href="#DejaVuSerif-70" transform="translate(72.216797 0)"/>
       <use xlink:href="#DejaVuSerif-72" transform="translate(136.230469 0)"/>
       <use xlink:href="#DejaVuSerif-20" transform="translate(184.033203 0)"/>
       <use xlink:href="#DejaVuSerif-32" transform="translate(215.820312 0)"/>
       <use xlink:href="#DejaVuSerif-30" transform="translate(279.443359 0)"/>
       <use xlink:href="#DejaVuSerif-32" transform="translate(343.066406 0)"/>
       <use xlink:href="#DejaVuSerif-35" transform="translate(406.689453 0)"/>
      </g>
     </g>
    </g>
    <g id="xtick_8">
     <g id="line2d_15">
      <path d="M 322.845018 159.31186 
L 322.845018 25.158281 
" clip-path="url(#pf9872c2e4b)" style="fill: none; stroke: #b0b0b0; stroke-opacity: 0.25; stroke-width: 0.5; stroke-linecap: square"/>
     </g>
     <g id="line2d_16">
      <g>
       <use xlink:href="#m74374b4a2f" x="322.845018" y="159.31186" style="stroke: #000000; stroke-width: 0.8"/>
      </g>
     </g>
     <g id="text_8">
      <!-- Jun 2025 -->
      <g transform="translate(290.476828 189.783712) rotate(-30) scale(0.08 -0.08)">
       <use xlink:href="#DejaVuSerif-4a"/>
       <use xlink:href="#DejaVuSerif-75" transform="translate(40.087891 0)"/>
       <use xlink:href="#DejaVuSerif-6e" transform="translate(104.492188 0)"/>
       <use xlink:href="#DejaVuSerif-20" transform="translate(168.896484 0)"/>
       <use xlink:href="#DejaVuSerif-32" transform="translate(200.683594 0)"/>
       <use xlink:href="#DejaVuSerif-30" transform="translate(264.306641 0)"/>
       <use xlink:href="#DejaVuSerif-32" transform="translate(327.929688 0)"/>
       <use xlink:href="#DejaVuSerif-35" transform="translate(391.552734 0)"/>
      </g>
     </g>
    </g>
    <g id="xtick_9">
     <g id="line2d_17">
      <path d="M 358.687244 159.31186 
L 358.687244 25.158281 
" clip-path="url(#pf9872c2e4b)" style="fill: none; stroke: #b0b0b0; stroke-opacity: 0.25; stroke-width: 0.5; stroke-linecap: square"/>
     </g>
     <g id="line2d_18">
      <g>
       <use xlink:href="#m74374b4a2f" x="358.687244" y="159.31186" style="stroke: #000000; stroke-width: 0.8"/>
      </g>
     </g>
     <g id="text_9">
      <!-- Aug 2025 -->
      <g transform="translate(324.063557 190.954577) rotate(-30) scale(0.08 -0.08)">
       <use xlink:href="#DejaVuSerif-41"/>
       <use xlink:href="#DejaVuSerif-75" transform="translate(72.216797 0)"/>
       <use xlink:href="#DejaVuSerif-67" transform="translate(136.621094 0)"/>
       <use xlink:href="#DejaVuSerif-20" transform="translate(200.634766 0)"/>
       <use xlink:href="#DejaVuSerif-32" transform="translate(232.421875 0)"/>
       <use xlink:href="#DejaVuSerif-30" transform="translate(296.044922 0)"/>
       <use xlink:href="#DejaVuSerif-32" transform="translate(359.667969 0)"/>
       <use xlink:href="#DejaVuSerif-35" transform="translate(423.291016 0)"/>
      </g>
     </g>
    </g>
    <g id="xtick_10">
     <g id="line2d_19">
      <path d="M 394.529471 159.31186 
L 394.529471 25.158281 
" clip-path="url(#pf9872c2e4b)" style="fill: none; stroke: #b0b0b0; stroke-opacity: 0.25; stroke-width: 0.5; stroke-linecap: square"/>
     </g>
     <g id="line2d_20">
      <g>
       <use xlink:href="#m74374b4a2f" x="394.529471" y="159.31186" style="stroke: #000000; stroke-width: 0.8"/>
      </g>
     </g>
     <g id="text_10">
      <!-- Oct 2025 -->
      <g transform="translate(361.519339 190.154337) rotate(-30) scale(0.08 -0.08)">
       <use xlink:href="#DejaVuSerif-4f"/>
       <use xlink:href="#DejaVuSerif-63" transform="translate(81.982422 0)"/>
       <use xlink:href="#DejaVuSerif-74" transform="translate(137.988281 0)"/>
       <use xlink:href="#DejaVuSerif-20" transform="translate(178.173828 0)"/>
       <use xlink:href="#DejaVuSerif-32" transform="translate(209.960938 0)"/>
       <use xlink:href="#DejaVuSerif-30" transform="translate(273.583984 0)"/>
       <use xlink:href="#DejaVuSerif-32" transform="translate(337.207031 0)"/>
       <use xlink:href="#DejaVuSerif-35" transform="translate(400.830078 0)"/>
      </g>
     </g>
    </g>
    <g id="xtick_11">
     <g id="line2d_21">
      <path d="M 430.371697 159.31186 
L 430.371697 25.158281 
" clip-path="url(#pf9872c2e4b)" style="fill: none; stroke: #b0b0b0; stroke-opacity: 0.25; stroke-width: 0.5; stroke-linecap: square"/>
     </g>
     <g id="line2d_22">
      <g>
       <use xlink:href="#m74374b4a2f" x="430.371697" y="159.31186" style="stroke: #000000; stroke-width: 0.8"/>
      </g>
     </g>
     <g id="text_11">
      <!-- Dec 2025 -->
      <g transform="translate(396.17078 190.841837) rotate(-30) scale(0.08 -0.08)">
       <use xlink:href="#DejaVuSerif-44"/>
       <use xlink:href="#DejaVuSerif-65" transform="translate(80.175781 0)"/>
       <use xlink:href="#DejaVuSerif-63" transform="translate(139.355469 0)"/>
       <use xlink:href="#DejaVuSerif-20" transform="translate(195.361328 0)"/>
       <use xlink:href="#DejaVuSerif-32" transform="translate(227.148438 0)"/>
       <use xlink:href="#DejaVuSerif-30" transform="translate(290.771484 0)"/>
       <use xlink:href="#DejaVuSerif-32" transform="translate(354.394531 0)"/>
       <use xlink:href="#DejaVuSerif-35" transform="translate(418.017578 0)"/>
      </g>
     </g>
    </g>
    <g id="xtick_12">
     <g id="line2d_23">
      <path d="M 466.801501 159.31186 
L 466.801501 25.158281 
" clip-path="url(#pf9872c2e4b)" style="fill: none; stroke: #b0b0b0; stroke-opacity: 0.25; stroke-width: 0.5; stroke-linecap: square"/>
     </g>
     <g id="line2d_24">
      <g>
       <use xlink:href="#m74374b4a2f" x="466.801501" y="159.31186" style="stroke: #000000; stroke-width: 0.8"/>
      </g>
     </g>
     <g id="text_12">
      <!-- Feb 2026 -->
      <g transform="translate(433.173243 190.511212) rotate(-30) scale(0.08 -0.08)">
       <defs>
        <path id="DejaVuSerif-36" d="M 2094 219 
Q 2534 219 2771 542 
Q 3009 866 3009 1472 
Q 3009 2078 2771 2401 
Q 2534 2725 2094 2725 
Q 1647 2725 1412 2412 
Q 1178 2100 1178 1509 
Q 1178 888 1415 553 
Q 1653 219 2094 219 
z
M 1075 2569 
Q 1288 2803 1556 2918 
Q 1825 3034 2163 3034 
Q 2859 3034 3264 2615 
Q 3669 2197 3669 1472 
Q 3669 763 3233 336 
Q 2797 -91 2069 -91 
Q 1278 -91 853 498 
Q 428 1088 428 2181 
Q 428 3406 931 4078 
Q 1434 4750 2350 4750 
Q 2597 4750 2869 4703 
Q 3141 4656 3425 4563 
L 3425 3794 
L 3072 3794 
Q 3034 4109 2831 4275 
Q 2628 4441 2284 4441 
Q 1678 4441 1381 3981 
Q 1084 3522 1075 2569 
z
" transform="scale(0.015625)"/>
       </defs>
       <use xlink:href="#DejaVuSerif-46"/>
       <use xlink:href="#DejaVuSerif-65" transform="translate(63.884766 0)"/>
       <use xlink:href="#DejaVuSerif-62" transform="translate(123.064453 0)"/>
       <use xlink:href="#DejaVuSerif-20" transform="translate(187.078125 0)"/>
       <use xlink:href="#DejaVuSerif-32" transform="translate(218.865234 0)"/>
       <use xlink:href="#DejaVuSerif-30" transform="translate(282.488281 0)"/>
       <use xlink:href="#DejaVuSerif-32" transform="translate(346.111328 0)"/>
       <use xlink:href="#DejaVuSerif-36" transform="translate(409.734375 0)"/>
      </g>
     </g>
    </g>
   </g>
   <g id="matplotlib.axis_2">
    <g id="ytick_1">
     <g id="line2d_25">
      <path d="M 40.690312 153.21397 
L 495.710313 153.21397 
" clip-path="url(#pf9872c2e4b)" style="fill: none; stroke: #b0b0b0; stroke-opacity: 0.25; stroke-width: 0.5; stroke-linecap: square"/>
     </g>
     <g id="line2d_26">
      <defs>
       <path id="ma7606eb1ac" d="M 0 0 
L -3.5 0 
" style="stroke: #000000; stroke-width: 0.8"/>
      </defs>
      <g>
       <use xlink:href="#ma7606eb1ac" x="40.690312" y="153.21397" style="stroke: #000000; stroke-width: 0.8"/>
      </g>
     </g>
     <g id="text_13">
      <!-- 0 -->
      <g transform="translate(28.600312 156.253345) scale(0.08 -0.08)">
       <use xlink:href="#DejaVuSerif-30"/>
      </g>
     </g>
    </g>
    <g id="ytick_2">
     <g id="line2d_27">
      <path d="M 40.690312 134.905338 
L 495.710313 134.905338 
" clip-path="url(#pf9872c2e4b)" style="fill: none; stroke: #b0b0b0; stroke-opacity: 0.25; stroke-width: 0.5; stroke-linecap: square"/>
     </g>
     <g id="line2d_28">
      <g>
       <use xlink:href="#ma7606eb1ac" x="40.690312" y="134.905338" style="stroke: #000000; stroke-width: 0.8"/>
      </g>
     </g>
     <g id="text_14">
      <!-- 10 -->
      <g transform="translate(23.510312 137.944713) scale(0.08 -0.08)">
       <defs>
        <path id="DejaVuSerif-31" d="M 909 0 
L 909 331 
L 1722 331 
L 1722 4213 
L 781 3603 
L 781 4013 
L 1919 4750 
L 2350 4750 
L 2350 331 
L 3163 331 
L 3163 0 
L 909 0 
z
" transform="scale(0.015625)"/>
       </defs>
       <use xlink:href="#DejaVuSerif-31"/>
       <use xlink:href="#DejaVuSerif-30" transform="translate(63.623047 0)"/>
      </g>
     </g>
    </g>
    <g id="ytick_3">
     <g id="line2d_29">
      <path d="M 40.690312 116.596706 
L 495.710313 116.596706 
" clip-path="url(#pf9872c2e4b)" style="fill: none; stroke: #b0b0b0; stroke-opacity: 0.25; stroke-width: 0.5; stroke-linecap: square"/>
     </g>
     <g id="line2d_30">
      <g>
       <use xlink:href="#ma7606eb1ac" x="40.690312" y="116.596706" style="stroke: #000000; stroke-width: 0.8"/>
      </g>
     </g>
     <g id="text_15">
      <!-- 20 -->
      <g transform="translate(23.510312 119.636081) scale(0.08 -0.08)">
       <use xlink:href="#DejaVuSerif-32"/>
       <use xlink:href="#DejaVuSerif-30" transform="translate(63.623047 0)"/>
      </g>
     </g>
    </g>
    <g id="ytick_4">
     <g id="line2d_31">
      <path d="M 40.690312 98.288074 
L 495.710313 98.288074 
" clip-path="url(#pf9872c2e4b)" style="fill: none; stroke: #b0b0b0; stroke-opacity: 0.25; stroke-width: 0.5; stroke-linecap: square"/>
     </g>
     <g id="line2d_32">
      <g>
       <use xlink:href="#ma7606eb1ac" x="40.690312" y="98.288074" style="stroke: #000000; stroke-width: 0.8"/>
      </g>
     </g>
     <g id="text_16">
      <!-- 30 -->
      <g transform="translate(23.510312 101.327449) scale(0.08 -0.08)">
       <defs>
        <path id="DejaVuSerif-33" d="M 622 4469 
Q 988 4606 1323 4678 
Q 1659 4750 1953 4750 
Q 2638 4750 3022 4454 
Q 3406 4159 3406 3634 
Q 3406 3213 3140 2930 
Q 2875 2647 2388 2547 
Q 2963 2466 3280 2130 
Q 3597 1794 3597 1259 
Q 3597 606 3158 257 
Q 2719 -91 1894 -91 
Q 1528 -91 1179 -12 
Q 831 66 488 225 
L 488 1131 
L 838 1131 
Q 869 681 1141 450 
Q 1413 219 1906 219 
Q 2384 219 2661 495 
Q 2938 772 2938 1253 
Q 2938 1803 2653 2086 
Q 2369 2369 1819 2369 
L 1522 2369 
L 1522 2688 
L 1678 2688 
Q 2225 2688 2498 2914 
Q 2772 3141 2772 3597 
Q 2772 4006 2547 4223 
Q 2322 4441 1900 4441 
Q 1478 4441 1245 4241 
Q 1013 4041 972 3647 
L 622 3647 
L 622 4469 
z
" transform="scale(0.015625)"/>
       </defs>
       <use xlink:href="#DejaVuSerif-33"/>
       <use xlink:href="#DejaVuSerif-30" transform="translate(63.623047 0)"/>
      </g>
     </g>
    </g>
    <g id="ytick_5">
     <g id="line2d_33">
      <path d="M 40.690312 79.979442 
L 495.710313 79.979442 
" clip-path="url(#pf9872c2e4b)" style="fill: none; stroke: #b0b0b0; stroke-opacity: 0.25; stroke-width: 0.5; stroke-linecap: square"/>
     </g>
     <g id="line2d_34">
      <g>
       <use xlink:href="#ma7606eb1ac" x="40.690312" y="79.979442" style="stroke: #000000; stroke-width: 0.8"/>
      </g>
     </g>
     <g id="text_17">
      <!-- 40 -->
      <g transform="translate(23.510312 83.018817) scale(0.08 -0.08)">
       <use xlink:href="#DejaVuSerif-34"/>
       <use xlink:href="#DejaVuSerif-30" transform="translate(63.623047 0)"/>
      </g>
     </g>
    </g>
    <g id="ytick_6">
     <g id="line2d_35">
      <path d="M 40.690312 61.67081 
L 495.710313 61.67081 
" clip-path="url(#pf9872c2e4b)" style="fill: none; stroke: #b0b0b0; stroke-opacity: 0.25; stroke-width: 0.5; stroke-linecap: square"/>
     </g>
     <g id="line2d_36">
      <g>
       <use xlink:href="#ma7606eb1ac" x="40.690312" y="61.67081" style="stroke: #000000; stroke-width: 0.8"/>
      </g>
     </g>
     <g id="text_18">
      <!-- 50 -->
      <g transform="translate(23.510312 64.710185) scale(0.08 -0.08)">
       <use xlink:href="#DejaVuSerif-35"/>
       <use xlink:href="#DejaVuSerif-30" transform="translate(63.623047 0)"/>
      </g>
     </g>
    </g>
    <g id="ytick_7">
     <g id="line2d_37">
      <path d="M 40.690312 43.362178 
L 495.710313 43.362178 
" clip-path="url(#pf9872c2e4b)" style="fill: none; stroke: #b0b0b0; stroke-opacity: 0.25; stroke-width: 0.5; stroke-linecap: square"/>
     </g>
     <g id="line2d_38">
      <g>
       <use xlink:href="#ma7606eb1ac" x="40.690312" y="43.362178" style="stroke: #000000; stroke-width: 0.8"/>
      </g>
     </g>
     <g id="text_19">
      <!-- 60 -->
      <g transform="translate(23.510312 46.401553) scale(0.08 -0.08)">
       <use xlink:href="#DejaVuSerif-36"/>
       <use xlink:href="#DejaVuSerif-30" transform="translate(63.623047 0)"/>
      </g>
     </g>
    </g>
    <g id="text_20">
     <!-- % -->
     <g transform="translate(17.638594 96.510774) rotate(-90) scale(0.09 -0.09)">
      <defs>
       <path id="DejaVuSerif-25" d="M 1434 4459 
Q 1159 4459 1004 4200 
Q 850 3941 850 3475 
Q 850 3016 1008 2753 
Q 1166 2491 1434 2491 
Q 1700 2491 1854 2752 
Q 2009 3013 2009 3475 
Q 2009 3938 1854 4198 
Q 1700 4459 1434 4459 
z
M 4653 2169 
Q 4381 2169 4226 1906 
Q 4072 1644 4072 1178 
Q 4072 719 4228 458 
Q 4384 197 4653 197 
Q 4922 197 5075 458 
Q 5228 719 5228 1178 
Q 5228 1641 5073 1905 
Q 4919 2169 4653 2169 
z
M 4653 2450 
Q 5147 2450 5437 2106 
Q 5728 1763 5728 1178 
Q 5728 594 5436 251 
Q 5144 -91 4653 -91 
Q 4153 -91 3862 251 
Q 3572 594 3572 1178 
Q 3572 1766 3864 2108 
Q 4156 2450 4653 2450 
z
M 4263 4750 
L 4738 4750 
L 1819 -91 
L 1344 -91 
L 4263 4750 
z
M 1428 4750 
Q 1922 4750 2215 4408 
Q 2509 4066 2509 3481 
Q 2509 2891 2217 2550 
Q 1925 2209 1428 2209 
Q 931 2209 642 2551 
Q 353 2894 353 3481 
Q 353 4063 643 4406 
Q 934 4750 1428 4750 
z
" transform="scale(0.015625)"/>
      </defs>
      <use xlink:href="#DejaVuSerif-25"/>
     </g>
    </g>
   </g>
   <g id="line2d_39">
    <path d="M 291.115834 159.31186 
L 291.115834 25.158281 
" clip-path="url(#pf9872c2e4b)" style="fill: none; stroke-dasharray: 0.8,1.32; stroke-dashoffset: 0; stroke: #888888; stroke-opacity: 0.7; stroke-width: 0.8"/>
   </g>
   <g id="line2d_40">
    <path d="M 435.072317 159.31186 
L 435.072317 25.158281 
" clip-path="url(#pf9872c2e4b)" style="fill: none; stroke-dasharray: 0.8,1.32; stroke-dashoffset: 0; stroke: #888888; stroke-opacity: 0.7; stroke-width: 0.8"/>
   </g>
   <g id="patch_3">
    <path d="M 40.690312 159.31186 
L 40.690312 25.158281 
" style="fill: none; stroke: #000000; stroke-width: 0.6; stroke-linejoin: miter; stroke-linecap: square"/>
   </g>
   <g id="patch_4">
    <path d="M 40.690313 159.31186 
L 495.710313 159.31186 
" style="fill: none; stroke: #000000; stroke-width: 0.6; stroke-linejoin: miter; stroke-linecap: square"/>
   </g>
   <g id="line2d_41">
    <path d="M 61.37304 137.561087 
L 61.960617 121.446067 
L 62.548195 121.64971 
L 64.310927 123.593622 
L 64.898505 123.665522 
L 65.486082 121.326509 
L 66.07366 123.967002 
L 67.248815 124.620258 
L 67.836392 124.744715 
L 68.42397 124.293243 
L 69.011547 123.444995 
L 69.599124 119.000039 
L 73.124589 65.71172 
L 73.712167 61.724933 
L 74.299744 64.348098 
L 74.887322 68.561436 
L 77.825209 102.119053 
L 78.412787 103.73979 
L 79.000364 103.375476 
L 79.587942 103.824779 
L 80.763097 103.356884 
L 81.350674 103.443425 
L 81.938252 103.730343 
L 82.525829 106.73601 
L 83.113407 110.601726 
L 83.700984 111.336365 
L 84.288561 112.641203 
L 85.463716 113.988396 
L 86.051294 114.154215 
L 86.638871 113.600371 
L 87.226449 112.524648 
L 88.989181 110.53216 
L 89.576759 109.673847 
L 91.339491 108.624693 
L 92.514646 108.096489 
L 93.102224 107.899803 
L 94.277379 105.937475 
L 94.864956 104.559614 
L 95.452534 103.882545 
L 96.040111 103.639322 
L 96.627689 103.132172 
L 97.215266 103.128689 
L 97.802843 103.954594 
L 98.390421 105.098117 
L 98.977998 106.556741 
L 99.565576 107.049324 
L 101.328308 106.604382 
L 101.915886 105.93327 
L 102.503463 104.538637 
L 103.091041 103.509611 
L 104.853773 101.77304 
L 105.441351 100.44054 
L 106.028928 98.464984 
L 107.204083 92.776272 
L 109.554393 82.061635 
L 110.141971 80.694371 
L 110.729548 80.062531 
L 111.317126 78.835172 
L 111.904703 78.541708 
L 112.49228 78.510344 
L 113.079858 77.739065 
L 113.667435 77.527673 
L 114.255013 77.154189 
L 115.430168 77.052884 
L 116.017745 76.355363 
L 116.605323 75.352122 
L 117.1929 75.566222 
L 117.780478 74.348741 
L 118.368055 73.777612 
L 118.955633 73.500199 
L 119.54321 72.390427 
L 120.130788 70.634454 
L 120.718365 69.605706 
L 121.305943 67.809998 
L 121.89352 67.525787 
L 122.481098 67.544256 
L 123.068675 66.700401 
L 123.656253 67.40669 
L 124.831408 70.39726 
L 125.418985 71.848087 
L 126.006563 72.694404 
L 126.59414 72.176844 
L 127.181717 72.85585 
L 127.769295 72.897315 
L 128.356872 72.434924 
L 128.94445 71.431735 
L 129.532027 70.755581 
L 130.119605 69.820881 
L 130.707182 69.406795 
L 131.29476 69.67028 
L 132.469915 73.354388 
L 133.057492 75.279058 
L 133.64507 75.484983 
L 134.232647 77.131349 
L 134.820225 79.339836 
L 135.407802 80.26528 
L 135.99538 78.998495 
L 136.582957 78.142036 
L 137.170535 77.065725 
L 137.758112 77.634501 
L 138.34569 77.265528 
L 139.520845 74.816876 
L 140.695999 74.292629 
L 141.283577 74.228144 
L 142.458732 74.789213 
L 143.633887 77.614082 
L 144.221464 78.414789 
L 144.809042 78.080643 
L 145.396619 78.721853 
L 146.571774 79.256136 
L 147.159352 78.00362 
L 147.746929 77.567667 
L 148.334507 77.602968 
L 148.922084 78.473672 
L 149.509662 78.835826 
L 150.097239 78.556123 
L 150.684817 77.969255 
L 151.272394 78.439425 
L 152.447549 79.991499 
L 153.035127 80.437313 
L 153.622704 80.108659 
L 154.210282 80.09115 
L 154.797859 81.241873 
L 155.385436 81.381578 
L 155.973014 80.591517 
L 157.735746 79.997009 
L 158.323324 80.706394 
L 158.910901 80.920024 
L 159.498479 81.93438 
L 160.673634 81.33776 
L 161.261211 81.888029 
L 161.848789 83.504827 
L 162.436366 84.082696 
L 163.023944 84.345119 
L 163.611521 85.123629 
L 164.199099 87.321506 
L 164.786676 88.607869 
L 165.374254 88.971857 
L 165.961831 88.612274 
L 166.549409 88.684569 
L 167.136986 88.914206 
L 167.724564 88.536218 
L 168.312141 87.610294 
L 168.899718 87.318468 
L 169.487296 87.341001 
L 170.074873 87.523311 
L 170.662451 87.435654 
L 171.250028 87.667722 
L 172.425183 89.315917 
L 173.012761 89.24772 
L 173.600338 88.42875 
L 174.187916 87.335695 
L 174.775493 86.975782 
L 175.950648 85.834254 
L 176.538226 85.824155 
L 177.713381 86.739632 
L 178.300958 87.314715 
L 179.476113 87.825093 
L 180.063691 87.826734 
L 181.238846 86.058441 
L 181.826423 86.017025 
L 182.414001 86.516008 
L 183.001578 87.265079 
L 183.589155 87.739256 
L 184.176733 87.638191 
L 184.76431 87.920022 
L 185.351888 86.861664 
L 185.939465 86.289226 
L 186.527043 85.352166 
L 188.877353 77.57783 
L 190.052508 76.465075 
L 190.640085 77.355179 
L 191.81524 78.558694 
L 192.402818 78.100664 
L 192.990395 77.7918 
L 193.577973 77.697922 
L 194.16555 76.420435 
L 194.753128 73.44175 
L 195.928283 69.916982 
L 196.51586 69.096544 
L 198.278592 65.79408 
L 198.86617 64.906048 
L 199.453747 62.837411 
L 200.041325 61.990619 
L 200.628902 61.764139 
L 201.804057 62.053316 
L 202.391635 62.323711 
L 202.979212 62.026365 
L 203.56679 61.99733 
L 204.154367 61.785117 
L 204.741945 62.182632 
L 205.329522 62.337044 
L 205.9171 62.226222 
L 206.504677 61.720211 
L 207.092255 61.671586 
L 208.26741 62.013728 
L 209.442565 61.744182 
L 210.030142 61.532972 
L 211.205297 61.846359 
L 211.792874 61.645025 
L 213.555607 61.503029 
L 214.143184 61.597576 
L 214.730762 62.409532 
L 215.318339 62.106895 
L 215.905917 62.423101 
L 216.493494 62.257369 
L 217.081072 62.504079 
L 217.668649 62.074273 
L 218.256227 62.144671 
L 218.843804 61.396015 
L 219.431382 61.698798 
L 220.018959 61.632568 
L 220.606537 61.721675 
L 221.194114 61.379324 
L 221.781692 62.050264 
L 222.369269 61.774667 
L 224.719579 61.64606 
L 225.307157 62.004957 
L 225.894734 61.506036 
L 226.482311 61.767617 
L 227.069889 61.85219 
L 227.657466 61.776788 
L 228.245044 62.005763 
L 229.420199 61.601039 
L 230.007776 61.74304 
L 232.358086 61.439815 
L 235.295974 62.454476 
L 235.883551 62.347936 
L 236.471129 63.180285 
L 237.646284 62.531333 
L 238.821439 62.152822 
L 239.409016 62.106572 
L 239.996593 62.174152 
L 240.584171 61.437242 
L 241.171748 61.829059 
L 241.759326 61.622676 
L 242.346903 61.676203 
L 243.522058 61.564178 
L 244.697213 61.723145 
L 245.284791 61.540668 
L 245.872368 61.685025 
L 246.459946 61.646088 
L 247.047523 61.760466 
L 247.635101 61.655269 
L 248.810256 61.729472 
L 249.397833 61.608589 
L 251.748143 61.870235 
L 252.923298 61.570743 
L 253.510876 61.76017 
L 254.098453 61.674915 
L 254.68603 61.826979 
L 255.861185 61.733262 
L 257.03634 61.950646 
L 259.38665 61.704244 
L 259.974228 61.870089 
L 260.561805 62.27642 
L 262.912115 62.406939 
L 263.499693 62.295247 
L 264.674848 61.756769 
L 265.262425 61.943033 
L 265.850003 61.665382 
L 266.43758 61.808436 
L 267.025158 61.767717 
L 267.612735 62.09861 
L 268.200313 62.132177 
L 268.78789 62.660437 
L 269.375467 62.65182 
L 269.963045 62.968634 
L 270.550622 62.902851 
L 271.1382 63.213226 
L 271.725777 62.986616 
L 272.313355 62.910845 
L 273.48851 61.990532 
L 274.663665 62.008834 
L 275.251242 61.77572 
L 276.426397 61.962561 
L 278.18913 61.835324 
L 279.364285 62.481047 
L 280.53944 63.285371 
L 281.127017 63.471498 
L 281.714595 64.824697 
L 282.302172 65.443405 
L 282.889749 65.385065 
L 283.477327 65.141801 
L 284.064904 64.434542 
L 285.240059 63.777519 
L 285.827637 62.768586 
L 286.415214 62.236927 
L 287.002792 62.156639 
L 287.590369 62.571371 
L 288.177947 62.778407 
L 288.765524 63.578209 
L 289.353102 64.885191 
L 289.940679 65.296886 
L 290.528257 65.49384 
L 292.290989 77.805719 
L 294.641299 92.417421 
L 295.228877 92.52299 
L 295.816454 92.47112 
L 296.404032 92.299265 
L 296.991609 92.38837 
L 297.579186 92.659008 
L 298.166764 92.749059 
L 298.754341 93.010157 
L 299.341919 92.680476 
L 299.929496 92.940034 
L 301.104651 92.908775 
L 301.692229 92.606135 
L 302.279806 92.082036 
L 302.867384 91.997707 
L 303.454961 92.224272 
L 304.042539 92.02142 
L 305.217694 92.308657 
L 305.805271 92.063512 
L 306.980426 92.462707 
L 307.568004 92.417461 
L 308.155581 92.106417 
L 308.743159 90.71418 
L 310.505891 85.773827 
L 311.681046 80.607253 
L 312.268623 78.755837 
L 312.856201 78.328491 
L 313.443778 78.127928 
L 314.031356 78.561301 
L 314.618933 78.844807 
L 315.206511 80.063359 
L 315.794088 80.440263 
L 316.381666 79.604193 
L 317.556821 77.376842 
L 318.144398 75.705291 
L 319.319553 73.686553 
L 319.907131 73.408694 
L 320.494708 72.719018 
L 321.082286 72.340993 
L 321.669863 71.700351 
L 322.257441 72.677467 
L 322.845018 73.884481 
L 323.432596 74.832211 
L 324.020173 73.644381 
L 324.607751 74.438254 
L 325.195328 74.573615 
L 325.782905 74.86655 
L 326.370483 74.815688 
L 326.95806 73.257559 
L 327.545638 72.052319 
L 328.133215 71.832252 
L 328.720793 71.194611 
L 329.30837 70.276538 
L 329.895948 69.764242 
L 330.483525 68.273799 
L 331.071103 68.635909 
L 331.65868 67.524705 
L 332.246258 67.860772 
L 332.833835 67.750441 
L 333.421413 69.631226 
L 334.00899 70.225772 
L 334.596568 70.979814 
L 335.184145 70.808356 
L 336.3593 73.161052 
L 336.946878 74.285108 
L 337.534455 73.787057 
L 338.122033 74.834765 
L 339.297188 76.064621 
L 339.884765 75.786198 
L 340.472342 75.169189 
L 341.05992 74.752891 
L 341.647497 75.002248 
L 343.41023 73.501932 
L 344.585385 75.283443 
L 345.172962 75.793095 
L 345.76054 74.649673 
L 347.523272 73.121717 
L 349.286005 69.989442 
L 349.873582 69.735085 
L 350.46116 68.867583 
L 351.048737 68.271442 
L 352.223892 66.104919 
L 352.81147 64.141948 
L 353.399047 63.543227 
L 353.986624 63.356879 
L 355.749357 64.009111 
L 356.336934 63.900157 
L 357.512089 66.536077 
L 358.099667 67.388791 
L 358.687244 67.446624 
L 359.274822 67.774878 
L 360.449977 70.233834 
L 361.037554 70.747047 
L 361.625132 70.190927 
L 362.212709 70.033796 
L 362.800287 69.680546 
L 363.387864 68.913983 
L 363.975442 67.956588 
L 364.563019 67.846104 
L 365.738174 68.424696 
L 366.325752 67.932547 
L 367.500907 70.025017 
L 368.088484 70.215921 
L 369.851216 69.167612 
L 370.438794 70.026607 
L 371.613949 69.473048 
L 372.201526 69.50624 
L 373.376681 67.85056 
L 374.551836 65.186172 
L 375.139414 64.507613 
L 375.726991 64.270111 
L 376.314569 65.000084 
L 376.902146 66.3895 
L 377.489724 66.967801 
L 378.077301 67.923638 
L 378.664879 68.172282 
L 379.840034 68.238988 
L 380.427611 66.428833 
L 381.015189 63.987104 
L 381.602766 62.592722 
L 382.190343 60.799198 
L 383.953076 57.121536 
L 385.128231 56.172263 
L 385.715808 55.814536 
L 386.303386 55.103233 
L 386.890963 54.20225 
L 387.478541 54.000981 
L 388.066118 53.139868 
L 388.653696 51.132833 
L 389.241273 49.960086 
L 389.828851 47.788851 
L 392.179161 41.076019 
L 392.766738 41.621555 
L 393.354316 42.434592 
L 393.941893 43.661427 
L 394.529471 43.995483 
L 395.117048 45.173304 
L 395.704626 45.607795 
L 396.292203 45.23509 
L 396.87978 43.532887 
L 397.467358 41.444487 
L 398.054935 39.970903 
L 398.642513 40.256632 
L 399.23009 39.361241 
L 399.817668 38.905364 
L 400.405245 39.611875 
L 401.5804 42.216639 
L 402.167978 42.921716 
L 402.755555 43.922319 
L 403.343133 45.501506 
L 403.93071 45.917589 
L 404.518288 46.873423 
L 405.105865 48.191952 
L 405.693443 49.978741 
L 406.28102 50.969603 
L 408.043753 51.311523 
L 408.63133 50.732325 
L 409.218908 49.626139 
L 410.394063 46.593869 
L 410.98164 45.997546 
L 411.569217 44.366671 
L 412.156795 44.943175 
L 412.744372 44.662435 
L 413.33195 44.780838 
L 413.919527 44.368553 
L 414.507105 45.043434 
L 415.094682 46.00539 
L 415.68226 47.794382 
L 416.269837 46.748714 
L 416.857415 47.31792 
L 417.444992 46.813288 
L 418.620147 45.419498 
L 419.207725 43.636613 
L 419.795302 40.728475 
L 420.970457 38.833369 
L 421.558035 37.614724 
L 422.145612 37.866734 
L 422.73319 37.893821 
L 423.320767 37.022986 
L 423.908345 37.678912 
L 424.495922 37.447251 
L 425.083499 37.77389 
L 425.671077 39.458917 
L 426.258654 38.969659 
L 426.846232 39.064309 
L 427.433809 40.125456 
L 428.021387 40.654249 
L 429.196542 45.431592 
L 430.371697 48.558562 
L 430.959274 48.203093 
L 431.546852 47.237917 
L 432.722007 46.791512 
L 433.309584 45.50023 
L 433.897162 44.53293 
L 434.484739 45.297921 
L 436.247472 68.563997 
L 438.597782 92.87937 
L 439.185359 93.071052 
L 440.360514 90.277655 
L 441.535669 91.629998 
L 442.123246 92.313162 
L 442.710824 92.749263 
L 443.298401 93.470875 
L 444.473556 99.173826 
L 445.061134 100.401639 
L 445.648711 100.72638 
L 446.236289 101.181687 
L 446.823866 101.809908 
L 447.411444 101.794673 
L 448.586599 102.840514 
L 449.174176 102.349327 
L 452.112064 96.002003 
L 452.699641 93.823237 
L 453.287218 92.827196 
L 453.874796 92.82393 
L 455.049951 93.955644 
L 455.637528 92.848954 
L 457.400261 97.135629 
L 457.987838 96.723188 
L 458.575416 97.376368 
L 459.162993 98.42104 
L 459.750571 100.095111 
L 460.338148 98.766782 
L 460.925726 96.538504 
L 461.513303 95.057629 
L 462.100881 95.528801 
L 463.276036 94.050332 
L 464.451191 94.389247 
L 465.038768 95.076624 
L 465.626346 95.340283 
L 466.213923 94.575457 
L 466.801501 94.321091 
L 467.976655 93.4436 
L 468.564233 93.480684 
L 469.15181 91.433565 
L 469.739388 90.845386 
L 470.326965 91.48717 
L 470.914543 91.796921 
L 471.50212 92.235519 
L 472.089698 93.149653 
L 472.677275 93.585629 
L 473.264853 96.54578 
L 473.85243 98.114556 
L 474.440008 98.871462 
L 475.027585 98.950909 
L 475.027585 98.950909 
" clip-path="url(#pf9872c2e4b)" style="fill: none; stroke: #cc3333; stroke-width: 1.5; stroke-linecap: square"/>
   </g>
   <g id="text_21">
    <!-- Pectra -->
    <g style="fill: #888888" transform="translate(289.868022 51.095753) rotate(-90) scale(0.06 -0.06)">
     <defs>
      <path id="DejaVuSerif-50" d="M 1581 2375 
L 2406 2375 
Q 2872 2375 3115 2626 
Q 3359 2878 3359 3353 
Q 3359 3831 3115 4081 
Q 2872 4331 2406 4331 
L 1581 4331 
L 1581 2375 
z
M 353 0 
L 353 331 
L 947 331 
L 947 4331 
L 353 4331 
L 353 4666 
L 2559 4666 
Q 3259 4666 3668 4311 
Q 4078 3956 4078 3353 
Q 4078 2753 3668 2397 
Q 3259 2041 2559 2041 
L 1581 2041 
L 1581 331 
L 2303 331 
L 2303 0 
L 353 0 
z
" transform="scale(0.015625)"/>
      <path id="DejaVuSerif-61" d="M 2547 1044 
L 2547 1747 
L 1806 1747 
Q 1378 1747 1168 1562 
Q 959 1378 959 997 
Q 959 650 1171 447 
Q 1384 244 1747 244 
Q 2106 244 2326 466 
Q 2547 688 2547 1044 
z
M 3122 2075 
L 3122 331 
L 3634 331 
L 3634 0 
L 2547 0 
L 2547 359 
Q 2356 128 2106 18 
Q 1856 -91 1522 -91 
Q 969 -91 644 203 
Q 319 497 319 997 
Q 319 1513 691 1797 
Q 1063 2081 1741 2081 
L 2547 2081 
L 2547 2309 
Q 2547 2688 2317 2895 
Q 2088 3103 1672 3103 
Q 1328 3103 1125 2947 
Q 922 2791 872 2484 
L 575 2484 
L 575 3156 
Q 875 3284 1158 3348 
Q 1441 3413 1709 3413 
Q 2400 3413 2761 3070 
Q 3122 2728 3122 2075 
z
" transform="scale(0.015625)"/>
     </defs>
     <use xlink:href="#DejaVuSerif-50"/>
     <use xlink:href="#DejaVuSerif-65" transform="translate(62.785156 0)"/>
     <use xlink:href="#DejaVuSerif-63" transform="translate(121.964844 0)"/>
     <use xlink:href="#DejaVuSerif-74" transform="translate(177.970703 0)"/>
     <use xlink:href="#DejaVuSerif-72" transform="translate(218.15625 0)"/>
     <use xlink:href="#DejaVuSerif-61" transform="translate(265.958984 0)"/>
    </g>
   </g>
   <g id="text_22">
    <!-- BPO1 -->
    <g style="fill: #888888" transform="translate(433.824504 48.743566) rotate(-90) scale(0.06 -0.06)">
     <defs>
      <path id="DejaVuSerif-42" d="M 1581 331 
L 2516 331 
Q 3078 331 3337 575 
Q 3597 819 3597 1350 
Q 3597 1878 3339 2120 
Q 3081 2363 2516 2363 
L 1581 2363 
L 1581 331 
z
M 1581 2694 
L 2375 2694 
Q 2888 2694 3123 2891 
Q 3359 3088 3359 3513 
Q 3359 3941 3123 4136 
Q 2888 4331 2375 4331 
L 1581 4331 
L 1581 2694 
z
M 353 0 
L 353 331 
L 947 331 
L 947 4331 
L 353 4331 
L 353 4666 
L 2656 4666 
Q 3363 4666 3720 4377 
Q 4078 4088 4078 3513 
Q 4078 3097 3829 2850 
Q 3581 2603 3103 2547 
Q 3697 2472 4005 2167 
Q 4313 1863 4313 1350 
Q 4313 656 3875 328 
Q 3438 0 2509 0 
L 353 0 
z
" transform="scale(0.015625)"/>
     </defs>
     <use xlink:href="#DejaVuSerif-42"/>
     <use xlink:href="#DejaVuSerif-50" transform="translate(73.486328 0)"/>
     <use xlink:href="#DejaVuSerif-4f" transform="translate(140.771484 0)"/>
     <use xlink:href="#DejaVuSerif-31" transform="translate(222.753906 0)"/>
    </g>
   </g>
   <g id="text_23">
    <!-- Ethereum  DA Utilization (%) -->
    <g transform="translate(181.021016 19.158281) scale(0.11 -0.11)">
     <defs>
      <path id="DejaVuSerif-45" d="M 353 0 
L 353 331 
L 947 331 
L 947 4331 
L 353 4331 
L 353 4666 
L 4109 4666 
L 4109 3628 
L 3725 3628 
L 3725 4281 
L 1581 4281 
L 1581 2719 
L 3109 2719 
L 3109 3303 
L 3494 3303 
L 3494 1753 
L 3109 1753 
L 3109 2338 
L 1581 2338 
L 1581 384 
L 3775 384 
L 3775 1038 
L 4159 1038 
L 4159 0 
L 353 0 
z
" transform="scale(0.015625)"/>
      <path id="DejaVuSerif-68" d="M 263 0 
L 263 331 
L 781 331 
L 781 4531 
L 231 4531 
L 231 4863 
L 1356 4863 
L 1356 2731 
Q 1516 3069 1770 3241 
Q 2025 3413 2363 3413 
Q 2913 3413 3172 3097 
Q 3431 2781 3431 2113 
L 3431 331 
L 3944 331 
L 3944 0 
L 2356 0 
L 2356 331 
L 2853 331 
L 2853 1931 
Q 2853 2541 2704 2764 
Q 2556 2988 2175 2988 
Q 1775 2988 1565 2697 
Q 1356 2406 1356 1850 
L 1356 331 
L 1856 331 
L 1856 0 
L 263 0 
z
" transform="scale(0.015625)"/>
      <path id="DejaVuSerif-6d" d="M 3316 2675 
Q 3481 3041 3739 3227 
Q 3997 3413 4341 3413 
Q 4863 3413 5119 3089 
Q 5375 2766 5375 2113 
L 5375 331 
L 5894 331 
L 5894 0 
L 4300 0 
L 4300 331 
L 4800 331 
L 4800 2047 
Q 4800 2556 4650 2772 
Q 4500 2988 4153 2988 
Q 3769 2988 3567 2697 
Q 3366 2406 3366 1850 
L 3366 331 
L 3866 331 
L 3866 0 
L 2291 0 
L 2291 331 
L 2791 331 
L 2791 2069 
Q 2791 2566 2641 2777 
Q 2491 2988 2144 2988 
Q 1759 2988 1557 2697 
Q 1356 2406 1356 1850 
L 1356 331 
L 1856 331 
L 1856 0 
L 263 0 
L 263 331 
L 781 331 
L 781 2994 
L 231 2994 
L 231 3322 
L 1356 3322 
L 1356 2731 
Q 1516 3063 1762 3238 
Q 2009 3413 2322 3413 
Q 2709 3413 2968 3220 
Q 3228 3028 3316 2675 
z
" transform="scale(0.015625)"/>
      <path id="DejaVuSerif-2014" d="M 281 1906 
L 6119 1906 
L 6119 1491 
L 281 1491 
L 281 1906 
z
" transform="scale(0.015625)"/>
      <path id="DejaVuSerif-55" d="M 897 4331 
L 300 4331 
L 300 4666 
L 2125 4666 
L 2125 4331 
L 1528 4331 
L 1528 1919 
Q 1528 1025 1820 672 
Q 2113 319 2828 319 
Q 3544 319 3836 672 
Q 4128 1025 4128 1919 
L 4128 4331 
L 3531 4331 
L 3531 4666 
L 5106 4666 
L 5106 4331 
L 4513 4331 
L 4513 1856 
Q 4513 791 4103 350 
Q 3694 -91 2713 -91 
Q 1731 -91 1314 353 
Q 897 797 897 1856 
L 897 4331 
z
" transform="scale(0.015625)"/>
      <path id="DejaVuSerif-69" d="M 622 4353 
Q 622 4497 726 4603 
Q 831 4709 978 4709 
Q 1122 4709 1226 4603 
Q 1331 4497 1331 4353 
Q 1331 4206 1228 4103 
Q 1125 4000 978 4000 
Q 831 4000 726 4103 
Q 622 4206 622 4353 
z
M 1356 331 
L 1900 331 
L 1900 0 
L 231 0 
L 231 331 
L 781 331 
L 781 2988 
L 231 2988 
L 231 3322 
L 1356 3322 
L 1356 331 
z
" transform="scale(0.015625)"/>
      <path id="DejaVuSerif-6c" d="M 1313 331 
L 1856 331 
L 1856 0 
L 184 0 
L 184 331 
L 738 331 
L 738 4531 
L 184 4531 
L 184 4863 
L 1313 4863 
L 1313 331 
z
" transform="scale(0.015625)"/>
      <path id="DejaVuSerif-7a" d="M 256 0 
L 256 269 
L 2338 2988 
L 691 2988 
L 691 2413 
L 359 2413 
L 359 3322 
L 3078 3322 
L 3078 3053 
L 997 331 
L 2803 331 
L 2803 934 
L 3138 934 
L 3138 0 
L 256 0 
z
" transform="scale(0.015625)"/>
      <path id="DejaVuSerif-6f" d="M 1925 219 
Q 2388 219 2623 584 
Q 2859 950 2859 1663 
Q 2859 2375 2623 2739 
Q 2388 3103 1925 3103 
Q 1463 3103 1227 2739 
Q 991 2375 991 1663 
Q 991 950 1228 584 
Q 1466 219 1925 219 
z
M 1925 -91 
Q 1200 -91 759 389 
Q 319 869 319 1663 
Q 319 2456 758 2934 
Q 1197 3413 1925 3413 
Q 2653 3413 3092 2934 
Q 3531 2456 3531 1663 
Q 3531 869 3092 389 
Q 2653 -91 1925 -91 
z
" transform="scale(0.015625)"/>
      <path id="DejaVuSerif-28" d="M 2041 -997 
Q 1281 -656 893 83 
Q 506 822 506 1931 
Q 506 3044 893 3783 
Q 1281 4522 2041 4863 
L 2041 4556 
Q 1559 4225 1350 3623 
Q 1141 3022 1141 1931 
Q 1141 844 1350 242 
Q 1559 -359 2041 -691 
L 2041 -997 
z
" transform="scale(0.015625)"/>
      <path id="DejaVuSerif-29" d="M 453 -997 
L 453 -691 
Q 934 -359 1145 242 
Q 1356 844 1356 1931 
Q 1356 3022 1145 3623 
Q 934 4225 453 4556 
L 453 4863 
Q 1216 4522 1603 3783 
Q 1991 3044 1991 1931 
Q 1991 822 1603 83 
Q 1216 -656 453 -997 
z
" transform="scale(0.015625)"/>
     </defs>
     <use xlink:href="#DejaVuSerif-45"/>
     <use xlink:href="#DejaVuSerif-74" transform="translate(72.998047 0)"/>
     <use xlink:href="#DejaVuSerif-68" transform="translate(113.183594 0)"/>
     <use xlink:href="#DejaVuSerif-65" transform="translate(177.587891 0)"/>
     <use xlink:href="#DejaVuSerif-72" transform="translate(236.767578 0)"/>
     <use xlink:href="#DejaVuSerif-65" transform="translate(284.570312 0)"/>
     <use xlink:href="#DejaVuSerif-75" transform="translate(343.75 0)"/>
     <use xlink:href="#DejaVuSerif-6d" transform="translate(408.154297 0)"/>
     <use xlink:href="#DejaVuSerif-20" transform="translate(502.978516 0)"/>
     <use xlink:href="#DejaVuSerif-2014" transform="translate(534.765625 0)"/>
     <use xlink:href="#DejaVuSerif-20" transform="translate(634.765625 0)"/>
     <use xlink:href="#DejaVuSerif-44" transform="translate(666.552734 0)"/>
     <use xlink:href="#DejaVuSerif-41" transform="translate(746.728516 0)"/>
     <use xlink:href="#DejaVuSerif-20" transform="translate(818.945312 0)"/>
     <use xlink:href="#DejaVuSerif-55" transform="translate(850.732422 0)"/>
     <use xlink:href="#DejaVuSerif-74" transform="translate(935.009766 0)"/>
     <use xlink:href="#DejaVuSerif-69" transform="translate(975.195312 0)"/>
     <use xlink:href="#DejaVuSerif-6c" transform="translate(1007.177734 0)"/>
     <use xlink:href="#DejaVuSerif-69" transform="translate(1039.160156 0)"/>
     <use xlink:href="#DejaVuSerif-7a" transform="translate(1071.142578 0)"/>
     <use xlink:href="#DejaVuSerif-61" transform="translate(1123.828125 0)"/>
     <use xlink:href="#DejaVuSerif-74" transform="translate(1183.447266 0)"/>
     <use xlink:href="#DejaVuSerif-69" transform="translate(1223.632812 0)"/>
     <use xlink:href="#DejaVuSerif-6f" transform="translate(1255.615234 0)"/>
     <use xlink:href="#DejaVuSerif-6e" transform="translate(1315.820312 0)"/>
     <use xlink:href="#DejaVuSerif-20" transform="translate(1380.224609 0)"/>
     <use xlink:href="#DejaVuSerif-28" transform="translate(1412.011719 0)"/>
     <use xlink:href="#DejaVuSerif-25" transform="translate(1451.025391 0)"/>
     <use xlink:href="#DejaVuSerif-29" transform="translate(1546.044922 0)"/>
    </g>
   </g>
   <g id="legend_1">
    <g id="patch_5">
     <path d="M 422.149063 55.157031 
L 490.110313 55.157031 
Q 491.710313 55.157031 491.710313 53.557031 
L 491.710313 30.758281 
Q 491.710313 29.158281 490.110313 29.158281 
L 422.149063 29.158281 
Q 420.549063 29.158281 420.549063 30.758281 
L 420.549063 53.557031 
Q 420.549063 55.157031 422.149063 55.157031 
z
" style="fill: #ffffff; opacity: 0.9; stroke: #cccccc; stroke-linejoin: miter"/>
    </g>
    <g id="patch_6">
     <path d="M 423.749063 38.437031 
L 439.749063 38.437031 
L 439.749063 32.837031 
L 423.749063 32.837031 
z
" style="fill: #b3cde3; fill-opacity: 0.6; stroke: #b3cde3; stroke-opacity: 0.6; stroke-linejoin: miter"/>
    </g>
    <g id="text_24">
     <!-- Utilization -->
     <g transform="translate(446.149063 38.437031) scale(0.08 -0.08)">
      <use xlink:href="#DejaVuSerif-55"/>
      <use xlink:href="#DejaVuSerif-74" transform="translate(84.277344 0)"/>
      <use xlink:href="#DejaVuSerif-69" transform="translate(124.462891 0)"/>
      <use xlink:href="#DejaVuSerif-6c" transform="translate(156.445312 0)"/>
      <use xlink:href="#DejaVuSerif-69" transform="translate(188.427734 0)"/>
      <use xlink:href="#DejaVuSerif-7a" transform="translate(220.410156 0)"/>
      <use xlink:href="#DejaVuSerif-61" transform="translate(273.095703 0)"/>
      <use xlink:href="#DejaVuSerif-74" transform="translate(332.714844 0)"/>
      <use xlink:href="#DejaVuSerif-69" transform="translate(372.900391 0)"/>
      <use xlink:href="#DejaVuSerif-6f" transform="translate(404.882812 0)"/>
      <use xlink:href="#DejaVuSerif-6e" transform="translate(465.087891 0)"/>
     </g>
    </g>
    <g id="line2d_42">
     <path d="M 423.749063 47.379531 
L 431.749063 47.379531 
L 439.749063 47.379531 
" style="fill: none; stroke: #cc3333; stroke-width: 1.5; stroke-linecap: square"/>
    </g>
    <g id="text_25">
     <!-- 7d avg -->
     <g transform="translate(446.149063 50.179531) scale(0.08 -0.08)">
      <defs>
       <path id="DejaVuSerif-37" d="M 3609 4347 
L 1784 0 
L 1319 0 
L 3059 4153 
L 903 4153 
L 903 3578 
L 538 3578 
L 538 4666 
L 3609 4666 
L 3609 4347 
z
" transform="scale(0.015625)"/>
       <path id="DejaVuSerif-64" d="M 3359 331 
L 3909 331 
L 3909 0 
L 2784 0 
L 2784 519 
Q 2616 206 2355 57 
Q 2094 -91 1709 -91 
Q 1097 -91 708 395 
Q 319 881 319 1663 
Q 319 2444 706 2928 
Q 1094 3413 1709 3413 
Q 2094 3413 2355 3264 
Q 2616 3116 2784 2803 
L 2784 4531 
L 2241 4531 
L 2241 4863 
L 3359 4863 
L 3359 331 
z
M 2784 1497 
L 2784 1825 
Q 2784 2422 2554 2737 
Q 2325 3053 1888 3053 
Q 1444 3053 1217 2703 
Q 991 2353 991 1663 
Q 991 975 1217 622 
Q 1444 269 1888 269 
Q 2325 269 2554 583 
Q 2784 897 2784 1497 
z
" transform="scale(0.015625)"/>
       <path id="DejaVuSerif-76" d="M 1581 0 
L 359 2988 
L -19 2988 
L -19 3322 
L 1509 3322 
L 1509 2988 
L 978 2988 
L 1913 703 
L 2847 2988 
L 2350 2988 
L 2350 3322 
L 3597 3322 
L 3597 2988 
L 3225 2988 
L 2003 0 
L 1581 0 
z
" transform="scale(0.015625)"/>
      </defs>
      <use xlink:href="#DejaVuSerif-37"/>
      <use xlink:href="#DejaVuSerif-64" transform="translate(63.623047 0)"/>
      <use xlink:href="#DejaVuSerif-20" transform="translate(127.636719 0)"/>
      <use xlink:href="#DejaVuSerif-61" transform="translate(159.423828 0)"/>
      <use xlink:href="#DejaVuSerif-76" transform="translate(219.042969 0)"/>
      <use xlink:href="#DejaVuSerif-67" transform="translate(275.537109 0)"/>
     </g>
    </g>
   </g>
  </g>
 </g>
 <defs>
  <clipPath id="pf9872c2e4b">
   <rect x="40.690312" y="25.158281" width="455.02" height="134.153579"/>
  </clipPath>
 </defs>
</svg>
