<?xml version="1.0" encoding="utf-8" standalone="no"?>
<!DOCTYPE svg PUBLIC "-//W3C//DTD SVG 1.1//EN"
  "http://www.w3.org/Graphics/SVG/1.1/DTD/svg11.dtd">
<svg xmlns:xlink="http://www.w3.org/1999/xlink" width="505.93875pt" height="203.613966pt" viewBox="0 0 505.93875 203.613966" xmlns="http://www.w3.org/2000/svg" version="1.1">
 <metadata>
  <rdf:RDF xmlns:dc="http://purl.org/dc/elements/1.1/" xmlns:cc="http://creativecommons.org/ns#" xmlns:rdf="http://www.w3.org/1999/02/22-rdf-syntax-ns#">
   <cc:Work>
    <dc:type rdf:resource="http://purl.org/dc/dcmitype/StillImage"/>
    <dc:date>2026-02-16T20:22:44.816616</dc:date>
    <dc:format>image/svg+xml</dc:format>
    <dc:creator>
     <cc:Agent>
      <dc:title>Matplotlib v3.9.4, https://matplotlib.org/</dc:title>
     </cc:Agent>
    </dc:creator>
   </cc:Work>
  </rdf:RDF>
 </metadata>
 <defs>
  <style type="text/css">*{stroke-linejoin: round; stroke-linecap: butt}</style>
 </defs>
 <g id="figure_1">
  <g id="patch_1">
   <path d="M 0 203.613966 
L 505.93875 203.613966 
L 505.93875 0 
L 0 0 
z
" style="fill: #ffffff"/>
  </g>
  <g id="axes_1">
   <g id="patch_2">
    <path d="M 48.322812 159.843139 
L 495.13875 159.843139 
L 495.13875 25.158281 
L 48.322812 25.158281 
z
" style="fill: #ffffff"/>
   </g>
   <g id="matplotlib.axis_1">
    <g id="xtick_1">
     <g id="line2d_1">
      <path d="M 138.515863 159.843139 
L 138.515863 25.158281 
" clip-path="url(#p95d42a4b3d)" style="fill: none; stroke: #b0b0b0; stroke-opacity: 0.25; stroke-width: 0.5; stroke-linecap: square"/>
     </g>
     <g id="line2d_2">
      <defs>
       <path id="md0ec6a96a8" d="M 0 0 
L 0 3.5 
" style="stroke: #000000; stroke-width: 0.8"/>
      </defs>
      <g>
       <use xlink:href="#md0ec6a96a8" x="138.515863" y="159.843139" style="stroke: #000000; stroke-width: 0.8"/>
      </g>
     </g>
     <g id="text_1">
      <!-- Dec 2025 -->
      <g transform="translate(104.314947 191.373116) rotate(-30) scale(0.08 -0.08)">
       <defs>
        <path id="DejaVuSerif-44" d="M 1581 331 
L 2163 331 
Q 3072 331 3558 850 
Q 4044 1369 4044 2338 
Q 4044 3306 3559 3818 
Q 3075 4331 2163 4331 
L 1581 4331 
L 1581 331 
z
M 353 0 
L 353 331 
L 947 331 
L 947 4331 
L 353 4331 
L 353 4666 
L 2209 4666 
Q 3416 4666 4089 4050 
Q 4763 3434 4763 2338 
Q 4763 1238 4088 619 
Q 3413 0 2209 0 
L 353 0 
z
" transform="scale(0.015625)"/>
        <path id="DejaVuSerif-65" d="M 3469 1600 
L 991 1600 
L 991 1575 
Q 991 903 1244 561 
Q 1497 219 1991 219 
Q 2369 219 2611 417 
Q 2853 616 2950 1006 
L 3413 1006 
Q 3275 459 2904 184 
Q 2534 -91 1931 -91 
Q 1203 -91 761 389 
Q 319 869 319 1663 
Q 319 2450 753 2931 
Q 1188 3413 1894 3413 
Q 2647 3413 3050 2948 
Q 3453 2484 3469 1600 
z
M 2791 1931 
Q 2772 2513 2545 2808 
Q 2319 3103 1894 3103 
Q 1497 3103 1269 2806 
Q 1041 2509 991 1931 
L 2791 1931 
z
" transform="scale(0.015625)"/>
        <path id="DejaVuSerif-63" d="M 3291 997 
Q 3169 466 2822 187 
Q 2475 -91 1925 -91 
Q 1200 -91 759 389 
Q 319 869 319 1663 
Q 319 2459 759 2936 
Q 1200 3413 1925 3413 
Q 2241 3413 2553 3339 
Q 2866 3266 3181 3116 
L 3181 2266 
L 2847 2266 
Q 2781 2703 2561 2903 
Q 2341 3103 1931 3103 
Q 1466 3103 1228 2742 
Q 991 2381 991 1663 
Q 991 944 1227 581 
Q 1463 219 1931 219 
Q 2303 219 2525 412 
Q 2747 606 2828 997 
L 3291 997 
z
" transform="scale(0.015625)"/>
        <path id="DejaVuSerif-20" transform="scale(0.015625)"/>
        <path id="DejaVuSerif-32" d="M 819 3553 
L 469 3553 
L 469 4384 
Q 803 4563 1142 4656 
Q 1481 4750 1806 4750 
Q 2534 4750 2956 4397 
Q 3378 4044 3378 3438 
Q 3378 2753 2422 1800 
Q 2347 1728 2309 1691 
L 1131 513 
L 3078 513 
L 3078 1088 
L 3444 1088 
L 3444 0 
L 434 0 
L 434 341 
L 1850 1753 
Q 2319 2222 2519 2614 
Q 2719 3006 2719 3438 
Q 2719 3909 2473 4175 
Q 2228 4441 1797 4441 
Q 1350 4441 1106 4219 
Q 863 3997 819 3553 
z
" transform="scale(0.015625)"/>
        <path id="DejaVuSerif-30" d="M 2034 219 
Q 2513 219 2750 744 
Q 2988 1269 2988 2328 
Q 2988 3391 2750 3916 
Q 2513 4441 2034 4441 
Q 1556 4441 1318 3916 
Q 1081 3391 1081 2328 
Q 1081 1269 1318 744 
Q 1556 219 2034 219 
z
M 2034 -91 
Q 1275 -91 848 546 
Q 422 1184 422 2328 
Q 422 3475 848 4112 
Q 1275 4750 2034 4750 
Q 2797 4750 3222 4112 
Q 3647 3475 3647 2328 
Q 3647 1184 3222 546 
Q 2797 -91 2034 -91 
z
" transform="scale(0.015625)"/>
        <path id="DejaVuSerif-35" d="M 3219 4666 
L 3219 4153 
L 1081 4153 
L 1081 2816 
Q 1244 2928 1461 2984 
Q 1678 3041 1947 3041 
Q 2703 3041 3140 2622 
Q 3578 2203 3578 1478 
Q 3578 738 3136 323 
Q 2694 -91 1894 -91 
Q 1572 -91 1234 -12 
Q 897 66 544 225 
L 544 1131 
L 897 1131 
Q 925 688 1179 453 
Q 1434 219 1894 219 
Q 2388 219 2653 544 
Q 2919 869 2919 1478 
Q 2919 2084 2655 2407 
Q 2391 2731 1894 2731 
Q 1613 2731 1398 2631 
Q 1184 2531 1019 2322 
L 750 2322 
L 750 4666 
L 3219 4666 
z
" transform="scale(0.015625)"/>
       </defs>
       <use xlink:href="#DejaVuSerif-44"/>
       <use xlink:href="#DejaVuSerif-65" x="80.175781"/>
       <use xlink:href="#DejaVuSerif-63" x="139.355469"/>
       <use xlink:href="#DejaVuSerif-20" x="195.361328"/>
       <use xlink:href="#DejaVuSerif-32" x="227.148438"/>
       <use xlink:href="#DejaVuSerif-30" x="290.771484"/>
       <use xlink:href="#DejaVuSerif-32" x="354.394531"/>
       <use xlink:href="#DejaVuSerif-35" x="418.017578"/>
      </g>
     </g>
    </g>
    <g id="xtick_2">
     <g id="line2d_3">
      <path d="M 273.914632 159.843139 
L 273.914632 25.158281 
" clip-path="url(#p95d42a4b3d)" style="fill: none; stroke: #b0b0b0; stroke-opacity: 0.25; stroke-width: 0.5; stroke-linecap: square"/>
     </g>
     <g id="line2d_4">
      <g>
       <use xlink:href="#md0ec6a96a8" x="273.914632" y="159.843139" style="stroke: #000000; stroke-width: 0.8"/>
      </g>
     </g>
     <g id="text_2">
      <!-- Jan 2026 -->
      <g transform="translate(241.877697 190.123741) rotate(-30) scale(0.08 -0.08)">
       <defs>
        <path id="DejaVuSerif-4a" d="M -538 -1119 
L -538 -384 
L -181 -384 
Q -172 -694 -34 -845 
Q 103 -997 378 -997 
Q 750 -997 897 -762 
Q 1044 -528 1044 153 
L 1044 4331 
L 319 4331 
L 319 4666 
L 2272 4666 
L 2272 4331 
L 1678 4331 
L 1678 128 
Q 1678 -644 1368 -987 
Q 1059 -1331 372 -1331 
Q 150 -1331 -79 -1278 
Q -309 -1225 -538 -1119 
z
" transform="scale(0.015625)"/>
        <path id="DejaVuSerif-61" d="M 2547 1044 
L 2547 1747 
L 1806 1747 
Q 1378 1747 1168 1562 
Q 959 1378 959 997 
Q 959 650 1171 447 
Q 1384 244 1747 244 
Q 2106 244 2326 466 
Q 2547 688 2547 1044 
z
M 3122 2075 
L 3122 331 
L 3634 331 
L 3634 0 
L 2547 0 
L 2547 359 
Q 2356 128 2106 18 
Q 1856 -91 1522 -91 
Q 969 -91 644 203 
Q 319 497 319 997 
Q 319 1513 691 1797 
Q 1063 2081 1741 2081 
L 2547 2081 
L 2547 2309 
Q 2547 2688 2317 2895 
Q 2088 3103 1672 3103 
Q 1328 3103 1125 2947 
Q 922 2791 872 2484 
L 575 2484 
L 575 3156 
Q 875 3284 1158 3348 
Q 1441 3413 1709 3413 
Q 2400 3413 2761 3070 
Q 3122 2728 3122 2075 
z
" transform="scale(0.015625)"/>
        <path id="DejaVuSerif-6e" d="M 263 0 
L 263 331 
L 781 331 
L 781 2988 
L 231 2988 
L 231 3322 
L 1356 3322 
L 1356 2731 
Q 1516 3069 1770 3241 
Q 2025 3413 2363 3413 
Q 2913 3413 3172 3097 
Q 3431 2781 3431 2113 
L 3431 331 
L 3944 331 
L 3944 0 
L 2356 0 
L 2356 331 
L 2853 331 
L 2853 1931 
Q 2853 2541 2703 2767 
Q 2553 2994 2175 2994 
Q 1775 2994 1565 2701 
Q 1356 2409 1356 1850 
L 1356 331 
L 1856 331 
L 1856 0 
L 263 0 
z
" transform="scale(0.015625)"/>
        <path id="DejaVuSerif-36" d="M 2094 219 
Q 2534 219 2771 542 
Q 3009 866 3009 1472 
Q 3009 2078 2771 2401 
Q 2534 2725 2094 2725 
Q 1647 2725 1412 2412 
Q 1178 2100 1178 1509 
Q 1178 888 1415 553 
Q 1653 219 2094 219 
z
M 1075 2569 
Q 1288 2803 1556 2918 
Q 1825 3034 2163 3034 
Q 2859 3034 3264 2615 
Q 3669 2197 3669 1472 
Q 3669 763 3233 336 
Q 2797 -91 2069 -91 
Q 1278 -91 853 498 
Q 428 1088 428 2181 
Q 428 3406 931 4078 
Q 1434 4750 2350 4750 
Q 2597 4750 2869 4703 
Q 3141 4656 3425 4563 
L 3425 3794 
L 3072 3794 
Q 3034 4109 2831 4275 
Q 2628 4441 2284 4441 
Q 1678 4441 1381 3981 
Q 1084 3522 1075 2569 
z
" transform="scale(0.015625)"/>
       </defs>
       <use xlink:href="#DejaVuSerif-4a"/>
       <use xlink:href="#DejaVuSerif-61" x="40.087891"/>
       <use xlink:href="#DejaVuSerif-6e" x="99.707031"/>
       <use xlink:href="#DejaVuSerif-20" x="164.111328"/>
       <use xlink:href="#DejaVuSerif-32" x="195.898438"/>
       <use xlink:href="#DejaVuSerif-30" x="259.521484"/>
       <use xlink:href="#DejaVuSerif-32" x="323.144531"/>
       <use xlink:href="#DejaVuSerif-36" x="386.767578"/>
      </g>
     </g>
    </g>
    <g id="xtick_3">
     <g id="line2d_5">
      <path d="M 409.313401 159.843139 
L 409.313401 25.158281 
" clip-path="url(#p95d42a4b3d)" style="fill: none; stroke: #b0b0b0; stroke-opacity: 0.25; stroke-width: 0.5; stroke-linecap: square"/>
     </g>
     <g id="line2d_6">
      <g>
       <use xlink:href="#md0ec6a96a8" x="409.313401" y="159.843139" style="stroke: #000000; stroke-width: 0.8"/>
      </g>
     </g>
     <g id="text_3">
      <!-- Feb 2026 -->
      <g transform="translate(375.685144 191.042491) rotate(-30) scale(0.08 -0.08)">
       <defs>
        <path id="DejaVuSerif-46" d="M 353 0 
L 353 331 
L 947 331 
L 947 4331 
L 353 4331 
L 353 4666 
L 4172 4666 
L 4172 3628 
L 3788 3628 
L 3788 4281 
L 1581 4281 
L 1581 2719 
L 3175 2719 
L 3175 3303 
L 3559 3303 
L 3559 1753 
L 3175 1753 
L 3175 2338 
L 1581 2338 
L 1581 331 
L 2328 331 
L 2328 0 
L 353 0 
z
" transform="scale(0.015625)"/>
        <path id="DejaVuSerif-62" d="M 738 331 
L 738 4531 
L 184 4531 
L 184 4863 
L 1313 4863 
L 1313 2803 
Q 1481 3116 1742 3264 
Q 2003 3413 2388 3413 
Q 3000 3413 3387 2928 
Q 3775 2444 3775 1663 
Q 3775 881 3387 395 
Q 3000 -91 2388 -91 
Q 2003 -91 1742 57 
Q 1481 206 1313 519 
L 1313 0 
L 184 0 
L 184 331 
L 738 331 
z
M 1313 1497 
Q 1313 897 1542 583 
Q 1772 269 2209 269 
Q 2650 269 2876 622 
Q 3103 975 3103 1663 
Q 3103 2353 2876 2703 
Q 2650 3053 2209 3053 
Q 1772 3053 1542 2737 
Q 1313 2422 1313 1825 
L 1313 1497 
z
" transform="scale(0.015625)"/>
       </defs>
       <use xlink:href="#DejaVuSerif-46"/>
       <use xlink:href="#DejaVuSerif-65" x="63.884766"/>
       <use xlink:href="#DejaVuSerif-62" x="123.064453"/>
       <use xlink:href="#DejaVuSerif-20" x="187.078125"/>
       <use xlink:href="#DejaVuSerif-32" x="218.865234"/>
       <use xlink:href="#DejaVuSerif-30" x="282.488281"/>
       <use xlink:href="#DejaVuSerif-32" x="346.111328"/>
       <use xlink:href="#DejaVuSerif-36" x="409.734375"/>
      </g>
     </g>
    </g>
   </g>
   <g id="matplotlib.axis_2">
    <g id="ytick_1">
     <g id="line2d_7">
      <path d="M 48.322812 148.558523 
L 495.13875 148.558523 
" clip-path="url(#p95d42a4b3d)" style="fill: none; stroke: #b0b0b0; stroke-opacity: 0.25; stroke-width: 0.5; stroke-linecap: square"/>
     </g>
     <g id="line2d_8">
      <defs>
       <path id="m6b0a454af5" d="M 0 0 
L -3.5 0 
" style="stroke: #000000; stroke-width: 0.8"/>
      </defs>
      <g>
       <use xlink:href="#m6b0a454af5" x="48.322812" y="148.558523" style="stroke: #000000; stroke-width: 0.8"/>
      </g>
     </g>
     <g id="text_4">
      <!-- 24.5 -->
      <g transform="translate(23.510312 151.597898) scale(0.08 -0.08)">
       <defs>
        <path id="DejaVuSerif-34" d="M 2234 1581 
L 2234 4063 
L 641 1581 
L 2234 1581 
z
M 3609 0 
L 1484 0 
L 1484 331 
L 2234 331 
L 2234 1247 
L 197 1247 
L 197 1588 
L 2241 4750 
L 2859 4750 
L 2859 1581 
L 3750 1581 
L 3750 1247 
L 2859 1247 
L 2859 331 
L 3609 331 
L 3609 0 
z
" transform="scale(0.015625)"/>
        <path id="DejaVuSerif-2e" d="M 603 325 
Q 603 500 722 622 
Q 841 744 1019 744 
Q 1191 744 1312 622 
Q 1434 500 1434 325 
Q 1434 153 1312 31 
Q 1191 -91 1019 -91 
Q 841 -91 722 29 
Q 603 150 603 325 
z
" transform="scale(0.015625)"/>
       </defs>
       <use xlink:href="#DejaVuSerif-32"/>
       <use xlink:href="#DejaVuSerif-34" x="63.623047"/>
       <use xlink:href="#DejaVuSerif-2e" x="127.246094"/>
       <use xlink:href="#DejaVuSerif-35" x="159.033203"/>
      </g>
     </g>
    </g>
    <g id="ytick_2">
     <g id="line2d_9">
      <path d="M 48.322812 126.074407 
L 495.13875 126.074407 
" clip-path="url(#p95d42a4b3d)" style="fill: none; stroke: #b0b0b0; stroke-opacity: 0.25; stroke-width: 0.5; stroke-linecap: square"/>
     </g>
     <g id="line2d_10">
      <g>
       <use xlink:href="#m6b0a454af5" x="48.322812" y="126.074407" style="stroke: #000000; stroke-width: 0.8"/>
      </g>
     </g>
     <g id="text_5">
      <!-- 25.0 -->
      <g transform="translate(23.510312 129.113782) scale(0.08 -0.08)">
       <use xlink:href="#DejaVuSerif-32"/>
       <use xlink:href="#DejaVuSerif-35" x="63.623047"/>
       <use xlink:href="#DejaVuSerif-2e" x="127.246094"/>
       <use xlink:href="#DejaVuSerif-30" x="159.033203"/>
      </g>
     </g>
    </g>
    <g id="ytick_3">
     <g id="line2d_11">
      <path d="M 48.322812 103.59029 
L 495.13875 103.59029 
" clip-path="url(#p95d42a4b3d)" style="fill: none; stroke: #b0b0b0; stroke-opacity: 0.25; stroke-width: 0.5; stroke-linecap: square"/>
     </g>
     <g id="line2d_12">
      <g>
       <use xlink:href="#m6b0a454af5" x="48.322812" y="103.59029" style="stroke: #000000; stroke-width: 0.8"/>
      </g>
     </g>
     <g id="text_6">
      <!-- 25.5 -->
      <g transform="translate(23.510312 106.629665) scale(0.08 -0.08)">
       <use xlink:href="#DejaVuSerif-32"/>
       <use xlink:href="#DejaVuSerif-35" x="63.623047"/>
       <use xlink:href="#DejaVuSerif-2e" x="127.246094"/>
       <use xlink:href="#DejaVuSerif-35" x="159.033203"/>
      </g>
     </g>
    </g>
    <g id="ytick_4">
     <g id="line2d_13">
      <path d="M 48.322812 81.106174 
L 495.13875 81.106174 
" clip-path="url(#p95d42a4b3d)" style="fill: none; stroke: #b0b0b0; stroke-opacity: 0.25; stroke-width: 0.5; stroke-linecap: square"/>
     </g>
     <g id="line2d_14">
      <g>
       <use xlink:href="#m6b0a454af5" x="48.322812" y="81.106174" style="stroke: #000000; stroke-width: 0.8"/>
      </g>
     </g>
     <g id="text_7">
      <!-- 26.0 -->
      <g transform="translate(23.510312 84.145549) scale(0.08 -0.08)">
       <use xlink:href="#DejaVuSerif-32"/>
       <use xlink:href="#DejaVuSerif-36" x="63.623047"/>
       <use xlink:href="#DejaVuSerif-2e" x="127.246094"/>
       <use xlink:href="#DejaVuSerif-30" x="159.033203"/>
      </g>
     </g>
    </g>
    <g id="ytick_5">
     <g id="line2d_15">
      <path d="M 48.322812 58.622058 
L 495.13875 58.622058 
" clip-path="url(#p95d42a4b3d)" style="fill: none; stroke: #b0b0b0; stroke-opacity: 0.25; stroke-width: 0.5; stroke-linecap: square"/>
     </g>
     <g id="line2d_16">
      <g>
       <use xlink:href="#m6b0a454af5" x="48.322812" y="58.622058" style="stroke: #000000; stroke-width: 0.8"/>
      </g>
     </g>
     <g id="text_8">
      <!-- 26.5 -->
      <g transform="translate(23.510312 61.661433) scale(0.08 -0.08)">
       <use xlink:href="#DejaVuSerif-32"/>
       <use xlink:href="#DejaVuSerif-36" x="63.623047"/>
       <use xlink:href="#DejaVuSerif-2e" x="127.246094"/>
       <use xlink:href="#DejaVuSerif-35" x="159.033203"/>
      </g>
     </g>
    </g>
    <g id="ytick_6">
     <g id="line2d_17">
      <path d="M 48.322812 36.137942 
L 495.13875 36.137942 
" clip-path="url(#p95d42a4b3d)" style="fill: none; stroke: #b0b0b0; stroke-opacity: 0.25; stroke-width: 0.5; stroke-linecap: square"/>
     </g>
     <g id="line2d_18">
      <g>
       <use xlink:href="#m6b0a454af5" x="48.322812" y="36.137942" style="stroke: #000000; stroke-width: 0.8"/>
      </g>
     </g>
     <g id="text_9">
      <!-- 27.0 -->
      <g transform="translate(23.510312 39.177317) scale(0.08 -0.08)">
       <defs>
        <path id="DejaVuSerif-37" d="M 3609 4347 
L 1784 0 
L 1319 0 
L 3059 4153 
L 903 4153 
L 903 3578 
L 538 3578 
L 538 4666 
L 3609 4666 
L 3609 4347 
z
" transform="scale(0.015625)"/>
       </defs>
       <use xlink:href="#DejaVuSerif-32"/>
       <use xlink:href="#DejaVuSerif-37" x="63.623047"/>
       <use xlink:href="#DejaVuSerif-2e" x="127.246094"/>
       <use xlink:href="#DejaVuSerif-30" x="159.033203"/>
      </g>
     </g>
    </g>
    <g id="text_10">
     <!-- % -->
     <g transform="translate(17.638594 96.776413) rotate(-90) scale(0.09 -0.09)">
      <defs>
       <path id="DejaVuSerif-25" d="M 1434 4459 
Q 1159 4459 1004 4200 
Q 850 3941 850 3475 
Q 850 3016 1008 2753 
Q 1166 2491 1434 2491 
Q 1700 2491 1854 2752 
Q 2009 3013 2009 3475 
Q 2009 3938 1854 4198 
Q 1700 4459 1434 4459 
z
M 4653 2169 
Q 4381 2169 4226 1906 
Q 4072 1644 4072 1178 
Q 4072 719 4228 458 
Q 4384 197 4653 197 
Q 4922 197 5075 458 
Q 5228 719 5228 1178 
Q 5228 1641 5073 1905 
Q 4919 2169 4653 2169 
z
M 4653 2450 
Q 5147 2450 5437 2106 
Q 5728 1763 5728 1178 
Q 5728 594 5436 251 
Q 5144 -91 4653 -91 
Q 4153 -91 3862 251 
Q 3572 594 3572 1178 
Q 3572 1766 3864 2108 
Q 4156 2450 4653 2450 
z
M 4263 4750 
L 4738 4750 
L 1819 -91 
L 1344 -91 
L 4263 4750 
z
M 1428 4750 
Q 1922 4750 2215 4408 
Q 2509 4066 2509 3481 
Q 2509 2891 2217 2550 
Q 1925 2209 1428 2209 
Q 931 2209 642 2551 
Q 353 2894 353 3481 
Q 353 4063 643 4406 
Q 934 4750 1428 4750 
z
" transform="scale(0.015625)"/>
      </defs>
      <use xlink:href="#DejaVuSerif-25"/>
     </g>
    </g>
   </g>
   <g id="line2d_19">
    <path d="M 68.632628 75.62298 
L 73.00033 75.24935 
L 77.368032 62.438457 
L 81.735735 58.121291 
L 86.103437 56.210562 
L 90.471139 76.332128 
L 94.838841 83.314153 
L 99.206543 88.954017 
L 103.574246 85.258255 
L 107.941948 83.982876 
L 112.30965 86.772607 
L 116.677352 89.199685 
L 121.045055 93.855521 
L 125.412757 91.986968 
L 129.780459 92.667089 
L 134.148161 94.810417 
L 138.515863 94.022783 
L 142.883566 100.256564 
L 147.251268 99.501838 
L 151.61897 98.833156 
L 155.986672 95.020706 
L 160.354375 99.119949 
L 164.722077 102.856154 
L 169.089779 103.006902 
L 173.457481 105.413242 
L 177.825183 114.679299 
L 182.192886 108.63182 
L 186.560588 104.217651 
L 190.92829 111.363586 
L 195.295992 126.870582 
L 199.663695 142.343847 
L 204.031397 146.770334 
L 208.399099 137.863079 
L 212.766801 126.387752 
L 217.134503 119.309718 
L 221.502206 118.766283 
L 225.869908 117.27265 
L 230.23761 122.281601 
L 234.605312 126.210329 
L 238.973015 106.997643 
L 243.340717 87.020235 
L 247.708419 92.608945 
L 252.076121 101.125954 
L 256.443823 95.838881 
L 260.811526 98.617012 
L 265.179228 94.884478 
L 269.54693 88.379938 
L 273.914632 96.695538 
L 278.282335 92.747489 
L 282.650037 95.845325 
L 287.017739 103.648454 
L 291.385441 104.589584 
L 295.753143 99.789296 
L 300.120846 109.868874 
L 304.488548 96.798099 
L 308.85625 97.796645 
L 313.223952 110.470314 
L 317.591655 149.290825 
L 321.959357 153.7211 
L 326.327059 125.911137 
L 330.694761 95.099642 
L 335.062463 89.71324 
L 339.430166 90.15008 
L 343.797868 95.532345 
L 348.16557 90.873414 
L 352.533272 100.048756 
L 356.900975 96.861994 
L 361.268677 101.427361 
L 365.636379 104.256428 
L 370.004081 111.200057 
L 374.371784 107.339735 
L 378.739486 97.296359 
L 383.107188 100.28869 
L 387.47489 59.50388 
L 391.842592 31.884529 
L 396.210295 38.444326 
L 400.577997 41.785549 
L 404.945699 31.28032 
L 409.313401 46.328111 
L 413.681104 37.419161 
L 418.048806 41.081351 
L 422.416508 37.910321 
L 426.78421 46.893463 
L 431.151912 87.325218 
L 435.519615 91.262916 
L 439.887317 54.789645 
L 444.255019 62.925995 
L 448.622721 68.889449 
L 452.990424 74.030087 
L 457.358126 64.884943 
L 461.725828 65.856922 
L 466.09353 75.456056 
L 470.461232 66.591768 
L 474.828935 69.097349 
" clip-path="url(#p95d42a4b3d)" style="fill: none; stroke: #3366cc; stroke-width: 1.2; stroke-linecap: square"/>
   </g>
   <g id="patch_3">
    <path d="M 48.322812 159.843139 
L 48.322812 25.158281 
" style="fill: none; stroke: #000000; stroke-width: 0.6; stroke-linejoin: miter; stroke-linecap: square"/>
   </g>
   <g id="patch_4">
    <path d="M 48.322813 159.843139 
L 495.13875 159.843139 
" style="fill: none; stroke: #000000; stroke-width: 0.6; stroke-linejoin: miter; stroke-linecap: square"/>
   </g>
   <g id="line2d_20">
    <path d="M 68.632628 75.62298 
L 73.00033 75.436165 
L 77.368032 71.103596 
L 81.735735 67.85802 
L 86.103437 65.528528 
L 90.471139 67.329128 
L 94.838841 69.612703 
L 99.206543 71.517137 
L 103.574246 72.94698 
L 107.941948 76.024755 
L 112.30965 80.1178 
L 116.677352 84.830532 
L 121.045055 87.333873 
L 125.412757 88.572847 
L 129.780459 89.103286 
L 134.148161 90.467881 
L 138.515863 91.902153 
L 142.883566 93.828432 
L 147.251268 95.300169 
L 151.61897 96.011259 
L 155.986672 96.44465 
L 160.354375 97.366488 
L 164.722077 98.515878 
L 169.089779 99.799324 
L 173.457481 100.535992 
L 177.825183 102.704201 
L 182.192886 104.10401 
L 186.560588 105.417859 
L 190.92829 107.16695 
L 195.295992 110.597583 
L 199.663695 116.217147 
L 204.031397 122.125303 
L 208.399099 125.437271 
L 212.766801 127.973833 
L 217.134503 130.129843 
L 221.502206 131.187371 
L 225.869908 129.816238 
L 230.23761 126.950202 
L 234.605312 124.013059 
L 238.973015 119.603711 
L 243.340717 113.97978 
L 247.708419 110.165384 
L 252.076121 107.645337 
L 256.443823 104.58337 
L 260.811526 101.202714 
L 265.179228 96.727593 
L 269.54693 94.06792 
L 273.914632 95.450107 
L 278.282335 95.469899 
L 282.650037 94.715523 
L 287.017739 95.831176 
L 291.385441 96.684401 
L 295.753143 97.385089 
L 300.120846 100.454937 
L 304.488548 100.469589 
L 308.85625 101.190897 
L 313.223952 103.280181 
L 317.591655 109.800519 
L 321.959357 116.819307 
L 326.327059 120.550999 
L 330.694761 118.441109 
L 335.062463 117.428986 
L 339.430166 116.33662 
L 343.797868 114.202624 
L 348.16557 105.85728 
L 352.533272 98.189802 
L 356.900975 94.039924 
L 361.268677 94.943884 
L 365.636379 97.021482 
L 370.004081 100.028622 
L 374.371784 101.715392 
L 378.739486 102.632956 
L 383.107188 102.667232 
L 387.47489 97.330359 
L 391.842592 87.395668 
L 396.210295 77.99394 
L 400.577997 68.077581 
L 404.945699 57.211951 
L 409.313401 49.930772 
L 413.681104 40.949411 
L 418.048806 38.317621 
L 422.416508 39.178448 
L 426.78421 40.385468 
L 431.151912 46.891135 
L 435.519615 55.460077 
L 439.887317 56.668868 
L 444.255019 60.312701 
L 448.622721 64.285287 
L 452.990424 69.445253 
L 457.358126 72.015465 
L 461.725828 68.948565 
L 466.09353 66.690442 
L 470.461232 68.37646 
L 474.828935 69.258082 
" clip-path="url(#p95d42a4b3d)" style="fill: none; stroke: #cc3333; stroke-width: 1.5; stroke-linecap: square"/>
   </g>
   <g id="text_11">
    <!-- Polkadot — Core Engagement (%) -->
    <g transform="translate(176.755234 19.158281) scale(0.11 -0.11)">
     <defs>
      <path id="DejaVuSerif-50" d="M 1581 2375 
L 2406 2375 
Q 2872 2375 3115 2626 
Q 3359 2878 3359 3353 
Q 3359 3831 3115 4081 
Q 2872 4331 2406 4331 
L 1581 4331 
L 1581 2375 
z
M 353 0 
L 353 331 
L 947 331 
L 947 4331 
L 353 4331 
L 353 4666 
L 2559 4666 
Q 3259 4666 3668 4311 
Q 4078 3956 4078 3353 
Q 4078 2753 3668 2397 
Q 3259 2041 2559 2041 
L 1581 2041 
L 1581 331 
L 2303 331 
L 2303 0 
L 353 0 
z
" transform="scale(0.015625)"/>
      <path id="DejaVuSerif-6f" d="M 1925 219 
Q 2388 219 2623 584 
Q 2859 950 2859 1663 
Q 2859 2375 2623 2739 
Q 2388 3103 1925 3103 
Q 1463 3103 1227 2739 
Q 991 2375 991 1663 
Q 991 950 1228 584 
Q 1466 219 1925 219 
z
M 1925 -91 
Q 1200 -91 759 389 
Q 319 869 319 1663 
Q 319 2456 758 2934 
Q 1197 3413 1925 3413 
Q 2653 3413 3092 2934 
Q 3531 2456 3531 1663 
Q 3531 869 3092 389 
Q 2653 -91 1925 -91 
z
" transform="scale(0.015625)"/>
      <path id="DejaVuSerif-6c" d="M 1313 331 
L 1856 331 
L 1856 0 
L 184 0 
L 184 331 
L 738 331 
L 738 4531 
L 184 4531 
L 184 4863 
L 1313 4863 
L 1313 331 
z
" transform="scale(0.015625)"/>
      <path id="DejaVuSerif-6b" d="M 1831 0 
L 219 0 
L 219 331 
L 738 331 
L 738 4531 
L 184 4531 
L 184 4863 
L 1313 4863 
L 1313 1697 
L 2713 2988 
L 2234 2988 
L 2234 3322 
L 3738 3322 
L 3738 2988 
L 3169 2988 
L 2181 2075 
L 3444 331 
L 3922 331 
L 3922 0 
L 2284 0 
L 2284 331 
L 2759 331 
L 1766 1697 
L 1313 1275 
L 1313 331 
L 1831 331 
L 1831 0 
z
" transform="scale(0.015625)"/>
      <path id="DejaVuSerif-64" d="M 3359 331 
L 3909 331 
L 3909 0 
L 2784 0 
L 2784 519 
Q 2616 206 2355 57 
Q 2094 -91 1709 -91 
Q 1097 -91 708 395 
Q 319 881 319 1663 
Q 319 2444 706 2928 
Q 1094 3413 1709 3413 
Q 2094 3413 2355 3264 
Q 2616 3116 2784 2803 
L 2784 4531 
L 2241 4531 
L 2241 4863 
L 3359 4863 
L 3359 331 
z
M 2784 1497 
L 2784 1825 
Q 2784 2422 2554 2737 
Q 2325 3053 1888 3053 
Q 1444 3053 1217 2703 
Q 991 2353 991 1663 
Q 991 975 1217 622 
Q 1444 269 1888 269 
Q 2325 269 2554 583 
Q 2784 897 2784 1497 
z
" transform="scale(0.015625)"/>
      <path id="DejaVuSerif-74" d="M 691 2988 
L 184 2988 
L 184 3322 
L 691 3322 
L 691 4353 
L 1269 4353 
L 1269 3322 
L 2350 3322 
L 2350 2988 
L 1269 2988 
L 1269 878 
Q 1269 456 1350 337 
Q 1431 219 1650 219 
Q 1875 219 1978 351 
Q 2081 484 2088 781 
L 2522 781 
Q 2497 328 2275 118 
Q 2053 -91 1600 -91 
Q 1103 -91 897 129 
Q 691 350 691 878 
L 691 2988 
z
" transform="scale(0.015625)"/>
      <path id="DejaVuSerif-2014" d="M 281 1906 
L 6119 1906 
L 6119 1491 
L 281 1491 
L 281 1906 
z
" transform="scale(0.015625)"/>
      <path id="DejaVuSerif-43" d="M 4513 1234 
Q 4306 581 3820 245 
Q 3334 -91 2591 -91 
Q 2134 -91 1743 65 
Q 1353 222 1050 525 
Q 700 875 529 1320 
Q 359 1766 359 2328 
Q 359 3416 987 4083 
Q 1616 4750 2644 4750 
Q 3025 4750 3456 4650 
Q 3888 4550 4384 4347 
L 4384 3272 
L 4031 3272 
Q 3916 3859 3567 4137 
Q 3219 4416 2591 4416 
Q 1844 4416 1459 3886 
Q 1075 3356 1075 2328 
Q 1075 1303 1459 773 
Q 1844 244 2591 244 
Q 3113 244 3450 492 
Q 3788 741 3938 1234 
L 4513 1234 
z
" transform="scale(0.015625)"/>
      <path id="DejaVuSerif-72" d="M 3059 3328 
L 3059 2497 
L 2728 2497 
Q 2713 2744 2591 2866 
Q 2469 2988 2234 2988 
Q 1809 2988 1582 2694 
Q 1356 2400 1356 1850 
L 1356 331 
L 2022 331 
L 2022 0 
L 263 0 
L 263 331 
L 781 331 
L 781 2994 
L 231 2994 
L 231 3322 
L 1356 3322 
L 1356 2731 
Q 1525 3078 1790 3245 
Q 2056 3413 2438 3413 
Q 2578 3413 2733 3391 
Q 2888 3369 3059 3328 
z
" transform="scale(0.015625)"/>
      <path id="DejaVuSerif-45" d="M 353 0 
L 353 331 
L 947 331 
L 947 4331 
L 353 4331 
L 353 4666 
L 4109 4666 
L 4109 3628 
L 3725 3628 
L 3725 4281 
L 1581 4281 
L 1581 2719 
L 3109 2719 
L 3109 3303 
L 3494 3303 
L 3494 1753 
L 3109 1753 
L 3109 2338 
L 1581 2338 
L 1581 384 
L 3775 384 
L 3775 1038 
L 4159 1038 
L 4159 0 
L 353 0 
z
" transform="scale(0.015625)"/>
      <path id="DejaVuSerif-67" d="M 3359 2988 
L 3359 72 
Q 3359 -644 2965 -1033 
Q 2572 -1422 1844 -1422 
Q 1516 -1422 1216 -1362 
Q 916 -1303 641 -1184 
L 641 -488 
L 941 -488 
Q 997 -813 1206 -963 
Q 1416 -1113 1806 -1113 
Q 2313 -1113 2548 -827 
Q 2784 -541 2784 72 
L 2784 519 
Q 2616 206 2355 57 
Q 2094 -91 1709 -91 
Q 1097 -91 708 395 
Q 319 881 319 1663 
Q 319 2444 706 2928 
Q 1094 3413 1709 3413 
Q 2094 3413 2355 3264 
Q 2616 3116 2784 2803 
L 2784 3322 
L 3909 3322 
L 3909 2988 
L 3359 2988 
z
M 2784 1825 
Q 2784 2422 2554 2737 
Q 2325 3053 1888 3053 
Q 1444 3053 1217 2703 
Q 991 2353 991 1663 
Q 991 975 1217 622 
Q 1444 269 1888 269 
Q 2325 269 2554 583 
Q 2784 897 2784 1497 
L 2784 1825 
z
" transform="scale(0.015625)"/>
      <path id="DejaVuSerif-6d" d="M 3316 2675 
Q 3481 3041 3739 3227 
Q 3997 3413 4341 3413 
Q 4863 3413 5119 3089 
Q 5375 2766 5375 2113 
L 5375 331 
L 5894 331 
L 5894 0 
L 4300 0 
L 4300 331 
L 4800 331 
L 4800 2047 
Q 4800 2556 4650 2772 
Q 4500 2988 4153 2988 
Q 3769 2988 3567 2697 
Q 3366 2406 3366 1850 
L 3366 331 
L 3866 331 
L 3866 0 
L 2291 0 
L 2291 331 
L 2791 331 
L 2791 2069 
Q 2791 2566 2641 2777 
Q 2491 2988 2144 2988 
Q 1759 2988 1557 2697 
Q 1356 2406 1356 1850 
L 1356 331 
L 1856 331 
L 1856 0 
L 263 0 
L 263 331 
L 781 331 
L 781 2994 
L 231 2994 
L 231 3322 
L 1356 3322 
L 1356 2731 
Q 1516 3063 1762 3238 
Q 2009 3413 2322 3413 
Q 2709 3413 2968 3220 
Q 3228 3028 3316 2675 
z
" transform="scale(0.015625)"/>
      <path id="DejaVuSerif-28" d="M 2041 -997 
Q 1281 -656 893 83 
Q 506 822 506 1931 
Q 506 3044 893 3783 
Q 1281 4522 2041 4863 
L 2041 4556 
Q 1559 4225 1350 3623 
Q 1141 3022 1141 1931 
Q 1141 844 1350 242 
Q 1559 -359 2041 -691 
L 2041 -997 
z
" transform="scale(0.015625)"/>
      <path id="DejaVuSerif-29" d="M 453 -997 
L 453 -691 
Q 934 -359 1145 242 
Q 1356 844 1356 1931 
Q 1356 3022 1145 3623 
Q 934 4225 453 4556 
L 453 4863 
Q 1216 4522 1603 3783 
Q 1991 3044 1991 1931 
Q 1991 822 1603 83 
Q 1216 -656 453 -997 
z
" transform="scale(0.015625)"/>
     </defs>
     <use xlink:href="#DejaVuSerif-50"/>
     <use xlink:href="#DejaVuSerif-6f" x="63.285156"/>
     <use xlink:href="#DejaVuSerif-6c" x="123.490234"/>
     <use xlink:href="#DejaVuSerif-6b" x="155.472656"/>
     <use xlink:href="#DejaVuSerif-61" x="216.068359"/>
     <use xlink:href="#DejaVuSerif-64" x="275.6875"/>
     <use xlink:href="#DejaVuSerif-6f" x="339.701172"/>
     <use xlink:href="#DejaVuSerif-74" x="399.90625"/>
     <use xlink:href="#DejaVuSerif-20" x="440.091797"/>
     <use xlink:href="#DejaVuSerif-2014" x="471.878906"/>
     <use xlink:href="#DejaVuSerif-20" x="571.878906"/>
     <use xlink:href="#DejaVuSerif-43" x="603.666016"/>
     <use xlink:href="#DejaVuSerif-6f" x="680.179688"/>
     <use xlink:href="#DejaVuSerif-72" x="740.384766"/>
     <use xlink:href="#DejaVuSerif-65" x="788.1875"/>
     <use xlink:href="#DejaVuSerif-20" x="847.367188"/>
     <use xlink:href="#DejaVuSerif-45" x="879.154297"/>
     <use xlink:href="#DejaVuSerif-6e" x="952.152344"/>
     <use xlink:href="#DejaVuSerif-67" x="1016.556641"/>
     <use xlink:href="#DejaVuSerif-61" x="1080.570312"/>
     <use xlink:href="#DejaVuSerif-67" x="1140.189453"/>
     <use xlink:href="#DejaVuSerif-65" x="1204.203125"/>
     <use xlink:href="#DejaVuSerif-6d" x="1263.382812"/>
     <use xlink:href="#DejaVuSerif-65" x="1358.207031"/>
     <use xlink:href="#DejaVuSerif-6e" x="1417.386719"/>
     <use xlink:href="#DejaVuSerif-74" x="1481.791016"/>
     <use xlink:href="#DejaVuSerif-20" x="1521.976562"/>
     <use xlink:href="#DejaVuSerif-28" x="1553.763672"/>
     <use xlink:href="#DejaVuSerif-25" x="1592.777344"/>
     <use xlink:href="#DejaVuSerif-29" x="1687.796875"/>
    </g>
   </g>
   <g id="legend_1">
    <g id="patch_5">
     <path d="M 412.51 55.270781 
L 489.53875 55.270781 
Q 491.13875 55.270781 491.13875 53.670781 
L 491.13875 30.758281 
Q 491.13875 29.158281 489.53875 29.158281 
L 412.51 29.158281 
Q 410.91 29.158281 410.91 30.758281 
L 410.91 53.670781 
Q 410.91 55.270781 412.51 55.270781 
z
" style="fill: #ffffff; opacity: 0.9; stroke: #cccccc; stroke-linejoin: miter"/>
    </g>
    <g id="line2d_21">
     <path d="M 414.11 35.637031 
L 422.11 35.637031 
L 430.11 35.637031 
" style="fill: none; stroke: #3366cc; stroke-width: 1.2; stroke-linecap: square"/>
    </g>
    <g id="text_12">
     <!-- Engagement -->
     <g transform="translate(436.51 38.437031) scale(0.08 -0.08)">
      <use xlink:href="#DejaVuSerif-45"/>
      <use xlink:href="#DejaVuSerif-6e" x="72.998047"/>
      <use xlink:href="#DejaVuSerif-67" x="137.402344"/>
      <use xlink:href="#DejaVuSerif-61" x="201.416016"/>
      <use xlink:href="#DejaVuSerif-67" x="261.035156"/>
      <use xlink:href="#DejaVuSerif-65" x="325.048828"/>
      <use xlink:href="#DejaVuSerif-6d" x="384.228516"/>
      <use xlink:href="#DejaVuSerif-65" x="479.052734"/>
      <use xlink:href="#DejaVuSerif-6e" x="538.232422"/>
      <use xlink:href="#DejaVuSerif-74" x="602.636719"/>
     </g>
    </g>
    <g id="line2d_22">
     <path d="M 414.11 47.493281 
L 422.11 47.493281 
L 430.11 47.493281 
" style="fill: none; stroke: #cc3333; stroke-width: 1.5; stroke-linecap: square"/>
    </g>
    <g id="text_13">
     <!-- 7d avg -->
     <g transform="translate(436.51 50.293281) scale(0.08 -0.08)">
      <defs>
       <path id="DejaVuSerif-76" d="M 1581 0 
L 359 2988 
L -19 2988 
L -19 3322 
L 1509 3322 
L 1509 2988 
L 978 2988 
L 1913 703 
L 2847 2988 
L 2350 2988 
L 2350 3322 
L 3597 3322 
L 3597 2988 
L 3225 2988 
L 2003 0 
L 1581 0 
z
" transform="scale(0.015625)"/>
      </defs>
      <use xlink:href="#DejaVuSerif-37"/>
      <use xlink:href="#DejaVuSerif-64" x="63.623047"/>
      <use xlink:href="#DejaVuSerif-20" x="127.636719"/>
      <use xlink:href="#DejaVuSerif-61" x="159.423828"/>
      <use xlink:href="#DejaVuSerif-76" x="219.042969"/>
      <use xlink:href="#DejaVuSerif-67" x="275.537109"/>
     </g>
    </g>
   </g>
  </g>
 </g>
 <defs>
  <clipPath id="p95d42a4b3d">
   <rect x="48.322812" y="25.158281" width="446.815937" height="134.684858"/>
  </clipPath>
 </defs>
</svg>
