<?xml version="1.0" encoding="utf-8" standalone="no"?>
<!DOCTYPE svg PUBLIC "-//W3C//DTD SVG 1.1//EN"
  "http://www.w3.org/Graphics/SVG/1.1/DTD/svg11.dtd">
<svg xmlns:xlink="http://www.w3.org/1999/xlink" width="505.69pt" height="146.019591pt" viewBox="0 0 505.69 146.019591" xmlns="http://www.w3.org/2000/svg" version="1.1">
 <metadata>
  <rdf:RDF xmlns:dc="http://purl.org/dc/elements/1.1/" xmlns:cc="http://creativecommons.org/ns#" xmlns:rdf="http://www.w3.org/1999/02/22-rdf-syntax-ns#">
   <cc:Work>
    <dc:type rdf:resource="http://purl.org/dc/dcmitype/StillImage"/>
    <dc:date>2026-02-16T20:22:44.559703</dc:date>
    <dc:format>image/svg+xml</dc:format>
    <dc:creator>
     <cc:Agent>
      <dc:title>Matplotlib v3.9.4, https://matplotlib.org/</dc:title>
     </cc:Agent>
    </dc:creator>
   </cc:Work>
  </rdf:RDF>
 </metadata>
 <defs>
  <style type="text/css">*{stroke-linejoin: round; stroke-linecap: butt}</style>
 </defs>
 <g id="figure_1">
  <g id="patch_1">
   <path d="M 0 146.019591 
L 505.69 146.019591 
L 505.69 0 
L 0 0 
z
" style="fill: #ffffff"/>
  </g>
  <g id="axes_1">
   <g id="patch_2">
    <path d="M 35.600313 102.248764 
L 454.819687 102.248764 
L 454.819687 25.158281 
L 35.600313 25.158281 
z
" style="fill: #ffffff"/>
   </g>
   <g id="matplotlib.axis_1">
    <g id="xtick_1">
     <g id="line2d_1">
      <path d="M 120.222796 102.248764 
L 120.222796 25.158281 
" clip-path="url(#pc0d2fa7bdc)" style="fill: none; stroke: #b0b0b0; stroke-opacity: 0.25; stroke-width: 0.5; stroke-linecap: square"/>
     </g>
     <g id="line2d_2">
      <defs>
       <path id="me5e21110b9" d="M 0 0 
L 0 3.5 
" style="stroke: #000000; stroke-width: 0.8"/>
      </defs>
      <g>
       <use xlink:href="#me5e21110b9" x="120.222796" y="102.248764" style="stroke: #000000; stroke-width: 0.8"/>
      </g>
     </g>
     <g id="text_1">
      <!-- Dec 2025 -->
      <g transform="translate(86.02188 133.778741) rotate(-30) scale(0.08 -0.08)">
       <defs>
        <path id="DejaVuSerif-44" d="M 1581 331 
L 2163 331 
Q 3072 331 3558 850 
Q 4044 1369 4044 2338 
Q 4044 3306 3559 3818 
Q 3075 4331 2163 4331 
L 1581 4331 
L 1581 331 
z
M 353 0 
L 353 331 
L 947 331 
L 947 4331 
L 353 4331 
L 353 4666 
L 2209 4666 
Q 3416 4666 4089 4050 
Q 4763 3434 4763 2338 
Q 4763 1238 4088 619 
Q 3413 0 2209 0 
L 353 0 
z
" transform="scale(0.015625)"/>
        <path id="DejaVuSerif-65" d="M 3469 1600 
L 991 1600 
L 991 1575 
Q 991 903 1244 561 
Q 1497 219 1991 219 
Q 2369 219 2611 417 
Q 2853 616 2950 1006 
L 3413 1006 
Q 3275 459 2904 184 
Q 2534 -91 1931 -91 
Q 1203 -91 761 389 
Q 319 869 319 1663 
Q 319 2450 753 2931 
Q 1188 3413 1894 3413 
Q 2647 3413 3050 2948 
Q 3453 2484 3469 1600 
z
M 2791 1931 
Q 2772 2513 2545 2808 
Q 2319 3103 1894 3103 
Q 1497 3103 1269 2806 
Q 1041 2509 991 1931 
L 2791 1931 
z
" transform="scale(0.015625)"/>
        <path id="DejaVuSerif-63" d="M 3291 997 
Q 3169 466 2822 187 
Q 2475 -91 1925 -91 
Q 1200 -91 759 389 
Q 319 869 319 1663 
Q 319 2459 759 2936 
Q 1200 3413 1925 3413 
Q 2241 3413 2553 3339 
Q 2866 3266 3181 3116 
L 3181 2266 
L 2847 2266 
Q 2781 2703 2561 2903 
Q 2341 3103 1931 3103 
Q 1466 3103 1228 2742 
Q 991 2381 991 1663 
Q 991 944 1227 581 
Q 1463 219 1931 219 
Q 2303 219 2525 412 
Q 2747 606 2828 997 
L 3291 997 
z
" transform="scale(0.015625)"/>
        <path id="DejaVuSerif-20" transform="scale(0.015625)"/>
        <path id="DejaVuSerif-32" d="M 819 3553 
L 469 3553 
L 469 4384 
Q 803 4563 1142 4656 
Q 1481 4750 1806 4750 
Q 2534 4750 2956 4397 
Q 3378 4044 3378 3438 
Q 3378 2753 2422 1800 
Q 2347 1728 2309 1691 
L 1131 513 
L 3078 513 
L 3078 1088 
L 3444 1088 
L 3444 0 
L 434 0 
L 434 341 
L 1850 1753 
Q 2319 2222 2519 2614 
Q 2719 3006 2719 3438 
Q 2719 3909 2473 4175 
Q 2228 4441 1797 4441 
Q 1350 4441 1106 4219 
Q 863 3997 819 3553 
z
" transform="scale(0.015625)"/>
        <path id="DejaVuSerif-30" d="M 2034 219 
Q 2513 219 2750 744 
Q 2988 1269 2988 2328 
Q 2988 3391 2750 3916 
Q 2513 4441 2034 4441 
Q 1556 4441 1318 3916 
Q 1081 3391 1081 2328 
Q 1081 1269 1318 744 
Q 1556 219 2034 219 
z
M 2034 -91 
Q 1275 -91 848 546 
Q 422 1184 422 2328 
Q 422 3475 848 4112 
Q 1275 4750 2034 4750 
Q 2797 4750 3222 4112 
Q 3647 3475 3647 2328 
Q 3647 1184 3222 546 
Q 2797 -91 2034 -91 
z
" transform="scale(0.015625)"/>
        <path id="DejaVuSerif-35" d="M 3219 4666 
L 3219 4153 
L 1081 4153 
L 1081 2816 
Q 1244 2928 1461 2984 
Q 1678 3041 1947 3041 
Q 2703 3041 3140 2622 
Q 3578 2203 3578 1478 
Q 3578 738 3136 323 
Q 2694 -91 1894 -91 
Q 1572 -91 1234 -12 
Q 897 66 544 225 
L 544 1131 
L 897 1131 
Q 925 688 1179 453 
Q 1434 219 1894 219 
Q 2388 219 2653 544 
Q 2919 869 2919 1478 
Q 2919 2084 2655 2407 
Q 2391 2731 1894 2731 
Q 1613 2731 1398 2631 
Q 1184 2531 1019 2322 
L 750 2322 
L 750 4666 
L 3219 4666 
z
" transform="scale(0.015625)"/>
       </defs>
       <use xlink:href="#DejaVuSerif-44"/>
       <use xlink:href="#DejaVuSerif-65" x="80.175781"/>
       <use xlink:href="#DejaVuSerif-63" x="139.355469"/>
       <use xlink:href="#DejaVuSerif-20" x="195.361328"/>
       <use xlink:href="#DejaVuSerif-32" x="227.148438"/>
       <use xlink:href="#DejaVuSerif-30" x="290.771484"/>
       <use xlink:href="#DejaVuSerif-32" x="354.394531"/>
       <use xlink:href="#DejaVuSerif-35" x="418.017578"/>
      </g>
     </g>
    </g>
    <g id="xtick_2">
     <g id="line2d_3">
      <path d="M 247.258971 102.248764 
L 247.258971 25.158281 
" clip-path="url(#pc0d2fa7bdc)" style="fill: none; stroke: #b0b0b0; stroke-opacity: 0.25; stroke-width: 0.5; stroke-linecap: square"/>
     </g>
     <g id="line2d_4">
      <g>
       <use xlink:href="#me5e21110b9" x="247.258971" y="102.248764" style="stroke: #000000; stroke-width: 0.8"/>
      </g>
     </g>
     <g id="text_2">
      <!-- Jan 2026 -->
      <g transform="translate(215.222035 132.529366) rotate(-30) scale(0.08 -0.08)">
       <defs>
        <path id="DejaVuSerif-4a" d="M -538 -1119 
L -538 -384 
L -181 -384 
Q -172 -694 -34 -845 
Q 103 -997 378 -997 
Q 750 -997 897 -762 
Q 1044 -528 1044 153 
L 1044 4331 
L 319 4331 
L 319 4666 
L 2272 4666 
L 2272 4331 
L 1678 4331 
L 1678 128 
Q 1678 -644 1368 -987 
Q 1059 -1331 372 -1331 
Q 150 -1331 -79 -1278 
Q -309 -1225 -538 -1119 
z
" transform="scale(0.015625)"/>
        <path id="DejaVuSerif-61" d="M 2547 1044 
L 2547 1747 
L 1806 1747 
Q 1378 1747 1168 1562 
Q 959 1378 959 997 
Q 959 650 1171 447 
Q 1384 244 1747 244 
Q 2106 244 2326 466 
Q 2547 688 2547 1044 
z
M 3122 2075 
L 3122 331 
L 3634 331 
L 3634 0 
L 2547 0 
L 2547 359 
Q 2356 128 2106 18 
Q 1856 -91 1522 -91 
Q 969 -91 644 203 
Q 319 497 319 997 
Q 319 1513 691 1797 
Q 1063 2081 1741 2081 
L 2547 2081 
L 2547 2309 
Q 2547 2688 2317 2895 
Q 2088 3103 1672 3103 
Q 1328 3103 1125 2947 
Q 922 2791 872 2484 
L 575 2484 
L 575 3156 
Q 875 3284 1158 3348 
Q 1441 3413 1709 3413 
Q 2400 3413 2761 3070 
Q 3122 2728 3122 2075 
z
" transform="scale(0.015625)"/>
        <path id="DejaVuSerif-6e" d="M 263 0 
L 263 331 
L 781 331 
L 781 2988 
L 231 2988 
L 231 3322 
L 1356 3322 
L 1356 2731 
Q 1516 3069 1770 3241 
Q 2025 3413 2363 3413 
Q 2913 3413 3172 3097 
Q 3431 2781 3431 2113 
L 3431 331 
L 3944 331 
L 3944 0 
L 2356 0 
L 2356 331 
L 2853 331 
L 2853 1931 
Q 2853 2541 2703 2767 
Q 2553 2994 2175 2994 
Q 1775 2994 1565 2701 
Q 1356 2409 1356 1850 
L 1356 331 
L 1856 331 
L 1856 0 
L 263 0 
z
" transform="scale(0.015625)"/>
        <path id="DejaVuSerif-36" d="M 2094 219 
Q 2534 219 2771 542 
Q 3009 866 3009 1472 
Q 3009 2078 2771 2401 
Q 2534 2725 2094 2725 
Q 1647 2725 1412 2412 
Q 1178 2100 1178 1509 
Q 1178 888 1415 553 
Q 1653 219 2094 219 
z
M 1075 2569 
Q 1288 2803 1556 2918 
Q 1825 3034 2163 3034 
Q 2859 3034 3264 2615 
Q 3669 2197 3669 1472 
Q 3669 763 3233 336 
Q 2797 -91 2069 -91 
Q 1278 -91 853 498 
Q 428 1088 428 2181 
Q 428 3406 931 4078 
Q 1434 4750 2350 4750 
Q 2597 4750 2869 4703 
Q 3141 4656 3425 4563 
L 3425 3794 
L 3072 3794 
Q 3034 4109 2831 4275 
Q 2628 4441 2284 4441 
Q 1678 4441 1381 3981 
Q 1084 3522 1075 2569 
z
" transform="scale(0.015625)"/>
       </defs>
       <use xlink:href="#DejaVuSerif-4a"/>
       <use xlink:href="#DejaVuSerif-61" x="40.087891"/>
       <use xlink:href="#DejaVuSerif-6e" x="99.707031"/>
       <use xlink:href="#DejaVuSerif-20" x="164.111328"/>
       <use xlink:href="#DejaVuSerif-32" x="195.898438"/>
       <use xlink:href="#DejaVuSerif-30" x="259.521484"/>
       <use xlink:href="#DejaVuSerif-32" x="323.144531"/>
       <use xlink:href="#DejaVuSerif-36" x="386.767578"/>
      </g>
     </g>
    </g>
    <g id="xtick_3">
     <g id="line2d_5">
      <path d="M 374.295145 102.248764 
L 374.295145 25.158281 
" clip-path="url(#pc0d2fa7bdc)" style="fill: none; stroke: #b0b0b0; stroke-opacity: 0.25; stroke-width: 0.5; stroke-linecap: square"/>
     </g>
     <g id="line2d_6">
      <g>
       <use xlink:href="#me5e21110b9" x="374.295145" y="102.248764" style="stroke: #000000; stroke-width: 0.8"/>
      </g>
     </g>
     <g id="text_3">
      <!-- Feb 2026 -->
      <g transform="translate(340.666888 133.448116) rotate(-30) scale(0.08 -0.08)">
       <defs>
        <path id="DejaVuSerif-46" d="M 353 0 
L 353 331 
L 947 331 
L 947 4331 
L 353 4331 
L 353 4666 
L 4172 4666 
L 4172 3628 
L 3788 3628 
L 3788 4281 
L 1581 4281 
L 1581 2719 
L 3175 2719 
L 3175 3303 
L 3559 3303 
L 3559 1753 
L 3175 1753 
L 3175 2338 
L 1581 2338 
L 1581 331 
L 2328 331 
L 2328 0 
L 353 0 
z
" transform="scale(0.015625)"/>
        <path id="DejaVuSerif-62" d="M 738 331 
L 738 4531 
L 184 4531 
L 184 4863 
L 1313 4863 
L 1313 2803 
Q 1481 3116 1742 3264 
Q 2003 3413 2388 3413 
Q 3000 3413 3387 2928 
Q 3775 2444 3775 1663 
Q 3775 881 3387 395 
Q 3000 -91 2388 -91 
Q 2003 -91 1742 57 
Q 1481 206 1313 519 
L 1313 0 
L 184 0 
L 184 331 
L 738 331 
z
M 1313 1497 
Q 1313 897 1542 583 
Q 1772 269 2209 269 
Q 2650 269 2876 622 
Q 3103 975 3103 1663 
Q 3103 2353 2876 2703 
Q 2650 3053 2209 3053 
Q 1772 3053 1542 2737 
Q 1313 2422 1313 1825 
L 1313 1497 
z
" transform="scale(0.015625)"/>
       </defs>
       <use xlink:href="#DejaVuSerif-46"/>
       <use xlink:href="#DejaVuSerif-65" x="63.884766"/>
       <use xlink:href="#DejaVuSerif-62" x="123.064453"/>
       <use xlink:href="#DejaVuSerif-20" x="187.078125"/>
       <use xlink:href="#DejaVuSerif-32" x="218.865234"/>
       <use xlink:href="#DejaVuSerif-30" x="282.488281"/>
       <use xlink:href="#DejaVuSerif-32" x="346.111328"/>
       <use xlink:href="#DejaVuSerif-36" x="409.734375"/>
      </g>
     </g>
    </g>
   </g>
   <g id="matplotlib.axis_2">
    <g id="ytick_1">
     <g id="line2d_7">
      <path d="M 35.600313 99.508599 
L 454.819687 99.508599 
" clip-path="url(#pc0d2fa7bdc)" style="fill: none; stroke: #b0b0b0; stroke-opacity: 0.25; stroke-width: 0.5; stroke-linecap: square"/>
     </g>
     <g id="line2d_8">
      <defs>
       <path id="mc3e6d39b63" d="M 0 0 
L -3.5 0 
" style="stroke: #000000; stroke-width: 0.8"/>
      </defs>
      <g>
       <use xlink:href="#mc3e6d39b63" x="35.600313" y="99.508599" style="stroke: #000000; stroke-width: 0.8"/>
      </g>
     </g>
     <g id="text_4">
      <!-- 0 -->
      <g style="fill: #2d5f91" transform="translate(23.510313 102.547974) scale(0.08 -0.08)">
       <use xlink:href="#DejaVuSerif-30"/>
      </g>
     </g>
    </g>
    <g id="ytick_2">
     <g id="line2d_9">
      <path d="M 35.600313 79.199264 
L 454.819687 79.199264 
" clip-path="url(#pc0d2fa7bdc)" style="fill: none; stroke: #b0b0b0; stroke-opacity: 0.25; stroke-width: 0.5; stroke-linecap: square"/>
     </g>
     <g id="line2d_10">
      <g>
       <use xlink:href="#mc3e6d39b63" x="35.600313" y="79.199264" style="stroke: #000000; stroke-width: 0.8"/>
      </g>
     </g>
     <g id="text_5">
      <!-- 1 -->
      <g style="fill: #2d5f91" transform="translate(23.510313 82.238639) scale(0.08 -0.08)">
       <defs>
        <path id="DejaVuSerif-31" d="M 909 0 
L 909 331 
L 1722 331 
L 1722 4213 
L 781 3603 
L 781 4013 
L 1919 4750 
L 2350 4750 
L 2350 331 
L 3163 331 
L 3163 0 
L 909 0 
z
" transform="scale(0.015625)"/>
       </defs>
       <use xlink:href="#DejaVuSerif-31"/>
      </g>
     </g>
    </g>
    <g id="ytick_3">
     <g id="line2d_11">
      <path d="M 35.600313 58.889928 
L 454.819687 58.889928 
" clip-path="url(#pc0d2fa7bdc)" style="fill: none; stroke: #b0b0b0; stroke-opacity: 0.25; stroke-width: 0.5; stroke-linecap: square"/>
     </g>
     <g id="line2d_12">
      <g>
       <use xlink:href="#mc3e6d39b63" x="35.600313" y="58.889928" style="stroke: #000000; stroke-width: 0.8"/>
      </g>
     </g>
     <g id="text_6">
      <!-- 2 -->
      <g style="fill: #2d5f91" transform="translate(23.510313 61.929303) scale(0.08 -0.08)">
       <use xlink:href="#DejaVuSerif-32"/>
      </g>
     </g>
    </g>
    <g id="ytick_4">
     <g id="line2d_13">
      <path d="M 35.600313 38.580593 
L 454.819687 38.580593 
" clip-path="url(#pc0d2fa7bdc)" style="fill: none; stroke: #b0b0b0; stroke-opacity: 0.25; stroke-width: 0.5; stroke-linecap: square"/>
     </g>
     <g id="line2d_14">
      <g>
       <use xlink:href="#mc3e6d39b63" x="35.600313" y="38.580593" style="stroke: #000000; stroke-width: 0.8"/>
      </g>
     </g>
     <g id="text_7">
      <!-- 3 -->
      <g style="fill: #2d5f91" transform="translate(23.510313 41.619968) scale(0.08 -0.08)">
       <defs>
        <path id="DejaVuSerif-33" d="M 622 4469 
Q 988 4606 1323 4678 
Q 1659 4750 1953 4750 
Q 2638 4750 3022 4454 
Q 3406 4159 3406 3634 
Q 3406 3213 3140 2930 
Q 2875 2647 2388 2547 
Q 2963 2466 3280 2130 
Q 3597 1794 3597 1259 
Q 3597 606 3158 257 
Q 2719 -91 1894 -91 
Q 1528 -91 1179 -12 
Q 831 66 488 225 
L 488 1131 
L 838 1131 
Q 869 681 1141 450 
Q 1413 219 1906 219 
Q 2384 219 2661 495 
Q 2938 772 2938 1253 
Q 2938 1803 2653 2086 
Q 2369 2369 1819 2369 
L 1522 2369 
L 1522 2688 
L 1678 2688 
Q 2225 2688 2498 2914 
Q 2772 3141 2772 3597 
Q 2772 4006 2547 4223 
Q 2322 4441 1900 4441 
Q 1478 4441 1245 4241 
Q 1013 4041 972 3647 
L 622 3647 
L 622 4469 
z
" transform="scale(0.015625)"/>
       </defs>
       <use xlink:href="#DejaVuSerif-33"/>
      </g>
     </g>
    </g>
    <g id="text_8">
     <!-- MiB -->
     <g style="fill: #2d5f91" transform="translate(17.638594 73.057195) rotate(-90) scale(0.09 -0.09)">
      <defs>
       <path id="DejaVuSerif-4d" d="M 353 0 
L 353 331 
L 947 331 
L 947 4331 
L 319 4331 
L 319 4666 
L 1678 4666 
L 3316 1344 
L 4953 4666 
L 6228 4666 
L 6228 4331 
L 5606 4331 
L 5606 331 
L 6203 331 
L 6203 0 
L 4378 0 
L 4378 331 
L 4972 331 
L 4972 3938 
L 3372 684 
L 2931 684 
L 1331 3938 
L 1331 331 
L 1925 331 
L 1925 0 
L 353 0 
z
" transform="scale(0.015625)"/>
       <path id="DejaVuSerif-69" d="M 622 4353 
Q 622 4497 726 4603 
Q 831 4709 978 4709 
Q 1122 4709 1226 4603 
Q 1331 4497 1331 4353 
Q 1331 4206 1228 4103 
Q 1125 4000 978 4000 
Q 831 4000 726 4103 
Q 622 4206 622 4353 
z
M 1356 331 
L 1900 331 
L 1900 0 
L 231 0 
L 231 331 
L 781 331 
L 781 2988 
L 231 2988 
L 231 3322 
L 1356 3322 
L 1356 331 
z
" transform="scale(0.015625)"/>
       <path id="DejaVuSerif-42" d="M 1581 331 
L 2516 331 
Q 3078 331 3337 575 
Q 3597 819 3597 1350 
Q 3597 1878 3339 2120 
Q 3081 2363 2516 2363 
L 1581 2363 
L 1581 331 
z
M 1581 2694 
L 2375 2694 
Q 2888 2694 3123 2891 
Q 3359 3088 3359 3513 
Q 3359 3941 3123 4136 
Q 2888 4331 2375 4331 
L 1581 4331 
L 1581 2694 
z
M 353 0 
L 353 331 
L 947 331 
L 947 4331 
L 353 4331 
L 353 4666 
L 2656 4666 
Q 3363 4666 3720 4377 
Q 4078 4088 4078 3513 
Q 4078 3097 3829 2850 
Q 3581 2603 3103 2547 
Q 3697 2472 4005 2167 
Q 4313 1863 4313 1350 
Q 4313 656 3875 328 
Q 3438 0 2509 0 
L 353 0 
z
" transform="scale(0.015625)"/>
      </defs>
      <use xlink:href="#DejaVuSerif-4d"/>
      <use xlink:href="#DejaVuSerif-69" x="102.392578"/>
      <use xlink:href="#DejaVuSerif-42" x="134.375"/>
     </g>
    </g>
    <g id="text_9">
     <!-- 1e8 -->
     <g style="fill: #2d5f91" transform="translate(35.600313 22.158281) scale(0.08 -0.08)">
      <defs>
       <path id="DejaVuSerif-38" d="M 2981 1275 
Q 2981 1775 2732 2051 
Q 2484 2328 2034 2328 
Q 1584 2328 1336 2051 
Q 1088 1775 1088 1275 
Q 1088 772 1336 495 
Q 1584 219 2034 219 
Q 2484 219 2732 495 
Q 2981 772 2981 1275 
z
M 2853 3541 
Q 2853 3966 2637 4203 
Q 2422 4441 2034 4441 
Q 1650 4441 1433 4203 
Q 1216 3966 1216 3541 
Q 1216 3113 1433 2875 
Q 1650 2638 2034 2638 
Q 2422 2638 2637 2875 
Q 2853 3113 2853 3541 
z
M 2516 2484 
Q 3047 2413 3344 2092 
Q 3641 1772 3641 1275 
Q 3641 619 3225 264 
Q 2809 -91 2034 -91 
Q 1263 -91 845 264 
Q 428 619 428 1275 
Q 428 1772 725 2092 
Q 1022 2413 1556 2484 
Q 1084 2569 832 2842 
Q 581 3116 581 3541 
Q 581 4103 968 4426 
Q 1356 4750 2034 4750 
Q 2713 4750 3100 4426 
Q 3488 4103 3488 3541 
Q 3488 3116 3236 2842 
Q 2984 2569 2516 2484 
z
" transform="scale(0.015625)"/>
      </defs>
      <use xlink:href="#DejaVuSerif-31"/>
      <use xlink:href="#DejaVuSerif-65" x="63.623047"/>
      <use xlink:href="#DejaVuSerif-38" x="122.802734"/>
     </g>
    </g>
   </g>
   <g id="line2d_15">
    <path d="M 54.655739 98.744652 
L 58.75368 97.980461 
L 62.851621 97.207939 
L 66.949562 96.432609 
L 71.047503 95.656036 
L 75.145444 94.89255 
L 79.243385 94.133604 
L 83.341326 93.378327 
L 87.439267 92.620646 
L 91.537209 91.862135 
L 95.63515 91.105439 
L 99.733091 90.350321 
L 103.831032 89.598231 
L 107.928973 88.844926 
L 112.026914 88.092063 
L 116.124855 87.340594 
L 120.222796 86.588613 
L 124.320737 85.840686 
L 128.418679 85.092268 
L 132.51662 84.343416 
L 136.614561 83.592084 
L 140.712502 82.843418 
L 144.810443 82.097181 
L 148.908384 81.351043 
L 153.006325 80.60647 
L 157.104266 79.867923 
L 161.202207 79.125443 
L 165.300148 78.380092 
L 169.39809 77.639389 
L 173.496031 76.908771 
L 177.593972 76.188215 
L 181.691913 75.470539 
L 185.789854 74.74707 
L 189.887795 74.016138 
L 193.985736 73.280602 
L 198.083677 72.544713 
L 202.181618 71.807853 
L 206.27956 71.07425 
L 210.377501 70.343202 
L 214.475442 69.599659 
L 218.573383 68.843124 
L 222.671324 68.090224 
L 226.769265 67.342862 
L 230.867206 66.592062 
L 234.965147 65.843069 
L 239.063088 65.091648 
L 243.161029 64.335997 
L 247.258971 63.585754 
L 251.356912 62.832944 
L 255.454853 62.082148 
L 259.552794 61.336427 
L 263.650735 60.591318 
L 267.748676 59.843087 
L 271.846617 59.101412 
L 275.944558 58.351236 
L 280.042499 57.601709 
L 284.14044 56.860425 
L 288.238382 56.144388 
L 292.336323 55.431232 
L 296.434264 54.69999 
L 300.532205 53.948709 
L 304.630146 53.193925 
L 308.728087 52.439425 
L 312.826028 51.688426 
L 316.923969 50.934397 
L 321.02191 50.186335 
L 325.119852 49.4362 
L 329.217793 48.689034 
L 333.315734 47.943709 
L 337.413675 47.202899 
L 341.511616 46.459579 
L 345.609557 45.709727 
L 349.707498 44.961821 
L 353.805439 44.18739 
L 357.90338 43.394997 
L 362.001321 42.60687 
L 366.099263 41.820916 
L 370.197204 41.02813 
L 374.295145 40.24513 
L 378.393086 39.456336 
L 382.491027 38.669924 
L 386.588968 37.88145 
L 390.686909 37.098818 
L 394.78485 36.342481 
L 398.882791 35.588705 
L 402.980733 34.811208 
L 407.078674 34.039003 
L 411.176615 33.270676 
L 415.274556 32.505693 
L 419.372497 31.734762 
L 423.470438 30.964463 
L 427.568379 30.200407 
L 431.66632 29.430586 
L 435.764261 28.662394 
" clip-path="url(#pc0d2fa7bdc)" style="fill: none; stroke: #2d5f91; stroke-width: 1.5; stroke-linecap: square"/>
   </g>
   <g id="patch_3">
    <path d="M 35.600313 102.248764 
L 35.600313 25.158281 
" style="fill: none; stroke: #000000; stroke-width: 0.6; stroke-linejoin: miter; stroke-linecap: square"/>
   </g>
   <g id="patch_4">
    <path d="M 35.600312 102.248764 
L 454.819687 102.248764 
" style="fill: none; stroke: #000000; stroke-width: 0.6; stroke-linejoin: miter; stroke-linecap: square"/>
   </g>
   <g id="text_10">
    <!-- Polkadot — Cumulative Data &amp; Spend -->
    <g transform="translate(139.204375 19.158281) scale(0.11 -0.11)">
     <defs>
      <path id="DejaVuSerif-50" d="M 1581 2375 
L 2406 2375 
Q 2872 2375 3115 2626 
Q 3359 2878 3359 3353 
Q 3359 3831 3115 4081 
Q 2872 4331 2406 4331 
L 1581 4331 
L 1581 2375 
z
M 353 0 
L 353 331 
L 947 331 
L 947 4331 
L 353 4331 
L 353 4666 
L 2559 4666 
Q 3259 4666 3668 4311 
Q 4078 3956 4078 3353 
Q 4078 2753 3668 2397 
Q 3259 2041 2559 2041 
L 1581 2041 
L 1581 331 
L 2303 331 
L 2303 0 
L 353 0 
z
" transform="scale(0.015625)"/>
      <path id="DejaVuSerif-6f" d="M 1925 219 
Q 2388 219 2623 584 
Q 2859 950 2859 1663 
Q 2859 2375 2623 2739 
Q 2388 3103 1925 3103 
Q 1463 3103 1227 2739 
Q 991 2375 991 1663 
Q 991 950 1228 584 
Q 1466 219 1925 219 
z
M 1925 -91 
Q 1200 -91 759 389 
Q 319 869 319 1663 
Q 319 2456 758 2934 
Q 1197 3413 1925 3413 
Q 2653 3413 3092 2934 
Q 3531 2456 3531 1663 
Q 3531 869 3092 389 
Q 2653 -91 1925 -91 
z
" transform="scale(0.015625)"/>
      <path id="DejaVuSerif-6c" d="M 1313 331 
L 1856 331 
L 1856 0 
L 184 0 
L 184 331 
L 738 331 
L 738 4531 
L 184 4531 
L 184 4863 
L 1313 4863 
L 1313 331 
z
" transform="scale(0.015625)"/>
      <path id="DejaVuSerif-6b" d="M 1831 0 
L 219 0 
L 219 331 
L 738 331 
L 738 4531 
L 184 4531 
L 184 4863 
L 1313 4863 
L 1313 1697 
L 2713 2988 
L 2234 2988 
L 2234 3322 
L 3738 3322 
L 3738 2988 
L 3169 2988 
L 2181 2075 
L 3444 331 
L 3922 331 
L 3922 0 
L 2284 0 
L 2284 331 
L 2759 331 
L 1766 1697 
L 1313 1275 
L 1313 331 
L 1831 331 
L 1831 0 
z
" transform="scale(0.015625)"/>
      <path id="DejaVuSerif-64" d="M 3359 331 
L 3909 331 
L 3909 0 
L 2784 0 
L 2784 519 
Q 2616 206 2355 57 
Q 2094 -91 1709 -91 
Q 1097 -91 708 395 
Q 319 881 319 1663 
Q 319 2444 706 2928 
Q 1094 3413 1709 3413 
Q 2094 3413 2355 3264 
Q 2616 3116 2784 2803 
L 2784 4531 
L 2241 4531 
L 2241 4863 
L 3359 4863 
L 3359 331 
z
M 2784 1497 
L 2784 1825 
Q 2784 2422 2554 2737 
Q 2325 3053 1888 3053 
Q 1444 3053 1217 2703 
Q 991 2353 991 1663 
Q 991 975 1217 622 
Q 1444 269 1888 269 
Q 2325 269 2554 583 
Q 2784 897 2784 1497 
z
" transform="scale(0.015625)"/>
      <path id="DejaVuSerif-74" d="M 691 2988 
L 184 2988 
L 184 3322 
L 691 3322 
L 691 4353 
L 1269 4353 
L 1269 3322 
L 2350 3322 
L 2350 2988 
L 1269 2988 
L 1269 878 
Q 1269 456 1350 337 
Q 1431 219 1650 219 
Q 1875 219 1978 351 
Q 2081 484 2088 781 
L 2522 781 
Q 2497 328 2275 118 
Q 2053 -91 1600 -91 
Q 1103 -91 897 129 
Q 691 350 691 878 
L 691 2988 
z
" transform="scale(0.015625)"/>
      <path id="DejaVuSerif-2014" d="M 281 1906 
L 6119 1906 
L 6119 1491 
L 281 1491 
L 281 1906 
z
" transform="scale(0.015625)"/>
      <path id="DejaVuSerif-43" d="M 4513 1234 
Q 4306 581 3820 245 
Q 3334 -91 2591 -91 
Q 2134 -91 1743 65 
Q 1353 222 1050 525 
Q 700 875 529 1320 
Q 359 1766 359 2328 
Q 359 3416 987 4083 
Q 1616 4750 2644 4750 
Q 3025 4750 3456 4650 
Q 3888 4550 4384 4347 
L 4384 3272 
L 4031 3272 
Q 3916 3859 3567 4137 
Q 3219 4416 2591 4416 
Q 1844 4416 1459 3886 
Q 1075 3356 1075 2328 
Q 1075 1303 1459 773 
Q 1844 244 2591 244 
Q 3113 244 3450 492 
Q 3788 741 3938 1234 
L 4513 1234 
z
" transform="scale(0.015625)"/>
      <path id="DejaVuSerif-75" d="M 2266 3322 
L 3341 3322 
L 3341 331 
L 3884 331 
L 3884 0 
L 2766 0 
L 2766 588 
Q 2606 256 2353 82 
Q 2100 -91 1766 -91 
Q 1213 -91 952 223 
Q 691 538 691 1209 
L 691 2988 
L 172 2988 
L 172 3322 
L 1269 3322 
L 1269 1388 
Q 1269 781 1417 556 
Q 1566 331 1947 331 
Q 2347 331 2556 625 
Q 2766 919 2766 1478 
L 2766 2988 
L 2266 2988 
L 2266 3322 
z
" transform="scale(0.015625)"/>
      <path id="DejaVuSerif-6d" d="M 3316 2675 
Q 3481 3041 3739 3227 
Q 3997 3413 4341 3413 
Q 4863 3413 5119 3089 
Q 5375 2766 5375 2113 
L 5375 331 
L 5894 331 
L 5894 0 
L 4300 0 
L 4300 331 
L 4800 331 
L 4800 2047 
Q 4800 2556 4650 2772 
Q 4500 2988 4153 2988 
Q 3769 2988 3567 2697 
Q 3366 2406 3366 1850 
L 3366 331 
L 3866 331 
L 3866 0 
L 2291 0 
L 2291 331 
L 2791 331 
L 2791 2069 
Q 2791 2566 2641 2777 
Q 2491 2988 2144 2988 
Q 1759 2988 1557 2697 
Q 1356 2406 1356 1850 
L 1356 331 
L 1856 331 
L 1856 0 
L 263 0 
L 263 331 
L 781 331 
L 781 2994 
L 231 2994 
L 231 3322 
L 1356 3322 
L 1356 2731 
Q 1516 3063 1762 3238 
Q 2009 3413 2322 3413 
Q 2709 3413 2968 3220 
Q 3228 3028 3316 2675 
z
" transform="scale(0.015625)"/>
      <path id="DejaVuSerif-76" d="M 1581 0 
L 359 2988 
L -19 2988 
L -19 3322 
L 1509 3322 
L 1509 2988 
L 978 2988 
L 1913 703 
L 2847 2988 
L 2350 2988 
L 2350 3322 
L 3597 3322 
L 3597 2988 
L 3225 2988 
L 2003 0 
L 1581 0 
z
" transform="scale(0.015625)"/>
      <path id="DejaVuSerif-26" d="M 3456 722 
L 1638 2638 
Q 1366 2394 1230 2111 
Q 1094 1828 1094 1509 
Q 1094 991 1453 639 
Q 1813 288 2350 288 
Q 2669 288 2951 398 
Q 3234 509 3456 722 
z
M 5394 0 
L 4141 0 
L 3713 453 
Q 3384 178 3012 43 
Q 2641 -91 2209 -91 
Q 1403 -91 931 321 
Q 459 734 459 1441 
Q 459 1856 698 2217 
Q 938 2578 1422 2894 
Q 1263 3084 1188 3273 
Q 1113 3463 1113 3669 
Q 1113 4166 1470 4458 
Q 1828 4750 2444 4750 
Q 2653 4750 2933 4697 
Q 3213 4644 3572 4538 
L 3572 3731 
L 3219 3731 
Q 3175 4066 2975 4241 
Q 2775 4416 2431 4416 
Q 2109 4416 1909 4239 
Q 1709 4063 1709 3781 
Q 1709 3591 1815 3402 
Q 1922 3213 2259 2859 
L 3872 1159 
Q 4088 1409 4211 1698 
Q 4334 1988 4366 2316 
L 3803 2316 
L 3803 2650 
L 5281 2650 
L 5281 2316 
L 4744 2316 
Q 4691 1909 4536 1556 
Q 4381 1203 4122 903 
L 4659 331 
L 5394 331 
L 5394 0 
z
" transform="scale(0.015625)"/>
      <path id="DejaVuSerif-53" d="M 594 225 
L 594 1288 
L 953 1284 
Q 969 753 1261 498 
Q 1553 244 2150 244 
Q 2706 244 2998 464 
Q 3291 684 3291 1106 
Q 3291 1444 3114 1625 
Q 2938 1806 2369 1978 
L 1753 2163 
Q 1084 2366 811 2669 
Q 538 2972 538 3500 
Q 538 4094 959 4422 
Q 1381 4750 2144 4750 
Q 2469 4750 2856 4679 
Q 3244 4609 3681 4475 
L 3681 3481 
L 3328 3481 
Q 3275 3975 2998 4195 
Q 2722 4416 2156 4416 
Q 1663 4416 1405 4214 
Q 1147 4013 1147 3628 
Q 1147 3294 1340 3103 
Q 1534 2913 2163 2725 
L 2741 2553 
Q 3375 2363 3645 2067 
Q 3916 1772 3916 1275 
Q 3916 597 3481 253 
Q 3047 -91 2188 -91 
Q 1803 -91 1404 -12 
Q 1006 66 594 225 
z
" transform="scale(0.015625)"/>
      <path id="DejaVuSerif-70" d="M 1313 1825 
L 1313 1497 
Q 1313 897 1542 583 
Q 1772 269 2209 269 
Q 2650 269 2876 622 
Q 3103 975 3103 1663 
Q 3103 2353 2876 2703 
Q 2650 3053 2209 3053 
Q 1772 3053 1542 2737 
Q 1313 2422 1313 1825 
z
M 738 2988 
L 184 2988 
L 184 3322 
L 1313 3322 
L 1313 2803 
Q 1481 3116 1742 3264 
Q 2003 3413 2388 3413 
Q 3000 3413 3387 2928 
Q 3775 2444 3775 1663 
Q 3775 881 3387 395 
Q 3000 -91 2388 -91 
Q 2003 -91 1742 57 
Q 1481 206 1313 519 
L 1313 -997 
L 1856 -997 
L 1856 -1331 
L 184 -1331 
L 184 -997 
L 738 -997 
L 738 2988 
z
" transform="scale(0.015625)"/>
     </defs>
     <use xlink:href="#DejaVuSerif-50"/>
     <use xlink:href="#DejaVuSerif-6f" x="63.285156"/>
     <use xlink:href="#DejaVuSerif-6c" x="123.490234"/>
     <use xlink:href="#DejaVuSerif-6b" x="155.472656"/>
     <use xlink:href="#DejaVuSerif-61" x="216.068359"/>
     <use xlink:href="#DejaVuSerif-64" x="275.6875"/>
     <use xlink:href="#DejaVuSerif-6f" x="339.701172"/>
     <use xlink:href="#DejaVuSerif-74" x="399.90625"/>
     <use xlink:href="#DejaVuSerif-20" x="440.091797"/>
     <use xlink:href="#DejaVuSerif-2014" x="471.878906"/>
     <use xlink:href="#DejaVuSerif-20" x="571.878906"/>
     <use xlink:href="#DejaVuSerif-43" x="603.666016"/>
     <use xlink:href="#DejaVuSerif-75" x="680.179688"/>
     <use xlink:href="#DejaVuSerif-6d" x="744.583984"/>
     <use xlink:href="#DejaVuSerif-75" x="839.408203"/>
     <use xlink:href="#DejaVuSerif-6c" x="903.8125"/>
     <use xlink:href="#DejaVuSerif-61" x="935.794922"/>
     <use xlink:href="#DejaVuSerif-74" x="995.414062"/>
     <use xlink:href="#DejaVuSerif-69" x="1035.599609"/>
     <use xlink:href="#DejaVuSerif-76" x="1067.582031"/>
     <use xlink:href="#DejaVuSerif-65" x="1124.076172"/>
     <use xlink:href="#DejaVuSerif-20" x="1183.255859"/>
     <use xlink:href="#DejaVuSerif-44" x="1215.042969"/>
     <use xlink:href="#DejaVuSerif-61" x="1295.21875"/>
     <use xlink:href="#DejaVuSerif-74" x="1354.837891"/>
     <use xlink:href="#DejaVuSerif-61" x="1395.023438"/>
     <use xlink:href="#DejaVuSerif-20" x="1454.642578"/>
     <use xlink:href="#DejaVuSerif-26" x="1486.429688"/>
     <use xlink:href="#DejaVuSerif-20" x="1575.443359"/>
     <use xlink:href="#DejaVuSerif-53" x="1607.230469"/>
     <use xlink:href="#DejaVuSerif-70" x="1675.736328"/>
     <use xlink:href="#DejaVuSerif-65" x="1739.75"/>
     <use xlink:href="#DejaVuSerif-6e" x="1798.929688"/>
     <use xlink:href="#DejaVuSerif-64" x="1863.333984"/>
    </g>
   </g>
   <g id="legend_1">
    <g id="patch_5">
     <path d="M 41.200313 55.043281 
L 134.349063 55.043281 
Q 135.949062 55.043281 135.949062 53.443281 
L 135.949062 30.758281 
Q 135.949062 29.158281 134.349063 29.158281 
L 41.200313 29.158281 
Q 39.600313 29.158281 39.600313 30.758281 
L 39.600313 53.443281 
Q 39.600313 55.043281 41.200313 55.043281 
z
" style="fill: #ffffff; opacity: 0.9; stroke: #cccccc; stroke-linejoin: miter"/>
    </g>
    <g id="line2d_16">
     <path d="M 42.800313 35.637031 
L 50.800313 35.637031 
L 58.800313 35.637031 
" style="fill: none; stroke: #2d5f91; stroke-width: 1.5; stroke-linecap: square"/>
    </g>
    <g id="text_11">
     <!-- Cumulative MiB -->
     <g transform="translate(65.200312 38.437031) scale(0.08 -0.08)">
      <use xlink:href="#DejaVuSerif-43"/>
      <use xlink:href="#DejaVuSerif-75" x="76.513672"/>
      <use xlink:href="#DejaVuSerif-6d" x="140.917969"/>
      <use xlink:href="#DejaVuSerif-75" x="235.742188"/>
      <use xlink:href="#DejaVuSerif-6c" x="300.146484"/>
      <use xlink:href="#DejaVuSerif-61" x="332.128906"/>
      <use xlink:href="#DejaVuSerif-74" x="391.748047"/>
      <use xlink:href="#DejaVuSerif-69" x="431.933594"/>
      <use xlink:href="#DejaVuSerif-76" x="463.916016"/>
      <use xlink:href="#DejaVuSerif-65" x="520.410156"/>
      <use xlink:href="#DejaVuSerif-20" x="579.589844"/>
      <use xlink:href="#DejaVuSerif-4d" x="611.376953"/>
      <use xlink:href="#DejaVuSerif-69" x="713.769531"/>
      <use xlink:href="#DejaVuSerif-42" x="745.751953"/>
     </g>
    </g>
    <g id="line2d_17">
     <path d="M 42.800313 47.379531 
L 50.800313 47.379531 
L 58.800313 47.379531 
" style="fill: none; stroke-dasharray: 5.55,2.4; stroke-dashoffset: 0; stroke: #cc6633; stroke-width: 1.5"/>
    </g>
    <g id="text_12">
     <!-- Cumulative USD -->
     <g transform="translate(65.200312 50.179531) scale(0.08 -0.08)">
      <defs>
       <path id="DejaVuSerif-55" d="M 897 4331 
L 300 4331 
L 300 4666 
L 2125 4666 
L 2125 4331 
L 1528 4331 
L 1528 1919 
Q 1528 1025 1820 672 
Q 2113 319 2828 319 
Q 3544 319 3836 672 
Q 4128 1025 4128 1919 
L 4128 4331 
L 3531 4331 
L 3531 4666 
L 5106 4666 
L 5106 4331 
L 4513 4331 
L 4513 1856 
Q 4513 791 4103 350 
Q 3694 -91 2713 -91 
Q 1731 -91 1314 353 
Q 897 797 897 1856 
L 897 4331 
z
" transform="scale(0.015625)"/>
      </defs>
      <use xlink:href="#DejaVuSerif-43"/>
      <use xlink:href="#DejaVuSerif-75" x="76.513672"/>
      <use xlink:href="#DejaVuSerif-6d" x="140.917969"/>
      <use xlink:href="#DejaVuSerif-75" x="235.742188"/>
      <use xlink:href="#DejaVuSerif-6c" x="300.146484"/>
      <use xlink:href="#DejaVuSerif-61" x="332.128906"/>
      <use xlink:href="#DejaVuSerif-74" x="391.748047"/>
      <use xlink:href="#DejaVuSerif-69" x="431.933594"/>
      <use xlink:href="#DejaVuSerif-76" x="463.916016"/>
      <use xlink:href="#DejaVuSerif-65" x="520.410156"/>
      <use xlink:href="#DejaVuSerif-20" x="579.589844"/>
      <use xlink:href="#DejaVuSerif-55" x="611.376953"/>
      <use xlink:href="#DejaVuSerif-53" x="695.654297"/>
      <use xlink:href="#DejaVuSerif-44" x="764.160156"/>
     </g>
    </g>
   </g>
  </g>
  <g id="axes_2">
   <g id="matplotlib.axis_3">
    <g id="ytick_5">
     <g id="line2d_18">
      <path d="M 35.600313 72.570706 
L 454.819687 72.570706 
" clip-path="url(#pc0d2fa7bdc)" style="fill: none; stroke: #b0b0b0; stroke-opacity: 0.25; stroke-width: 0.5; stroke-linecap: square"/>
     </g>
     <g id="line2d_19">
      <defs>
       <path id="m1c26d1894f" d="M 0 0 
L 3.5 0 
" style="stroke: #000000; stroke-width: 0.8"/>
      </defs>
      <g>
       <use xlink:href="#m1c26d1894f" x="454.819687" y="72.570706" style="stroke: #000000; stroke-width: 0.8"/>
      </g>
     </g>
     <g id="text_13">
      <!-- 2000 -->
      <g style="fill: #cc6633" transform="translate(461.819687 75.610081) scale(0.08 -0.08)">
       <use xlink:href="#DejaVuSerif-32"/>
       <use xlink:href="#DejaVuSerif-30" x="63.623047"/>
       <use xlink:href="#DejaVuSerif-30" x="127.246094"/>
       <use xlink:href="#DejaVuSerif-30" x="190.869141"/>
      </g>
     </g>
    </g>
    <g id="ytick_6">
     <g id="line2d_20">
      <path d="M 35.600313 40.651242 
L 454.819687 40.651242 
" clip-path="url(#pc0d2fa7bdc)" style="fill: none; stroke: #b0b0b0; stroke-opacity: 0.25; stroke-width: 0.5; stroke-linecap: square"/>
     </g>
     <g id="line2d_21">
      <g>
       <use xlink:href="#m1c26d1894f" x="454.819687" y="40.651242" style="stroke: #000000; stroke-width: 0.8"/>
      </g>
     </g>
     <g id="text_14">
      <!-- 4000 -->
      <g style="fill: #cc6633" transform="translate(461.819687 43.690617) scale(0.08 -0.08)">
       <defs>
        <path id="DejaVuSerif-34" d="M 2234 1581 
L 2234 4063 
L 641 1581 
L 2234 1581 
z
M 3609 0 
L 1484 0 
L 1484 331 
L 2234 331 
L 2234 1247 
L 197 1247 
L 197 1588 
L 2241 4750 
L 2859 4750 
L 2859 1581 
L 3750 1581 
L 3750 1247 
L 2859 1247 
L 2859 331 
L 3609 331 
L 3609 0 
z
" transform="scale(0.015625)"/>
       </defs>
       <use xlink:href="#DejaVuSerif-34"/>
       <use xlink:href="#DejaVuSerif-30" x="63.623047"/>
       <use xlink:href="#DejaVuSerif-30" x="127.246094"/>
       <use xlink:href="#DejaVuSerif-30" x="190.869141"/>
      </g>
     </g>
    </g>
    <g id="text_15">
     <!-- USD -->
     <g style="fill: #cc6633" transform="translate(493.018281 74.186413) rotate(-90) scale(0.09 -0.09)">
      <use xlink:href="#DejaVuSerif-55"/>
      <use xlink:href="#DejaVuSerif-53" x="84.277344"/>
      <use xlink:href="#DejaVuSerif-44" x="152.783203"/>
     </g>
    </g>
   </g>
   <g id="line2d_22">
    <path d="M 54.655739 98.744652 
L 58.75368 98.264845 
L 62.851621 89.397165 
L 66.949562 86.427863 
L 71.047503 86.427863 
L 75.145444 86.427863 
L 79.243385 85.997654 
L 83.341326 85.224978 
L 87.439267 84.833902 
L 91.537209 84.473417 
L 95.63515 84.473417 
L 99.733091 84.473417 
L 103.831032 84.473417 
L 107.928973 84.473417 
L 112.026914 84.473417 
L 116.124855 84.473417 
L 120.222796 84.473417 
L 124.320737 84.473417 
L 128.418679 84.473417 
L 132.51662 84.473417 
L 136.614561 83.467117 
L 140.712502 83.467117 
L 144.810443 83.467117 
L 148.908384 82.801182 
L 153.006325 82.120945 
L 157.104266 82.120945 
L 161.202207 81.77027 
L 165.300148 81.77027 
L 169.39809 76.514157 
L 173.496031 74.816231 
L 177.593972 69.45246 
L 181.691913 69.120779 
L 185.789854 69.120779 
L 189.887795 69.120779 
L 193.985736 67.675179 
L 198.083677 67.675179 
L 202.181618 67.675179 
L 206.27956 67.379003 
L 210.377501 67.379003 
L 214.475442 67.379003 
L 218.573383 67.379003 
L 222.671324 67.379003 
L 226.769265 67.379003 
L 230.867206 67.379003 
L 234.965147 64.827884 
L 239.063088 64.827884 
L 243.161029 64.827884 
L 247.258971 64.827884 
L 251.356912 64.827884 
L 255.454853 64.827884 
L 259.552794 64.488773 
L 263.650735 64.147416 
L 267.748676 63.441733 
L 271.846617 62.728994 
L 275.944558 62.728994 
L 280.042499 62.728994 
L 284.14044 57.134378 
L 288.238382 56.42486 
L 292.336323 50.112185 
L 296.434264 49.521086 
L 300.532205 49.135654 
L 304.630146 46.895128 
L 308.728087 46.895128 
L 312.826028 46.536309 
L 316.923969 46.536309 
L 321.02191 46.536309 
L 325.119852 46.536309 
L 329.217793 46.536309 
L 333.315734 46.225622 
L 337.413675 46.225622 
L 341.511616 46.225622 
L 345.609557 46.225622 
L 349.707498 46.225622 
L 353.805439 42.17285 
L 357.90338 42.17285 
L 362.001321 42.17285 
L 366.099263 42.17285 
L 370.197204 42.17285 
L 374.295145 42.17285 
L 378.393086 39.299938 
L 382.491027 39.053383 
L 386.588968 38.815172 
L 390.686909 38.581493 
L 394.78485 38.581493 
L 398.882791 34.578623 
L 402.980733 32.935651 
L 407.078674 30.865624 
L 411.176615 28.86711 
L 415.274556 28.662394 
L 419.372497 28.662394 
L 423.470438 28.662394 
L 427.568379 28.662394 
L 431.66632 28.662394 
L 435.764261 28.662394 
" clip-path="url(#pc0d2fa7bdc)" style="fill: none; stroke-dasharray: 5.55,2.4; stroke-dashoffset: 0; stroke: #cc6633; stroke-width: 1.5"/>
   </g>
   <g id="patch_6">
    <path d="M 35.600313 102.248764 
L 35.600313 25.158281 
" style="fill: none; stroke: #000000; stroke-width: 0.6; stroke-linejoin: miter; stroke-linecap: square"/>
   </g>
   <g id="patch_7">
    <path d="M 454.819687 102.248764 
L 454.819687 25.158281 
" style="fill: none; stroke: #000000; stroke-width: 0.6; stroke-linejoin: miter; stroke-linecap: square"/>
   </g>
   <g id="patch_8">
    <path d="M 35.600312 102.248764 
L 454.819687 102.248764 
" style="fill: none; stroke: #000000; stroke-width: 0.6; stroke-linejoin: miter; stroke-linecap: square"/>
   </g>
  </g>
 </g>
 <defs>
  <clipPath id="pc0d2fa7bdc">
   <rect x="35.600313" y="25.158281" width="419.219375" height="77.090483"/>
  </clipPath>
 </defs>
</svg>
