<?xml version="1.0" encoding="utf-8" standalone="no"?>
<!DOCTYPE svg PUBLIC "-//W3C//DTD SVG 1.1//EN"
  "http://www.w3.org/Graphics/SVG/1.1/DTD/svg11.dtd">
<svg xmlns:xlink="http://www.w3.org/1999/xlink" width="498.855313pt" height="203.228937pt" viewBox="0 0 498.855313 203.228937" xmlns="http://www.w3.org/2000/svg" version="1.1">
 <metadata>
  <rdf:RDF xmlns:dc="http://purl.org/dc/elements/1.1/" xmlns:cc="http://creativecommons.org/ns#" xmlns:rdf="http://www.w3.org/1999/02/22-rdf-syntax-ns#">
   <cc:Work>
    <dc:type rdf:resource="http://purl.org/dc/dcmitype/StillImage"/>
    <dc:date>2026-02-16T16:57:27.104216</dc:date>
    <dc:format>image/svg+xml</dc:format>
    <dc:creator>
     <cc:Agent>
      <dc:title>Matplotlib v3.10.8, https://matplotlib.org/</dc:title>
     </cc:Agent>
    </dc:creator>
   </cc:Work>
  </rdf:RDF>
 </metadata>
 <defs>
  <style type="text/css">*{stroke-linejoin: round; stroke-linecap: butt}</style>
 </defs>
 <g id="figure_1">
  <g id="patch_1">
   <path d="M 0 203.228937 
L 498.855313 203.228937 
L 498.855313 0 
L 0 0 
z
" style="fill: #ffffff"/>
  </g>
  <g id="axes_1">
   <g id="patch_2">
    <path d="M 35.600313 159.45811 
L 488.055313 159.45811 
L 488.055313 25.158281 
L 35.600313 25.158281 
z
" style="fill: #ffffff"/>
   </g>
   <g id="matplotlib.axis_1">
    <g id="xtick_1">
     <g id="line2d_1">
      <path d="M 128.08215 159.45811 
L 128.08215 25.158281 
" clip-path="url(#pcae8c633f4)" style="fill: none; stroke: #b0b0b0; stroke-opacity: 0.25; stroke-width: 0.5; stroke-linecap: square"/>
     </g>
     <g id="line2d_2">
      <defs>
       <path id="mcbfd20143e" d="M 0 0 
L 0 3.5 
" style="stroke: #000000; stroke-width: 0.8"/>
      </defs>
      <g>
       <use xlink:href="#mcbfd20143e" x="128.08215" y="159.45811" style="stroke: #000000; stroke-width: 0.8"/>
      </g>
     </g>
     <g id="text_1">
      <!-- Dec 2025 -->
      <g transform="translate(93.881233 190.988087) rotate(-30) scale(0.08 -0.08)">
       <defs>
        <path id="DejaVuSerif-44" d="M 1581 331 
L 2163 331 
Q 3072 331 3558 850 
Q 4044 1369 4044 2338 
Q 4044 3306 3559 3818 
Q 3075 4331 2163 4331 
L 1581 4331 
L 1581 331 
z
M 353 0 
L 353 331 
L 947 331 
L 947 4331 
L 353 4331 
L 353 4666 
L 2209 4666 
Q 3416 4666 4089 4050 
Q 4763 3434 4763 2338 
Q 4763 1238 4088 619 
Q 3413 0 2209 0 
L 353 0 
z
" transform="scale(0.015625)"/>
        <path id="DejaVuSerif-65" d="M 3469 1600 
L 991 1600 
L 991 1575 
Q 991 903 1244 561 
Q 1497 219 1991 219 
Q 2369 219 2611 417 
Q 2853 616 2950 1006 
L 3413 1006 
Q 3275 459 2904 184 
Q 2534 -91 1931 -91 
Q 1203 -91 761 389 
Q 319 869 319 1663 
Q 319 2450 753 2931 
Q 1188 3413 1894 3413 
Q 2647 3413 3050 2948 
Q 3453 2484 3469 1600 
z
M 2791 1931 
Q 2772 2513 2545 2808 
Q 2319 3103 1894 3103 
Q 1497 3103 1269 2806 
Q 1041 2509 991 1931 
L 2791 1931 
z
" transform="scale(0.015625)"/>
        <path id="DejaVuSerif-63" d="M 3291 997 
Q 3169 466 2822 187 
Q 2475 -91 1925 -91 
Q 1200 -91 759 389 
Q 319 869 319 1663 
Q 319 2459 759 2936 
Q 1200 3413 1925 3413 
Q 2241 3413 2553 3339 
Q 2866 3266 3181 3116 
L 3181 2266 
L 2847 2266 
Q 2781 2703 2561 2903 
Q 2341 3103 1931 3103 
Q 1466 3103 1228 2742 
Q 991 2381 991 1663 
Q 991 944 1227 581 
Q 1463 219 1931 219 
Q 2303 219 2525 412 
Q 2747 606 2828 997 
L 3291 997 
z
" transform="scale(0.015625)"/>
        <path id="DejaVuSerif-20" transform="scale(0.015625)"/>
        <path id="DejaVuSerif-32" d="M 819 3553 
L 469 3553 
L 469 4384 
Q 803 4563 1142 4656 
Q 1481 4750 1806 4750 
Q 2534 4750 2956 4397 
Q 3378 4044 3378 3438 
Q 3378 2753 2422 1800 
Q 2347 1728 2309 1691 
L 1131 513 
L 3078 513 
L 3078 1088 
L 3444 1088 
L 3444 0 
L 434 0 
L 434 341 
L 1850 1753 
Q 2319 2222 2519 2614 
Q 2719 3006 2719 3438 
Q 2719 3909 2473 4175 
Q 2228 4441 1797 4441 
Q 1350 4441 1106 4219 
Q 863 3997 819 3553 
z
" transform="scale(0.015625)"/>
        <path id="DejaVuSerif-30" d="M 2034 219 
Q 2513 219 2750 744 
Q 2988 1269 2988 2328 
Q 2988 3391 2750 3916 
Q 2513 4441 2034 4441 
Q 1556 4441 1318 3916 
Q 1081 3391 1081 2328 
Q 1081 1269 1318 744 
Q 1556 219 2034 219 
z
M 2034 -91 
Q 1275 -91 848 546 
Q 422 1184 422 2328 
Q 422 3475 848 4112 
Q 1275 4750 2034 4750 
Q 2797 4750 3222 4112 
Q 3647 3475 3647 2328 
Q 3647 1184 3222 546 
Q 2797 -91 2034 -91 
z
" transform="scale(0.015625)"/>
        <path id="DejaVuSerif-35" d="M 3219 4666 
L 3219 4153 
L 1081 4153 
L 1081 2816 
Q 1244 2928 1461 2984 
Q 1678 3041 1947 3041 
Q 2703 3041 3140 2622 
Q 3578 2203 3578 1478 
Q 3578 738 3136 323 
Q 2694 -91 1894 -91 
Q 1572 -91 1234 -12 
Q 897 66 544 225 
L 544 1131 
L 897 1131 
Q 925 688 1179 453 
Q 1434 219 1894 219 
Q 2388 219 2653 544 
Q 2919 869 2919 1478 
Q 2919 2084 2655 2407 
Q 2391 2731 1894 2731 
Q 1613 2731 1398 2631 
Q 1184 2531 1019 2322 
L 750 2322 
L 750 4666 
L 3219 4666 
z
" transform="scale(0.015625)"/>
       </defs>
       <use xlink:href="#DejaVuSerif-44"/>
       <use xlink:href="#DejaVuSerif-65" transform="translate(80.175781 0)"/>
       <use xlink:href="#DejaVuSerif-63" transform="translate(139.355469 0)"/>
       <use xlink:href="#DejaVuSerif-20" transform="translate(195.361328 0)"/>
       <use xlink:href="#DejaVuSerif-32" transform="translate(227.148438 0)"/>
       <use xlink:href="#DejaVuSerif-30" transform="translate(290.771484 0)"/>
       <use xlink:href="#DejaVuSerif-32" transform="translate(354.394531 0)"/>
       <use xlink:href="#DejaVuSerif-35" transform="translate(418.017578 0)"/>
      </g>
     </g>
    </g>
    <g id="xtick_2">
     <g id="line2d_3">
      <path d="M 264.020364 159.45811 
L 264.020364 25.158281 
" clip-path="url(#pcae8c633f4)" style="fill: none; stroke: #b0b0b0; stroke-opacity: 0.25; stroke-width: 0.5; stroke-linecap: square"/>
     </g>
     <g id="line2d_4">
      <g>
       <use xlink:href="#mcbfd20143e" x="264.020364" y="159.45811" style="stroke: #000000; stroke-width: 0.8"/>
      </g>
     </g>
     <g id="text_2">
      <!-- Jan 2026 -->
      <g transform="translate(231.983429 189.738712) rotate(-30) scale(0.08 -0.08)">
       <defs>
        <path id="DejaVuSerif-4a" d="M -538 -1119 
L -538 -384 
L -181 -384 
Q -172 -694 -34 -845 
Q 103 -997 378 -997 
Q 750 -997 897 -762 
Q 1044 -528 1044 153 
L 1044 4331 
L 319 4331 
L 319 4666 
L 2272 4666 
L 2272 4331 
L 1678 4331 
L 1678 128 
Q 1678 -644 1368 -987 
Q 1059 -1331 372 -1331 
Q 150 -1331 -79 -1278 
Q -309 -1225 -538 -1119 
z
" transform="scale(0.015625)"/>
        <path id="DejaVuSerif-61" d="M 2547 1044 
L 2547 1747 
L 1806 1747 
Q 1378 1747 1168 1562 
Q 959 1378 959 997 
Q 959 650 1171 447 
Q 1384 244 1747 244 
Q 2106 244 2326 466 
Q 2547 688 2547 1044 
z
M 3122 2075 
L 3122 331 
L 3634 331 
L 3634 0 
L 2547 0 
L 2547 359 
Q 2356 128 2106 18 
Q 1856 -91 1522 -91 
Q 969 -91 644 203 
Q 319 497 319 997 
Q 319 1513 691 1797 
Q 1063 2081 1741 2081 
L 2547 2081 
L 2547 2309 
Q 2547 2688 2317 2895 
Q 2088 3103 1672 3103 
Q 1328 3103 1125 2947 
Q 922 2791 872 2484 
L 575 2484 
L 575 3156 
Q 875 3284 1158 3348 
Q 1441 3413 1709 3413 
Q 2400 3413 2761 3070 
Q 3122 2728 3122 2075 
z
" transform="scale(0.015625)"/>
        <path id="DejaVuSerif-6e" d="M 263 0 
L 263 331 
L 781 331 
L 781 2988 
L 231 2988 
L 231 3322 
L 1356 3322 
L 1356 2731 
Q 1516 3069 1770 3241 
Q 2025 3413 2363 3413 
Q 2913 3413 3172 3097 
Q 3431 2781 3431 2113 
L 3431 331 
L 3944 331 
L 3944 0 
L 2356 0 
L 2356 331 
L 2853 331 
L 2853 1931 
Q 2853 2541 2703 2767 
Q 2553 2994 2175 2994 
Q 1775 2994 1565 2701 
Q 1356 2409 1356 1850 
L 1356 331 
L 1856 331 
L 1856 0 
L 263 0 
z
" transform="scale(0.015625)"/>
        <path id="DejaVuSerif-36" d="M 2094 219 
Q 2534 219 2771 542 
Q 3009 866 3009 1472 
Q 3009 2078 2771 2401 
Q 2534 2725 2094 2725 
Q 1647 2725 1412 2412 
Q 1178 2100 1178 1509 
Q 1178 888 1415 553 
Q 1653 219 2094 219 
z
M 1075 2569 
Q 1288 2803 1556 2918 
Q 1825 3034 2163 3034 
Q 2859 3034 3264 2615 
Q 3669 2197 3669 1472 
Q 3669 763 3233 336 
Q 2797 -91 2069 -91 
Q 1278 -91 853 498 
Q 428 1088 428 2181 
Q 428 3406 931 4078 
Q 1434 4750 2350 4750 
Q 2597 4750 2869 4703 
Q 3141 4656 3425 4563 
L 3425 3794 
L 3072 3794 
Q 3034 4109 2831 4275 
Q 2628 4441 2284 4441 
Q 1678 4441 1381 3981 
Q 1084 3522 1075 2569 
z
" transform="scale(0.015625)"/>
       </defs>
       <use xlink:href="#DejaVuSerif-4a"/>
       <use xlink:href="#DejaVuSerif-61" transform="translate(40.087891 0)"/>
       <use xlink:href="#DejaVuSerif-6e" transform="translate(99.707031 0)"/>
       <use xlink:href="#DejaVuSerif-20" transform="translate(164.111328 0)"/>
       <use xlink:href="#DejaVuSerif-32" transform="translate(195.898438 0)"/>
       <use xlink:href="#DejaVuSerif-30" transform="translate(259.521484 0)"/>
       <use xlink:href="#DejaVuSerif-32" transform="translate(323.144531 0)"/>
       <use xlink:href="#DejaVuSerif-36" transform="translate(386.767578 0)"/>
      </g>
     </g>
    </g>
    <g id="xtick_3">
     <g id="line2d_5">
      <path d="M 399.958579 159.45811 
L 399.958579 25.158281 
" clip-path="url(#pcae8c633f4)" style="fill: none; stroke: #b0b0b0; stroke-opacity: 0.25; stroke-width: 0.5; stroke-linecap: square"/>
     </g>
     <g id="line2d_6">
      <g>
       <use xlink:href="#mcbfd20143e" x="399.958579" y="159.45811" style="stroke: #000000; stroke-width: 0.8"/>
      </g>
     </g>
     <g id="text_3">
      <!-- Feb 2026 -->
      <g transform="translate(366.330322 190.657462) rotate(-30) scale(0.08 -0.08)">
       <defs>
        <path id="DejaVuSerif-46" d="M 353 0 
L 353 331 
L 947 331 
L 947 4331 
L 353 4331 
L 353 4666 
L 4172 4666 
L 4172 3628 
L 3788 3628 
L 3788 4281 
L 1581 4281 
L 1581 2719 
L 3175 2719 
L 3175 3303 
L 3559 3303 
L 3559 1753 
L 3175 1753 
L 3175 2338 
L 1581 2338 
L 1581 331 
L 2328 331 
L 2328 0 
L 353 0 
z
" transform="scale(0.015625)"/>
        <path id="DejaVuSerif-62" d="M 738 331 
L 738 4531 
L 184 4531 
L 184 4863 
L 1313 4863 
L 1313 2803 
Q 1481 3116 1742 3264 
Q 2003 3413 2388 3413 
Q 3000 3413 3387 2928 
Q 3775 2444 3775 1663 
Q 3775 881 3387 395 
Q 3000 -91 2388 -91 
Q 2003 -91 1742 57 
Q 1481 206 1313 519 
L 1313 0 
L 184 0 
L 184 331 
L 738 331 
z
M 1313 1497 
Q 1313 897 1542 583 
Q 1772 269 2209 269 
Q 2650 269 2876 622 
Q 3103 975 3103 1663 
Q 3103 2353 2876 2703 
Q 2650 3053 2209 3053 
Q 1772 3053 1542 2737 
Q 1313 2422 1313 1825 
L 1313 1497 
z
" transform="scale(0.015625)"/>
       </defs>
       <use xlink:href="#DejaVuSerif-46"/>
       <use xlink:href="#DejaVuSerif-65" transform="translate(63.884766 0)"/>
       <use xlink:href="#DejaVuSerif-62" transform="translate(123.064453 0)"/>
       <use xlink:href="#DejaVuSerif-20" transform="translate(187.078125 0)"/>
       <use xlink:href="#DejaVuSerif-32" transform="translate(218.865234 0)"/>
       <use xlink:href="#DejaVuSerif-30" transform="translate(282.488281 0)"/>
       <use xlink:href="#DejaVuSerif-32" transform="translate(346.111328 0)"/>
       <use xlink:href="#DejaVuSerif-36" transform="translate(409.734375 0)"/>
      </g>
     </g>
    </g>
   </g>
   <g id="matplotlib.axis_2">
    <g id="ytick_1">
     <g id="line2d_7">
      <path d="M 35.600313 159.45811 
L 488.055313 159.45811 
" clip-path="url(#pcae8c633f4)" style="fill: none; stroke: #b0b0b0; stroke-opacity: 0.25; stroke-width: 0.5; stroke-linecap: square"/>
     </g>
     <g id="line2d_8">
      <defs>
       <path id="m1b81565b4b" d="M 0 0 
L -3.5 0 
" style="stroke: #000000; stroke-width: 0.8"/>
      </defs>
      <g>
       <use xlink:href="#m1b81565b4b" x="35.600313" y="159.45811" style="stroke: #000000; stroke-width: 0.8"/>
      </g>
     </g>
     <g id="text_4">
      <!-- 0 -->
      <g transform="translate(23.510313 162.497485) scale(0.08 -0.08)">
       <use xlink:href="#DejaVuSerif-30"/>
      </g>
     </g>
    </g>
    <g id="ytick_2">
     <g id="line2d_9">
      <path d="M 35.600313 126.69193 
L 488.055313 126.69193 
" clip-path="url(#pcae8c633f4)" style="fill: none; stroke: #b0b0b0; stroke-opacity: 0.25; stroke-width: 0.5; stroke-linecap: square"/>
     </g>
     <g id="line2d_10">
      <g>
       <use xlink:href="#m1b81565b4b" x="35.600313" y="126.69193" style="stroke: #000000; stroke-width: 0.8"/>
      </g>
     </g>
     <g id="text_5">
      <!-- 1 -->
      <g transform="translate(23.510313 129.731305) scale(0.08 -0.08)">
       <defs>
        <path id="DejaVuSerif-31" d="M 909 0 
L 909 331 
L 1722 331 
L 1722 4213 
L 781 3603 
L 781 4013 
L 1919 4750 
L 2350 4750 
L 2350 331 
L 3163 331 
L 3163 0 
L 909 0 
z
" transform="scale(0.015625)"/>
       </defs>
       <use xlink:href="#DejaVuSerif-31"/>
      </g>
     </g>
    </g>
    <g id="ytick_3">
     <g id="line2d_11">
      <path d="M 35.600313 93.92575 
L 488.055313 93.92575 
" clip-path="url(#pcae8c633f4)" style="fill: none; stroke: #b0b0b0; stroke-opacity: 0.25; stroke-width: 0.5; stroke-linecap: square"/>
     </g>
     <g id="line2d_12">
      <g>
       <use xlink:href="#m1b81565b4b" x="35.600313" y="93.92575" style="stroke: #000000; stroke-width: 0.8"/>
      </g>
     </g>
     <g id="text_6">
      <!-- 2 -->
      <g transform="translate(23.510313 96.965125) scale(0.08 -0.08)">
       <use xlink:href="#DejaVuSerif-32"/>
      </g>
     </g>
    </g>
    <g id="ytick_4">
     <g id="line2d_13">
      <path d="M 35.600313 61.159569 
L 488.055313 61.159569 
" clip-path="url(#pcae8c633f4)" style="fill: none; stroke: #b0b0b0; stroke-opacity: 0.25; stroke-width: 0.5; stroke-linecap: square"/>
     </g>
     <g id="line2d_14">
      <g>
       <use xlink:href="#m1b81565b4b" x="35.600313" y="61.159569" style="stroke: #000000; stroke-width: 0.8"/>
      </g>
     </g>
     <g id="text_7">
      <!-- 3 -->
      <g transform="translate(23.510313 64.198944) scale(0.08 -0.08)">
       <defs>
        <path id="DejaVuSerif-33" d="M 622 4469 
Q 988 4606 1323 4678 
Q 1659 4750 1953 4750 
Q 2638 4750 3022 4454 
Q 3406 4159 3406 3634 
Q 3406 3213 3140 2930 
Q 2875 2647 2388 2547 
Q 2963 2466 3280 2130 
Q 3597 1794 3597 1259 
Q 3597 606 3158 257 
Q 2719 -91 1894 -91 
Q 1528 -91 1179 -12 
Q 831 66 488 225 
L 488 1131 
L 838 1131 
Q 869 681 1141 450 
Q 1413 219 1906 219 
Q 2384 219 2661 495 
Q 2938 772 2938 1253 
Q 2938 1803 2653 2086 
Q 2369 2369 1819 2369 
L 1522 2369 
L 1522 2688 
L 1678 2688 
Q 2225 2688 2498 2914 
Q 2772 3141 2772 3597 
Q 2772 4006 2547 4223 
Q 2322 4441 1900 4441 
Q 1478 4441 1245 4241 
Q 1013 4041 972 3647 
L 622 3647 
L 622 4469 
z
" transform="scale(0.015625)"/>
       </defs>
       <use xlink:href="#DejaVuSerif-33"/>
      </g>
     </g>
    </g>
    <g id="ytick_5">
     <g id="line2d_15">
      <path d="M 35.600313 28.393389 
L 488.055313 28.393389 
" clip-path="url(#pcae8c633f4)" style="fill: none; stroke: #b0b0b0; stroke-opacity: 0.25; stroke-width: 0.5; stroke-linecap: square"/>
     </g>
     <g id="line2d_16">
      <g>
       <use xlink:href="#m1b81565b4b" x="35.600313" y="28.393389" style="stroke: #000000; stroke-width: 0.8"/>
      </g>
     </g>
     <g id="text_8">
      <!-- 4 -->
      <g transform="translate(23.510313 31.432764) scale(0.08 -0.08)">
       <defs>
        <path id="DejaVuSerif-34" d="M 2234 1581 
L 2234 4063 
L 641 1581 
L 2234 1581 
z
M 3609 0 
L 1484 0 
L 1484 331 
L 2234 331 
L 2234 1247 
L 197 1247 
L 197 1588 
L 2241 4750 
L 2859 4750 
L 2859 1581 
L 3750 1581 
L 3750 1247 
L 2859 1247 
L 2859 331 
L 3609 331 
L 3609 0 
z
" transform="scale(0.015625)"/>
       </defs>
       <use xlink:href="#DejaVuSerif-34"/>
      </g>
     </g>
    </g>
    <g id="text_9">
     <!-- MiB -->
     <g transform="translate(17.638594 101.661868) rotate(-90) scale(0.09 -0.09)">
      <defs>
       <path id="DejaVuSerif-4d" d="M 353 0 
L 353 331 
L 947 331 
L 947 4331 
L 319 4331 
L 319 4666 
L 1678 4666 
L 3316 1344 
L 4953 4666 
L 6228 4666 
L 6228 4331 
L 5606 4331 
L 5606 331 
L 6203 331 
L 6203 0 
L 4378 0 
L 4378 331 
L 4972 331 
L 4972 3938 
L 3372 684 
L 2931 684 
L 1331 3938 
L 1331 331 
L 1925 331 
L 1925 0 
L 353 0 
z
" transform="scale(0.015625)"/>
       <path id="DejaVuSerif-69" d="M 622 4353 
Q 622 4497 726 4603 
Q 831 4709 978 4709 
Q 1122 4709 1226 4603 
Q 1331 4497 1331 4353 
Q 1331 4206 1228 4103 
Q 1125 4000 978 4000 
Q 831 4000 726 4103 
Q 622 4206 622 4353 
z
M 1356 331 
L 1900 331 
L 1900 0 
L 231 0 
L 231 331 
L 781 331 
L 781 2988 
L 231 2988 
L 231 3322 
L 1356 3322 
L 1356 331 
z
" transform="scale(0.015625)"/>
       <path id="DejaVuSerif-42" d="M 1581 331 
L 2516 331 
Q 3078 331 3337 575 
Q 3597 819 3597 1350 
Q 3597 1878 3339 2120 
Q 3081 2363 2516 2363 
L 1581 2363 
L 1581 331 
z
M 1581 2694 
L 2375 2694 
Q 2888 2694 3123 2891 
Q 3359 3088 3359 3513 
Q 3359 3941 3123 4136 
Q 2888 4331 2375 4331 
L 1581 4331 
L 1581 2694 
z
M 353 0 
L 353 331 
L 947 331 
L 947 4331 
L 353 4331 
L 353 4666 
L 2656 4666 
Q 3363 4666 3720 4377 
Q 4078 4088 4078 3513 
Q 4078 3097 3829 2850 
Q 3581 2603 3103 2547 
Q 3697 2472 4005 2167 
Q 4313 1863 4313 1350 
Q 4313 656 3875 328 
Q 3438 0 2509 0 
L 353 0 
z
" transform="scale(0.015625)"/>
      </defs>
      <use xlink:href="#DejaVuSerif-4d"/>
      <use xlink:href="#DejaVuSerif-69" transform="translate(102.392578 0)"/>
      <use xlink:href="#DejaVuSerif-42" transform="translate(134.375 0)"/>
     </g>
    </g>
    <g id="text_10">
     <!-- 1e6 -->
     <g transform="translate(35.600313 22.158281) scale(0.08 -0.08)">
      <use xlink:href="#DejaVuSerif-31"/>
      <use xlink:href="#DejaVuSerif-65" transform="translate(63.623047 0)"/>
      <use xlink:href="#DejaVuSerif-36" transform="translate(122.802734 0)"/>
     </g>
    </g>
   </g>
   <g id="patch_3">
    <path d="M 56.166449 159.45811 
L 59.674532 159.45811 
L 59.674532 36.206202 
L 56.166449 36.206202 
z
" clip-path="url(#pcae8c633f4)" style="fill: #3366cc; opacity: 0.7"/>
   </g>
   <g id="patch_4">
    <path d="M 60.551553 159.45811 
L 64.059636 159.45811 
L 64.059636 36.166999 
L 60.551553 36.166999 
z
" clip-path="url(#pcae8c633f4)" style="fill: #3366cc; opacity: 0.7"/>
   </g>
   <g id="patch_5">
    <path d="M 64.936656 159.45811 
L 68.444739 159.45811 
L 68.444739 34.822805 
L 64.936656 34.822805 
z
" clip-path="url(#pcae8c633f4)" style="fill: #3366cc; opacity: 0.7"/>
   </g>
   <g id="patch_6">
    <path d="M 69.32176 159.45811 
L 72.829843 159.45811 
L 72.829843 34.369823 
L 69.32176 34.369823 
z
" clip-path="url(#pcae8c633f4)" style="fill: #3366cc; opacity: 0.7"/>
   </g>
   <g id="patch_7">
    <path d="M 73.706864 159.45811 
L 77.214947 159.45811 
L 77.214947 34.169338 
L 73.706864 34.169338 
z
" clip-path="url(#pcae8c633f4)" style="fill: #3366cc; opacity: 0.7"/>
   </g>
   <g id="patch_8">
    <path d="M 78.091967 159.45811 
L 81.60005 159.45811 
L 81.60005 36.28061 
L 78.091967 36.28061 
z
" clip-path="url(#pcae8c633f4)" style="fill: #3366cc; opacity: 0.7"/>
   </g>
   <g id="patch_9">
    <path d="M 82.477071 159.45811 
L 85.985154 159.45811 
L 85.985154 37.013205 
L 82.477071 37.013205 
z
" clip-path="url(#pcae8c633f4)" style="fill: #3366cc; opacity: 0.7"/>
   </g>
   <g id="patch_10">
    <path d="M 86.862175 159.45811 
L 90.370258 159.45811 
L 90.370258 37.604973 
L 86.862175 37.604973 
z
" clip-path="url(#pcae8c633f4)" style="fill: #3366cc; opacity: 0.7"/>
   </g>
   <g id="patch_11">
    <path d="M 91.247278 159.45811 
L 94.755361 159.45811 
L 94.755361 37.217192 
L 91.247278 37.217192 
z
" clip-path="url(#pcae8c633f4)" style="fill: #3366cc; opacity: 0.7"/>
   </g>
   <g id="patch_12">
    <path d="M 95.632382 159.45811 
L 99.140465 159.45811 
L 99.140465 37.083372 
L 95.632382 37.083372 
z
" clip-path="url(#pcae8c633f4)" style="fill: #3366cc; opacity: 0.7"/>
   </g>
   <g id="patch_13">
    <path d="M 100.017486 159.45811 
L 103.525569 159.45811 
L 103.525569 37.376087 
L 100.017486 37.376087 
z
" clip-path="url(#pcae8c633f4)" style="fill: #3366cc; opacity: 0.7"/>
   </g>
   <g id="patch_14">
    <path d="M 104.40259 159.45811 
L 107.910673 159.45811 
L 107.910673 37.63075 
L 104.40259 37.63075 
z
" clip-path="url(#pcae8c633f4)" style="fill: #3366cc; opacity: 0.7"/>
   </g>
   <g id="patch_15">
    <path d="M 108.787693 159.45811 
L 112.295776 159.45811 
L 112.295776 38.119267 
L 108.787693 38.119267 
z
" clip-path="url(#pcae8c633f4)" style="fill: #3366cc; opacity: 0.7"/>
   </g>
   <g id="patch_16">
    <path d="M 113.172797 159.45811 
L 116.68088 159.45811 
L 116.68088 37.923208 
L 113.172797 37.923208 
z
" clip-path="url(#pcae8c633f4)" style="fill: #3366cc; opacity: 0.7"/>
   </g>
   <g id="patch_17">
    <path d="M 117.557901 159.45811 
L 121.065984 159.45811 
L 121.065984 37.99457 
L 117.557901 37.99457 
z
" clip-path="url(#pcae8c633f4)" style="fill: #3366cc; opacity: 0.7"/>
   </g>
   <g id="patch_18">
    <path d="M 121.943004 159.45811 
L 125.451087 159.45811 
L 125.451087 38.219461 
L 121.943004 38.219461 
z
" clip-path="url(#pcae8c633f4)" style="fill: #3366cc; opacity: 0.7"/>
   </g>
   <g id="patch_19">
    <path d="M 126.328108 159.45811 
L 129.836191 159.45811 
L 129.836191 38.136817 
L 126.328108 38.136817 
z
" clip-path="url(#pcae8c633f4)" style="fill: #3366cc; opacity: 0.7"/>
   </g>
   <g id="patch_20">
    <path d="M 130.713212 159.45811 
L 134.221295 159.45811 
L 134.221295 38.790902 
L 130.713212 38.790902 
z
" clip-path="url(#pcae8c633f4)" style="fill: #3366cc; opacity: 0.7"/>
   </g>
   <g id="patch_21">
    <path d="M 135.098316 159.45811 
L 138.606398 159.45811 
L 138.606398 38.711712 
L 135.098316 38.711712 
z
" clip-path="url(#pcae8c633f4)" style="fill: #3366cc; opacity: 0.7"/>
   </g>
   <g id="patch_22">
    <path d="M 139.483419 159.45811 
L 142.991502 159.45811 
L 142.991502 38.64155 
L 139.483419 38.64155 
z
" clip-path="url(#pcae8c633f4)" style="fill: #3366cc; opacity: 0.7"/>
   </g>
   <g id="patch_23">
    <path d="M 143.868523 159.45811 
L 147.376606 159.45811 
L 147.376606 38.241525 
L 143.868523 38.241525 
z
" clip-path="url(#pcae8c633f4)" style="fill: #3366cc; opacity: 0.7"/>
   </g>
   <g id="patch_24">
    <path d="M 148.253627 159.45811 
L 151.76171 159.45811 
L 151.76171 38.671642 
L 148.253627 38.671642 
z
" clip-path="url(#pcae8c633f4)" style="fill: #3366cc; opacity: 0.7"/>
   </g>
   <g id="patch_25">
    <path d="M 152.63873 159.45811 
L 156.146813 159.45811 
L 156.146813 39.063666 
L 152.63873 39.063666 
z
" clip-path="url(#pcae8c633f4)" style="fill: #3366cc; opacity: 0.7"/>
   </g>
   <g id="patch_26">
    <path d="M 157.023834 159.45811 
L 160.531917 159.45811 
L 160.531917 39.079484 
L 157.023834 39.079484 
z
" clip-path="url(#pcae8c633f4)" style="fill: #3366cc; opacity: 0.7"/>
   </g>
   <g id="patch_27">
    <path d="M 161.408938 159.45811 
L 164.917021 159.45811 
L 164.917021 39.331971 
L 161.408938 39.331971 
z
" clip-path="url(#pcae8c633f4)" style="fill: #3366cc; opacity: 0.7"/>
   </g>
   <g id="patch_28">
    <path d="M 165.794041 159.45811 
L 169.302124 159.45811 
L 169.302124 40.30422 
L 165.794041 40.30422 
z
" clip-path="url(#pcae8c633f4)" style="fill: #3366cc; opacity: 0.7"/>
   </g>
   <g id="patch_29">
    <path d="M 170.179145 159.45811 
L 173.687228 159.45811 
L 173.687228 39.669683 
L 170.179145 39.669683 
z
" clip-path="url(#pcae8c633f4)" style="fill: #3366cc; opacity: 0.7"/>
   </g>
   <g id="patch_30">
    <path d="M 174.564249 159.45811 
L 178.072332 159.45811 
L 178.072332 39.206523 
L 174.564249 39.206523 
z
" clip-path="url(#pcae8c633f4)" style="fill: #3366cc; opacity: 0.7"/>
   </g>
   <g id="patch_31">
    <path d="M 178.949353 159.45811 
L 182.457435 159.45811 
L 182.457435 39.956316 
L 178.949353 39.956316 
z
" clip-path="url(#pcae8c633f4)" style="fill: #3366cc; opacity: 0.7"/>
   </g>
   <g id="patch_32">
    <path d="M 183.334456 159.45811 
L 186.842539 159.45811 
L 186.842539 41.583401 
L 183.334456 41.583401 
z
" clip-path="url(#pcae8c633f4)" style="fill: #3366cc; opacity: 0.7"/>
   </g>
   <g id="patch_33">
    <path d="M 187.71956 159.45811 
L 191.227643 159.45811 
L 191.227643 43.206946 
L 187.71956 43.206946 
z
" clip-path="url(#pcae8c633f4)" style="fill: #3366cc; opacity: 0.7"/>
   </g>
   <g id="patch_34">
    <path d="M 192.104664 159.45811 
L 195.612747 159.45811 
L 195.612747 43.671399 
L 192.104664 43.671399 
z
" clip-path="url(#pcae8c633f4)" style="fill: #3366cc; opacity: 0.7"/>
   </g>
   <g id="patch_35">
    <path d="M 196.489767 159.45811 
L 199.99785 159.45811 
L 199.99785 42.736798 
L 196.489767 42.736798 
z
" clip-path="url(#pcae8c633f4)" style="fill: #3366cc; opacity: 0.7"/>
   </g>
   <g id="patch_36">
    <path d="M 200.874871 159.45811 
L 204.382954 159.45811 
L 204.382954 41.532739 
L 200.874871 41.532739 
z
" clip-path="url(#pcae8c633f4)" style="fill: #3366cc; opacity: 0.7"/>
   </g>
   <g id="patch_37">
    <path d="M 205.259975 159.45811 
L 208.768058 159.45811 
L 208.768058 40.790071 
L 205.259975 40.790071 
z
" clip-path="url(#pcae8c633f4)" style="fill: #3366cc; opacity: 0.7"/>
   </g>
   <g id="patch_38">
    <path d="M 209.645078 159.45811 
L 213.153161 159.45811 
L 213.153161 40.73305 
L 209.645078 40.73305 
z
" clip-path="url(#pcae8c633f4)" style="fill: #3366cc; opacity: 0.7"/>
   </g>
   <g id="patch_39">
    <path d="M 214.030182 159.45811 
L 217.538265 159.45811 
L 217.538265 40.576329 
L 214.030182 40.576329 
z
" clip-path="url(#pcae8c633f4)" style="fill: #3366cc; opacity: 0.7"/>
   </g>
   <g id="patch_40">
    <path d="M 218.415286 159.45811 
L 221.923369 159.45811 
L 221.923369 41.101898 
L 218.415286 41.101898 
z
" clip-path="url(#pcae8c633f4)" style="fill: #3366cc; opacity: 0.7"/>
   </g>
   <g id="patch_41">
    <path d="M 222.80039 159.45811 
L 226.308473 159.45811 
L 226.308473 41.514123 
L 222.80039 41.514123 
z
" clip-path="url(#pcae8c633f4)" style="fill: #3366cc; opacity: 0.7"/>
   </g>
   <g id="patch_42">
    <path d="M 227.185493 159.45811 
L 230.693576 159.45811 
L 230.693576 39.498216 
L 227.185493 39.498216 
z
" clip-path="url(#pcae8c633f4)" style="fill: #3366cc; opacity: 0.7"/>
   </g>
   <g id="patch_43">
    <path d="M 231.570597 159.45811 
L 235.07868 159.45811 
L 235.07868 37.402069 
L 231.570597 37.402069 
z
" clip-path="url(#pcae8c633f4)" style="fill: #3366cc; opacity: 0.7"/>
   </g>
   <g id="patch_44">
    <path d="M 235.955701 159.45811 
L 239.463784 159.45811 
L 239.463784 37.988469 
L 235.955701 37.988469 
z
" clip-path="url(#pcae8c633f4)" style="fill: #3366cc; opacity: 0.7"/>
   </g>
   <g id="patch_45">
    <path d="M 240.340804 159.45811 
L 243.848887 159.45811 
L 243.848887 38.882124 
L 240.340804 38.882124 
z
" clip-path="url(#pcae8c633f4)" style="fill: #3366cc; opacity: 0.7"/>
   </g>
   <g id="patch_46">
    <path d="M 244.725908 159.45811 
L 248.233991 159.45811 
L 248.233991 38.327373 
L 244.725908 38.327373 
z
" clip-path="url(#pcae8c633f4)" style="fill: #3366cc; opacity: 0.7"/>
   </g>
   <g id="patch_47">
    <path d="M 249.111012 159.45811 
L 252.619095 159.45811 
L 252.619095 38.618871 
L 249.111012 38.618871 
z
" clip-path="url(#pcae8c633f4)" style="fill: #3366cc; opacity: 0.7"/>
   </g>
   <g id="patch_48">
    <path d="M 253.496115 159.45811 
L 257.004198 159.45811 
L 257.004198 38.227231 
L 253.496115 38.227231 
z
" clip-path="url(#pcae8c633f4)" style="fill: #3366cc; opacity: 0.7"/>
   </g>
   <g id="patch_49">
    <path d="M 257.881219 159.45811 
L 261.389302 159.45811 
L 261.389302 37.544737 
L 257.881219 37.544737 
z
" clip-path="url(#pcae8c633f4)" style="fill: #3366cc; opacity: 0.7"/>
   </g>
   <g id="patch_50">
    <path d="M 262.266323 159.45811 
L 265.774406 159.45811 
L 265.774406 38.417258 
L 262.266323 38.417258 
z
" clip-path="url(#pcae8c633f4)" style="fill: #3366cc; opacity: 0.7"/>
   </g>
   <g id="patch_51">
    <path d="M 266.651427 159.45811 
L 270.15951 159.45811 
L 270.15951 38.003006 
L 266.651427 38.003006 
z
" clip-path="url(#pcae8c633f4)" style="fill: #3366cc; opacity: 0.7"/>
   </g>
   <g id="patch_52">
    <path d="M 271.03653 159.45811 
L 274.544613 159.45811 
L 274.544613 38.328049 
L 271.03653 38.328049 
z
" clip-path="url(#pcae8c633f4)" style="fill: #3366cc; opacity: 0.7"/>
   </g>
   <g id="patch_53">
    <path d="M 275.421634 159.45811 
L 278.929717 159.45811 
L 278.929717 39.146799 
L 275.421634 39.146799 
z
" clip-path="url(#pcae8c633f4)" style="fill: #3366cc; opacity: 0.7"/>
   </g>
   <g id="patch_54">
    <path d="M 279.806738 159.45811 
L 283.314821 159.45811 
L 283.314821 39.245548 
L 279.806738 39.245548 
z
" clip-path="url(#pcae8c633f4)" style="fill: #3366cc; opacity: 0.7"/>
   </g>
   <g id="patch_55">
    <path d="M 284.191841 159.45811 
L 287.699924 159.45811 
L 287.699924 38.741874 
L 284.191841 38.741874 
z
" clip-path="url(#pcae8c633f4)" style="fill: #3366cc; opacity: 0.7"/>
   </g>
   <g id="patch_56">
    <path d="M 288.576945 159.45811 
L 292.085028 159.45811 
L 292.085028 39.799482 
L 288.576945 39.799482 
z
" clip-path="url(#pcae8c633f4)" style="fill: #3366cc; opacity: 0.7"/>
   </g>
   <g id="patch_57">
    <path d="M 292.962049 159.45811 
L 296.470132 159.45811 
L 296.470132 38.42802 
L 292.962049 38.42802 
z
" clip-path="url(#pcae8c633f4)" style="fill: #3366cc; opacity: 0.7"/>
   </g>
   <g id="patch_58">
    <path d="M 297.347152 159.45811 
L 300.855235 159.45811 
L 300.855235 38.532793 
L 297.347152 38.532793 
z
" clip-path="url(#pcae8c633f4)" style="fill: #3366cc; opacity: 0.7"/>
   </g>
   <g id="patch_59">
    <path d="M 301.732256 159.45811 
L 305.240339 159.45811 
L 305.240339 39.862588 
L 301.732256 39.862588 
z
" clip-path="url(#pcae8c633f4)" style="fill: #3366cc; opacity: 0.7"/>
   </g>
   <g id="patch_60">
    <path d="M 306.11736 159.45811 
L 309.625443 159.45811 
L 309.625443 43.935864 
L 306.11736 43.935864 
z
" clip-path="url(#pcae8c633f4)" style="fill: #3366cc; opacity: 0.7"/>
   </g>
   <g id="patch_61">
    <path d="M 310.502464 159.45811 
L 314.010547 159.45811 
L 314.010547 44.400714 
L 310.502464 44.400714 
z
" clip-path="url(#pcae8c633f4)" style="fill: #3366cc; opacity: 0.7"/>
   </g>
   <g id="patch_62">
    <path d="M 314.887567 159.45811 
L 318.39565 159.45811 
L 318.39565 41.48273 
L 314.887567 41.48273 
z
" clip-path="url(#pcae8c633f4)" style="fill: #3366cc; opacity: 0.7"/>
   </g>
   <g id="patch_63">
    <path d="M 319.272671 159.45811 
L 322.780754 159.45811 
L 322.780754 38.249808 
L 319.272671 38.249808 
z
" clip-path="url(#pcae8c633f4)" style="fill: #3366cc; opacity: 0.7"/>
   </g>
   <g id="patch_64">
    <path d="M 323.657775 159.45811 
L 327.165858 159.45811 
L 327.165858 37.684635 
L 323.657775 37.684635 
z
" clip-path="url(#pcae8c633f4)" style="fill: #3366cc; opacity: 0.7"/>
   </g>
   <g id="patch_65">
    <path d="M 328.042878 159.45811 
L 331.550961 159.45811 
L 331.550961 37.730471 
L 328.042878 37.730471 
z
" clip-path="url(#pcae8c633f4)" style="fill: #3366cc; opacity: 0.7"/>
   </g>
   <g id="patch_66">
    <path d="M 332.427982 159.45811 
L 335.936065 159.45811 
L 335.936065 38.295209 
L 332.427982 38.295209 
z
" clip-path="url(#pcae8c633f4)" style="fill: #3366cc; opacity: 0.7"/>
   </g>
   <g id="patch_67">
    <path d="M 336.813086 159.45811 
L 340.321169 159.45811 
L 340.321169 37.806367 
L 336.813086 37.806367 
z
" clip-path="url(#pcae8c633f4)" style="fill: #3366cc; opacity: 0.7"/>
   </g>
   <g id="patch_68">
    <path d="M 341.19819 159.45811 
L 344.706272 159.45811 
L 344.706272 38.769098 
L 341.19819 38.769098 
z
" clip-path="url(#pcae8c633f4)" style="fill: #3366cc; opacity: 0.7"/>
   </g>
   <g id="patch_69">
    <path d="M 345.583293 159.45811 
L 349.091376 159.45811 
L 349.091376 38.434724 
L 345.583293 38.434724 
z
" clip-path="url(#pcae8c633f4)" style="fill: #3366cc; opacity: 0.7"/>
   </g>
   <g id="patch_70">
    <path d="M 349.968397 159.45811 
L 353.47648 159.45811 
L 353.47648 38.913749 
L 349.968397 38.913749 
z
" clip-path="url(#pcae8c633f4)" style="fill: #3366cc; opacity: 0.7"/>
   </g>
   <g id="patch_71">
    <path d="M 354.353501 159.45811 
L 357.861584 159.45811 
L 357.861584 39.210591 
L 354.353501 39.210591 
z
" clip-path="url(#pcae8c633f4)" style="fill: #3366cc; opacity: 0.7"/>
   </g>
   <g id="patch_72">
    <path d="M 358.738604 159.45811 
L 362.246687 159.45811 
L 362.246687 39.939157 
L 358.738604 39.939157 
z
" clip-path="url(#pcae8c633f4)" style="fill: #3366cc; opacity: 0.7"/>
   </g>
   <g id="patch_73">
    <path d="M 363.123708 159.45811 
L 366.631791 159.45811 
L 366.631791 39.53411 
L 363.123708 39.53411 
z
" clip-path="url(#pcae8c633f4)" style="fill: #3366cc; opacity: 0.7"/>
   </g>
   <g id="patch_74">
    <path d="M 367.508812 159.45811 
L 371.016895 159.45811 
L 371.016895 38.4803 
L 367.508812 38.4803 
z
" clip-path="url(#pcae8c633f4)" style="fill: #3366cc; opacity: 0.7"/>
   </g>
   <g id="patch_75">
    <path d="M 371.893915 159.45811 
L 375.401998 159.45811 
L 375.401998 38.794273 
L 371.893915 38.794273 
z
" clip-path="url(#pcae8c633f4)" style="fill: #3366cc; opacity: 0.7"/>
   </g>
   <g id="patch_76">
    <path d="M 376.279019 159.45811 
L 379.787102 159.45811 
L 379.787102 34.514892 
L 376.279019 34.514892 
z
" clip-path="url(#pcae8c633f4)" style="fill: #3366cc; opacity: 0.7"/>
   </g>
   <g id="patch_77">
    <path d="M 380.664123 159.45811 
L 384.172206 159.45811 
L 384.172206 31.616908 
L 380.664123 31.616908 
z
" clip-path="url(#pcae8c633f4)" style="fill: #3366cc; opacity: 0.7"/>
   </g>
   <g id="patch_78">
    <path d="M 385.049227 159.45811 
L 388.557309 159.45811 
L 388.557309 32.305201 
L 385.049227 32.305201 
z
" clip-path="url(#pcae8c633f4)" style="fill: #3366cc; opacity: 0.7"/>
   </g>
   <g id="patch_79">
    <path d="M 389.43433 159.45811 
L 392.942413 159.45811 
L 392.942413 32.655781 
L 389.43433 32.655781 
z
" clip-path="url(#pcae8c633f4)" style="fill: #3366cc; opacity: 0.7"/>
   </g>
   <g id="patch_80">
    <path d="M 393.819434 159.45811 
L 397.327517 159.45811 
L 397.327517 31.553511 
L 393.819434 31.553511 
z
" clip-path="url(#pcae8c633f4)" style="fill: #3366cc; opacity: 0.7"/>
   </g>
   <g id="patch_81">
    <path d="M 398.204538 159.45811 
L 401.712621 159.45811 
L 401.712621 33.132413 
L 398.204538 33.132413 
z
" clip-path="url(#pcae8c633f4)" style="fill: #3366cc; opacity: 0.7"/>
   </g>
   <g id="patch_82">
    <path d="M 402.589641 159.45811 
L 406.097724 159.45811 
L 406.097724 32.197634 
L 402.589641 32.197634 
z
" clip-path="url(#pcae8c633f4)" style="fill: #3366cc; opacity: 0.7"/>
   </g>
   <g id="patch_83">
    <path d="M 406.974745 159.45811 
L 410.482828 159.45811 
L 410.482828 32.581893 
L 406.974745 32.581893 
z
" clip-path="url(#pcae8c633f4)" style="fill: #3366cc; opacity: 0.7"/>
   </g>
   <g id="patch_84">
    <path d="M 411.359849 159.45811 
L 414.867932 159.45811 
L 414.867932 32.24917 
L 411.359849 32.24917 
z
" clip-path="url(#pcae8c633f4)" style="fill: #3366cc; opacity: 0.7"/>
   </g>
   <g id="patch_85">
    <path d="M 415.744952 159.45811 
L 419.253035 159.45811 
L 419.253035 33.191733 
L 415.744952 33.191733 
z
" clip-path="url(#pcae8c633f4)" style="fill: #3366cc; opacity: 0.7"/>
   </g>
   <g id="patch_86">
    <path d="M 420.130056 159.45811 
L 423.638139 159.45811 
L 423.638139 37.43407 
L 420.130056 37.43407 
z
" clip-path="url(#pcae8c633f4)" style="fill: #3366cc; opacity: 0.7"/>
   </g>
   <g id="patch_87">
    <path d="M 424.51516 159.45811 
L 428.023243 159.45811 
L 428.023243 37.847236 
L 424.51516 37.847236 
z
" clip-path="url(#pcae8c633f4)" style="fill: #3366cc; opacity: 0.7"/>
   </g>
   <g id="patch_88">
    <path d="M 428.900264 159.45811 
L 432.408347 159.45811 
L 432.408347 34.020247 
L 428.900264 34.020247 
z
" clip-path="url(#pcae8c633f4)" style="fill: #3366cc; opacity: 0.7"/>
   </g>
   <g id="patch_89">
    <path d="M 433.285367 159.45811 
L 436.79345 159.45811 
L 436.79345 34.87396 
L 433.285367 34.87396 
z
" clip-path="url(#pcae8c633f4)" style="fill: #3366cc; opacity: 0.7"/>
   </g>
   <g id="patch_90">
    <path d="M 437.670471 159.45811 
L 441.178554 159.45811 
L 441.178554 35.499681 
L 437.670471 35.499681 
z
" clip-path="url(#pcae8c633f4)" style="fill: #3366cc; opacity: 0.7"/>
   </g>
   <g id="patch_91">
    <path d="M 442.055575 159.45811 
L 445.563658 159.45811 
L 445.563658 36.039067 
L 442.055575 36.039067 
z
" clip-path="url(#pcae8c633f4)" style="fill: #3366cc; opacity: 0.7"/>
   </g>
   <g id="patch_92">
    <path d="M 446.440678 159.45811 
L 449.948761 159.45811 
L 449.948761 35.079505 
L 446.440678 35.079505 
z
" clip-path="url(#pcae8c633f4)" style="fill: #3366cc; opacity: 0.7"/>
   </g>
   <g id="patch_93">
    <path d="M 450.825782 159.45811 
L 454.333865 159.45811 
L 454.333865 35.18149 
L 450.825782 35.18149 
z
" clip-path="url(#pcae8c633f4)" style="fill: #3366cc; opacity: 0.7"/>
   </g>
   <g id="patch_94">
    <path d="M 455.210886 159.45811 
L 458.718969 159.45811 
L 458.718969 36.188688 
L 455.210886 36.188688 
z
" clip-path="url(#pcae8c633f4)" style="fill: #3366cc; opacity: 0.7"/>
   </g>
   <g id="patch_95">
    <path d="M 459.595989 159.45811 
L 463.104072 159.45811 
L 463.104072 35.258595 
L 459.595989 35.258595 
z
" clip-path="url(#pcae8c633f4)" style="fill: #3366cc; opacity: 0.7"/>
   </g>
   <g id="patch_96">
    <path d="M 463.981093 159.45811 
L 467.489176 159.45811 
L 467.489176 35.521495 
L 463.981093 35.521495 
z
" clip-path="url(#pcae8c633f4)" style="fill: #3366cc; opacity: 0.7"/>
   </g>
   <g id="patch_97">
    <path d="M 35.600313 159.45811 
L 35.600313 25.158281 
" style="fill: none; stroke: #000000; stroke-width: 0.6; stroke-linejoin: miter; stroke-linecap: square"/>
   </g>
   <g id="patch_98">
    <path d="M 35.600312 159.45811 
L 488.055313 159.45811 
" style="fill: none; stroke: #000000; stroke-width: 0.6; stroke-linejoin: miter; stroke-linecap: square"/>
   </g>
   <g id="line2d_17">
    <path d="M 57.92049 36.206202 
L 62.305594 36.186601 
L 66.690698 35.732002 
L 71.075801 35.391457 
L 75.460905 35.147033 
L 79.846009 35.335963 
L 84.231113 35.575569 
L 88.616216 35.775393 
L 93.00132 35.925421 
L 97.386424 36.248359 
L 101.771527 36.677825 
L 106.156631 37.172313 
L 110.541735 37.434978 
L 114.926838 37.564978 
L 119.311942 37.620635 
L 123.697046 37.763816 
L 128.08215 37.914308 
L 132.467253 38.116425 
L 136.852357 38.270848 
L 141.237461 38.34546 
L 145.622564 38.390934 
L 150.007668 38.487658 
L 154.392772 38.608259 
L 158.777875 38.742926 
L 163.162979 38.820221 
L 167.548083 39.047722 
L 171.933187 39.194599 
L 176.31829 39.332455 
L 180.703394 39.51598 
L 185.088498 39.875942 
L 189.473601 40.46558 
L 193.858705 41.085498 
L 198.243809 41.433009 
L 202.628913 41.69916 
L 207.014016 41.925381 
L 211.39912 42.036343 
L 215.784224 41.892476 
L 220.169327 41.591755 
L 224.554431 41.283573 
L 228.939535 40.820918 
L 233.324638 40.230822 
L 237.709742 39.830593 
L 242.094846 39.566175 
L 246.47995 39.244896 
L 250.865053 38.890178 
L 255.250157 38.420622 
L 259.635261 38.141553 
L 264.020364 38.28658 
L 268.405468 38.288657 
L 272.790572 38.209504 
L 277.175675 38.326565 
L 281.560779 38.41609 
L 285.945883 38.48961 
L 290.330987 38.811717 
L 294.71609 38.813254 
L 299.101194 38.888938 
L 303.486298 39.108158 
L 307.871401 39.79231 
L 312.256505 40.528762 
L 316.641609 40.920313 
L 321.026712 40.698931 
L 325.411816 40.592733 
L 329.79692 40.478116 
L 334.182024 40.254204 
L 338.567127 39.378562 
L 342.952231 38.574045 
L 347.337335 38.138616 
L 351.722438 38.233465 
L 356.107542 38.451458 
L 360.492646 38.766985 
L 364.87775 38.943971 
L 369.262853 39.040247 
L 373.647957 39.043844 
L 378.033061 38.483868 
L 382.418164 37.441462 
L 386.803268 36.454977 
L 391.188372 35.414495 
L 395.573475 34.27441 
L 399.958579 33.510426 
L 404.343683 32.568049 
L 408.728787 32.291906 
L 413.11389 32.382229 
L 417.498994 32.508877 
L 421.884098 33.191489 
L 426.269201 34.090593 
L 430.654305 34.217426 
L 435.039409 34.599758 
L 439.424512 35.016585 
L 443.809616 35.557999 
L 448.19472 35.827681 
L 452.579824 35.505884 
L 456.964927 35.268948 
L 461.350031 35.445855 
L 465.735135 35.53836 
" clip-path="url(#pcae8c633f4)" style="fill: none; stroke: #cc3333; stroke-width: 1.5; stroke-linecap: square"/>
   </g>
   <g id="text_11">
    <!-- Polkadot — Daily Data Volume Upper Bound (MiB) -->
    <g transform="translate(120.596406 19.158281) scale(0.11 -0.11)">
     <defs>
      <path id="DejaVuSerif-50" d="M 1581 2375 
L 2406 2375 
Q 2872 2375 3115 2626 
Q 3359 2878 3359 3353 
Q 3359 3831 3115 4081 
Q 2872 4331 2406 4331 
L 1581 4331 
L 1581 2375 
z
M 353 0 
L 353 331 
L 947 331 
L 947 4331 
L 353 4331 
L 353 4666 
L 2559 4666 
Q 3259 4666 3668 4311 
Q 4078 3956 4078 3353 
Q 4078 2753 3668 2397 
Q 3259 2041 2559 2041 
L 1581 2041 
L 1581 331 
L 2303 331 
L 2303 0 
L 353 0 
z
" transform="scale(0.015625)"/>
      <path id="DejaVuSerif-6f" d="M 1925 219 
Q 2388 219 2623 584 
Q 2859 950 2859 1663 
Q 2859 2375 2623 2739 
Q 2388 3103 1925 3103 
Q 1463 3103 1227 2739 
Q 991 2375 991 1663 
Q 991 950 1228 584 
Q 1466 219 1925 219 
z
M 1925 -91 
Q 1200 -91 759 389 
Q 319 869 319 1663 
Q 319 2456 758 2934 
Q 1197 3413 1925 3413 
Q 2653 3413 3092 2934 
Q 3531 2456 3531 1663 
Q 3531 869 3092 389 
Q 2653 -91 1925 -91 
z
" transform="scale(0.015625)"/>
      <path id="DejaVuSerif-6c" d="M 1313 331 
L 1856 331 
L 1856 0 
L 184 0 
L 184 331 
L 738 331 
L 738 4531 
L 184 4531 
L 184 4863 
L 1313 4863 
L 1313 331 
z
" transform="scale(0.015625)"/>
      <path id="DejaVuSerif-6b" d="M 1831 0 
L 219 0 
L 219 331 
L 738 331 
L 738 4531 
L 184 4531 
L 184 4863 
L 1313 4863 
L 1313 1697 
L 2713 2988 
L 2234 2988 
L 2234 3322 
L 3738 3322 
L 3738 2988 
L 3169 2988 
L 2181 2075 
L 3444 331 
L 3922 331 
L 3922 0 
L 2284 0 
L 2284 331 
L 2759 331 
L 1766 1697 
L 1313 1275 
L 1313 331 
L 1831 331 
L 1831 0 
z
" transform="scale(0.015625)"/>
      <path id="DejaVuSerif-64" d="M 3359 331 
L 3909 331 
L 3909 0 
L 2784 0 
L 2784 519 
Q 2616 206 2355 57 
Q 2094 -91 1709 -91 
Q 1097 -91 708 395 
Q 319 881 319 1663 
Q 319 2444 706 2928 
Q 1094 3413 1709 3413 
Q 2094 3413 2355 3264 
Q 2616 3116 2784 2803 
L 2784 4531 
L 2241 4531 
L 2241 4863 
L 3359 4863 
L 3359 331 
z
M 2784 1497 
L 2784 1825 
Q 2784 2422 2554 2737 
Q 2325 3053 1888 3053 
Q 1444 3053 1217 2703 
Q 991 2353 991 1663 
Q 991 975 1217 622 
Q 1444 269 1888 269 
Q 2325 269 2554 583 
Q 2784 897 2784 1497 
z
" transform="scale(0.015625)"/>
      <path id="DejaVuSerif-74" d="M 691 2988 
L 184 2988 
L 184 3322 
L 691 3322 
L 691 4353 
L 1269 4353 
L 1269 3322 
L 2350 3322 
L 2350 2988 
L 1269 2988 
L 1269 878 
Q 1269 456 1350 337 
Q 1431 219 1650 219 
Q 1875 219 1978 351 
Q 2081 484 2088 781 
L 2522 781 
Q 2497 328 2275 118 
Q 2053 -91 1600 -91 
Q 1103 -91 897 129 
Q 691 350 691 878 
L 691 2988 
z
" transform="scale(0.015625)"/>
      <path id="DejaVuSerif-2014" d="M 281 1906 
L 6119 1906 
L 6119 1491 
L 281 1491 
L 281 1906 
z
" transform="scale(0.015625)"/>
      <path id="DejaVuSerif-79" d="M 1381 -609 
L 1600 -56 
L 359 2988 
L -19 2988 
L -19 3322 
L 1509 3322 
L 1509 2988 
L 978 2988 
L 1913 703 
L 2847 2988 
L 2350 2988 
L 2350 3322 
L 3597 3322 
L 3597 2988 
L 3225 2988 
L 1703 -750 
Q 1547 -1138 1356 -1280 
Q 1166 -1422 819 -1422 
Q 672 -1422 517 -1397 
Q 363 -1372 206 -1325 
L 206 -691 
L 500 -691 
Q 519 -903 608 -995 
Q 697 -1088 884 -1088 
Q 1056 -1088 1161 -992 
Q 1266 -897 1381 -609 
z
" transform="scale(0.015625)"/>
      <path id="DejaVuSerif-56" d="M 1119 4331 
L 2497 750 
L 3872 4331 
L 3347 4331 
L 3347 4666 
L 4716 4666 
L 4716 4331 
L 4263 4331 
L 2597 0 
L 2059 0 
L 403 4331 
L -63 4331 
L -63 4666 
L 1638 4666 
L 1638 4331 
L 1119 4331 
z
" transform="scale(0.015625)"/>
      <path id="DejaVuSerif-75" d="M 2266 3322 
L 3341 3322 
L 3341 331 
L 3884 331 
L 3884 0 
L 2766 0 
L 2766 588 
Q 2606 256 2353 82 
Q 2100 -91 1766 -91 
Q 1213 -91 952 223 
Q 691 538 691 1209 
L 691 2988 
L 172 2988 
L 172 3322 
L 1269 3322 
L 1269 1388 
Q 1269 781 1417 556 
Q 1566 331 1947 331 
Q 2347 331 2556 625 
Q 2766 919 2766 1478 
L 2766 2988 
L 2266 2988 
L 2266 3322 
z
" transform="scale(0.015625)"/>
      <path id="DejaVuSerif-6d" d="M 3316 2675 
Q 3481 3041 3739 3227 
Q 3997 3413 4341 3413 
Q 4863 3413 5119 3089 
Q 5375 2766 5375 2113 
L 5375 331 
L 5894 331 
L 5894 0 
L 4300 0 
L 4300 331 
L 4800 331 
L 4800 2047 
Q 4800 2556 4650 2772 
Q 4500 2988 4153 2988 
Q 3769 2988 3567 2697 
Q 3366 2406 3366 1850 
L 3366 331 
L 3866 331 
L 3866 0 
L 2291 0 
L 2291 331 
L 2791 331 
L 2791 2069 
Q 2791 2566 2641 2777 
Q 2491 2988 2144 2988 
Q 1759 2988 1557 2697 
Q 1356 2406 1356 1850 
L 1356 331 
L 1856 331 
L 1856 0 
L 263 0 
L 263 331 
L 781 331 
L 781 2994 
L 231 2994 
L 231 3322 
L 1356 3322 
L 1356 2731 
Q 1516 3063 1762 3238 
Q 2009 3413 2322 3413 
Q 2709 3413 2968 3220 
Q 3228 3028 3316 2675 
z
" transform="scale(0.015625)"/>
      <path id="DejaVuSerif-55" d="M 897 4331 
L 300 4331 
L 300 4666 
L 2125 4666 
L 2125 4331 
L 1528 4331 
L 1528 1919 
Q 1528 1025 1820 672 
Q 2113 319 2828 319 
Q 3544 319 3836 672 
Q 4128 1025 4128 1919 
L 4128 4331 
L 3531 4331 
L 3531 4666 
L 5106 4666 
L 5106 4331 
L 4513 4331 
L 4513 1856 
Q 4513 791 4103 350 
Q 3694 -91 2713 -91 
Q 1731 -91 1314 353 
Q 897 797 897 1856 
L 897 4331 
z
" transform="scale(0.015625)"/>
      <path id="DejaVuSerif-70" d="M 1313 1825 
L 1313 1497 
Q 1313 897 1542 583 
Q 1772 269 2209 269 
Q 2650 269 2876 622 
Q 3103 975 3103 1663 
Q 3103 2353 2876 2703 
Q 2650 3053 2209 3053 
Q 1772 3053 1542 2737 
Q 1313 2422 1313 1825 
z
M 738 2988 
L 184 2988 
L 184 3322 
L 1313 3322 
L 1313 2803 
Q 1481 3116 1742 3264 
Q 2003 3413 2388 3413 
Q 3000 3413 3387 2928 
Q 3775 2444 3775 1663 
Q 3775 881 3387 395 
Q 3000 -91 2388 -91 
Q 2003 -91 1742 57 
Q 1481 206 1313 519 
L 1313 -997 
L 1856 -997 
L 1856 -1331 
L 184 -1331 
L 184 -997 
L 738 -997 
L 738 2988 
z
" transform="scale(0.015625)"/>
      <path id="DejaVuSerif-72" d="M 3059 3328 
L 3059 2497 
L 2728 2497 
Q 2713 2744 2591 2866 
Q 2469 2988 2234 2988 
Q 1809 2988 1582 2694 
Q 1356 2400 1356 1850 
L 1356 331 
L 2022 331 
L 2022 0 
L 263 0 
L 263 331 
L 781 331 
L 781 2994 
L 231 2994 
L 231 3322 
L 1356 3322 
L 1356 2731 
Q 1525 3078 1790 3245 
Q 2056 3413 2438 3413 
Q 2578 3413 2733 3391 
Q 2888 3369 3059 3328 
z
" transform="scale(0.015625)"/>
      <path id="DejaVuSerif-28" d="M 2041 -997 
Q 1281 -656 893 83 
Q 506 822 506 1931 
Q 506 3044 893 3783 
Q 1281 4522 2041 4863 
L 2041 4556 
Q 1559 4225 1350 3623 
Q 1141 3022 1141 1931 
Q 1141 844 1350 242 
Q 1559 -359 2041 -691 
L 2041 -997 
z
" transform="scale(0.015625)"/>
      <path id="DejaVuSerif-29" d="M 453 -997 
L 453 -691 
Q 934 -359 1145 242 
Q 1356 844 1356 1931 
Q 1356 3022 1145 3623 
Q 934 4225 453 4556 
L 453 4863 
Q 1216 4522 1603 3783 
Q 1991 3044 1991 1931 
Q 1991 822 1603 83 
Q 1216 -656 453 -997 
z
" transform="scale(0.015625)"/>
     </defs>
     <use xlink:href="#DejaVuSerif-50"/>
     <use xlink:href="#DejaVuSerif-6f" transform="translate(63.285156 0)"/>
     <use xlink:href="#DejaVuSerif-6c" transform="translate(123.490234 0)"/>
     <use xlink:href="#DejaVuSerif-6b" transform="translate(155.472656 0)"/>
     <use xlink:href="#DejaVuSerif-61" transform="translate(216.068359 0)"/>
     <use xlink:href="#DejaVuSerif-64" transform="translate(275.6875 0)"/>
     <use xlink:href="#DejaVuSerif-6f" transform="translate(339.701172 0)"/>
     <use xlink:href="#DejaVuSerif-74" transform="translate(399.90625 0)"/>
     <use xlink:href="#DejaVuSerif-20" transform="translate(440.091797 0)"/>
     <use xlink:href="#DejaVuSerif-2014" transform="translate(471.878906 0)"/>
     <use xlink:href="#DejaVuSerif-20" transform="translate(571.878906 0)"/>
     <use xlink:href="#DejaVuSerif-44" transform="translate(603.666016 0)"/>
     <use xlink:href="#DejaVuSerif-61" transform="translate(683.841797 0)"/>
     <use xlink:href="#DejaVuSerif-69" transform="translate(743.460938 0)"/>
     <use xlink:href="#DejaVuSerif-6c" transform="translate(775.443359 0)"/>
     <use xlink:href="#DejaVuSerif-79" transform="translate(807.425781 0)"/>
     <use xlink:href="#DejaVuSerif-20" transform="translate(863.919922 0)"/>
     <use xlink:href="#DejaVuSerif-44" transform="translate(895.707031 0)"/>
     <use xlink:href="#DejaVuSerif-61" transform="translate(975.882812 0)"/>
     <use xlink:href="#DejaVuSerif-74" transform="translate(1035.501953 0)"/>
     <use xlink:href="#DejaVuSerif-61" transform="translate(1075.6875 0)"/>
     <use xlink:href="#DejaVuSerif-20" transform="translate(1135.306641 0)"/>
     <use xlink:href="#DejaVuSerif-56" transform="translate(1167.09375 0)"/>
     <use xlink:href="#DejaVuSerif-6f" transform="translate(1230.185547 0)"/>
     <use xlink:href="#DejaVuSerif-6c" transform="translate(1290.390625 0)"/>
     <use xlink:href="#DejaVuSerif-75" transform="translate(1322.373047 0)"/>
     <use xlink:href="#DejaVuSerif-6d" transform="translate(1386.777344 0)"/>
     <use xlink:href="#DejaVuSerif-65" transform="translate(1481.601562 0)"/>
     <use xlink:href="#DejaVuSerif-20" transform="translate(1540.78125 0)"/>
     <use xlink:href="#DejaVuSerif-55" transform="translate(1572.568359 0)"/>
     <use xlink:href="#DejaVuSerif-70" transform="translate(1656.845703 0)"/>
     <use xlink:href="#DejaVuSerif-70" transform="translate(1720.859375 0)"/>
     <use xlink:href="#DejaVuSerif-65" transform="translate(1784.873047 0)"/>
     <use xlink:href="#DejaVuSerif-72" transform="translate(1844.052734 0)"/>
     <use xlink:href="#DejaVuSerif-20" transform="translate(1891.855469 0)"/>
     <use xlink:href="#DejaVuSerif-42" transform="translate(1923.642578 0)"/>
     <use xlink:href="#DejaVuSerif-6f" transform="translate(1997.128906 0)"/>
     <use xlink:href="#DejaVuSerif-75" transform="translate(2057.333984 0)"/>
     <use xlink:href="#DejaVuSerif-6e" transform="translate(2121.738281 0)"/>
     <use xlink:href="#DejaVuSerif-64" transform="translate(2186.142578 0)"/>
     <use xlink:href="#DejaVuSerif-20" transform="translate(2250.15625 0)"/>
     <use xlink:href="#DejaVuSerif-28" transform="translate(2281.943359 0)"/>
     <use xlink:href="#DejaVuSerif-4d" transform="translate(2320.957031 0)"/>
     <use xlink:href="#DejaVuSerif-69" transform="translate(2423.349609 0)"/>
     <use xlink:href="#DejaVuSerif-42" transform="translate(2455.332031 0)"/>
     <use xlink:href="#DejaVuSerif-29" transform="translate(2528.818359 0)"/>
    </g>
   </g>
   <g id="legend_1">
    <g id="patch_99">
     <path d="M 429.690313 55.270781 
L 482.455312 55.270781 
Q 484.055312 55.270781 484.055312 53.670781 
L 484.055312 30.758281 
Q 484.055312 29.158281 482.455312 29.158281 
L 429.690313 29.158281 
Q 428.090312 29.158281 428.090312 30.758281 
L 428.090312 53.670781 
Q 428.090312 55.270781 429.690313 55.270781 
z
" style="fill: #ffffff; opacity: 0.9; stroke: #cccccc; stroke-linejoin: miter"/>
    </g>
    <g id="line2d_18">
     <path d="M 431.290312 35.637031 
L 439.290312 35.637031 
L 447.290312 35.637031 
" style="fill: none; stroke: #cc3333; stroke-width: 1.5; stroke-linecap: square"/>
    </g>
    <g id="text_12">
     <!-- 7d avg -->
     <g transform="translate(453.690312 38.437031) scale(0.08 -0.08)">
      <defs>
       <path id="DejaVuSerif-37" d="M 3609 4347 
L 1784 0 
L 1319 0 
L 3059 4153 
L 903 4153 
L 903 3578 
L 538 3578 
L 538 4666 
L 3609 4666 
L 3609 4347 
z
" transform="scale(0.015625)"/>
       <path id="DejaVuSerif-76" d="M 1581 0 
L 359 2988 
L -19 2988 
L -19 3322 
L 1509 3322 
L 1509 2988 
L 978 2988 
L 1913 703 
L 2847 2988 
L 2350 2988 
L 2350 3322 
L 3597 3322 
L 3597 2988 
L 3225 2988 
L 2003 0 
L 1581 0 
z
" transform="scale(0.015625)"/>
       <path id="DejaVuSerif-67" d="M 3359 2988 
L 3359 72 
Q 3359 -644 2965 -1033 
Q 2572 -1422 1844 -1422 
Q 1516 -1422 1216 -1362 
Q 916 -1303 641 -1184 
L 641 -488 
L 941 -488 
Q 997 -813 1206 -963 
Q 1416 -1113 1806 -1113 
Q 2313 -1113 2548 -827 
Q 2784 -541 2784 72 
L 2784 519 
Q 2616 206 2355 57 
Q 2094 -91 1709 -91 
Q 1097 -91 708 395 
Q 319 881 319 1663 
Q 319 2444 706 2928 
Q 1094 3413 1709 3413 
Q 2094 3413 2355 3264 
Q 2616 3116 2784 2803 
L 2784 3322 
L 3909 3322 
L 3909 2988 
L 3359 2988 
z
M 2784 1825 
Q 2784 2422 2554 2737 
Q 2325 3053 1888 3053 
Q 1444 3053 1217 2703 
Q 991 2353 991 1663 
Q 991 975 1217 622 
Q 1444 269 1888 269 
Q 2325 269 2554 583 
Q 2784 897 2784 1497 
L 2784 1825 
z
" transform="scale(0.015625)"/>
      </defs>
      <use xlink:href="#DejaVuSerif-37"/>
      <use xlink:href="#DejaVuSerif-64" transform="translate(63.623047 0)"/>
      <use xlink:href="#DejaVuSerif-20" transform="translate(127.636719 0)"/>
      <use xlink:href="#DejaVuSerif-61" transform="translate(159.423828 0)"/>
      <use xlink:href="#DejaVuSerif-76" transform="translate(219.042969 0)"/>
      <use xlink:href="#DejaVuSerif-67" transform="translate(275.537109 0)"/>
     </g>
    </g>
    <g id="patch_100">
     <path d="M 431.290312 50.293281 
L 447.290312 50.293281 
L 447.290312 44.693281 
L 431.290312 44.693281 
z
" style="fill: #3366cc; opacity: 0.7"/>
    </g>
    <g id="text_13">
     <!-- Daily -->
     <g transform="translate(453.690312 50.293281) scale(0.08 -0.08)">
      <use xlink:href="#DejaVuSerif-44"/>
      <use xlink:href="#DejaVuSerif-61" transform="translate(80.175781 0)"/>
      <use xlink:href="#DejaVuSerif-69" transform="translate(139.794922 0)"/>
      <use xlink:href="#DejaVuSerif-6c" transform="translate(171.777344 0)"/>
      <use xlink:href="#DejaVuSerif-79" transform="translate(203.759766 0)"/>
     </g>
    </g>
   </g>
  </g>
 </g>
 <defs>
  <clipPath id="pcae8c633f4">
   <rect x="35.600313" y="25.158281" width="452.455" height="134.299829"/>
  </clipPath>
 </defs>
</svg>
