<?xml version="1.0" encoding="utf-8" standalone="no"?>
<!DOCTYPE svg PUBLIC "-//W3C//DTD SVG 1.1//EN"
  "http://www.w3.org/Graphics/SVG/1.1/DTD/svg11.dtd">
<svg xmlns:xlink="http://www.w3.org/1999/xlink" width="498.30125pt" height="203.613966pt" viewBox="0 0 498.30125 203.613966" xmlns="http://www.w3.org/2000/svg" version="1.1">
 <metadata>
  <rdf:RDF xmlns:dc="http://purl.org/dc/elements/1.1/" xmlns:cc="http://creativecommons.org/ns#" xmlns:rdf="http://www.w3.org/1999/02/22-rdf-syntax-ns#">
   <cc:Work>
    <dc:type rdf:resource="http://purl.org/dc/dcmitype/StillImage"/>
    <dc:date>2026-02-16T20:22:44.120960</dc:date>
    <dc:format>image/svg+xml</dc:format>
    <dc:creator>
     <cc:Agent>
      <dc:title>Matplotlib v3.9.4, https://matplotlib.org/</dc:title>
     </cc:Agent>
    </dc:creator>
   </cc:Work>
  </rdf:RDF>
 </metadata>
 <defs>
  <style type="text/css">*{stroke-linejoin: round; stroke-linecap: butt}</style>
 </defs>
 <g id="figure_1">
  <g id="patch_1">
   <path d="M 0 203.613966 
L 498.30125 203.613966 
L 498.30125 0 
L 0 0 
z
" style="fill: #ffffff"/>
  </g>
  <g id="axes_1">
   <g id="patch_2">
    <path d="M 35.600312 159.843139 
L 487.50125 159.843139 
L 487.50125 25.158281 
L 35.600312 25.158281 
z
" style="fill: #ffffff"/>
   </g>
   <g id="matplotlib.axis_1">
    <g id="xtick_1">
     <g id="line2d_1">
      <path d="M 127.968899 159.843139 
L 127.968899 25.158281 
" clip-path="url(#pfbdb5b6244)" style="fill: none; stroke: #b0b0b0; stroke-opacity: 0.25; stroke-width: 0.5; stroke-linecap: square"/>
     </g>
     <g id="line2d_2">
      <defs>
       <path id="m8cd695bd5d" d="M 0 0 
L 0 3.5 
" style="stroke: #000000; stroke-width: 0.8"/>
      </defs>
      <g>
       <use xlink:href="#m8cd695bd5d" x="127.968899" y="159.843139" style="stroke: #000000; stroke-width: 0.8"/>
      </g>
     </g>
     <g id="text_1">
      <!-- Dec 2025 -->
      <g transform="translate(93.767983 191.373116) rotate(-30) scale(0.08 -0.08)">
       <defs>
        <path id="DejaVuSerif-44" d="M 1581 331 
L 2163 331 
Q 3072 331 3558 850 
Q 4044 1369 4044 2338 
Q 4044 3306 3559 3818 
Q 3075 4331 2163 4331 
L 1581 4331 
L 1581 331 
z
M 353 0 
L 353 331 
L 947 331 
L 947 4331 
L 353 4331 
L 353 4666 
L 2209 4666 
Q 3416 4666 4089 4050 
Q 4763 3434 4763 2338 
Q 4763 1238 4088 619 
Q 3413 0 2209 0 
L 353 0 
z
" transform="scale(0.015625)"/>
        <path id="DejaVuSerif-65" d="M 3469 1600 
L 991 1600 
L 991 1575 
Q 991 903 1244 561 
Q 1497 219 1991 219 
Q 2369 219 2611 417 
Q 2853 616 2950 1006 
L 3413 1006 
Q 3275 459 2904 184 
Q 2534 -91 1931 -91 
Q 1203 -91 761 389 
Q 319 869 319 1663 
Q 319 2450 753 2931 
Q 1188 3413 1894 3413 
Q 2647 3413 3050 2948 
Q 3453 2484 3469 1600 
z
M 2791 1931 
Q 2772 2513 2545 2808 
Q 2319 3103 1894 3103 
Q 1497 3103 1269 2806 
Q 1041 2509 991 1931 
L 2791 1931 
z
" transform="scale(0.015625)"/>
        <path id="DejaVuSerif-63" d="M 3291 997 
Q 3169 466 2822 187 
Q 2475 -91 1925 -91 
Q 1200 -91 759 389 
Q 319 869 319 1663 
Q 319 2459 759 2936 
Q 1200 3413 1925 3413 
Q 2241 3413 2553 3339 
Q 2866 3266 3181 3116 
L 3181 2266 
L 2847 2266 
Q 2781 2703 2561 2903 
Q 2341 3103 1931 3103 
Q 1466 3103 1228 2742 
Q 991 2381 991 1663 
Q 991 944 1227 581 
Q 1463 219 1931 219 
Q 2303 219 2525 412 
Q 2747 606 2828 997 
L 3291 997 
z
" transform="scale(0.015625)"/>
        <path id="DejaVuSerif-20" transform="scale(0.015625)"/>
        <path id="DejaVuSerif-32" d="M 819 3553 
L 469 3553 
L 469 4384 
Q 803 4563 1142 4656 
Q 1481 4750 1806 4750 
Q 2534 4750 2956 4397 
Q 3378 4044 3378 3438 
Q 3378 2753 2422 1800 
Q 2347 1728 2309 1691 
L 1131 513 
L 3078 513 
L 3078 1088 
L 3444 1088 
L 3444 0 
L 434 0 
L 434 341 
L 1850 1753 
Q 2319 2222 2519 2614 
Q 2719 3006 2719 3438 
Q 2719 3909 2473 4175 
Q 2228 4441 1797 4441 
Q 1350 4441 1106 4219 
Q 863 3997 819 3553 
z
" transform="scale(0.015625)"/>
        <path id="DejaVuSerif-30" d="M 2034 219 
Q 2513 219 2750 744 
Q 2988 1269 2988 2328 
Q 2988 3391 2750 3916 
Q 2513 4441 2034 4441 
Q 1556 4441 1318 3916 
Q 1081 3391 1081 2328 
Q 1081 1269 1318 744 
Q 1556 219 2034 219 
z
M 2034 -91 
Q 1275 -91 848 546 
Q 422 1184 422 2328 
Q 422 3475 848 4112 
Q 1275 4750 2034 4750 
Q 2797 4750 3222 4112 
Q 3647 3475 3647 2328 
Q 3647 1184 3222 546 
Q 2797 -91 2034 -91 
z
" transform="scale(0.015625)"/>
        <path id="DejaVuSerif-35" d="M 3219 4666 
L 3219 4153 
L 1081 4153 
L 1081 2816 
Q 1244 2928 1461 2984 
Q 1678 3041 1947 3041 
Q 2703 3041 3140 2622 
Q 3578 2203 3578 1478 
Q 3578 738 3136 323 
Q 2694 -91 1894 -91 
Q 1572 -91 1234 -12 
Q 897 66 544 225 
L 544 1131 
L 897 1131 
Q 925 688 1179 453 
Q 1434 219 1894 219 
Q 2388 219 2653 544 
Q 2919 869 2919 1478 
Q 2919 2084 2655 2407 
Q 2391 2731 1894 2731 
Q 1613 2731 1398 2631 
Q 1184 2531 1019 2322 
L 750 2322 
L 750 4666 
L 3219 4666 
z
" transform="scale(0.015625)"/>
       </defs>
       <use xlink:href="#DejaVuSerif-44"/>
       <use xlink:href="#DejaVuSerif-65" x="80.175781"/>
       <use xlink:href="#DejaVuSerif-63" x="139.355469"/>
       <use xlink:href="#DejaVuSerif-20" x="195.361328"/>
       <use xlink:href="#DejaVuSerif-32" x="227.148438"/>
       <use xlink:href="#DejaVuSerif-30" x="290.771484"/>
       <use xlink:href="#DejaVuSerif-32" x="354.394531"/>
       <use xlink:href="#DejaVuSerif-35" x="418.017578"/>
      </g>
     </g>
    </g>
    <g id="xtick_2">
     <g id="line2d_3">
      <path d="M 263.740648 159.843139 
L 263.740648 25.158281 
" clip-path="url(#pfbdb5b6244)" style="fill: none; stroke: #b0b0b0; stroke-opacity: 0.25; stroke-width: 0.5; stroke-linecap: square"/>
     </g>
     <g id="line2d_4">
      <g>
       <use xlink:href="#m8cd695bd5d" x="263.740648" y="159.843139" style="stroke: #000000; stroke-width: 0.8"/>
      </g>
     </g>
     <g id="text_2">
      <!-- Jan 2026 -->
      <g transform="translate(231.703713 190.123741) rotate(-30) scale(0.08 -0.08)">
       <defs>
        <path id="DejaVuSerif-4a" d="M -538 -1119 
L -538 -384 
L -181 -384 
Q -172 -694 -34 -845 
Q 103 -997 378 -997 
Q 750 -997 897 -762 
Q 1044 -528 1044 153 
L 1044 4331 
L 319 4331 
L 319 4666 
L 2272 4666 
L 2272 4331 
L 1678 4331 
L 1678 128 
Q 1678 -644 1368 -987 
Q 1059 -1331 372 -1331 
Q 150 -1331 -79 -1278 
Q -309 -1225 -538 -1119 
z
" transform="scale(0.015625)"/>
        <path id="DejaVuSerif-61" d="M 2547 1044 
L 2547 1747 
L 1806 1747 
Q 1378 1747 1168 1562 
Q 959 1378 959 997 
Q 959 650 1171 447 
Q 1384 244 1747 244 
Q 2106 244 2326 466 
Q 2547 688 2547 1044 
z
M 3122 2075 
L 3122 331 
L 3634 331 
L 3634 0 
L 2547 0 
L 2547 359 
Q 2356 128 2106 18 
Q 1856 -91 1522 -91 
Q 969 -91 644 203 
Q 319 497 319 997 
Q 319 1513 691 1797 
Q 1063 2081 1741 2081 
L 2547 2081 
L 2547 2309 
Q 2547 2688 2317 2895 
Q 2088 3103 1672 3103 
Q 1328 3103 1125 2947 
Q 922 2791 872 2484 
L 575 2484 
L 575 3156 
Q 875 3284 1158 3348 
Q 1441 3413 1709 3413 
Q 2400 3413 2761 3070 
Q 3122 2728 3122 2075 
z
" transform="scale(0.015625)"/>
        <path id="DejaVuSerif-6e" d="M 263 0 
L 263 331 
L 781 331 
L 781 2988 
L 231 2988 
L 231 3322 
L 1356 3322 
L 1356 2731 
Q 1516 3069 1770 3241 
Q 2025 3413 2363 3413 
Q 2913 3413 3172 3097 
Q 3431 2781 3431 2113 
L 3431 331 
L 3944 331 
L 3944 0 
L 2356 0 
L 2356 331 
L 2853 331 
L 2853 1931 
Q 2853 2541 2703 2767 
Q 2553 2994 2175 2994 
Q 1775 2994 1565 2701 
Q 1356 2409 1356 1850 
L 1356 331 
L 1856 331 
L 1856 0 
L 263 0 
z
" transform="scale(0.015625)"/>
        <path id="DejaVuSerif-36" d="M 2094 219 
Q 2534 219 2771 542 
Q 3009 866 3009 1472 
Q 3009 2078 2771 2401 
Q 2534 2725 2094 2725 
Q 1647 2725 1412 2412 
Q 1178 2100 1178 1509 
Q 1178 888 1415 553 
Q 1653 219 2094 219 
z
M 1075 2569 
Q 1288 2803 1556 2918 
Q 1825 3034 2163 3034 
Q 2859 3034 3264 2615 
Q 3669 2197 3669 1472 
Q 3669 763 3233 336 
Q 2797 -91 2069 -91 
Q 1278 -91 853 498 
Q 428 1088 428 2181 
Q 428 3406 931 4078 
Q 1434 4750 2350 4750 
Q 2597 4750 2869 4703 
Q 3141 4656 3425 4563 
L 3425 3794 
L 3072 3794 
Q 3034 4109 2831 4275 
Q 2628 4441 2284 4441 
Q 1678 4441 1381 3981 
Q 1084 3522 1075 2569 
z
" transform="scale(0.015625)"/>
       </defs>
       <use xlink:href="#DejaVuSerif-4a"/>
       <use xlink:href="#DejaVuSerif-61" x="40.087891"/>
       <use xlink:href="#DejaVuSerif-6e" x="99.707031"/>
       <use xlink:href="#DejaVuSerif-20" x="164.111328"/>
       <use xlink:href="#DejaVuSerif-32" x="195.898438"/>
       <use xlink:href="#DejaVuSerif-30" x="259.521484"/>
       <use xlink:href="#DejaVuSerif-32" x="323.144531"/>
       <use xlink:href="#DejaVuSerif-36" x="386.767578"/>
      </g>
     </g>
    </g>
    <g id="xtick_3">
     <g id="line2d_5">
      <path d="M 399.512397 159.843139 
L 399.512397 25.158281 
" clip-path="url(#pfbdb5b6244)" style="fill: none; stroke: #b0b0b0; stroke-opacity: 0.25; stroke-width: 0.5; stroke-linecap: square"/>
     </g>
     <g id="line2d_6">
      <g>
       <use xlink:href="#m8cd695bd5d" x="399.512397" y="159.843139" style="stroke: #000000; stroke-width: 0.8"/>
      </g>
     </g>
     <g id="text_3">
      <!-- Feb 2026 -->
      <g transform="translate(365.88414 191.042491) rotate(-30) scale(0.08 -0.08)">
       <defs>
        <path id="DejaVuSerif-46" d="M 353 0 
L 353 331 
L 947 331 
L 947 4331 
L 353 4331 
L 353 4666 
L 4172 4666 
L 4172 3628 
L 3788 3628 
L 3788 4281 
L 1581 4281 
L 1581 2719 
L 3175 2719 
L 3175 3303 
L 3559 3303 
L 3559 1753 
L 3175 1753 
L 3175 2338 
L 1581 2338 
L 1581 331 
L 2328 331 
L 2328 0 
L 353 0 
z
" transform="scale(0.015625)"/>
        <path id="DejaVuSerif-62" d="M 738 331 
L 738 4531 
L 184 4531 
L 184 4863 
L 1313 4863 
L 1313 2803 
Q 1481 3116 1742 3264 
Q 2003 3413 2388 3413 
Q 3000 3413 3387 2928 
Q 3775 2444 3775 1663 
Q 3775 881 3387 395 
Q 3000 -91 2388 -91 
Q 2003 -91 1742 57 
Q 1481 206 1313 519 
L 1313 0 
L 184 0 
L 184 331 
L 738 331 
z
M 1313 1497 
Q 1313 897 1542 583 
Q 1772 269 2209 269 
Q 2650 269 2876 622 
Q 3103 975 3103 1663 
Q 3103 2353 2876 2703 
Q 2650 3053 2209 3053 
Q 1772 3053 1542 2737 
Q 1313 2422 1313 1825 
L 1313 1497 
z
" transform="scale(0.015625)"/>
       </defs>
       <use xlink:href="#DejaVuSerif-46"/>
       <use xlink:href="#DejaVuSerif-65" x="63.884766"/>
       <use xlink:href="#DejaVuSerif-62" x="123.064453"/>
       <use xlink:href="#DejaVuSerif-20" x="187.078125"/>
       <use xlink:href="#DejaVuSerif-32" x="218.865234"/>
       <use xlink:href="#DejaVuSerif-30" x="282.488281"/>
       <use xlink:href="#DejaVuSerif-32" x="346.111328"/>
       <use xlink:href="#DejaVuSerif-36" x="409.734375"/>
      </g>
     </g>
    </g>
   </g>
   <g id="matplotlib.axis_2">
    <g id="ytick_1">
     <g id="line2d_7">
      <path d="M 35.600312 159.843139 
L 487.50125 159.843139 
" clip-path="url(#pfbdb5b6244)" style="fill: none; stroke: #b0b0b0; stroke-opacity: 0.25; stroke-width: 0.5; stroke-linecap: square"/>
     </g>
     <g id="line2d_8">
      <defs>
       <path id="m3fc2e56b95" d="M 0 0 
L -3.5 0 
" style="stroke: #000000; stroke-width: 0.8"/>
      </defs>
      <g>
       <use xlink:href="#m3fc2e56b95" x="35.600312" y="159.843139" style="stroke: #000000; stroke-width: 0.8"/>
      </g>
     </g>
     <g id="text_4">
      <!-- 0 -->
      <g transform="translate(23.510312 162.882514) scale(0.08 -0.08)">
       <use xlink:href="#DejaVuSerif-30"/>
      </g>
     </g>
    </g>
    <g id="ytick_2">
     <g id="line2d_9">
      <path d="M 35.600312 126.983021 
L 487.50125 126.983021 
" clip-path="url(#pfbdb5b6244)" style="fill: none; stroke: #b0b0b0; stroke-opacity: 0.25; stroke-width: 0.5; stroke-linecap: square"/>
     </g>
     <g id="line2d_10">
      <g>
       <use xlink:href="#m3fc2e56b95" x="35.600312" y="126.983021" style="stroke: #000000; stroke-width: 0.8"/>
      </g>
     </g>
     <g id="text_5">
      <!-- 1 -->
      <g transform="translate(23.510312 130.022396) scale(0.08 -0.08)">
       <defs>
        <path id="DejaVuSerif-31" d="M 909 0 
L 909 331 
L 1722 331 
L 1722 4213 
L 781 3603 
L 781 4013 
L 1919 4750 
L 2350 4750 
L 2350 331 
L 3163 331 
L 3163 0 
L 909 0 
z
" transform="scale(0.015625)"/>
       </defs>
       <use xlink:href="#DejaVuSerif-31"/>
      </g>
     </g>
    </g>
    <g id="ytick_3">
     <g id="line2d_11">
      <path d="M 35.600312 94.122902 
L 487.50125 94.122902 
" clip-path="url(#pfbdb5b6244)" style="fill: none; stroke: #b0b0b0; stroke-opacity: 0.25; stroke-width: 0.5; stroke-linecap: square"/>
     </g>
     <g id="line2d_12">
      <g>
       <use xlink:href="#m3fc2e56b95" x="35.600312" y="94.122902" style="stroke: #000000; stroke-width: 0.8"/>
      </g>
     </g>
     <g id="text_6">
      <!-- 2 -->
      <g transform="translate(23.510312 97.162277) scale(0.08 -0.08)">
       <use xlink:href="#DejaVuSerif-32"/>
      </g>
     </g>
    </g>
    <g id="ytick_4">
     <g id="line2d_13">
      <path d="M 35.600312 61.262783 
L 487.50125 61.262783 
" clip-path="url(#pfbdb5b6244)" style="fill: none; stroke: #b0b0b0; stroke-opacity: 0.25; stroke-width: 0.5; stroke-linecap: square"/>
     </g>
     <g id="line2d_14">
      <g>
       <use xlink:href="#m3fc2e56b95" x="35.600312" y="61.262783" style="stroke: #000000; stroke-width: 0.8"/>
      </g>
     </g>
     <g id="text_7">
      <!-- 3 -->
      <g transform="translate(23.510312 64.302158) scale(0.08 -0.08)">
       <defs>
        <path id="DejaVuSerif-33" d="M 622 4469 
Q 988 4606 1323 4678 
Q 1659 4750 1953 4750 
Q 2638 4750 3022 4454 
Q 3406 4159 3406 3634 
Q 3406 3213 3140 2930 
Q 2875 2647 2388 2547 
Q 2963 2466 3280 2130 
Q 3597 1794 3597 1259 
Q 3597 606 3158 257 
Q 2719 -91 1894 -91 
Q 1528 -91 1179 -12 
Q 831 66 488 225 
L 488 1131 
L 838 1131 
Q 869 681 1141 450 
Q 1413 219 1906 219 
Q 2384 219 2661 495 
Q 2938 772 2938 1253 
Q 2938 1803 2653 2086 
Q 2369 2369 1819 2369 
L 1522 2369 
L 1522 2688 
L 1678 2688 
Q 2225 2688 2498 2914 
Q 2772 3141 2772 3597 
Q 2772 4006 2547 4223 
Q 2322 4441 1900 4441 
Q 1478 4441 1245 4241 
Q 1013 4041 972 3647 
L 622 3647 
L 622 4469 
z
" transform="scale(0.015625)"/>
       </defs>
       <use xlink:href="#DejaVuSerif-33"/>
      </g>
     </g>
    </g>
    <g id="ytick_5">
     <g id="line2d_15">
      <path d="M 35.600312 28.402664 
L 487.50125 28.402664 
" clip-path="url(#pfbdb5b6244)" style="fill: none; stroke: #b0b0b0; stroke-opacity: 0.25; stroke-width: 0.5; stroke-linecap: square"/>
     </g>
     <g id="line2d_16">
      <g>
       <use xlink:href="#m3fc2e56b95" x="35.600312" y="28.402664" style="stroke: #000000; stroke-width: 0.8"/>
      </g>
     </g>
     <g id="text_8">
      <!-- 4 -->
      <g transform="translate(23.510312 31.442039) scale(0.08 -0.08)">
       <defs>
        <path id="DejaVuSerif-34" d="M 2234 1581 
L 2234 4063 
L 641 1581 
L 2234 1581 
z
M 3609 0 
L 1484 0 
L 1484 331 
L 2234 331 
L 2234 1247 
L 197 1247 
L 197 1588 
L 2241 4750 
L 2859 4750 
L 2859 1581 
L 3750 1581 
L 3750 1247 
L 2859 1247 
L 2859 331 
L 3609 331 
L 3609 0 
z
" transform="scale(0.015625)"/>
       </defs>
       <use xlink:href="#DejaVuSerif-34"/>
      </g>
     </g>
    </g>
    <g id="text_9">
     <!-- MiB -->
     <g transform="translate(17.638594 101.854382) rotate(-90) scale(0.09 -0.09)">
      <defs>
       <path id="DejaVuSerif-4d" d="M 353 0 
L 353 331 
L 947 331 
L 947 4331 
L 319 4331 
L 319 4666 
L 1678 4666 
L 3316 1344 
L 4953 4666 
L 6228 4666 
L 6228 4331 
L 5606 4331 
L 5606 331 
L 6203 331 
L 6203 0 
L 4378 0 
L 4378 331 
L 4972 331 
L 4972 3938 
L 3372 684 
L 2931 684 
L 1331 3938 
L 1331 331 
L 1925 331 
L 1925 0 
L 353 0 
z
" transform="scale(0.015625)"/>
       <path id="DejaVuSerif-69" d="M 622 4353 
Q 622 4497 726 4603 
Q 831 4709 978 4709 
Q 1122 4709 1226 4603 
Q 1331 4497 1331 4353 
Q 1331 4206 1228 4103 
Q 1125 4000 978 4000 
Q 831 4000 726 4103 
Q 622 4206 622 4353 
z
M 1356 331 
L 1900 331 
L 1900 0 
L 231 0 
L 231 331 
L 781 331 
L 781 2988 
L 231 2988 
L 231 3322 
L 1356 3322 
L 1356 331 
z
" transform="scale(0.015625)"/>
       <path id="DejaVuSerif-42" d="M 1581 331 
L 2516 331 
Q 3078 331 3337 575 
Q 3597 819 3597 1350 
Q 3597 1878 3339 2120 
Q 3081 2363 2516 2363 
L 1581 2363 
L 1581 331 
z
M 1581 2694 
L 2375 2694 
Q 2888 2694 3123 2891 
Q 3359 3088 3359 3513 
Q 3359 3941 3123 4136 
Q 2888 4331 2375 4331 
L 1581 4331 
L 1581 2694 
z
M 353 0 
L 353 331 
L 947 331 
L 947 4331 
L 353 4331 
L 353 4666 
L 2656 4666 
Q 3363 4666 3720 4377 
Q 4078 4088 4078 3513 
Q 4078 3097 3829 2850 
Q 3581 2603 3103 2547 
Q 3697 2472 4005 2167 
Q 4313 1863 4313 1350 
Q 4313 656 3875 328 
Q 3438 0 2509 0 
L 353 0 
z
" transform="scale(0.015625)"/>
      </defs>
      <use xlink:href="#DejaVuSerif-4d"/>
      <use xlink:href="#DejaVuSerif-69" x="102.392578"/>
      <use xlink:href="#DejaVuSerif-42" x="134.375"/>
     </g>
    </g>
    <g id="text_10">
     <!-- 1e6 -->
     <g transform="translate(35.600312 22.158281) scale(0.08 -0.08)">
      <use xlink:href="#DejaVuSerif-31"/>
      <use xlink:href="#DejaVuSerif-65" x="63.623047"/>
      <use xlink:href="#DejaVuSerif-36" x="122.802734"/>
     </g>
    </g>
   </g>
   <g id="patch_3">
    <path d="M 56.141264 159.843139 
L 59.645051 159.843139 
L 59.645051 36.237876 
L 56.141264 36.237876 
z
" clip-path="url(#pfbdb5b6244)" style="fill: #3366cc; opacity: 0.7"/>
   </g>
   <g id="patch_4">
    <path d="M 60.520998 159.843139 
L 64.024785 159.843139 
L 64.024785 36.19856 
L 60.520998 36.19856 
z
" clip-path="url(#pfbdb5b6244)" style="fill: #3366cc; opacity: 0.7"/>
   </g>
   <g id="patch_5">
    <path d="M 64.900732 159.843139 
L 68.404519 159.843139 
L 68.404519 34.850513 
L 64.900732 34.850513 
z
" clip-path="url(#pfbdb5b6244)" style="fill: #3366cc; opacity: 0.7"/>
   </g>
   <g id="patch_6">
    <path d="M 69.280466 159.843139 
L 72.784253 159.843139 
L 72.784253 34.396232 
L 69.280466 34.396232 
z
" clip-path="url(#pfbdb5b6244)" style="fill: #3366cc; opacity: 0.7"/>
   </g>
   <g id="patch_7">
    <path d="M 73.6602 159.843139 
L 77.163987 159.843139 
L 77.163987 34.195172 
L 73.6602 34.195172 
z
" clip-path="url(#pfbdb5b6244)" style="fill: #3366cc; opacity: 0.7"/>
   </g>
   <g id="patch_8">
    <path d="M 78.039933 159.843139 
L 81.54372 159.843139 
L 81.54372 36.312497 
L 78.039933 36.312497 
z
" clip-path="url(#pfbdb5b6244)" style="fill: #3366cc; opacity: 0.7"/>
   </g>
   <g id="patch_9">
    <path d="M 82.419667 159.843139 
L 85.923454 159.843139 
L 85.923454 37.047193 
L 82.419667 37.047193 
z
" clip-path="url(#pfbdb5b6244)" style="fill: #3366cc; opacity: 0.7"/>
   </g>
   <g id="patch_10">
    <path d="M 86.799401 159.843139 
L 90.303188 159.843139 
L 90.303188 37.640657 
L 86.799401 37.640657 
z
" clip-path="url(#pfbdb5b6244)" style="fill: #3366cc; opacity: 0.7"/>
   </g>
   <g id="patch_11">
    <path d="M 91.179135 159.843139 
L 94.682922 159.843139 
L 94.682922 37.251764 
L 91.179135 37.251764 
z
" clip-path="url(#pfbdb5b6244)" style="fill: #3366cc; opacity: 0.7"/>
   </g>
   <g id="patch_12">
    <path d="M 95.558869 159.843139 
L 99.062656 159.843139 
L 99.062656 37.11756 
L 95.558869 37.11756 
z
" clip-path="url(#pfbdb5b6244)" style="fill: #3366cc; opacity: 0.7"/>
   </g>
   <g id="patch_13">
    <path d="M 99.938603 159.843139 
L 103.44239 159.843139 
L 103.44239 37.411114 
L 99.938603 37.411114 
z
" clip-path="url(#pfbdb5b6244)" style="fill: #3366cc; opacity: 0.7"/>
   </g>
   <g id="patch_14">
    <path d="M 104.318336 159.843139 
L 107.822124 159.843139 
L 107.822124 37.666507 
L 104.318336 37.666507 
z
" clip-path="url(#pfbdb5b6244)" style="fill: #3366cc; opacity: 0.7"/>
   </g>
   <g id="patch_15">
    <path d="M 108.69807 159.843139 
L 112.201857 159.843139 
L 112.201857 38.156426 
L 108.69807 38.156426 
z
" clip-path="url(#pfbdb5b6244)" style="fill: #3366cc; opacity: 0.7"/>
   </g>
   <g id="patch_16">
    <path d="M 113.077804 159.843139 
L 116.581591 159.843139 
L 116.581591 37.959804 
L 113.077804 37.959804 
z
" clip-path="url(#pfbdb5b6244)" style="fill: #3366cc; opacity: 0.7"/>
   </g>
   <g id="patch_17">
    <path d="M 117.457538 159.843139 
L 120.961325 159.843139 
L 120.961325 38.031371 
L 117.457538 38.031371 
z
" clip-path="url(#pfbdb5b6244)" style="fill: #3366cc; opacity: 0.7"/>
   </g>
   <g id="patch_18">
    <path d="M 121.837272 159.843139 
L 125.341059 159.843139 
L 125.341059 38.256906 
L 121.837272 38.256906 
z
" clip-path="url(#pfbdb5b6244)" style="fill: #3366cc; opacity: 0.7"/>
   </g>
   <g id="patch_19">
    <path d="M 126.217006 159.843139 
L 129.720793 159.843139 
L 129.720793 38.174026 
L 126.217006 38.174026 
z
" clip-path="url(#pfbdb5b6244)" style="fill: #3366cc; opacity: 0.7"/>
   </g>
   <g id="patch_20">
    <path d="M 130.596739 159.843139 
L 134.100527 159.843139 
L 134.100527 38.829986 
L 130.596739 38.829986 
z
" clip-path="url(#pfbdb5b6244)" style="fill: #3366cc; opacity: 0.7"/>
   </g>
   <g id="patch_21">
    <path d="M 134.976473 159.843139 
L 138.48026 159.843139 
L 138.48026 38.750569 
L 134.976473 38.750569 
z
" clip-path="url(#pfbdb5b6244)" style="fill: #3366cc; opacity: 0.7"/>
   </g>
   <g id="patch_22">
    <path d="M 139.356207 159.843139 
L 142.859994 159.843139 
L 142.859994 38.680206 
L 139.356207 38.680206 
z
" clip-path="url(#pfbdb5b6244)" style="fill: #3366cc; opacity: 0.7"/>
   </g>
   <g id="patch_23">
    <path d="M 143.735941 159.843139 
L 147.239728 159.843139 
L 147.239728 38.279034 
L 143.735941 38.279034 
z
" clip-path="url(#pfbdb5b6244)" style="fill: #3366cc; opacity: 0.7"/>
   </g>
   <g id="patch_24">
    <path d="M 148.115675 159.843139 
L 151.619462 159.843139 
L 151.619462 38.710384 
L 148.115675 38.710384 
z
" clip-path="url(#pfbdb5b6244)" style="fill: #3366cc; opacity: 0.7"/>
   </g>
   <g id="patch_25">
    <path d="M 152.495409 159.843139 
L 155.999196 159.843139 
L 155.999196 39.103532 
L 152.495409 39.103532 
z
" clip-path="url(#pfbdb5b6244)" style="fill: #3366cc; opacity: 0.7"/>
   </g>
   <g id="patch_26">
    <path d="M 156.875142 159.843139 
L 160.37893 159.843139 
L 160.37893 39.119395 
L 156.875142 39.119395 
z
" clip-path="url(#pfbdb5b6244)" style="fill: #3366cc; opacity: 0.7"/>
   </g>
   <g id="patch_27">
    <path d="M 161.254876 159.843139 
L 164.758663 159.843139 
L 164.758663 39.372606 
L 161.254876 39.372606 
z
" clip-path="url(#pfbdb5b6244)" style="fill: #3366cc; opacity: 0.7"/>
   </g>
   <g id="patch_28">
    <path d="M 165.63461 159.843139 
L 169.138397 159.843139 
L 169.138397 40.347642 
L 165.63461 40.347642 
z
" clip-path="url(#pfbdb5b6244)" style="fill: #3366cc; opacity: 0.7"/>
   </g>
   <g id="patch_29">
    <path d="M 170.014344 159.843139 
L 173.518131 159.843139 
L 173.518131 39.711286 
L 170.014344 39.711286 
z
" clip-path="url(#pfbdb5b6244)" style="fill: #3366cc; opacity: 0.7"/>
   </g>
   <g id="patch_30">
    <path d="M 174.394078 159.843139 
L 177.897865 159.843139 
L 177.897865 39.246798 
L 174.394078 39.246798 
z
" clip-path="url(#pfbdb5b6244)" style="fill: #3366cc; opacity: 0.7"/>
   </g>
   <g id="patch_31">
    <path d="M 178.773812 159.843139 
L 182.277599 159.843139 
L 182.277599 39.998741 
L 178.773812 39.998741 
z
" clip-path="url(#pfbdb5b6244)" style="fill: #3366cc; opacity: 0.7"/>
   </g>
   <g id="patch_32">
    <path d="M 183.153546 159.843139 
L 186.657333 159.843139 
L 186.657333 41.63049 
L 183.153546 41.63049 
z
" clip-path="url(#pfbdb5b6244)" style="fill: #3366cc; opacity: 0.7"/>
   </g>
   <g id="patch_33">
    <path d="M 187.533279 159.843139 
L 191.037066 159.843139 
L 191.037066 43.25869 
L 187.533279 43.25869 
z
" clip-path="url(#pfbdb5b6244)" style="fill: #3366cc; opacity: 0.7"/>
   </g>
   <g id="patch_34">
    <path d="M 191.913013 159.843139 
L 195.4168 159.843139 
L 195.4168 43.724475 
L 191.913013 43.724475 
z
" clip-path="url(#pfbdb5b6244)" style="fill: #3366cc; opacity: 0.7"/>
   </g>
   <g id="patch_35">
    <path d="M 196.292747 159.843139 
L 199.796534 159.843139 
L 199.796534 42.787194 
L 196.292747 42.787194 
z
" clip-path="url(#pfbdb5b6244)" style="fill: #3366cc; opacity: 0.7"/>
   </g>
   <g id="patch_36">
    <path d="M 200.672481 159.843139 
L 204.176268 159.843139 
L 204.176268 41.579684 
L 200.672481 41.579684 
z
" clip-path="url(#pfbdb5b6244)" style="fill: #3366cc; opacity: 0.7"/>
   </g>
   <g id="patch_37">
    <path d="M 205.052215 159.843139 
L 208.556002 159.843139 
L 208.556002 40.834886 
L 205.052215 40.834886 
z
" clip-path="url(#pfbdb5b6244)" style="fill: #3366cc; opacity: 0.7"/>
   </g>
   <g id="patch_38">
    <path d="M 209.431949 159.843139 
L 212.935736 159.843139 
L 212.935736 40.777702 
L 209.431949 40.777702 
z
" clip-path="url(#pfbdb5b6244)" style="fill: #3366cc; opacity: 0.7"/>
   </g>
   <g id="patch_39">
    <path d="M 213.811682 159.843139 
L 217.315469 159.843139 
L 217.315469 40.620532 
L 213.811682 40.620532 
z
" clip-path="url(#pfbdb5b6244)" style="fill: #3366cc; opacity: 0.7"/>
   </g>
   <g id="patch_40">
    <path d="M 218.191416 159.843139 
L 221.695203 159.843139 
L 221.695203 41.147607 
L 218.191416 41.147607 
z
" clip-path="url(#pfbdb5b6244)" style="fill: #3366cc; opacity: 0.7"/>
   </g>
   <g id="patch_41">
    <path d="M 222.57115 159.843139 
L 226.074937 159.843139 
L 226.074937 41.561014 
L 222.57115 41.561014 
z
" clip-path="url(#pfbdb5b6244)" style="fill: #3366cc; opacity: 0.7"/>
   </g>
   <g id="patch_42">
    <path d="M 226.950884 159.843139 
L 230.454671 159.843139 
L 230.454671 39.539327 
L 226.950884 39.539327 
z
" clip-path="url(#pfbdb5b6244)" style="fill: #3366cc; opacity: 0.7"/>
   </g>
   <g id="patch_43">
    <path d="M 231.330618 159.843139 
L 234.834405 159.843139 
L 234.834405 37.437171 
L 231.330618 37.437171 
z
" clip-path="url(#pfbdb5b6244)" style="fill: #3366cc; opacity: 0.7"/>
   </g>
   <g id="patch_44">
    <path d="M 235.710352 159.843139 
L 239.214139 159.843139 
L 239.214139 38.025253 
L 235.710352 38.025253 
z
" clip-path="url(#pfbdb5b6244)" style="fill: #3366cc; opacity: 0.7"/>
   </g>
   <g id="patch_45">
    <path d="M 240.090085 159.843139 
L 243.593873 159.843139 
L 243.593873 38.921469 
L 240.090085 38.921469 
z
" clip-path="url(#pfbdb5b6244)" style="fill: #3366cc; opacity: 0.7"/>
   </g>
   <g id="patch_46">
    <path d="M 244.469819 159.843139 
L 247.973606 159.843139 
L 247.973606 38.365128 
L 244.469819 38.365128 
z
" clip-path="url(#pfbdb5b6244)" style="fill: #3366cc; opacity: 0.7"/>
   </g>
   <g id="patch_47">
    <path d="M 248.849553 159.843139 
L 252.35334 159.843139 
L 252.35334 38.657461 
L 248.849553 38.657461 
z
" clip-path="url(#pfbdb5b6244)" style="fill: #3366cc; opacity: 0.7"/>
   </g>
   <g id="patch_48">
    <path d="M 253.229287 159.843139 
L 256.733074 159.843139 
L 256.733074 38.264699 
L 253.229287 38.264699 
z
" clip-path="url(#pfbdb5b6244)" style="fill: #3366cc; opacity: 0.7"/>
   </g>
   <g id="patch_49">
    <path d="M 257.609021 159.843139 
L 261.112808 159.843139 
L 261.112808 37.580248 
L 257.609021 37.580248 
z
" clip-path="url(#pfbdb5b6244)" style="fill: #3366cc; opacity: 0.7"/>
   </g>
   <g id="patch_50">
    <path d="M 261.988755 159.843139 
L 265.492542 159.843139 
L 265.492542 38.455271 
L 261.988755 38.455271 
z
" clip-path="url(#pfbdb5b6244)" style="fill: #3366cc; opacity: 0.7"/>
   </g>
   <g id="patch_51">
    <path d="M 266.368488 159.843139 
L 269.872276 159.843139 
L 269.872276 38.039831 
L 266.368488 38.039831 
z
" clip-path="url(#pfbdb5b6244)" style="fill: #3366cc; opacity: 0.7"/>
   </g>
   <g id="patch_52">
    <path d="M 270.748222 159.843139 
L 274.252009 159.843139 
L 274.252009 38.365806 
L 270.748222 38.365806 
z
" clip-path="url(#pfbdb5b6244)" style="fill: #3366cc; opacity: 0.7"/>
   </g>
   <g id="patch_53">
    <path d="M 275.127956 159.843139 
L 278.631743 159.843139 
L 278.631743 39.186903 
L 275.127956 39.186903 
z
" clip-path="url(#pfbdb5b6244)" style="fill: #3366cc; opacity: 0.7"/>
   </g>
   <g id="patch_54">
    <path d="M 279.50769 159.843139 
L 283.011477 159.843139 
L 283.011477 39.285935 
L 279.50769 39.285935 
z
" clip-path="url(#pfbdb5b6244)" style="fill: #3366cc; opacity: 0.7"/>
   </g>
   <g id="patch_55">
    <path d="M 283.887424 159.843139 
L 287.391211 159.843139 
L 287.391211 38.780817 
L 283.887424 38.780817 
z
" clip-path="url(#pfbdb5b6244)" style="fill: #3366cc; opacity: 0.7"/>
   </g>
   <g id="patch_56">
    <path d="M 288.267158 159.843139 
L 291.770945 159.843139 
L 291.770945 39.841457 
L 288.267158 39.841457 
z
" clip-path="url(#pfbdb5b6244)" style="fill: #3366cc; opacity: 0.7"/>
   </g>
   <g id="patch_57">
    <path d="M 292.646892 159.843139 
L 296.150679 159.843139 
L 296.150679 38.466063 
L 292.646892 38.466063 
z
" clip-path="url(#pfbdb5b6244)" style="fill: #3366cc; opacity: 0.7"/>
   </g>
   <g id="patch_58">
    <path d="M 297.026625 159.843139 
L 300.530412 159.843139 
L 300.530412 38.571137 
L 297.026625 38.571137 
z
" clip-path="url(#pfbdb5b6244)" style="fill: #3366cc; opacity: 0.7"/>
   </g>
   <g id="patch_59">
    <path d="M 301.406359 159.843139 
L 304.910146 159.843139 
L 304.910146 39.904745 
L 301.406359 39.904745 
z
" clip-path="url(#pfbdb5b6244)" style="fill: #3366cc; opacity: 0.7"/>
   </g>
   <g id="patch_60">
    <path d="M 305.786093 159.843139 
L 309.28988 159.843139 
L 309.28988 43.989698 
L 305.786093 43.989698 
z
" clip-path="url(#pfbdb5b6244)" style="fill: #3366cc; opacity: 0.7"/>
   </g>
   <g id="patch_61">
    <path d="M 310.165827 159.843139 
L 313.669614 159.843139 
L 313.669614 44.455881 
L 310.165827 44.455881 
z
" clip-path="url(#pfbdb5b6244)" style="fill: #3366cc; opacity: 0.7"/>
   </g>
   <g id="patch_62">
    <path d="M 314.545561 159.843139 
L 318.049348 159.843139 
L 318.049348 41.529531 
L 314.545561 41.529531 
z
" clip-path="url(#pfbdb5b6244)" style="fill: #3366cc; opacity: 0.7"/>
   </g>
   <g id="patch_63">
    <path d="M 318.925295 159.843139 
L 322.429082 159.843139 
L 322.429082 38.28734 
L 318.925295 38.28734 
z
" clip-path="url(#pfbdb5b6244)" style="fill: #3366cc; opacity: 0.7"/>
   </g>
   <g id="patch_64">
    <path d="M 323.305028 159.843139 
L 326.808815 159.843139 
L 326.808815 37.720547 
L 323.305028 37.720547 
z
" clip-path="url(#pfbdb5b6244)" style="fill: #3366cc; opacity: 0.7"/>
   </g>
   <g id="patch_65">
    <path d="M 327.684762 159.843139 
L 331.188549 159.843139 
L 331.188549 37.766514 
L 327.684762 37.766514 
z
" clip-path="url(#pfbdb5b6244)" style="fill: #3366cc; opacity: 0.7"/>
   </g>
   <g id="patch_66">
    <path d="M 332.064496 159.843139 
L 335.568283 159.843139 
L 335.568283 38.332872 
L 332.064496 38.332872 
z
" clip-path="url(#pfbdb5b6244)" style="fill: #3366cc; opacity: 0.7"/>
   </g>
   <g id="patch_67">
    <path d="M 336.44423 159.843139 
L 339.948017 159.843139 
L 339.948017 37.842628 
L 336.44423 37.842628 
z
" clip-path="url(#pfbdb5b6244)" style="fill: #3366cc; opacity: 0.7"/>
   </g>
   <g id="patch_68">
    <path d="M 340.823964 159.843139 
L 344.327751 159.843139 
L 344.327751 38.808119 
L 340.823964 38.808119 
z
" clip-path="url(#pfbdb5b6244)" style="fill: #3366cc; opacity: 0.7"/>
   </g>
   <g id="patch_69">
    <path d="M 345.203698 159.843139 
L 348.707485 159.843139 
L 348.707485 38.472787 
L 345.203698 38.472787 
z
" clip-path="url(#pfbdb5b6244)" style="fill: #3366cc; opacity: 0.7"/>
   </g>
   <g id="patch_70">
    <path d="M 349.583431 159.843139 
L 353.087218 159.843139 
L 353.087218 38.953185 
L 349.583431 38.953185 
z
" clip-path="url(#pfbdb5b6244)" style="fill: #3366cc; opacity: 0.7"/>
   </g>
   <g id="patch_71">
    <path d="M 353.963165 159.843139 
L 357.466952 159.843139 
L 357.466952 39.250878 
L 353.963165 39.250878 
z
" clip-path="url(#pfbdb5b6244)" style="fill: #3366cc; opacity: 0.7"/>
   </g>
   <g id="patch_72">
    <path d="M 358.342899 159.843139 
L 361.846686 159.843139 
L 361.846686 39.981533 
L 358.342899 39.981533 
z
" clip-path="url(#pfbdb5b6244)" style="fill: #3366cc; opacity: 0.7"/>
   </g>
   <g id="patch_73">
    <path d="M 362.722633 159.843139 
L 366.22642 159.843139 
L 366.22642 39.575324 
L 362.722633 39.575324 
z
" clip-path="url(#pfbdb5b6244)" style="fill: #3366cc; opacity: 0.7"/>
   </g>
   <g id="patch_74">
    <path d="M 367.102367 159.843139 
L 370.606154 159.843139 
L 370.606154 38.518494 
L 367.102367 38.518494 
z
" clip-path="url(#pfbdb5b6244)" style="fill: #3366cc; opacity: 0.7"/>
   </g>
   <g id="patch_75">
    <path d="M 371.482101 159.843139 
L 374.985888 159.843139 
L 374.985888 38.833367 
L 371.482101 38.833367 
z
" clip-path="url(#pfbdb5b6244)" style="fill: #3366cc; opacity: 0.7"/>
   </g>
   <g id="patch_76">
    <path d="M 375.861834 159.843139 
L 379.365622 159.843139 
L 379.365622 34.541717 
L 375.861834 34.541717 
z
" clip-path="url(#pfbdb5b6244)" style="fill: #3366cc; opacity: 0.7"/>
   </g>
   <g id="patch_77">
    <path d="M 380.241568 159.843139 
L 383.745355 159.843139 
L 383.745355 31.635425 
L 380.241568 31.635425 
z
" clip-path="url(#pfbdb5b6244)" style="fill: #3366cc; opacity: 0.7"/>
   </g>
   <g id="patch_78">
    <path d="M 384.621302 159.843139 
L 388.125089 159.843139 
L 388.125089 32.32569 
L 384.621302 32.32569 
z
" clip-path="url(#pfbdb5b6244)" style="fill: #3366cc; opacity: 0.7"/>
   </g>
   <g id="patch_79">
    <path d="M 389.001036 159.843139 
L 392.504823 159.843139 
L 392.504823 32.677276 
L 389.001036 32.677276 
z
" clip-path="url(#pfbdb5b6244)" style="fill: #3366cc; opacity: 0.7"/>
   </g>
   <g id="patch_80">
    <path d="M 393.38077 159.843139 
L 396.884557 159.843139 
L 396.884557 31.571846 
L 393.38077 31.571846 
z
" clip-path="url(#pfbdb5b6244)" style="fill: #3366cc; opacity: 0.7"/>
   </g>
   <g id="patch_81">
    <path d="M 397.760504 159.843139 
L 401.264291 159.843139 
L 401.264291 33.155275 
L 397.760504 33.155275 
z
" clip-path="url(#pfbdb5b6244)" style="fill: #3366cc; opacity: 0.7"/>
   </g>
   <g id="patch_82">
    <path d="M 402.140237 159.843139 
L 405.644025 159.843139 
L 405.644025 32.217816 
L 402.140237 32.217816 
z
" clip-path="url(#pfbdb5b6244)" style="fill: #3366cc; opacity: 0.7"/>
   </g>
   <g id="patch_83">
    <path d="M 406.519971 159.843139 
L 410.023758 159.843139 
L 410.023758 32.603176 
L 406.519971 32.603176 
z
" clip-path="url(#pfbdb5b6244)" style="fill: #3366cc; opacity: 0.7"/>
   </g>
   <g id="patch_84">
    <path d="M 410.899705 159.843139 
L 414.403492 159.843139 
L 414.403492 32.269499 
L 410.899705 32.269499 
z
" clip-path="url(#pfbdb5b6244)" style="fill: #3366cc; opacity: 0.7"/>
   </g>
   <g id="patch_85">
    <path d="M 415.279439 159.843139 
L 418.783226 159.843139 
L 418.783226 33.214765 
L 415.279439 33.214765 
z
" clip-path="url(#pfbdb5b6244)" style="fill: #3366cc; opacity: 0.7"/>
   </g>
   <g id="patch_86">
    <path d="M 419.659173 159.843139 
L 423.16296 159.843139 
L 423.16296 37.469264 
L 419.659173 37.469264 
z
" clip-path="url(#pfbdb5b6244)" style="fill: #3366cc; opacity: 0.7"/>
   </g>
   <g id="patch_87">
    <path d="M 424.038907 159.843139 
L 427.542694 159.843139 
L 427.542694 37.883614 
L 424.038907 37.883614 
z
" clip-path="url(#pfbdb5b6244)" style="fill: #3366cc; opacity: 0.7"/>
   </g>
   <g id="patch_88">
    <path d="M 428.418641 159.843139 
L 431.922428 159.843139 
L 431.922428 34.045654 
L 428.418641 34.045654 
z
" clip-path="url(#pfbdb5b6244)" style="fill: #3366cc; opacity: 0.7"/>
   </g>
   <g id="patch_89">
    <path d="M 432.798374 159.843139 
L 436.302161 159.843139 
L 436.302161 34.901815 
L 432.798374 34.901815 
z
" clip-path="url(#pfbdb5b6244)" style="fill: #3366cc; opacity: 0.7"/>
   </g>
   <g id="patch_90">
    <path d="M 437.178108 159.843139 
L 440.681895 159.843139 
L 440.681895 35.529329 
L 437.178108 35.529329 
z
" clip-path="url(#pfbdb5b6244)" style="fill: #3366cc; opacity: 0.7"/>
   </g>
   <g id="patch_91">
    <path d="M 441.557842 159.843139 
L 445.061629 159.843139 
L 445.061629 36.070261 
L 441.557842 36.070261 
z
" clip-path="url(#pfbdb5b6244)" style="fill: #3366cc; opacity: 0.7"/>
   </g>
   <g id="patch_92">
    <path d="M 445.937576 159.843139 
L 449.441363 159.843139 
L 449.441363 35.107948 
L 445.937576 35.107948 
z
" clip-path="url(#pfbdb5b6244)" style="fill: #3366cc; opacity: 0.7"/>
   </g>
   <g id="patch_93">
    <path d="M 450.31731 159.843139 
L 453.821097 159.843139 
L 453.821097 35.210226 
L 450.31731 35.210226 
z
" clip-path="url(#pfbdb5b6244)" style="fill: #3366cc; opacity: 0.7"/>
   </g>
   <g id="patch_94">
    <path d="M 454.697044 159.843139 
L 458.200831 159.843139 
L 458.200831 36.220311 
L 454.697044 36.220311 
z
" clip-path="url(#pfbdb5b6244)" style="fill: #3366cc; opacity: 0.7"/>
   </g>
   <g id="patch_95">
    <path d="M 459.076777 159.843139 
L 462.580564 159.843139 
L 462.580564 35.287552 
L 459.076777 35.287552 
z
" clip-path="url(#pfbdb5b6244)" style="fill: #3366cc; opacity: 0.7"/>
   </g>
   <g id="patch_96">
    <path d="M 463.456511 159.843139 
L 466.960298 159.843139 
L 466.960298 35.551206 
L 463.456511 35.551206 
z
" clip-path="url(#pfbdb5b6244)" style="fill: #3366cc; opacity: 0.7"/>
   </g>
   <g id="patch_97">
    <path d="M 35.600312 159.843139 
L 35.600312 25.158281 
" style="fill: none; stroke: #000000; stroke-width: 0.6; stroke-linejoin: miter; stroke-linecap: square"/>
   </g>
   <g id="patch_98">
    <path d="M 35.600312 159.843139 
L 487.50125 159.843139 
" style="fill: none; stroke: #000000; stroke-width: 0.6; stroke-linejoin: miter; stroke-linecap: square"/>
   </g>
   <g id="line2d_17">
    <path d="M 57.893158 36.237876 
L 62.272892 36.218218 
L 66.652625 35.762316 
L 71.032359 35.420795 
L 75.412093 35.175671 
L 79.791827 35.365142 
L 84.171561 35.605435 
L 88.551295 35.805832 
L 92.931028 35.95629 
L 97.310762 36.280154 
L 101.690496 36.710851 
L 106.07023 37.206756 
L 110.449964 37.470174 
L 114.829698 37.600547 
L 119.209431 37.656364 
L 123.589165 37.799955 
L 127.968899 37.950879 
L 132.348633 38.153575 
L 136.728367 38.308441 
L 141.108101 38.383267 
L 145.487835 38.428871 
L 149.867568 38.525873 
L 154.247302 38.646819 
L 158.627036 38.781872 
L 163.00677 38.859389 
L 167.386504 39.087543 
L 171.766238 39.23484 
L 176.145971 39.373092 
L 180.525705 39.557143 
L 184.905439 39.918137 
L 189.285173 40.509465 
L 193.664907 41.13116 
L 198.044641 41.479668 
L 202.424374 41.746582 
L 206.804108 41.973451 
L 211.183842 42.084732 
L 215.563576 41.940452 
L 219.94331 41.638869 
L 224.323044 41.329803 
L 228.702777 40.865822 
L 233.082511 40.274034 
L 237.462245 39.872658 
L 241.841979 39.607482 
L 246.221713 39.285281 
L 250.601447 38.929546 
L 254.98118 38.458644 
L 259.360914 38.178776 
L 263.740648 38.324219 
L 268.120382 38.326301 
L 272.500116 38.246921 
L 276.87985 38.364317 
L 281.259584 38.454099 
L 285.639317 38.52783 
L 290.019051 38.85086 
L 294.398785 38.852402 
L 298.778519 38.928303 
L 303.158253 39.148151 
L 307.537987 39.834265 
L 311.91772 40.572828 
L 316.297454 40.965502 
L 320.677188 40.743485 
L 325.056922 40.636983 
L 329.436656 40.522037 
L 333.81639 40.297483 
L 338.196123 39.419331 
L 342.575857 38.612508 
L 346.955591 38.17583 
L 351.335325 38.27095 
L 355.715059 38.489569 
L 360.094793 38.806 
L 364.474526 38.983494 
L 368.85426 39.080046 
L 373.233994 39.083653 
L 377.613728 38.522071 
L 381.993462 37.476677 
L 386.373196 36.487364 
L 390.752929 35.443899 
L 395.132663 34.300545 
L 399.512397 33.534371 
L 403.892131 32.589292 
L 408.271865 32.312358 
L 412.651599 32.40294 
L 417.031333 32.52995 
L 421.411066 33.21452 
L 425.7908 34.116201 
L 430.170534 34.243398 
L 434.550268 34.626827 
L 438.930002 35.044848 
L 443.309736 35.587815 
L 447.689469 35.858269 
L 452.069203 35.53555 
L 456.448937 35.297935 
L 460.828671 35.475349 
L 465.208405 35.568119 
" clip-path="url(#pfbdb5b6244)" style="fill: none; stroke: #cc3333; stroke-width: 1.5; stroke-linecap: square"/>
   </g>
   <g id="text_11">
    <!-- Polkadot — Daily Data Volume Upper Bound (MiB) -->
    <g transform="translate(120.319375 19.158281) scale(0.11 -0.11)">
     <defs>
      <path id="DejaVuSerif-50" d="M 1581 2375 
L 2406 2375 
Q 2872 2375 3115 2626 
Q 3359 2878 3359 3353 
Q 3359 3831 3115 4081 
Q 2872 4331 2406 4331 
L 1581 4331 
L 1581 2375 
z
M 353 0 
L 353 331 
L 947 331 
L 947 4331 
L 353 4331 
L 353 4666 
L 2559 4666 
Q 3259 4666 3668 4311 
Q 4078 3956 4078 3353 
Q 4078 2753 3668 2397 
Q 3259 2041 2559 2041 
L 1581 2041 
L 1581 331 
L 2303 331 
L 2303 0 
L 353 0 
z
" transform="scale(0.015625)"/>
      <path id="DejaVuSerif-6f" d="M 1925 219 
Q 2388 219 2623 584 
Q 2859 950 2859 1663 
Q 2859 2375 2623 2739 
Q 2388 3103 1925 3103 
Q 1463 3103 1227 2739 
Q 991 2375 991 1663 
Q 991 950 1228 584 
Q 1466 219 1925 219 
z
M 1925 -91 
Q 1200 -91 759 389 
Q 319 869 319 1663 
Q 319 2456 758 2934 
Q 1197 3413 1925 3413 
Q 2653 3413 3092 2934 
Q 3531 2456 3531 1663 
Q 3531 869 3092 389 
Q 2653 -91 1925 -91 
z
" transform="scale(0.015625)"/>
      <path id="DejaVuSerif-6c" d="M 1313 331 
L 1856 331 
L 1856 0 
L 184 0 
L 184 331 
L 738 331 
L 738 4531 
L 184 4531 
L 184 4863 
L 1313 4863 
L 1313 331 
z
" transform="scale(0.015625)"/>
      <path id="DejaVuSerif-6b" d="M 1831 0 
L 219 0 
L 219 331 
L 738 331 
L 738 4531 
L 184 4531 
L 184 4863 
L 1313 4863 
L 1313 1697 
L 2713 2988 
L 2234 2988 
L 2234 3322 
L 3738 3322 
L 3738 2988 
L 3169 2988 
L 2181 2075 
L 3444 331 
L 3922 331 
L 3922 0 
L 2284 0 
L 2284 331 
L 2759 331 
L 1766 1697 
L 1313 1275 
L 1313 331 
L 1831 331 
L 1831 0 
z
" transform="scale(0.015625)"/>
      <path id="DejaVuSerif-64" d="M 3359 331 
L 3909 331 
L 3909 0 
L 2784 0 
L 2784 519 
Q 2616 206 2355 57 
Q 2094 -91 1709 -91 
Q 1097 -91 708 395 
Q 319 881 319 1663 
Q 319 2444 706 2928 
Q 1094 3413 1709 3413 
Q 2094 3413 2355 3264 
Q 2616 3116 2784 2803 
L 2784 4531 
L 2241 4531 
L 2241 4863 
L 3359 4863 
L 3359 331 
z
M 2784 1497 
L 2784 1825 
Q 2784 2422 2554 2737 
Q 2325 3053 1888 3053 
Q 1444 3053 1217 2703 
Q 991 2353 991 1663 
Q 991 975 1217 622 
Q 1444 269 1888 269 
Q 2325 269 2554 583 
Q 2784 897 2784 1497 
z
" transform="scale(0.015625)"/>
      <path id="DejaVuSerif-74" d="M 691 2988 
L 184 2988 
L 184 3322 
L 691 3322 
L 691 4353 
L 1269 4353 
L 1269 3322 
L 2350 3322 
L 2350 2988 
L 1269 2988 
L 1269 878 
Q 1269 456 1350 337 
Q 1431 219 1650 219 
Q 1875 219 1978 351 
Q 2081 484 2088 781 
L 2522 781 
Q 2497 328 2275 118 
Q 2053 -91 1600 -91 
Q 1103 -91 897 129 
Q 691 350 691 878 
L 691 2988 
z
" transform="scale(0.015625)"/>
      <path id="DejaVuSerif-2014" d="M 281 1906 
L 6119 1906 
L 6119 1491 
L 281 1491 
L 281 1906 
z
" transform="scale(0.015625)"/>
      <path id="DejaVuSerif-79" d="M 1381 -609 
L 1600 -56 
L 359 2988 
L -19 2988 
L -19 3322 
L 1509 3322 
L 1509 2988 
L 978 2988 
L 1913 703 
L 2847 2988 
L 2350 2988 
L 2350 3322 
L 3597 3322 
L 3597 2988 
L 3225 2988 
L 1703 -750 
Q 1547 -1138 1356 -1280 
Q 1166 -1422 819 -1422 
Q 672 -1422 517 -1397 
Q 363 -1372 206 -1325 
L 206 -691 
L 500 -691 
Q 519 -903 608 -995 
Q 697 -1088 884 -1088 
Q 1056 -1088 1161 -992 
Q 1266 -897 1381 -609 
z
" transform="scale(0.015625)"/>
      <path id="DejaVuSerif-56" d="M 1119 4331 
L 2497 750 
L 3872 4331 
L 3347 4331 
L 3347 4666 
L 4716 4666 
L 4716 4331 
L 4263 4331 
L 2597 0 
L 2059 0 
L 403 4331 
L -63 4331 
L -63 4666 
L 1638 4666 
L 1638 4331 
L 1119 4331 
z
" transform="scale(0.015625)"/>
      <path id="DejaVuSerif-75" d="M 2266 3322 
L 3341 3322 
L 3341 331 
L 3884 331 
L 3884 0 
L 2766 0 
L 2766 588 
Q 2606 256 2353 82 
Q 2100 -91 1766 -91 
Q 1213 -91 952 223 
Q 691 538 691 1209 
L 691 2988 
L 172 2988 
L 172 3322 
L 1269 3322 
L 1269 1388 
Q 1269 781 1417 556 
Q 1566 331 1947 331 
Q 2347 331 2556 625 
Q 2766 919 2766 1478 
L 2766 2988 
L 2266 2988 
L 2266 3322 
z
" transform="scale(0.015625)"/>
      <path id="DejaVuSerif-6d" d="M 3316 2675 
Q 3481 3041 3739 3227 
Q 3997 3413 4341 3413 
Q 4863 3413 5119 3089 
Q 5375 2766 5375 2113 
L 5375 331 
L 5894 331 
L 5894 0 
L 4300 0 
L 4300 331 
L 4800 331 
L 4800 2047 
Q 4800 2556 4650 2772 
Q 4500 2988 4153 2988 
Q 3769 2988 3567 2697 
Q 3366 2406 3366 1850 
L 3366 331 
L 3866 331 
L 3866 0 
L 2291 0 
L 2291 331 
L 2791 331 
L 2791 2069 
Q 2791 2566 2641 2777 
Q 2491 2988 2144 2988 
Q 1759 2988 1557 2697 
Q 1356 2406 1356 1850 
L 1356 331 
L 1856 331 
L 1856 0 
L 263 0 
L 263 331 
L 781 331 
L 781 2994 
L 231 2994 
L 231 3322 
L 1356 3322 
L 1356 2731 
Q 1516 3063 1762 3238 
Q 2009 3413 2322 3413 
Q 2709 3413 2968 3220 
Q 3228 3028 3316 2675 
z
" transform="scale(0.015625)"/>
      <path id="DejaVuSerif-55" d="M 897 4331 
L 300 4331 
L 300 4666 
L 2125 4666 
L 2125 4331 
L 1528 4331 
L 1528 1919 
Q 1528 1025 1820 672 
Q 2113 319 2828 319 
Q 3544 319 3836 672 
Q 4128 1025 4128 1919 
L 4128 4331 
L 3531 4331 
L 3531 4666 
L 5106 4666 
L 5106 4331 
L 4513 4331 
L 4513 1856 
Q 4513 791 4103 350 
Q 3694 -91 2713 -91 
Q 1731 -91 1314 353 
Q 897 797 897 1856 
L 897 4331 
z
" transform="scale(0.015625)"/>
      <path id="DejaVuSerif-70" d="M 1313 1825 
L 1313 1497 
Q 1313 897 1542 583 
Q 1772 269 2209 269 
Q 2650 269 2876 622 
Q 3103 975 3103 1663 
Q 3103 2353 2876 2703 
Q 2650 3053 2209 3053 
Q 1772 3053 1542 2737 
Q 1313 2422 1313 1825 
z
M 738 2988 
L 184 2988 
L 184 3322 
L 1313 3322 
L 1313 2803 
Q 1481 3116 1742 3264 
Q 2003 3413 2388 3413 
Q 3000 3413 3387 2928 
Q 3775 2444 3775 1663 
Q 3775 881 3387 395 
Q 3000 -91 2388 -91 
Q 2003 -91 1742 57 
Q 1481 206 1313 519 
L 1313 -997 
L 1856 -997 
L 1856 -1331 
L 184 -1331 
L 184 -997 
L 738 -997 
L 738 2988 
z
" transform="scale(0.015625)"/>
      <path id="DejaVuSerif-72" d="M 3059 3328 
L 3059 2497 
L 2728 2497 
Q 2713 2744 2591 2866 
Q 2469 2988 2234 2988 
Q 1809 2988 1582 2694 
Q 1356 2400 1356 1850 
L 1356 331 
L 2022 331 
L 2022 0 
L 263 0 
L 263 331 
L 781 331 
L 781 2994 
L 231 2994 
L 231 3322 
L 1356 3322 
L 1356 2731 
Q 1525 3078 1790 3245 
Q 2056 3413 2438 3413 
Q 2578 3413 2733 3391 
Q 2888 3369 3059 3328 
z
" transform="scale(0.015625)"/>
      <path id="DejaVuSerif-28" d="M 2041 -997 
Q 1281 -656 893 83 
Q 506 822 506 1931 
Q 506 3044 893 3783 
Q 1281 4522 2041 4863 
L 2041 4556 
Q 1559 4225 1350 3623 
Q 1141 3022 1141 1931 
Q 1141 844 1350 242 
Q 1559 -359 2041 -691 
L 2041 -997 
z
" transform="scale(0.015625)"/>
      <path id="DejaVuSerif-29" d="M 453 -997 
L 453 -691 
Q 934 -359 1145 242 
Q 1356 844 1356 1931 
Q 1356 3022 1145 3623 
Q 934 4225 453 4556 
L 453 4863 
Q 1216 4522 1603 3783 
Q 1991 3044 1991 1931 
Q 1991 822 1603 83 
Q 1216 -656 453 -997 
z
" transform="scale(0.015625)"/>
     </defs>
     <use xlink:href="#DejaVuSerif-50"/>
     <use xlink:href="#DejaVuSerif-6f" x="63.285156"/>
     <use xlink:href="#DejaVuSerif-6c" x="123.490234"/>
     <use xlink:href="#DejaVuSerif-6b" x="155.472656"/>
     <use xlink:href="#DejaVuSerif-61" x="216.068359"/>
     <use xlink:href="#DejaVuSerif-64" x="275.6875"/>
     <use xlink:href="#DejaVuSerif-6f" x="339.701172"/>
     <use xlink:href="#DejaVuSerif-74" x="399.90625"/>
     <use xlink:href="#DejaVuSerif-20" x="440.091797"/>
     <use xlink:href="#DejaVuSerif-2014" x="471.878906"/>
     <use xlink:href="#DejaVuSerif-20" x="571.878906"/>
     <use xlink:href="#DejaVuSerif-44" x="603.666016"/>
     <use xlink:href="#DejaVuSerif-61" x="683.841797"/>
     <use xlink:href="#DejaVuSerif-69" x="743.460938"/>
     <use xlink:href="#DejaVuSerif-6c" x="775.443359"/>
     <use xlink:href="#DejaVuSerif-79" x="807.425781"/>
     <use xlink:href="#DejaVuSerif-20" x="863.919922"/>
     <use xlink:href="#DejaVuSerif-44" x="895.707031"/>
     <use xlink:href="#DejaVuSerif-61" x="975.882812"/>
     <use xlink:href="#DejaVuSerif-74" x="1035.501953"/>
     <use xlink:href="#DejaVuSerif-61" x="1075.6875"/>
     <use xlink:href="#DejaVuSerif-20" x="1135.306641"/>
     <use xlink:href="#DejaVuSerif-56" x="1167.09375"/>
     <use xlink:href="#DejaVuSerif-6f" x="1230.185547"/>
     <use xlink:href="#DejaVuSerif-6c" x="1290.390625"/>
     <use xlink:href="#DejaVuSerif-75" x="1322.373047"/>
     <use xlink:href="#DejaVuSerif-6d" x="1386.777344"/>
     <use xlink:href="#DejaVuSerif-65" x="1481.601562"/>
     <use xlink:href="#DejaVuSerif-20" x="1540.78125"/>
     <use xlink:href="#DejaVuSerif-55" x="1572.568359"/>
     <use xlink:href="#DejaVuSerif-70" x="1656.845703"/>
     <use xlink:href="#DejaVuSerif-70" x="1720.859375"/>
     <use xlink:href="#DejaVuSerif-65" x="1784.873047"/>
     <use xlink:href="#DejaVuSerif-72" x="1844.052734"/>
     <use xlink:href="#DejaVuSerif-20" x="1891.855469"/>
     <use xlink:href="#DejaVuSerif-42" x="1923.642578"/>
     <use xlink:href="#DejaVuSerif-6f" x="1997.128906"/>
     <use xlink:href="#DejaVuSerif-75" x="2057.333984"/>
     <use xlink:href="#DejaVuSerif-6e" x="2121.738281"/>
     <use xlink:href="#DejaVuSerif-64" x="2186.142578"/>
     <use xlink:href="#DejaVuSerif-20" x="2250.15625"/>
     <use xlink:href="#DejaVuSerif-28" x="2281.943359"/>
     <use xlink:href="#DejaVuSerif-4d" x="2320.957031"/>
     <use xlink:href="#DejaVuSerif-69" x="2423.349609"/>
     <use xlink:href="#DejaVuSerif-42" x="2455.332031"/>
     <use xlink:href="#DejaVuSerif-29" x="2528.818359"/>
    </g>
   </g>
   <g id="legend_1">
    <g id="patch_99">
     <path d="M 429.13625 55.270781 
L 481.90125 55.270781 
Q 483.50125 55.270781 483.50125 53.670781 
L 483.50125 30.758281 
Q 483.50125 29.158281 481.90125 29.158281 
L 429.13625 29.158281 
Q 427.53625 29.158281 427.53625 30.758281 
L 427.53625 53.670781 
Q 427.53625 55.270781 429.13625 55.270781 
z
" style="fill: #ffffff; opacity: 0.9; stroke: #cccccc; stroke-linejoin: miter"/>
    </g>
    <g id="line2d_18">
     <path d="M 430.73625 35.637031 
L 438.73625 35.637031 
L 446.73625 35.637031 
" style="fill: none; stroke: #cc3333; stroke-width: 1.5; stroke-linecap: square"/>
    </g>
    <g id="text_12">
     <!-- 7d avg -->
     <g transform="translate(453.13625 38.437031) scale(0.08 -0.08)">
      <defs>
       <path id="DejaVuSerif-37" d="M 3609 4347 
L 1784 0 
L 1319 0 
L 3059 4153 
L 903 4153 
L 903 3578 
L 538 3578 
L 538 4666 
L 3609 4666 
L 3609 4347 
z
" transform="scale(0.015625)"/>
       <path id="DejaVuSerif-76" d="M 1581 0 
L 359 2988 
L -19 2988 
L -19 3322 
L 1509 3322 
L 1509 2988 
L 978 2988 
L 1913 703 
L 2847 2988 
L 2350 2988 
L 2350 3322 
L 3597 3322 
L 3597 2988 
L 3225 2988 
L 2003 0 
L 1581 0 
z
" transform="scale(0.015625)"/>
       <path id="DejaVuSerif-67" d="M 3359 2988 
L 3359 72 
Q 3359 -644 2965 -1033 
Q 2572 -1422 1844 -1422 
Q 1516 -1422 1216 -1362 
Q 916 -1303 641 -1184 
L 641 -488 
L 941 -488 
Q 997 -813 1206 -963 
Q 1416 -1113 1806 -1113 
Q 2313 -1113 2548 -827 
Q 2784 -541 2784 72 
L 2784 519 
Q 2616 206 2355 57 
Q 2094 -91 1709 -91 
Q 1097 -91 708 395 
Q 319 881 319 1663 
Q 319 2444 706 2928 
Q 1094 3413 1709 3413 
Q 2094 3413 2355 3264 
Q 2616 3116 2784 2803 
L 2784 3322 
L 3909 3322 
L 3909 2988 
L 3359 2988 
z
M 2784 1825 
Q 2784 2422 2554 2737 
Q 2325 3053 1888 3053 
Q 1444 3053 1217 2703 
Q 991 2353 991 1663 
Q 991 975 1217 622 
Q 1444 269 1888 269 
Q 2325 269 2554 583 
Q 2784 897 2784 1497 
L 2784 1825 
z
" transform="scale(0.015625)"/>
      </defs>
      <use xlink:href="#DejaVuSerif-37"/>
      <use xlink:href="#DejaVuSerif-64" x="63.623047"/>
      <use xlink:href="#DejaVuSerif-20" x="127.636719"/>
      <use xlink:href="#DejaVuSerif-61" x="159.423828"/>
      <use xlink:href="#DejaVuSerif-76" x="219.042969"/>
      <use xlink:href="#DejaVuSerif-67" x="275.537109"/>
     </g>
    </g>
    <g id="patch_100">
     <path d="M 430.73625 50.293281 
L 446.73625 50.293281 
L 446.73625 44.693281 
L 430.73625 44.693281 
z
" style="fill: #3366cc; opacity: 0.7"/>
    </g>
    <g id="text_13">
     <!-- Daily -->
     <g transform="translate(453.13625 50.293281) scale(0.08 -0.08)">
      <use xlink:href="#DejaVuSerif-44"/>
      <use xlink:href="#DejaVuSerif-61" x="80.175781"/>
      <use xlink:href="#DejaVuSerif-69" x="139.794922"/>
      <use xlink:href="#DejaVuSerif-6c" x="171.777344"/>
      <use xlink:href="#DejaVuSerif-79" x="203.759766"/>
     </g>
    </g>
   </g>
  </g>
 </g>
 <defs>
  <clipPath id="pfbdb5b6244">
   <rect x="35.600312" y="25.158281" width="451.900937" height="134.684858"/>
  </clipPath>
 </defs>
</svg>
