<?xml version="1.0" encoding="utf-8" standalone="no"?>
<!DOCTYPE svg PUBLIC "-//W3C//DTD SVG 1.1//EN"
  "http://www.w3.org/Graphics/SVG/1.1/DTD/svg11.dtd">
<svg xmlns:xlink="http://www.w3.org/1999/xlink" width="506.515312pt" height="203.228937pt" viewBox="0 0 506.515312 203.228937" xmlns="http://www.w3.org/2000/svg" version="1.1">
 <metadata>
  <rdf:RDF xmlns:dc="http://purl.org/dc/elements/1.1/" xmlns:cc="http://creativecommons.org/ns#" xmlns:rdf="http://www.w3.org/1999/02/22-rdf-syntax-ns#">
   <cc:Work>
    <dc:type rdf:resource="http://purl.org/dc/dcmitype/StillImage"/>
    <dc:date>2026-02-16T16:57:26.735190</dc:date>
    <dc:format>image/svg+xml</dc:format>
    <dc:creator>
     <cc:Agent>
      <dc:title>Matplotlib v3.10.8, https://matplotlib.org/</dc:title>
     </cc:Agent>
    </dc:creator>
   </cc:Work>
  </rdf:RDF>
 </metadata>
 <defs>
  <style type="text/css">*{stroke-linejoin: round; stroke-linecap: butt}</style>
 </defs>
 <g id="figure_1">
  <g id="patch_1">
   <path d="M 0 203.228937 
L 506.515312 203.228937 
L 506.515312 0 
L 0 0 
z
" style="fill: #ffffff"/>
  </g>
  <g id="axes_1">
   <g id="patch_2">
    <path d="M 45.780313 159.45811 
L 495.715313 159.45811 
L 495.715313 25.158281 
L 45.780313 25.158281 
z
" style="fill: #ffffff"/>
   </g>
   <g id="matplotlib.axis_1">
    <g id="xtick_1">
     <g id="line2d_1">
      <path d="M 137.747061 159.45811 
L 137.747061 25.158281 
" clip-path="url(#p6361c2bad5)" style="fill: none; stroke: #b0b0b0; stroke-opacity: 0.25; stroke-width: 0.5; stroke-linecap: square"/>
     </g>
     <g id="line2d_2">
      <defs>
       <path id="m8e08cbf168" d="M 0 0 
L 0 3.5 
" style="stroke: #000000; stroke-width: 0.8"/>
      </defs>
      <g>
       <use xlink:href="#m8e08cbf168" x="137.747061" y="159.45811" style="stroke: #000000; stroke-width: 0.8"/>
      </g>
     </g>
     <g id="text_1">
      <!-- Dec 2025 -->
      <g transform="translate(103.546145 190.988087) rotate(-30) scale(0.08 -0.08)">
       <defs>
        <path id="DejaVuSerif-44" d="M 1581 331 
L 2163 331 
Q 3072 331 3558 850 
Q 4044 1369 4044 2338 
Q 4044 3306 3559 3818 
Q 3075 4331 2163 4331 
L 1581 4331 
L 1581 331 
z
M 353 0 
L 353 331 
L 947 331 
L 947 4331 
L 353 4331 
L 353 4666 
L 2209 4666 
Q 3416 4666 4089 4050 
Q 4763 3434 4763 2338 
Q 4763 1238 4088 619 
Q 3413 0 2209 0 
L 353 0 
z
" transform="scale(0.015625)"/>
        <path id="DejaVuSerif-65" d="M 3469 1600 
L 991 1600 
L 991 1575 
Q 991 903 1244 561 
Q 1497 219 1991 219 
Q 2369 219 2611 417 
Q 2853 616 2950 1006 
L 3413 1006 
Q 3275 459 2904 184 
Q 2534 -91 1931 -91 
Q 1203 -91 761 389 
Q 319 869 319 1663 
Q 319 2450 753 2931 
Q 1188 3413 1894 3413 
Q 2647 3413 3050 2948 
Q 3453 2484 3469 1600 
z
M 2791 1931 
Q 2772 2513 2545 2808 
Q 2319 3103 1894 3103 
Q 1497 3103 1269 2806 
Q 1041 2509 991 1931 
L 2791 1931 
z
" transform="scale(0.015625)"/>
        <path id="DejaVuSerif-63" d="M 3291 997 
Q 3169 466 2822 187 
Q 2475 -91 1925 -91 
Q 1200 -91 759 389 
Q 319 869 319 1663 
Q 319 2459 759 2936 
Q 1200 3413 1925 3413 
Q 2241 3413 2553 3339 
Q 2866 3266 3181 3116 
L 3181 2266 
L 2847 2266 
Q 2781 2703 2561 2903 
Q 2341 3103 1931 3103 
Q 1466 3103 1228 2742 
Q 991 2381 991 1663 
Q 991 944 1227 581 
Q 1463 219 1931 219 
Q 2303 219 2525 412 
Q 2747 606 2828 997 
L 3291 997 
z
" transform="scale(0.015625)"/>
        <path id="DejaVuSerif-20" transform="scale(0.015625)"/>
        <path id="DejaVuSerif-32" d="M 819 3553 
L 469 3553 
L 469 4384 
Q 803 4563 1142 4656 
Q 1481 4750 1806 4750 
Q 2534 4750 2956 4397 
Q 3378 4044 3378 3438 
Q 3378 2753 2422 1800 
Q 2347 1728 2309 1691 
L 1131 513 
L 3078 513 
L 3078 1088 
L 3444 1088 
L 3444 0 
L 434 0 
L 434 341 
L 1850 1753 
Q 2319 2222 2519 2614 
Q 2719 3006 2719 3438 
Q 2719 3909 2473 4175 
Q 2228 4441 1797 4441 
Q 1350 4441 1106 4219 
Q 863 3997 819 3553 
z
" transform="scale(0.015625)"/>
        <path id="DejaVuSerif-30" d="M 2034 219 
Q 2513 219 2750 744 
Q 2988 1269 2988 2328 
Q 2988 3391 2750 3916 
Q 2513 4441 2034 4441 
Q 1556 4441 1318 3916 
Q 1081 3391 1081 2328 
Q 1081 1269 1318 744 
Q 1556 219 2034 219 
z
M 2034 -91 
Q 1275 -91 848 546 
Q 422 1184 422 2328 
Q 422 3475 848 4112 
Q 1275 4750 2034 4750 
Q 2797 4750 3222 4112 
Q 3647 3475 3647 2328 
Q 3647 1184 3222 546 
Q 2797 -91 2034 -91 
z
" transform="scale(0.015625)"/>
        <path id="DejaVuSerif-35" d="M 3219 4666 
L 3219 4153 
L 1081 4153 
L 1081 2816 
Q 1244 2928 1461 2984 
Q 1678 3041 1947 3041 
Q 2703 3041 3140 2622 
Q 3578 2203 3578 1478 
Q 3578 738 3136 323 
Q 2694 -91 1894 -91 
Q 1572 -91 1234 -12 
Q 897 66 544 225 
L 544 1131 
L 897 1131 
Q 925 688 1179 453 
Q 1434 219 1894 219 
Q 2388 219 2653 544 
Q 2919 869 2919 1478 
Q 2919 2084 2655 2407 
Q 2391 2731 1894 2731 
Q 1613 2731 1398 2631 
Q 1184 2531 1019 2322 
L 750 2322 
L 750 4666 
L 3219 4666 
z
" transform="scale(0.015625)"/>
       </defs>
       <use xlink:href="#DejaVuSerif-44"/>
       <use xlink:href="#DejaVuSerif-65" transform="translate(80.175781 0)"/>
       <use xlink:href="#DejaVuSerif-63" transform="translate(139.355469 0)"/>
       <use xlink:href="#DejaVuSerif-20" transform="translate(195.361328 0)"/>
       <use xlink:href="#DejaVuSerif-32" transform="translate(227.148438 0)"/>
       <use xlink:href="#DejaVuSerif-30" transform="translate(290.771484 0)"/>
       <use xlink:href="#DejaVuSerif-32" transform="translate(354.394531 0)"/>
       <use xlink:href="#DejaVuSerif-35" transform="translate(418.017578 0)"/>
      </g>
     </g>
    </g>
    <g id="xtick_2">
     <g id="line2d_3">
      <path d="M 272.928153 159.45811 
L 272.928153 25.158281 
" clip-path="url(#p6361c2bad5)" style="fill: none; stroke: #b0b0b0; stroke-opacity: 0.25; stroke-width: 0.5; stroke-linecap: square"/>
     </g>
     <g id="line2d_4">
      <g>
       <use xlink:href="#m8e08cbf168" x="272.928153" y="159.45811" style="stroke: #000000; stroke-width: 0.8"/>
      </g>
     </g>
     <g id="text_2">
      <!-- Jan 2026 -->
      <g transform="translate(240.891217 189.738712) rotate(-30) scale(0.08 -0.08)">
       <defs>
        <path id="DejaVuSerif-4a" d="M -538 -1119 
L -538 -384 
L -181 -384 
Q -172 -694 -34 -845 
Q 103 -997 378 -997 
Q 750 -997 897 -762 
Q 1044 -528 1044 153 
L 1044 4331 
L 319 4331 
L 319 4666 
L 2272 4666 
L 2272 4331 
L 1678 4331 
L 1678 128 
Q 1678 -644 1368 -987 
Q 1059 -1331 372 -1331 
Q 150 -1331 -79 -1278 
Q -309 -1225 -538 -1119 
z
" transform="scale(0.015625)"/>
        <path id="DejaVuSerif-61" d="M 2547 1044 
L 2547 1747 
L 1806 1747 
Q 1378 1747 1168 1562 
Q 959 1378 959 997 
Q 959 650 1171 447 
Q 1384 244 1747 244 
Q 2106 244 2326 466 
Q 2547 688 2547 1044 
z
M 3122 2075 
L 3122 331 
L 3634 331 
L 3634 0 
L 2547 0 
L 2547 359 
Q 2356 128 2106 18 
Q 1856 -91 1522 -91 
Q 969 -91 644 203 
Q 319 497 319 997 
Q 319 1513 691 1797 
Q 1063 2081 1741 2081 
L 2547 2081 
L 2547 2309 
Q 2547 2688 2317 2895 
Q 2088 3103 1672 3103 
Q 1328 3103 1125 2947 
Q 922 2791 872 2484 
L 575 2484 
L 575 3156 
Q 875 3284 1158 3348 
Q 1441 3413 1709 3413 
Q 2400 3413 2761 3070 
Q 3122 2728 3122 2075 
z
" transform="scale(0.015625)"/>
        <path id="DejaVuSerif-6e" d="M 263 0 
L 263 331 
L 781 331 
L 781 2988 
L 231 2988 
L 231 3322 
L 1356 3322 
L 1356 2731 
Q 1516 3069 1770 3241 
Q 2025 3413 2363 3413 
Q 2913 3413 3172 3097 
Q 3431 2781 3431 2113 
L 3431 331 
L 3944 331 
L 3944 0 
L 2356 0 
L 2356 331 
L 2853 331 
L 2853 1931 
Q 2853 2541 2703 2767 
Q 2553 2994 2175 2994 
Q 1775 2994 1565 2701 
Q 1356 2409 1356 1850 
L 1356 331 
L 1856 331 
L 1856 0 
L 263 0 
z
" transform="scale(0.015625)"/>
        <path id="DejaVuSerif-36" d="M 2094 219 
Q 2534 219 2771 542 
Q 3009 866 3009 1472 
Q 3009 2078 2771 2401 
Q 2534 2725 2094 2725 
Q 1647 2725 1412 2412 
Q 1178 2100 1178 1509 
Q 1178 888 1415 553 
Q 1653 219 2094 219 
z
M 1075 2569 
Q 1288 2803 1556 2918 
Q 1825 3034 2163 3034 
Q 2859 3034 3264 2615 
Q 3669 2197 3669 1472 
Q 3669 763 3233 336 
Q 2797 -91 2069 -91 
Q 1278 -91 853 498 
Q 428 1088 428 2181 
Q 428 3406 931 4078 
Q 1434 4750 2350 4750 
Q 2597 4750 2869 4703 
Q 3141 4656 3425 4563 
L 3425 3794 
L 3072 3794 
Q 3034 4109 2831 4275 
Q 2628 4441 2284 4441 
Q 1678 4441 1381 3981 
Q 1084 3522 1075 2569 
z
" transform="scale(0.015625)"/>
       </defs>
       <use xlink:href="#DejaVuSerif-4a"/>
       <use xlink:href="#DejaVuSerif-61" transform="translate(40.087891 0)"/>
       <use xlink:href="#DejaVuSerif-6e" transform="translate(99.707031 0)"/>
       <use xlink:href="#DejaVuSerif-20" transform="translate(164.111328 0)"/>
       <use xlink:href="#DejaVuSerif-32" transform="translate(195.898438 0)"/>
       <use xlink:href="#DejaVuSerif-30" transform="translate(259.521484 0)"/>
       <use xlink:href="#DejaVuSerif-32" transform="translate(323.144531 0)"/>
       <use xlink:href="#DejaVuSerif-36" transform="translate(386.767578 0)"/>
      </g>
     </g>
    </g>
    <g id="xtick_3">
     <g id="line2d_5">
      <path d="M 408.109244 159.45811 
L 408.109244 25.158281 
" clip-path="url(#p6361c2bad5)" style="fill: none; stroke: #b0b0b0; stroke-opacity: 0.25; stroke-width: 0.5; stroke-linecap: square"/>
     </g>
     <g id="line2d_6">
      <g>
       <use xlink:href="#m8e08cbf168" x="408.109244" y="159.45811" style="stroke: #000000; stroke-width: 0.8"/>
      </g>
     </g>
     <g id="text_3">
      <!-- Feb 2026 -->
      <g transform="translate(374.480987 190.657462) rotate(-30) scale(0.08 -0.08)">
       <defs>
        <path id="DejaVuSerif-46" d="M 353 0 
L 353 331 
L 947 331 
L 947 4331 
L 353 4331 
L 353 4666 
L 4172 4666 
L 4172 3628 
L 3788 3628 
L 3788 4281 
L 1581 4281 
L 1581 2719 
L 3175 2719 
L 3175 3303 
L 3559 3303 
L 3559 1753 
L 3175 1753 
L 3175 2338 
L 1581 2338 
L 1581 331 
L 2328 331 
L 2328 0 
L 353 0 
z
" transform="scale(0.015625)"/>
        <path id="DejaVuSerif-62" d="M 738 331 
L 738 4531 
L 184 4531 
L 184 4863 
L 1313 4863 
L 1313 2803 
Q 1481 3116 1742 3264 
Q 2003 3413 2388 3413 
Q 3000 3413 3387 2928 
Q 3775 2444 3775 1663 
Q 3775 881 3387 395 
Q 3000 -91 2388 -91 
Q 2003 -91 1742 57 
Q 1481 206 1313 519 
L 1313 0 
L 184 0 
L 184 331 
L 738 331 
z
M 1313 1497 
Q 1313 897 1542 583 
Q 1772 269 2209 269 
Q 2650 269 2876 622 
Q 3103 975 3103 1663 
Q 3103 2353 2876 2703 
Q 2650 3053 2209 3053 
Q 1772 3053 1542 2737 
Q 1313 2422 1313 1825 
L 1313 1497 
z
" transform="scale(0.015625)"/>
       </defs>
       <use xlink:href="#DejaVuSerif-46"/>
       <use xlink:href="#DejaVuSerif-65" transform="translate(63.884766 0)"/>
       <use xlink:href="#DejaVuSerif-62" transform="translate(123.064453 0)"/>
       <use xlink:href="#DejaVuSerif-20" transform="translate(187.078125 0)"/>
       <use xlink:href="#DejaVuSerif-32" transform="translate(218.865234 0)"/>
       <use xlink:href="#DejaVuSerif-30" transform="translate(282.488281 0)"/>
       <use xlink:href="#DejaVuSerif-32" transform="translate(346.111328 0)"/>
       <use xlink:href="#DejaVuSerif-36" transform="translate(409.734375 0)"/>
      </g>
     </g>
    </g>
   </g>
   <g id="matplotlib.axis_2">
    <g id="ytick_1">
     <g id="line2d_7">
      <path d="M 45.780313 159.45811 
L 495.715313 159.45811 
" clip-path="url(#p6361c2bad5)" style="fill: none; stroke: #b0b0b0; stroke-opacity: 0.25; stroke-width: 0.5; stroke-linecap: square"/>
     </g>
     <g id="line2d_8">
      <defs>
       <path id="m55fc2ee4ab" d="M 0 0 
L -3.5 0 
" style="stroke: #000000; stroke-width: 0.8"/>
      </defs>
      <g>
       <use xlink:href="#m55fc2ee4ab" x="45.780313" y="159.45811" style="stroke: #000000; stroke-width: 0.8"/>
      </g>
     </g>
     <g id="text_4">
      <!-- 0 -->
      <g transform="translate(33.690313 162.497485) scale(0.08 -0.08)">
       <use xlink:href="#DejaVuSerif-30"/>
      </g>
     </g>
    </g>
    <g id="ytick_2">
     <g id="line2d_9">
      <path d="M 45.780313 140.27242 
L 495.715313 140.27242 
" clip-path="url(#p6361c2bad5)" style="fill: none; stroke: #b0b0b0; stroke-opacity: 0.25; stroke-width: 0.5; stroke-linecap: square"/>
     </g>
     <g id="line2d_10">
      <g>
       <use xlink:href="#m55fc2ee4ab" x="45.780313" y="140.27242" style="stroke: #000000; stroke-width: 0.8"/>
      </g>
     </g>
     <g id="text_5">
      <!-- 25 -->
      <g transform="translate(28.600313 143.311795) scale(0.08 -0.08)">
       <use xlink:href="#DejaVuSerif-32"/>
       <use xlink:href="#DejaVuSerif-35" transform="translate(63.623047 0)"/>
      </g>
     </g>
    </g>
    <g id="ytick_3">
     <g id="line2d_11">
      <path d="M 45.780313 121.08673 
L 495.715313 121.08673 
" clip-path="url(#p6361c2bad5)" style="fill: none; stroke: #b0b0b0; stroke-opacity: 0.25; stroke-width: 0.5; stroke-linecap: square"/>
     </g>
     <g id="line2d_12">
      <g>
       <use xlink:href="#m55fc2ee4ab" x="45.780313" y="121.08673" style="stroke: #000000; stroke-width: 0.8"/>
      </g>
     </g>
     <g id="text_6">
      <!-- 50 -->
      <g transform="translate(28.600313 124.126105) scale(0.08 -0.08)">
       <use xlink:href="#DejaVuSerif-35"/>
       <use xlink:href="#DejaVuSerif-30" transform="translate(63.623047 0)"/>
      </g>
     </g>
    </g>
    <g id="ytick_4">
     <g id="line2d_13">
      <path d="M 45.780313 101.901041 
L 495.715313 101.901041 
" clip-path="url(#p6361c2bad5)" style="fill: none; stroke: #b0b0b0; stroke-opacity: 0.25; stroke-width: 0.5; stroke-linecap: square"/>
     </g>
     <g id="line2d_14">
      <g>
       <use xlink:href="#m55fc2ee4ab" x="45.780313" y="101.901041" style="stroke: #000000; stroke-width: 0.8"/>
      </g>
     </g>
     <g id="text_7">
      <!-- 75 -->
      <g transform="translate(28.600313 104.940416) scale(0.08 -0.08)">
       <defs>
        <path id="DejaVuSerif-37" d="M 3609 4347 
L 1784 0 
L 1319 0 
L 3059 4153 
L 903 4153 
L 903 3578 
L 538 3578 
L 538 4666 
L 3609 4666 
L 3609 4347 
z
" transform="scale(0.015625)"/>
       </defs>
       <use xlink:href="#DejaVuSerif-37"/>
       <use xlink:href="#DejaVuSerif-35" transform="translate(63.623047 0)"/>
      </g>
     </g>
    </g>
    <g id="ytick_5">
     <g id="line2d_15">
      <path d="M 45.780313 82.715351 
L 495.715313 82.715351 
" clip-path="url(#p6361c2bad5)" style="fill: none; stroke: #b0b0b0; stroke-opacity: 0.25; stroke-width: 0.5; stroke-linecap: square"/>
     </g>
     <g id="line2d_16">
      <g>
       <use xlink:href="#m55fc2ee4ab" x="45.780313" y="82.715351" style="stroke: #000000; stroke-width: 0.8"/>
      </g>
     </g>
     <g id="text_8">
      <!-- 100 -->
      <g transform="translate(23.510313 85.754726) scale(0.08 -0.08)">
       <defs>
        <path id="DejaVuSerif-31" d="M 909 0 
L 909 331 
L 1722 331 
L 1722 4213 
L 781 3603 
L 781 4013 
L 1919 4750 
L 2350 4750 
L 2350 331 
L 3163 331 
L 3163 0 
L 909 0 
z
" transform="scale(0.015625)"/>
       </defs>
       <use xlink:href="#DejaVuSerif-31"/>
       <use xlink:href="#DejaVuSerif-30" transform="translate(63.623047 0)"/>
       <use xlink:href="#DejaVuSerif-30" transform="translate(127.246094 0)"/>
      </g>
     </g>
    </g>
    <g id="ytick_6">
     <g id="line2d_17">
      <path d="M 45.780313 63.529661 
L 495.715313 63.529661 
" clip-path="url(#p6361c2bad5)" style="fill: none; stroke: #b0b0b0; stroke-opacity: 0.25; stroke-width: 0.5; stroke-linecap: square"/>
     </g>
     <g id="line2d_18">
      <g>
       <use xlink:href="#m55fc2ee4ab" x="45.780313" y="63.529661" style="stroke: #000000; stroke-width: 0.8"/>
      </g>
     </g>
     <g id="text_9">
      <!-- 125 -->
      <g transform="translate(23.510313 66.569036) scale(0.08 -0.08)">
       <use xlink:href="#DejaVuSerif-31"/>
       <use xlink:href="#DejaVuSerif-32" transform="translate(63.623047 0)"/>
       <use xlink:href="#DejaVuSerif-35" transform="translate(127.246094 0)"/>
      </g>
     </g>
    </g>
    <g id="ytick_7">
     <g id="line2d_19">
      <path d="M 45.780313 44.343971 
L 495.715313 44.343971 
" clip-path="url(#p6361c2bad5)" style="fill: none; stroke: #b0b0b0; stroke-opacity: 0.25; stroke-width: 0.5; stroke-linecap: square"/>
     </g>
     <g id="line2d_20">
      <g>
       <use xlink:href="#m55fc2ee4ab" x="45.780313" y="44.343971" style="stroke: #000000; stroke-width: 0.8"/>
      </g>
     </g>
     <g id="text_10">
      <!-- 150 -->
      <g transform="translate(23.510313 47.383346) scale(0.08 -0.08)">
       <use xlink:href="#DejaVuSerif-31"/>
       <use xlink:href="#DejaVuSerif-35" transform="translate(63.623047 0)"/>
       <use xlink:href="#DejaVuSerif-30" transform="translate(127.246094 0)"/>
      </g>
     </g>
    </g>
    <g id="ytick_8">
     <g id="line2d_21">
      <path d="M 45.780313 25.158281 
L 495.715313 25.158281 
" clip-path="url(#p6361c2bad5)" style="fill: none; stroke: #b0b0b0; stroke-opacity: 0.25; stroke-width: 0.5; stroke-linecap: square"/>
     </g>
     <g id="line2d_22">
      <g>
       <use xlink:href="#m55fc2ee4ab" x="45.780313" y="25.158281" style="stroke: #000000; stroke-width: 0.8"/>
      </g>
     </g>
     <g id="text_11">
      <!-- 175 -->
      <g transform="translate(23.510313 28.197656) scale(0.08 -0.08)">
       <use xlink:href="#DejaVuSerif-31"/>
       <use xlink:href="#DejaVuSerif-37" transform="translate(63.623047 0)"/>
       <use xlink:href="#DejaVuSerif-35" transform="translate(127.246094 0)"/>
      </g>
     </g>
    </g>
    <g id="text_12">
     <!-- MiB/s -->
     <g transform="translate(17.638594 105.486868) rotate(-90) scale(0.09 -0.09)">
      <defs>
       <path id="DejaVuSerif-4d" d="M 353 0 
L 353 331 
L 947 331 
L 947 4331 
L 319 4331 
L 319 4666 
L 1678 4666 
L 3316 1344 
L 4953 4666 
L 6228 4666 
L 6228 4331 
L 5606 4331 
L 5606 331 
L 6203 331 
L 6203 0 
L 4378 0 
L 4378 331 
L 4972 331 
L 4972 3938 
L 3372 684 
L 2931 684 
L 1331 3938 
L 1331 331 
L 1925 331 
L 1925 0 
L 353 0 
z
" transform="scale(0.015625)"/>
       <path id="DejaVuSerif-69" d="M 622 4353 
Q 622 4497 726 4603 
Q 831 4709 978 4709 
Q 1122 4709 1226 4603 
Q 1331 4497 1331 4353 
Q 1331 4206 1228 4103 
Q 1125 4000 978 4000 
Q 831 4000 726 4103 
Q 622 4206 622 4353 
z
M 1356 331 
L 1900 331 
L 1900 0 
L 231 0 
L 231 331 
L 781 331 
L 781 2988 
L 231 2988 
L 231 3322 
L 1356 3322 
L 1356 331 
z
" transform="scale(0.015625)"/>
       <path id="DejaVuSerif-42" d="M 1581 331 
L 2516 331 
Q 3078 331 3337 575 
Q 3597 819 3597 1350 
Q 3597 1878 3339 2120 
Q 3081 2363 2516 2363 
L 1581 2363 
L 1581 331 
z
M 1581 2694 
L 2375 2694 
Q 2888 2694 3123 2891 
Q 3359 3088 3359 3513 
Q 3359 3941 3123 4136 
Q 2888 4331 2375 4331 
L 1581 4331 
L 1581 2694 
z
M 353 0 
L 353 331 
L 947 331 
L 947 4331 
L 353 4331 
L 353 4666 
L 2656 4666 
Q 3363 4666 3720 4377 
Q 4078 4088 4078 3513 
Q 4078 3097 3829 2850 
Q 3581 2603 3103 2547 
Q 3697 2472 4005 2167 
Q 4313 1863 4313 1350 
Q 4313 656 3875 328 
Q 3438 0 2509 0 
L 353 0 
z
" transform="scale(0.015625)"/>
       <path id="DejaVuSerif-2f" d="M 1656 4666 
L 2156 4666 
L 500 -594 
L 0 -594 
L 1656 4666 
z
" transform="scale(0.015625)"/>
       <path id="DejaVuSerif-73" d="M 359 184 
L 359 959 
L 691 959 
Q 703 588 923 403 
Q 1144 219 1575 219 
Q 1963 219 2166 364 
Q 2369 509 2369 788 
Q 2369 1006 2220 1140 
Q 2072 1275 1594 1428 
L 1178 1569 
Q 750 1706 558 1912 
Q 366 2119 366 2438 
Q 366 2894 700 3153 
Q 1034 3413 1625 3413 
Q 1888 3413 2178 3344 
Q 2469 3275 2778 3144 
L 2778 2419 
L 2447 2419 
Q 2434 2741 2221 2922 
Q 2009 3103 1644 3103 
Q 1281 3103 1095 2975 
Q 909 2847 909 2591 
Q 909 2381 1050 2254 
Q 1191 2128 1613 1997 
L 2069 1856 
Q 2541 1709 2748 1489 
Q 2956 1269 2956 922 
Q 2956 450 2595 179 
Q 2234 -91 1600 -91 
Q 1278 -91 972 -22 
Q 666 47 359 184 
z
" transform="scale(0.015625)"/>
      </defs>
      <use xlink:href="#DejaVuSerif-4d"/>
      <use xlink:href="#DejaVuSerif-69" transform="translate(102.392578 0)"/>
      <use xlink:href="#DejaVuSerif-42" transform="translate(134.375 0)"/>
      <use xlink:href="#DejaVuSerif-2f" transform="translate(207.861328 0)"/>
      <use xlink:href="#DejaVuSerif-73" transform="translate(241.552734 0)"/>
     </g>
    </g>
   </g>
   <g id="patch_3">
    <path d="M 66.231903 159.45811 
L 69.720448 159.45811 
L 69.720448 126.046954 
L 66.231903 126.046954 
z
" clip-path="url(#p6361c2bad5)" style="fill: #3366cc; opacity: 0.7"/>
   </g>
   <g id="patch_4">
    <path d="M 70.592584 159.45811 
L 74.081128 159.45811 
L 74.081128 126.036327 
L 70.592584 126.036327 
z
" clip-path="url(#p6361c2bad5)" style="fill: #3366cc; opacity: 0.7"/>
   </g>
   <g id="patch_5">
    <path d="M 74.953264 159.45811 
L 78.441808 159.45811 
L 78.441808 125.671942 
L 74.953264 125.671942 
z
" clip-path="url(#p6361c2bad5)" style="fill: #3366cc; opacity: 0.7"/>
   </g>
   <g id="patch_6">
    <path d="M 79.313945 159.45811 
L 82.802489 159.45811 
L 82.802489 125.549148 
L 79.313945 125.549148 
z
" clip-path="url(#p6361c2bad5)" style="fill: #3366cc; opacity: 0.7"/>
   </g>
   <g id="patch_7">
    <path d="M 83.674625 159.45811 
L 87.163169 159.45811 
L 87.163169 125.4948 
L 83.674625 125.4948 
z
" clip-path="url(#p6361c2bad5)" style="fill: #3366cc; opacity: 0.7"/>
   </g>
   <g id="patch_8">
    <path d="M 88.035305 159.45811 
L 91.52385 159.45811 
L 91.52385 126.067125 
L 88.035305 126.067125 
z
" clip-path="url(#p6361c2bad5)" style="fill: #3366cc; opacity: 0.7"/>
   </g>
   <g id="patch_9">
    <path d="M 92.395986 159.45811 
L 95.88453 159.45811 
L 95.88453 126.265717 
L 92.395986 126.265717 
z
" clip-path="url(#p6361c2bad5)" style="fill: #3366cc; opacity: 0.7"/>
   </g>
   <g id="patch_10">
    <path d="M 96.756666 159.45811 
L 100.24521 159.45811 
L 100.24521 126.426133 
L 96.756666 126.426133 
z
" clip-path="url(#p6361c2bad5)" style="fill: #3366cc; opacity: 0.7"/>
   </g>
   <g id="patch_11">
    <path d="M 101.117346 159.45811 
L 104.605891 159.45811 
L 104.605891 126.321013 
L 101.117346 126.321013 
z
" clip-path="url(#p6361c2bad5)" style="fill: #3366cc; opacity: 0.7"/>
   </g>
   <g id="patch_12">
    <path d="M 105.478027 159.45811 
L 108.966571 159.45811 
L 108.966571 126.284737 
L 105.478027 126.284737 
z
" clip-path="url(#p6361c2bad5)" style="fill: #3366cc; opacity: 0.7"/>
   </g>
   <g id="patch_13">
    <path d="M 109.838707 159.45811 
L 113.327251 159.45811 
L 113.327251 126.364087 
L 109.838707 126.364087 
z
" clip-path="url(#p6361c2bad5)" style="fill: #3366cc; opacity: 0.7"/>
   </g>
   <g id="patch_14">
    <path d="M 114.199387 159.45811 
L 117.687932 159.45811 
L 117.687932 126.433121 
L 114.199387 126.433121 
z
" clip-path="url(#p6361c2bad5)" style="fill: #3366cc; opacity: 0.7"/>
   </g>
   <g id="patch_15">
    <path d="M 118.560068 159.45811 
L 122.048612 159.45811 
L 122.048612 126.565548 
L 118.560068 126.565548 
z
" clip-path="url(#p6361c2bad5)" style="fill: #3366cc; opacity: 0.7"/>
   </g>
   <g id="patch_16">
    <path d="M 122.920748 159.45811 
L 126.409292 159.45811 
L 126.409292 126.5124 
L 122.920748 126.5124 
z
" clip-path="url(#p6361c2bad5)" style="fill: #3366cc; opacity: 0.7"/>
   </g>
   <g id="patch_17">
    <path d="M 127.281429 159.45811 
L 130.769973 159.45811 
L 130.769973 126.531745 
L 127.281429 126.531745 
z
" clip-path="url(#p6361c2bad5)" style="fill: #3366cc; opacity: 0.7"/>
   </g>
   <g id="patch_18">
    <path d="M 131.642109 159.45811 
L 135.130653 159.45811 
L 135.130653 126.592709 
L 131.642109 126.592709 
z
" clip-path="url(#p6361c2bad5)" style="fill: #3366cc; opacity: 0.7"/>
   </g>
   <g id="patch_19">
    <path d="M 136.002789 159.45811 
L 139.491334 159.45811 
L 139.491334 126.570306 
L 136.002789 126.570306 
z
" clip-path="url(#p6361c2bad5)" style="fill: #3366cc; opacity: 0.7"/>
   </g>
   <g id="patch_20">
    <path d="M 140.36347 159.45811 
L 143.852014 159.45811 
L 143.852014 126.747615 
L 140.36347 126.747615 
z
" clip-path="url(#p6361c2bad5)" style="fill: #3366cc; opacity: 0.7"/>
   </g>
   <g id="patch_21">
    <path d="M 144.72415 159.45811 
L 148.212694 159.45811 
L 148.212694 126.726148 
L 144.72415 126.726148 
z
" clip-path="url(#p6361c2bad5)" style="fill: #3366cc; opacity: 0.7"/>
   </g>
   <g id="patch_22">
    <path d="M 149.08483 159.45811 
L 152.573375 159.45811 
L 152.573375 126.707129 
L 149.08483 126.707129 
z
" clip-path="url(#p6361c2bad5)" style="fill: #3366cc; opacity: 0.7"/>
   </g>
   <g id="patch_23">
    <path d="M 153.445511 159.45811 
L 156.934055 159.45811 
L 156.934055 126.59869 
L 153.445511 126.59869 
z
" clip-path="url(#p6361c2bad5)" style="fill: #3366cc; opacity: 0.7"/>
   </g>
   <g id="patch_24">
    <path d="M 157.806191 159.45811 
L 161.294735 159.45811 
L 161.294735 126.715286 
L 157.806191 126.715286 
z
" clip-path="url(#p6361c2bad5)" style="fill: #3366cc; opacity: 0.7"/>
   </g>
   <g id="patch_25">
    <path d="M 162.166871 159.45811 
L 165.655416 159.45811 
L 165.655416 126.821556 
L 162.166871 126.821556 
z
" clip-path="url(#p6361c2bad5)" style="fill: #3366cc; opacity: 0.7"/>
   </g>
   <g id="patch_26">
    <path d="M 166.527552 159.45811 
L 170.016096 159.45811 
L 170.016096 126.825844 
L 166.527552 126.825844 
z
" clip-path="url(#p6361c2bad5)" style="fill: #3366cc; opacity: 0.7"/>
   </g>
   <g id="patch_27">
    <path d="M 170.888232 159.45811 
L 174.376776 159.45811 
L 174.376776 126.894288 
L 170.888232 126.894288 
z
" clip-path="url(#p6361c2bad5)" style="fill: #3366cc; opacity: 0.7"/>
   </g>
   <g id="patch_28">
    <path d="M 175.248913 159.45811 
L 178.737457 159.45811 
L 178.737457 127.157846 
L 175.248913 127.157846 
z
" clip-path="url(#p6361c2bad5)" style="fill: #3366cc; opacity: 0.7"/>
   </g>
   <g id="patch_29">
    <path d="M 179.609593 159.45811 
L 183.098137 159.45811 
L 183.098137 126.985835 
L 179.609593 126.985835 
z
" clip-path="url(#p6361c2bad5)" style="fill: #3366cc; opacity: 0.7"/>
   </g>
   <g id="patch_30">
    <path d="M 183.970273 159.45811 
L 187.458818 159.45811 
L 187.458818 126.860282 
L 183.970273 126.860282 
z
" clip-path="url(#p6361c2bad5)" style="fill: #3366cc; opacity: 0.7"/>
   </g>
   <g id="patch_31">
    <path d="M 188.330954 159.45811 
L 191.819498 159.45811 
L 191.819498 127.063536 
L 188.330954 127.063536 
z
" clip-path="url(#p6361c2bad5)" style="fill: #3366cc; opacity: 0.7"/>
   </g>
   <g id="patch_32">
    <path d="M 192.691634 159.45811 
L 196.180178 159.45811 
L 196.180178 127.504606 
L 192.691634 127.504606 
z
" clip-path="url(#p6361c2bad5)" style="fill: #3366cc; opacity: 0.7"/>
   </g>
   <g id="patch_33">
    <path d="M 197.052314 159.45811 
L 200.540859 159.45811 
L 200.540859 127.944717 
L 197.052314 127.944717 
z
" clip-path="url(#p6361c2bad5)" style="fill: #3366cc; opacity: 0.7"/>
   </g>
   <g id="patch_34">
    <path d="M 201.412995 159.45811 
L 204.901539 159.45811 
L 204.901539 128.070621 
L 201.412995 128.070621 
z
" clip-path="url(#p6361c2bad5)" style="fill: #3366cc; opacity: 0.7"/>
   </g>
   <g id="patch_35">
    <path d="M 205.773675 159.45811 
L 209.262219 159.45811 
L 209.262219 127.817269 
L 205.773675 127.817269 
z
" clip-path="url(#p6361c2bad5)" style="fill: #3366cc; opacity: 0.7"/>
   </g>
   <g id="patch_36">
    <path d="M 210.134355 159.45811 
L 213.6229 159.45811 
L 213.6229 127.490873 
L 210.134355 127.490873 
z
" clip-path="url(#p6361c2bad5)" style="fill: #3366cc; opacity: 0.7"/>
   </g>
   <g id="patch_37">
    <path d="M 214.495036 159.45811 
L 217.98358 159.45811 
L 217.98358 127.28955 
L 214.495036 127.28955 
z
" clip-path="url(#p6361c2bad5)" style="fill: #3366cc; opacity: 0.7"/>
   </g>
   <g id="patch_38">
    <path d="M 218.855716 159.45811 
L 222.34426 159.45811 
L 222.34426 127.274093 
L 218.855716 127.274093 
z
" clip-path="url(#p6361c2bad5)" style="fill: #3366cc; opacity: 0.7"/>
   </g>
   <g id="patch_39">
    <path d="M 223.216397 159.45811 
L 226.704941 159.45811 
L 226.704941 127.231609 
L 223.216397 127.231609 
z
" clip-path="url(#p6361c2bad5)" style="fill: #3366cc; opacity: 0.7"/>
   </g>
   <g id="patch_40">
    <path d="M 227.577077 159.45811 
L 231.065621 159.45811 
L 231.065621 127.37408 
L 227.577077 127.37408 
z
" clip-path="url(#p6361c2bad5)" style="fill: #3366cc; opacity: 0.7"/>
   </g>
   <g id="patch_41">
    <path d="M 231.937757 159.45811 
L 235.426302 159.45811 
L 235.426302 127.485826 
L 231.937757 127.485826 
z
" clip-path="url(#p6361c2bad5)" style="fill: #3366cc; opacity: 0.7"/>
   </g>
   <g id="patch_42">
    <path d="M 236.298438 159.45811 
L 239.786982 159.45811 
L 239.786982 126.939354 
L 236.298438 126.939354 
z
" clip-path="url(#p6361c2bad5)" style="fill: #3366cc; opacity: 0.7"/>
   </g>
   <g id="patch_43">
    <path d="M 240.659118 159.45811 
L 244.147662 159.45811 
L 244.147662 126.37113 
L 240.659118 126.37113 
z
" clip-path="url(#p6361c2bad5)" style="fill: #3366cc; opacity: 0.7"/>
   </g>
   <g id="patch_44">
    <path d="M 245.019798 159.45811 
L 248.508343 159.45811 
L 248.508343 126.530091 
L 245.019798 126.530091 
z
" clip-path="url(#p6361c2bad5)" style="fill: #3366cc; opacity: 0.7"/>
   </g>
   <g id="patch_45">
    <path d="M 249.380479 159.45811 
L 252.869023 159.45811 
L 252.869023 126.772343 
L 249.380479 126.772343 
z
" clip-path="url(#p6361c2bad5)" style="fill: #3366cc; opacity: 0.7"/>
   </g>
   <g id="patch_46">
    <path d="M 253.741159 159.45811 
L 257.229703 159.45811 
L 257.229703 126.621962 
L 253.741159 126.621962 
z
" clip-path="url(#p6361c2bad5)" style="fill: #3366cc; opacity: 0.7"/>
   </g>
   <g id="patch_47">
    <path d="M 258.101839 159.45811 
L 261.590384 159.45811 
L 261.590384 126.700981 
L 258.101839 126.700981 
z
" clip-path="url(#p6361c2bad5)" style="fill: #3366cc; opacity: 0.7"/>
   </g>
   <g id="patch_48">
    <path d="M 262.46252 159.45811 
L 265.951064 159.45811 
L 265.951064 126.594815 
L 262.46252 126.594815 
z
" clip-path="url(#p6361c2bad5)" style="fill: #3366cc; opacity: 0.7"/>
   </g>
   <g id="patch_49">
    <path d="M 266.8232 159.45811 
L 270.311744 159.45811 
L 270.311744 126.409804 
L 266.8232 126.409804 
z
" clip-path="url(#p6361c2bad5)" style="fill: #3366cc; opacity: 0.7"/>
   </g>
   <g id="patch_50">
    <path d="M 271.183881 159.45811 
L 274.672425 159.45811 
L 274.672425 126.646328 
L 271.183881 126.646328 
z
" clip-path="url(#p6361c2bad5)" style="fill: #3366cc; opacity: 0.7"/>
   </g>
   <g id="patch_51">
    <path d="M 275.544561 159.45811 
L 279.033105 159.45811 
L 279.033105 126.534032 
L 275.544561 126.534032 
z
" clip-path="url(#p6361c2bad5)" style="fill: #3366cc; opacity: 0.7"/>
   </g>
   <g id="patch_52">
    <path d="M 279.905241 159.45811 
L 283.393786 159.45811 
L 283.393786 126.622145 
L 279.905241 126.622145 
z
" clip-path="url(#p6361c2bad5)" style="fill: #3366cc; opacity: 0.7"/>
   </g>
   <g id="patch_53">
    <path d="M 284.265922 159.45811 
L 287.754466 159.45811 
L 287.754466 126.844092 
L 284.265922 126.844092 
z
" clip-path="url(#p6361c2bad5)" style="fill: #3366cc; opacity: 0.7"/>
   </g>
   <g id="patch_54">
    <path d="M 288.626602 159.45811 
L 292.115146 159.45811 
L 292.115146 126.870861 
L 288.626602 126.870861 
z
" clip-path="url(#p6361c2bad5)" style="fill: #3366cc; opacity: 0.7"/>
   </g>
   <g id="patch_55">
    <path d="M 292.987282 159.45811 
L 296.475827 159.45811 
L 296.475827 126.734324 
L 292.987282 126.734324 
z
" clip-path="url(#p6361c2bad5)" style="fill: #3366cc; opacity: 0.7"/>
   </g>
   <g id="patch_56">
    <path d="M 297.347963 159.45811 
L 300.836507 159.45811 
L 300.836507 127.021021 
L 297.347963 127.021021 
z
" clip-path="url(#p6361c2bad5)" style="fill: #3366cc; opacity: 0.7"/>
   </g>
   <g id="patch_57">
    <path d="M 301.708643 159.45811 
L 305.197187 159.45811 
L 305.197187 126.649245 
L 301.708643 126.649245 
z
" clip-path="url(#p6361c2bad5)" style="fill: #3366cc; opacity: 0.7"/>
   </g>
   <g id="patch_58">
    <path d="M 306.069323 159.45811 
L 309.557868 159.45811 
L 309.557868 126.677647 
L 306.069323 126.677647 
z
" clip-path="url(#p6361c2bad5)" style="fill: #3366cc; opacity: 0.7"/>
   </g>
   <g id="patch_59">
    <path d="M 310.430004 159.45811 
L 313.918548 159.45811 
L 313.918548 127.038128 
L 310.430004 127.038128 
z
" clip-path="url(#p6361c2bad5)" style="fill: #3366cc; opacity: 0.7"/>
   </g>
   <g id="patch_60">
    <path d="M 314.790684 159.45811 
L 318.279228 159.45811 
L 318.279228 128.142312 
L 314.790684 128.142312 
z
" clip-path="url(#p6361c2bad5)" style="fill: #3366cc; opacity: 0.7"/>
   </g>
   <g id="patch_61">
    <path d="M 319.151365 159.45811 
L 322.639909 159.45811 
L 322.639909 128.268324 
L 319.151365 128.268324 
z
" clip-path="url(#p6361c2bad5)" style="fill: #3366cc; opacity: 0.7"/>
   </g>
   <g id="patch_62">
    <path d="M 323.512045 159.45811 
L 327.000589 159.45811 
L 327.000589 127.477316 
L 323.512045 127.477316 
z
" clip-path="url(#p6361c2bad5)" style="fill: #3366cc; opacity: 0.7"/>
   </g>
   <g id="patch_63">
    <path d="M 327.872725 159.45811 
L 331.36127 159.45811 
L 331.36127 126.600935 
L 327.872725 126.600935 
z
" clip-path="url(#p6361c2bad5)" style="fill: #3366cc; opacity: 0.7"/>
   </g>
   <g id="patch_64">
    <path d="M 332.233406 159.45811 
L 335.72195 159.45811 
L 335.72195 126.447728 
L 332.233406 126.447728 
z
" clip-path="url(#p6361c2bad5)" style="fill: #3366cc; opacity: 0.7"/>
   </g>
   <g id="patch_65">
    <path d="M 336.594086 159.45811 
L 340.08263 159.45811 
L 340.08263 126.460153 
L 336.594086 126.460153 
z
" clip-path="url(#p6361c2bad5)" style="fill: #3366cc; opacity: 0.7"/>
   </g>
   <g id="patch_66">
    <path d="M 340.954766 159.45811 
L 344.443311 159.45811 
L 344.443311 126.613243 
L 340.954766 126.613243 
z
" clip-path="url(#p6361c2bad5)" style="fill: #3366cc; opacity: 0.7"/>
   </g>
   <g id="patch_67">
    <path d="M 345.315447 159.45811 
L 348.803991 159.45811 
L 348.803991 126.480727 
L 345.315447 126.480727 
z
" clip-path="url(#p6361c2bad5)" style="fill: #3366cc; opacity: 0.7"/>
   </g>
   <g id="patch_68">
    <path d="M 349.676127 159.45811 
L 353.164671 159.45811 
L 353.164671 126.741704 
L 349.676127 126.741704 
z
" clip-path="url(#p6361c2bad5)" style="fill: #3366cc; opacity: 0.7"/>
   </g>
   <g id="patch_69">
    <path d="M 354.036807 159.45811 
L 357.525352 159.45811 
L 357.525352 126.651062 
L 354.036807 126.651062 
z
" clip-path="url(#p6361c2bad5)" style="fill: #3366cc; opacity: 0.7"/>
   </g>
   <g id="patch_70">
    <path d="M 358.397488 159.45811 
L 361.886032 159.45811 
L 361.886032 126.780916 
L 358.397488 126.780916 
z
" clip-path="url(#p6361c2bad5)" style="fill: #3366cc; opacity: 0.7"/>
   </g>
   <g id="patch_71">
    <path d="M 362.758168 159.45811 
L 366.246712 159.45811 
L 366.246712 126.861385 
L 362.758168 126.861385 
z
" clip-path="url(#p6361c2bad5)" style="fill: #3366cc; opacity: 0.7"/>
   </g>
   <g id="patch_72">
    <path d="M 367.118849 159.45811 
L 370.607393 159.45811 
L 370.607393 127.058884 
L 367.118849 127.058884 
z
" clip-path="url(#p6361c2bad5)" style="fill: #3366cc; opacity: 0.7"/>
   </g>
   <g id="patch_73">
    <path d="M 371.479529 159.45811 
L 374.968073 159.45811 
L 374.968073 126.949084 
L 371.479529 126.949084 
z
" clip-path="url(#p6361c2bad5)" style="fill: #3366cc; opacity: 0.7"/>
   </g>
   <g id="patch_74">
    <path d="M 375.840209 159.45811 
L 379.328754 159.45811 
L 379.328754 126.663417 
L 375.840209 126.663417 
z
" clip-path="url(#p6361c2bad5)" style="fill: #3366cc; opacity: 0.7"/>
   </g>
   <g id="patch_75">
    <path d="M 380.20089 159.45811 
L 383.689434 159.45811 
L 383.689434 126.748529 
L 380.20089 126.748529 
z
" clip-path="url(#p6361c2bad5)" style="fill: #3366cc; opacity: 0.7"/>
   </g>
   <g id="patch_76">
    <path d="M 384.56157 159.45811 
L 388.050114 159.45811 
L 388.050114 125.588473 
L 384.56157 125.588473 
z
" clip-path="url(#p6361c2bad5)" style="fill: #3366cc; opacity: 0.7"/>
   </g>
   <g id="patch_77">
    <path d="M 388.92225 159.45811 
L 392.410795 159.45811 
L 392.410795 124.802887 
L 388.92225 124.802887 
z
" clip-path="url(#p6361c2bad5)" style="fill: #3366cc; opacity: 0.7"/>
   </g>
   <g id="patch_78">
    <path d="M 393.282931 159.45811 
L 396.771475 159.45811 
L 396.771475 124.98947 
L 393.282931 124.98947 
z
" clip-path="url(#p6361c2bad5)" style="fill: #3366cc; opacity: 0.7"/>
   </g>
   <g id="patch_79">
    <path d="M 397.643611 159.45811 
L 401.132155 159.45811 
L 401.132155 125.084505 
L 397.643611 125.084505 
z
" clip-path="url(#p6361c2bad5)" style="fill: #3366cc; opacity: 0.7"/>
   </g>
   <g id="patch_80">
    <path d="M 402.004291 159.45811 
L 405.492836 159.45811 
L 405.492836 124.785701 
L 402.004291 124.785701 
z
" clip-path="url(#p6361c2bad5)" style="fill: #3366cc; opacity: 0.7"/>
   </g>
   <g id="patch_81">
    <path d="M 406.364972 159.45811 
L 409.853516 159.45811 
L 409.853516 125.213711 
L 406.364972 125.213711 
z
" clip-path="url(#p6361c2bad5)" style="fill: #3366cc; opacity: 0.7"/>
   </g>
   <g id="patch_82">
    <path d="M 410.725652 159.45811 
L 414.214196 159.45811 
L 414.214196 124.96031 
L 410.725652 124.96031 
z
" clip-path="url(#p6361c2bad5)" style="fill: #3366cc; opacity: 0.7"/>
   </g>
   <g id="patch_83">
    <path d="M 415.086333 159.45811 
L 418.574877 159.45811 
L 418.574877 125.064475 
L 415.086333 125.064475 
z
" clip-path="url(#p6361c2bad5)" style="fill: #3366cc; opacity: 0.7"/>
   </g>
   <g id="patch_84">
    <path d="M 419.447013 159.45811 
L 422.935557 159.45811 
L 422.935557 124.974281 
L 419.447013 124.974281 
z
" clip-path="url(#p6361c2bad5)" style="fill: #3366cc; opacity: 0.7"/>
   </g>
   <g id="patch_85">
    <path d="M 423.807693 159.45811 
L 427.296238 159.45811 
L 427.296238 125.229791 
L 423.807693 125.229791 
z
" clip-path="url(#p6361c2bad5)" style="fill: #3366cc; opacity: 0.7"/>
   </g>
   <g id="patch_86">
    <path d="M 428.168374 159.45811 
L 431.656918 159.45811 
L 431.656918 126.379805 
L 428.168374 126.379805 
z
" clip-path="url(#p6361c2bad5)" style="fill: #3366cc; opacity: 0.7"/>
   </g>
   <g id="patch_87">
    <path d="M 432.529054 159.45811 
L 436.017598 159.45811 
L 436.017598 126.491806 
L 432.529054 126.491806 
z
" clip-path="url(#p6361c2bad5)" style="fill: #3366cc; opacity: 0.7"/>
   </g>
   <g id="patch_88">
    <path d="M 436.889734 159.45811 
L 440.378279 159.45811 
L 440.378279 125.454385 
L 436.889734 125.454385 
z
" clip-path="url(#p6361c2bad5)" style="fill: #3366cc; opacity: 0.7"/>
   </g>
   <g id="patch_89">
    <path d="M 441.250415 159.45811 
L 444.738959 159.45811 
L 444.738959 125.68581 
L 441.250415 125.68581 
z
" clip-path="url(#p6361c2bad5)" style="fill: #3366cc; opacity: 0.7"/>
   </g>
   <g id="patch_90">
    <path d="M 445.611095 159.45811 
L 449.099639 159.45811 
L 449.099639 125.85543 
L 445.611095 125.85543 
z
" clip-path="url(#p6361c2bad5)" style="fill: #3366cc; opacity: 0.7"/>
   </g>
   <g id="patch_91">
    <path d="M 449.971775 159.45811 
L 453.46032 159.45811 
L 453.46032 126.001647 
L 449.971775 126.001647 
z
" clip-path="url(#p6361c2bad5)" style="fill: #3366cc; opacity: 0.7"/>
   </g>
   <g id="patch_92">
    <path d="M 454.332456 159.45811 
L 457.821 159.45811 
L 457.821 125.741529 
L 454.332456 125.741529 
z
" clip-path="url(#p6361c2bad5)" style="fill: #3366cc; opacity: 0.7"/>
   </g>
   <g id="patch_93">
    <path d="M 458.693136 159.45811 
L 462.18168 159.45811 
L 462.18168 125.769175 
L 458.693136 125.769175 
z
" clip-path="url(#p6361c2bad5)" style="fill: #3366cc; opacity: 0.7"/>
   </g>
   <g id="patch_94">
    <path d="M 463.053817 159.45811 
L 466.542361 159.45811 
L 466.542361 126.042206 
L 463.053817 126.042206 
z
" clip-path="url(#p6361c2bad5)" style="fill: #3366cc; opacity: 0.7"/>
   </g>
   <g id="patch_95">
    <path d="M 467.414497 159.45811 
L 470.903041 159.45811 
L 470.903041 125.790076 
L 467.414497 125.790076 
z
" clip-path="url(#p6361c2bad5)" style="fill: #3366cc; opacity: 0.7"/>
   </g>
   <g id="patch_96">
    <path d="M 471.775177 159.45811 
L 475.263722 159.45811 
L 475.263722 125.861343 
L 471.775177 125.861343 
z
" clip-path="url(#p6361c2bad5)" style="fill: #3366cc; opacity: 0.7"/>
   </g>
   <g id="patch_97">
    <path d="M 45.780313 159.45811 
L 45.780313 25.158281 
" style="fill: none; stroke: #000000; stroke-width: 0.6; stroke-linejoin: miter; stroke-linecap: square"/>
   </g>
   <g id="patch_98">
    <path d="M 45.780313 159.45811 
L 495.715313 159.45811 
" style="fill: none; stroke: #000000; stroke-width: 0.6; stroke-linejoin: miter; stroke-linecap: square"/>
   </g>
   <g id="line2d_23">
    <path d="M 67.976176 31.553511 
L 72.336856 31.553511 
L 76.697536 31.553511 
L 81.058217 31.553511 
L 85.418897 31.553511 
L 89.779577 31.553511 
L 94.140258 31.553511 
L 98.500938 31.553511 
L 102.861618 31.553511 
L 107.222299 31.553511 
L 111.582979 31.553511 
L 115.94366 31.553511 
L 120.30434 31.553511 
L 124.66502 31.553511 
L 129.025701 31.553511 
L 133.386381 31.553511 
L 137.747061 31.553511 
L 142.107742 31.553511 
L 146.468422 31.553511 
L 150.829102 31.553511 
L 155.189783 31.553511 
L 159.550463 31.553511 
L 163.911144 31.553511 
L 168.271824 31.553511 
L 172.632504 31.553511 
L 176.993185 31.553511 
L 181.353865 31.553511 
L 185.714545 31.553511 
L 190.075226 31.553511 
L 194.435906 31.553511 
L 198.796586 31.553511 
L 203.157267 31.553511 
L 207.517947 31.553511 
L 211.878628 31.553511 
L 216.239308 31.553511 
L 220.599988 31.553511 
L 224.960669 31.553511 
L 229.321349 31.553511 
L 233.682029 31.553511 
L 238.04271 31.553511 
L 242.40339 31.553511 
L 246.76407 31.553511 
L 251.124751 31.553511 
L 255.485431 31.553511 
L 259.846112 31.553511 
L 264.206792 31.553511 
L 268.567472 31.553511 
L 272.928153 31.553511 
L 277.288833 31.553511 
L 281.649513 31.553511 
L 286.010194 31.553511 
L 290.370874 31.553511 
L 294.731555 31.553511 
L 299.092235 31.553511 
L 303.452915 31.553511 
L 307.813596 31.553511 
L 312.174276 31.553511 
L 316.534956 31.553511 
L 320.895637 31.553511 
L 325.256317 31.553511 
L 329.616997 31.553511 
L 333.977678 31.553511 
L 338.338358 31.553511 
L 342.699039 31.553511 
L 347.059719 31.553511 
L 351.420399 31.553511 
L 355.78108 31.553511 
L 360.14176 31.553511 
L 364.50244 31.553511 
L 368.863121 31.553511 
L 373.223801 31.553511 
L 377.584481 31.553511 
L 381.945162 31.553511 
L 386.305842 31.553511 
L 390.666523 31.553511 
L 395.027203 31.553511 
L 399.387883 31.553511 
L 403.748564 31.553511 
L 408.109244 31.553511 
L 412.469924 31.553511 
L 416.830605 31.553511 
L 421.191285 31.553511 
L 425.551965 31.553511 
L 429.912646 31.553511 
L 434.273326 31.553511 
L 438.634007 31.553511 
L 442.994687 31.553511 
L 447.355367 31.553511 
L 451.716048 31.553511 
L 456.076728 31.553511 
L 460.437408 31.553511 
L 464.798089 31.553511 
L 469.158769 31.553511 
L 473.519449 31.553511 
" clip-path="url(#p6361c2bad5)" style="fill: none; stroke-dasharray: 3.7,1.6; stroke-dashoffset: 0; stroke: #999999"/>
   </g>
   <g id="text_13">
    <!-- Polkadot — Throughput Upper Bound (MiB/s) -->
    <g transform="translate(143.354062 19.158281) scale(0.11 -0.11)">
     <defs>
      <path id="DejaVuSerif-50" d="M 1581 2375 
L 2406 2375 
Q 2872 2375 3115 2626 
Q 3359 2878 3359 3353 
Q 3359 3831 3115 4081 
Q 2872 4331 2406 4331 
L 1581 4331 
L 1581 2375 
z
M 353 0 
L 353 331 
L 947 331 
L 947 4331 
L 353 4331 
L 353 4666 
L 2559 4666 
Q 3259 4666 3668 4311 
Q 4078 3956 4078 3353 
Q 4078 2753 3668 2397 
Q 3259 2041 2559 2041 
L 1581 2041 
L 1581 331 
L 2303 331 
L 2303 0 
L 353 0 
z
" transform="scale(0.015625)"/>
      <path id="DejaVuSerif-6f" d="M 1925 219 
Q 2388 219 2623 584 
Q 2859 950 2859 1663 
Q 2859 2375 2623 2739 
Q 2388 3103 1925 3103 
Q 1463 3103 1227 2739 
Q 991 2375 991 1663 
Q 991 950 1228 584 
Q 1466 219 1925 219 
z
M 1925 -91 
Q 1200 -91 759 389 
Q 319 869 319 1663 
Q 319 2456 758 2934 
Q 1197 3413 1925 3413 
Q 2653 3413 3092 2934 
Q 3531 2456 3531 1663 
Q 3531 869 3092 389 
Q 2653 -91 1925 -91 
z
" transform="scale(0.015625)"/>
      <path id="DejaVuSerif-6c" d="M 1313 331 
L 1856 331 
L 1856 0 
L 184 0 
L 184 331 
L 738 331 
L 738 4531 
L 184 4531 
L 184 4863 
L 1313 4863 
L 1313 331 
z
" transform="scale(0.015625)"/>
      <path id="DejaVuSerif-6b" d="M 1831 0 
L 219 0 
L 219 331 
L 738 331 
L 738 4531 
L 184 4531 
L 184 4863 
L 1313 4863 
L 1313 1697 
L 2713 2988 
L 2234 2988 
L 2234 3322 
L 3738 3322 
L 3738 2988 
L 3169 2988 
L 2181 2075 
L 3444 331 
L 3922 331 
L 3922 0 
L 2284 0 
L 2284 331 
L 2759 331 
L 1766 1697 
L 1313 1275 
L 1313 331 
L 1831 331 
L 1831 0 
z
" transform="scale(0.015625)"/>
      <path id="DejaVuSerif-64" d="M 3359 331 
L 3909 331 
L 3909 0 
L 2784 0 
L 2784 519 
Q 2616 206 2355 57 
Q 2094 -91 1709 -91 
Q 1097 -91 708 395 
Q 319 881 319 1663 
Q 319 2444 706 2928 
Q 1094 3413 1709 3413 
Q 2094 3413 2355 3264 
Q 2616 3116 2784 2803 
L 2784 4531 
L 2241 4531 
L 2241 4863 
L 3359 4863 
L 3359 331 
z
M 2784 1497 
L 2784 1825 
Q 2784 2422 2554 2737 
Q 2325 3053 1888 3053 
Q 1444 3053 1217 2703 
Q 991 2353 991 1663 
Q 991 975 1217 622 
Q 1444 269 1888 269 
Q 2325 269 2554 583 
Q 2784 897 2784 1497 
z
" transform="scale(0.015625)"/>
      <path id="DejaVuSerif-74" d="M 691 2988 
L 184 2988 
L 184 3322 
L 691 3322 
L 691 4353 
L 1269 4353 
L 1269 3322 
L 2350 3322 
L 2350 2988 
L 1269 2988 
L 1269 878 
Q 1269 456 1350 337 
Q 1431 219 1650 219 
Q 1875 219 1978 351 
Q 2081 484 2088 781 
L 2522 781 
Q 2497 328 2275 118 
Q 2053 -91 1600 -91 
Q 1103 -91 897 129 
Q 691 350 691 878 
L 691 2988 
z
" transform="scale(0.015625)"/>
      <path id="DejaVuSerif-2014" d="M 281 1906 
L 6119 1906 
L 6119 1491 
L 281 1491 
L 281 1906 
z
" transform="scale(0.015625)"/>
      <path id="DejaVuSerif-54" d="M 1222 0 
L 1222 331 
L 1819 331 
L 1819 4294 
L 447 4294 
L 447 3566 
L 63 3566 
L 63 4666 
L 4206 4666 
L 4206 3566 
L 3822 3566 
L 3822 4294 
L 2450 4294 
L 2450 331 
L 3047 331 
L 3047 0 
L 1222 0 
z
" transform="scale(0.015625)"/>
      <path id="DejaVuSerif-68" d="M 263 0 
L 263 331 
L 781 331 
L 781 4531 
L 231 4531 
L 231 4863 
L 1356 4863 
L 1356 2731 
Q 1516 3069 1770 3241 
Q 2025 3413 2363 3413 
Q 2913 3413 3172 3097 
Q 3431 2781 3431 2113 
L 3431 331 
L 3944 331 
L 3944 0 
L 2356 0 
L 2356 331 
L 2853 331 
L 2853 1931 
Q 2853 2541 2704 2764 
Q 2556 2988 2175 2988 
Q 1775 2988 1565 2697 
Q 1356 2406 1356 1850 
L 1356 331 
L 1856 331 
L 1856 0 
L 263 0 
z
" transform="scale(0.015625)"/>
      <path id="DejaVuSerif-72" d="M 3059 3328 
L 3059 2497 
L 2728 2497 
Q 2713 2744 2591 2866 
Q 2469 2988 2234 2988 
Q 1809 2988 1582 2694 
Q 1356 2400 1356 1850 
L 1356 331 
L 2022 331 
L 2022 0 
L 263 0 
L 263 331 
L 781 331 
L 781 2994 
L 231 2994 
L 231 3322 
L 1356 3322 
L 1356 2731 
Q 1525 3078 1790 3245 
Q 2056 3413 2438 3413 
Q 2578 3413 2733 3391 
Q 2888 3369 3059 3328 
z
" transform="scale(0.015625)"/>
      <path id="DejaVuSerif-75" d="M 2266 3322 
L 3341 3322 
L 3341 331 
L 3884 331 
L 3884 0 
L 2766 0 
L 2766 588 
Q 2606 256 2353 82 
Q 2100 -91 1766 -91 
Q 1213 -91 952 223 
Q 691 538 691 1209 
L 691 2988 
L 172 2988 
L 172 3322 
L 1269 3322 
L 1269 1388 
Q 1269 781 1417 556 
Q 1566 331 1947 331 
Q 2347 331 2556 625 
Q 2766 919 2766 1478 
L 2766 2988 
L 2266 2988 
L 2266 3322 
z
" transform="scale(0.015625)"/>
      <path id="DejaVuSerif-67" d="M 3359 2988 
L 3359 72 
Q 3359 -644 2965 -1033 
Q 2572 -1422 1844 -1422 
Q 1516 -1422 1216 -1362 
Q 916 -1303 641 -1184 
L 641 -488 
L 941 -488 
Q 997 -813 1206 -963 
Q 1416 -1113 1806 -1113 
Q 2313 -1113 2548 -827 
Q 2784 -541 2784 72 
L 2784 519 
Q 2616 206 2355 57 
Q 2094 -91 1709 -91 
Q 1097 -91 708 395 
Q 319 881 319 1663 
Q 319 2444 706 2928 
Q 1094 3413 1709 3413 
Q 2094 3413 2355 3264 
Q 2616 3116 2784 2803 
L 2784 3322 
L 3909 3322 
L 3909 2988 
L 3359 2988 
z
M 2784 1825 
Q 2784 2422 2554 2737 
Q 2325 3053 1888 3053 
Q 1444 3053 1217 2703 
Q 991 2353 991 1663 
Q 991 975 1217 622 
Q 1444 269 1888 269 
Q 2325 269 2554 583 
Q 2784 897 2784 1497 
L 2784 1825 
z
" transform="scale(0.015625)"/>
      <path id="DejaVuSerif-70" d="M 1313 1825 
L 1313 1497 
Q 1313 897 1542 583 
Q 1772 269 2209 269 
Q 2650 269 2876 622 
Q 3103 975 3103 1663 
Q 3103 2353 2876 2703 
Q 2650 3053 2209 3053 
Q 1772 3053 1542 2737 
Q 1313 2422 1313 1825 
z
M 738 2988 
L 184 2988 
L 184 3322 
L 1313 3322 
L 1313 2803 
Q 1481 3116 1742 3264 
Q 2003 3413 2388 3413 
Q 3000 3413 3387 2928 
Q 3775 2444 3775 1663 
Q 3775 881 3387 395 
Q 3000 -91 2388 -91 
Q 2003 -91 1742 57 
Q 1481 206 1313 519 
L 1313 -997 
L 1856 -997 
L 1856 -1331 
L 184 -1331 
L 184 -997 
L 738 -997 
L 738 2988 
z
" transform="scale(0.015625)"/>
      <path id="DejaVuSerif-55" d="M 897 4331 
L 300 4331 
L 300 4666 
L 2125 4666 
L 2125 4331 
L 1528 4331 
L 1528 1919 
Q 1528 1025 1820 672 
Q 2113 319 2828 319 
Q 3544 319 3836 672 
Q 4128 1025 4128 1919 
L 4128 4331 
L 3531 4331 
L 3531 4666 
L 5106 4666 
L 5106 4331 
L 4513 4331 
L 4513 1856 
Q 4513 791 4103 350 
Q 3694 -91 2713 -91 
Q 1731 -91 1314 353 
Q 897 797 897 1856 
L 897 4331 
z
" transform="scale(0.015625)"/>
      <path id="DejaVuSerif-28" d="M 2041 -997 
Q 1281 -656 893 83 
Q 506 822 506 1931 
Q 506 3044 893 3783 
Q 1281 4522 2041 4863 
L 2041 4556 
Q 1559 4225 1350 3623 
Q 1141 3022 1141 1931 
Q 1141 844 1350 242 
Q 1559 -359 2041 -691 
L 2041 -997 
z
" transform="scale(0.015625)"/>
      <path id="DejaVuSerif-29" d="M 453 -997 
L 453 -691 
Q 934 -359 1145 242 
Q 1356 844 1356 1931 
Q 1356 3022 1145 3623 
Q 934 4225 453 4556 
L 453 4863 
Q 1216 4522 1603 3783 
Q 1991 3044 1991 1931 
Q 1991 822 1603 83 
Q 1216 -656 453 -997 
z
" transform="scale(0.015625)"/>
     </defs>
     <use xlink:href="#DejaVuSerif-50"/>
     <use xlink:href="#DejaVuSerif-6f" transform="translate(63.285156 0)"/>
     <use xlink:href="#DejaVuSerif-6c" transform="translate(123.490234 0)"/>
     <use xlink:href="#DejaVuSerif-6b" transform="translate(155.472656 0)"/>
     <use xlink:href="#DejaVuSerif-61" transform="translate(216.068359 0)"/>
     <use xlink:href="#DejaVuSerif-64" transform="translate(275.6875 0)"/>
     <use xlink:href="#DejaVuSerif-6f" transform="translate(339.701172 0)"/>
     <use xlink:href="#DejaVuSerif-74" transform="translate(399.90625 0)"/>
     <use xlink:href="#DejaVuSerif-20" transform="translate(440.091797 0)"/>
     <use xlink:href="#DejaVuSerif-2014" transform="translate(471.878906 0)"/>
     <use xlink:href="#DejaVuSerif-20" transform="translate(571.878906 0)"/>
     <use xlink:href="#DejaVuSerif-54" transform="translate(603.666016 0)"/>
     <use xlink:href="#DejaVuSerif-68" transform="translate(670.365234 0)"/>
     <use xlink:href="#DejaVuSerif-72" transform="translate(734.769531 0)"/>
     <use xlink:href="#DejaVuSerif-6f" transform="translate(782.572266 0)"/>
     <use xlink:href="#DejaVuSerif-75" transform="translate(842.777344 0)"/>
     <use xlink:href="#DejaVuSerif-67" transform="translate(907.181641 0)"/>
     <use xlink:href="#DejaVuSerif-68" transform="translate(971.195312 0)"/>
     <use xlink:href="#DejaVuSerif-70" transform="translate(1035.599609 0)"/>
     <use xlink:href="#DejaVuSerif-75" transform="translate(1099.613281 0)"/>
     <use xlink:href="#DejaVuSerif-74" transform="translate(1164.017578 0)"/>
     <use xlink:href="#DejaVuSerif-20" transform="translate(1204.203125 0)"/>
     <use xlink:href="#DejaVuSerif-55" transform="translate(1235.990234 0)"/>
     <use xlink:href="#DejaVuSerif-70" transform="translate(1320.267578 0)"/>
     <use xlink:href="#DejaVuSerif-70" transform="translate(1384.28125 0)"/>
     <use xlink:href="#DejaVuSerif-65" transform="translate(1448.294922 0)"/>
     <use xlink:href="#DejaVuSerif-72" transform="translate(1507.474609 0)"/>
     <use xlink:href="#DejaVuSerif-20" transform="translate(1555.277344 0)"/>
     <use xlink:href="#DejaVuSerif-42" transform="translate(1587.064453 0)"/>
     <use xlink:href="#DejaVuSerif-6f" transform="translate(1660.550781 0)"/>
     <use xlink:href="#DejaVuSerif-75" transform="translate(1720.755859 0)"/>
     <use xlink:href="#DejaVuSerif-6e" transform="translate(1785.160156 0)"/>
     <use xlink:href="#DejaVuSerif-64" transform="translate(1849.564453 0)"/>
     <use xlink:href="#DejaVuSerif-20" transform="translate(1913.578125 0)"/>
     <use xlink:href="#DejaVuSerif-28" transform="translate(1945.365234 0)"/>
     <use xlink:href="#DejaVuSerif-4d" transform="translate(1984.378906 0)"/>
     <use xlink:href="#DejaVuSerif-69" transform="translate(2086.771484 0)"/>
     <use xlink:href="#DejaVuSerif-42" transform="translate(2118.753906 0)"/>
     <use xlink:href="#DejaVuSerif-2f" transform="translate(2192.240234 0)"/>
     <use xlink:href="#DejaVuSerif-73" transform="translate(2225.931641 0)"/>
     <use xlink:href="#DejaVuSerif-29" transform="translate(2277.25 0)"/>
    </g>
   </g>
   <g id="line2d_24">
    <path d="M 67.976176 126.046954 
L 72.336856 126.04164 
L 76.697536 125.918408 
L 81.058217 125.826093 
L 85.418897 125.759834 
L 89.779577 125.811049 
L 94.140258 125.876002 
L 98.500938 125.93017 
L 102.861618 125.97084 
L 107.222299 126.058382 
L 111.582979 126.174802 
L 115.94366 126.308847 
L 120.30434 126.380051 
L 124.66502 126.415291 
L 129.025701 126.430379 
L 133.386381 126.469192 
L 137.747061 126.509988 
L 142.107742 126.564778 
L 146.468422 126.606639 
L 150.829102 126.626865 
L 155.189783 126.639192 
L 159.550463 126.665412 
L 163.911144 126.698104 
L 168.271824 126.73461 
L 172.632504 126.755563 
L 176.993185 126.817234 
L 181.353865 126.857049 
L 185.714545 126.894419 
L 190.075226 126.944169 
L 194.435906 127.041748 
L 198.796586 127.201587 
L 203.157267 127.369635 
L 207.517947 127.463838 
L 211.878628 127.535986 
L 216.239308 127.59731 
L 220.599988 127.62739 
L 224.960669 127.58839 
L 229.321349 127.506871 
L 233.682029 127.423329 
L 238.04271 127.297912 
L 242.40339 127.137949 
L 246.76407 127.029455 
L 251.124751 126.957776 
L 255.485431 126.870684 
L 259.846112 126.774527 
L 264.206792 126.647239 
L 268.567472 126.571589 
L 272.928153 126.610903 
L 277.288833 126.611466 
L 281.649513 126.590009 
L 286.010194 126.621742 
L 290.370874 126.646011 
L 294.731555 126.665941 
L 299.092235 126.753257 
L 303.452915 126.753674 
L 307.813596 126.774191 
L 312.174276 126.833617 
L 316.534956 127.019077 
L 320.895637 127.218715 
L 325.256317 127.324856 
L 329.616997 127.264844 
L 333.977678 127.236056 
L 338.338358 127.204985 
L 342.699039 127.144287 
L 347.059719 126.906918 
L 351.420399 126.68883 
L 355.78108 126.570793 
L 360.14176 126.596505 
L 364.50244 126.655599 
L 368.863121 126.741132 
L 373.223801 126.789109 
L 377.584481 126.815208 
L 381.945162 126.816182 
L 386.305842 126.664384 
L 390.666523 126.381808 
L 395.027203 126.114392 
L 399.387883 125.832338 
L 403.748564 125.523283 
L 408.109244 125.316182 
L 412.469924 125.060723 
L 416.830605 124.985866 
L 421.191285 125.01035 
L 425.551965 125.044682 
L 429.912646 125.229725 
L 434.273326 125.473454 
L 438.634007 125.507836 
L 442.994687 125.611479 
L 447.355367 125.724472 
L 451.716048 125.871239 
L 456.076728 125.944344 
L 460.437408 125.857112 
L 464.798089 125.792883 
L 469.158769 125.840839 
L 473.519449 125.865915 
" clip-path="url(#p6361c2bad5)" style="fill: none; stroke: #cc3333; stroke-width: 1.5; stroke-linecap: square"/>
   </g>
   <g id="legend_1">
    <g id="patch_99">
     <path d="M 410.585313 67.013281 
L 490.115312 67.013281 
Q 491.715312 67.013281 491.715312 65.413281 
L 491.715312 30.758281 
Q 491.715312 29.158281 490.115312 29.158281 
L 410.585313 29.158281 
Q 408.985313 29.158281 408.985313 30.758281 
L 408.985313 65.413281 
Q 408.985313 67.013281 410.585313 67.013281 
z
" style="fill: #ffffff; opacity: 0.9; stroke: #cccccc; stroke-linejoin: miter"/>
    </g>
    <g id="line2d_25">
     <path d="M 412.185313 35.637031 
L 420.185313 35.637031 
L 428.185313 35.637031 
" style="fill: none; stroke: #cc3333; stroke-width: 1.5; stroke-linecap: square"/>
    </g>
    <g id="text_14">
     <!-- 7d avg -->
     <g transform="translate(434.585312 38.437031) scale(0.08 -0.08)">
      <defs>
       <path id="DejaVuSerif-76" d="M 1581 0 
L 359 2988 
L -19 2988 
L -19 3322 
L 1509 3322 
L 1509 2988 
L 978 2988 
L 1913 703 
L 2847 2988 
L 2350 2988 
L 2350 3322 
L 3597 3322 
L 3597 2988 
L 3225 2988 
L 2003 0 
L 1581 0 
z
" transform="scale(0.015625)"/>
      </defs>
      <use xlink:href="#DejaVuSerif-37"/>
      <use xlink:href="#DejaVuSerif-64" transform="translate(63.623047 0)"/>
      <use xlink:href="#DejaVuSerif-20" transform="translate(127.636719 0)"/>
      <use xlink:href="#DejaVuSerif-61" transform="translate(159.423828 0)"/>
      <use xlink:href="#DejaVuSerif-76" transform="translate(219.042969 0)"/>
      <use xlink:href="#DejaVuSerif-67" transform="translate(275.537109 0)"/>
     </g>
    </g>
    <g id="line2d_26">
     <path d="M 412.185313 47.493281 
L 420.185313 47.493281 
L 428.185313 47.493281 
" style="fill: none; stroke-dasharray: 3.7,1.6; stroke-dashoffset: 0; stroke: #999999"/>
    </g>
    <g id="text_15">
     <!-- Max capacity -->
     <g transform="translate(434.585312 50.293281) scale(0.08 -0.08)">
      <defs>
       <path id="DejaVuSerif-78" d="M 1863 2028 
L 2559 2988 
L 2113 2988 
L 2113 3322 
L 3391 3322 
L 3391 2988 
L 2950 2988 
L 2059 1759 
L 3097 331 
L 3531 331 
L 3531 0 
L 1997 0 
L 1997 331 
L 2419 331 
L 1697 1325 
L 972 331 
L 1403 331 
L 1403 0 
L 141 0 
L 141 331 
L 581 331 
L 1497 1594 
L 488 2988 
L 78 2988 
L 78 3322 
L 1563 3322 
L 1563 2988 
L 1166 2988 
L 1863 2028 
z
" transform="scale(0.015625)"/>
       <path id="DejaVuSerif-79" d="M 1381 -609 
L 1600 -56 
L 359 2988 
L -19 2988 
L -19 3322 
L 1509 3322 
L 1509 2988 
L 978 2988 
L 1913 703 
L 2847 2988 
L 2350 2988 
L 2350 3322 
L 3597 3322 
L 3597 2988 
L 3225 2988 
L 1703 -750 
Q 1547 -1138 1356 -1280 
Q 1166 -1422 819 -1422 
Q 672 -1422 517 -1397 
Q 363 -1372 206 -1325 
L 206 -691 
L 500 -691 
Q 519 -903 608 -995 
Q 697 -1088 884 -1088 
Q 1056 -1088 1161 -992 
Q 1266 -897 1381 -609 
z
" transform="scale(0.015625)"/>
      </defs>
      <use xlink:href="#DejaVuSerif-4d"/>
      <use xlink:href="#DejaVuSerif-61" transform="translate(102.392578 0)"/>
      <use xlink:href="#DejaVuSerif-78" transform="translate(162.011719 0)"/>
      <use xlink:href="#DejaVuSerif-20" transform="translate(218.408203 0)"/>
      <use xlink:href="#DejaVuSerif-63" transform="translate(250.195312 0)"/>
      <use xlink:href="#DejaVuSerif-61" transform="translate(306.201172 0)"/>
      <use xlink:href="#DejaVuSerif-70" transform="translate(365.820312 0)"/>
      <use xlink:href="#DejaVuSerif-61" transform="translate(429.833984 0)"/>
      <use xlink:href="#DejaVuSerif-63" transform="translate(489.453125 0)"/>
      <use xlink:href="#DejaVuSerif-69" transform="translate(545.458984 0)"/>
      <use xlink:href="#DejaVuSerif-74" transform="translate(577.441406 0)"/>
      <use xlink:href="#DejaVuSerif-79" transform="translate(617.626953 0)"/>
     </g>
    </g>
    <g id="patch_100">
     <path d="M 412.185313 62.149531 
L 428.185313 62.149531 
L 428.185313 56.549531 
L 412.185313 56.549531 
z
" style="fill: #3366cc; opacity: 0.7"/>
    </g>
    <g id="text_16">
     <!-- Actual -->
     <g transform="translate(434.585312 62.149531) scale(0.08 -0.08)">
      <defs>
       <path id="DejaVuSerif-41" d="M 1281 1691 
L 2994 1691 
L 2138 3909 
L 1281 1691 
z
M -38 0 
L -38 331 
L 372 331 
L 2034 4666 
L 2559 4666 
L 4225 331 
L 4684 331 
L 4684 0 
L 2988 0 
L 2988 331 
L 3506 331 
L 3116 1356 
L 1153 1356 
L 763 331 
L 1275 331 
L 1275 0 
L -38 0 
z
" transform="scale(0.015625)"/>
      </defs>
      <use xlink:href="#DejaVuSerif-41"/>
      <use xlink:href="#DejaVuSerif-63" transform="translate(72.216797 0)"/>
      <use xlink:href="#DejaVuSerif-74" transform="translate(128.222656 0)"/>
      <use xlink:href="#DejaVuSerif-75" transform="translate(168.408203 0)"/>
      <use xlink:href="#DejaVuSerif-61" transform="translate(232.8125 0)"/>
      <use xlink:href="#DejaVuSerif-6c" transform="translate(292.431641 0)"/>
     </g>
    </g>
   </g>
  </g>
 </g>
 <defs>
  <clipPath id="p6361c2bad5">
   <rect x="45.780313" y="25.158281" width="449.935" height="134.299829"/>
  </clipPath>
 </defs>
</svg>
