<?xml version="1.0" encoding="utf-8" standalone="no"?>
<!DOCTYPE svg PUBLIC "-//W3C//DTD SVG 1.1//EN"
  "http://www.w3.org/Graphics/SVG/1.1/DTD/svg11.dtd">
<svg xmlns:xlink="http://www.w3.org/1999/xlink" width="505.93875pt" height="203.613966pt" viewBox="0 0 505.93875 203.613966" xmlns="http://www.w3.org/2000/svg" version="1.1">
 <metadata>
  <rdf:RDF xmlns:dc="http://purl.org/dc/elements/1.1/" xmlns:cc="http://creativecommons.org/ns#" xmlns:rdf="http://www.w3.org/1999/02/22-rdf-syntax-ns#">
   <cc:Work>
    <dc:type rdf:resource="http://purl.org/dc/dcmitype/StillImage"/>
    <dc:date>2026-02-16T20:22:43.809984</dc:date>
    <dc:format>image/svg+xml</dc:format>
    <dc:creator>
     <cc:Agent>
      <dc:title>Matplotlib v3.9.4, https://matplotlib.org/</dc:title>
     </cc:Agent>
    </dc:creator>
   </cc:Work>
  </rdf:RDF>
 </metadata>
 <defs>
  <style type="text/css">*{stroke-linejoin: round; stroke-linecap: butt}</style>
 </defs>
 <g id="figure_1">
  <g id="patch_1">
   <path d="M 0 203.613966 
L 505.93875 203.613966 
L 505.93875 0 
L 0 0 
z
" style="fill: #ffffff"/>
  </g>
  <g id="axes_1">
   <g id="patch_2">
    <path d="M 45.780313 159.843139 
L 495.13875 159.843139 
L 495.13875 25.158281 
L 45.780313 25.158281 
z
" style="fill: #ffffff"/>
   </g>
   <g id="matplotlib.axis_1">
    <g id="xtick_1">
     <g id="line2d_1">
      <path d="M 137.629212 159.843139 
L 137.629212 25.158281 
" clip-path="url(#p8fe6dbfc94)" style="fill: none; stroke: #b0b0b0; stroke-opacity: 0.25; stroke-width: 0.5; stroke-linecap: square"/>
     </g>
     <g id="line2d_2">
      <defs>
       <path id="m9a1534f713" d="M 0 0 
L 0 3.5 
" style="stroke: #000000; stroke-width: 0.8"/>
      </defs>
      <g>
       <use xlink:href="#m9a1534f713" x="137.629212" y="159.843139" style="stroke: #000000; stroke-width: 0.8"/>
      </g>
     </g>
     <g id="text_1">
      <!-- Dec 2025 -->
      <g transform="translate(103.428296 191.373116) rotate(-30) scale(0.08 -0.08)">
       <defs>
        <path id="DejaVuSerif-44" d="M 1581 331 
L 2163 331 
Q 3072 331 3558 850 
Q 4044 1369 4044 2338 
Q 4044 3306 3559 3818 
Q 3075 4331 2163 4331 
L 1581 4331 
L 1581 331 
z
M 353 0 
L 353 331 
L 947 331 
L 947 4331 
L 353 4331 
L 353 4666 
L 2209 4666 
Q 3416 4666 4089 4050 
Q 4763 3434 4763 2338 
Q 4763 1238 4088 619 
Q 3413 0 2209 0 
L 353 0 
z
" transform="scale(0.015625)"/>
        <path id="DejaVuSerif-65" d="M 3469 1600 
L 991 1600 
L 991 1575 
Q 991 903 1244 561 
Q 1497 219 1991 219 
Q 2369 219 2611 417 
Q 2853 616 2950 1006 
L 3413 1006 
Q 3275 459 2904 184 
Q 2534 -91 1931 -91 
Q 1203 -91 761 389 
Q 319 869 319 1663 
Q 319 2450 753 2931 
Q 1188 3413 1894 3413 
Q 2647 3413 3050 2948 
Q 3453 2484 3469 1600 
z
M 2791 1931 
Q 2772 2513 2545 2808 
Q 2319 3103 1894 3103 
Q 1497 3103 1269 2806 
Q 1041 2509 991 1931 
L 2791 1931 
z
" transform="scale(0.015625)"/>
        <path id="DejaVuSerif-63" d="M 3291 997 
Q 3169 466 2822 187 
Q 2475 -91 1925 -91 
Q 1200 -91 759 389 
Q 319 869 319 1663 
Q 319 2459 759 2936 
Q 1200 3413 1925 3413 
Q 2241 3413 2553 3339 
Q 2866 3266 3181 3116 
L 3181 2266 
L 2847 2266 
Q 2781 2703 2561 2903 
Q 2341 3103 1931 3103 
Q 1466 3103 1228 2742 
Q 991 2381 991 1663 
Q 991 944 1227 581 
Q 1463 219 1931 219 
Q 2303 219 2525 412 
Q 2747 606 2828 997 
L 3291 997 
z
" transform="scale(0.015625)"/>
        <path id="DejaVuSerif-20" transform="scale(0.015625)"/>
        <path id="DejaVuSerif-32" d="M 819 3553 
L 469 3553 
L 469 4384 
Q 803 4563 1142 4656 
Q 1481 4750 1806 4750 
Q 2534 4750 2956 4397 
Q 3378 4044 3378 3438 
Q 3378 2753 2422 1800 
Q 2347 1728 2309 1691 
L 1131 513 
L 3078 513 
L 3078 1088 
L 3444 1088 
L 3444 0 
L 434 0 
L 434 341 
L 1850 1753 
Q 2319 2222 2519 2614 
Q 2719 3006 2719 3438 
Q 2719 3909 2473 4175 
Q 2228 4441 1797 4441 
Q 1350 4441 1106 4219 
Q 863 3997 819 3553 
z
" transform="scale(0.015625)"/>
        <path id="DejaVuSerif-30" d="M 2034 219 
Q 2513 219 2750 744 
Q 2988 1269 2988 2328 
Q 2988 3391 2750 3916 
Q 2513 4441 2034 4441 
Q 1556 4441 1318 3916 
Q 1081 3391 1081 2328 
Q 1081 1269 1318 744 
Q 1556 219 2034 219 
z
M 2034 -91 
Q 1275 -91 848 546 
Q 422 1184 422 2328 
Q 422 3475 848 4112 
Q 1275 4750 2034 4750 
Q 2797 4750 3222 4112 
Q 3647 3475 3647 2328 
Q 3647 1184 3222 546 
Q 2797 -91 2034 -91 
z
" transform="scale(0.015625)"/>
        <path id="DejaVuSerif-35" d="M 3219 4666 
L 3219 4153 
L 1081 4153 
L 1081 2816 
Q 1244 2928 1461 2984 
Q 1678 3041 1947 3041 
Q 2703 3041 3140 2622 
Q 3578 2203 3578 1478 
Q 3578 738 3136 323 
Q 2694 -91 1894 -91 
Q 1572 -91 1234 -12 
Q 897 66 544 225 
L 544 1131 
L 897 1131 
Q 925 688 1179 453 
Q 1434 219 1894 219 
Q 2388 219 2653 544 
Q 2919 869 2919 1478 
Q 2919 2084 2655 2407 
Q 2391 2731 1894 2731 
Q 1613 2731 1398 2631 
Q 1184 2531 1019 2322 
L 750 2322 
L 750 4666 
L 3219 4666 
z
" transform="scale(0.015625)"/>
       </defs>
       <use xlink:href="#DejaVuSerif-44"/>
       <use xlink:href="#DejaVuSerif-65" x="80.175781"/>
       <use xlink:href="#DejaVuSerif-63" x="139.355469"/>
       <use xlink:href="#DejaVuSerif-20" x="195.361328"/>
       <use xlink:href="#DejaVuSerif-32" x="227.148438"/>
       <use xlink:href="#DejaVuSerif-30" x="290.771484"/>
       <use xlink:href="#DejaVuSerif-32" x="354.394531"/>
       <use xlink:href="#DejaVuSerif-35" x="418.017578"/>
      </g>
     </g>
    </g>
    <g id="xtick_2">
     <g id="line2d_3">
      <path d="M 272.637077 159.843139 
L 272.637077 25.158281 
" clip-path="url(#p8fe6dbfc94)" style="fill: none; stroke: #b0b0b0; stroke-opacity: 0.25; stroke-width: 0.5; stroke-linecap: square"/>
     </g>
     <g id="line2d_4">
      <g>
       <use xlink:href="#m9a1534f713" x="272.637077" y="159.843139" style="stroke: #000000; stroke-width: 0.8"/>
      </g>
     </g>
     <g id="text_2">
      <!-- Jan 2026 -->
      <g transform="translate(240.600142 190.123741) rotate(-30) scale(0.08 -0.08)">
       <defs>
        <path id="DejaVuSerif-4a" d="M -538 -1119 
L -538 -384 
L -181 -384 
Q -172 -694 -34 -845 
Q 103 -997 378 -997 
Q 750 -997 897 -762 
Q 1044 -528 1044 153 
L 1044 4331 
L 319 4331 
L 319 4666 
L 2272 4666 
L 2272 4331 
L 1678 4331 
L 1678 128 
Q 1678 -644 1368 -987 
Q 1059 -1331 372 -1331 
Q 150 -1331 -79 -1278 
Q -309 -1225 -538 -1119 
z
" transform="scale(0.015625)"/>
        <path id="DejaVuSerif-61" d="M 2547 1044 
L 2547 1747 
L 1806 1747 
Q 1378 1747 1168 1562 
Q 959 1378 959 997 
Q 959 650 1171 447 
Q 1384 244 1747 244 
Q 2106 244 2326 466 
Q 2547 688 2547 1044 
z
M 3122 2075 
L 3122 331 
L 3634 331 
L 3634 0 
L 2547 0 
L 2547 359 
Q 2356 128 2106 18 
Q 1856 -91 1522 -91 
Q 969 -91 644 203 
Q 319 497 319 997 
Q 319 1513 691 1797 
Q 1063 2081 1741 2081 
L 2547 2081 
L 2547 2309 
Q 2547 2688 2317 2895 
Q 2088 3103 1672 3103 
Q 1328 3103 1125 2947 
Q 922 2791 872 2484 
L 575 2484 
L 575 3156 
Q 875 3284 1158 3348 
Q 1441 3413 1709 3413 
Q 2400 3413 2761 3070 
Q 3122 2728 3122 2075 
z
" transform="scale(0.015625)"/>
        <path id="DejaVuSerif-6e" d="M 263 0 
L 263 331 
L 781 331 
L 781 2988 
L 231 2988 
L 231 3322 
L 1356 3322 
L 1356 2731 
Q 1516 3069 1770 3241 
Q 2025 3413 2363 3413 
Q 2913 3413 3172 3097 
Q 3431 2781 3431 2113 
L 3431 331 
L 3944 331 
L 3944 0 
L 2356 0 
L 2356 331 
L 2853 331 
L 2853 1931 
Q 2853 2541 2703 2767 
Q 2553 2994 2175 2994 
Q 1775 2994 1565 2701 
Q 1356 2409 1356 1850 
L 1356 331 
L 1856 331 
L 1856 0 
L 263 0 
z
" transform="scale(0.015625)"/>
        <path id="DejaVuSerif-36" d="M 2094 219 
Q 2534 219 2771 542 
Q 3009 866 3009 1472 
Q 3009 2078 2771 2401 
Q 2534 2725 2094 2725 
Q 1647 2725 1412 2412 
Q 1178 2100 1178 1509 
Q 1178 888 1415 553 
Q 1653 219 2094 219 
z
M 1075 2569 
Q 1288 2803 1556 2918 
Q 1825 3034 2163 3034 
Q 2859 3034 3264 2615 
Q 3669 2197 3669 1472 
Q 3669 763 3233 336 
Q 2797 -91 2069 -91 
Q 1278 -91 853 498 
Q 428 1088 428 2181 
Q 428 3406 931 4078 
Q 1434 4750 2350 4750 
Q 2597 4750 2869 4703 
Q 3141 4656 3425 4563 
L 3425 3794 
L 3072 3794 
Q 3034 4109 2831 4275 
Q 2628 4441 2284 4441 
Q 1678 4441 1381 3981 
Q 1084 3522 1075 2569 
z
" transform="scale(0.015625)"/>
       </defs>
       <use xlink:href="#DejaVuSerif-4a"/>
       <use xlink:href="#DejaVuSerif-61" x="40.087891"/>
       <use xlink:href="#DejaVuSerif-6e" x="99.707031"/>
       <use xlink:href="#DejaVuSerif-20" x="164.111328"/>
       <use xlink:href="#DejaVuSerif-32" x="195.898438"/>
       <use xlink:href="#DejaVuSerif-30" x="259.521484"/>
       <use xlink:href="#DejaVuSerif-32" x="323.144531"/>
       <use xlink:href="#DejaVuSerif-36" x="386.767578"/>
      </g>
     </g>
    </g>
    <g id="xtick_3">
     <g id="line2d_5">
      <path d="M 407.644943 159.843139 
L 407.644943 25.158281 
" clip-path="url(#p8fe6dbfc94)" style="fill: none; stroke: #b0b0b0; stroke-opacity: 0.25; stroke-width: 0.5; stroke-linecap: square"/>
     </g>
     <g id="line2d_6">
      <g>
       <use xlink:href="#m9a1534f713" x="407.644943" y="159.843139" style="stroke: #000000; stroke-width: 0.8"/>
      </g>
     </g>
     <g id="text_3">
      <!-- Feb 2026 -->
      <g transform="translate(374.016686 191.042491) rotate(-30) scale(0.08 -0.08)">
       <defs>
        <path id="DejaVuSerif-46" d="M 353 0 
L 353 331 
L 947 331 
L 947 4331 
L 353 4331 
L 353 4666 
L 4172 4666 
L 4172 3628 
L 3788 3628 
L 3788 4281 
L 1581 4281 
L 1581 2719 
L 3175 2719 
L 3175 3303 
L 3559 3303 
L 3559 1753 
L 3175 1753 
L 3175 2338 
L 1581 2338 
L 1581 331 
L 2328 331 
L 2328 0 
L 353 0 
z
" transform="scale(0.015625)"/>
        <path id="DejaVuSerif-62" d="M 738 331 
L 738 4531 
L 184 4531 
L 184 4863 
L 1313 4863 
L 1313 2803 
Q 1481 3116 1742 3264 
Q 2003 3413 2388 3413 
Q 3000 3413 3387 2928 
Q 3775 2444 3775 1663 
Q 3775 881 3387 395 
Q 3000 -91 2388 -91 
Q 2003 -91 1742 57 
Q 1481 206 1313 519 
L 1313 0 
L 184 0 
L 184 331 
L 738 331 
z
M 1313 1497 
Q 1313 897 1542 583 
Q 1772 269 2209 269 
Q 2650 269 2876 622 
Q 3103 975 3103 1663 
Q 3103 2353 2876 2703 
Q 2650 3053 2209 3053 
Q 1772 3053 1542 2737 
Q 1313 2422 1313 1825 
L 1313 1497 
z
" transform="scale(0.015625)"/>
       </defs>
       <use xlink:href="#DejaVuSerif-46"/>
       <use xlink:href="#DejaVuSerif-65" x="63.884766"/>
       <use xlink:href="#DejaVuSerif-62" x="123.064453"/>
       <use xlink:href="#DejaVuSerif-20" x="187.078125"/>
       <use xlink:href="#DejaVuSerif-32" x="218.865234"/>
       <use xlink:href="#DejaVuSerif-30" x="282.488281"/>
       <use xlink:href="#DejaVuSerif-32" x="346.111328"/>
       <use xlink:href="#DejaVuSerif-36" x="409.734375"/>
      </g>
     </g>
    </g>
   </g>
   <g id="matplotlib.axis_2">
    <g id="ytick_1">
     <g id="line2d_7">
      <path d="M 45.780313 159.843139 
L 495.13875 159.843139 
" clip-path="url(#p8fe6dbfc94)" style="fill: none; stroke: #b0b0b0; stroke-opacity: 0.25; stroke-width: 0.5; stroke-linecap: square"/>
     </g>
     <g id="line2d_8">
      <defs>
       <path id="m6d6c7e7d98" d="M 0 0 
L -3.5 0 
" style="stroke: #000000; stroke-width: 0.8"/>
      </defs>
      <g>
       <use xlink:href="#m6d6c7e7d98" x="45.780313" y="159.843139" style="stroke: #000000; stroke-width: 0.8"/>
      </g>
     </g>
     <g id="text_4">
      <!-- 0 -->
      <g transform="translate(33.690313 162.882514) scale(0.08 -0.08)">
       <use xlink:href="#DejaVuSerif-30"/>
      </g>
     </g>
    </g>
    <g id="ytick_2">
     <g id="line2d_9">
      <path d="M 45.780313 140.602445 
L 495.13875 140.602445 
" clip-path="url(#p8fe6dbfc94)" style="fill: none; stroke: #b0b0b0; stroke-opacity: 0.25; stroke-width: 0.5; stroke-linecap: square"/>
     </g>
     <g id="line2d_10">
      <g>
       <use xlink:href="#m6d6c7e7d98" x="45.780313" y="140.602445" style="stroke: #000000; stroke-width: 0.8"/>
      </g>
     </g>
     <g id="text_5">
      <!-- 25 -->
      <g transform="translate(28.600313 143.64182) scale(0.08 -0.08)">
       <use xlink:href="#DejaVuSerif-32"/>
       <use xlink:href="#DejaVuSerif-35" x="63.623047"/>
      </g>
     </g>
    </g>
    <g id="ytick_3">
     <g id="line2d_11">
      <path d="M 45.780313 121.361751 
L 495.13875 121.361751 
" clip-path="url(#p8fe6dbfc94)" style="fill: none; stroke: #b0b0b0; stroke-opacity: 0.25; stroke-width: 0.5; stroke-linecap: square"/>
     </g>
     <g id="line2d_12">
      <g>
       <use xlink:href="#m6d6c7e7d98" x="45.780313" y="121.361751" style="stroke: #000000; stroke-width: 0.8"/>
      </g>
     </g>
     <g id="text_6">
      <!-- 50 -->
      <g transform="translate(28.600313 124.401126) scale(0.08 -0.08)">
       <use xlink:href="#DejaVuSerif-35"/>
       <use xlink:href="#DejaVuSerif-30" x="63.623047"/>
      </g>
     </g>
    </g>
    <g id="ytick_4">
     <g id="line2d_13">
      <path d="M 45.780313 102.121057 
L 495.13875 102.121057 
" clip-path="url(#p8fe6dbfc94)" style="fill: none; stroke: #b0b0b0; stroke-opacity: 0.25; stroke-width: 0.5; stroke-linecap: square"/>
     </g>
     <g id="line2d_14">
      <g>
       <use xlink:href="#m6d6c7e7d98" x="45.780313" y="102.121057" style="stroke: #000000; stroke-width: 0.8"/>
      </g>
     </g>
     <g id="text_7">
      <!-- 75 -->
      <g transform="translate(28.600313 105.160432) scale(0.08 -0.08)">
       <defs>
        <path id="DejaVuSerif-37" d="M 3609 4347 
L 1784 0 
L 1319 0 
L 3059 4153 
L 903 4153 
L 903 3578 
L 538 3578 
L 538 4666 
L 3609 4666 
L 3609 4347 
z
" transform="scale(0.015625)"/>
       </defs>
       <use xlink:href="#DejaVuSerif-37"/>
       <use xlink:href="#DejaVuSerif-35" x="63.623047"/>
      </g>
     </g>
    </g>
    <g id="ytick_5">
     <g id="line2d_15">
      <path d="M 45.780313 82.880363 
L 495.13875 82.880363 
" clip-path="url(#p8fe6dbfc94)" style="fill: none; stroke: #b0b0b0; stroke-opacity: 0.25; stroke-width: 0.5; stroke-linecap: square"/>
     </g>
     <g id="line2d_16">
      <g>
       <use xlink:href="#m6d6c7e7d98" x="45.780313" y="82.880363" style="stroke: #000000; stroke-width: 0.8"/>
      </g>
     </g>
     <g id="text_8">
      <!-- 100 -->
      <g transform="translate(23.510313 85.919738) scale(0.08 -0.08)">
       <defs>
        <path id="DejaVuSerif-31" d="M 909 0 
L 909 331 
L 1722 331 
L 1722 4213 
L 781 3603 
L 781 4013 
L 1919 4750 
L 2350 4750 
L 2350 331 
L 3163 331 
L 3163 0 
L 909 0 
z
" transform="scale(0.015625)"/>
       </defs>
       <use xlink:href="#DejaVuSerif-31"/>
       <use xlink:href="#DejaVuSerif-30" x="63.623047"/>
       <use xlink:href="#DejaVuSerif-30" x="127.246094"/>
      </g>
     </g>
    </g>
    <g id="ytick_6">
     <g id="line2d_17">
      <path d="M 45.780313 63.639669 
L 495.13875 63.639669 
" clip-path="url(#p8fe6dbfc94)" style="fill: none; stroke: #b0b0b0; stroke-opacity: 0.25; stroke-width: 0.5; stroke-linecap: square"/>
     </g>
     <g id="line2d_18">
      <g>
       <use xlink:href="#m6d6c7e7d98" x="45.780313" y="63.639669" style="stroke: #000000; stroke-width: 0.8"/>
      </g>
     </g>
     <g id="text_9">
      <!-- 125 -->
      <g transform="translate(23.510313 66.679044) scale(0.08 -0.08)">
       <use xlink:href="#DejaVuSerif-31"/>
       <use xlink:href="#DejaVuSerif-32" x="63.623047"/>
       <use xlink:href="#DejaVuSerif-35" x="127.246094"/>
      </g>
     </g>
    </g>
    <g id="ytick_7">
     <g id="line2d_19">
      <path d="M 45.780313 44.398975 
L 495.13875 44.398975 
" clip-path="url(#p8fe6dbfc94)" style="fill: none; stroke: #b0b0b0; stroke-opacity: 0.25; stroke-width: 0.5; stroke-linecap: square"/>
     </g>
     <g id="line2d_20">
      <g>
       <use xlink:href="#m6d6c7e7d98" x="45.780313" y="44.398975" style="stroke: #000000; stroke-width: 0.8"/>
      </g>
     </g>
     <g id="text_10">
      <!-- 150 -->
      <g transform="translate(23.510313 47.43835) scale(0.08 -0.08)">
       <use xlink:href="#DejaVuSerif-31"/>
       <use xlink:href="#DejaVuSerif-35" x="63.623047"/>
       <use xlink:href="#DejaVuSerif-30" x="127.246094"/>
      </g>
     </g>
    </g>
    <g id="ytick_8">
     <g id="line2d_21">
      <path d="M 45.780313 25.158281 
L 495.13875 25.158281 
" clip-path="url(#p8fe6dbfc94)" style="fill: none; stroke: #b0b0b0; stroke-opacity: 0.25; stroke-width: 0.5; stroke-linecap: square"/>
     </g>
     <g id="line2d_22">
      <g>
       <use xlink:href="#m6d6c7e7d98" x="45.780313" y="25.158281" style="stroke: #000000; stroke-width: 0.8"/>
      </g>
     </g>
     <g id="text_11">
      <!-- 175 -->
      <g transform="translate(23.510313 28.197656) scale(0.08 -0.08)">
       <use xlink:href="#DejaVuSerif-31"/>
       <use xlink:href="#DejaVuSerif-37" x="63.623047"/>
       <use xlink:href="#DejaVuSerif-35" x="127.246094"/>
      </g>
     </g>
    </g>
    <g id="text_12">
     <!-- MiB/s -->
     <g transform="translate(17.638594 105.679382) rotate(-90) scale(0.09 -0.09)">
      <defs>
       <path id="DejaVuSerif-4d" d="M 353 0 
L 353 331 
L 947 331 
L 947 4331 
L 319 4331 
L 319 4666 
L 1678 4666 
L 3316 1344 
L 4953 4666 
L 6228 4666 
L 6228 4331 
L 5606 4331 
L 5606 331 
L 6203 331 
L 6203 0 
L 4378 0 
L 4378 331 
L 4972 331 
L 4972 3938 
L 3372 684 
L 2931 684 
L 1331 3938 
L 1331 331 
L 1925 331 
L 1925 0 
L 353 0 
z
" transform="scale(0.015625)"/>
       <path id="DejaVuSerif-69" d="M 622 4353 
Q 622 4497 726 4603 
Q 831 4709 978 4709 
Q 1122 4709 1226 4603 
Q 1331 4497 1331 4353 
Q 1331 4206 1228 4103 
Q 1125 4000 978 4000 
Q 831 4000 726 4103 
Q 622 4206 622 4353 
z
M 1356 331 
L 1900 331 
L 1900 0 
L 231 0 
L 231 331 
L 781 331 
L 781 2988 
L 231 2988 
L 231 3322 
L 1356 3322 
L 1356 331 
z
" transform="scale(0.015625)"/>
       <path id="DejaVuSerif-42" d="M 1581 331 
L 2516 331 
Q 3078 331 3337 575 
Q 3597 819 3597 1350 
Q 3597 1878 3339 2120 
Q 3081 2363 2516 2363 
L 1581 2363 
L 1581 331 
z
M 1581 2694 
L 2375 2694 
Q 2888 2694 3123 2891 
Q 3359 3088 3359 3513 
Q 3359 3941 3123 4136 
Q 2888 4331 2375 4331 
L 1581 4331 
L 1581 2694 
z
M 353 0 
L 353 331 
L 947 331 
L 947 4331 
L 353 4331 
L 353 4666 
L 2656 4666 
Q 3363 4666 3720 4377 
Q 4078 4088 4078 3513 
Q 4078 3097 3829 2850 
Q 3581 2603 3103 2547 
Q 3697 2472 4005 2167 
Q 4313 1863 4313 1350 
Q 4313 656 3875 328 
Q 3438 0 2509 0 
L 353 0 
z
" transform="scale(0.015625)"/>
       <path id="DejaVuSerif-2f" d="M 1656 4666 
L 2156 4666 
L 500 -594 
L 0 -594 
L 1656 4666 
z
" transform="scale(0.015625)"/>
       <path id="DejaVuSerif-73" d="M 359 184 
L 359 959 
L 691 959 
Q 703 588 923 403 
Q 1144 219 1575 219 
Q 1963 219 2166 364 
Q 2369 509 2369 788 
Q 2369 1006 2220 1140 
Q 2072 1275 1594 1428 
L 1178 1569 
Q 750 1706 558 1912 
Q 366 2119 366 2438 
Q 366 2894 700 3153 
Q 1034 3413 1625 3413 
Q 1888 3413 2178 3344 
Q 2469 3275 2778 3144 
L 2778 2419 
L 2447 2419 
Q 2434 2741 2221 2922 
Q 2009 3103 1644 3103 
Q 1281 3103 1095 2975 
Q 909 2847 909 2591 
Q 909 2381 1050 2254 
Q 1191 2128 1613 1997 
L 2069 1856 
Q 2541 1709 2748 1489 
Q 2956 1269 2956 922 
Q 2956 450 2595 179 
Q 2234 -91 1600 -91 
Q 1278 -91 972 -22 
Q 666 47 359 184 
z
" transform="scale(0.015625)"/>
      </defs>
      <use xlink:href="#DejaVuSerif-4d"/>
      <use xlink:href="#DejaVuSerif-69" x="102.392578"/>
      <use xlink:href="#DejaVuSerif-42" x="134.375"/>
      <use xlink:href="#DejaVuSerif-2f" x="207.861328"/>
      <use xlink:href="#DejaVuSerif-73" x="241.552734"/>
     </g>
    </g>
   </g>
   <g id="patch_3">
    <path d="M 66.205696 159.843139 
L 69.68977 159.843139 
L 69.68977 126.336196 
L 66.205696 126.336196 
z
" clip-path="url(#p8fe6dbfc94)" style="fill: #3366cc; opacity: 0.7"/>
   </g>
   <g id="patch_4">
    <path d="M 70.560788 159.843139 
L 74.044862 159.843139 
L 74.044862 126.325538 
L 70.560788 126.325538 
z
" clip-path="url(#p8fe6dbfc94)" style="fill: #3366cc; opacity: 0.7"/>
   </g>
   <g id="patch_5">
    <path d="M 74.915881 159.843139 
L 78.399955 159.843139 
L 78.399955 125.960109 
L 74.915881 125.960109 
z
" clip-path="url(#p8fe6dbfc94)" style="fill: #3366cc; opacity: 0.7"/>
   </g>
   <g id="patch_6">
    <path d="M 79.270973 159.843139 
L 82.755047 159.843139 
L 82.755047 125.836962 
L 79.270973 125.836962 
z
" clip-path="url(#p8fe6dbfc94)" style="fill: #3366cc; opacity: 0.7"/>
   </g>
   <g id="patch_7">
    <path d="M 83.626066 159.843139 
L 87.11014 159.843139 
L 87.11014 125.782459 
L 83.626066 125.782459 
z
" clip-path="url(#p8fe6dbfc94)" style="fill: #3366cc; opacity: 0.7"/>
   </g>
   <g id="patch_8">
    <path d="M 87.981158 159.843139 
L 91.465232 159.843139 
L 91.465232 126.356424 
L 87.981158 126.356424 
z
" clip-path="url(#p8fe6dbfc94)" style="fill: #3366cc; opacity: 0.7"/>
   </g>
   <g id="patch_9">
    <path d="M 92.336251 159.843139 
L 95.820325 159.843139 
L 95.820325 126.555585 
L 92.336251 126.555585 
z
" clip-path="url(#p8fe6dbfc94)" style="fill: #3366cc; opacity: 0.7"/>
   </g>
   <g id="patch_10">
    <path d="M 96.691343 159.843139 
L 100.175417 159.843139 
L 100.175417 126.716462 
L 96.691343 126.716462 
z
" clip-path="url(#p8fe6dbfc94)" style="fill: #3366cc; opacity: 0.7"/>
   </g>
   <g id="patch_11">
    <path d="M 101.046436 159.843139 
L 104.530509 159.843139 
L 104.530509 126.611041 
L 101.046436 126.611041 
z
" clip-path="url(#p8fe6dbfc94)" style="fill: #3366cc; opacity: 0.7"/>
   </g>
   <g id="patch_12">
    <path d="M 105.401528 159.843139 
L 108.885602 159.843139 
L 108.885602 126.574661 
L 105.401528 126.574661 
z
" clip-path="url(#p8fe6dbfc94)" style="fill: #3366cc; opacity: 0.7"/>
   </g>
   <g id="patch_13">
    <path d="M 109.75662 159.843139 
L 113.240694 159.843139 
L 113.240694 126.654237 
L 109.75662 126.654237 
z
" clip-path="url(#p8fe6dbfc94)" style="fill: #3366cc; opacity: 0.7"/>
   </g>
   <g id="patch_14">
    <path d="M 114.111713 159.843139 
L 117.595787 159.843139 
L 117.595787 126.723469 
L 114.111713 126.723469 
z
" clip-path="url(#p8fe6dbfc94)" style="fill: #3366cc; opacity: 0.7"/>
   </g>
   <g id="patch_15">
    <path d="M 118.466805 159.843139 
L 121.950879 159.843139 
L 121.950879 126.856277 
L 118.466805 126.856277 
z
" clip-path="url(#p8fe6dbfc94)" style="fill: #3366cc; opacity: 0.7"/>
   </g>
   <g id="patch_16">
    <path d="M 122.821898 159.843139 
L 126.305972 159.843139 
L 126.305972 126.802976 
L 122.821898 126.802976 
z
" clip-path="url(#p8fe6dbfc94)" style="fill: #3366cc; opacity: 0.7"/>
   </g>
   <g id="patch_17">
    <path d="M 127.17699 159.843139 
L 130.661064 159.843139 
L 130.661064 126.822377 
L 127.17699 126.822377 
z
" clip-path="url(#p8fe6dbfc94)" style="fill: #3366cc; opacity: 0.7"/>
   </g>
   <g id="patch_18">
    <path d="M 131.532083 159.843139 
L 135.016157 159.843139 
L 135.016157 126.883515 
L 131.532083 126.883515 
z
" clip-path="url(#p8fe6dbfc94)" style="fill: #3366cc; opacity: 0.7"/>
   </g>
   <g id="patch_19">
    <path d="M 135.887175 159.843139 
L 139.371249 159.843139 
L 139.371249 126.861048 
L 135.887175 126.861048 
z
" clip-path="url(#p8fe6dbfc94)" style="fill: #3366cc; opacity: 0.7"/>
   </g>
   <g id="patch_20">
    <path d="M 140.242267 159.843139 
L 143.726341 159.843139 
L 143.726341 127.038865 
L 140.242267 127.038865 
z
" clip-path="url(#p8fe6dbfc94)" style="fill: #3366cc; opacity: 0.7"/>
   </g>
   <g id="patch_21">
    <path d="M 144.59736 159.843139 
L 148.081434 159.843139 
L 148.081434 127.017337 
L 144.59736 127.017337 
z
" clip-path="url(#p8fe6dbfc94)" style="fill: #3366cc; opacity: 0.7"/>
   </g>
   <g id="patch_22">
    <path d="M 148.952452 159.843139 
L 152.436526 159.843139 
L 152.436526 126.998263 
L 148.952452 126.998263 
z
" clip-path="url(#p8fe6dbfc94)" style="fill: #3366cc; opacity: 0.7"/>
   </g>
   <g id="patch_23">
    <path d="M 153.307545 159.843139 
L 156.791619 159.843139 
L 156.791619 126.889513 
L 153.307545 126.889513 
z
" clip-path="url(#p8fe6dbfc94)" style="fill: #3366cc; opacity: 0.7"/>
   </g>
   <g id="patch_24">
    <path d="M 157.662637 159.843139 
L 161.146711 159.843139 
L 161.146711 127.006444 
L 157.662637 127.006444 
z
" clip-path="url(#p8fe6dbfc94)" style="fill: #3366cc; opacity: 0.7"/>
   </g>
   <g id="patch_25">
    <path d="M 162.01773 159.843139 
L 165.501804 159.843139 
L 165.501804 127.113018 
L 162.01773 127.113018 
z
" clip-path="url(#p8fe6dbfc94)" style="fill: #3366cc; opacity: 0.7"/>
   </g>
   <g id="patch_26">
    <path d="M 166.372822 159.843139 
L 169.856896 159.843139 
L 169.856896 127.117319 
L 166.372822 127.117319 
z
" clip-path="url(#p8fe6dbfc94)" style="fill: #3366cc; opacity: 0.7"/>
   </g>
   <g id="patch_27">
    <path d="M 170.727914 159.843139 
L 174.211988 159.843139 
L 174.211988 127.185959 
L 170.727914 127.185959 
z
" clip-path="url(#p8fe6dbfc94)" style="fill: #3366cc; opacity: 0.7"/>
   </g>
   <g id="patch_28">
    <path d="M 175.083007 159.843139 
L 178.567081 159.843139 
L 178.567081 127.450272 
L 175.083007 127.450272 
z
" clip-path="url(#p8fe6dbfc94)" style="fill: #3366cc; opacity: 0.7"/>
   </g>
   <g id="patch_29">
    <path d="M 179.438099 159.843139 
L 182.922173 159.843139 
L 182.922173 127.277769 
L 179.438099 127.277769 
z
" clip-path="url(#p8fe6dbfc94)" style="fill: #3366cc; opacity: 0.7"/>
   </g>
   <g id="patch_30">
    <path d="M 183.793192 159.843139 
L 187.277266 159.843139 
L 187.277266 127.151855 
L 183.793192 127.151855 
z
" clip-path="url(#p8fe6dbfc94)" style="fill: #3366cc; opacity: 0.7"/>
   </g>
   <g id="patch_31">
    <path d="M 188.148284 159.843139 
L 191.632358 159.843139 
L 191.632358 127.355692 
L 188.148284 127.355692 
z
" clip-path="url(#p8fe6dbfc94)" style="fill: #3366cc; opacity: 0.7"/>
   </g>
   <g id="patch_32">
    <path d="M 192.503377 159.843139 
L 195.987451 159.843139 
L 195.987451 127.798027 
L 192.503377 127.798027 
z
" clip-path="url(#p8fe6dbfc94)" style="fill: #3366cc; opacity: 0.7"/>
   </g>
   <g id="patch_33">
    <path d="M 196.858469 159.843139 
L 200.342543 159.843139 
L 200.342543 128.2394 
L 196.858469 128.2394 
z
" clip-path="url(#p8fe6dbfc94)" style="fill: #3366cc; opacity: 0.7"/>
   </g>
   <g id="patch_34">
    <path d="M 201.213562 159.843139 
L 204.697635 159.843139 
L 204.697635 128.365665 
L 201.213562 128.365665 
z
" clip-path="url(#p8fe6dbfc94)" style="fill: #3366cc; opacity: 0.7"/>
   </g>
   <g id="patch_35">
    <path d="M 205.568654 159.843139 
L 209.052728 159.843139 
L 209.052728 128.111586 
L 205.568654 128.111586 
z
" clip-path="url(#p8fe6dbfc94)" style="fill: #3366cc; opacity: 0.7"/>
   </g>
   <g id="patch_36">
    <path d="M 209.923746 159.843139 
L 213.40782 159.843139 
L 213.40782 127.784254 
L 209.923746 127.784254 
z
" clip-path="url(#p8fe6dbfc94)" style="fill: #3366cc; opacity: 0.7"/>
   </g>
   <g id="patch_37">
    <path d="M 214.278839 159.843139 
L 217.762913 159.843139 
L 217.762913 127.582354 
L 214.278839 127.582354 
z
" clip-path="url(#p8fe6dbfc94)" style="fill: #3366cc; opacity: 0.7"/>
   </g>
   <g id="patch_38">
    <path d="M 218.633931 159.843139 
L 222.118005 159.843139 
L 222.118005 127.566853 
L 218.633931 127.566853 
z
" clip-path="url(#p8fe6dbfc94)" style="fill: #3366cc; opacity: 0.7"/>
   </g>
   <g id="patch_39">
    <path d="M 222.989024 159.843139 
L 226.473098 159.843139 
L 226.473098 127.524247 
L 222.989024 127.524247 
z
" clip-path="url(#p8fe6dbfc94)" style="fill: #3366cc; opacity: 0.7"/>
   </g>
   <g id="patch_40">
    <path d="M 227.344116 159.843139 
L 230.82819 159.843139 
L 230.82819 127.667127 
L 227.344116 127.667127 
z
" clip-path="url(#p8fe6dbfc94)" style="fill: #3366cc; opacity: 0.7"/>
   </g>
   <g id="patch_41">
    <path d="M 231.699209 159.843139 
L 235.183283 159.843139 
L 235.183283 127.779193 
L 231.699209 127.779193 
z
" clip-path="url(#p8fe6dbfc94)" style="fill: #3366cc; opacity: 0.7"/>
   </g>
   <g id="patch_42">
    <path d="M 236.054301 159.843139 
L 239.538375 159.843139 
L 239.538375 127.231154 
L 236.054301 127.231154 
z
" clip-path="url(#p8fe6dbfc94)" style="fill: #3366cc; opacity: 0.7"/>
   </g>
   <g id="patch_43">
    <path d="M 240.409393 159.843139 
L 243.893467 159.843139 
L 243.893467 126.661301 
L 240.409393 126.661301 
z
" clip-path="url(#p8fe6dbfc94)" style="fill: #3366cc; opacity: 0.7"/>
   </g>
   <g id="patch_44">
    <path d="M 244.764486 159.843139 
L 248.24856 159.843139 
L 248.24856 126.820718 
L 244.764486 126.820718 
z
" clip-path="url(#p8fe6dbfc94)" style="fill: #3366cc; opacity: 0.7"/>
   </g>
   <g id="patch_45">
    <path d="M 249.119578 159.843139 
L 252.603652 159.843139 
L 252.603652 127.063665 
L 249.119578 127.063665 
z
" clip-path="url(#p8fe6dbfc94)" style="fill: #3366cc; opacity: 0.7"/>
   </g>
   <g id="patch_46">
    <path d="M 253.474671 159.843139 
L 256.958745 159.843139 
L 256.958745 126.912852 
L 253.474671 126.912852 
z
" clip-path="url(#p8fe6dbfc94)" style="fill: #3366cc; opacity: 0.7"/>
   </g>
   <g id="patch_47">
    <path d="M 257.829763 159.843139 
L 261.313837 159.843139 
L 261.313837 126.992097 
L 257.829763 126.992097 
z
" clip-path="url(#p8fe6dbfc94)" style="fill: #3366cc; opacity: 0.7"/>
   </g>
   <g id="patch_48">
    <path d="M 262.184856 159.843139 
L 265.66893 159.843139 
L 265.66893 126.885627 
L 262.184856 126.885627 
z
" clip-path="url(#p8fe6dbfc94)" style="fill: #3366cc; opacity: 0.7"/>
   </g>
   <g id="patch_49">
    <path d="M 266.539948 159.843139 
L 270.024022 159.843139 
L 270.024022 126.700086 
L 266.539948 126.700086 
z
" clip-path="url(#p8fe6dbfc94)" style="fill: #3366cc; opacity: 0.7"/>
   </g>
   <g id="patch_50">
    <path d="M 270.89504 159.843139 
L 274.379114 159.843139 
L 274.379114 126.937288 
L 270.89504 126.937288 
z
" clip-path="url(#p8fe6dbfc94)" style="fill: #3366cc; opacity: 0.7"/>
   </g>
   <g id="patch_51">
    <path d="M 275.250133 159.843139 
L 278.734207 159.843139 
L 278.734207 126.82467 
L 275.250133 126.82467 
z
" clip-path="url(#p8fe6dbfc94)" style="fill: #3366cc; opacity: 0.7"/>
   </g>
   <g id="patch_52">
    <path d="M 279.605225 159.843139 
L 283.089299 159.843139 
L 283.089299 126.913035 
L 279.605225 126.913035 
z
" clip-path="url(#p8fe6dbfc94)" style="fill: #3366cc; opacity: 0.7"/>
   </g>
   <g id="patch_53">
    <path d="M 283.960318 159.843139 
L 287.444392 159.843139 
L 287.444392 127.135619 
L 283.960318 127.135619 
z
" clip-path="url(#p8fe6dbfc94)" style="fill: #3366cc; opacity: 0.7"/>
   </g>
   <g id="patch_54">
    <path d="M 288.31541 159.843139 
L 291.799484 159.843139 
L 291.799484 127.162464 
L 288.31541 127.162464 
z
" clip-path="url(#p8fe6dbfc94)" style="fill: #3366cc; opacity: 0.7"/>
   </g>
   <g id="patch_55">
    <path d="M 292.670503 159.843139 
L 296.154577 159.843139 
L 296.154577 127.025537 
L 292.670503 127.025537 
z
" clip-path="url(#p8fe6dbfc94)" style="fill: #3366cc; opacity: 0.7"/>
   </g>
   <g id="patch_56">
    <path d="M 297.025595 159.843139 
L 300.509669 159.843139 
L 300.509669 127.313055 
L 297.025595 127.313055 
z
" clip-path="url(#p8fe6dbfc94)" style="fill: #3366cc; opacity: 0.7"/>
   </g>
   <g id="patch_57">
    <path d="M 301.380688 159.843139 
L 304.864761 159.843139 
L 304.864761 126.940213 
L 301.380688 126.940213 
z
" clip-path="url(#p8fe6dbfc94)" style="fill: #3366cc; opacity: 0.7"/>
   </g>
   <g id="patch_58">
    <path d="M 305.73578 159.843139 
L 309.219854 159.843139 
L 309.219854 126.968697 
L 305.73578 126.968697 
z
" clip-path="url(#p8fe6dbfc94)" style="fill: #3366cc; opacity: 0.7"/>
   </g>
   <g id="patch_59">
    <path d="M 310.090872 159.843139 
L 313.574946 159.843139 
L 313.574946 127.330211 
L 310.090872 127.330211 
z
" clip-path="url(#p8fe6dbfc94)" style="fill: #3366cc; opacity: 0.7"/>
   </g>
   <g id="patch_60">
    <path d="M 314.445965 159.843139 
L 317.930039 159.843139 
L 317.930039 128.437561 
L 314.445965 128.437561 
z
" clip-path="url(#p8fe6dbfc94)" style="fill: #3366cc; opacity: 0.7"/>
   </g>
   <g id="patch_61">
    <path d="M 318.801057 159.843139 
L 322.285131 159.843139 
L 322.285131 128.563934 
L 318.801057 128.563934 
z
" clip-path="url(#p8fe6dbfc94)" style="fill: #3366cc; opacity: 0.7"/>
   </g>
   <g id="patch_62">
    <path d="M 323.15615 159.843139 
L 326.640224 159.843139 
L 326.640224 127.770659 
L 323.15615 127.770659 
z
" clip-path="url(#p8fe6dbfc94)" style="fill: #3366cc; opacity: 0.7"/>
   </g>
   <g id="patch_63">
    <path d="M 327.511242 159.843139 
L 330.995316 159.843139 
L 330.995316 126.891765 
L 327.511242 126.891765 
z
" clip-path="url(#p8fe6dbfc94)" style="fill: #3366cc; opacity: 0.7"/>
   </g>
   <g id="patch_64">
    <path d="M 331.866335 159.843139 
L 335.350409 159.843139 
L 335.350409 126.738119 
L 331.866335 126.738119 
z
" clip-path="url(#p8fe6dbfc94)" style="fill: #3366cc; opacity: 0.7"/>
   </g>
   <g id="patch_65">
    <path d="M 336.221427 159.843139 
L 339.705501 159.843139 
L 339.705501 126.750579 
L 336.221427 126.750579 
z
" clip-path="url(#p8fe6dbfc94)" style="fill: #3366cc; opacity: 0.7"/>
   </g>
   <g id="patch_66">
    <path d="M 340.576519 159.843139 
L 344.060593 159.843139 
L 344.060593 126.904108 
L 340.576519 126.904108 
z
" clip-path="url(#p8fe6dbfc94)" style="fill: #3366cc; opacity: 0.7"/>
   </g>
   <g id="patch_67">
    <path d="M 344.931612 159.843139 
L 348.415686 159.843139 
L 348.415686 126.771212 
L 344.931612 126.771212 
z
" clip-path="url(#p8fe6dbfc94)" style="fill: #3366cc; opacity: 0.7"/>
   </g>
   <g id="patch_68">
    <path d="M 349.286704 159.843139 
L 352.770778 159.843139 
L 352.770778 127.032938 
L 349.286704 127.032938 
z
" clip-path="url(#p8fe6dbfc94)" style="fill: #3366cc; opacity: 0.7"/>
   </g>
   <g id="patch_69">
    <path d="M 353.641797 159.843139 
L 357.125871 159.843139 
L 357.125871 126.942036 
L 353.641797 126.942036 
z
" clip-path="url(#p8fe6dbfc94)" style="fill: #3366cc; opacity: 0.7"/>
   </g>
   <g id="patch_70">
    <path d="M 357.996889 159.843139 
L 361.480963 159.843139 
L 361.480963 127.072262 
L 357.996889 127.072262 
z
" clip-path="url(#p8fe6dbfc94)" style="fill: #3366cc; opacity: 0.7"/>
   </g>
   <g id="patch_71">
    <path d="M 362.351982 159.843139 
L 365.836056 159.843139 
L 365.836056 127.152961 
L 362.351982 127.152961 
z
" clip-path="url(#p8fe6dbfc94)" style="fill: #3366cc; opacity: 0.7"/>
   </g>
   <g id="patch_72">
    <path d="M 366.707074 159.843139 
L 370.191148 159.843139 
L 370.191148 127.351027 
L 366.707074 127.351027 
z
" clip-path="url(#p8fe6dbfc94)" style="fill: #3366cc; opacity: 0.7"/>
   </g>
   <g id="patch_73">
    <path d="M 371.062167 159.843139 
L 374.54624 159.843139 
L 374.54624 127.240912 
L 371.062167 127.240912 
z
" clip-path="url(#p8fe6dbfc94)" style="fill: #3366cc; opacity: 0.7"/>
   </g>
   <g id="patch_74">
    <path d="M 375.417259 159.843139 
L 378.901333 159.843139 
L 378.901333 126.954426 
L 375.417259 126.954426 
z
" clip-path="url(#p8fe6dbfc94)" style="fill: #3366cc; opacity: 0.7"/>
   </g>
   <g id="patch_75">
    <path d="M 379.772351 159.843139 
L 383.256425 159.843139 
L 383.256425 127.039782 
L 379.772351 127.039782 
z
" clip-path="url(#p8fe6dbfc94)" style="fill: #3366cc; opacity: 0.7"/>
   </g>
   <g id="patch_76">
    <path d="M 384.127444 159.843139 
L 387.611518 159.843139 
L 387.611518 125.876401 
L 384.127444 125.876401 
z
" clip-path="url(#p8fe6dbfc94)" style="fill: #3366cc; opacity: 0.7"/>
   </g>
   <g id="patch_77">
    <path d="M 388.482536 159.843139 
L 391.96661 159.843139 
L 391.96661 125.088562 
L 388.482536 125.088562 
z
" clip-path="url(#p8fe6dbfc94)" style="fill: #3366cc; opacity: 0.7"/>
   </g>
   <g id="patch_78">
    <path d="M 392.837629 159.843139 
L 396.321703 159.843139 
L 396.321703 125.27568 
L 392.837629 125.27568 
z
" clip-path="url(#p8fe6dbfc94)" style="fill: #3366cc; opacity: 0.7"/>
   </g>
   <g id="patch_79">
    <path d="M 397.192721 159.843139 
L 400.676795 159.843139 
L 400.676795 125.370987 
L 397.192721 125.370987 
z
" clip-path="url(#p8fe6dbfc94)" style="fill: #3366cc; opacity: 0.7"/>
   </g>
   <g id="patch_80">
    <path d="M 401.547814 159.843139 
L 405.031888 159.843139 
L 405.031888 125.071327 
L 401.547814 125.071327 
z
" clip-path="url(#p8fe6dbfc94)" style="fill: #3366cc; opacity: 0.7"/>
   </g>
   <g id="patch_81">
    <path d="M 405.902906 159.843139 
L 409.38698 159.843139 
L 409.38698 125.500563 
L 405.902906 125.500563 
z
" clip-path="url(#p8fe6dbfc94)" style="fill: #3366cc; opacity: 0.7"/>
   </g>
   <g id="patch_82">
    <path d="M 410.257998 159.843139 
L 413.742072 159.843139 
L 413.742072 125.246437 
L 410.257998 125.246437 
z
" clip-path="url(#p8fe6dbfc94)" style="fill: #3366cc; opacity: 0.7"/>
   </g>
   <g id="patch_83">
    <path d="M 414.613091 159.843139 
L 418.097165 159.843139 
L 418.097165 125.3509 
L 414.613091 125.3509 
z
" clip-path="url(#p8fe6dbfc94)" style="fill: #3366cc; opacity: 0.7"/>
   </g>
   <g id="patch_84">
    <path d="M 418.968183 159.843139 
L 422.452257 159.843139 
L 422.452257 125.260447 
L 418.968183 125.260447 
z
" clip-path="url(#p8fe6dbfc94)" style="fill: #3366cc; opacity: 0.7"/>
   </g>
   <g id="patch_85">
    <path d="M 423.323276 159.843139 
L 426.80735 159.843139 
L 426.80735 125.51669 
L 423.323276 125.51669 
z
" clip-path="url(#p8fe6dbfc94)" style="fill: #3366cc; opacity: 0.7"/>
   </g>
   <g id="patch_86">
    <path d="M 427.678368 159.843139 
L 431.162442 159.843139 
L 431.162442 126.670001 
L 427.678368 126.670001 
z
" clip-path="url(#p8fe6dbfc94)" style="fill: #3366cc; opacity: 0.7"/>
   </g>
   <g id="patch_87">
    <path d="M 432.033461 159.843139 
L 435.517535 159.843139 
L 435.517535 126.782323 
L 432.033461 126.782323 
z
" clip-path="url(#p8fe6dbfc94)" style="fill: #3366cc; opacity: 0.7"/>
   </g>
   <g id="patch_88">
    <path d="M 436.388553 159.843139 
L 439.872627 159.843139 
L 439.872627 125.741928 
L 436.388553 125.741928 
z
" clip-path="url(#p8fe6dbfc94)" style="fill: #3366cc; opacity: 0.7"/>
   </g>
   <g id="patch_89">
    <path d="M 440.743645 159.843139 
L 444.227719 159.843139 
L 444.227719 125.974016 
L 440.743645 125.974016 
z
" clip-path="url(#p8fe6dbfc94)" style="fill: #3366cc; opacity: 0.7"/>
   </g>
   <g id="patch_90">
    <path d="M 445.098738 159.843139 
L 448.582812 159.843139 
L 448.582812 126.144123 
L 445.098738 126.144123 
z
" clip-path="url(#p8fe6dbfc94)" style="fill: #3366cc; opacity: 0.7"/>
   </g>
   <g id="patch_91">
    <path d="M 449.45383 159.843139 
L 452.937904 159.843139 
L 452.937904 126.290759 
L 449.45383 126.290759 
z
" clip-path="url(#p8fe6dbfc94)" style="fill: #3366cc; opacity: 0.7"/>
   </g>
   <g id="patch_92">
    <path d="M 453.808923 159.843139 
L 457.292997 159.843139 
L 457.292997 126.029895 
L 453.808923 126.029895 
z
" clip-path="url(#p8fe6dbfc94)" style="fill: #3366cc; opacity: 0.7"/>
   </g>
   <g id="patch_93">
    <path d="M 458.164015 159.843139 
L 461.648089 159.843139 
L 461.648089 126.05762 
L 458.164015 126.05762 
z
" clip-path="url(#p8fe6dbfc94)" style="fill: #3366cc; opacity: 0.7"/>
   </g>
   <g id="patch_94">
    <path d="M 462.519108 159.843139 
L 466.003182 159.843139 
L 466.003182 126.331434 
L 462.519108 126.331434 
z
" clip-path="url(#p8fe6dbfc94)" style="fill: #3366cc; opacity: 0.7"/>
   </g>
   <g id="patch_95">
    <path d="M 466.8742 159.843139 
L 470.358274 159.843139 
L 470.358274 126.078582 
L 466.8742 126.078582 
z
" clip-path="url(#p8fe6dbfc94)" style="fill: #3366cc; opacity: 0.7"/>
   </g>
   <g id="patch_96">
    <path d="M 471.229293 159.843139 
L 474.713366 159.843139 
L 474.713366 126.150053 
L 471.229293 126.150053 
z
" clip-path="url(#p8fe6dbfc94)" style="fill: #3366cc; opacity: 0.7"/>
   </g>
   <g id="patch_97">
    <path d="M 45.780313 159.843139 
L 45.780313 25.158281 
" style="fill: none; stroke: #000000; stroke-width: 0.6; stroke-linejoin: miter; stroke-linecap: square"/>
   </g>
   <g id="patch_98">
    <path d="M 45.780313 159.843139 
L 495.13875 159.843139 
" style="fill: none; stroke: #000000; stroke-width: 0.6; stroke-linejoin: miter; stroke-linecap: square"/>
   </g>
   <g id="line2d_23">
    <path d="M 67.947733 31.571846 
L 72.302825 31.571846 
L 76.657918 31.571846 
L 81.01301 31.571846 
L 85.368103 31.571846 
L 89.723195 31.571846 
L 94.078288 31.571846 
L 98.43338 31.571846 
L 102.788472 31.571846 
L 107.143565 31.571846 
L 111.498657 31.571846 
L 115.85375 31.571846 
L 120.208842 31.571846 
L 124.563935 31.571846 
L 128.919027 31.571846 
L 133.27412 31.571846 
L 137.629212 31.571846 
L 141.984304 31.571846 
L 146.339397 31.571846 
L 150.694489 31.571846 
L 155.049582 31.571846 
L 159.404674 31.571846 
L 163.759767 31.571846 
L 168.114859 31.571846 
L 172.469951 31.571846 
L 176.825044 31.571846 
L 181.180136 31.571846 
L 185.535229 31.571846 
L 189.890321 31.571846 
L 194.245414 31.571846 
L 198.600506 31.571846 
L 202.955598 31.571846 
L 207.310691 31.571846 
L 211.665783 31.571846 
L 216.020876 31.571846 
L 220.375968 31.571846 
L 224.731061 31.571846 
L 229.086153 31.571846 
L 233.441246 31.571846 
L 237.796338 31.571846 
L 242.15143 31.571846 
L 246.506523 31.571846 
L 250.861615 31.571846 
L 255.216708 31.571846 
L 259.5718 31.571846 
L 263.926893 31.571846 
L 268.281985 31.571846 
L 272.637077 31.571846 
L 276.99217 31.571846 
L 281.347262 31.571846 
L 285.702355 31.571846 
L 290.057447 31.571846 
L 294.41254 31.571846 
L 298.767632 31.571846 
L 303.122725 31.571846 
L 307.477817 31.571846 
L 311.832909 31.571846 
L 316.188002 31.571846 
L 320.543094 31.571846 
L 324.898187 31.571846 
L 329.253279 31.571846 
L 333.608372 31.571846 
L 337.963464 31.571846 
L 342.318556 31.571846 
L 346.673649 31.571846 
L 351.028741 31.571846 
L 355.383834 31.571846 
L 359.738926 31.571846 
L 364.094019 31.571846 
L 368.449111 31.571846 
L 372.804203 31.571846 
L 377.159296 31.571846 
L 381.514388 31.571846 
L 385.869481 31.571846 
L 390.224573 31.571846 
L 394.579666 31.571846 
L 398.934758 31.571846 
L 403.289851 31.571846 
L 407.644943 31.571846 
L 412.000035 31.571846 
L 416.355128 31.571846 
L 420.71022 31.571846 
L 425.065313 31.571846 
L 429.420405 31.571846 
L 433.775498 31.571846 
L 438.13059 31.571846 
L 442.485682 31.571846 
L 446.840775 31.571846 
L 451.195867 31.571846 
L 455.55096 31.571846 
L 459.906052 31.571846 
L 464.261145 31.571846 
L 468.616237 31.571846 
L 472.97133 31.571846 
" clip-path="url(#p8fe6dbfc94)" style="fill: none; stroke-dasharray: 3.7,1.6; stroke-dashoffset: 0; stroke: #999999"/>
   </g>
   <g id="text_13">
    <!-- Polkadot — Throughput Upper Bound (MiB/s) -->
    <g transform="translate(143.065781 19.158281) scale(0.11 -0.11)">
     <defs>
      <path id="DejaVuSerif-50" d="M 1581 2375 
L 2406 2375 
Q 2872 2375 3115 2626 
Q 3359 2878 3359 3353 
Q 3359 3831 3115 4081 
Q 2872 4331 2406 4331 
L 1581 4331 
L 1581 2375 
z
M 353 0 
L 353 331 
L 947 331 
L 947 4331 
L 353 4331 
L 353 4666 
L 2559 4666 
Q 3259 4666 3668 4311 
Q 4078 3956 4078 3353 
Q 4078 2753 3668 2397 
Q 3259 2041 2559 2041 
L 1581 2041 
L 1581 331 
L 2303 331 
L 2303 0 
L 353 0 
z
" transform="scale(0.015625)"/>
      <path id="DejaVuSerif-6f" d="M 1925 219 
Q 2388 219 2623 584 
Q 2859 950 2859 1663 
Q 2859 2375 2623 2739 
Q 2388 3103 1925 3103 
Q 1463 3103 1227 2739 
Q 991 2375 991 1663 
Q 991 950 1228 584 
Q 1466 219 1925 219 
z
M 1925 -91 
Q 1200 -91 759 389 
Q 319 869 319 1663 
Q 319 2456 758 2934 
Q 1197 3413 1925 3413 
Q 2653 3413 3092 2934 
Q 3531 2456 3531 1663 
Q 3531 869 3092 389 
Q 2653 -91 1925 -91 
z
" transform="scale(0.015625)"/>
      <path id="DejaVuSerif-6c" d="M 1313 331 
L 1856 331 
L 1856 0 
L 184 0 
L 184 331 
L 738 331 
L 738 4531 
L 184 4531 
L 184 4863 
L 1313 4863 
L 1313 331 
z
" transform="scale(0.015625)"/>
      <path id="DejaVuSerif-6b" d="M 1831 0 
L 219 0 
L 219 331 
L 738 331 
L 738 4531 
L 184 4531 
L 184 4863 
L 1313 4863 
L 1313 1697 
L 2713 2988 
L 2234 2988 
L 2234 3322 
L 3738 3322 
L 3738 2988 
L 3169 2988 
L 2181 2075 
L 3444 331 
L 3922 331 
L 3922 0 
L 2284 0 
L 2284 331 
L 2759 331 
L 1766 1697 
L 1313 1275 
L 1313 331 
L 1831 331 
L 1831 0 
z
" transform="scale(0.015625)"/>
      <path id="DejaVuSerif-64" d="M 3359 331 
L 3909 331 
L 3909 0 
L 2784 0 
L 2784 519 
Q 2616 206 2355 57 
Q 2094 -91 1709 -91 
Q 1097 -91 708 395 
Q 319 881 319 1663 
Q 319 2444 706 2928 
Q 1094 3413 1709 3413 
Q 2094 3413 2355 3264 
Q 2616 3116 2784 2803 
L 2784 4531 
L 2241 4531 
L 2241 4863 
L 3359 4863 
L 3359 331 
z
M 2784 1497 
L 2784 1825 
Q 2784 2422 2554 2737 
Q 2325 3053 1888 3053 
Q 1444 3053 1217 2703 
Q 991 2353 991 1663 
Q 991 975 1217 622 
Q 1444 269 1888 269 
Q 2325 269 2554 583 
Q 2784 897 2784 1497 
z
" transform="scale(0.015625)"/>
      <path id="DejaVuSerif-74" d="M 691 2988 
L 184 2988 
L 184 3322 
L 691 3322 
L 691 4353 
L 1269 4353 
L 1269 3322 
L 2350 3322 
L 2350 2988 
L 1269 2988 
L 1269 878 
Q 1269 456 1350 337 
Q 1431 219 1650 219 
Q 1875 219 1978 351 
Q 2081 484 2088 781 
L 2522 781 
Q 2497 328 2275 118 
Q 2053 -91 1600 -91 
Q 1103 -91 897 129 
Q 691 350 691 878 
L 691 2988 
z
" transform="scale(0.015625)"/>
      <path id="DejaVuSerif-2014" d="M 281 1906 
L 6119 1906 
L 6119 1491 
L 281 1491 
L 281 1906 
z
" transform="scale(0.015625)"/>
      <path id="DejaVuSerif-54" d="M 1222 0 
L 1222 331 
L 1819 331 
L 1819 4294 
L 447 4294 
L 447 3566 
L 63 3566 
L 63 4666 
L 4206 4666 
L 4206 3566 
L 3822 3566 
L 3822 4294 
L 2450 4294 
L 2450 331 
L 3047 331 
L 3047 0 
L 1222 0 
z
" transform="scale(0.015625)"/>
      <path id="DejaVuSerif-68" d="M 263 0 
L 263 331 
L 781 331 
L 781 4531 
L 231 4531 
L 231 4863 
L 1356 4863 
L 1356 2731 
Q 1516 3069 1770 3241 
Q 2025 3413 2363 3413 
Q 2913 3413 3172 3097 
Q 3431 2781 3431 2113 
L 3431 331 
L 3944 331 
L 3944 0 
L 2356 0 
L 2356 331 
L 2853 331 
L 2853 1931 
Q 2853 2541 2704 2764 
Q 2556 2988 2175 2988 
Q 1775 2988 1565 2697 
Q 1356 2406 1356 1850 
L 1356 331 
L 1856 331 
L 1856 0 
L 263 0 
z
" transform="scale(0.015625)"/>
      <path id="DejaVuSerif-72" d="M 3059 3328 
L 3059 2497 
L 2728 2497 
Q 2713 2744 2591 2866 
Q 2469 2988 2234 2988 
Q 1809 2988 1582 2694 
Q 1356 2400 1356 1850 
L 1356 331 
L 2022 331 
L 2022 0 
L 263 0 
L 263 331 
L 781 331 
L 781 2994 
L 231 2994 
L 231 3322 
L 1356 3322 
L 1356 2731 
Q 1525 3078 1790 3245 
Q 2056 3413 2438 3413 
Q 2578 3413 2733 3391 
Q 2888 3369 3059 3328 
z
" transform="scale(0.015625)"/>
      <path id="DejaVuSerif-75" d="M 2266 3322 
L 3341 3322 
L 3341 331 
L 3884 331 
L 3884 0 
L 2766 0 
L 2766 588 
Q 2606 256 2353 82 
Q 2100 -91 1766 -91 
Q 1213 -91 952 223 
Q 691 538 691 1209 
L 691 2988 
L 172 2988 
L 172 3322 
L 1269 3322 
L 1269 1388 
Q 1269 781 1417 556 
Q 1566 331 1947 331 
Q 2347 331 2556 625 
Q 2766 919 2766 1478 
L 2766 2988 
L 2266 2988 
L 2266 3322 
z
" transform="scale(0.015625)"/>
      <path id="DejaVuSerif-67" d="M 3359 2988 
L 3359 72 
Q 3359 -644 2965 -1033 
Q 2572 -1422 1844 -1422 
Q 1516 -1422 1216 -1362 
Q 916 -1303 641 -1184 
L 641 -488 
L 941 -488 
Q 997 -813 1206 -963 
Q 1416 -1113 1806 -1113 
Q 2313 -1113 2548 -827 
Q 2784 -541 2784 72 
L 2784 519 
Q 2616 206 2355 57 
Q 2094 -91 1709 -91 
Q 1097 -91 708 395 
Q 319 881 319 1663 
Q 319 2444 706 2928 
Q 1094 3413 1709 3413 
Q 2094 3413 2355 3264 
Q 2616 3116 2784 2803 
L 2784 3322 
L 3909 3322 
L 3909 2988 
L 3359 2988 
z
M 2784 1825 
Q 2784 2422 2554 2737 
Q 2325 3053 1888 3053 
Q 1444 3053 1217 2703 
Q 991 2353 991 1663 
Q 991 975 1217 622 
Q 1444 269 1888 269 
Q 2325 269 2554 583 
Q 2784 897 2784 1497 
L 2784 1825 
z
" transform="scale(0.015625)"/>
      <path id="DejaVuSerif-70" d="M 1313 1825 
L 1313 1497 
Q 1313 897 1542 583 
Q 1772 269 2209 269 
Q 2650 269 2876 622 
Q 3103 975 3103 1663 
Q 3103 2353 2876 2703 
Q 2650 3053 2209 3053 
Q 1772 3053 1542 2737 
Q 1313 2422 1313 1825 
z
M 738 2988 
L 184 2988 
L 184 3322 
L 1313 3322 
L 1313 2803 
Q 1481 3116 1742 3264 
Q 2003 3413 2388 3413 
Q 3000 3413 3387 2928 
Q 3775 2444 3775 1663 
Q 3775 881 3387 395 
Q 3000 -91 2388 -91 
Q 2003 -91 1742 57 
Q 1481 206 1313 519 
L 1313 -997 
L 1856 -997 
L 1856 -1331 
L 184 -1331 
L 184 -997 
L 738 -997 
L 738 2988 
z
" transform="scale(0.015625)"/>
      <path id="DejaVuSerif-55" d="M 897 4331 
L 300 4331 
L 300 4666 
L 2125 4666 
L 2125 4331 
L 1528 4331 
L 1528 1919 
Q 1528 1025 1820 672 
Q 2113 319 2828 319 
Q 3544 319 3836 672 
Q 4128 1025 4128 1919 
L 4128 4331 
L 3531 4331 
L 3531 4666 
L 5106 4666 
L 5106 4331 
L 4513 4331 
L 4513 1856 
Q 4513 791 4103 350 
Q 3694 -91 2713 -91 
Q 1731 -91 1314 353 
Q 897 797 897 1856 
L 897 4331 
z
" transform="scale(0.015625)"/>
      <path id="DejaVuSerif-28" d="M 2041 -997 
Q 1281 -656 893 83 
Q 506 822 506 1931 
Q 506 3044 893 3783 
Q 1281 4522 2041 4863 
L 2041 4556 
Q 1559 4225 1350 3623 
Q 1141 3022 1141 1931 
Q 1141 844 1350 242 
Q 1559 -359 2041 -691 
L 2041 -997 
z
" transform="scale(0.015625)"/>
      <path id="DejaVuSerif-29" d="M 453 -997 
L 453 -691 
Q 934 -359 1145 242 
Q 1356 844 1356 1931 
Q 1356 3022 1145 3623 
Q 934 4225 453 4556 
L 453 4863 
Q 1216 4522 1603 3783 
Q 1991 3044 1991 1931 
Q 1991 822 1603 83 
Q 1216 -656 453 -997 
z
" transform="scale(0.015625)"/>
     </defs>
     <use xlink:href="#DejaVuSerif-50"/>
     <use xlink:href="#DejaVuSerif-6f" x="63.285156"/>
     <use xlink:href="#DejaVuSerif-6c" x="123.490234"/>
     <use xlink:href="#DejaVuSerif-6b" x="155.472656"/>
     <use xlink:href="#DejaVuSerif-61" x="216.068359"/>
     <use xlink:href="#DejaVuSerif-64" x="275.6875"/>
     <use xlink:href="#DejaVuSerif-6f" x="339.701172"/>
     <use xlink:href="#DejaVuSerif-74" x="399.90625"/>
     <use xlink:href="#DejaVuSerif-20" x="440.091797"/>
     <use xlink:href="#DejaVuSerif-2014" x="471.878906"/>
     <use xlink:href="#DejaVuSerif-20" x="571.878906"/>
     <use xlink:href="#DejaVuSerif-54" x="603.666016"/>
     <use xlink:href="#DejaVuSerif-68" x="670.365234"/>
     <use xlink:href="#DejaVuSerif-72" x="734.769531"/>
     <use xlink:href="#DejaVuSerif-6f" x="782.572266"/>
     <use xlink:href="#DejaVuSerif-75" x="842.777344"/>
     <use xlink:href="#DejaVuSerif-67" x="907.181641"/>
     <use xlink:href="#DejaVuSerif-68" x="971.195312"/>
     <use xlink:href="#DejaVuSerif-70" x="1035.599609"/>
     <use xlink:href="#DejaVuSerif-75" x="1099.613281"/>
     <use xlink:href="#DejaVuSerif-74" x="1164.017578"/>
     <use xlink:href="#DejaVuSerif-20" x="1204.203125"/>
     <use xlink:href="#DejaVuSerif-55" x="1235.990234"/>
     <use xlink:href="#DejaVuSerif-70" x="1320.267578"/>
     <use xlink:href="#DejaVuSerif-70" x="1384.28125"/>
     <use xlink:href="#DejaVuSerif-65" x="1448.294922"/>
     <use xlink:href="#DejaVuSerif-72" x="1507.474609"/>
     <use xlink:href="#DejaVuSerif-20" x="1555.277344"/>
     <use xlink:href="#DejaVuSerif-42" x="1587.064453"/>
     <use xlink:href="#DejaVuSerif-6f" x="1660.550781"/>
     <use xlink:href="#DejaVuSerif-75" x="1720.755859"/>
     <use xlink:href="#DejaVuSerif-6e" x="1785.160156"/>
     <use xlink:href="#DejaVuSerif-64" x="1849.564453"/>
     <use xlink:href="#DejaVuSerif-20" x="1913.578125"/>
     <use xlink:href="#DejaVuSerif-28" x="1945.365234"/>
     <use xlink:href="#DejaVuSerif-4d" x="1984.378906"/>
     <use xlink:href="#DejaVuSerif-69" x="2086.771484"/>
     <use xlink:href="#DejaVuSerif-42" x="2118.753906"/>
     <use xlink:href="#DejaVuSerif-2f" x="2192.240234"/>
     <use xlink:href="#DejaVuSerif-73" x="2225.931641"/>
     <use xlink:href="#DejaVuSerif-29" x="2277.25"/>
    </g>
   </g>
   <g id="line2d_24">
    <path d="M 67.947733 126.336196 
L 72.302825 126.330867 
L 76.657918 126.207281 
L 81.01301 126.114701 
L 85.368103 126.048253 
L 89.723195 126.099615 
L 94.078288 126.164753 
L 98.43338 126.219077 
L 102.788472 126.259863 
L 107.143565 126.347656 
L 111.498657 126.46441 
L 115.85375 126.59884 
L 120.208842 126.670247 
L 124.563935 126.705589 
L 128.919027 126.72072 
L 133.27412 126.759645 
L 137.629212 126.800557 
L 141.984304 126.855504 
L 146.339397 126.897485 
L 150.694489 126.917769 
L 155.049582 126.930131 
L 159.404674 126.956426 
L 163.759767 126.989213 
L 168.114859 127.025823 
L 172.469951 127.046836 
L 176.825044 127.108684 
L 181.180136 127.148613 
L 185.535229 127.186091 
L 189.890321 127.235983 
L 194.245414 127.333842 
L 198.600506 127.494139 
L 202.955598 127.662668 
L 207.310691 127.757142 
L 211.665783 127.829497 
L 216.020876 127.890997 
L 220.375968 127.921163 
L 224.731061 127.882051 
L 229.086153 127.800298 
L 233.441246 127.716516 
L 237.796338 127.59074 
L 242.15143 127.430318 
L 246.506523 127.321513 
L 250.861615 127.249629 
L 255.216708 127.162287 
L 259.5718 127.065854 
L 263.926893 126.938202 
L 268.281985 126.862335 
L 272.637077 126.901762 
L 276.99217 126.902327 
L 281.347262 126.880808 
L 285.702355 126.912632 
L 290.057447 126.93697 
L 294.41254 126.956957 
L 298.767632 127.044524 
L 303.122725 127.044942 
L 307.477817 127.065517 
L 311.832909 127.125114 
L 316.188002 127.311106 
L 320.543094 127.511316 
L 324.898187 127.617762 
L 329.253279 127.557577 
L 333.608372 127.528707 
L 337.963464 127.497547 
L 342.318556 127.436675 
L 346.673649 127.198625 
L 351.028741 126.979911 
L 355.383834 126.861537 
L 359.738926 126.887322 
L 364.094019 126.946585 
L 368.449111 127.032363 
L 372.804203 127.080478 
L 377.159296 127.106652 
L 381.514388 127.107629 
L 385.869481 126.955396 
L 390.224573 126.67201 
L 394.579666 126.403827 
L 398.934758 126.120964 
L 403.289851 125.811024 
L 407.644943 125.603329 
L 412.000035 125.347137 
L 416.355128 125.272065 
L 420.71022 125.29662 
L 425.065313 125.33105 
L 429.420405 125.516624 
L 433.775498 125.761052 
L 438.13059 125.795532 
L 442.485682 125.899472 
L 446.840775 126.01279 
L 451.195867 126.159977 
L 455.55096 126.233292 
L 459.906052 126.145809 
L 464.261145 126.081396 
L 468.616237 126.12949 
L 472.97133 126.154638 
" clip-path="url(#p8fe6dbfc94)" style="fill: none; stroke: #cc3333; stroke-width: 1.5; stroke-linecap: square"/>
   </g>
   <g id="legend_1">
    <g id="patch_99">
     <path d="M 410.00875 67.013281 
L 489.53875 67.013281 
Q 491.13875 67.013281 491.13875 65.413281 
L 491.13875 30.758281 
Q 491.13875 29.158281 489.53875 29.158281 
L 410.00875 29.158281 
Q 408.40875 29.158281 408.40875 30.758281 
L 408.40875 65.413281 
Q 408.40875 67.013281 410.00875 67.013281 
z
" style="fill: #ffffff; opacity: 0.9; stroke: #cccccc; stroke-linejoin: miter"/>
    </g>
    <g id="line2d_25">
     <path d="M 411.60875 35.637031 
L 419.60875 35.637031 
L 427.60875 35.637031 
" style="fill: none; stroke: #cc3333; stroke-width: 1.5; stroke-linecap: square"/>
    </g>
    <g id="text_14">
     <!-- 7d avg -->
     <g transform="translate(434.00875 38.437031) scale(0.08 -0.08)">
      <defs>
       <path id="DejaVuSerif-76" d="M 1581 0 
L 359 2988 
L -19 2988 
L -19 3322 
L 1509 3322 
L 1509 2988 
L 978 2988 
L 1913 703 
L 2847 2988 
L 2350 2988 
L 2350 3322 
L 3597 3322 
L 3597 2988 
L 3225 2988 
L 2003 0 
L 1581 0 
z
" transform="scale(0.015625)"/>
      </defs>
      <use xlink:href="#DejaVuSerif-37"/>
      <use xlink:href="#DejaVuSerif-64" x="63.623047"/>
      <use xlink:href="#DejaVuSerif-20" x="127.636719"/>
      <use xlink:href="#DejaVuSerif-61" x="159.423828"/>
      <use xlink:href="#DejaVuSerif-76" x="219.042969"/>
      <use xlink:href="#DejaVuSerif-67" x="275.537109"/>
     </g>
    </g>
    <g id="line2d_26">
     <path d="M 411.60875 47.493281 
L 419.60875 47.493281 
L 427.60875 47.493281 
" style="fill: none; stroke-dasharray: 3.7,1.6; stroke-dashoffset: 0; stroke: #999999"/>
    </g>
    <g id="text_15">
     <!-- Max capacity -->
     <g transform="translate(434.00875 50.293281) scale(0.08 -0.08)">
      <defs>
       <path id="DejaVuSerif-78" d="M 1863 2028 
L 2559 2988 
L 2113 2988 
L 2113 3322 
L 3391 3322 
L 3391 2988 
L 2950 2988 
L 2059 1759 
L 3097 331 
L 3531 331 
L 3531 0 
L 1997 0 
L 1997 331 
L 2419 331 
L 1697 1325 
L 972 331 
L 1403 331 
L 1403 0 
L 141 0 
L 141 331 
L 581 331 
L 1497 1594 
L 488 2988 
L 78 2988 
L 78 3322 
L 1563 3322 
L 1563 2988 
L 1166 2988 
L 1863 2028 
z
" transform="scale(0.015625)"/>
       <path id="DejaVuSerif-79" d="M 1381 -609 
L 1600 -56 
L 359 2988 
L -19 2988 
L -19 3322 
L 1509 3322 
L 1509 2988 
L 978 2988 
L 1913 703 
L 2847 2988 
L 2350 2988 
L 2350 3322 
L 3597 3322 
L 3597 2988 
L 3225 2988 
L 1703 -750 
Q 1547 -1138 1356 -1280 
Q 1166 -1422 819 -1422 
Q 672 -1422 517 -1397 
Q 363 -1372 206 -1325 
L 206 -691 
L 500 -691 
Q 519 -903 608 -995 
Q 697 -1088 884 -1088 
Q 1056 -1088 1161 -992 
Q 1266 -897 1381 -609 
z
" transform="scale(0.015625)"/>
      </defs>
      <use xlink:href="#DejaVuSerif-4d"/>
      <use xlink:href="#DejaVuSerif-61" x="102.392578"/>
      <use xlink:href="#DejaVuSerif-78" x="162.011719"/>
      <use xlink:href="#DejaVuSerif-20" x="218.408203"/>
      <use xlink:href="#DejaVuSerif-63" x="250.195312"/>
      <use xlink:href="#DejaVuSerif-61" x="306.201172"/>
      <use xlink:href="#DejaVuSerif-70" x="365.820312"/>
      <use xlink:href="#DejaVuSerif-61" x="429.833984"/>
      <use xlink:href="#DejaVuSerif-63" x="489.453125"/>
      <use xlink:href="#DejaVuSerif-69" x="545.458984"/>
      <use xlink:href="#DejaVuSerif-74" x="577.441406"/>
      <use xlink:href="#DejaVuSerif-79" x="617.626953"/>
     </g>
    </g>
    <g id="patch_100">
     <path d="M 411.60875 62.149531 
L 427.60875 62.149531 
L 427.60875 56.549531 
L 411.60875 56.549531 
z
" style="fill: #3366cc; opacity: 0.7"/>
    </g>
    <g id="text_16">
     <!-- Actual -->
     <g transform="translate(434.00875 62.149531) scale(0.08 -0.08)">
      <defs>
       <path id="DejaVuSerif-41" d="M 1281 1691 
L 2994 1691 
L 2138 3909 
L 1281 1691 
z
M -38 0 
L -38 331 
L 372 331 
L 2034 4666 
L 2559 4666 
L 4225 331 
L 4684 331 
L 4684 0 
L 2988 0 
L 2988 331 
L 3506 331 
L 3116 1356 
L 1153 1356 
L 763 331 
L 1275 331 
L 1275 0 
L -38 0 
z
" transform="scale(0.015625)"/>
      </defs>
      <use xlink:href="#DejaVuSerif-41"/>
      <use xlink:href="#DejaVuSerif-63" x="72.216797"/>
      <use xlink:href="#DejaVuSerif-74" x="128.222656"/>
      <use xlink:href="#DejaVuSerif-75" x="168.408203"/>
      <use xlink:href="#DejaVuSerif-61" x="232.8125"/>
      <use xlink:href="#DejaVuSerif-6c" x="292.431641"/>
     </g>
    </g>
   </g>
  </g>
 </g>
 <defs>
  <clipPath id="p8fe6dbfc94">
   <rect x="45.780313" y="25.158281" width="449.358438" height="134.684858"/>
  </clipPath>
 </defs>
</svg>
