<?xml version="1.0" encoding="utf-8" standalone="no"?>
<!DOCTYPE svg PUBLIC "-//W3C//DTD SVG 1.1//EN"
  "http://www.w3.org/Graphics/SVG/1.1/DTD/svg11.dtd">
<svg xmlns:xlink="http://www.w3.org/1999/xlink" width="505.95625pt" height="203.619591pt" viewBox="0 0 505.95625 203.619591" xmlns="http://www.w3.org/2000/svg" version="1.1">
 <metadata>
  <rdf:RDF xmlns:dc="http://purl.org/dc/elements/1.1/" xmlns:cc="http://creativecommons.org/ns#" xmlns:rdf="http://www.w3.org/1999/02/22-rdf-syntax-ns#">
   <cc:Work>
    <dc:type rdf:resource="http://purl.org/dc/dcmitype/StillImage"/>
    <dc:date>2026-02-16T20:22:43.946843</dc:date>
    <dc:format>image/svg+xml</dc:format>
    <dc:creator>
     <cc:Agent>
      <dc:title>Matplotlib v3.9.4, https://matplotlib.org/</dc:title>
     </cc:Agent>
    </dc:creator>
   </cc:Work>
  </rdf:RDF>
 </metadata>
 <defs>
  <style type="text/css">*{stroke-linejoin: round; stroke-linecap: butt}</style>
 </defs>
 <g id="figure_1">
  <g id="patch_1">
   <path d="M 0 203.619591 
L 505.95625 203.619591 
L 505.95625 0 
L 0 0 
z
" style="fill: #ffffff"/>
  </g>
  <g id="axes_1">
   <g id="patch_2">
    <path d="M 40.690312 159.848764 
L 495.15625 159.848764 
L 495.15625 25.158281 
L 40.690312 25.158281 
z
" style="fill: #ffffff"/>
   </g>
   <g id="PolyCollection_1">
    <defs>
     <path id="mdda243a13c" d="M 61.347855 -167.884891 
L 61.347855 -49.893121 
L 65.790337 -49.893121 
L 70.23282 -49.893121 
L 74.675302 -49.893121 
L 79.117784 -49.893121 
L 83.560267 -49.893121 
L 88.002749 -49.893121 
L 92.445231 -49.893121 
L 96.887713 -49.893121 
L 101.330196 -49.893121 
L 105.772678 -49.893121 
L 110.21516 -49.893121 
L 114.657643 -49.893121 
L 119.100125 -49.893121 
L 123.542607 -49.893121 
L 127.985089 -49.893121 
L 132.427572 -49.893121 
L 136.870054 -49.893121 
L 141.312536 -49.893121 
L 145.755018 -49.893121 
L 150.197501 -49.893121 
L 154.639983 -49.893121 
L 159.082465 -49.893121 
L 163.524948 -49.893121 
L 167.96743 -49.893121 
L 172.409912 -49.893121 
L 176.852394 -49.893121 
L 181.294877 -49.893121 
L 185.737359 -49.893121 
L 190.179841 -49.893121 
L 194.622324 -49.893121 
L 199.064806 -49.893121 
L 203.507288 -49.893121 
L 207.94977 -49.893121 
L 212.392253 -49.893121 
L 216.834735 -49.893121 
L 221.277217 -49.893121 
L 225.7197 -49.893121 
L 230.162182 -49.893121 
L 234.604664 -49.893121 
L 239.047146 -49.893121 
L 243.489629 -49.893121 
L 247.932111 -49.893121 
L 252.374593 -49.893121 
L 256.817076 -49.893121 
L 261.259558 -49.893121 
L 265.70204 -49.893121 
L 270.144522 -49.893121 
L 274.587005 -49.893121 
L 279.029487 -49.893121 
L 283.471969 -49.893121 
L 287.914452 -49.893121 
L 292.356934 -49.893121 
L 296.799416 -49.893121 
L 301.241898 -49.893121 
L 305.684381 -49.893121 
L 310.126863 -49.893121 
L 314.569345 -49.893121 
L 319.011827 -49.893121 
L 323.45431 -49.893121 
L 327.896792 -49.893121 
L 332.339274 -49.893121 
L 336.781757 -49.893121 
L 341.224239 -49.893121 
L 345.666721 -49.893121 
L 350.109203 -49.893121 
L 354.551686 -49.893121 
L 358.994168 -49.893121 
L 363.43665 -49.893121 
L 367.879133 -49.893121 
L 372.321615 -49.893121 
L 376.764097 -49.893121 
L 381.206579 -49.893121 
L 385.649062 -49.893121 
L 390.091544 -49.893121 
L 394.534026 -49.893121 
L 398.976509 -49.893121 
L 403.418991 -49.893121 
L 407.861473 -49.893121 
L 412.303955 -49.893121 
L 416.746438 -49.893121 
L 421.18892 -49.893121 
L 425.631402 -49.893121 
L 430.073885 -49.893121 
L 434.516367 -49.893121 
L 438.958849 -49.893121 
L 443.401331 -49.893121 
L 447.843814 -49.893121 
L 452.286296 -49.893121 
L 456.728778 -49.893121 
L 461.171261 -49.893121 
L 465.613743 -49.893121 
L 470.056225 -49.893121 
L 474.498707 -49.893121 
L 474.498707 -168.540377 
L 474.498707 -168.540377 
L 470.056225 -168.792057 
L 465.613743 -167.901658 
L 461.171261 -168.865871 
L 456.728778 -168.963504 
L 452.286296 -168.044894 
L 447.843814 -168.56126 
L 443.401331 -169.160276 
L 438.958849 -169.977555 
L 434.516367 -166.313894 
L 430.073885 -166.709427 
L 425.631402 -170.770709 
L 421.18892 -171.673046 
L 416.746438 -171.354523 
L 412.303955 -171.722382 
L 407.861473 -170.827497 
L 403.418991 -172.339015 
L 398.976509 -171.283788 
L 394.534026 -171.619406 
L 390.091544 -172.278324 
L 385.649062 -169.50402 
L 381.206579 -165.407274 
L 376.764097 -165.707847 
L 372.321615 -164.699012 
L 367.879133 -164.311251 
L 363.43665 -165.008724 
L 358.994168 -165.292897 
L 354.551686 -165.751478 
L 350.109203 -165.431375 
L 345.666721 -166.353018 
L 341.224239 -165.885039 
L 336.781757 -166.425676 
L 332.339274 -166.469555 
L 327.896792 -165.928503 
L 323.45431 -162.833555 
L 319.011827 -160.040105 
L 314.569345 -160.485116 
L 310.126863 -164.384552 
L 305.684381 -165.657595 
L 301.241898 -165.757897 
L 296.799416 -164.444966 
L 292.356934 -165.457437 
L 287.914452 -164.975259 
L 283.471969 -165.069793 
L 279.029487 -165.853601 
L 274.587005 -166.164772 
L 270.144522 -165.768199 
L 265.70204 -166.603483 
L 261.259558 -165.950116 
L 256.817076 -165.575191 
L 252.374593 -165.854248 
L 247.932111 -165.323173 
L 243.489629 -166.178688 
L 239.047146 -166.740062 
L 234.604664 -164.733374 
L 230.162182 -162.803502 
L 225.7197 -163.198134 
L 221.277217 -163.701272 
L 216.834735 -163.55124 
L 212.392253 -163.496653 
L 207.94977 -162.78568 
L 203.507288 -161.633008 
L 199.064806 -160.738294 
L 194.622324 -161.182925 
L 190.179841 -162.737181 
L 185.737359 -164.294825 
L 181.294877 -165.012619 
L 176.852394 -164.569225 
L 172.409912 -163.961769 
L 167.96743 -164.892524 
L 163.524948 -165.134236 
L 159.082465 -165.149378 
L 154.639983 -165.524672 
L 150.197501 -165.936432 
L 145.755018 -165.553479 
L 141.312536 -165.486312 
L 136.870054 -165.410501 
L 132.427572 -166.036671 
L 127.985089 -165.957555 
L 123.542607 -166.172848 
L 119.100125 -166.241164 
L 114.657643 -166.053472 
L 110.21516 -166.521141 
L 105.772678 -166.764935 
L 101.330196 -167.045158 
L 96.887713 -166.917049 
L 92.445231 -166.545818 
L 88.002749 -167.11233 
L 83.560267 -167.813659 
L 79.117784 -169.834827 
L 74.675302 -169.642898 
L 70.23282 -169.209248 
L 65.790337 -167.922422 
L 61.347855 -167.884891 
z
" style="stroke: #b3cde3; stroke-opacity: 0.6"/>
    </defs>
    <g clip-path="url(#pb50a886573)">
     <use xlink:href="#mdda243a13c" x="0" y="203.619591" style="fill: #b3cde3; fill-opacity: 0.6; stroke: #b3cde3; stroke-opacity: 0.6"/>
    </g>
   </g>
   <g id="matplotlib.axis_1">
    <g id="xtick_1">
     <g id="line2d_1">
      <path d="M 132.427572 159.848764 
L 132.427572 25.158281 
" clip-path="url(#pb50a886573)" style="fill: none; stroke: #b0b0b0; stroke-opacity: 0.25; stroke-width: 0.5; stroke-linecap: square"/>
     </g>
     <g id="line2d_2">
      <defs>
       <path id="md3423593ff" d="M 0 0 
L 0 3.5 
" style="stroke: #000000; stroke-width: 0.8"/>
      </defs>
      <g>
       <use xlink:href="#md3423593ff" x="132.427572" y="159.848764" style="stroke: #000000; stroke-width: 0.8"/>
      </g>
     </g>
     <g id="text_1">
      <!-- Dec 2025 -->
      <g transform="translate(98.226655 191.378741) rotate(-30) scale(0.08 -0.08)">
       <defs>
        <path id="DejaVuSerif-44" d="M 1581 331 
L 2163 331 
Q 3072 331 3558 850 
Q 4044 1369 4044 2338 
Q 4044 3306 3559 3818 
Q 3075 4331 2163 4331 
L 1581 4331 
L 1581 331 
z
M 353 0 
L 353 331 
L 947 331 
L 947 4331 
L 353 4331 
L 353 4666 
L 2209 4666 
Q 3416 4666 4089 4050 
Q 4763 3434 4763 2338 
Q 4763 1238 4088 619 
Q 3413 0 2209 0 
L 353 0 
z
" transform="scale(0.015625)"/>
        <path id="DejaVuSerif-65" d="M 3469 1600 
L 991 1600 
L 991 1575 
Q 991 903 1244 561 
Q 1497 219 1991 219 
Q 2369 219 2611 417 
Q 2853 616 2950 1006 
L 3413 1006 
Q 3275 459 2904 184 
Q 2534 -91 1931 -91 
Q 1203 -91 761 389 
Q 319 869 319 1663 
Q 319 2450 753 2931 
Q 1188 3413 1894 3413 
Q 2647 3413 3050 2948 
Q 3453 2484 3469 1600 
z
M 2791 1931 
Q 2772 2513 2545 2808 
Q 2319 3103 1894 3103 
Q 1497 3103 1269 2806 
Q 1041 2509 991 1931 
L 2791 1931 
z
" transform="scale(0.015625)"/>
        <path id="DejaVuSerif-63" d="M 3291 997 
Q 3169 466 2822 187 
Q 2475 -91 1925 -91 
Q 1200 -91 759 389 
Q 319 869 319 1663 
Q 319 2459 759 2936 
Q 1200 3413 1925 3413 
Q 2241 3413 2553 3339 
Q 2866 3266 3181 3116 
L 3181 2266 
L 2847 2266 
Q 2781 2703 2561 2903 
Q 2341 3103 1931 3103 
Q 1466 3103 1228 2742 
Q 991 2381 991 1663 
Q 991 944 1227 581 
Q 1463 219 1931 219 
Q 2303 219 2525 412 
Q 2747 606 2828 997 
L 3291 997 
z
" transform="scale(0.015625)"/>
        <path id="DejaVuSerif-20" transform="scale(0.015625)"/>
        <path id="DejaVuSerif-32" d="M 819 3553 
L 469 3553 
L 469 4384 
Q 803 4563 1142 4656 
Q 1481 4750 1806 4750 
Q 2534 4750 2956 4397 
Q 3378 4044 3378 3438 
Q 3378 2753 2422 1800 
Q 2347 1728 2309 1691 
L 1131 513 
L 3078 513 
L 3078 1088 
L 3444 1088 
L 3444 0 
L 434 0 
L 434 341 
L 1850 1753 
Q 2319 2222 2519 2614 
Q 2719 3006 2719 3438 
Q 2719 3909 2473 4175 
Q 2228 4441 1797 4441 
Q 1350 4441 1106 4219 
Q 863 3997 819 3553 
z
" transform="scale(0.015625)"/>
        <path id="DejaVuSerif-30" d="M 2034 219 
Q 2513 219 2750 744 
Q 2988 1269 2988 2328 
Q 2988 3391 2750 3916 
Q 2513 4441 2034 4441 
Q 1556 4441 1318 3916 
Q 1081 3391 1081 2328 
Q 1081 1269 1318 744 
Q 1556 219 2034 219 
z
M 2034 -91 
Q 1275 -91 848 546 
Q 422 1184 422 2328 
Q 422 3475 848 4112 
Q 1275 4750 2034 4750 
Q 2797 4750 3222 4112 
Q 3647 3475 3647 2328 
Q 3647 1184 3222 546 
Q 2797 -91 2034 -91 
z
" transform="scale(0.015625)"/>
        <path id="DejaVuSerif-35" d="M 3219 4666 
L 3219 4153 
L 1081 4153 
L 1081 2816 
Q 1244 2928 1461 2984 
Q 1678 3041 1947 3041 
Q 2703 3041 3140 2622 
Q 3578 2203 3578 1478 
Q 3578 738 3136 323 
Q 2694 -91 1894 -91 
Q 1572 -91 1234 -12 
Q 897 66 544 225 
L 544 1131 
L 897 1131 
Q 925 688 1179 453 
Q 1434 219 1894 219 
Q 2388 219 2653 544 
Q 2919 869 2919 1478 
Q 2919 2084 2655 2407 
Q 2391 2731 1894 2731 
Q 1613 2731 1398 2631 
Q 1184 2531 1019 2322 
L 750 2322 
L 750 4666 
L 3219 4666 
z
" transform="scale(0.015625)"/>
       </defs>
       <use xlink:href="#DejaVuSerif-44"/>
       <use xlink:href="#DejaVuSerif-65" x="80.175781"/>
       <use xlink:href="#DejaVuSerif-63" x="139.355469"/>
       <use xlink:href="#DejaVuSerif-20" x="195.361328"/>
       <use xlink:href="#DejaVuSerif-32" x="227.148438"/>
       <use xlink:href="#DejaVuSerif-30" x="290.771484"/>
       <use xlink:href="#DejaVuSerif-32" x="354.394531"/>
       <use xlink:href="#DejaVuSerif-35" x="418.017578"/>
      </g>
     </g>
    </g>
    <g id="xtick_2">
     <g id="line2d_3">
      <path d="M 270.144522 159.848764 
L 270.144522 25.158281 
" clip-path="url(#pb50a886573)" style="fill: none; stroke: #b0b0b0; stroke-opacity: 0.25; stroke-width: 0.5; stroke-linecap: square"/>
     </g>
     <g id="line2d_4">
      <g>
       <use xlink:href="#md3423593ff" x="270.144522" y="159.848764" style="stroke: #000000; stroke-width: 0.8"/>
      </g>
     </g>
     <g id="text_2">
      <!-- Jan 2026 -->
      <g transform="translate(238.107587 190.129366) rotate(-30) scale(0.08 -0.08)">
       <defs>
        <path id="DejaVuSerif-4a" d="M -538 -1119 
L -538 -384 
L -181 -384 
Q -172 -694 -34 -845 
Q 103 -997 378 -997 
Q 750 -997 897 -762 
Q 1044 -528 1044 153 
L 1044 4331 
L 319 4331 
L 319 4666 
L 2272 4666 
L 2272 4331 
L 1678 4331 
L 1678 128 
Q 1678 -644 1368 -987 
Q 1059 -1331 372 -1331 
Q 150 -1331 -79 -1278 
Q -309 -1225 -538 -1119 
z
" transform="scale(0.015625)"/>
        <path id="DejaVuSerif-61" d="M 2547 1044 
L 2547 1747 
L 1806 1747 
Q 1378 1747 1168 1562 
Q 959 1378 959 997 
Q 959 650 1171 447 
Q 1384 244 1747 244 
Q 2106 244 2326 466 
Q 2547 688 2547 1044 
z
M 3122 2075 
L 3122 331 
L 3634 331 
L 3634 0 
L 2547 0 
L 2547 359 
Q 2356 128 2106 18 
Q 1856 -91 1522 -91 
Q 969 -91 644 203 
Q 319 497 319 997 
Q 319 1513 691 1797 
Q 1063 2081 1741 2081 
L 2547 2081 
L 2547 2309 
Q 2547 2688 2317 2895 
Q 2088 3103 1672 3103 
Q 1328 3103 1125 2947 
Q 922 2791 872 2484 
L 575 2484 
L 575 3156 
Q 875 3284 1158 3348 
Q 1441 3413 1709 3413 
Q 2400 3413 2761 3070 
Q 3122 2728 3122 2075 
z
" transform="scale(0.015625)"/>
        <path id="DejaVuSerif-6e" d="M 263 0 
L 263 331 
L 781 331 
L 781 2988 
L 231 2988 
L 231 3322 
L 1356 3322 
L 1356 2731 
Q 1516 3069 1770 3241 
Q 2025 3413 2363 3413 
Q 2913 3413 3172 3097 
Q 3431 2781 3431 2113 
L 3431 331 
L 3944 331 
L 3944 0 
L 2356 0 
L 2356 331 
L 2853 331 
L 2853 1931 
Q 2853 2541 2703 2767 
Q 2553 2994 2175 2994 
Q 1775 2994 1565 2701 
Q 1356 2409 1356 1850 
L 1356 331 
L 1856 331 
L 1856 0 
L 263 0 
z
" transform="scale(0.015625)"/>
        <path id="DejaVuSerif-36" d="M 2094 219 
Q 2534 219 2771 542 
Q 3009 866 3009 1472 
Q 3009 2078 2771 2401 
Q 2534 2725 2094 2725 
Q 1647 2725 1412 2412 
Q 1178 2100 1178 1509 
Q 1178 888 1415 553 
Q 1653 219 2094 219 
z
M 1075 2569 
Q 1288 2803 1556 2918 
Q 1825 3034 2163 3034 
Q 2859 3034 3264 2615 
Q 3669 2197 3669 1472 
Q 3669 763 3233 336 
Q 2797 -91 2069 -91 
Q 1278 -91 853 498 
Q 428 1088 428 2181 
Q 428 3406 931 4078 
Q 1434 4750 2350 4750 
Q 2597 4750 2869 4703 
Q 3141 4656 3425 4563 
L 3425 3794 
L 3072 3794 
Q 3034 4109 2831 4275 
Q 2628 4441 2284 4441 
Q 1678 4441 1381 3981 
Q 1084 3522 1075 2569 
z
" transform="scale(0.015625)"/>
       </defs>
       <use xlink:href="#DejaVuSerif-4a"/>
       <use xlink:href="#DejaVuSerif-61" x="40.087891"/>
       <use xlink:href="#DejaVuSerif-6e" x="99.707031"/>
       <use xlink:href="#DejaVuSerif-20" x="164.111328"/>
       <use xlink:href="#DejaVuSerif-32" x="195.898438"/>
       <use xlink:href="#DejaVuSerif-30" x="259.521484"/>
       <use xlink:href="#DejaVuSerif-32" x="323.144531"/>
       <use xlink:href="#DejaVuSerif-36" x="386.767578"/>
      </g>
     </g>
    </g>
    <g id="xtick_3">
     <g id="line2d_5">
      <path d="M 407.861473 159.848764 
L 407.861473 25.158281 
" clip-path="url(#pb50a886573)" style="fill: none; stroke: #b0b0b0; stroke-opacity: 0.25; stroke-width: 0.5; stroke-linecap: square"/>
     </g>
     <g id="line2d_6">
      <g>
       <use xlink:href="#md3423593ff" x="407.861473" y="159.848764" style="stroke: #000000; stroke-width: 0.8"/>
      </g>
     </g>
     <g id="text_3">
      <!-- Feb 2026 -->
      <g transform="translate(374.233216 191.048116) rotate(-30) scale(0.08 -0.08)">
       <defs>
        <path id="DejaVuSerif-46" d="M 353 0 
L 353 331 
L 947 331 
L 947 4331 
L 353 4331 
L 353 4666 
L 4172 4666 
L 4172 3628 
L 3788 3628 
L 3788 4281 
L 1581 4281 
L 1581 2719 
L 3175 2719 
L 3175 3303 
L 3559 3303 
L 3559 1753 
L 3175 1753 
L 3175 2338 
L 1581 2338 
L 1581 331 
L 2328 331 
L 2328 0 
L 353 0 
z
" transform="scale(0.015625)"/>
        <path id="DejaVuSerif-62" d="M 738 331 
L 738 4531 
L 184 4531 
L 184 4863 
L 1313 4863 
L 1313 2803 
Q 1481 3116 1742 3264 
Q 2003 3413 2388 3413 
Q 3000 3413 3387 2928 
Q 3775 2444 3775 1663 
Q 3775 881 3387 395 
Q 3000 -91 2388 -91 
Q 2003 -91 1742 57 
Q 1481 206 1313 519 
L 1313 0 
L 184 0 
L 184 331 
L 738 331 
z
M 1313 1497 
Q 1313 897 1542 583 
Q 1772 269 2209 269 
Q 2650 269 2876 622 
Q 3103 975 3103 1663 
Q 3103 2353 2876 2703 
Q 2650 3053 2209 3053 
Q 1772 3053 1542 2737 
Q 1313 2422 1313 1825 
L 1313 1497 
z
" transform="scale(0.015625)"/>
       </defs>
       <use xlink:href="#DejaVuSerif-46"/>
       <use xlink:href="#DejaVuSerif-65" x="63.884766"/>
       <use xlink:href="#DejaVuSerif-62" x="123.064453"/>
       <use xlink:href="#DejaVuSerif-20" x="187.078125"/>
       <use xlink:href="#DejaVuSerif-32" x="218.865234"/>
       <use xlink:href="#DejaVuSerif-30" x="282.488281"/>
       <use xlink:href="#DejaVuSerif-32" x="346.111328"/>
       <use xlink:href="#DejaVuSerif-36" x="409.734375"/>
      </g>
     </g>
    </g>
   </g>
   <g id="matplotlib.axis_2">
    <g id="ytick_1">
     <g id="line2d_7">
      <path d="M 40.690312 153.72647 
L 495.15625 153.72647 
" clip-path="url(#pb50a886573)" style="fill: none; stroke: #b0b0b0; stroke-opacity: 0.25; stroke-width: 0.5; stroke-linecap: square"/>
     </g>
     <g id="line2d_8">
      <defs>
       <path id="mdc47a0a4cb" d="M 0 0 
L -3.5 0 
" style="stroke: #000000; stroke-width: 0.8"/>
      </defs>
      <g>
       <use xlink:href="#mdc47a0a4cb" x="40.690312" y="153.72647" style="stroke: #000000; stroke-width: 0.8"/>
      </g>
     </g>
     <g id="text_4">
      <!-- 0 -->
      <g transform="translate(28.600312 156.765845) scale(0.08 -0.08)">
       <use xlink:href="#DejaVuSerif-30"/>
      </g>
     </g>
    </g>
    <g id="ytick_2">
     <g id="line2d_9">
      <path d="M 40.690312 131.141663 
L 495.15625 131.141663 
" clip-path="url(#pb50a886573)" style="fill: none; stroke: #b0b0b0; stroke-opacity: 0.25; stroke-width: 0.5; stroke-linecap: square"/>
     </g>
     <g id="line2d_10">
      <g>
       <use xlink:href="#mdc47a0a4cb" x="40.690312" y="131.141663" style="stroke: #000000; stroke-width: 0.8"/>
      </g>
     </g>
     <g id="text_5">
      <!-- 5 -->
      <g transform="translate(28.600312 134.181038) scale(0.08 -0.08)">
       <use xlink:href="#DejaVuSerif-35"/>
      </g>
     </g>
    </g>
    <g id="ytick_3">
     <g id="line2d_11">
      <path d="M 40.690312 108.556856 
L 495.15625 108.556856 
" clip-path="url(#pb50a886573)" style="fill: none; stroke: #b0b0b0; stroke-opacity: 0.25; stroke-width: 0.5; stroke-linecap: square"/>
     </g>
     <g id="line2d_12">
      <g>
       <use xlink:href="#mdc47a0a4cb" x="40.690312" y="108.556856" style="stroke: #000000; stroke-width: 0.8"/>
      </g>
     </g>
     <g id="text_6">
      <!-- 10 -->
      <g transform="translate(23.510312 111.596231) scale(0.08 -0.08)">
       <defs>
        <path id="DejaVuSerif-31" d="M 909 0 
L 909 331 
L 1722 331 
L 1722 4213 
L 781 3603 
L 781 4013 
L 1919 4750 
L 2350 4750 
L 2350 331 
L 3163 331 
L 3163 0 
L 909 0 
z
" transform="scale(0.015625)"/>
       </defs>
       <use xlink:href="#DejaVuSerif-31"/>
       <use xlink:href="#DejaVuSerif-30" x="63.623047"/>
      </g>
     </g>
    </g>
    <g id="ytick_4">
     <g id="line2d_13">
      <path d="M 40.690312 85.97205 
L 495.15625 85.97205 
" clip-path="url(#pb50a886573)" style="fill: none; stroke: #b0b0b0; stroke-opacity: 0.25; stroke-width: 0.5; stroke-linecap: square"/>
     </g>
     <g id="line2d_14">
      <g>
       <use xlink:href="#mdc47a0a4cb" x="40.690312" y="85.97205" style="stroke: #000000; stroke-width: 0.8"/>
      </g>
     </g>
     <g id="text_7">
      <!-- 15 -->
      <g transform="translate(23.510312 89.011425) scale(0.08 -0.08)">
       <use xlink:href="#DejaVuSerif-31"/>
       <use xlink:href="#DejaVuSerif-35" x="63.623047"/>
      </g>
     </g>
    </g>
    <g id="ytick_5">
     <g id="line2d_15">
      <path d="M 40.690312 63.387243 
L 495.15625 63.387243 
" clip-path="url(#pb50a886573)" style="fill: none; stroke: #b0b0b0; stroke-opacity: 0.25; stroke-width: 0.5; stroke-linecap: square"/>
     </g>
     <g id="line2d_16">
      <g>
       <use xlink:href="#mdc47a0a4cb" x="40.690312" y="63.387243" style="stroke: #000000; stroke-width: 0.8"/>
      </g>
     </g>
     <g id="text_8">
      <!-- 20 -->
      <g transform="translate(23.510312 66.426618) scale(0.08 -0.08)">
       <use xlink:href="#DejaVuSerif-32"/>
       <use xlink:href="#DejaVuSerif-30" x="63.623047"/>
      </g>
     </g>
    </g>
    <g id="ytick_6">
     <g id="line2d_17">
      <path d="M 40.690312 40.802436 
L 495.15625 40.802436 
" clip-path="url(#pb50a886573)" style="fill: none; stroke: #b0b0b0; stroke-opacity: 0.25; stroke-width: 0.5; stroke-linecap: square"/>
     </g>
     <g id="line2d_18">
      <g>
       <use xlink:href="#mdc47a0a4cb" x="40.690312" y="40.802436" style="stroke: #000000; stroke-width: 0.8"/>
      </g>
     </g>
     <g id="text_9">
      <!-- 25 -->
      <g transform="translate(23.510312 43.841811) scale(0.08 -0.08)">
       <use xlink:href="#DejaVuSerif-32"/>
       <use xlink:href="#DejaVuSerif-35" x="63.623047"/>
      </g>
     </g>
    </g>
    <g id="text_10">
     <!-- % -->
     <g transform="translate(17.638594 96.779226) rotate(-90) scale(0.09 -0.09)">
      <defs>
       <path id="DejaVuSerif-25" d="M 1434 4459 
Q 1159 4459 1004 4200 
Q 850 3941 850 3475 
Q 850 3016 1008 2753 
Q 1166 2491 1434 2491 
Q 1700 2491 1854 2752 
Q 2009 3013 2009 3475 
Q 2009 3938 1854 4198 
Q 1700 4459 1434 4459 
z
M 4653 2169 
Q 4381 2169 4226 1906 
Q 4072 1644 4072 1178 
Q 4072 719 4228 458 
Q 4384 197 4653 197 
Q 4922 197 5075 458 
Q 5228 719 5228 1178 
Q 5228 1641 5073 1905 
Q 4919 2169 4653 2169 
z
M 4653 2450 
Q 5147 2450 5437 2106 
Q 5728 1763 5728 1178 
Q 5728 594 5436 251 
Q 5144 -91 4653 -91 
Q 4153 -91 3862 251 
Q 3572 594 3572 1178 
Q 3572 1766 3864 2108 
Q 4156 2450 4653 2450 
z
M 4263 4750 
L 4738 4750 
L 1819 -91 
L 1344 -91 
L 4263 4750 
z
M 1428 4750 
Q 1922 4750 2215 4408 
Q 2509 4066 2509 3481 
Q 2509 2891 2217 2550 
Q 1925 2209 1428 2209 
Q 931 2209 642 2551 
Q 353 2894 353 3481 
Q 353 4063 643 4406 
Q 934 4750 1428 4750 
z
" transform="scale(0.015625)"/>
      </defs>
      <use xlink:href="#DejaVuSerif-25"/>
     </g>
    </g>
   </g>
   <g id="patch_3">
    <path d="M 40.690312 159.848764 
L 40.690312 25.158281 
" style="fill: none; stroke: #000000; stroke-width: 0.6; stroke-linejoin: miter; stroke-linecap: square"/>
   </g>
   <g id="patch_4">
    <path d="M 40.690312 159.848764 
L 495.15625 159.848764 
" style="fill: none; stroke: #000000; stroke-width: 0.6; stroke-linejoin: miter; stroke-linecap: square"/>
   </g>
   <g id="line2d_19">
    <path d="M 61.347855 35.7347 
L 65.790337 35.715935 
L 70.23282 35.280738 
L 74.675302 34.954726 
L 79.117784 34.720734 
L 83.560267 34.9016 
L 88.002749 35.130981 
L 92.445231 35.322277 
L 96.887713 35.465902 
L 101.330196 35.775057 
L 105.772678 36.186195 
L 110.21516 36.659578 
L 114.657643 36.911034 
L 119.100125 37.035486 
L 123.542607 37.088767 
L 127.985089 37.225838 
L 132.427572 37.369907 
L 136.870054 37.563398 
L 141.312536 37.711231 
L 145.755018 37.782658 
L 150.197501 37.826191 
L 154.639983 37.918788 
L 159.082465 38.034242 
L 163.524948 38.163161 
L 167.96743 38.237158 
L 172.409912 38.45495 
L 176.852394 38.595558 
L 181.294877 38.727531 
L 185.737359 38.903223 
L 190.179841 39.247823 
L 194.622324 39.812296 
L 199.064806 40.405757 
L 203.507288 40.738437 
L 207.94977 40.993229 
L 212.392253 41.209796 
L 216.834735 41.316022 
L 221.277217 41.178295 
L 225.7197 40.890408 
L 230.162182 40.595378 
L 234.604664 40.152469 
L 239.047146 39.587557 
L 243.489629 39.204409 
L 247.932111 38.951276 
L 252.374593 38.643708 
L 256.817076 38.304129 
L 261.259558 37.854612 
L 265.70204 37.587454 
L 270.144522 37.726292 
L 274.587005 37.72828 
L 279.029487 37.652504 
L 283.471969 37.764569 
L 287.914452 37.850274 
L 292.356934 37.920656 
L 296.799416 38.229016 
L 301.241898 38.230488 
L 305.684381 38.302942 
L 310.126863 38.512806 
L 314.569345 39.16776 
L 319.011827 39.872782 
L 323.45431 40.247622 
L 327.896792 40.035688 
L 332.339274 39.934022 
L 336.781757 39.824297 
L 341.224239 39.609941 
L 345.666721 38.77167 
L 350.109203 38.001488 
L 354.551686 37.584642 
L 358.994168 37.675443 
L 363.43665 37.884133 
L 367.879133 38.186194 
L 372.321615 38.355626 
L 376.764097 38.447793 
L 381.206579 38.451236 
L 385.649062 37.915159 
L 390.091544 36.917241 
L 394.534026 35.972858 
L 398.976509 34.976781 
L 403.418991 33.885352 
L 407.861473 33.153973 
L 412.303955 32.251815 
L 416.746438 31.987458 
L 421.18892 32.073926 
L 425.631402 32.195168 
L 430.073885 32.848648 
L 434.516367 33.70938 
L 438.958849 33.8308 
L 443.401331 34.196816 
L 447.843814 34.595853 
L 452.286296 35.114161 
L 456.728778 35.372333 
L 461.171261 35.064269 
L 465.613743 34.837446 
L 470.056225 35.006803 
L 474.498707 35.09536 
" clip-path="url(#pb50a886573)" style="fill: none; stroke: #cc3333; stroke-width: 1.5; stroke-linecap: square"/>
   </g>
   <g id="text_11">
    <!-- Polkadot — DA Utilization (%) -->
    <g transform="translate(184.203828 19.158281) scale(0.11 -0.11)">
     <defs>
      <path id="DejaVuSerif-50" d="M 1581 2375 
L 2406 2375 
Q 2872 2375 3115 2626 
Q 3359 2878 3359 3353 
Q 3359 3831 3115 4081 
Q 2872 4331 2406 4331 
L 1581 4331 
L 1581 2375 
z
M 353 0 
L 353 331 
L 947 331 
L 947 4331 
L 353 4331 
L 353 4666 
L 2559 4666 
Q 3259 4666 3668 4311 
Q 4078 3956 4078 3353 
Q 4078 2753 3668 2397 
Q 3259 2041 2559 2041 
L 1581 2041 
L 1581 331 
L 2303 331 
L 2303 0 
L 353 0 
z
" transform="scale(0.015625)"/>
      <path id="DejaVuSerif-6f" d="M 1925 219 
Q 2388 219 2623 584 
Q 2859 950 2859 1663 
Q 2859 2375 2623 2739 
Q 2388 3103 1925 3103 
Q 1463 3103 1227 2739 
Q 991 2375 991 1663 
Q 991 950 1228 584 
Q 1466 219 1925 219 
z
M 1925 -91 
Q 1200 -91 759 389 
Q 319 869 319 1663 
Q 319 2456 758 2934 
Q 1197 3413 1925 3413 
Q 2653 3413 3092 2934 
Q 3531 2456 3531 1663 
Q 3531 869 3092 389 
Q 2653 -91 1925 -91 
z
" transform="scale(0.015625)"/>
      <path id="DejaVuSerif-6c" d="M 1313 331 
L 1856 331 
L 1856 0 
L 184 0 
L 184 331 
L 738 331 
L 738 4531 
L 184 4531 
L 184 4863 
L 1313 4863 
L 1313 331 
z
" transform="scale(0.015625)"/>
      <path id="DejaVuSerif-6b" d="M 1831 0 
L 219 0 
L 219 331 
L 738 331 
L 738 4531 
L 184 4531 
L 184 4863 
L 1313 4863 
L 1313 1697 
L 2713 2988 
L 2234 2988 
L 2234 3322 
L 3738 3322 
L 3738 2988 
L 3169 2988 
L 2181 2075 
L 3444 331 
L 3922 331 
L 3922 0 
L 2284 0 
L 2284 331 
L 2759 331 
L 1766 1697 
L 1313 1275 
L 1313 331 
L 1831 331 
L 1831 0 
z
" transform="scale(0.015625)"/>
      <path id="DejaVuSerif-64" d="M 3359 331 
L 3909 331 
L 3909 0 
L 2784 0 
L 2784 519 
Q 2616 206 2355 57 
Q 2094 -91 1709 -91 
Q 1097 -91 708 395 
Q 319 881 319 1663 
Q 319 2444 706 2928 
Q 1094 3413 1709 3413 
Q 2094 3413 2355 3264 
Q 2616 3116 2784 2803 
L 2784 4531 
L 2241 4531 
L 2241 4863 
L 3359 4863 
L 3359 331 
z
M 2784 1497 
L 2784 1825 
Q 2784 2422 2554 2737 
Q 2325 3053 1888 3053 
Q 1444 3053 1217 2703 
Q 991 2353 991 1663 
Q 991 975 1217 622 
Q 1444 269 1888 269 
Q 2325 269 2554 583 
Q 2784 897 2784 1497 
z
" transform="scale(0.015625)"/>
      <path id="DejaVuSerif-74" d="M 691 2988 
L 184 2988 
L 184 3322 
L 691 3322 
L 691 4353 
L 1269 4353 
L 1269 3322 
L 2350 3322 
L 2350 2988 
L 1269 2988 
L 1269 878 
Q 1269 456 1350 337 
Q 1431 219 1650 219 
Q 1875 219 1978 351 
Q 2081 484 2088 781 
L 2522 781 
Q 2497 328 2275 118 
Q 2053 -91 1600 -91 
Q 1103 -91 897 129 
Q 691 350 691 878 
L 691 2988 
z
" transform="scale(0.015625)"/>
      <path id="DejaVuSerif-2014" d="M 281 1906 
L 6119 1906 
L 6119 1491 
L 281 1491 
L 281 1906 
z
" transform="scale(0.015625)"/>
      <path id="DejaVuSerif-41" d="M 1281 1691 
L 2994 1691 
L 2138 3909 
L 1281 1691 
z
M -38 0 
L -38 331 
L 372 331 
L 2034 4666 
L 2559 4666 
L 4225 331 
L 4684 331 
L 4684 0 
L 2988 0 
L 2988 331 
L 3506 331 
L 3116 1356 
L 1153 1356 
L 763 331 
L 1275 331 
L 1275 0 
L -38 0 
z
" transform="scale(0.015625)"/>
      <path id="DejaVuSerif-55" d="M 897 4331 
L 300 4331 
L 300 4666 
L 2125 4666 
L 2125 4331 
L 1528 4331 
L 1528 1919 
Q 1528 1025 1820 672 
Q 2113 319 2828 319 
Q 3544 319 3836 672 
Q 4128 1025 4128 1919 
L 4128 4331 
L 3531 4331 
L 3531 4666 
L 5106 4666 
L 5106 4331 
L 4513 4331 
L 4513 1856 
Q 4513 791 4103 350 
Q 3694 -91 2713 -91 
Q 1731 -91 1314 353 
Q 897 797 897 1856 
L 897 4331 
z
" transform="scale(0.015625)"/>
      <path id="DejaVuSerif-69" d="M 622 4353 
Q 622 4497 726 4603 
Q 831 4709 978 4709 
Q 1122 4709 1226 4603 
Q 1331 4497 1331 4353 
Q 1331 4206 1228 4103 
Q 1125 4000 978 4000 
Q 831 4000 726 4103 
Q 622 4206 622 4353 
z
M 1356 331 
L 1900 331 
L 1900 0 
L 231 0 
L 231 331 
L 781 331 
L 781 2988 
L 231 2988 
L 231 3322 
L 1356 3322 
L 1356 331 
z
" transform="scale(0.015625)"/>
      <path id="DejaVuSerif-7a" d="M 256 0 
L 256 269 
L 2338 2988 
L 691 2988 
L 691 2413 
L 359 2413 
L 359 3322 
L 3078 3322 
L 3078 3053 
L 997 331 
L 2803 331 
L 2803 934 
L 3138 934 
L 3138 0 
L 256 0 
z
" transform="scale(0.015625)"/>
      <path id="DejaVuSerif-28" d="M 2041 -997 
Q 1281 -656 893 83 
Q 506 822 506 1931 
Q 506 3044 893 3783 
Q 1281 4522 2041 4863 
L 2041 4556 
Q 1559 4225 1350 3623 
Q 1141 3022 1141 1931 
Q 1141 844 1350 242 
Q 1559 -359 2041 -691 
L 2041 -997 
z
" transform="scale(0.015625)"/>
      <path id="DejaVuSerif-29" d="M 453 -997 
L 453 -691 
Q 934 -359 1145 242 
Q 1356 844 1356 1931 
Q 1356 3022 1145 3623 
Q 934 4225 453 4556 
L 453 4863 
Q 1216 4522 1603 3783 
Q 1991 3044 1991 1931 
Q 1991 822 1603 83 
Q 1216 -656 453 -997 
z
" transform="scale(0.015625)"/>
     </defs>
     <use xlink:href="#DejaVuSerif-50"/>
     <use xlink:href="#DejaVuSerif-6f" x="63.285156"/>
     <use xlink:href="#DejaVuSerif-6c" x="123.490234"/>
     <use xlink:href="#DejaVuSerif-6b" x="155.472656"/>
     <use xlink:href="#DejaVuSerif-61" x="216.068359"/>
     <use xlink:href="#DejaVuSerif-64" x="275.6875"/>
     <use xlink:href="#DejaVuSerif-6f" x="339.701172"/>
     <use xlink:href="#DejaVuSerif-74" x="399.90625"/>
     <use xlink:href="#DejaVuSerif-20" x="440.091797"/>
     <use xlink:href="#DejaVuSerif-2014" x="471.878906"/>
     <use xlink:href="#DejaVuSerif-20" x="571.878906"/>
     <use xlink:href="#DejaVuSerif-44" x="603.666016"/>
     <use xlink:href="#DejaVuSerif-41" x="683.841797"/>
     <use xlink:href="#DejaVuSerif-20" x="756.058594"/>
     <use xlink:href="#DejaVuSerif-55" x="787.845703"/>
     <use xlink:href="#DejaVuSerif-74" x="872.123047"/>
     <use xlink:href="#DejaVuSerif-69" x="912.308594"/>
     <use xlink:href="#DejaVuSerif-6c" x="944.291016"/>
     <use xlink:href="#DejaVuSerif-69" x="976.273438"/>
     <use xlink:href="#DejaVuSerif-7a" x="1008.255859"/>
     <use xlink:href="#DejaVuSerif-61" x="1060.941406"/>
     <use xlink:href="#DejaVuSerif-74" x="1120.560547"/>
     <use xlink:href="#DejaVuSerif-69" x="1160.746094"/>
     <use xlink:href="#DejaVuSerif-6f" x="1192.728516"/>
     <use xlink:href="#DejaVuSerif-6e" x="1252.933594"/>
     <use xlink:href="#DejaVuSerif-20" x="1317.337891"/>
     <use xlink:href="#DejaVuSerif-28" x="1349.125"/>
     <use xlink:href="#DejaVuSerif-25" x="1388.138672"/>
     <use xlink:href="#DejaVuSerif-29" x="1483.158203"/>
    </g>
   </g>
   <g id="legend_1">
    <g id="patch_5">
     <path d="M 421.595 55.157031 
L 489.55625 55.157031 
Q 491.15625 55.157031 491.15625 53.557031 
L 491.15625 30.758281 
Q 491.15625 29.158281 489.55625 29.158281 
L 421.595 29.158281 
Q 419.995 29.158281 419.995 30.758281 
L 419.995 53.557031 
Q 419.995 55.157031 421.595 55.157031 
z
" style="fill: #ffffff; opacity: 0.9; stroke: #cccccc; stroke-linejoin: miter"/>
    </g>
    <g id="patch_6">
     <path d="M 423.195 38.437031 
L 439.195 38.437031 
L 439.195 32.837031 
L 423.195 32.837031 
z
" style="fill: #b3cde3; fill-opacity: 0.6; stroke: #b3cde3; stroke-opacity: 0.6; stroke-linejoin: miter"/>
    </g>
    <g id="text_12">
     <!-- Utilization -->
     <g transform="translate(445.595 38.437031) scale(0.08 -0.08)">
      <use xlink:href="#DejaVuSerif-55"/>
      <use xlink:href="#DejaVuSerif-74" x="84.277344"/>
      <use xlink:href="#DejaVuSerif-69" x="124.462891"/>
      <use xlink:href="#DejaVuSerif-6c" x="156.445312"/>
      <use xlink:href="#DejaVuSerif-69" x="188.427734"/>
      <use xlink:href="#DejaVuSerif-7a" x="220.410156"/>
      <use xlink:href="#DejaVuSerif-61" x="273.095703"/>
      <use xlink:href="#DejaVuSerif-74" x="332.714844"/>
      <use xlink:href="#DejaVuSerif-69" x="372.900391"/>
      <use xlink:href="#DejaVuSerif-6f" x="404.882812"/>
      <use xlink:href="#DejaVuSerif-6e" x="465.087891"/>
     </g>
    </g>
    <g id="line2d_20">
     <path d="M 423.195 47.379531 
L 431.195 47.379531 
L 439.195 47.379531 
" style="fill: none; stroke: #cc3333; stroke-width: 1.5; stroke-linecap: square"/>
    </g>
    <g id="text_13">
     <!-- 7d avg -->
     <g transform="translate(445.595 50.179531) scale(0.08 -0.08)">
      <defs>
       <path id="DejaVuSerif-37" d="M 3609 4347 
L 1784 0 
L 1319 0 
L 3059 4153 
L 903 4153 
L 903 3578 
L 538 3578 
L 538 4666 
L 3609 4666 
L 3609 4347 
z
" transform="scale(0.015625)"/>
       <path id="DejaVuSerif-76" d="M 1581 0 
L 359 2988 
L -19 2988 
L -19 3322 
L 1509 3322 
L 1509 2988 
L 978 2988 
L 1913 703 
L 2847 2988 
L 2350 2988 
L 2350 3322 
L 3597 3322 
L 3597 2988 
L 3225 2988 
L 2003 0 
L 1581 0 
z
" transform="scale(0.015625)"/>
       <path id="DejaVuSerif-67" d="M 3359 2988 
L 3359 72 
Q 3359 -644 2965 -1033 
Q 2572 -1422 1844 -1422 
Q 1516 -1422 1216 -1362 
Q 916 -1303 641 -1184 
L 641 -488 
L 941 -488 
Q 997 -813 1206 -963 
Q 1416 -1113 1806 -1113 
Q 2313 -1113 2548 -827 
Q 2784 -541 2784 72 
L 2784 519 
Q 2616 206 2355 57 
Q 2094 -91 1709 -91 
Q 1097 -91 708 395 
Q 319 881 319 1663 
Q 319 2444 706 2928 
Q 1094 3413 1709 3413 
Q 2094 3413 2355 3264 
Q 2616 3116 2784 2803 
L 2784 3322 
L 3909 3322 
L 3909 2988 
L 3359 2988 
z
M 2784 1825 
Q 2784 2422 2554 2737 
Q 2325 3053 1888 3053 
Q 1444 3053 1217 2703 
Q 991 2353 991 1663 
Q 991 975 1217 622 
Q 1444 269 1888 269 
Q 2325 269 2554 583 
Q 2784 897 2784 1497 
L 2784 1825 
z
" transform="scale(0.015625)"/>
      </defs>
      <use xlink:href="#DejaVuSerif-37"/>
      <use xlink:href="#DejaVuSerif-64" x="63.623047"/>
      <use xlink:href="#DejaVuSerif-20" x="127.636719"/>
      <use xlink:href="#DejaVuSerif-61" x="159.423828"/>
      <use xlink:href="#DejaVuSerif-76" x="219.042969"/>
      <use xlink:href="#DejaVuSerif-67" x="275.537109"/>
     </g>
    </g>
   </g>
  </g>
 </g>
 <defs>
  <clipPath id="pb50a886573">
   <rect x="40.690312" y="25.158281" width="454.465937" height="134.690483"/>
  </clipPath>
 </defs>
</svg>
