<?xml version="1.0" encoding="utf-8" standalone="no"?>
<!DOCTYPE svg PUBLIC "-//W3C//DTD SVG 1.1//EN"
  "http://www.w3.org/Graphics/SVG/1.1/DTD/svg11.dtd">
<svg xmlns:xlink="http://www.w3.org/1999/xlink" width="506.555312pt" height="203.307687pt" viewBox="0 0 506.555312 203.307687" xmlns="http://www.w3.org/2000/svg" version="1.1">
 <metadata>
  <rdf:RDF xmlns:dc="http://purl.org/dc/elements/1.1/" xmlns:cc="http://creativecommons.org/ns#" xmlns:rdf="http://www.w3.org/1999/02/22-rdf-syntax-ns#">
   <cc:Work>
    <dc:type rdf:resource="http://purl.org/dc/dcmitype/StillImage"/>
    <dc:date>2026-02-16T16:57:26.891273</dc:date>
    <dc:format>image/svg+xml</dc:format>
    <dc:creator>
     <cc:Agent>
      <dc:title>Matplotlib v3.10.8, https://matplotlib.org/</dc:title>
     </cc:Agent>
    </dc:creator>
   </cc:Work>
  </rdf:RDF>
 </metadata>
 <defs>
  <style type="text/css">*{stroke-linejoin: round; stroke-linecap: butt}</style>
 </defs>
 <g id="figure_1">
  <g id="patch_1">
   <path d="M 0 203.307687 
L 506.555312 203.307687 
L 506.555312 0 
L 0 0 
z
" style="fill: #ffffff"/>
  </g>
  <g id="axes_1">
   <g id="patch_2">
    <path d="M 40.690312 159.53686 
L 495.755312 159.53686 
L 495.755312 25.158281 
L 40.690312 25.158281 
z
" style="fill: #ffffff"/>
   </g>
   <g id="FillBetweenPolyCollection_1">
    <defs>
     <path id="m6e09262bc0" d="M 61.375085 -167.597479 
L 61.375085 -49.878944 
L 65.823423 -49.878944 
L 70.271762 -49.878944 
L 74.7201 -49.878944 
L 79.168438 -49.878944 
L 83.616776 -49.878944 
L 88.065115 -49.878944 
L 92.513453 -49.878944 
L 96.961791 -49.878944 
L 101.410129 -49.878944 
L 105.858467 -49.878944 
L 110.306806 -49.878944 
L 114.755144 -49.878944 
L 119.203482 -49.878944 
L 123.65182 -49.878944 
L 128.100159 -49.878944 
L 132.548497 -49.878944 
L 136.996835 -49.878944 
L 141.445173 -49.878944 
L 145.893511 -49.878944 
L 150.34185 -49.878944 
L 154.790188 -49.878944 
L 159.238526 -49.878944 
L 163.686864 -49.878944 
L 168.135203 -49.878944 
L 172.583541 -49.878944 
L 177.031879 -49.878944 
L 181.480217 -49.878944 
L 185.928555 -49.878944 
L 190.376894 -49.878944 
L 194.825232 -49.878944 
L 199.27357 -49.878944 
L 203.721908 -49.878944 
L 208.170247 -49.878944 
L 212.618585 -49.878944 
L 217.066923 -49.878944 
L 221.515261 -49.878944 
L 225.963599 -49.878944 
L 230.411938 -49.878944 
L 234.860276 -49.878944 
L 239.308614 -49.878944 
L 243.756952 -49.878944 
L 248.205291 -49.878944 
L 252.653629 -49.878944 
L 257.101967 -49.878944 
L 261.550305 -49.878944 
L 265.998643 -49.878944 
L 270.446982 -49.878944 
L 274.89532 -49.878944 
L 279.343658 -49.878944 
L 283.791996 -49.878944 
L 288.240334 -49.878944 
L 292.688673 -49.878944 
L 297.137011 -49.878944 
L 301.585349 -49.878944 
L 306.033687 -49.878944 
L 310.482026 -49.878944 
L 314.930364 -49.878944 
L 319.378702 -49.878944 
L 323.82704 -49.878944 
L 328.275378 -49.878944 
L 332.723717 -49.878944 
L 337.172055 -49.878944 
L 341.620393 -49.878944 
L 346.068731 -49.878944 
L 350.51707 -49.878944 
L 354.965408 -49.878944 
L 359.413746 -49.878944 
L 363.862084 -49.878944 
L 368.310422 -49.878944 
L 372.758761 -49.878944 
L 377.207099 -49.878944 
L 381.655437 -49.878944 
L 386.103775 -49.878944 
L 390.552114 -49.878944 
L 395.000452 -49.878944 
L 399.44879 -49.878944 
L 403.897128 -49.878944 
L 408.345466 -49.878944 
L 412.793805 -49.878944 
L 417.242143 -49.878944 
L 421.690481 -49.878944 
L 426.138819 -49.878944 
L 430.587158 -49.878944 
L 435.035496 -49.878944 
L 439.483834 -49.878944 
L 443.932172 -49.878944 
L 448.38051 -49.878944 
L 452.828849 -49.878944 
L 457.277187 -49.878944 
L 461.725525 -49.878944 
L 466.173863 -49.878944 
L 470.622202 -49.878944 
L 475.07054 -49.878944 
L 475.07054 -168.251446 
L 475.07054 -168.251446 
L 470.622202 -168.502544 
L 466.173863 -167.614207 
L 461.725525 -168.576186 
L 457.277187 -168.673594 
L 452.828849 -167.757111 
L 448.38051 -168.272281 
L 443.932172 -168.86991 
L 439.483834 -169.685296 
L 435.035496 -166.030119 
L 430.587158 -166.424736 
L 426.138819 -170.476614 
L 421.690481 -171.376861 
L 417.242143 -171.059076 
L 412.793805 -171.426083 
L 408.345466 -170.533271 
L 403.897128 -172.041288 
L 399.44879 -170.988504 
L 395.000452 -171.323346 
L 390.552114 -171.980737 
L 386.103775 -169.212858 
L 381.655437 -165.125599 
L 377.207099 -165.425476 
L 372.758761 -164.418977 
L 368.310422 -164.032114 
L 363.862084 -164.727971 
L 359.413746 -165.011487 
L 354.965408 -165.469006 
L 350.51707 -165.149644 
L 346.068731 -166.069153 
L 341.620393 -165.602257 
L 337.172055 -166.141642 
L 332.723717 -166.18542 
L 328.275378 -165.645621 
L 323.82704 -162.55784 
L 319.378702 -159.770858 
L 314.930364 -160.214839 
L 310.482026 -164.105246 
L 306.033687 -165.37534 
L 301.585349 -165.47541 
L 297.137011 -164.165519 
L 292.688673 -165.175646 
L 288.240334 -164.694584 
L 283.791996 -164.7889 
L 279.343658 -165.570892 
L 274.89532 -165.881342 
L 270.446982 -165.485688 
L 265.998643 -166.319037 
L 261.550305 -165.667184 
L 257.101967 -165.293127 
L 252.653629 -165.571538 
L 248.205291 -165.041693 
L 243.756952 -165.895227 
L 239.308614 -166.4553 
L 234.860276 -164.45326 
L 230.411938 -162.527856 
L 225.963599 -162.921575 
L 221.515261 -163.423548 
L 217.066923 -163.273863 
L 212.618585 -163.219403 
L 208.170247 -162.510076 
L 203.721908 -161.360074 
L 199.27357 -160.467431 
L 194.825232 -160.911032 
L 190.376894 -162.461689 
L 185.928555 -164.015726 
L 181.480217 -164.731857 
L 177.031879 -164.289491 
L 172.583541 -163.683441 
L 168.135203 -164.612041 
L 163.686864 -164.853193 
L 159.238526 -164.8683 
L 154.790188 -165.242725 
L 150.34185 -165.653531 
L 145.893511 -165.271466 
L 141.445173 -165.204454 
L 136.996835 -165.128819 
L 132.548497 -165.753539 
L 128.100159 -165.674606 
L 123.65182 -165.8894 
L 119.203482 -165.957558 
L 114.755144 -165.770301 
L 110.306806 -166.236886 
L 105.858467 -166.480116 
L 101.410129 -166.75969 
L 96.961791 -166.631878 
L 92.513453 -166.261506 
L 88.065115 -166.826706 
L 83.616776 -167.526411 
L 79.168438 -169.542899 
L 74.7201 -169.351414 
L 70.271762 -168.918769 
L 65.823423 -167.634922 
L 61.375085 -167.597479 
z
" style="stroke: #b3cde3; stroke-opacity: 0.6"/>
    </defs>
    <g clip-path="url(#p00e0f6e3b3)">
     <use xlink:href="#m6e09262bc0" x="0" y="203.307687" style="fill: #b3cde3; fill-opacity: 0.6; stroke: #b3cde3; stroke-opacity: 0.6"/>
    </g>
   </g>
   <g id="matplotlib.axis_1">
    <g id="xtick_1">
     <g id="line2d_1">
      <path d="M 132.548497 159.53686 
L 132.548497 25.158281 
" clip-path="url(#p00e0f6e3b3)" style="fill: none; stroke: #b0b0b0; stroke-opacity: 0.25; stroke-width: 0.5; stroke-linecap: square"/>
     </g>
     <g id="line2d_2">
      <defs>
       <path id="m1aa820aac2" d="M 0 0 
L 0 3.5 
" style="stroke: #000000; stroke-width: 0.8"/>
      </defs>
      <g>
       <use xlink:href="#m1aa820aac2" x="132.548497" y="159.53686" style="stroke: #000000; stroke-width: 0.8"/>
      </g>
     </g>
     <g id="text_1">
      <!-- Dec 2025 -->
      <g transform="translate(98.34758 191.066837) rotate(-30) scale(0.08 -0.08)">
       <defs>
        <path id="DejaVuSerif-44" d="M 1581 331 
L 2163 331 
Q 3072 331 3558 850 
Q 4044 1369 4044 2338 
Q 4044 3306 3559 3818 
Q 3075 4331 2163 4331 
L 1581 4331 
L 1581 331 
z
M 353 0 
L 353 331 
L 947 331 
L 947 4331 
L 353 4331 
L 353 4666 
L 2209 4666 
Q 3416 4666 4089 4050 
Q 4763 3434 4763 2338 
Q 4763 1238 4088 619 
Q 3413 0 2209 0 
L 353 0 
z
" transform="scale(0.015625)"/>
        <path id="DejaVuSerif-65" d="M 3469 1600 
L 991 1600 
L 991 1575 
Q 991 903 1244 561 
Q 1497 219 1991 219 
Q 2369 219 2611 417 
Q 2853 616 2950 1006 
L 3413 1006 
Q 3275 459 2904 184 
Q 2534 -91 1931 -91 
Q 1203 -91 761 389 
Q 319 869 319 1663 
Q 319 2450 753 2931 
Q 1188 3413 1894 3413 
Q 2647 3413 3050 2948 
Q 3453 2484 3469 1600 
z
M 2791 1931 
Q 2772 2513 2545 2808 
Q 2319 3103 1894 3103 
Q 1497 3103 1269 2806 
Q 1041 2509 991 1931 
L 2791 1931 
z
" transform="scale(0.015625)"/>
        <path id="DejaVuSerif-63" d="M 3291 997 
Q 3169 466 2822 187 
Q 2475 -91 1925 -91 
Q 1200 -91 759 389 
Q 319 869 319 1663 
Q 319 2459 759 2936 
Q 1200 3413 1925 3413 
Q 2241 3413 2553 3339 
Q 2866 3266 3181 3116 
L 3181 2266 
L 2847 2266 
Q 2781 2703 2561 2903 
Q 2341 3103 1931 3103 
Q 1466 3103 1228 2742 
Q 991 2381 991 1663 
Q 991 944 1227 581 
Q 1463 219 1931 219 
Q 2303 219 2525 412 
Q 2747 606 2828 997 
L 3291 997 
z
" transform="scale(0.015625)"/>
        <path id="DejaVuSerif-20" transform="scale(0.015625)"/>
        <path id="DejaVuSerif-32" d="M 819 3553 
L 469 3553 
L 469 4384 
Q 803 4563 1142 4656 
Q 1481 4750 1806 4750 
Q 2534 4750 2956 4397 
Q 3378 4044 3378 3438 
Q 3378 2753 2422 1800 
Q 2347 1728 2309 1691 
L 1131 513 
L 3078 513 
L 3078 1088 
L 3444 1088 
L 3444 0 
L 434 0 
L 434 341 
L 1850 1753 
Q 2319 2222 2519 2614 
Q 2719 3006 2719 3438 
Q 2719 3909 2473 4175 
Q 2228 4441 1797 4441 
Q 1350 4441 1106 4219 
Q 863 3997 819 3553 
z
" transform="scale(0.015625)"/>
        <path id="DejaVuSerif-30" d="M 2034 219 
Q 2513 219 2750 744 
Q 2988 1269 2988 2328 
Q 2988 3391 2750 3916 
Q 2513 4441 2034 4441 
Q 1556 4441 1318 3916 
Q 1081 3391 1081 2328 
Q 1081 1269 1318 744 
Q 1556 219 2034 219 
z
M 2034 -91 
Q 1275 -91 848 546 
Q 422 1184 422 2328 
Q 422 3475 848 4112 
Q 1275 4750 2034 4750 
Q 2797 4750 3222 4112 
Q 3647 3475 3647 2328 
Q 3647 1184 3222 546 
Q 2797 -91 2034 -91 
z
" transform="scale(0.015625)"/>
        <path id="DejaVuSerif-35" d="M 3219 4666 
L 3219 4153 
L 1081 4153 
L 1081 2816 
Q 1244 2928 1461 2984 
Q 1678 3041 1947 3041 
Q 2703 3041 3140 2622 
Q 3578 2203 3578 1478 
Q 3578 738 3136 323 
Q 2694 -91 1894 -91 
Q 1572 -91 1234 -12 
Q 897 66 544 225 
L 544 1131 
L 897 1131 
Q 925 688 1179 453 
Q 1434 219 1894 219 
Q 2388 219 2653 544 
Q 2919 869 2919 1478 
Q 2919 2084 2655 2407 
Q 2391 2731 1894 2731 
Q 1613 2731 1398 2631 
Q 1184 2531 1019 2322 
L 750 2322 
L 750 4666 
L 3219 4666 
z
" transform="scale(0.015625)"/>
       </defs>
       <use xlink:href="#DejaVuSerif-44"/>
       <use xlink:href="#DejaVuSerif-65" transform="translate(80.175781 0)"/>
       <use xlink:href="#DejaVuSerif-63" transform="translate(139.355469 0)"/>
       <use xlink:href="#DejaVuSerif-20" transform="translate(195.361328 0)"/>
       <use xlink:href="#DejaVuSerif-32" transform="translate(227.148438 0)"/>
       <use xlink:href="#DejaVuSerif-30" transform="translate(290.771484 0)"/>
       <use xlink:href="#DejaVuSerif-32" transform="translate(354.394531 0)"/>
       <use xlink:href="#DejaVuSerif-35" transform="translate(418.017578 0)"/>
      </g>
     </g>
    </g>
    <g id="xtick_2">
     <g id="line2d_3">
      <path d="M 270.446982 159.53686 
L 270.446982 25.158281 
" clip-path="url(#p00e0f6e3b3)" style="fill: none; stroke: #b0b0b0; stroke-opacity: 0.25; stroke-width: 0.5; stroke-linecap: square"/>
     </g>
     <g id="line2d_4">
      <g>
       <use xlink:href="#m1aa820aac2" x="270.446982" y="159.53686" style="stroke: #000000; stroke-width: 0.8"/>
      </g>
     </g>
     <g id="text_2">
      <!-- Jan 2026 -->
      <g transform="translate(238.410046 189.817462) rotate(-30) scale(0.08 -0.08)">
       <defs>
        <path id="DejaVuSerif-4a" d="M -538 -1119 
L -538 -384 
L -181 -384 
Q -172 -694 -34 -845 
Q 103 -997 378 -997 
Q 750 -997 897 -762 
Q 1044 -528 1044 153 
L 1044 4331 
L 319 4331 
L 319 4666 
L 2272 4666 
L 2272 4331 
L 1678 4331 
L 1678 128 
Q 1678 -644 1368 -987 
Q 1059 -1331 372 -1331 
Q 150 -1331 -79 -1278 
Q -309 -1225 -538 -1119 
z
" transform="scale(0.015625)"/>
        <path id="DejaVuSerif-61" d="M 2547 1044 
L 2547 1747 
L 1806 1747 
Q 1378 1747 1168 1562 
Q 959 1378 959 997 
Q 959 650 1171 447 
Q 1384 244 1747 244 
Q 2106 244 2326 466 
Q 2547 688 2547 1044 
z
M 3122 2075 
L 3122 331 
L 3634 331 
L 3634 0 
L 2547 0 
L 2547 359 
Q 2356 128 2106 18 
Q 1856 -91 1522 -91 
Q 969 -91 644 203 
Q 319 497 319 997 
Q 319 1513 691 1797 
Q 1063 2081 1741 2081 
L 2547 2081 
L 2547 2309 
Q 2547 2688 2317 2895 
Q 2088 3103 1672 3103 
Q 1328 3103 1125 2947 
Q 922 2791 872 2484 
L 575 2484 
L 575 3156 
Q 875 3284 1158 3348 
Q 1441 3413 1709 3413 
Q 2400 3413 2761 3070 
Q 3122 2728 3122 2075 
z
" transform="scale(0.015625)"/>
        <path id="DejaVuSerif-6e" d="M 263 0 
L 263 331 
L 781 331 
L 781 2988 
L 231 2988 
L 231 3322 
L 1356 3322 
L 1356 2731 
Q 1516 3069 1770 3241 
Q 2025 3413 2363 3413 
Q 2913 3413 3172 3097 
Q 3431 2781 3431 2113 
L 3431 331 
L 3944 331 
L 3944 0 
L 2356 0 
L 2356 331 
L 2853 331 
L 2853 1931 
Q 2853 2541 2703 2767 
Q 2553 2994 2175 2994 
Q 1775 2994 1565 2701 
Q 1356 2409 1356 1850 
L 1356 331 
L 1856 331 
L 1856 0 
L 263 0 
z
" transform="scale(0.015625)"/>
        <path id="DejaVuSerif-36" d="M 2094 219 
Q 2534 219 2771 542 
Q 3009 866 3009 1472 
Q 3009 2078 2771 2401 
Q 2534 2725 2094 2725 
Q 1647 2725 1412 2412 
Q 1178 2100 1178 1509 
Q 1178 888 1415 553 
Q 1653 219 2094 219 
z
M 1075 2569 
Q 1288 2803 1556 2918 
Q 1825 3034 2163 3034 
Q 2859 3034 3264 2615 
Q 3669 2197 3669 1472 
Q 3669 763 3233 336 
Q 2797 -91 2069 -91 
Q 1278 -91 853 498 
Q 428 1088 428 2181 
Q 428 3406 931 4078 
Q 1434 4750 2350 4750 
Q 2597 4750 2869 4703 
Q 3141 4656 3425 4563 
L 3425 3794 
L 3072 3794 
Q 3034 4109 2831 4275 
Q 2628 4441 2284 4441 
Q 1678 4441 1381 3981 
Q 1084 3522 1075 2569 
z
" transform="scale(0.015625)"/>
       </defs>
       <use xlink:href="#DejaVuSerif-4a"/>
       <use xlink:href="#DejaVuSerif-61" transform="translate(40.087891 0)"/>
       <use xlink:href="#DejaVuSerif-6e" transform="translate(99.707031 0)"/>
       <use xlink:href="#DejaVuSerif-20" transform="translate(164.111328 0)"/>
       <use xlink:href="#DejaVuSerif-32" transform="translate(195.898438 0)"/>
       <use xlink:href="#DejaVuSerif-30" transform="translate(259.521484 0)"/>
       <use xlink:href="#DejaVuSerif-32" transform="translate(323.144531 0)"/>
       <use xlink:href="#DejaVuSerif-36" transform="translate(386.767578 0)"/>
      </g>
     </g>
    </g>
    <g id="xtick_3">
     <g id="line2d_5">
      <path d="M 408.345466 159.53686 
L 408.345466 25.158281 
" clip-path="url(#p00e0f6e3b3)" style="fill: none; stroke: #b0b0b0; stroke-opacity: 0.25; stroke-width: 0.5; stroke-linecap: square"/>
     </g>
     <g id="line2d_6">
      <g>
       <use xlink:href="#m1aa820aac2" x="408.345466" y="159.53686" style="stroke: #000000; stroke-width: 0.8"/>
      </g>
     </g>
     <g id="text_3">
      <!-- Feb 2026 -->
      <g transform="translate(374.717209 190.736212) rotate(-30) scale(0.08 -0.08)">
       <defs>
        <path id="DejaVuSerif-46" d="M 353 0 
L 353 331 
L 947 331 
L 947 4331 
L 353 4331 
L 353 4666 
L 4172 4666 
L 4172 3628 
L 3788 3628 
L 3788 4281 
L 1581 4281 
L 1581 2719 
L 3175 2719 
L 3175 3303 
L 3559 3303 
L 3559 1753 
L 3175 1753 
L 3175 2338 
L 1581 2338 
L 1581 331 
L 2328 331 
L 2328 0 
L 353 0 
z
" transform="scale(0.015625)"/>
        <path id="DejaVuSerif-62" d="M 738 331 
L 738 4531 
L 184 4531 
L 184 4863 
L 1313 4863 
L 1313 2803 
Q 1481 3116 1742 3264 
Q 2003 3413 2388 3413 
Q 3000 3413 3387 2928 
Q 3775 2444 3775 1663 
Q 3775 881 3387 395 
Q 3000 -91 2388 -91 
Q 2003 -91 1742 57 
Q 1481 206 1313 519 
L 1313 0 
L 184 0 
L 184 331 
L 738 331 
z
M 1313 1497 
Q 1313 897 1542 583 
Q 1772 269 2209 269 
Q 2650 269 2876 622 
Q 3103 975 3103 1663 
Q 3103 2353 2876 2703 
Q 2650 3053 2209 3053 
Q 1772 3053 1542 2737 
Q 1313 2422 1313 1825 
L 1313 1497 
z
" transform="scale(0.015625)"/>
       </defs>
       <use xlink:href="#DejaVuSerif-46"/>
       <use xlink:href="#DejaVuSerif-65" transform="translate(63.884766 0)"/>
       <use xlink:href="#DejaVuSerif-62" transform="translate(123.064453 0)"/>
       <use xlink:href="#DejaVuSerif-20" transform="translate(187.078125 0)"/>
       <use xlink:href="#DejaVuSerif-32" transform="translate(218.865234 0)"/>
       <use xlink:href="#DejaVuSerif-30" transform="translate(282.488281 0)"/>
       <use xlink:href="#DejaVuSerif-32" transform="translate(346.111328 0)"/>
       <use xlink:href="#DejaVuSerif-36" transform="translate(409.734375 0)"/>
      </g>
     </g>
    </g>
   </g>
   <g id="matplotlib.axis_2">
    <g id="ytick_1">
     <g id="line2d_7">
      <path d="M 40.690312 153.428743 
L 495.755312 153.428743 
" clip-path="url(#p00e0f6e3b3)" style="fill: none; stroke: #b0b0b0; stroke-opacity: 0.25; stroke-width: 0.5; stroke-linecap: square"/>
     </g>
     <g id="line2d_8">
      <defs>
       <path id="meb500679b3" d="M 0 0 
L -3.5 0 
" style="stroke: #000000; stroke-width: 0.8"/>
      </defs>
      <g>
       <use xlink:href="#meb500679b3" x="40.690312" y="153.428743" style="stroke: #000000; stroke-width: 0.8"/>
      </g>
     </g>
     <g id="text_4">
      <!-- 0 -->
      <g transform="translate(28.600312 156.468118) scale(0.08 -0.08)">
       <use xlink:href="#DejaVuSerif-30"/>
      </g>
     </g>
    </g>
    <g id="ytick_2">
     <g id="line2d_9">
      <path d="M 40.690312 130.896236 
L 495.755312 130.896236 
" clip-path="url(#p00e0f6e3b3)" style="fill: none; stroke: #b0b0b0; stroke-opacity: 0.25; stroke-width: 0.5; stroke-linecap: square"/>
     </g>
     <g id="line2d_10">
      <g>
       <use xlink:href="#meb500679b3" x="40.690312" y="130.896236" style="stroke: #000000; stroke-width: 0.8"/>
      </g>
     </g>
     <g id="text_5">
      <!-- 5 -->
      <g transform="translate(28.600312 133.935611) scale(0.08 -0.08)">
       <use xlink:href="#DejaVuSerif-35"/>
      </g>
     </g>
    </g>
    <g id="ytick_3">
     <g id="line2d_11">
      <path d="M 40.690312 108.363729 
L 495.755312 108.363729 
" clip-path="url(#p00e0f6e3b3)" style="fill: none; stroke: #b0b0b0; stroke-opacity: 0.25; stroke-width: 0.5; stroke-linecap: square"/>
     </g>
     <g id="line2d_12">
      <g>
       <use xlink:href="#meb500679b3" x="40.690312" y="108.363729" style="stroke: #000000; stroke-width: 0.8"/>
      </g>
     </g>
     <g id="text_6">
      <!-- 10 -->
      <g transform="translate(23.510312 111.403104) scale(0.08 -0.08)">
       <defs>
        <path id="DejaVuSerif-31" d="M 909 0 
L 909 331 
L 1722 331 
L 1722 4213 
L 781 3603 
L 781 4013 
L 1919 4750 
L 2350 4750 
L 2350 331 
L 3163 331 
L 3163 0 
L 909 0 
z
" transform="scale(0.015625)"/>
       </defs>
       <use xlink:href="#DejaVuSerif-31"/>
       <use xlink:href="#DejaVuSerif-30" transform="translate(63.623047 0)"/>
      </g>
     </g>
    </g>
    <g id="ytick_4">
     <g id="line2d_13">
      <path d="M 40.690312 85.831222 
L 495.755312 85.831222 
" clip-path="url(#p00e0f6e3b3)" style="fill: none; stroke: #b0b0b0; stroke-opacity: 0.25; stroke-width: 0.5; stroke-linecap: square"/>
     </g>
     <g id="line2d_14">
      <g>
       <use xlink:href="#meb500679b3" x="40.690312" y="85.831222" style="stroke: #000000; stroke-width: 0.8"/>
      </g>
     </g>
     <g id="text_7">
      <!-- 15 -->
      <g transform="translate(23.510312 88.870597) scale(0.08 -0.08)">
       <use xlink:href="#DejaVuSerif-31"/>
       <use xlink:href="#DejaVuSerif-35" transform="translate(63.623047 0)"/>
      </g>
     </g>
    </g>
    <g id="ytick_5">
     <g id="line2d_15">
      <path d="M 40.690312 63.298716 
L 495.755312 63.298716 
" clip-path="url(#p00e0f6e3b3)" style="fill: none; stroke: #b0b0b0; stroke-opacity: 0.25; stroke-width: 0.5; stroke-linecap: square"/>
     </g>
     <g id="line2d_16">
      <g>
       <use xlink:href="#meb500679b3" x="40.690312" y="63.298716" style="stroke: #000000; stroke-width: 0.8"/>
      </g>
     </g>
     <g id="text_8">
      <!-- 20 -->
      <g transform="translate(23.510312 66.338091) scale(0.08 -0.08)">
       <use xlink:href="#DejaVuSerif-32"/>
       <use xlink:href="#DejaVuSerif-30" transform="translate(63.623047 0)"/>
      </g>
     </g>
    </g>
    <g id="ytick_6">
     <g id="line2d_17">
      <path d="M 40.690312 40.766209 
L 495.755312 40.766209 
" clip-path="url(#p00e0f6e3b3)" style="fill: none; stroke: #b0b0b0; stroke-opacity: 0.25; stroke-width: 0.5; stroke-linecap: square"/>
     </g>
     <g id="line2d_18">
      <g>
       <use xlink:href="#meb500679b3" x="40.690312" y="40.766209" style="stroke: #000000; stroke-width: 0.8"/>
      </g>
     </g>
     <g id="text_9">
      <!-- 25 -->
      <g transform="translate(23.510312 43.805584) scale(0.08 -0.08)">
       <use xlink:href="#DejaVuSerif-32"/>
       <use xlink:href="#DejaVuSerif-35" transform="translate(63.623047 0)"/>
      </g>
     </g>
    </g>
    <g id="text_10">
     <!-- % -->
     <g transform="translate(17.638594 96.623274) rotate(-90) scale(0.09 -0.09)">
      <defs>
       <path id="DejaVuSerif-25" d="M 1434 4459 
Q 1159 4459 1004 4200 
Q 850 3941 850 3475 
Q 850 3016 1008 2753 
Q 1166 2491 1434 2491 
Q 1700 2491 1854 2752 
Q 2009 3013 2009 3475 
Q 2009 3938 1854 4198 
Q 1700 4459 1434 4459 
z
M 4653 2169 
Q 4381 2169 4226 1906 
Q 4072 1644 4072 1178 
Q 4072 719 4228 458 
Q 4384 197 4653 197 
Q 4922 197 5075 458 
Q 5228 719 5228 1178 
Q 5228 1641 5073 1905 
Q 4919 2169 4653 2169 
z
M 4653 2450 
Q 5147 2450 5437 2106 
Q 5728 1763 5728 1178 
Q 5728 594 5436 251 
Q 5144 -91 4653 -91 
Q 4153 -91 3862 251 
Q 3572 594 3572 1178 
Q 3572 1766 3864 2108 
Q 4156 2450 4653 2450 
z
M 4263 4750 
L 4738 4750 
L 1819 -91 
L 1344 -91 
L 4263 4750 
z
M 1428 4750 
Q 1922 4750 2215 4408 
Q 2509 4066 2509 3481 
Q 2509 2891 2217 2550 
Q 1925 2209 1428 2209 
Q 931 2209 642 2551 
Q 353 2894 353 3481 
Q 353 4063 643 4406 
Q 934 4750 1428 4750 
z
" transform="scale(0.015625)"/>
      </defs>
      <use xlink:href="#DejaVuSerif-25"/>
     </g>
    </g>
   </g>
   <g id="patch_3">
    <path d="M 40.690312 159.53686 
L 40.690312 25.158281 
" style="fill: none; stroke: #000000; stroke-width: 0.6; stroke-linejoin: miter; stroke-linecap: square"/>
   </g>
   <g id="patch_4">
    <path d="M 40.690313 159.53686 
L 495.755312 159.53686 
" style="fill: none; stroke: #000000; stroke-width: 0.6; stroke-linejoin: miter; stroke-linecap: square"/>
   </g>
   <g id="line2d_19">
    <path d="M 61.375085 35.710208 
L 65.823423 35.691486 
L 70.271762 35.257297 
L 74.7201 34.932041 
L 79.168438 34.69859 
L 83.616776 34.879038 
L 88.065115 35.107887 
L 92.513453 35.29874 
L 96.961791 35.442032 
L 101.410129 35.750472 
L 105.858467 36.160657 
L 110.306806 36.632945 
L 114.755144 36.883818 
L 119.203482 37.007982 
L 123.65182 37.06114 
L 128.100159 37.197893 
L 132.548497 37.341629 
L 136.996835 37.534671 
L 141.445173 37.682162 
L 145.893511 37.753424 
L 150.34185 37.796856 
L 154.790188 37.889238 
L 159.238526 38.004425 
L 163.686864 38.133046 
L 168.135203 38.206871 
L 172.583541 38.424158 
L 177.031879 38.564441 
L 181.480217 38.696108 
L 185.928555 38.871394 
L 190.376894 39.215195 
L 194.825232 39.778361 
L 199.27357 40.370448 
L 203.721908 40.702358 
L 208.170247 40.95656 
L 212.618585 41.172625 
L 217.066923 41.278606 
L 221.515261 41.141197 
L 225.963599 40.853977 
L 230.411938 40.55963 
L 234.860276 40.117747 
L 239.308614 39.554143 
L 243.756952 39.171883 
L 248.205291 38.919335 
L 252.653629 38.61248 
L 257.101967 38.273687 
L 261.550305 37.825211 
L 265.998643 37.558672 
L 270.446982 37.697188 
L 274.89532 37.699171 
L 279.343658 37.623571 
L 283.791996 37.735377 
L 288.240334 37.820883 
L 292.688673 37.891103 
L 297.137011 38.198748 
L 301.585349 38.200216 
L 306.033687 38.272502 
L 310.482026 38.48188 
L 314.930364 39.135318 
L 319.378702 39.838707 
L 323.82704 40.212679 
L 328.275378 40.001236 
L 332.723717 39.899806 
L 337.172055 39.790334 
L 341.620393 39.576475 
L 346.068731 38.740145 
L 350.51707 37.971747 
L 354.965408 37.555866 
L 359.413746 37.646457 
L 363.862084 37.854664 
L 368.310422 38.156025 
L 372.758761 38.325065 
L 377.207099 38.417019 
L 381.655437 38.420454 
L 386.103775 37.885618 
L 390.552114 36.890011 
L 395.000452 35.947814 
L 399.44879 34.954044 
L 403.897128 33.865143 
L 408.345466 33.135458 
L 412.793805 32.235389 
L 417.242143 31.971643 
L 421.690481 32.057911 
L 426.138819 32.178873 
L 430.587158 32.83084 
L 435.035496 33.689578 
L 439.483834 33.810717 
L 443.932172 34.175885 
L 448.38051 34.573998 
L 452.828849 35.091106 
L 457.277187 35.34868 
L 461.725525 35.04133 
L 466.173863 34.815032 
L 470.622202 34.983996 
L 475.07054 35.072348 
" clip-path="url(#p00e0f6e3b3)" style="fill: none; stroke: #cc3333; stroke-width: 1.5; stroke-linecap: square"/>
   </g>
   <g id="text_11">
    <!-- Polkadot — DA Utilization (%) -->
    <g transform="translate(184.503359 19.158281) scale(0.11 -0.11)">
     <defs>
      <path id="DejaVuSerif-50" d="M 1581 2375 
L 2406 2375 
Q 2872 2375 3115 2626 
Q 3359 2878 3359 3353 
Q 3359 3831 3115 4081 
Q 2872 4331 2406 4331 
L 1581 4331 
L 1581 2375 
z
M 353 0 
L 353 331 
L 947 331 
L 947 4331 
L 353 4331 
L 353 4666 
L 2559 4666 
Q 3259 4666 3668 4311 
Q 4078 3956 4078 3353 
Q 4078 2753 3668 2397 
Q 3259 2041 2559 2041 
L 1581 2041 
L 1581 331 
L 2303 331 
L 2303 0 
L 353 0 
z
" transform="scale(0.015625)"/>
      <path id="DejaVuSerif-6f" d="M 1925 219 
Q 2388 219 2623 584 
Q 2859 950 2859 1663 
Q 2859 2375 2623 2739 
Q 2388 3103 1925 3103 
Q 1463 3103 1227 2739 
Q 991 2375 991 1663 
Q 991 950 1228 584 
Q 1466 219 1925 219 
z
M 1925 -91 
Q 1200 -91 759 389 
Q 319 869 319 1663 
Q 319 2456 758 2934 
Q 1197 3413 1925 3413 
Q 2653 3413 3092 2934 
Q 3531 2456 3531 1663 
Q 3531 869 3092 389 
Q 2653 -91 1925 -91 
z
" transform="scale(0.015625)"/>
      <path id="DejaVuSerif-6c" d="M 1313 331 
L 1856 331 
L 1856 0 
L 184 0 
L 184 331 
L 738 331 
L 738 4531 
L 184 4531 
L 184 4863 
L 1313 4863 
L 1313 331 
z
" transform="scale(0.015625)"/>
      <path id="DejaVuSerif-6b" d="M 1831 0 
L 219 0 
L 219 331 
L 738 331 
L 738 4531 
L 184 4531 
L 184 4863 
L 1313 4863 
L 1313 1697 
L 2713 2988 
L 2234 2988 
L 2234 3322 
L 3738 3322 
L 3738 2988 
L 3169 2988 
L 2181 2075 
L 3444 331 
L 3922 331 
L 3922 0 
L 2284 0 
L 2284 331 
L 2759 331 
L 1766 1697 
L 1313 1275 
L 1313 331 
L 1831 331 
L 1831 0 
z
" transform="scale(0.015625)"/>
      <path id="DejaVuSerif-64" d="M 3359 331 
L 3909 331 
L 3909 0 
L 2784 0 
L 2784 519 
Q 2616 206 2355 57 
Q 2094 -91 1709 -91 
Q 1097 -91 708 395 
Q 319 881 319 1663 
Q 319 2444 706 2928 
Q 1094 3413 1709 3413 
Q 2094 3413 2355 3264 
Q 2616 3116 2784 2803 
L 2784 4531 
L 2241 4531 
L 2241 4863 
L 3359 4863 
L 3359 331 
z
M 2784 1497 
L 2784 1825 
Q 2784 2422 2554 2737 
Q 2325 3053 1888 3053 
Q 1444 3053 1217 2703 
Q 991 2353 991 1663 
Q 991 975 1217 622 
Q 1444 269 1888 269 
Q 2325 269 2554 583 
Q 2784 897 2784 1497 
z
" transform="scale(0.015625)"/>
      <path id="DejaVuSerif-74" d="M 691 2988 
L 184 2988 
L 184 3322 
L 691 3322 
L 691 4353 
L 1269 4353 
L 1269 3322 
L 2350 3322 
L 2350 2988 
L 1269 2988 
L 1269 878 
Q 1269 456 1350 337 
Q 1431 219 1650 219 
Q 1875 219 1978 351 
Q 2081 484 2088 781 
L 2522 781 
Q 2497 328 2275 118 
Q 2053 -91 1600 -91 
Q 1103 -91 897 129 
Q 691 350 691 878 
L 691 2988 
z
" transform="scale(0.015625)"/>
      <path id="DejaVuSerif-2014" d="M 281 1906 
L 6119 1906 
L 6119 1491 
L 281 1491 
L 281 1906 
z
" transform="scale(0.015625)"/>
      <path id="DejaVuSerif-41" d="M 1281 1691 
L 2994 1691 
L 2138 3909 
L 1281 1691 
z
M -38 0 
L -38 331 
L 372 331 
L 2034 4666 
L 2559 4666 
L 4225 331 
L 4684 331 
L 4684 0 
L 2988 0 
L 2988 331 
L 3506 331 
L 3116 1356 
L 1153 1356 
L 763 331 
L 1275 331 
L 1275 0 
L -38 0 
z
" transform="scale(0.015625)"/>
      <path id="DejaVuSerif-55" d="M 897 4331 
L 300 4331 
L 300 4666 
L 2125 4666 
L 2125 4331 
L 1528 4331 
L 1528 1919 
Q 1528 1025 1820 672 
Q 2113 319 2828 319 
Q 3544 319 3836 672 
Q 4128 1025 4128 1919 
L 4128 4331 
L 3531 4331 
L 3531 4666 
L 5106 4666 
L 5106 4331 
L 4513 4331 
L 4513 1856 
Q 4513 791 4103 350 
Q 3694 -91 2713 -91 
Q 1731 -91 1314 353 
Q 897 797 897 1856 
L 897 4331 
z
" transform="scale(0.015625)"/>
      <path id="DejaVuSerif-69" d="M 622 4353 
Q 622 4497 726 4603 
Q 831 4709 978 4709 
Q 1122 4709 1226 4603 
Q 1331 4497 1331 4353 
Q 1331 4206 1228 4103 
Q 1125 4000 978 4000 
Q 831 4000 726 4103 
Q 622 4206 622 4353 
z
M 1356 331 
L 1900 331 
L 1900 0 
L 231 0 
L 231 331 
L 781 331 
L 781 2988 
L 231 2988 
L 231 3322 
L 1356 3322 
L 1356 331 
z
" transform="scale(0.015625)"/>
      <path id="DejaVuSerif-7a" d="M 256 0 
L 256 269 
L 2338 2988 
L 691 2988 
L 691 2413 
L 359 2413 
L 359 3322 
L 3078 3322 
L 3078 3053 
L 997 331 
L 2803 331 
L 2803 934 
L 3138 934 
L 3138 0 
L 256 0 
z
" transform="scale(0.015625)"/>
      <path id="DejaVuSerif-28" d="M 2041 -997 
Q 1281 -656 893 83 
Q 506 822 506 1931 
Q 506 3044 893 3783 
Q 1281 4522 2041 4863 
L 2041 4556 
Q 1559 4225 1350 3623 
Q 1141 3022 1141 1931 
Q 1141 844 1350 242 
Q 1559 -359 2041 -691 
L 2041 -997 
z
" transform="scale(0.015625)"/>
      <path id="DejaVuSerif-29" d="M 453 -997 
L 453 -691 
Q 934 -359 1145 242 
Q 1356 844 1356 1931 
Q 1356 3022 1145 3623 
Q 934 4225 453 4556 
L 453 4863 
Q 1216 4522 1603 3783 
Q 1991 3044 1991 1931 
Q 1991 822 1603 83 
Q 1216 -656 453 -997 
z
" transform="scale(0.015625)"/>
     </defs>
     <use xlink:href="#DejaVuSerif-50"/>
     <use xlink:href="#DejaVuSerif-6f" transform="translate(63.285156 0)"/>
     <use xlink:href="#DejaVuSerif-6c" transform="translate(123.490234 0)"/>
     <use xlink:href="#DejaVuSerif-6b" transform="translate(155.472656 0)"/>
     <use xlink:href="#DejaVuSerif-61" transform="translate(216.068359 0)"/>
     <use xlink:href="#DejaVuSerif-64" transform="translate(275.6875 0)"/>
     <use xlink:href="#DejaVuSerif-6f" transform="translate(339.701172 0)"/>
     <use xlink:href="#DejaVuSerif-74" transform="translate(399.90625 0)"/>
     <use xlink:href="#DejaVuSerif-20" transform="translate(440.091797 0)"/>
     <use xlink:href="#DejaVuSerif-2014" transform="translate(471.878906 0)"/>
     <use xlink:href="#DejaVuSerif-20" transform="translate(571.878906 0)"/>
     <use xlink:href="#DejaVuSerif-44" transform="translate(603.666016 0)"/>
     <use xlink:href="#DejaVuSerif-41" transform="translate(683.841797 0)"/>
     <use xlink:href="#DejaVuSerif-20" transform="translate(756.058594 0)"/>
     <use xlink:href="#DejaVuSerif-55" transform="translate(787.845703 0)"/>
     <use xlink:href="#DejaVuSerif-74" transform="translate(872.123047 0)"/>
     <use xlink:href="#DejaVuSerif-69" transform="translate(912.308594 0)"/>
     <use xlink:href="#DejaVuSerif-6c" transform="translate(944.291016 0)"/>
     <use xlink:href="#DejaVuSerif-69" transform="translate(976.273438 0)"/>
     <use xlink:href="#DejaVuSerif-7a" transform="translate(1008.255859 0)"/>
     <use xlink:href="#DejaVuSerif-61" transform="translate(1060.941406 0)"/>
     <use xlink:href="#DejaVuSerif-74" transform="translate(1120.560547 0)"/>
     <use xlink:href="#DejaVuSerif-69" transform="translate(1160.746094 0)"/>
     <use xlink:href="#DejaVuSerif-6f" transform="translate(1192.728516 0)"/>
     <use xlink:href="#DejaVuSerif-6e" transform="translate(1252.933594 0)"/>
     <use xlink:href="#DejaVuSerif-20" transform="translate(1317.337891 0)"/>
     <use xlink:href="#DejaVuSerif-28" transform="translate(1349.125 0)"/>
     <use xlink:href="#DejaVuSerif-25" transform="translate(1388.138672 0)"/>
     <use xlink:href="#DejaVuSerif-29" transform="translate(1483.158203 0)"/>
    </g>
   </g>
   <g id="legend_1">
    <g id="patch_5">
     <path d="M 422.194062 55.157031 
L 490.155312 55.157031 
Q 491.755312 55.157031 491.755312 53.557031 
L 491.755312 30.758281 
Q 491.755312 29.158281 490.155312 29.158281 
L 422.194062 29.158281 
Q 420.594062 29.158281 420.594062 30.758281 
L 420.594062 53.557031 
Q 420.594062 55.157031 422.194062 55.157031 
z
" style="fill: #ffffff; opacity: 0.9; stroke: #cccccc; stroke-linejoin: miter"/>
    </g>
    <g id="patch_6">
     <path d="M 423.794062 38.437031 
L 439.794062 38.437031 
L 439.794062 32.837031 
L 423.794062 32.837031 
z
" style="fill: #b3cde3; fill-opacity: 0.6; stroke: #b3cde3; stroke-opacity: 0.6; stroke-linejoin: miter"/>
    </g>
    <g id="text_12">
     <!-- Utilization -->
     <g transform="translate(446.194062 38.437031) scale(0.08 -0.08)">
      <use xlink:href="#DejaVuSerif-55"/>
      <use xlink:href="#DejaVuSerif-74" transform="translate(84.277344 0)"/>
      <use xlink:href="#DejaVuSerif-69" transform="translate(124.462891 0)"/>
      <use xlink:href="#DejaVuSerif-6c" transform="translate(156.445312 0)"/>
      <use xlink:href="#DejaVuSerif-69" transform="translate(188.427734 0)"/>
      <use xlink:href="#DejaVuSerif-7a" transform="translate(220.410156 0)"/>
      <use xlink:href="#DejaVuSerif-61" transform="translate(273.095703 0)"/>
      <use xlink:href="#DejaVuSerif-74" transform="translate(332.714844 0)"/>
      <use xlink:href="#DejaVuSerif-69" transform="translate(372.900391 0)"/>
      <use xlink:href="#DejaVuSerif-6f" transform="translate(404.882812 0)"/>
      <use xlink:href="#DejaVuSerif-6e" transform="translate(465.087891 0)"/>
     </g>
    </g>
    <g id="line2d_20">
     <path d="M 423.794062 47.379531 
L 431.794062 47.379531 
L 439.794062 47.379531 
" style="fill: none; stroke: #cc3333; stroke-width: 1.5; stroke-linecap: square"/>
    </g>
    <g id="text_13">
     <!-- 7d avg -->
     <g transform="translate(446.194062 50.179531) scale(0.08 -0.08)">
      <defs>
       <path id="DejaVuSerif-37" d="M 3609 4347 
L 1784 0 
L 1319 0 
L 3059 4153 
L 903 4153 
L 903 3578 
L 538 3578 
L 538 4666 
L 3609 4666 
L 3609 4347 
z
" transform="scale(0.015625)"/>
       <path id="DejaVuSerif-76" d="M 1581 0 
L 359 2988 
L -19 2988 
L -19 3322 
L 1509 3322 
L 1509 2988 
L 978 2988 
L 1913 703 
L 2847 2988 
L 2350 2988 
L 2350 3322 
L 3597 3322 
L 3597 2988 
L 3225 2988 
L 2003 0 
L 1581 0 
z
" transform="scale(0.015625)"/>
       <path id="DejaVuSerif-67" d="M 3359 2988 
L 3359 72 
Q 3359 -644 2965 -1033 
Q 2572 -1422 1844 -1422 
Q 1516 -1422 1216 -1362 
Q 916 -1303 641 -1184 
L 641 -488 
L 941 -488 
Q 997 -813 1206 -963 
Q 1416 -1113 1806 -1113 
Q 2313 -1113 2548 -827 
Q 2784 -541 2784 72 
L 2784 519 
Q 2616 206 2355 57 
Q 2094 -91 1709 -91 
Q 1097 -91 708 395 
Q 319 881 319 1663 
Q 319 2444 706 2928 
Q 1094 3413 1709 3413 
Q 2094 3413 2355 3264 
Q 2616 3116 2784 2803 
L 2784 3322 
L 3909 3322 
L 3909 2988 
L 3359 2988 
z
M 2784 1825 
Q 2784 2422 2554 2737 
Q 2325 3053 1888 3053 
Q 1444 3053 1217 2703 
Q 991 2353 991 1663 
Q 991 975 1217 622 
Q 1444 269 1888 269 
Q 2325 269 2554 583 
Q 2784 897 2784 1497 
L 2784 1825 
z
" transform="scale(0.015625)"/>
      </defs>
      <use xlink:href="#DejaVuSerif-37"/>
      <use xlink:href="#DejaVuSerif-64" transform="translate(63.623047 0)"/>
      <use xlink:href="#DejaVuSerif-20" transform="translate(127.636719 0)"/>
      <use xlink:href="#DejaVuSerif-61" transform="translate(159.423828 0)"/>
      <use xlink:href="#DejaVuSerif-76" transform="translate(219.042969 0)"/>
      <use xlink:href="#DejaVuSerif-67" transform="translate(275.537109 0)"/>
     </g>
    </g>
   </g>
  </g>
 </g>
 <defs>
  <clipPath id="p00e0f6e3b3">
   <rect x="40.690312" y="25.158281" width="455.065" height="134.378579"/>
  </clipPath>
 </defs>
</svg>
