<?xml version="1.0" encoding="utf-8" standalone="no"?>
<!DOCTYPE svg PUBLIC "-//W3C//DTD SVG 1.1//EN"
  "http://www.w3.org/Graphics/SVG/1.1/DTD/svg11.dtd">
<svg xmlns:xlink="http://www.w3.org/1999/xlink" width="505.93875pt" height="254.013966pt" viewBox="0 0 505.93875 254.013966" xmlns="http://www.w3.org/2000/svg" version="1.1">
 <metadata>
  <rdf:RDF xmlns:dc="http://purl.org/dc/elements/1.1/" xmlns:cc="http://creativecommons.org/ns#" xmlns:rdf="http://www.w3.org/1999/02/22-rdf-syntax-ns#">
   <cc:Work>
    <dc:type rdf:resource="http://purl.org/dc/dcmitype/StillImage"/>
    <dc:date>2026-02-16T20:27:12.986545</dc:date>
    <dc:format>image/svg+xml</dc:format>
    <dc:creator>
     <cc:Agent>
      <dc:title>Matplotlib v3.9.4, https://matplotlib.org/</dc:title>
     </cc:Agent>
    </dc:creator>
   </cc:Work>
  </rdf:RDF>
 </metadata>
 <defs>
  <style type="text/css">*{stroke-linejoin: round; stroke-linecap: butt}</style>
 </defs>
 <g id="figure_1">
  <g id="patch_1">
   <path d="M 0 254.013966 
L 505.93875 254.013966 
L 505.93875 -0 
L 0 -0 
z
" style="fill: #ffffff"/>
  </g>
  <g id="axes_1">
   <g id="patch_2">
    <path d="M 45.780313 210.243139 
L 495.13875 210.243139 
L 495.13875 25.158281 
L 45.780313 25.158281 
z
" style="fill: #ffffff"/>
   </g>
   <g id="matplotlib.axis_1">
    <g id="xtick_1">
     <g id="line2d_1">
      <path d="M 138.03122 210.243139 
L 138.03122 25.158281 
" clip-path="url(#pc973a73ed6)" style="fill: none; stroke: #b0b0b0; stroke-opacity: 0.25; stroke-width: 0.5; stroke-linecap: square"/>
     </g>
     <g id="line2d_2">
      <defs>
       <path id="m51426f9430" d="M 0 0 
L 0 3.5 
" style="stroke: #000000; stroke-width: 0.8"/>
      </defs>
      <g>
       <use xlink:href="#m51426f9430" x="138.03122" y="210.243139" style="stroke: #000000; stroke-width: 0.8"/>
      </g>
     </g>
     <g id="text_1">
      <!-- Dec 2025 -->
      <g transform="translate(103.830304 241.773116) rotate(-30) scale(0.08 -0.08)">
       <defs>
        <path id="DejaVuSerif-44" d="M 1581 331 
L 2163 331 
Q 3072 331 3558 850 
Q 4044 1369 4044 2338 
Q 4044 3306 3559 3818 
Q 3075 4331 2163 4331 
L 1581 4331 
L 1581 331 
z
M 353 0 
L 353 331 
L 947 331 
L 947 4331 
L 353 4331 
L 353 4666 
L 2209 4666 
Q 3416 4666 4089 4050 
Q 4763 3434 4763 2338 
Q 4763 1238 4088 619 
Q 3413 0 2209 0 
L 353 0 
z
" transform="scale(0.015625)"/>
        <path id="DejaVuSerif-65" d="M 3469 1600 
L 991 1600 
L 991 1575 
Q 991 903 1244 561 
Q 1497 219 1991 219 
Q 2369 219 2611 417 
Q 2853 616 2950 1006 
L 3413 1006 
Q 3275 459 2904 184 
Q 2534 -91 1931 -91 
Q 1203 -91 761 389 
Q 319 869 319 1663 
Q 319 2450 753 2931 
Q 1188 3413 1894 3413 
Q 2647 3413 3050 2948 
Q 3453 2484 3469 1600 
z
M 2791 1931 
Q 2772 2513 2545 2808 
Q 2319 3103 1894 3103 
Q 1497 3103 1269 2806 
Q 1041 2509 991 1931 
L 2791 1931 
z
" transform="scale(0.015625)"/>
        <path id="DejaVuSerif-63" d="M 3291 997 
Q 3169 466 2822 187 
Q 2475 -91 1925 -91 
Q 1200 -91 759 389 
Q 319 869 319 1663 
Q 319 2459 759 2936 
Q 1200 3413 1925 3413 
Q 2241 3413 2553 3339 
Q 2866 3266 3181 3116 
L 3181 2266 
L 2847 2266 
Q 2781 2703 2561 2903 
Q 2341 3103 1931 3103 
Q 1466 3103 1228 2742 
Q 991 2381 991 1663 
Q 991 944 1227 581 
Q 1463 219 1931 219 
Q 2303 219 2525 412 
Q 2747 606 2828 997 
L 3291 997 
z
" transform="scale(0.015625)"/>
        <path id="DejaVuSerif-20" transform="scale(0.015625)"/>
        <path id="DejaVuSerif-32" d="M 819 3553 
L 469 3553 
L 469 4384 
Q 803 4563 1142 4656 
Q 1481 4750 1806 4750 
Q 2534 4750 2956 4397 
Q 3378 4044 3378 3438 
Q 3378 2753 2422 1800 
Q 2347 1728 2309 1691 
L 1131 513 
L 3078 513 
L 3078 1088 
L 3444 1088 
L 3444 0 
L 434 0 
L 434 341 
L 1850 1753 
Q 2319 2222 2519 2614 
Q 2719 3006 2719 3438 
Q 2719 3909 2473 4175 
Q 2228 4441 1797 4441 
Q 1350 4441 1106 4219 
Q 863 3997 819 3553 
z
" transform="scale(0.015625)"/>
        <path id="DejaVuSerif-30" d="M 2034 219 
Q 2513 219 2750 744 
Q 2988 1269 2988 2328 
Q 2988 3391 2750 3916 
Q 2513 4441 2034 4441 
Q 1556 4441 1318 3916 
Q 1081 3391 1081 2328 
Q 1081 1269 1318 744 
Q 1556 219 2034 219 
z
M 2034 -91 
Q 1275 -91 848 546 
Q 422 1184 422 2328 
Q 422 3475 848 4112 
Q 1275 4750 2034 4750 
Q 2797 4750 3222 4112 
Q 3647 3475 3647 2328 
Q 3647 1184 3222 546 
Q 2797 -91 2034 -91 
z
" transform="scale(0.015625)"/>
        <path id="DejaVuSerif-35" d="M 3219 4666 
L 3219 4153 
L 1081 4153 
L 1081 2816 
Q 1244 2928 1461 2984 
Q 1678 3041 1947 3041 
Q 2703 3041 3140 2622 
Q 3578 2203 3578 1478 
Q 3578 738 3136 323 
Q 2694 -91 1894 -91 
Q 1572 -91 1234 -12 
Q 897 66 544 225 
L 544 1131 
L 897 1131 
Q 925 688 1179 453 
Q 1434 219 1894 219 
Q 2388 219 2653 544 
Q 2919 869 2919 1478 
Q 2919 2084 2655 2407 
Q 2391 2731 1894 2731 
Q 1613 2731 1398 2631 
Q 1184 2531 1019 2322 
L 750 2322 
L 750 4666 
L 3219 4666 
z
" transform="scale(0.015625)"/>
       </defs>
       <use xlink:href="#DejaVuSerif-44"/>
       <use xlink:href="#DejaVuSerif-65" x="80.175781"/>
       <use xlink:href="#DejaVuSerif-63" x="139.355469"/>
       <use xlink:href="#DejaVuSerif-20" x="195.361328"/>
       <use xlink:href="#DejaVuSerif-32" x="227.148438"/>
       <use xlink:href="#DejaVuSerif-30" x="290.771484"/>
       <use xlink:href="#DejaVuSerif-32" x="354.394531"/>
       <use xlink:href="#DejaVuSerif-35" x="418.017578"/>
      </g>
     </g>
    </g>
    <g id="xtick_2">
     <g id="line2d_3">
      <path d="M 277.193174 210.243139 
L 277.193174 25.158281 
" clip-path="url(#pc973a73ed6)" style="fill: none; stroke: #b0b0b0; stroke-opacity: 0.25; stroke-width: 0.5; stroke-linecap: square"/>
     </g>
     <g id="line2d_4">
      <g>
       <use xlink:href="#m51426f9430" x="277.193174" y="210.243139" style="stroke: #000000; stroke-width: 0.8"/>
      </g>
     </g>
     <g id="text_2">
      <!-- Jan 2026 -->
      <g transform="translate(245.156239 240.523741) rotate(-30) scale(0.08 -0.08)">
       <defs>
        <path id="DejaVuSerif-4a" d="M -538 -1119 
L -538 -384 
L -181 -384 
Q -172 -694 -34 -845 
Q 103 -997 378 -997 
Q 750 -997 897 -762 
Q 1044 -528 1044 153 
L 1044 4331 
L 319 4331 
L 319 4666 
L 2272 4666 
L 2272 4331 
L 1678 4331 
L 1678 128 
Q 1678 -644 1368 -987 
Q 1059 -1331 372 -1331 
Q 150 -1331 -79 -1278 
Q -309 -1225 -538 -1119 
z
" transform="scale(0.015625)"/>
        <path id="DejaVuSerif-61" d="M 2547 1044 
L 2547 1747 
L 1806 1747 
Q 1378 1747 1168 1562 
Q 959 1378 959 997 
Q 959 650 1171 447 
Q 1384 244 1747 244 
Q 2106 244 2326 466 
Q 2547 688 2547 1044 
z
M 3122 2075 
L 3122 331 
L 3634 331 
L 3634 0 
L 2547 0 
L 2547 359 
Q 2356 128 2106 18 
Q 1856 -91 1522 -91 
Q 969 -91 644 203 
Q 319 497 319 997 
Q 319 1513 691 1797 
Q 1063 2081 1741 2081 
L 2547 2081 
L 2547 2309 
Q 2547 2688 2317 2895 
Q 2088 3103 1672 3103 
Q 1328 3103 1125 2947 
Q 922 2791 872 2484 
L 575 2484 
L 575 3156 
Q 875 3284 1158 3348 
Q 1441 3413 1709 3413 
Q 2400 3413 2761 3070 
Q 3122 2728 3122 2075 
z
" transform="scale(0.015625)"/>
        <path id="DejaVuSerif-6e" d="M 263 0 
L 263 331 
L 781 331 
L 781 2988 
L 231 2988 
L 231 3322 
L 1356 3322 
L 1356 2731 
Q 1516 3069 1770 3241 
Q 2025 3413 2363 3413 
Q 2913 3413 3172 3097 
Q 3431 2781 3431 2113 
L 3431 331 
L 3944 331 
L 3944 0 
L 2356 0 
L 2356 331 
L 2853 331 
L 2853 1931 
Q 2853 2541 2703 2767 
Q 2553 2994 2175 2994 
Q 1775 2994 1565 2701 
Q 1356 2409 1356 1850 
L 1356 331 
L 1856 331 
L 1856 0 
L 263 0 
z
" transform="scale(0.015625)"/>
        <path id="DejaVuSerif-36" d="M 2094 219 
Q 2534 219 2771 542 
Q 3009 866 3009 1472 
Q 3009 2078 2771 2401 
Q 2534 2725 2094 2725 
Q 1647 2725 1412 2412 
Q 1178 2100 1178 1509 
Q 1178 888 1415 553 
Q 1653 219 2094 219 
z
M 1075 2569 
Q 1288 2803 1556 2918 
Q 1825 3034 2163 3034 
Q 2859 3034 3264 2615 
Q 3669 2197 3669 1472 
Q 3669 763 3233 336 
Q 2797 -91 2069 -91 
Q 1278 -91 853 498 
Q 428 1088 428 2181 
Q 428 3406 931 4078 
Q 1434 4750 2350 4750 
Q 2597 4750 2869 4703 
Q 3141 4656 3425 4563 
L 3425 3794 
L 3072 3794 
Q 3034 4109 2831 4275 
Q 2628 4441 2284 4441 
Q 1678 4441 1381 3981 
Q 1084 3522 1075 2569 
z
" transform="scale(0.015625)"/>
       </defs>
       <use xlink:href="#DejaVuSerif-4a"/>
       <use xlink:href="#DejaVuSerif-61" x="40.087891"/>
       <use xlink:href="#DejaVuSerif-6e" x="99.707031"/>
       <use xlink:href="#DejaVuSerif-20" x="164.111328"/>
       <use xlink:href="#DejaVuSerif-32" x="195.898438"/>
       <use xlink:href="#DejaVuSerif-30" x="259.521484"/>
       <use xlink:href="#DejaVuSerif-32" x="323.144531"/>
       <use xlink:href="#DejaVuSerif-36" x="386.767578"/>
      </g>
     </g>
    </g>
    <g id="xtick_3">
     <g id="line2d_5">
      <path d="M 416.355128 210.243139 
L 416.355128 25.158281 
" clip-path="url(#pc973a73ed6)" style="fill: none; stroke: #b0b0b0; stroke-opacity: 0.25; stroke-width: 0.5; stroke-linecap: square"/>
     </g>
     <g id="line2d_6">
      <g>
       <use xlink:href="#m51426f9430" x="416.355128" y="210.243139" style="stroke: #000000; stroke-width: 0.8"/>
      </g>
     </g>
     <g id="text_3">
      <!-- Feb 2026 -->
      <g transform="translate(382.726871 241.442491) rotate(-30) scale(0.08 -0.08)">
       <defs>
        <path id="DejaVuSerif-46" d="M 353 0 
L 353 331 
L 947 331 
L 947 4331 
L 353 4331 
L 353 4666 
L 4172 4666 
L 4172 3628 
L 3788 3628 
L 3788 4281 
L 1581 4281 
L 1581 2719 
L 3175 2719 
L 3175 3303 
L 3559 3303 
L 3559 1753 
L 3175 1753 
L 3175 2338 
L 1581 2338 
L 1581 331 
L 2328 331 
L 2328 0 
L 353 0 
z
" transform="scale(0.015625)"/>
        <path id="DejaVuSerif-62" d="M 738 331 
L 738 4531 
L 184 4531 
L 184 4863 
L 1313 4863 
L 1313 2803 
Q 1481 3116 1742 3264 
Q 2003 3413 2388 3413 
Q 3000 3413 3387 2928 
Q 3775 2444 3775 1663 
Q 3775 881 3387 395 
Q 3000 -91 2388 -91 
Q 2003 -91 1742 57 
Q 1481 206 1313 519 
L 1313 0 
L 184 0 
L 184 331 
L 738 331 
z
M 1313 1497 
Q 1313 897 1542 583 
Q 1772 269 2209 269 
Q 2650 269 2876 622 
Q 3103 975 3103 1663 
Q 3103 2353 2876 2703 
Q 2650 3053 2209 3053 
Q 1772 3053 1542 2737 
Q 1313 2422 1313 1825 
L 1313 1497 
z
" transform="scale(0.015625)"/>
       </defs>
       <use xlink:href="#DejaVuSerif-46"/>
       <use xlink:href="#DejaVuSerif-65" x="63.884766"/>
       <use xlink:href="#DejaVuSerif-62" x="123.064453"/>
       <use xlink:href="#DejaVuSerif-20" x="187.078125"/>
       <use xlink:href="#DejaVuSerif-32" x="218.865234"/>
       <use xlink:href="#DejaVuSerif-30" x="282.488281"/>
       <use xlink:href="#DejaVuSerif-32" x="346.111328"/>
       <use xlink:href="#DejaVuSerif-36" x="409.734375"/>
      </g>
     </g>
    </g>
   </g>
   <g id="matplotlib.axis_2">
    <g id="ytick_1">
     <g id="line2d_7">
      <path d="M 45.780313 201.908644 
L 495.13875 201.908644 
" clip-path="url(#pc973a73ed6)" style="fill: none; stroke: #b0b0b0; stroke-opacity: 0.25; stroke-width: 0.5; stroke-linecap: square"/>
     </g>
     <g id="line2d_8">
      <defs>
       <path id="mf9c5924fb8" d="M 0 0 
L -3.5 0 
" style="stroke: #000000; stroke-width: 0.8"/>
      </defs>
      <g>
       <use xlink:href="#mf9c5924fb8" x="45.780313" y="201.908644" style="stroke: #000000; stroke-width: 0.8"/>
      </g>
     </g>
     <g id="text_4">
      <!-- 0 -->
      <g transform="translate(33.690313 204.948019) scale(0.08 -0.08)">
       <use xlink:href="#DejaVuSerif-30"/>
      </g>
     </g>
    </g>
    <g id="ytick_2">
     <g id="line2d_9">
      <path d="M 45.780313 171.661933 
L 495.13875 171.661933 
" clip-path="url(#pc973a73ed6)" style="fill: none; stroke: #b0b0b0; stroke-opacity: 0.25; stroke-width: 0.5; stroke-linecap: square"/>
     </g>
     <g id="line2d_10">
      <g>
       <use xlink:href="#mf9c5924fb8" x="45.780313" y="171.661933" style="stroke: #000000; stroke-width: 0.8"/>
      </g>
     </g>
     <g id="text_5">
      <!-- 50 -->
      <g transform="translate(28.600313 174.701308) scale(0.08 -0.08)">
       <use xlink:href="#DejaVuSerif-35"/>
       <use xlink:href="#DejaVuSerif-30" x="63.623047"/>
      </g>
     </g>
    </g>
    <g id="ytick_3">
     <g id="line2d_11">
      <path d="M 45.780313 141.415222 
L 495.13875 141.415222 
" clip-path="url(#pc973a73ed6)" style="fill: none; stroke: #b0b0b0; stroke-opacity: 0.25; stroke-width: 0.5; stroke-linecap: square"/>
     </g>
     <g id="line2d_12">
      <g>
       <use xlink:href="#mf9c5924fb8" x="45.780313" y="141.415222" style="stroke: #000000; stroke-width: 0.8"/>
      </g>
     </g>
     <g id="text_6">
      <!-- 100 -->
      <g transform="translate(23.510313 144.454597) scale(0.08 -0.08)">
       <defs>
        <path id="DejaVuSerif-31" d="M 909 0 
L 909 331 
L 1722 331 
L 1722 4213 
L 781 3603 
L 781 4013 
L 1919 4750 
L 2350 4750 
L 2350 331 
L 3163 331 
L 3163 0 
L 909 0 
z
" transform="scale(0.015625)"/>
       </defs>
       <use xlink:href="#DejaVuSerif-31"/>
       <use xlink:href="#DejaVuSerif-30" x="63.623047"/>
       <use xlink:href="#DejaVuSerif-30" x="127.246094"/>
      </g>
     </g>
    </g>
    <g id="ytick_4">
     <g id="line2d_13">
      <path d="M 45.780313 111.16851 
L 495.13875 111.16851 
" clip-path="url(#pc973a73ed6)" style="fill: none; stroke: #b0b0b0; stroke-opacity: 0.25; stroke-width: 0.5; stroke-linecap: square"/>
     </g>
     <g id="line2d_14">
      <g>
       <use xlink:href="#mf9c5924fb8" x="45.780313" y="111.16851" style="stroke: #000000; stroke-width: 0.8"/>
      </g>
     </g>
     <g id="text_7">
      <!-- 150 -->
      <g transform="translate(23.510313 114.207885) scale(0.08 -0.08)">
       <use xlink:href="#DejaVuSerif-31"/>
       <use xlink:href="#DejaVuSerif-35" x="63.623047"/>
       <use xlink:href="#DejaVuSerif-30" x="127.246094"/>
      </g>
     </g>
    </g>
    <g id="ytick_5">
     <g id="line2d_15">
      <path d="M 45.780313 80.921799 
L 495.13875 80.921799 
" clip-path="url(#pc973a73ed6)" style="fill: none; stroke: #b0b0b0; stroke-opacity: 0.25; stroke-width: 0.5; stroke-linecap: square"/>
     </g>
     <g id="line2d_16">
      <g>
       <use xlink:href="#mf9c5924fb8" x="45.780313" y="80.921799" style="stroke: #000000; stroke-width: 0.8"/>
      </g>
     </g>
     <g id="text_8">
      <!-- 200 -->
      <g transform="translate(23.510313 83.961174) scale(0.08 -0.08)">
       <use xlink:href="#DejaVuSerif-32"/>
       <use xlink:href="#DejaVuSerif-30" x="63.623047"/>
       <use xlink:href="#DejaVuSerif-30" x="127.246094"/>
      </g>
     </g>
    </g>
    <g id="ytick_6">
     <g id="line2d_17">
      <path d="M 45.780313 50.675088 
L 495.13875 50.675088 
" clip-path="url(#pc973a73ed6)" style="fill: none; stroke: #b0b0b0; stroke-opacity: 0.25; stroke-width: 0.5; stroke-linecap: square"/>
     </g>
     <g id="line2d_18">
      <g>
       <use xlink:href="#mf9c5924fb8" x="45.780313" y="50.675088" style="stroke: #000000; stroke-width: 0.8"/>
      </g>
     </g>
     <g id="text_9">
      <!-- 250 -->
      <g transform="translate(23.510313 53.714463) scale(0.08 -0.08)">
       <use xlink:href="#DejaVuSerif-32"/>
       <use xlink:href="#DejaVuSerif-35" x="63.623047"/>
       <use xlink:href="#DejaVuSerif-30" x="127.246094"/>
      </g>
     </g>
    </g>
    <g id="text_10">
     <!-- % -->
     <g transform="translate(17.638594 121.976413) rotate(-90) scale(0.09 -0.09)">
      <defs>
       <path id="DejaVuSerif-25" d="M 1434 4459 
Q 1159 4459 1004 4200 
Q 850 3941 850 3475 
Q 850 3016 1008 2753 
Q 1166 2491 1434 2491 
Q 1700 2491 1854 2752 
Q 2009 3013 2009 3475 
Q 2009 3938 1854 4198 
Q 1700 4459 1434 4459 
z
M 4653 2169 
Q 4381 2169 4226 1906 
Q 4072 1644 4072 1178 
Q 4072 719 4228 458 
Q 4384 197 4653 197 
Q 4922 197 5075 458 
Q 5228 719 5228 1178 
Q 5228 1641 5073 1905 
Q 4919 2169 4653 2169 
z
M 4653 2450 
Q 5147 2450 5437 2106 
Q 5728 1763 5728 1178 
Q 5728 594 5436 251 
Q 5144 -91 4653 -91 
Q 4153 -91 3862 251 
Q 3572 594 3572 1178 
Q 3572 1766 3864 2108 
Q 4156 2450 4653 2450 
z
M 4263 4750 
L 4738 4750 
L 1819 -91 
L 1344 -91 
L 4263 4750 
z
M 1428 4750 
Q 1922 4750 2215 4408 
Q 2509 4066 2509 3481 
Q 2509 2891 2217 2550 
Q 1925 2209 1428 2209 
Q 931 2209 642 2551 
Q 353 2894 353 3481 
Q 353 4063 643 4406 
Q 934 4750 1428 4750 
z
" transform="scale(0.015625)"/>
      </defs>
      <use xlink:href="#DejaVuSerif-25"/>
     </g>
    </g>
   </g>
   <g id="line2d_19">
    <path d="M 66.205696 186.106592 
L 70.694791 186.104079 
L 75.183887 186.045795 
L 79.672982 186.002134 
L 84.162077 185.970796 
L 88.651172 185.995019 
L 93.140268 186.025739 
L 97.629363 186.051358 
L 102.118458 186.070593 
L 106.607554 186.111997 
L 111.096649 186.167058 
L 115.585744 186.230456 
L 120.074839 186.264132 
L 124.563935 186.2808 
L 129.05303 186.287935 
L 133.542125 186.306292 
L 138.03122 186.325587 
L 142.520316 186.3515 
L 147.009411 186.371299 
L 151.498506 186.380865 
L 155.987602 186.386695 
L 160.476697 186.399096 
L 164.965792 186.414558 
L 169.454887 186.431824 
L 173.943983 186.441734 
L 178.433078 186.470901 
L 182.922173 186.489732 
L 187.411269 186.507407 
L 191.900364 186.530936 
L 196.389459 186.577087 
L 200.878554 186.652684 
L 205.36765 186.732163 
L 209.856745 186.776717 
L 214.34584 186.810841 
L 218.834936 186.839844 
L 223.324031 186.854071 
L 227.813126 186.835625 
L 232.302221 186.79707 
L 236.791317 186.757558 
L 241.280412 186.698242 
L 245.769507 186.622586 
L 250.258602 186.571273 
L 254.747698 186.537372 
L 259.236793 186.496181 
L 263.725888 186.450703 
L 268.214984 186.390501 
L 272.704079 186.354722 
L 277.193174 186.373316 
L 281.682269 186.373582 
L 286.171365 186.363434 
L 290.66046 186.378442 
L 295.149555 186.38992 
L 299.638651 186.399346 
L 304.127746 186.440643 
L 308.616841 186.44084 
L 313.105936 186.450544 
L 317.595032 186.47865 
L 322.084127 186.566364 
L 326.573222 186.660784 
L 331.062318 186.710985 
L 335.551413 186.682602 
L 340.040508 186.668986 
L 344.529603 186.654291 
L 349.018699 186.625584 
L 353.507794 186.513318 
L 357.996889 186.410171 
L 362.485984 186.354345 
L 366.97508 186.366506 
L 371.464175 186.394455 
L 375.95327 186.434908 
L 380.442366 186.457599 
L 384.931461 186.469943 
L 389.420556 186.470404 
L 393.909651 186.39861 
L 398.398747 186.264964 
L 402.887842 186.138487 
L 407.376937 186.005087 
L 411.866033 185.858918 
L 416.355128 185.760968 
L 420.844223 185.640146 
L 425.333318 185.604742 
L 429.822414 185.616322 
L 434.311509 185.63256 
L 438.800604 185.720077 
L 443.2897 185.835351 
L 447.778795 185.851612 
L 452.26789 185.900631 
L 456.756985 185.954072 
L 461.246081 186.023486 
L 465.735176 186.058062 
L 470.224271 186.016804 
L 474.713366 185.986427 
" clip-path="url(#pc973a73ed6)" style="fill: none; stroke: #e6194b; stroke-width: 1.3; stroke-linecap: square"/>
   </g>
   <g id="line2d_20">
    <path d="M 66.205696 164.11623 
L 70.694791 163.713579 
L 75.183887 163.796845 
L 79.672982 163.805795 
L 84.162077 163.518063 
L 88.651172 163.734787 
L 93.140268 163.658244 
L 97.629363 163.766168 
L 102.118458 164.322917 
L 106.607554 164.161262 
L 111.096649 164.192535 
L 115.585744 164.543148 
L 120.074839 164.717866 
L 124.563935 165.508279 
L 129.05303 166.296344 
L 133.542125 166.830333 
L 138.03122 167.329524 
L 142.520316 167.212074 
L 147.009411 166.893171 
L 151.498506 166.833841 
L 155.987602 166.745675 
L 160.476697 166.319023 
L 164.965792 165.999418 
L 169.454887 166.252178 
L 173.943983 168.822361 
L 178.433078 171.463281 
L 182.922173 173.939506 
L 187.411269 175.928285 
L 191.900364 178.038564 
L 196.389459 180.098779 
L 200.878554 181.973531 
L 205.36765 182.036865 
L 209.856745 181.539014 
L 214.34584 181.113901 
L 218.834936 181.31515 
L 223.324031 181.560727 
L 227.813126 181.786451 
L 232.302221 181.930543 
L 236.791317 182.16897 
L 241.280412 183.044871 
L 245.769507 184.053278 
L 250.258602 184.458959 
L 254.747698 184.566256 
L 259.236793 184.716694 
L 263.725888 184.924264 
L 268.214984 184.91923 
L 272.704079 185.104881 
L 277.193174 185.264786 
L 281.682269 185.102493 
L 286.171365 184.686559 
L 290.66046 184.192766 
L 295.149555 183.814962 
L 299.638651 183.472516 
L 304.127746 183.005278 
L 308.616841 182.285394 
L 313.105936 181.956292 
L 317.595032 181.955213 
L 322.084127 182.165848 
L 326.573222 182.329142 
L 331.062318 181.963482 
L 335.551413 182.427065 
L 340.040508 182.944074 
L 344.529603 183.379839 
L 349.018699 183.243565 
L 353.507794 183.459381 
L 357.996889 183.80455 
L 362.485984 184.357679 
L 366.97508 183.918787 
L 371.464175 183.182543 
L 375.95327 182.693248 
L 380.442366 182.848928 
L 384.931461 182.596474 
L 389.420556 182.360428 
L 393.909651 182.41449 
L 398.398747 182.472409 
L 402.887842 182.699524 
L 407.376937 182.78664 
L 411.866033 182.533934 
L 416.355128 182.449889 
L 420.844223 182.285687 
L 425.333318 182.159958 
L 429.822414 182.172211 
L 434.311509 181.495824 
L 438.800604 181.301484 
L 443.2897 181.513536 
L 447.778795 181.61588 
L 452.26789 181.760797 
L 456.756985 182.062835 
L 461.246081 182.206886 
L 465.735176 183.184947 
L 470.224271 183.703285 
L 474.713366 183.953374 
" clip-path="url(#pc973a73ed6)" style="fill: none; stroke: #3366cc; stroke-width: 1.3; stroke-linecap: square"/>
   </g>
   <g id="line2d_21">
    <path d="M 66.205696 199.209223 
L 70.694791 199.229832 
L 75.183887 199.147473 
L 79.672982 199.017168 
L 84.162077 198.926666 
L 88.651172 198.76114 
L 93.140268 198.631625 
L 97.629363 198.617557 
L 102.118458 198.573098 
L 106.607554 198.524015 
L 111.096649 198.48673 
L 115.585744 198.469241 
L 120.074839 198.616793 
L 124.563935 198.787642 
L 129.05303 198.783347 
L 133.542125 198.79926 
L 138.03122 198.83719 
L 142.520316 198.916623 
L 147.009411 199.006644 
L 151.498506 199.019255 
L 155.987602 199.013405 
L 160.476697 199.022652 
L 164.965792 199.022968 
L 169.454887 198.879738 
L 173.943983 198.892071 
L 178.433078 198.883402 
L 182.922173 198.880703 
L 187.411269 198.900206 
L 191.900364 198.900425 
L 196.389459 198.916963 
L 200.878554 198.238221 
L 205.36765 178.102697 
L 209.856745 146.414019 
L 214.34584 113.155846 
L 218.834936 79.862562 
L 223.324031 46.756716 
L 227.813126 33.571229 
L 232.302221 34.368135 
L 236.791317 54.43897 
L 241.280412 86.078104 
L 245.769507 119.278729 
L 250.258602 152.499972 
L 254.747698 185.535513 
L 259.236793 198.649059 
L 263.725888 198.636914 
L 268.214984 198.645774 
L 272.704079 198.636308 
L 277.193174 198.615831 
L 281.682269 198.605523 
L 286.171365 198.603994 
L 290.66046 198.592216 
L 295.149555 198.180931 
L 299.638651 198.177191 
L 304.127746 198.167909 
L 308.616841 198.184425 
L 313.105936 198.244225 
L 317.595032 198.29023 
L 322.084127 198.350151 
L 326.573222 198.815407 
L 331.062318 198.88169 
L 335.551413 198.957932 
L 340.040508 199.018081 
L 344.529603 198.976106 
L 349.018699 198.886199 
L 353.507794 198.790334 
L 357.996889 198.689771 
L 362.485984 198.604923 
L 366.97508 198.516503 
L 371.464175 198.422932 
L 375.95327 198.334878 
L 380.442366 198.330912 
L 384.931461 198.344772 
L 389.420556 198.359893 
L 393.909651 198.345402 
L 398.398747 198.277448 
L 402.887842 198.133136 
L 407.376937 198.123448 
L 411.866033 198.074442 
L 416.355128 198.015235 
L 420.844223 197.95218 
L 425.333318 197.901079 
L 429.822414 197.919096 
L 434.311509 197.95989 
L 438.800604 197.94266 
L 443.2897 197.944554 
L 447.778795 197.9164 
L 452.26789 197.925315 
L 456.756985 197.902428 
L 461.246081 197.849386 
L 465.735176 197.850616 
L 470.224271 197.843427 
L 474.713366 197.826468 
" clip-path="url(#pc973a73ed6)" style="fill: none; stroke: #f58231; stroke-width: 1.3; stroke-linecap: square"/>
   </g>
   <g id="line2d_22">
    <path d="M 70.694791 201.180209 
L 75.183887 201.357081 
L 79.672982 201.059485 
L 84.162077 200.859141 
L 88.651172 200.763818 
L 93.140268 200.667978 
L 97.629363 200.591021 
L 102.118458 200.463385 
L 106.607554 200.27672 
L 111.096649 200.237915 
L 115.585744 200.232642 
L 120.074839 200.304409 
L 124.563935 200.527539 
L 129.05303 200.750739 
L 133.542125 200.946959 
L 138.03122 201.142165 
L 142.520316 201.283652 
L 147.009411 201.46857 
L 151.498506 201.5549 
L 155.987602 201.535121 
L 160.476697 201.524947 
L 164.965792 201.519462 
L 169.454887 201.532148 
L 173.943983 201.605174 
L 178.433078 201.64332 
L 182.922173 201.683931 
L 187.411269 201.708646 
L 191.900364 201.732856 
L 196.389459 201.756195 
L 200.878554 201.76343 
L 205.36765 201.780697 
L 209.856745 201.784522 
L 214.34584 201.786957 
L 218.834936 201.783317 
L 223.324031 201.775292 
L 227.813126 201.566538 
L 232.302221 201.361995 
L 236.791317 201.152055 
L 241.280412 200.954112 
L 245.769507 200.742313 
L 250.258602 200.531607 
L 254.747698 200.328403 
L 259.236793 200.327284 
L 263.725888 200.319182 
L 268.214984 200.271369 
L 272.704079 200.231207 
L 277.193174 200.214328 
L 281.682269 200.202773 
L 286.171365 200.175999 
L 290.66046 200.149851 
L 295.149555 200.135343 
L 299.638651 200.165687 
L 304.127746 200.178424 
L 308.616841 200.227005 
L 313.105936 200.455852 
L 317.595032 200.694427 
L 322.084127 200.935876 
L 326.573222 201.175236 
L 331.062318 201.405137 
L 335.551413 201.633009 
L 340.040508 201.818792 
L 344.529603 201.822116 
L 349.018699 201.825968 
L 353.507794 201.826638 
L 357.996889 201.827201 
L 362.485984 201.824999 
L 366.97508 201.822474 
L 371.464175 201.817626 
L 375.95327 201.814779 
L 380.442366 201.810728 
L 384.931461 201.807512 
L 389.420556 201.805805 
L 393.909651 201.803253 
L 398.398747 201.801437 
L 402.887842 201.80067 
L 407.376937 201.802465 
L 411.866033 201.806529 
L 416.355128 201.809903 
L 420.844223 201.810506 
L 425.333318 201.810384 
L 429.822414 201.810834 
L 434.311509 201.809317 
L 438.800604 201.807824 
L 443.2897 201.804704 
L 447.778795 201.805108 
L 452.26789 201.807399 
L 456.756985 201.812199 
L 461.246081 201.816097 
L 465.735176 201.820524 
L 470.224271 201.823923 
L 474.713366 201.830191 
" clip-path="url(#pc973a73ed6)" style="fill: none; stroke: #911eb4; stroke-width: 1.3; stroke-linecap: square"/>
   </g>
   <g id="line2d_23">
    <path d="M 66.205696 201.787578 
L 70.694791 201.787818 
L 75.183887 201.78841 
L 79.672982 201.788653 
L 84.162077 201.788688 
L 88.651172 201.788812 
L 93.140268 201.789287 
L 97.629363 201.789747 
L 102.118458 201.790525 
L 106.607554 201.791276 
L 111.096649 201.790777 
L 115.585744 201.792134 
L 120.074839 201.792183 
L 124.563935 201.792122 
L 129.05303 201.793056 
L 133.542125 201.793511 
L 138.03122 201.793525 
L 142.520316 201.793958 
L 147.009411 201.79117 
L 151.498506 201.790881 
L 155.987602 201.791825 
L 160.476697 201.792077 
L 164.965792 201.792457 
L 169.454887 201.793157 
L 173.943983 201.792824 
L 178.433078 201.794875 
L 182.922173 201.795938 
L 187.411269 201.796697 
L 191.900364 201.797518 
L 196.389459 201.797451 
L 200.878554 201.796646 
L 205.36765 201.79779 
L 209.856745 201.798301 
L 214.34584 201.798296 
L 218.834936 201.797678 
L 223.324031 201.796911 
L 227.813126 201.796068 
L 232.302221 201.796173 
L 236.791317 201.794792 
L 241.280412 201.792646 
L 245.769507 201.791095 
L 250.258602 201.790654 
L 254.747698 201.790939 
L 259.236793 201.792475 
L 263.725888 201.79406 
L 268.214984 201.795246 
L 272.704079 201.797964 
L 277.193174 201.800778 
L 281.682269 201.801952 
L 286.171365 201.802209 
L 290.66046 201.802084 
L 295.149555 201.801763 
L 299.638651 201.802376 
L 304.127746 201.802566 
L 308.616841 201.801803 
L 313.105936 201.801841 
L 317.595032 201.801882 
L 322.084127 201.802661 
L 326.573222 201.80318 
L 331.062318 201.806536 
L 335.551413 201.803968 
L 340.040508 201.804107 
L 344.529603 201.804555 
L 349.018699 201.805018 
L 353.507794 201.804848 
L 357.996889 201.804653 
L 362.485984 201.800598 
L 366.97508 201.801679 
L 371.464175 201.802551 
L 375.95327 201.802434 
L 380.442366 201.802402 
L 384.931461 201.802223 
L 389.420556 201.802451 
L 393.909651 201.803843 
L 398.398747 201.805438 
L 402.887842 201.804971 
L 407.376937 201.804328 
L 411.866033 201.803666 
L 416.355128 201.80358 
L 420.844223 201.803325 
L 425.333318 201.80272 
L 429.822414 201.802731 
L 434.311509 201.80243 
L 438.800604 201.802602 
L 443.2897 201.803369 
L 447.778795 201.803831 
L 452.26789 201.804515 
L 456.756985 201.805551 
" clip-path="url(#pc973a73ed6)" style="fill: none; stroke: #42d4f4; stroke-width: 1.3; stroke-linecap: square"/>
   </g>
   <g id="line2d_24">
    <path d="M 70.694791 201.710013 
L 75.183887 201.6149 
L 79.672982 201.592842 
L 84.162077 201.588295 
L 88.651172 201.578615 
L 93.140268 201.58242 
L 97.629363 201.591273 
L 102.118458 201.586669 
L 106.607554 201.601421 
L 111.096649 201.610017 
L 115.585744 201.624043 
L 120.074839 201.640982 
L 124.563935 201.637 
L 129.05303 201.64647 
L 133.542125 201.644244 
L 138.03122 201.661323 
L 142.520316 201.682622 
L 147.009411 201.69525 
L 151.498506 201.705139 
L 155.987602 201.566634 
L 160.476697 201.292532 
L 164.965792 201.025197 
L 169.454887 200.743454 
L 173.943983 200.452343 
L 178.433078 200.168058 
L 182.922173 199.880916 
L 187.411269 199.944874 
L 191.900364 200.175637 
L 196.389459 200.419765 
L 200.878554 200.66162 
L 205.36765 200.908404 
L 209.856745 201.147622 
L 214.34584 201.403633 
L 218.834936 201.471456 
L 223.324031 201.492454 
L 227.813126 201.495807 
L 232.302221 201.502017 
L 236.791317 201.508652 
L 241.280412 201.518051 
L 245.769507 201.519938 
L 250.258602 201.514833 
L 254.747698 201.507886 
L 259.236793 201.5135 
L 263.725888 201.513108 
L 268.214984 201.509292 
L 272.704079 201.506971 
L 277.193174 201.501909 
L 281.682269 201.505017 
L 286.171365 201.503805 
L 290.66046 201.495335 
L 295.149555 201.496856 
L 299.638651 201.515748 
L 304.127746 201.522138 
L 308.616841 201.51777 
L 313.105936 201.535125 
L 317.595032 201.584601 
L 322.084127 201.633151 
L 326.573222 201.678811 
L 331.062318 201.471169 
L 335.551413 201.45591 
L 340.040508 201.457251 
L 344.529603 201.439691 
L 349.018699 201.382883 
L 353.507794 201.334059 
L 357.996889 201.276459 
L 362.485984 201.46189 
L 366.97508 201.470297 
L 371.464175 201.468091 
L 375.95327 201.465088 
L 380.442366 201.471251 
L 384.931461 201.469977 
L 389.420556 201.472993 
L 393.909651 201.466722 
L 398.398747 201.461136 
L 402.887842 201.472778 
L 407.376937 201.517822 
L 411.866033 201.561408 
L 416.355128 201.604935 
L 420.844223 201.655427 
L 425.333318 201.713891 
L 429.822414 201.766165 
L 434.311509 201.801586 
L 438.800604 201.80215 
L 443.2897 201.805221 
L 447.778795 201.810004 
L 452.26789 201.810702 
L 456.756985 201.809242 
L 461.246081 201.811089 
L 465.735176 201.817903 
L 470.224271 201.820455 
L 474.713366 201.822618 
" clip-path="url(#pc973a73ed6)" style="fill: none; stroke: #3cb44b; stroke-width: 1.3; stroke-linecap: square"/>
   </g>
   <g id="patch_3">
    <path d="M 45.780313 210.243139 
L 45.780313 25.158281 
" style="fill: none; stroke: #000000; stroke-width: 0.6; stroke-linejoin: miter; stroke-linecap: square"/>
   </g>
   <g id="patch_4">
    <path d="M 45.780313 210.243139 
L 495.13875 210.243139 
" style="fill: none; stroke: #000000; stroke-width: 0.6; stroke-linejoin: miter; stroke-linecap: square"/>
   </g>
   <g id="text_11">
    <!-- Combined DA Utilization (7d rolling avg) -->
    <g transform="translate(156.380938 19.158281) scale(0.11 -0.11)">
     <defs>
      <path id="DejaVuSerif-43" d="M 4513 1234 
Q 4306 581 3820 245 
Q 3334 -91 2591 -91 
Q 2134 -91 1743 65 
Q 1353 222 1050 525 
Q 700 875 529 1320 
Q 359 1766 359 2328 
Q 359 3416 987 4083 
Q 1616 4750 2644 4750 
Q 3025 4750 3456 4650 
Q 3888 4550 4384 4347 
L 4384 3272 
L 4031 3272 
Q 3916 3859 3567 4137 
Q 3219 4416 2591 4416 
Q 1844 4416 1459 3886 
Q 1075 3356 1075 2328 
Q 1075 1303 1459 773 
Q 1844 244 2591 244 
Q 3113 244 3450 492 
Q 3788 741 3938 1234 
L 4513 1234 
z
" transform="scale(0.015625)"/>
      <path id="DejaVuSerif-6f" d="M 1925 219 
Q 2388 219 2623 584 
Q 2859 950 2859 1663 
Q 2859 2375 2623 2739 
Q 2388 3103 1925 3103 
Q 1463 3103 1227 2739 
Q 991 2375 991 1663 
Q 991 950 1228 584 
Q 1466 219 1925 219 
z
M 1925 -91 
Q 1200 -91 759 389 
Q 319 869 319 1663 
Q 319 2456 758 2934 
Q 1197 3413 1925 3413 
Q 2653 3413 3092 2934 
Q 3531 2456 3531 1663 
Q 3531 869 3092 389 
Q 2653 -91 1925 -91 
z
" transform="scale(0.015625)"/>
      <path id="DejaVuSerif-6d" d="M 3316 2675 
Q 3481 3041 3739 3227 
Q 3997 3413 4341 3413 
Q 4863 3413 5119 3089 
Q 5375 2766 5375 2113 
L 5375 331 
L 5894 331 
L 5894 0 
L 4300 0 
L 4300 331 
L 4800 331 
L 4800 2047 
Q 4800 2556 4650 2772 
Q 4500 2988 4153 2988 
Q 3769 2988 3567 2697 
Q 3366 2406 3366 1850 
L 3366 331 
L 3866 331 
L 3866 0 
L 2291 0 
L 2291 331 
L 2791 331 
L 2791 2069 
Q 2791 2566 2641 2777 
Q 2491 2988 2144 2988 
Q 1759 2988 1557 2697 
Q 1356 2406 1356 1850 
L 1356 331 
L 1856 331 
L 1856 0 
L 263 0 
L 263 331 
L 781 331 
L 781 2994 
L 231 2994 
L 231 3322 
L 1356 3322 
L 1356 2731 
Q 1516 3063 1762 3238 
Q 2009 3413 2322 3413 
Q 2709 3413 2968 3220 
Q 3228 3028 3316 2675 
z
" transform="scale(0.015625)"/>
      <path id="DejaVuSerif-69" d="M 622 4353 
Q 622 4497 726 4603 
Q 831 4709 978 4709 
Q 1122 4709 1226 4603 
Q 1331 4497 1331 4353 
Q 1331 4206 1228 4103 
Q 1125 4000 978 4000 
Q 831 4000 726 4103 
Q 622 4206 622 4353 
z
M 1356 331 
L 1900 331 
L 1900 0 
L 231 0 
L 231 331 
L 781 331 
L 781 2988 
L 231 2988 
L 231 3322 
L 1356 3322 
L 1356 331 
z
" transform="scale(0.015625)"/>
      <path id="DejaVuSerif-64" d="M 3359 331 
L 3909 331 
L 3909 0 
L 2784 0 
L 2784 519 
Q 2616 206 2355 57 
Q 2094 -91 1709 -91 
Q 1097 -91 708 395 
Q 319 881 319 1663 
Q 319 2444 706 2928 
Q 1094 3413 1709 3413 
Q 2094 3413 2355 3264 
Q 2616 3116 2784 2803 
L 2784 4531 
L 2241 4531 
L 2241 4863 
L 3359 4863 
L 3359 331 
z
M 2784 1497 
L 2784 1825 
Q 2784 2422 2554 2737 
Q 2325 3053 1888 3053 
Q 1444 3053 1217 2703 
Q 991 2353 991 1663 
Q 991 975 1217 622 
Q 1444 269 1888 269 
Q 2325 269 2554 583 
Q 2784 897 2784 1497 
z
" transform="scale(0.015625)"/>
      <path id="DejaVuSerif-41" d="M 1281 1691 
L 2994 1691 
L 2138 3909 
L 1281 1691 
z
M -38 0 
L -38 331 
L 372 331 
L 2034 4666 
L 2559 4666 
L 4225 331 
L 4684 331 
L 4684 0 
L 2988 0 
L 2988 331 
L 3506 331 
L 3116 1356 
L 1153 1356 
L 763 331 
L 1275 331 
L 1275 0 
L -38 0 
z
" transform="scale(0.015625)"/>
      <path id="DejaVuSerif-55" d="M 897 4331 
L 300 4331 
L 300 4666 
L 2125 4666 
L 2125 4331 
L 1528 4331 
L 1528 1919 
Q 1528 1025 1820 672 
Q 2113 319 2828 319 
Q 3544 319 3836 672 
Q 4128 1025 4128 1919 
L 4128 4331 
L 3531 4331 
L 3531 4666 
L 5106 4666 
L 5106 4331 
L 4513 4331 
L 4513 1856 
Q 4513 791 4103 350 
Q 3694 -91 2713 -91 
Q 1731 -91 1314 353 
Q 897 797 897 1856 
L 897 4331 
z
" transform="scale(0.015625)"/>
      <path id="DejaVuSerif-74" d="M 691 2988 
L 184 2988 
L 184 3322 
L 691 3322 
L 691 4353 
L 1269 4353 
L 1269 3322 
L 2350 3322 
L 2350 2988 
L 1269 2988 
L 1269 878 
Q 1269 456 1350 337 
Q 1431 219 1650 219 
Q 1875 219 1978 351 
Q 2081 484 2088 781 
L 2522 781 
Q 2497 328 2275 118 
Q 2053 -91 1600 -91 
Q 1103 -91 897 129 
Q 691 350 691 878 
L 691 2988 
z
" transform="scale(0.015625)"/>
      <path id="DejaVuSerif-6c" d="M 1313 331 
L 1856 331 
L 1856 0 
L 184 0 
L 184 331 
L 738 331 
L 738 4531 
L 184 4531 
L 184 4863 
L 1313 4863 
L 1313 331 
z
" transform="scale(0.015625)"/>
      <path id="DejaVuSerif-7a" d="M 256 0 
L 256 269 
L 2338 2988 
L 691 2988 
L 691 2413 
L 359 2413 
L 359 3322 
L 3078 3322 
L 3078 3053 
L 997 331 
L 2803 331 
L 2803 934 
L 3138 934 
L 3138 0 
L 256 0 
z
" transform="scale(0.015625)"/>
      <path id="DejaVuSerif-28" d="M 2041 -997 
Q 1281 -656 893 83 
Q 506 822 506 1931 
Q 506 3044 893 3783 
Q 1281 4522 2041 4863 
L 2041 4556 
Q 1559 4225 1350 3623 
Q 1141 3022 1141 1931 
Q 1141 844 1350 242 
Q 1559 -359 2041 -691 
L 2041 -997 
z
" transform="scale(0.015625)"/>
      <path id="DejaVuSerif-37" d="M 3609 4347 
L 1784 0 
L 1319 0 
L 3059 4153 
L 903 4153 
L 903 3578 
L 538 3578 
L 538 4666 
L 3609 4666 
L 3609 4347 
z
" transform="scale(0.015625)"/>
      <path id="DejaVuSerif-72" d="M 3059 3328 
L 3059 2497 
L 2728 2497 
Q 2713 2744 2591 2866 
Q 2469 2988 2234 2988 
Q 1809 2988 1582 2694 
Q 1356 2400 1356 1850 
L 1356 331 
L 2022 331 
L 2022 0 
L 263 0 
L 263 331 
L 781 331 
L 781 2994 
L 231 2994 
L 231 3322 
L 1356 3322 
L 1356 2731 
Q 1525 3078 1790 3245 
Q 2056 3413 2438 3413 
Q 2578 3413 2733 3391 
Q 2888 3369 3059 3328 
z
" transform="scale(0.015625)"/>
      <path id="DejaVuSerif-67" d="M 3359 2988 
L 3359 72 
Q 3359 -644 2965 -1033 
Q 2572 -1422 1844 -1422 
Q 1516 -1422 1216 -1362 
Q 916 -1303 641 -1184 
L 641 -488 
L 941 -488 
Q 997 -813 1206 -963 
Q 1416 -1113 1806 -1113 
Q 2313 -1113 2548 -827 
Q 2784 -541 2784 72 
L 2784 519 
Q 2616 206 2355 57 
Q 2094 -91 1709 -91 
Q 1097 -91 708 395 
Q 319 881 319 1663 
Q 319 2444 706 2928 
Q 1094 3413 1709 3413 
Q 2094 3413 2355 3264 
Q 2616 3116 2784 2803 
L 2784 3322 
L 3909 3322 
L 3909 2988 
L 3359 2988 
z
M 2784 1825 
Q 2784 2422 2554 2737 
Q 2325 3053 1888 3053 
Q 1444 3053 1217 2703 
Q 991 2353 991 1663 
Q 991 975 1217 622 
Q 1444 269 1888 269 
Q 2325 269 2554 583 
Q 2784 897 2784 1497 
L 2784 1825 
z
" transform="scale(0.015625)"/>
      <path id="DejaVuSerif-76" d="M 1581 0 
L 359 2988 
L -19 2988 
L -19 3322 
L 1509 3322 
L 1509 2988 
L 978 2988 
L 1913 703 
L 2847 2988 
L 2350 2988 
L 2350 3322 
L 3597 3322 
L 3597 2988 
L 3225 2988 
L 2003 0 
L 1581 0 
z
" transform="scale(0.015625)"/>
      <path id="DejaVuSerif-29" d="M 453 -997 
L 453 -691 
Q 934 -359 1145 242 
Q 1356 844 1356 1931 
Q 1356 3022 1145 3623 
Q 934 4225 453 4556 
L 453 4863 
Q 1216 4522 1603 3783 
Q 1991 3044 1991 1931 
Q 1991 822 1603 83 
Q 1216 -656 453 -997 
z
" transform="scale(0.015625)"/>
     </defs>
     <use xlink:href="#DejaVuSerif-43"/>
     <use xlink:href="#DejaVuSerif-6f" x="76.513672"/>
     <use xlink:href="#DejaVuSerif-6d" x="136.71875"/>
     <use xlink:href="#DejaVuSerif-62" x="231.542969"/>
     <use xlink:href="#DejaVuSerif-69" x="295.556641"/>
     <use xlink:href="#DejaVuSerif-6e" x="327.539062"/>
     <use xlink:href="#DejaVuSerif-65" x="391.943359"/>
     <use xlink:href="#DejaVuSerif-64" x="451.123047"/>
     <use xlink:href="#DejaVuSerif-20" x="515.136719"/>
     <use xlink:href="#DejaVuSerif-44" x="546.923828"/>
     <use xlink:href="#DejaVuSerif-41" x="627.099609"/>
     <use xlink:href="#DejaVuSerif-20" x="699.316406"/>
     <use xlink:href="#DejaVuSerif-55" x="731.103516"/>
     <use xlink:href="#DejaVuSerif-74" x="815.380859"/>
     <use xlink:href="#DejaVuSerif-69" x="855.566406"/>
     <use xlink:href="#DejaVuSerif-6c" x="887.548828"/>
     <use xlink:href="#DejaVuSerif-69" x="919.53125"/>
     <use xlink:href="#DejaVuSerif-7a" x="951.513672"/>
     <use xlink:href="#DejaVuSerif-61" x="1004.199219"/>
     <use xlink:href="#DejaVuSerif-74" x="1063.818359"/>
     <use xlink:href="#DejaVuSerif-69" x="1104.003906"/>
     <use xlink:href="#DejaVuSerif-6f" x="1135.986328"/>
     <use xlink:href="#DejaVuSerif-6e" x="1196.191406"/>
     <use xlink:href="#DejaVuSerif-20" x="1260.595703"/>
     <use xlink:href="#DejaVuSerif-28" x="1292.382812"/>
     <use xlink:href="#DejaVuSerif-37" x="1331.396484"/>
     <use xlink:href="#DejaVuSerif-64" x="1395.019531"/>
     <use xlink:href="#DejaVuSerif-20" x="1459.033203"/>
     <use xlink:href="#DejaVuSerif-72" x="1490.820312"/>
     <use xlink:href="#DejaVuSerif-6f" x="1538.623047"/>
     <use xlink:href="#DejaVuSerif-6c" x="1598.828125"/>
     <use xlink:href="#DejaVuSerif-6c" x="1630.810547"/>
     <use xlink:href="#DejaVuSerif-69" x="1662.792969"/>
     <use xlink:href="#DejaVuSerif-6e" x="1694.775391"/>
     <use xlink:href="#DejaVuSerif-67" x="1759.179688"/>
     <use xlink:href="#DejaVuSerif-20" x="1823.193359"/>
     <use xlink:href="#DejaVuSerif-61" x="1854.980469"/>
     <use xlink:href="#DejaVuSerif-76" x="1914.599609"/>
     <use xlink:href="#DejaVuSerif-67" x="1971.09375"/>
     <use xlink:href="#DejaVuSerif-29" x="2035.107422"/>
    </g>
   </g>
   <g id="legend_1">
    <g id="patch_5">
     <path d="M 366.958906 61.582344 
L 490.23875 61.582344 
Q 491.63875 61.582344 491.63875 60.182344 
L 491.63875 30.058281 
Q 491.63875 28.658281 490.23875 28.658281 
L 366.958906 28.658281 
Q 365.558906 28.658281 365.558906 30.058281 
L 365.558906 60.182344 
Q 365.558906 61.582344 366.958906 61.582344 
z
" style="fill: #ffffff; opacity: 0.9; stroke: #cccccc; stroke-linejoin: miter"/>
    </g>
    <g id="line2d_25">
     <path d="M 368.358906 34.327187 
L 375.358906 34.327187 
L 382.358906 34.327187 
" style="fill: none; stroke: #e6194b; stroke-width: 1.3; stroke-linecap: square"/>
    </g>
    <g id="text_12">
     <!-- Polkadot -->
     <g transform="translate(387.958906 36.777187) scale(0.07 -0.07)">
      <defs>
       <path id="DejaVuSerif-50" d="M 1581 2375 
L 2406 2375 
Q 2872 2375 3115 2626 
Q 3359 2878 3359 3353 
Q 3359 3831 3115 4081 
Q 2872 4331 2406 4331 
L 1581 4331 
L 1581 2375 
z
M 353 0 
L 353 331 
L 947 331 
L 947 4331 
L 353 4331 
L 353 4666 
L 2559 4666 
Q 3259 4666 3668 4311 
Q 4078 3956 4078 3353 
Q 4078 2753 3668 2397 
Q 3259 2041 2559 2041 
L 1581 2041 
L 1581 331 
L 2303 331 
L 2303 0 
L 353 0 
z
" transform="scale(0.015625)"/>
       <path id="DejaVuSerif-6b" d="M 1831 0 
L 219 0 
L 219 331 
L 738 331 
L 738 4531 
L 184 4531 
L 184 4863 
L 1313 4863 
L 1313 1697 
L 2713 2988 
L 2234 2988 
L 2234 3322 
L 3738 3322 
L 3738 2988 
L 3169 2988 
L 2181 2075 
L 3444 331 
L 3922 331 
L 3922 0 
L 2284 0 
L 2284 331 
L 2759 331 
L 1766 1697 
L 1313 1275 
L 1313 331 
L 1831 331 
L 1831 0 
z
" transform="scale(0.015625)"/>
      </defs>
      <use xlink:href="#DejaVuSerif-50"/>
      <use xlink:href="#DejaVuSerif-6f" x="63.285156"/>
      <use xlink:href="#DejaVuSerif-6c" x="123.490234"/>
      <use xlink:href="#DejaVuSerif-6b" x="155.472656"/>
      <use xlink:href="#DejaVuSerif-61" x="216.068359"/>
      <use xlink:href="#DejaVuSerif-64" x="275.6875"/>
      <use xlink:href="#DejaVuSerif-6f" x="339.701172"/>
      <use xlink:href="#DejaVuSerif-74" x="399.90625"/>
     </g>
    </g>
    <g id="line2d_26">
     <path d="M 368.358906 44.601875 
L 375.358906 44.601875 
L 382.358906 44.601875 
" style="fill: none; stroke: #3366cc; stroke-width: 1.3; stroke-linecap: square"/>
    </g>
    <g id="text_13">
     <!-- Ethereum -->
     <g transform="translate(387.958906 47.051875) scale(0.07 -0.07)">
      <defs>
       <path id="DejaVuSerif-45" d="M 353 0 
L 353 331 
L 947 331 
L 947 4331 
L 353 4331 
L 353 4666 
L 4109 4666 
L 4109 3628 
L 3725 3628 
L 3725 4281 
L 1581 4281 
L 1581 2719 
L 3109 2719 
L 3109 3303 
L 3494 3303 
L 3494 1753 
L 3109 1753 
L 3109 2338 
L 1581 2338 
L 1581 384 
L 3775 384 
L 3775 1038 
L 4159 1038 
L 4159 0 
L 353 0 
z
" transform="scale(0.015625)"/>
       <path id="DejaVuSerif-68" d="M 263 0 
L 263 331 
L 781 331 
L 781 4531 
L 231 4531 
L 231 4863 
L 1356 4863 
L 1356 2731 
Q 1516 3069 1770 3241 
Q 2025 3413 2363 3413 
Q 2913 3413 3172 3097 
Q 3431 2781 3431 2113 
L 3431 331 
L 3944 331 
L 3944 0 
L 2356 0 
L 2356 331 
L 2853 331 
L 2853 1931 
Q 2853 2541 2704 2764 
Q 2556 2988 2175 2988 
Q 1775 2988 1565 2697 
Q 1356 2406 1356 1850 
L 1356 331 
L 1856 331 
L 1856 0 
L 263 0 
z
" transform="scale(0.015625)"/>
       <path id="DejaVuSerif-75" d="M 2266 3322 
L 3341 3322 
L 3341 331 
L 3884 331 
L 3884 0 
L 2766 0 
L 2766 588 
Q 2606 256 2353 82 
Q 2100 -91 1766 -91 
Q 1213 -91 952 223 
Q 691 538 691 1209 
L 691 2988 
L 172 2988 
L 172 3322 
L 1269 3322 
L 1269 1388 
Q 1269 781 1417 556 
Q 1566 331 1947 331 
Q 2347 331 2556 625 
Q 2766 919 2766 1478 
L 2766 2988 
L 2266 2988 
L 2266 3322 
z
" transform="scale(0.015625)"/>
      </defs>
      <use xlink:href="#DejaVuSerif-45"/>
      <use xlink:href="#DejaVuSerif-74" x="72.998047"/>
      <use xlink:href="#DejaVuSerif-68" x="113.183594"/>
      <use xlink:href="#DejaVuSerif-65" x="177.587891"/>
      <use xlink:href="#DejaVuSerif-72" x="236.767578"/>
      <use xlink:href="#DejaVuSerif-65" x="284.570312"/>
      <use xlink:href="#DejaVuSerif-75" x="343.75"/>
      <use xlink:href="#DejaVuSerif-6d" x="408.154297"/>
     </g>
    </g>
    <g id="line2d_27">
     <path d="M 368.358906 54.876562 
L 375.358906 54.876562 
L 382.358906 54.876562 
" style="fill: none; stroke: #f58231; stroke-width: 1.3; stroke-linecap: square"/>
    </g>
    <g id="text_14">
     <!-- Celestia -->
     <g transform="translate(387.958906 57.326562) scale(0.07 -0.07)">
      <defs>
       <path id="DejaVuSerif-73" d="M 359 184 
L 359 959 
L 691 959 
Q 703 588 923 403 
Q 1144 219 1575 219 
Q 1963 219 2166 364 
Q 2369 509 2369 788 
Q 2369 1006 2220 1140 
Q 2072 1275 1594 1428 
L 1178 1569 
Q 750 1706 558 1912 
Q 366 2119 366 2438 
Q 366 2894 700 3153 
Q 1034 3413 1625 3413 
Q 1888 3413 2178 3344 
Q 2469 3275 2778 3144 
L 2778 2419 
L 2447 2419 
Q 2434 2741 2221 2922 
Q 2009 3103 1644 3103 
Q 1281 3103 1095 2975 
Q 909 2847 909 2591 
Q 909 2381 1050 2254 
Q 1191 2128 1613 1997 
L 2069 1856 
Q 2541 1709 2748 1489 
Q 2956 1269 2956 922 
Q 2956 450 2595 179 
Q 2234 -91 1600 -91 
Q 1278 -91 972 -22 
Q 666 47 359 184 
z
" transform="scale(0.015625)"/>
      </defs>
      <use xlink:href="#DejaVuSerif-43"/>
      <use xlink:href="#DejaVuSerif-65" x="76.513672"/>
      <use xlink:href="#DejaVuSerif-6c" x="135.693359"/>
      <use xlink:href="#DejaVuSerif-65" x="167.675781"/>
      <use xlink:href="#DejaVuSerif-73" x="226.855469"/>
      <use xlink:href="#DejaVuSerif-74" x="278.173828"/>
      <use xlink:href="#DejaVuSerif-69" x="318.359375"/>
      <use xlink:href="#DejaVuSerif-61" x="350.341797"/>
     </g>
    </g>
    <g id="line2d_28">
     <path d="M 437.168906 34.327187 
L 444.168906 34.327187 
L 451.168906 34.327187 
" style="fill: none; stroke: #911eb4; stroke-width: 1.3; stroke-linecap: square"/>
    </g>
    <g id="text_15">
     <!-- Espresso -->
     <g transform="translate(456.768906 36.777187) scale(0.07 -0.07)">
      <defs>
       <path id="DejaVuSerif-70" d="M 1313 1825 
L 1313 1497 
Q 1313 897 1542 583 
Q 1772 269 2209 269 
Q 2650 269 2876 622 
Q 3103 975 3103 1663 
Q 3103 2353 2876 2703 
Q 2650 3053 2209 3053 
Q 1772 3053 1542 2737 
Q 1313 2422 1313 1825 
z
M 738 2988 
L 184 2988 
L 184 3322 
L 1313 3322 
L 1313 2803 
Q 1481 3116 1742 3264 
Q 2003 3413 2388 3413 
Q 3000 3413 3387 2928 
Q 3775 2444 3775 1663 
Q 3775 881 3387 395 
Q 3000 -91 2388 -91 
Q 2003 -91 1742 57 
Q 1481 206 1313 519 
L 1313 -997 
L 1856 -997 
L 1856 -1331 
L 184 -1331 
L 184 -997 
L 738 -997 
L 738 2988 
z
" transform="scale(0.015625)"/>
      </defs>
      <use xlink:href="#DejaVuSerif-45"/>
      <use xlink:href="#DejaVuSerif-73" x="72.998047"/>
      <use xlink:href="#DejaVuSerif-70" x="124.316406"/>
      <use xlink:href="#DejaVuSerif-72" x="188.330078"/>
      <use xlink:href="#DejaVuSerif-65" x="236.132812"/>
      <use xlink:href="#DejaVuSerif-73" x="295.3125"/>
      <use xlink:href="#DejaVuSerif-73" x="346.630859"/>
      <use xlink:href="#DejaVuSerif-6f" x="397.949219"/>
     </g>
    </g>
    <g id="line2d_29">
     <path d="M 437.168906 44.601875 
L 444.168906 44.601875 
L 451.168906 44.601875 
" style="fill: none; stroke: #42d4f4; stroke-width: 1.3; stroke-linecap: square"/>
    </g>
    <g id="text_16">
     <!-- NEAR -->
     <g transform="translate(456.768906 47.051875) scale(0.07 -0.07)">
      <defs>
       <path id="DejaVuSerif-4e" d="M 313 0 
L 313 331 
L 941 331 
L 941 4331 
L 313 4331 
L 313 4666 
L 1509 4666 
L 4306 984 
L 4306 4331 
L 3681 4331 
L 3681 4666 
L 5319 4666 
L 5319 4331 
L 4691 4331 
L 4691 -91 
L 4313 -91 
L 1325 3841 
L 1325 331 
L 1953 331 
L 1953 0 
L 313 0 
z
" transform="scale(0.015625)"/>
       <path id="DejaVuSerif-52" d="M 3066 2316 
Q 3284 2256 3442 2114 
Q 3600 1972 3725 1716 
L 4403 331 
L 4972 331 
L 4972 0 
L 3872 0 
L 3144 1484 
Q 2934 1916 2759 2042 
Q 2584 2169 2278 2169 
L 1581 2169 
L 1581 331 
L 2241 331 
L 2241 0 
L 353 0 
L 353 331 
L 947 331 
L 947 4331 
L 353 4331 
L 353 4666 
L 2719 4666 
Q 3400 4666 3770 4341 
Q 4141 4016 4141 3419 
Q 4141 2938 3870 2661 
Q 3600 2384 3066 2316 
z
M 1581 2503 
L 2503 2503 
Q 2975 2503 3200 2726 
Q 3425 2950 3425 3419 
Q 3425 3888 3200 4109 
Q 2975 4331 2503 4331 
L 1581 4331 
L 1581 2503 
z
" transform="scale(0.015625)"/>
      </defs>
      <use xlink:href="#DejaVuSerif-4e"/>
      <use xlink:href="#DejaVuSerif-45" x="87.5"/>
      <use xlink:href="#DejaVuSerif-41" x="160.498047"/>
      <use xlink:href="#DejaVuSerif-52" x="232.714844"/>
     </g>
    </g>
    <g id="line2d_30">
     <path d="M 437.168906 54.876562 
L 444.168906 54.876562 
L 451.168906 54.876562 
" style="fill: none; stroke: #3cb44b; stroke-width: 1.3; stroke-linecap: square"/>
    </g>
    <g id="text_17">
     <!-- Avail -->
     <g transform="translate(456.768906 57.326562) scale(0.07 -0.07)">
      <use xlink:href="#DejaVuSerif-41"/>
      <use xlink:href="#DejaVuSerif-76" x="68.216797"/>
      <use xlink:href="#DejaVuSerif-61" x="124.710938"/>
      <use xlink:href="#DejaVuSerif-69" x="184.330078"/>
      <use xlink:href="#DejaVuSerif-6c" x="216.3125"/>
     </g>
    </g>
   </g>
  </g>
 </g>
 <defs>
  <clipPath id="pc973a73ed6">
   <rect x="45.780313" y="25.158281" width="449.358438" height="185.084858"/>
  </clipPath>
 </defs>
</svg>
