<?xml version="1.0" encoding="utf-8" standalone="no"?>
<!DOCTYPE svg PUBLIC "-//W3C//DTD SVG 1.1//EN"
  "http://www.w3.org/Graphics/SVG/1.1/DTD/svg11.dtd">
<svg xmlns:xlink="http://www.w3.org/1999/xlink" width="506.213023pt" height="254.013966pt" viewBox="0 0 506.213023 254.013966" xmlns="http://www.w3.org/2000/svg" version="1.1">
 <metadata>
  <rdf:RDF xmlns:dc="http://purl.org/dc/elements/1.1/" xmlns:cc="http://creativecommons.org/ns#" xmlns:rdf="http://www.w3.org/1999/02/22-rdf-syntax-ns#">
   <cc:Work>
    <dc:type rdf:resource="http://purl.org/dc/dcmitype/StillImage"/>
    <dc:date>2026-02-16T20:27:12.808898</dc:date>
    <dc:format>image/svg+xml</dc:format>
    <dc:creator>
     <cc:Agent>
      <dc:title>Matplotlib v3.9.4, https://matplotlib.org/</dc:title>
     </cc:Agent>
    </dc:creator>
   </cc:Work>
  </rdf:RDF>
 </metadata>
 <defs>
  <style type="text/css">*{stroke-linejoin: round; stroke-linecap: butt}</style>
 </defs>
 <g id="figure_1">
  <g id="patch_1">
   <path d="M 0 254.013966 
L 506.213023 254.013966 
L 506.213023 -0 
L 0 -0 
z
" style="fill: #ffffff"/>
  </g>
  <g id="axes_1">
   <g id="patch_2">
    <path d="M 49.230312 210.243139 
L 495.413023 210.243139 
L 495.413023 25.158281 
L 49.230312 25.158281 
z
" style="fill: #ffffff"/>
   </g>
   <g id="matplotlib.axis_1">
    <g id="xtick_1">
     <g id="line2d_1">
      <path d="M 140.82926 210.243139 
L 140.82926 25.158281 
" clip-path="url(#p8fb9cd33a6)" style="fill: none; stroke: #b0b0b0; stroke-opacity: 0.25; stroke-width: 0.5; stroke-linecap: square"/>
     </g>
     <g id="line2d_2">
      <defs>
       <path id="me0298d1f9a" d="M 0 0 
L 0 3.5 
" style="stroke: #000000; stroke-width: 0.8"/>
      </defs>
      <g>
       <use xlink:href="#me0298d1f9a" x="140.82926" y="210.243139" style="stroke: #000000; stroke-width: 0.8"/>
      </g>
     </g>
     <g id="text_1">
      <!-- Dec 2025 -->
      <g transform="translate(106.628344 241.773116) rotate(-30) scale(0.08 -0.08)">
       <defs>
        <path id="DejaVuSerif-44" d="M 1581 331 
L 2163 331 
Q 3072 331 3558 850 
Q 4044 1369 4044 2338 
Q 4044 3306 3559 3818 
Q 3075 4331 2163 4331 
L 1581 4331 
L 1581 331 
z
M 353 0 
L 353 331 
L 947 331 
L 947 4331 
L 353 4331 
L 353 4666 
L 2209 4666 
Q 3416 4666 4089 4050 
Q 4763 3434 4763 2338 
Q 4763 1238 4088 619 
Q 3413 0 2209 0 
L 353 0 
z
" transform="scale(0.015625)"/>
        <path id="DejaVuSerif-65" d="M 3469 1600 
L 991 1600 
L 991 1575 
Q 991 903 1244 561 
Q 1497 219 1991 219 
Q 2369 219 2611 417 
Q 2853 616 2950 1006 
L 3413 1006 
Q 3275 459 2904 184 
Q 2534 -91 1931 -91 
Q 1203 -91 761 389 
Q 319 869 319 1663 
Q 319 2450 753 2931 
Q 1188 3413 1894 3413 
Q 2647 3413 3050 2948 
Q 3453 2484 3469 1600 
z
M 2791 1931 
Q 2772 2513 2545 2808 
Q 2319 3103 1894 3103 
Q 1497 3103 1269 2806 
Q 1041 2509 991 1931 
L 2791 1931 
z
" transform="scale(0.015625)"/>
        <path id="DejaVuSerif-63" d="M 3291 997 
Q 3169 466 2822 187 
Q 2475 -91 1925 -91 
Q 1200 -91 759 389 
Q 319 869 319 1663 
Q 319 2459 759 2936 
Q 1200 3413 1925 3413 
Q 2241 3413 2553 3339 
Q 2866 3266 3181 3116 
L 3181 2266 
L 2847 2266 
Q 2781 2703 2561 2903 
Q 2341 3103 1931 3103 
Q 1466 3103 1228 2742 
Q 991 2381 991 1663 
Q 991 944 1227 581 
Q 1463 219 1931 219 
Q 2303 219 2525 412 
Q 2747 606 2828 997 
L 3291 997 
z
" transform="scale(0.015625)"/>
        <path id="DejaVuSerif-20" transform="scale(0.015625)"/>
        <path id="DejaVuSerif-32" d="M 819 3553 
L 469 3553 
L 469 4384 
Q 803 4563 1142 4656 
Q 1481 4750 1806 4750 
Q 2534 4750 2956 4397 
Q 3378 4044 3378 3438 
Q 3378 2753 2422 1800 
Q 2347 1728 2309 1691 
L 1131 513 
L 3078 513 
L 3078 1088 
L 3444 1088 
L 3444 0 
L 434 0 
L 434 341 
L 1850 1753 
Q 2319 2222 2519 2614 
Q 2719 3006 2719 3438 
Q 2719 3909 2473 4175 
Q 2228 4441 1797 4441 
Q 1350 4441 1106 4219 
Q 863 3997 819 3553 
z
" transform="scale(0.015625)"/>
        <path id="DejaVuSerif-30" d="M 2034 219 
Q 2513 219 2750 744 
Q 2988 1269 2988 2328 
Q 2988 3391 2750 3916 
Q 2513 4441 2034 4441 
Q 1556 4441 1318 3916 
Q 1081 3391 1081 2328 
Q 1081 1269 1318 744 
Q 1556 219 2034 219 
z
M 2034 -91 
Q 1275 -91 848 546 
Q 422 1184 422 2328 
Q 422 3475 848 4112 
Q 1275 4750 2034 4750 
Q 2797 4750 3222 4112 
Q 3647 3475 3647 2328 
Q 3647 1184 3222 546 
Q 2797 -91 2034 -91 
z
" transform="scale(0.015625)"/>
        <path id="DejaVuSerif-35" d="M 3219 4666 
L 3219 4153 
L 1081 4153 
L 1081 2816 
Q 1244 2928 1461 2984 
Q 1678 3041 1947 3041 
Q 2703 3041 3140 2622 
Q 3578 2203 3578 1478 
Q 3578 738 3136 323 
Q 2694 -91 1894 -91 
Q 1572 -91 1234 -12 
Q 897 66 544 225 
L 544 1131 
L 897 1131 
Q 925 688 1179 453 
Q 1434 219 1894 219 
Q 2388 219 2653 544 
Q 2919 869 2919 1478 
Q 2919 2084 2655 2407 
Q 2391 2731 1894 2731 
Q 1613 2731 1398 2631 
Q 1184 2531 1019 2322 
L 750 2322 
L 750 4666 
L 3219 4666 
z
" transform="scale(0.015625)"/>
       </defs>
       <use xlink:href="#DejaVuSerif-44"/>
       <use xlink:href="#DejaVuSerif-65" x="80.175781"/>
       <use xlink:href="#DejaVuSerif-63" x="139.355469"/>
       <use xlink:href="#DejaVuSerif-20" x="195.361328"/>
       <use xlink:href="#DejaVuSerif-32" x="227.148438"/>
       <use xlink:href="#DejaVuSerif-30" x="290.771484"/>
       <use xlink:href="#DejaVuSerif-32" x="354.394531"/>
       <use xlink:href="#DejaVuSerif-35" x="418.017578"/>
      </g>
     </g>
    </g>
    <g id="xtick_2">
     <g id="line2d_3">
      <path d="M 279.007722 210.243139 
L 279.007722 25.158281 
" clip-path="url(#p8fb9cd33a6)" style="fill: none; stroke: #b0b0b0; stroke-opacity: 0.25; stroke-width: 0.5; stroke-linecap: square"/>
     </g>
     <g id="line2d_4">
      <g>
       <use xlink:href="#me0298d1f9a" x="279.007722" y="210.243139" style="stroke: #000000; stroke-width: 0.8"/>
      </g>
     </g>
     <g id="text_2">
      <!-- Jan 2026 -->
      <g transform="translate(246.970787 240.523741) rotate(-30) scale(0.08 -0.08)">
       <defs>
        <path id="DejaVuSerif-4a" d="M -538 -1119 
L -538 -384 
L -181 -384 
Q -172 -694 -34 -845 
Q 103 -997 378 -997 
Q 750 -997 897 -762 
Q 1044 -528 1044 153 
L 1044 4331 
L 319 4331 
L 319 4666 
L 2272 4666 
L 2272 4331 
L 1678 4331 
L 1678 128 
Q 1678 -644 1368 -987 
Q 1059 -1331 372 -1331 
Q 150 -1331 -79 -1278 
Q -309 -1225 -538 -1119 
z
" transform="scale(0.015625)"/>
        <path id="DejaVuSerif-61" d="M 2547 1044 
L 2547 1747 
L 1806 1747 
Q 1378 1747 1168 1562 
Q 959 1378 959 997 
Q 959 650 1171 447 
Q 1384 244 1747 244 
Q 2106 244 2326 466 
Q 2547 688 2547 1044 
z
M 3122 2075 
L 3122 331 
L 3634 331 
L 3634 0 
L 2547 0 
L 2547 359 
Q 2356 128 2106 18 
Q 1856 -91 1522 -91 
Q 969 -91 644 203 
Q 319 497 319 997 
Q 319 1513 691 1797 
Q 1063 2081 1741 2081 
L 2547 2081 
L 2547 2309 
Q 2547 2688 2317 2895 
Q 2088 3103 1672 3103 
Q 1328 3103 1125 2947 
Q 922 2791 872 2484 
L 575 2484 
L 575 3156 
Q 875 3284 1158 3348 
Q 1441 3413 1709 3413 
Q 2400 3413 2761 3070 
Q 3122 2728 3122 2075 
z
" transform="scale(0.015625)"/>
        <path id="DejaVuSerif-6e" d="M 263 0 
L 263 331 
L 781 331 
L 781 2988 
L 231 2988 
L 231 3322 
L 1356 3322 
L 1356 2731 
Q 1516 3069 1770 3241 
Q 2025 3413 2363 3413 
Q 2913 3413 3172 3097 
Q 3431 2781 3431 2113 
L 3431 331 
L 3944 331 
L 3944 0 
L 2356 0 
L 2356 331 
L 2853 331 
L 2853 1931 
Q 2853 2541 2703 2767 
Q 2553 2994 2175 2994 
Q 1775 2994 1565 2701 
Q 1356 2409 1356 1850 
L 1356 331 
L 1856 331 
L 1856 0 
L 263 0 
z
" transform="scale(0.015625)"/>
        <path id="DejaVuSerif-36" d="M 2094 219 
Q 2534 219 2771 542 
Q 3009 866 3009 1472 
Q 3009 2078 2771 2401 
Q 2534 2725 2094 2725 
Q 1647 2725 1412 2412 
Q 1178 2100 1178 1509 
Q 1178 888 1415 553 
Q 1653 219 2094 219 
z
M 1075 2569 
Q 1288 2803 1556 2918 
Q 1825 3034 2163 3034 
Q 2859 3034 3264 2615 
Q 3669 2197 3669 1472 
Q 3669 763 3233 336 
Q 2797 -91 2069 -91 
Q 1278 -91 853 498 
Q 428 1088 428 2181 
Q 428 3406 931 4078 
Q 1434 4750 2350 4750 
Q 2597 4750 2869 4703 
Q 3141 4656 3425 4563 
L 3425 3794 
L 3072 3794 
Q 3034 4109 2831 4275 
Q 2628 4441 2284 4441 
Q 1678 4441 1381 3981 
Q 1084 3522 1075 2569 
z
" transform="scale(0.015625)"/>
       </defs>
       <use xlink:href="#DejaVuSerif-4a"/>
       <use xlink:href="#DejaVuSerif-61" x="40.087891"/>
       <use xlink:href="#DejaVuSerif-6e" x="99.707031"/>
       <use xlink:href="#DejaVuSerif-20" x="164.111328"/>
       <use xlink:href="#DejaVuSerif-32" x="195.898438"/>
       <use xlink:href="#DejaVuSerif-30" x="259.521484"/>
       <use xlink:href="#DejaVuSerif-32" x="323.144531"/>
       <use xlink:href="#DejaVuSerif-36" x="386.767578"/>
      </g>
     </g>
    </g>
    <g id="xtick_3">
     <g id="line2d_5">
      <path d="M 417.186184 210.243139 
L 417.186184 25.158281 
" clip-path="url(#p8fb9cd33a6)" style="fill: none; stroke: #b0b0b0; stroke-opacity: 0.25; stroke-width: 0.5; stroke-linecap: square"/>
     </g>
     <g id="line2d_6">
      <g>
       <use xlink:href="#me0298d1f9a" x="417.186184" y="210.243139" style="stroke: #000000; stroke-width: 0.8"/>
      </g>
     </g>
     <g id="text_3">
      <!-- Feb 2026 -->
      <g transform="translate(383.557927 241.442491) rotate(-30) scale(0.08 -0.08)">
       <defs>
        <path id="DejaVuSerif-46" d="M 353 0 
L 353 331 
L 947 331 
L 947 4331 
L 353 4331 
L 353 4666 
L 4172 4666 
L 4172 3628 
L 3788 3628 
L 3788 4281 
L 1581 4281 
L 1581 2719 
L 3175 2719 
L 3175 3303 
L 3559 3303 
L 3559 1753 
L 3175 1753 
L 3175 2338 
L 1581 2338 
L 1581 331 
L 2328 331 
L 2328 0 
L 353 0 
z
" transform="scale(0.015625)"/>
        <path id="DejaVuSerif-62" d="M 738 331 
L 738 4531 
L 184 4531 
L 184 4863 
L 1313 4863 
L 1313 2803 
Q 1481 3116 1742 3264 
Q 2003 3413 2388 3413 
Q 3000 3413 3387 2928 
Q 3775 2444 3775 1663 
Q 3775 881 3387 395 
Q 3000 -91 2388 -91 
Q 2003 -91 1742 57 
Q 1481 206 1313 519 
L 1313 0 
L 184 0 
L 184 331 
L 738 331 
z
M 1313 1497 
Q 1313 897 1542 583 
Q 1772 269 2209 269 
Q 2650 269 2876 622 
Q 3103 975 3103 1663 
Q 3103 2353 2876 2703 
Q 2650 3053 2209 3053 
Q 1772 3053 1542 2737 
Q 1313 2422 1313 1825 
L 1313 1497 
z
" transform="scale(0.015625)"/>
       </defs>
       <use xlink:href="#DejaVuSerif-46"/>
       <use xlink:href="#DejaVuSerif-65" x="63.884766"/>
       <use xlink:href="#DejaVuSerif-62" x="123.064453"/>
       <use xlink:href="#DejaVuSerif-20" x="187.078125"/>
       <use xlink:href="#DejaVuSerif-32" x="218.865234"/>
       <use xlink:href="#DejaVuSerif-30" x="282.488281"/>
       <use xlink:href="#DejaVuSerif-32" x="346.111328"/>
       <use xlink:href="#DejaVuSerif-36" x="409.734375"/>
      </g>
     </g>
    </g>
   </g>
   <g id="matplotlib.axis_2">
    <g id="ytick_1">
     <g id="line2d_7">
      <path d="M 49.230312 186.601984 
L 495.413023 186.601984 
" clip-path="url(#p8fb9cd33a6)" style="fill: none; stroke: #b0b0b0; stroke-opacity: 0.25; stroke-width: 0.5; stroke-linecap: square"/>
     </g>
     <g id="line2d_8">
      <defs>
       <path id="m3d940dc907" d="M 0 0 
L -3.5 0 
" style="stroke: #000000; stroke-width: 0.8"/>
      </defs>
      <g>
       <use xlink:href="#m3d940dc907" x="49.230312" y="186.601984" style="stroke: #000000; stroke-width: 0.8"/>
      </g>
     </g>
     <g id="text_4">
      <!-- $\mathdefault{10^{-3}}$ -->
      <g transform="translate(23.510312 189.641359) scale(0.08 -0.08)">
       <defs>
        <path id="DejaVuSerif-31" d="M 909 0 
L 909 331 
L 1722 331 
L 1722 4213 
L 781 3603 
L 781 4013 
L 1919 4750 
L 2350 4750 
L 2350 331 
L 3163 331 
L 3163 0 
L 909 0 
z
" transform="scale(0.015625)"/>
        <path id="DejaVuSerif-2212" d="M 678 2259 
L 4684 2259 
L 4684 1753 
L 678 1753 
L 678 2259 
z
" transform="scale(0.015625)"/>
        <path id="DejaVuSerif-33" d="M 622 4469 
Q 988 4606 1323 4678 
Q 1659 4750 1953 4750 
Q 2638 4750 3022 4454 
Q 3406 4159 3406 3634 
Q 3406 3213 3140 2930 
Q 2875 2647 2388 2547 
Q 2963 2466 3280 2130 
Q 3597 1794 3597 1259 
Q 3597 606 3158 257 
Q 2719 -91 1894 -91 
Q 1528 -91 1179 -12 
Q 831 66 488 225 
L 488 1131 
L 838 1131 
Q 869 681 1141 450 
Q 1413 219 1906 219 
Q 2384 219 2661 495 
Q 2938 772 2938 1253 
Q 2938 1803 2653 2086 
Q 2369 2369 1819 2369 
L 1522 2369 
L 1522 2688 
L 1678 2688 
Q 2225 2688 2498 2914 
Q 2772 3141 2772 3597 
Q 2772 4006 2547 4223 
Q 2322 4441 1900 4441 
Q 1478 4441 1245 4241 
Q 1013 4041 972 3647 
L 622 3647 
L 622 4469 
z
" transform="scale(0.015625)"/>
       </defs>
       <use xlink:href="#DejaVuSerif-31" transform="translate(0 0.7125)"/>
       <use xlink:href="#DejaVuSerif-30" transform="translate(63.623047 0.7125)"/>
       <use xlink:href="#DejaVuSerif-2212" transform="translate(128.154453 37.046875) scale(0.7)"/>
       <use xlink:href="#DejaVuSerif-33" transform="translate(186.806797 37.046875) scale(0.7)"/>
      </g>
     </g>
    </g>
    <g id="ytick_2">
     <g id="line2d_9">
      <path d="M 49.230312 157.300996 
L 495.413023 157.300996 
" clip-path="url(#p8fb9cd33a6)" style="fill: none; stroke: #b0b0b0; stroke-opacity: 0.25; stroke-width: 0.5; stroke-linecap: square"/>
     </g>
     <g id="line2d_10">
      <g>
       <use xlink:href="#m3d940dc907" x="49.230312" y="157.300996" style="stroke: #000000; stroke-width: 0.8"/>
      </g>
     </g>
     <g id="text_5">
      <!-- $\mathdefault{10^{-2}}$ -->
      <g transform="translate(23.510312 160.340371) scale(0.08 -0.08)">
       <use xlink:href="#DejaVuSerif-31" transform="translate(0 0.7125)"/>
       <use xlink:href="#DejaVuSerif-30" transform="translate(63.623047 0.7125)"/>
       <use xlink:href="#DejaVuSerif-2212" transform="translate(128.154453 37.046875) scale(0.7)"/>
       <use xlink:href="#DejaVuSerif-32" transform="translate(186.806797 37.046875) scale(0.7)"/>
      </g>
     </g>
    </g>
    <g id="ytick_3">
     <g id="line2d_11">
      <path d="M 49.230312 128.000007 
L 495.413023 128.000007 
" clip-path="url(#p8fb9cd33a6)" style="fill: none; stroke: #b0b0b0; stroke-opacity: 0.25; stroke-width: 0.5; stroke-linecap: square"/>
     </g>
     <g id="line2d_12">
      <g>
       <use xlink:href="#m3d940dc907" x="49.230312" y="128.000007" style="stroke: #000000; stroke-width: 0.8"/>
      </g>
     </g>
     <g id="text_6">
      <!-- $\mathdefault{10^{-1}}$ -->
      <g transform="translate(23.510312 131.039382) scale(0.08 -0.08)">
       <use xlink:href="#DejaVuSerif-31" transform="translate(0 0.7125)"/>
       <use xlink:href="#DejaVuSerif-30" transform="translate(63.623047 0.7125)"/>
       <use xlink:href="#DejaVuSerif-2212" transform="translate(128.154453 37.046875) scale(0.7)"/>
       <use xlink:href="#DejaVuSerif-31" transform="translate(186.806797 37.046875) scale(0.7)"/>
      </g>
     </g>
    </g>
    <g id="ytick_4">
     <g id="line2d_13">
      <path d="M 49.230312 98.699019 
L 495.413023 98.699019 
" clip-path="url(#p8fb9cd33a6)" style="fill: none; stroke: #b0b0b0; stroke-opacity: 0.25; stroke-width: 0.5; stroke-linecap: square"/>
     </g>
     <g id="line2d_14">
      <g>
       <use xlink:href="#m3d940dc907" x="49.230312" y="98.699019" style="stroke: #000000; stroke-width: 0.8"/>
      </g>
     </g>
     <g id="text_7">
      <!-- $\mathdefault{10^{0}}$ -->
      <g transform="translate(28.150312 101.738394) scale(0.08 -0.08)">
       <use xlink:href="#DejaVuSerif-31" transform="translate(0 0.7125)"/>
       <use xlink:href="#DejaVuSerif-30" transform="translate(63.623047 0.7125)"/>
       <use xlink:href="#DejaVuSerif-30" transform="translate(128.154453 37.046875) scale(0.7)"/>
      </g>
     </g>
    </g>
    <g id="ytick_5">
     <g id="line2d_15">
      <path d="M 49.230312 69.39803 
L 495.413023 69.39803 
" clip-path="url(#p8fb9cd33a6)" style="fill: none; stroke: #b0b0b0; stroke-opacity: 0.25; stroke-width: 0.5; stroke-linecap: square"/>
     </g>
     <g id="line2d_16">
      <g>
       <use xlink:href="#m3d940dc907" x="49.230312" y="69.39803" style="stroke: #000000; stroke-width: 0.8"/>
      </g>
     </g>
     <g id="text_8">
      <!-- $\mathdefault{10^{1}}$ -->
      <g transform="translate(28.150312 72.437405) scale(0.08 -0.08)">
       <use xlink:href="#DejaVuSerif-31" transform="translate(0 0.7125)"/>
       <use xlink:href="#DejaVuSerif-30" transform="translate(63.623047 0.7125)"/>
       <use xlink:href="#DejaVuSerif-31" transform="translate(128.154453 37.046875) scale(0.7)"/>
      </g>
     </g>
    </g>
    <g id="ytick_6">
     <g id="line2d_17">
      <path d="M 49.230312 40.097042 
L 495.413023 40.097042 
" clip-path="url(#p8fb9cd33a6)" style="fill: none; stroke: #b0b0b0; stroke-opacity: 0.25; stroke-width: 0.5; stroke-linecap: square"/>
     </g>
     <g id="line2d_18">
      <g>
       <use xlink:href="#m3d940dc907" x="49.230312" y="40.097042" style="stroke: #000000; stroke-width: 0.8"/>
      </g>
     </g>
     <g id="text_9">
      <!-- $\mathdefault{10^{2}}$ -->
      <g transform="translate(28.150312 43.136417) scale(0.08 -0.08)">
       <use xlink:href="#DejaVuSerif-31" transform="translate(0 0.7125)"/>
       <use xlink:href="#DejaVuSerif-30" transform="translate(63.623047 0.7125)"/>
       <use xlink:href="#DejaVuSerif-32" transform="translate(128.154453 37.046875) scale(0.7)"/>
      </g>
     </g>
    </g>
    <g id="ytick_7">
     <g id="line2d_19">
      <defs>
       <path id="md71114f1ba" d="M 0 0 
L -2 0 
" style="stroke: #000000; stroke-width: 0.6"/>
      </defs>
      <g>
       <use xlink:href="#md71114f1ba" x="49.230312" y="207.082496" style="stroke: #000000; stroke-width: 0.6"/>
      </g>
     </g>
    </g>
    <g id="ytick_8">
     <g id="line2d_20">
      <g>
       <use xlink:href="#md71114f1ba" x="49.230312" y="201.922848" style="stroke: #000000; stroke-width: 0.6"/>
      </g>
     </g>
    </g>
    <g id="ytick_9">
     <g id="line2d_21">
      <g>
       <use xlink:href="#md71114f1ba" x="49.230312" y="198.262019" style="stroke: #000000; stroke-width: 0.6"/>
      </g>
     </g>
    </g>
    <g id="ytick_10">
     <g id="line2d_22">
      <g>
       <use xlink:href="#md71114f1ba" x="49.230312" y="195.42246" style="stroke: #000000; stroke-width: 0.6"/>
      </g>
     </g>
    </g>
    <g id="ytick_11">
     <g id="line2d_23">
      <g>
       <use xlink:href="#md71114f1ba" x="49.230312" y="193.102371" style="stroke: #000000; stroke-width: 0.6"/>
      </g>
     </g>
    </g>
    <g id="ytick_12">
     <g id="line2d_24">
      <g>
       <use xlink:href="#md71114f1ba" x="49.230312" y="191.140764" style="stroke: #000000; stroke-width: 0.6"/>
      </g>
     </g>
    </g>
    <g id="ytick_13">
     <g id="line2d_25">
      <g>
       <use xlink:href="#md71114f1ba" x="49.230312" y="189.441543" style="stroke: #000000; stroke-width: 0.6"/>
      </g>
     </g>
    </g>
    <g id="ytick_14">
     <g id="line2d_26">
      <g>
       <use xlink:href="#md71114f1ba" x="49.230312" y="187.942724" style="stroke: #000000; stroke-width: 0.6"/>
      </g>
     </g>
    </g>
    <g id="ytick_15">
     <g id="line2d_27">
      <g>
       <use xlink:href="#md71114f1ba" x="49.230312" y="177.781507" style="stroke: #000000; stroke-width: 0.6"/>
      </g>
     </g>
    </g>
    <g id="ytick_16">
     <g id="line2d_28">
      <g>
       <use xlink:href="#md71114f1ba" x="49.230312" y="172.62186" style="stroke: #000000; stroke-width: 0.6"/>
      </g>
     </g>
    </g>
    <g id="ytick_17">
     <g id="line2d_29">
      <g>
       <use xlink:href="#md71114f1ba" x="49.230312" y="168.961031" style="stroke: #000000; stroke-width: 0.6"/>
      </g>
     </g>
    </g>
    <g id="ytick_18">
     <g id="line2d_30">
      <g>
       <use xlink:href="#md71114f1ba" x="49.230312" y="166.121472" style="stroke: #000000; stroke-width: 0.6"/>
      </g>
     </g>
    </g>
    <g id="ytick_19">
     <g id="line2d_31">
      <g>
       <use xlink:href="#md71114f1ba" x="49.230312" y="163.801383" style="stroke: #000000; stroke-width: 0.6"/>
      </g>
     </g>
    </g>
    <g id="ytick_20">
     <g id="line2d_32">
      <g>
       <use xlink:href="#md71114f1ba" x="49.230312" y="161.839776" style="stroke: #000000; stroke-width: 0.6"/>
      </g>
     </g>
    </g>
    <g id="ytick_21">
     <g id="line2d_33">
      <g>
       <use xlink:href="#md71114f1ba" x="49.230312" y="160.140555" style="stroke: #000000; stroke-width: 0.6"/>
      </g>
     </g>
    </g>
    <g id="ytick_22">
     <g id="line2d_34">
      <g>
       <use xlink:href="#md71114f1ba" x="49.230312" y="158.641735" style="stroke: #000000; stroke-width: 0.6"/>
      </g>
     </g>
    </g>
    <g id="ytick_23">
     <g id="line2d_35">
      <g>
       <use xlink:href="#md71114f1ba" x="49.230312" y="148.480519" style="stroke: #000000; stroke-width: 0.6"/>
      </g>
     </g>
    </g>
    <g id="ytick_24">
     <g id="line2d_36">
      <g>
       <use xlink:href="#md71114f1ba" x="49.230312" y="143.320871" style="stroke: #000000; stroke-width: 0.6"/>
      </g>
     </g>
    </g>
    <g id="ytick_25">
     <g id="line2d_37">
      <g>
       <use xlink:href="#md71114f1ba" x="49.230312" y="139.660043" style="stroke: #000000; stroke-width: 0.6"/>
      </g>
     </g>
    </g>
    <g id="ytick_26">
     <g id="line2d_38">
      <g>
       <use xlink:href="#md71114f1ba" x="49.230312" y="136.820484" style="stroke: #000000; stroke-width: 0.6"/>
      </g>
     </g>
    </g>
    <g id="ytick_27">
     <g id="line2d_39">
      <g>
       <use xlink:href="#md71114f1ba" x="49.230312" y="134.500395" style="stroke: #000000; stroke-width: 0.6"/>
      </g>
     </g>
    </g>
    <g id="ytick_28">
     <g id="line2d_40">
      <g>
       <use xlink:href="#md71114f1ba" x="49.230312" y="132.538788" style="stroke: #000000; stroke-width: 0.6"/>
      </g>
     </g>
    </g>
    <g id="ytick_29">
     <g id="line2d_41">
      <g>
       <use xlink:href="#md71114f1ba" x="49.230312" y="130.839566" style="stroke: #000000; stroke-width: 0.6"/>
      </g>
     </g>
    </g>
    <g id="ytick_30">
     <g id="line2d_42">
      <g>
       <use xlink:href="#md71114f1ba" x="49.230312" y="129.340747" style="stroke: #000000; stroke-width: 0.6"/>
      </g>
     </g>
    </g>
    <g id="ytick_31">
     <g id="line2d_43">
      <g>
       <use xlink:href="#md71114f1ba" x="49.230312" y="119.179531" style="stroke: #000000; stroke-width: 0.6"/>
      </g>
     </g>
    </g>
    <g id="ytick_32">
     <g id="line2d_44">
      <g>
       <use xlink:href="#md71114f1ba" x="49.230312" y="114.019883" style="stroke: #000000; stroke-width: 0.6"/>
      </g>
     </g>
    </g>
    <g id="ytick_33">
     <g id="line2d_45">
      <g>
       <use xlink:href="#md71114f1ba" x="49.230312" y="110.359054" style="stroke: #000000; stroke-width: 0.6"/>
      </g>
     </g>
    </g>
    <g id="ytick_34">
     <g id="line2d_46">
      <g>
       <use xlink:href="#md71114f1ba" x="49.230312" y="107.519495" style="stroke: #000000; stroke-width: 0.6"/>
      </g>
     </g>
    </g>
    <g id="ytick_35">
     <g id="line2d_47">
      <g>
       <use xlink:href="#md71114f1ba" x="49.230312" y="105.199406" style="stroke: #000000; stroke-width: 0.6"/>
      </g>
     </g>
    </g>
    <g id="ytick_36">
     <g id="line2d_48">
      <g>
       <use xlink:href="#md71114f1ba" x="49.230312" y="103.237799" style="stroke: #000000; stroke-width: 0.6"/>
      </g>
     </g>
    </g>
    <g id="ytick_37">
     <g id="line2d_49">
      <g>
       <use xlink:href="#md71114f1ba" x="49.230312" y="101.538578" style="stroke: #000000; stroke-width: 0.6"/>
      </g>
     </g>
    </g>
    <g id="ytick_38">
     <g id="line2d_50">
      <g>
       <use xlink:href="#md71114f1ba" x="49.230312" y="100.039758" style="stroke: #000000; stroke-width: 0.6"/>
      </g>
     </g>
    </g>
    <g id="ytick_39">
     <g id="line2d_51">
      <g>
       <use xlink:href="#md71114f1ba" x="49.230312" y="89.878542" style="stroke: #000000; stroke-width: 0.6"/>
      </g>
     </g>
    </g>
    <g id="ytick_40">
     <g id="line2d_52">
      <g>
       <use xlink:href="#md71114f1ba" x="49.230312" y="84.718894" style="stroke: #000000; stroke-width: 0.6"/>
      </g>
     </g>
    </g>
    <g id="ytick_41">
     <g id="line2d_53">
      <g>
       <use xlink:href="#md71114f1ba" x="49.230312" y="81.058066" style="stroke: #000000; stroke-width: 0.6"/>
      </g>
     </g>
    </g>
    <g id="ytick_42">
     <g id="line2d_54">
      <g>
       <use xlink:href="#md71114f1ba" x="49.230312" y="78.218507" style="stroke: #000000; stroke-width: 0.6"/>
      </g>
     </g>
    </g>
    <g id="ytick_43">
     <g id="line2d_55">
      <g>
       <use xlink:href="#md71114f1ba" x="49.230312" y="75.898418" style="stroke: #000000; stroke-width: 0.6"/>
      </g>
     </g>
    </g>
    <g id="ytick_44">
     <g id="line2d_56">
      <g>
       <use xlink:href="#md71114f1ba" x="49.230312" y="73.936811" style="stroke: #000000; stroke-width: 0.6"/>
      </g>
     </g>
    </g>
    <g id="ytick_45">
     <g id="line2d_57">
      <g>
       <use xlink:href="#md71114f1ba" x="49.230312" y="72.23759" style="stroke: #000000; stroke-width: 0.6"/>
      </g>
     </g>
    </g>
    <g id="ytick_46">
     <g id="line2d_58">
      <g>
       <use xlink:href="#md71114f1ba" x="49.230312" y="70.73877" style="stroke: #000000; stroke-width: 0.6"/>
      </g>
     </g>
    </g>
    <g id="ytick_47">
     <g id="line2d_59">
      <g>
       <use xlink:href="#md71114f1ba" x="49.230312" y="60.577554" style="stroke: #000000; stroke-width: 0.6"/>
      </g>
     </g>
    </g>
    <g id="ytick_48">
     <g id="line2d_60">
      <g>
       <use xlink:href="#md71114f1ba" x="49.230312" y="55.417906" style="stroke: #000000; stroke-width: 0.6"/>
      </g>
     </g>
    </g>
    <g id="ytick_49">
     <g id="line2d_61">
      <g>
       <use xlink:href="#md71114f1ba" x="49.230312" y="51.757078" style="stroke: #000000; stroke-width: 0.6"/>
      </g>
     </g>
    </g>
    <g id="ytick_50">
     <g id="line2d_62">
      <g>
       <use xlink:href="#md71114f1ba" x="49.230312" y="48.917518" style="stroke: #000000; stroke-width: 0.6"/>
      </g>
     </g>
    </g>
    <g id="ytick_51">
     <g id="line2d_63">
      <g>
       <use xlink:href="#md71114f1ba" x="49.230312" y="46.59743" style="stroke: #000000; stroke-width: 0.6"/>
      </g>
     </g>
    </g>
    <g id="ytick_52">
     <g id="line2d_64">
      <g>
       <use xlink:href="#md71114f1ba" x="49.230312" y="44.635823" style="stroke: #000000; stroke-width: 0.6"/>
      </g>
     </g>
    </g>
    <g id="ytick_53">
     <g id="line2d_65">
      <g>
       <use xlink:href="#md71114f1ba" x="49.230312" y="42.936601" style="stroke: #000000; stroke-width: 0.6"/>
      </g>
     </g>
    </g>
    <g id="ytick_54">
     <g id="line2d_66">
      <g>
       <use xlink:href="#md71114f1ba" x="49.230312" y="41.437782" style="stroke: #000000; stroke-width: 0.6"/>
      </g>
     </g>
    </g>
    <g id="ytick_55">
     <g id="line2d_67">
      <g>
       <use xlink:href="#md71114f1ba" x="49.230312" y="31.276566" style="stroke: #000000; stroke-width: 0.6"/>
      </g>
     </g>
    </g>
    <g id="ytick_56">
     <g id="line2d_68">
      <g>
       <use xlink:href="#md71114f1ba" x="49.230312" y="26.116918" style="stroke: #000000; stroke-width: 0.6"/>
      </g>
     </g>
    </g>
    <g id="text_10">
     <!-- MiB/s -->
     <g transform="translate(17.638594 130.879382) rotate(-90) scale(0.09 -0.09)">
      <defs>
       <path id="DejaVuSerif-4d" d="M 353 0 
L 353 331 
L 947 331 
L 947 4331 
L 319 4331 
L 319 4666 
L 1678 4666 
L 3316 1344 
L 4953 4666 
L 6228 4666 
L 6228 4331 
L 5606 4331 
L 5606 331 
L 6203 331 
L 6203 0 
L 4378 0 
L 4378 331 
L 4972 331 
L 4972 3938 
L 3372 684 
L 2931 684 
L 1331 3938 
L 1331 331 
L 1925 331 
L 1925 0 
L 353 0 
z
" transform="scale(0.015625)"/>
       <path id="DejaVuSerif-69" d="M 622 4353 
Q 622 4497 726 4603 
Q 831 4709 978 4709 
Q 1122 4709 1226 4603 
Q 1331 4497 1331 4353 
Q 1331 4206 1228 4103 
Q 1125 4000 978 4000 
Q 831 4000 726 4103 
Q 622 4206 622 4353 
z
M 1356 331 
L 1900 331 
L 1900 0 
L 231 0 
L 231 331 
L 781 331 
L 781 2988 
L 231 2988 
L 231 3322 
L 1356 3322 
L 1356 331 
z
" transform="scale(0.015625)"/>
       <path id="DejaVuSerif-42" d="M 1581 331 
L 2516 331 
Q 3078 331 3337 575 
Q 3597 819 3597 1350 
Q 3597 1878 3339 2120 
Q 3081 2363 2516 2363 
L 1581 2363 
L 1581 331 
z
M 1581 2694 
L 2375 2694 
Q 2888 2694 3123 2891 
Q 3359 3088 3359 3513 
Q 3359 3941 3123 4136 
Q 2888 4331 2375 4331 
L 1581 4331 
L 1581 2694 
z
M 353 0 
L 353 331 
L 947 331 
L 947 4331 
L 353 4331 
L 353 4666 
L 2656 4666 
Q 3363 4666 3720 4377 
Q 4078 4088 4078 3513 
Q 4078 3097 3829 2850 
Q 3581 2603 3103 2547 
Q 3697 2472 4005 2167 
Q 4313 1863 4313 1350 
Q 4313 656 3875 328 
Q 3438 0 2509 0 
L 353 0 
z
" transform="scale(0.015625)"/>
       <path id="DejaVuSerif-2f" d="M 1656 4666 
L 2156 4666 
L 500 -594 
L 0 -594 
L 1656 4666 
z
" transform="scale(0.015625)"/>
       <path id="DejaVuSerif-73" d="M 359 184 
L 359 959 
L 691 959 
Q 703 588 923 403 
Q 1144 219 1575 219 
Q 1963 219 2166 364 
Q 2369 509 2369 788 
Q 2369 1006 2220 1140 
Q 2072 1275 1594 1428 
L 1178 1569 
Q 750 1706 558 1912 
Q 366 2119 366 2438 
Q 366 2894 700 3153 
Q 1034 3413 1625 3413 
Q 1888 3413 2178 3344 
Q 2469 3275 2778 3144 
L 2778 2419 
L 2447 2419 
Q 2434 2741 2221 2922 
Q 2009 3103 1644 3103 
Q 1281 3103 1095 2975 
Q 909 2847 909 2591 
Q 909 2381 1050 2254 
Q 1191 2128 1613 1997 
L 2069 1856 
Q 2541 1709 2748 1489 
Q 2956 1269 2956 922 
Q 2956 450 2595 179 
Q 2234 -91 1600 -91 
Q 1278 -91 972 -22 
Q 666 47 359 184 
z
" transform="scale(0.015625)"/>
      </defs>
      <use xlink:href="#DejaVuSerif-4d"/>
      <use xlink:href="#DejaVuSerif-69" x="102.392578"/>
      <use xlink:href="#DejaVuSerif-42" x="134.375"/>
      <use xlink:href="#DejaVuSerif-2f" x="207.861328"/>
      <use xlink:href="#DejaVuSerif-73" x="241.552734"/>
     </g>
    </g>
   </g>
   <g id="line2d_69">
    <path d="M 69.511345 50.678974 
L 73.968715 50.676951 
L 78.426084 50.630109 
L 82.883454 50.595132 
L 87.340824 50.570086 
L 91.798193 50.589441 
L 96.255563 50.61403 
L 100.712933 50.634572 
L 105.170303 50.650018 
L 109.627672 50.683327 
L 114.085042 50.727761 
L 118.542412 50.779114 
L 122.999782 50.806477 
L 127.457151 50.820041 
L 131.914521 50.825853 
L 136.371891 50.840816 
L 140.82926 50.856563 
L 145.28663 50.877741 
L 149.744 50.893946 
L 154.20137 50.901783 
L 158.658739 50.906562 
L 163.116109 50.916733 
L 167.573479 50.929425 
L 172.030849 50.943613 
L 176.488218 50.951764 
L 180.945588 50.975784 
L 185.402958 50.991316 
L 189.860328 51.005911 
L 194.317697 51.025367 
L 198.775067 51.063615 
L 203.232437 51.126516 
L 207.689806 51.192984 
L 212.147176 51.230397 
L 216.604546 51.259126 
L 221.061916 51.283595 
L 225.519285 51.295615 
L 229.976655 51.280033 
L 234.434025 51.247525 
L 238.891395 51.214296 
L 243.348764 51.164573 
L 247.806134 51.101435 
L 252.263504 51.05879 
L 256.720874 51.030694 
L 261.178243 50.996639 
L 265.635613 50.959145 
L 270.092983 50.909683 
L 274.550352 50.880377 
L 279.007722 50.895598 
L 283.465092 50.895816 
L 287.922462 50.887506 
L 292.379831 50.899798 
L 296.837201 50.909206 
L 301.294571 50.916938 
L 305.751941 50.950867 
L 310.20931 50.951029 
L 314.66668 50.959015 
L 319.12405 50.982173 
L 323.581419 51.054718 
L 328.038789 51.133275 
L 332.496159 51.175239 
L 336.953529 51.151495 
L 341.410898 51.140121 
L 345.868268 51.127857 
L 350.325638 51.103931 
L 354.783008 51.010796 
L 359.240377 50.925823 
L 363.697747 50.880069 
L 368.155117 50.890021 
L 372.612487 50.912925 
L 377.069856 50.94615 
L 381.527226 50.964824 
L 385.984596 50.974994 
L 390.441965 50.975374 
L 394.899335 50.916334 
L 399.356705 50.807153 
L 403.814075 50.704685 
L 408.271444 50.597495 
L 412.728814 50.481071 
L 417.186184 50.403646 
L 421.643554 50.308787 
L 426.100923 50.281124 
L 430.558293 50.290165 
L 435.015663 50.302854 
L 439.473033 50.371463 
L 443.930402 50.4624 
L 448.387772 50.47528 
L 452.845142 50.514187 
L 457.302511 50.55674 
L 461.759881 50.612225 
L 466.217251 50.639953 
L 470.674621 50.606874 
L 475.13199 50.582573 
" clip-path="url(#p8fb9cd33a6)" style="fill: none; stroke: #e6194b; stroke-width: 1.3; stroke-linecap: square"/>
   </g>
   <g id="line2d_70">
    <path d="M 69.511345 134.807572 
L 73.968715 134.67271 
L 78.426084 134.700482 
L 82.883454 134.70347 
L 87.340824 134.607737 
L 91.798193 134.679778 
L 96.255563 134.654288 
L 100.712933 134.690243 
L 105.170303 134.877357 
L 109.627672 134.822743 
L 114.085042 134.83329 
L 118.542412 134.952139 
L 122.999782 135.011781 
L 127.457151 135.285145 
L 131.914521 135.563672 
L 136.371891 135.755926 
L 140.82926 135.938317 
L 145.28663 135.895168 
L 149.744 135.778742 
L 154.20137 135.757199 
L 158.658739 135.725252 
L 163.116109 135.571779 
L 167.573479 135.458012 
L 172.030849 135.5479 
L 176.488218 135.773501 
L 180.945588 136.008714 
L 185.402958 136.199127 
L 189.860328 136.202507 
L 194.317697 136.352547 
L 198.775067 136.46333 
L 203.232437 136.446586 
L 207.689806 136.487079 
L 212.147176 136.172199 
L 216.604546 135.909357 
L 221.061916 136.03311 
L 225.519285 136.185771 
L 229.976655 136.327724 
L 234.434025 136.419175 
L 238.891395 136.571957 
L 243.348764 137.149521 
L 247.806134 137.848637 
L 252.263504 138.141095 
L 256.720874 138.219583 
L 261.178243 138.330451 
L 265.635613 138.485027 
L 270.092983 138.481256 
L 274.550352 138.621075 
L 279.007722 138.742749 
L 283.465092 138.619267 
L 287.922462 138.308165 
L 292.379831 137.948438 
L 296.837201 137.679916 
L 301.294571 137.441325 
L 305.751941 137.12284 
L 310.20931 136.647232 
L 314.66668 136.435587 
L 319.12405 136.434899 
L 323.581419 136.569944 
L 328.038789 136.675634 
L 332.496159 136.440173 
L 336.953529 136.739437 
L 341.410898 137.081706 
L 345.868268 137.377516 
L 350.325638 137.284268 
L 354.783008 137.432262 
L 359.240377 137.672596 
L 363.697747 138.06745 
L 368.155117 137.753146 
L 372.612487 137.242733 
L 377.069856 136.914504 
L 381.527226 137.018022 
L 385.984596 136.850577 
L 390.441965 136.695984 
L 394.899335 136.731225 
L 399.356705 136.769089 
L 403.814075 136.918662 
L 408.271444 136.976503 
L 412.728814 136.809435 
L 417.186184 136.754354 
L 421.643554 136.647422 
L 426.100923 136.566149 
L 430.558293 136.574047 
L 435.015663 136.145246 
L 439.473033 136.024668 
L 443.930402 136.156292 
L 448.387772 136.220309 
L 452.845142 136.31151 
L 457.302511 136.50372 
L 461.759881 136.596423 
L 466.217251 137.244367 
L 470.674621 137.601615 
L 475.13199 137.777635 
" clip-path="url(#p8fb9cd33a6)" style="fill: none; stroke: #3366cc; stroke-width: 1.3; stroke-linecap: square"/>
   </g>
   <g id="line2d_71">
    <path d="M 69.511345 151.473086 
L 73.968715 151.609653 
L 78.426084 151.208159 
L 82.883454 150.586951 
L 87.340824 150.170552 
L 91.798193 149.471413 
L 96.255563 148.954289 
L 100.712933 148.899298 
L 105.170303 148.721604 
L 109.627672 148.806595 
L 114.085042 149.021096 
L 118.542412 149.423522 
L 122.999782 150.378783 
L 127.457151 151.494558 
L 131.914521 151.814747 
L 136.371891 152.254927 
L 140.82926 152.470296 
L 145.28663 152.88797 
L 149.744 153.134043 
L 154.20137 153.173986 
L 158.658739 153.141743 
L 163.116109 153.181764 
L 167.573479 153.172598 
L 172.030849 152.519667 
L 176.488218 152.491119 
L 180.945588 152.451727 
L 185.402958 152.438654 
L 189.860328 152.525496 
L 194.317697 152.528677 
L 198.775067 152.59714 
L 203.232437 149.879502 
L 207.689806 125.689465 
L 212.147176 114.879446 
L 216.604546 108.884134 
L 221.061916 104.819604 
L 225.519285 101.761956 
L 229.976655 100.722315 
L 234.434025 100.782521 
L 238.891395 102.405401 
L 243.348764 105.476309 
L 247.806134 109.7796 
L 252.263504 116.340529 
L 256.720874 130.455177 
L 261.178243 151.39384 
L 265.635613 151.345451 
L 270.092983 151.387899 
L 274.550352 151.351693 
L 279.007722 151.285851 
L 283.465092 151.246364 
L 287.922462 151.24071 
L 292.379831 151.199828 
L 296.837201 149.662254 
L 301.294571 149.651281 
L 305.751941 149.626619 
L 310.20931 149.677943 
L 314.66668 149.893956 
L 319.12405 150.068911 
L 323.581419 150.292802 
L 328.038789 152.155832 
L 332.496159 152.45145 
L 336.953529 152.788811 
L 341.410898 153.057299 
L 345.868268 152.938167 
L 350.325638 152.645155 
L 354.783008 152.330085 
L 359.240377 152.002534 
L 363.697747 151.746984 
L 368.155117 151.486803 
L 372.612487 151.214324 
L 377.069856 150.909299 
L 381.527226 150.894223 
L 385.984596 150.948118 
L 390.441965 151.003131 
L 394.899335 150.942624 
L 399.356705 150.823974 
L 403.814075 150.683662 
L 408.271444 150.685469 
L 412.728814 150.539705 
L 417.186184 150.360516 
L 421.643554 150.168453 
L 426.100923 150.023121 
L 430.558293 149.989694 
L 435.015663 149.788474 
L 439.473033 149.729796 
L 443.930402 149.740806 
L 448.387772 149.75337 
L 452.845142 149.791378 
L 457.302511 149.714256 
L 461.759881 149.534586 
L 466.217251 149.541585 
L 470.674621 149.513349 
L 475.13199 149.452129 
" clip-path="url(#p8fb9cd33a6)" style="fill: none; stroke: #f58231; stroke-width: 1.3; stroke-linecap: square"/>
   </g>
   <g id="line2d_72">
    <path d="M 73.968715 164.360994 
L 78.426084 167.900423 
L 82.883454 162.409596 
L 87.340824 159.714054 
L 91.798193 158.607776 
L 96.255563 157.584725 
L 100.712933 156.8189 
L 105.170303 155.642336 
L 109.627672 154.096584 
L 114.085042 153.797537 
L 118.542412 153.757434 
L 122.999782 154.314348 
L 127.457151 156.22012 
L 131.914521 158.463222 
L 136.371891 160.826055 
L 140.82926 163.713155 
L 145.28663 166.309972 
L 149.744 170.773959 
L 154.20137 173.552756 
L 158.658739 172.860434 
L 163.116109 172.518464 
L 167.573479 172.337829 
L 172.030849 172.759528 
L 176.488218 175.503431 
L 180.945588 177.212808 
L 185.402958 179.326824 
L 189.860328 180.809513 
L 194.317697 182.451442 
L 198.775067 184.264168 
L 203.232437 184.882891 
L 207.689806 186.493788 
L 212.147176 186.880017 
L 216.604546 187.132106 
L 221.061916 186.757074 
L 225.519285 185.967286 
L 229.976655 173.978439 
L 234.434025 168.014307 
L 238.891395 163.878416 
L 243.348764 160.921056 
L 247.806134 158.370954 
L 252.263504 156.25766 
L 256.720874 154.506111 
L 261.178243 154.497101 
L 265.635613 154.432075 
L 270.092983 154.054927 
L 274.550352 153.746546 
L 279.007722 153.619138 
L 283.465092 153.532646 
L 287.922462 153.334474 
L 292.379831 153.143868 
L 296.837201 153.039328 
L 301.294571 153.258961 
L 305.751941 153.352299 
L 310.20931 153.71471 
L 314.66668 155.576184 
L 319.12405 157.858941 
L 323.581419 160.68024 
L 328.038789 164.274398 
L 332.496159 169.060425 
L 336.953529 176.727656 
L 341.410898 190.99151 
L 345.868268 191.47126 
L 350.325638 192.050706 
L 354.783008 192.154253 
L 359.240377 192.241902 
L 363.697747 191.902525 
L 368.155117 191.524055 
L 372.612487 190.827513 
L 377.069856 190.435502 
L 381.527226 189.897855 
L 385.984596 189.486674 
L 390.441965 189.273644 
L 394.899335 188.961679 
L 399.356705 188.744339 
L 403.814075 188.65358 
L 408.271444 188.866916 
L 412.728814 189.363588 
L 417.186184 189.791042 
L 421.643554 189.869083 
L 426.100923 189.85327 
L 430.558293 189.911618 
L 435.015663 189.715838 
L 439.473033 189.525948 
L 443.930402 189.138136 
L 448.387772 189.187733 
L 452.845142 189.472435 
L 457.302511 190.090449 
L 461.759881 190.615494 
L 466.217251 191.239315 
L 470.674621 191.73976 
L 475.13199 192.717973 
" clip-path="url(#p8fb9cd33a6)" style="fill: none; stroke: #911eb4; stroke-width: 1.3; stroke-linecap: square"/>
   </g>
   <g id="line2d_73">
    <path d="M 69.511345 125.780709 
L 73.968715 125.808382 
L 78.426084 125.87094 
L 82.883454 125.899571 
L 87.340824 125.906349 
L 91.798193 125.919484 
L 96.255563 125.973029 
L 100.712933 126.022162 
L 105.170303 126.102753 
L 109.627672 126.187015 
L 114.085042 126.133069 
L 118.542412 126.277473 
L 122.999782 126.285931 
L 127.457151 126.276204 
L 131.914521 126.375622 
L 136.371891 126.425901 
L 140.82926 126.42438 
L 145.28663 126.475383 
L 149.744 126.205453 
L 154.20137 126.174216 
L 158.658739 126.27695 
L 163.116109 126.304497 
L 167.573479 126.349044 
L 172.030849 126.429126 
L 176.488218 126.389347 
L 180.945588 126.583499 
L 185.402958 126.702876 
L 189.860328 126.786074 
L 194.317697 126.876994 
L 198.775067 126.869352 
L 203.232437 126.774517 
L 207.689806 126.902045 
L 212.147176 126.960758 
L 216.604546 126.957066 
L 221.061916 126.888869 
L 225.519285 126.806869 
L 229.976655 126.711349 
L 234.434025 126.726308 
L 238.891395 126.574089 
L 243.348764 126.336541 
L 247.806134 126.173628 
L 252.263504 126.125893 
L 256.720874 126.154045 
L 261.178243 126.31579 
L 265.635613 126.484921 
L 270.092983 126.61419 
L 274.550352 126.919556 
L 279.007722 127.243377 
L 283.465092 127.382563 
L 287.922462 127.41321 
L 292.379831 127.404135 
L 296.837201 127.368837 
L 301.294571 127.442065 
L 305.751941 127.464861 
L 310.20931 127.370722 
L 314.66668 127.375172 
L 319.12405 127.380087 
L 323.581419 127.467553 
L 328.038789 127.527076 
L 332.496159 127.935908 
L 336.953529 127.616364 
L 341.410898 127.627026 
L 345.868268 127.675698 
L 350.325638 127.72649 
L 354.783008 127.702726 
L 359.240377 127.678847 
L 363.697747 127.198856 
L 368.155117 127.32999 
L 372.612487 127.431352 
L 377.069856 127.420354 
L 381.527226 127.416418 
L 385.984596 127.39501 
L 390.441965 127.419373 
L 394.899335 127.580641 
L 399.356705 127.772312 
L 403.814075 127.720778 
L 408.271444 127.645296 
L 412.728814 127.567789 
L 417.186184 127.560303 
L 421.643554 127.535425 
L 426.100923 127.462424 
L 430.558293 127.460767 
L 435.015663 127.424614 
L 439.473033 127.439169 
L 443.930402 127.525822 
L 448.387772 127.576008 
L 452.845142 127.653248 
L 457.302511 127.777355 
" clip-path="url(#p8fb9cd33a6)" style="fill: none; stroke: #42d4f4; stroke-width: 1.3; stroke-linecap: square"/>
   </g>
   <g id="line2d_74">
    <path d="M 73.968715 191.181791 
L 78.426084 186.202889 
L 82.883454 185.281491 
L 87.340824 185.099576 
L 91.798193 184.720755 
L 96.255563 184.868331 
L 100.712933 185.21843 
L 105.170303 185.035183 
L 109.627672 185.631967 
L 114.085042 185.993088 
L 118.542412 186.605289 
L 122.999782 187.386155 
L 127.457151 187.198246 
L 131.914521 187.64978 
L 136.371891 187.542175 
L 140.82926 188.391905 
L 145.28663 189.537913 
L 149.744 190.269487 
L 154.20137 190.873332 
L 158.658739 184.266978 
L 163.116109 176.77706 
L 167.573479 172.190841 
L 172.030849 168.668388 
L 176.488218 165.830451 
L 180.945588 163.561258 
L 185.402958 161.618191 
L 189.860328 162.026031 
L 194.317697 163.616791 
L 198.775067 165.548928 
L 203.232437 167.804649 
L 207.689806 170.610824 
L 212.147176 174.089046 
L 216.604546 179.307449 
L 221.061916 181.142659 
L 225.519285 181.769003 
L 229.976655 181.871931 
L 234.434025 182.064803 
L 238.891395 182.274162 
L 243.348764 182.576756 
L 247.806134 182.63837 
L 252.263504 182.472332 
L 256.720874 182.24981 
L 261.178243 182.429328 
L 265.635613 182.416707 
L 270.092983 182.294544 
L 274.550352 182.220803 
L 279.007722 182.061442 
L 283.465092 182.159041 
L 287.922462 182.120882 
L 292.379831 181.857399 
L 296.837201 181.904317 
L 301.294571 182.501949 
L 305.751941 182.710589 
L 310.20931 182.567613 
L 314.66668 183.145523 
L 319.12405 184.953687 
L 323.581419 187.019173 
L 328.038789 189.325122 
L 332.496159 181.134293 
L 336.953529 180.698015 
L 341.410898 180.735764 
L 345.868268 180.250115 
L 350.325638 178.795046 
L 354.783008 177.665041 
L 359.240377 176.449346 
L 363.697747 180.867226 
L 368.155117 181.108973 
L 372.612487 181.04509 
L 377.069856 180.958637 
L 381.527226 181.136691 
L 385.984596 181.099667 
L 390.441965 181.187468 
L 394.899335 181.005596 
L 399.356705 180.845756 
L 403.814075 181.181186 
L 408.271444 182.569307 
L 412.728814 184.074016 
L 417.186184 185.778393 
L 421.643554 188.092097 
L 426.100923 191.432689 
L 430.558293 195.40981 
L 435.015663 199.04701 
L 439.473033 199.114243 
L 443.930402 199.486569 
L 448.387772 200.089154 
L 452.845142 200.179426 
L 457.302511 199.991181 
L 461.759881 200.22983 
L 466.217251 201.151211 
L 470.674621 201.514308 
L 475.13199 201.830191 
" clip-path="url(#p8fb9cd33a6)" style="fill: none; stroke: #3cb44b; stroke-width: 1.3; stroke-linecap: square"/>
   </g>
   <g id="line2d_75">
    <path d="M 49.230312 33.571229 
L 495.413023 33.571229 
" clip-path="url(#p8fb9cd33a6)" style="fill: none; stroke-dasharray: 0.7,1.155; stroke-dashoffset: 0; stroke: #e6194b; stroke-opacity: 0.4; stroke-width: 0.7"/>
   </g>
   <g id="line2d_76">
    <path d="M 49.230312 117.966684 
L 495.413023 117.966684 
" clip-path="url(#p8fb9cd33a6)" style="fill: none; stroke-dasharray: 0.7,1.155; stroke-dashoffset: 0; stroke: #3366cc; stroke-opacity: 0.4; stroke-width: 0.7"/>
   </g>
   <g id="line2d_77">
    <path d="M 49.230312 95.262854 
L 495.413023 95.262854 
" clip-path="url(#p8fb9cd33a6)" style="fill: none; stroke-dasharray: 0.7,1.155; stroke-dashoffset: 0; stroke: #f58231; stroke-opacity: 0.4; stroke-width: 0.7"/>
   </g>
   <g id="line2d_78">
    <path d="M 49.230312 111.351135 
L 495.413023 111.351135 
" clip-path="url(#p8fb9cd33a6)" style="fill: none; stroke-dasharray: 0.7,1.155; stroke-dashoffset: 0; stroke: #911eb4; stroke-opacity: 0.4; stroke-width: 0.7"/>
   </g>
   <g id="line2d_79">
    <path d="M 49.230312 46.811305 
L 495.413023 46.811305 
" clip-path="url(#p8fb9cd33a6)" style="fill: none; stroke-dasharray: 0.7,1.155; stroke-dashoffset: 0; stroke: #42d4f4; stroke-opacity: 0.4; stroke-width: 0.7"/>
   </g>
   <g id="line2d_80">
    <path d="M 49.230312 118.558663 
L 495.413023 118.558663 
" clip-path="url(#p8fb9cd33a6)" style="fill: none; stroke-dasharray: 0.7,1.155; stroke-dashoffset: 0; stroke: #3cb44b; stroke-opacity: 0.4; stroke-width: 0.7"/>
   </g>
   <g id="patch_3">
    <path d="M 49.230312 210.243139 
L 49.230312 25.158281 
" style="fill: none; stroke: #000000; stroke-width: 0.6; stroke-linejoin: miter; stroke-linecap: square"/>
   </g>
   <g id="patch_4">
    <path d="M 49.230313 210.243139 
L 495.413023 210.243139 
" style="fill: none; stroke: #000000; stroke-width: 0.6; stroke-linejoin: miter; stroke-linecap: square"/>
   </g>
   <g id="text_11">
    <!-- Combined DA Throughput (7d rolling avg) -->
    <g transform="translate(154.336355 19.158281) scale(0.11 -0.11)">
     <defs>
      <path id="DejaVuSerif-43" d="M 4513 1234 
Q 4306 581 3820 245 
Q 3334 -91 2591 -91 
Q 2134 -91 1743 65 
Q 1353 222 1050 525 
Q 700 875 529 1320 
Q 359 1766 359 2328 
Q 359 3416 987 4083 
Q 1616 4750 2644 4750 
Q 3025 4750 3456 4650 
Q 3888 4550 4384 4347 
L 4384 3272 
L 4031 3272 
Q 3916 3859 3567 4137 
Q 3219 4416 2591 4416 
Q 1844 4416 1459 3886 
Q 1075 3356 1075 2328 
Q 1075 1303 1459 773 
Q 1844 244 2591 244 
Q 3113 244 3450 492 
Q 3788 741 3938 1234 
L 4513 1234 
z
" transform="scale(0.015625)"/>
      <path id="DejaVuSerif-6f" d="M 1925 219 
Q 2388 219 2623 584 
Q 2859 950 2859 1663 
Q 2859 2375 2623 2739 
Q 2388 3103 1925 3103 
Q 1463 3103 1227 2739 
Q 991 2375 991 1663 
Q 991 950 1228 584 
Q 1466 219 1925 219 
z
M 1925 -91 
Q 1200 -91 759 389 
Q 319 869 319 1663 
Q 319 2456 758 2934 
Q 1197 3413 1925 3413 
Q 2653 3413 3092 2934 
Q 3531 2456 3531 1663 
Q 3531 869 3092 389 
Q 2653 -91 1925 -91 
z
" transform="scale(0.015625)"/>
      <path id="DejaVuSerif-6d" d="M 3316 2675 
Q 3481 3041 3739 3227 
Q 3997 3413 4341 3413 
Q 4863 3413 5119 3089 
Q 5375 2766 5375 2113 
L 5375 331 
L 5894 331 
L 5894 0 
L 4300 0 
L 4300 331 
L 4800 331 
L 4800 2047 
Q 4800 2556 4650 2772 
Q 4500 2988 4153 2988 
Q 3769 2988 3567 2697 
Q 3366 2406 3366 1850 
L 3366 331 
L 3866 331 
L 3866 0 
L 2291 0 
L 2291 331 
L 2791 331 
L 2791 2069 
Q 2791 2566 2641 2777 
Q 2491 2988 2144 2988 
Q 1759 2988 1557 2697 
Q 1356 2406 1356 1850 
L 1356 331 
L 1856 331 
L 1856 0 
L 263 0 
L 263 331 
L 781 331 
L 781 2994 
L 231 2994 
L 231 3322 
L 1356 3322 
L 1356 2731 
Q 1516 3063 1762 3238 
Q 2009 3413 2322 3413 
Q 2709 3413 2968 3220 
Q 3228 3028 3316 2675 
z
" transform="scale(0.015625)"/>
      <path id="DejaVuSerif-64" d="M 3359 331 
L 3909 331 
L 3909 0 
L 2784 0 
L 2784 519 
Q 2616 206 2355 57 
Q 2094 -91 1709 -91 
Q 1097 -91 708 395 
Q 319 881 319 1663 
Q 319 2444 706 2928 
Q 1094 3413 1709 3413 
Q 2094 3413 2355 3264 
Q 2616 3116 2784 2803 
L 2784 4531 
L 2241 4531 
L 2241 4863 
L 3359 4863 
L 3359 331 
z
M 2784 1497 
L 2784 1825 
Q 2784 2422 2554 2737 
Q 2325 3053 1888 3053 
Q 1444 3053 1217 2703 
Q 991 2353 991 1663 
Q 991 975 1217 622 
Q 1444 269 1888 269 
Q 2325 269 2554 583 
Q 2784 897 2784 1497 
z
" transform="scale(0.015625)"/>
      <path id="DejaVuSerif-41" d="M 1281 1691 
L 2994 1691 
L 2138 3909 
L 1281 1691 
z
M -38 0 
L -38 331 
L 372 331 
L 2034 4666 
L 2559 4666 
L 4225 331 
L 4684 331 
L 4684 0 
L 2988 0 
L 2988 331 
L 3506 331 
L 3116 1356 
L 1153 1356 
L 763 331 
L 1275 331 
L 1275 0 
L -38 0 
z
" transform="scale(0.015625)"/>
      <path id="DejaVuSerif-54" d="M 1222 0 
L 1222 331 
L 1819 331 
L 1819 4294 
L 447 4294 
L 447 3566 
L 63 3566 
L 63 4666 
L 4206 4666 
L 4206 3566 
L 3822 3566 
L 3822 4294 
L 2450 4294 
L 2450 331 
L 3047 331 
L 3047 0 
L 1222 0 
z
" transform="scale(0.015625)"/>
      <path id="DejaVuSerif-68" d="M 263 0 
L 263 331 
L 781 331 
L 781 4531 
L 231 4531 
L 231 4863 
L 1356 4863 
L 1356 2731 
Q 1516 3069 1770 3241 
Q 2025 3413 2363 3413 
Q 2913 3413 3172 3097 
Q 3431 2781 3431 2113 
L 3431 331 
L 3944 331 
L 3944 0 
L 2356 0 
L 2356 331 
L 2853 331 
L 2853 1931 
Q 2853 2541 2704 2764 
Q 2556 2988 2175 2988 
Q 1775 2988 1565 2697 
Q 1356 2406 1356 1850 
L 1356 331 
L 1856 331 
L 1856 0 
L 263 0 
z
" transform="scale(0.015625)"/>
      <path id="DejaVuSerif-72" d="M 3059 3328 
L 3059 2497 
L 2728 2497 
Q 2713 2744 2591 2866 
Q 2469 2988 2234 2988 
Q 1809 2988 1582 2694 
Q 1356 2400 1356 1850 
L 1356 331 
L 2022 331 
L 2022 0 
L 263 0 
L 263 331 
L 781 331 
L 781 2994 
L 231 2994 
L 231 3322 
L 1356 3322 
L 1356 2731 
Q 1525 3078 1790 3245 
Q 2056 3413 2438 3413 
Q 2578 3413 2733 3391 
Q 2888 3369 3059 3328 
z
" transform="scale(0.015625)"/>
      <path id="DejaVuSerif-75" d="M 2266 3322 
L 3341 3322 
L 3341 331 
L 3884 331 
L 3884 0 
L 2766 0 
L 2766 588 
Q 2606 256 2353 82 
Q 2100 -91 1766 -91 
Q 1213 -91 952 223 
Q 691 538 691 1209 
L 691 2988 
L 172 2988 
L 172 3322 
L 1269 3322 
L 1269 1388 
Q 1269 781 1417 556 
Q 1566 331 1947 331 
Q 2347 331 2556 625 
Q 2766 919 2766 1478 
L 2766 2988 
L 2266 2988 
L 2266 3322 
z
" transform="scale(0.015625)"/>
      <path id="DejaVuSerif-67" d="M 3359 2988 
L 3359 72 
Q 3359 -644 2965 -1033 
Q 2572 -1422 1844 -1422 
Q 1516 -1422 1216 -1362 
Q 916 -1303 641 -1184 
L 641 -488 
L 941 -488 
Q 997 -813 1206 -963 
Q 1416 -1113 1806 -1113 
Q 2313 -1113 2548 -827 
Q 2784 -541 2784 72 
L 2784 519 
Q 2616 206 2355 57 
Q 2094 -91 1709 -91 
Q 1097 -91 708 395 
Q 319 881 319 1663 
Q 319 2444 706 2928 
Q 1094 3413 1709 3413 
Q 2094 3413 2355 3264 
Q 2616 3116 2784 2803 
L 2784 3322 
L 3909 3322 
L 3909 2988 
L 3359 2988 
z
M 2784 1825 
Q 2784 2422 2554 2737 
Q 2325 3053 1888 3053 
Q 1444 3053 1217 2703 
Q 991 2353 991 1663 
Q 991 975 1217 622 
Q 1444 269 1888 269 
Q 2325 269 2554 583 
Q 2784 897 2784 1497 
L 2784 1825 
z
" transform="scale(0.015625)"/>
      <path id="DejaVuSerif-70" d="M 1313 1825 
L 1313 1497 
Q 1313 897 1542 583 
Q 1772 269 2209 269 
Q 2650 269 2876 622 
Q 3103 975 3103 1663 
Q 3103 2353 2876 2703 
Q 2650 3053 2209 3053 
Q 1772 3053 1542 2737 
Q 1313 2422 1313 1825 
z
M 738 2988 
L 184 2988 
L 184 3322 
L 1313 3322 
L 1313 2803 
Q 1481 3116 1742 3264 
Q 2003 3413 2388 3413 
Q 3000 3413 3387 2928 
Q 3775 2444 3775 1663 
Q 3775 881 3387 395 
Q 3000 -91 2388 -91 
Q 2003 -91 1742 57 
Q 1481 206 1313 519 
L 1313 -997 
L 1856 -997 
L 1856 -1331 
L 184 -1331 
L 184 -997 
L 738 -997 
L 738 2988 
z
" transform="scale(0.015625)"/>
      <path id="DejaVuSerif-74" d="M 691 2988 
L 184 2988 
L 184 3322 
L 691 3322 
L 691 4353 
L 1269 4353 
L 1269 3322 
L 2350 3322 
L 2350 2988 
L 1269 2988 
L 1269 878 
Q 1269 456 1350 337 
Q 1431 219 1650 219 
Q 1875 219 1978 351 
Q 2081 484 2088 781 
L 2522 781 
Q 2497 328 2275 118 
Q 2053 -91 1600 -91 
Q 1103 -91 897 129 
Q 691 350 691 878 
L 691 2988 
z
" transform="scale(0.015625)"/>
      <path id="DejaVuSerif-28" d="M 2041 -997 
Q 1281 -656 893 83 
Q 506 822 506 1931 
Q 506 3044 893 3783 
Q 1281 4522 2041 4863 
L 2041 4556 
Q 1559 4225 1350 3623 
Q 1141 3022 1141 1931 
Q 1141 844 1350 242 
Q 1559 -359 2041 -691 
L 2041 -997 
z
" transform="scale(0.015625)"/>
      <path id="DejaVuSerif-37" d="M 3609 4347 
L 1784 0 
L 1319 0 
L 3059 4153 
L 903 4153 
L 903 3578 
L 538 3578 
L 538 4666 
L 3609 4666 
L 3609 4347 
z
" transform="scale(0.015625)"/>
      <path id="DejaVuSerif-6c" d="M 1313 331 
L 1856 331 
L 1856 0 
L 184 0 
L 184 331 
L 738 331 
L 738 4531 
L 184 4531 
L 184 4863 
L 1313 4863 
L 1313 331 
z
" transform="scale(0.015625)"/>
      <path id="DejaVuSerif-76" d="M 1581 0 
L 359 2988 
L -19 2988 
L -19 3322 
L 1509 3322 
L 1509 2988 
L 978 2988 
L 1913 703 
L 2847 2988 
L 2350 2988 
L 2350 3322 
L 3597 3322 
L 3597 2988 
L 3225 2988 
L 2003 0 
L 1581 0 
z
" transform="scale(0.015625)"/>
      <path id="DejaVuSerif-29" d="M 453 -997 
L 453 -691 
Q 934 -359 1145 242 
Q 1356 844 1356 1931 
Q 1356 3022 1145 3623 
Q 934 4225 453 4556 
L 453 4863 
Q 1216 4522 1603 3783 
Q 1991 3044 1991 1931 
Q 1991 822 1603 83 
Q 1216 -656 453 -997 
z
" transform="scale(0.015625)"/>
     </defs>
     <use xlink:href="#DejaVuSerif-43"/>
     <use xlink:href="#DejaVuSerif-6f" x="76.513672"/>
     <use xlink:href="#DejaVuSerif-6d" x="136.71875"/>
     <use xlink:href="#DejaVuSerif-62" x="231.542969"/>
     <use xlink:href="#DejaVuSerif-69" x="295.556641"/>
     <use xlink:href="#DejaVuSerif-6e" x="327.539062"/>
     <use xlink:href="#DejaVuSerif-65" x="391.943359"/>
     <use xlink:href="#DejaVuSerif-64" x="451.123047"/>
     <use xlink:href="#DejaVuSerif-20" x="515.136719"/>
     <use xlink:href="#DejaVuSerif-44" x="546.923828"/>
     <use xlink:href="#DejaVuSerif-41" x="627.099609"/>
     <use xlink:href="#DejaVuSerif-20" x="699.316406"/>
     <use xlink:href="#DejaVuSerif-54" x="731.103516"/>
     <use xlink:href="#DejaVuSerif-68" x="797.802734"/>
     <use xlink:href="#DejaVuSerif-72" x="862.207031"/>
     <use xlink:href="#DejaVuSerif-6f" x="910.009766"/>
     <use xlink:href="#DejaVuSerif-75" x="970.214844"/>
     <use xlink:href="#DejaVuSerif-67" x="1034.619141"/>
     <use xlink:href="#DejaVuSerif-68" x="1098.632812"/>
     <use xlink:href="#DejaVuSerif-70" x="1163.037109"/>
     <use xlink:href="#DejaVuSerif-75" x="1227.050781"/>
     <use xlink:href="#DejaVuSerif-74" x="1291.455078"/>
     <use xlink:href="#DejaVuSerif-20" x="1331.640625"/>
     <use xlink:href="#DejaVuSerif-28" x="1363.427734"/>
     <use xlink:href="#DejaVuSerif-37" x="1402.441406"/>
     <use xlink:href="#DejaVuSerif-64" x="1466.064453"/>
     <use xlink:href="#DejaVuSerif-20" x="1530.078125"/>
     <use xlink:href="#DejaVuSerif-72" x="1561.865234"/>
     <use xlink:href="#DejaVuSerif-6f" x="1609.667969"/>
     <use xlink:href="#DejaVuSerif-6c" x="1669.873047"/>
     <use xlink:href="#DejaVuSerif-6c" x="1701.855469"/>
     <use xlink:href="#DejaVuSerif-69" x="1733.837891"/>
     <use xlink:href="#DejaVuSerif-6e" x="1765.820312"/>
     <use xlink:href="#DejaVuSerif-67" x="1830.224609"/>
     <use xlink:href="#DejaVuSerif-20" x="1894.238281"/>
     <use xlink:href="#DejaVuSerif-61" x="1926.025391"/>
     <use xlink:href="#DejaVuSerif-76" x="1985.644531"/>
     <use xlink:href="#DejaVuSerif-67" x="2042.138672"/>
     <use xlink:href="#DejaVuSerif-29" x="2106.152344"/>
    </g>
   </g>
   <g id="legend_1">
    <g id="patch_5">
     <path d="M 54.130312 206.743139 
L 177.410156 206.743139 
Q 178.810156 206.743139 178.810156 205.343139 
L 178.810156 175.219077 
Q 178.810156 173.819077 177.410156 173.819077 
L 54.130312 173.819077 
Q 52.730312 173.819077 52.730312 175.219077 
L 52.730312 205.343139 
Q 52.730312 206.743139 54.130312 206.743139 
z
" style="fill: #ffffff; opacity: 0.9; stroke: #cccccc; stroke-linejoin: miter"/>
    </g>
    <g id="line2d_81">
     <path d="M 55.530312 179.487983 
L 62.530312 179.487983 
L 69.530312 179.487983 
" style="fill: none; stroke: #e6194b; stroke-width: 1.3; stroke-linecap: square"/>
    </g>
    <g id="text_12">
     <!-- Polkadot -->
     <g transform="translate(75.130313 181.937983) scale(0.07 -0.07)">
      <defs>
       <path id="DejaVuSerif-50" d="M 1581 2375 
L 2406 2375 
Q 2872 2375 3115 2626 
Q 3359 2878 3359 3353 
Q 3359 3831 3115 4081 
Q 2872 4331 2406 4331 
L 1581 4331 
L 1581 2375 
z
M 353 0 
L 353 331 
L 947 331 
L 947 4331 
L 353 4331 
L 353 4666 
L 2559 4666 
Q 3259 4666 3668 4311 
Q 4078 3956 4078 3353 
Q 4078 2753 3668 2397 
Q 3259 2041 2559 2041 
L 1581 2041 
L 1581 331 
L 2303 331 
L 2303 0 
L 353 0 
z
" transform="scale(0.015625)"/>
       <path id="DejaVuSerif-6b" d="M 1831 0 
L 219 0 
L 219 331 
L 738 331 
L 738 4531 
L 184 4531 
L 184 4863 
L 1313 4863 
L 1313 1697 
L 2713 2988 
L 2234 2988 
L 2234 3322 
L 3738 3322 
L 3738 2988 
L 3169 2988 
L 2181 2075 
L 3444 331 
L 3922 331 
L 3922 0 
L 2284 0 
L 2284 331 
L 2759 331 
L 1766 1697 
L 1313 1275 
L 1313 331 
L 1831 331 
L 1831 0 
z
" transform="scale(0.015625)"/>
      </defs>
      <use xlink:href="#DejaVuSerif-50"/>
      <use xlink:href="#DejaVuSerif-6f" x="63.285156"/>
      <use xlink:href="#DejaVuSerif-6c" x="123.490234"/>
      <use xlink:href="#DejaVuSerif-6b" x="155.472656"/>
      <use xlink:href="#DejaVuSerif-61" x="216.068359"/>
      <use xlink:href="#DejaVuSerif-64" x="275.6875"/>
      <use xlink:href="#DejaVuSerif-6f" x="339.701172"/>
      <use xlink:href="#DejaVuSerif-74" x="399.90625"/>
     </g>
    </g>
    <g id="line2d_82">
     <path d="M 55.530312 189.762671 
L 62.530312 189.762671 
L 69.530312 189.762671 
" style="fill: none; stroke: #3366cc; stroke-width: 1.3; stroke-linecap: square"/>
    </g>
    <g id="text_13">
     <!-- Ethereum -->
     <g transform="translate(75.130313 192.212671) scale(0.07 -0.07)">
      <defs>
       <path id="DejaVuSerif-45" d="M 353 0 
L 353 331 
L 947 331 
L 947 4331 
L 353 4331 
L 353 4666 
L 4109 4666 
L 4109 3628 
L 3725 3628 
L 3725 4281 
L 1581 4281 
L 1581 2719 
L 3109 2719 
L 3109 3303 
L 3494 3303 
L 3494 1753 
L 3109 1753 
L 3109 2338 
L 1581 2338 
L 1581 384 
L 3775 384 
L 3775 1038 
L 4159 1038 
L 4159 0 
L 353 0 
z
" transform="scale(0.015625)"/>
      </defs>
      <use xlink:href="#DejaVuSerif-45"/>
      <use xlink:href="#DejaVuSerif-74" x="72.998047"/>
      <use xlink:href="#DejaVuSerif-68" x="113.183594"/>
      <use xlink:href="#DejaVuSerif-65" x="177.587891"/>
      <use xlink:href="#DejaVuSerif-72" x="236.767578"/>
      <use xlink:href="#DejaVuSerif-65" x="284.570312"/>
      <use xlink:href="#DejaVuSerif-75" x="343.75"/>
      <use xlink:href="#DejaVuSerif-6d" x="408.154297"/>
     </g>
    </g>
    <g id="line2d_83">
     <path d="M 55.530312 200.037358 
L 62.530312 200.037358 
L 69.530312 200.037358 
" style="fill: none; stroke: #f58231; stroke-width: 1.3; stroke-linecap: square"/>
    </g>
    <g id="text_14">
     <!-- Celestia -->
     <g transform="translate(75.130313 202.487358) scale(0.07 -0.07)">
      <use xlink:href="#DejaVuSerif-43"/>
      <use xlink:href="#DejaVuSerif-65" x="76.513672"/>
      <use xlink:href="#DejaVuSerif-6c" x="135.693359"/>
      <use xlink:href="#DejaVuSerif-65" x="167.675781"/>
      <use xlink:href="#DejaVuSerif-73" x="226.855469"/>
      <use xlink:href="#DejaVuSerif-74" x="278.173828"/>
      <use xlink:href="#DejaVuSerif-69" x="318.359375"/>
      <use xlink:href="#DejaVuSerif-61" x="350.341797"/>
     </g>
    </g>
    <g id="line2d_84">
     <path d="M 124.340312 179.487983 
L 131.340312 179.487983 
L 138.340312 179.487983 
" style="fill: none; stroke: #911eb4; stroke-width: 1.3; stroke-linecap: square"/>
    </g>
    <g id="text_15">
     <!-- Espresso -->
     <g transform="translate(143.940313 181.937983) scale(0.07 -0.07)">
      <use xlink:href="#DejaVuSerif-45"/>
      <use xlink:href="#DejaVuSerif-73" x="72.998047"/>
      <use xlink:href="#DejaVuSerif-70" x="124.316406"/>
      <use xlink:href="#DejaVuSerif-72" x="188.330078"/>
      <use xlink:href="#DejaVuSerif-65" x="236.132812"/>
      <use xlink:href="#DejaVuSerif-73" x="295.3125"/>
      <use xlink:href="#DejaVuSerif-73" x="346.630859"/>
      <use xlink:href="#DejaVuSerif-6f" x="397.949219"/>
     </g>
    </g>
    <g id="line2d_85">
     <path d="M 124.340312 189.762671 
L 131.340312 189.762671 
L 138.340312 189.762671 
" style="fill: none; stroke: #42d4f4; stroke-width: 1.3; stroke-linecap: square"/>
    </g>
    <g id="text_16">
     <!-- NEAR -->
     <g transform="translate(143.940313 192.212671) scale(0.07 -0.07)">
      <defs>
       <path id="DejaVuSerif-4e" d="M 313 0 
L 313 331 
L 941 331 
L 941 4331 
L 313 4331 
L 313 4666 
L 1509 4666 
L 4306 984 
L 4306 4331 
L 3681 4331 
L 3681 4666 
L 5319 4666 
L 5319 4331 
L 4691 4331 
L 4691 -91 
L 4313 -91 
L 1325 3841 
L 1325 331 
L 1953 331 
L 1953 0 
L 313 0 
z
" transform="scale(0.015625)"/>
       <path id="DejaVuSerif-52" d="M 3066 2316 
Q 3284 2256 3442 2114 
Q 3600 1972 3725 1716 
L 4403 331 
L 4972 331 
L 4972 0 
L 3872 0 
L 3144 1484 
Q 2934 1916 2759 2042 
Q 2584 2169 2278 2169 
L 1581 2169 
L 1581 331 
L 2241 331 
L 2241 0 
L 353 0 
L 353 331 
L 947 331 
L 947 4331 
L 353 4331 
L 353 4666 
L 2719 4666 
Q 3400 4666 3770 4341 
Q 4141 4016 4141 3419 
Q 4141 2938 3870 2661 
Q 3600 2384 3066 2316 
z
M 1581 2503 
L 2503 2503 
Q 2975 2503 3200 2726 
Q 3425 2950 3425 3419 
Q 3425 3888 3200 4109 
Q 2975 4331 2503 4331 
L 1581 4331 
L 1581 2503 
z
" transform="scale(0.015625)"/>
      </defs>
      <use xlink:href="#DejaVuSerif-4e"/>
      <use xlink:href="#DejaVuSerif-45" x="87.5"/>
      <use xlink:href="#DejaVuSerif-41" x="160.498047"/>
      <use xlink:href="#DejaVuSerif-52" x="232.714844"/>
     </g>
    </g>
    <g id="line2d_86">
     <path d="M 124.340312 200.037358 
L 131.340312 200.037358 
L 138.340312 200.037358 
" style="fill: none; stroke: #3cb44b; stroke-width: 1.3; stroke-linecap: square"/>
    </g>
    <g id="text_17">
     <!-- Avail -->
     <g transform="translate(143.940313 202.487358) scale(0.07 -0.07)">
      <use xlink:href="#DejaVuSerif-41"/>
      <use xlink:href="#DejaVuSerif-76" x="68.216797"/>
      <use xlink:href="#DejaVuSerif-61" x="124.710938"/>
      <use xlink:href="#DejaVuSerif-69" x="184.330078"/>
      <use xlink:href="#DejaVuSerif-6c" x="216.3125"/>
     </g>
    </g>
   </g>
  </g>
 </g>
 <defs>
  <clipPath id="p8fb9cd33a6">
   <rect x="49.230312" y="25.158281" width="446.18271" height="185.084858"/>
  </clipPath>
 </defs>
</svg>
