<?xml version="1.0" encoding="utf-8" standalone="no"?>
<!DOCTYPE svg PUBLIC "-//W3C//DTD SVG 1.1//EN"
  "http://www.w3.org/Graphics/SVG/1.1/DTD/svg11.dtd">
<svg xmlns:xlink="http://www.w3.org/1999/xlink" width="506.170835pt" height="254.013966pt" viewBox="0 0 506.170835 254.013966" xmlns="http://www.w3.org/2000/svg" version="1.1">
 <metadata>
  <rdf:RDF xmlns:dc="http://purl.org/dc/elements/1.1/" xmlns:cc="http://creativecommons.org/ns#" xmlns:rdf="http://www.w3.org/1999/02/22-rdf-syntax-ns#">
   <cc:Work>
    <dc:type rdf:resource="http://purl.org/dc/dcmitype/StillImage"/>
    <dc:date>2026-02-16T20:27:13.206263</dc:date>
    <dc:format>image/svg+xml</dc:format>
    <dc:creator>
     <cc:Agent>
      <dc:title>Matplotlib v3.9.4, https://matplotlib.org/</dc:title>
     </cc:Agent>
    </dc:creator>
   </cc:Work>
  </rdf:RDF>
 </metadata>
 <defs>
  <style type="text/css">*{stroke-linejoin: round; stroke-linecap: butt}</style>
 </defs>
 <g id="figure_1">
  <g id="patch_1">
   <path d="M 0 254.013966 
L 506.170835 254.013966 
L 506.170835 -0 
L 0 -0 
z
" style="fill: #ffffff"/>
  </g>
  <g id="axes_1">
   <g id="patch_2">
    <path d="M 49.230312 214.979389 
L 495.370835 214.979389 
L 495.370835 25.158281 
L 49.230312 25.158281 
z
" style="fill: #ffffff"/>
   </g>
   <g id="matplotlib.axis_1">
    <g id="xtick_1">
     <g id="line2d_1">
      <path d="M 82.880272 214.979389 
L 82.880272 25.158281 
" clip-path="url(#p9444fbd524)" style="fill: none; stroke: #b0b0b0; stroke-opacity: 0.25; stroke-width: 0.5; stroke-linecap: square"/>
     </g>
     <g id="line2d_2">
      <defs>
       <path id="m3741de04a0" d="M 0 0 
L 0 3.5 
" style="stroke: #000000; stroke-width: 0.8"/>
      </defs>
      <g>
       <use xlink:href="#m3741de04a0" x="82.880272" y="214.979389" style="stroke: #000000; stroke-width: 0.8"/>
      </g>
     </g>
     <g id="text_1">
      <!-- Nov 18 -->
      <g transform="translate(56.882781 241.773116) rotate(-30) scale(0.08 -0.08)">
       <defs>
        <path id="DejaVuSerif-4e" d="M 313 0 
L 313 331 
L 941 331 
L 941 4331 
L 313 4331 
L 313 4666 
L 1509 4666 
L 4306 984 
L 4306 4331 
L 3681 4331 
L 3681 4666 
L 5319 4666 
L 5319 4331 
L 4691 4331 
L 4691 -91 
L 4313 -91 
L 1325 3841 
L 1325 331 
L 1953 331 
L 1953 0 
L 313 0 
z
" transform="scale(0.015625)"/>
        <path id="DejaVuSerif-6f" d="M 1925 219 
Q 2388 219 2623 584 
Q 2859 950 2859 1663 
Q 2859 2375 2623 2739 
Q 2388 3103 1925 3103 
Q 1463 3103 1227 2739 
Q 991 2375 991 1663 
Q 991 950 1228 584 
Q 1466 219 1925 219 
z
M 1925 -91 
Q 1200 -91 759 389 
Q 319 869 319 1663 
Q 319 2456 758 2934 
Q 1197 3413 1925 3413 
Q 2653 3413 3092 2934 
Q 3531 2456 3531 1663 
Q 3531 869 3092 389 
Q 2653 -91 1925 -91 
z
" transform="scale(0.015625)"/>
        <path id="DejaVuSerif-76" d="M 1581 0 
L 359 2988 
L -19 2988 
L -19 3322 
L 1509 3322 
L 1509 2988 
L 978 2988 
L 1913 703 
L 2847 2988 
L 2350 2988 
L 2350 3322 
L 3597 3322 
L 3597 2988 
L 3225 2988 
L 2003 0 
L 1581 0 
z
" transform="scale(0.015625)"/>
        <path id="DejaVuSerif-20" transform="scale(0.015625)"/>
        <path id="DejaVuSerif-31" d="M 909 0 
L 909 331 
L 1722 331 
L 1722 4213 
L 781 3603 
L 781 4013 
L 1919 4750 
L 2350 4750 
L 2350 331 
L 3163 331 
L 3163 0 
L 909 0 
z
" transform="scale(0.015625)"/>
        <path id="DejaVuSerif-38" d="M 2981 1275 
Q 2981 1775 2732 2051 
Q 2484 2328 2034 2328 
Q 1584 2328 1336 2051 
Q 1088 1775 1088 1275 
Q 1088 772 1336 495 
Q 1584 219 2034 219 
Q 2484 219 2732 495 
Q 2981 772 2981 1275 
z
M 2853 3541 
Q 2853 3966 2637 4203 
Q 2422 4441 2034 4441 
Q 1650 4441 1433 4203 
Q 1216 3966 1216 3541 
Q 1216 3113 1433 2875 
Q 1650 2638 2034 2638 
Q 2422 2638 2637 2875 
Q 2853 3113 2853 3541 
z
M 2516 2484 
Q 3047 2413 3344 2092 
Q 3641 1772 3641 1275 
Q 3641 619 3225 264 
Q 2809 -91 2034 -91 
Q 1263 -91 845 264 
Q 428 619 428 1275 
Q 428 1772 725 2092 
Q 1022 2413 1556 2484 
Q 1084 2569 832 2842 
Q 581 3116 581 3541 
Q 581 4103 968 4426 
Q 1356 4750 2034 4750 
Q 2713 4750 3100 4426 
Q 3488 4103 3488 3541 
Q 3488 3116 3236 2842 
Q 2984 2569 2516 2484 
z
" transform="scale(0.015625)"/>
       </defs>
       <use xlink:href="#DejaVuSerif-4e"/>
       <use xlink:href="#DejaVuSerif-6f" x="87.5"/>
       <use xlink:href="#DejaVuSerif-76" x="147.705078"/>
       <use xlink:href="#DejaVuSerif-20" x="204.199219"/>
       <use xlink:href="#DejaVuSerif-31" x="235.986328"/>
       <use xlink:href="#DejaVuSerif-38" x="299.609375"/>
      </g>
     </g>
    </g>
    <g id="xtick_2">
     <g id="line2d_3">
      <path d="M 145.277548 214.979389 
L 145.277548 25.158281 
" clip-path="url(#p9444fbd524)" style="fill: none; stroke: #b0b0b0; stroke-opacity: 0.25; stroke-width: 0.5; stroke-linecap: square"/>
     </g>
     <g id="line2d_4">
      <g>
       <use xlink:href="#m3741de04a0" x="145.277548" y="214.979389" style="stroke: #000000; stroke-width: 0.8"/>
      </g>
     </g>
     <g id="text_2">
      <!-- Dec 02 -->
      <g transform="translate(119.89277 241.419366) rotate(-30) scale(0.08 -0.08)">
       <defs>
        <path id="DejaVuSerif-44" d="M 1581 331 
L 2163 331 
Q 3072 331 3558 850 
Q 4044 1369 4044 2338 
Q 4044 3306 3559 3818 
Q 3075 4331 2163 4331 
L 1581 4331 
L 1581 331 
z
M 353 0 
L 353 331 
L 947 331 
L 947 4331 
L 353 4331 
L 353 4666 
L 2209 4666 
Q 3416 4666 4089 4050 
Q 4763 3434 4763 2338 
Q 4763 1238 4088 619 
Q 3413 0 2209 0 
L 353 0 
z
" transform="scale(0.015625)"/>
        <path id="DejaVuSerif-65" d="M 3469 1600 
L 991 1600 
L 991 1575 
Q 991 903 1244 561 
Q 1497 219 1991 219 
Q 2369 219 2611 417 
Q 2853 616 2950 1006 
L 3413 1006 
Q 3275 459 2904 184 
Q 2534 -91 1931 -91 
Q 1203 -91 761 389 
Q 319 869 319 1663 
Q 319 2450 753 2931 
Q 1188 3413 1894 3413 
Q 2647 3413 3050 2948 
Q 3453 2484 3469 1600 
z
M 2791 1931 
Q 2772 2513 2545 2808 
Q 2319 3103 1894 3103 
Q 1497 3103 1269 2806 
Q 1041 2509 991 1931 
L 2791 1931 
z
" transform="scale(0.015625)"/>
        <path id="DejaVuSerif-63" d="M 3291 997 
Q 3169 466 2822 187 
Q 2475 -91 1925 -91 
Q 1200 -91 759 389 
Q 319 869 319 1663 
Q 319 2459 759 2936 
Q 1200 3413 1925 3413 
Q 2241 3413 2553 3339 
Q 2866 3266 3181 3116 
L 3181 2266 
L 2847 2266 
Q 2781 2703 2561 2903 
Q 2341 3103 1931 3103 
Q 1466 3103 1228 2742 
Q 991 2381 991 1663 
Q 991 944 1227 581 
Q 1463 219 1931 219 
Q 2303 219 2525 412 
Q 2747 606 2828 997 
L 3291 997 
z
" transform="scale(0.015625)"/>
        <path id="DejaVuSerif-30" d="M 2034 219 
Q 2513 219 2750 744 
Q 2988 1269 2988 2328 
Q 2988 3391 2750 3916 
Q 2513 4441 2034 4441 
Q 1556 4441 1318 3916 
Q 1081 3391 1081 2328 
Q 1081 1269 1318 744 
Q 1556 219 2034 219 
z
M 2034 -91 
Q 1275 -91 848 546 
Q 422 1184 422 2328 
Q 422 3475 848 4112 
Q 1275 4750 2034 4750 
Q 2797 4750 3222 4112 
Q 3647 3475 3647 2328 
Q 3647 1184 3222 546 
Q 2797 -91 2034 -91 
z
" transform="scale(0.015625)"/>
        <path id="DejaVuSerif-32" d="M 819 3553 
L 469 3553 
L 469 4384 
Q 803 4563 1142 4656 
Q 1481 4750 1806 4750 
Q 2534 4750 2956 4397 
Q 3378 4044 3378 3438 
Q 3378 2753 2422 1800 
Q 2347 1728 2309 1691 
L 1131 513 
L 3078 513 
L 3078 1088 
L 3444 1088 
L 3444 0 
L 434 0 
L 434 341 
L 1850 1753 
Q 2319 2222 2519 2614 
Q 2719 3006 2719 3438 
Q 2719 3909 2473 4175 
Q 2228 4441 1797 4441 
Q 1350 4441 1106 4219 
Q 863 3997 819 3553 
z
" transform="scale(0.015625)"/>
       </defs>
       <use xlink:href="#DejaVuSerif-44"/>
       <use xlink:href="#DejaVuSerif-65" x="80.175781"/>
       <use xlink:href="#DejaVuSerif-63" x="139.355469"/>
       <use xlink:href="#DejaVuSerif-20" x="195.361328"/>
       <use xlink:href="#DejaVuSerif-30" x="227.148438"/>
       <use xlink:href="#DejaVuSerif-32" x="290.771484"/>
      </g>
     </g>
    </g>
    <g id="xtick_3">
     <g id="line2d_5">
      <path d="M 207.674824 214.979389 
L 207.674824 25.158281 
" clip-path="url(#p9444fbd524)" style="fill: none; stroke: #b0b0b0; stroke-opacity: 0.25; stroke-width: 0.5; stroke-linecap: square"/>
     </g>
     <g id="line2d_6">
      <g>
       <use xlink:href="#m3741de04a0" x="207.674824" y="214.979389" style="stroke: #000000; stroke-width: 0.8"/>
      </g>
     </g>
     <g id="text_3">
      <!-- Dec 16 -->
      <g transform="translate(182.290046 241.419366) rotate(-30) scale(0.08 -0.08)">
       <defs>
        <path id="DejaVuSerif-36" d="M 2094 219 
Q 2534 219 2771 542 
Q 3009 866 3009 1472 
Q 3009 2078 2771 2401 
Q 2534 2725 2094 2725 
Q 1647 2725 1412 2412 
Q 1178 2100 1178 1509 
Q 1178 888 1415 553 
Q 1653 219 2094 219 
z
M 1075 2569 
Q 1288 2803 1556 2918 
Q 1825 3034 2163 3034 
Q 2859 3034 3264 2615 
Q 3669 2197 3669 1472 
Q 3669 763 3233 336 
Q 2797 -91 2069 -91 
Q 1278 -91 853 498 
Q 428 1088 428 2181 
Q 428 3406 931 4078 
Q 1434 4750 2350 4750 
Q 2597 4750 2869 4703 
Q 3141 4656 3425 4563 
L 3425 3794 
L 3072 3794 
Q 3034 4109 2831 4275 
Q 2628 4441 2284 4441 
Q 1678 4441 1381 3981 
Q 1084 3522 1075 2569 
z
" transform="scale(0.015625)"/>
       </defs>
       <use xlink:href="#DejaVuSerif-44"/>
       <use xlink:href="#DejaVuSerif-65" x="80.175781"/>
       <use xlink:href="#DejaVuSerif-63" x="139.355469"/>
       <use xlink:href="#DejaVuSerif-20" x="195.361328"/>
       <use xlink:href="#DejaVuSerif-31" x="227.148438"/>
       <use xlink:href="#DejaVuSerif-36" x="290.771484"/>
      </g>
     </g>
    </g>
    <g id="xtick_4">
     <g id="line2d_7">
      <path d="M 270.0721 214.979389 
L 270.0721 25.158281 
" clip-path="url(#p9444fbd524)" style="fill: none; stroke: #b0b0b0; stroke-opacity: 0.25; stroke-width: 0.5; stroke-linecap: square"/>
     </g>
     <g id="line2d_8">
      <g>
       <use xlink:href="#m3741de04a0" x="270.0721" y="214.979389" style="stroke: #000000; stroke-width: 0.8"/>
      </g>
     </g>
     <g id="text_4">
      <!-- Dec 30 -->
      <g transform="translate(244.687322 241.419366) rotate(-30) scale(0.08 -0.08)">
       <defs>
        <path id="DejaVuSerif-33" d="M 622 4469 
Q 988 4606 1323 4678 
Q 1659 4750 1953 4750 
Q 2638 4750 3022 4454 
Q 3406 4159 3406 3634 
Q 3406 3213 3140 2930 
Q 2875 2647 2388 2547 
Q 2963 2466 3280 2130 
Q 3597 1794 3597 1259 
Q 3597 606 3158 257 
Q 2719 -91 1894 -91 
Q 1528 -91 1179 -12 
Q 831 66 488 225 
L 488 1131 
L 838 1131 
Q 869 681 1141 450 
Q 1413 219 1906 219 
Q 2384 219 2661 495 
Q 2938 772 2938 1253 
Q 2938 1803 2653 2086 
Q 2369 2369 1819 2369 
L 1522 2369 
L 1522 2688 
L 1678 2688 
Q 2225 2688 2498 2914 
Q 2772 3141 2772 3597 
Q 2772 4006 2547 4223 
Q 2322 4441 1900 4441 
Q 1478 4441 1245 4241 
Q 1013 4041 972 3647 
L 622 3647 
L 622 4469 
z
" transform="scale(0.015625)"/>
       </defs>
       <use xlink:href="#DejaVuSerif-44"/>
       <use xlink:href="#DejaVuSerif-65" x="80.175781"/>
       <use xlink:href="#DejaVuSerif-63" x="139.355469"/>
       <use xlink:href="#DejaVuSerif-20" x="195.361328"/>
       <use xlink:href="#DejaVuSerif-33" x="227.148438"/>
       <use xlink:href="#DejaVuSerif-30" x="290.771484"/>
      </g>
     </g>
    </g>
    <g id="xtick_5">
     <g id="line2d_9">
      <path d="M 332.469376 214.979389 
L 332.469376 25.158281 
" clip-path="url(#p9444fbd524)" style="fill: none; stroke: #b0b0b0; stroke-opacity: 0.25; stroke-width: 0.5; stroke-linecap: square"/>
     </g>
     <g id="line2d_10">
      <g>
       <use xlink:href="#m3741de04a0" x="332.469376" y="214.979389" style="stroke: #000000; stroke-width: 0.8"/>
      </g>
     </g>
     <g id="text_5">
      <!-- Jan 13 -->
      <g transform="translate(309.248579 240.169991) rotate(-30) scale(0.08 -0.08)">
       <defs>
        <path id="DejaVuSerif-4a" d="M -538 -1119 
L -538 -384 
L -181 -384 
Q -172 -694 -34 -845 
Q 103 -997 378 -997 
Q 750 -997 897 -762 
Q 1044 -528 1044 153 
L 1044 4331 
L 319 4331 
L 319 4666 
L 2272 4666 
L 2272 4331 
L 1678 4331 
L 1678 128 
Q 1678 -644 1368 -987 
Q 1059 -1331 372 -1331 
Q 150 -1331 -79 -1278 
Q -309 -1225 -538 -1119 
z
" transform="scale(0.015625)"/>
        <path id="DejaVuSerif-61" d="M 2547 1044 
L 2547 1747 
L 1806 1747 
Q 1378 1747 1168 1562 
Q 959 1378 959 997 
Q 959 650 1171 447 
Q 1384 244 1747 244 
Q 2106 244 2326 466 
Q 2547 688 2547 1044 
z
M 3122 2075 
L 3122 331 
L 3634 331 
L 3634 0 
L 2547 0 
L 2547 359 
Q 2356 128 2106 18 
Q 1856 -91 1522 -91 
Q 969 -91 644 203 
Q 319 497 319 997 
Q 319 1513 691 1797 
Q 1063 2081 1741 2081 
L 2547 2081 
L 2547 2309 
Q 2547 2688 2317 2895 
Q 2088 3103 1672 3103 
Q 1328 3103 1125 2947 
Q 922 2791 872 2484 
L 575 2484 
L 575 3156 
Q 875 3284 1158 3348 
Q 1441 3413 1709 3413 
Q 2400 3413 2761 3070 
Q 3122 2728 3122 2075 
z
" transform="scale(0.015625)"/>
        <path id="DejaVuSerif-6e" d="M 263 0 
L 263 331 
L 781 331 
L 781 2988 
L 231 2988 
L 231 3322 
L 1356 3322 
L 1356 2731 
Q 1516 3069 1770 3241 
Q 2025 3413 2363 3413 
Q 2913 3413 3172 3097 
Q 3431 2781 3431 2113 
L 3431 331 
L 3944 331 
L 3944 0 
L 2356 0 
L 2356 331 
L 2853 331 
L 2853 1931 
Q 2853 2541 2703 2767 
Q 2553 2994 2175 2994 
Q 1775 2994 1565 2701 
Q 1356 2409 1356 1850 
L 1356 331 
L 1856 331 
L 1856 0 
L 263 0 
z
" transform="scale(0.015625)"/>
       </defs>
       <use xlink:href="#DejaVuSerif-4a"/>
       <use xlink:href="#DejaVuSerif-61" x="40.087891"/>
       <use xlink:href="#DejaVuSerif-6e" x="99.707031"/>
       <use xlink:href="#DejaVuSerif-20" x="164.111328"/>
       <use xlink:href="#DejaVuSerif-31" x="195.898438"/>
       <use xlink:href="#DejaVuSerif-33" x="259.521484"/>
      </g>
     </g>
    </g>
    <g id="xtick_6">
     <g id="line2d_11">
      <path d="M 394.866651 214.979389 
L 394.866651 25.158281 
" clip-path="url(#p9444fbd524)" style="fill: none; stroke: #b0b0b0; stroke-opacity: 0.25; stroke-width: 0.5; stroke-linecap: square"/>
     </g>
     <g id="line2d_12">
      <g>
       <use xlink:href="#m3741de04a0" x="394.866651" y="214.979389" style="stroke: #000000; stroke-width: 0.8"/>
      </g>
     </g>
     <g id="text_6">
      <!-- Jan 27 -->
      <g transform="translate(371.645855 240.169991) rotate(-30) scale(0.08 -0.08)">
       <defs>
        <path id="DejaVuSerif-37" d="M 3609 4347 
L 1784 0 
L 1319 0 
L 3059 4153 
L 903 4153 
L 903 3578 
L 538 3578 
L 538 4666 
L 3609 4666 
L 3609 4347 
z
" transform="scale(0.015625)"/>
       </defs>
       <use xlink:href="#DejaVuSerif-4a"/>
       <use xlink:href="#DejaVuSerif-61" x="40.087891"/>
       <use xlink:href="#DejaVuSerif-6e" x="99.707031"/>
       <use xlink:href="#DejaVuSerif-20" x="164.111328"/>
       <use xlink:href="#DejaVuSerif-32" x="195.898438"/>
       <use xlink:href="#DejaVuSerif-37" x="259.521484"/>
      </g>
     </g>
    </g>
    <g id="xtick_7">
     <g id="line2d_13">
      <path d="M 457.263927 214.979389 
L 457.263927 25.158281 
" clip-path="url(#p9444fbd524)" style="fill: none; stroke: #b0b0b0; stroke-opacity: 0.25; stroke-width: 0.5; stroke-linecap: square"/>
     </g>
     <g id="line2d_14">
      <g>
       <use xlink:href="#m3741de04a0" x="457.263927" y="214.979389" style="stroke: #000000; stroke-width: 0.8"/>
      </g>
     </g>
     <g id="text_7">
      <!-- Feb 10 -->
      <g transform="translate(432.451809 241.088741) rotate(-30) scale(0.08 -0.08)">
       <defs>
        <path id="DejaVuSerif-46" d="M 353 0 
L 353 331 
L 947 331 
L 947 4331 
L 353 4331 
L 353 4666 
L 4172 4666 
L 4172 3628 
L 3788 3628 
L 3788 4281 
L 1581 4281 
L 1581 2719 
L 3175 2719 
L 3175 3303 
L 3559 3303 
L 3559 1753 
L 3175 1753 
L 3175 2338 
L 1581 2338 
L 1581 331 
L 2328 331 
L 2328 0 
L 353 0 
z
" transform="scale(0.015625)"/>
        <path id="DejaVuSerif-62" d="M 738 331 
L 738 4531 
L 184 4531 
L 184 4863 
L 1313 4863 
L 1313 2803 
Q 1481 3116 1742 3264 
Q 2003 3413 2388 3413 
Q 3000 3413 3387 2928 
Q 3775 2444 3775 1663 
Q 3775 881 3387 395 
Q 3000 -91 2388 -91 
Q 2003 -91 1742 57 
Q 1481 206 1313 519 
L 1313 0 
L 184 0 
L 184 331 
L 738 331 
z
M 1313 1497 
Q 1313 897 1542 583 
Q 1772 269 2209 269 
Q 2650 269 2876 622 
Q 3103 975 3103 1663 
Q 3103 2353 2876 2703 
Q 2650 3053 2209 3053 
Q 1772 3053 1542 2737 
Q 1313 2422 1313 1825 
L 1313 1497 
z
" transform="scale(0.015625)"/>
       </defs>
       <use xlink:href="#DejaVuSerif-46"/>
       <use xlink:href="#DejaVuSerif-65" x="63.884766"/>
       <use xlink:href="#DejaVuSerif-62" x="123.064453"/>
       <use xlink:href="#DejaVuSerif-20" x="187.078125"/>
       <use xlink:href="#DejaVuSerif-31" x="218.865234"/>
       <use xlink:href="#DejaVuSerif-30" x="282.488281"/>
      </g>
     </g>
    </g>
   </g>
   <g id="matplotlib.axis_2">
    <g id="ytick_1">
     <g id="line2d_15">
      <path d="M 49.230312 193.747372 
L 495.370835 193.747372 
" clip-path="url(#p9444fbd524)" style="fill: none; stroke: #b0b0b0; stroke-opacity: 0.25; stroke-width: 0.5; stroke-linecap: square"/>
     </g>
     <g id="line2d_16">
      <defs>
       <path id="m8aa86484cb" d="M 0 0 
L -3.5 0 
" style="stroke: #000000; stroke-width: 0.8"/>
      </defs>
      <g>
       <use xlink:href="#m8aa86484cb" x="49.230312" y="193.747372" style="stroke: #000000; stroke-width: 0.8"/>
      </g>
     </g>
     <g id="text_8">
      <!-- $\mathdefault{10^{-9}}$ -->
      <g transform="translate(23.510312 196.786747) scale(0.08 -0.08)">
       <defs>
        <path id="DejaVuSerif-2212" d="M 678 2259 
L 4684 2259 
L 4684 1753 
L 678 1753 
L 678 2259 
z
" transform="scale(0.015625)"/>
        <path id="DejaVuSerif-39" d="M 2994 2091 
Q 2784 1856 2512 1740 
Q 2241 1625 1900 1625 
Q 1206 1625 804 2044 
Q 403 2463 403 3188 
Q 403 3897 839 4323 
Q 1275 4750 2003 4750 
Q 2794 4750 3217 4161 
Q 3641 3572 3641 2478 
Q 3641 1253 3137 581 
Q 2634 -91 1722 -91 
Q 1475 -91 1203 -44 
Q 931 3 647 97 
L 647 872 
L 997 872 
Q 1038 556 1241 387 
Q 1444 219 1784 219 
Q 2391 219 2687 676 
Q 2984 1134 2994 2091 
z
M 1978 4441 
Q 1534 4441 1298 4117 
Q 1063 3794 1063 3188 
Q 1063 2581 1298 2256 
Q 1534 1931 1978 1931 
Q 2422 1931 2658 2245 
Q 2894 2559 2894 3150 
Q 2894 3772 2656 4106 
Q 2419 4441 1978 4441 
z
" transform="scale(0.015625)"/>
       </defs>
       <use xlink:href="#DejaVuSerif-31" transform="translate(0 0.7125)"/>
       <use xlink:href="#DejaVuSerif-30" transform="translate(63.623047 0.7125)"/>
       <use xlink:href="#DejaVuSerif-2212" transform="translate(128.154453 37.046875) scale(0.7)"/>
       <use xlink:href="#DejaVuSerif-39" transform="translate(186.806797 37.046875) scale(0.7)"/>
      </g>
     </g>
    </g>
    <g id="ytick_2">
     <g id="line2d_17">
      <path d="M 49.230312 161.473091 
L 495.370835 161.473091 
" clip-path="url(#p9444fbd524)" style="fill: none; stroke: #b0b0b0; stroke-opacity: 0.25; stroke-width: 0.5; stroke-linecap: square"/>
     </g>
     <g id="line2d_18">
      <g>
       <use xlink:href="#m8aa86484cb" x="49.230312" y="161.473091" style="stroke: #000000; stroke-width: 0.8"/>
      </g>
     </g>
     <g id="text_9">
      <!-- $\mathdefault{10^{-7}}$ -->
      <g transform="translate(23.510312 164.512466) scale(0.08 -0.08)">
       <use xlink:href="#DejaVuSerif-31" transform="translate(0 0.63125)"/>
       <use xlink:href="#DejaVuSerif-30" transform="translate(63.623047 0.63125)"/>
       <use xlink:href="#DejaVuSerif-2212" transform="translate(128.154453 36.965625) scale(0.7)"/>
       <use xlink:href="#DejaVuSerif-37" transform="translate(186.806797 36.965625) scale(0.7)"/>
      </g>
     </g>
    </g>
    <g id="ytick_3">
     <g id="line2d_19">
      <path d="M 49.230312 129.198809 
L 495.370835 129.198809 
" clip-path="url(#p9444fbd524)" style="fill: none; stroke: #b0b0b0; stroke-opacity: 0.25; stroke-width: 0.5; stroke-linecap: square"/>
     </g>
     <g id="line2d_20">
      <g>
       <use xlink:href="#m8aa86484cb" x="49.230312" y="129.198809" style="stroke: #000000; stroke-width: 0.8"/>
      </g>
     </g>
     <g id="text_10">
      <!-- $\mathdefault{10^{-5}}$ -->
      <g transform="translate(23.510312 132.238184) scale(0.08 -0.08)">
       <defs>
        <path id="DejaVuSerif-35" d="M 3219 4666 
L 3219 4153 
L 1081 4153 
L 1081 2816 
Q 1244 2928 1461 2984 
Q 1678 3041 1947 3041 
Q 2703 3041 3140 2622 
Q 3578 2203 3578 1478 
Q 3578 738 3136 323 
Q 2694 -91 1894 -91 
Q 1572 -91 1234 -12 
Q 897 66 544 225 
L 544 1131 
L 897 1131 
Q 925 688 1179 453 
Q 1434 219 1894 219 
Q 2388 219 2653 544 
Q 2919 869 2919 1478 
Q 2919 2084 2655 2407 
Q 2391 2731 1894 2731 
Q 1613 2731 1398 2631 
Q 1184 2531 1019 2322 
L 750 2322 
L 750 4666 
L 3219 4666 
z
" transform="scale(0.015625)"/>
       </defs>
       <use xlink:href="#DejaVuSerif-31" transform="translate(0 0.63125)"/>
       <use xlink:href="#DejaVuSerif-30" transform="translate(63.623047 0.63125)"/>
       <use xlink:href="#DejaVuSerif-2212" transform="translate(128.154453 36.965625) scale(0.7)"/>
       <use xlink:href="#DejaVuSerif-35" transform="translate(186.806797 36.965625) scale(0.7)"/>
      </g>
     </g>
    </g>
    <g id="ytick_4">
     <g id="line2d_21">
      <path d="M 49.230312 96.924527 
L 495.370835 96.924527 
" clip-path="url(#p9444fbd524)" style="fill: none; stroke: #b0b0b0; stroke-opacity: 0.25; stroke-width: 0.5; stroke-linecap: square"/>
     </g>
     <g id="line2d_22">
      <g>
       <use xlink:href="#m8aa86484cb" x="49.230312" y="96.924527" style="stroke: #000000; stroke-width: 0.8"/>
      </g>
     </g>
     <g id="text_11">
      <!-- $\mathdefault{10^{-3}}$ -->
      <g transform="translate(23.510312 99.963902) scale(0.08 -0.08)">
       <use xlink:href="#DejaVuSerif-31" transform="translate(0 0.7125)"/>
       <use xlink:href="#DejaVuSerif-30" transform="translate(63.623047 0.7125)"/>
       <use xlink:href="#DejaVuSerif-2212" transform="translate(128.154453 37.046875) scale(0.7)"/>
       <use xlink:href="#DejaVuSerif-33" transform="translate(186.806797 37.046875) scale(0.7)"/>
      </g>
     </g>
    </g>
    <g id="ytick_5">
     <g id="line2d_23">
      <path d="M 49.230312 64.650245 
L 495.370835 64.650245 
" clip-path="url(#p9444fbd524)" style="fill: none; stroke: #b0b0b0; stroke-opacity: 0.25; stroke-width: 0.5; stroke-linecap: square"/>
     </g>
     <g id="line2d_24">
      <g>
       <use xlink:href="#m8aa86484cb" x="49.230312" y="64.650245" style="stroke: #000000; stroke-width: 0.8"/>
      </g>
     </g>
     <g id="text_12">
      <!-- $\mathdefault{10^{-1}}$ -->
      <g transform="translate(23.510312 67.68962) scale(0.08 -0.08)">
       <use xlink:href="#DejaVuSerif-31" transform="translate(0 0.7125)"/>
       <use xlink:href="#DejaVuSerif-30" transform="translate(63.623047 0.7125)"/>
       <use xlink:href="#DejaVuSerif-2212" transform="translate(128.154453 37.046875) scale(0.7)"/>
       <use xlink:href="#DejaVuSerif-31" transform="translate(186.806797 37.046875) scale(0.7)"/>
      </g>
     </g>
    </g>
    <g id="ytick_6">
     <g id="line2d_25">
      <path d="M 49.230312 32.375964 
L 495.370835 32.375964 
" clip-path="url(#p9444fbd524)" style="fill: none; stroke: #b0b0b0; stroke-opacity: 0.25; stroke-width: 0.5; stroke-linecap: square"/>
     </g>
     <g id="line2d_26">
      <g>
       <use xlink:href="#m8aa86484cb" x="49.230312" y="32.375964" style="stroke: #000000; stroke-width: 0.8"/>
      </g>
     </g>
     <g id="text_13">
      <!-- $\mathdefault{10^{1}}$ -->
      <g transform="translate(28.150312 35.415339) scale(0.08 -0.08)">
       <use xlink:href="#DejaVuSerif-31" transform="translate(0 0.7125)"/>
       <use xlink:href="#DejaVuSerif-30" transform="translate(63.623047 0.7125)"/>
       <use xlink:href="#DejaVuSerif-31" transform="translate(128.154453 37.046875) scale(0.7)"/>
      </g>
     </g>
    </g>
    <g id="text_14">
     <!-- $/MiB -->
     <g transform="translate(17.638594 133.80157) rotate(-90) scale(0.09 -0.09)">
      <defs>
       <path id="DejaVuSerif-24" d="M 2156 213 
Q 2509 244 2695 416 
Q 2881 588 2881 884 
Q 2881 1153 2697 1340 
Q 2513 1528 2156 1625 
L 2156 213 
z
M 1844 3709 
Q 1522 3688 1344 3523 
Q 1166 3359 1166 3084 
Q 1166 2834 1330 2668 
Q 1494 2503 1844 2400 
L 1844 3709 
z
M 550 225 
L 550 1088 
L 888 1088 
Q 900 659 1137 440 
Q 1375 222 1844 213 
L 1844 1728 
Q 1125 1928 834 2189 
Q 544 2450 544 2881 
Q 544 3381 887 3684 
Q 1231 3988 1844 4025 
L 1844 4863 
L 2156 4863 
L 2156 4025 
Q 2472 4000 2764 3923 
Q 3056 3847 3334 3719 
L 3334 2900 
L 2994 2900 
Q 2956 3263 2740 3472 
Q 2525 3681 2156 3709 
L 2156 2297 
Q 2925 2088 3233 1817 
Q 3541 1547 3541 1094 
Q 3541 575 3178 262 
Q 2816 -50 2156 -97 
L 2156 -941 
L 1844 -941 
L 1844 -97 
Q 1544 -91 1222 -11 
Q 900 69 550 225 
z
" transform="scale(0.015625)"/>
       <path id="DejaVuSerif-2f" d="M 1656 4666 
L 2156 4666 
L 500 -594 
L 0 -594 
L 1656 4666 
z
" transform="scale(0.015625)"/>
       <path id="DejaVuSerif-4d" d="M 353 0 
L 353 331 
L 947 331 
L 947 4331 
L 319 4331 
L 319 4666 
L 1678 4666 
L 3316 1344 
L 4953 4666 
L 6228 4666 
L 6228 4331 
L 5606 4331 
L 5606 331 
L 6203 331 
L 6203 0 
L 4378 0 
L 4378 331 
L 4972 331 
L 4972 3938 
L 3372 684 
L 2931 684 
L 1331 3938 
L 1331 331 
L 1925 331 
L 1925 0 
L 353 0 
z
" transform="scale(0.015625)"/>
       <path id="DejaVuSerif-69" d="M 622 4353 
Q 622 4497 726 4603 
Q 831 4709 978 4709 
Q 1122 4709 1226 4603 
Q 1331 4497 1331 4353 
Q 1331 4206 1228 4103 
Q 1125 4000 978 4000 
Q 831 4000 726 4103 
Q 622 4206 622 4353 
z
M 1356 331 
L 1900 331 
L 1900 0 
L 231 0 
L 231 331 
L 781 331 
L 781 2988 
L 231 2988 
L 231 3322 
L 1356 3322 
L 1356 331 
z
" transform="scale(0.015625)"/>
       <path id="DejaVuSerif-42" d="M 1581 331 
L 2516 331 
Q 3078 331 3337 575 
Q 3597 819 3597 1350 
Q 3597 1878 3339 2120 
Q 3081 2363 2516 2363 
L 1581 2363 
L 1581 331 
z
M 1581 2694 
L 2375 2694 
Q 2888 2694 3123 2891 
Q 3359 3088 3359 3513 
Q 3359 3941 3123 4136 
Q 2888 4331 2375 4331 
L 1581 4331 
L 1581 2694 
z
M 353 0 
L 353 331 
L 947 331 
L 947 4331 
L 353 4331 
L 353 4666 
L 2656 4666 
Q 3363 4666 3720 4377 
Q 4078 4088 4078 3513 
Q 4078 3097 3829 2850 
Q 3581 2603 3103 2547 
Q 3697 2472 4005 2167 
Q 4313 1863 4313 1350 
Q 4313 656 3875 328 
Q 3438 0 2509 0 
L 353 0 
z
" transform="scale(0.015625)"/>
      </defs>
      <use xlink:href="#DejaVuSerif-24"/>
      <use xlink:href="#DejaVuSerif-2f" x="63.623047"/>
      <use xlink:href="#DejaVuSerif-4d" x="97.314453"/>
      <use xlink:href="#DejaVuSerif-69" x="199.707031"/>
      <use xlink:href="#DejaVuSerif-42" x="231.689453"/>
     </g>
    </g>
   </g>
   <g id="line2d_27">
    <path d="M 158.648393 126.065278 
L 172.019238 133.816359 
L 176.476186 133.667436 
L 185.390082 133.453227 
L 265.615151 120.434621 
L 292.356841 133.688242 
L 296.813789 133.641954 
L 301.270738 133.410066 
L 305.727686 133.340337 
L 394.866651 121.159672 
L 421.608341 136.128178 
L 426.065289 135.922056 
L 430.522238 136.163349 
L 434.979186 136.297976 
" clip-path="url(#p9444fbd524)" style="fill: none; stroke: #e6194b; stroke-width: 1.3; stroke-linecap: square"/>
   </g>
   <g id="line2d_28">
    <path d="M 69.509427 205.360511 
L 73.966375 198.981907 
L 78.423324 204.087554 
L 82.880272 196.750775 
L 87.33722 181.856971 
L 91.794169 189.238198 
L 96.251117 176.475961 
L 100.708065 206.177551 
L 105.165013 206.351157 
L 109.621962 203.521128 
L 114.07891 205.164794 
L 118.535858 205.344149 
L 122.992807 204.62414 
L 127.449755 205.752279 
L 131.906703 205.895091 
L 136.363651 205.992602 
L 140.8206 205.621986 
L 145.277548 205.173967 
L 149.734496 159.20621 
L 154.191444 99.321388 
L 158.648393 104.900011 
L 163.105341 106.010036 
L 167.562289 87.506753 
L 172.019238 87.59858 
L 176.476186 89.819543 
L 180.933134 92.447479 
L 185.390082 94.311752 
L 189.847031 96.890106 
L 194.303979 103.462651 
L 198.760927 102.038908 
L 203.217876 102.482928 
L 207.674824 103.598376 
L 212.131772 104.408002 
L 216.58872 105.069022 
L 221.045669 105.659521 
L 225.502617 106.288973 
L 229.959565 105.996202 
L 234.416513 105.462685 
L 238.873462 104.940158 
L 243.33041 105.146887 
L 247.787358 105.505532 
L 252.244307 105.148241 
L 256.701255 105.535975 
L 261.158203 105.66782 
L 265.615151 100.16807 
L 270.0721 101.815784 
L 274.529048 101.548417 
L 278.985996 104.712834 
L 283.442945 99.644781 
L 287.899893 102.229775 
L 292.356841 102.810086 
L 296.813789 99.186181 
L 301.270738 100.128515 
L 305.727686 56.660314 
L 310.184634 60.429365 
L 314.641582 62.951929 
L 319.098531 64.06443 
L 323.555479 64.177578 
L 328.012427 62.518684 
L 332.469376 58.935667 
L 336.926324 53.939886 
L 341.383272 52.873939 
L 345.84022 60.696311 
L 350.297169 63.31351 
L 354.754117 64.428457 
L 359.211065 60.038774 
L 363.668014 57.465613 
L 368.124962 52.353463 
L 372.58191 59.046456 
L 377.038858 58.012749 
L 381.495807 61.236109 
L 385.952755 63.039428 
L 390.409703 58.894213 
L 394.866651 56.710867 
L 399.3236 54.80571 
L 403.780548 56.380492 
L 408.237496 49.277202 
L 412.694445 54.269461 
L 417.151393 51.086216 
L 421.608341 49.33324 
L 426.065289 50.793818 
L 430.522238 50.054137 
L 434.979186 33.786513 
L 439.436134 42.847205 
L 443.893083 55.223809 
L 448.350031 62.534051 
L 452.806979 60.063033 
L 457.263927 58.638947 
L 461.720876 60.32518 
L 466.177824 60.68192 
L 470.634772 62.567159 
L 475.09172 64.193646 
" clip-path="url(#p9444fbd524)" style="fill: none; stroke: #3366cc; stroke-width: 1.3; stroke-linecap: square"/>
   </g>
   <g id="line2d_29">
    <path d="M 73.966375 70.379083 
L 78.423324 70.69801 
L 82.880272 70.815261 
L 87.33722 71.135108 
L 91.794169 71.500285 
L 96.251117 71.866983 
L 100.708065 72.23699 
L 105.165013 72.721452 
L 109.621962 72.632414 
L 114.07891 73.170856 
L 118.535858 74.114573 
L 122.992807 73.686785 
L 127.449755 73.711407 
L 131.906703 74.221685 
L 136.363651 73.396353 
L 140.8206 74.772727 
L 145.277548 74.942774 
L 149.734496 74.60991 
L 154.191444 74.295478 
L 158.648393 75.139726 
L 163.105341 75.557155 
L 167.562289 75.347133 
L 172.019238 75.296481 
L 176.476186 75.03319 
L 180.933134 74.889774 
L 185.390082 75.211206 
L 189.847031 75.153331 
L 194.303979 75.19978 
L 198.760927 75.665753 
L 203.217876 75.933657 
L 207.674824 76.394359 
L 212.131772 76.465129 
L 216.58872 76.931232 
L 221.045669 76.97896 
L 225.502617 76.854636 
L 229.959565 77.006072 
L 234.416513 77.007574 
L 238.873462 77.332953 
L 243.33041 77.418571 
L 247.787358 77.141994 
L 252.244307 76.95008 
L 256.701255 77.030478 
L 261.158203 76.863663 
L 265.615151 77.011874 
L 270.0721 76.889004 
L 274.529048 76.96229 
L 278.985996 76.56301 
L 283.442945 76.126665 
L 287.899893 76.093092 
L 292.356841 75.545193 
L 296.813789 75.376017 
L 301.270738 75.243285 
L 305.727686 75.466113 
L 310.184634 75.773864 
L 314.641582 75.765043 
L 319.098531 75.815463 
L 323.555479 75.780454 
L 328.012427 75.883655 
L 332.469376 75.526436 
L 336.926324 75.166472 
L 341.383272 75.501567 
L 345.84022 75.75049 
L 350.297169 75.551532 
L 354.754117 75.754581 
L 359.211065 76.694256 
L 363.668014 76.925762 
L 368.124962 77.024528 
L 372.58191 77.095384 
L 377.038858 77.194274 
L 381.495807 77.265642 
L 385.952755 77.463081 
L 390.409703 77.500753 
L 394.866651 77.484053 
L 399.3236 77.295723 
L 403.780548 77.641177 
L 408.237496 78.042996 
L 412.694445 78.47702 
L 417.151393 78.609136 
L 421.608341 78.778834 
L 426.065289 78.6724 
L 430.522238 78.76396 
L 434.979186 79.19051 
L 439.436134 79.634313 
L 443.893083 79.360303 
L 448.350031 79.399143 
L 452.806979 79.570825 
L 457.263927 79.757995 
L 461.720876 80.032567 
L 466.177824 79.758167 
L 470.634772 79.670178 
L 475.09172 79.260524 
" clip-path="url(#p9444fbd524)" style="fill: none; stroke: #f58231; stroke-width: 1.3; stroke-linecap: square"/>
   </g>
   <g id="line2d_30">
    <path d="M 73.966375 185.507717 
L 78.423324 185.401228 
L 82.880272 185.588289 
L 87.33722 185.586144 
L 91.794169 185.691951 
L 96.251117 186.310508 
L 100.708065 186.332884 
L 105.165013 186.156264 
L 109.621962 186.114199 
L 114.07891 185.892423 
L 118.535858 185.845313 
L 122.992807 185.647622 
L 127.449755 185.631146 
L 131.906703 185.708431 
L 136.363651 185.692009 
L 140.8206 186.139865 
L 145.277548 186.134754 
L 149.734496 185.554647 
L 154.191444 185.292483 
L 158.648393 185.417966 
L 163.105341 185.629311 
L 167.562289 185.608689 
L 172.019238 185.419646 
L 176.476186 185.436922 
L 180.933134 184.998697 
L 185.390082 185.26279 
L 189.847031 185.181297 
L 194.303979 185.479336 
L 198.760927 185.474978 
L 203.217876 185.457551 
L 207.674824 185.843766 
L 212.131772 185.88901 
L 216.58872 186.108749 
L 221.045669 185.823287 
L 225.502617 185.766347 
L 229.959565 185.765053 
L 234.416513 185.653293 
L 238.873462 185.80314 
L 243.33041 185.869138 
L 247.787358 185.852229 
L 252.244307 185.84949 
L 256.701255 185.885814 
L 261.158203 185.855946 
L 265.615151 185.826846 
L 270.0721 185.793224 
L 274.529048 185.781034 
L 278.985996 185.764147 
L 283.442945 185.609967 
L 287.899893 185.464827 
L 292.356841 185.399184 
L 296.813789 185.318295 
L 301.270738 185.208103 
L 305.727686 185.232438 
L 310.184634 185.449236 
L 314.641582 185.489303 
L 319.098531 185.515715 
L 323.555479 185.481504 
L 328.012427 185.452745 
L 332.469376 185.413557 
L 336.926324 184.97724 
L 341.383272 184.99719 
L 345.84022 185.052258 
L 350.297169 185.048625 
L 354.754117 185.002474 
L 359.211065 185.236484 
L 363.668014 185.485855 
L 368.124962 185.801023 
L 372.58191 185.751081 
L 377.038858 185.840436 
L 381.495807 185.82005 
L 385.952755 185.871969 
L 390.409703 185.957434 
L 394.866651 185.886173 
L 399.3236 185.691544 
L 403.780548 185.866023 
L 408.237496 186.369333 
L 412.694445 186.613365 
L 417.151393 187.274289 
L 421.608341 187.605479 
L 426.065289 187.585439 
L 430.522238 187.757724 
L 434.979186 188.283394 
L 439.436134 188.814173 
L 443.893083 188.368987 
L 448.350031 188.232693 
L 452.806979 188.271424 
L 457.263927 188.50169 
L 461.720876 188.730523 
L 466.177824 188.683841 
L 470.634772 188.701132 
L 475.09172 188.37187 
" clip-path="url(#p9444fbd524)" style="fill: none; stroke: #911eb4; stroke-width: 1.3; stroke-linecap: square"/>
   </g>
   <g id="line2d_31">
    <path d="M 82.880272 49.660259 
L 87.33722 49.702845 
L 91.794169 49.38511 
L 96.251117 50.487308 
L 100.708065 50.902661 
L 105.165013 50.971193 
L 109.621962 51.059555 
L 114.07891 50.969617 
L 118.535858 51.10835 
L 122.992807 51.080982 
L 127.449755 50.941004 
L 131.906703 51.412896 
L 136.363651 51.494946 
L 140.8206 52.061623 
L 145.277548 51.750071 
L 149.734496 51.349852 
L 154.191444 51.103308 
L 158.648393 51.769409 
L 163.105341 52.098285 
L 167.562289 51.990674 
L 172.019238 51.761201 
L 176.476186 51.948755 
L 180.933134 52.362638 
L 185.390082 52.765021 
L 189.847031 52.900227 
L 194.303979 53.077118 
L 198.760927 53.13378 
L 203.217876 53.166053 
L 207.674824 53.407181 
L 212.131772 53.511896 
L 216.58872 53.745566 
L 221.045669 53.700601 
L 225.502617 53.711101 
L 229.959565 53.678082 
L 234.416513 53.578015 
L 238.873462 53.830948 
L 243.33041 54.144538 
L 247.787358 53.866929 
L 252.244307 53.618288 
L 256.701255 53.505309 
L 261.158203 53.211808 
L 265.615151 53.404043 
L 270.0721 53.607188 
L 274.529048 53.637054 
L 278.985996 53.522673 
L 283.442945 52.951096 
L 287.899893 52.834943 
L 292.356841 52.599285 
L 296.813789 52.394748 
L 301.270738 52.225588 
L 305.727686 52.566941 
L 310.184634 52.679654 
L 314.641582 52.745992 
L 319.098531 52.806192 
L 323.555479 52.801 
L 328.012427 52.626106 
L 332.469376 52.284051 
L 336.926324 52.123435 
L 341.383272 52.331596 
L 345.84022 52.838767 
L 350.297169 52.577877 
L 354.754117 52.531751 
L 359.211065 53.014302 
L 363.668014 53.210066 
L 368.124962 53.312222 
L 372.58191 53.600931 
L 377.038858 53.604463 
L 381.495807 53.733105 
L 385.952755 53.741728 
L 390.409703 53.907724 
L 394.866651 53.843177 
L 399.3236 53.884568 
L 403.780548 54.118234 
L 408.237496 54.442856 
L 412.694445 54.719882 
L 417.151393 55.284012 
L 421.608341 55.255379 
L 426.065289 55.217571 
L 430.522238 55.37464 
L 434.979186 55.538125 
L 439.436134 56.075085 
L 443.893083 55.837066 
L 448.350031 55.976864 
L 452.806979 56.326209 
L 457.263927 56.626424 
" clip-path="url(#p9444fbd524)" style="fill: none; stroke: #42d4f4; stroke-width: 1.3; stroke-linecap: square"/>
   </g>
   <g id="line2d_32">
    <path d="M 73.966375 73.036571 
L 78.423324 80.004524 
L 82.880272 80.274463 
L 87.33722 80.266611 
L 91.794169 79.449341 
L 96.251117 79.303371 
L 100.708065 79.775357 
L 105.165013 79.768604 
L 109.621962 79.37033 
L 114.07891 79.878605 
L 118.535858 79.754549 
L 122.992807 80.223618 
L 127.449755 80.772651 
L 131.906703 80.095613 
L 136.363651 79.906324 
L 140.8206 52.62883 
L 145.277548 48.19887 
L 149.734496 47.989964 
L 154.191444 80.383858 
L 158.648393 83.669583 
L 163.105341 83.847859 
L 167.562289 83.927853 
L 172.019238 83.984823 
L 176.476186 84.193076 
L 180.933134 84.129079 
L 185.390082 84.24186 
L 189.847031 84.099939 
L 194.303979 81.995562 
L 198.760927 77.058749 
L 203.217876 80.845443 
L 207.674824 81.046445 
L 212.131772 81.056252 
L 216.58872 81.388413 
L 221.045669 81.309407 
L 225.502617 81.246799 
L 229.959565 82.109886 
L 234.416513 80.525509 
L 238.873462 80.03713 
L 243.33041 77.37495 
L 247.787358 76.258743 
L 252.244307 75.228385 
L 256.701255 72.710552 
L 261.158203 74.379684 
L 265.615151 75.418722 
L 270.0721 83.533218 
L 274.529048 83.596801 
L 278.985996 83.717818 
L 283.442945 83.409879 
L 287.899893 83.376217 
L 292.356841 83.21813 
L 296.813789 83.217773 
L 301.270738 82.783474 
L 305.727686 82.745585 
L 310.184634 82.763963 
L 314.641582 83.051106 
L 319.098531 81.845911 
L 323.555479 82.622409 
L 328.012427 81.912907 
L 332.469376 83.289222 
L 336.926324 83.444552 
L 341.383272 83.428331 
L 345.84022 83.457879 
L 350.297169 83.442973 
L 354.754117 83.478221 
L 359.211065 83.516619 
L 363.668014 83.548321 
L 368.124962 83.567581 
L 372.58191 83.863235 
L 377.038858 84.3102 
L 381.495807 84.391769 
L 385.952755 84.740892 
L 390.409703 84.619992 
L 394.866651 84.832426 
L 399.3236 84.809267 
L 403.780548 84.697751 
L 408.237496 70.731709 
L 412.694445 70.856756 
L 417.151393 71.264468 
L 421.608341 71.470865 
L 426.065289 71.364269 
L 430.522238 72.233354 
L 434.979186 76.959404 
L 439.436134 72.951408 
L 443.893083 72.571515 
L 448.350031 85.852887 
L 452.806979 73.449123 
L 457.263927 73.360592 
L 461.720876 72.812669 
L 466.177824 72.741949 
L 470.634772 73.00259 
L 475.09172 72.541414 
" clip-path="url(#p9444fbd524)" style="fill: none; stroke: #3cb44b; stroke-width: 1.3; stroke-linecap: square"/>
   </g>
   <g id="patch_3">
    <path d="M 49.230312 214.979389 
L 49.230312 25.158281 
" style="fill: none; stroke: #000000; stroke-width: 0.6; stroke-linejoin: miter; stroke-linecap: square"/>
   </g>
   <g id="patch_4">
    <path d="M 49.230312 214.979389 
L 495.370835 214.979389 
" style="fill: none; stroke: #000000; stroke-width: 0.6; stroke-linejoin: miter; stroke-linecap: square"/>
   </g>
   <g id="text_15">
    <!-- Combined DA Cost — p50 ($/MiB) -->
    <g transform="translate(177.197839 19.158281) scale(0.11 -0.11)">
     <defs>
      <path id="DejaVuSerif-43" d="M 4513 1234 
Q 4306 581 3820 245 
Q 3334 -91 2591 -91 
Q 2134 -91 1743 65 
Q 1353 222 1050 525 
Q 700 875 529 1320 
Q 359 1766 359 2328 
Q 359 3416 987 4083 
Q 1616 4750 2644 4750 
Q 3025 4750 3456 4650 
Q 3888 4550 4384 4347 
L 4384 3272 
L 4031 3272 
Q 3916 3859 3567 4137 
Q 3219 4416 2591 4416 
Q 1844 4416 1459 3886 
Q 1075 3356 1075 2328 
Q 1075 1303 1459 773 
Q 1844 244 2591 244 
Q 3113 244 3450 492 
Q 3788 741 3938 1234 
L 4513 1234 
z
" transform="scale(0.015625)"/>
      <path id="DejaVuSerif-6d" d="M 3316 2675 
Q 3481 3041 3739 3227 
Q 3997 3413 4341 3413 
Q 4863 3413 5119 3089 
Q 5375 2766 5375 2113 
L 5375 331 
L 5894 331 
L 5894 0 
L 4300 0 
L 4300 331 
L 4800 331 
L 4800 2047 
Q 4800 2556 4650 2772 
Q 4500 2988 4153 2988 
Q 3769 2988 3567 2697 
Q 3366 2406 3366 1850 
L 3366 331 
L 3866 331 
L 3866 0 
L 2291 0 
L 2291 331 
L 2791 331 
L 2791 2069 
Q 2791 2566 2641 2777 
Q 2491 2988 2144 2988 
Q 1759 2988 1557 2697 
Q 1356 2406 1356 1850 
L 1356 331 
L 1856 331 
L 1856 0 
L 263 0 
L 263 331 
L 781 331 
L 781 2994 
L 231 2994 
L 231 3322 
L 1356 3322 
L 1356 2731 
Q 1516 3063 1762 3238 
Q 2009 3413 2322 3413 
Q 2709 3413 2968 3220 
Q 3228 3028 3316 2675 
z
" transform="scale(0.015625)"/>
      <path id="DejaVuSerif-64" d="M 3359 331 
L 3909 331 
L 3909 0 
L 2784 0 
L 2784 519 
Q 2616 206 2355 57 
Q 2094 -91 1709 -91 
Q 1097 -91 708 395 
Q 319 881 319 1663 
Q 319 2444 706 2928 
Q 1094 3413 1709 3413 
Q 2094 3413 2355 3264 
Q 2616 3116 2784 2803 
L 2784 4531 
L 2241 4531 
L 2241 4863 
L 3359 4863 
L 3359 331 
z
M 2784 1497 
L 2784 1825 
Q 2784 2422 2554 2737 
Q 2325 3053 1888 3053 
Q 1444 3053 1217 2703 
Q 991 2353 991 1663 
Q 991 975 1217 622 
Q 1444 269 1888 269 
Q 2325 269 2554 583 
Q 2784 897 2784 1497 
z
" transform="scale(0.015625)"/>
      <path id="DejaVuSerif-41" d="M 1281 1691 
L 2994 1691 
L 2138 3909 
L 1281 1691 
z
M -38 0 
L -38 331 
L 372 331 
L 2034 4666 
L 2559 4666 
L 4225 331 
L 4684 331 
L 4684 0 
L 2988 0 
L 2988 331 
L 3506 331 
L 3116 1356 
L 1153 1356 
L 763 331 
L 1275 331 
L 1275 0 
L -38 0 
z
" transform="scale(0.015625)"/>
      <path id="DejaVuSerif-73" d="M 359 184 
L 359 959 
L 691 959 
Q 703 588 923 403 
Q 1144 219 1575 219 
Q 1963 219 2166 364 
Q 2369 509 2369 788 
Q 2369 1006 2220 1140 
Q 2072 1275 1594 1428 
L 1178 1569 
Q 750 1706 558 1912 
Q 366 2119 366 2438 
Q 366 2894 700 3153 
Q 1034 3413 1625 3413 
Q 1888 3413 2178 3344 
Q 2469 3275 2778 3144 
L 2778 2419 
L 2447 2419 
Q 2434 2741 2221 2922 
Q 2009 3103 1644 3103 
Q 1281 3103 1095 2975 
Q 909 2847 909 2591 
Q 909 2381 1050 2254 
Q 1191 2128 1613 1997 
L 2069 1856 
Q 2541 1709 2748 1489 
Q 2956 1269 2956 922 
Q 2956 450 2595 179 
Q 2234 -91 1600 -91 
Q 1278 -91 972 -22 
Q 666 47 359 184 
z
" transform="scale(0.015625)"/>
      <path id="DejaVuSerif-74" d="M 691 2988 
L 184 2988 
L 184 3322 
L 691 3322 
L 691 4353 
L 1269 4353 
L 1269 3322 
L 2350 3322 
L 2350 2988 
L 1269 2988 
L 1269 878 
Q 1269 456 1350 337 
Q 1431 219 1650 219 
Q 1875 219 1978 351 
Q 2081 484 2088 781 
L 2522 781 
Q 2497 328 2275 118 
Q 2053 -91 1600 -91 
Q 1103 -91 897 129 
Q 691 350 691 878 
L 691 2988 
z
" transform="scale(0.015625)"/>
      <path id="DejaVuSerif-2014" d="M 281 1906 
L 6119 1906 
L 6119 1491 
L 281 1491 
L 281 1906 
z
" transform="scale(0.015625)"/>
      <path id="DejaVuSerif-70" d="M 1313 1825 
L 1313 1497 
Q 1313 897 1542 583 
Q 1772 269 2209 269 
Q 2650 269 2876 622 
Q 3103 975 3103 1663 
Q 3103 2353 2876 2703 
Q 2650 3053 2209 3053 
Q 1772 3053 1542 2737 
Q 1313 2422 1313 1825 
z
M 738 2988 
L 184 2988 
L 184 3322 
L 1313 3322 
L 1313 2803 
Q 1481 3116 1742 3264 
Q 2003 3413 2388 3413 
Q 3000 3413 3387 2928 
Q 3775 2444 3775 1663 
Q 3775 881 3387 395 
Q 3000 -91 2388 -91 
Q 2003 -91 1742 57 
Q 1481 206 1313 519 
L 1313 -997 
L 1856 -997 
L 1856 -1331 
L 184 -1331 
L 184 -997 
L 738 -997 
L 738 2988 
z
" transform="scale(0.015625)"/>
      <path id="DejaVuSerif-28" d="M 2041 -997 
Q 1281 -656 893 83 
Q 506 822 506 1931 
Q 506 3044 893 3783 
Q 1281 4522 2041 4863 
L 2041 4556 
Q 1559 4225 1350 3623 
Q 1141 3022 1141 1931 
Q 1141 844 1350 242 
Q 1559 -359 2041 -691 
L 2041 -997 
z
" transform="scale(0.015625)"/>
      <path id="DejaVuSerif-29" d="M 453 -997 
L 453 -691 
Q 934 -359 1145 242 
Q 1356 844 1356 1931 
Q 1356 3022 1145 3623 
Q 934 4225 453 4556 
L 453 4863 
Q 1216 4522 1603 3783 
Q 1991 3044 1991 1931 
Q 1991 822 1603 83 
Q 1216 -656 453 -997 
z
" transform="scale(0.015625)"/>
     </defs>
     <use xlink:href="#DejaVuSerif-43"/>
     <use xlink:href="#DejaVuSerif-6f" x="76.513672"/>
     <use xlink:href="#DejaVuSerif-6d" x="136.71875"/>
     <use xlink:href="#DejaVuSerif-62" x="231.542969"/>
     <use xlink:href="#DejaVuSerif-69" x="295.556641"/>
     <use xlink:href="#DejaVuSerif-6e" x="327.539062"/>
     <use xlink:href="#DejaVuSerif-65" x="391.943359"/>
     <use xlink:href="#DejaVuSerif-64" x="451.123047"/>
     <use xlink:href="#DejaVuSerif-20" x="515.136719"/>
     <use xlink:href="#DejaVuSerif-44" x="546.923828"/>
     <use xlink:href="#DejaVuSerif-41" x="627.099609"/>
     <use xlink:href="#DejaVuSerif-20" x="699.316406"/>
     <use xlink:href="#DejaVuSerif-43" x="731.103516"/>
     <use xlink:href="#DejaVuSerif-6f" x="807.617188"/>
     <use xlink:href="#DejaVuSerif-73" x="867.822266"/>
     <use xlink:href="#DejaVuSerif-74" x="919.140625"/>
     <use xlink:href="#DejaVuSerif-20" x="959.326172"/>
     <use xlink:href="#DejaVuSerif-2014" x="991.113281"/>
     <use xlink:href="#DejaVuSerif-20" x="1091.113281"/>
     <use xlink:href="#DejaVuSerif-70" x="1122.900391"/>
     <use xlink:href="#DejaVuSerif-35" x="1186.914062"/>
     <use xlink:href="#DejaVuSerif-30" x="1250.537109"/>
     <use xlink:href="#DejaVuSerif-20" x="1314.160156"/>
     <use xlink:href="#DejaVuSerif-28" x="1345.947266"/>
     <use xlink:href="#DejaVuSerif-24" x="1384.960938"/>
     <use xlink:href="#DejaVuSerif-2f" x="1448.583984"/>
     <use xlink:href="#DejaVuSerif-4d" x="1482.275391"/>
     <use xlink:href="#DejaVuSerif-69" x="1584.667969"/>
     <use xlink:href="#DejaVuSerif-42" x="1616.650391"/>
     <use xlink:href="#DejaVuSerif-29" x="1690.136719"/>
    </g>
   </g>
   <g id="legend_1">
    <g id="patch_5">
     <path d="M 367.190991 136.530867 
L 490.470835 136.530867 
Q 491.870835 136.530867 491.870835 135.130867 
L 491.870835 105.006804 
Q 491.870835 103.606804 490.470835 103.606804 
L 367.190991 103.606804 
Q 365.790991 103.606804 365.790991 105.006804 
L 365.790991 135.130867 
Q 365.790991 136.530867 367.190991 136.530867 
z
" style="fill: #ffffff; opacity: 0.9; stroke: #cccccc; stroke-linejoin: miter"/>
    </g>
    <g id="line2d_33">
     <path d="M 368.590991 109.27571 
L 375.590991 109.27571 
L 382.590991 109.27571 
" style="fill: none; stroke: #e6194b; stroke-width: 1.3; stroke-linecap: square"/>
    </g>
    <g id="text_16">
     <!-- Polkadot -->
     <g transform="translate(388.190991 111.72571) scale(0.07 -0.07)">
      <defs>
       <path id="DejaVuSerif-50" d="M 1581 2375 
L 2406 2375 
Q 2872 2375 3115 2626 
Q 3359 2878 3359 3353 
Q 3359 3831 3115 4081 
Q 2872 4331 2406 4331 
L 1581 4331 
L 1581 2375 
z
M 353 0 
L 353 331 
L 947 331 
L 947 4331 
L 353 4331 
L 353 4666 
L 2559 4666 
Q 3259 4666 3668 4311 
Q 4078 3956 4078 3353 
Q 4078 2753 3668 2397 
Q 3259 2041 2559 2041 
L 1581 2041 
L 1581 331 
L 2303 331 
L 2303 0 
L 353 0 
z
" transform="scale(0.015625)"/>
       <path id="DejaVuSerif-6c" d="M 1313 331 
L 1856 331 
L 1856 0 
L 184 0 
L 184 331 
L 738 331 
L 738 4531 
L 184 4531 
L 184 4863 
L 1313 4863 
L 1313 331 
z
" transform="scale(0.015625)"/>
       <path id="DejaVuSerif-6b" d="M 1831 0 
L 219 0 
L 219 331 
L 738 331 
L 738 4531 
L 184 4531 
L 184 4863 
L 1313 4863 
L 1313 1697 
L 2713 2988 
L 2234 2988 
L 2234 3322 
L 3738 3322 
L 3738 2988 
L 3169 2988 
L 2181 2075 
L 3444 331 
L 3922 331 
L 3922 0 
L 2284 0 
L 2284 331 
L 2759 331 
L 1766 1697 
L 1313 1275 
L 1313 331 
L 1831 331 
L 1831 0 
z
" transform="scale(0.015625)"/>
      </defs>
      <use xlink:href="#DejaVuSerif-50"/>
      <use xlink:href="#DejaVuSerif-6f" x="63.285156"/>
      <use xlink:href="#DejaVuSerif-6c" x="123.490234"/>
      <use xlink:href="#DejaVuSerif-6b" x="155.472656"/>
      <use xlink:href="#DejaVuSerif-61" x="216.068359"/>
      <use xlink:href="#DejaVuSerif-64" x="275.6875"/>
      <use xlink:href="#DejaVuSerif-6f" x="339.701172"/>
      <use xlink:href="#DejaVuSerif-74" x="399.90625"/>
     </g>
    </g>
    <g id="line2d_34">
     <path d="M 368.590991 119.550398 
L 375.590991 119.550398 
L 382.590991 119.550398 
" style="fill: none; stroke: #3366cc; stroke-width: 1.3; stroke-linecap: square"/>
    </g>
    <g id="text_17">
     <!-- Ethereum -->
     <g transform="translate(388.190991 122.000398) scale(0.07 -0.07)">
      <defs>
       <path id="DejaVuSerif-45" d="M 353 0 
L 353 331 
L 947 331 
L 947 4331 
L 353 4331 
L 353 4666 
L 4109 4666 
L 4109 3628 
L 3725 3628 
L 3725 4281 
L 1581 4281 
L 1581 2719 
L 3109 2719 
L 3109 3303 
L 3494 3303 
L 3494 1753 
L 3109 1753 
L 3109 2338 
L 1581 2338 
L 1581 384 
L 3775 384 
L 3775 1038 
L 4159 1038 
L 4159 0 
L 353 0 
z
" transform="scale(0.015625)"/>
       <path id="DejaVuSerif-68" d="M 263 0 
L 263 331 
L 781 331 
L 781 4531 
L 231 4531 
L 231 4863 
L 1356 4863 
L 1356 2731 
Q 1516 3069 1770 3241 
Q 2025 3413 2363 3413 
Q 2913 3413 3172 3097 
Q 3431 2781 3431 2113 
L 3431 331 
L 3944 331 
L 3944 0 
L 2356 0 
L 2356 331 
L 2853 331 
L 2853 1931 
Q 2853 2541 2704 2764 
Q 2556 2988 2175 2988 
Q 1775 2988 1565 2697 
Q 1356 2406 1356 1850 
L 1356 331 
L 1856 331 
L 1856 0 
L 263 0 
z
" transform="scale(0.015625)"/>
       <path id="DejaVuSerif-72" d="M 3059 3328 
L 3059 2497 
L 2728 2497 
Q 2713 2744 2591 2866 
Q 2469 2988 2234 2988 
Q 1809 2988 1582 2694 
Q 1356 2400 1356 1850 
L 1356 331 
L 2022 331 
L 2022 0 
L 263 0 
L 263 331 
L 781 331 
L 781 2994 
L 231 2994 
L 231 3322 
L 1356 3322 
L 1356 2731 
Q 1525 3078 1790 3245 
Q 2056 3413 2438 3413 
Q 2578 3413 2733 3391 
Q 2888 3369 3059 3328 
z
" transform="scale(0.015625)"/>
       <path id="DejaVuSerif-75" d="M 2266 3322 
L 3341 3322 
L 3341 331 
L 3884 331 
L 3884 0 
L 2766 0 
L 2766 588 
Q 2606 256 2353 82 
Q 2100 -91 1766 -91 
Q 1213 -91 952 223 
Q 691 538 691 1209 
L 691 2988 
L 172 2988 
L 172 3322 
L 1269 3322 
L 1269 1388 
Q 1269 781 1417 556 
Q 1566 331 1947 331 
Q 2347 331 2556 625 
Q 2766 919 2766 1478 
L 2766 2988 
L 2266 2988 
L 2266 3322 
z
" transform="scale(0.015625)"/>
      </defs>
      <use xlink:href="#DejaVuSerif-45"/>
      <use xlink:href="#DejaVuSerif-74" x="72.998047"/>
      <use xlink:href="#DejaVuSerif-68" x="113.183594"/>
      <use xlink:href="#DejaVuSerif-65" x="177.587891"/>
      <use xlink:href="#DejaVuSerif-72" x="236.767578"/>
      <use xlink:href="#DejaVuSerif-65" x="284.570312"/>
      <use xlink:href="#DejaVuSerif-75" x="343.75"/>
      <use xlink:href="#DejaVuSerif-6d" x="408.154297"/>
     </g>
    </g>
    <g id="line2d_35">
     <path d="M 368.590991 129.825085 
L 375.590991 129.825085 
L 382.590991 129.825085 
" style="fill: none; stroke: #f58231; stroke-width: 1.3; stroke-linecap: square"/>
    </g>
    <g id="text_18">
     <!-- Celestia -->
     <g transform="translate(388.190991 132.275085) scale(0.07 -0.07)">
      <use xlink:href="#DejaVuSerif-43"/>
      <use xlink:href="#DejaVuSerif-65" x="76.513672"/>
      <use xlink:href="#DejaVuSerif-6c" x="135.693359"/>
      <use xlink:href="#DejaVuSerif-65" x="167.675781"/>
      <use xlink:href="#DejaVuSerif-73" x="226.855469"/>
      <use xlink:href="#DejaVuSerif-74" x="278.173828"/>
      <use xlink:href="#DejaVuSerif-69" x="318.359375"/>
      <use xlink:href="#DejaVuSerif-61" x="350.341797"/>
     </g>
    </g>
    <g id="line2d_36">
     <path d="M 437.400991 109.27571 
L 444.400991 109.27571 
L 451.400991 109.27571 
" style="fill: none; stroke: #911eb4; stroke-width: 1.3; stroke-linecap: square"/>
    </g>
    <g id="text_19">
     <!-- Espresso -->
     <g transform="translate(457.000991 111.72571) scale(0.07 -0.07)">
      <use xlink:href="#DejaVuSerif-45"/>
      <use xlink:href="#DejaVuSerif-73" x="72.998047"/>
      <use xlink:href="#DejaVuSerif-70" x="124.316406"/>
      <use xlink:href="#DejaVuSerif-72" x="188.330078"/>
      <use xlink:href="#DejaVuSerif-65" x="236.132812"/>
      <use xlink:href="#DejaVuSerif-73" x="295.3125"/>
      <use xlink:href="#DejaVuSerif-73" x="346.630859"/>
      <use xlink:href="#DejaVuSerif-6f" x="397.949219"/>
     </g>
    </g>
    <g id="line2d_37">
     <path d="M 437.400991 119.550398 
L 444.400991 119.550398 
L 451.400991 119.550398 
" style="fill: none; stroke: #42d4f4; stroke-width: 1.3; stroke-linecap: square"/>
    </g>
    <g id="text_20">
     <!-- NEAR -->
     <g transform="translate(457.000991 122.000398) scale(0.07 -0.07)">
      <defs>
       <path id="DejaVuSerif-52" d="M 3066 2316 
Q 3284 2256 3442 2114 
Q 3600 1972 3725 1716 
L 4403 331 
L 4972 331 
L 4972 0 
L 3872 0 
L 3144 1484 
Q 2934 1916 2759 2042 
Q 2584 2169 2278 2169 
L 1581 2169 
L 1581 331 
L 2241 331 
L 2241 0 
L 353 0 
L 353 331 
L 947 331 
L 947 4331 
L 353 4331 
L 353 4666 
L 2719 4666 
Q 3400 4666 3770 4341 
Q 4141 4016 4141 3419 
Q 4141 2938 3870 2661 
Q 3600 2384 3066 2316 
z
M 1581 2503 
L 2503 2503 
Q 2975 2503 3200 2726 
Q 3425 2950 3425 3419 
Q 3425 3888 3200 4109 
Q 2975 4331 2503 4331 
L 1581 4331 
L 1581 2503 
z
" transform="scale(0.015625)"/>
      </defs>
      <use xlink:href="#DejaVuSerif-4e"/>
      <use xlink:href="#DejaVuSerif-45" x="87.5"/>
      <use xlink:href="#DejaVuSerif-41" x="160.498047"/>
      <use xlink:href="#DejaVuSerif-52" x="232.714844"/>
     </g>
    </g>
    <g id="line2d_38">
     <path d="M 437.400991 129.825085 
L 444.400991 129.825085 
L 451.400991 129.825085 
" style="fill: none; stroke: #3cb44b; stroke-width: 1.3; stroke-linecap: square"/>
    </g>
    <g id="text_21">
     <!-- Avail -->
     <g transform="translate(457.000991 132.275085) scale(0.07 -0.07)">
      <use xlink:href="#DejaVuSerif-41"/>
      <use xlink:href="#DejaVuSerif-76" x="68.216797"/>
      <use xlink:href="#DejaVuSerif-61" x="124.710938"/>
      <use xlink:href="#DejaVuSerif-69" x="184.330078"/>
      <use xlink:href="#DejaVuSerif-6c" x="216.3125"/>
     </g>
    </g>
   </g>
  </g>
 </g>
 <defs>
  <clipPath id="p9444fbd524">
   <rect x="49.230312" y="25.158281" width="446.140523" height="189.821108"/>
  </clipPath>
 </defs>
</svg>
