<?xml version="1.0" encoding="utf-8" standalone="no"?>
<!DOCTYPE svg PUBLIC "-//W3C//DTD SVG 1.1//EN"
  "http://www.w3.org/Graphics/SVG/1.1/DTD/svg11.dtd">
<svg xmlns:xlink="http://www.w3.org/1999/xlink" width="505.93375pt" height="203.613966pt" viewBox="0 0 505.93375 203.613966" xmlns="http://www.w3.org/2000/svg" version="1.1">
 <metadata>
  <rdf:RDF xmlns:dc="http://purl.org/dc/elements/1.1/" xmlns:cc="http://creativecommons.org/ns#" xmlns:rdf="http://www.w3.org/1999/02/22-rdf-syntax-ns#">
   <cc:Work>
    <dc:type rdf:resource="http://purl.org/dc/dcmitype/StillImage"/>
    <dc:date>2026-02-16T20:22:37.504857</dc:date>
    <dc:format>image/svg+xml</dc:format>
    <dc:creator>
     <cc:Agent>
      <dc:title>Matplotlib v3.9.4, https://matplotlib.org/</dc:title>
     </cc:Agent>
    </dc:creator>
   </cc:Work>
  </rdf:RDF>
 </metadata>
 <defs>
  <style type="text/css">*{stroke-linejoin: round; stroke-linecap: butt}</style>
 </defs>
 <g id="figure_1">
  <g id="patch_1">
   <path d="M 0 203.613966 
L 505.93375 203.613966 
L 505.93375 0 
L 0 0 
z
" style="fill: #ffffff"/>
  </g>
  <g id="axes_1">
   <g id="patch_2">
    <path d="M 43.232813 164.579389 
L 495.13375 164.579389 
L 495.13375 25.158281 
L 43.232813 25.158281 
z
" style="fill: #ffffff"/>
   </g>
   <g id="PolyCollection_1">
    <defs>
     <path id="mf5d88398ab" d="M 63.773764 -54.212034 
L 63.773764 -45.693784 
L 68.33842 -45.670247 
L 72.903076 -45.632277 
L 77.467732 -45.632266 
L 82.032388 -45.71883 
L 86.597044 -45.698952 
L 91.1617 -45.642783 
L 95.726356 -45.652522 
L 100.291012 -45.67974 
L 104.855668 -45.65848 
L 109.420324 -45.657138 
L 113.984979 -45.622404 
L 118.549635 -45.60699 
L 123.114291 -45.615321 
L 127.678947 -45.606467 
L 132.243603 -46.094602 
L 136.808259 -46.695233 
L 141.372915 -46.067386 
L 145.937571 -45.843496 
L 150.502227 -45.729162 
L 155.066883 -45.71102 
L 159.631539 -45.703066 
L 164.196195 -45.69746 
L 168.760851 -45.677341 
L 173.325507 -45.683467 
L 177.890163 -45.672722 
L 182.454818 -45.666983 
L 187.019474 -45.66128 
L 191.58413 -45.67658 
L 196.148786 -45.767674 
L 200.713442 -45.747032 
L 205.278098 -45.719512 
L 209.842754 -45.705772 
L 214.40741 -45.715784 
L 218.972066 -45.720886 
L 223.536722 -45.711477 
L 228.101378 -45.707625 
L 232.666034 -45.691872 
L 237.23069 -45.684789 
L 241.795346 -45.700053 
L 246.360002 -45.709191 
L 250.924658 -45.708277 
L 255.489313 -45.703937 
L 260.053969 -45.691433 
L 264.618625 -45.614549 
L 269.183281 -45.609647 
L 273.747937 -45.607911 
L 278.312593 -45.618303 
L 282.877249 -45.625863 
L 287.441905 -45.634226 
L 292.006561 -45.633641 
L 296.571217 -45.645479 
L 301.135873 -45.663297 
L 305.700529 -45.692213 
L 310.265185 -45.673054 
L 314.829841 -45.666 
L 319.394497 -45.625028 
L 323.959152 -45.660314 
L 328.523808 -45.734033 
L 333.088464 -45.661713 
L 337.65312 -45.655011 
L 342.217776 -45.649726 
L 346.782432 -45.650921 
L 351.347088 -45.649999 
L 355.911744 -45.661928 
L 360.4764 -45.645622 
L 365.041056 -45.632603 
L 369.605712 -45.609083 
L 374.170368 -45.575525 
L 378.735024 -45.570142 
L 383.29968 -45.564114 
L 387.864336 -45.55429 
L 392.428991 -45.547737 
L 396.993647 -45.54508 
L 401.558303 -45.532818 
L 406.122959 -45.510132 
L 410.687615 -45.504676 
L 415.252271 -45.484406 
L 419.816927 -45.476019 
L 424.381583 -45.474525 
L 428.946239 -45.465852 
L 433.510895 -45.435847 
L 438.075551 -45.386447 
L 442.640207 -45.403996 
L 447.204863 -45.403623 
L 451.769519 -45.388755 
L 456.334175 -45.378798 
L 460.89883 -45.3719 
L 465.463486 -45.380513 
L 470.028142 -45.381549 
L 474.592798 -45.384108 
L 474.592798 -48.756474 
L 474.592798 -48.756474 
L 470.028142 -48.607335 
L 465.463486 -48.605584 
L 460.89883 -48.540177 
L 456.334175 -48.591107 
L 451.769519 -48.678576 
L 447.204863 -53.191261 
L 442.640207 -48.79208 
L 438.075551 -48.639047 
L 433.510895 -49.048727 
L 428.946239 -49.303094 
L 424.381583 -49.443703 
L 419.816927 -49.491129 
L 415.252271 -49.584432 
L 410.687615 -53.420946 
L 406.122959 -53.753409 
L 401.558303 -59.48425 
L 396.993647 -51.853428 
L 392.428991 -53.055178 
L 387.864336 -52.286931 
L 383.29968 -49.686838 
L 378.735024 -54.268122 
L 374.170368 -77.854662 
L 369.605712 -79.046826 
L 365.041056 -50.342252 
L 360.4764 -49.120014 
L 355.911744 -49.574375 
L 351.347088 -48.974017 
L 346.782432 -49.898183 
L 342.217776 -50.440936 
L 337.65312 -47.761644 
L 333.088464 -48.441989 
L 328.523808 -46.046585 
L 323.959152 -48.662528 
L 319.394497 -49.189776 
L 314.829841 -50.654154 
L 310.265185 -49.39749 
L 305.700529 -52.538854 
L 301.135873 -53.137878 
L 296.571217 -52.792685 
L 292.006561 -52.808055 
L 287.441905 -52.492966 
L 282.877249 -52.615413 
L 278.312593 -52.481812 
L 273.747937 -52.544629 
L 269.183281 -52.411782 
L 264.618625 -51.449557 
L 260.053969 -160.723873 
L 255.489313 -162.722226 
L 250.924658 -163.344528 
L 246.360002 -163.405869 
L 241.795346 -161.798221 
L 237.23069 -159.08984 
L 232.666034 -160.191169 
L 228.101378 -162.782662 
L 223.536722 -163.378628 
L 218.972066 -164.729874 
L 214.40741 -163.776663 
L 209.842754 -161.999745 
L 205.278098 -164.218061 
L 200.713442 -168.744929 
L 196.148786 -172.118362 
L 191.58413 -156.719983 
L 187.019474 -154.072553 
L 182.454818 -100.397989 
L 177.890163 -46.272874 
L 173.325507 -46.606995 
L 168.760851 -46.371643 
L 164.196195 -46.209397 
L 159.631539 -46.177378 
L 155.066883 -46.144594 
L 150.502227 -46.319631 
L 145.937571 -164.420917 
L 141.372915 -161.954148 
L 136.808259 -158.519731 
L 132.243603 -164.480786 
L 127.678947 -110.542861 
L 123.114291 -57.829094 
L 118.549635 -50.324662 
L 113.984979 -55.622614 
L 109.420324 -56.738983 
L 104.855668 -51.737965 
L 100.291012 -52.508191 
L 95.726356 -57.09205 
L 91.1617 -52.146063 
L 86.597044 -52.696212 
L 82.032388 -52.218768 
L 77.467732 -51.592878 
L 72.903076 -49.609535 
L 68.33842 -49.741592 
L 63.773764 -54.212034 
z
" style="stroke: #b3cde3; stroke-opacity: 0.4"/>
    </defs>
    <g clip-path="url(#p40943fdf50)">
     <use xlink:href="#mf5d88398ab" x="0" y="203.613966" style="fill: #b3cde3; fill-opacity: 0.4; stroke: #b3cde3; stroke-opacity: 0.4"/>
    </g>
   </g>
   <g id="matplotlib.axis_1">
    <g id="xtick_1">
     <g id="line2d_1">
      <path d="M 72.903076 164.579389 
L 72.903076 25.158281 
" clip-path="url(#p40943fdf50)" style="fill: none; stroke: #b0b0b0; stroke-opacity: 0.25; stroke-width: 0.5; stroke-linecap: square"/>
     </g>
     <g id="line2d_2">
      <defs>
       <path id="mdd89047d2c" d="M 0 0 
L 0 3.5 
" style="stroke: #000000; stroke-width: 0.8"/>
      </defs>
      <g>
       <use xlink:href="#mdd89047d2c" x="72.903076" y="164.579389" style="stroke: #000000; stroke-width: 0.8"/>
      </g>
     </g>
     <g id="text_1">
      <!-- Nov 18 -->
      <g transform="translate(46.905585 191.373116) rotate(-30) scale(0.08 -0.08)">
       <defs>
        <path id="DejaVuSerif-4e" d="M 313 0 
L 313 331 
L 941 331 
L 941 4331 
L 313 4331 
L 313 4666 
L 1509 4666 
L 4306 984 
L 4306 4331 
L 3681 4331 
L 3681 4666 
L 5319 4666 
L 5319 4331 
L 4691 4331 
L 4691 -91 
L 4313 -91 
L 1325 3841 
L 1325 331 
L 1953 331 
L 1953 0 
L 313 0 
z
" transform="scale(0.015625)"/>
        <path id="DejaVuSerif-6f" d="M 1925 219 
Q 2388 219 2623 584 
Q 2859 950 2859 1663 
Q 2859 2375 2623 2739 
Q 2388 3103 1925 3103 
Q 1463 3103 1227 2739 
Q 991 2375 991 1663 
Q 991 950 1228 584 
Q 1466 219 1925 219 
z
M 1925 -91 
Q 1200 -91 759 389 
Q 319 869 319 1663 
Q 319 2456 758 2934 
Q 1197 3413 1925 3413 
Q 2653 3413 3092 2934 
Q 3531 2456 3531 1663 
Q 3531 869 3092 389 
Q 2653 -91 1925 -91 
z
" transform="scale(0.015625)"/>
        <path id="DejaVuSerif-76" d="M 1581 0 
L 359 2988 
L -19 2988 
L -19 3322 
L 1509 3322 
L 1509 2988 
L 978 2988 
L 1913 703 
L 2847 2988 
L 2350 2988 
L 2350 3322 
L 3597 3322 
L 3597 2988 
L 3225 2988 
L 2003 0 
L 1581 0 
z
" transform="scale(0.015625)"/>
        <path id="DejaVuSerif-20" transform="scale(0.015625)"/>
        <path id="DejaVuSerif-31" d="M 909 0 
L 909 331 
L 1722 331 
L 1722 4213 
L 781 3603 
L 781 4013 
L 1919 4750 
L 2350 4750 
L 2350 331 
L 3163 331 
L 3163 0 
L 909 0 
z
" transform="scale(0.015625)"/>
        <path id="DejaVuSerif-38" d="M 2981 1275 
Q 2981 1775 2732 2051 
Q 2484 2328 2034 2328 
Q 1584 2328 1336 2051 
Q 1088 1775 1088 1275 
Q 1088 772 1336 495 
Q 1584 219 2034 219 
Q 2484 219 2732 495 
Q 2981 772 2981 1275 
z
M 2853 3541 
Q 2853 3966 2637 4203 
Q 2422 4441 2034 4441 
Q 1650 4441 1433 4203 
Q 1216 3966 1216 3541 
Q 1216 3113 1433 2875 
Q 1650 2638 2034 2638 
Q 2422 2638 2637 2875 
Q 2853 3113 2853 3541 
z
M 2516 2484 
Q 3047 2413 3344 2092 
Q 3641 1772 3641 1275 
Q 3641 619 3225 264 
Q 2809 -91 2034 -91 
Q 1263 -91 845 264 
Q 428 619 428 1275 
Q 428 1772 725 2092 
Q 1022 2413 1556 2484 
Q 1084 2569 832 2842 
Q 581 3116 581 3541 
Q 581 4103 968 4426 
Q 1356 4750 2034 4750 
Q 2713 4750 3100 4426 
Q 3488 4103 3488 3541 
Q 3488 3116 3236 2842 
Q 2984 2569 2516 2484 
z
" transform="scale(0.015625)"/>
       </defs>
       <use xlink:href="#DejaVuSerif-4e"/>
       <use xlink:href="#DejaVuSerif-6f" x="87.5"/>
       <use xlink:href="#DejaVuSerif-76" x="147.705078"/>
       <use xlink:href="#DejaVuSerif-20" x="204.199219"/>
       <use xlink:href="#DejaVuSerif-31" x="235.986328"/>
       <use xlink:href="#DejaVuSerif-38" x="299.609375"/>
      </g>
     </g>
    </g>
    <g id="xtick_2">
     <g id="line2d_3">
      <path d="M 136.808259 164.579389 
L 136.808259 25.158281 
" clip-path="url(#p40943fdf50)" style="fill: none; stroke: #b0b0b0; stroke-opacity: 0.25; stroke-width: 0.5; stroke-linecap: square"/>
     </g>
     <g id="line2d_4">
      <g>
       <use xlink:href="#mdd89047d2c" x="136.808259" y="164.579389" style="stroke: #000000; stroke-width: 0.8"/>
      </g>
     </g>
     <g id="text_2">
      <!-- Dec 02 -->
      <g transform="translate(111.423481 191.019366) rotate(-30) scale(0.08 -0.08)">
       <defs>
        <path id="DejaVuSerif-44" d="M 1581 331 
L 2163 331 
Q 3072 331 3558 850 
Q 4044 1369 4044 2338 
Q 4044 3306 3559 3818 
Q 3075 4331 2163 4331 
L 1581 4331 
L 1581 331 
z
M 353 0 
L 353 331 
L 947 331 
L 947 4331 
L 353 4331 
L 353 4666 
L 2209 4666 
Q 3416 4666 4089 4050 
Q 4763 3434 4763 2338 
Q 4763 1238 4088 619 
Q 3413 0 2209 0 
L 353 0 
z
" transform="scale(0.015625)"/>
        <path id="DejaVuSerif-65" d="M 3469 1600 
L 991 1600 
L 991 1575 
Q 991 903 1244 561 
Q 1497 219 1991 219 
Q 2369 219 2611 417 
Q 2853 616 2950 1006 
L 3413 1006 
Q 3275 459 2904 184 
Q 2534 -91 1931 -91 
Q 1203 -91 761 389 
Q 319 869 319 1663 
Q 319 2450 753 2931 
Q 1188 3413 1894 3413 
Q 2647 3413 3050 2948 
Q 3453 2484 3469 1600 
z
M 2791 1931 
Q 2772 2513 2545 2808 
Q 2319 3103 1894 3103 
Q 1497 3103 1269 2806 
Q 1041 2509 991 1931 
L 2791 1931 
z
" transform="scale(0.015625)"/>
        <path id="DejaVuSerif-63" d="M 3291 997 
Q 3169 466 2822 187 
Q 2475 -91 1925 -91 
Q 1200 -91 759 389 
Q 319 869 319 1663 
Q 319 2459 759 2936 
Q 1200 3413 1925 3413 
Q 2241 3413 2553 3339 
Q 2866 3266 3181 3116 
L 3181 2266 
L 2847 2266 
Q 2781 2703 2561 2903 
Q 2341 3103 1931 3103 
Q 1466 3103 1228 2742 
Q 991 2381 991 1663 
Q 991 944 1227 581 
Q 1463 219 1931 219 
Q 2303 219 2525 412 
Q 2747 606 2828 997 
L 3291 997 
z
" transform="scale(0.015625)"/>
        <path id="DejaVuSerif-30" d="M 2034 219 
Q 2513 219 2750 744 
Q 2988 1269 2988 2328 
Q 2988 3391 2750 3916 
Q 2513 4441 2034 4441 
Q 1556 4441 1318 3916 
Q 1081 3391 1081 2328 
Q 1081 1269 1318 744 
Q 1556 219 2034 219 
z
M 2034 -91 
Q 1275 -91 848 546 
Q 422 1184 422 2328 
Q 422 3475 848 4112 
Q 1275 4750 2034 4750 
Q 2797 4750 3222 4112 
Q 3647 3475 3647 2328 
Q 3647 1184 3222 546 
Q 2797 -91 2034 -91 
z
" transform="scale(0.015625)"/>
        <path id="DejaVuSerif-32" d="M 819 3553 
L 469 3553 
L 469 4384 
Q 803 4563 1142 4656 
Q 1481 4750 1806 4750 
Q 2534 4750 2956 4397 
Q 3378 4044 3378 3438 
Q 3378 2753 2422 1800 
Q 2347 1728 2309 1691 
L 1131 513 
L 3078 513 
L 3078 1088 
L 3444 1088 
L 3444 0 
L 434 0 
L 434 341 
L 1850 1753 
Q 2319 2222 2519 2614 
Q 2719 3006 2719 3438 
Q 2719 3909 2473 4175 
Q 2228 4441 1797 4441 
Q 1350 4441 1106 4219 
Q 863 3997 819 3553 
z
" transform="scale(0.015625)"/>
       </defs>
       <use xlink:href="#DejaVuSerif-44"/>
       <use xlink:href="#DejaVuSerif-65" x="80.175781"/>
       <use xlink:href="#DejaVuSerif-63" x="139.355469"/>
       <use xlink:href="#DejaVuSerif-20" x="195.361328"/>
       <use xlink:href="#DejaVuSerif-30" x="227.148438"/>
       <use xlink:href="#DejaVuSerif-32" x="290.771484"/>
      </g>
     </g>
    </g>
    <g id="xtick_3">
     <g id="line2d_5">
      <path d="M 200.713442 164.579389 
L 200.713442 25.158281 
" clip-path="url(#p40943fdf50)" style="fill: none; stroke: #b0b0b0; stroke-opacity: 0.25; stroke-width: 0.5; stroke-linecap: square"/>
     </g>
     <g id="line2d_6">
      <g>
       <use xlink:href="#mdd89047d2c" x="200.713442" y="164.579389" style="stroke: #000000; stroke-width: 0.8"/>
      </g>
     </g>
     <g id="text_3">
      <!-- Dec 16 -->
      <g transform="translate(175.328665 191.019366) rotate(-30) scale(0.08 -0.08)">
       <defs>
        <path id="DejaVuSerif-36" d="M 2094 219 
Q 2534 219 2771 542 
Q 3009 866 3009 1472 
Q 3009 2078 2771 2401 
Q 2534 2725 2094 2725 
Q 1647 2725 1412 2412 
Q 1178 2100 1178 1509 
Q 1178 888 1415 553 
Q 1653 219 2094 219 
z
M 1075 2569 
Q 1288 2803 1556 2918 
Q 1825 3034 2163 3034 
Q 2859 3034 3264 2615 
Q 3669 2197 3669 1472 
Q 3669 763 3233 336 
Q 2797 -91 2069 -91 
Q 1278 -91 853 498 
Q 428 1088 428 2181 
Q 428 3406 931 4078 
Q 1434 4750 2350 4750 
Q 2597 4750 2869 4703 
Q 3141 4656 3425 4563 
L 3425 3794 
L 3072 3794 
Q 3034 4109 2831 4275 
Q 2628 4441 2284 4441 
Q 1678 4441 1381 3981 
Q 1084 3522 1075 2569 
z
" transform="scale(0.015625)"/>
       </defs>
       <use xlink:href="#DejaVuSerif-44"/>
       <use xlink:href="#DejaVuSerif-65" x="80.175781"/>
       <use xlink:href="#DejaVuSerif-63" x="139.355469"/>
       <use xlink:href="#DejaVuSerif-20" x="195.361328"/>
       <use xlink:href="#DejaVuSerif-31" x="227.148438"/>
       <use xlink:href="#DejaVuSerif-36" x="290.771484"/>
      </g>
     </g>
    </g>
    <g id="xtick_4">
     <g id="line2d_7">
      <path d="M 264.618625 164.579389 
L 264.618625 25.158281 
" clip-path="url(#p40943fdf50)" style="fill: none; stroke: #b0b0b0; stroke-opacity: 0.25; stroke-width: 0.5; stroke-linecap: square"/>
     </g>
     <g id="line2d_8">
      <g>
       <use xlink:href="#mdd89047d2c" x="264.618625" y="164.579389" style="stroke: #000000; stroke-width: 0.8"/>
      </g>
     </g>
     <g id="text_4">
      <!-- Dec 30 -->
      <g transform="translate(239.233848 191.019366) rotate(-30) scale(0.08 -0.08)">
       <defs>
        <path id="DejaVuSerif-33" d="M 622 4469 
Q 988 4606 1323 4678 
Q 1659 4750 1953 4750 
Q 2638 4750 3022 4454 
Q 3406 4159 3406 3634 
Q 3406 3213 3140 2930 
Q 2875 2647 2388 2547 
Q 2963 2466 3280 2130 
Q 3597 1794 3597 1259 
Q 3597 606 3158 257 
Q 2719 -91 1894 -91 
Q 1528 -91 1179 -12 
Q 831 66 488 225 
L 488 1131 
L 838 1131 
Q 869 681 1141 450 
Q 1413 219 1906 219 
Q 2384 219 2661 495 
Q 2938 772 2938 1253 
Q 2938 1803 2653 2086 
Q 2369 2369 1819 2369 
L 1522 2369 
L 1522 2688 
L 1678 2688 
Q 2225 2688 2498 2914 
Q 2772 3141 2772 3597 
Q 2772 4006 2547 4223 
Q 2322 4441 1900 4441 
Q 1478 4441 1245 4241 
Q 1013 4041 972 3647 
L 622 3647 
L 622 4469 
z
" transform="scale(0.015625)"/>
       </defs>
       <use xlink:href="#DejaVuSerif-44"/>
       <use xlink:href="#DejaVuSerif-65" x="80.175781"/>
       <use xlink:href="#DejaVuSerif-63" x="139.355469"/>
       <use xlink:href="#DejaVuSerif-20" x="195.361328"/>
       <use xlink:href="#DejaVuSerif-33" x="227.148438"/>
       <use xlink:href="#DejaVuSerif-30" x="290.771484"/>
      </g>
     </g>
    </g>
    <g id="xtick_5">
     <g id="line2d_9">
      <path d="M 328.523808 164.579389 
L 328.523808 25.158281 
" clip-path="url(#p40943fdf50)" style="fill: none; stroke: #b0b0b0; stroke-opacity: 0.25; stroke-width: 0.5; stroke-linecap: square"/>
     </g>
     <g id="line2d_10">
      <g>
       <use xlink:href="#mdd89047d2c" x="328.523808" y="164.579389" style="stroke: #000000; stroke-width: 0.8"/>
      </g>
     </g>
     <g id="text_5">
      <!-- Jan 13 -->
      <g transform="translate(305.303012 189.769991) rotate(-30) scale(0.08 -0.08)">
       <defs>
        <path id="DejaVuSerif-4a" d="M -538 -1119 
L -538 -384 
L -181 -384 
Q -172 -694 -34 -845 
Q 103 -997 378 -997 
Q 750 -997 897 -762 
Q 1044 -528 1044 153 
L 1044 4331 
L 319 4331 
L 319 4666 
L 2272 4666 
L 2272 4331 
L 1678 4331 
L 1678 128 
Q 1678 -644 1368 -987 
Q 1059 -1331 372 -1331 
Q 150 -1331 -79 -1278 
Q -309 -1225 -538 -1119 
z
" transform="scale(0.015625)"/>
        <path id="DejaVuSerif-61" d="M 2547 1044 
L 2547 1747 
L 1806 1747 
Q 1378 1747 1168 1562 
Q 959 1378 959 997 
Q 959 650 1171 447 
Q 1384 244 1747 244 
Q 2106 244 2326 466 
Q 2547 688 2547 1044 
z
M 3122 2075 
L 3122 331 
L 3634 331 
L 3634 0 
L 2547 0 
L 2547 359 
Q 2356 128 2106 18 
Q 1856 -91 1522 -91 
Q 969 -91 644 203 
Q 319 497 319 997 
Q 319 1513 691 1797 
Q 1063 2081 1741 2081 
L 2547 2081 
L 2547 2309 
Q 2547 2688 2317 2895 
Q 2088 3103 1672 3103 
Q 1328 3103 1125 2947 
Q 922 2791 872 2484 
L 575 2484 
L 575 3156 
Q 875 3284 1158 3348 
Q 1441 3413 1709 3413 
Q 2400 3413 2761 3070 
Q 3122 2728 3122 2075 
z
" transform="scale(0.015625)"/>
        <path id="DejaVuSerif-6e" d="M 263 0 
L 263 331 
L 781 331 
L 781 2988 
L 231 2988 
L 231 3322 
L 1356 3322 
L 1356 2731 
Q 1516 3069 1770 3241 
Q 2025 3413 2363 3413 
Q 2913 3413 3172 3097 
Q 3431 2781 3431 2113 
L 3431 331 
L 3944 331 
L 3944 0 
L 2356 0 
L 2356 331 
L 2853 331 
L 2853 1931 
Q 2853 2541 2703 2767 
Q 2553 2994 2175 2994 
Q 1775 2994 1565 2701 
Q 1356 2409 1356 1850 
L 1356 331 
L 1856 331 
L 1856 0 
L 263 0 
z
" transform="scale(0.015625)"/>
       </defs>
       <use xlink:href="#DejaVuSerif-4a"/>
       <use xlink:href="#DejaVuSerif-61" x="40.087891"/>
       <use xlink:href="#DejaVuSerif-6e" x="99.707031"/>
       <use xlink:href="#DejaVuSerif-20" x="164.111328"/>
       <use xlink:href="#DejaVuSerif-31" x="195.898438"/>
       <use xlink:href="#DejaVuSerif-33" x="259.521484"/>
      </g>
     </g>
    </g>
    <g id="xtick_6">
     <g id="line2d_11">
      <path d="M 392.428991 164.579389 
L 392.428991 25.158281 
" clip-path="url(#p40943fdf50)" style="fill: none; stroke: #b0b0b0; stroke-opacity: 0.25; stroke-width: 0.5; stroke-linecap: square"/>
     </g>
     <g id="line2d_12">
      <g>
       <use xlink:href="#mdd89047d2c" x="392.428991" y="164.579389" style="stroke: #000000; stroke-width: 0.8"/>
      </g>
     </g>
     <g id="text_6">
      <!-- Jan 27 -->
      <g transform="translate(369.208195 189.769991) rotate(-30) scale(0.08 -0.08)">
       <defs>
        <path id="DejaVuSerif-37" d="M 3609 4347 
L 1784 0 
L 1319 0 
L 3059 4153 
L 903 4153 
L 903 3578 
L 538 3578 
L 538 4666 
L 3609 4666 
L 3609 4347 
z
" transform="scale(0.015625)"/>
       </defs>
       <use xlink:href="#DejaVuSerif-4a"/>
       <use xlink:href="#DejaVuSerif-61" x="40.087891"/>
       <use xlink:href="#DejaVuSerif-6e" x="99.707031"/>
       <use xlink:href="#DejaVuSerif-20" x="164.111328"/>
       <use xlink:href="#DejaVuSerif-32" x="195.898438"/>
       <use xlink:href="#DejaVuSerif-37" x="259.521484"/>
      </g>
     </g>
    </g>
    <g id="xtick_7">
     <g id="line2d_13">
      <path d="M 456.334175 164.579389 
L 456.334175 25.158281 
" clip-path="url(#p40943fdf50)" style="fill: none; stroke: #b0b0b0; stroke-opacity: 0.25; stroke-width: 0.5; stroke-linecap: square"/>
     </g>
     <g id="line2d_14">
      <g>
       <use xlink:href="#mdd89047d2c" x="456.334175" y="164.579389" style="stroke: #000000; stroke-width: 0.8"/>
      </g>
     </g>
     <g id="text_7">
      <!-- Feb 10 -->
      <g transform="translate(431.522056 190.688741) rotate(-30) scale(0.08 -0.08)">
       <defs>
        <path id="DejaVuSerif-46" d="M 353 0 
L 353 331 
L 947 331 
L 947 4331 
L 353 4331 
L 353 4666 
L 4172 4666 
L 4172 3628 
L 3788 3628 
L 3788 4281 
L 1581 4281 
L 1581 2719 
L 3175 2719 
L 3175 3303 
L 3559 3303 
L 3559 1753 
L 3175 1753 
L 3175 2338 
L 1581 2338 
L 1581 331 
L 2328 331 
L 2328 0 
L 353 0 
z
" transform="scale(0.015625)"/>
        <path id="DejaVuSerif-62" d="M 738 331 
L 738 4531 
L 184 4531 
L 184 4863 
L 1313 4863 
L 1313 2803 
Q 1481 3116 1742 3264 
Q 2003 3413 2388 3413 
Q 3000 3413 3387 2928 
Q 3775 2444 3775 1663 
Q 3775 881 3387 395 
Q 3000 -91 2388 -91 
Q 2003 -91 1742 57 
Q 1481 206 1313 519 
L 1313 0 
L 184 0 
L 184 331 
L 738 331 
z
M 1313 1497 
Q 1313 897 1542 583 
Q 1772 269 2209 269 
Q 2650 269 2876 622 
Q 3103 975 3103 1663 
Q 3103 2353 2876 2703 
Q 2650 3053 2209 3053 
Q 1772 3053 1542 2737 
Q 1313 2422 1313 1825 
L 1313 1497 
z
" transform="scale(0.015625)"/>
       </defs>
       <use xlink:href="#DejaVuSerif-46"/>
       <use xlink:href="#DejaVuSerif-65" x="63.884766"/>
       <use xlink:href="#DejaVuSerif-62" x="123.064453"/>
       <use xlink:href="#DejaVuSerif-20" x="187.078125"/>
       <use xlink:href="#DejaVuSerif-31" x="218.865234"/>
       <use xlink:href="#DejaVuSerif-30" x="282.488281"/>
      </g>
     </g>
    </g>
   </g>
   <g id="matplotlib.axis_2">
    <g id="ytick_1">
     <g id="line2d_15">
      <path d="M 43.232813 158.603083 
L 495.13375 158.603083 
" clip-path="url(#p40943fdf50)" style="fill: none; stroke: #b0b0b0; stroke-opacity: 0.25; stroke-width: 0.5; stroke-linecap: square"/>
     </g>
     <g id="line2d_16">
      <defs>
       <path id="md3b307266f" d="M 0 0 
L -3.5 0 
" style="stroke: #000000; stroke-width: 0.8"/>
      </defs>
      <g>
       <use xlink:href="#md3b307266f" x="43.232813" y="158.603083" style="stroke: #000000; stroke-width: 0.8"/>
      </g>
     </g>
     <g id="text_8">
      <!-- 0.0 -->
      <g transform="translate(23.510313 161.642458) scale(0.08 -0.08)">
       <defs>
        <path id="DejaVuSerif-2e" d="M 603 325 
Q 603 500 722 622 
Q 841 744 1019 744 
Q 1191 744 1312 622 
Q 1434 500 1434 325 
Q 1434 153 1312 31 
Q 1191 -91 1019 -91 
Q 841 -91 722 29 
Q 603 150 603 325 
z
" transform="scale(0.015625)"/>
       </defs>
       <use xlink:href="#DejaVuSerif-30"/>
       <use xlink:href="#DejaVuSerif-2e" x="63.623047"/>
       <use xlink:href="#DejaVuSerif-30" x="95.410156"/>
      </g>
     </g>
    </g>
    <g id="ytick_2">
     <g id="line2d_17">
      <path d="M 43.232813 136.923461 
L 495.13375 136.923461 
" clip-path="url(#p40943fdf50)" style="fill: none; stroke: #b0b0b0; stroke-opacity: 0.25; stroke-width: 0.5; stroke-linecap: square"/>
     </g>
     <g id="line2d_18">
      <g>
       <use xlink:href="#md3b307266f" x="43.232813" y="136.923461" style="stroke: #000000; stroke-width: 0.8"/>
      </g>
     </g>
     <g id="text_9">
      <!-- 0.2 -->
      <g transform="translate(23.510313 139.962836) scale(0.08 -0.08)">
       <use xlink:href="#DejaVuSerif-30"/>
       <use xlink:href="#DejaVuSerif-2e" x="63.623047"/>
       <use xlink:href="#DejaVuSerif-32" x="95.410156"/>
      </g>
     </g>
    </g>
    <g id="ytick_3">
     <g id="line2d_19">
      <path d="M 43.232813 115.24384 
L 495.13375 115.24384 
" clip-path="url(#p40943fdf50)" style="fill: none; stroke: #b0b0b0; stroke-opacity: 0.25; stroke-width: 0.5; stroke-linecap: square"/>
     </g>
     <g id="line2d_20">
      <g>
       <use xlink:href="#md3b307266f" x="43.232813" y="115.24384" style="stroke: #000000; stroke-width: 0.8"/>
      </g>
     </g>
     <g id="text_10">
      <!-- 0.4 -->
      <g transform="translate(23.510313 118.283215) scale(0.08 -0.08)">
       <defs>
        <path id="DejaVuSerif-34" d="M 2234 1581 
L 2234 4063 
L 641 1581 
L 2234 1581 
z
M 3609 0 
L 1484 0 
L 1484 331 
L 2234 331 
L 2234 1247 
L 197 1247 
L 197 1588 
L 2241 4750 
L 2859 4750 
L 2859 1581 
L 3750 1581 
L 3750 1247 
L 2859 1247 
L 2859 331 
L 3609 331 
L 3609 0 
z
" transform="scale(0.015625)"/>
       </defs>
       <use xlink:href="#DejaVuSerif-30"/>
       <use xlink:href="#DejaVuSerif-2e" x="63.623047"/>
       <use xlink:href="#DejaVuSerif-34" x="95.410156"/>
      </g>
     </g>
    </g>
    <g id="ytick_4">
     <g id="line2d_21">
      <path d="M 43.232813 93.564218 
L 495.13375 93.564218 
" clip-path="url(#p40943fdf50)" style="fill: none; stroke: #b0b0b0; stroke-opacity: 0.25; stroke-width: 0.5; stroke-linecap: square"/>
     </g>
     <g id="line2d_22">
      <g>
       <use xlink:href="#md3b307266f" x="43.232813" y="93.564218" style="stroke: #000000; stroke-width: 0.8"/>
      </g>
     </g>
     <g id="text_11">
      <!-- 0.6 -->
      <g transform="translate(23.510313 96.603593) scale(0.08 -0.08)">
       <use xlink:href="#DejaVuSerif-30"/>
       <use xlink:href="#DejaVuSerif-2e" x="63.623047"/>
       <use xlink:href="#DejaVuSerif-36" x="95.410156"/>
      </g>
     </g>
    </g>
    <g id="ytick_5">
     <g id="line2d_23">
      <path d="M 43.232813 71.884596 
L 495.13375 71.884596 
" clip-path="url(#p40943fdf50)" style="fill: none; stroke: #b0b0b0; stroke-opacity: 0.25; stroke-width: 0.5; stroke-linecap: square"/>
     </g>
     <g id="line2d_24">
      <g>
       <use xlink:href="#md3b307266f" x="43.232813" y="71.884596" style="stroke: #000000; stroke-width: 0.8"/>
      </g>
     </g>
     <g id="text_12">
      <!-- 0.8 -->
      <g transform="translate(23.510313 74.923971) scale(0.08 -0.08)">
       <use xlink:href="#DejaVuSerif-30"/>
       <use xlink:href="#DejaVuSerif-2e" x="63.623047"/>
       <use xlink:href="#DejaVuSerif-38" x="95.410156"/>
      </g>
     </g>
    </g>
    <g id="ytick_6">
     <g id="line2d_25">
      <path d="M 43.232813 50.204975 
L 495.13375 50.204975 
" clip-path="url(#p40943fdf50)" style="fill: none; stroke: #b0b0b0; stroke-opacity: 0.25; stroke-width: 0.5; stroke-linecap: square"/>
     </g>
     <g id="line2d_26">
      <g>
       <use xlink:href="#md3b307266f" x="43.232813" y="50.204975" style="stroke: #000000; stroke-width: 0.8"/>
      </g>
     </g>
     <g id="text_13">
      <!-- 1.0 -->
      <g transform="translate(23.510313 53.24435) scale(0.08 -0.08)">
       <use xlink:href="#DejaVuSerif-31"/>
       <use xlink:href="#DejaVuSerif-2e" x="63.623047"/>
       <use xlink:href="#DejaVuSerif-30" x="95.410156"/>
      </g>
     </g>
    </g>
    <g id="ytick_7">
     <g id="line2d_27">
      <path d="M 43.232813 28.525353 
L 495.13375 28.525353 
" clip-path="url(#p40943fdf50)" style="fill: none; stroke: #b0b0b0; stroke-opacity: 0.25; stroke-width: 0.5; stroke-linecap: square"/>
     </g>
     <g id="line2d_28">
      <g>
       <use xlink:href="#md3b307266f" x="43.232813" y="28.525353" style="stroke: #000000; stroke-width: 0.8"/>
      </g>
     </g>
     <g id="text_14">
      <!-- 1.2 -->
      <g transform="translate(23.510313 31.564728) scale(0.08 -0.08)">
       <use xlink:href="#DejaVuSerif-31"/>
       <use xlink:href="#DejaVuSerif-2e" x="63.623047"/>
       <use xlink:href="#DejaVuSerif-32" x="95.410156"/>
      </g>
     </g>
    </g>
    <g id="text_15">
     <!-- $/MiB -->
     <g transform="translate(17.638594 108.60157) rotate(-90) scale(0.09 -0.09)">
      <defs>
       <path id="DejaVuSerif-24" d="M 2156 213 
Q 2509 244 2695 416 
Q 2881 588 2881 884 
Q 2881 1153 2697 1340 
Q 2513 1528 2156 1625 
L 2156 213 
z
M 1844 3709 
Q 1522 3688 1344 3523 
Q 1166 3359 1166 3084 
Q 1166 2834 1330 2668 
Q 1494 2503 1844 2400 
L 1844 3709 
z
M 550 225 
L 550 1088 
L 888 1088 
Q 900 659 1137 440 
Q 1375 222 1844 213 
L 1844 1728 
Q 1125 1928 834 2189 
Q 544 2450 544 2881 
Q 544 3381 887 3684 
Q 1231 3988 1844 4025 
L 1844 4863 
L 2156 4863 
L 2156 4025 
Q 2472 4000 2764 3923 
Q 3056 3847 3334 3719 
L 3334 2900 
L 2994 2900 
Q 2956 3263 2740 3472 
Q 2525 3681 2156 3709 
L 2156 2297 
Q 2925 2088 3233 1817 
Q 3541 1547 3541 1094 
Q 3541 575 3178 262 
Q 2816 -50 2156 -97 
L 2156 -941 
L 1844 -941 
L 1844 -97 
Q 1544 -91 1222 -11 
Q 900 69 550 225 
z
" transform="scale(0.015625)"/>
       <path id="DejaVuSerif-2f" d="M 1656 4666 
L 2156 4666 
L 500 -594 
L 0 -594 
L 1656 4666 
z
" transform="scale(0.015625)"/>
       <path id="DejaVuSerif-4d" d="M 353 0 
L 353 331 
L 947 331 
L 947 4331 
L 319 4331 
L 319 4666 
L 1678 4666 
L 3316 1344 
L 4953 4666 
L 6228 4666 
L 6228 4331 
L 5606 4331 
L 5606 331 
L 6203 331 
L 6203 0 
L 4378 0 
L 4378 331 
L 4972 331 
L 4972 3938 
L 3372 684 
L 2931 684 
L 1331 3938 
L 1331 331 
L 1925 331 
L 1925 0 
L 353 0 
z
" transform="scale(0.015625)"/>
       <path id="DejaVuSerif-69" d="M 622 4353 
Q 622 4497 726 4603 
Q 831 4709 978 4709 
Q 1122 4709 1226 4603 
Q 1331 4497 1331 4353 
Q 1331 4206 1228 4103 
Q 1125 4000 978 4000 
Q 831 4000 726 4103 
Q 622 4206 622 4353 
z
M 1356 331 
L 1900 331 
L 1900 0 
L 231 0 
L 231 331 
L 781 331 
L 781 2988 
L 231 2988 
L 231 3322 
L 1356 3322 
L 1356 331 
z
" transform="scale(0.015625)"/>
       <path id="DejaVuSerif-42" d="M 1581 331 
L 2516 331 
Q 3078 331 3337 575 
Q 3597 819 3597 1350 
Q 3597 1878 3339 2120 
Q 3081 2363 2516 2363 
L 1581 2363 
L 1581 331 
z
M 1581 2694 
L 2375 2694 
Q 2888 2694 3123 2891 
Q 3359 3088 3359 3513 
Q 3359 3941 3123 4136 
Q 2888 4331 2375 4331 
L 1581 4331 
L 1581 2694 
z
M 353 0 
L 353 331 
L 947 331 
L 947 4331 
L 353 4331 
L 353 4666 
L 2656 4666 
Q 3363 4666 3720 4377 
Q 4078 4088 4078 3513 
Q 4078 3097 3829 2850 
Q 3581 2603 3103 2547 
Q 3697 2472 4005 2167 
Q 4313 1863 4313 1350 
Q 4313 656 3875 328 
Q 3438 0 2509 0 
L 353 0 
z
" transform="scale(0.015625)"/>
      </defs>
      <use xlink:href="#DejaVuSerif-24"/>
      <use xlink:href="#DejaVuSerif-2f" x="63.623047"/>
      <use xlink:href="#DejaVuSerif-4d" x="97.314453"/>
      <use xlink:href="#DejaVuSerif-69" x="199.707031"/>
      <use xlink:href="#DejaVuSerif-42" x="231.689453"/>
     </g>
    </g>
   </g>
   <g id="PolyCollection_2">
    <defs>
     <path id="m23dd51cf24" d="M 63.773764 -48.286784 
L 63.773764 -45.693784 
L 68.33842 -45.670247 
L 72.903076 -45.632277 
L 77.467732 -45.632266 
L 82.032388 -45.71883 
L 86.597044 -45.698952 
L 91.1617 -45.642783 
L 95.726356 -45.652522 
L 100.291012 -45.67974 
L 104.855668 -45.65848 
L 109.420324 -45.657138 
L 113.984979 -45.622404 
L 118.549635 -45.60699 
L 123.114291 -45.615321 
L 127.678947 -45.606467 
L 132.243603 -46.094602 
L 136.808259 -46.695233 
L 141.372915 -46.067386 
L 145.937571 -45.843496 
L 150.502227 -45.729162 
L 155.066883 -45.71102 
L 159.631539 -45.703066 
L 164.196195 -45.69746 
L 168.760851 -45.677341 
L 173.325507 -45.683467 
L 177.890163 -45.672722 
L 182.454818 -45.666983 
L 187.019474 -45.66128 
L 191.58413 -45.67658 
L 196.148786 -45.767674 
L 200.713442 -45.747032 
L 205.278098 -45.719512 
L 209.842754 -45.705772 
L 214.40741 -45.715784 
L 218.972066 -45.720886 
L 223.536722 -45.711477 
L 228.101378 -45.707625 
L 232.666034 -45.691872 
L 237.23069 -45.684789 
L 241.795346 -45.700053 
L 246.360002 -45.709191 
L 250.924658 -45.708277 
L 255.489313 -45.703937 
L 260.053969 -45.691433 
L 264.618625 -45.614549 
L 269.183281 -45.609647 
L 273.747937 -45.607911 
L 278.312593 -45.618303 
L 282.877249 -45.625863 
L 287.441905 -45.634226 
L 292.006561 -45.633641 
L 296.571217 -45.645479 
L 301.135873 -45.663297 
L 305.700529 -45.692213 
L 310.265185 -45.673054 
L 314.829841 -45.666 
L 319.394497 -45.625028 
L 323.959152 -45.660314 
L 328.523808 -45.734033 
L 333.088464 -45.661713 
L 337.65312 -45.655011 
L 342.217776 -45.649726 
L 346.782432 -45.650921 
L 351.347088 -45.649999 
L 355.911744 -45.661928 
L 360.4764 -45.645622 
L 365.041056 -45.632603 
L 369.605712 -45.609083 
L 374.170368 -45.575525 
L 378.735024 -45.570142 
L 383.29968 -45.564114 
L 387.864336 -45.55429 
L 392.428991 -45.547737 
L 396.993647 -45.54508 
L 401.558303 -45.532818 
L 406.122959 -45.510132 
L 410.687615 -45.504676 
L 415.252271 -45.484406 
L 419.816927 -45.476019 
L 424.381583 -45.474525 
L 428.946239 -45.465852 
L 433.510895 -45.435847 
L 438.075551 -45.386447 
L 442.640207 -45.403996 
L 447.204863 -45.403623 
L 451.769519 -45.388755 
L 456.334175 -45.378798 
L 460.89883 -45.3719 
L 465.463486 -45.380513 
L 470.028142 -45.381549 
L 474.592798 -45.384108 
L 474.592798 -48.52661 
L 474.592798 -48.52661 
L 470.028142 -48.302707 
L 465.463486 -48.427436 
L 460.89883 -48.393134 
L 456.334175 -48.138774 
L 451.769519 -48.09951 
L 447.204863 -45.537044 
L 442.640207 -48.511542 
L 438.075551 -48.326835 
L 433.510895 -46.882588 
L 428.946239 -48.684596 
L 424.381583 -49.16962 
L 419.816927 -49.106844 
L 415.252271 -49.229265 
L 410.687615 -49.481952 
L 406.122959 -49.562445 
L 401.558303 -45.631325 
L 396.993647 -45.62153 
L 392.428991 -45.619516 
L 387.864336 -45.638247 
L 383.29968 -45.627517 
L 378.735024 -45.659013 
L 374.170368 -45.666601 
L 369.605712 -45.709783 
L 365.041056 -45.739898 
L 360.4764 -45.741904 
L 355.911744 -45.745218 
L 351.347088 -45.749253 
L 346.782432 -45.752976 
L 342.217776 -45.751399 
L 337.65312 -45.754528 
L 333.088464 -45.752808 
L 328.523808 -45.769436 
L 323.959152 -45.934038 
L 319.394497 -45.845155 
L 314.829841 -45.942905 
L 310.265185 -45.795652 
L 305.700529 -45.828473 
L 301.135873 -45.83062 
L 296.571217 -45.8262 
L 292.006561 -45.777209 
L 287.441905 -45.77717 
L 282.877249 -45.760078 
L 278.312593 -45.756488 
L 273.747937 -45.724436 
L 269.183281 -45.736865 
L 264.618625 -45.743481 
L 260.053969 -47.342792 
L 255.489313 -47.715462 
L 250.924658 -48.442777 
L 246.360002 -47.406992 
L 241.795346 -47.079388 
L 237.23069 -46.774834 
L 232.666034 -46.217347 
L 228.101378 -46.136135 
L 223.536722 -45.908452 
L 218.972066 -46.026085 
L 214.40741 -46.017056 
L 209.842754 -46.005777 
L 205.278098 -46.054066 
L 200.713442 -46.055527 
L 196.148786 -46.085922 
L 191.58413 -46.856243 
L 187.019474 -45.923214 
L 182.454818 -45.686572 
L 177.890163 -45.673026 
L 173.325507 -45.683768 
L 168.760851 -45.677652 
L 164.196195 -45.697762 
L 159.631539 -45.703368 
L 155.066883 -45.711318 
L 150.502227 -45.729364 
L 145.937571 -46.159111 
L 141.372915 -161.810152 
L 136.808259 -158.379914 
L 132.243603 -105.263365 
L 127.678947 -46.240076 
L 123.114291 -46.207321 
L 118.549635 -46.097146 
L 113.984979 -46.185666 
L 109.420324 -46.266987 
L 104.855668 -46.244948 
L 100.291012 -46.337773 
L 95.726356 -46.26447 
L 91.1617 -46.263263 
L 86.597044 -46.350512 
L 82.032388 -46.322898 
L 77.467732 -46.178482 
L 72.903076 -46.177174 
L 68.33842 -46.222973 
L 63.773764 -48.286784 
z
" style="stroke: #6497b1; stroke-opacity: 0.3"/>
    </defs>
    <g clip-path="url(#p40943fdf50)">
     <use xlink:href="#m23dd51cf24" x="0" y="203.613966" style="fill: #6497b1; fill-opacity: 0.3; stroke: #6497b1; stroke-opacity: 0.3"/>
    </g>
   </g>
   <g id="patch_3">
    <path d="M 43.232813 164.579389 
L 43.232813 25.158281 
" style="fill: none; stroke: #000000; stroke-width: 0.6; stroke-linejoin: miter; stroke-linecap: square"/>
   </g>
   <g id="patch_4">
    <path d="M 43.232813 164.579389 
L 495.13375 164.579389 
" style="fill: none; stroke: #000000; stroke-width: 0.6; stroke-linejoin: miter; stroke-linecap: square"/>
   </g>
   <g id="line2d_29">
    <path d="M 63.773764 155.327182 
L 68.33842 157.390993 
L 72.903076 157.436792 
L 77.467732 157.435484 
L 82.032388 157.291068 
L 86.597044 157.263454 
L 91.1617 157.350703 
L 95.726356 157.349496 
L 100.291012 157.276193 
L 104.855668 157.369019 
L 109.420324 157.34698 
L 113.984979 157.4283 
L 118.549635 157.51682 
L 123.114291 157.406645 
L 127.678947 157.37389 
L 132.243603 98.350601 
L 136.808259 45.234053 
L 141.372915 41.803814 
L 145.937571 157.454856 
L 150.502227 157.884602 
L 155.066883 157.902648 
L 159.631539 157.910598 
L 164.196195 157.916204 
L 168.760851 157.936315 
L 173.325507 157.930198 
L 177.890163 157.94094 
L 182.454818 157.927394 
L 187.019474 157.690752 
L 191.58413 156.757723 
L 196.148786 157.528045 
L 200.713442 157.558439 
L 205.278098 157.5599 
L 209.842754 157.608189 
L 214.40741 157.59691 
L 218.972066 157.587881 
L 223.536722 157.705514 
L 228.101378 157.477831 
L 232.666034 157.396619 
L 237.23069 156.839132 
L 241.795346 156.534578 
L 246.360002 156.206974 
L 250.924658 155.171189 
L 255.489313 155.898504 
L 260.053969 156.271174 
L 264.618625 157.870485 
L 269.183281 157.877102 
L 273.747937 157.88953 
L 278.312593 157.857478 
L 282.877249 157.853888 
L 287.441905 157.836796 
L 292.006561 157.836757 
L 296.571217 157.787766 
L 301.135873 157.783346 
L 305.700529 157.785493 
L 310.265185 157.818314 
L 314.829841 157.671061 
L 319.394497 157.768811 
L 323.959152 157.679928 
L 328.523808 157.84453 
L 333.088464 157.861158 
L 337.65312 157.859438 
L 342.217776 157.862567 
L 346.782432 157.86099 
L 351.347088 157.864713 
L 355.911744 157.868748 
L 360.4764 157.872062 
L 365.041056 157.874068 
L 369.605712 157.904183 
L 374.170368 157.947365 
L 378.735024 157.954953 
L 383.29968 157.986449 
L 387.864336 157.975719 
L 392.428991 157.99445 
L 396.993647 157.992436 
L 401.558303 157.982641 
L 406.122959 154.051521 
L 410.687615 154.132014 
L 415.252271 154.384701 
L 419.816927 154.507122 
L 424.381583 154.444347 
L 428.946239 154.92937 
L 433.510895 156.731378 
L 438.075551 155.287131 
L 442.640207 155.102424 
L 447.204863 158.076922 
L 451.769519 155.514456 
L 456.334175 155.475192 
L 460.89883 155.220833 
L 465.463486 155.18653 
L 470.028142 155.31126 
L 474.592798 155.087356 
" clip-path="url(#p40943fdf50)" style="fill: none; stroke: #6497b1; stroke-linecap: square"/>
   </g>
   <g id="text_16">
    <!-- Avail — Cost per MiB (USD) — Quantile Bands -->
    <g transform="translate(138.985391 19.158281) scale(0.11 -0.11)">
     <defs>
      <path id="DejaVuSerif-41" d="M 1281 1691 
L 2994 1691 
L 2138 3909 
L 1281 1691 
z
M -38 0 
L -38 331 
L 372 331 
L 2034 4666 
L 2559 4666 
L 4225 331 
L 4684 331 
L 4684 0 
L 2988 0 
L 2988 331 
L 3506 331 
L 3116 1356 
L 1153 1356 
L 763 331 
L 1275 331 
L 1275 0 
L -38 0 
z
" transform="scale(0.015625)"/>
      <path id="DejaVuSerif-6c" d="M 1313 331 
L 1856 331 
L 1856 0 
L 184 0 
L 184 331 
L 738 331 
L 738 4531 
L 184 4531 
L 184 4863 
L 1313 4863 
L 1313 331 
z
" transform="scale(0.015625)"/>
      <path id="DejaVuSerif-2014" d="M 281 1906 
L 6119 1906 
L 6119 1491 
L 281 1491 
L 281 1906 
z
" transform="scale(0.015625)"/>
      <path id="DejaVuSerif-43" d="M 4513 1234 
Q 4306 581 3820 245 
Q 3334 -91 2591 -91 
Q 2134 -91 1743 65 
Q 1353 222 1050 525 
Q 700 875 529 1320 
Q 359 1766 359 2328 
Q 359 3416 987 4083 
Q 1616 4750 2644 4750 
Q 3025 4750 3456 4650 
Q 3888 4550 4384 4347 
L 4384 3272 
L 4031 3272 
Q 3916 3859 3567 4137 
Q 3219 4416 2591 4416 
Q 1844 4416 1459 3886 
Q 1075 3356 1075 2328 
Q 1075 1303 1459 773 
Q 1844 244 2591 244 
Q 3113 244 3450 492 
Q 3788 741 3938 1234 
L 4513 1234 
z
" transform="scale(0.015625)"/>
      <path id="DejaVuSerif-73" d="M 359 184 
L 359 959 
L 691 959 
Q 703 588 923 403 
Q 1144 219 1575 219 
Q 1963 219 2166 364 
Q 2369 509 2369 788 
Q 2369 1006 2220 1140 
Q 2072 1275 1594 1428 
L 1178 1569 
Q 750 1706 558 1912 
Q 366 2119 366 2438 
Q 366 2894 700 3153 
Q 1034 3413 1625 3413 
Q 1888 3413 2178 3344 
Q 2469 3275 2778 3144 
L 2778 2419 
L 2447 2419 
Q 2434 2741 2221 2922 
Q 2009 3103 1644 3103 
Q 1281 3103 1095 2975 
Q 909 2847 909 2591 
Q 909 2381 1050 2254 
Q 1191 2128 1613 1997 
L 2069 1856 
Q 2541 1709 2748 1489 
Q 2956 1269 2956 922 
Q 2956 450 2595 179 
Q 2234 -91 1600 -91 
Q 1278 -91 972 -22 
Q 666 47 359 184 
z
" transform="scale(0.015625)"/>
      <path id="DejaVuSerif-74" d="M 691 2988 
L 184 2988 
L 184 3322 
L 691 3322 
L 691 4353 
L 1269 4353 
L 1269 3322 
L 2350 3322 
L 2350 2988 
L 1269 2988 
L 1269 878 
Q 1269 456 1350 337 
Q 1431 219 1650 219 
Q 1875 219 1978 351 
Q 2081 484 2088 781 
L 2522 781 
Q 2497 328 2275 118 
Q 2053 -91 1600 -91 
Q 1103 -91 897 129 
Q 691 350 691 878 
L 691 2988 
z
" transform="scale(0.015625)"/>
      <path id="DejaVuSerif-70" d="M 1313 1825 
L 1313 1497 
Q 1313 897 1542 583 
Q 1772 269 2209 269 
Q 2650 269 2876 622 
Q 3103 975 3103 1663 
Q 3103 2353 2876 2703 
Q 2650 3053 2209 3053 
Q 1772 3053 1542 2737 
Q 1313 2422 1313 1825 
z
M 738 2988 
L 184 2988 
L 184 3322 
L 1313 3322 
L 1313 2803 
Q 1481 3116 1742 3264 
Q 2003 3413 2388 3413 
Q 3000 3413 3387 2928 
Q 3775 2444 3775 1663 
Q 3775 881 3387 395 
Q 3000 -91 2388 -91 
Q 2003 -91 1742 57 
Q 1481 206 1313 519 
L 1313 -997 
L 1856 -997 
L 1856 -1331 
L 184 -1331 
L 184 -997 
L 738 -997 
L 738 2988 
z
" transform="scale(0.015625)"/>
      <path id="DejaVuSerif-72" d="M 3059 3328 
L 3059 2497 
L 2728 2497 
Q 2713 2744 2591 2866 
Q 2469 2988 2234 2988 
Q 1809 2988 1582 2694 
Q 1356 2400 1356 1850 
L 1356 331 
L 2022 331 
L 2022 0 
L 263 0 
L 263 331 
L 781 331 
L 781 2994 
L 231 2994 
L 231 3322 
L 1356 3322 
L 1356 2731 
Q 1525 3078 1790 3245 
Q 2056 3413 2438 3413 
Q 2578 3413 2733 3391 
Q 2888 3369 3059 3328 
z
" transform="scale(0.015625)"/>
      <path id="DejaVuSerif-28" d="M 2041 -997 
Q 1281 -656 893 83 
Q 506 822 506 1931 
Q 506 3044 893 3783 
Q 1281 4522 2041 4863 
L 2041 4556 
Q 1559 4225 1350 3623 
Q 1141 3022 1141 1931 
Q 1141 844 1350 242 
Q 1559 -359 2041 -691 
L 2041 -997 
z
" transform="scale(0.015625)"/>
      <path id="DejaVuSerif-55" d="M 897 4331 
L 300 4331 
L 300 4666 
L 2125 4666 
L 2125 4331 
L 1528 4331 
L 1528 1919 
Q 1528 1025 1820 672 
Q 2113 319 2828 319 
Q 3544 319 3836 672 
Q 4128 1025 4128 1919 
L 4128 4331 
L 3531 4331 
L 3531 4666 
L 5106 4666 
L 5106 4331 
L 4513 4331 
L 4513 1856 
Q 4513 791 4103 350 
Q 3694 -91 2713 -91 
Q 1731 -91 1314 353 
Q 897 797 897 1856 
L 897 4331 
z
" transform="scale(0.015625)"/>
      <path id="DejaVuSerif-53" d="M 594 225 
L 594 1288 
L 953 1284 
Q 969 753 1261 498 
Q 1553 244 2150 244 
Q 2706 244 2998 464 
Q 3291 684 3291 1106 
Q 3291 1444 3114 1625 
Q 2938 1806 2369 1978 
L 1753 2163 
Q 1084 2366 811 2669 
Q 538 2972 538 3500 
Q 538 4094 959 4422 
Q 1381 4750 2144 4750 
Q 2469 4750 2856 4679 
Q 3244 4609 3681 4475 
L 3681 3481 
L 3328 3481 
Q 3275 3975 2998 4195 
Q 2722 4416 2156 4416 
Q 1663 4416 1405 4214 
Q 1147 4013 1147 3628 
Q 1147 3294 1340 3103 
Q 1534 2913 2163 2725 
L 2741 2553 
Q 3375 2363 3645 2067 
Q 3916 1772 3916 1275 
Q 3916 597 3481 253 
Q 3047 -91 2188 -91 
Q 1803 -91 1404 -12 
Q 1006 66 594 225 
z
" transform="scale(0.015625)"/>
      <path id="DejaVuSerif-29" d="M 453 -997 
L 453 -691 
Q 934 -359 1145 242 
Q 1356 844 1356 1931 
Q 1356 3022 1145 3623 
Q 934 4225 453 4556 
L 453 4863 
Q 1216 4522 1603 3783 
Q 1991 3044 1991 1931 
Q 1991 822 1603 83 
Q 1216 -656 453 -997 
z
" transform="scale(0.015625)"/>
      <path id="DejaVuSerif-51" d="M 2700 -91 
Q 1628 -91 993 567 
Q 359 1225 359 2328 
Q 359 2894 529 3339 
Q 700 3784 1050 4134 
Q 1356 4441 1750 4595 
Q 2144 4750 2625 4750 
Q 3641 4750 4266 4084 
Q 4891 3419 4891 2328 
Q 4891 1403 4422 773 
Q 3953 144 3128 -38 
Q 3297 -247 3539 -347 
Q 3781 -447 4122 -447 
L 4219 -447 
L 4219 -1025 
Q 3691 -1000 3314 -767 
Q 2938 -534 2700 -91 
z
M 2625 244 
Q 3391 244 3781 770 
Q 4172 1297 4172 2328 
Q 4172 3363 3781 3889 
Q 3391 4416 2625 4416 
Q 1856 4416 1465 3889 
Q 1075 3363 1075 2328 
Q 1075 1297 1465 770 
Q 1856 244 2625 244 
z
" transform="scale(0.015625)"/>
      <path id="DejaVuSerif-75" d="M 2266 3322 
L 3341 3322 
L 3341 331 
L 3884 331 
L 3884 0 
L 2766 0 
L 2766 588 
Q 2606 256 2353 82 
Q 2100 -91 1766 -91 
Q 1213 -91 952 223 
Q 691 538 691 1209 
L 691 2988 
L 172 2988 
L 172 3322 
L 1269 3322 
L 1269 1388 
Q 1269 781 1417 556 
Q 1566 331 1947 331 
Q 2347 331 2556 625 
Q 2766 919 2766 1478 
L 2766 2988 
L 2266 2988 
L 2266 3322 
z
" transform="scale(0.015625)"/>
      <path id="DejaVuSerif-64" d="M 3359 331 
L 3909 331 
L 3909 0 
L 2784 0 
L 2784 519 
Q 2616 206 2355 57 
Q 2094 -91 1709 -91 
Q 1097 -91 708 395 
Q 319 881 319 1663 
Q 319 2444 706 2928 
Q 1094 3413 1709 3413 
Q 2094 3413 2355 3264 
Q 2616 3116 2784 2803 
L 2784 4531 
L 2241 4531 
L 2241 4863 
L 3359 4863 
L 3359 331 
z
M 2784 1497 
L 2784 1825 
Q 2784 2422 2554 2737 
Q 2325 3053 1888 3053 
Q 1444 3053 1217 2703 
Q 991 2353 991 1663 
Q 991 975 1217 622 
Q 1444 269 1888 269 
Q 2325 269 2554 583 
Q 2784 897 2784 1497 
z
" transform="scale(0.015625)"/>
     </defs>
     <use xlink:href="#DejaVuSerif-41"/>
     <use xlink:href="#DejaVuSerif-76" x="68.216797"/>
     <use xlink:href="#DejaVuSerif-61" x="124.710938"/>
     <use xlink:href="#DejaVuSerif-69" x="184.330078"/>
     <use xlink:href="#DejaVuSerif-6c" x="216.3125"/>
     <use xlink:href="#DejaVuSerif-20" x="248.294922"/>
     <use xlink:href="#DejaVuSerif-2014" x="280.082031"/>
     <use xlink:href="#DejaVuSerif-20" x="380.082031"/>
     <use xlink:href="#DejaVuSerif-43" x="411.869141"/>
     <use xlink:href="#DejaVuSerif-6f" x="488.382812"/>
     <use xlink:href="#DejaVuSerif-73" x="548.587891"/>
     <use xlink:href="#DejaVuSerif-74" x="599.90625"/>
     <use xlink:href="#DejaVuSerif-20" x="640.091797"/>
     <use xlink:href="#DejaVuSerif-70" x="671.878906"/>
     <use xlink:href="#DejaVuSerif-65" x="735.892578"/>
     <use xlink:href="#DejaVuSerif-72" x="795.072266"/>
     <use xlink:href="#DejaVuSerif-20" x="842.875"/>
     <use xlink:href="#DejaVuSerif-4d" x="874.662109"/>
     <use xlink:href="#DejaVuSerif-69" x="977.054688"/>
     <use xlink:href="#DejaVuSerif-42" x="1009.037109"/>
     <use xlink:href="#DejaVuSerif-20" x="1082.523438"/>
     <use xlink:href="#DejaVuSerif-28" x="1114.310547"/>
     <use xlink:href="#DejaVuSerif-55" x="1153.324219"/>
     <use xlink:href="#DejaVuSerif-53" x="1237.601562"/>
     <use xlink:href="#DejaVuSerif-44" x="1306.107422"/>
     <use xlink:href="#DejaVuSerif-29" x="1386.283203"/>
     <use xlink:href="#DejaVuSerif-20" x="1425.296875"/>
     <use xlink:href="#DejaVuSerif-2014" x="1457.083984"/>
     <use xlink:href="#DejaVuSerif-20" x="1557.083984"/>
     <use xlink:href="#DejaVuSerif-51" x="1588.871094"/>
     <use xlink:href="#DejaVuSerif-75" x="1670.853516"/>
     <use xlink:href="#DejaVuSerif-61" x="1735.257812"/>
     <use xlink:href="#DejaVuSerif-6e" x="1794.876953"/>
     <use xlink:href="#DejaVuSerif-74" x="1859.28125"/>
     <use xlink:href="#DejaVuSerif-69" x="1899.466797"/>
     <use xlink:href="#DejaVuSerif-6c" x="1931.449219"/>
     <use xlink:href="#DejaVuSerif-65" x="1963.431641"/>
     <use xlink:href="#DejaVuSerif-20" x="2022.611328"/>
     <use xlink:href="#DejaVuSerif-42" x="2054.398438"/>
     <use xlink:href="#DejaVuSerif-61" x="2127.884766"/>
     <use xlink:href="#DejaVuSerif-6e" x="2187.503906"/>
     <use xlink:href="#DejaVuSerif-64" x="2251.908203"/>
     <use xlink:href="#DejaVuSerif-73" x="2315.921875"/>
    </g>
   </g>
   <g id="line2d_30">
    <path d="M 63.773764 157.641627 
L 68.33842 157.624358 
L 72.903076 157.650314 
L 77.467732 157.673217 
L 82.032388 157.656094 
L 86.597044 157.643854 
L 91.1617 157.651232 
L 95.726356 157.654502 
L 100.291012 157.6524 
L 104.855668 157.643291 
L 109.420324 157.636195 
L 113.984979 157.6567 
L 118.549635 157.674092 
L 123.114291 157.676351 
L 127.678947 157.671198 
L 132.243603 157.39916 
L 136.808259 157.127019 
L 141.372915 156.863782 
L 145.937571 156.840636 
L 150.502227 156.857005 
L 155.066883 156.876515 
L 159.631539 156.909094 
L 164.196195 157.21983 
L 168.760851 157.525154 
L 173.325507 157.812678 
L 177.890163 157.857056 
L 182.454818 157.859407 
L 187.019474 157.85117 
L 191.58413 157.833572 
L 196.148786 157.804511 
L 200.713442 157.778014 
L 205.278098 157.758077 
L 209.842754 157.738894 
L 214.40741 157.724532 
L 218.972066 157.710546 
L 223.536722 157.710375 
L 228.101378 157.722487 
L 232.666034 157.735863 
L 237.23069 157.743273 
L 241.795346 157.742395 
L 246.360002 157.743474 
L 250.924658 157.752617 
L 255.489313 157.748438 
L 260.053969 157.752232 
L 264.618625 157.766516 
L 269.183281 157.781197 
L 273.747937 157.801384 
L 278.312593 157.816979 
L 282.877249 157.829384 
L 287.441905 157.848883 
L 292.006561 157.85808 
L 296.571217 157.84486 
L 301.135873 157.83386 
L 305.700529 157.822582 
L 310.265185 157.820323 
L 314.829841 157.810749 
L 319.394497 157.804537 
L 323.959152 157.806638 
L 328.523808 157.814527 
L 333.088464 157.820903 
L 337.65312 157.828111 
L 342.217776 157.830454 
L 346.782432 157.841064 
L 351.347088 157.848728 
L 355.911744 157.849839 
L 360.4764 157.853494 
L 365.041056 157.856835 
L 369.605712 157.86391 
L 374.170368 157.874339 
L 378.735024 157.885976 
L 383.29968 157.898996 
L 387.864336 157.914839 
L 392.428991 157.931977 
L 396.993647 157.946463 
L 401.558303 157.957894 
L 406.122959 157.94385 
L 410.687615 157.935378 
L 415.252271 157.929459 
L 419.816927 157.916607 
L 424.381583 157.899388 
L 428.946239 157.880205 
L 433.510895 157.885484 
L 438.075551 157.911026 
L 442.640207 157.921078 
L 447.204863 157.949317 
L 451.769519 157.968499 
L 456.334175 157.994228 
L 460.89883 158.008448 
L 465.463486 157.996826 
L 470.028142 157.986191 
L 474.592798 157.982595 
" clip-path="url(#p40943fdf50)" style="fill: none; stroke: #cc3333; stroke-width: 1.5; stroke-linecap: square"/>
   </g>
   <g id="legend_1">
    <g id="patch_5">
     <path d="M 429.33125 66.899531 
L 489.53375 66.899531 
Q 491.13375 66.899531 491.13375 65.299531 
L 491.13375 30.758281 
Q 491.13375 29.158281 489.53375 29.158281 
L 429.33125 29.158281 
Q 427.73125 29.158281 427.73125 30.758281 
L 427.73125 65.299531 
Q 427.73125 66.899531 429.33125 66.899531 
z
" style="fill: #ffffff; opacity: 0.9; stroke: #cccccc; stroke-linejoin: miter"/>
    </g>
    <g id="patch_6">
     <path d="M 430.93125 38.437031 
L 446.93125 38.437031 
L 446.93125 32.837031 
L 430.93125 32.837031 
z
" style="fill: #b3cde3; fill-opacity: 0.4; stroke: #b3cde3; stroke-opacity: 0.4; stroke-linejoin: miter"/>
    </g>
    <g id="text_17">
     <!-- p10–p90 -->
     <g transform="translate(453.33125 38.437031) scale(0.08 -0.08)">
      <defs>
       <path id="DejaVuSerif-2013" d="M 281 1906 
L 2919 1906 
L 2919 1491 
L 281 1491 
L 281 1906 
z
" transform="scale(0.015625)"/>
       <path id="DejaVuSerif-39" d="M 2994 2091 
Q 2784 1856 2512 1740 
Q 2241 1625 1900 1625 
Q 1206 1625 804 2044 
Q 403 2463 403 3188 
Q 403 3897 839 4323 
Q 1275 4750 2003 4750 
Q 2794 4750 3217 4161 
Q 3641 3572 3641 2478 
Q 3641 1253 3137 581 
Q 2634 -91 1722 -91 
Q 1475 -91 1203 -44 
Q 931 3 647 97 
L 647 872 
L 997 872 
Q 1038 556 1241 387 
Q 1444 219 1784 219 
Q 2391 219 2687 676 
Q 2984 1134 2994 2091 
z
M 1978 4441 
Q 1534 4441 1298 4117 
Q 1063 3794 1063 3188 
Q 1063 2581 1298 2256 
Q 1534 1931 1978 1931 
Q 2422 1931 2658 2245 
Q 2894 2559 2894 3150 
Q 2894 3772 2656 4106 
Q 2419 4441 1978 4441 
z
" transform="scale(0.015625)"/>
      </defs>
      <use xlink:href="#DejaVuSerif-70"/>
      <use xlink:href="#DejaVuSerif-31" x="64.013672"/>
      <use xlink:href="#DejaVuSerif-30" x="127.636719"/>
      <use xlink:href="#DejaVuSerif-2013" x="191.259766"/>
      <use xlink:href="#DejaVuSerif-70" x="241.259766"/>
      <use xlink:href="#DejaVuSerif-39" x="305.273438"/>
      <use xlink:href="#DejaVuSerif-30" x="368.896484"/>
     </g>
    </g>
    <g id="line2d_31">
     <path d="M 430.93125 47.379531 
L 438.93125 47.379531 
L 446.93125 47.379531 
" style="fill: none; stroke: #6497b1; stroke-linecap: square"/>
    </g>
    <g id="text_18">
     <!-- p50 -->
     <g transform="translate(453.33125 50.179531) scale(0.08 -0.08)">
      <defs>
       <path id="DejaVuSerif-35" d="M 3219 4666 
L 3219 4153 
L 1081 4153 
L 1081 2816 
Q 1244 2928 1461 2984 
Q 1678 3041 1947 3041 
Q 2703 3041 3140 2622 
Q 3578 2203 3578 1478 
Q 3578 738 3136 323 
Q 2694 -91 1894 -91 
Q 1572 -91 1234 -12 
Q 897 66 544 225 
L 544 1131 
L 897 1131 
Q 925 688 1179 453 
Q 1434 219 1894 219 
Q 2388 219 2653 544 
Q 2919 869 2919 1478 
Q 2919 2084 2655 2407 
Q 2391 2731 1894 2731 
Q 1613 2731 1398 2631 
Q 1184 2531 1019 2322 
L 750 2322 
L 750 4666 
L 3219 4666 
z
" transform="scale(0.015625)"/>
      </defs>
      <use xlink:href="#DejaVuSerif-70"/>
      <use xlink:href="#DejaVuSerif-35" x="64.013672"/>
      <use xlink:href="#DejaVuSerif-30" x="127.636719"/>
     </g>
    </g>
    <g id="line2d_32">
     <path d="M 430.93125 59.122031 
L 438.93125 59.122031 
L 446.93125 59.122031 
" style="fill: none; stroke: #cc3333; stroke-width: 1.5; stroke-linecap: square"/>
    </g>
    <g id="text_19">
     <!-- 7d avg -->
     <g transform="translate(453.33125 61.922031) scale(0.08 -0.08)">
      <defs>
       <path id="DejaVuSerif-67" d="M 3359 2988 
L 3359 72 
Q 3359 -644 2965 -1033 
Q 2572 -1422 1844 -1422 
Q 1516 -1422 1216 -1362 
Q 916 -1303 641 -1184 
L 641 -488 
L 941 -488 
Q 997 -813 1206 -963 
Q 1416 -1113 1806 -1113 
Q 2313 -1113 2548 -827 
Q 2784 -541 2784 72 
L 2784 519 
Q 2616 206 2355 57 
Q 2094 -91 1709 -91 
Q 1097 -91 708 395 
Q 319 881 319 1663 
Q 319 2444 706 2928 
Q 1094 3413 1709 3413 
Q 2094 3413 2355 3264 
Q 2616 3116 2784 2803 
L 2784 3322 
L 3909 3322 
L 3909 2988 
L 3359 2988 
z
M 2784 1825 
Q 2784 2422 2554 2737 
Q 2325 3053 1888 3053 
Q 1444 3053 1217 2703 
Q 991 2353 991 1663 
Q 991 975 1217 622 
Q 1444 269 1888 269 
Q 2325 269 2554 583 
Q 2784 897 2784 1497 
L 2784 1825 
z
" transform="scale(0.015625)"/>
      </defs>
      <use xlink:href="#DejaVuSerif-37"/>
      <use xlink:href="#DejaVuSerif-64" x="63.623047"/>
      <use xlink:href="#DejaVuSerif-20" x="127.636719"/>
      <use xlink:href="#DejaVuSerif-61" x="159.423828"/>
      <use xlink:href="#DejaVuSerif-76" x="219.042969"/>
      <use xlink:href="#DejaVuSerif-67" x="275.537109"/>
     </g>
    </g>
   </g>
  </g>
 </g>
 <defs>
  <clipPath id="p40943fdf50">
   <rect x="43.232813" y="25.158281" width="451.900937" height="139.421108"/>
  </clipPath>
 </defs>
</svg>
