<?xml version="1.0" encoding="utf-8" standalone="no"?>
<!DOCTYPE svg PUBLIC "-//W3C//DTD SVG 1.1//EN"
  "http://www.w3.org/Graphics/SVG/1.1/DTD/svg11.dtd">
<svg xmlns:xlink="http://www.w3.org/1999/xlink" width="506.487813pt" height="203.150187pt" viewBox="0 0 506.487813 203.150187" xmlns="http://www.w3.org/2000/svg" version="1.1">
 <metadata>
  <rdf:RDF xmlns:dc="http://purl.org/dc/elements/1.1/" xmlns:cc="http://creativecommons.org/ns#" xmlns:rdf="http://www.w3.org/1999/02/22-rdf-syntax-ns#">
   <cc:Work>
    <dc:type rdf:resource="http://purl.org/dc/dcmitype/StillImage"/>
    <dc:date>2026-02-16T16:57:27.571681</dc:date>
    <dc:format>image/svg+xml</dc:format>
    <dc:creator>
     <cc:Agent>
      <dc:title>Matplotlib v3.10.8, https://matplotlib.org/</dc:title>
     </cc:Agent>
    </dc:creator>
   </cc:Work>
  </rdf:RDF>
 </metadata>
 <defs>
  <style type="text/css">*{stroke-linejoin: round; stroke-linecap: butt}</style>
 </defs>
 <g id="figure_1">
  <g id="patch_1">
   <path d="M 0 203.150187 
L 506.487813 203.150187 
L 506.487813 0 
L 0 0 
z
" style="fill: #ffffff"/>
  </g>
  <g id="axes_1">
   <g id="patch_2">
    <path d="M 43.232813 164.11561 
L 495.687813 164.11561 
L 495.687813 25.158281 
L 43.232813 25.158281 
z
" style="fill: #ffffff"/>
   </g>
   <g id="FillBetweenPolyCollection_1">
    <defs>
     <path id="mcd6aa9f5ee" d="M 63.798949 -54.161547 
L 63.798949 -45.671632 
L 68.369201 -45.648174 
L 72.939454 -45.61033 
L 77.509706 -45.610319 
L 82.079959 -45.696595 
L 86.650211 -45.676783 
L 91.220464 -45.620801 
L 95.790717 -45.630508 
L 100.360969 -45.657636 
L 104.931222 -45.636446 
L 109.501474 -45.635108 
L 114.071727 -45.60049 
L 118.641979 -45.585128 
L 123.212232 -45.59343 
L 127.782484 -45.584606 
L 132.352737 -46.071117 
L 136.922989 -46.66975 
L 141.493242 -46.043991 
L 146.063494 -45.820846 
L 150.633747 -45.706893 
L 155.203999 -45.688811 
L 159.774252 -45.680884 
L 164.344504 -45.675296 
L 168.914757 -45.655244 
L 173.485009 -45.66135 
L 178.055262 -45.650641 
L 182.625515 -45.64492 
L 187.195767 -45.639237 
L 191.76602 -45.654485 
L 196.336272 -45.745276 
L 200.906525 -45.724703 
L 205.476777 -45.697275 
L 210.04703 -45.683581 
L 214.617282 -45.693559 
L 219.187535 -45.698645 
L 223.757787 -45.689266 
L 228.32804 -45.685427 
L 232.898292 -45.669726 
L 237.468545 -45.662667 
L 242.038797 -45.677881 
L 246.60905 -45.686988 
L 251.179302 -45.686077 
L 255.749555 -45.681752 
L 260.319807 -45.669289 
L 264.89006 -45.592661 
L 269.460313 -45.587775 
L 274.030565 -45.586045 
L 278.600818 -45.596402 
L 283.17107 -45.603937 
L 287.741323 -45.612273 
L 292.311575 -45.611689 
L 296.881828 -45.623488 
L 301.45208 -45.641246 
L 306.022333 -45.670066 
L 310.592585 -45.650972 
L 315.162838 -45.643941 
L 319.73309 -45.603105 
L 324.303343 -45.638274 
L 328.873595 -45.711748 
L 333.443848 -45.639668 
L 338.0141 -45.632989 
L 342.584353 -45.627721 
L 347.154605 -45.628912 
L 351.724858 -45.627993 
L 356.29511 -45.639882 
L 360.865363 -45.62363 
L 365.435616 -45.610655 
L 370.005868 -45.587213 
L 374.576121 -45.553767 
L 379.146373 -45.548401 
L 383.716626 -45.542394 
L 388.286878 -45.532602 
L 392.857131 -45.526071 
L 397.427383 -45.523423 
L 401.997636 -45.511201 
L 406.567888 -45.488592 
L 411.138141 -45.483153 
L 415.708393 -45.462951 
L 420.278646 -45.454591 
L 424.848898 -45.453102 
L 429.419151 -45.444458 
L 433.989403 -45.414553 
L 438.559656 -45.365318 
L 443.129908 -45.382809 
L 447.700161 -45.382436 
L 452.270414 -45.367618 
L 456.840666 -45.357694 
L 461.410919 -45.350819 
L 465.981171 -45.359404 
L 470.551424 -45.360436 
L 475.121676 -45.362986 
L 475.121676 -48.724135 
L 475.121676 -48.724135 
L 470.551424 -48.575492 
L 465.981171 -48.573746 
L 461.410919 -48.508557 
L 456.840666 -48.559317 
L 452.270414 -48.646496 
L 447.700161 -53.144169 
L 443.129908 -48.759622 
L 438.559656 -48.607098 
L 433.989403 -49.015415 
L 429.419151 -49.268937 
L 424.848898 -49.409077 
L 420.278646 -49.456346 
L 415.708393 -49.549338 
L 411.138141 -53.37309 
L 406.567888 -53.704448 
L 401.997636 -59.416225 
L 397.427383 -51.810786 
L 392.857131 -53.008539 
L 388.286878 -52.242848 
L 383.716626 -49.651404 
L 379.146373 -54.217448 
L 374.576121 -77.725528 
L 370.005868 -78.913726 
L 365.435616 -50.304637 
L 360.865363 -49.086465 
L 356.29511 -49.539314 
L 351.724858 -48.940954 
L 347.154605 -49.862045 
L 342.584353 -50.402993 
L 338.0141 -47.732613 
L 333.443848 -48.410696 
L 328.873595 -46.02326 
L 324.303343 -48.630501 
L 319.73309 -49.155995 
L 315.162838 -50.615502 
L 310.592585 -49.363018 
L 306.022333 -52.493932 
L 301.45208 -53.090964 
L 296.881828 -52.746919 
L 292.311575 -52.762238 
L 287.741323 -52.448197 
L 283.17107 -52.570237 
L 278.600818 -52.437081 
L 274.030565 -52.499688 
L 269.460313 -52.367283 
L 264.89006 -51.408259 
L 260.319807 -160.319078 
L 255.749555 -162.310783 
L 251.179302 -162.931015 
L 246.60905 -162.992152 
L 242.038797 -161.389852 
L 237.468545 -158.69048 
L 232.898292 -159.788145 
L 228.32804 -162.371019 
L 223.757787 -162.965002 
L 219.187535 -164.311753 
L 214.617282 -163.361713 
L 210.04703 -161.590706 
L 205.476777 -163.801642 
L 200.906525 -168.313452 
L 196.336272 -171.675663 
L 191.76602 -156.328507 
L 187.195767 -153.689883 
L 182.625515 -100.193866 
L 178.055262 -46.248796 
L 173.485009 -46.581806 
L 168.914757 -46.347236 
L 164.344504 -46.18553 
L 159.774252 -46.153617 
L 155.203999 -46.120943 
L 150.633747 -46.295398 
L 146.063494 -164.003824 
L 141.493242 -161.54526 
L 136.922989 -158.122268 
L 132.352737 -164.063494 
L 127.782484 -110.304991 
L 123.212232 -57.766575 
L 118.641979 -50.287105 
L 114.071727 -55.567435 
L 109.501474 -56.68009 
L 104.931222 -51.695708 
L 100.360969 -52.463371 
L 95.790717 -57.031983 
L 91.220464 -52.102448 
L 86.650211 -52.650767 
L 82.079959 -52.174911 
L 77.509706 -51.551103 
L 72.939454 -49.574358 
L 68.369201 -49.705975 
L 63.798949 -54.161547 
z
" style="stroke: #b3cde3; stroke-opacity: 0.4"/>
    </defs>
    <g clip-path="url(#p56924a2646)">
     <use xlink:href="#mcd6aa9f5ee" x="0" y="203.150187" style="fill: #b3cde3; fill-opacity: 0.4; stroke: #b3cde3; stroke-opacity: 0.4"/>
    </g>
   </g>
   <g id="matplotlib.axis_1">
    <g id="xtick_1">
     <g id="line2d_1">
      <path d="M 72.939454 164.11561 
L 72.939454 25.158281 
" clip-path="url(#p56924a2646)" style="fill: none; stroke: #b0b0b0; stroke-opacity: 0.25; stroke-width: 0.5; stroke-linecap: square"/>
     </g>
     <g id="line2d_2">
      <defs>
       <path id="m70f0e3a153" d="M 0 0 
L 0 3.5 
" style="stroke: #000000; stroke-width: 0.8"/>
      </defs>
      <g>
       <use xlink:href="#m70f0e3a153" x="72.939454" y="164.11561" style="stroke: #000000; stroke-width: 0.8"/>
      </g>
     </g>
     <g id="text_1">
      <!-- Nov 18 -->
      <g transform="translate(46.941963 190.909337) rotate(-30) scale(0.08 -0.08)">
       <defs>
        <path id="DejaVuSerif-4e" d="M 313 0 
L 313 331 
L 941 331 
L 941 4331 
L 313 4331 
L 313 4666 
L 1509 4666 
L 4306 984 
L 4306 4331 
L 3681 4331 
L 3681 4666 
L 5319 4666 
L 5319 4331 
L 4691 4331 
L 4691 -91 
L 4313 -91 
L 1325 3841 
L 1325 331 
L 1953 331 
L 1953 0 
L 313 0 
z
" transform="scale(0.015625)"/>
        <path id="DejaVuSerif-6f" d="M 1925 219 
Q 2388 219 2623 584 
Q 2859 950 2859 1663 
Q 2859 2375 2623 2739 
Q 2388 3103 1925 3103 
Q 1463 3103 1227 2739 
Q 991 2375 991 1663 
Q 991 950 1228 584 
Q 1466 219 1925 219 
z
M 1925 -91 
Q 1200 -91 759 389 
Q 319 869 319 1663 
Q 319 2456 758 2934 
Q 1197 3413 1925 3413 
Q 2653 3413 3092 2934 
Q 3531 2456 3531 1663 
Q 3531 869 3092 389 
Q 2653 -91 1925 -91 
z
" transform="scale(0.015625)"/>
        <path id="DejaVuSerif-76" d="M 1581 0 
L 359 2988 
L -19 2988 
L -19 3322 
L 1509 3322 
L 1509 2988 
L 978 2988 
L 1913 703 
L 2847 2988 
L 2350 2988 
L 2350 3322 
L 3597 3322 
L 3597 2988 
L 3225 2988 
L 2003 0 
L 1581 0 
z
" transform="scale(0.015625)"/>
        <path id="DejaVuSerif-20" transform="scale(0.015625)"/>
        <path id="DejaVuSerif-31" d="M 909 0 
L 909 331 
L 1722 331 
L 1722 4213 
L 781 3603 
L 781 4013 
L 1919 4750 
L 2350 4750 
L 2350 331 
L 3163 331 
L 3163 0 
L 909 0 
z
" transform="scale(0.015625)"/>
        <path id="DejaVuSerif-38" d="M 2981 1275 
Q 2981 1775 2732 2051 
Q 2484 2328 2034 2328 
Q 1584 2328 1336 2051 
Q 1088 1775 1088 1275 
Q 1088 772 1336 495 
Q 1584 219 2034 219 
Q 2484 219 2732 495 
Q 2981 772 2981 1275 
z
M 2853 3541 
Q 2853 3966 2637 4203 
Q 2422 4441 2034 4441 
Q 1650 4441 1433 4203 
Q 1216 3966 1216 3541 
Q 1216 3113 1433 2875 
Q 1650 2638 2034 2638 
Q 2422 2638 2637 2875 
Q 2853 3113 2853 3541 
z
M 2516 2484 
Q 3047 2413 3344 2092 
Q 3641 1772 3641 1275 
Q 3641 619 3225 264 
Q 2809 -91 2034 -91 
Q 1263 -91 845 264 
Q 428 619 428 1275 
Q 428 1772 725 2092 
Q 1022 2413 1556 2484 
Q 1084 2569 832 2842 
Q 581 3116 581 3541 
Q 581 4103 968 4426 
Q 1356 4750 2034 4750 
Q 2713 4750 3100 4426 
Q 3488 4103 3488 3541 
Q 3488 3116 3236 2842 
Q 2984 2569 2516 2484 
z
" transform="scale(0.015625)"/>
       </defs>
       <use xlink:href="#DejaVuSerif-4e"/>
       <use xlink:href="#DejaVuSerif-6f" transform="translate(87.5 0)"/>
       <use xlink:href="#DejaVuSerif-76" transform="translate(147.705078 0)"/>
       <use xlink:href="#DejaVuSerif-20" transform="translate(204.199219 0)"/>
       <use xlink:href="#DejaVuSerif-31" transform="translate(235.986328 0)"/>
       <use xlink:href="#DejaVuSerif-38" transform="translate(299.609375 0)"/>
      </g>
     </g>
    </g>
    <g id="xtick_2">
     <g id="line2d_3">
      <path d="M 136.922989 164.11561 
L 136.922989 25.158281 
" clip-path="url(#p56924a2646)" style="fill: none; stroke: #b0b0b0; stroke-opacity: 0.25; stroke-width: 0.5; stroke-linecap: square"/>
     </g>
     <g id="line2d_4">
      <g>
       <use xlink:href="#m70f0e3a153" x="136.922989" y="164.11561" style="stroke: #000000; stroke-width: 0.8"/>
      </g>
     </g>
     <g id="text_2">
      <!-- Dec 02 -->
      <g transform="translate(111.538212 190.555587) rotate(-30) scale(0.08 -0.08)">
       <defs>
        <path id="DejaVuSerif-44" d="M 1581 331 
L 2163 331 
Q 3072 331 3558 850 
Q 4044 1369 4044 2338 
Q 4044 3306 3559 3818 
Q 3075 4331 2163 4331 
L 1581 4331 
L 1581 331 
z
M 353 0 
L 353 331 
L 947 331 
L 947 4331 
L 353 4331 
L 353 4666 
L 2209 4666 
Q 3416 4666 4089 4050 
Q 4763 3434 4763 2338 
Q 4763 1238 4088 619 
Q 3413 0 2209 0 
L 353 0 
z
" transform="scale(0.015625)"/>
        <path id="DejaVuSerif-65" d="M 3469 1600 
L 991 1600 
L 991 1575 
Q 991 903 1244 561 
Q 1497 219 1991 219 
Q 2369 219 2611 417 
Q 2853 616 2950 1006 
L 3413 1006 
Q 3275 459 2904 184 
Q 2534 -91 1931 -91 
Q 1203 -91 761 389 
Q 319 869 319 1663 
Q 319 2450 753 2931 
Q 1188 3413 1894 3413 
Q 2647 3413 3050 2948 
Q 3453 2484 3469 1600 
z
M 2791 1931 
Q 2772 2513 2545 2808 
Q 2319 3103 1894 3103 
Q 1497 3103 1269 2806 
Q 1041 2509 991 1931 
L 2791 1931 
z
" transform="scale(0.015625)"/>
        <path id="DejaVuSerif-63" d="M 3291 997 
Q 3169 466 2822 187 
Q 2475 -91 1925 -91 
Q 1200 -91 759 389 
Q 319 869 319 1663 
Q 319 2459 759 2936 
Q 1200 3413 1925 3413 
Q 2241 3413 2553 3339 
Q 2866 3266 3181 3116 
L 3181 2266 
L 2847 2266 
Q 2781 2703 2561 2903 
Q 2341 3103 1931 3103 
Q 1466 3103 1228 2742 
Q 991 2381 991 1663 
Q 991 944 1227 581 
Q 1463 219 1931 219 
Q 2303 219 2525 412 
Q 2747 606 2828 997 
L 3291 997 
z
" transform="scale(0.015625)"/>
        <path id="DejaVuSerif-30" d="M 2034 219 
Q 2513 219 2750 744 
Q 2988 1269 2988 2328 
Q 2988 3391 2750 3916 
Q 2513 4441 2034 4441 
Q 1556 4441 1318 3916 
Q 1081 3391 1081 2328 
Q 1081 1269 1318 744 
Q 1556 219 2034 219 
z
M 2034 -91 
Q 1275 -91 848 546 
Q 422 1184 422 2328 
Q 422 3475 848 4112 
Q 1275 4750 2034 4750 
Q 2797 4750 3222 4112 
Q 3647 3475 3647 2328 
Q 3647 1184 3222 546 
Q 2797 -91 2034 -91 
z
" transform="scale(0.015625)"/>
        <path id="DejaVuSerif-32" d="M 819 3553 
L 469 3553 
L 469 4384 
Q 803 4563 1142 4656 
Q 1481 4750 1806 4750 
Q 2534 4750 2956 4397 
Q 3378 4044 3378 3438 
Q 3378 2753 2422 1800 
Q 2347 1728 2309 1691 
L 1131 513 
L 3078 513 
L 3078 1088 
L 3444 1088 
L 3444 0 
L 434 0 
L 434 341 
L 1850 1753 
Q 2319 2222 2519 2614 
Q 2719 3006 2719 3438 
Q 2719 3909 2473 4175 
Q 2228 4441 1797 4441 
Q 1350 4441 1106 4219 
Q 863 3997 819 3553 
z
" transform="scale(0.015625)"/>
       </defs>
       <use xlink:href="#DejaVuSerif-44"/>
       <use xlink:href="#DejaVuSerif-65" transform="translate(80.175781 0)"/>
       <use xlink:href="#DejaVuSerif-63" transform="translate(139.355469 0)"/>
       <use xlink:href="#DejaVuSerif-20" transform="translate(195.361328 0)"/>
       <use xlink:href="#DejaVuSerif-30" transform="translate(227.148438 0)"/>
       <use xlink:href="#DejaVuSerif-32" transform="translate(290.771484 0)"/>
      </g>
     </g>
    </g>
    <g id="xtick_3">
     <g id="line2d_5">
      <path d="M 200.906525 164.11561 
L 200.906525 25.158281 
" clip-path="url(#p56924a2646)" style="fill: none; stroke: #b0b0b0; stroke-opacity: 0.25; stroke-width: 0.5; stroke-linecap: square"/>
     </g>
     <g id="line2d_6">
      <g>
       <use xlink:href="#m70f0e3a153" x="200.906525" y="164.11561" style="stroke: #000000; stroke-width: 0.8"/>
      </g>
     </g>
     <g id="text_3">
      <!-- Dec 16 -->
      <g transform="translate(175.521747 190.555587) rotate(-30) scale(0.08 -0.08)">
       <defs>
        <path id="DejaVuSerif-36" d="M 2094 219 
Q 2534 219 2771 542 
Q 3009 866 3009 1472 
Q 3009 2078 2771 2401 
Q 2534 2725 2094 2725 
Q 1647 2725 1412 2412 
Q 1178 2100 1178 1509 
Q 1178 888 1415 553 
Q 1653 219 2094 219 
z
M 1075 2569 
Q 1288 2803 1556 2918 
Q 1825 3034 2163 3034 
Q 2859 3034 3264 2615 
Q 3669 2197 3669 1472 
Q 3669 763 3233 336 
Q 2797 -91 2069 -91 
Q 1278 -91 853 498 
Q 428 1088 428 2181 
Q 428 3406 931 4078 
Q 1434 4750 2350 4750 
Q 2597 4750 2869 4703 
Q 3141 4656 3425 4563 
L 3425 3794 
L 3072 3794 
Q 3034 4109 2831 4275 
Q 2628 4441 2284 4441 
Q 1678 4441 1381 3981 
Q 1084 3522 1075 2569 
z
" transform="scale(0.015625)"/>
       </defs>
       <use xlink:href="#DejaVuSerif-44"/>
       <use xlink:href="#DejaVuSerif-65" transform="translate(80.175781 0)"/>
       <use xlink:href="#DejaVuSerif-63" transform="translate(139.355469 0)"/>
       <use xlink:href="#DejaVuSerif-20" transform="translate(195.361328 0)"/>
       <use xlink:href="#DejaVuSerif-31" transform="translate(227.148438 0)"/>
       <use xlink:href="#DejaVuSerif-36" transform="translate(290.771484 0)"/>
      </g>
     </g>
    </g>
    <g id="xtick_4">
     <g id="line2d_7">
      <path d="M 264.89006 164.11561 
L 264.89006 25.158281 
" clip-path="url(#p56924a2646)" style="fill: none; stroke: #b0b0b0; stroke-opacity: 0.25; stroke-width: 0.5; stroke-linecap: square"/>
     </g>
     <g id="line2d_8">
      <g>
       <use xlink:href="#m70f0e3a153" x="264.89006" y="164.11561" style="stroke: #000000; stroke-width: 0.8"/>
      </g>
     </g>
     <g id="text_4">
      <!-- Dec 30 -->
      <g transform="translate(239.505282 190.555587) rotate(-30) scale(0.08 -0.08)">
       <defs>
        <path id="DejaVuSerif-33" d="M 622 4469 
Q 988 4606 1323 4678 
Q 1659 4750 1953 4750 
Q 2638 4750 3022 4454 
Q 3406 4159 3406 3634 
Q 3406 3213 3140 2930 
Q 2875 2647 2388 2547 
Q 2963 2466 3280 2130 
Q 3597 1794 3597 1259 
Q 3597 606 3158 257 
Q 2719 -91 1894 -91 
Q 1528 -91 1179 -12 
Q 831 66 488 225 
L 488 1131 
L 838 1131 
Q 869 681 1141 450 
Q 1413 219 1906 219 
Q 2384 219 2661 495 
Q 2938 772 2938 1253 
Q 2938 1803 2653 2086 
Q 2369 2369 1819 2369 
L 1522 2369 
L 1522 2688 
L 1678 2688 
Q 2225 2688 2498 2914 
Q 2772 3141 2772 3597 
Q 2772 4006 2547 4223 
Q 2322 4441 1900 4441 
Q 1478 4441 1245 4241 
Q 1013 4041 972 3647 
L 622 3647 
L 622 4469 
z
" transform="scale(0.015625)"/>
       </defs>
       <use xlink:href="#DejaVuSerif-44"/>
       <use xlink:href="#DejaVuSerif-65" transform="translate(80.175781 0)"/>
       <use xlink:href="#DejaVuSerif-63" transform="translate(139.355469 0)"/>
       <use xlink:href="#DejaVuSerif-20" transform="translate(195.361328 0)"/>
       <use xlink:href="#DejaVuSerif-33" transform="translate(227.148438 0)"/>
       <use xlink:href="#DejaVuSerif-30" transform="translate(290.771484 0)"/>
      </g>
     </g>
    </g>
    <g id="xtick_5">
     <g id="line2d_9">
      <path d="M 328.873595 164.11561 
L 328.873595 25.158281 
" clip-path="url(#p56924a2646)" style="fill: none; stroke: #b0b0b0; stroke-opacity: 0.25; stroke-width: 0.5; stroke-linecap: square"/>
     </g>
     <g id="line2d_10">
      <g>
       <use xlink:href="#m70f0e3a153" x="328.873595" y="164.11561" style="stroke: #000000; stroke-width: 0.8"/>
      </g>
     </g>
     <g id="text_5">
      <!-- Jan 13 -->
      <g transform="translate(305.652799 189.306212) rotate(-30) scale(0.08 -0.08)">
       <defs>
        <path id="DejaVuSerif-4a" d="M -538 -1119 
L -538 -384 
L -181 -384 
Q -172 -694 -34 -845 
Q 103 -997 378 -997 
Q 750 -997 897 -762 
Q 1044 -528 1044 153 
L 1044 4331 
L 319 4331 
L 319 4666 
L 2272 4666 
L 2272 4331 
L 1678 4331 
L 1678 128 
Q 1678 -644 1368 -987 
Q 1059 -1331 372 -1331 
Q 150 -1331 -79 -1278 
Q -309 -1225 -538 -1119 
z
" transform="scale(0.015625)"/>
        <path id="DejaVuSerif-61" d="M 2547 1044 
L 2547 1747 
L 1806 1747 
Q 1378 1747 1168 1562 
Q 959 1378 959 997 
Q 959 650 1171 447 
Q 1384 244 1747 244 
Q 2106 244 2326 466 
Q 2547 688 2547 1044 
z
M 3122 2075 
L 3122 331 
L 3634 331 
L 3634 0 
L 2547 0 
L 2547 359 
Q 2356 128 2106 18 
Q 1856 -91 1522 -91 
Q 969 -91 644 203 
Q 319 497 319 997 
Q 319 1513 691 1797 
Q 1063 2081 1741 2081 
L 2547 2081 
L 2547 2309 
Q 2547 2688 2317 2895 
Q 2088 3103 1672 3103 
Q 1328 3103 1125 2947 
Q 922 2791 872 2484 
L 575 2484 
L 575 3156 
Q 875 3284 1158 3348 
Q 1441 3413 1709 3413 
Q 2400 3413 2761 3070 
Q 3122 2728 3122 2075 
z
" transform="scale(0.015625)"/>
        <path id="DejaVuSerif-6e" d="M 263 0 
L 263 331 
L 781 331 
L 781 2988 
L 231 2988 
L 231 3322 
L 1356 3322 
L 1356 2731 
Q 1516 3069 1770 3241 
Q 2025 3413 2363 3413 
Q 2913 3413 3172 3097 
Q 3431 2781 3431 2113 
L 3431 331 
L 3944 331 
L 3944 0 
L 2356 0 
L 2356 331 
L 2853 331 
L 2853 1931 
Q 2853 2541 2703 2767 
Q 2553 2994 2175 2994 
Q 1775 2994 1565 2701 
Q 1356 2409 1356 1850 
L 1356 331 
L 1856 331 
L 1856 0 
L 263 0 
z
" transform="scale(0.015625)"/>
       </defs>
       <use xlink:href="#DejaVuSerif-4a"/>
       <use xlink:href="#DejaVuSerif-61" transform="translate(40.087891 0)"/>
       <use xlink:href="#DejaVuSerif-6e" transform="translate(99.707031 0)"/>
       <use xlink:href="#DejaVuSerif-20" transform="translate(164.111328 0)"/>
       <use xlink:href="#DejaVuSerif-31" transform="translate(195.898438 0)"/>
       <use xlink:href="#DejaVuSerif-33" transform="translate(259.521484 0)"/>
      </g>
     </g>
    </g>
    <g id="xtick_6">
     <g id="line2d_11">
      <path d="M 392.857131 164.11561 
L 392.857131 25.158281 
" clip-path="url(#p56924a2646)" style="fill: none; stroke: #b0b0b0; stroke-opacity: 0.25; stroke-width: 0.5; stroke-linecap: square"/>
     </g>
     <g id="line2d_12">
      <g>
       <use xlink:href="#m70f0e3a153" x="392.857131" y="164.11561" style="stroke: #000000; stroke-width: 0.8"/>
      </g>
     </g>
     <g id="text_6">
      <!-- Jan 27 -->
      <g transform="translate(369.636334 189.306212) rotate(-30) scale(0.08 -0.08)">
       <defs>
        <path id="DejaVuSerif-37" d="M 3609 4347 
L 1784 0 
L 1319 0 
L 3059 4153 
L 903 4153 
L 903 3578 
L 538 3578 
L 538 4666 
L 3609 4666 
L 3609 4347 
z
" transform="scale(0.015625)"/>
       </defs>
       <use xlink:href="#DejaVuSerif-4a"/>
       <use xlink:href="#DejaVuSerif-61" transform="translate(40.087891 0)"/>
       <use xlink:href="#DejaVuSerif-6e" transform="translate(99.707031 0)"/>
       <use xlink:href="#DejaVuSerif-20" transform="translate(164.111328 0)"/>
       <use xlink:href="#DejaVuSerif-32" transform="translate(195.898438 0)"/>
       <use xlink:href="#DejaVuSerif-37" transform="translate(259.521484 0)"/>
      </g>
     </g>
    </g>
    <g id="xtick_7">
     <g id="line2d_13">
      <path d="M 456.840666 164.11561 
L 456.840666 25.158281 
" clip-path="url(#p56924a2646)" style="fill: none; stroke: #b0b0b0; stroke-opacity: 0.25; stroke-width: 0.5; stroke-linecap: square"/>
     </g>
     <g id="line2d_14">
      <g>
       <use xlink:href="#m70f0e3a153" x="456.840666" y="164.11561" style="stroke: #000000; stroke-width: 0.8"/>
      </g>
     </g>
     <g id="text_7">
      <!-- Feb 10 -->
      <g transform="translate(432.028548 190.224962) rotate(-30) scale(0.08 -0.08)">
       <defs>
        <path id="DejaVuSerif-46" d="M 353 0 
L 353 331 
L 947 331 
L 947 4331 
L 353 4331 
L 353 4666 
L 4172 4666 
L 4172 3628 
L 3788 3628 
L 3788 4281 
L 1581 4281 
L 1581 2719 
L 3175 2719 
L 3175 3303 
L 3559 3303 
L 3559 1753 
L 3175 1753 
L 3175 2338 
L 1581 2338 
L 1581 331 
L 2328 331 
L 2328 0 
L 353 0 
z
" transform="scale(0.015625)"/>
        <path id="DejaVuSerif-62" d="M 738 331 
L 738 4531 
L 184 4531 
L 184 4863 
L 1313 4863 
L 1313 2803 
Q 1481 3116 1742 3264 
Q 2003 3413 2388 3413 
Q 3000 3413 3387 2928 
Q 3775 2444 3775 1663 
Q 3775 881 3387 395 
Q 3000 -91 2388 -91 
Q 2003 -91 1742 57 
Q 1481 206 1313 519 
L 1313 0 
L 184 0 
L 184 331 
L 738 331 
z
M 1313 1497 
Q 1313 897 1542 583 
Q 1772 269 2209 269 
Q 2650 269 2876 622 
Q 3103 975 3103 1663 
Q 3103 2353 2876 2703 
Q 2650 3053 2209 3053 
Q 1772 3053 1542 2737 
Q 1313 2422 1313 1825 
L 1313 1497 
z
" transform="scale(0.015625)"/>
       </defs>
       <use xlink:href="#DejaVuSerif-46"/>
       <use xlink:href="#DejaVuSerif-65" transform="translate(63.884766 0)"/>
       <use xlink:href="#DejaVuSerif-62" transform="translate(123.064453 0)"/>
       <use xlink:href="#DejaVuSerif-20" transform="translate(187.078125 0)"/>
       <use xlink:href="#DejaVuSerif-31" transform="translate(218.865234 0)"/>
       <use xlink:href="#DejaVuSerif-30" transform="translate(282.488281 0)"/>
      </g>
     </g>
    </g>
   </g>
   <g id="matplotlib.axis_2">
    <g id="ytick_1">
     <g id="line2d_15">
      <path d="M 43.232813 158.159184 
L 495.687813 158.159184 
" clip-path="url(#p56924a2646)" style="fill: none; stroke: #b0b0b0; stroke-opacity: 0.25; stroke-width: 0.5; stroke-linecap: square"/>
     </g>
     <g id="line2d_16">
      <defs>
       <path id="me4bbfb8a95" d="M 0 0 
L -3.5 0 
" style="stroke: #000000; stroke-width: 0.8"/>
      </defs>
      <g>
       <use xlink:href="#me4bbfb8a95" x="43.232813" y="158.159184" style="stroke: #000000; stroke-width: 0.8"/>
      </g>
     </g>
     <g id="text_8">
      <!-- 0.0 -->
      <g transform="translate(23.510313 161.198559) scale(0.08 -0.08)">
       <defs>
        <path id="DejaVuSerif-2e" d="M 603 325 
Q 603 500 722 622 
Q 841 744 1019 744 
Q 1191 744 1312 622 
Q 1434 500 1434 325 
Q 1434 153 1312 31 
Q 1191 -91 1019 -91 
Q 841 -91 722 29 
Q 603 150 603 325 
z
" transform="scale(0.015625)"/>
       </defs>
       <use xlink:href="#DejaVuSerif-30"/>
       <use xlink:href="#DejaVuSerif-2e" transform="translate(63.623047 0)"/>
       <use xlink:href="#DejaVuSerif-30" transform="translate(95.410156 0)"/>
      </g>
     </g>
    </g>
    <g id="ytick_2">
     <g id="line2d_17">
      <path d="M 43.232813 136.551678 
L 495.687813 136.551678 
" clip-path="url(#p56924a2646)" style="fill: none; stroke: #b0b0b0; stroke-opacity: 0.25; stroke-width: 0.5; stroke-linecap: square"/>
     </g>
     <g id="line2d_18">
      <g>
       <use xlink:href="#me4bbfb8a95" x="43.232813" y="136.551678" style="stroke: #000000; stroke-width: 0.8"/>
      </g>
     </g>
     <g id="text_9">
      <!-- 0.2 -->
      <g transform="translate(23.510313 139.591053) scale(0.08 -0.08)">
       <use xlink:href="#DejaVuSerif-30"/>
       <use xlink:href="#DejaVuSerif-2e" transform="translate(63.623047 0)"/>
       <use xlink:href="#DejaVuSerif-32" transform="translate(95.410156 0)"/>
      </g>
     </g>
    </g>
    <g id="ytick_3">
     <g id="line2d_19">
      <path d="M 43.232813 114.944173 
L 495.687813 114.944173 
" clip-path="url(#p56924a2646)" style="fill: none; stroke: #b0b0b0; stroke-opacity: 0.25; stroke-width: 0.5; stroke-linecap: square"/>
     </g>
     <g id="line2d_20">
      <g>
       <use xlink:href="#me4bbfb8a95" x="43.232813" y="114.944173" style="stroke: #000000; stroke-width: 0.8"/>
      </g>
     </g>
     <g id="text_10">
      <!-- 0.4 -->
      <g transform="translate(23.510313 117.983548) scale(0.08 -0.08)">
       <defs>
        <path id="DejaVuSerif-34" d="M 2234 1581 
L 2234 4063 
L 641 1581 
L 2234 1581 
z
M 3609 0 
L 1484 0 
L 1484 331 
L 2234 331 
L 2234 1247 
L 197 1247 
L 197 1588 
L 2241 4750 
L 2859 4750 
L 2859 1581 
L 3750 1581 
L 3750 1247 
L 2859 1247 
L 2859 331 
L 3609 331 
L 3609 0 
z
" transform="scale(0.015625)"/>
       </defs>
       <use xlink:href="#DejaVuSerif-30"/>
       <use xlink:href="#DejaVuSerif-2e" transform="translate(63.623047 0)"/>
       <use xlink:href="#DejaVuSerif-34" transform="translate(95.410156 0)"/>
      </g>
     </g>
    </g>
    <g id="ytick_4">
     <g id="line2d_21">
      <path d="M 43.232813 93.336668 
L 495.687813 93.336668 
" clip-path="url(#p56924a2646)" style="fill: none; stroke: #b0b0b0; stroke-opacity: 0.25; stroke-width: 0.5; stroke-linecap: square"/>
     </g>
     <g id="line2d_22">
      <g>
       <use xlink:href="#me4bbfb8a95" x="43.232813" y="93.336668" style="stroke: #000000; stroke-width: 0.8"/>
      </g>
     </g>
     <g id="text_11">
      <!-- 0.6 -->
      <g transform="translate(23.510313 96.376043) scale(0.08 -0.08)">
       <use xlink:href="#DejaVuSerif-30"/>
       <use xlink:href="#DejaVuSerif-2e" transform="translate(63.623047 0)"/>
       <use xlink:href="#DejaVuSerif-36" transform="translate(95.410156 0)"/>
      </g>
     </g>
    </g>
    <g id="ytick_5">
     <g id="line2d_23">
      <path d="M 43.232813 71.729163 
L 495.687813 71.729163 
" clip-path="url(#p56924a2646)" style="fill: none; stroke: #b0b0b0; stroke-opacity: 0.25; stroke-width: 0.5; stroke-linecap: square"/>
     </g>
     <g id="line2d_24">
      <g>
       <use xlink:href="#me4bbfb8a95" x="43.232813" y="71.729163" style="stroke: #000000; stroke-width: 0.8"/>
      </g>
     </g>
     <g id="text_12">
      <!-- 0.8 -->
      <g transform="translate(23.510313 74.768538) scale(0.08 -0.08)">
       <use xlink:href="#DejaVuSerif-30"/>
       <use xlink:href="#DejaVuSerif-2e" transform="translate(63.623047 0)"/>
       <use xlink:href="#DejaVuSerif-38" transform="translate(95.410156 0)"/>
      </g>
     </g>
    </g>
    <g id="ytick_6">
     <g id="line2d_25">
      <path d="M 43.232813 50.121658 
L 495.687813 50.121658 
" clip-path="url(#p56924a2646)" style="fill: none; stroke: #b0b0b0; stroke-opacity: 0.25; stroke-width: 0.5; stroke-linecap: square"/>
     </g>
     <g id="line2d_26">
      <g>
       <use xlink:href="#me4bbfb8a95" x="43.232813" y="50.121658" style="stroke: #000000; stroke-width: 0.8"/>
      </g>
     </g>
     <g id="text_13">
      <!-- 1.0 -->
      <g transform="translate(23.510313 53.161033) scale(0.08 -0.08)">
       <use xlink:href="#DejaVuSerif-31"/>
       <use xlink:href="#DejaVuSerif-2e" transform="translate(63.623047 0)"/>
       <use xlink:href="#DejaVuSerif-30" transform="translate(95.410156 0)"/>
      </g>
     </g>
    </g>
    <g id="ytick_7">
     <g id="line2d_27">
      <path d="M 43.232813 28.514153 
L 495.687813 28.514153 
" clip-path="url(#p56924a2646)" style="fill: none; stroke: #b0b0b0; stroke-opacity: 0.25; stroke-width: 0.5; stroke-linecap: square"/>
     </g>
     <g id="line2d_28">
      <g>
       <use xlink:href="#me4bbfb8a95" x="43.232813" y="28.514153" style="stroke: #000000; stroke-width: 0.8"/>
      </g>
     </g>
     <g id="text_14">
      <!-- 1.2 -->
      <g transform="translate(23.510313 31.553528) scale(0.08 -0.08)">
       <use xlink:href="#DejaVuSerif-31"/>
       <use xlink:href="#DejaVuSerif-2e" transform="translate(63.623047 0)"/>
       <use xlink:href="#DejaVuSerif-32" transform="translate(95.410156 0)"/>
      </g>
     </g>
    </g>
    <g id="text_15">
     <!-- $/MiB -->
     <g transform="translate(17.638594 108.36968) rotate(-90) scale(0.09 -0.09)">
      <defs>
       <path id="DejaVuSerif-24" d="M 2156 213 
Q 2509 244 2695 416 
Q 2881 588 2881 884 
Q 2881 1153 2697 1340 
Q 2513 1528 2156 1625 
L 2156 213 
z
M 1844 3709 
Q 1522 3688 1344 3523 
Q 1166 3359 1166 3084 
Q 1166 2834 1330 2668 
Q 1494 2503 1844 2400 
L 1844 3709 
z
M 550 225 
L 550 1088 
L 888 1088 
Q 900 659 1137 440 
Q 1375 222 1844 213 
L 1844 1728 
Q 1125 1928 834 2189 
Q 544 2450 544 2881 
Q 544 3381 887 3684 
Q 1231 3988 1844 4025 
L 1844 4863 
L 2156 4863 
L 2156 4025 
Q 2472 4000 2764 3923 
Q 3056 3847 3334 3719 
L 3334 2900 
L 2994 2900 
Q 2956 3263 2740 3472 
Q 2525 3681 2156 3709 
L 2156 2297 
Q 2925 2088 3233 1817 
Q 3541 1547 3541 1094 
Q 3541 575 3178 262 
Q 2816 -50 2156 -97 
L 2156 -941 
L 1844 -941 
L 1844 -97 
Q 1544 -91 1222 -11 
Q 900 69 550 225 
z
" transform="scale(0.015625)"/>
       <path id="DejaVuSerif-2f" d="M 1656 4666 
L 2156 4666 
L 500 -594 
L 0 -594 
L 1656 4666 
z
" transform="scale(0.015625)"/>
       <path id="DejaVuSerif-4d" d="M 353 0 
L 353 331 
L 947 331 
L 947 4331 
L 319 4331 
L 319 4666 
L 1678 4666 
L 3316 1344 
L 4953 4666 
L 6228 4666 
L 6228 4331 
L 5606 4331 
L 5606 331 
L 6203 331 
L 6203 0 
L 4378 0 
L 4378 331 
L 4972 331 
L 4972 3938 
L 3372 684 
L 2931 684 
L 1331 3938 
L 1331 331 
L 1925 331 
L 1925 0 
L 353 0 
z
" transform="scale(0.015625)"/>
       <path id="DejaVuSerif-69" d="M 622 4353 
Q 622 4497 726 4603 
Q 831 4709 978 4709 
Q 1122 4709 1226 4603 
Q 1331 4497 1331 4353 
Q 1331 4206 1228 4103 
Q 1125 4000 978 4000 
Q 831 4000 726 4103 
Q 622 4206 622 4353 
z
M 1356 331 
L 1900 331 
L 1900 0 
L 231 0 
L 231 331 
L 781 331 
L 781 2988 
L 231 2988 
L 231 3322 
L 1356 3322 
L 1356 331 
z
" transform="scale(0.015625)"/>
       <path id="DejaVuSerif-42" d="M 1581 331 
L 2516 331 
Q 3078 331 3337 575 
Q 3597 819 3597 1350 
Q 3597 1878 3339 2120 
Q 3081 2363 2516 2363 
L 1581 2363 
L 1581 331 
z
M 1581 2694 
L 2375 2694 
Q 2888 2694 3123 2891 
Q 3359 3088 3359 3513 
Q 3359 3941 3123 4136 
Q 2888 4331 2375 4331 
L 1581 4331 
L 1581 2694 
z
M 353 0 
L 353 331 
L 947 331 
L 947 4331 
L 353 4331 
L 353 4666 
L 2656 4666 
Q 3363 4666 3720 4377 
Q 4078 4088 4078 3513 
Q 4078 3097 3829 2850 
Q 3581 2603 3103 2547 
Q 3697 2472 4005 2167 
Q 4313 1863 4313 1350 
Q 4313 656 3875 328 
Q 3438 0 2509 0 
L 353 0 
z
" transform="scale(0.015625)"/>
      </defs>
      <use xlink:href="#DejaVuSerif-24"/>
      <use xlink:href="#DejaVuSerif-2f" transform="translate(63.623047 0)"/>
      <use xlink:href="#DejaVuSerif-4d" transform="translate(97.314453 0)"/>
      <use xlink:href="#DejaVuSerif-69" transform="translate(199.707031 0)"/>
      <use xlink:href="#DejaVuSerif-42" transform="translate(231.689453 0)"/>
     </g>
    </g>
   </g>
   <g id="FillBetweenPolyCollection_2">
    <defs>
     <path id="md4eb74ec0b" d="M 63.798949 -48.256007 
L 63.798949 -45.671632 
L 68.369201 -45.648174 
L 72.939454 -45.61033 
L 77.509706 -45.610319 
L 82.079959 -45.696595 
L 86.650211 -45.676783 
L 91.220464 -45.620801 
L 95.790717 -45.630508 
L 100.360969 -45.657636 
L 104.931222 -45.636446 
L 109.501474 -45.635108 
L 114.071727 -45.60049 
L 118.641979 -45.585128 
L 123.212232 -45.59343 
L 127.782484 -45.584606 
L 132.352737 -46.071117 
L 136.922989 -46.66975 
L 141.493242 -46.043991 
L 146.063494 -45.820846 
L 150.633747 -45.706893 
L 155.203999 -45.688811 
L 159.774252 -45.680884 
L 164.344504 -45.675296 
L 168.914757 -45.655244 
L 173.485009 -45.66135 
L 178.055262 -45.650641 
L 182.625515 -45.64492 
L 187.195767 -45.639237 
L 191.76602 -45.654485 
L 196.336272 -45.745276 
L 200.906525 -45.724703 
L 205.476777 -45.697275 
L 210.04703 -45.683581 
L 214.617282 -45.693559 
L 219.187535 -45.698645 
L 223.757787 -45.689266 
L 228.32804 -45.685427 
L 232.898292 -45.669726 
L 237.468545 -45.662667 
L 242.038797 -45.677881 
L 246.60905 -45.686988 
L 251.179302 -45.686077 
L 255.749555 -45.681752 
L 260.319807 -45.669289 
L 264.89006 -45.592661 
L 269.460313 -45.587775 
L 274.030565 -45.586045 
L 278.600818 -45.596402 
L 283.17107 -45.603937 
L 287.741323 -45.612273 
L 292.311575 -45.611689 
L 296.881828 -45.623488 
L 301.45208 -45.641246 
L 306.022333 -45.670066 
L 310.592585 -45.650972 
L 315.162838 -45.643941 
L 319.73309 -45.603105 
L 324.303343 -45.638274 
L 328.873595 -45.711748 
L 333.443848 -45.639668 
L 338.0141 -45.632989 
L 342.584353 -45.627721 
L 347.154605 -45.628912 
L 351.724858 -45.627993 
L 356.29511 -45.639882 
L 360.865363 -45.62363 
L 365.435616 -45.610655 
L 370.005868 -45.587213 
L 374.576121 -45.553767 
L 379.146373 -45.548401 
L 383.716626 -45.542394 
L 388.286878 -45.532602 
L 392.857131 -45.526071 
L 397.427383 -45.523423 
L 401.997636 -45.511201 
L 406.567888 -45.488592 
L 411.138141 -45.483153 
L 415.708393 -45.462951 
L 420.278646 -45.454591 
L 424.848898 -45.453102 
L 429.419151 -45.444458 
L 433.989403 -45.414553 
L 438.559656 -45.365318 
L 443.129908 -45.382809 
L 447.700161 -45.382436 
L 452.270414 -45.367618 
L 456.840666 -45.357694 
L 461.410919 -45.350819 
L 465.981171 -45.359404 
L 470.551424 -45.360436 
L 475.121676 -45.362986 
L 475.121676 -48.495035 
L 475.121676 -48.495035 
L 470.551424 -48.271876 
L 465.981171 -48.396191 
L 461.410919 -48.362003 
L 456.840666 -48.108489 
L 452.270414 -48.069356 
L 447.700161 -45.515414 
L 443.129908 -48.480017 
L 438.559656 -48.295925 
L 433.989403 -46.856482 
L 429.419151 -48.652496 
L 424.848898 -49.135906 
L 420.278646 -49.073339 
L 415.708393 -49.195353 
L 411.138141 -49.447199 
L 406.567888 -49.527424 
L 401.997636 -45.609381 
L 397.427383 -45.599619 
L 392.857131 -45.597611 
L 388.286878 -45.61628 
L 383.716626 -45.605586 
L 379.146373 -45.636977 
L 374.576121 -45.64454 
L 370.005868 -45.687578 
L 365.435616 -45.717593 
L 360.865363 -45.719592 
L 356.29511 -45.722896 
L 351.724858 -45.726917 
L 347.154605 -45.730627 
L 342.584353 -45.729056 
L 338.0141 -45.732174 
L 333.443848 -45.73046 
L 328.873595 -45.747033 
L 324.303343 -45.911087 
L 319.73309 -45.8225 
L 315.162838 -45.919925 
L 310.592585 -45.773161 
L 306.022333 -45.805873 
L 301.45208 -45.808013 
L 296.881828 -45.803608 
L 292.311575 -45.75478 
L 287.741323 -45.754741 
L 283.17107 -45.737706 
L 278.600818 -45.734128 
L 274.030565 -45.702183 
L 269.460313 -45.71457 
L 264.89006 -45.721164 
L 260.319807 -47.315155 
L 255.749555 -47.686585 
L 251.179302 -48.411481 
L 246.60905 -47.379142 
L 242.038797 -47.052627 
L 237.468545 -46.749086 
L 232.898292 -46.193454 
L 228.32804 -46.112512 
L 223.757787 -45.885587 
L 219.187535 -46.002828 
L 214.617282 -45.993829 
L 210.04703 -45.982588 
L 205.476777 -46.030716 
L 200.906525 -46.032172 
L 196.336272 -46.062466 
L 191.76602 -46.830224 
L 187.195767 -45.900299 
L 182.625515 -45.664444 
L 178.055262 -45.650944 
L 173.485009 -45.66165 
L 168.914757 -45.655554 
L 164.344504 -45.675597 
L 159.774252 -45.681185 
L 155.203999 -45.689108 
L 150.633747 -45.707094 
L 146.063494 -46.135411 
L 141.493242 -161.401744 
L 136.922989 -157.982915 
L 132.352737 -105.043058 
L 127.782484 -46.216107 
L 123.212232 -46.183461 
L 118.641979 -46.073652 
L 114.071727 -46.161879 
L 109.501474 -46.242928 
L 104.931222 -46.220963 
L 100.360969 -46.31348 
L 95.790717 -46.24042 
L 91.220464 -46.239217 
L 86.650211 -46.326176 
L 82.079959 -46.298654 
L 77.509706 -46.154718 
L 72.939454 -46.153415 
L 68.369201 -46.199061 
L 63.798949 -48.256007 
z
" style="stroke: #6497b1; stroke-opacity: 0.3"/>
    </defs>
    <g clip-path="url(#p56924a2646)">
     <use xlink:href="#md4eb74ec0b" x="0" y="203.150187" style="fill: #6497b1; fill-opacity: 0.3; stroke: #6497b1; stroke-opacity: 0.3"/>
    </g>
   </g>
   <g id="patch_3">
    <path d="M 43.232813 164.11561 
L 43.232813 25.158281 
" style="fill: none; stroke: #000000; stroke-width: 0.6; stroke-linejoin: miter; stroke-linecap: square"/>
   </g>
   <g id="patch_4">
    <path d="M 43.232813 164.11561 
L 495.687813 164.11561 
" style="fill: none; stroke: #000000; stroke-width: 0.6; stroke-linejoin: miter; stroke-linecap: square"/>
   </g>
   <g id="line2d_29">
    <path d="M 63.798949 154.89418 
L 68.369201 156.951126 
L 72.939454 156.996772 
L 77.509706 156.995469 
L 82.079959 156.851533 
L 86.650211 156.824011 
L 91.220464 156.91097 
L 95.790717 156.909767 
L 100.360969 156.836707 
L 104.931222 156.929224 
L 109.501474 156.907258 
L 114.071727 156.988308 
L 118.641979 157.076534 
L 123.212232 156.966726 
L 127.782484 156.934079 
L 132.352737 98.107129 
L 136.922989 45.167271 
L 141.493242 41.748443 
L 146.063494 157.014776 
L 150.633747 157.443093 
L 155.203999 157.461079 
L 159.774252 157.469002 
L 164.344504 157.474589 
L 168.914757 157.494633 
L 173.485009 157.488537 
L 178.055262 157.499243 
L 182.625515 157.485743 
L 187.195767 157.249887 
L 191.76602 156.319962 
L 196.336272 157.087721 
L 200.906525 157.118015 
L 205.476777 157.119471 
L 210.04703 157.167599 
L 214.617282 157.156357 
L 219.187535 157.147359 
L 223.757787 157.2646 
L 228.32804 157.037674 
L 232.898292 156.956733 
L 237.468545 156.401101 
L 242.038797 156.09756 
L 246.60905 155.771045 
L 251.179302 154.738706 
L 255.749555 155.463601 
L 260.319807 155.835031 
L 264.89006 157.429023 
L 269.460313 157.435617 
L 274.030565 157.448004 
L 278.600818 157.416059 
L 283.17107 157.412481 
L 287.741323 157.395446 
L 292.311575 157.395407 
L 296.881828 157.346579 
L 301.45208 157.342174 
L 306.022333 157.344313 
L 310.592585 157.377026 
L 315.162838 157.230262 
L 319.73309 157.327687 
L 324.303343 157.2391 
L 328.873595 157.403154 
L 333.443848 157.419726 
L 338.0141 157.418013 
L 342.584353 157.421131 
L 347.154605 157.41956 
L 351.724858 157.42327 
L 356.29511 157.427291 
L 360.865363 157.430594 
L 365.435616 157.432594 
L 370.005868 157.462609 
L 374.576121 157.505647 
L 379.146373 157.513209 
L 383.716626 157.544601 
L 388.286878 157.533907 
L 392.857131 157.552576 
L 397.427383 157.550568 
L 401.997636 157.540806 
L 406.567888 153.622763 
L 411.138141 153.702987 
L 415.708393 153.954834 
L 420.278646 154.076848 
L 424.848898 154.014281 
L 429.419151 154.497691 
L 433.989403 156.293705 
L 438.559656 154.854262 
L 443.129908 154.67017 
L 447.700161 157.634773 
L 452.270414 155.080831 
L 456.840666 155.041698 
L 461.410919 154.788184 
L 465.981171 154.753996 
L 470.551424 154.87831 
L 475.121676 154.655152 
" clip-path="url(#p56924a2646)" style="fill: none; stroke: #6497b1; stroke-linecap: square"/>
   </g>
   <g id="text_16">
    <!-- Avail — Cost per MiB (USD) — Quantile Bands -->
    <g transform="translate(139.262422 19.158281) scale(0.11 -0.11)">
     <defs>
      <path id="DejaVuSerif-41" d="M 1281 1691 
L 2994 1691 
L 2138 3909 
L 1281 1691 
z
M -38 0 
L -38 331 
L 372 331 
L 2034 4666 
L 2559 4666 
L 4225 331 
L 4684 331 
L 4684 0 
L 2988 0 
L 2988 331 
L 3506 331 
L 3116 1356 
L 1153 1356 
L 763 331 
L 1275 331 
L 1275 0 
L -38 0 
z
" transform="scale(0.015625)"/>
      <path id="DejaVuSerif-6c" d="M 1313 331 
L 1856 331 
L 1856 0 
L 184 0 
L 184 331 
L 738 331 
L 738 4531 
L 184 4531 
L 184 4863 
L 1313 4863 
L 1313 331 
z
" transform="scale(0.015625)"/>
      <path id="DejaVuSerif-2014" d="M 281 1906 
L 6119 1906 
L 6119 1491 
L 281 1491 
L 281 1906 
z
" transform="scale(0.015625)"/>
      <path id="DejaVuSerif-43" d="M 4513 1234 
Q 4306 581 3820 245 
Q 3334 -91 2591 -91 
Q 2134 -91 1743 65 
Q 1353 222 1050 525 
Q 700 875 529 1320 
Q 359 1766 359 2328 
Q 359 3416 987 4083 
Q 1616 4750 2644 4750 
Q 3025 4750 3456 4650 
Q 3888 4550 4384 4347 
L 4384 3272 
L 4031 3272 
Q 3916 3859 3567 4137 
Q 3219 4416 2591 4416 
Q 1844 4416 1459 3886 
Q 1075 3356 1075 2328 
Q 1075 1303 1459 773 
Q 1844 244 2591 244 
Q 3113 244 3450 492 
Q 3788 741 3938 1234 
L 4513 1234 
z
" transform="scale(0.015625)"/>
      <path id="DejaVuSerif-73" d="M 359 184 
L 359 959 
L 691 959 
Q 703 588 923 403 
Q 1144 219 1575 219 
Q 1963 219 2166 364 
Q 2369 509 2369 788 
Q 2369 1006 2220 1140 
Q 2072 1275 1594 1428 
L 1178 1569 
Q 750 1706 558 1912 
Q 366 2119 366 2438 
Q 366 2894 700 3153 
Q 1034 3413 1625 3413 
Q 1888 3413 2178 3344 
Q 2469 3275 2778 3144 
L 2778 2419 
L 2447 2419 
Q 2434 2741 2221 2922 
Q 2009 3103 1644 3103 
Q 1281 3103 1095 2975 
Q 909 2847 909 2591 
Q 909 2381 1050 2254 
Q 1191 2128 1613 1997 
L 2069 1856 
Q 2541 1709 2748 1489 
Q 2956 1269 2956 922 
Q 2956 450 2595 179 
Q 2234 -91 1600 -91 
Q 1278 -91 972 -22 
Q 666 47 359 184 
z
" transform="scale(0.015625)"/>
      <path id="DejaVuSerif-74" d="M 691 2988 
L 184 2988 
L 184 3322 
L 691 3322 
L 691 4353 
L 1269 4353 
L 1269 3322 
L 2350 3322 
L 2350 2988 
L 1269 2988 
L 1269 878 
Q 1269 456 1350 337 
Q 1431 219 1650 219 
Q 1875 219 1978 351 
Q 2081 484 2088 781 
L 2522 781 
Q 2497 328 2275 118 
Q 2053 -91 1600 -91 
Q 1103 -91 897 129 
Q 691 350 691 878 
L 691 2988 
z
" transform="scale(0.015625)"/>
      <path id="DejaVuSerif-70" d="M 1313 1825 
L 1313 1497 
Q 1313 897 1542 583 
Q 1772 269 2209 269 
Q 2650 269 2876 622 
Q 3103 975 3103 1663 
Q 3103 2353 2876 2703 
Q 2650 3053 2209 3053 
Q 1772 3053 1542 2737 
Q 1313 2422 1313 1825 
z
M 738 2988 
L 184 2988 
L 184 3322 
L 1313 3322 
L 1313 2803 
Q 1481 3116 1742 3264 
Q 2003 3413 2388 3413 
Q 3000 3413 3387 2928 
Q 3775 2444 3775 1663 
Q 3775 881 3387 395 
Q 3000 -91 2388 -91 
Q 2003 -91 1742 57 
Q 1481 206 1313 519 
L 1313 -997 
L 1856 -997 
L 1856 -1331 
L 184 -1331 
L 184 -997 
L 738 -997 
L 738 2988 
z
" transform="scale(0.015625)"/>
      <path id="DejaVuSerif-72" d="M 3059 3328 
L 3059 2497 
L 2728 2497 
Q 2713 2744 2591 2866 
Q 2469 2988 2234 2988 
Q 1809 2988 1582 2694 
Q 1356 2400 1356 1850 
L 1356 331 
L 2022 331 
L 2022 0 
L 263 0 
L 263 331 
L 781 331 
L 781 2994 
L 231 2994 
L 231 3322 
L 1356 3322 
L 1356 2731 
Q 1525 3078 1790 3245 
Q 2056 3413 2438 3413 
Q 2578 3413 2733 3391 
Q 2888 3369 3059 3328 
z
" transform="scale(0.015625)"/>
      <path id="DejaVuSerif-28" d="M 2041 -997 
Q 1281 -656 893 83 
Q 506 822 506 1931 
Q 506 3044 893 3783 
Q 1281 4522 2041 4863 
L 2041 4556 
Q 1559 4225 1350 3623 
Q 1141 3022 1141 1931 
Q 1141 844 1350 242 
Q 1559 -359 2041 -691 
L 2041 -997 
z
" transform="scale(0.015625)"/>
      <path id="DejaVuSerif-55" d="M 897 4331 
L 300 4331 
L 300 4666 
L 2125 4666 
L 2125 4331 
L 1528 4331 
L 1528 1919 
Q 1528 1025 1820 672 
Q 2113 319 2828 319 
Q 3544 319 3836 672 
Q 4128 1025 4128 1919 
L 4128 4331 
L 3531 4331 
L 3531 4666 
L 5106 4666 
L 5106 4331 
L 4513 4331 
L 4513 1856 
Q 4513 791 4103 350 
Q 3694 -91 2713 -91 
Q 1731 -91 1314 353 
Q 897 797 897 1856 
L 897 4331 
z
" transform="scale(0.015625)"/>
      <path id="DejaVuSerif-53" d="M 594 225 
L 594 1288 
L 953 1284 
Q 969 753 1261 498 
Q 1553 244 2150 244 
Q 2706 244 2998 464 
Q 3291 684 3291 1106 
Q 3291 1444 3114 1625 
Q 2938 1806 2369 1978 
L 1753 2163 
Q 1084 2366 811 2669 
Q 538 2972 538 3500 
Q 538 4094 959 4422 
Q 1381 4750 2144 4750 
Q 2469 4750 2856 4679 
Q 3244 4609 3681 4475 
L 3681 3481 
L 3328 3481 
Q 3275 3975 2998 4195 
Q 2722 4416 2156 4416 
Q 1663 4416 1405 4214 
Q 1147 4013 1147 3628 
Q 1147 3294 1340 3103 
Q 1534 2913 2163 2725 
L 2741 2553 
Q 3375 2363 3645 2067 
Q 3916 1772 3916 1275 
Q 3916 597 3481 253 
Q 3047 -91 2188 -91 
Q 1803 -91 1404 -12 
Q 1006 66 594 225 
z
" transform="scale(0.015625)"/>
      <path id="DejaVuSerif-29" d="M 453 -997 
L 453 -691 
Q 934 -359 1145 242 
Q 1356 844 1356 1931 
Q 1356 3022 1145 3623 
Q 934 4225 453 4556 
L 453 4863 
Q 1216 4522 1603 3783 
Q 1991 3044 1991 1931 
Q 1991 822 1603 83 
Q 1216 -656 453 -997 
z
" transform="scale(0.015625)"/>
      <path id="DejaVuSerif-51" d="M 2700 -91 
Q 1628 -91 993 567 
Q 359 1225 359 2328 
Q 359 2894 529 3339 
Q 700 3784 1050 4134 
Q 1356 4441 1750 4595 
Q 2144 4750 2625 4750 
Q 3641 4750 4266 4084 
Q 4891 3419 4891 2328 
Q 4891 1403 4422 773 
Q 3953 144 3128 -38 
Q 3297 -247 3539 -347 
Q 3781 -447 4122 -447 
L 4219 -447 
L 4219 -1025 
Q 3691 -1000 3314 -767 
Q 2938 -534 2700 -91 
z
M 2625 244 
Q 3391 244 3781 770 
Q 4172 1297 4172 2328 
Q 4172 3363 3781 3889 
Q 3391 4416 2625 4416 
Q 1856 4416 1465 3889 
Q 1075 3363 1075 2328 
Q 1075 1297 1465 770 
Q 1856 244 2625 244 
z
" transform="scale(0.015625)"/>
      <path id="DejaVuSerif-75" d="M 2266 3322 
L 3341 3322 
L 3341 331 
L 3884 331 
L 3884 0 
L 2766 0 
L 2766 588 
Q 2606 256 2353 82 
Q 2100 -91 1766 -91 
Q 1213 -91 952 223 
Q 691 538 691 1209 
L 691 2988 
L 172 2988 
L 172 3322 
L 1269 3322 
L 1269 1388 
Q 1269 781 1417 556 
Q 1566 331 1947 331 
Q 2347 331 2556 625 
Q 2766 919 2766 1478 
L 2766 2988 
L 2266 2988 
L 2266 3322 
z
" transform="scale(0.015625)"/>
      <path id="DejaVuSerif-64" d="M 3359 331 
L 3909 331 
L 3909 0 
L 2784 0 
L 2784 519 
Q 2616 206 2355 57 
Q 2094 -91 1709 -91 
Q 1097 -91 708 395 
Q 319 881 319 1663 
Q 319 2444 706 2928 
Q 1094 3413 1709 3413 
Q 2094 3413 2355 3264 
Q 2616 3116 2784 2803 
L 2784 4531 
L 2241 4531 
L 2241 4863 
L 3359 4863 
L 3359 331 
z
M 2784 1497 
L 2784 1825 
Q 2784 2422 2554 2737 
Q 2325 3053 1888 3053 
Q 1444 3053 1217 2703 
Q 991 2353 991 1663 
Q 991 975 1217 622 
Q 1444 269 1888 269 
Q 2325 269 2554 583 
Q 2784 897 2784 1497 
z
" transform="scale(0.015625)"/>
     </defs>
     <use xlink:href="#DejaVuSerif-41"/>
     <use xlink:href="#DejaVuSerif-76" transform="translate(68.216797 0)"/>
     <use xlink:href="#DejaVuSerif-61" transform="translate(124.710938 0)"/>
     <use xlink:href="#DejaVuSerif-69" transform="translate(184.330078 0)"/>
     <use xlink:href="#DejaVuSerif-6c" transform="translate(216.3125 0)"/>
     <use xlink:href="#DejaVuSerif-20" transform="translate(248.294922 0)"/>
     <use xlink:href="#DejaVuSerif-2014" transform="translate(280.082031 0)"/>
     <use xlink:href="#DejaVuSerif-20" transform="translate(380.082031 0)"/>
     <use xlink:href="#DejaVuSerif-43" transform="translate(411.869141 0)"/>
     <use xlink:href="#DejaVuSerif-6f" transform="translate(488.382812 0)"/>
     <use xlink:href="#DejaVuSerif-73" transform="translate(548.587891 0)"/>
     <use xlink:href="#DejaVuSerif-74" transform="translate(599.90625 0)"/>
     <use xlink:href="#DejaVuSerif-20" transform="translate(640.091797 0)"/>
     <use xlink:href="#DejaVuSerif-70" transform="translate(671.878906 0)"/>
     <use xlink:href="#DejaVuSerif-65" transform="translate(735.892578 0)"/>
     <use xlink:href="#DejaVuSerif-72" transform="translate(795.072266 0)"/>
     <use xlink:href="#DejaVuSerif-20" transform="translate(842.875 0)"/>
     <use xlink:href="#DejaVuSerif-4d" transform="translate(874.662109 0)"/>
     <use xlink:href="#DejaVuSerif-69" transform="translate(977.054688 0)"/>
     <use xlink:href="#DejaVuSerif-42" transform="translate(1009.037109 0)"/>
     <use xlink:href="#DejaVuSerif-20" transform="translate(1082.523438 0)"/>
     <use xlink:href="#DejaVuSerif-28" transform="translate(1114.310547 0)"/>
     <use xlink:href="#DejaVuSerif-55" transform="translate(1153.324219 0)"/>
     <use xlink:href="#DejaVuSerif-53" transform="translate(1237.601562 0)"/>
     <use xlink:href="#DejaVuSerif-44" transform="translate(1306.107422 0)"/>
     <use xlink:href="#DejaVuSerif-29" transform="translate(1386.283203 0)"/>
     <use xlink:href="#DejaVuSerif-20" transform="translate(1425.296875 0)"/>
     <use xlink:href="#DejaVuSerif-2014" transform="translate(1457.083984 0)"/>
     <use xlink:href="#DejaVuSerif-20" transform="translate(1557.083984 0)"/>
     <use xlink:href="#DejaVuSerif-51" transform="translate(1588.871094 0)"/>
     <use xlink:href="#DejaVuSerif-75" transform="translate(1670.853516 0)"/>
     <use xlink:href="#DejaVuSerif-61" transform="translate(1735.257812 0)"/>
     <use xlink:href="#DejaVuSerif-6e" transform="translate(1794.876953 0)"/>
     <use xlink:href="#DejaVuSerif-74" transform="translate(1859.28125 0)"/>
     <use xlink:href="#DejaVuSerif-69" transform="translate(1899.466797 0)"/>
     <use xlink:href="#DejaVuSerif-6c" transform="translate(1931.449219 0)"/>
     <use xlink:href="#DejaVuSerif-65" transform="translate(1963.431641 0)"/>
     <use xlink:href="#DejaVuSerif-20" transform="translate(2022.611328 0)"/>
     <use xlink:href="#DejaVuSerif-42" transform="translate(2054.398438 0)"/>
     <use xlink:href="#DejaVuSerif-61" transform="translate(2127.884766 0)"/>
     <use xlink:href="#DejaVuSerif-6e" transform="translate(2187.503906 0)"/>
     <use xlink:href="#DejaVuSerif-64" transform="translate(2251.908203 0)"/>
     <use xlink:href="#DejaVuSerif-73" transform="translate(2315.921875 0)"/>
    </g>
   </g>
   <g id="line2d_30">
    <path d="M 63.798949 157.200925 
L 68.369201 157.183715 
L 72.939454 157.209584 
L 77.509706 157.23241 
L 82.079959 157.215345 
L 86.650211 157.203146 
L 91.220464 157.210499 
L 95.790717 157.213758 
L 100.360969 157.211663 
L 104.931222 157.202585 
L 109.501474 157.195512 
L 114.071727 157.215949 
L 118.641979 157.233282 
L 123.212232 157.235535 
L 127.782484 157.230398 
L 132.352737 156.959266 
L 136.922989 156.68803 
L 141.493242 156.425668 
L 146.063494 156.4026 
L 150.633747 156.418914 
L 155.203999 156.438359 
L 159.774252 156.47083 
L 164.344504 156.780532 
L 168.914757 157.08484 
L 173.485009 157.371408 
L 178.055262 157.415638 
L 182.625515 157.417981 
L 187.195767 157.409771 
L 191.76602 157.392233 
L 196.336272 157.363268 
L 200.906525 157.336859 
L 205.476777 157.316989 
L 210.04703 157.297869 
L 214.617282 157.283555 
L 219.187535 157.269615 
L 223.757787 157.269445 
L 228.32804 157.281517 
L 232.898292 157.294848 
L 237.468545 157.302233 
L 242.038797 157.301359 
L 246.60905 157.302434 
L 251.179302 157.311546 
L 255.749555 157.307381 
L 260.319807 157.311163 
L 264.89006 157.3254 
L 269.460313 157.340032 
L 274.030565 157.360151 
L 278.600818 157.375694 
L 283.17107 157.388058 
L 287.741323 157.407492 
L 292.311575 157.416659 
L 296.881828 157.403483 
L 301.45208 157.39252 
L 306.022333 157.381279 
L 310.592585 157.379028 
L 315.162838 157.369486 
L 319.73309 157.363294 
L 324.303343 157.365388 
L 328.873595 157.373251 
L 333.443848 157.379606 
L 338.0141 157.386789 
L 342.584353 157.389124 
L 347.154605 157.3997 
L 351.724858 157.407338 
L 356.29511 157.408445 
L 360.865363 157.412088 
L 365.435616 157.415418 
L 370.005868 157.422469 
L 374.576121 157.432863 
L 379.146373 157.444462 
L 383.716626 157.457439 
L 388.286878 157.473229 
L 392.857131 157.49031 
L 397.427383 157.504747 
L 401.997636 157.516141 
L 406.567888 157.502143 
L 411.138141 157.4937 
L 415.708393 157.4878 
L 420.278646 157.474991 
L 424.848898 157.45783 
L 429.419151 157.43871 
L 433.989403 157.443972 
L 438.559656 157.469429 
L 443.129908 157.479447 
L 447.700161 157.507592 
L 452.270414 157.526711 
L 456.840666 157.552354 
L 461.410919 157.566527 
L 465.981171 157.554943 
L 470.551424 157.544344 
L 475.121676 157.54076 
" clip-path="url(#p56924a2646)" style="fill: none; stroke: #cc3333; stroke-width: 1.5; stroke-linecap: square"/>
   </g>
   <g id="legend_1">
    <g id="patch_5">
     <path d="M 429.885313 66.899531 
L 490.087812 66.899531 
Q 491.687813 66.899531 491.687813 65.299531 
L 491.687813 30.758281 
Q 491.687813 29.158281 490.087812 29.158281 
L 429.885313 29.158281 
Q 428.285313 29.158281 428.285313 30.758281 
L 428.285313 65.299531 
Q 428.285313 66.899531 429.885313 66.899531 
z
" style="fill: #ffffff; opacity: 0.9; stroke: #cccccc; stroke-linejoin: miter"/>
    </g>
    <g id="patch_6">
     <path d="M 431.485313 38.437031 
L 447.485313 38.437031 
L 447.485313 32.837031 
L 431.485313 32.837031 
z
" style="fill: #b3cde3; fill-opacity: 0.4; stroke: #b3cde3; stroke-opacity: 0.4; stroke-linejoin: miter"/>
    </g>
    <g id="text_17">
     <!-- p10–p90 -->
     <g transform="translate(453.885312 38.437031) scale(0.08 -0.08)">
      <defs>
       <path id="DejaVuSerif-2013" d="M 281 1906 
L 2919 1906 
L 2919 1491 
L 281 1491 
L 281 1906 
z
" transform="scale(0.015625)"/>
       <path id="DejaVuSerif-39" d="M 2994 2091 
Q 2784 1856 2512 1740 
Q 2241 1625 1900 1625 
Q 1206 1625 804 2044 
Q 403 2463 403 3188 
Q 403 3897 839 4323 
Q 1275 4750 2003 4750 
Q 2794 4750 3217 4161 
Q 3641 3572 3641 2478 
Q 3641 1253 3137 581 
Q 2634 -91 1722 -91 
Q 1475 -91 1203 -44 
Q 931 3 647 97 
L 647 872 
L 997 872 
Q 1038 556 1241 387 
Q 1444 219 1784 219 
Q 2391 219 2687 676 
Q 2984 1134 2994 2091 
z
M 1978 4441 
Q 1534 4441 1298 4117 
Q 1063 3794 1063 3188 
Q 1063 2581 1298 2256 
Q 1534 1931 1978 1931 
Q 2422 1931 2658 2245 
Q 2894 2559 2894 3150 
Q 2894 3772 2656 4106 
Q 2419 4441 1978 4441 
z
" transform="scale(0.015625)"/>
      </defs>
      <use xlink:href="#DejaVuSerif-70"/>
      <use xlink:href="#DejaVuSerif-31" transform="translate(64.013672 0)"/>
      <use xlink:href="#DejaVuSerif-30" transform="translate(127.636719 0)"/>
      <use xlink:href="#DejaVuSerif-2013" transform="translate(191.259766 0)"/>
      <use xlink:href="#DejaVuSerif-70" transform="translate(241.259766 0)"/>
      <use xlink:href="#DejaVuSerif-39" transform="translate(305.273438 0)"/>
      <use xlink:href="#DejaVuSerif-30" transform="translate(368.896484 0)"/>
     </g>
    </g>
    <g id="line2d_31">
     <path d="M 431.485313 47.379531 
L 439.485313 47.379531 
L 447.485313 47.379531 
" style="fill: none; stroke: #6497b1; stroke-linecap: square"/>
    </g>
    <g id="text_18">
     <!-- p50 -->
     <g transform="translate(453.885312 50.179531) scale(0.08 -0.08)">
      <defs>
       <path id="DejaVuSerif-35" d="M 3219 4666 
L 3219 4153 
L 1081 4153 
L 1081 2816 
Q 1244 2928 1461 2984 
Q 1678 3041 1947 3041 
Q 2703 3041 3140 2622 
Q 3578 2203 3578 1478 
Q 3578 738 3136 323 
Q 2694 -91 1894 -91 
Q 1572 -91 1234 -12 
Q 897 66 544 225 
L 544 1131 
L 897 1131 
Q 925 688 1179 453 
Q 1434 219 1894 219 
Q 2388 219 2653 544 
Q 2919 869 2919 1478 
Q 2919 2084 2655 2407 
Q 2391 2731 1894 2731 
Q 1613 2731 1398 2631 
Q 1184 2531 1019 2322 
L 750 2322 
L 750 4666 
L 3219 4666 
z
" transform="scale(0.015625)"/>
      </defs>
      <use xlink:href="#DejaVuSerif-70"/>
      <use xlink:href="#DejaVuSerif-35" transform="translate(64.013672 0)"/>
      <use xlink:href="#DejaVuSerif-30" transform="translate(127.636719 0)"/>
     </g>
    </g>
    <g id="line2d_32">
     <path d="M 431.485313 59.122031 
L 439.485313 59.122031 
L 447.485313 59.122031 
" style="fill: none; stroke: #cc3333; stroke-width: 1.5; stroke-linecap: square"/>
    </g>
    <g id="text_19">
     <!-- 7d avg -->
     <g transform="translate(453.885312 61.922031) scale(0.08 -0.08)">
      <defs>
       <path id="DejaVuSerif-67" d="M 3359 2988 
L 3359 72 
Q 3359 -644 2965 -1033 
Q 2572 -1422 1844 -1422 
Q 1516 -1422 1216 -1362 
Q 916 -1303 641 -1184 
L 641 -488 
L 941 -488 
Q 997 -813 1206 -963 
Q 1416 -1113 1806 -1113 
Q 2313 -1113 2548 -827 
Q 2784 -541 2784 72 
L 2784 519 
Q 2616 206 2355 57 
Q 2094 -91 1709 -91 
Q 1097 -91 708 395 
Q 319 881 319 1663 
Q 319 2444 706 2928 
Q 1094 3413 1709 3413 
Q 2094 3413 2355 3264 
Q 2616 3116 2784 2803 
L 2784 3322 
L 3909 3322 
L 3909 2988 
L 3359 2988 
z
M 2784 1825 
Q 2784 2422 2554 2737 
Q 2325 3053 1888 3053 
Q 1444 3053 1217 2703 
Q 991 2353 991 1663 
Q 991 975 1217 622 
Q 1444 269 1888 269 
Q 2325 269 2554 583 
Q 2784 897 2784 1497 
L 2784 1825 
z
" transform="scale(0.015625)"/>
      </defs>
      <use xlink:href="#DejaVuSerif-37"/>
      <use xlink:href="#DejaVuSerif-64" transform="translate(63.623047 0)"/>
      <use xlink:href="#DejaVuSerif-20" transform="translate(127.636719 0)"/>
      <use xlink:href="#DejaVuSerif-61" transform="translate(159.423828 0)"/>
      <use xlink:href="#DejaVuSerif-76" transform="translate(219.042969 0)"/>
      <use xlink:href="#DejaVuSerif-67" transform="translate(275.537109 0)"/>
     </g>
    </g>
   </g>
  </g>
 </g>
 <defs>
  <clipPath id="p56924a2646">
   <rect x="43.232813" y="25.158281" width="452.455" height="138.957329"/>
  </clipPath>
 </defs>
</svg>
