<?xml version="1.0" encoding="utf-8" standalone="no"?>
<!DOCTYPE svg PUBLIC "-//W3C//DTD SVG 1.1//EN"
  "http://www.w3.org/Graphics/SVG/1.1/DTD/svg11.dtd">
<svg xmlns:xlink="http://www.w3.org/1999/xlink" width="506.785625pt" height="145.628937pt" viewBox="0 0 506.785625 145.628937" xmlns="http://www.w3.org/2000/svg" version="1.1">
 <metadata>
  <rdf:RDF xmlns:dc="http://purl.org/dc/elements/1.1/" xmlns:cc="http://creativecommons.org/ns#" xmlns:rdf="http://www.w3.org/1999/02/22-rdf-syntax-ns#">
   <cc:Work>
    <dc:type rdf:resource="http://purl.org/dc/dcmitype/StillImage"/>
    <dc:date>2026-02-16T16:57:27.755251</dc:date>
    <dc:format>image/svg+xml</dc:format>
    <dc:creator>
     <cc:Agent>
      <dc:title>Matplotlib v3.10.8, https://matplotlib.org/</dc:title>
     </cc:Agent>
    </dc:creator>
   </cc:Work>
  </rdf:RDF>
 </metadata>
 <defs>
  <style type="text/css">*{stroke-linejoin: round; stroke-linecap: butt}</style>
 </defs>
 <g id="figure_1">
  <g id="patch_1">
   <path d="M 0 145.628937 
L 506.785625 145.628937 
L 506.785625 0 
L 0 0 
z
" style="fill: #ffffff"/>
  </g>
  <g id="axes_1">
   <g id="patch_2">
    <path d="M 55.960313 106.59436 
L 466.095313 106.59436 
L 466.095313 25.158281 
L 55.960313 25.158281 
z
" style="fill: #ffffff"/>
   </g>
   <g id="matplotlib.axis_1">
    <g id="xtick_1">
     <g id="line2d_1">
      <path d="M 82.888368 106.59436 
L 82.888368 25.158281 
" clip-path="url(#pbe8d081446)" style="fill: none; stroke: #b0b0b0; stroke-opacity: 0.25; stroke-width: 0.5; stroke-linecap: square"/>
     </g>
     <g id="line2d_2">
      <defs>
       <path id="m234aae4450" d="M 0 0 
L 0 3.5 
" style="stroke: #000000; stroke-width: 0.8"/>
      </defs>
      <g>
       <use xlink:href="#m234aae4450" x="82.888368" y="106.59436" style="stroke: #000000; stroke-width: 0.8"/>
      </g>
     </g>
     <g id="text_1">
      <!-- Nov 18 -->
      <g transform="translate(56.890877 133.388087) rotate(-30) scale(0.08 -0.08)">
       <defs>
        <path id="DejaVuSerif-4e" d="M 313 0 
L 313 331 
L 941 331 
L 941 4331 
L 313 4331 
L 313 4666 
L 1509 4666 
L 4306 984 
L 4306 4331 
L 3681 4331 
L 3681 4666 
L 5319 4666 
L 5319 4331 
L 4691 4331 
L 4691 -91 
L 4313 -91 
L 1325 3841 
L 1325 331 
L 1953 331 
L 1953 0 
L 313 0 
z
" transform="scale(0.015625)"/>
        <path id="DejaVuSerif-6f" d="M 1925 219 
Q 2388 219 2623 584 
Q 2859 950 2859 1663 
Q 2859 2375 2623 2739 
Q 2388 3103 1925 3103 
Q 1463 3103 1227 2739 
Q 991 2375 991 1663 
Q 991 950 1228 584 
Q 1466 219 1925 219 
z
M 1925 -91 
Q 1200 -91 759 389 
Q 319 869 319 1663 
Q 319 2456 758 2934 
Q 1197 3413 1925 3413 
Q 2653 3413 3092 2934 
Q 3531 2456 3531 1663 
Q 3531 869 3092 389 
Q 2653 -91 1925 -91 
z
" transform="scale(0.015625)"/>
        <path id="DejaVuSerif-76" d="M 1581 0 
L 359 2988 
L -19 2988 
L -19 3322 
L 1509 3322 
L 1509 2988 
L 978 2988 
L 1913 703 
L 2847 2988 
L 2350 2988 
L 2350 3322 
L 3597 3322 
L 3597 2988 
L 3225 2988 
L 2003 0 
L 1581 0 
z
" transform="scale(0.015625)"/>
        <path id="DejaVuSerif-20" transform="scale(0.015625)"/>
        <path id="DejaVuSerif-31" d="M 909 0 
L 909 331 
L 1722 331 
L 1722 4213 
L 781 3603 
L 781 4013 
L 1919 4750 
L 2350 4750 
L 2350 331 
L 3163 331 
L 3163 0 
L 909 0 
z
" transform="scale(0.015625)"/>
        <path id="DejaVuSerif-38" d="M 2981 1275 
Q 2981 1775 2732 2051 
Q 2484 2328 2034 2328 
Q 1584 2328 1336 2051 
Q 1088 1775 1088 1275 
Q 1088 772 1336 495 
Q 1584 219 2034 219 
Q 2484 219 2732 495 
Q 2981 772 2981 1275 
z
M 2853 3541 
Q 2853 3966 2637 4203 
Q 2422 4441 2034 4441 
Q 1650 4441 1433 4203 
Q 1216 3966 1216 3541 
Q 1216 3113 1433 2875 
Q 1650 2638 2034 2638 
Q 2422 2638 2637 2875 
Q 2853 3113 2853 3541 
z
M 2516 2484 
Q 3047 2413 3344 2092 
Q 3641 1772 3641 1275 
Q 3641 619 3225 264 
Q 2809 -91 2034 -91 
Q 1263 -91 845 264 
Q 428 619 428 1275 
Q 428 1772 725 2092 
Q 1022 2413 1556 2484 
Q 1084 2569 832 2842 
Q 581 3116 581 3541 
Q 581 4103 968 4426 
Q 1356 4750 2034 4750 
Q 2713 4750 3100 4426 
Q 3488 4103 3488 3541 
Q 3488 3116 3236 2842 
Q 2984 2569 2516 2484 
z
" transform="scale(0.015625)"/>
       </defs>
       <use xlink:href="#DejaVuSerif-4e"/>
       <use xlink:href="#DejaVuSerif-6f" transform="translate(87.5 0)"/>
       <use xlink:href="#DejaVuSerif-76" transform="translate(147.705078 0)"/>
       <use xlink:href="#DejaVuSerif-20" transform="translate(204.199219 0)"/>
       <use xlink:href="#DejaVuSerif-31" transform="translate(235.986328 0)"/>
       <use xlink:href="#DejaVuSerif-38" transform="translate(299.609375 0)"/>
      </g>
     </g>
    </g>
    <g id="xtick_2">
     <g id="line2d_3">
      <path d="M 140.887257 106.59436 
L 140.887257 25.158281 
" clip-path="url(#pbe8d081446)" style="fill: none; stroke: #b0b0b0; stroke-opacity: 0.25; stroke-width: 0.5; stroke-linecap: square"/>
     </g>
     <g id="line2d_4">
      <g>
       <use xlink:href="#m234aae4450" x="140.887257" y="106.59436" style="stroke: #000000; stroke-width: 0.8"/>
      </g>
     </g>
     <g id="text_2">
      <!-- Dec 02 -->
      <g transform="translate(115.502479 133.034337) rotate(-30) scale(0.08 -0.08)">
       <defs>
        <path id="DejaVuSerif-44" d="M 1581 331 
L 2163 331 
Q 3072 331 3558 850 
Q 4044 1369 4044 2338 
Q 4044 3306 3559 3818 
Q 3075 4331 2163 4331 
L 1581 4331 
L 1581 331 
z
M 353 0 
L 353 331 
L 947 331 
L 947 4331 
L 353 4331 
L 353 4666 
L 2209 4666 
Q 3416 4666 4089 4050 
Q 4763 3434 4763 2338 
Q 4763 1238 4088 619 
Q 3413 0 2209 0 
L 353 0 
z
" transform="scale(0.015625)"/>
        <path id="DejaVuSerif-65" d="M 3469 1600 
L 991 1600 
L 991 1575 
Q 991 903 1244 561 
Q 1497 219 1991 219 
Q 2369 219 2611 417 
Q 2853 616 2950 1006 
L 3413 1006 
Q 3275 459 2904 184 
Q 2534 -91 1931 -91 
Q 1203 -91 761 389 
Q 319 869 319 1663 
Q 319 2450 753 2931 
Q 1188 3413 1894 3413 
Q 2647 3413 3050 2948 
Q 3453 2484 3469 1600 
z
M 2791 1931 
Q 2772 2513 2545 2808 
Q 2319 3103 1894 3103 
Q 1497 3103 1269 2806 
Q 1041 2509 991 1931 
L 2791 1931 
z
" transform="scale(0.015625)"/>
        <path id="DejaVuSerif-63" d="M 3291 997 
Q 3169 466 2822 187 
Q 2475 -91 1925 -91 
Q 1200 -91 759 389 
Q 319 869 319 1663 
Q 319 2459 759 2936 
Q 1200 3413 1925 3413 
Q 2241 3413 2553 3339 
Q 2866 3266 3181 3116 
L 3181 2266 
L 2847 2266 
Q 2781 2703 2561 2903 
Q 2341 3103 1931 3103 
Q 1466 3103 1228 2742 
Q 991 2381 991 1663 
Q 991 944 1227 581 
Q 1463 219 1931 219 
Q 2303 219 2525 412 
Q 2747 606 2828 997 
L 3291 997 
z
" transform="scale(0.015625)"/>
        <path id="DejaVuSerif-30" d="M 2034 219 
Q 2513 219 2750 744 
Q 2988 1269 2988 2328 
Q 2988 3391 2750 3916 
Q 2513 4441 2034 4441 
Q 1556 4441 1318 3916 
Q 1081 3391 1081 2328 
Q 1081 1269 1318 744 
Q 1556 219 2034 219 
z
M 2034 -91 
Q 1275 -91 848 546 
Q 422 1184 422 2328 
Q 422 3475 848 4112 
Q 1275 4750 2034 4750 
Q 2797 4750 3222 4112 
Q 3647 3475 3647 2328 
Q 3647 1184 3222 546 
Q 2797 -91 2034 -91 
z
" transform="scale(0.015625)"/>
        <path id="DejaVuSerif-32" d="M 819 3553 
L 469 3553 
L 469 4384 
Q 803 4563 1142 4656 
Q 1481 4750 1806 4750 
Q 2534 4750 2956 4397 
Q 3378 4044 3378 3438 
Q 3378 2753 2422 1800 
Q 2347 1728 2309 1691 
L 1131 513 
L 3078 513 
L 3078 1088 
L 3444 1088 
L 3444 0 
L 434 0 
L 434 341 
L 1850 1753 
Q 2319 2222 2519 2614 
Q 2719 3006 2719 3438 
Q 2719 3909 2473 4175 
Q 2228 4441 1797 4441 
Q 1350 4441 1106 4219 
Q 863 3997 819 3553 
z
" transform="scale(0.015625)"/>
       </defs>
       <use xlink:href="#DejaVuSerif-44"/>
       <use xlink:href="#DejaVuSerif-65" transform="translate(80.175781 0)"/>
       <use xlink:href="#DejaVuSerif-63" transform="translate(139.355469 0)"/>
       <use xlink:href="#DejaVuSerif-20" transform="translate(195.361328 0)"/>
       <use xlink:href="#DejaVuSerif-30" transform="translate(227.148438 0)"/>
       <use xlink:href="#DejaVuSerif-32" transform="translate(290.771484 0)"/>
      </g>
     </g>
    </g>
    <g id="xtick_3">
     <g id="line2d_5">
      <path d="M 198.886146 106.59436 
L 198.886146 25.158281 
" clip-path="url(#pbe8d081446)" style="fill: none; stroke: #b0b0b0; stroke-opacity: 0.25; stroke-width: 0.5; stroke-linecap: square"/>
     </g>
     <g id="line2d_6">
      <g>
       <use xlink:href="#m234aae4450" x="198.886146" y="106.59436" style="stroke: #000000; stroke-width: 0.8"/>
      </g>
     </g>
     <g id="text_3">
      <!-- Dec 16 -->
      <g transform="translate(173.501368 133.034337) rotate(-30) scale(0.08 -0.08)">
       <defs>
        <path id="DejaVuSerif-36" d="M 2094 219 
Q 2534 219 2771 542 
Q 3009 866 3009 1472 
Q 3009 2078 2771 2401 
Q 2534 2725 2094 2725 
Q 1647 2725 1412 2412 
Q 1178 2100 1178 1509 
Q 1178 888 1415 553 
Q 1653 219 2094 219 
z
M 1075 2569 
Q 1288 2803 1556 2918 
Q 1825 3034 2163 3034 
Q 2859 3034 3264 2615 
Q 3669 2197 3669 1472 
Q 3669 763 3233 336 
Q 2797 -91 2069 -91 
Q 1278 -91 853 498 
Q 428 1088 428 2181 
Q 428 3406 931 4078 
Q 1434 4750 2350 4750 
Q 2597 4750 2869 4703 
Q 3141 4656 3425 4563 
L 3425 3794 
L 3072 3794 
Q 3034 4109 2831 4275 
Q 2628 4441 2284 4441 
Q 1678 4441 1381 3981 
Q 1084 3522 1075 2569 
z
" transform="scale(0.015625)"/>
       </defs>
       <use xlink:href="#DejaVuSerif-44"/>
       <use xlink:href="#DejaVuSerif-65" transform="translate(80.175781 0)"/>
       <use xlink:href="#DejaVuSerif-63" transform="translate(139.355469 0)"/>
       <use xlink:href="#DejaVuSerif-20" transform="translate(195.361328 0)"/>
       <use xlink:href="#DejaVuSerif-31" transform="translate(227.148438 0)"/>
       <use xlink:href="#DejaVuSerif-36" transform="translate(290.771484 0)"/>
      </g>
     </g>
    </g>
    <g id="xtick_4">
     <g id="line2d_7">
      <path d="M 256.885035 106.59436 
L 256.885035 25.158281 
" clip-path="url(#pbe8d081446)" style="fill: none; stroke: #b0b0b0; stroke-opacity: 0.25; stroke-width: 0.5; stroke-linecap: square"/>
     </g>
     <g id="line2d_8">
      <g>
       <use xlink:href="#m234aae4450" x="256.885035" y="106.59436" style="stroke: #000000; stroke-width: 0.8"/>
      </g>
     </g>
     <g id="text_4">
      <!-- Dec 30 -->
      <g transform="translate(231.500257 133.034337) rotate(-30) scale(0.08 -0.08)">
       <defs>
        <path id="DejaVuSerif-33" d="M 622 4469 
Q 988 4606 1323 4678 
Q 1659 4750 1953 4750 
Q 2638 4750 3022 4454 
Q 3406 4159 3406 3634 
Q 3406 3213 3140 2930 
Q 2875 2647 2388 2547 
Q 2963 2466 3280 2130 
Q 3597 1794 3597 1259 
Q 3597 606 3158 257 
Q 2719 -91 1894 -91 
Q 1528 -91 1179 -12 
Q 831 66 488 225 
L 488 1131 
L 838 1131 
Q 869 681 1141 450 
Q 1413 219 1906 219 
Q 2384 219 2661 495 
Q 2938 772 2938 1253 
Q 2938 1803 2653 2086 
Q 2369 2369 1819 2369 
L 1522 2369 
L 1522 2688 
L 1678 2688 
Q 2225 2688 2498 2914 
Q 2772 3141 2772 3597 
Q 2772 4006 2547 4223 
Q 2322 4441 1900 4441 
Q 1478 4441 1245 4241 
Q 1013 4041 972 3647 
L 622 3647 
L 622 4469 
z
" transform="scale(0.015625)"/>
       </defs>
       <use xlink:href="#DejaVuSerif-44"/>
       <use xlink:href="#DejaVuSerif-65" transform="translate(80.175781 0)"/>
       <use xlink:href="#DejaVuSerif-63" transform="translate(139.355469 0)"/>
       <use xlink:href="#DejaVuSerif-20" transform="translate(195.361328 0)"/>
       <use xlink:href="#DejaVuSerif-33" transform="translate(227.148438 0)"/>
       <use xlink:href="#DejaVuSerif-30" transform="translate(290.771484 0)"/>
      </g>
     </g>
    </g>
    <g id="xtick_5">
     <g id="line2d_9">
      <path d="M 314.883924 106.59436 
L 314.883924 25.158281 
" clip-path="url(#pbe8d081446)" style="fill: none; stroke: #b0b0b0; stroke-opacity: 0.25; stroke-width: 0.5; stroke-linecap: square"/>
     </g>
     <g id="line2d_10">
      <g>
       <use xlink:href="#m234aae4450" x="314.883924" y="106.59436" style="stroke: #000000; stroke-width: 0.8"/>
      </g>
     </g>
     <g id="text_5">
      <!-- Jan 13 -->
      <g transform="translate(291.663127 131.784962) rotate(-30) scale(0.08 -0.08)">
       <defs>
        <path id="DejaVuSerif-4a" d="M -538 -1119 
L -538 -384 
L -181 -384 
Q -172 -694 -34 -845 
Q 103 -997 378 -997 
Q 750 -997 897 -762 
Q 1044 -528 1044 153 
L 1044 4331 
L 319 4331 
L 319 4666 
L 2272 4666 
L 2272 4331 
L 1678 4331 
L 1678 128 
Q 1678 -644 1368 -987 
Q 1059 -1331 372 -1331 
Q 150 -1331 -79 -1278 
Q -309 -1225 -538 -1119 
z
" transform="scale(0.015625)"/>
        <path id="DejaVuSerif-61" d="M 2547 1044 
L 2547 1747 
L 1806 1747 
Q 1378 1747 1168 1562 
Q 959 1378 959 997 
Q 959 650 1171 447 
Q 1384 244 1747 244 
Q 2106 244 2326 466 
Q 2547 688 2547 1044 
z
M 3122 2075 
L 3122 331 
L 3634 331 
L 3634 0 
L 2547 0 
L 2547 359 
Q 2356 128 2106 18 
Q 1856 -91 1522 -91 
Q 969 -91 644 203 
Q 319 497 319 997 
Q 319 1513 691 1797 
Q 1063 2081 1741 2081 
L 2547 2081 
L 2547 2309 
Q 2547 2688 2317 2895 
Q 2088 3103 1672 3103 
Q 1328 3103 1125 2947 
Q 922 2791 872 2484 
L 575 2484 
L 575 3156 
Q 875 3284 1158 3348 
Q 1441 3413 1709 3413 
Q 2400 3413 2761 3070 
Q 3122 2728 3122 2075 
z
" transform="scale(0.015625)"/>
        <path id="DejaVuSerif-6e" d="M 263 0 
L 263 331 
L 781 331 
L 781 2988 
L 231 2988 
L 231 3322 
L 1356 3322 
L 1356 2731 
Q 1516 3069 1770 3241 
Q 2025 3413 2363 3413 
Q 2913 3413 3172 3097 
Q 3431 2781 3431 2113 
L 3431 331 
L 3944 331 
L 3944 0 
L 2356 0 
L 2356 331 
L 2853 331 
L 2853 1931 
Q 2853 2541 2703 2767 
Q 2553 2994 2175 2994 
Q 1775 2994 1565 2701 
Q 1356 2409 1356 1850 
L 1356 331 
L 1856 331 
L 1856 0 
L 263 0 
z
" transform="scale(0.015625)"/>
       </defs>
       <use xlink:href="#DejaVuSerif-4a"/>
       <use xlink:href="#DejaVuSerif-61" transform="translate(40.087891 0)"/>
       <use xlink:href="#DejaVuSerif-6e" transform="translate(99.707031 0)"/>
       <use xlink:href="#DejaVuSerif-20" transform="translate(164.111328 0)"/>
       <use xlink:href="#DejaVuSerif-31" transform="translate(195.898438 0)"/>
       <use xlink:href="#DejaVuSerif-33" transform="translate(259.521484 0)"/>
      </g>
     </g>
    </g>
    <g id="xtick_6">
     <g id="line2d_11">
      <path d="M 372.882813 106.59436 
L 372.882813 25.158281 
" clip-path="url(#pbe8d081446)" style="fill: none; stroke: #b0b0b0; stroke-opacity: 0.25; stroke-width: 0.5; stroke-linecap: square"/>
     </g>
     <g id="line2d_12">
      <g>
       <use xlink:href="#m234aae4450" x="372.882813" y="106.59436" style="stroke: #000000; stroke-width: 0.8"/>
      </g>
     </g>
     <g id="text_6">
      <!-- Jan 27 -->
      <g transform="translate(349.662016 131.784962) rotate(-30) scale(0.08 -0.08)">
       <defs>
        <path id="DejaVuSerif-37" d="M 3609 4347 
L 1784 0 
L 1319 0 
L 3059 4153 
L 903 4153 
L 903 3578 
L 538 3578 
L 538 4666 
L 3609 4666 
L 3609 4347 
z
" transform="scale(0.015625)"/>
       </defs>
       <use xlink:href="#DejaVuSerif-4a"/>
       <use xlink:href="#DejaVuSerif-61" transform="translate(40.087891 0)"/>
       <use xlink:href="#DejaVuSerif-6e" transform="translate(99.707031 0)"/>
       <use xlink:href="#DejaVuSerif-20" transform="translate(164.111328 0)"/>
       <use xlink:href="#DejaVuSerif-32" transform="translate(195.898438 0)"/>
       <use xlink:href="#DejaVuSerif-37" transform="translate(259.521484 0)"/>
      </g>
     </g>
    </g>
    <g id="xtick_7">
     <g id="line2d_13">
      <path d="M 430.881701 106.59436 
L 430.881701 25.158281 
" clip-path="url(#pbe8d081446)" style="fill: none; stroke: #b0b0b0; stroke-opacity: 0.25; stroke-width: 0.5; stroke-linecap: square"/>
     </g>
     <g id="line2d_14">
      <g>
       <use xlink:href="#m234aae4450" x="430.881701" y="106.59436" style="stroke: #000000; stroke-width: 0.8"/>
      </g>
     </g>
     <g id="text_7">
      <!-- Feb 10 -->
      <g transform="translate(406.069583 132.703712) rotate(-30) scale(0.08 -0.08)">
       <defs>
        <path id="DejaVuSerif-46" d="M 353 0 
L 353 331 
L 947 331 
L 947 4331 
L 353 4331 
L 353 4666 
L 4172 4666 
L 4172 3628 
L 3788 3628 
L 3788 4281 
L 1581 4281 
L 1581 2719 
L 3175 2719 
L 3175 3303 
L 3559 3303 
L 3559 1753 
L 3175 1753 
L 3175 2338 
L 1581 2338 
L 1581 331 
L 2328 331 
L 2328 0 
L 353 0 
z
" transform="scale(0.015625)"/>
        <path id="DejaVuSerif-62" d="M 738 331 
L 738 4531 
L 184 4531 
L 184 4863 
L 1313 4863 
L 1313 2803 
Q 1481 3116 1742 3264 
Q 2003 3413 2388 3413 
Q 3000 3413 3387 2928 
Q 3775 2444 3775 1663 
Q 3775 881 3387 395 
Q 3000 -91 2388 -91 
Q 2003 -91 1742 57 
Q 1481 206 1313 519 
L 1313 0 
L 184 0 
L 184 331 
L 738 331 
z
M 1313 1497 
Q 1313 897 1542 583 
Q 1772 269 2209 269 
Q 2650 269 2876 622 
Q 3103 975 3103 1663 
Q 3103 2353 2876 2703 
Q 2650 3053 2209 3053 
Q 1772 3053 1542 2737 
Q 1313 2422 1313 1825 
L 1313 1497 
z
" transform="scale(0.015625)"/>
       </defs>
       <use xlink:href="#DejaVuSerif-46"/>
       <use xlink:href="#DejaVuSerif-65" transform="translate(63.884766 0)"/>
       <use xlink:href="#DejaVuSerif-62" transform="translate(123.064453 0)"/>
       <use xlink:href="#DejaVuSerif-20" transform="translate(187.078125 0)"/>
       <use xlink:href="#DejaVuSerif-31" transform="translate(218.865234 0)"/>
       <use xlink:href="#DejaVuSerif-30" transform="translate(282.488281 0)"/>
      </g>
     </g>
    </g>
   </g>
   <g id="matplotlib.axis_2">
    <g id="ytick_1">
     <g id="line2d_15">
      <path d="M 55.960313 103.085819 
L 466.095313 103.085819 
" clip-path="url(#pbe8d081446)" style="fill: none; stroke: #b0b0b0; stroke-opacity: 0.25; stroke-width: 0.5; stroke-linecap: square"/>
     </g>
     <g id="line2d_16">
      <defs>
       <path id="m397c14a877" d="M 0 0 
L -3.5 0 
" style="stroke: #000000; stroke-width: 0.8"/>
      </defs>
      <g>
       <use xlink:href="#m397c14a877" x="55.960313" y="103.085819" style="stroke: #000000; stroke-width: 0.8"/>
      </g>
     </g>
     <g id="text_8">
      <!-- 0 -->
      <g style="fill: #2d5f91" transform="translate(43.870312 106.125194) scale(0.08 -0.08)">
       <use xlink:href="#DejaVuSerif-30"/>
      </g>
     </g>
    </g>
    <g id="ytick_2">
     <g id="line2d_17">
      <path d="M 55.960313 73.744604 
L 466.095313 73.744604 
" clip-path="url(#pbe8d081446)" style="fill: none; stroke: #b0b0b0; stroke-opacity: 0.25; stroke-width: 0.5; stroke-linecap: square"/>
     </g>
     <g id="line2d_18">
      <g>
       <use xlink:href="#m397c14a877" x="55.960313" y="73.744604" style="stroke: #000000; stroke-width: 0.8"/>
      </g>
     </g>
     <g id="text_9">
      <!-- 5000 -->
      <g style="fill: #2d5f91" transform="translate(28.600313 76.783979) scale(0.08 -0.08)">
       <defs>
        <path id="DejaVuSerif-35" d="M 3219 4666 
L 3219 4153 
L 1081 4153 
L 1081 2816 
Q 1244 2928 1461 2984 
Q 1678 3041 1947 3041 
Q 2703 3041 3140 2622 
Q 3578 2203 3578 1478 
Q 3578 738 3136 323 
Q 2694 -91 1894 -91 
Q 1572 -91 1234 -12 
Q 897 66 544 225 
L 544 1131 
L 897 1131 
Q 925 688 1179 453 
Q 1434 219 1894 219 
Q 2388 219 2653 544 
Q 2919 869 2919 1478 
Q 2919 2084 2655 2407 
Q 2391 2731 1894 2731 
Q 1613 2731 1398 2631 
Q 1184 2531 1019 2322 
L 750 2322 
L 750 4666 
L 3219 4666 
z
" transform="scale(0.015625)"/>
       </defs>
       <use xlink:href="#DejaVuSerif-35"/>
       <use xlink:href="#DejaVuSerif-30" transform="translate(63.623047 0)"/>
       <use xlink:href="#DejaVuSerif-30" transform="translate(127.246094 0)"/>
       <use xlink:href="#DejaVuSerif-30" transform="translate(190.869141 0)"/>
      </g>
     </g>
    </g>
    <g id="ytick_3">
     <g id="line2d_19">
      <path d="M 55.960313 44.403389 
L 466.095313 44.403389 
" clip-path="url(#pbe8d081446)" style="fill: none; stroke: #b0b0b0; stroke-opacity: 0.25; stroke-width: 0.5; stroke-linecap: square"/>
     </g>
     <g id="line2d_20">
      <g>
       <use xlink:href="#m397c14a877" x="55.960313" y="44.403389" style="stroke: #000000; stroke-width: 0.8"/>
      </g>
     </g>
     <g id="text_10">
      <!-- 10000 -->
      <g style="fill: #2d5f91" transform="translate(23.510313 47.442764) scale(0.08 -0.08)">
       <use xlink:href="#DejaVuSerif-31"/>
       <use xlink:href="#DejaVuSerif-30" transform="translate(63.623047 0)"/>
       <use xlink:href="#DejaVuSerif-30" transform="translate(127.246094 0)"/>
       <use xlink:href="#DejaVuSerif-30" transform="translate(190.869141 0)"/>
       <use xlink:href="#DejaVuSerif-30" transform="translate(254.492188 0)"/>
      </g>
     </g>
    </g>
    <g id="text_11">
     <!-- MiB -->
     <g style="fill: #2d5f91" transform="translate(17.638594 75.229993) rotate(-90) scale(0.09 -0.09)">
      <defs>
       <path id="DejaVuSerif-4d" d="M 353 0 
L 353 331 
L 947 331 
L 947 4331 
L 319 4331 
L 319 4666 
L 1678 4666 
L 3316 1344 
L 4953 4666 
L 6228 4666 
L 6228 4331 
L 5606 4331 
L 5606 331 
L 6203 331 
L 6203 0 
L 4378 0 
L 4378 331 
L 4972 331 
L 4972 3938 
L 3372 684 
L 2931 684 
L 1331 3938 
L 1331 331 
L 1925 331 
L 1925 0 
L 353 0 
z
" transform="scale(0.015625)"/>
       <path id="DejaVuSerif-69" d="M 622 4353 
Q 622 4497 726 4603 
Q 831 4709 978 4709 
Q 1122 4709 1226 4603 
Q 1331 4497 1331 4353 
Q 1331 4206 1228 4103 
Q 1125 4000 978 4000 
Q 831 4000 726 4103 
Q 622 4206 622 4353 
z
M 1356 331 
L 1900 331 
L 1900 0 
L 231 0 
L 231 331 
L 781 331 
L 781 2988 
L 231 2988 
L 231 3322 
L 1356 3322 
L 1356 331 
z
" transform="scale(0.015625)"/>
       <path id="DejaVuSerif-42" d="M 1581 331 
L 2516 331 
Q 3078 331 3337 575 
Q 3597 819 3597 1350 
Q 3597 1878 3339 2120 
Q 3081 2363 2516 2363 
L 1581 2363 
L 1581 331 
z
M 1581 2694 
L 2375 2694 
Q 2888 2694 3123 2891 
Q 3359 3088 3359 3513 
Q 3359 3941 3123 4136 
Q 2888 4331 2375 4331 
L 1581 4331 
L 1581 2694 
z
M 353 0 
L 353 331 
L 947 331 
L 947 4331 
L 353 4331 
L 353 4666 
L 2656 4666 
Q 3363 4666 3720 4377 
Q 4078 4088 4078 3513 
Q 4078 3097 3829 2850 
Q 3581 2603 3103 2547 
Q 3697 2472 4005 2167 
Q 4313 1863 4313 1350 
Q 4313 656 3875 328 
Q 3438 0 2509 0 
L 353 0 
z
" transform="scale(0.015625)"/>
      </defs>
      <use xlink:href="#DejaVuSerif-4d"/>
      <use xlink:href="#DejaVuSerif-69" transform="translate(102.392578 0)"/>
      <use xlink:href="#DejaVuSerif-42" transform="translate(134.375 0)"/>
     </g>
    </g>
   </g>
   <g id="line2d_21">
    <path d="M 74.602813 102.89272 
L 78.74559 102.201433 
L 82.888368 101.560553 
L 87.031146 100.965704 
L 91.173924 100.3091 
L 95.316701 99.76197 
L 99.459479 99.291432 
L 103.602257 98.880367 
L 107.745035 98.371705 
L 111.887813 97.837844 
L 116.03059 97.417868 
L 120.173368 96.972399 
L 124.316146 96.375627 
L 128.458924 96.023042 
L 132.601701 95.584127 
L 136.744479 95.28839 
L 140.887257 95.020078 
L 145.030035 94.757593 
L 149.172813 94.435317 
L 153.31559 92.117135 
L 157.458368 88.347262 
L 161.601146 84.575411 
L 165.743924 80.769761 
L 169.886701 76.872086 
L 174.029479 73.065291 
L 178.172257 69.163152 
L 182.315035 67.64156 
L 186.457813 66.748874 
L 190.60059 66.020802 
L 194.743368 65.227952 
L 198.886146 64.407567 
L 203.028924 63.583154 
L 207.171701 62.872773 
L 211.314479 62.192317 
L 215.457257 61.563691 
L 219.600035 60.87725 
L 223.742813 60.161639 
L 227.88559 59.423577 
L 232.028368 58.716346 
L 236.171146 58.029486 
L 240.313924 57.285228 
L 244.456701 56.568006 
L 248.599479 55.951555 
L 252.742257 55.231055 
L 256.885035 54.445618 
L 261.027813 53.709452 
L 265.17059 52.959485 
L 269.313368 52.253969 
L 273.456146 51.521306 
L 277.598924 50.799261 
L 281.741701 50.097724 
L 285.884479 49.547457 
L 290.027257 48.891252 
L 294.170035 48.086839 
L 298.312813 47.597683 
L 302.45559 47.48168 
L 306.598368 47.36492 
L 310.741146 47.232642 
L 314.883924 44.093648 
L 319.026701 43.247885 
L 323.169479 42.462378 
L 327.312257 41.754462 
L 331.455035 40.930215 
L 335.597813 40.204762 
L 339.74059 39.35437 
L 343.883368 38.52719 
L 348.026146 37.78526 
L 352.168924 36.97025 
L 356.311701 36.224901 
L 360.454479 35.477663 
L 364.597257 34.736321 
L 368.740035 33.923534 
L 372.882813 33.01817 
L 377.02559 32.206599 
L 381.168368 31.536544 
L 385.311146 31.352603 
L 389.453924 31.148582 
L 393.596701 30.950461 
L 397.739479 30.76822 
L 401.882257 30.592116 
L 406.025035 30.432258 
L 410.167813 30.20386 
L 414.31059 30.026952 
L 418.453368 29.861215 
L 422.596146 29.722177 
L 426.738924 29.547568 
L 430.881701 29.352898 
L 435.024479 29.216065 
L 439.167257 29.072564 
L 443.310035 28.92748 
L 447.452813 28.859921 
" clip-path="url(#pbe8d081446)" style="fill: none; stroke: #2d5f91; stroke-width: 1.5; stroke-linecap: square"/>
   </g>
   <g id="patch_3">
    <path d="M 55.960313 106.59436 
L 55.960313 25.158281 
" style="fill: none; stroke: #000000; stroke-width: 0.6; stroke-linejoin: miter; stroke-linecap: square"/>
   </g>
   <g id="patch_4">
    <path d="M 55.960313 106.59436 
L 466.095313 106.59436 
" style="fill: none; stroke: #000000; stroke-width: 0.6; stroke-linejoin: miter; stroke-linecap: square"/>
   </g>
   <g id="text_12">
    <!-- Avail — Cumulative Data &amp; Spend -->
    <g transform="translate(165.570156 19.158281) scale(0.11 -0.11)">
     <defs>
      <path id="DejaVuSerif-41" d="M 1281 1691 
L 2994 1691 
L 2138 3909 
L 1281 1691 
z
M -38 0 
L -38 331 
L 372 331 
L 2034 4666 
L 2559 4666 
L 4225 331 
L 4684 331 
L 4684 0 
L 2988 0 
L 2988 331 
L 3506 331 
L 3116 1356 
L 1153 1356 
L 763 331 
L 1275 331 
L 1275 0 
L -38 0 
z
" transform="scale(0.015625)"/>
      <path id="DejaVuSerif-6c" d="M 1313 331 
L 1856 331 
L 1856 0 
L 184 0 
L 184 331 
L 738 331 
L 738 4531 
L 184 4531 
L 184 4863 
L 1313 4863 
L 1313 331 
z
" transform="scale(0.015625)"/>
      <path id="DejaVuSerif-2014" d="M 281 1906 
L 6119 1906 
L 6119 1491 
L 281 1491 
L 281 1906 
z
" transform="scale(0.015625)"/>
      <path id="DejaVuSerif-43" d="M 4513 1234 
Q 4306 581 3820 245 
Q 3334 -91 2591 -91 
Q 2134 -91 1743 65 
Q 1353 222 1050 525 
Q 700 875 529 1320 
Q 359 1766 359 2328 
Q 359 3416 987 4083 
Q 1616 4750 2644 4750 
Q 3025 4750 3456 4650 
Q 3888 4550 4384 4347 
L 4384 3272 
L 4031 3272 
Q 3916 3859 3567 4137 
Q 3219 4416 2591 4416 
Q 1844 4416 1459 3886 
Q 1075 3356 1075 2328 
Q 1075 1303 1459 773 
Q 1844 244 2591 244 
Q 3113 244 3450 492 
Q 3788 741 3938 1234 
L 4513 1234 
z
" transform="scale(0.015625)"/>
      <path id="DejaVuSerif-75" d="M 2266 3322 
L 3341 3322 
L 3341 331 
L 3884 331 
L 3884 0 
L 2766 0 
L 2766 588 
Q 2606 256 2353 82 
Q 2100 -91 1766 -91 
Q 1213 -91 952 223 
Q 691 538 691 1209 
L 691 2988 
L 172 2988 
L 172 3322 
L 1269 3322 
L 1269 1388 
Q 1269 781 1417 556 
Q 1566 331 1947 331 
Q 2347 331 2556 625 
Q 2766 919 2766 1478 
L 2766 2988 
L 2266 2988 
L 2266 3322 
z
" transform="scale(0.015625)"/>
      <path id="DejaVuSerif-6d" d="M 3316 2675 
Q 3481 3041 3739 3227 
Q 3997 3413 4341 3413 
Q 4863 3413 5119 3089 
Q 5375 2766 5375 2113 
L 5375 331 
L 5894 331 
L 5894 0 
L 4300 0 
L 4300 331 
L 4800 331 
L 4800 2047 
Q 4800 2556 4650 2772 
Q 4500 2988 4153 2988 
Q 3769 2988 3567 2697 
Q 3366 2406 3366 1850 
L 3366 331 
L 3866 331 
L 3866 0 
L 2291 0 
L 2291 331 
L 2791 331 
L 2791 2069 
Q 2791 2566 2641 2777 
Q 2491 2988 2144 2988 
Q 1759 2988 1557 2697 
Q 1356 2406 1356 1850 
L 1356 331 
L 1856 331 
L 1856 0 
L 263 0 
L 263 331 
L 781 331 
L 781 2994 
L 231 2994 
L 231 3322 
L 1356 3322 
L 1356 2731 
Q 1516 3063 1762 3238 
Q 2009 3413 2322 3413 
Q 2709 3413 2968 3220 
Q 3228 3028 3316 2675 
z
" transform="scale(0.015625)"/>
      <path id="DejaVuSerif-74" d="M 691 2988 
L 184 2988 
L 184 3322 
L 691 3322 
L 691 4353 
L 1269 4353 
L 1269 3322 
L 2350 3322 
L 2350 2988 
L 1269 2988 
L 1269 878 
Q 1269 456 1350 337 
Q 1431 219 1650 219 
Q 1875 219 1978 351 
Q 2081 484 2088 781 
L 2522 781 
Q 2497 328 2275 118 
Q 2053 -91 1600 -91 
Q 1103 -91 897 129 
Q 691 350 691 878 
L 691 2988 
z
" transform="scale(0.015625)"/>
      <path id="DejaVuSerif-26" d="M 3456 722 
L 1638 2638 
Q 1366 2394 1230 2111 
Q 1094 1828 1094 1509 
Q 1094 991 1453 639 
Q 1813 288 2350 288 
Q 2669 288 2951 398 
Q 3234 509 3456 722 
z
M 5394 0 
L 4141 0 
L 3713 453 
Q 3384 178 3012 43 
Q 2641 -91 2209 -91 
Q 1403 -91 931 321 
Q 459 734 459 1441 
Q 459 1856 698 2217 
Q 938 2578 1422 2894 
Q 1263 3084 1188 3273 
Q 1113 3463 1113 3669 
Q 1113 4166 1470 4458 
Q 1828 4750 2444 4750 
Q 2653 4750 2933 4697 
Q 3213 4644 3572 4538 
L 3572 3731 
L 3219 3731 
Q 3175 4066 2975 4241 
Q 2775 4416 2431 4416 
Q 2109 4416 1909 4239 
Q 1709 4063 1709 3781 
Q 1709 3591 1815 3402 
Q 1922 3213 2259 2859 
L 3872 1159 
Q 4088 1409 4211 1698 
Q 4334 1988 4366 2316 
L 3803 2316 
L 3803 2650 
L 5281 2650 
L 5281 2316 
L 4744 2316 
Q 4691 1909 4536 1556 
Q 4381 1203 4122 903 
L 4659 331 
L 5394 331 
L 5394 0 
z
" transform="scale(0.015625)"/>
      <path id="DejaVuSerif-53" d="M 594 225 
L 594 1288 
L 953 1284 
Q 969 753 1261 498 
Q 1553 244 2150 244 
Q 2706 244 2998 464 
Q 3291 684 3291 1106 
Q 3291 1444 3114 1625 
Q 2938 1806 2369 1978 
L 1753 2163 
Q 1084 2366 811 2669 
Q 538 2972 538 3500 
Q 538 4094 959 4422 
Q 1381 4750 2144 4750 
Q 2469 4750 2856 4679 
Q 3244 4609 3681 4475 
L 3681 3481 
L 3328 3481 
Q 3275 3975 2998 4195 
Q 2722 4416 2156 4416 
Q 1663 4416 1405 4214 
Q 1147 4013 1147 3628 
Q 1147 3294 1340 3103 
Q 1534 2913 2163 2725 
L 2741 2553 
Q 3375 2363 3645 2067 
Q 3916 1772 3916 1275 
Q 3916 597 3481 253 
Q 3047 -91 2188 -91 
Q 1803 -91 1404 -12 
Q 1006 66 594 225 
z
" transform="scale(0.015625)"/>
      <path id="DejaVuSerif-70" d="M 1313 1825 
L 1313 1497 
Q 1313 897 1542 583 
Q 1772 269 2209 269 
Q 2650 269 2876 622 
Q 3103 975 3103 1663 
Q 3103 2353 2876 2703 
Q 2650 3053 2209 3053 
Q 1772 3053 1542 2737 
Q 1313 2422 1313 1825 
z
M 738 2988 
L 184 2988 
L 184 3322 
L 1313 3322 
L 1313 2803 
Q 1481 3116 1742 3264 
Q 2003 3413 2388 3413 
Q 3000 3413 3387 2928 
Q 3775 2444 3775 1663 
Q 3775 881 3387 395 
Q 3000 -91 2388 -91 
Q 2003 -91 1742 57 
Q 1481 206 1313 519 
L 1313 -997 
L 1856 -997 
L 1856 -1331 
L 184 -1331 
L 184 -997 
L 738 -997 
L 738 2988 
z
" transform="scale(0.015625)"/>
      <path id="DejaVuSerif-64" d="M 3359 331 
L 3909 331 
L 3909 0 
L 2784 0 
L 2784 519 
Q 2616 206 2355 57 
Q 2094 -91 1709 -91 
Q 1097 -91 708 395 
Q 319 881 319 1663 
Q 319 2444 706 2928 
Q 1094 3413 1709 3413 
Q 2094 3413 2355 3264 
Q 2616 3116 2784 2803 
L 2784 4531 
L 2241 4531 
L 2241 4863 
L 3359 4863 
L 3359 331 
z
M 2784 1497 
L 2784 1825 
Q 2784 2422 2554 2737 
Q 2325 3053 1888 3053 
Q 1444 3053 1217 2703 
Q 991 2353 991 1663 
Q 991 975 1217 622 
Q 1444 269 1888 269 
Q 2325 269 2554 583 
Q 2784 897 2784 1497 
z
" transform="scale(0.015625)"/>
     </defs>
     <use xlink:href="#DejaVuSerif-41"/>
     <use xlink:href="#DejaVuSerif-76" transform="translate(68.216797 0)"/>
     <use xlink:href="#DejaVuSerif-61" transform="translate(124.710938 0)"/>
     <use xlink:href="#DejaVuSerif-69" transform="translate(184.330078 0)"/>
     <use xlink:href="#DejaVuSerif-6c" transform="translate(216.3125 0)"/>
     <use xlink:href="#DejaVuSerif-20" transform="translate(248.294922 0)"/>
     <use xlink:href="#DejaVuSerif-2014" transform="translate(280.082031 0)"/>
     <use xlink:href="#DejaVuSerif-20" transform="translate(380.082031 0)"/>
     <use xlink:href="#DejaVuSerif-43" transform="translate(411.869141 0)"/>
     <use xlink:href="#DejaVuSerif-75" transform="translate(488.382812 0)"/>
     <use xlink:href="#DejaVuSerif-6d" transform="translate(552.787109 0)"/>
     <use xlink:href="#DejaVuSerif-75" transform="translate(647.611328 0)"/>
     <use xlink:href="#DejaVuSerif-6c" transform="translate(712.015625 0)"/>
     <use xlink:href="#DejaVuSerif-61" transform="translate(743.998047 0)"/>
     <use xlink:href="#DejaVuSerif-74" transform="translate(803.617188 0)"/>
     <use xlink:href="#DejaVuSerif-69" transform="translate(843.802734 0)"/>
     <use xlink:href="#DejaVuSerif-76" transform="translate(875.785156 0)"/>
     <use xlink:href="#DejaVuSerif-65" transform="translate(932.279297 0)"/>
     <use xlink:href="#DejaVuSerif-20" transform="translate(991.458984 0)"/>
     <use xlink:href="#DejaVuSerif-44" transform="translate(1023.246094 0)"/>
     <use xlink:href="#DejaVuSerif-61" transform="translate(1103.421875 0)"/>
     <use xlink:href="#DejaVuSerif-74" transform="translate(1163.041016 0)"/>
     <use xlink:href="#DejaVuSerif-61" transform="translate(1203.226562 0)"/>
     <use xlink:href="#DejaVuSerif-20" transform="translate(1262.845703 0)"/>
     <use xlink:href="#DejaVuSerif-26" transform="translate(1294.632812 0)"/>
     <use xlink:href="#DejaVuSerif-20" transform="translate(1383.646484 0)"/>
     <use xlink:href="#DejaVuSerif-53" transform="translate(1415.433594 0)"/>
     <use xlink:href="#DejaVuSerif-70" transform="translate(1483.939453 0)"/>
     <use xlink:href="#DejaVuSerif-65" transform="translate(1547.953125 0)"/>
     <use xlink:href="#DejaVuSerif-6e" transform="translate(1607.132812 0)"/>
     <use xlink:href="#DejaVuSerif-64" transform="translate(1671.537109 0)"/>
    </g>
   </g>
   <g id="legend_1">
    <g id="patch_5">
     <path d="M 61.560313 55.043281 
L 154.709062 55.043281 
Q 156.309062 55.043281 156.309062 53.443281 
L 156.309062 30.758281 
Q 156.309062 29.158281 154.709062 29.158281 
L 61.560313 29.158281 
Q 59.960313 29.158281 59.960313 30.758281 
L 59.960313 53.443281 
Q 59.960313 55.043281 61.560313 55.043281 
z
" style="fill: #ffffff; opacity: 0.9; stroke: #cccccc; stroke-linejoin: miter"/>
    </g>
    <g id="line2d_22">
     <path d="M 63.160313 35.637031 
L 71.160313 35.637031 
L 79.160313 35.637031 
" style="fill: none; stroke: #2d5f91; stroke-width: 1.5; stroke-linecap: square"/>
    </g>
    <g id="text_13">
     <!-- Cumulative MiB -->
     <g transform="translate(85.560313 38.437031) scale(0.08 -0.08)">
      <use xlink:href="#DejaVuSerif-43"/>
      <use xlink:href="#DejaVuSerif-75" transform="translate(76.513672 0)"/>
      <use xlink:href="#DejaVuSerif-6d" transform="translate(140.917969 0)"/>
      <use xlink:href="#DejaVuSerif-75" transform="translate(235.742188 0)"/>
      <use xlink:href="#DejaVuSerif-6c" transform="translate(300.146484 0)"/>
      <use xlink:href="#DejaVuSerif-61" transform="translate(332.128906 0)"/>
      <use xlink:href="#DejaVuSerif-74" transform="translate(391.748047 0)"/>
      <use xlink:href="#DejaVuSerif-69" transform="translate(431.933594 0)"/>
      <use xlink:href="#DejaVuSerif-76" transform="translate(463.916016 0)"/>
      <use xlink:href="#DejaVuSerif-65" transform="translate(520.410156 0)"/>
      <use xlink:href="#DejaVuSerif-20" transform="translate(579.589844 0)"/>
      <use xlink:href="#DejaVuSerif-4d" transform="translate(611.376953 0)"/>
      <use xlink:href="#DejaVuSerif-69" transform="translate(713.769531 0)"/>
      <use xlink:href="#DejaVuSerif-42" transform="translate(745.751953 0)"/>
     </g>
    </g>
    <g id="line2d_23">
     <path d="M 63.160313 47.379531 
L 71.160313 47.379531 
L 79.160313 47.379531 
" style="fill: none; stroke-dasharray: 5.55,2.4; stroke-dashoffset: 0; stroke: #cc6633; stroke-width: 1.5"/>
    </g>
    <g id="text_14">
     <!-- Cumulative USD -->
     <g transform="translate(85.560313 50.179531) scale(0.08 -0.08)">
      <defs>
       <path id="DejaVuSerif-55" d="M 897 4331 
L 300 4331 
L 300 4666 
L 2125 4666 
L 2125 4331 
L 1528 4331 
L 1528 1919 
Q 1528 1025 1820 672 
Q 2113 319 2828 319 
Q 3544 319 3836 672 
Q 4128 1025 4128 1919 
L 4128 4331 
L 3531 4331 
L 3531 4666 
L 5106 4666 
L 5106 4331 
L 4513 4331 
L 4513 1856 
Q 4513 791 4103 350 
Q 3694 -91 2713 -91 
Q 1731 -91 1314 353 
Q 897 797 897 1856 
L 897 4331 
z
" transform="scale(0.015625)"/>
      </defs>
      <use xlink:href="#DejaVuSerif-43"/>
      <use xlink:href="#DejaVuSerif-75" transform="translate(76.513672 0)"/>
      <use xlink:href="#DejaVuSerif-6d" transform="translate(140.917969 0)"/>
      <use xlink:href="#DejaVuSerif-75" transform="translate(235.742188 0)"/>
      <use xlink:href="#DejaVuSerif-6c" transform="translate(300.146484 0)"/>
      <use xlink:href="#DejaVuSerif-61" transform="translate(332.128906 0)"/>
      <use xlink:href="#DejaVuSerif-74" transform="translate(391.748047 0)"/>
      <use xlink:href="#DejaVuSerif-69" transform="translate(431.933594 0)"/>
      <use xlink:href="#DejaVuSerif-76" transform="translate(463.916016 0)"/>
      <use xlink:href="#DejaVuSerif-65" transform="translate(520.410156 0)"/>
      <use xlink:href="#DejaVuSerif-20" transform="translate(579.589844 0)"/>
      <use xlink:href="#DejaVuSerif-55" transform="translate(611.376953 0)"/>
      <use xlink:href="#DejaVuSerif-53" transform="translate(695.654297 0)"/>
      <use xlink:href="#DejaVuSerif-44" transform="translate(764.160156 0)"/>
     </g>
    </g>
   </g>
  </g>
  <g id="axes_2">
   <g id="matplotlib.axis_3">
    <g id="ytick_4">
     <g id="line2d_24">
      <path d="M 55.960313 103.124234 
L 466.095313 103.124234 
" clip-path="url(#pbe8d081446)" style="fill: none; stroke: #b0b0b0; stroke-opacity: 0.25; stroke-width: 0.5; stroke-linecap: square"/>
     </g>
     <g id="line2d_25">
      <defs>
       <path id="mb7ffc8f402" d="M 0 0 
L 3.5 0 
" style="stroke: #000000; stroke-width: 0.8"/>
      </defs>
      <g>
       <use xlink:href="#mb7ffc8f402" x="466.095313" y="103.124234" style="stroke: #000000; stroke-width: 0.8"/>
      </g>
     </g>
     <g id="text_15">
      <!-- 0 -->
      <g style="fill: #cc6633" transform="translate(473.095313 106.163609) scale(0.08 -0.08)">
       <use xlink:href="#DejaVuSerif-30"/>
      </g>
     </g>
    </g>
    <g id="ytick_5">
     <g id="line2d_26">
      <path d="M 55.960313 83.293534 
L 466.095313 83.293534 
" clip-path="url(#pbe8d081446)" style="fill: none; stroke: #b0b0b0; stroke-opacity: 0.25; stroke-width: 0.5; stroke-linecap: square"/>
     </g>
     <g id="line2d_27">
      <g>
       <use xlink:href="#mb7ffc8f402" x="466.095313" y="83.293534" style="stroke: #000000; stroke-width: 0.8"/>
      </g>
     </g>
     <g id="text_16">
      <!-- 25 -->
      <g style="fill: #cc6633" transform="translate(473.095313 86.332909) scale(0.08 -0.08)">
       <use xlink:href="#DejaVuSerif-32"/>
       <use xlink:href="#DejaVuSerif-35" transform="translate(63.623047 0)"/>
      </g>
     </g>
    </g>
    <g id="ytick_6">
     <g id="line2d_28">
      <path d="M 55.960313 63.462833 
L 466.095313 63.462833 
" clip-path="url(#pbe8d081446)" style="fill: none; stroke: #b0b0b0; stroke-opacity: 0.25; stroke-width: 0.5; stroke-linecap: square"/>
     </g>
     <g id="line2d_29">
      <g>
       <use xlink:href="#mb7ffc8f402" x="466.095313" y="63.462833" style="stroke: #000000; stroke-width: 0.8"/>
      </g>
     </g>
     <g id="text_17">
      <!-- 50 -->
      <g style="fill: #cc6633" transform="translate(473.095313 66.502208) scale(0.08 -0.08)">
       <use xlink:href="#DejaVuSerif-35"/>
       <use xlink:href="#DejaVuSerif-30" transform="translate(63.623047 0)"/>
      </g>
     </g>
    </g>
    <g id="ytick_7">
     <g id="line2d_30">
      <path d="M 55.960313 43.632132 
L 466.095313 43.632132 
" clip-path="url(#pbe8d081446)" style="fill: none; stroke: #b0b0b0; stroke-opacity: 0.25; stroke-width: 0.5; stroke-linecap: square"/>
     </g>
     <g id="line2d_31">
      <g>
       <use xlink:href="#mb7ffc8f402" x="466.095313" y="43.632132" style="stroke: #000000; stroke-width: 0.8"/>
      </g>
     </g>
     <g id="text_18">
      <!-- 75 -->
      <g style="fill: #cc6633" transform="translate(473.095313 46.671507) scale(0.08 -0.08)">
       <use xlink:href="#DejaVuSerif-37"/>
       <use xlink:href="#DejaVuSerif-35" transform="translate(63.623047 0)"/>
      </g>
     </g>
    </g>
    <g id="text_19">
     <!-- USD -->
     <g style="fill: #cc6633" transform="translate(494.113906 76.359211) rotate(-90) scale(0.09 -0.09)">
      <use xlink:href="#DejaVuSerif-55"/>
      <use xlink:href="#DejaVuSerif-53" transform="translate(84.277344 0)"/>
      <use xlink:href="#DejaVuSerif-44" transform="translate(152.783203 0)"/>
     </g>
    </g>
   </g>
   <g id="line2d_32">
    <path d="M 74.602813 102.89272 
L 78.74559 102.034136 
L 82.888368 101.314187 
L 87.031146 100.675397 
L 91.173924 99.843935 
L 95.316701 99.147724 
L 99.459479 98.615184 
L 103.602257 98.134076 
L 107.745035 97.492982 
L 111.887813 96.850809 
L 116.03059 96.373795 
L 120.173368 95.889429 
L 124.316146 95.220645 
L 128.458924 94.828556 
L 132.601701 94.295107 
L 136.744479 93.220108 
L 140.887257 92.259977 
L 145.030035 91.358703 
L 149.172813 90.943176 
L 153.31559 88.676491 
L 157.458368 85.126247 
L 161.601146 81.614678 
L 165.743924 78.10374 
L 169.886701 74.544278 
L 174.029479 71.027511 
L 178.172257 67.507874 
L 182.315035 66.051302 
L 186.457813 65.146439 
L 190.60059 64.356771 
L 194.743368 63.424192 
L 198.886146 62.485246 
L 203.028924 61.580171 
L 207.171701 60.820468 
L 211.314479 60.083784 
L 215.457257 59.369834 
L 219.600035 58.624297 
L 223.742813 57.858226 
L 227.88559 57.09968 
L 232.028368 56.368994 
L 236.171146 55.629185 
L 240.313924 54.830433 
L 244.456701 54.073102 
L 248.599479 53.381095 
L 252.742257 52.633653 
L 256.885035 51.924351 
L 261.027813 51.258109 
L 265.17059 50.582482 
L 269.313368 49.921349 
L 273.456146 49.227051 
L 277.598924 48.539404 
L 281.741701 47.867953 
L 285.884479 47.307527 
L 290.027257 46.650643 
L 294.170035 45.846775 
L 298.312813 45.378747 
L 302.45559 45.259124 
L 306.598368 45.141594 
L 310.741146 45.017415 
L 314.883924 42.036652 
L 319.026701 41.237085 
L 323.169479 40.501531 
L 327.312257 39.838669 
L 331.455035 39.065041 
L 335.597813 38.383337 
L 339.74059 37.593256 
L 343.883368 36.834166 
L 348.026146 36.154399 
L 352.168924 35.441547 
L 356.311701 34.811487 
L 360.454479 34.186046 
L 364.597257 33.573665 
L 368.740035 32.930925 
L 372.882813 32.235533 
L 377.02559 31.594575 
L 381.168368 31.075369 
L 385.311146 30.89733 
L 389.453924 30.711476 
L 393.596701 30.537584 
L 397.739479 30.373025 
L 401.882257 30.211294 
L 406.025035 30.058273 
L 410.167813 29.89182 
L 414.31059 29.760032 
L 418.453368 29.623595 
L 422.596146 29.535833 
L 426.738924 29.407403 
L 430.881701 29.272342 
L 435.024479 29.158346 
L 439.167257 29.039207 
L 443.310035 28.917657 
L 447.452813 28.859921 
" clip-path="url(#pbe8d081446)" style="fill: none; stroke-dasharray: 5.55,2.4; stroke-dashoffset: 0; stroke: #cc6633; stroke-width: 1.5"/>
   </g>
   <g id="patch_6">
    <path d="M 55.960313 106.59436 
L 55.960313 25.158281 
" style="fill: none; stroke: #000000; stroke-width: 0.6; stroke-linejoin: miter; stroke-linecap: square"/>
   </g>
   <g id="patch_7">
    <path d="M 466.095313 106.59436 
L 466.095313 25.158281 
" style="fill: none; stroke: #000000; stroke-width: 0.6; stroke-linejoin: miter; stroke-linecap: square"/>
   </g>
   <g id="patch_8">
    <path d="M 55.960313 106.59436 
L 466.095313 106.59436 
" style="fill: none; stroke: #000000; stroke-width: 0.6; stroke-linejoin: miter; stroke-linecap: square"/>
   </g>
  </g>
 </g>
 <defs>
  <clipPath id="pbe8d081446">
   <rect x="55.960313" y="25.158281" width="410.135" height="81.436079"/>
  </clipPath>
 </defs>
</svg>
