<?xml version="1.0" encoding="utf-8" standalone="no"?>
<!DOCTYPE svg PUBLIC "-//W3C//DTD SVG 1.1//EN"
  "http://www.w3.org/Graphics/SVG/1.1/DTD/svg11.dtd">
<svg xmlns:xlink="http://www.w3.org/1999/xlink" width="505.91625pt" height="203.625216pt" viewBox="0 0 505.91625 203.625216" xmlns="http://www.w3.org/2000/svg" version="1.1">
 <metadata>
  <rdf:RDF xmlns:dc="http://purl.org/dc/elements/1.1/" xmlns:cc="http://creativecommons.org/ns#" xmlns:rdf="http://www.w3.org/1999/02/22-rdf-syntax-ns#">
   <cc:Work>
    <dc:type rdf:resource="http://purl.org/dc/dcmitype/StillImage"/>
    <dc:date>2026-02-16T20:22:37.345641</dc:date>
    <dc:format>image/svg+xml</dc:format>
    <dc:creator>
     <cc:Agent>
      <dc:title>Matplotlib v3.9.4, https://matplotlib.org/</dc:title>
     </cc:Agent>
    </dc:creator>
   </cc:Work>
  </rdf:RDF>
 </metadata>
 <defs>
  <style type="text/css">*{stroke-linejoin: round; stroke-linecap: butt}</style>
 </defs>
 <g id="figure_1">
  <g id="patch_1">
   <path d="M 0 203.625216 
L 505.91625 203.625216 
L 505.91625 0 
L 0 0 
z
" style="fill: #ffffff"/>
  </g>
  <g id="axes_1">
   <g id="patch_2">
    <path d="M 45.780313 164.590639 
L 495.11625 164.590639 
L 495.11625 25.158281 
L 45.780313 25.158281 
z
" style="fill: #ffffff"/>
   </g>
   <g id="matplotlib.axis_1">
    <g id="xtick_1">
     <g id="line2d_1">
      <path d="M 108.492997 164.590639 
L 108.492997 25.158281 
" clip-path="url(#pf1c2fffbed)" style="fill: none; stroke: #b0b0b0; stroke-opacity: 0.25; stroke-width: 0.5; stroke-linecap: square"/>
     </g>
     <g id="line2d_2">
      <defs>
       <path id="ma91cdb665f" d="M 0 0 
L 0 3.5 
" style="stroke: #000000; stroke-width: 0.8"/>
      </defs>
      <g>
       <use xlink:href="#ma91cdb665f" x="108.492997" y="164.590639" style="stroke: #000000; stroke-width: 0.8"/>
      </g>
     </g>
     <g id="text_1">
      <!-- Nov 25 -->
      <g transform="translate(82.495507 191.384366) rotate(-30) scale(0.08 -0.08)">
       <defs>
        <path id="DejaVuSerif-4e" d="M 313 0 
L 313 331 
L 941 331 
L 941 4331 
L 313 4331 
L 313 4666 
L 1509 4666 
L 4306 984 
L 4306 4331 
L 3681 4331 
L 3681 4666 
L 5319 4666 
L 5319 4331 
L 4691 4331 
L 4691 -91 
L 4313 -91 
L 1325 3841 
L 1325 331 
L 1953 331 
L 1953 0 
L 313 0 
z
" transform="scale(0.015625)"/>
        <path id="DejaVuSerif-6f" d="M 1925 219 
Q 2388 219 2623 584 
Q 2859 950 2859 1663 
Q 2859 2375 2623 2739 
Q 2388 3103 1925 3103 
Q 1463 3103 1227 2739 
Q 991 2375 991 1663 
Q 991 950 1228 584 
Q 1466 219 1925 219 
z
M 1925 -91 
Q 1200 -91 759 389 
Q 319 869 319 1663 
Q 319 2456 758 2934 
Q 1197 3413 1925 3413 
Q 2653 3413 3092 2934 
Q 3531 2456 3531 1663 
Q 3531 869 3092 389 
Q 2653 -91 1925 -91 
z
" transform="scale(0.015625)"/>
        <path id="DejaVuSerif-76" d="M 1581 0 
L 359 2988 
L -19 2988 
L -19 3322 
L 1509 3322 
L 1509 2988 
L 978 2988 
L 1913 703 
L 2847 2988 
L 2350 2988 
L 2350 3322 
L 3597 3322 
L 3597 2988 
L 3225 2988 
L 2003 0 
L 1581 0 
z
" transform="scale(0.015625)"/>
        <path id="DejaVuSerif-20" transform="scale(0.015625)"/>
        <path id="DejaVuSerif-32" d="M 819 3553 
L 469 3553 
L 469 4384 
Q 803 4563 1142 4656 
Q 1481 4750 1806 4750 
Q 2534 4750 2956 4397 
Q 3378 4044 3378 3438 
Q 3378 2753 2422 1800 
Q 2347 1728 2309 1691 
L 1131 513 
L 3078 513 
L 3078 1088 
L 3444 1088 
L 3444 0 
L 434 0 
L 434 341 
L 1850 1753 
Q 2319 2222 2519 2614 
Q 2719 3006 2719 3438 
Q 2719 3909 2473 4175 
Q 2228 4441 1797 4441 
Q 1350 4441 1106 4219 
Q 863 3997 819 3553 
z
" transform="scale(0.015625)"/>
        <path id="DejaVuSerif-35" d="M 3219 4666 
L 3219 4153 
L 1081 4153 
L 1081 2816 
Q 1244 2928 1461 2984 
Q 1678 3041 1947 3041 
Q 2703 3041 3140 2622 
Q 3578 2203 3578 1478 
Q 3578 738 3136 323 
Q 2694 -91 1894 -91 
Q 1572 -91 1234 -12 
Q 897 66 544 225 
L 544 1131 
L 897 1131 
Q 925 688 1179 453 
Q 1434 219 1894 219 
Q 2388 219 2653 544 
Q 2919 869 2919 1478 
Q 2919 2084 2655 2407 
Q 2391 2731 1894 2731 
Q 1613 2731 1398 2631 
Q 1184 2531 1019 2322 
L 750 2322 
L 750 4666 
L 3219 4666 
z
" transform="scale(0.015625)"/>
       </defs>
       <use xlink:href="#DejaVuSerif-4e"/>
       <use xlink:href="#DejaVuSerif-6f" x="87.5"/>
       <use xlink:href="#DejaVuSerif-76" x="147.705078"/>
       <use xlink:href="#DejaVuSerif-20" x="204.199219"/>
       <use xlink:href="#DejaVuSerif-32" x="235.986328"/>
       <use xlink:href="#DejaVuSerif-35" x="299.609375"/>
      </g>
     </g>
    </g>
    <g id="xtick_2">
     <g id="line2d_3">
      <path d="M 171.475608 164.590639 
L 171.475608 25.158281 
" clip-path="url(#pf1c2fffbed)" style="fill: none; stroke: #b0b0b0; stroke-opacity: 0.25; stroke-width: 0.5; stroke-linecap: square"/>
     </g>
     <g id="line2d_4">
      <g>
       <use xlink:href="#ma91cdb665f" x="171.475608" y="164.590639" style="stroke: #000000; stroke-width: 0.8"/>
      </g>
     </g>
     <g id="text_2">
      <!-- Dec 09 -->
      <g transform="translate(146.09083 191.030616) rotate(-30) scale(0.08 -0.08)">
       <defs>
        <path id="DejaVuSerif-44" d="M 1581 331 
L 2163 331 
Q 3072 331 3558 850 
Q 4044 1369 4044 2338 
Q 4044 3306 3559 3818 
Q 3075 4331 2163 4331 
L 1581 4331 
L 1581 331 
z
M 353 0 
L 353 331 
L 947 331 
L 947 4331 
L 353 4331 
L 353 4666 
L 2209 4666 
Q 3416 4666 4089 4050 
Q 4763 3434 4763 2338 
Q 4763 1238 4088 619 
Q 3413 0 2209 0 
L 353 0 
z
" transform="scale(0.015625)"/>
        <path id="DejaVuSerif-65" d="M 3469 1600 
L 991 1600 
L 991 1575 
Q 991 903 1244 561 
Q 1497 219 1991 219 
Q 2369 219 2611 417 
Q 2853 616 2950 1006 
L 3413 1006 
Q 3275 459 2904 184 
Q 2534 -91 1931 -91 
Q 1203 -91 761 389 
Q 319 869 319 1663 
Q 319 2450 753 2931 
Q 1188 3413 1894 3413 
Q 2647 3413 3050 2948 
Q 3453 2484 3469 1600 
z
M 2791 1931 
Q 2772 2513 2545 2808 
Q 2319 3103 1894 3103 
Q 1497 3103 1269 2806 
Q 1041 2509 991 1931 
L 2791 1931 
z
" transform="scale(0.015625)"/>
        <path id="DejaVuSerif-63" d="M 3291 997 
Q 3169 466 2822 187 
Q 2475 -91 1925 -91 
Q 1200 -91 759 389 
Q 319 869 319 1663 
Q 319 2459 759 2936 
Q 1200 3413 1925 3413 
Q 2241 3413 2553 3339 
Q 2866 3266 3181 3116 
L 3181 2266 
L 2847 2266 
Q 2781 2703 2561 2903 
Q 2341 3103 1931 3103 
Q 1466 3103 1228 2742 
Q 991 2381 991 1663 
Q 991 944 1227 581 
Q 1463 219 1931 219 
Q 2303 219 2525 412 
Q 2747 606 2828 997 
L 3291 997 
z
" transform="scale(0.015625)"/>
        <path id="DejaVuSerif-30" d="M 2034 219 
Q 2513 219 2750 744 
Q 2988 1269 2988 2328 
Q 2988 3391 2750 3916 
Q 2513 4441 2034 4441 
Q 1556 4441 1318 3916 
Q 1081 3391 1081 2328 
Q 1081 1269 1318 744 
Q 1556 219 2034 219 
z
M 2034 -91 
Q 1275 -91 848 546 
Q 422 1184 422 2328 
Q 422 3475 848 4112 
Q 1275 4750 2034 4750 
Q 2797 4750 3222 4112 
Q 3647 3475 3647 2328 
Q 3647 1184 3222 546 
Q 2797 -91 2034 -91 
z
" transform="scale(0.015625)"/>
        <path id="DejaVuSerif-39" d="M 2994 2091 
Q 2784 1856 2512 1740 
Q 2241 1625 1900 1625 
Q 1206 1625 804 2044 
Q 403 2463 403 3188 
Q 403 3897 839 4323 
Q 1275 4750 2003 4750 
Q 2794 4750 3217 4161 
Q 3641 3572 3641 2478 
Q 3641 1253 3137 581 
Q 2634 -91 1722 -91 
Q 1475 -91 1203 -44 
Q 931 3 647 97 
L 647 872 
L 997 872 
Q 1038 556 1241 387 
Q 1444 219 1784 219 
Q 2391 219 2687 676 
Q 2984 1134 2994 2091 
z
M 1978 4441 
Q 1534 4441 1298 4117 
Q 1063 3794 1063 3188 
Q 1063 2581 1298 2256 
Q 1534 1931 1978 1931 
Q 2422 1931 2658 2245 
Q 2894 2559 2894 3150 
Q 2894 3772 2656 4106 
Q 2419 4441 1978 4441 
z
" transform="scale(0.015625)"/>
       </defs>
       <use xlink:href="#DejaVuSerif-44"/>
       <use xlink:href="#DejaVuSerif-65" x="80.175781"/>
       <use xlink:href="#DejaVuSerif-63" x="139.355469"/>
       <use xlink:href="#DejaVuSerif-20" x="195.361328"/>
       <use xlink:href="#DejaVuSerif-30" x="227.148438"/>
       <use xlink:href="#DejaVuSerif-39" x="290.771484"/>
      </g>
     </g>
    </g>
    <g id="xtick_3">
     <g id="line2d_5">
      <path d="M 234.458218 164.590639 
L 234.458218 25.158281 
" clip-path="url(#pf1c2fffbed)" style="fill: none; stroke: #b0b0b0; stroke-opacity: 0.25; stroke-width: 0.5; stroke-linecap: square"/>
     </g>
     <g id="line2d_6">
      <g>
       <use xlink:href="#ma91cdb665f" x="234.458218" y="164.590639" style="stroke: #000000; stroke-width: 0.8"/>
      </g>
     </g>
     <g id="text_3">
      <!-- Dec 23 -->
      <g transform="translate(209.07344 191.030616) rotate(-30) scale(0.08 -0.08)">
       <defs>
        <path id="DejaVuSerif-33" d="M 622 4469 
Q 988 4606 1323 4678 
Q 1659 4750 1953 4750 
Q 2638 4750 3022 4454 
Q 3406 4159 3406 3634 
Q 3406 3213 3140 2930 
Q 2875 2647 2388 2547 
Q 2963 2466 3280 2130 
Q 3597 1794 3597 1259 
Q 3597 606 3158 257 
Q 2719 -91 1894 -91 
Q 1528 -91 1179 -12 
Q 831 66 488 225 
L 488 1131 
L 838 1131 
Q 869 681 1141 450 
Q 1413 219 1906 219 
Q 2384 219 2661 495 
Q 2938 772 2938 1253 
Q 2938 1803 2653 2086 
Q 2369 2369 1819 2369 
L 1522 2369 
L 1522 2688 
L 1678 2688 
Q 2225 2688 2498 2914 
Q 2772 3141 2772 3597 
Q 2772 4006 2547 4223 
Q 2322 4441 1900 4441 
Q 1478 4441 1245 4241 
Q 1013 4041 972 3647 
L 622 3647 
L 622 4469 
z
" transform="scale(0.015625)"/>
       </defs>
       <use xlink:href="#DejaVuSerif-44"/>
       <use xlink:href="#DejaVuSerif-65" x="80.175781"/>
       <use xlink:href="#DejaVuSerif-63" x="139.355469"/>
       <use xlink:href="#DejaVuSerif-20" x="195.361328"/>
       <use xlink:href="#DejaVuSerif-32" x="227.148438"/>
       <use xlink:href="#DejaVuSerif-33" x="290.771484"/>
      </g>
     </g>
    </g>
    <g id="xtick_4">
     <g id="line2d_7">
      <path d="M 297.440829 164.590639 
L 297.440829 25.158281 
" clip-path="url(#pf1c2fffbed)" style="fill: none; stroke: #b0b0b0; stroke-opacity: 0.25; stroke-width: 0.5; stroke-linecap: square"/>
     </g>
     <g id="line2d_8">
      <g>
       <use xlink:href="#ma91cdb665f" x="297.440829" y="164.590639" style="stroke: #000000; stroke-width: 0.8"/>
      </g>
     </g>
     <g id="text_4">
      <!-- Jan 06 -->
      <g transform="translate(274.220032 189.781241) rotate(-30) scale(0.08 -0.08)">
       <defs>
        <path id="DejaVuSerif-4a" d="M -538 -1119 
L -538 -384 
L -181 -384 
Q -172 -694 -34 -845 
Q 103 -997 378 -997 
Q 750 -997 897 -762 
Q 1044 -528 1044 153 
L 1044 4331 
L 319 4331 
L 319 4666 
L 2272 4666 
L 2272 4331 
L 1678 4331 
L 1678 128 
Q 1678 -644 1368 -987 
Q 1059 -1331 372 -1331 
Q 150 -1331 -79 -1278 
Q -309 -1225 -538 -1119 
z
" transform="scale(0.015625)"/>
        <path id="DejaVuSerif-61" d="M 2547 1044 
L 2547 1747 
L 1806 1747 
Q 1378 1747 1168 1562 
Q 959 1378 959 997 
Q 959 650 1171 447 
Q 1384 244 1747 244 
Q 2106 244 2326 466 
Q 2547 688 2547 1044 
z
M 3122 2075 
L 3122 331 
L 3634 331 
L 3634 0 
L 2547 0 
L 2547 359 
Q 2356 128 2106 18 
Q 1856 -91 1522 -91 
Q 969 -91 644 203 
Q 319 497 319 997 
Q 319 1513 691 1797 
Q 1063 2081 1741 2081 
L 2547 2081 
L 2547 2309 
Q 2547 2688 2317 2895 
Q 2088 3103 1672 3103 
Q 1328 3103 1125 2947 
Q 922 2791 872 2484 
L 575 2484 
L 575 3156 
Q 875 3284 1158 3348 
Q 1441 3413 1709 3413 
Q 2400 3413 2761 3070 
Q 3122 2728 3122 2075 
z
" transform="scale(0.015625)"/>
        <path id="DejaVuSerif-6e" d="M 263 0 
L 263 331 
L 781 331 
L 781 2988 
L 231 2988 
L 231 3322 
L 1356 3322 
L 1356 2731 
Q 1516 3069 1770 3241 
Q 2025 3413 2363 3413 
Q 2913 3413 3172 3097 
Q 3431 2781 3431 2113 
L 3431 331 
L 3944 331 
L 3944 0 
L 2356 0 
L 2356 331 
L 2853 331 
L 2853 1931 
Q 2853 2541 2703 2767 
Q 2553 2994 2175 2994 
Q 1775 2994 1565 2701 
Q 1356 2409 1356 1850 
L 1356 331 
L 1856 331 
L 1856 0 
L 263 0 
z
" transform="scale(0.015625)"/>
        <path id="DejaVuSerif-36" d="M 2094 219 
Q 2534 219 2771 542 
Q 3009 866 3009 1472 
Q 3009 2078 2771 2401 
Q 2534 2725 2094 2725 
Q 1647 2725 1412 2412 
Q 1178 2100 1178 1509 
Q 1178 888 1415 553 
Q 1653 219 2094 219 
z
M 1075 2569 
Q 1288 2803 1556 2918 
Q 1825 3034 2163 3034 
Q 2859 3034 3264 2615 
Q 3669 2197 3669 1472 
Q 3669 763 3233 336 
Q 2797 -91 2069 -91 
Q 1278 -91 853 498 
Q 428 1088 428 2181 
Q 428 3406 931 4078 
Q 1434 4750 2350 4750 
Q 2597 4750 2869 4703 
Q 3141 4656 3425 4563 
L 3425 3794 
L 3072 3794 
Q 3034 4109 2831 4275 
Q 2628 4441 2284 4441 
Q 1678 4441 1381 3981 
Q 1084 3522 1075 2569 
z
" transform="scale(0.015625)"/>
       </defs>
       <use xlink:href="#DejaVuSerif-4a"/>
       <use xlink:href="#DejaVuSerif-61" x="40.087891"/>
       <use xlink:href="#DejaVuSerif-6e" x="99.707031"/>
       <use xlink:href="#DejaVuSerif-20" x="164.111328"/>
       <use xlink:href="#DejaVuSerif-30" x="195.898438"/>
       <use xlink:href="#DejaVuSerif-36" x="259.521484"/>
      </g>
     </g>
    </g>
    <g id="xtick_5">
     <g id="line2d_9">
      <path d="M 360.423439 164.590639 
L 360.423439 25.158281 
" clip-path="url(#pf1c2fffbed)" style="fill: none; stroke: #b0b0b0; stroke-opacity: 0.25; stroke-width: 0.5; stroke-linecap: square"/>
     </g>
     <g id="line2d_10">
      <g>
       <use xlink:href="#ma91cdb665f" x="360.423439" y="164.590639" style="stroke: #000000; stroke-width: 0.8"/>
      </g>
     </g>
     <g id="text_5">
      <!-- Jan 20 -->
      <g transform="translate(337.202642 189.781241) rotate(-30) scale(0.08 -0.08)">
       <use xlink:href="#DejaVuSerif-4a"/>
       <use xlink:href="#DejaVuSerif-61" x="40.087891"/>
       <use xlink:href="#DejaVuSerif-6e" x="99.707031"/>
       <use xlink:href="#DejaVuSerif-20" x="164.111328"/>
       <use xlink:href="#DejaVuSerif-32" x="195.898438"/>
       <use xlink:href="#DejaVuSerif-30" x="259.521484"/>
      </g>
     </g>
    </g>
    <g id="xtick_6">
     <g id="line2d_11">
      <path d="M 423.406049 164.590639 
L 423.406049 25.158281 
" clip-path="url(#pf1c2fffbed)" style="fill: none; stroke: #b0b0b0; stroke-opacity: 0.25; stroke-width: 0.5; stroke-linecap: square"/>
     </g>
     <g id="line2d_12">
      <g>
       <use xlink:href="#ma91cdb665f" x="423.406049" y="164.590639" style="stroke: #000000; stroke-width: 0.8"/>
      </g>
     </g>
     <g id="text_6">
      <!-- Feb 03 -->
      <g transform="translate(398.593931 190.699991) rotate(-30) scale(0.08 -0.08)">
       <defs>
        <path id="DejaVuSerif-46" d="M 353 0 
L 353 331 
L 947 331 
L 947 4331 
L 353 4331 
L 353 4666 
L 4172 4666 
L 4172 3628 
L 3788 3628 
L 3788 4281 
L 1581 4281 
L 1581 2719 
L 3175 2719 
L 3175 3303 
L 3559 3303 
L 3559 1753 
L 3175 1753 
L 3175 2338 
L 1581 2338 
L 1581 331 
L 2328 331 
L 2328 0 
L 353 0 
z
" transform="scale(0.015625)"/>
        <path id="DejaVuSerif-62" d="M 738 331 
L 738 4531 
L 184 4531 
L 184 4863 
L 1313 4863 
L 1313 2803 
Q 1481 3116 1742 3264 
Q 2003 3413 2388 3413 
Q 3000 3413 3387 2928 
Q 3775 2444 3775 1663 
Q 3775 881 3387 395 
Q 3000 -91 2388 -91 
Q 2003 -91 1742 57 
Q 1481 206 1313 519 
L 1313 0 
L 184 0 
L 184 331 
L 738 331 
z
M 1313 1497 
Q 1313 897 1542 583 
Q 1772 269 2209 269 
Q 2650 269 2876 622 
Q 3103 975 3103 1663 
Q 3103 2353 2876 2703 
Q 2650 3053 2209 3053 
Q 1772 3053 1542 2737 
Q 1313 2422 1313 1825 
L 1313 1497 
z
" transform="scale(0.015625)"/>
       </defs>
       <use xlink:href="#DejaVuSerif-46"/>
       <use xlink:href="#DejaVuSerif-65" x="63.884766"/>
       <use xlink:href="#DejaVuSerif-62" x="123.064453"/>
       <use xlink:href="#DejaVuSerif-20" x="187.078125"/>
       <use xlink:href="#DejaVuSerif-30" x="218.865234"/>
       <use xlink:href="#DejaVuSerif-33" x="282.488281"/>
      </g>
     </g>
    </g>
    <g id="xtick_7">
     <g id="line2d_13">
      <path d="M 486.38866 164.590639 
L 486.38866 25.158281 
" clip-path="url(#pf1c2fffbed)" style="fill: none; stroke: #b0b0b0; stroke-opacity: 0.25; stroke-width: 0.5; stroke-linecap: square"/>
     </g>
     <g id="line2d_14">
      <g>
       <use xlink:href="#ma91cdb665f" x="486.38866" y="164.590639" style="stroke: #000000; stroke-width: 0.8"/>
      </g>
     </g>
     <g id="text_7">
      <!-- Feb 17 -->
      <g transform="translate(461.576541 190.699991) rotate(-30) scale(0.08 -0.08)">
       <defs>
        <path id="DejaVuSerif-31" d="M 909 0 
L 909 331 
L 1722 331 
L 1722 4213 
L 781 3603 
L 781 4013 
L 1919 4750 
L 2350 4750 
L 2350 331 
L 3163 331 
L 3163 0 
L 909 0 
z
" transform="scale(0.015625)"/>
        <path id="DejaVuSerif-37" d="M 3609 4347 
L 1784 0 
L 1319 0 
L 3059 4153 
L 903 4153 
L 903 3578 
L 538 3578 
L 538 4666 
L 3609 4666 
L 3609 4347 
z
" transform="scale(0.015625)"/>
       </defs>
       <use xlink:href="#DejaVuSerif-46"/>
       <use xlink:href="#DejaVuSerif-65" x="63.884766"/>
       <use xlink:href="#DejaVuSerif-62" x="123.064453"/>
       <use xlink:href="#DejaVuSerif-20" x="187.078125"/>
       <use xlink:href="#DejaVuSerif-31" x="218.865234"/>
       <use xlink:href="#DejaVuSerif-37" x="282.488281"/>
      </g>
     </g>
    </g>
   </g>
   <g id="matplotlib.axis_2">
    <g id="ytick_1">
     <g id="line2d_15">
      <path d="M 45.780313 164.590639 
L 495.11625 164.590639 
" clip-path="url(#pf1c2fffbed)" style="fill: none; stroke: #b0b0b0; stroke-opacity: 0.25; stroke-width: 0.5; stroke-linecap: square"/>
     </g>
     <g id="line2d_16">
      <defs>
       <path id="m5d43c64a1c" d="M 0 0 
L -3.5 0 
" style="stroke: #000000; stroke-width: 0.8"/>
      </defs>
      <g>
       <use xlink:href="#m5d43c64a1c" x="45.780313" y="164.590639" style="stroke: #000000; stroke-width: 0.8"/>
      </g>
     </g>
     <g id="text_8">
      <!-- 0 -->
      <g transform="translate(33.690313 167.630014) scale(0.08 -0.08)">
       <use xlink:href="#DejaVuSerif-30"/>
      </g>
     </g>
    </g>
    <g id="ytick_2">
     <g id="line2d_17">
      <path d="M 45.780313 144.620564 
L 495.11625 144.620564 
" clip-path="url(#pf1c2fffbed)" style="fill: none; stroke: #b0b0b0; stroke-opacity: 0.25; stroke-width: 0.5; stroke-linecap: square"/>
     </g>
     <g id="line2d_18">
      <g>
       <use xlink:href="#m5d43c64a1c" x="45.780313" y="144.620564" style="stroke: #000000; stroke-width: 0.8"/>
      </g>
     </g>
     <g id="text_9">
      <!-- 100 -->
      <g transform="translate(23.510313 147.659939) scale(0.08 -0.08)">
       <use xlink:href="#DejaVuSerif-31"/>
       <use xlink:href="#DejaVuSerif-30" x="63.623047"/>
       <use xlink:href="#DejaVuSerif-30" x="127.246094"/>
      </g>
     </g>
    </g>
    <g id="ytick_3">
     <g id="line2d_19">
      <path d="M 45.780313 124.650488 
L 495.11625 124.650488 
" clip-path="url(#pf1c2fffbed)" style="fill: none; stroke: #b0b0b0; stroke-opacity: 0.25; stroke-width: 0.5; stroke-linecap: square"/>
     </g>
     <g id="line2d_20">
      <g>
       <use xlink:href="#m5d43c64a1c" x="45.780313" y="124.650488" style="stroke: #000000; stroke-width: 0.8"/>
      </g>
     </g>
     <g id="text_10">
      <!-- 200 -->
      <g transform="translate(23.510313 127.689863) scale(0.08 -0.08)">
       <use xlink:href="#DejaVuSerif-32"/>
       <use xlink:href="#DejaVuSerif-30" x="63.623047"/>
       <use xlink:href="#DejaVuSerif-30" x="127.246094"/>
      </g>
     </g>
    </g>
    <g id="ytick_4">
     <g id="line2d_21">
      <path d="M 45.780313 104.680412 
L 495.11625 104.680412 
" clip-path="url(#pf1c2fffbed)" style="fill: none; stroke: #b0b0b0; stroke-opacity: 0.25; stroke-width: 0.5; stroke-linecap: square"/>
     </g>
     <g id="line2d_22">
      <g>
       <use xlink:href="#m5d43c64a1c" x="45.780313" y="104.680412" style="stroke: #000000; stroke-width: 0.8"/>
      </g>
     </g>
     <g id="text_11">
      <!-- 300 -->
      <g transform="translate(23.510313 107.719787) scale(0.08 -0.08)">
       <use xlink:href="#DejaVuSerif-33"/>
       <use xlink:href="#DejaVuSerif-30" x="63.623047"/>
       <use xlink:href="#DejaVuSerif-30" x="127.246094"/>
      </g>
     </g>
    </g>
    <g id="ytick_5">
     <g id="line2d_23">
      <path d="M 45.780313 84.710336 
L 495.11625 84.710336 
" clip-path="url(#pf1c2fffbed)" style="fill: none; stroke: #b0b0b0; stroke-opacity: 0.25; stroke-width: 0.5; stroke-linecap: square"/>
     </g>
     <g id="line2d_24">
      <g>
       <use xlink:href="#m5d43c64a1c" x="45.780313" y="84.710336" style="stroke: #000000; stroke-width: 0.8"/>
      </g>
     </g>
     <g id="text_12">
      <!-- 400 -->
      <g transform="translate(23.510313 87.749711) scale(0.08 -0.08)">
       <defs>
        <path id="DejaVuSerif-34" d="M 2234 1581 
L 2234 4063 
L 641 1581 
L 2234 1581 
z
M 3609 0 
L 1484 0 
L 1484 331 
L 2234 331 
L 2234 1247 
L 197 1247 
L 197 1588 
L 2241 4750 
L 2859 4750 
L 2859 1581 
L 3750 1581 
L 3750 1247 
L 2859 1247 
L 2859 331 
L 3609 331 
L 3609 0 
z
" transform="scale(0.015625)"/>
       </defs>
       <use xlink:href="#DejaVuSerif-34"/>
       <use xlink:href="#DejaVuSerif-30" x="63.623047"/>
       <use xlink:href="#DejaVuSerif-30" x="127.246094"/>
      </g>
     </g>
    </g>
    <g id="ytick_6">
     <g id="line2d_25">
      <path d="M 45.780313 64.74026 
L 495.11625 64.74026 
" clip-path="url(#pf1c2fffbed)" style="fill: none; stroke: #b0b0b0; stroke-opacity: 0.25; stroke-width: 0.5; stroke-linecap: square"/>
     </g>
     <g id="line2d_26">
      <g>
       <use xlink:href="#m5d43c64a1c" x="45.780313" y="64.74026" style="stroke: #000000; stroke-width: 0.8"/>
      </g>
     </g>
     <g id="text_13">
      <!-- 500 -->
      <g transform="translate(23.510313 67.779635) scale(0.08 -0.08)">
       <use xlink:href="#DejaVuSerif-35"/>
       <use xlink:href="#DejaVuSerif-30" x="63.623047"/>
       <use xlink:href="#DejaVuSerif-30" x="127.246094"/>
      </g>
     </g>
    </g>
    <g id="ytick_7">
     <g id="line2d_27">
      <path d="M 45.780313 44.770184 
L 495.11625 44.770184 
" clip-path="url(#pf1c2fffbed)" style="fill: none; stroke: #b0b0b0; stroke-opacity: 0.25; stroke-width: 0.5; stroke-linecap: square"/>
     </g>
     <g id="line2d_28">
      <g>
       <use xlink:href="#m5d43c64a1c" x="45.780313" y="44.770184" style="stroke: #000000; stroke-width: 0.8"/>
      </g>
     </g>
     <g id="text_14">
      <!-- 600 -->
      <g transform="translate(23.510313 47.809559) scale(0.08 -0.08)">
       <use xlink:href="#DejaVuSerif-36"/>
       <use xlink:href="#DejaVuSerif-30" x="63.623047"/>
       <use xlink:href="#DejaVuSerif-30" x="127.246094"/>
      </g>
     </g>
    </g>
    <g id="text_15">
     <!-- MiB -->
     <g transform="translate(17.638594 104.228132) rotate(-90) scale(0.09 -0.09)">
      <defs>
       <path id="DejaVuSerif-4d" d="M 353 0 
L 353 331 
L 947 331 
L 947 4331 
L 319 4331 
L 319 4666 
L 1678 4666 
L 3316 1344 
L 4953 4666 
L 6228 4666 
L 6228 4331 
L 5606 4331 
L 5606 331 
L 6203 331 
L 6203 0 
L 4378 0 
L 4378 331 
L 4972 331 
L 4972 3938 
L 3372 684 
L 2931 684 
L 1331 3938 
L 1331 331 
L 1925 331 
L 1925 0 
L 353 0 
z
" transform="scale(0.015625)"/>
       <path id="DejaVuSerif-69" d="M 622 4353 
Q 622 4497 726 4603 
Q 831 4709 978 4709 
Q 1122 4709 1226 4603 
Q 1331 4497 1331 4353 
Q 1331 4206 1228 4103 
Q 1125 4000 978 4000 
Q 831 4000 726 4103 
Q 622 4206 622 4353 
z
M 1356 331 
L 1900 331 
L 1900 0 
L 231 0 
L 231 331 
L 781 331 
L 781 2988 
L 231 2988 
L 231 3322 
L 1356 3322 
L 1356 331 
z
" transform="scale(0.015625)"/>
       <path id="DejaVuSerif-42" d="M 1581 331 
L 2516 331 
Q 3078 331 3337 575 
Q 3597 819 3597 1350 
Q 3597 1878 3339 2120 
Q 3081 2363 2516 2363 
L 1581 2363 
L 1581 331 
z
M 1581 2694 
L 2375 2694 
Q 2888 2694 3123 2891 
Q 3359 3088 3359 3513 
Q 3359 3941 3123 4136 
Q 2888 4331 2375 4331 
L 1581 4331 
L 1581 2694 
z
M 353 0 
L 353 331 
L 947 331 
L 947 4331 
L 353 4331 
L 353 4666 
L 2656 4666 
Q 3363 4666 3720 4377 
Q 4078 4088 4078 3513 
Q 4078 3097 3829 2850 
Q 3581 2603 3103 2547 
Q 3697 2472 4005 2167 
Q 4313 1863 4313 1350 
Q 4313 656 3875 328 
Q 3438 0 2509 0 
L 353 0 
z
" transform="scale(0.015625)"/>
      </defs>
      <use xlink:href="#DejaVuSerif-4d"/>
      <use xlink:href="#DejaVuSerif-69" x="102.392578"/>
      <use xlink:href="#DejaVuSerif-42" x="134.375"/>
     </g>
    </g>
   </g>
   <g id="patch_3">
    <path d="M 66.204673 164.590639 
L 69.80368 164.590639 
L 69.80368 158.019338 
L 66.204673 158.019338 
z
" clip-path="url(#pf1c2fffbed)" style="fill: #3366cc; opacity: 0.7"/>
   </g>
   <g id="patch_4">
    <path d="M 70.703431 164.590639 
L 74.302437 164.590639 
L 74.302437 141.065604 
L 70.703431 141.065604 
z
" clip-path="url(#pf1c2fffbed)" style="fill: #3366cc; opacity: 0.7"/>
   </g>
   <g id="patch_5">
    <path d="M 75.202189 164.590639 
L 78.801195 164.590639 
L 78.801195 142.781011 
L 75.202189 142.781011 
z
" clip-path="url(#pf1c2fffbed)" style="fill: #3366cc; opacity: 0.7"/>
   </g>
   <g id="patch_6">
    <path d="M 79.700947 164.590639 
L 83.299953 164.590639 
L 83.299953 144.347471 
L 79.700947 144.347471 
z
" clip-path="url(#pf1c2fffbed)" style="fill: #3366cc; opacity: 0.7"/>
   </g>
   <g id="patch_7">
    <path d="M 84.199705 164.590639 
L 87.798711 164.590639 
L 87.798711 142.245926 
L 84.199705 142.245926 
z
" clip-path="url(#pf1c2fffbed)" style="fill: #3366cc; opacity: 0.7"/>
   </g>
   <g id="patch_8">
    <path d="M 88.698463 164.590639 
L 92.297469 164.590639 
L 92.297469 145.971376 
L 88.698463 145.971376 
z
" clip-path="url(#pf1c2fffbed)" style="fill: #3366cc; opacity: 0.7"/>
   </g>
   <g id="patch_9">
    <path d="M 93.197221 164.590639 
L 96.796227 164.590639 
L 96.796227 148.577869 
L 93.197221 148.577869 
z
" clip-path="url(#pf1c2fffbed)" style="fill: #3366cc; opacity: 0.7"/>
   </g>
   <g id="patch_10">
    <path d="M 97.695978 164.590639 
L 101.294985 164.590639 
L 101.294985 150.601814 
L 97.695978 150.601814 
z
" clip-path="url(#pf1c2fffbed)" style="fill: #3366cc; opacity: 0.7"/>
   </g>
   <g id="patch_11">
    <path d="M 102.194736 164.590639 
L 105.793743 164.590639 
L 105.793743 147.280469 
L 102.194736 147.280469 
z
" clip-path="url(#pf1c2fffbed)" style="fill: #3366cc; opacity: 0.7"/>
   </g>
   <g id="patch_12">
    <path d="M 106.693494 164.590639 
L 110.292501 164.590639 
L 110.292501 146.422955 
L 106.693494 146.422955 
z
" clip-path="url(#pf1c2fffbed)" style="fill: #3366cc; opacity: 0.7"/>
   </g>
   <g id="patch_13">
    <path d="M 111.192252 164.590639 
L 114.791258 164.590639 
L 114.791258 150.298533 
L 111.192252 150.298533 
z
" clip-path="url(#pf1c2fffbed)" style="fill: #3366cc; opacity: 0.7"/>
   </g>
   <g id="patch_14">
    <path d="M 115.69101 164.590639 
L 119.290016 164.590639 
L 119.290016 149.431001 
L 115.69101 149.431001 
z
" clip-path="url(#pf1c2fffbed)" style="fill: #3366cc; opacity: 0.7"/>
   </g>
   <g id="patch_15">
    <path d="M 120.189768 164.590639 
L 123.788774 164.590639 
L 123.788774 144.282025 
L 120.189768 144.282025 
z
" clip-path="url(#pf1c2fffbed)" style="fill: #3366cc; opacity: 0.7"/>
   </g>
   <g id="patch_16">
    <path d="M 124.688526 164.590639 
L 128.287532 164.590639 
L 128.287532 152.591915 
L 124.688526 152.591915 
z
" clip-path="url(#pf1c2fffbed)" style="fill: #3366cc; opacity: 0.7"/>
   </g>
   <g id="patch_17">
    <path d="M 129.187284 164.590639 
L 132.78629 164.590639 
L 132.78629 149.654003 
L 129.187284 149.654003 
z
" clip-path="url(#pf1c2fffbed)" style="fill: #3366cc; opacity: 0.7"/>
   </g>
   <g id="patch_18">
    <path d="M 133.686042 164.590639 
L 137.285048 164.590639 
L 137.285048 154.526486 
L 133.686042 154.526486 
z
" clip-path="url(#pf1c2fffbed)" style="fill: #3366cc; opacity: 0.7"/>
   </g>
   <g id="patch_19">
    <path d="M 138.184799 164.590639 
L 141.783806 164.590639 
L 141.783806 155.45978 
L 138.184799 155.45978 
z
" clip-path="url(#pf1c2fffbed)" style="fill: #3366cc; opacity: 0.7"/>
   </g>
   <g id="patch_20">
    <path d="M 142.683557 164.590639 
L 146.282564 164.590639 
L 146.282564 155.658083 
L 142.683557 155.658083 
z
" clip-path="url(#pf1c2fffbed)" style="fill: #3366cc; opacity: 0.7"/>
   </g>
   <g id="patch_21">
    <path d="M 147.182315 164.590639 
L 150.781322 164.590639 
L 150.781322 153.623343 
L 147.182315 153.623343 
z
" clip-path="url(#pf1c2fffbed)" style="fill: #3366cc; opacity: 0.7"/>
   </g>
   <g id="patch_22">
    <path d="M 151.681073 164.590639 
L 155.280079 164.590639 
L 155.280079 85.701147 
L 151.681073 85.701147 
z
" clip-path="url(#pf1c2fffbed)" style="fill: #3366cc; opacity: 0.7"/>
   </g>
   <g id="patch_23">
    <path d="M 156.179831 164.590639 
L 159.778837 164.590639 
L 159.778837 36.29901 
L 156.179831 36.29901 
z
" clip-path="url(#pf1c2fffbed)" style="fill: #3366cc; opacity: 0.7"/>
   </g>
   <g id="patch_24">
    <path d="M 160.678589 164.590639 
L 164.277595 164.590639 
L 164.277595 36.231704 
L 160.678589 36.231704 
z
" clip-path="url(#pf1c2fffbed)" style="fill: #3366cc; opacity: 0.7"/>
   </g>
   <g id="patch_25">
    <path d="M 165.177347 164.590639 
L 168.776353 164.590639 
L 168.776353 35.081471 
L 165.177347 35.081471 
z
" clip-path="url(#pf1c2fffbed)" style="fill: #3366cc; opacity: 0.7"/>
   </g>
   <g id="patch_26">
    <path d="M 169.676105 164.590639 
L 173.275111 164.590639 
L 173.275111 31.94981 
L 169.676105 31.94981 
z
" clip-path="url(#pf1c2fffbed)" style="fill: #3366cc; opacity: 0.7"/>
   </g>
   <g id="patch_27">
    <path d="M 174.174863 164.590639 
L 177.773869 164.590639 
L 177.773869 35.042503 
L 174.174863 35.042503 
z
" clip-path="url(#pf1c2fffbed)" style="fill: #3366cc; opacity: 0.7"/>
   </g>
   <g id="patch_28">
    <path d="M 178.67362 164.590639 
L 182.272627 164.590639 
L 182.272627 31.797917 
L 178.67362 31.797917 
z
" clip-path="url(#pf1c2fffbed)" style="fill: #3366cc; opacity: 0.7"/>
   </g>
   <g id="patch_29">
    <path d="M 183.172378 164.590639 
L 186.771385 164.590639 
L 186.771385 112.80969 
L 183.172378 112.80969 
z
" clip-path="url(#pf1c2fffbed)" style="fill: #3366cc; opacity: 0.7"/>
   </g>
   <g id="patch_30">
    <path d="M 187.671136 164.590639 
L 191.270142 164.590639 
L 191.270142 134.211854 
L 187.671136 134.211854 
z
" clip-path="url(#pf1c2fffbed)" style="fill: #3366cc; opacity: 0.7"/>
   </g>
   <g id="patch_31">
    <path d="M 192.169894 164.590639 
L 195.7689 164.590639 
L 195.7689 139.813807 
L 192.169894 139.813807 
z
" clip-path="url(#pf1c2fffbed)" style="fill: #3366cc; opacity: 0.7"/>
   </g>
   <g id="patch_32">
    <path d="M 196.668652 164.590639 
L 200.267658 164.590639 
L 200.267658 137.609356 
L 196.668652 137.609356 
z
" clip-path="url(#pf1c2fffbed)" style="fill: #3366cc; opacity: 0.7"/>
   </g>
   <g id="patch_33">
    <path d="M 201.16741 164.590639 
L 204.766416 164.590639 
L 204.766416 136.67232 
L 201.16741 136.67232 
z
" clip-path="url(#pf1c2fffbed)" style="fill: #3366cc; opacity: 0.7"/>
   </g>
   <g id="patch_34">
    <path d="M 205.666168 164.590639 
L 209.265174 164.590639 
L 209.265174 136.535228 
L 205.666168 136.535228 
z
" clip-path="url(#pf1c2fffbed)" style="fill: #3366cc; opacity: 0.7"/>
   </g>
   <g id="patch_35">
    <path d="M 210.164926 164.590639 
L 213.763932 164.590639 
L 213.763932 140.415823 
L 210.164926 140.415823 
z
" clip-path="url(#pf1c2fffbed)" style="fill: #3366cc; opacity: 0.7"/>
   </g>
   <g id="patch_36">
    <path d="M 214.663683 164.590639 
L 218.26269 164.590639 
L 218.26269 141.434233 
L 214.663683 141.434233 
z
" clip-path="url(#pf1c2fffbed)" style="fill: #3366cc; opacity: 0.7"/>
   </g>
   <g id="patch_37">
    <path d="M 219.162441 164.590639 
L 222.761448 164.590639 
L 222.761448 143.197995 
L 219.162441 143.197995 
z
" clip-path="url(#pf1c2fffbed)" style="fill: #3366cc; opacity: 0.7"/>
   </g>
   <g id="patch_38">
    <path d="M 223.661199 164.590639 
L 227.260206 164.590639 
L 227.260206 141.230548 
L 223.661199 141.230548 
z
" clip-path="url(#pf1c2fffbed)" style="fill: #3366cc; opacity: 0.7"/>
   </g>
   <g id="patch_39">
    <path d="M 228.159957 164.590639 
L 231.758963 164.590639 
L 231.758963 140.237836 
L 228.159957 140.237836 
z
" clip-path="url(#pf1c2fffbed)" style="fill: #3366cc; opacity: 0.7"/>
   </g>
   <g id="patch_40">
    <path d="M 232.658715 164.590639 
L 236.257721 164.590639 
L 236.257721 139.473854 
L 232.658715 139.473854 
z
" clip-path="url(#pf1c2fffbed)" style="fill: #3366cc; opacity: 0.7"/>
   </g>
   <g id="patch_41">
    <path d="M 237.157473 164.590639 
L 240.756479 164.590639 
L 240.756479 140.523038 
L 237.157473 140.523038 
z
" clip-path="url(#pf1c2fffbed)" style="fill: #3366cc; opacity: 0.7"/>
   </g>
   <g id="patch_42">
    <path d="M 241.656231 164.590639 
L 245.255237 164.590639 
L 245.255237 141.216267 
L 241.656231 141.216267 
z
" clip-path="url(#pf1c2fffbed)" style="fill: #3366cc; opacity: 0.7"/>
   </g>
   <g id="patch_43">
    <path d="M 246.154989 164.590639 
L 249.753995 164.590639 
L 249.753995 139.262958 
L 246.154989 139.262958 
z
" clip-path="url(#pf1c2fffbed)" style="fill: #3366cc; opacity: 0.7"/>
   </g>
   <g id="patch_44">
    <path d="M 250.653747 164.590639 
L 254.252753 164.590639 
L 254.252753 140.183027 
L 250.653747 140.183027 
z
" clip-path="url(#pf1c2fffbed)" style="fill: #3366cc; opacity: 0.7"/>
   </g>
   <g id="patch_45">
    <path d="M 255.152504 164.590639 
L 258.751511 164.590639 
L 258.751511 143.612363 
L 255.152504 143.612363 
z
" clip-path="url(#pf1c2fffbed)" style="fill: #3366cc; opacity: 0.7"/>
   </g>
   <g id="patch_46">
    <path d="M 259.651262 164.590639 
L 263.250269 164.590639 
L 263.250269 140.071472 
L 259.651262 140.071472 
z
" clip-path="url(#pf1c2fffbed)" style="fill: #3366cc; opacity: 0.7"/>
   </g>
   <g id="patch_47">
    <path d="M 264.15002 164.590639 
L 267.749027 164.590639 
L 267.749027 137.861635 
L 264.15002 137.861635 
z
" clip-path="url(#pf1c2fffbed)" style="fill: #3366cc; opacity: 0.7"/>
   </g>
   <g id="patch_48">
    <path d="M 268.648778 164.590639 
L 272.247784 164.590639 
L 272.247784 139.538346 
L 268.648778 139.538346 
z
" clip-path="url(#pf1c2fffbed)" style="fill: #3366cc; opacity: 0.7"/>
   </g>
   <g id="patch_49">
    <path d="M 273.147536 164.590639 
L 276.746542 164.590639 
L 276.746542 139.068678 
L 273.147536 139.068678 
z
" clip-path="url(#pf1c2fffbed)" style="fill: #3366cc; opacity: 0.7"/>
   </g>
   <g id="patch_50">
    <path d="M 277.646294 164.590639 
L 281.2453 164.590639 
L 281.2453 140.581421 
L 277.646294 140.581421 
z
" clip-path="url(#pf1c2fffbed)" style="fill: #3366cc; opacity: 0.7"/>
   </g>
   <g id="patch_51">
    <path d="M 282.145052 164.590639 
L 285.744058 164.590639 
L 285.744058 139.657551 
L 282.145052 139.657551 
z
" clip-path="url(#pf1c2fffbed)" style="fill: #3366cc; opacity: 0.7"/>
   </g>
   <g id="patch_52">
    <path d="M 286.64381 164.590639 
L 290.242816 164.590639 
L 290.242816 140.018887 
L 286.64381 140.018887 
z
" clip-path="url(#pf1c2fffbed)" style="fill: #3366cc; opacity: 0.7"/>
   </g>
   <g id="patch_53">
    <path d="M 291.142568 164.590639 
L 294.741574 164.590639 
L 294.741574 140.716814 
L 291.142568 140.716814 
z
" clip-path="url(#pf1c2fffbed)" style="fill: #3366cc; opacity: 0.7"/>
   </g>
   <g id="patch_54">
    <path d="M 295.641325 164.590639 
L 299.240332 164.590639 
L 299.240332 145.864649 
L 295.641325 145.864649 
z
" clip-path="url(#pf1c2fffbed)" style="fill: #3366cc; opacity: 0.7"/>
   </g>
   <g id="patch_55">
    <path d="M 300.140083 164.590639 
L 303.73909 164.590639 
L 303.73909 142.259482 
L 300.140083 142.259482 
z
" clip-path="url(#pf1c2fffbed)" style="fill: #3366cc; opacity: 0.7"/>
   </g>
   <g id="patch_56">
    <path d="M 304.638841 164.590639 
L 308.237847 164.590639 
L 308.237847 137.215834 
L 304.638841 137.215834 
z
" clip-path="url(#pf1c2fffbed)" style="fill: #3366cc; opacity: 0.7"/>
   </g>
   <g id="patch_57">
    <path d="M 309.137599 164.590639 
L 312.736605 164.590639 
L 312.736605 147.944313 
L 309.137599 147.944313 
z
" clip-path="url(#pf1c2fffbed)" style="fill: #3366cc; opacity: 0.7"/>
   </g>
   <g id="patch_58">
    <path d="M 313.636357 164.590639 
L 317.235363 164.590639 
L 317.235363 160.642962 
L 313.636357 160.642962 
z
" clip-path="url(#pf1c2fffbed)" style="fill: #3366cc; opacity: 0.7"/>
   </g>
   <g id="patch_59">
    <path d="M 318.135115 164.590639 
L 321.734121 164.590639 
L 321.734121 160.617204 
L 318.135115 160.617204 
z
" clip-path="url(#pf1c2fffbed)" style="fill: #3366cc; opacity: 0.7"/>
   </g>
   <g id="patch_60">
    <path d="M 322.633873 164.590639 
L 326.232879 164.590639 
L 326.232879 160.089115 
L 322.633873 160.089115 
z
" clip-path="url(#pf1c2fffbed)" style="fill: #3366cc; opacity: 0.7"/>
   </g>
   <g id="patch_61">
    <path d="M 327.132631 164.590639 
L 330.731637 164.590639 
L 330.731637 57.768283 
L 327.132631 57.768283 
z
" clip-path="url(#pf1c2fffbed)" style="fill: #3366cc; opacity: 0.7"/>
   </g>
   <g id="patch_62">
    <path d="M 331.631388 164.590639 
L 335.230395 164.590639 
L 335.230395 135.8087 
L 331.631388 135.8087 
z
" clip-path="url(#pf1c2fffbed)" style="fill: #3366cc; opacity: 0.7"/>
   </g>
   <g id="patch_63">
    <path d="M 336.130146 164.590639 
L 339.729153 164.590639 
L 339.729153 137.859255 
L 336.130146 137.859255 
z
" clip-path="url(#pf1c2fffbed)" style="fill: #3366cc; opacity: 0.7"/>
   </g>
   <g id="patch_64">
    <path d="M 340.628904 164.590639 
L 344.227911 164.590639 
L 344.227911 140.499717 
L 340.628904 140.499717 
z
" clip-path="url(#pf1c2fffbed)" style="fill: #3366cc; opacity: 0.7"/>
   </g>
   <g id="patch_65">
    <path d="M 345.127662 164.590639 
L 348.726668 164.590639 
L 348.726668 136.540864 
L 345.127662 136.540864 
z
" clip-path="url(#pf1c2fffbed)" style="fill: #3366cc; opacity: 0.7"/>
   </g>
   <g id="patch_66">
    <path d="M 349.62642 164.590639 
L 353.225426 164.590639 
L 353.225426 139.902922 
L 349.62642 139.902922 
z
" clip-path="url(#pf1c2fffbed)" style="fill: #3366cc; opacity: 0.7"/>
   </g>
   <g id="patch_67">
    <path d="M 354.125178 164.590639 
L 357.724184 164.590639 
L 357.724184 135.651172 
L 354.125178 135.651172 
z
" clip-path="url(#pf1c2fffbed)" style="fill: #3366cc; opacity: 0.7"/>
   </g>
   <g id="patch_68">
    <path d="M 358.623936 164.590639 
L 362.222942 164.590639 
L 362.222942 136.441068 
L 358.623936 136.441068 
z
" clip-path="url(#pf1c2fffbed)" style="fill: #3366cc; opacity: 0.7"/>
   </g>
   <g id="patch_69">
    <path d="M 363.122694 164.590639 
L 366.7217 164.590639 
L 366.7217 139.34221 
L 363.122694 139.34221 
z
" clip-path="url(#pf1c2fffbed)" style="fill: #3366cc; opacity: 0.7"/>
   </g>
   <g id="patch_70">
    <path d="M 367.621452 164.590639 
L 371.220458 164.590639 
L 371.220458 136.85524 
L 367.621452 136.85524 
z
" clip-path="url(#pf1c2fffbed)" style="fill: #3366cc; opacity: 0.7"/>
   </g>
   <g id="patch_71">
    <path d="M 372.120209 164.590639 
L 375.719216 164.590639 
L 375.719216 139.225827 
L 372.120209 139.225827 
z
" clip-path="url(#pf1c2fffbed)" style="fill: #3366cc; opacity: 0.7"/>
   </g>
   <g id="patch_72">
    <path d="M 376.618967 164.590639 
L 380.217974 164.590639 
L 380.217974 139.161572 
L 376.618967 139.161572 
z
" clip-path="url(#pf1c2fffbed)" style="fill: #3366cc; opacity: 0.7"/>
   </g>
   <g id="patch_73">
    <path d="M 381.117725 164.590639 
L 384.716732 164.590639 
L 384.716732 139.362206 
L 381.117725 139.362206 
z
" clip-path="url(#pf1c2fffbed)" style="fill: #3366cc; opacity: 0.7"/>
   </g>
   <g id="patch_74">
    <path d="M 385.616483 164.590639 
L 389.215489 164.590639 
L 389.215489 136.930886 
L 385.616483 136.930886 
z
" clip-path="url(#pf1c2fffbed)" style="fill: #3366cc; opacity: 0.7"/>
   </g>
   <g id="patch_75">
    <path d="M 390.115241 164.590639 
L 393.714247 164.590639 
L 393.714247 133.78043 
L 390.115241 133.78043 
z
" clip-path="url(#pf1c2fffbed)" style="fill: #3366cc; opacity: 0.7"/>
   </g>
   <g id="patch_76">
    <path d="M 394.613999 164.590639 
L 398.213005 164.590639 
L 398.213005 136.972257 
L 394.613999 136.972257 
z
" clip-path="url(#pf1c2fffbed)" style="fill: #3366cc; opacity: 0.7"/>
   </g>
   <g id="patch_77">
    <path d="M 399.112757 164.590639 
L 402.711763 164.590639 
L 402.711763 141.788147 
L 399.112757 141.788147 
z
" clip-path="url(#pf1c2fffbed)" style="fill: #3366cc; opacity: 0.7"/>
   </g>
   <g id="patch_78">
    <path d="M 403.611515 164.590639 
L 407.210521 164.590639 
L 407.210521 158.330987 
L 403.611515 158.330987 
z
" clip-path="url(#pf1c2fffbed)" style="fill: #3366cc; opacity: 0.7"/>
   </g>
   <g id="patch_79">
    <path d="M 408.110273 164.590639 
L 411.709279 164.590639 
L 411.709279 157.647648 
L 408.110273 157.647648 
z
" clip-path="url(#pf1c2fffbed)" style="fill: #3366cc; opacity: 0.7"/>
   </g>
   <g id="patch_80">
    <path d="M 412.60903 164.590639 
L 416.208037 164.590639 
L 416.208037 157.848446 
L 412.60903 157.848446 
z
" clip-path="url(#pf1c2fffbed)" style="fill: #3366cc; opacity: 0.7"/>
   </g>
   <g id="patch_81">
    <path d="M 417.107788 164.590639 
L 420.706795 164.590639 
L 420.706795 158.38883 
L 417.107788 158.38883 
z
" clip-path="url(#pf1c2fffbed)" style="fill: #3366cc; opacity: 0.7"/>
   </g>
   <g id="patch_82">
    <path d="M 421.606546 164.590639 
L 425.205552 164.590639 
L 425.205552 158.597678 
L 421.606546 158.597678 
z
" clip-path="url(#pf1c2fffbed)" style="fill: #3366cc; opacity: 0.7"/>
   </g>
   <g id="patch_83">
    <path d="M 426.105304 164.590639 
L 429.70431 164.590639 
L 429.70431 159.150557 
L 426.105304 159.150557 
z
" clip-path="url(#pf1c2fffbed)" style="fill: #3366cc; opacity: 0.7"/>
   </g>
   <g id="patch_84">
    <path d="M 430.604062 164.590639 
L 434.203068 164.590639 
L 434.203068 156.818079 
L 430.604062 156.818079 
z
" clip-path="url(#pf1c2fffbed)" style="fill: #3366cc; opacity: 0.7"/>
   </g>
   <g id="patch_85">
    <path d="M 435.10282 164.590639 
L 438.701826 164.590639 
L 438.701826 158.570335 
L 435.10282 158.570335 
z
" clip-path="url(#pf1c2fffbed)" style="fill: #3366cc; opacity: 0.7"/>
   </g>
   <g id="patch_86">
    <path d="M 439.601578 164.590639 
L 443.200584 164.590639 
L 443.200584 158.95047 
L 439.601578 158.95047 
z
" clip-path="url(#pf1c2fffbed)" style="fill: #3366cc; opacity: 0.7"/>
   </g>
   <g id="patch_87">
    <path d="M 444.100336 164.590639 
L 447.699342 164.590639 
L 447.699342 159.859072 
L 444.100336 159.859072 
z
" clip-path="url(#pf1c2fffbed)" style="fill: #3366cc; opacity: 0.7"/>
   </g>
   <g id="patch_88">
    <path d="M 448.599093 164.590639 
L 452.1981 164.590639 
L 452.1981 158.648562 
L 448.599093 158.648562 
z
" clip-path="url(#pf1c2fffbed)" style="fill: #3366cc; opacity: 0.7"/>
   </g>
   <g id="patch_89">
    <path d="M 453.097851 164.590639 
L 456.696858 164.590639 
L 456.696858 157.965887 
L 453.097851 157.965887 
z
" clip-path="url(#pf1c2fffbed)" style="fill: #3366cc; opacity: 0.7"/>
   </g>
   <g id="patch_90">
    <path d="M 457.596609 164.590639 
L 461.195616 164.590639 
L 461.195616 159.934103 
L 457.596609 159.934103 
z
" clip-path="url(#pf1c2fffbed)" style="fill: #3366cc; opacity: 0.7"/>
   </g>
   <g id="patch_91">
    <path d="M 462.095367 164.590639 
L 465.694373 164.590639 
L 465.694373 159.707211 
L 462.095367 159.707211 
z
" clip-path="url(#pf1c2fffbed)" style="fill: #3366cc; opacity: 0.7"/>
   </g>
   <g id="patch_92">
    <path d="M 466.594125 164.590639 
L 470.193131 164.590639 
L 470.193131 159.65332 
L 466.594125 159.65332 
z
" clip-path="url(#pf1c2fffbed)" style="fill: #3366cc; opacity: 0.7"/>
   </g>
   <g id="patch_93">
    <path d="M 471.092883 164.590639 
L 474.691889 164.590639 
L 474.691889 162.291546 
L 471.092883 162.291546 
z
" clip-path="url(#pf1c2fffbed)" style="fill: #3366cc; opacity: 0.7"/>
   </g>
   <g id="patch_94">
    <path d="M 45.780313 164.590639 
L 45.780313 25.158281 
" style="fill: none; stroke: #000000; stroke-width: 0.6; stroke-linejoin: miter; stroke-linecap: square"/>
   </g>
   <g id="patch_95">
    <path d="M 45.780313 164.590639 
L 495.11625 164.590639 
" style="fill: none; stroke: #000000; stroke-width: 0.6; stroke-linejoin: miter; stroke-linecap: square"/>
   </g>
   <g id="line2d_29">
    <path d="M 68.004176 158.019338 
L 72.502934 149.542471 
L 77.001692 147.288651 
L 81.50045 146.553356 
L 85.999208 145.69187 
L 90.497966 145.738454 
L 94.996724 146.144085 
L 99.495482 145.084439 
L 103.99424 145.972276 
L 108.492997 146.492554 
L 112.991755 147.342706 
L 117.490513 148.369145 
L 121.989271 148.12781 
L 126.488029 148.701245 
L 130.986787 148.565843 
L 135.485545 149.600988 
L 139.984303 150.891963 
L 144.48306 151.657613 
L 148.981818 152.256519 
L 153.480576 143.887822 
L 157.979334 127.27455 
L 162.478092 111.071365 
L 166.97685 94.007791 
L 171.475608 76.36351 
L 175.974366 59.132713 
L 180.473124 41.72908 
L 184.971881 45.601729 
L 189.470639 59.589279 
L 193.969397 74.386722 
L 198.468155 89.033563 
L 202.966913 103.993921 
L 207.465671 118.492882 
L 211.964429 134.009726 
L 216.463187 138.098946 
L 220.961945 139.38268 
L 225.460702 139.585072 
L 229.95946 139.960569 
L 234.458218 140.360788 
L 238.956976 140.930475 
L 243.455734 141.044824 
L 247.954492 140.734642 
L 252.45325 140.303933 
L 256.952008 140.644192 
L 261.450765 140.620425 
L 265.949523 140.390109 
L 270.448281 140.249438 
L 274.947039 139.94264 
L 279.445797 140.130992 
L 283.944555 140.055924 
L 288.443313 139.54257 
L 292.942071 139.634762 
L 297.440829 140.778049 
L 301.939586 141.166783 
L 306.438344 140.902091 
L 310.937102 141.953933 
L 315.43586 144.951849 
L 319.934618 147.894465 
L 324.433376 150.661937 
L 328.932134 138.076742 
L 333.430892 137.155202 
L 337.92965 137.247119 
L 342.428407 136.183605 
L 346.927165 132.740448 
L 351.425923 129.781265 
L 355.924681 126.29013 
L 360.423439 137.5291 
L 364.922197 138.033887 
L 369.420955 137.890456 
L 373.919713 137.708472 
L 378.41847 138.082859 
L 382.917228 138.005613 
L 387.415986 138.18843 
L 391.914744 137.808339 
L 396.413502 137.469774 
L 400.91226 138.174475 
L 405.411018 140.903784 
L 409.909776 143.544652 
L 414.408534 146.185543 
L 418.907291 149.250964 
L 423.406049 152.796285 
L 427.904807 155.964613 
L 432.403565 158.111747 
L 436.902323 158.145939 
L 441.401081 158.332057 
L 445.899839 158.619289 
L 450.398597 158.656393 
L 454.897355 158.566137 
L 459.396112 158.678073 
L 463.89487 159.090806 
L 468.393628 159.245518 
L 472.892386 159.722815 
" clip-path="url(#pf1c2fffbed)" style="fill: none; stroke: #cc3333; stroke-width: 1.5; stroke-linecap: square"/>
   </g>
   <g id="text_16">
    <!-- Avail — Daily Data Volume (MiB) -->
    <g transform="translate(178.780469 19.158281) scale(0.11 -0.11)">
     <defs>
      <path id="DejaVuSerif-41" d="M 1281 1691 
L 2994 1691 
L 2138 3909 
L 1281 1691 
z
M -38 0 
L -38 331 
L 372 331 
L 2034 4666 
L 2559 4666 
L 4225 331 
L 4684 331 
L 4684 0 
L 2988 0 
L 2988 331 
L 3506 331 
L 3116 1356 
L 1153 1356 
L 763 331 
L 1275 331 
L 1275 0 
L -38 0 
z
" transform="scale(0.015625)"/>
      <path id="DejaVuSerif-6c" d="M 1313 331 
L 1856 331 
L 1856 0 
L 184 0 
L 184 331 
L 738 331 
L 738 4531 
L 184 4531 
L 184 4863 
L 1313 4863 
L 1313 331 
z
" transform="scale(0.015625)"/>
      <path id="DejaVuSerif-2014" d="M 281 1906 
L 6119 1906 
L 6119 1491 
L 281 1491 
L 281 1906 
z
" transform="scale(0.015625)"/>
      <path id="DejaVuSerif-79" d="M 1381 -609 
L 1600 -56 
L 359 2988 
L -19 2988 
L -19 3322 
L 1509 3322 
L 1509 2988 
L 978 2988 
L 1913 703 
L 2847 2988 
L 2350 2988 
L 2350 3322 
L 3597 3322 
L 3597 2988 
L 3225 2988 
L 1703 -750 
Q 1547 -1138 1356 -1280 
Q 1166 -1422 819 -1422 
Q 672 -1422 517 -1397 
Q 363 -1372 206 -1325 
L 206 -691 
L 500 -691 
Q 519 -903 608 -995 
Q 697 -1088 884 -1088 
Q 1056 -1088 1161 -992 
Q 1266 -897 1381 -609 
z
" transform="scale(0.015625)"/>
      <path id="DejaVuSerif-74" d="M 691 2988 
L 184 2988 
L 184 3322 
L 691 3322 
L 691 4353 
L 1269 4353 
L 1269 3322 
L 2350 3322 
L 2350 2988 
L 1269 2988 
L 1269 878 
Q 1269 456 1350 337 
Q 1431 219 1650 219 
Q 1875 219 1978 351 
Q 2081 484 2088 781 
L 2522 781 
Q 2497 328 2275 118 
Q 2053 -91 1600 -91 
Q 1103 -91 897 129 
Q 691 350 691 878 
L 691 2988 
z
" transform="scale(0.015625)"/>
      <path id="DejaVuSerif-56" d="M 1119 4331 
L 2497 750 
L 3872 4331 
L 3347 4331 
L 3347 4666 
L 4716 4666 
L 4716 4331 
L 4263 4331 
L 2597 0 
L 2059 0 
L 403 4331 
L -63 4331 
L -63 4666 
L 1638 4666 
L 1638 4331 
L 1119 4331 
z
" transform="scale(0.015625)"/>
      <path id="DejaVuSerif-75" d="M 2266 3322 
L 3341 3322 
L 3341 331 
L 3884 331 
L 3884 0 
L 2766 0 
L 2766 588 
Q 2606 256 2353 82 
Q 2100 -91 1766 -91 
Q 1213 -91 952 223 
Q 691 538 691 1209 
L 691 2988 
L 172 2988 
L 172 3322 
L 1269 3322 
L 1269 1388 
Q 1269 781 1417 556 
Q 1566 331 1947 331 
Q 2347 331 2556 625 
Q 2766 919 2766 1478 
L 2766 2988 
L 2266 2988 
L 2266 3322 
z
" transform="scale(0.015625)"/>
      <path id="DejaVuSerif-6d" d="M 3316 2675 
Q 3481 3041 3739 3227 
Q 3997 3413 4341 3413 
Q 4863 3413 5119 3089 
Q 5375 2766 5375 2113 
L 5375 331 
L 5894 331 
L 5894 0 
L 4300 0 
L 4300 331 
L 4800 331 
L 4800 2047 
Q 4800 2556 4650 2772 
Q 4500 2988 4153 2988 
Q 3769 2988 3567 2697 
Q 3366 2406 3366 1850 
L 3366 331 
L 3866 331 
L 3866 0 
L 2291 0 
L 2291 331 
L 2791 331 
L 2791 2069 
Q 2791 2566 2641 2777 
Q 2491 2988 2144 2988 
Q 1759 2988 1557 2697 
Q 1356 2406 1356 1850 
L 1356 331 
L 1856 331 
L 1856 0 
L 263 0 
L 263 331 
L 781 331 
L 781 2994 
L 231 2994 
L 231 3322 
L 1356 3322 
L 1356 2731 
Q 1516 3063 1762 3238 
Q 2009 3413 2322 3413 
Q 2709 3413 2968 3220 
Q 3228 3028 3316 2675 
z
" transform="scale(0.015625)"/>
      <path id="DejaVuSerif-28" d="M 2041 -997 
Q 1281 -656 893 83 
Q 506 822 506 1931 
Q 506 3044 893 3783 
Q 1281 4522 2041 4863 
L 2041 4556 
Q 1559 4225 1350 3623 
Q 1141 3022 1141 1931 
Q 1141 844 1350 242 
Q 1559 -359 2041 -691 
L 2041 -997 
z
" transform="scale(0.015625)"/>
      <path id="DejaVuSerif-29" d="M 453 -997 
L 453 -691 
Q 934 -359 1145 242 
Q 1356 844 1356 1931 
Q 1356 3022 1145 3623 
Q 934 4225 453 4556 
L 453 4863 
Q 1216 4522 1603 3783 
Q 1991 3044 1991 1931 
Q 1991 822 1603 83 
Q 1216 -656 453 -997 
z
" transform="scale(0.015625)"/>
     </defs>
     <use xlink:href="#DejaVuSerif-41"/>
     <use xlink:href="#DejaVuSerif-76" x="68.216797"/>
     <use xlink:href="#DejaVuSerif-61" x="124.710938"/>
     <use xlink:href="#DejaVuSerif-69" x="184.330078"/>
     <use xlink:href="#DejaVuSerif-6c" x="216.3125"/>
     <use xlink:href="#DejaVuSerif-20" x="248.294922"/>
     <use xlink:href="#DejaVuSerif-2014" x="280.082031"/>
     <use xlink:href="#DejaVuSerif-20" x="380.082031"/>
     <use xlink:href="#DejaVuSerif-44" x="411.869141"/>
     <use xlink:href="#DejaVuSerif-61" x="492.044922"/>
     <use xlink:href="#DejaVuSerif-69" x="551.664062"/>
     <use xlink:href="#DejaVuSerif-6c" x="583.646484"/>
     <use xlink:href="#DejaVuSerif-79" x="615.628906"/>
     <use xlink:href="#DejaVuSerif-20" x="672.123047"/>
     <use xlink:href="#DejaVuSerif-44" x="703.910156"/>
     <use xlink:href="#DejaVuSerif-61" x="784.085938"/>
     <use xlink:href="#DejaVuSerif-74" x="843.705078"/>
     <use xlink:href="#DejaVuSerif-61" x="883.890625"/>
     <use xlink:href="#DejaVuSerif-20" x="943.509766"/>
     <use xlink:href="#DejaVuSerif-56" x="975.296875"/>
     <use xlink:href="#DejaVuSerif-6f" x="1038.388672"/>
     <use xlink:href="#DejaVuSerif-6c" x="1098.59375"/>
     <use xlink:href="#DejaVuSerif-75" x="1130.576172"/>
     <use xlink:href="#DejaVuSerif-6d" x="1194.980469"/>
     <use xlink:href="#DejaVuSerif-65" x="1289.804688"/>
     <use xlink:href="#DejaVuSerif-20" x="1348.984375"/>
     <use xlink:href="#DejaVuSerif-28" x="1380.771484"/>
     <use xlink:href="#DejaVuSerif-4d" x="1419.785156"/>
     <use xlink:href="#DejaVuSerif-69" x="1522.177734"/>
     <use xlink:href="#DejaVuSerif-42" x="1554.160156"/>
     <use xlink:href="#DejaVuSerif-29" x="1627.646484"/>
    </g>
   </g>
   <g id="legend_1">
    <g id="patch_96">
     <path d="M 436.75125 55.270781 
L 489.51625 55.270781 
Q 491.11625 55.270781 491.11625 53.670781 
L 491.11625 30.758281 
Q 491.11625 29.158281 489.51625 29.158281 
L 436.75125 29.158281 
Q 435.15125 29.158281 435.15125 30.758281 
L 435.15125 53.670781 
Q 435.15125 55.270781 436.75125 55.270781 
z
" style="fill: #ffffff; opacity: 0.9; stroke: #cccccc; stroke-linejoin: miter"/>
    </g>
    <g id="line2d_30">
     <path d="M 438.35125 35.637031 
L 446.35125 35.637031 
L 454.35125 35.637031 
" style="fill: none; stroke: #cc3333; stroke-width: 1.5; stroke-linecap: square"/>
    </g>
    <g id="text_17">
     <!-- 7d avg -->
     <g transform="translate(460.75125 38.437031) scale(0.08 -0.08)">
      <defs>
       <path id="DejaVuSerif-64" d="M 3359 331 
L 3909 331 
L 3909 0 
L 2784 0 
L 2784 519 
Q 2616 206 2355 57 
Q 2094 -91 1709 -91 
Q 1097 -91 708 395 
Q 319 881 319 1663 
Q 319 2444 706 2928 
Q 1094 3413 1709 3413 
Q 2094 3413 2355 3264 
Q 2616 3116 2784 2803 
L 2784 4531 
L 2241 4531 
L 2241 4863 
L 3359 4863 
L 3359 331 
z
M 2784 1497 
L 2784 1825 
Q 2784 2422 2554 2737 
Q 2325 3053 1888 3053 
Q 1444 3053 1217 2703 
Q 991 2353 991 1663 
Q 991 975 1217 622 
Q 1444 269 1888 269 
Q 2325 269 2554 583 
Q 2784 897 2784 1497 
z
" transform="scale(0.015625)"/>
       <path id="DejaVuSerif-67" d="M 3359 2988 
L 3359 72 
Q 3359 -644 2965 -1033 
Q 2572 -1422 1844 -1422 
Q 1516 -1422 1216 -1362 
Q 916 -1303 641 -1184 
L 641 -488 
L 941 -488 
Q 997 -813 1206 -963 
Q 1416 -1113 1806 -1113 
Q 2313 -1113 2548 -827 
Q 2784 -541 2784 72 
L 2784 519 
Q 2616 206 2355 57 
Q 2094 -91 1709 -91 
Q 1097 -91 708 395 
Q 319 881 319 1663 
Q 319 2444 706 2928 
Q 1094 3413 1709 3413 
Q 2094 3413 2355 3264 
Q 2616 3116 2784 2803 
L 2784 3322 
L 3909 3322 
L 3909 2988 
L 3359 2988 
z
M 2784 1825 
Q 2784 2422 2554 2737 
Q 2325 3053 1888 3053 
Q 1444 3053 1217 2703 
Q 991 2353 991 1663 
Q 991 975 1217 622 
Q 1444 269 1888 269 
Q 2325 269 2554 583 
Q 2784 897 2784 1497 
L 2784 1825 
z
" transform="scale(0.015625)"/>
      </defs>
      <use xlink:href="#DejaVuSerif-37"/>
      <use xlink:href="#DejaVuSerif-64" x="63.623047"/>
      <use xlink:href="#DejaVuSerif-20" x="127.636719"/>
      <use xlink:href="#DejaVuSerif-61" x="159.423828"/>
      <use xlink:href="#DejaVuSerif-76" x="219.042969"/>
      <use xlink:href="#DejaVuSerif-67" x="275.537109"/>
     </g>
    </g>
    <g id="patch_97">
     <path d="M 438.35125 50.293281 
L 454.35125 50.293281 
L 454.35125 44.693281 
L 438.35125 44.693281 
z
" style="fill: #3366cc; opacity: 0.7"/>
    </g>
    <g id="text_18">
     <!-- Daily -->
     <g transform="translate(460.75125 50.293281) scale(0.08 -0.08)">
      <use xlink:href="#DejaVuSerif-44"/>
      <use xlink:href="#DejaVuSerif-61" x="80.175781"/>
      <use xlink:href="#DejaVuSerif-69" x="139.794922"/>
      <use xlink:href="#DejaVuSerif-6c" x="171.777344"/>
      <use xlink:href="#DejaVuSerif-79" x="203.759766"/>
     </g>
    </g>
   </g>
  </g>
 </g>
 <defs>
  <clipPath id="pf1c2fffbed">
   <rect x="45.780313" y="25.158281" width="449.335937" height="139.432358"/>
  </clipPath>
 </defs>
</svg>
