<?xml version="1.0" encoding="utf-8" standalone="no"?>
<!DOCTYPE svg PUBLIC "-//W3C//DTD SVG 1.1//EN"
  "http://www.w3.org/Graphics/SVG/1.1/DTD/svg11.dtd">
<svg xmlns:xlink="http://www.w3.org/1999/xlink" width="506.470312pt" height="203.172687pt" viewBox="0 0 506.470312 203.172687" xmlns="http://www.w3.org/2000/svg" version="1.1">
 <metadata>
  <rdf:RDF xmlns:dc="http://purl.org/dc/elements/1.1/" xmlns:cc="http://creativecommons.org/ns#" xmlns:rdf="http://www.w3.org/1999/02/22-rdf-syntax-ns#">
   <cc:Work>
    <dc:type rdf:resource="http://purl.org/dc/dcmitype/StillImage"/>
    <dc:date>2026-02-16T16:57:27.382096</dc:date>
    <dc:format>image/svg+xml</dc:format>
    <dc:creator>
     <cc:Agent>
      <dc:title>Matplotlib v3.10.8, https://matplotlib.org/</dc:title>
     </cc:Agent>
    </dc:creator>
   </cc:Work>
  </rdf:RDF>
 </metadata>
 <defs>
  <style type="text/css">*{stroke-linejoin: round; stroke-linecap: butt}</style>
 </defs>
 <g id="figure_1">
  <g id="patch_1">
   <path d="M 0 203.172687 
L 506.470312 203.172687 
L 506.470312 0 
L 0 0 
z
" style="fill: #ffffff"/>
  </g>
  <g id="axes_1">
   <g id="patch_2">
    <path d="M 45.780313 164.13811 
L 495.670312 164.13811 
L 495.670312 25.158281 
L 45.780313 25.158281 
z
" style="fill: #ffffff"/>
   </g>
   <g id="matplotlib.axis_1">
    <g id="xtick_1">
     <g id="line2d_1">
      <path d="M 108.570327 164.13811 
L 108.570327 25.158281 
" clip-path="url(#pdfc4fb78fd)" style="fill: none; stroke: #b0b0b0; stroke-opacity: 0.25; stroke-width: 0.5; stroke-linecap: square"/>
     </g>
     <g id="line2d_2">
      <defs>
       <path id="m89c5dc9fc8" d="M 0 0 
L 0 3.5 
" style="stroke: #000000; stroke-width: 0.8"/>
      </defs>
      <g>
       <use xlink:href="#m89c5dc9fc8" x="108.570327" y="164.13811" style="stroke: #000000; stroke-width: 0.8"/>
      </g>
     </g>
     <g id="text_1">
      <!-- Nov 25 -->
      <g transform="translate(82.572836 190.931837) rotate(-30) scale(0.08 -0.08)">
       <defs>
        <path id="DejaVuSerif-4e" d="M 313 0 
L 313 331 
L 941 331 
L 941 4331 
L 313 4331 
L 313 4666 
L 1509 4666 
L 4306 984 
L 4306 4331 
L 3681 4331 
L 3681 4666 
L 5319 4666 
L 5319 4331 
L 4691 4331 
L 4691 -91 
L 4313 -91 
L 1325 3841 
L 1325 331 
L 1953 331 
L 1953 0 
L 313 0 
z
" transform="scale(0.015625)"/>
        <path id="DejaVuSerif-6f" d="M 1925 219 
Q 2388 219 2623 584 
Q 2859 950 2859 1663 
Q 2859 2375 2623 2739 
Q 2388 3103 1925 3103 
Q 1463 3103 1227 2739 
Q 991 2375 991 1663 
Q 991 950 1228 584 
Q 1466 219 1925 219 
z
M 1925 -91 
Q 1200 -91 759 389 
Q 319 869 319 1663 
Q 319 2456 758 2934 
Q 1197 3413 1925 3413 
Q 2653 3413 3092 2934 
Q 3531 2456 3531 1663 
Q 3531 869 3092 389 
Q 2653 -91 1925 -91 
z
" transform="scale(0.015625)"/>
        <path id="DejaVuSerif-76" d="M 1581 0 
L 359 2988 
L -19 2988 
L -19 3322 
L 1509 3322 
L 1509 2988 
L 978 2988 
L 1913 703 
L 2847 2988 
L 2350 2988 
L 2350 3322 
L 3597 3322 
L 3597 2988 
L 3225 2988 
L 2003 0 
L 1581 0 
z
" transform="scale(0.015625)"/>
        <path id="DejaVuSerif-20" transform="scale(0.015625)"/>
        <path id="DejaVuSerif-32" d="M 819 3553 
L 469 3553 
L 469 4384 
Q 803 4563 1142 4656 
Q 1481 4750 1806 4750 
Q 2534 4750 2956 4397 
Q 3378 4044 3378 3438 
Q 3378 2753 2422 1800 
Q 2347 1728 2309 1691 
L 1131 513 
L 3078 513 
L 3078 1088 
L 3444 1088 
L 3444 0 
L 434 0 
L 434 341 
L 1850 1753 
Q 2319 2222 2519 2614 
Q 2719 3006 2719 3438 
Q 2719 3909 2473 4175 
Q 2228 4441 1797 4441 
Q 1350 4441 1106 4219 
Q 863 3997 819 3553 
z
" transform="scale(0.015625)"/>
        <path id="DejaVuSerif-35" d="M 3219 4666 
L 3219 4153 
L 1081 4153 
L 1081 2816 
Q 1244 2928 1461 2984 
Q 1678 3041 1947 3041 
Q 2703 3041 3140 2622 
Q 3578 2203 3578 1478 
Q 3578 738 3136 323 
Q 2694 -91 1894 -91 
Q 1572 -91 1234 -12 
Q 897 66 544 225 
L 544 1131 
L 897 1131 
Q 925 688 1179 453 
Q 1434 219 1894 219 
Q 2388 219 2653 544 
Q 2919 869 2919 1478 
Q 2919 2084 2655 2407 
Q 2391 2731 1894 2731 
Q 1613 2731 1398 2631 
Q 1184 2531 1019 2322 
L 750 2322 
L 750 4666 
L 3219 4666 
z
" transform="scale(0.015625)"/>
       </defs>
       <use xlink:href="#DejaVuSerif-4e"/>
       <use xlink:href="#DejaVuSerif-6f" transform="translate(87.5 0)"/>
       <use xlink:href="#DejaVuSerif-76" transform="translate(147.705078 0)"/>
       <use xlink:href="#DejaVuSerif-20" transform="translate(204.199219 0)"/>
       <use xlink:href="#DejaVuSerif-32" transform="translate(235.986328 0)"/>
       <use xlink:href="#DejaVuSerif-35" transform="translate(299.609375 0)"/>
      </g>
     </g>
    </g>
    <g id="xtick_2">
     <g id="line2d_3">
      <path d="M 171.630599 164.13811 
L 171.630599 25.158281 
" clip-path="url(#pdfc4fb78fd)" style="fill: none; stroke: #b0b0b0; stroke-opacity: 0.25; stroke-width: 0.5; stroke-linecap: square"/>
     </g>
     <g id="line2d_4">
      <g>
       <use xlink:href="#m89c5dc9fc8" x="171.630599" y="164.13811" style="stroke: #000000; stroke-width: 0.8"/>
      </g>
     </g>
     <g id="text_2">
      <!-- Dec 09 -->
      <g transform="translate(146.245821 190.578087) rotate(-30) scale(0.08 -0.08)">
       <defs>
        <path id="DejaVuSerif-44" d="M 1581 331 
L 2163 331 
Q 3072 331 3558 850 
Q 4044 1369 4044 2338 
Q 4044 3306 3559 3818 
Q 3075 4331 2163 4331 
L 1581 4331 
L 1581 331 
z
M 353 0 
L 353 331 
L 947 331 
L 947 4331 
L 353 4331 
L 353 4666 
L 2209 4666 
Q 3416 4666 4089 4050 
Q 4763 3434 4763 2338 
Q 4763 1238 4088 619 
Q 3413 0 2209 0 
L 353 0 
z
" transform="scale(0.015625)"/>
        <path id="DejaVuSerif-65" d="M 3469 1600 
L 991 1600 
L 991 1575 
Q 991 903 1244 561 
Q 1497 219 1991 219 
Q 2369 219 2611 417 
Q 2853 616 2950 1006 
L 3413 1006 
Q 3275 459 2904 184 
Q 2534 -91 1931 -91 
Q 1203 -91 761 389 
Q 319 869 319 1663 
Q 319 2450 753 2931 
Q 1188 3413 1894 3413 
Q 2647 3413 3050 2948 
Q 3453 2484 3469 1600 
z
M 2791 1931 
Q 2772 2513 2545 2808 
Q 2319 3103 1894 3103 
Q 1497 3103 1269 2806 
Q 1041 2509 991 1931 
L 2791 1931 
z
" transform="scale(0.015625)"/>
        <path id="DejaVuSerif-63" d="M 3291 997 
Q 3169 466 2822 187 
Q 2475 -91 1925 -91 
Q 1200 -91 759 389 
Q 319 869 319 1663 
Q 319 2459 759 2936 
Q 1200 3413 1925 3413 
Q 2241 3413 2553 3339 
Q 2866 3266 3181 3116 
L 3181 2266 
L 2847 2266 
Q 2781 2703 2561 2903 
Q 2341 3103 1931 3103 
Q 1466 3103 1228 2742 
Q 991 2381 991 1663 
Q 991 944 1227 581 
Q 1463 219 1931 219 
Q 2303 219 2525 412 
Q 2747 606 2828 997 
L 3291 997 
z
" transform="scale(0.015625)"/>
        <path id="DejaVuSerif-30" d="M 2034 219 
Q 2513 219 2750 744 
Q 2988 1269 2988 2328 
Q 2988 3391 2750 3916 
Q 2513 4441 2034 4441 
Q 1556 4441 1318 3916 
Q 1081 3391 1081 2328 
Q 1081 1269 1318 744 
Q 1556 219 2034 219 
z
M 2034 -91 
Q 1275 -91 848 546 
Q 422 1184 422 2328 
Q 422 3475 848 4112 
Q 1275 4750 2034 4750 
Q 2797 4750 3222 4112 
Q 3647 3475 3647 2328 
Q 3647 1184 3222 546 
Q 2797 -91 2034 -91 
z
" transform="scale(0.015625)"/>
        <path id="DejaVuSerif-39" d="M 2994 2091 
Q 2784 1856 2512 1740 
Q 2241 1625 1900 1625 
Q 1206 1625 804 2044 
Q 403 2463 403 3188 
Q 403 3897 839 4323 
Q 1275 4750 2003 4750 
Q 2794 4750 3217 4161 
Q 3641 3572 3641 2478 
Q 3641 1253 3137 581 
Q 2634 -91 1722 -91 
Q 1475 -91 1203 -44 
Q 931 3 647 97 
L 647 872 
L 997 872 
Q 1038 556 1241 387 
Q 1444 219 1784 219 
Q 2391 219 2687 676 
Q 2984 1134 2994 2091 
z
M 1978 4441 
Q 1534 4441 1298 4117 
Q 1063 3794 1063 3188 
Q 1063 2581 1298 2256 
Q 1534 1931 1978 1931 
Q 2422 1931 2658 2245 
Q 2894 2559 2894 3150 
Q 2894 3772 2656 4106 
Q 2419 4441 1978 4441 
z
" transform="scale(0.015625)"/>
       </defs>
       <use xlink:href="#DejaVuSerif-44"/>
       <use xlink:href="#DejaVuSerif-65" transform="translate(80.175781 0)"/>
       <use xlink:href="#DejaVuSerif-63" transform="translate(139.355469 0)"/>
       <use xlink:href="#DejaVuSerif-20" transform="translate(195.361328 0)"/>
       <use xlink:href="#DejaVuSerif-30" transform="translate(227.148438 0)"/>
       <use xlink:href="#DejaVuSerif-39" transform="translate(290.771484 0)"/>
      </g>
     </g>
    </g>
    <g id="xtick_3">
     <g id="line2d_5">
      <path d="M 234.690871 164.13811 
L 234.690871 25.158281 
" clip-path="url(#pdfc4fb78fd)" style="fill: none; stroke: #b0b0b0; stroke-opacity: 0.25; stroke-width: 0.5; stroke-linecap: square"/>
     </g>
     <g id="line2d_6">
      <g>
       <use xlink:href="#m89c5dc9fc8" x="234.690871" y="164.13811" style="stroke: #000000; stroke-width: 0.8"/>
      </g>
     </g>
     <g id="text_3">
      <!-- Dec 23 -->
      <g transform="translate(209.306093 190.578087) rotate(-30) scale(0.08 -0.08)">
       <defs>
        <path id="DejaVuSerif-33" d="M 622 4469 
Q 988 4606 1323 4678 
Q 1659 4750 1953 4750 
Q 2638 4750 3022 4454 
Q 3406 4159 3406 3634 
Q 3406 3213 3140 2930 
Q 2875 2647 2388 2547 
Q 2963 2466 3280 2130 
Q 3597 1794 3597 1259 
Q 3597 606 3158 257 
Q 2719 -91 1894 -91 
Q 1528 -91 1179 -12 
Q 831 66 488 225 
L 488 1131 
L 838 1131 
Q 869 681 1141 450 
Q 1413 219 1906 219 
Q 2384 219 2661 495 
Q 2938 772 2938 1253 
Q 2938 1803 2653 2086 
Q 2369 2369 1819 2369 
L 1522 2369 
L 1522 2688 
L 1678 2688 
Q 2225 2688 2498 2914 
Q 2772 3141 2772 3597 
Q 2772 4006 2547 4223 
Q 2322 4441 1900 4441 
Q 1478 4441 1245 4241 
Q 1013 4041 972 3647 
L 622 3647 
L 622 4469 
z
" transform="scale(0.015625)"/>
       </defs>
       <use xlink:href="#DejaVuSerif-44"/>
       <use xlink:href="#DejaVuSerif-65" transform="translate(80.175781 0)"/>
       <use xlink:href="#DejaVuSerif-63" transform="translate(139.355469 0)"/>
       <use xlink:href="#DejaVuSerif-20" transform="translate(195.361328 0)"/>
       <use xlink:href="#DejaVuSerif-32" transform="translate(227.148438 0)"/>
       <use xlink:href="#DejaVuSerif-33" transform="translate(290.771484 0)"/>
      </g>
     </g>
    </g>
    <g id="xtick_4">
     <g id="line2d_7">
      <path d="M 297.751143 164.13811 
L 297.751143 25.158281 
" clip-path="url(#pdfc4fb78fd)" style="fill: none; stroke: #b0b0b0; stroke-opacity: 0.25; stroke-width: 0.5; stroke-linecap: square"/>
     </g>
     <g id="line2d_8">
      <g>
       <use xlink:href="#m89c5dc9fc8" x="297.751143" y="164.13811" style="stroke: #000000; stroke-width: 0.8"/>
      </g>
     </g>
     <g id="text_4">
      <!-- Jan 06 -->
      <g transform="translate(274.530347 189.328712) rotate(-30) scale(0.08 -0.08)">
       <defs>
        <path id="DejaVuSerif-4a" d="M -538 -1119 
L -538 -384 
L -181 -384 
Q -172 -694 -34 -845 
Q 103 -997 378 -997 
Q 750 -997 897 -762 
Q 1044 -528 1044 153 
L 1044 4331 
L 319 4331 
L 319 4666 
L 2272 4666 
L 2272 4331 
L 1678 4331 
L 1678 128 
Q 1678 -644 1368 -987 
Q 1059 -1331 372 -1331 
Q 150 -1331 -79 -1278 
Q -309 -1225 -538 -1119 
z
" transform="scale(0.015625)"/>
        <path id="DejaVuSerif-61" d="M 2547 1044 
L 2547 1747 
L 1806 1747 
Q 1378 1747 1168 1562 
Q 959 1378 959 997 
Q 959 650 1171 447 
Q 1384 244 1747 244 
Q 2106 244 2326 466 
Q 2547 688 2547 1044 
z
M 3122 2075 
L 3122 331 
L 3634 331 
L 3634 0 
L 2547 0 
L 2547 359 
Q 2356 128 2106 18 
Q 1856 -91 1522 -91 
Q 969 -91 644 203 
Q 319 497 319 997 
Q 319 1513 691 1797 
Q 1063 2081 1741 2081 
L 2547 2081 
L 2547 2309 
Q 2547 2688 2317 2895 
Q 2088 3103 1672 3103 
Q 1328 3103 1125 2947 
Q 922 2791 872 2484 
L 575 2484 
L 575 3156 
Q 875 3284 1158 3348 
Q 1441 3413 1709 3413 
Q 2400 3413 2761 3070 
Q 3122 2728 3122 2075 
z
" transform="scale(0.015625)"/>
        <path id="DejaVuSerif-6e" d="M 263 0 
L 263 331 
L 781 331 
L 781 2988 
L 231 2988 
L 231 3322 
L 1356 3322 
L 1356 2731 
Q 1516 3069 1770 3241 
Q 2025 3413 2363 3413 
Q 2913 3413 3172 3097 
Q 3431 2781 3431 2113 
L 3431 331 
L 3944 331 
L 3944 0 
L 2356 0 
L 2356 331 
L 2853 331 
L 2853 1931 
Q 2853 2541 2703 2767 
Q 2553 2994 2175 2994 
Q 1775 2994 1565 2701 
Q 1356 2409 1356 1850 
L 1356 331 
L 1856 331 
L 1856 0 
L 263 0 
z
" transform="scale(0.015625)"/>
        <path id="DejaVuSerif-36" d="M 2094 219 
Q 2534 219 2771 542 
Q 3009 866 3009 1472 
Q 3009 2078 2771 2401 
Q 2534 2725 2094 2725 
Q 1647 2725 1412 2412 
Q 1178 2100 1178 1509 
Q 1178 888 1415 553 
Q 1653 219 2094 219 
z
M 1075 2569 
Q 1288 2803 1556 2918 
Q 1825 3034 2163 3034 
Q 2859 3034 3264 2615 
Q 3669 2197 3669 1472 
Q 3669 763 3233 336 
Q 2797 -91 2069 -91 
Q 1278 -91 853 498 
Q 428 1088 428 2181 
Q 428 3406 931 4078 
Q 1434 4750 2350 4750 
Q 2597 4750 2869 4703 
Q 3141 4656 3425 4563 
L 3425 3794 
L 3072 3794 
Q 3034 4109 2831 4275 
Q 2628 4441 2284 4441 
Q 1678 4441 1381 3981 
Q 1084 3522 1075 2569 
z
" transform="scale(0.015625)"/>
       </defs>
       <use xlink:href="#DejaVuSerif-4a"/>
       <use xlink:href="#DejaVuSerif-61" transform="translate(40.087891 0)"/>
       <use xlink:href="#DejaVuSerif-6e" transform="translate(99.707031 0)"/>
       <use xlink:href="#DejaVuSerif-20" transform="translate(164.111328 0)"/>
       <use xlink:href="#DejaVuSerif-30" transform="translate(195.898438 0)"/>
       <use xlink:href="#DejaVuSerif-36" transform="translate(259.521484 0)"/>
      </g>
     </g>
    </g>
    <g id="xtick_5">
     <g id="line2d_9">
      <path d="M 360.811416 164.13811 
L 360.811416 25.158281 
" clip-path="url(#pdfc4fb78fd)" style="fill: none; stroke: #b0b0b0; stroke-opacity: 0.25; stroke-width: 0.5; stroke-linecap: square"/>
     </g>
     <g id="line2d_10">
      <g>
       <use xlink:href="#m89c5dc9fc8" x="360.811416" y="164.13811" style="stroke: #000000; stroke-width: 0.8"/>
      </g>
     </g>
     <g id="text_5">
      <!-- Jan 20 -->
      <g transform="translate(337.590619 189.328712) rotate(-30) scale(0.08 -0.08)">
       <use xlink:href="#DejaVuSerif-4a"/>
       <use xlink:href="#DejaVuSerif-61" transform="translate(40.087891 0)"/>
       <use xlink:href="#DejaVuSerif-6e" transform="translate(99.707031 0)"/>
       <use xlink:href="#DejaVuSerif-20" transform="translate(164.111328 0)"/>
       <use xlink:href="#DejaVuSerif-32" transform="translate(195.898438 0)"/>
       <use xlink:href="#DejaVuSerif-30" transform="translate(259.521484 0)"/>
      </g>
     </g>
    </g>
    <g id="xtick_6">
     <g id="line2d_11">
      <path d="M 423.871688 164.13811 
L 423.871688 25.158281 
" clip-path="url(#pdfc4fb78fd)" style="fill: none; stroke: #b0b0b0; stroke-opacity: 0.25; stroke-width: 0.5; stroke-linecap: square"/>
     </g>
     <g id="line2d_12">
      <g>
       <use xlink:href="#m89c5dc9fc8" x="423.871688" y="164.13811" style="stroke: #000000; stroke-width: 0.8"/>
      </g>
     </g>
     <g id="text_6">
      <!-- Feb 03 -->
      <g transform="translate(399.05957 190.247462) rotate(-30) scale(0.08 -0.08)">
       <defs>
        <path id="DejaVuSerif-46" d="M 353 0 
L 353 331 
L 947 331 
L 947 4331 
L 353 4331 
L 353 4666 
L 4172 4666 
L 4172 3628 
L 3788 3628 
L 3788 4281 
L 1581 4281 
L 1581 2719 
L 3175 2719 
L 3175 3303 
L 3559 3303 
L 3559 1753 
L 3175 1753 
L 3175 2338 
L 1581 2338 
L 1581 331 
L 2328 331 
L 2328 0 
L 353 0 
z
" transform="scale(0.015625)"/>
        <path id="DejaVuSerif-62" d="M 738 331 
L 738 4531 
L 184 4531 
L 184 4863 
L 1313 4863 
L 1313 2803 
Q 1481 3116 1742 3264 
Q 2003 3413 2388 3413 
Q 3000 3413 3387 2928 
Q 3775 2444 3775 1663 
Q 3775 881 3387 395 
Q 3000 -91 2388 -91 
Q 2003 -91 1742 57 
Q 1481 206 1313 519 
L 1313 0 
L 184 0 
L 184 331 
L 738 331 
z
M 1313 1497 
Q 1313 897 1542 583 
Q 1772 269 2209 269 
Q 2650 269 2876 622 
Q 3103 975 3103 1663 
Q 3103 2353 2876 2703 
Q 2650 3053 2209 3053 
Q 1772 3053 1542 2737 
Q 1313 2422 1313 1825 
L 1313 1497 
z
" transform="scale(0.015625)"/>
       </defs>
       <use xlink:href="#DejaVuSerif-46"/>
       <use xlink:href="#DejaVuSerif-65" transform="translate(63.884766 0)"/>
       <use xlink:href="#DejaVuSerif-62" transform="translate(123.064453 0)"/>
       <use xlink:href="#DejaVuSerif-20" transform="translate(187.078125 0)"/>
       <use xlink:href="#DejaVuSerif-30" transform="translate(218.865234 0)"/>
       <use xlink:href="#DejaVuSerif-33" transform="translate(282.488281 0)"/>
      </g>
     </g>
    </g>
    <g id="xtick_7">
     <g id="line2d_13">
      <path d="M 486.93196 164.13811 
L 486.93196 25.158281 
" clip-path="url(#pdfc4fb78fd)" style="fill: none; stroke: #b0b0b0; stroke-opacity: 0.25; stroke-width: 0.5; stroke-linecap: square"/>
     </g>
     <g id="line2d_14">
      <g>
       <use xlink:href="#m89c5dc9fc8" x="486.93196" y="164.13811" style="stroke: #000000; stroke-width: 0.8"/>
      </g>
     </g>
     <g id="text_7">
      <!-- Feb 17 -->
      <g transform="translate(462.119842 190.247462) rotate(-30) scale(0.08 -0.08)">
       <defs>
        <path id="DejaVuSerif-31" d="M 909 0 
L 909 331 
L 1722 331 
L 1722 4213 
L 781 3603 
L 781 4013 
L 1919 4750 
L 2350 4750 
L 2350 331 
L 3163 331 
L 3163 0 
L 909 0 
z
" transform="scale(0.015625)"/>
        <path id="DejaVuSerif-37" d="M 3609 4347 
L 1784 0 
L 1319 0 
L 3059 4153 
L 903 4153 
L 903 3578 
L 538 3578 
L 538 4666 
L 3609 4666 
L 3609 4347 
z
" transform="scale(0.015625)"/>
       </defs>
       <use xlink:href="#DejaVuSerif-46"/>
       <use xlink:href="#DejaVuSerif-65" transform="translate(63.884766 0)"/>
       <use xlink:href="#DejaVuSerif-62" transform="translate(123.064453 0)"/>
       <use xlink:href="#DejaVuSerif-20" transform="translate(187.078125 0)"/>
       <use xlink:href="#DejaVuSerif-31" transform="translate(218.865234 0)"/>
       <use xlink:href="#DejaVuSerif-37" transform="translate(282.488281 0)"/>
      </g>
     </g>
    </g>
   </g>
   <g id="matplotlib.axis_2">
    <g id="ytick_1">
     <g id="line2d_15">
      <path d="M 45.780313 164.13811 
L 495.670312 164.13811 
" clip-path="url(#pdfc4fb78fd)" style="fill: none; stroke: #b0b0b0; stroke-opacity: 0.25; stroke-width: 0.5; stroke-linecap: square"/>
     </g>
     <g id="line2d_16">
      <defs>
       <path id="mec0dce37e9" d="M 0 0 
L -3.5 0 
" style="stroke: #000000; stroke-width: 0.8"/>
      </defs>
      <g>
       <use xlink:href="#mec0dce37e9" x="45.780313" y="164.13811" style="stroke: #000000; stroke-width: 0.8"/>
      </g>
     </g>
     <g id="text_8">
      <!-- 0 -->
      <g transform="translate(33.690313 167.177485) scale(0.08 -0.08)">
       <use xlink:href="#DejaVuSerif-30"/>
      </g>
     </g>
    </g>
    <g id="ytick_2">
     <g id="line2d_17">
      <path d="M 45.780313 144.232847 
L 495.670312 144.232847 
" clip-path="url(#pdfc4fb78fd)" style="fill: none; stroke: #b0b0b0; stroke-opacity: 0.25; stroke-width: 0.5; stroke-linecap: square"/>
     </g>
     <g id="line2d_18">
      <g>
       <use xlink:href="#mec0dce37e9" x="45.780313" y="144.232847" style="stroke: #000000; stroke-width: 0.8"/>
      </g>
     </g>
     <g id="text_9">
      <!-- 100 -->
      <g transform="translate(23.510313 147.272222) scale(0.08 -0.08)">
       <use xlink:href="#DejaVuSerif-31"/>
       <use xlink:href="#DejaVuSerif-30" transform="translate(63.623047 0)"/>
       <use xlink:href="#DejaVuSerif-30" transform="translate(127.246094 0)"/>
      </g>
     </g>
    </g>
    <g id="ytick_3">
     <g id="line2d_19">
      <path d="M 45.780313 124.327585 
L 495.670312 124.327585 
" clip-path="url(#pdfc4fb78fd)" style="fill: none; stroke: #b0b0b0; stroke-opacity: 0.25; stroke-width: 0.5; stroke-linecap: square"/>
     </g>
     <g id="line2d_20">
      <g>
       <use xlink:href="#mec0dce37e9" x="45.780313" y="124.327585" style="stroke: #000000; stroke-width: 0.8"/>
      </g>
     </g>
     <g id="text_10">
      <!-- 200 -->
      <g transform="translate(23.510313 127.36696) scale(0.08 -0.08)">
       <use xlink:href="#DejaVuSerif-32"/>
       <use xlink:href="#DejaVuSerif-30" transform="translate(63.623047 0)"/>
       <use xlink:href="#DejaVuSerif-30" transform="translate(127.246094 0)"/>
      </g>
     </g>
    </g>
    <g id="ytick_4">
     <g id="line2d_21">
      <path d="M 45.780313 104.422322 
L 495.670312 104.422322 
" clip-path="url(#pdfc4fb78fd)" style="fill: none; stroke: #b0b0b0; stroke-opacity: 0.25; stroke-width: 0.5; stroke-linecap: square"/>
     </g>
     <g id="line2d_22">
      <g>
       <use xlink:href="#mec0dce37e9" x="45.780313" y="104.422322" style="stroke: #000000; stroke-width: 0.8"/>
      </g>
     </g>
     <g id="text_11">
      <!-- 300 -->
      <g transform="translate(23.510313 107.461697) scale(0.08 -0.08)">
       <use xlink:href="#DejaVuSerif-33"/>
       <use xlink:href="#DejaVuSerif-30" transform="translate(63.623047 0)"/>
       <use xlink:href="#DejaVuSerif-30" transform="translate(127.246094 0)"/>
      </g>
     </g>
    </g>
    <g id="ytick_5">
     <g id="line2d_23">
      <path d="M 45.780313 84.517059 
L 495.670312 84.517059 
" clip-path="url(#pdfc4fb78fd)" style="fill: none; stroke: #b0b0b0; stroke-opacity: 0.25; stroke-width: 0.5; stroke-linecap: square"/>
     </g>
     <g id="line2d_24">
      <g>
       <use xlink:href="#mec0dce37e9" x="45.780313" y="84.517059" style="stroke: #000000; stroke-width: 0.8"/>
      </g>
     </g>
     <g id="text_12">
      <!-- 400 -->
      <g transform="translate(23.510313 87.556434) scale(0.08 -0.08)">
       <defs>
        <path id="DejaVuSerif-34" d="M 2234 1581 
L 2234 4063 
L 641 1581 
L 2234 1581 
z
M 3609 0 
L 1484 0 
L 1484 331 
L 2234 331 
L 2234 1247 
L 197 1247 
L 197 1588 
L 2241 4750 
L 2859 4750 
L 2859 1581 
L 3750 1581 
L 3750 1247 
L 2859 1247 
L 2859 331 
L 3609 331 
L 3609 0 
z
" transform="scale(0.015625)"/>
       </defs>
       <use xlink:href="#DejaVuSerif-34"/>
       <use xlink:href="#DejaVuSerif-30" transform="translate(63.623047 0)"/>
       <use xlink:href="#DejaVuSerif-30" transform="translate(127.246094 0)"/>
      </g>
     </g>
    </g>
    <g id="ytick_6">
     <g id="line2d_25">
      <path d="M 45.780313 64.611796 
L 495.670312 64.611796 
" clip-path="url(#pdfc4fb78fd)" style="fill: none; stroke: #b0b0b0; stroke-opacity: 0.25; stroke-width: 0.5; stroke-linecap: square"/>
     </g>
     <g id="line2d_26">
      <g>
       <use xlink:href="#mec0dce37e9" x="45.780313" y="64.611796" style="stroke: #000000; stroke-width: 0.8"/>
      </g>
     </g>
     <g id="text_13">
      <!-- 500 -->
      <g transform="translate(23.510313 67.651171) scale(0.08 -0.08)">
       <use xlink:href="#DejaVuSerif-35"/>
       <use xlink:href="#DejaVuSerif-30" transform="translate(63.623047 0)"/>
       <use xlink:href="#DejaVuSerif-30" transform="translate(127.246094 0)"/>
      </g>
     </g>
    </g>
    <g id="ytick_7">
     <g id="line2d_27">
      <path d="M 45.780313 44.706534 
L 495.670312 44.706534 
" clip-path="url(#pdfc4fb78fd)" style="fill: none; stroke: #b0b0b0; stroke-opacity: 0.25; stroke-width: 0.5; stroke-linecap: square"/>
     </g>
     <g id="line2d_28">
      <g>
       <use xlink:href="#mec0dce37e9" x="45.780313" y="44.706534" style="stroke: #000000; stroke-width: 0.8"/>
      </g>
     </g>
     <g id="text_14">
      <!-- 600 -->
      <g transform="translate(23.510313 47.745909) scale(0.08 -0.08)">
       <use xlink:href="#DejaVuSerif-36"/>
       <use xlink:href="#DejaVuSerif-30" transform="translate(63.623047 0)"/>
       <use xlink:href="#DejaVuSerif-30" transform="translate(127.246094 0)"/>
      </g>
     </g>
    </g>
    <g id="text_15">
     <!-- MiB -->
     <g transform="translate(17.638594 104.001868) rotate(-90) scale(0.09 -0.09)">
      <defs>
       <path id="DejaVuSerif-4d" d="M 353 0 
L 353 331 
L 947 331 
L 947 4331 
L 319 4331 
L 319 4666 
L 1678 4666 
L 3316 1344 
L 4953 4666 
L 6228 4666 
L 6228 4331 
L 5606 4331 
L 5606 331 
L 6203 331 
L 6203 0 
L 4378 0 
L 4378 331 
L 4972 331 
L 4972 3938 
L 3372 684 
L 2931 684 
L 1331 3938 
L 1331 331 
L 1925 331 
L 1925 0 
L 353 0 
z
" transform="scale(0.015625)"/>
       <path id="DejaVuSerif-69" d="M 622 4353 
Q 622 4497 726 4603 
Q 831 4709 978 4709 
Q 1122 4709 1226 4603 
Q 1331 4497 1331 4353 
Q 1331 4206 1228 4103 
Q 1125 4000 978 4000 
Q 831 4000 726 4103 
Q 622 4206 622 4353 
z
M 1356 331 
L 1900 331 
L 1900 0 
L 231 0 
L 231 331 
L 781 331 
L 781 2988 
L 231 2988 
L 231 3322 
L 1356 3322 
L 1356 331 
z
" transform="scale(0.015625)"/>
       <path id="DejaVuSerif-42" d="M 1581 331 
L 2516 331 
Q 3078 331 3337 575 
Q 3597 819 3597 1350 
Q 3597 1878 3339 2120 
Q 3081 2363 2516 2363 
L 1581 2363 
L 1581 331 
z
M 1581 2694 
L 2375 2694 
Q 2888 2694 3123 2891 
Q 3359 3088 3359 3513 
Q 3359 3941 3123 4136 
Q 2888 4331 2375 4331 
L 1581 4331 
L 1581 2694 
z
M 353 0 
L 353 331 
L 947 331 
L 947 4331 
L 353 4331 
L 353 4666 
L 2656 4666 
Q 3363 4666 3720 4377 
Q 4078 4088 4078 3513 
Q 4078 3097 3829 2850 
Q 3581 2603 3103 2547 
Q 3697 2472 4005 2167 
Q 4313 1863 4313 1350 
Q 4313 656 3875 328 
Q 3438 0 2509 0 
L 353 0 
z
" transform="scale(0.015625)"/>
      </defs>
      <use xlink:href="#DejaVuSerif-4d"/>
      <use xlink:href="#DejaVuSerif-69" transform="translate(102.392578 0)"/>
      <use xlink:href="#DejaVuSerif-42" transform="translate(134.375 0)"/>
     </g>
    </g>
   </g>
   <g id="patch_3">
    <path d="M 66.229858 164.13811 
L 69.833302 164.13811 
L 69.833302 157.588136 
L 66.229858 157.588136 
z
" clip-path="url(#pdfc4fb78fd)" style="fill: #3366cc; opacity: 0.7"/>
   </g>
   <g id="patch_4">
    <path d="M 70.734163 164.13811 
L 74.337607 164.13811 
L 74.337607 140.689426 
L 70.734163 140.689426 
z
" clip-path="url(#pdfc4fb78fd)" style="fill: #3366cc; opacity: 0.7"/>
   </g>
   <g id="patch_5">
    <path d="M 75.238468 164.13811 
L 78.841912 164.13811 
L 78.841912 142.399265 
L 75.238468 142.399265 
z
" clip-path="url(#pdfc4fb78fd)" style="fill: #3366cc; opacity: 0.7"/>
   </g>
   <g id="patch_6">
    <path d="M 79.742773 164.13811 
L 83.346218 164.13811 
L 83.346218 143.960641 
L 79.742773 143.960641 
z
" clip-path="url(#pdfc4fb78fd)" style="fill: #3366cc; opacity: 0.7"/>
   </g>
   <g id="patch_7">
    <path d="M 84.247079 164.13811 
L 87.850523 164.13811 
L 87.850523 141.865917 
L 84.247079 141.865917 
z
" clip-path="url(#pdfc4fb78fd)" style="fill: #3366cc; opacity: 0.7"/>
   </g>
   <g id="patch_8">
    <path d="M 88.751384 164.13811 
L 92.354828 164.13811 
L 92.354828 145.579276 
L 88.751384 145.579276 
z
" clip-path="url(#pdfc4fb78fd)" style="fill: #3366cc; opacity: 0.7"/>
   </g>
   <g id="patch_9">
    <path d="M 93.255689 164.13811 
L 96.859133 164.13811 
L 96.859133 148.177309 
L 93.255689 148.177309 
z
" clip-path="url(#pdfc4fb78fd)" style="fill: #3366cc; opacity: 0.7"/>
   </g>
   <g id="patch_10">
    <path d="M 97.759994 164.13811 
L 101.363438 164.13811 
L 101.363438 150.194685 
L 97.759994 150.194685 
z
" clip-path="url(#pdfc4fb78fd)" style="fill: #3366cc; opacity: 0.7"/>
   </g>
   <g id="patch_11">
    <path d="M 102.264299 164.13811 
L 105.867743 164.13811 
L 105.867743 146.884119 
L 102.264299 146.884119 
z
" clip-path="url(#pdfc4fb78fd)" style="fill: #3366cc; opacity: 0.7"/>
   </g>
   <g id="patch_12">
    <path d="M 106.768604 164.13811 
L 110.372049 164.13811 
L 110.372049 146.029389 
L 106.768604 146.029389 
z
" clip-path="url(#pdfc4fb78fd)" style="fill: #3366cc; opacity: 0.7"/>
   </g>
   <g id="patch_13">
    <path d="M 111.27291 164.13811 
L 114.876354 164.13811 
L 114.876354 149.892389 
L 111.27291 149.892389 
z
" clip-path="url(#pdfc4fb78fd)" style="fill: #3366cc; opacity: 0.7"/>
   </g>
   <g id="patch_14">
    <path d="M 115.777215 164.13811 
L 119.380659 164.13811 
L 119.380659 149.027672 
L 115.777215 149.027672 
z
" clip-path="url(#pdfc4fb78fd)" style="fill: #3366cc; opacity: 0.7"/>
   </g>
   <g id="patch_15">
    <path d="M 120.28152 164.13811 
L 123.884964 164.13811 
L 123.884964 143.895408 
L 120.28152 143.895408 
z
" clip-path="url(#pdfc4fb78fd)" style="fill: #3366cc; opacity: 0.7"/>
   </g>
   <g id="patch_16">
    <path d="M 124.785825 164.13811 
L 128.389269 164.13811 
L 128.389269 152.178328 
L 124.785825 152.178328 
z
" clip-path="url(#pdfc4fb78fd)" style="fill: #3366cc; opacity: 0.7"/>
   </g>
   <g id="patch_17">
    <path d="M 129.29013 164.13811 
L 132.893574 164.13811 
L 132.893574 149.249951 
L 129.29013 149.249951 
z
" clip-path="url(#pdfc4fb78fd)" style="fill: #3366cc; opacity: 0.7"/>
   </g>
   <g id="patch_18">
    <path d="M 133.794435 164.13811 
L 137.39788 164.13811 
L 137.39788 154.10662 
L 133.794435 154.10662 
z
" clip-path="url(#pdfc4fb78fd)" style="fill: #3366cc; opacity: 0.7"/>
   </g>
   <g id="patch_19">
    <path d="M 138.298741 164.13811 
L 141.902185 164.13811 
L 141.902185 155.036885 
L 138.298741 155.036885 
z
" clip-path="url(#pdfc4fb78fd)" style="fill: #3366cc; opacity: 0.7"/>
   </g>
   <g id="patch_20">
    <path d="M 142.803046 164.13811 
L 146.40649 164.13811 
L 146.40649 155.234544 
L 142.803046 155.234544 
z
" clip-path="url(#pdfc4fb78fd)" style="fill: #3366cc; opacity: 0.7"/>
   </g>
   <g id="patch_21">
    <path d="M 147.307351 164.13811 
L 150.910795 164.13811 
L 150.910795 153.206408 
L 147.307351 153.206408 
z
" clip-path="url(#pdfc4fb78fd)" style="fill: #3366cc; opacity: 0.7"/>
   </g>
   <g id="patch_22">
    <path d="M 151.811656 164.13811 
L 155.4151 164.13811 
L 155.4151 85.504654 
L 151.811656 85.504654 
z
" clip-path="url(#pdfc4fb78fd)" style="fill: #3366cc; opacity: 0.7"/>
   </g>
   <g id="patch_23">
    <path d="M 156.315961 164.13811 
L 159.919405 164.13811 
L 159.919405 36.262852 
L 156.315961 36.262852 
z
" clip-path="url(#pdfc4fb78fd)" style="fill: #3366cc; opacity: 0.7"/>
   </g>
   <g id="patch_24">
    <path d="M 160.820266 164.13811 
L 164.423711 164.13811 
L 164.423711 36.195765 
L 160.820266 36.195765 
z
" clip-path="url(#pdfc4fb78fd)" style="fill: #3366cc; opacity: 0.7"/>
   </g>
   <g id="patch_25">
    <path d="M 165.324572 164.13811 
L 168.928016 164.13811 
L 168.928016 35.049265 
L 165.324572 35.049265 
z
" clip-path="url(#pdfc4fb78fd)" style="fill: #3366cc; opacity: 0.7"/>
   </g>
   <g id="patch_26">
    <path d="M 169.828877 164.13811 
L 173.432321 164.13811 
L 173.432321 31.927768 
L 169.828877 31.927768 
z
" clip-path="url(#pdfc4fb78fd)" style="fill: #3366cc; opacity: 0.7"/>
   </g>
   <g id="patch_27">
    <path d="M 174.333182 164.13811 
L 177.936626 164.13811 
L 177.936626 35.010424 
L 174.333182 35.010424 
z
" clip-path="url(#pdfc4fb78fd)" style="fill: #3366cc; opacity: 0.7"/>
   </g>
   <g id="patch_28">
    <path d="M 178.837487 164.13811 
L 182.440931 164.13811 
L 182.440931 31.776368 
L 178.837487 31.776368 
z
" clip-path="url(#pdfc4fb78fd)" style="fill: #3366cc; opacity: 0.7"/>
   </g>
   <g id="patch_29">
    <path d="M 183.341792 164.13811 
L 186.945236 164.13811 
L 186.945236 112.525216 
L 183.341792 112.525216 
z
" clip-path="url(#pdfc4fb78fd)" style="fill: #3366cc; opacity: 0.7"/>
   </g>
   <g id="patch_30">
    <path d="M 187.846097 164.13811 
L 191.449542 164.13811 
L 191.449542 133.85792 
L 187.846097 133.85792 
z
" clip-path="url(#pdfc4fb78fd)" style="fill: #3366cc; opacity: 0.7"/>
   </g>
   <g id="patch_31">
    <path d="M 192.350403 164.13811 
L 195.953847 164.13811 
L 195.953847 139.441691 
L 192.350403 139.441691 
z
" clip-path="url(#pdfc4fb78fd)" style="fill: #3366cc; opacity: 0.7"/>
   </g>
   <g id="patch_32">
    <path d="M 196.854708 164.13811 
L 200.458152 164.13811 
L 200.458152 137.244395 
L 196.854708 137.244395 
z
" clip-path="url(#pdfc4fb78fd)" style="fill: #3366cc; opacity: 0.7"/>
   </g>
   <g id="patch_33">
    <path d="M 201.359013 164.13811 
L 204.962457 164.13811 
L 204.962457 136.3104 
L 201.359013 136.3104 
z
" clip-path="url(#pdfc4fb78fd)" style="fill: #3366cc; opacity: 0.7"/>
   </g>
   <g id="patch_34">
    <path d="M 205.863318 164.13811 
L 209.466762 164.13811 
L 209.466762 136.173753 
L 205.863318 136.173753 
z
" clip-path="url(#pdfc4fb78fd)" style="fill: #3366cc; opacity: 0.7"/>
   </g>
   <g id="patch_35">
    <path d="M 210.367623 164.13811 
L 213.971067 164.13811 
L 213.971067 140.041753 
L 210.367623 140.041753 
z
" clip-path="url(#pdfc4fb78fd)" style="fill: #3366cc; opacity: 0.7"/>
   </g>
   <g id="patch_36">
    <path d="M 214.871928 164.13811 
L 218.475373 164.13811 
L 218.475373 141.056858 
L 214.871928 141.056858 
z
" clip-path="url(#pdfc4fb78fd)" style="fill: #3366cc; opacity: 0.7"/>
   </g>
   <g id="patch_37">
    <path d="M 219.376234 164.13811 
L 222.979678 164.13811 
L 222.979678 142.814895 
L 219.376234 142.814895 
z
" clip-path="url(#pdfc4fb78fd)" style="fill: #3366cc; opacity: 0.7"/>
   </g>
   <g id="patch_38">
    <path d="M 223.880539 164.13811 
L 227.483983 164.13811 
L 227.483983 140.853834 
L 223.880539 140.853834 
z
" clip-path="url(#pdfc4fb78fd)" style="fill: #3366cc; opacity: 0.7"/>
   </g>
   <g id="patch_39">
    <path d="M 228.384844 164.13811 
L 231.988288 164.13811 
L 231.988288 139.864344 
L 228.384844 139.864344 
z
" clip-path="url(#pdfc4fb78fd)" style="fill: #3366cc; opacity: 0.7"/>
   </g>
   <g id="patch_40">
    <path d="M 232.889149 164.13811 
L 236.492593 164.13811 
L 236.492593 139.102841 
L 232.889149 139.102841 
z
" clip-path="url(#pdfc4fb78fd)" style="fill: #3366cc; opacity: 0.7"/>
   </g>
   <g id="patch_41">
    <path d="M 237.393454 164.13811 
L 240.996898 164.13811 
L 240.996898 140.14862 
L 237.393454 140.14862 
z
" clip-path="url(#pdfc4fb78fd)" style="fill: #3366cc; opacity: 0.7"/>
   </g>
   <g id="patch_42">
    <path d="M 241.897759 164.13811 
L 245.501204 164.13811 
L 245.501204 140.8396 
L 241.897759 140.8396 
z
" clip-path="url(#pdfc4fb78fd)" style="fill: #3366cc; opacity: 0.7"/>
   </g>
   <g id="patch_43">
    <path d="M 246.402065 164.13811 
L 250.005509 164.13811 
L 250.005509 138.89263 
L 246.402065 138.89263 
z
" clip-path="url(#pdfc4fb78fd)" style="fill: #3366cc; opacity: 0.7"/>
   </g>
   <g id="patch_44">
    <path d="M 250.90637 164.13811 
L 254.509814 164.13811 
L 254.509814 139.809713 
L 250.90637 139.809713 
z
" clip-path="url(#pdfc4fb78fd)" style="fill: #3366cc; opacity: 0.7"/>
   </g>
   <g id="patch_45">
    <path d="M 255.410675 164.13811 
L 259.014119 164.13811 
L 259.014119 143.227918 
L 255.410675 143.227918 
z
" clip-path="url(#pdfc4fb78fd)" style="fill: #3366cc; opacity: 0.7"/>
   </g>
   <g id="patch_46">
    <path d="M 259.91498 164.13811 
L 263.518424 164.13811 
L 263.518424 139.69852 
L 259.91498 139.69852 
z
" clip-path="url(#pdfc4fb78fd)" style="fill: #3366cc; opacity: 0.7"/>
   </g>
   <g id="patch_47">
    <path d="M 264.419285 164.13811 
L 268.022729 164.13811 
L 268.022729 137.495855 
L 264.419285 137.495855 
z
" clip-path="url(#pdfc4fb78fd)" style="fill: #3366cc; opacity: 0.7"/>
   </g>
   <g id="patch_48">
    <path d="M 268.92359 164.13811 
L 272.527035 164.13811 
L 272.527035 139.167124 
L 268.92359 139.167124 
z
" clip-path="url(#pdfc4fb78fd)" style="fill: #3366cc; opacity: 0.7"/>
   </g>
   <g id="patch_49">
    <path d="M 273.427896 164.13811 
L 277.03134 164.13811 
L 277.03134 138.69898 
L 273.427896 138.69898 
z
" clip-path="url(#pdfc4fb78fd)" style="fill: #3366cc; opacity: 0.7"/>
   </g>
   <g id="patch_50">
    <path d="M 277.932201 164.13811 
L 281.535645 164.13811 
L 281.535645 140.206814 
L 277.932201 140.206814 
z
" clip-path="url(#pdfc4fb78fd)" style="fill: #3366cc; opacity: 0.7"/>
   </g>
   <g id="patch_51">
    <path d="M 282.436506 164.13811 
L 286.03995 164.13811 
L 286.03995 139.285942 
L 282.436506 139.285942 
z
" clip-path="url(#pdfc4fb78fd)" style="fill: #3366cc; opacity: 0.7"/>
   </g>
   <g id="patch_52">
    <path d="M 286.940811 164.13811 
L 290.544255 164.13811 
L 290.544255 139.646106 
L 286.940811 139.646106 
z
" clip-path="url(#pdfc4fb78fd)" style="fill: #3366cc; opacity: 0.7"/>
   </g>
   <g id="patch_53">
    <path d="M 291.445116 164.13811 
L 295.04856 164.13811 
L 295.04856 140.341767 
L 291.445116 140.341767 
z
" clip-path="url(#pdfc4fb78fd)" style="fill: #3366cc; opacity: 0.7"/>
   </g>
   <g id="patch_54">
    <path d="M 295.949421 164.13811 
L 299.552866 164.13811 
L 299.552866 145.472895 
L 295.949421 145.472895 
z
" clip-path="url(#pdfc4fb78fd)" style="fill: #3366cc; opacity: 0.7"/>
   </g>
   <g id="patch_55">
    <path d="M 300.453727 164.13811 
L 304.057171 164.13811 
L 304.057171 141.879429 
L 300.453727 141.879429 
z
" clip-path="url(#pdfc4fb78fd)" style="fill: #3366cc; opacity: 0.7"/>
   </g>
   <g id="patch_56">
    <path d="M 304.958032 164.13811 
L 308.561476 164.13811 
L 308.561476 136.852149 
L 304.958032 136.852149 
z
" clip-path="url(#pdfc4fb78fd)" style="fill: #3366cc; opacity: 0.7"/>
   </g>
   <g id="patch_57">
    <path d="M 309.462337 164.13811 
L 313.065781 164.13811 
L 313.065781 147.545809 
L 309.462337 147.545809 
z
" clip-path="url(#pdfc4fb78fd)" style="fill: #3366cc; opacity: 0.7"/>
   </g>
   <g id="patch_58">
    <path d="M 313.966642 164.13811 
L 317.570086 164.13811 
L 317.570086 160.203245 
L 313.966642 160.203245 
z
" clip-path="url(#pdfc4fb78fd)" style="fill: #3366cc; opacity: 0.7"/>
   </g>
   <g id="patch_59">
    <path d="M 318.470947 164.13811 
L 322.074391 164.13811 
L 322.074391 160.177571 
L 318.470947 160.177571 
z
" clip-path="url(#pdfc4fb78fd)" style="fill: #3366cc; opacity: 0.7"/>
   </g>
   <g id="patch_60">
    <path d="M 322.975252 164.13811 
L 326.578697 164.13811 
L 326.578697 159.651195 
L 322.975252 159.651195 
z
" clip-path="url(#pdfc4fb78fd)" style="fill: #3366cc; opacity: 0.7"/>
   </g>
   <g id="patch_61">
    <path d="M 327.479558 164.13811 
L 331.083002 164.13811 
L 331.083002 57.662447 
L 327.479558 57.662447 
z
" clip-path="url(#pdfc4fb78fd)" style="fill: #3366cc; opacity: 0.7"/>
   </g>
   <g id="patch_62">
    <path d="M 331.983863 164.13811 
L 335.587307 164.13811 
L 335.587307 135.449582 
L 331.983863 135.449582 
z
" clip-path="url(#pdfc4fb78fd)" style="fill: #3366cc; opacity: 0.7"/>
   </g>
   <g id="patch_63">
    <path d="M 336.488168 164.13811 
L 340.091612 164.13811 
L 340.091612 137.493483 
L 336.488168 137.493483 
z
" clip-path="url(#pdfc4fb78fd)" style="fill: #3366cc; opacity: 0.7"/>
   </g>
   <g id="patch_64">
    <path d="M 340.992473 164.13811 
L 344.595917 164.13811 
L 344.595917 140.125375 
L 340.992473 140.125375 
z
" clip-path="url(#pdfc4fb78fd)" style="fill: #3366cc; opacity: 0.7"/>
   </g>
   <g id="patch_65">
    <path d="M 345.496778 164.13811 
L 349.100222 164.13811 
L 349.100222 136.17937 
L 345.496778 136.17937 
z
" clip-path="url(#pdfc4fb78fd)" style="fill: #3366cc; opacity: 0.7"/>
   </g>
   <g id="patch_66">
    <path d="M 350.001083 164.13811 
L 353.604528 164.13811 
L 353.604528 139.530517 
L 350.001083 139.530517 
z
" clip-path="url(#pdfc4fb78fd)" style="fill: #3366cc; opacity: 0.7"/>
   </g>
   <g id="patch_67">
    <path d="M 354.505389 164.13811 
L 358.108833 164.13811 
L 358.108833 135.292566 
L 354.505389 135.292566 
z
" clip-path="url(#pdfc4fb78fd)" style="fill: #3366cc; opacity: 0.7"/>
   </g>
   <g id="patch_68">
    <path d="M 359.009694 164.13811 
L 362.613138 164.13811 
L 362.613138 136.079898 
L 359.009694 136.079898 
z
" clip-path="url(#pdfc4fb78fd)" style="fill: #3366cc; opacity: 0.7"/>
   </g>
   <g id="patch_69">
    <path d="M 363.513999 164.13811 
L 367.117443 164.13811 
L 367.117443 138.971625 
L 363.513999 138.971625 
z
" clip-path="url(#pdfc4fb78fd)" style="fill: #3366cc; opacity: 0.7"/>
   </g>
   <g id="patch_70">
    <path d="M 368.018304 164.13811 
L 371.621748 164.13811 
L 371.621748 136.492726 
L 368.018304 136.492726 
z
" clip-path="url(#pdfc4fb78fd)" style="fill: #3366cc; opacity: 0.7"/>
   </g>
   <g id="patch_71">
    <path d="M 372.522609 164.13811 
L 376.126053 164.13811 
L 376.126053 138.855619 
L 372.522609 138.855619 
z
" clip-path="url(#pdfc4fb78fd)" style="fill: #3366cc; opacity: 0.7"/>
   </g>
   <g id="patch_72">
    <path d="M 377.026914 164.13811 
L 380.630359 164.13811 
L 380.630359 138.791573 
L 377.026914 138.791573 
z
" clip-path="url(#pdfc4fb78fd)" style="fill: #3366cc; opacity: 0.7"/>
   </g>
   <g id="patch_73">
    <path d="M 381.53122 164.13811 
L 385.134664 164.13811 
L 385.134664 138.991556 
L 381.53122 138.991556 
z
" clip-path="url(#pdfc4fb78fd)" style="fill: #3366cc; opacity: 0.7"/>
   </g>
   <g id="patch_74">
    <path d="M 386.035525 164.13811 
L 389.638969 164.13811 
L 389.638969 136.568127 
L 386.035525 136.568127 
z
" clip-path="url(#pdfc4fb78fd)" style="fill: #3366cc; opacity: 0.7"/>
   </g>
   <g id="patch_75">
    <path d="M 390.53983 164.13811 
L 394.143274 164.13811 
L 394.143274 133.427895 
L 390.53983 133.427895 
z
" clip-path="url(#pdfc4fb78fd)" style="fill: #3366cc; opacity: 0.7"/>
   </g>
   <g id="patch_76">
    <path d="M 395.044135 164.13811 
L 398.647579 164.13811 
L 398.647579 136.609364 
L 395.044135 136.609364 
z
" clip-path="url(#pdfc4fb78fd)" style="fill: #3366cc; opacity: 0.7"/>
   </g>
   <g id="patch_77">
    <path d="M 399.54844 164.13811 
L 403.151884 164.13811 
L 403.151884 141.409624 
L 399.54844 141.409624 
z
" clip-path="url(#pdfc4fb78fd)" style="fill: #3366cc; opacity: 0.7"/>
   </g>
   <g id="patch_78">
    <path d="M 404.052745 164.13811 
L 407.65619 164.13811 
L 407.65619 157.898773 
L 404.052745 157.898773 
z
" clip-path="url(#pdfc4fb78fd)" style="fill: #3366cc; opacity: 0.7"/>
   </g>
   <g id="patch_79">
    <path d="M 408.557051 164.13811 
L 412.160495 164.13811 
L 412.160495 157.217652 
L 408.557051 157.217652 
z
" clip-path="url(#pdfc4fb78fd)" style="fill: #3366cc; opacity: 0.7"/>
   </g>
   <g id="patch_80">
    <path d="M 413.061356 164.13811 
L 416.6648 164.13811 
L 416.6648 157.417799 
L 413.061356 157.417799 
z
" clip-path="url(#pdfc4fb78fd)" style="fill: #3366cc; opacity: 0.7"/>
   </g>
   <g id="patch_81">
    <path d="M 417.565661 164.13811 
L 421.169105 164.13811 
L 421.169105 157.956429 
L 417.565661 157.956429 
z
" clip-path="url(#pdfc4fb78fd)" style="fill: #3366cc; opacity: 0.7"/>
   </g>
   <g id="patch_82">
    <path d="M 422.069966 164.13811 
L 425.67341 164.13811 
L 425.67341 158.164599 
L 422.069966 158.164599 
z
" clip-path="url(#pdfc4fb78fd)" style="fill: #3366cc; opacity: 0.7"/>
   </g>
   <g id="patch_83">
    <path d="M 426.574271 164.13811 
L 430.177715 164.13811 
L 430.177715 158.715683 
L 426.574271 158.715683 
z
" clip-path="url(#pdfc4fb78fd)" style="fill: #3366cc; opacity: 0.7"/>
   </g>
   <g id="patch_84">
    <path d="M 431.078576 164.13811 
L 434.682021 164.13811 
L 434.682021 156.390776 
L 431.078576 156.390776 
z
" clip-path="url(#pdfc4fb78fd)" style="fill: #3366cc; opacity: 0.7"/>
   </g>
   <g id="patch_85">
    <path d="M 435.582882 164.13811 
L 439.186326 164.13811 
L 439.186326 158.137344 
L 435.582882 158.137344 
z
" clip-path="url(#pdfc4fb78fd)" style="fill: #3366cc; opacity: 0.7"/>
   </g>
   <g id="patch_86">
    <path d="M 440.087187 164.13811 
L 443.690631 164.13811 
L 443.690631 158.516245 
L 440.087187 158.516245 
z
" clip-path="url(#pdfc4fb78fd)" style="fill: #3366cc; opacity: 0.7"/>
   </g>
   <g id="patch_87">
    <path d="M 444.591492 164.13811 
L 448.194936 164.13811 
L 448.194936 159.421899 
L 444.591492 159.421899 
z
" clip-path="url(#pdfc4fb78fd)" style="fill: #3366cc; opacity: 0.7"/>
   </g>
   <g id="patch_88">
    <path d="M 449.095797 164.13811 
L 452.699241 164.13811 
L 452.699241 158.215317 
L 449.095797 158.215317 
z
" clip-path="url(#pdfc4fb78fd)" style="fill: #3366cc; opacity: 0.7"/>
   </g>
   <g id="patch_89">
    <path d="M 453.600102 164.13811 
L 457.203546 164.13811 
L 457.203546 157.534859 
L 453.600102 157.534859 
z
" clip-path="url(#pdfc4fb78fd)" style="fill: #3366cc; opacity: 0.7"/>
   </g>
   <g id="patch_90">
    <path d="M 458.104407 164.13811 
L 461.707852 164.13811 
L 461.707852 159.496686 
L 458.104407 159.496686 
z
" clip-path="url(#pdfc4fb78fd)" style="fill: #3366cc; opacity: 0.7"/>
   </g>
   <g id="patch_91">
    <path d="M 462.608713 164.13811 
L 466.212157 164.13811 
L 466.212157 159.270531 
L 462.608713 159.270531 
z
" clip-path="url(#pdfc4fb78fd)" style="fill: #3366cc; opacity: 0.7"/>
   </g>
   <g id="patch_92">
    <path d="M 467.113018 164.13811 
L 470.716462 164.13811 
L 470.716462 159.216815 
L 467.113018 159.216815 
z
" clip-path="url(#pdfc4fb78fd)" style="fill: #3366cc; opacity: 0.7"/>
   </g>
   <g id="patch_93">
    <path d="M 471.617323 164.13811 
L 475.220767 164.13811 
L 475.220767 161.846479 
L 471.617323 161.846479 
z
" clip-path="url(#pdfc4fb78fd)" style="fill: #3366cc; opacity: 0.7"/>
   </g>
   <g id="patch_94">
    <path d="M 45.780313 164.13811 
L 45.780313 25.158281 
" style="fill: none; stroke: #000000; stroke-width: 0.6; stroke-linejoin: miter; stroke-linecap: square"/>
   </g>
   <g id="patch_95">
    <path d="M 45.780313 164.13811 
L 495.670312 164.13811 
" style="fill: none; stroke: #000000; stroke-width: 0.6; stroke-linejoin: miter; stroke-linecap: square"/>
   </g>
   <g id="line2d_29">
    <path d="M 68.03158 157.588136 
L 72.535885 149.138781 
L 77.04019 146.892275 
L 81.544496 146.159367 
L 86.048801 145.300677 
L 90.553106 145.34711 
L 95.057411 145.751424 
L 99.561716 144.695217 
L 104.066021 145.580173 
L 108.570327 146.098762 
L 113.074632 146.946155 
L 117.578937 147.969263 
L 122.083242 147.72871 
L 126.587547 148.300285 
L 131.091852 148.165322 
L 135.596158 149.197108 
L 140.100463 150.483893 
L 144.604768 151.247058 
L 149.109073 151.84402 
L 153.613378 143.502484 
L 158.117683 126.943131 
L 162.621989 110.792533 
L 167.126294 93.784339 
L 171.630599 76.197322 
L 176.134904 59.022448 
L 180.639209 41.6753 
L 185.143514 45.53538 
L 189.64782 59.477532 
L 194.152125 74.22695 
L 198.65643 88.826255 
L 203.160735 103.738059 
L 207.66504 118.189963 
L 212.169345 133.656447 
L 216.673651 137.732396 
L 221.177956 139.011964 
L 225.682261 139.213698 
L 230.186566 139.587977 
L 234.690871 139.986897 
L 239.195176 140.554735 
L 243.699482 140.668713 
L 248.203787 140.359538 
L 252.708092 139.930226 
L 257.212397 140.269381 
L 261.716702 140.245692 
L 266.221007 140.016122 
L 270.725313 139.875909 
L 275.229618 139.570106 
L 279.733923 139.757846 
L 284.238228 139.683022 
L 288.742533 139.171334 
L 293.246838 139.263227 
L 297.751143 140.402804 
L 302.255449 140.790276 
L 306.759754 140.526443 
L 311.264059 141.574871 
L 315.768364 144.563057 
L 320.272669 147.496124 
L 324.776974 150.254613 
L 329.28128 137.710264 
L 333.785585 136.791714 
L 338.28989 136.883333 
L 342.794195 135.823271 
L 347.2985 132.391289 
L 351.802805 129.44171 
L 356.307111 125.961906 
L 360.811416 137.164399 
L 365.315721 137.667548 
L 369.820026 137.524582 
L 374.324331 137.343189 
L 378.828636 137.71636 
L 383.332942 137.639366 
L 387.837247 137.821589 
L 392.341552 137.442732 
L 396.845857 137.105266 
L 401.350162 137.80768 
L 405.854467 140.52813 
L 410.358773 143.160427 
L 414.863078 145.792748 
L 419.367383 148.848219 
L 423.871688 152.382034 
L 428.375993 155.54008 
L 432.880298 157.680245 
L 437.384604 157.714326 
L 441.888909 157.899839 
L 446.393214 158.18614 
L 450.897519 158.223124 
L 455.401824 158.133161 
L 459.906129 158.244732 
L 464.410435 158.656126 
L 468.91474 158.810336 
L 473.419045 159.286084 
" clip-path="url(#pdfc4fb78fd)" style="fill: none; stroke: #cc3333; stroke-width: 1.5; stroke-linecap: square"/>
   </g>
   <g id="text_16">
    <!-- Avail — Daily Data Volume (MiB) -->
    <g transform="translate(179.0575 19.158281) scale(0.11 -0.11)">
     <defs>
      <path id="DejaVuSerif-41" d="M 1281 1691 
L 2994 1691 
L 2138 3909 
L 1281 1691 
z
M -38 0 
L -38 331 
L 372 331 
L 2034 4666 
L 2559 4666 
L 4225 331 
L 4684 331 
L 4684 0 
L 2988 0 
L 2988 331 
L 3506 331 
L 3116 1356 
L 1153 1356 
L 763 331 
L 1275 331 
L 1275 0 
L -38 0 
z
" transform="scale(0.015625)"/>
      <path id="DejaVuSerif-6c" d="M 1313 331 
L 1856 331 
L 1856 0 
L 184 0 
L 184 331 
L 738 331 
L 738 4531 
L 184 4531 
L 184 4863 
L 1313 4863 
L 1313 331 
z
" transform="scale(0.015625)"/>
      <path id="DejaVuSerif-2014" d="M 281 1906 
L 6119 1906 
L 6119 1491 
L 281 1491 
L 281 1906 
z
" transform="scale(0.015625)"/>
      <path id="DejaVuSerif-79" d="M 1381 -609 
L 1600 -56 
L 359 2988 
L -19 2988 
L -19 3322 
L 1509 3322 
L 1509 2988 
L 978 2988 
L 1913 703 
L 2847 2988 
L 2350 2988 
L 2350 3322 
L 3597 3322 
L 3597 2988 
L 3225 2988 
L 1703 -750 
Q 1547 -1138 1356 -1280 
Q 1166 -1422 819 -1422 
Q 672 -1422 517 -1397 
Q 363 -1372 206 -1325 
L 206 -691 
L 500 -691 
Q 519 -903 608 -995 
Q 697 -1088 884 -1088 
Q 1056 -1088 1161 -992 
Q 1266 -897 1381 -609 
z
" transform="scale(0.015625)"/>
      <path id="DejaVuSerif-74" d="M 691 2988 
L 184 2988 
L 184 3322 
L 691 3322 
L 691 4353 
L 1269 4353 
L 1269 3322 
L 2350 3322 
L 2350 2988 
L 1269 2988 
L 1269 878 
Q 1269 456 1350 337 
Q 1431 219 1650 219 
Q 1875 219 1978 351 
Q 2081 484 2088 781 
L 2522 781 
Q 2497 328 2275 118 
Q 2053 -91 1600 -91 
Q 1103 -91 897 129 
Q 691 350 691 878 
L 691 2988 
z
" transform="scale(0.015625)"/>
      <path id="DejaVuSerif-56" d="M 1119 4331 
L 2497 750 
L 3872 4331 
L 3347 4331 
L 3347 4666 
L 4716 4666 
L 4716 4331 
L 4263 4331 
L 2597 0 
L 2059 0 
L 403 4331 
L -63 4331 
L -63 4666 
L 1638 4666 
L 1638 4331 
L 1119 4331 
z
" transform="scale(0.015625)"/>
      <path id="DejaVuSerif-75" d="M 2266 3322 
L 3341 3322 
L 3341 331 
L 3884 331 
L 3884 0 
L 2766 0 
L 2766 588 
Q 2606 256 2353 82 
Q 2100 -91 1766 -91 
Q 1213 -91 952 223 
Q 691 538 691 1209 
L 691 2988 
L 172 2988 
L 172 3322 
L 1269 3322 
L 1269 1388 
Q 1269 781 1417 556 
Q 1566 331 1947 331 
Q 2347 331 2556 625 
Q 2766 919 2766 1478 
L 2766 2988 
L 2266 2988 
L 2266 3322 
z
" transform="scale(0.015625)"/>
      <path id="DejaVuSerif-6d" d="M 3316 2675 
Q 3481 3041 3739 3227 
Q 3997 3413 4341 3413 
Q 4863 3413 5119 3089 
Q 5375 2766 5375 2113 
L 5375 331 
L 5894 331 
L 5894 0 
L 4300 0 
L 4300 331 
L 4800 331 
L 4800 2047 
Q 4800 2556 4650 2772 
Q 4500 2988 4153 2988 
Q 3769 2988 3567 2697 
Q 3366 2406 3366 1850 
L 3366 331 
L 3866 331 
L 3866 0 
L 2291 0 
L 2291 331 
L 2791 331 
L 2791 2069 
Q 2791 2566 2641 2777 
Q 2491 2988 2144 2988 
Q 1759 2988 1557 2697 
Q 1356 2406 1356 1850 
L 1356 331 
L 1856 331 
L 1856 0 
L 263 0 
L 263 331 
L 781 331 
L 781 2994 
L 231 2994 
L 231 3322 
L 1356 3322 
L 1356 2731 
Q 1516 3063 1762 3238 
Q 2009 3413 2322 3413 
Q 2709 3413 2968 3220 
Q 3228 3028 3316 2675 
z
" transform="scale(0.015625)"/>
      <path id="DejaVuSerif-28" d="M 2041 -997 
Q 1281 -656 893 83 
Q 506 822 506 1931 
Q 506 3044 893 3783 
Q 1281 4522 2041 4863 
L 2041 4556 
Q 1559 4225 1350 3623 
Q 1141 3022 1141 1931 
Q 1141 844 1350 242 
Q 1559 -359 2041 -691 
L 2041 -997 
z
" transform="scale(0.015625)"/>
      <path id="DejaVuSerif-29" d="M 453 -997 
L 453 -691 
Q 934 -359 1145 242 
Q 1356 844 1356 1931 
Q 1356 3022 1145 3623 
Q 934 4225 453 4556 
L 453 4863 
Q 1216 4522 1603 3783 
Q 1991 3044 1991 1931 
Q 1991 822 1603 83 
Q 1216 -656 453 -997 
z
" transform="scale(0.015625)"/>
     </defs>
     <use xlink:href="#DejaVuSerif-41"/>
     <use xlink:href="#DejaVuSerif-76" transform="translate(68.216797 0)"/>
     <use xlink:href="#DejaVuSerif-61" transform="translate(124.710938 0)"/>
     <use xlink:href="#DejaVuSerif-69" transform="translate(184.330078 0)"/>
     <use xlink:href="#DejaVuSerif-6c" transform="translate(216.3125 0)"/>
     <use xlink:href="#DejaVuSerif-20" transform="translate(248.294922 0)"/>
     <use xlink:href="#DejaVuSerif-2014" transform="translate(280.082031 0)"/>
     <use xlink:href="#DejaVuSerif-20" transform="translate(380.082031 0)"/>
     <use xlink:href="#DejaVuSerif-44" transform="translate(411.869141 0)"/>
     <use xlink:href="#DejaVuSerif-61" transform="translate(492.044922 0)"/>
     <use xlink:href="#DejaVuSerif-69" transform="translate(551.664062 0)"/>
     <use xlink:href="#DejaVuSerif-6c" transform="translate(583.646484 0)"/>
     <use xlink:href="#DejaVuSerif-79" transform="translate(615.628906 0)"/>
     <use xlink:href="#DejaVuSerif-20" transform="translate(672.123047 0)"/>
     <use xlink:href="#DejaVuSerif-44" transform="translate(703.910156 0)"/>
     <use xlink:href="#DejaVuSerif-61" transform="translate(784.085938 0)"/>
     <use xlink:href="#DejaVuSerif-74" transform="translate(843.705078 0)"/>
     <use xlink:href="#DejaVuSerif-61" transform="translate(883.890625 0)"/>
     <use xlink:href="#DejaVuSerif-20" transform="translate(943.509766 0)"/>
     <use xlink:href="#DejaVuSerif-56" transform="translate(975.296875 0)"/>
     <use xlink:href="#DejaVuSerif-6f" transform="translate(1038.388672 0)"/>
     <use xlink:href="#DejaVuSerif-6c" transform="translate(1098.59375 0)"/>
     <use xlink:href="#DejaVuSerif-75" transform="translate(1130.576172 0)"/>
     <use xlink:href="#DejaVuSerif-6d" transform="translate(1194.980469 0)"/>
     <use xlink:href="#DejaVuSerif-65" transform="translate(1289.804688 0)"/>
     <use xlink:href="#DejaVuSerif-20" transform="translate(1348.984375 0)"/>
     <use xlink:href="#DejaVuSerif-28" transform="translate(1380.771484 0)"/>
     <use xlink:href="#DejaVuSerif-4d" transform="translate(1419.785156 0)"/>
     <use xlink:href="#DejaVuSerif-69" transform="translate(1522.177734 0)"/>
     <use xlink:href="#DejaVuSerif-42" transform="translate(1554.160156 0)"/>
     <use xlink:href="#DejaVuSerif-29" transform="translate(1627.646484 0)"/>
    </g>
   </g>
   <g id="legend_1">
    <g id="patch_96">
     <path d="M 437.305312 55.270781 
L 490.070312 55.270781 
Q 491.670312 55.270781 491.670312 53.670781 
L 491.670312 30.758281 
Q 491.670312 29.158281 490.070312 29.158281 
L 437.305312 29.158281 
Q 435.705312 29.158281 435.705312 30.758281 
L 435.705312 53.670781 
Q 435.705312 55.270781 437.305312 55.270781 
z
" style="fill: #ffffff; opacity: 0.9; stroke: #cccccc; stroke-linejoin: miter"/>
    </g>
    <g id="line2d_30">
     <path d="M 438.905312 35.637031 
L 446.905312 35.637031 
L 454.905312 35.637031 
" style="fill: none; stroke: #cc3333; stroke-width: 1.5; stroke-linecap: square"/>
    </g>
    <g id="text_17">
     <!-- 7d avg -->
     <g transform="translate(461.305312 38.437031) scale(0.08 -0.08)">
      <defs>
       <path id="DejaVuSerif-64" d="M 3359 331 
L 3909 331 
L 3909 0 
L 2784 0 
L 2784 519 
Q 2616 206 2355 57 
Q 2094 -91 1709 -91 
Q 1097 -91 708 395 
Q 319 881 319 1663 
Q 319 2444 706 2928 
Q 1094 3413 1709 3413 
Q 2094 3413 2355 3264 
Q 2616 3116 2784 2803 
L 2784 4531 
L 2241 4531 
L 2241 4863 
L 3359 4863 
L 3359 331 
z
M 2784 1497 
L 2784 1825 
Q 2784 2422 2554 2737 
Q 2325 3053 1888 3053 
Q 1444 3053 1217 2703 
Q 991 2353 991 1663 
Q 991 975 1217 622 
Q 1444 269 1888 269 
Q 2325 269 2554 583 
Q 2784 897 2784 1497 
z
" transform="scale(0.015625)"/>
       <path id="DejaVuSerif-67" d="M 3359 2988 
L 3359 72 
Q 3359 -644 2965 -1033 
Q 2572 -1422 1844 -1422 
Q 1516 -1422 1216 -1362 
Q 916 -1303 641 -1184 
L 641 -488 
L 941 -488 
Q 997 -813 1206 -963 
Q 1416 -1113 1806 -1113 
Q 2313 -1113 2548 -827 
Q 2784 -541 2784 72 
L 2784 519 
Q 2616 206 2355 57 
Q 2094 -91 1709 -91 
Q 1097 -91 708 395 
Q 319 881 319 1663 
Q 319 2444 706 2928 
Q 1094 3413 1709 3413 
Q 2094 3413 2355 3264 
Q 2616 3116 2784 2803 
L 2784 3322 
L 3909 3322 
L 3909 2988 
L 3359 2988 
z
M 2784 1825 
Q 2784 2422 2554 2737 
Q 2325 3053 1888 3053 
Q 1444 3053 1217 2703 
Q 991 2353 991 1663 
Q 991 975 1217 622 
Q 1444 269 1888 269 
Q 2325 269 2554 583 
Q 2784 897 2784 1497 
L 2784 1825 
z
" transform="scale(0.015625)"/>
      </defs>
      <use xlink:href="#DejaVuSerif-37"/>
      <use xlink:href="#DejaVuSerif-64" transform="translate(63.623047 0)"/>
      <use xlink:href="#DejaVuSerif-20" transform="translate(127.636719 0)"/>
      <use xlink:href="#DejaVuSerif-61" transform="translate(159.423828 0)"/>
      <use xlink:href="#DejaVuSerif-76" transform="translate(219.042969 0)"/>
      <use xlink:href="#DejaVuSerif-67" transform="translate(275.537109 0)"/>
     </g>
    </g>
    <g id="patch_97">
     <path d="M 438.905312 50.293281 
L 454.905312 50.293281 
L 454.905312 44.693281 
L 438.905312 44.693281 
z
" style="fill: #3366cc; opacity: 0.7"/>
    </g>
    <g id="text_18">
     <!-- Daily -->
     <g transform="translate(461.305312 50.293281) scale(0.08 -0.08)">
      <use xlink:href="#DejaVuSerif-44"/>
      <use xlink:href="#DejaVuSerif-61" transform="translate(80.175781 0)"/>
      <use xlink:href="#DejaVuSerif-69" transform="translate(139.794922 0)"/>
      <use xlink:href="#DejaVuSerif-6c" transform="translate(171.777344 0)"/>
      <use xlink:href="#DejaVuSerif-79" transform="translate(203.759766 0)"/>
     </g>
    </g>
   </g>
  </g>
 </g>
 <defs>
  <clipPath id="pdfc4fb78fd">
   <rect x="45.780313" y="25.158281" width="449.89" height="138.979829"/>
  </clipPath>
 </defs>
</svg>
