<?xml version="1.0" encoding="utf-8" standalone="no"?>
<!DOCTYPE svg PUBLIC "-//W3C//DTD SVG 1.1//EN"
  "http://www.w3.org/Graphics/SVG/1.1/DTD/svg11.dtd">
<svg xmlns:xlink="http://www.w3.org/1999/xlink" width="506.452812pt" height="203.172687pt" viewBox="0 0 506.452812 203.172687" xmlns="http://www.w3.org/2000/svg" version="1.1">
 <metadata>
  <rdf:RDF xmlns:dc="http://purl.org/dc/elements/1.1/" xmlns:cc="http://creativecommons.org/ns#" xmlns:rdf="http://www.w3.org/1999/02/22-rdf-syntax-ns#">
   <cc:Work>
    <dc:type rdf:resource="http://purl.org/dc/dcmitype/StillImage"/>
    <dc:date>2026-02-16T16:57:26.949298</dc:date>
    <dc:format>image/svg+xml</dc:format>
    <dc:creator>
     <cc:Agent>
      <dc:title>Matplotlib v3.10.8, https://matplotlib.org/</dc:title>
     </cc:Agent>
    </dc:creator>
   </cc:Work>
  </rdf:RDF>
 </metadata>
 <defs>
  <style type="text/css">*{stroke-linejoin: round; stroke-linecap: butt}</style>
 </defs>
 <g id="figure_1">
  <g id="patch_1">
   <path d="M 0 203.172687 
L 506.452812 203.172687 
L 506.452812 0 
L 0 0 
z
" style="fill: #ffffff"/>
  </g>
  <g id="axes_1">
   <g id="patch_2">
    <path d="M 53.412813 164.13811 
L 495.652812 164.13811 
L 495.652812 25.158281 
L 53.412813 25.158281 
z
" style="fill: #ffffff"/>
   </g>
   <g id="matplotlib.axis_1">
    <g id="xtick_1">
     <g id="line2d_1">
      <path d="M 115.135135 164.13811 
L 115.135135 25.158281 
" clip-path="url(#pd64d3640c2)" style="fill: none; stroke: #b0b0b0; stroke-opacity: 0.25; stroke-width: 0.5; stroke-linecap: square"/>
     </g>
     <g id="line2d_2">
      <defs>
       <path id="m3dae6dc0cb" d="M 0 0 
L 0 3.5 
" style="stroke: #000000; stroke-width: 0.8"/>
      </defs>
      <g>
       <use xlink:href="#m3dae6dc0cb" x="115.135135" y="164.13811" style="stroke: #000000; stroke-width: 0.8"/>
      </g>
     </g>
     <g id="text_1">
      <!-- Nov 25 -->
      <g transform="translate(89.137645 190.931837) rotate(-30) scale(0.08 -0.08)">
       <defs>
        <path id="DejaVuSerif-4e" d="M 313 0 
L 313 331 
L 941 331 
L 941 4331 
L 313 4331 
L 313 4666 
L 1509 4666 
L 4306 984 
L 4306 4331 
L 3681 4331 
L 3681 4666 
L 5319 4666 
L 5319 4331 
L 4691 4331 
L 4691 -91 
L 4313 -91 
L 1325 3841 
L 1325 331 
L 1953 331 
L 1953 0 
L 313 0 
z
" transform="scale(0.015625)"/>
        <path id="DejaVuSerif-6f" d="M 1925 219 
Q 2388 219 2623 584 
Q 2859 950 2859 1663 
Q 2859 2375 2623 2739 
Q 2388 3103 1925 3103 
Q 1463 3103 1227 2739 
Q 991 2375 991 1663 
Q 991 950 1228 584 
Q 1466 219 1925 219 
z
M 1925 -91 
Q 1200 -91 759 389 
Q 319 869 319 1663 
Q 319 2456 758 2934 
Q 1197 3413 1925 3413 
Q 2653 3413 3092 2934 
Q 3531 2456 3531 1663 
Q 3531 869 3092 389 
Q 2653 -91 1925 -91 
z
" transform="scale(0.015625)"/>
        <path id="DejaVuSerif-76" d="M 1581 0 
L 359 2988 
L -19 2988 
L -19 3322 
L 1509 3322 
L 1509 2988 
L 978 2988 
L 1913 703 
L 2847 2988 
L 2350 2988 
L 2350 3322 
L 3597 3322 
L 3597 2988 
L 3225 2988 
L 2003 0 
L 1581 0 
z
" transform="scale(0.015625)"/>
        <path id="DejaVuSerif-20" transform="scale(0.015625)"/>
        <path id="DejaVuSerif-32" d="M 819 3553 
L 469 3553 
L 469 4384 
Q 803 4563 1142 4656 
Q 1481 4750 1806 4750 
Q 2534 4750 2956 4397 
Q 3378 4044 3378 3438 
Q 3378 2753 2422 1800 
Q 2347 1728 2309 1691 
L 1131 513 
L 3078 513 
L 3078 1088 
L 3444 1088 
L 3444 0 
L 434 0 
L 434 341 
L 1850 1753 
Q 2319 2222 2519 2614 
Q 2719 3006 2719 3438 
Q 2719 3909 2473 4175 
Q 2228 4441 1797 4441 
Q 1350 4441 1106 4219 
Q 863 3997 819 3553 
z
" transform="scale(0.015625)"/>
        <path id="DejaVuSerif-35" d="M 3219 4666 
L 3219 4153 
L 1081 4153 
L 1081 2816 
Q 1244 2928 1461 2984 
Q 1678 3041 1947 3041 
Q 2703 3041 3140 2622 
Q 3578 2203 3578 1478 
Q 3578 738 3136 323 
Q 2694 -91 1894 -91 
Q 1572 -91 1234 -12 
Q 897 66 544 225 
L 544 1131 
L 897 1131 
Q 925 688 1179 453 
Q 1434 219 1894 219 
Q 2388 219 2653 544 
Q 2919 869 2919 1478 
Q 2919 2084 2655 2407 
Q 2391 2731 1894 2731 
Q 1613 2731 1398 2631 
Q 1184 2531 1019 2322 
L 750 2322 
L 750 4666 
L 3219 4666 
z
" transform="scale(0.015625)"/>
       </defs>
       <use xlink:href="#DejaVuSerif-4e"/>
       <use xlink:href="#DejaVuSerif-6f" transform="translate(87.5 0)"/>
       <use xlink:href="#DejaVuSerif-76" transform="translate(147.705078 0)"/>
       <use xlink:href="#DejaVuSerif-20" transform="translate(204.199219 0)"/>
       <use xlink:href="#DejaVuSerif-32" transform="translate(235.986328 0)"/>
       <use xlink:href="#DejaVuSerif-35" transform="translate(299.609375 0)"/>
      </g>
     </g>
    </g>
    <g id="xtick_2">
     <g id="line2d_3">
      <path d="M 177.123121 164.13811 
L 177.123121 25.158281 
" clip-path="url(#pd64d3640c2)" style="fill: none; stroke: #b0b0b0; stroke-opacity: 0.25; stroke-width: 0.5; stroke-linecap: square"/>
     </g>
     <g id="line2d_4">
      <g>
       <use xlink:href="#m3dae6dc0cb" x="177.123121" y="164.13811" style="stroke: #000000; stroke-width: 0.8"/>
      </g>
     </g>
     <g id="text_2">
      <!-- Dec 09 -->
      <g transform="translate(151.738343 190.578087) rotate(-30) scale(0.08 -0.08)">
       <defs>
        <path id="DejaVuSerif-44" d="M 1581 331 
L 2163 331 
Q 3072 331 3558 850 
Q 4044 1369 4044 2338 
Q 4044 3306 3559 3818 
Q 3075 4331 2163 4331 
L 1581 4331 
L 1581 331 
z
M 353 0 
L 353 331 
L 947 331 
L 947 4331 
L 353 4331 
L 353 4666 
L 2209 4666 
Q 3416 4666 4089 4050 
Q 4763 3434 4763 2338 
Q 4763 1238 4088 619 
Q 3413 0 2209 0 
L 353 0 
z
" transform="scale(0.015625)"/>
        <path id="DejaVuSerif-65" d="M 3469 1600 
L 991 1600 
L 991 1575 
Q 991 903 1244 561 
Q 1497 219 1991 219 
Q 2369 219 2611 417 
Q 2853 616 2950 1006 
L 3413 1006 
Q 3275 459 2904 184 
Q 2534 -91 1931 -91 
Q 1203 -91 761 389 
Q 319 869 319 1663 
Q 319 2450 753 2931 
Q 1188 3413 1894 3413 
Q 2647 3413 3050 2948 
Q 3453 2484 3469 1600 
z
M 2791 1931 
Q 2772 2513 2545 2808 
Q 2319 3103 1894 3103 
Q 1497 3103 1269 2806 
Q 1041 2509 991 1931 
L 2791 1931 
z
" transform="scale(0.015625)"/>
        <path id="DejaVuSerif-63" d="M 3291 997 
Q 3169 466 2822 187 
Q 2475 -91 1925 -91 
Q 1200 -91 759 389 
Q 319 869 319 1663 
Q 319 2459 759 2936 
Q 1200 3413 1925 3413 
Q 2241 3413 2553 3339 
Q 2866 3266 3181 3116 
L 3181 2266 
L 2847 2266 
Q 2781 2703 2561 2903 
Q 2341 3103 1931 3103 
Q 1466 3103 1228 2742 
Q 991 2381 991 1663 
Q 991 944 1227 581 
Q 1463 219 1931 219 
Q 2303 219 2525 412 
Q 2747 606 2828 997 
L 3291 997 
z
" transform="scale(0.015625)"/>
        <path id="DejaVuSerif-30" d="M 2034 219 
Q 2513 219 2750 744 
Q 2988 1269 2988 2328 
Q 2988 3391 2750 3916 
Q 2513 4441 2034 4441 
Q 1556 4441 1318 3916 
Q 1081 3391 1081 2328 
Q 1081 1269 1318 744 
Q 1556 219 2034 219 
z
M 2034 -91 
Q 1275 -91 848 546 
Q 422 1184 422 2328 
Q 422 3475 848 4112 
Q 1275 4750 2034 4750 
Q 2797 4750 3222 4112 
Q 3647 3475 3647 2328 
Q 3647 1184 3222 546 
Q 2797 -91 2034 -91 
z
" transform="scale(0.015625)"/>
        <path id="DejaVuSerif-39" d="M 2994 2091 
Q 2784 1856 2512 1740 
Q 2241 1625 1900 1625 
Q 1206 1625 804 2044 
Q 403 2463 403 3188 
Q 403 3897 839 4323 
Q 1275 4750 2003 4750 
Q 2794 4750 3217 4161 
Q 3641 3572 3641 2478 
Q 3641 1253 3137 581 
Q 2634 -91 1722 -91 
Q 1475 -91 1203 -44 
Q 931 3 647 97 
L 647 872 
L 997 872 
Q 1038 556 1241 387 
Q 1444 219 1784 219 
Q 2391 219 2687 676 
Q 2984 1134 2994 2091 
z
M 1978 4441 
Q 1534 4441 1298 4117 
Q 1063 3794 1063 3188 
Q 1063 2581 1298 2256 
Q 1534 1931 1978 1931 
Q 2422 1931 2658 2245 
Q 2894 2559 2894 3150 
Q 2894 3772 2656 4106 
Q 2419 4441 1978 4441 
z
" transform="scale(0.015625)"/>
       </defs>
       <use xlink:href="#DejaVuSerif-44"/>
       <use xlink:href="#DejaVuSerif-65" transform="translate(80.175781 0)"/>
       <use xlink:href="#DejaVuSerif-63" transform="translate(139.355469 0)"/>
       <use xlink:href="#DejaVuSerif-20" transform="translate(195.361328 0)"/>
       <use xlink:href="#DejaVuSerif-30" transform="translate(227.148438 0)"/>
       <use xlink:href="#DejaVuSerif-39" transform="translate(290.771484 0)"/>
      </g>
     </g>
    </g>
    <g id="xtick_3">
     <g id="line2d_5">
      <path d="M 239.111106 164.13811 
L 239.111106 25.158281 
" clip-path="url(#pd64d3640c2)" style="fill: none; stroke: #b0b0b0; stroke-opacity: 0.25; stroke-width: 0.5; stroke-linecap: square"/>
     </g>
     <g id="line2d_6">
      <g>
       <use xlink:href="#m3dae6dc0cb" x="239.111106" y="164.13811" style="stroke: #000000; stroke-width: 0.8"/>
      </g>
     </g>
     <g id="text_3">
      <!-- Dec 23 -->
      <g transform="translate(213.726329 190.578087) rotate(-30) scale(0.08 -0.08)">
       <defs>
        <path id="DejaVuSerif-33" d="M 622 4469 
Q 988 4606 1323 4678 
Q 1659 4750 1953 4750 
Q 2638 4750 3022 4454 
Q 3406 4159 3406 3634 
Q 3406 3213 3140 2930 
Q 2875 2647 2388 2547 
Q 2963 2466 3280 2130 
Q 3597 1794 3597 1259 
Q 3597 606 3158 257 
Q 2719 -91 1894 -91 
Q 1528 -91 1179 -12 
Q 831 66 488 225 
L 488 1131 
L 838 1131 
Q 869 681 1141 450 
Q 1413 219 1906 219 
Q 2384 219 2661 495 
Q 2938 772 2938 1253 
Q 2938 1803 2653 2086 
Q 2369 2369 1819 2369 
L 1522 2369 
L 1522 2688 
L 1678 2688 
Q 2225 2688 2498 2914 
Q 2772 3141 2772 3597 
Q 2772 4006 2547 4223 
Q 2322 4441 1900 4441 
Q 1478 4441 1245 4241 
Q 1013 4041 972 3647 
L 622 3647 
L 622 4469 
z
" transform="scale(0.015625)"/>
       </defs>
       <use xlink:href="#DejaVuSerif-44"/>
       <use xlink:href="#DejaVuSerif-65" transform="translate(80.175781 0)"/>
       <use xlink:href="#DejaVuSerif-63" transform="translate(139.355469 0)"/>
       <use xlink:href="#DejaVuSerif-20" transform="translate(195.361328 0)"/>
       <use xlink:href="#DejaVuSerif-32" transform="translate(227.148438 0)"/>
       <use xlink:href="#DejaVuSerif-33" transform="translate(290.771484 0)"/>
      </g>
     </g>
    </g>
    <g id="xtick_4">
     <g id="line2d_7">
      <path d="M 301.099092 164.13811 
L 301.099092 25.158281 
" clip-path="url(#pd64d3640c2)" style="fill: none; stroke: #b0b0b0; stroke-opacity: 0.25; stroke-width: 0.5; stroke-linecap: square"/>
     </g>
     <g id="line2d_8">
      <g>
       <use xlink:href="#m3dae6dc0cb" x="301.099092" y="164.13811" style="stroke: #000000; stroke-width: 0.8"/>
      </g>
     </g>
     <g id="text_4">
      <!-- Jan 06 -->
      <g transform="translate(277.878295 189.328712) rotate(-30) scale(0.08 -0.08)">
       <defs>
        <path id="DejaVuSerif-4a" d="M -538 -1119 
L -538 -384 
L -181 -384 
Q -172 -694 -34 -845 
Q 103 -997 378 -997 
Q 750 -997 897 -762 
Q 1044 -528 1044 153 
L 1044 4331 
L 319 4331 
L 319 4666 
L 2272 4666 
L 2272 4331 
L 1678 4331 
L 1678 128 
Q 1678 -644 1368 -987 
Q 1059 -1331 372 -1331 
Q 150 -1331 -79 -1278 
Q -309 -1225 -538 -1119 
z
" transform="scale(0.015625)"/>
        <path id="DejaVuSerif-61" d="M 2547 1044 
L 2547 1747 
L 1806 1747 
Q 1378 1747 1168 1562 
Q 959 1378 959 997 
Q 959 650 1171 447 
Q 1384 244 1747 244 
Q 2106 244 2326 466 
Q 2547 688 2547 1044 
z
M 3122 2075 
L 3122 331 
L 3634 331 
L 3634 0 
L 2547 0 
L 2547 359 
Q 2356 128 2106 18 
Q 1856 -91 1522 -91 
Q 969 -91 644 203 
Q 319 497 319 997 
Q 319 1513 691 1797 
Q 1063 2081 1741 2081 
L 2547 2081 
L 2547 2309 
Q 2547 2688 2317 2895 
Q 2088 3103 1672 3103 
Q 1328 3103 1125 2947 
Q 922 2791 872 2484 
L 575 2484 
L 575 3156 
Q 875 3284 1158 3348 
Q 1441 3413 1709 3413 
Q 2400 3413 2761 3070 
Q 3122 2728 3122 2075 
z
" transform="scale(0.015625)"/>
        <path id="DejaVuSerif-6e" d="M 263 0 
L 263 331 
L 781 331 
L 781 2988 
L 231 2988 
L 231 3322 
L 1356 3322 
L 1356 2731 
Q 1516 3069 1770 3241 
Q 2025 3413 2363 3413 
Q 2913 3413 3172 3097 
Q 3431 2781 3431 2113 
L 3431 331 
L 3944 331 
L 3944 0 
L 2356 0 
L 2356 331 
L 2853 331 
L 2853 1931 
Q 2853 2541 2703 2767 
Q 2553 2994 2175 2994 
Q 1775 2994 1565 2701 
Q 1356 2409 1356 1850 
L 1356 331 
L 1856 331 
L 1856 0 
L 263 0 
z
" transform="scale(0.015625)"/>
        <path id="DejaVuSerif-36" d="M 2094 219 
Q 2534 219 2771 542 
Q 3009 866 3009 1472 
Q 3009 2078 2771 2401 
Q 2534 2725 2094 2725 
Q 1647 2725 1412 2412 
Q 1178 2100 1178 1509 
Q 1178 888 1415 553 
Q 1653 219 2094 219 
z
M 1075 2569 
Q 1288 2803 1556 2918 
Q 1825 3034 2163 3034 
Q 2859 3034 3264 2615 
Q 3669 2197 3669 1472 
Q 3669 763 3233 336 
Q 2797 -91 2069 -91 
Q 1278 -91 853 498 
Q 428 1088 428 2181 
Q 428 3406 931 4078 
Q 1434 4750 2350 4750 
Q 2597 4750 2869 4703 
Q 3141 4656 3425 4563 
L 3425 3794 
L 3072 3794 
Q 3034 4109 2831 4275 
Q 2628 4441 2284 4441 
Q 1678 4441 1381 3981 
Q 1084 3522 1075 2569 
z
" transform="scale(0.015625)"/>
       </defs>
       <use xlink:href="#DejaVuSerif-4a"/>
       <use xlink:href="#DejaVuSerif-61" transform="translate(40.087891 0)"/>
       <use xlink:href="#DejaVuSerif-6e" transform="translate(99.707031 0)"/>
       <use xlink:href="#DejaVuSerif-20" transform="translate(164.111328 0)"/>
       <use xlink:href="#DejaVuSerif-30" transform="translate(195.898438 0)"/>
       <use xlink:href="#DejaVuSerif-36" transform="translate(259.521484 0)"/>
      </g>
     </g>
    </g>
    <g id="xtick_5">
     <g id="line2d_9">
      <path d="M 363.087078 164.13811 
L 363.087078 25.158281 
" clip-path="url(#pd64d3640c2)" style="fill: none; stroke: #b0b0b0; stroke-opacity: 0.25; stroke-width: 0.5; stroke-linecap: square"/>
     </g>
     <g id="line2d_10">
      <g>
       <use xlink:href="#m3dae6dc0cb" x="363.087078" y="164.13811" style="stroke: #000000; stroke-width: 0.8"/>
      </g>
     </g>
     <g id="text_5">
      <!-- Jan 20 -->
      <g transform="translate(339.866281 189.328712) rotate(-30) scale(0.08 -0.08)">
       <use xlink:href="#DejaVuSerif-4a"/>
       <use xlink:href="#DejaVuSerif-61" transform="translate(40.087891 0)"/>
       <use xlink:href="#DejaVuSerif-6e" transform="translate(99.707031 0)"/>
       <use xlink:href="#DejaVuSerif-20" transform="translate(164.111328 0)"/>
       <use xlink:href="#DejaVuSerif-32" transform="translate(195.898438 0)"/>
       <use xlink:href="#DejaVuSerif-30" transform="translate(259.521484 0)"/>
      </g>
     </g>
    </g>
    <g id="xtick_6">
     <g id="line2d_11">
      <path d="M 425.075063 164.13811 
L 425.075063 25.158281 
" clip-path="url(#pd64d3640c2)" style="fill: none; stroke: #b0b0b0; stroke-opacity: 0.25; stroke-width: 0.5; stroke-linecap: square"/>
     </g>
     <g id="line2d_12">
      <g>
       <use xlink:href="#m3dae6dc0cb" x="425.075063" y="164.13811" style="stroke: #000000; stroke-width: 0.8"/>
      </g>
     </g>
     <g id="text_6">
      <!-- Feb 03 -->
      <g transform="translate(400.262945 190.247462) rotate(-30) scale(0.08 -0.08)">
       <defs>
        <path id="DejaVuSerif-46" d="M 353 0 
L 353 331 
L 947 331 
L 947 4331 
L 353 4331 
L 353 4666 
L 4172 4666 
L 4172 3628 
L 3788 3628 
L 3788 4281 
L 1581 4281 
L 1581 2719 
L 3175 2719 
L 3175 3303 
L 3559 3303 
L 3559 1753 
L 3175 1753 
L 3175 2338 
L 1581 2338 
L 1581 331 
L 2328 331 
L 2328 0 
L 353 0 
z
" transform="scale(0.015625)"/>
        <path id="DejaVuSerif-62" d="M 738 331 
L 738 4531 
L 184 4531 
L 184 4863 
L 1313 4863 
L 1313 2803 
Q 1481 3116 1742 3264 
Q 2003 3413 2388 3413 
Q 3000 3413 3387 2928 
Q 3775 2444 3775 1663 
Q 3775 881 3387 395 
Q 3000 -91 2388 -91 
Q 2003 -91 1742 57 
Q 1481 206 1313 519 
L 1313 0 
L 184 0 
L 184 331 
L 738 331 
z
M 1313 1497 
Q 1313 897 1542 583 
Q 1772 269 2209 269 
Q 2650 269 2876 622 
Q 3103 975 3103 1663 
Q 3103 2353 2876 2703 
Q 2650 3053 2209 3053 
Q 1772 3053 1542 2737 
Q 1313 2422 1313 1825 
L 1313 1497 
z
" transform="scale(0.015625)"/>
       </defs>
       <use xlink:href="#DejaVuSerif-46"/>
       <use xlink:href="#DejaVuSerif-65" transform="translate(63.884766 0)"/>
       <use xlink:href="#DejaVuSerif-62" transform="translate(123.064453 0)"/>
       <use xlink:href="#DejaVuSerif-20" transform="translate(187.078125 0)"/>
       <use xlink:href="#DejaVuSerif-30" transform="translate(218.865234 0)"/>
       <use xlink:href="#DejaVuSerif-33" transform="translate(282.488281 0)"/>
      </g>
     </g>
    </g>
    <g id="xtick_7">
     <g id="line2d_13">
      <path d="M 487.063049 164.13811 
L 487.063049 25.158281 
" clip-path="url(#pd64d3640c2)" style="fill: none; stroke: #b0b0b0; stroke-opacity: 0.25; stroke-width: 0.5; stroke-linecap: square"/>
     </g>
     <g id="line2d_14">
      <g>
       <use xlink:href="#m3dae6dc0cb" x="487.063049" y="164.13811" style="stroke: #000000; stroke-width: 0.8"/>
      </g>
     </g>
     <g id="text_7">
      <!-- Feb 17 -->
      <g transform="translate(462.25093 190.247462) rotate(-30) scale(0.08 -0.08)">
       <defs>
        <path id="DejaVuSerif-31" d="M 909 0 
L 909 331 
L 1722 331 
L 1722 4213 
L 781 3603 
L 781 4013 
L 1919 4750 
L 2350 4750 
L 2350 331 
L 3163 331 
L 3163 0 
L 909 0 
z
" transform="scale(0.015625)"/>
        <path id="DejaVuSerif-37" d="M 3609 4347 
L 1784 0 
L 1319 0 
L 3059 4153 
L 903 4153 
L 903 3578 
L 538 3578 
L 538 4666 
L 3609 4666 
L 3609 4347 
z
" transform="scale(0.015625)"/>
       </defs>
       <use xlink:href="#DejaVuSerif-46"/>
       <use xlink:href="#DejaVuSerif-65" transform="translate(63.884766 0)"/>
       <use xlink:href="#DejaVuSerif-62" transform="translate(123.064453 0)"/>
       <use xlink:href="#DejaVuSerif-20" transform="translate(187.078125 0)"/>
       <use xlink:href="#DejaVuSerif-31" transform="translate(218.865234 0)"/>
       <use xlink:href="#DejaVuSerif-37" transform="translate(282.488281 0)"/>
      </g>
     </g>
    </g>
   </g>
   <g id="matplotlib.axis_2">
    <g id="ytick_1">
     <g id="line2d_15">
      <path d="M 53.412813 130.552266 
L 495.652812 130.552266 
" clip-path="url(#pd64d3640c2)" style="fill: none; stroke: #b0b0b0; stroke-opacity: 0.25; stroke-width: 0.5; stroke-linecap: square"/>
     </g>
     <g id="line2d_16">
      <defs>
       <path id="m436721f0c1" d="M 0 0 
L -3.5 0 
" style="stroke: #000000; stroke-width: 0.8"/>
      </defs>
      <g>
       <use xlink:href="#m436721f0c1" x="53.412813" y="130.552266" style="stroke: #000000; stroke-width: 0.8"/>
      </g>
     </g>
     <g id="text_8">
      <!-- 0.001 -->
      <g transform="translate(23.510313 133.591641) scale(0.08 -0.08)">
       <defs>
        <path id="DejaVuSerif-2e" d="M 603 325 
Q 603 500 722 622 
Q 841 744 1019 744 
Q 1191 744 1312 622 
Q 1434 500 1434 325 
Q 1434 153 1312 31 
Q 1191 -91 1019 -91 
Q 841 -91 722 29 
Q 603 150 603 325 
z
" transform="scale(0.015625)"/>
       </defs>
       <use xlink:href="#DejaVuSerif-30"/>
       <use xlink:href="#DejaVuSerif-2e" transform="translate(63.623047 0)"/>
       <use xlink:href="#DejaVuSerif-30" transform="translate(95.410156 0)"/>
       <use xlink:href="#DejaVuSerif-30" transform="translate(159.033203 0)"/>
       <use xlink:href="#DejaVuSerif-31" transform="translate(222.65625 0)"/>
      </g>
     </g>
    </g>
    <g id="ytick_2">
     <g id="line2d_17">
      <path d="M 53.412813 87.981815 
L 495.652812 87.981815 
" clip-path="url(#pd64d3640c2)" style="fill: none; stroke: #b0b0b0; stroke-opacity: 0.25; stroke-width: 0.5; stroke-linecap: square"/>
     </g>
     <g id="line2d_18">
      <g>
       <use xlink:href="#m436721f0c1" x="53.412813" y="87.981815" style="stroke: #000000; stroke-width: 0.8"/>
      </g>
     </g>
     <g id="text_9">
      <!-- 0.010 -->
      <g transform="translate(23.510313 91.02119) scale(0.08 -0.08)">
       <use xlink:href="#DejaVuSerif-30"/>
       <use xlink:href="#DejaVuSerif-2e" transform="translate(63.623047 0)"/>
       <use xlink:href="#DejaVuSerif-30" transform="translate(95.410156 0)"/>
       <use xlink:href="#DejaVuSerif-31" transform="translate(159.033203 0)"/>
       <use xlink:href="#DejaVuSerif-30" transform="translate(222.65625 0)"/>
      </g>
     </g>
    </g>
    <g id="ytick_3">
     <g id="line2d_19">
      <path d="M 53.412813 45.411364 
L 495.652812 45.411364 
" clip-path="url(#pd64d3640c2)" style="fill: none; stroke: #b0b0b0; stroke-opacity: 0.25; stroke-width: 0.5; stroke-linecap: square"/>
     </g>
     <g id="line2d_20">
      <g>
       <use xlink:href="#m436721f0c1" x="53.412813" y="45.411364" style="stroke: #000000; stroke-width: 0.8"/>
      </g>
     </g>
     <g id="text_10">
      <!-- 0.100 -->
      <g transform="translate(23.510313 48.450739) scale(0.08 -0.08)">
       <use xlink:href="#DejaVuSerif-30"/>
       <use xlink:href="#DejaVuSerif-2e" transform="translate(63.623047 0)"/>
       <use xlink:href="#DejaVuSerif-31" transform="translate(95.410156 0)"/>
       <use xlink:href="#DejaVuSerif-30" transform="translate(159.033203 0)"/>
       <use xlink:href="#DejaVuSerif-30" transform="translate(222.65625 0)"/>
      </g>
     </g>
    </g>
    <g id="ytick_4">
     <g id="line2d_21">
      <defs>
       <path id="m0b32f4a9aa" d="M 0 0 
L -2 0 
" style="stroke: #000000; stroke-width: 0.6"/>
      </defs>
      <g>
       <use xlink:href="#m0b32f4a9aa" x="53.412813" y="160.307734" style="stroke: #000000; stroke-width: 0.6"/>
      </g>
     </g>
    </g>
    <g id="ytick_5">
     <g id="line2d_22">
      <g>
       <use xlink:href="#m0b32f4a9aa" x="53.412813" y="152.81145" style="stroke: #000000; stroke-width: 0.6"/>
      </g>
     </g>
    </g>
    <g id="ytick_6">
     <g id="line2d_23">
      <g>
       <use xlink:href="#m0b32f4a9aa" x="53.412813" y="147.492751" style="stroke: #000000; stroke-width: 0.6"/>
      </g>
     </g>
    </g>
    <g id="ytick_7">
     <g id="line2d_24">
      <g>
       <use xlink:href="#m0b32f4a9aa" x="53.412813" y="143.367248" style="stroke: #000000; stroke-width: 0.6"/>
      </g>
     </g>
    </g>
    <g id="ytick_8">
     <g id="line2d_25">
      <g>
       <use xlink:href="#m0b32f4a9aa" x="53.412813" y="139.996467" style="stroke: #000000; stroke-width: 0.6"/>
      </g>
     </g>
    </g>
    <g id="ytick_9">
     <g id="line2d_26">
      <g>
       <use xlink:href="#m0b32f4a9aa" x="53.412813" y="137.146512" style="stroke: #000000; stroke-width: 0.6"/>
      </g>
     </g>
    </g>
    <g id="ytick_10">
     <g id="line2d_27">
      <g>
       <use xlink:href="#m0b32f4a9aa" x="53.412813" y="134.677768" style="stroke: #000000; stroke-width: 0.6"/>
      </g>
     </g>
    </g>
    <g id="ytick_11">
     <g id="line2d_28">
      <g>
       <use xlink:href="#m0b32f4a9aa" x="53.412813" y="132.500183" style="stroke: #000000; stroke-width: 0.6"/>
      </g>
     </g>
    </g>
    <g id="ytick_12">
     <g id="line2d_29">
      <g>
       <use xlink:href="#m0b32f4a9aa" x="53.412813" y="117.737283" style="stroke: #000000; stroke-width: 0.6"/>
      </g>
     </g>
    </g>
    <g id="ytick_13">
     <g id="line2d_30">
      <g>
       <use xlink:href="#m0b32f4a9aa" x="53.412813" y="110.240999" style="stroke: #000000; stroke-width: 0.6"/>
      </g>
     </g>
    </g>
    <g id="ytick_14">
     <g id="line2d_31">
      <g>
       <use xlink:href="#m0b32f4a9aa" x="53.412813" y="104.9223" style="stroke: #000000; stroke-width: 0.6"/>
      </g>
     </g>
    </g>
    <g id="ytick_15">
     <g id="line2d_32">
      <g>
       <use xlink:href="#m0b32f4a9aa" x="53.412813" y="100.796797" style="stroke: #000000; stroke-width: 0.6"/>
      </g>
     </g>
    </g>
    <g id="ytick_16">
     <g id="line2d_33">
      <g>
       <use xlink:href="#m0b32f4a9aa" x="53.412813" y="97.426016" style="stroke: #000000; stroke-width: 0.6"/>
      </g>
     </g>
    </g>
    <g id="ytick_17">
     <g id="line2d_34">
      <g>
       <use xlink:href="#m0b32f4a9aa" x="53.412813" y="94.576061" style="stroke: #000000; stroke-width: 0.6"/>
      </g>
     </g>
    </g>
    <g id="ytick_18">
     <g id="line2d_35">
      <g>
       <use xlink:href="#m0b32f4a9aa" x="53.412813" y="92.107318" style="stroke: #000000; stroke-width: 0.6"/>
      </g>
     </g>
    </g>
    <g id="ytick_19">
     <g id="line2d_36">
      <g>
       <use xlink:href="#m0b32f4a9aa" x="53.412813" y="89.929732" style="stroke: #000000; stroke-width: 0.6"/>
      </g>
     </g>
    </g>
    <g id="ytick_20">
     <g id="line2d_37">
      <g>
       <use xlink:href="#m0b32f4a9aa" x="53.412813" y="75.166832" style="stroke: #000000; stroke-width: 0.6"/>
      </g>
     </g>
    </g>
    <g id="ytick_21">
     <g id="line2d_38">
      <g>
       <use xlink:href="#m0b32f4a9aa" x="53.412813" y="67.670548" style="stroke: #000000; stroke-width: 0.6"/>
      </g>
     </g>
    </g>
    <g id="ytick_22">
     <g id="line2d_39">
      <g>
       <use xlink:href="#m0b32f4a9aa" x="53.412813" y="62.351849" style="stroke: #000000; stroke-width: 0.6"/>
      </g>
     </g>
    </g>
    <g id="ytick_23">
     <g id="line2d_40">
      <g>
       <use xlink:href="#m0b32f4a9aa" x="53.412813" y="58.226346" style="stroke: #000000; stroke-width: 0.6"/>
      </g>
     </g>
    </g>
    <g id="ytick_24">
     <g id="line2d_41">
      <g>
       <use xlink:href="#m0b32f4a9aa" x="53.412813" y="54.855565" style="stroke: #000000; stroke-width: 0.6"/>
      </g>
     </g>
    </g>
    <g id="ytick_25">
     <g id="line2d_42">
      <g>
       <use xlink:href="#m0b32f4a9aa" x="53.412813" y="52.00561" style="stroke: #000000; stroke-width: 0.6"/>
      </g>
     </g>
    </g>
    <g id="ytick_26">
     <g id="line2d_43">
      <g>
       <use xlink:href="#m0b32f4a9aa" x="53.412813" y="49.536867" style="stroke: #000000; stroke-width: 0.6"/>
      </g>
     </g>
    </g>
    <g id="ytick_27">
     <g id="line2d_44">
      <g>
       <use xlink:href="#m0b32f4a9aa" x="53.412813" y="47.359281" style="stroke: #000000; stroke-width: 0.6"/>
      </g>
     </g>
    </g>
    <g id="ytick_28">
     <g id="line2d_45">
      <g>
       <use xlink:href="#m0b32f4a9aa" x="53.412813" y="32.596381" style="stroke: #000000; stroke-width: 0.6"/>
      </g>
     </g>
    </g>
    <g id="text_11">
     <!-- MiB/s -->
     <g transform="translate(17.638594 107.826868) rotate(-90) scale(0.09 -0.09)">
      <defs>
       <path id="DejaVuSerif-4d" d="M 353 0 
L 353 331 
L 947 331 
L 947 4331 
L 319 4331 
L 319 4666 
L 1678 4666 
L 3316 1344 
L 4953 4666 
L 6228 4666 
L 6228 4331 
L 5606 4331 
L 5606 331 
L 6203 331 
L 6203 0 
L 4378 0 
L 4378 331 
L 4972 331 
L 4972 3938 
L 3372 684 
L 2931 684 
L 1331 3938 
L 1331 331 
L 1925 331 
L 1925 0 
L 353 0 
z
" transform="scale(0.015625)"/>
       <path id="DejaVuSerif-69" d="M 622 4353 
Q 622 4497 726 4603 
Q 831 4709 978 4709 
Q 1122 4709 1226 4603 
Q 1331 4497 1331 4353 
Q 1331 4206 1228 4103 
Q 1125 4000 978 4000 
Q 831 4000 726 4103 
Q 622 4206 622 4353 
z
M 1356 331 
L 1900 331 
L 1900 0 
L 231 0 
L 231 331 
L 781 331 
L 781 2988 
L 231 2988 
L 231 3322 
L 1356 3322 
L 1356 331 
z
" transform="scale(0.015625)"/>
       <path id="DejaVuSerif-42" d="M 1581 331 
L 2516 331 
Q 3078 331 3337 575 
Q 3597 819 3597 1350 
Q 3597 1878 3339 2120 
Q 3081 2363 2516 2363 
L 1581 2363 
L 1581 331 
z
M 1581 2694 
L 2375 2694 
Q 2888 2694 3123 2891 
Q 3359 3088 3359 3513 
Q 3359 3941 3123 4136 
Q 2888 4331 2375 4331 
L 1581 4331 
L 1581 2694 
z
M 353 0 
L 353 331 
L 947 331 
L 947 4331 
L 353 4331 
L 353 4666 
L 2656 4666 
Q 3363 4666 3720 4377 
Q 4078 4088 4078 3513 
Q 4078 3097 3829 2850 
Q 3581 2603 3103 2547 
Q 3697 2472 4005 2167 
Q 4313 1863 4313 1350 
Q 4313 656 3875 328 
Q 3438 0 2509 0 
L 353 0 
z
" transform="scale(0.015625)"/>
       <path id="DejaVuSerif-2f" d="M 1656 4666 
L 2156 4666 
L 500 -594 
L 0 -594 
L 1656 4666 
z
" transform="scale(0.015625)"/>
       <path id="DejaVuSerif-73" d="M 359 184 
L 359 959 
L 691 959 
Q 703 588 923 403 
Q 1144 219 1575 219 
Q 1963 219 2166 364 
Q 2369 509 2369 788 
Q 2369 1006 2220 1140 
Q 2072 1275 1594 1428 
L 1178 1569 
Q 750 1706 558 1912 
Q 366 2119 366 2438 
Q 366 2894 700 3153 
Q 1034 3413 1625 3413 
Q 1888 3413 2178 3344 
Q 2469 3275 2778 3144 
L 2778 2419 
L 2447 2419 
Q 2434 2741 2221 2922 
Q 2009 3103 1644 3103 
Q 1281 3103 1095 2975 
Q 909 2847 909 2591 
Q 909 2381 1050 2254 
Q 1191 2128 1613 1997 
L 2069 1856 
Q 2541 1709 2748 1489 
Q 2956 1269 2956 922 
Q 2956 450 2595 179 
Q 2234 -91 1600 -91 
Q 1278 -91 972 -22 
Q 666 47 359 184 
z
" transform="scale(0.015625)"/>
      </defs>
      <use xlink:href="#DejaVuSerif-4d"/>
      <use xlink:href="#DejaVuSerif-69" transform="translate(102.392578 0)"/>
      <use xlink:href="#DejaVuSerif-42" transform="translate(134.375 0)"/>
      <use xlink:href="#DejaVuSerif-2f" transform="translate(207.861328 0)"/>
      <use xlink:href="#DejaVuSerif-73" transform="translate(241.552734 0)"/>
     </g>
    </g>
   </g>
   <g id="patch_3">
    <path d="M 73.514631 42573.291854 
L 77.056801 42573.291854 
L 77.056801 137.206119 
L 73.514631 137.206119 
z
" clip-path="url(#pd64d3640c2)" style="fill: #3366cc; opacity: 0.7"/>
   </g>
   <g id="patch_4">
    <path d="M 77.942344 42573.291854 
L 81.484515 42573.291854 
L 81.484515 124.786446 
L 77.942344 124.786446 
z
" clip-path="url(#pd64d3640c2)" style="fill: #3366cc; opacity: 0.7"/>
   </g>
   <g id="patch_5">
    <path d="M 82.370057 42573.291854 
L 85.912228 42573.291854 
L 85.912228 126.216237 
L 82.370057 126.216237 
z
" clip-path="url(#pd64d3640c2)" style="fill: #3366cc; opacity: 0.7"/>
   </g>
   <g id="patch_6">
    <path d="M 86.79777 42573.291854 
L 90.339941 42573.291854 
L 90.339941 127.598513 
L 86.79777 127.598513 
z
" clip-path="url(#pd64d3640c2)" style="fill: #3366cc; opacity: 0.7"/>
   </g>
   <g id="patch_7">
    <path d="M 91.225484 42573.291854 
L 94.767654 42573.291854 
L 94.767654 125.768118 
L 91.225484 125.768118 
z
" clip-path="url(#pd64d3640c2)" style="fill: #3366cc; opacity: 0.7"/>
   </g>
   <g id="patch_8">
    <path d="M 95.653197 42573.291854 
L 99.195368 42573.291854 
L 99.195368 129.144502 
L 95.653197 129.144502 
z
" clip-path="url(#pd64d3640c2)" style="fill: #3366cc; opacity: 0.7"/>
   </g>
   <g id="patch_9">
    <path d="M 100.08091 42573.291854 
L 103.623081 42573.291854 
L 103.623081 131.928417 
L 100.08091 131.928417 
z
" clip-path="url(#pd64d3640c2)" style="fill: #3366cc; opacity: 0.7"/>
   </g>
   <g id="patch_10">
    <path d="M 104.508623 42573.291854 
L 108.050794 42573.291854 
L 108.050794 134.426673 
L 104.508623 134.426673 
z
" clip-path="url(#pd64d3640c2)" style="fill: #3366cc; opacity: 0.7"/>
   </g>
   <g id="patch_11">
    <path d="M 108.936337 42573.291854 
L 112.478507 42573.291854 
L 112.478507 130.492331 
L 108.936337 130.492331 
z
" clip-path="url(#pd64d3640c2)" style="fill: #3366cc; opacity: 0.7"/>
   </g>
   <g id="patch_12">
    <path d="M 113.36405 42573.291854 
L 116.906221 42573.291854 
L 116.906221 129.598427 
L 113.36405 129.598427 
z
" clip-path="url(#pd64d3640c2)" style="fill: #3366cc; opacity: 0.7"/>
   </g>
   <g id="patch_13">
    <path d="M 117.791763 42573.291854 
L 121.333934 42573.291854 
L 121.333934 134.03441 
L 117.791763 134.03441 
z
" clip-path="url(#pd64d3640c2)" style="fill: #3366cc; opacity: 0.7"/>
   </g>
   <g id="patch_14">
    <path d="M 122.219476 42573.291854 
L 125.761647 42573.291854 
L 125.761647 132.940641 
L 122.219476 132.940641 
z
" clip-path="url(#pd64d3640c2)" style="fill: #3366cc; opacity: 0.7"/>
   </g>
   <g id="patch_15">
    <path d="M 126.64719 42573.291854 
L 130.18936 42573.291854 
L 130.18936 127.538838 
L 126.64719 127.538838 
z
" clip-path="url(#pd64d3640c2)" style="fill: #3366cc; opacity: 0.7"/>
   </g>
   <g id="patch_16">
    <path d="M 131.074903 42573.291854 
L 134.617074 42573.291854 
L 134.617074 137.268111 
L 131.074903 137.268111 
z
" clip-path="url(#pd64d3640c2)" style="fill: #3366cc; opacity: 0.7"/>
   </g>
   <g id="patch_17">
    <path d="M 135.502616 42573.291854 
L 139.044787 42573.291854 
L 139.044787 133.218906 
L 135.502616 133.218906 
z
" clip-path="url(#pd64d3640c2)" style="fill: #3366cc; opacity: 0.7"/>
   </g>
   <g id="patch_18">
    <path d="M 139.93033 42573.291854 
L 143.4725 42573.291854 
L 143.4725 140.518697 
L 139.93033 140.518697 
z
" clip-path="url(#pd64d3640c2)" style="fill: #3366cc; opacity: 0.7"/>
   </g>
   <g id="patch_19">
    <path d="M 144.358043 42573.291854 
L 147.900213 42573.291854 
L 147.900213 142.317963 
L 144.358043 142.317963 
z
" clip-path="url(#pd64d3640c2)" style="fill: #3366cc; opacity: 0.7"/>
   </g>
   <g id="patch_20">
    <path d="M 148.785756 42573.291854 
L 152.327927 42573.291854 
L 152.327927 142.71963 
L 148.785756 142.71963 
z
" clip-path="url(#pd64d3640c2)" style="fill: #3366cc; opacity: 0.7"/>
   </g>
   <g id="patch_21">
    <path d="M 153.213469 42573.291854 
L 156.75564 42573.291854 
L 156.75564 138.92987 
L 153.213469 138.92987 
z
" clip-path="url(#pd64d3640c2)" style="fill: #3366cc; opacity: 0.7"/>
   </g>
   <g id="patch_22">
    <path d="M 157.641183 42573.291854 
L 161.183353 42573.291854 
L 161.183353 102.40757 
L 157.641183 102.40757 
z
" clip-path="url(#pd64d3640c2)" style="fill: #3366cc; opacity: 0.7"/>
   </g>
   <g id="patch_23">
    <path d="M 162.068896 42573.291854 
L 165.611066 42573.291854 
L 165.611066 93.460425 
L 162.068896 93.460425 
z
" clip-path="url(#pd64d3640c2)" style="fill: #3366cc; opacity: 0.7"/>
   </g>
   <g id="patch_24">
    <path d="M 166.496609 42573.291854 
L 170.03878 42573.291854 
L 170.03878 93.450728 
L 166.496609 93.450728 
z
" clip-path="url(#pd64d3640c2)" style="fill: #3366cc; opacity: 0.7"/>
   </g>
   <g id="patch_25">
    <path d="M 170.924322 42573.291854 
L 174.466493 42573.291854 
L 174.466493 93.272949 
L 170.924322 93.272949 
z
" clip-path="url(#pd64d3640c2)" style="fill: #3366cc; opacity: 0.7"/>
   </g>
   <g id="patch_26">
    <path d="M 175.352036 42573.291854 
L 178.894206 42573.291854 
L 178.894206 92.844051 
L 175.352036 92.844051 
z
" clip-path="url(#pd64d3640c2)" style="fill: #3366cc; opacity: 0.7"/>
   </g>
   <g id="patch_27">
    <path d="M 179.779749 42573.291854 
L 183.321919 42573.291854 
L 183.321919 93.28023 
L 179.779749 93.28023 
z
" clip-path="url(#pd64d3640c2)" style="fill: #3366cc; opacity: 0.7"/>
   </g>
   <g id="patch_28">
    <path d="M 184.207462 42573.291854 
L 187.749633 42573.291854 
L 187.749633 92.822892 
L 184.207462 92.822892 
z
" clip-path="url(#pd64d3640c2)" style="fill: #3366cc; opacity: 0.7"/>
   </g>
   <g id="patch_29">
    <path d="M 188.635175 42573.291854 
L 192.177346 42573.291854 
L 192.177346 110.178668 
L 188.635175 110.178668 
z
" clip-path="url(#pd64d3640c2)" style="fill: #3366cc; opacity: 0.7"/>
   </g>
   <g id="patch_30">
    <path d="M 193.062889 42573.291854 
L 196.605059 42573.291854 
L 196.605059 120.089407 
L 193.062889 120.089407 
z
" clip-path="url(#pd64d3640c2)" style="fill: #3366cc; opacity: 0.7"/>
   </g>
   <g id="patch_31">
    <path d="M 197.490602 42573.291854 
L 201.032772 42573.291854 
L 201.032772 123.85794 
L 197.490602 123.85794 
z
" clip-path="url(#pd64d3640c2)" style="fill: #3366cc; opacity: 0.7"/>
   </g>
   <g id="patch_32">
    <path d="M 201.918315 42573.291854 
L 205.460486 42573.291854 
L 205.460486 122.282117 
L 201.918315 122.282117 
z
" clip-path="url(#pd64d3640c2)" style="fill: #3366cc; opacity: 0.7"/>
   </g>
   <g id="patch_33">
    <path d="M 206.346028 42573.291854 
L 209.888199 42573.291854 
L 209.888199 121.642376 
L 206.346028 121.642376 
z
" clip-path="url(#pd64d3640c2)" style="fill: #3366cc; opacity: 0.7"/>
   </g>
   <g id="patch_34">
    <path d="M 210.773742 42573.291854 
L 214.315912 42573.291854 
L 214.315912 121.564656 
L 210.773742 121.564656 
z
" clip-path="url(#pd64d3640c2)" style="fill: #3366cc; opacity: 0.7"/>
   </g>
   <g id="patch_35">
    <path d="M 215.201455 42573.291854 
L 218.743625 42573.291854 
L 218.743625 124.316983 
L 215.201455 124.316983 
z
" clip-path="url(#pd64d3640c2)" style="fill: #3366cc; opacity: 0.7"/>
   </g>
   <g id="patch_36">
    <path d="M 219.629168 42573.291854 
L 223.171339 42573.291854 
L 223.171339 125.108431 
L 219.629168 125.108431 
z
" clip-path="url(#pd64d3640c2)" style="fill: #3366cc; opacity: 0.7"/>
   </g>
   <g id="patch_37">
    <path d="M 224.056881 42573.291854 
L 227.599052 42573.291854 
L 227.599052 126.504521 
L 224.056881 126.504521 
z
" clip-path="url(#pd64d3640c2)" style="fill: #3366cc; opacity: 0.7"/>
   </g>
   <g id="patch_38">
    <path d="M 228.484595 42573.291854 
L 232.026765 42573.291854 
L 232.026765 124.9508 
L 228.484595 124.9508 
z
" clip-path="url(#pd64d3640c2)" style="fill: #3366cc; opacity: 0.7"/>
   </g>
   <g id="patch_39">
    <path d="M 232.912308 42573.291854 
L 236.454478 42573.291854 
L 236.454478 124.181363 
L 232.912308 124.181363 
z
" clip-path="url(#pd64d3640c2)" style="fill: #3366cc; opacity: 0.7"/>
   </g>
   <g id="patch_40">
    <path d="M 237.340021 42573.291854 
L 240.882192 42573.291854 
L 240.882192 123.605996 
L 237.340021 123.605996 
z
" clip-path="url(#pd64d3640c2)" style="fill: #3366cc; opacity: 0.7"/>
   </g>
   <g id="patch_41">
    <path d="M 241.767734 42573.291854 
L 245.309905 42573.291854 
L 245.309905 124.39916 
L 241.767734 124.39916 
z
" clip-path="url(#pd64d3640c2)" style="fill: #3366cc; opacity: 0.7"/>
   </g>
   <g id="patch_42">
    <path d="M 246.195448 42573.291854 
L 249.737618 42573.291854 
L 249.737618 124.939501 
L 246.195448 124.939501 
z
" clip-path="url(#pd64d3640c2)" style="fill: #3366cc; opacity: 0.7"/>
   </g>
   <g id="patch_43">
    <path d="M 250.623161 42573.291854 
L 254.165332 42573.291854 
L 254.165332 123.455687 
L 250.623161 123.455687 
z
" clip-path="url(#pd64d3640c2)" style="fill: #3366cc; opacity: 0.7"/>
   </g>
   <g id="patch_44">
    <path d="M 255.050874 42573.291854 
L 258.593045 42573.291854 
L 258.593045 124.126957 
L 255.050874 124.126957 
z
" clip-path="url(#pd64d3640c2)" style="fill: #3366cc; opacity: 0.7"/>
   </g>
   <g id="patch_45">
    <path d="M 259.478587 42573.291854 
L 263.020758 42573.291854 
L 263.020758 126.939041 
L 259.478587 126.939041 
z
" clip-path="url(#pd64d3640c2)" style="fill: #3366cc; opacity: 0.7"/>
   </g>
   <g id="patch_46">
    <path d="M 263.906301 42573.291854 
L 267.448471 42573.291854 
L 267.448471 124.055493 
L 263.906301 124.055493 
z
" clip-path="url(#pd64d3640c2)" style="fill: #3366cc; opacity: 0.7"/>
   </g>
   <g id="patch_47">
    <path d="M 268.334014 42573.291854 
L 271.876185 42573.291854 
L 271.876185 122.451516 
L 268.334014 122.451516 
z
" clip-path="url(#pd64d3640c2)" style="fill: #3366cc; opacity: 0.7"/>
   </g>
   <g id="patch_48">
    <path d="M 272.761727 42573.291854 
L 276.303898 42573.291854 
L 276.303898 123.657809 
L 272.761727 123.657809 
z
" clip-path="url(#pd64d3640c2)" style="fill: #3366cc; opacity: 0.7"/>
   </g>
   <g id="patch_49">
    <path d="M 277.18944 42573.291854 
L 280.731611 42573.291854 
L 280.731611 123.314412 
L 277.18944 123.314412 
z
" clip-path="url(#pd64d3640c2)" style="fill: #3366cc; opacity: 0.7"/>
   </g>
   <g id="patch_50">
    <path d="M 281.617154 42573.291854 
L 285.159324 42573.291854 
L 285.159324 124.444063 
L 281.617154 124.444063 
z
" clip-path="url(#pd64d3640c2)" style="fill: #3366cc; opacity: 0.7"/>
   </g>
   <g id="patch_51">
    <path d="M 286.044867 42573.291854 
L 289.587038 42573.291854 
L 289.587038 123.74171 
L 286.044867 123.74171 
z
" clip-path="url(#pd64d3640c2)" style="fill: #3366cc; opacity: 0.7"/>
   </g>
   <g id="patch_52">
    <path d="M 290.47258 42573.291854 
L 294.014751 42573.291854 
L 294.014751 124.015885 
L 290.47258 124.015885 
z
" clip-path="url(#pd64d3640c2)" style="fill: #3366cc; opacity: 0.7"/>
   </g>
   <g id="patch_53">
    <path d="M 294.900293 42573.291854 
L 298.442464 42573.291854 
L 298.442464 124.548616 
L 294.900293 124.548616 
z
" clip-path="url(#pd64d3640c2)" style="fill: #3366cc; opacity: 0.7"/>
   </g>
   <g id="patch_54">
    <path d="M 299.328007 42573.291854 
L 302.870177 42573.291854 
L 302.870177 129.038829 
L 299.328007 129.038829 
z
" clip-path="url(#pd64d3640c2)" style="fill: #3366cc; opacity: 0.7"/>
   </g>
   <g id="patch_55">
    <path d="M 303.75572 42573.291854 
L 307.297891 42573.291854 
L 307.297891 125.775057 
L 303.75572 125.775057 
z
" clip-path="url(#pd64d3640c2)" style="fill: #3366cc; opacity: 0.7"/>
   </g>
   <g id="patch_56">
    <path d="M 308.183433 42573.291854 
L 311.725604 42573.291854 
L 311.725604 122.018695 
L 308.183433 122.018695 
z
" clip-path="url(#pd64d3640c2)" style="fill: #3366cc; opacity: 0.7"/>
   </g>
   <g id="patch_57">
    <path d="M 312.611147 42573.291854 
L 316.153317 42573.291854 
L 316.153317 131.215302 
L 312.611147 131.215302 
z
" clip-path="url(#pd64d3640c2)" style="fill: #3366cc; opacity: 0.7"/>
   </g>
   <g id="patch_58">
    <path d="M 317.03886 42573.291854 
L 320.58103 42573.291854 
L 320.58103 157.820845 
L 317.03886 157.820845 
z
" clip-path="url(#pd64d3640c2)" style="fill: #3366cc; opacity: 0.7"/>
   </g>
   <g id="patch_59">
    <path d="M 321.466573 42573.291854 
L 325.008744 42573.291854 
L 325.008744 157.700605 
L 321.466573 157.700605 
z
" clip-path="url(#pd64d3640c2)" style="fill: #3366cc; opacity: 0.7"/>
   </g>
   <g id="patch_60">
    <path d="M 325.894286 42573.291854 
L 329.436457 42573.291854 
L 329.436457 155.393565 
L 325.894286 155.393565 
z
" clip-path="url(#pd64d3640c2)" style="fill: #3366cc; opacity: 0.7"/>
   </g>
   <g id="patch_61">
    <path d="M 330.322 42573.291854 
L 333.86417 42573.291854 
L 333.86417 96.846315 
L 330.322 96.846315 
z
" clip-path="url(#pd64d3640c2)" style="fill: #3366cc; opacity: 0.7"/>
   </g>
   <g id="patch_62">
    <path d="M 334.749713 42573.291854 
L 338.291883 42573.291854 
L 338.291883 121.070568 
L 334.749713 121.070568 
z
" clip-path="url(#pd64d3640c2)" style="fill: #3366cc; opacity: 0.7"/>
   </g>
   <g id="patch_63">
    <path d="M 339.177426 42573.291854 
L 342.719597 42573.291854 
L 342.719597 122.407004 
L 339.177426 122.407004 
z
" clip-path="url(#pd64d3640c2)" style="fill: #3366cc; opacity: 0.7"/>
   </g>
   <g id="patch_64">
    <path d="M 343.605139 42573.291854 
L 347.14731 42573.291854 
L 347.14731 124.376974 
L 343.605139 124.376974 
z
" clip-path="url(#pd64d3640c2)" style="fill: #3366cc; opacity: 0.7"/>
   </g>
   <g id="patch_65">
    <path d="M 348.032853 42573.291854 
L 351.575023 42573.291854 
L 351.575023 121.568371 
L 348.032853 121.568371 
z
" clip-path="url(#pd64d3640c2)" style="fill: #3366cc; opacity: 0.7"/>
   </g>
   <g id="patch_66">
    <path d="M 352.460566 42573.291854 
L 356.002736 42573.291854 
L 356.002736 123.928836 
L 352.460566 123.928836 
z
" clip-path="url(#pd64d3640c2)" style="fill: #3366cc; opacity: 0.7"/>
   </g>
   <g id="patch_67">
    <path d="M 356.888279 42573.291854 
L 360.43045 42573.291854 
L 360.43045 120.991066 
L 356.888279 120.991066 
z
" clip-path="url(#pd64d3640c2)" style="fill: #3366cc; opacity: 0.7"/>
   </g>
   <g id="patch_68">
    <path d="M 361.315992 42573.291854 
L 364.858163 42573.291854 
L 364.858163 121.50271 
L 361.315992 121.50271 
z
" clip-path="url(#pd64d3640c2)" style="fill: #3366cc; opacity: 0.7"/>
   </g>
   <g id="patch_69">
    <path d="M 365.743706 42573.291854 
L 369.285876 42573.291854 
L 369.285876 123.513628 
L 365.743706 123.513628 
z
" clip-path="url(#pd64d3640c2)" style="fill: #3366cc; opacity: 0.7"/>
   </g>
   <g id="patch_70">
    <path d="M 370.171419 42573.291854 
L 373.713589 42573.291854 
L 373.713589 121.772471 
L 370.171419 121.772471 
z
" clip-path="url(#pd64d3640c2)" style="fill: #3366cc; opacity: 0.7"/>
   </g>
   <g id="patch_71">
    <path d="M 374.599132 42573.291854 
L 378.141303 42573.291854 
L 378.141303 123.424323 
L 374.599132 123.424323 
z
" clip-path="url(#pd64d3640c2)" style="fill: #3366cc; opacity: 0.7"/>
   </g>
   <g id="patch_72">
    <path d="M 379.026845 42573.291854 
L 382.569016 42573.291854 
L 382.569016 123.377548 
L 379.026845 123.377548 
z
" clip-path="url(#pd64d3640c2)" style="fill: #3366cc; opacity: 0.7"/>
   </g>
   <g id="patch_73">
    <path d="M 383.454559 42573.291854 
L 386.996729 42573.291854 
L 386.996729 123.528276 
L 383.454559 123.528276 
z
" clip-path="url(#pd64d3640c2)" style="fill: #3366cc; opacity: 0.7"/>
   </g>
   <g id="patch_74">
    <path d="M 387.882272 42573.291854 
L 391.424442 42573.291854 
L 391.424442 121.827246 
L 387.882272 121.827246 
z
" clip-path="url(#pd64d3640c2)" style="fill: #3366cc; opacity: 0.7"/>
   </g>
   <g id="patch_75">
    <path d="M 392.309985 42573.291854 
L 395.852156 42573.291854 
L 395.852156 119.832975 
L 392.309985 119.832975 
z
" clip-path="url(#pd64d3640c2)" style="fill: #3366cc; opacity: 0.7"/>
   </g>
   <g id="patch_76">
    <path d="M 396.737698 42573.291854 
L 400.279869 42573.291854 
L 400.279869 121.854919 
L 396.737698 121.854919 
z
" clip-path="url(#pd64d3640c2)" style="fill: #3366cc; opacity: 0.7"/>
   </g>
   <g id="patch_77">
    <path d="M 401.165412 42573.291854 
L 404.707582 42573.291854 
L 404.707582 125.397458 
L 401.165412 125.397458 
z
" clip-path="url(#pd64d3640c2)" style="fill: #3366cc; opacity: 0.7"/>
   </g>
   <g id="patch_78">
    <path d="M 405.593125 42573.291854 
L 409.135295 42573.291854 
L 409.135295 149.297875 
L 405.593125 149.297875 
z
" clip-path="url(#pd64d3640c2)" style="fill: #3366cc; opacity: 0.7"/>
   </g>
   <g id="patch_79">
    <path d="M 410.020838 42573.291854 
L 413.563009 42573.291854 
L 413.563009 147.382358 
L 410.020838 147.382358 
z
" clip-path="url(#pd64d3640c2)" style="fill: #3366cc; opacity: 0.7"/>
   </g>
   <g id="patch_80">
    <path d="M 414.448551 42573.291854 
L 417.990722 42573.291854 
L 417.990722 147.87351 
L 414.448551 147.87351 
z
" clip-path="url(#pd64d3640c2)" style="fill: #3366cc; opacity: 0.7"/>
   </g>
   <g id="patch_81">
    <path d="M 418.876265 42573.291854 
L 422.418435 42573.291854 
L 422.418435 149.36221 
L 418.876265 149.36221 
z
" clip-path="url(#pd64d3640c2)" style="fill: #3366cc; opacity: 0.7"/>
   </g>
   <g id="patch_82">
    <path d="M 423.303978 42573.291854 
L 426.846149 42573.291854 
L 426.846149 150.064273 
L 423.303978 150.064273 
z
" clip-path="url(#pd64d3640c2)" style="fill: #3366cc; opacity: 0.7"/>
   </g>
   <g id="patch_83">
    <path d="M 427.731691 42573.291854 
L 431.273862 42573.291854 
L 431.273862 151.892321 
L 427.731691 151.892321 
z
" clip-path="url(#pd64d3640c2)" style="fill: #3366cc; opacity: 0.7"/>
   </g>
   <g id="patch_84">
    <path d="M 432.159404 42573.291854 
L 435.701575 42573.291854 
L 435.701575 145.291383 
L 432.159404 145.291383 
z
" clip-path="url(#pd64d3640c2)" style="fill: #3366cc; opacity: 0.7"/>
   </g>
   <g id="patch_85">
    <path d="M 436.587118 42573.291854 
L 440.129288 42573.291854 
L 440.129288 150.018668 
L 436.587118 150.018668 
z
" clip-path="url(#pd64d3640c2)" style="fill: #3366cc; opacity: 0.7"/>
   </g>
   <g id="patch_86">
    <path d="M 441.014831 42573.291854 
L 444.557002 42573.291854 
L 444.557002 151.224531 
L 441.014831 151.224531 
z
" clip-path="url(#pd64d3640c2)" style="fill: #3366cc; opacity: 0.7"/>
   </g>
   <g id="patch_87">
    <path d="M 445.442544 42573.291854 
L 448.984715 42573.291854 
L 448.984715 154.47211 
L 445.442544 154.47211 
z
" clip-path="url(#pd64d3640c2)" style="fill: #3366cc; opacity: 0.7"/>
   </g>
   <g id="patch_88">
    <path d="M 449.870257 42573.291854 
L 453.412428 42573.291854 
L 453.412428 150.260474 
L 449.870257 150.260474 
z
" clip-path="url(#pd64d3640c2)" style="fill: #3366cc; opacity: 0.7"/>
   </g>
   <g id="patch_89">
    <path d="M 454.297971 42573.291854 
L 457.840141 42573.291854 
L 457.840141 148.249816 
L 454.297971 148.249816 
z
" clip-path="url(#pd64d3640c2)" style="fill: #3366cc; opacity: 0.7"/>
   </g>
   <g id="patch_90">
    <path d="M 458.725684 42573.291854 
L 462.267855 42573.291854 
L 462.267855 154.767632 
L 458.725684 154.767632 
z
" clip-path="url(#pd64d3640c2)" style="fill: #3366cc; opacity: 0.7"/>
   </g>
   <g id="patch_91">
    <path d="M 463.153397 42573.291854 
L 466.695568 42573.291854 
L 466.695568 153.888052 
L 463.153397 153.888052 
z
" clip-path="url(#pd64d3640c2)" style="fill: #3366cc; opacity: 0.7"/>
   </g>
   <g id="patch_92">
    <path d="M 467.58111 42573.291854 
L 471.123281 42573.291854 
L 471.123281 153.685145 
L 467.58111 153.685145 
z
" clip-path="url(#pd64d3640c2)" style="fill: #3366cc; opacity: 0.7"/>
   </g>
   <g id="patch_93">
    <path d="M 472.008824 42573.291854 
L 475.550994 42573.291854 
L 475.550994 154.506336 
L 472.008824 154.506336 
z
" clip-path="url(#pd64d3640c2)" style="fill: #3366cc; opacity: 0.7"/>
   </g>
   <g id="patch_94">
    <path d="M 53.412813 164.13811 
L 53.412813 25.158281 
" style="fill: none; stroke: #000000; stroke-width: 0.6; stroke-linejoin: miter; stroke-linecap: square"/>
   </g>
   <g id="patch_95">
    <path d="M 53.412812 164.13811 
L 495.652812 164.13811 
" style="fill: none; stroke: #000000; stroke-width: 0.6; stroke-linejoin: miter; stroke-linecap: square"/>
   </g>
   <g id="line2d_46">
    <path d="M 75.285716 31.475546 
L 79.713429 31.475546 
L 84.141142 31.475546 
L 88.568856 31.475546 
L 92.996569 31.475546 
L 97.424282 31.475546 
L 101.851996 31.475546 
L 106.279709 31.475546 
L 110.707422 31.475546 
L 115.135135 31.475546 
L 119.562849 31.475546 
L 123.990562 31.475546 
L 128.418275 31.475546 
L 132.845988 31.475546 
L 137.273702 31.475546 
L 141.701415 31.475546 
L 146.129128 31.475546 
L 150.556841 31.475546 
L 154.984555 31.475546 
L 159.412268 31.475546 
L 163.839981 31.475546 
L 168.267694 31.475546 
L 172.695408 31.475546 
L 177.123121 31.475546 
L 181.550834 31.475546 
L 185.978547 31.475546 
L 190.406261 31.475546 
L 194.833974 31.475546 
L 199.261687 31.475546 
L 203.6894 31.475546 
L 208.117114 31.475546 
L 212.544827 31.475546 
L 216.97254 31.475546 
L 221.400253 31.475546 
L 225.827967 31.475546 
L 230.25568 31.475546 
L 234.683393 31.475546 
L 239.111106 31.475546 
L 243.53882 31.475546 
L 247.966533 31.475546 
L 252.394246 31.475546 
L 256.821959 31.475546 
L 261.249673 31.475546 
L 265.677386 31.475546 
L 270.105099 31.475546 
L 274.532812 31.475546 
L 278.960526 31.475546 
L 283.388239 31.475546 
L 287.815952 31.475546 
L 292.243666 31.475546 
L 296.671379 31.475546 
L 301.099092 31.475546 
L 305.526805 31.475546 
L 309.954519 31.475546 
L 314.382232 31.475546 
L 318.809945 31.475546 
L 323.237658 31.475546 
L 327.665372 31.475546 
L 332.093085 31.475546 
L 336.520798 31.475546 
L 340.948511 31.475546 
L 345.376225 31.475546 
L 349.803938 31.475546 
L 354.231651 31.475546 
L 358.659364 31.475546 
L 363.087078 31.475546 
L 367.514791 31.475546 
L 371.942504 31.475546 
L 376.370217 31.475546 
L 380.797931 31.475546 
L 385.225644 31.475546 
L 389.653357 31.475546 
L 394.08107 31.475546 
L 398.508784 31.475546 
L 402.936497 31.475546 
L 407.36421 31.475546 
L 411.791923 31.475546 
L 416.219637 31.475546 
L 420.64735 31.475546 
L 425.075063 31.475546 
L 429.502776 31.475546 
L 433.93049 31.475546 
L 438.358203 31.475546 
L 442.785916 31.475546 
L 447.213629 31.475546 
L 451.641343 31.475546 
L 456.069056 31.475546 
L 460.496769 31.475546 
L 464.924483 31.475546 
L 469.352196 31.475546 
L 473.779909 31.475546 
" clip-path="url(#pd64d3640c2)" style="fill: none; stroke-dasharray: 3.7,1.6; stroke-dashoffset: 0; stroke: #999999"/>
   </g>
   <g id="text_12">
    <!-- Avail  Throughput (MiB/s) -->
    <g transform="translate(196.702656 19.158281) scale(0.11 -0.11)">
     <defs>
      <path id="DejaVuSerif-41" d="M 1281 1691 
L 2994 1691 
L 2138 3909 
L 1281 1691 
z
M -38 0 
L -38 331 
L 372 331 
L 2034 4666 
L 2559 4666 
L 4225 331 
L 4684 331 
L 4684 0 
L 2988 0 
L 2988 331 
L 3506 331 
L 3116 1356 
L 1153 1356 
L 763 331 
L 1275 331 
L 1275 0 
L -38 0 
z
" transform="scale(0.015625)"/>
      <path id="DejaVuSerif-6c" d="M 1313 331 
L 1856 331 
L 1856 0 
L 184 0 
L 184 331 
L 738 331 
L 738 4531 
L 184 4531 
L 184 4863 
L 1313 4863 
L 1313 331 
z
" transform="scale(0.015625)"/>
      <path id="DejaVuSerif-2014" d="M 281 1906 
L 6119 1906 
L 6119 1491 
L 281 1491 
L 281 1906 
z
" transform="scale(0.015625)"/>
      <path id="DejaVuSerif-54" d="M 1222 0 
L 1222 331 
L 1819 331 
L 1819 4294 
L 447 4294 
L 447 3566 
L 63 3566 
L 63 4666 
L 4206 4666 
L 4206 3566 
L 3822 3566 
L 3822 4294 
L 2450 4294 
L 2450 331 
L 3047 331 
L 3047 0 
L 1222 0 
z
" transform="scale(0.015625)"/>
      <path id="DejaVuSerif-68" d="M 263 0 
L 263 331 
L 781 331 
L 781 4531 
L 231 4531 
L 231 4863 
L 1356 4863 
L 1356 2731 
Q 1516 3069 1770 3241 
Q 2025 3413 2363 3413 
Q 2913 3413 3172 3097 
Q 3431 2781 3431 2113 
L 3431 331 
L 3944 331 
L 3944 0 
L 2356 0 
L 2356 331 
L 2853 331 
L 2853 1931 
Q 2853 2541 2704 2764 
Q 2556 2988 2175 2988 
Q 1775 2988 1565 2697 
Q 1356 2406 1356 1850 
L 1356 331 
L 1856 331 
L 1856 0 
L 263 0 
z
" transform="scale(0.015625)"/>
      <path id="DejaVuSerif-72" d="M 3059 3328 
L 3059 2497 
L 2728 2497 
Q 2713 2744 2591 2866 
Q 2469 2988 2234 2988 
Q 1809 2988 1582 2694 
Q 1356 2400 1356 1850 
L 1356 331 
L 2022 331 
L 2022 0 
L 263 0 
L 263 331 
L 781 331 
L 781 2994 
L 231 2994 
L 231 3322 
L 1356 3322 
L 1356 2731 
Q 1525 3078 1790 3245 
Q 2056 3413 2438 3413 
Q 2578 3413 2733 3391 
Q 2888 3369 3059 3328 
z
" transform="scale(0.015625)"/>
      <path id="DejaVuSerif-75" d="M 2266 3322 
L 3341 3322 
L 3341 331 
L 3884 331 
L 3884 0 
L 2766 0 
L 2766 588 
Q 2606 256 2353 82 
Q 2100 -91 1766 -91 
Q 1213 -91 952 223 
Q 691 538 691 1209 
L 691 2988 
L 172 2988 
L 172 3322 
L 1269 3322 
L 1269 1388 
Q 1269 781 1417 556 
Q 1566 331 1947 331 
Q 2347 331 2556 625 
Q 2766 919 2766 1478 
L 2766 2988 
L 2266 2988 
L 2266 3322 
z
" transform="scale(0.015625)"/>
      <path id="DejaVuSerif-67" d="M 3359 2988 
L 3359 72 
Q 3359 -644 2965 -1033 
Q 2572 -1422 1844 -1422 
Q 1516 -1422 1216 -1362 
Q 916 -1303 641 -1184 
L 641 -488 
L 941 -488 
Q 997 -813 1206 -963 
Q 1416 -1113 1806 -1113 
Q 2313 -1113 2548 -827 
Q 2784 -541 2784 72 
L 2784 519 
Q 2616 206 2355 57 
Q 2094 -91 1709 -91 
Q 1097 -91 708 395 
Q 319 881 319 1663 
Q 319 2444 706 2928 
Q 1094 3413 1709 3413 
Q 2094 3413 2355 3264 
Q 2616 3116 2784 2803 
L 2784 3322 
L 3909 3322 
L 3909 2988 
L 3359 2988 
z
M 2784 1825 
Q 2784 2422 2554 2737 
Q 2325 3053 1888 3053 
Q 1444 3053 1217 2703 
Q 991 2353 991 1663 
Q 991 975 1217 622 
Q 1444 269 1888 269 
Q 2325 269 2554 583 
Q 2784 897 2784 1497 
L 2784 1825 
z
" transform="scale(0.015625)"/>
      <path id="DejaVuSerif-70" d="M 1313 1825 
L 1313 1497 
Q 1313 897 1542 583 
Q 1772 269 2209 269 
Q 2650 269 2876 622 
Q 3103 975 3103 1663 
Q 3103 2353 2876 2703 
Q 2650 3053 2209 3053 
Q 1772 3053 1542 2737 
Q 1313 2422 1313 1825 
z
M 738 2988 
L 184 2988 
L 184 3322 
L 1313 3322 
L 1313 2803 
Q 1481 3116 1742 3264 
Q 2003 3413 2388 3413 
Q 3000 3413 3387 2928 
Q 3775 2444 3775 1663 
Q 3775 881 3387 395 
Q 3000 -91 2388 -91 
Q 2003 -91 1742 57 
Q 1481 206 1313 519 
L 1313 -997 
L 1856 -997 
L 1856 -1331 
L 184 -1331 
L 184 -997 
L 738 -997 
L 738 2988 
z
" transform="scale(0.015625)"/>
      <path id="DejaVuSerif-74" d="M 691 2988 
L 184 2988 
L 184 3322 
L 691 3322 
L 691 4353 
L 1269 4353 
L 1269 3322 
L 2350 3322 
L 2350 2988 
L 1269 2988 
L 1269 878 
Q 1269 456 1350 337 
Q 1431 219 1650 219 
Q 1875 219 1978 351 
Q 2081 484 2088 781 
L 2522 781 
Q 2497 328 2275 118 
Q 2053 -91 1600 -91 
Q 1103 -91 897 129 
Q 691 350 691 878 
L 691 2988 
z
" transform="scale(0.015625)"/>
      <path id="DejaVuSerif-28" d="M 2041 -997 
Q 1281 -656 893 83 
Q 506 822 506 1931 
Q 506 3044 893 3783 
Q 1281 4522 2041 4863 
L 2041 4556 
Q 1559 4225 1350 3623 
Q 1141 3022 1141 1931 
Q 1141 844 1350 242 
Q 1559 -359 2041 -691 
L 2041 -997 
z
" transform="scale(0.015625)"/>
      <path id="DejaVuSerif-29" d="M 453 -997 
L 453 -691 
Q 934 -359 1145 242 
Q 1356 844 1356 1931 
Q 1356 3022 1145 3623 
Q 934 4225 453 4556 
L 453 4863 
Q 1216 4522 1603 3783 
Q 1991 3044 1991 1931 
Q 1991 822 1603 83 
Q 1216 -656 453 -997 
z
" transform="scale(0.015625)"/>
     </defs>
     <use xlink:href="#DejaVuSerif-41"/>
     <use xlink:href="#DejaVuSerif-76" transform="translate(68.216797 0)"/>
     <use xlink:href="#DejaVuSerif-61" transform="translate(124.710938 0)"/>
     <use xlink:href="#DejaVuSerif-69" transform="translate(184.330078 0)"/>
     <use xlink:href="#DejaVuSerif-6c" transform="translate(216.3125 0)"/>
     <use xlink:href="#DejaVuSerif-20" transform="translate(248.294922 0)"/>
     <use xlink:href="#DejaVuSerif-2014" transform="translate(280.082031 0)"/>
     <use xlink:href="#DejaVuSerif-20" transform="translate(380.082031 0)"/>
     <use xlink:href="#DejaVuSerif-54" transform="translate(411.869141 0)"/>
     <use xlink:href="#DejaVuSerif-68" transform="translate(478.568359 0)"/>
     <use xlink:href="#DejaVuSerif-72" transform="translate(542.972656 0)"/>
     <use xlink:href="#DejaVuSerif-6f" transform="translate(590.775391 0)"/>
     <use xlink:href="#DejaVuSerif-75" transform="translate(650.980469 0)"/>
     <use xlink:href="#DejaVuSerif-67" transform="translate(715.384766 0)"/>
     <use xlink:href="#DejaVuSerif-68" transform="translate(779.398438 0)"/>
     <use xlink:href="#DejaVuSerif-70" transform="translate(843.802734 0)"/>
     <use xlink:href="#DejaVuSerif-75" transform="translate(907.816406 0)"/>
     <use xlink:href="#DejaVuSerif-74" transform="translate(972.220703 0)"/>
     <use xlink:href="#DejaVuSerif-20" transform="translate(1012.40625 0)"/>
     <use xlink:href="#DejaVuSerif-28" transform="translate(1044.193359 0)"/>
     <use xlink:href="#DejaVuSerif-4d" transform="translate(1083.207031 0)"/>
     <use xlink:href="#DejaVuSerif-69" transform="translate(1185.599609 0)"/>
     <use xlink:href="#DejaVuSerif-42" transform="translate(1217.582031 0)"/>
     <use xlink:href="#DejaVuSerif-2f" transform="translate(1291.068359 0)"/>
     <use xlink:href="#DejaVuSerif-73" transform="translate(1324.759766 0)"/>
     <use xlink:href="#DejaVuSerif-29" transform="translate(1376.078125 0)"/>
    </g>
   </g>
   <g id="line2d_47">
    <path d="M 75.285716 137.206119 
L 79.713429 129.972433 
L 84.141142 128.633764 
L 88.568856 128.369466 
L 92.996569 127.81909 
L 97.424282 128.033498 
L 101.851996 128.542145 
L 106.279709 128.275912 
L 110.707422 129.14296 
L 115.135135 129.667621 
L 119.562849 130.557067 
L 123.990562 131.691562 
L 128.418275 131.418555 
L 132.845988 132.074574 
L 137.273702 131.918239 
L 141.701415 133.152784 
L 146.129128 134.817781 
L 150.556841 135.880662 
L 154.984555 136.757968 
L 159.412268 127.159811 
L 163.839981 116.277954 
L 168.267694 109.614786 
L 172.695408 104.497129 
L 177.123121 100.373983 
L 181.550834 97.077146 
L 185.978547 94.254127 
L 190.406261 94.846665 
L 194.833974 97.157827 
L 199.261687 99.964967 
L 203.6894 103.242231 
L 208.117114 107.319231 
L 212.544827 112.372626 
L 216.97254 119.954273 
L 221.400253 122.620591 
L 225.827967 123.530585 
L 230.25568 123.680126 
L 234.683393 123.960343 
L 239.111106 124.264514 
L 243.53882 124.704143 
L 247.966533 124.793661 
L 252.394246 124.55243 
L 256.821959 124.229134 
L 261.249673 124.48995 
L 265.677386 124.471613 
L 270.105099 124.294126 
L 274.532812 124.18699 
L 278.960526 123.95546 
L 283.388239 124.097259 
L 287.815952 124.041818 
L 292.243666 123.659013 
L 296.671379 123.727178 
L 301.099092 124.595458 
L 305.526805 124.898585 
L 309.954519 124.690859 
L 314.382232 125.530487 
L 318.809945 128.157509 
L 323.237658 131.158386 
L 327.665372 134.508624 
L 332.093085 122.608435 
L 336.520798 121.974581 
L 340.948511 122.029426 
L 345.376225 121.323843 
L 349.803938 119.20982 
L 354.231651 117.568073 
L 358.659364 115.801829 
L 363.087078 122.220422 
L 367.514791 122.571649 
L 371.942504 122.478836 
L 376.370217 122.353231 
L 380.797931 122.61192 
L 385.225644 122.558128 
L 389.653357 122.685691 
L 394.08107 122.421457 
L 398.508784 122.189229 
L 402.936497 122.676565 
L 407.36421 124.693321 
L 411.791923 126.879463 
L 416.219637 129.355698 
L 420.64735 132.717202 
L 425.075063 137.57064 
L 429.502776 143.348869 
L 433.93049 148.633238 
L 438.358203 148.730919 
L 442.785916 149.271859 
L 447.213629 150.147335 
L 451.641343 150.278489 
L 456.069056 150.004994 
L 460.496769 150.351719 
L 464.924483 151.690363 
L 469.352196 152.217895 
L 473.779909 152.676832 
" clip-path="url(#pd64d3640c2)" style="fill: none; stroke: #cc3333; stroke-width: 1.5; stroke-linecap: square"/>
   </g>
   <g id="legend_1">
    <g id="patch_96">
     <path d="M 410.522812 67.013281 
L 490.052812 67.013281 
Q 491.652812 67.013281 491.652812 65.413281 
L 491.652812 30.758281 
Q 491.652812 29.158281 490.052812 29.158281 
L 410.522812 29.158281 
Q 408.922812 29.158281 408.922812 30.758281 
L 408.922812 65.413281 
Q 408.922812 67.013281 410.522812 67.013281 
z
" style="fill: #ffffff; opacity: 0.9; stroke: #cccccc; stroke-linejoin: miter"/>
    </g>
    <g id="line2d_48">
     <path d="M 412.122812 35.637031 
L 420.122812 35.637031 
L 428.122812 35.637031 
" style="fill: none; stroke: #cc3333; stroke-width: 1.5; stroke-linecap: square"/>
    </g>
    <g id="text_13">
     <!-- 7d avg -->
     <g transform="translate(434.522812 38.437031) scale(0.08 -0.08)">
      <defs>
       <path id="DejaVuSerif-64" d="M 3359 331 
L 3909 331 
L 3909 0 
L 2784 0 
L 2784 519 
Q 2616 206 2355 57 
Q 2094 -91 1709 -91 
Q 1097 -91 708 395 
Q 319 881 319 1663 
Q 319 2444 706 2928 
Q 1094 3413 1709 3413 
Q 2094 3413 2355 3264 
Q 2616 3116 2784 2803 
L 2784 4531 
L 2241 4531 
L 2241 4863 
L 3359 4863 
L 3359 331 
z
M 2784 1497 
L 2784 1825 
Q 2784 2422 2554 2737 
Q 2325 3053 1888 3053 
Q 1444 3053 1217 2703 
Q 991 2353 991 1663 
Q 991 975 1217 622 
Q 1444 269 1888 269 
Q 2325 269 2554 583 
Q 2784 897 2784 1497 
z
" transform="scale(0.015625)"/>
      </defs>
      <use xlink:href="#DejaVuSerif-37"/>
      <use xlink:href="#DejaVuSerif-64" transform="translate(63.623047 0)"/>
      <use xlink:href="#DejaVuSerif-20" transform="translate(127.636719 0)"/>
      <use xlink:href="#DejaVuSerif-61" transform="translate(159.423828 0)"/>
      <use xlink:href="#DejaVuSerif-76" transform="translate(219.042969 0)"/>
      <use xlink:href="#DejaVuSerif-67" transform="translate(275.537109 0)"/>
     </g>
    </g>
    <g id="line2d_49">
     <path d="M 412.122812 47.493281 
L 420.122812 47.493281 
L 428.122812 47.493281 
" style="fill: none; stroke-dasharray: 3.7,1.6; stroke-dashoffset: 0; stroke: #999999"/>
    </g>
    <g id="text_14">
     <!-- Max capacity -->
     <g transform="translate(434.522812 50.293281) scale(0.08 -0.08)">
      <defs>
       <path id="DejaVuSerif-78" d="M 1863 2028 
L 2559 2988 
L 2113 2988 
L 2113 3322 
L 3391 3322 
L 3391 2988 
L 2950 2988 
L 2059 1759 
L 3097 331 
L 3531 331 
L 3531 0 
L 1997 0 
L 1997 331 
L 2419 331 
L 1697 1325 
L 972 331 
L 1403 331 
L 1403 0 
L 141 0 
L 141 331 
L 581 331 
L 1497 1594 
L 488 2988 
L 78 2988 
L 78 3322 
L 1563 3322 
L 1563 2988 
L 1166 2988 
L 1863 2028 
z
" transform="scale(0.015625)"/>
       <path id="DejaVuSerif-79" d="M 1381 -609 
L 1600 -56 
L 359 2988 
L -19 2988 
L -19 3322 
L 1509 3322 
L 1509 2988 
L 978 2988 
L 1913 703 
L 2847 2988 
L 2350 2988 
L 2350 3322 
L 3597 3322 
L 3597 2988 
L 3225 2988 
L 1703 -750 
Q 1547 -1138 1356 -1280 
Q 1166 -1422 819 -1422 
Q 672 -1422 517 -1397 
Q 363 -1372 206 -1325 
L 206 -691 
L 500 -691 
Q 519 -903 608 -995 
Q 697 -1088 884 -1088 
Q 1056 -1088 1161 -992 
Q 1266 -897 1381 -609 
z
" transform="scale(0.015625)"/>
      </defs>
      <use xlink:href="#DejaVuSerif-4d"/>
      <use xlink:href="#DejaVuSerif-61" transform="translate(102.392578 0)"/>
      <use xlink:href="#DejaVuSerif-78" transform="translate(162.011719 0)"/>
      <use xlink:href="#DejaVuSerif-20" transform="translate(218.408203 0)"/>
      <use xlink:href="#DejaVuSerif-63" transform="translate(250.195312 0)"/>
      <use xlink:href="#DejaVuSerif-61" transform="translate(306.201172 0)"/>
      <use xlink:href="#DejaVuSerif-70" transform="translate(365.820312 0)"/>
      <use xlink:href="#DejaVuSerif-61" transform="translate(429.833984 0)"/>
      <use xlink:href="#DejaVuSerif-63" transform="translate(489.453125 0)"/>
      <use xlink:href="#DejaVuSerif-69" transform="translate(545.458984 0)"/>
      <use xlink:href="#DejaVuSerif-74" transform="translate(577.441406 0)"/>
      <use xlink:href="#DejaVuSerif-79" transform="translate(617.626953 0)"/>
     </g>
    </g>
    <g id="patch_97">
     <path d="M 412.122812 62.149531 
L 428.122812 62.149531 
L 428.122812 56.549531 
L 412.122812 56.549531 
z
" style="fill: #3366cc; opacity: 0.7"/>
    </g>
    <g id="text_15">
     <!-- Actual -->
     <g transform="translate(434.522812 62.149531) scale(0.08 -0.08)">
      <use xlink:href="#DejaVuSerif-41"/>
      <use xlink:href="#DejaVuSerif-63" transform="translate(72.216797 0)"/>
      <use xlink:href="#DejaVuSerif-74" transform="translate(128.222656 0)"/>
      <use xlink:href="#DejaVuSerif-75" transform="translate(168.408203 0)"/>
      <use xlink:href="#DejaVuSerif-61" transform="translate(232.8125 0)"/>
      <use xlink:href="#DejaVuSerif-6c" transform="translate(292.431641 0)"/>
     </g>
    </g>
   </g>
  </g>
 </g>
 <defs>
  <clipPath id="pd64d3640c2">
   <rect x="53.412813" y="25.158281" width="442.24" height="138.979829"/>
  </clipPath>
 </defs>
</svg>
