<?xml version="1.0" encoding="utf-8" standalone="no"?>
<!DOCTYPE svg PUBLIC "-//W3C//DTD SVG 1.1//EN"
  "http://www.w3.org/Graphics/SVG/1.1/DTD/svg11.dtd">
<svg xmlns:xlink="http://www.w3.org/1999/xlink" width="505.93375pt" height="203.619591pt" viewBox="0 0 505.93375 203.619591" xmlns="http://www.w3.org/2000/svg" version="1.1">
 <metadata>
  <rdf:RDF xmlns:dc="http://purl.org/dc/elements/1.1/" xmlns:cc="http://creativecommons.org/ns#" xmlns:rdf="http://www.w3.org/1999/02/22-rdf-syntax-ns#">
   <cc:Work>
    <dc:type rdf:resource="http://purl.org/dc/dcmitype/StillImage"/>
    <dc:date>2026-02-16T20:22:37.144307</dc:date>
    <dc:format>image/svg+xml</dc:format>
    <dc:creator>
     <cc:Agent>
      <dc:title>Matplotlib v3.9.4, https://matplotlib.org/</dc:title>
     </cc:Agent>
    </dc:creator>
   </cc:Work>
  </rdf:RDF>
 </metadata>
 <defs>
  <style type="text/css">*{stroke-linejoin: round; stroke-linecap: butt}</style>
 </defs>
 <g id="figure_1">
  <g id="patch_1">
   <path d="M 0 203.619591 
L 505.93375 203.619591 
L 505.93375 0 
L 0 0 
z
" style="fill: #ffffff"/>
  </g>
  <g id="axes_1">
   <g id="patch_2">
    <path d="M 43.232813 164.585014 
L 495.13375 164.585014 
L 495.13375 25.158281 
L 43.232813 25.158281 
z
" style="fill: #ffffff"/>
   </g>
   <g id="PolyCollection_1">
    <defs>
     <path id="mccb9ae1e71" d="M 63.773764 -56.863488 
L 63.773764 -45.372155 
L 68.33842 -45.372155 
L 72.903076 -45.372155 
L 77.467732 -45.372155 
L 82.032388 -45.372155 
L 86.597044 -45.372155 
L 91.1617 -45.372155 
L 95.726356 -45.372155 
L 100.291012 -45.372155 
L 104.855668 -45.372155 
L 109.420324 -45.372155 
L 113.984979 -45.372155 
L 118.549635 -45.372155 
L 123.114291 -45.372155 
L 127.678947 -45.372155 
L 132.243603 -45.372155 
L 136.808259 -45.372155 
L 141.372915 -45.372155 
L 145.937571 -45.372155 
L 150.502227 -45.372155 
L 155.066883 -45.372155 
L 159.631539 -45.372155 
L 164.196195 -45.372155 
L 168.760851 -45.372155 
L 173.325507 -45.372155 
L 177.890163 -45.372155 
L 182.454818 -45.372155 
L 187.019474 -45.372155 
L 191.58413 -45.372155 
L 196.148786 -45.372155 
L 200.713442 -45.372155 
L 205.278098 -45.372155 
L 209.842754 -45.372155 
L 214.40741 -45.372155 
L 218.972066 -45.372155 
L 223.536722 -45.372155 
L 228.101378 -45.372155 
L 232.666034 -45.372155 
L 237.23069 -45.372155 
L 241.795346 -45.372155 
L 246.360002 -45.372155 
L 250.924658 -45.372155 
L 255.489313 -45.372155 
L 260.053969 -45.372155 
L 264.618625 -45.372155 
L 269.183281 -45.372155 
L 273.747937 -45.372155 
L 278.312593 -45.372155 
L 282.877249 -45.372155 
L 287.441905 -45.372155 
L 292.006561 -45.372155 
L 296.571217 -45.372155 
L 301.135873 -45.372155 
L 305.700529 -45.372155 
L 310.265185 -45.372155 
L 314.829841 -45.372155 
L 319.394497 -45.372155 
L 323.959152 -45.372155 
L 328.523808 -45.372155 
L 333.088464 -45.372155 
L 337.65312 -45.372155 
L 342.217776 -45.372155 
L 346.782432 -45.372155 
L 351.347088 -45.372155 
L 355.911744 -45.372155 
L 360.4764 -45.372155 
L 365.041056 -45.372155 
L 369.605712 -45.372155 
L 374.170368 -45.372155 
L 378.735024 -45.372155 
L 383.29968 -45.372155 
L 387.864336 -45.372155 
L 392.428991 -45.372155 
L 396.993647 -45.372155 
L 401.558303 -45.372155 
L 406.122959 -45.372155 
L 410.687615 -45.372155 
L 415.252271 -45.372155 
L 419.816927 -45.372155 
L 424.381583 -45.372155 
L 428.946239 -45.372155 
L 433.510895 -45.372155 
L 438.075551 -45.372155 
L 442.640207 -45.372155 
L 447.204863 -45.372155 
L 451.769519 -45.372155 
L 456.334175 -45.372155 
L 460.89883 -45.372155 
L 465.463486 -45.372155 
L 470.028142 -45.372155 
L 474.592798 -45.372155 
L 474.592798 -49.880116 
L 474.592798 -49.880116 
L 470.028142 -50.084861 
L 465.463486 -50.033422 
L 460.89883 -49.816852 
L 456.334175 -51.695527 
L 451.769519 -51.04391 
L 447.204863 -49.888469 
L 442.640207 -50.755737 
L 438.075551 -51.118578 
L 433.510895 -52.792836 
L 428.946239 -50.564752 
L 424.381583 -51.104421 
L 419.816927 -51.326282 
L 415.252271 -51.825552 
L 410.687615 -51.999289 
L 406.122959 -51.347037 
L 401.558303 -67.137293 
L 396.993647 -71.734093 
L 392.428991 -74.780714 
L 387.864336 -71.773582 
L 383.29968 -69.452871 
L 378.735024 -69.649997 
L 374.170368 -69.588651 
L 369.605712 -71.851917 
L 365.041056 -69.471957 
L 360.4764 -72.241117 
L 355.911744 -72.995079 
L 351.347088 -68.936753 
L 346.782432 -72.145861 
L 342.217776 -68.372432 
L 337.65312 -70.958521 
L 333.088464 -72.876551 
L 328.523808 -147.334837 
L 323.959152 -49.668892 
L 319.394497 -49.164827 
L 314.829841 -49.140241 
L 310.265185 -61.26119 
L 305.700529 -71.501598 
L 301.135873 -66.697273 
L 296.571217 -63.246243 
L 292.006561 -68.159888 
L 287.441905 -68.826064 
L 282.877249 -69.176472 
L 278.312593 -68.289121 
L 273.747937 -69.733045 
L 269.183281 -69.284743 
L 264.618625 -70.896993 
L 260.053969 -68.775871 
L 255.489313 -65.396067 
L 250.924658 -68.685581 
L 246.360002 -69.547604 
L 241.795346 -67.683156 
L 237.23069 -68.344848 
L 232.666034 -69.351853 
L 228.101378 -68.617075 
L 223.536722 -67.669525 
L 218.972066 -65.872255 
L 214.40741 -67.480224 
L 209.842754 -68.447186 
L 205.278098 -72.151241 
L 200.713442 -72.038903 
L 196.148786 -71.131941 
L 191.58413 -69.02729 
L 187.019474 -74.375631 
L 182.454818 -94.946614 
L 177.890163 -172.123731 
L 173.325507 -169.026751 
L 168.760851 -171.978748 
L 164.196195 -169.075462 
L 159.631539 -167.891651 
L 155.066883 -167.827407 
L 150.502227 -120.847435 
L 145.937571 -55.840516 
L 141.372915 -53.900317 
L 136.808259 -54.087625 
L 132.243603 -54.97846 
L 127.678947 -59.629279 
L 123.114291 -56.825021 
L 118.549635 -64.756869 
L 113.984979 -59.845486 
L 109.420324 -59.01407 
L 104.855668 -62.713336 
L 100.291012 -61.894834 
L 95.726356 -58.727678 
L 91.1617 -60.659995 
L 86.597044 -63.144372 
L 82.032388 -66.705278 
L 77.467732 -64.694401 
L 72.903076 -66.194418 
L 68.33842 -67.868625 
L 63.773764 -56.863488 
z
" style="stroke: #b3cde3; stroke-opacity: 0.6"/>
    </defs>
    <g clip-path="url(#p55dd70a755)">
     <use xlink:href="#mccb9ae1e71" x="0" y="203.619591" style="fill: #b3cde3; fill-opacity: 0.6; stroke: #b3cde3; stroke-opacity: 0.6"/>
    </g>
   </g>
   <g id="matplotlib.axis_1">
    <g id="xtick_1">
     <g id="line2d_1">
      <path d="M 72.903076 164.585014 
L 72.903076 25.158281 
" clip-path="url(#p55dd70a755)" style="fill: none; stroke: #b0b0b0; stroke-opacity: 0.25; stroke-width: 0.5; stroke-linecap: square"/>
     </g>
     <g id="line2d_2">
      <defs>
       <path id="mc374e5fe6d" d="M 0 0 
L 0 3.5 
" style="stroke: #000000; stroke-width: 0.8"/>
      </defs>
      <g>
       <use xlink:href="#mc374e5fe6d" x="72.903076" y="164.585014" style="stroke: #000000; stroke-width: 0.8"/>
      </g>
     </g>
     <g id="text_1">
      <!-- Nov 18 -->
      <g transform="translate(46.905585 191.378741) rotate(-30) scale(0.08 -0.08)">
       <defs>
        <path id="DejaVuSerif-4e" d="M 313 0 
L 313 331 
L 941 331 
L 941 4331 
L 313 4331 
L 313 4666 
L 1509 4666 
L 4306 984 
L 4306 4331 
L 3681 4331 
L 3681 4666 
L 5319 4666 
L 5319 4331 
L 4691 4331 
L 4691 -91 
L 4313 -91 
L 1325 3841 
L 1325 331 
L 1953 331 
L 1953 0 
L 313 0 
z
" transform="scale(0.015625)"/>
        <path id="DejaVuSerif-6f" d="M 1925 219 
Q 2388 219 2623 584 
Q 2859 950 2859 1663 
Q 2859 2375 2623 2739 
Q 2388 3103 1925 3103 
Q 1463 3103 1227 2739 
Q 991 2375 991 1663 
Q 991 950 1228 584 
Q 1466 219 1925 219 
z
M 1925 -91 
Q 1200 -91 759 389 
Q 319 869 319 1663 
Q 319 2456 758 2934 
Q 1197 3413 1925 3413 
Q 2653 3413 3092 2934 
Q 3531 2456 3531 1663 
Q 3531 869 3092 389 
Q 2653 -91 1925 -91 
z
" transform="scale(0.015625)"/>
        <path id="DejaVuSerif-76" d="M 1581 0 
L 359 2988 
L -19 2988 
L -19 3322 
L 1509 3322 
L 1509 2988 
L 978 2988 
L 1913 703 
L 2847 2988 
L 2350 2988 
L 2350 3322 
L 3597 3322 
L 3597 2988 
L 3225 2988 
L 2003 0 
L 1581 0 
z
" transform="scale(0.015625)"/>
        <path id="DejaVuSerif-20" transform="scale(0.015625)"/>
        <path id="DejaVuSerif-31" d="M 909 0 
L 909 331 
L 1722 331 
L 1722 4213 
L 781 3603 
L 781 4013 
L 1919 4750 
L 2350 4750 
L 2350 331 
L 3163 331 
L 3163 0 
L 909 0 
z
" transform="scale(0.015625)"/>
        <path id="DejaVuSerif-38" d="M 2981 1275 
Q 2981 1775 2732 2051 
Q 2484 2328 2034 2328 
Q 1584 2328 1336 2051 
Q 1088 1775 1088 1275 
Q 1088 772 1336 495 
Q 1584 219 2034 219 
Q 2484 219 2732 495 
Q 2981 772 2981 1275 
z
M 2853 3541 
Q 2853 3966 2637 4203 
Q 2422 4441 2034 4441 
Q 1650 4441 1433 4203 
Q 1216 3966 1216 3541 
Q 1216 3113 1433 2875 
Q 1650 2638 2034 2638 
Q 2422 2638 2637 2875 
Q 2853 3113 2853 3541 
z
M 2516 2484 
Q 3047 2413 3344 2092 
Q 3641 1772 3641 1275 
Q 3641 619 3225 264 
Q 2809 -91 2034 -91 
Q 1263 -91 845 264 
Q 428 619 428 1275 
Q 428 1772 725 2092 
Q 1022 2413 1556 2484 
Q 1084 2569 832 2842 
Q 581 3116 581 3541 
Q 581 4103 968 4426 
Q 1356 4750 2034 4750 
Q 2713 4750 3100 4426 
Q 3488 4103 3488 3541 
Q 3488 3116 3236 2842 
Q 2984 2569 2516 2484 
z
" transform="scale(0.015625)"/>
       </defs>
       <use xlink:href="#DejaVuSerif-4e"/>
       <use xlink:href="#DejaVuSerif-6f" x="87.5"/>
       <use xlink:href="#DejaVuSerif-76" x="147.705078"/>
       <use xlink:href="#DejaVuSerif-20" x="204.199219"/>
       <use xlink:href="#DejaVuSerif-31" x="235.986328"/>
       <use xlink:href="#DejaVuSerif-38" x="299.609375"/>
      </g>
     </g>
    </g>
    <g id="xtick_2">
     <g id="line2d_3">
      <path d="M 136.808259 164.585014 
L 136.808259 25.158281 
" clip-path="url(#p55dd70a755)" style="fill: none; stroke: #b0b0b0; stroke-opacity: 0.25; stroke-width: 0.5; stroke-linecap: square"/>
     </g>
     <g id="line2d_4">
      <g>
       <use xlink:href="#mc374e5fe6d" x="136.808259" y="164.585014" style="stroke: #000000; stroke-width: 0.8"/>
      </g>
     </g>
     <g id="text_2">
      <!-- Dec 02 -->
      <g transform="translate(111.423481 191.024991) rotate(-30) scale(0.08 -0.08)">
       <defs>
        <path id="DejaVuSerif-44" d="M 1581 331 
L 2163 331 
Q 3072 331 3558 850 
Q 4044 1369 4044 2338 
Q 4044 3306 3559 3818 
Q 3075 4331 2163 4331 
L 1581 4331 
L 1581 331 
z
M 353 0 
L 353 331 
L 947 331 
L 947 4331 
L 353 4331 
L 353 4666 
L 2209 4666 
Q 3416 4666 4089 4050 
Q 4763 3434 4763 2338 
Q 4763 1238 4088 619 
Q 3413 0 2209 0 
L 353 0 
z
" transform="scale(0.015625)"/>
        <path id="DejaVuSerif-65" d="M 3469 1600 
L 991 1600 
L 991 1575 
Q 991 903 1244 561 
Q 1497 219 1991 219 
Q 2369 219 2611 417 
Q 2853 616 2950 1006 
L 3413 1006 
Q 3275 459 2904 184 
Q 2534 -91 1931 -91 
Q 1203 -91 761 389 
Q 319 869 319 1663 
Q 319 2450 753 2931 
Q 1188 3413 1894 3413 
Q 2647 3413 3050 2948 
Q 3453 2484 3469 1600 
z
M 2791 1931 
Q 2772 2513 2545 2808 
Q 2319 3103 1894 3103 
Q 1497 3103 1269 2806 
Q 1041 2509 991 1931 
L 2791 1931 
z
" transform="scale(0.015625)"/>
        <path id="DejaVuSerif-63" d="M 3291 997 
Q 3169 466 2822 187 
Q 2475 -91 1925 -91 
Q 1200 -91 759 389 
Q 319 869 319 1663 
Q 319 2459 759 2936 
Q 1200 3413 1925 3413 
Q 2241 3413 2553 3339 
Q 2866 3266 3181 3116 
L 3181 2266 
L 2847 2266 
Q 2781 2703 2561 2903 
Q 2341 3103 1931 3103 
Q 1466 3103 1228 2742 
Q 991 2381 991 1663 
Q 991 944 1227 581 
Q 1463 219 1931 219 
Q 2303 219 2525 412 
Q 2747 606 2828 997 
L 3291 997 
z
" transform="scale(0.015625)"/>
        <path id="DejaVuSerif-30" d="M 2034 219 
Q 2513 219 2750 744 
Q 2988 1269 2988 2328 
Q 2988 3391 2750 3916 
Q 2513 4441 2034 4441 
Q 1556 4441 1318 3916 
Q 1081 3391 1081 2328 
Q 1081 1269 1318 744 
Q 1556 219 2034 219 
z
M 2034 -91 
Q 1275 -91 848 546 
Q 422 1184 422 2328 
Q 422 3475 848 4112 
Q 1275 4750 2034 4750 
Q 2797 4750 3222 4112 
Q 3647 3475 3647 2328 
Q 3647 1184 3222 546 
Q 2797 -91 2034 -91 
z
" transform="scale(0.015625)"/>
        <path id="DejaVuSerif-32" d="M 819 3553 
L 469 3553 
L 469 4384 
Q 803 4563 1142 4656 
Q 1481 4750 1806 4750 
Q 2534 4750 2956 4397 
Q 3378 4044 3378 3438 
Q 3378 2753 2422 1800 
Q 2347 1728 2309 1691 
L 1131 513 
L 3078 513 
L 3078 1088 
L 3444 1088 
L 3444 0 
L 434 0 
L 434 341 
L 1850 1753 
Q 2319 2222 2519 2614 
Q 2719 3006 2719 3438 
Q 2719 3909 2473 4175 
Q 2228 4441 1797 4441 
Q 1350 4441 1106 4219 
Q 863 3997 819 3553 
z
" transform="scale(0.015625)"/>
       </defs>
       <use xlink:href="#DejaVuSerif-44"/>
       <use xlink:href="#DejaVuSerif-65" x="80.175781"/>
       <use xlink:href="#DejaVuSerif-63" x="139.355469"/>
       <use xlink:href="#DejaVuSerif-20" x="195.361328"/>
       <use xlink:href="#DejaVuSerif-30" x="227.148438"/>
       <use xlink:href="#DejaVuSerif-32" x="290.771484"/>
      </g>
     </g>
    </g>
    <g id="xtick_3">
     <g id="line2d_5">
      <path d="M 200.713442 164.585014 
L 200.713442 25.158281 
" clip-path="url(#p55dd70a755)" style="fill: none; stroke: #b0b0b0; stroke-opacity: 0.25; stroke-width: 0.5; stroke-linecap: square"/>
     </g>
     <g id="line2d_6">
      <g>
       <use xlink:href="#mc374e5fe6d" x="200.713442" y="164.585014" style="stroke: #000000; stroke-width: 0.8"/>
      </g>
     </g>
     <g id="text_3">
      <!-- Dec 16 -->
      <g transform="translate(175.328665 191.024991) rotate(-30) scale(0.08 -0.08)">
       <defs>
        <path id="DejaVuSerif-36" d="M 2094 219 
Q 2534 219 2771 542 
Q 3009 866 3009 1472 
Q 3009 2078 2771 2401 
Q 2534 2725 2094 2725 
Q 1647 2725 1412 2412 
Q 1178 2100 1178 1509 
Q 1178 888 1415 553 
Q 1653 219 2094 219 
z
M 1075 2569 
Q 1288 2803 1556 2918 
Q 1825 3034 2163 3034 
Q 2859 3034 3264 2615 
Q 3669 2197 3669 1472 
Q 3669 763 3233 336 
Q 2797 -91 2069 -91 
Q 1278 -91 853 498 
Q 428 1088 428 2181 
Q 428 3406 931 4078 
Q 1434 4750 2350 4750 
Q 2597 4750 2869 4703 
Q 3141 4656 3425 4563 
L 3425 3794 
L 3072 3794 
Q 3034 4109 2831 4275 
Q 2628 4441 2284 4441 
Q 1678 4441 1381 3981 
Q 1084 3522 1075 2569 
z
" transform="scale(0.015625)"/>
       </defs>
       <use xlink:href="#DejaVuSerif-44"/>
       <use xlink:href="#DejaVuSerif-65" x="80.175781"/>
       <use xlink:href="#DejaVuSerif-63" x="139.355469"/>
       <use xlink:href="#DejaVuSerif-20" x="195.361328"/>
       <use xlink:href="#DejaVuSerif-31" x="227.148438"/>
       <use xlink:href="#DejaVuSerif-36" x="290.771484"/>
      </g>
     </g>
    </g>
    <g id="xtick_4">
     <g id="line2d_7">
      <path d="M 264.618625 164.585014 
L 264.618625 25.158281 
" clip-path="url(#p55dd70a755)" style="fill: none; stroke: #b0b0b0; stroke-opacity: 0.25; stroke-width: 0.5; stroke-linecap: square"/>
     </g>
     <g id="line2d_8">
      <g>
       <use xlink:href="#mc374e5fe6d" x="264.618625" y="164.585014" style="stroke: #000000; stroke-width: 0.8"/>
      </g>
     </g>
     <g id="text_4">
      <!-- Dec 30 -->
      <g transform="translate(239.233848 191.024991) rotate(-30) scale(0.08 -0.08)">
       <defs>
        <path id="DejaVuSerif-33" d="M 622 4469 
Q 988 4606 1323 4678 
Q 1659 4750 1953 4750 
Q 2638 4750 3022 4454 
Q 3406 4159 3406 3634 
Q 3406 3213 3140 2930 
Q 2875 2647 2388 2547 
Q 2963 2466 3280 2130 
Q 3597 1794 3597 1259 
Q 3597 606 3158 257 
Q 2719 -91 1894 -91 
Q 1528 -91 1179 -12 
Q 831 66 488 225 
L 488 1131 
L 838 1131 
Q 869 681 1141 450 
Q 1413 219 1906 219 
Q 2384 219 2661 495 
Q 2938 772 2938 1253 
Q 2938 1803 2653 2086 
Q 2369 2369 1819 2369 
L 1522 2369 
L 1522 2688 
L 1678 2688 
Q 2225 2688 2498 2914 
Q 2772 3141 2772 3597 
Q 2772 4006 2547 4223 
Q 2322 4441 1900 4441 
Q 1478 4441 1245 4241 
Q 1013 4041 972 3647 
L 622 3647 
L 622 4469 
z
" transform="scale(0.015625)"/>
       </defs>
       <use xlink:href="#DejaVuSerif-44"/>
       <use xlink:href="#DejaVuSerif-65" x="80.175781"/>
       <use xlink:href="#DejaVuSerif-63" x="139.355469"/>
       <use xlink:href="#DejaVuSerif-20" x="195.361328"/>
       <use xlink:href="#DejaVuSerif-33" x="227.148438"/>
       <use xlink:href="#DejaVuSerif-30" x="290.771484"/>
      </g>
     </g>
    </g>
    <g id="xtick_5">
     <g id="line2d_9">
      <path d="M 328.523808 164.585014 
L 328.523808 25.158281 
" clip-path="url(#p55dd70a755)" style="fill: none; stroke: #b0b0b0; stroke-opacity: 0.25; stroke-width: 0.5; stroke-linecap: square"/>
     </g>
     <g id="line2d_10">
      <g>
       <use xlink:href="#mc374e5fe6d" x="328.523808" y="164.585014" style="stroke: #000000; stroke-width: 0.8"/>
      </g>
     </g>
     <g id="text_5">
      <!-- Jan 13 -->
      <g transform="translate(305.303012 189.775616) rotate(-30) scale(0.08 -0.08)">
       <defs>
        <path id="DejaVuSerif-4a" d="M -538 -1119 
L -538 -384 
L -181 -384 
Q -172 -694 -34 -845 
Q 103 -997 378 -997 
Q 750 -997 897 -762 
Q 1044 -528 1044 153 
L 1044 4331 
L 319 4331 
L 319 4666 
L 2272 4666 
L 2272 4331 
L 1678 4331 
L 1678 128 
Q 1678 -644 1368 -987 
Q 1059 -1331 372 -1331 
Q 150 -1331 -79 -1278 
Q -309 -1225 -538 -1119 
z
" transform="scale(0.015625)"/>
        <path id="DejaVuSerif-61" d="M 2547 1044 
L 2547 1747 
L 1806 1747 
Q 1378 1747 1168 1562 
Q 959 1378 959 997 
Q 959 650 1171 447 
Q 1384 244 1747 244 
Q 2106 244 2326 466 
Q 2547 688 2547 1044 
z
M 3122 2075 
L 3122 331 
L 3634 331 
L 3634 0 
L 2547 0 
L 2547 359 
Q 2356 128 2106 18 
Q 1856 -91 1522 -91 
Q 969 -91 644 203 
Q 319 497 319 997 
Q 319 1513 691 1797 
Q 1063 2081 1741 2081 
L 2547 2081 
L 2547 2309 
Q 2547 2688 2317 2895 
Q 2088 3103 1672 3103 
Q 1328 3103 1125 2947 
Q 922 2791 872 2484 
L 575 2484 
L 575 3156 
Q 875 3284 1158 3348 
Q 1441 3413 1709 3413 
Q 2400 3413 2761 3070 
Q 3122 2728 3122 2075 
z
" transform="scale(0.015625)"/>
        <path id="DejaVuSerif-6e" d="M 263 0 
L 263 331 
L 781 331 
L 781 2988 
L 231 2988 
L 231 3322 
L 1356 3322 
L 1356 2731 
Q 1516 3069 1770 3241 
Q 2025 3413 2363 3413 
Q 2913 3413 3172 3097 
Q 3431 2781 3431 2113 
L 3431 331 
L 3944 331 
L 3944 0 
L 2356 0 
L 2356 331 
L 2853 331 
L 2853 1931 
Q 2853 2541 2703 2767 
Q 2553 2994 2175 2994 
Q 1775 2994 1565 2701 
Q 1356 2409 1356 1850 
L 1356 331 
L 1856 331 
L 1856 0 
L 263 0 
z
" transform="scale(0.015625)"/>
       </defs>
       <use xlink:href="#DejaVuSerif-4a"/>
       <use xlink:href="#DejaVuSerif-61" x="40.087891"/>
       <use xlink:href="#DejaVuSerif-6e" x="99.707031"/>
       <use xlink:href="#DejaVuSerif-20" x="164.111328"/>
       <use xlink:href="#DejaVuSerif-31" x="195.898438"/>
       <use xlink:href="#DejaVuSerif-33" x="259.521484"/>
      </g>
     </g>
    </g>
    <g id="xtick_6">
     <g id="line2d_11">
      <path d="M 392.428991 164.585014 
L 392.428991 25.158281 
" clip-path="url(#p55dd70a755)" style="fill: none; stroke: #b0b0b0; stroke-opacity: 0.25; stroke-width: 0.5; stroke-linecap: square"/>
     </g>
     <g id="line2d_12">
      <g>
       <use xlink:href="#mc374e5fe6d" x="392.428991" y="164.585014" style="stroke: #000000; stroke-width: 0.8"/>
      </g>
     </g>
     <g id="text_6">
      <!-- Jan 27 -->
      <g transform="translate(369.208195 189.775616) rotate(-30) scale(0.08 -0.08)">
       <defs>
        <path id="DejaVuSerif-37" d="M 3609 4347 
L 1784 0 
L 1319 0 
L 3059 4153 
L 903 4153 
L 903 3578 
L 538 3578 
L 538 4666 
L 3609 4666 
L 3609 4347 
z
" transform="scale(0.015625)"/>
       </defs>
       <use xlink:href="#DejaVuSerif-4a"/>
       <use xlink:href="#DejaVuSerif-61" x="40.087891"/>
       <use xlink:href="#DejaVuSerif-6e" x="99.707031"/>
       <use xlink:href="#DejaVuSerif-20" x="164.111328"/>
       <use xlink:href="#DejaVuSerif-32" x="195.898438"/>
       <use xlink:href="#DejaVuSerif-37" x="259.521484"/>
      </g>
     </g>
    </g>
    <g id="xtick_7">
     <g id="line2d_13">
      <path d="M 456.334175 164.585014 
L 456.334175 25.158281 
" clip-path="url(#p55dd70a755)" style="fill: none; stroke: #b0b0b0; stroke-opacity: 0.25; stroke-width: 0.5; stroke-linecap: square"/>
     </g>
     <g id="line2d_14">
      <g>
       <use xlink:href="#mc374e5fe6d" x="456.334175" y="164.585014" style="stroke: #000000; stroke-width: 0.8"/>
      </g>
     </g>
     <g id="text_7">
      <!-- Feb 10 -->
      <g transform="translate(431.522056 190.694366) rotate(-30) scale(0.08 -0.08)">
       <defs>
        <path id="DejaVuSerif-46" d="M 353 0 
L 353 331 
L 947 331 
L 947 4331 
L 353 4331 
L 353 4666 
L 4172 4666 
L 4172 3628 
L 3788 3628 
L 3788 4281 
L 1581 4281 
L 1581 2719 
L 3175 2719 
L 3175 3303 
L 3559 3303 
L 3559 1753 
L 3175 1753 
L 3175 2338 
L 1581 2338 
L 1581 331 
L 2328 331 
L 2328 0 
L 353 0 
z
" transform="scale(0.015625)"/>
        <path id="DejaVuSerif-62" d="M 738 331 
L 738 4531 
L 184 4531 
L 184 4863 
L 1313 4863 
L 1313 2803 
Q 1481 3116 1742 3264 
Q 2003 3413 2388 3413 
Q 3000 3413 3387 2928 
Q 3775 2444 3775 1663 
Q 3775 881 3387 395 
Q 3000 -91 2388 -91 
Q 2003 -91 1742 57 
Q 1481 206 1313 519 
L 1313 0 
L 184 0 
L 184 331 
L 738 331 
z
M 1313 1497 
Q 1313 897 1542 583 
Q 1772 269 2209 269 
Q 2650 269 2876 622 
Q 3103 975 3103 1663 
Q 3103 2353 2876 2703 
Q 2650 3053 2209 3053 
Q 1772 3053 1542 2737 
Q 1313 2422 1313 1825 
L 1313 1497 
z
" transform="scale(0.015625)"/>
       </defs>
       <use xlink:href="#DejaVuSerif-46"/>
       <use xlink:href="#DejaVuSerif-65" x="63.884766"/>
       <use xlink:href="#DejaVuSerif-62" x="123.064453"/>
       <use xlink:href="#DejaVuSerif-20" x="187.078125"/>
       <use xlink:href="#DejaVuSerif-31" x="218.865234"/>
       <use xlink:href="#DejaVuSerif-30" x="282.488281"/>
      </g>
     </g>
    </g>
   </g>
   <g id="matplotlib.axis_2">
    <g id="ytick_1">
     <g id="line2d_15">
      <path d="M 43.232813 158.247436 
L 495.13375 158.247436 
" clip-path="url(#p55dd70a755)" style="fill: none; stroke: #b0b0b0; stroke-opacity: 0.25; stroke-width: 0.5; stroke-linecap: square"/>
     </g>
     <g id="line2d_16">
      <defs>
       <path id="mbc46302407" d="M 0 0 
L -3.5 0 
" style="stroke: #000000; stroke-width: 0.8"/>
      </defs>
      <g>
       <use xlink:href="#mbc46302407" x="43.232813" y="158.247436" style="stroke: #000000; stroke-width: 0.8"/>
      </g>
     </g>
     <g id="text_8">
      <!-- 0.0 -->
      <g transform="translate(23.510313 161.286811) scale(0.08 -0.08)">
       <defs>
        <path id="DejaVuSerif-2e" d="M 603 325 
Q 603 500 722 622 
Q 841 744 1019 744 
Q 1191 744 1312 622 
Q 1434 500 1434 325 
Q 1434 153 1312 31 
Q 1191 -91 1019 -91 
Q 841 -91 722 29 
Q 603 150 603 325 
z
" transform="scale(0.015625)"/>
       </defs>
       <use xlink:href="#DejaVuSerif-30"/>
       <use xlink:href="#DejaVuSerif-2e" x="63.623047"/>
       <use xlink:href="#DejaVuSerif-30" x="95.410156"/>
      </g>
     </g>
    </g>
    <g id="ytick_2">
     <g id="line2d_17">
      <path d="M 43.232813 140.748909 
L 495.13375 140.748909 
" clip-path="url(#p55dd70a755)" style="fill: none; stroke: #b0b0b0; stroke-opacity: 0.25; stroke-width: 0.5; stroke-linecap: square"/>
     </g>
     <g id="line2d_18">
      <g>
       <use xlink:href="#mbc46302407" x="43.232813" y="140.748909" style="stroke: #000000; stroke-width: 0.8"/>
      </g>
     </g>
     <g id="text_9">
      <!-- 0.5 -->
      <g transform="translate(23.510313 143.788284) scale(0.08 -0.08)">
       <defs>
        <path id="DejaVuSerif-35" d="M 3219 4666 
L 3219 4153 
L 1081 4153 
L 1081 2816 
Q 1244 2928 1461 2984 
Q 1678 3041 1947 3041 
Q 2703 3041 3140 2622 
Q 3578 2203 3578 1478 
Q 3578 738 3136 323 
Q 2694 -91 1894 -91 
Q 1572 -91 1234 -12 
Q 897 66 544 225 
L 544 1131 
L 897 1131 
Q 925 688 1179 453 
Q 1434 219 1894 219 
Q 2388 219 2653 544 
Q 2919 869 2919 1478 
Q 2919 2084 2655 2407 
Q 2391 2731 1894 2731 
Q 1613 2731 1398 2631 
Q 1184 2531 1019 2322 
L 750 2322 
L 750 4666 
L 3219 4666 
z
" transform="scale(0.015625)"/>
       </defs>
       <use xlink:href="#DejaVuSerif-30"/>
       <use xlink:href="#DejaVuSerif-2e" x="63.623047"/>
       <use xlink:href="#DejaVuSerif-35" x="95.410156"/>
      </g>
     </g>
    </g>
    <g id="ytick_3">
     <g id="line2d_19">
      <path d="M 43.232813 123.250382 
L 495.13375 123.250382 
" clip-path="url(#p55dd70a755)" style="fill: none; stroke: #b0b0b0; stroke-opacity: 0.25; stroke-width: 0.5; stroke-linecap: square"/>
     </g>
     <g id="line2d_20">
      <g>
       <use xlink:href="#mbc46302407" x="43.232813" y="123.250382" style="stroke: #000000; stroke-width: 0.8"/>
      </g>
     </g>
     <g id="text_10">
      <!-- 1.0 -->
      <g transform="translate(23.510313 126.289757) scale(0.08 -0.08)">
       <use xlink:href="#DejaVuSerif-31"/>
       <use xlink:href="#DejaVuSerif-2e" x="63.623047"/>
       <use xlink:href="#DejaVuSerif-30" x="95.410156"/>
      </g>
     </g>
    </g>
    <g id="ytick_4">
     <g id="line2d_21">
      <path d="M 43.232813 105.751855 
L 495.13375 105.751855 
" clip-path="url(#p55dd70a755)" style="fill: none; stroke: #b0b0b0; stroke-opacity: 0.25; stroke-width: 0.5; stroke-linecap: square"/>
     </g>
     <g id="line2d_22">
      <g>
       <use xlink:href="#mbc46302407" x="43.232813" y="105.751855" style="stroke: #000000; stroke-width: 0.8"/>
      </g>
     </g>
     <g id="text_11">
      <!-- 1.5 -->
      <g transform="translate(23.510313 108.79123) scale(0.08 -0.08)">
       <use xlink:href="#DejaVuSerif-31"/>
       <use xlink:href="#DejaVuSerif-2e" x="63.623047"/>
       <use xlink:href="#DejaVuSerif-35" x="95.410156"/>
      </g>
     </g>
    </g>
    <g id="ytick_5">
     <g id="line2d_23">
      <path d="M 43.232813 88.253328 
L 495.13375 88.253328 
" clip-path="url(#p55dd70a755)" style="fill: none; stroke: #b0b0b0; stroke-opacity: 0.25; stroke-width: 0.5; stroke-linecap: square"/>
     </g>
     <g id="line2d_24">
      <g>
       <use xlink:href="#mbc46302407" x="43.232813" y="88.253328" style="stroke: #000000; stroke-width: 0.8"/>
      </g>
     </g>
     <g id="text_12">
      <!-- 2.0 -->
      <g transform="translate(23.510313 91.292703) scale(0.08 -0.08)">
       <use xlink:href="#DejaVuSerif-32"/>
       <use xlink:href="#DejaVuSerif-2e" x="63.623047"/>
       <use xlink:href="#DejaVuSerif-30" x="95.410156"/>
      </g>
     </g>
    </g>
    <g id="ytick_6">
     <g id="line2d_25">
      <path d="M 43.232813 70.754801 
L 495.13375 70.754801 
" clip-path="url(#p55dd70a755)" style="fill: none; stroke: #b0b0b0; stroke-opacity: 0.25; stroke-width: 0.5; stroke-linecap: square"/>
     </g>
     <g id="line2d_26">
      <g>
       <use xlink:href="#mbc46302407" x="43.232813" y="70.754801" style="stroke: #000000; stroke-width: 0.8"/>
      </g>
     </g>
     <g id="text_13">
      <!-- 2.5 -->
      <g transform="translate(23.510313 73.794176) scale(0.08 -0.08)">
       <use xlink:href="#DejaVuSerif-32"/>
       <use xlink:href="#DejaVuSerif-2e" x="63.623047"/>
       <use xlink:href="#DejaVuSerif-35" x="95.410156"/>
      </g>
     </g>
    </g>
    <g id="ytick_7">
     <g id="line2d_27">
      <path d="M 43.232813 53.256274 
L 495.13375 53.256274 
" clip-path="url(#p55dd70a755)" style="fill: none; stroke: #b0b0b0; stroke-opacity: 0.25; stroke-width: 0.5; stroke-linecap: square"/>
     </g>
     <g id="line2d_28">
      <g>
       <use xlink:href="#mbc46302407" x="43.232813" y="53.256274" style="stroke: #000000; stroke-width: 0.8"/>
      </g>
     </g>
     <g id="text_14">
      <!-- 3.0 -->
      <g transform="translate(23.510313 56.295649) scale(0.08 -0.08)">
       <use xlink:href="#DejaVuSerif-33"/>
       <use xlink:href="#DejaVuSerif-2e" x="63.623047"/>
       <use xlink:href="#DejaVuSerif-30" x="95.410156"/>
      </g>
     </g>
    </g>
    <g id="ytick_8">
     <g id="line2d_29">
      <path d="M 43.232813 35.757748 
L 495.13375 35.757748 
" clip-path="url(#p55dd70a755)" style="fill: none; stroke: #b0b0b0; stroke-opacity: 0.25; stroke-width: 0.5; stroke-linecap: square"/>
     </g>
     <g id="line2d_30">
      <g>
       <use xlink:href="#mbc46302407" x="43.232813" y="35.757748" style="stroke: #000000; stroke-width: 0.8"/>
      </g>
     </g>
     <g id="text_15">
      <!-- 3.5 -->
      <g transform="translate(23.510313 38.797123) scale(0.08 -0.08)">
       <use xlink:href="#DejaVuSerif-33"/>
       <use xlink:href="#DejaVuSerif-2e" x="63.623047"/>
       <use xlink:href="#DejaVuSerif-35" x="95.410156"/>
      </g>
     </g>
    </g>
    <g id="text_16">
     <!-- % -->
     <g transform="translate(17.638594 99.147351) rotate(-90) scale(0.09 -0.09)">
      <defs>
       <path id="DejaVuSerif-25" d="M 1434 4459 
Q 1159 4459 1004 4200 
Q 850 3941 850 3475 
Q 850 3016 1008 2753 
Q 1166 2491 1434 2491 
Q 1700 2491 1854 2752 
Q 2009 3013 2009 3475 
Q 2009 3938 1854 4198 
Q 1700 4459 1434 4459 
z
M 4653 2169 
Q 4381 2169 4226 1906 
Q 4072 1644 4072 1178 
Q 4072 719 4228 458 
Q 4384 197 4653 197 
Q 4922 197 5075 458 
Q 5228 719 5228 1178 
Q 5228 1641 5073 1905 
Q 4919 2169 4653 2169 
z
M 4653 2450 
Q 5147 2450 5437 2106 
Q 5728 1763 5728 1178 
Q 5728 594 5436 251 
Q 5144 -91 4653 -91 
Q 4153 -91 3862 251 
Q 3572 594 3572 1178 
Q 3572 1766 3864 2108 
Q 4156 2450 4653 2450 
z
M 4263 4750 
L 4738 4750 
L 1819 -91 
L 1344 -91 
L 4263 4750 
z
M 1428 4750 
Q 1922 4750 2215 4408 
Q 2509 4066 2509 3481 
Q 2509 2891 2217 2550 
Q 1925 2209 1428 2209 
Q 931 2209 642 2551 
Q 353 2894 353 3481 
Q 353 4063 643 4406 
Q 934 4750 1428 4750 
z
" transform="scale(0.015625)"/>
      </defs>
      <use xlink:href="#DejaVuSerif-25"/>
     </g>
    </g>
   </g>
   <g id="patch_3">
    <path d="M 43.232813 164.585014 
L 43.232813 25.158281 
" style="fill: none; stroke: #000000; stroke-width: 0.6; stroke-linejoin: miter; stroke-linecap: square"/>
   </g>
   <g id="patch_4">
    <path d="M 43.232813 164.585014 
L 495.13375 164.585014 
" style="fill: none; stroke: #000000; stroke-width: 0.6; stroke-linejoin: miter; stroke-linecap: square"/>
   </g>
   <g id="line2d_31">
    <path d="M 63.773764 146.756103 
L 68.33842 141.253534 
L 72.903076 139.977414 
L 77.467732 139.714358 
L 82.032388 139.154349 
L 86.597044 139.374494 
L 91.1617 139.886652 
L 95.726356 139.620339 
L 100.291012 140.473738 
L 104.855668 140.971035 
L 109.420324 141.782511 
L 113.984979 142.762481 
L 118.549635 142.532124 
L 123.114291 143.079978 
L 127.678947 142.951178 
L 132.243603 143.939231 
L 136.808259 145.171476 
L 141.372915 145.902012 
L 145.937571 146.47415 
L 150.502227 138.461212 
L 155.066883 122.603728 
L 159.631539 107.137675 
L 164.196195 90.838104 
L 168.760851 73.996514 
L 173.325507 57.549881 
L 177.890163 40.937993 
L 182.454818 44.63811 
L 187.019474 57.988364 
L 191.58413 72.111845 
L 196.148786 86.103776 
L 200.713442 100.380897 
L 205.278098 114.220255 
L 209.842754 129.03119 
L 214.40741 132.95496 
L 218.972066 134.169728 
L 223.536722 134.363695 
L 228.101378 134.722961 
L 232.666034 135.106826 
L 237.23069 135.650596 
L 241.795346 135.759743 
L 246.360002 135.464403 
L 250.924658 135.062499 
L 255.489313 135.387279 
L 260.053969 135.364594 
L 264.618625 135.14386 
L 269.183281 135.009589 
L 273.747937 134.716748 
L 278.312593 134.896531 
L 282.877249 134.826404 
L 287.441905 134.336404 
L 292.006561 134.424402 
L 296.571217 135.517366 
L 301.135873 135.887005 
L 305.700529 135.634354 
L 310.265185 136.638344 
L 314.829841 139.500663 
L 319.394497 142.309411 
L 323.959152 144.950982 
L 328.523808 132.938326 
L 333.088464 132.055572 
L 337.65312 132.133154 
L 342.217776 131.117263 
L 346.782432 127.830745 
L 351.347088 125.006185 
L 355.911744 121.673872 
L 360.4764 132.401546 
L 365.041056 132.887917 
L 369.605712 132.760289 
L 374.170368 132.586543 
L 378.735024 132.943095 
L 383.29968 132.869364 
L 387.864336 133.043864 
L 392.428991 132.681064 
L 396.993647 132.357902 
L 401.558303 133.03142 
L 406.122959 135.637365 
L 410.687615 138.158894 
L 415.252271 140.677083 
L 419.816927 143.598125 
L 424.381583 146.980453 
L 428.946239 150.004645 
L 433.510895 152.053853 
L 438.075551 152.08649 
L 442.640207 152.26414 
L 447.204863 152.540866 
L 451.769519 152.581205 
L 456.334175 152.496761 
L 460.89883 152.603604 
L 465.463486 152.997806 
L 470.028142 153.14548 
L 474.592798 153.270569 
" clip-path="url(#p55dd70a755)" style="fill: none; stroke: #cc3333; stroke-width: 1.5; stroke-linecap: square"/>
   </g>
   <g id="text_17">
    <!-- Avail — DA Utilization (%) -->
    <g transform="translate(196.011797 19.158281) scale(0.11 -0.11)">
     <defs>
      <path id="DejaVuSerif-41" d="M 1281 1691 
L 2994 1691 
L 2138 3909 
L 1281 1691 
z
M -38 0 
L -38 331 
L 372 331 
L 2034 4666 
L 2559 4666 
L 4225 331 
L 4684 331 
L 4684 0 
L 2988 0 
L 2988 331 
L 3506 331 
L 3116 1356 
L 1153 1356 
L 763 331 
L 1275 331 
L 1275 0 
L -38 0 
z
" transform="scale(0.015625)"/>
      <path id="DejaVuSerif-69" d="M 622 4353 
Q 622 4497 726 4603 
Q 831 4709 978 4709 
Q 1122 4709 1226 4603 
Q 1331 4497 1331 4353 
Q 1331 4206 1228 4103 
Q 1125 4000 978 4000 
Q 831 4000 726 4103 
Q 622 4206 622 4353 
z
M 1356 331 
L 1900 331 
L 1900 0 
L 231 0 
L 231 331 
L 781 331 
L 781 2988 
L 231 2988 
L 231 3322 
L 1356 3322 
L 1356 331 
z
" transform="scale(0.015625)"/>
      <path id="DejaVuSerif-6c" d="M 1313 331 
L 1856 331 
L 1856 0 
L 184 0 
L 184 331 
L 738 331 
L 738 4531 
L 184 4531 
L 184 4863 
L 1313 4863 
L 1313 331 
z
" transform="scale(0.015625)"/>
      <path id="DejaVuSerif-2014" d="M 281 1906 
L 6119 1906 
L 6119 1491 
L 281 1491 
L 281 1906 
z
" transform="scale(0.015625)"/>
      <path id="DejaVuSerif-55" d="M 897 4331 
L 300 4331 
L 300 4666 
L 2125 4666 
L 2125 4331 
L 1528 4331 
L 1528 1919 
Q 1528 1025 1820 672 
Q 2113 319 2828 319 
Q 3544 319 3836 672 
Q 4128 1025 4128 1919 
L 4128 4331 
L 3531 4331 
L 3531 4666 
L 5106 4666 
L 5106 4331 
L 4513 4331 
L 4513 1856 
Q 4513 791 4103 350 
Q 3694 -91 2713 -91 
Q 1731 -91 1314 353 
Q 897 797 897 1856 
L 897 4331 
z
" transform="scale(0.015625)"/>
      <path id="DejaVuSerif-74" d="M 691 2988 
L 184 2988 
L 184 3322 
L 691 3322 
L 691 4353 
L 1269 4353 
L 1269 3322 
L 2350 3322 
L 2350 2988 
L 1269 2988 
L 1269 878 
Q 1269 456 1350 337 
Q 1431 219 1650 219 
Q 1875 219 1978 351 
Q 2081 484 2088 781 
L 2522 781 
Q 2497 328 2275 118 
Q 2053 -91 1600 -91 
Q 1103 -91 897 129 
Q 691 350 691 878 
L 691 2988 
z
" transform="scale(0.015625)"/>
      <path id="DejaVuSerif-7a" d="M 256 0 
L 256 269 
L 2338 2988 
L 691 2988 
L 691 2413 
L 359 2413 
L 359 3322 
L 3078 3322 
L 3078 3053 
L 997 331 
L 2803 331 
L 2803 934 
L 3138 934 
L 3138 0 
L 256 0 
z
" transform="scale(0.015625)"/>
      <path id="DejaVuSerif-28" d="M 2041 -997 
Q 1281 -656 893 83 
Q 506 822 506 1931 
Q 506 3044 893 3783 
Q 1281 4522 2041 4863 
L 2041 4556 
Q 1559 4225 1350 3623 
Q 1141 3022 1141 1931 
Q 1141 844 1350 242 
Q 1559 -359 2041 -691 
L 2041 -997 
z
" transform="scale(0.015625)"/>
      <path id="DejaVuSerif-29" d="M 453 -997 
L 453 -691 
Q 934 -359 1145 242 
Q 1356 844 1356 1931 
Q 1356 3022 1145 3623 
Q 934 4225 453 4556 
L 453 4863 
Q 1216 4522 1603 3783 
Q 1991 3044 1991 1931 
Q 1991 822 1603 83 
Q 1216 -656 453 -997 
z
" transform="scale(0.015625)"/>
     </defs>
     <use xlink:href="#DejaVuSerif-41"/>
     <use xlink:href="#DejaVuSerif-76" x="68.216797"/>
     <use xlink:href="#DejaVuSerif-61" x="124.710938"/>
     <use xlink:href="#DejaVuSerif-69" x="184.330078"/>
     <use xlink:href="#DejaVuSerif-6c" x="216.3125"/>
     <use xlink:href="#DejaVuSerif-20" x="248.294922"/>
     <use xlink:href="#DejaVuSerif-2014" x="280.082031"/>
     <use xlink:href="#DejaVuSerif-20" x="380.082031"/>
     <use xlink:href="#DejaVuSerif-44" x="411.869141"/>
     <use xlink:href="#DejaVuSerif-41" x="492.044922"/>
     <use xlink:href="#DejaVuSerif-20" x="564.261719"/>
     <use xlink:href="#DejaVuSerif-55" x="596.048828"/>
     <use xlink:href="#DejaVuSerif-74" x="680.326172"/>
     <use xlink:href="#DejaVuSerif-69" x="720.511719"/>
     <use xlink:href="#DejaVuSerif-6c" x="752.494141"/>
     <use xlink:href="#DejaVuSerif-69" x="784.476562"/>
     <use xlink:href="#DejaVuSerif-7a" x="816.458984"/>
     <use xlink:href="#DejaVuSerif-61" x="869.144531"/>
     <use xlink:href="#DejaVuSerif-74" x="928.763672"/>
     <use xlink:href="#DejaVuSerif-69" x="968.949219"/>
     <use xlink:href="#DejaVuSerif-6f" x="1000.931641"/>
     <use xlink:href="#DejaVuSerif-6e" x="1061.136719"/>
     <use xlink:href="#DejaVuSerif-20" x="1125.541016"/>
     <use xlink:href="#DejaVuSerif-28" x="1157.328125"/>
     <use xlink:href="#DejaVuSerif-25" x="1196.341797"/>
     <use xlink:href="#DejaVuSerif-29" x="1291.361328"/>
    </g>
   </g>
   <g id="legend_1">
    <g id="patch_5">
     <path d="M 421.5725 55.157031 
L 489.53375 55.157031 
Q 491.13375 55.157031 491.13375 53.557031 
L 491.13375 30.758281 
Q 491.13375 29.158281 489.53375 29.158281 
L 421.5725 29.158281 
Q 419.9725 29.158281 419.9725 30.758281 
L 419.9725 53.557031 
Q 419.9725 55.157031 421.5725 55.157031 
z
" style="fill: #ffffff; opacity: 0.9; stroke: #cccccc; stroke-linejoin: miter"/>
    </g>
    <g id="patch_6">
     <path d="M 423.1725 38.437031 
L 439.1725 38.437031 
L 439.1725 32.837031 
L 423.1725 32.837031 
z
" style="fill: #b3cde3; fill-opacity: 0.6; stroke: #b3cde3; stroke-opacity: 0.6; stroke-linejoin: miter"/>
    </g>
    <g id="text_18">
     <!-- Utilization -->
     <g transform="translate(445.5725 38.437031) scale(0.08 -0.08)">
      <use xlink:href="#DejaVuSerif-55"/>
      <use xlink:href="#DejaVuSerif-74" x="84.277344"/>
      <use xlink:href="#DejaVuSerif-69" x="124.462891"/>
      <use xlink:href="#DejaVuSerif-6c" x="156.445312"/>
      <use xlink:href="#DejaVuSerif-69" x="188.427734"/>
      <use xlink:href="#DejaVuSerif-7a" x="220.410156"/>
      <use xlink:href="#DejaVuSerif-61" x="273.095703"/>
      <use xlink:href="#DejaVuSerif-74" x="332.714844"/>
      <use xlink:href="#DejaVuSerif-69" x="372.900391"/>
      <use xlink:href="#DejaVuSerif-6f" x="404.882812"/>
      <use xlink:href="#DejaVuSerif-6e" x="465.087891"/>
     </g>
    </g>
    <g id="line2d_32">
     <path d="M 423.1725 47.379531 
L 431.1725 47.379531 
L 439.1725 47.379531 
" style="fill: none; stroke: #cc3333; stroke-width: 1.5; stroke-linecap: square"/>
    </g>
    <g id="text_19">
     <!-- 7d avg -->
     <g transform="translate(445.5725 50.179531) scale(0.08 -0.08)">
      <defs>
       <path id="DejaVuSerif-64" d="M 3359 331 
L 3909 331 
L 3909 0 
L 2784 0 
L 2784 519 
Q 2616 206 2355 57 
Q 2094 -91 1709 -91 
Q 1097 -91 708 395 
Q 319 881 319 1663 
Q 319 2444 706 2928 
Q 1094 3413 1709 3413 
Q 2094 3413 2355 3264 
Q 2616 3116 2784 2803 
L 2784 4531 
L 2241 4531 
L 2241 4863 
L 3359 4863 
L 3359 331 
z
M 2784 1497 
L 2784 1825 
Q 2784 2422 2554 2737 
Q 2325 3053 1888 3053 
Q 1444 3053 1217 2703 
Q 991 2353 991 1663 
Q 991 975 1217 622 
Q 1444 269 1888 269 
Q 2325 269 2554 583 
Q 2784 897 2784 1497 
z
" transform="scale(0.015625)"/>
       <path id="DejaVuSerif-67" d="M 3359 2988 
L 3359 72 
Q 3359 -644 2965 -1033 
Q 2572 -1422 1844 -1422 
Q 1516 -1422 1216 -1362 
Q 916 -1303 641 -1184 
L 641 -488 
L 941 -488 
Q 997 -813 1206 -963 
Q 1416 -1113 1806 -1113 
Q 2313 -1113 2548 -827 
Q 2784 -541 2784 72 
L 2784 519 
Q 2616 206 2355 57 
Q 2094 -91 1709 -91 
Q 1097 -91 708 395 
Q 319 881 319 1663 
Q 319 2444 706 2928 
Q 1094 3413 1709 3413 
Q 2094 3413 2355 3264 
Q 2616 3116 2784 2803 
L 2784 3322 
L 3909 3322 
L 3909 2988 
L 3359 2988 
z
M 2784 1825 
Q 2784 2422 2554 2737 
Q 2325 3053 1888 3053 
Q 1444 3053 1217 2703 
Q 991 2353 991 1663 
Q 991 975 1217 622 
Q 1444 269 1888 269 
Q 2325 269 2554 583 
Q 2784 897 2784 1497 
L 2784 1825 
z
" transform="scale(0.015625)"/>
      </defs>
      <use xlink:href="#DejaVuSerif-37"/>
      <use xlink:href="#DejaVuSerif-64" x="63.623047"/>
      <use xlink:href="#DejaVuSerif-20" x="127.636719"/>
      <use xlink:href="#DejaVuSerif-61" x="159.423828"/>
      <use xlink:href="#DejaVuSerif-76" x="219.042969"/>
      <use xlink:href="#DejaVuSerif-67" x="275.537109"/>
     </g>
    </g>
   </g>
  </g>
 </g>
 <defs>
  <clipPath id="p55dd70a755">
   <rect x="43.232813" y="25.158281" width="451.900937" height="139.426733"/>
  </clipPath>
 </defs>
</svg>
