<?xml version="1.0" encoding="utf-8" standalone="no"?>
<!DOCTYPE svg PUBLIC "-//W3C//DTD SVG 1.1//EN"
  "http://www.w3.org/Graphics/SVG/1.1/DTD/svg11.dtd">
<svg xmlns:xlink="http://www.w3.org/1999/xlink" width="506.487813pt" height="203.228937pt" viewBox="0 0 506.487813 203.228937" xmlns="http://www.w3.org/2000/svg" version="1.1">
 <metadata>
  <rdf:RDF xmlns:dc="http://purl.org/dc/elements/1.1/" xmlns:cc="http://creativecommons.org/ns#" xmlns:rdf="http://www.w3.org/1999/02/22-rdf-syntax-ns#">
   <cc:Work>
    <dc:type rdf:resource="http://purl.org/dc/dcmitype/StillImage"/>
    <dc:date>2026-02-16T16:57:27.138134</dc:date>
    <dc:format>image/svg+xml</dc:format>
    <dc:creator>
     <cc:Agent>
      <dc:title>Matplotlib v3.10.8, https://matplotlib.org/</dc:title>
     </cc:Agent>
    </dc:creator>
   </cc:Work>
  </rdf:RDF>
 </metadata>
 <defs>
  <style type="text/css">*{stroke-linejoin: round; stroke-linecap: butt}</style>
 </defs>
 <g id="figure_1">
  <g id="patch_1">
   <path d="M 0 203.228937 
L 506.487813 203.228937 
L 506.487813 0 
L 0 0 
z
" style="fill: #ffffff"/>
  </g>
  <g id="axes_1">
   <g id="patch_2">
    <path d="M 43.232813 164.19436 
L 495.687813 164.19436 
L 495.687813 25.158281 
L 43.232813 25.158281 
z
" style="fill: #ffffff"/>
   </g>
   <g id="FillBetweenPolyCollection_1">
    <defs>
     <path id="m1e4206b650" d="M 63.798949 -56.813534 
L 63.798949 -45.354398 
L 68.369201 -45.354398 
L 72.939454 -45.354398 
L 77.509706 -45.354398 
L 82.079959 -45.354398 
L 86.650211 -45.354398 
L 91.220464 -45.354398 
L 95.790717 -45.354398 
L 100.360969 -45.354398 
L 104.931222 -45.354398 
L 109.501474 -45.354398 
L 114.071727 -45.354398 
L 118.641979 -45.354398 
L 123.212232 -45.354398 
L 127.782484 -45.354398 
L 132.352737 -45.354398 
L 136.922989 -45.354398 
L 141.493242 -45.354398 
L 146.063494 -45.354398 
L 150.633747 -45.354398 
L 155.203999 -45.354398 
L 159.774252 -45.354398 
L 164.344504 -45.354398 
L 168.914757 -45.354398 
L 173.485009 -45.354398 
L 178.055262 -45.354398 
L 182.625515 -45.354398 
L 187.195767 -45.354398 
L 191.76602 -45.354398 
L 196.336272 -45.354398 
L 200.906525 -45.354398 
L 205.476777 -45.354398 
L 210.04703 -45.354398 
L 214.617282 -45.354398 
L 219.187535 -45.354398 
L 223.757787 -45.354398 
L 228.32804 -45.354398 
L 232.898292 -45.354398 
L 237.468545 -45.354398 
L 242.038797 -45.354398 
L 246.60905 -45.354398 
L 251.179302 -45.354398 
L 255.749555 -45.354398 
L 260.319807 -45.354398 
L 264.89006 -45.354398 
L 269.460313 -45.354398 
L 274.030565 -45.354398 
L 278.600818 -45.354398 
L 283.17107 -45.354398 
L 287.741323 -45.354398 
L 292.311575 -45.354398 
L 296.881828 -45.354398 
L 301.45208 -45.354398 
L 306.022333 -45.354398 
L 310.592585 -45.354398 
L 315.162838 -45.354398 
L 319.73309 -45.354398 
L 324.303343 -45.354398 
L 328.873595 -45.354398 
L 333.443848 -45.354398 
L 338.0141 -45.354398 
L 342.584353 -45.354398 
L 347.154605 -45.354398 
L 351.724858 -45.354398 
L 356.29511 -45.354398 
L 360.865363 -45.354398 
L 365.435616 -45.354398 
L 370.005868 -45.354398 
L 374.576121 -45.354398 
L 379.146373 -45.354398 
L 383.716626 -45.354398 
L 388.286878 -45.354398 
L 392.857131 -45.354398 
L 397.427383 -45.354398 
L 401.997636 -45.354398 
L 406.567888 -45.354398 
L 411.138141 -45.354398 
L 415.708393 -45.354398 
L 420.278646 -45.354398 
L 424.848898 -45.354398 
L 429.419151 -45.354398 
L 433.989403 -45.354398 
L 438.559656 -45.354398 
L 443.129908 -45.354398 
L 447.700161 -45.354398 
L 452.270414 -45.354398 
L 456.840666 -45.354398 
L 461.410919 -45.354398 
L 465.981171 -45.354398 
L 470.551424 -45.354398 
L 475.121676 -45.354398 
L 475.121676 -49.849728 
L 475.121676 -49.849728 
L 470.551424 -50.053899 
L 465.981171 -50.002604 
L 461.410919 -49.786642 
L 456.840666 -51.660053 
L 452.270414 -51.010262 
L 447.700161 -49.858058 
L 443.129908 -50.722896 
L 438.559656 -51.08472 
L 433.989403 -52.754287 
L 429.419151 -50.532446 
L 424.848898 -51.070603 
L 420.278646 -51.291842 
L 415.708393 -51.789713 
L 411.138141 -51.962964 
L 406.567888 -51.312539 
L 401.997636 -67.058553 
L 397.427383 -71.642474 
L 392.857131 -74.680559 
L 388.286878 -71.681852 
L 383.716626 -69.367643 
L 379.146373 -69.564216 
L 374.576121 -69.503043 
L 370.005868 -71.759967 
L 365.435616 -69.386676 
L 360.865363 -72.148077 
L 356.29511 -72.899926 
L 351.724858 -68.852972 
L 347.154605 -72.053088 
L 342.584353 -68.290232 
L 338.0141 -70.869074 
L 333.443848 -72.78173 
L 328.873595 -147.031394 
L 324.303343 -49.639096 
L 319.73309 -49.136443 
L 315.162838 -49.111926 
L 310.592585 -61.198914 
L 306.022333 -71.41063 
L 301.45208 -66.619766 
L 296.881828 -63.178406 
L 292.311575 -68.078283 
L 287.741323 -68.742592 
L 283.17107 -69.092018 
L 278.600818 -68.207154 
L 274.030565 -69.647032 
L 269.460313 -69.199987 
L 264.89006 -70.807718 
L 260.319807 -68.69254 
L 255.749555 -65.322205 
L 251.179302 -68.602503 
L 246.60905 -69.46211 
L 242.038797 -67.602887 
L 237.468545 -68.262725 
L 232.898292 -69.266908 
L 228.32804 -68.534189 
L 223.757787 -67.589294 
L 219.187535 -65.79706 
L 214.617282 -67.400523 
L 210.04703 -68.364776 
L 205.476777 -72.058452 
L 200.906525 -71.94643 
L 196.336272 -71.042008 
L 191.76602 -68.943254 
L 187.195767 -74.27661 
L 182.625515 -94.789956 
L 178.055262 -171.750834 
L 173.485009 -168.662531 
L 168.914757 -171.606257 
L 164.344504 -168.711105 
L 159.774252 -167.530612 
L 155.203999 -167.466547 
L 150.633747 -120.618207 
L 146.063494 -55.793428 
L 141.493242 -53.858665 
L 136.922989 -54.045448 
L 132.352737 -54.933788 
L 127.782484 -59.571575 
L 123.212232 -56.775175 
L 118.641979 -64.684798 
L 114.071727 -59.787177 
L 109.501474 -58.95809 
L 104.931222 -62.646991 
L 100.360969 -61.830783 
L 95.790717 -58.672501 
L 91.220464 -60.599403 
L 86.650211 -63.076819 
L 82.079959 -66.627748 
L 77.509706 -64.622505 
L 72.939454 -66.11832 
L 68.369201 -67.787836 
L 63.798949 -56.813534 
z
" style="stroke: #b3cde3; stroke-opacity: 0.6"/>
    </defs>
    <g clip-path="url(#pa3857b4f4b)">
     <use xlink:href="#m1e4206b650" x="0" y="203.228937" style="fill: #b3cde3; fill-opacity: 0.6; stroke: #b3cde3; stroke-opacity: 0.6"/>
    </g>
   </g>
   <g id="matplotlib.axis_1">
    <g id="xtick_1">
     <g id="line2d_1">
      <path d="M 72.939454 164.19436 
L 72.939454 25.158281 
" clip-path="url(#pa3857b4f4b)" style="fill: none; stroke: #b0b0b0; stroke-opacity: 0.25; stroke-width: 0.5; stroke-linecap: square"/>
     </g>
     <g id="line2d_2">
      <defs>
       <path id="mc729fd652d" d="M 0 0 
L 0 3.5 
" style="stroke: #000000; stroke-width: 0.8"/>
      </defs>
      <g>
       <use xlink:href="#mc729fd652d" x="72.939454" y="164.19436" style="stroke: #000000; stroke-width: 0.8"/>
      </g>
     </g>
     <g id="text_1">
      <!-- Nov 18 -->
      <g transform="translate(46.941963 190.988087) rotate(-30) scale(0.08 -0.08)">
       <defs>
        <path id="DejaVuSerif-4e" d="M 313 0 
L 313 331 
L 941 331 
L 941 4331 
L 313 4331 
L 313 4666 
L 1509 4666 
L 4306 984 
L 4306 4331 
L 3681 4331 
L 3681 4666 
L 5319 4666 
L 5319 4331 
L 4691 4331 
L 4691 -91 
L 4313 -91 
L 1325 3841 
L 1325 331 
L 1953 331 
L 1953 0 
L 313 0 
z
" transform="scale(0.015625)"/>
        <path id="DejaVuSerif-6f" d="M 1925 219 
Q 2388 219 2623 584 
Q 2859 950 2859 1663 
Q 2859 2375 2623 2739 
Q 2388 3103 1925 3103 
Q 1463 3103 1227 2739 
Q 991 2375 991 1663 
Q 991 950 1228 584 
Q 1466 219 1925 219 
z
M 1925 -91 
Q 1200 -91 759 389 
Q 319 869 319 1663 
Q 319 2456 758 2934 
Q 1197 3413 1925 3413 
Q 2653 3413 3092 2934 
Q 3531 2456 3531 1663 
Q 3531 869 3092 389 
Q 2653 -91 1925 -91 
z
" transform="scale(0.015625)"/>
        <path id="DejaVuSerif-76" d="M 1581 0 
L 359 2988 
L -19 2988 
L -19 3322 
L 1509 3322 
L 1509 2988 
L 978 2988 
L 1913 703 
L 2847 2988 
L 2350 2988 
L 2350 3322 
L 3597 3322 
L 3597 2988 
L 3225 2988 
L 2003 0 
L 1581 0 
z
" transform="scale(0.015625)"/>
        <path id="DejaVuSerif-20" transform="scale(0.015625)"/>
        <path id="DejaVuSerif-31" d="M 909 0 
L 909 331 
L 1722 331 
L 1722 4213 
L 781 3603 
L 781 4013 
L 1919 4750 
L 2350 4750 
L 2350 331 
L 3163 331 
L 3163 0 
L 909 0 
z
" transform="scale(0.015625)"/>
        <path id="DejaVuSerif-38" d="M 2981 1275 
Q 2981 1775 2732 2051 
Q 2484 2328 2034 2328 
Q 1584 2328 1336 2051 
Q 1088 1775 1088 1275 
Q 1088 772 1336 495 
Q 1584 219 2034 219 
Q 2484 219 2732 495 
Q 2981 772 2981 1275 
z
M 2853 3541 
Q 2853 3966 2637 4203 
Q 2422 4441 2034 4441 
Q 1650 4441 1433 4203 
Q 1216 3966 1216 3541 
Q 1216 3113 1433 2875 
Q 1650 2638 2034 2638 
Q 2422 2638 2637 2875 
Q 2853 3113 2853 3541 
z
M 2516 2484 
Q 3047 2413 3344 2092 
Q 3641 1772 3641 1275 
Q 3641 619 3225 264 
Q 2809 -91 2034 -91 
Q 1263 -91 845 264 
Q 428 619 428 1275 
Q 428 1772 725 2092 
Q 1022 2413 1556 2484 
Q 1084 2569 832 2842 
Q 581 3116 581 3541 
Q 581 4103 968 4426 
Q 1356 4750 2034 4750 
Q 2713 4750 3100 4426 
Q 3488 4103 3488 3541 
Q 3488 3116 3236 2842 
Q 2984 2569 2516 2484 
z
" transform="scale(0.015625)"/>
       </defs>
       <use xlink:href="#DejaVuSerif-4e"/>
       <use xlink:href="#DejaVuSerif-6f" transform="translate(87.5 0)"/>
       <use xlink:href="#DejaVuSerif-76" transform="translate(147.705078 0)"/>
       <use xlink:href="#DejaVuSerif-20" transform="translate(204.199219 0)"/>
       <use xlink:href="#DejaVuSerif-31" transform="translate(235.986328 0)"/>
       <use xlink:href="#DejaVuSerif-38" transform="translate(299.609375 0)"/>
      </g>
     </g>
    </g>
    <g id="xtick_2">
     <g id="line2d_3">
      <path d="M 136.922989 164.19436 
L 136.922989 25.158281 
" clip-path="url(#pa3857b4f4b)" style="fill: none; stroke: #b0b0b0; stroke-opacity: 0.25; stroke-width: 0.5; stroke-linecap: square"/>
     </g>
     <g id="line2d_4">
      <g>
       <use xlink:href="#mc729fd652d" x="136.922989" y="164.19436" style="stroke: #000000; stroke-width: 0.8"/>
      </g>
     </g>
     <g id="text_2">
      <!-- Dec 02 -->
      <g transform="translate(111.538212 190.634337) rotate(-30) scale(0.08 -0.08)">
       <defs>
        <path id="DejaVuSerif-44" d="M 1581 331 
L 2163 331 
Q 3072 331 3558 850 
Q 4044 1369 4044 2338 
Q 4044 3306 3559 3818 
Q 3075 4331 2163 4331 
L 1581 4331 
L 1581 331 
z
M 353 0 
L 353 331 
L 947 331 
L 947 4331 
L 353 4331 
L 353 4666 
L 2209 4666 
Q 3416 4666 4089 4050 
Q 4763 3434 4763 2338 
Q 4763 1238 4088 619 
Q 3413 0 2209 0 
L 353 0 
z
" transform="scale(0.015625)"/>
        <path id="DejaVuSerif-65" d="M 3469 1600 
L 991 1600 
L 991 1575 
Q 991 903 1244 561 
Q 1497 219 1991 219 
Q 2369 219 2611 417 
Q 2853 616 2950 1006 
L 3413 1006 
Q 3275 459 2904 184 
Q 2534 -91 1931 -91 
Q 1203 -91 761 389 
Q 319 869 319 1663 
Q 319 2450 753 2931 
Q 1188 3413 1894 3413 
Q 2647 3413 3050 2948 
Q 3453 2484 3469 1600 
z
M 2791 1931 
Q 2772 2513 2545 2808 
Q 2319 3103 1894 3103 
Q 1497 3103 1269 2806 
Q 1041 2509 991 1931 
L 2791 1931 
z
" transform="scale(0.015625)"/>
        <path id="DejaVuSerif-63" d="M 3291 997 
Q 3169 466 2822 187 
Q 2475 -91 1925 -91 
Q 1200 -91 759 389 
Q 319 869 319 1663 
Q 319 2459 759 2936 
Q 1200 3413 1925 3413 
Q 2241 3413 2553 3339 
Q 2866 3266 3181 3116 
L 3181 2266 
L 2847 2266 
Q 2781 2703 2561 2903 
Q 2341 3103 1931 3103 
Q 1466 3103 1228 2742 
Q 991 2381 991 1663 
Q 991 944 1227 581 
Q 1463 219 1931 219 
Q 2303 219 2525 412 
Q 2747 606 2828 997 
L 3291 997 
z
" transform="scale(0.015625)"/>
        <path id="DejaVuSerif-30" d="M 2034 219 
Q 2513 219 2750 744 
Q 2988 1269 2988 2328 
Q 2988 3391 2750 3916 
Q 2513 4441 2034 4441 
Q 1556 4441 1318 3916 
Q 1081 3391 1081 2328 
Q 1081 1269 1318 744 
Q 1556 219 2034 219 
z
M 2034 -91 
Q 1275 -91 848 546 
Q 422 1184 422 2328 
Q 422 3475 848 4112 
Q 1275 4750 2034 4750 
Q 2797 4750 3222 4112 
Q 3647 3475 3647 2328 
Q 3647 1184 3222 546 
Q 2797 -91 2034 -91 
z
" transform="scale(0.015625)"/>
        <path id="DejaVuSerif-32" d="M 819 3553 
L 469 3553 
L 469 4384 
Q 803 4563 1142 4656 
Q 1481 4750 1806 4750 
Q 2534 4750 2956 4397 
Q 3378 4044 3378 3438 
Q 3378 2753 2422 1800 
Q 2347 1728 2309 1691 
L 1131 513 
L 3078 513 
L 3078 1088 
L 3444 1088 
L 3444 0 
L 434 0 
L 434 341 
L 1850 1753 
Q 2319 2222 2519 2614 
Q 2719 3006 2719 3438 
Q 2719 3909 2473 4175 
Q 2228 4441 1797 4441 
Q 1350 4441 1106 4219 
Q 863 3997 819 3553 
z
" transform="scale(0.015625)"/>
       </defs>
       <use xlink:href="#DejaVuSerif-44"/>
       <use xlink:href="#DejaVuSerif-65" transform="translate(80.175781 0)"/>
       <use xlink:href="#DejaVuSerif-63" transform="translate(139.355469 0)"/>
       <use xlink:href="#DejaVuSerif-20" transform="translate(195.361328 0)"/>
       <use xlink:href="#DejaVuSerif-30" transform="translate(227.148438 0)"/>
       <use xlink:href="#DejaVuSerif-32" transform="translate(290.771484 0)"/>
      </g>
     </g>
    </g>
    <g id="xtick_3">
     <g id="line2d_5">
      <path d="M 200.906525 164.19436 
L 200.906525 25.158281 
" clip-path="url(#pa3857b4f4b)" style="fill: none; stroke: #b0b0b0; stroke-opacity: 0.25; stroke-width: 0.5; stroke-linecap: square"/>
     </g>
     <g id="line2d_6">
      <g>
       <use xlink:href="#mc729fd652d" x="200.906525" y="164.19436" style="stroke: #000000; stroke-width: 0.8"/>
      </g>
     </g>
     <g id="text_3">
      <!-- Dec 16 -->
      <g transform="translate(175.521747 190.634337) rotate(-30) scale(0.08 -0.08)">
       <defs>
        <path id="DejaVuSerif-36" d="M 2094 219 
Q 2534 219 2771 542 
Q 3009 866 3009 1472 
Q 3009 2078 2771 2401 
Q 2534 2725 2094 2725 
Q 1647 2725 1412 2412 
Q 1178 2100 1178 1509 
Q 1178 888 1415 553 
Q 1653 219 2094 219 
z
M 1075 2569 
Q 1288 2803 1556 2918 
Q 1825 3034 2163 3034 
Q 2859 3034 3264 2615 
Q 3669 2197 3669 1472 
Q 3669 763 3233 336 
Q 2797 -91 2069 -91 
Q 1278 -91 853 498 
Q 428 1088 428 2181 
Q 428 3406 931 4078 
Q 1434 4750 2350 4750 
Q 2597 4750 2869 4703 
Q 3141 4656 3425 4563 
L 3425 3794 
L 3072 3794 
Q 3034 4109 2831 4275 
Q 2628 4441 2284 4441 
Q 1678 4441 1381 3981 
Q 1084 3522 1075 2569 
z
" transform="scale(0.015625)"/>
       </defs>
       <use xlink:href="#DejaVuSerif-44"/>
       <use xlink:href="#DejaVuSerif-65" transform="translate(80.175781 0)"/>
       <use xlink:href="#DejaVuSerif-63" transform="translate(139.355469 0)"/>
       <use xlink:href="#DejaVuSerif-20" transform="translate(195.361328 0)"/>
       <use xlink:href="#DejaVuSerif-31" transform="translate(227.148438 0)"/>
       <use xlink:href="#DejaVuSerif-36" transform="translate(290.771484 0)"/>
      </g>
     </g>
    </g>
    <g id="xtick_4">
     <g id="line2d_7">
      <path d="M 264.89006 164.19436 
L 264.89006 25.158281 
" clip-path="url(#pa3857b4f4b)" style="fill: none; stroke: #b0b0b0; stroke-opacity: 0.25; stroke-width: 0.5; stroke-linecap: square"/>
     </g>
     <g id="line2d_8">
      <g>
       <use xlink:href="#mc729fd652d" x="264.89006" y="164.19436" style="stroke: #000000; stroke-width: 0.8"/>
      </g>
     </g>
     <g id="text_4">
      <!-- Dec 30 -->
      <g transform="translate(239.505282 190.634337) rotate(-30) scale(0.08 -0.08)">
       <defs>
        <path id="DejaVuSerif-33" d="M 622 4469 
Q 988 4606 1323 4678 
Q 1659 4750 1953 4750 
Q 2638 4750 3022 4454 
Q 3406 4159 3406 3634 
Q 3406 3213 3140 2930 
Q 2875 2647 2388 2547 
Q 2963 2466 3280 2130 
Q 3597 1794 3597 1259 
Q 3597 606 3158 257 
Q 2719 -91 1894 -91 
Q 1528 -91 1179 -12 
Q 831 66 488 225 
L 488 1131 
L 838 1131 
Q 869 681 1141 450 
Q 1413 219 1906 219 
Q 2384 219 2661 495 
Q 2938 772 2938 1253 
Q 2938 1803 2653 2086 
Q 2369 2369 1819 2369 
L 1522 2369 
L 1522 2688 
L 1678 2688 
Q 2225 2688 2498 2914 
Q 2772 3141 2772 3597 
Q 2772 4006 2547 4223 
Q 2322 4441 1900 4441 
Q 1478 4441 1245 4241 
Q 1013 4041 972 3647 
L 622 3647 
L 622 4469 
z
" transform="scale(0.015625)"/>
       </defs>
       <use xlink:href="#DejaVuSerif-44"/>
       <use xlink:href="#DejaVuSerif-65" transform="translate(80.175781 0)"/>
       <use xlink:href="#DejaVuSerif-63" transform="translate(139.355469 0)"/>
       <use xlink:href="#DejaVuSerif-20" transform="translate(195.361328 0)"/>
       <use xlink:href="#DejaVuSerif-33" transform="translate(227.148438 0)"/>
       <use xlink:href="#DejaVuSerif-30" transform="translate(290.771484 0)"/>
      </g>
     </g>
    </g>
    <g id="xtick_5">
     <g id="line2d_9">
      <path d="M 328.873595 164.19436 
L 328.873595 25.158281 
" clip-path="url(#pa3857b4f4b)" style="fill: none; stroke: #b0b0b0; stroke-opacity: 0.25; stroke-width: 0.5; stroke-linecap: square"/>
     </g>
     <g id="line2d_10">
      <g>
       <use xlink:href="#mc729fd652d" x="328.873595" y="164.19436" style="stroke: #000000; stroke-width: 0.8"/>
      </g>
     </g>
     <g id="text_5">
      <!-- Jan 13 -->
      <g transform="translate(305.652799 189.384962) rotate(-30) scale(0.08 -0.08)">
       <defs>
        <path id="DejaVuSerif-4a" d="M -538 -1119 
L -538 -384 
L -181 -384 
Q -172 -694 -34 -845 
Q 103 -997 378 -997 
Q 750 -997 897 -762 
Q 1044 -528 1044 153 
L 1044 4331 
L 319 4331 
L 319 4666 
L 2272 4666 
L 2272 4331 
L 1678 4331 
L 1678 128 
Q 1678 -644 1368 -987 
Q 1059 -1331 372 -1331 
Q 150 -1331 -79 -1278 
Q -309 -1225 -538 -1119 
z
" transform="scale(0.015625)"/>
        <path id="DejaVuSerif-61" d="M 2547 1044 
L 2547 1747 
L 1806 1747 
Q 1378 1747 1168 1562 
Q 959 1378 959 997 
Q 959 650 1171 447 
Q 1384 244 1747 244 
Q 2106 244 2326 466 
Q 2547 688 2547 1044 
z
M 3122 2075 
L 3122 331 
L 3634 331 
L 3634 0 
L 2547 0 
L 2547 359 
Q 2356 128 2106 18 
Q 1856 -91 1522 -91 
Q 969 -91 644 203 
Q 319 497 319 997 
Q 319 1513 691 1797 
Q 1063 2081 1741 2081 
L 2547 2081 
L 2547 2309 
Q 2547 2688 2317 2895 
Q 2088 3103 1672 3103 
Q 1328 3103 1125 2947 
Q 922 2791 872 2484 
L 575 2484 
L 575 3156 
Q 875 3284 1158 3348 
Q 1441 3413 1709 3413 
Q 2400 3413 2761 3070 
Q 3122 2728 3122 2075 
z
" transform="scale(0.015625)"/>
        <path id="DejaVuSerif-6e" d="M 263 0 
L 263 331 
L 781 331 
L 781 2988 
L 231 2988 
L 231 3322 
L 1356 3322 
L 1356 2731 
Q 1516 3069 1770 3241 
Q 2025 3413 2363 3413 
Q 2913 3413 3172 3097 
Q 3431 2781 3431 2113 
L 3431 331 
L 3944 331 
L 3944 0 
L 2356 0 
L 2356 331 
L 2853 331 
L 2853 1931 
Q 2853 2541 2703 2767 
Q 2553 2994 2175 2994 
Q 1775 2994 1565 2701 
Q 1356 2409 1356 1850 
L 1356 331 
L 1856 331 
L 1856 0 
L 263 0 
z
" transform="scale(0.015625)"/>
       </defs>
       <use xlink:href="#DejaVuSerif-4a"/>
       <use xlink:href="#DejaVuSerif-61" transform="translate(40.087891 0)"/>
       <use xlink:href="#DejaVuSerif-6e" transform="translate(99.707031 0)"/>
       <use xlink:href="#DejaVuSerif-20" transform="translate(164.111328 0)"/>
       <use xlink:href="#DejaVuSerif-31" transform="translate(195.898438 0)"/>
       <use xlink:href="#DejaVuSerif-33" transform="translate(259.521484 0)"/>
      </g>
     </g>
    </g>
    <g id="xtick_6">
     <g id="line2d_11">
      <path d="M 392.857131 164.19436 
L 392.857131 25.158281 
" clip-path="url(#pa3857b4f4b)" style="fill: none; stroke: #b0b0b0; stroke-opacity: 0.25; stroke-width: 0.5; stroke-linecap: square"/>
     </g>
     <g id="line2d_12">
      <g>
       <use xlink:href="#mc729fd652d" x="392.857131" y="164.19436" style="stroke: #000000; stroke-width: 0.8"/>
      </g>
     </g>
     <g id="text_6">
      <!-- Jan 27 -->
      <g transform="translate(369.636334 189.384962) rotate(-30) scale(0.08 -0.08)">
       <defs>
        <path id="DejaVuSerif-37" d="M 3609 4347 
L 1784 0 
L 1319 0 
L 3059 4153 
L 903 4153 
L 903 3578 
L 538 3578 
L 538 4666 
L 3609 4666 
L 3609 4347 
z
" transform="scale(0.015625)"/>
       </defs>
       <use xlink:href="#DejaVuSerif-4a"/>
       <use xlink:href="#DejaVuSerif-61" transform="translate(40.087891 0)"/>
       <use xlink:href="#DejaVuSerif-6e" transform="translate(99.707031 0)"/>
       <use xlink:href="#DejaVuSerif-20" transform="translate(164.111328 0)"/>
       <use xlink:href="#DejaVuSerif-32" transform="translate(195.898438 0)"/>
       <use xlink:href="#DejaVuSerif-37" transform="translate(259.521484 0)"/>
      </g>
     </g>
    </g>
    <g id="xtick_7">
     <g id="line2d_13">
      <path d="M 456.840666 164.19436 
L 456.840666 25.158281 
" clip-path="url(#pa3857b4f4b)" style="fill: none; stroke: #b0b0b0; stroke-opacity: 0.25; stroke-width: 0.5; stroke-linecap: square"/>
     </g>
     <g id="line2d_14">
      <g>
       <use xlink:href="#mc729fd652d" x="456.840666" y="164.19436" style="stroke: #000000; stroke-width: 0.8"/>
      </g>
     </g>
     <g id="text_7">
      <!-- Feb 10 -->
      <g transform="translate(432.028548 190.303712) rotate(-30) scale(0.08 -0.08)">
       <defs>
        <path id="DejaVuSerif-46" d="M 353 0 
L 353 331 
L 947 331 
L 947 4331 
L 353 4331 
L 353 4666 
L 4172 4666 
L 4172 3628 
L 3788 3628 
L 3788 4281 
L 1581 4281 
L 1581 2719 
L 3175 2719 
L 3175 3303 
L 3559 3303 
L 3559 1753 
L 3175 1753 
L 3175 2338 
L 1581 2338 
L 1581 331 
L 2328 331 
L 2328 0 
L 353 0 
z
" transform="scale(0.015625)"/>
        <path id="DejaVuSerif-62" d="M 738 331 
L 738 4531 
L 184 4531 
L 184 4863 
L 1313 4863 
L 1313 2803 
Q 1481 3116 1742 3264 
Q 2003 3413 2388 3413 
Q 3000 3413 3387 2928 
Q 3775 2444 3775 1663 
Q 3775 881 3387 395 
Q 3000 -91 2388 -91 
Q 2003 -91 1742 57 
Q 1481 206 1313 519 
L 1313 0 
L 184 0 
L 184 331 
L 738 331 
z
M 1313 1497 
Q 1313 897 1542 583 
Q 1772 269 2209 269 
Q 2650 269 2876 622 
Q 3103 975 3103 1663 
Q 3103 2353 2876 2703 
Q 2650 3053 2209 3053 
Q 1772 3053 1542 2737 
Q 1313 2422 1313 1825 
L 1313 1497 
z
" transform="scale(0.015625)"/>
       </defs>
       <use xlink:href="#DejaVuSerif-46"/>
       <use xlink:href="#DejaVuSerif-65" transform="translate(63.884766 0)"/>
       <use xlink:href="#DejaVuSerif-62" transform="translate(123.064453 0)"/>
       <use xlink:href="#DejaVuSerif-20" transform="translate(187.078125 0)"/>
       <use xlink:href="#DejaVuSerif-31" transform="translate(218.865234 0)"/>
       <use xlink:href="#DejaVuSerif-30" transform="translate(282.488281 0)"/>
      </g>
     </g>
    </g>
   </g>
   <g id="matplotlib.axis_2">
    <g id="ytick_1">
     <g id="line2d_15">
      <path d="M 43.232813 157.874538 
L 495.687813 157.874538 
" clip-path="url(#pa3857b4f4b)" style="fill: none; stroke: #b0b0b0; stroke-opacity: 0.25; stroke-width: 0.5; stroke-linecap: square"/>
     </g>
     <g id="line2d_16">
      <defs>
       <path id="m9047b9fcdc" d="M 0 0 
L -3.5 0 
" style="stroke: #000000; stroke-width: 0.8"/>
      </defs>
      <g>
       <use xlink:href="#m9047b9fcdc" x="43.232813" y="157.874538" style="stroke: #000000; stroke-width: 0.8"/>
      </g>
     </g>
     <g id="text_8">
      <!-- 0.0 -->
      <g transform="translate(23.510313 160.913913) scale(0.08 -0.08)">
       <defs>
        <path id="DejaVuSerif-2e" d="M 603 325 
Q 603 500 722 622 
Q 841 744 1019 744 
Q 1191 744 1312 622 
Q 1434 500 1434 325 
Q 1434 153 1312 31 
Q 1191 -91 1019 -91 
Q 841 -91 722 29 
Q 603 150 603 325 
z
" transform="scale(0.015625)"/>
       </defs>
       <use xlink:href="#DejaVuSerif-30"/>
       <use xlink:href="#DejaVuSerif-2e" transform="translate(63.623047 0)"/>
       <use xlink:href="#DejaVuSerif-30" transform="translate(95.410156 0)"/>
      </g>
     </g>
    </g>
    <g id="ytick_2">
     <g id="line2d_17">
      <path d="M 43.232813 140.42504 
L 495.687813 140.42504 
" clip-path="url(#pa3857b4f4b)" style="fill: none; stroke: #b0b0b0; stroke-opacity: 0.25; stroke-width: 0.5; stroke-linecap: square"/>
     </g>
     <g id="line2d_18">
      <g>
       <use xlink:href="#m9047b9fcdc" x="43.232813" y="140.42504" style="stroke: #000000; stroke-width: 0.8"/>
      </g>
     </g>
     <g id="text_9">
      <!-- 0.5 -->
      <g transform="translate(23.510313 143.464415) scale(0.08 -0.08)">
       <defs>
        <path id="DejaVuSerif-35" d="M 3219 4666 
L 3219 4153 
L 1081 4153 
L 1081 2816 
Q 1244 2928 1461 2984 
Q 1678 3041 1947 3041 
Q 2703 3041 3140 2622 
Q 3578 2203 3578 1478 
Q 3578 738 3136 323 
Q 2694 -91 1894 -91 
Q 1572 -91 1234 -12 
Q 897 66 544 225 
L 544 1131 
L 897 1131 
Q 925 688 1179 453 
Q 1434 219 1894 219 
Q 2388 219 2653 544 
Q 2919 869 2919 1478 
Q 2919 2084 2655 2407 
Q 2391 2731 1894 2731 
Q 1613 2731 1398 2631 
Q 1184 2531 1019 2322 
L 750 2322 
L 750 4666 
L 3219 4666 
z
" transform="scale(0.015625)"/>
       </defs>
       <use xlink:href="#DejaVuSerif-30"/>
       <use xlink:href="#DejaVuSerif-2e" transform="translate(63.623047 0)"/>
       <use xlink:href="#DejaVuSerif-35" transform="translate(95.410156 0)"/>
      </g>
     </g>
    </g>
    <g id="ytick_3">
     <g id="line2d_19">
      <path d="M 43.232813 122.975541 
L 495.687813 122.975541 
" clip-path="url(#pa3857b4f4b)" style="fill: none; stroke: #b0b0b0; stroke-opacity: 0.25; stroke-width: 0.5; stroke-linecap: square"/>
     </g>
     <g id="line2d_20">
      <g>
       <use xlink:href="#m9047b9fcdc" x="43.232813" y="122.975541" style="stroke: #000000; stroke-width: 0.8"/>
      </g>
     </g>
     <g id="text_10">
      <!-- 1.0 -->
      <g transform="translate(23.510313 126.014916) scale(0.08 -0.08)">
       <use xlink:href="#DejaVuSerif-31"/>
       <use xlink:href="#DejaVuSerif-2e" transform="translate(63.623047 0)"/>
       <use xlink:href="#DejaVuSerif-30" transform="translate(95.410156 0)"/>
      </g>
     </g>
    </g>
    <g id="ytick_4">
     <g id="line2d_21">
      <path d="M 43.232813 105.526043 
L 495.687813 105.526043 
" clip-path="url(#pa3857b4f4b)" style="fill: none; stroke: #b0b0b0; stroke-opacity: 0.25; stroke-width: 0.5; stroke-linecap: square"/>
     </g>
     <g id="line2d_22">
      <g>
       <use xlink:href="#m9047b9fcdc" x="43.232813" y="105.526043" style="stroke: #000000; stroke-width: 0.8"/>
      </g>
     </g>
     <g id="text_11">
      <!-- 1.5 -->
      <g transform="translate(23.510313 108.565418) scale(0.08 -0.08)">
       <use xlink:href="#DejaVuSerif-31"/>
       <use xlink:href="#DejaVuSerif-2e" transform="translate(63.623047 0)"/>
       <use xlink:href="#DejaVuSerif-35" transform="translate(95.410156 0)"/>
      </g>
     </g>
    </g>
    <g id="ytick_5">
     <g id="line2d_23">
      <path d="M 43.232813 88.076545 
L 495.687813 88.076545 
" clip-path="url(#pa3857b4f4b)" style="fill: none; stroke: #b0b0b0; stroke-opacity: 0.25; stroke-width: 0.5; stroke-linecap: square"/>
     </g>
     <g id="line2d_24">
      <g>
       <use xlink:href="#m9047b9fcdc" x="43.232813" y="88.076545" style="stroke: #000000; stroke-width: 0.8"/>
      </g>
     </g>
     <g id="text_12">
      <!-- 2.0 -->
      <g transform="translate(23.510313 91.11592) scale(0.08 -0.08)">
       <use xlink:href="#DejaVuSerif-32"/>
       <use xlink:href="#DejaVuSerif-2e" transform="translate(63.623047 0)"/>
       <use xlink:href="#DejaVuSerif-30" transform="translate(95.410156 0)"/>
      </g>
     </g>
    </g>
    <g id="ytick_6">
     <g id="line2d_25">
      <path d="M 43.232813 70.627046 
L 495.687813 70.627046 
" clip-path="url(#pa3857b4f4b)" style="fill: none; stroke: #b0b0b0; stroke-opacity: 0.25; stroke-width: 0.5; stroke-linecap: square"/>
     </g>
     <g id="line2d_26">
      <g>
       <use xlink:href="#m9047b9fcdc" x="43.232813" y="70.627046" style="stroke: #000000; stroke-width: 0.8"/>
      </g>
     </g>
     <g id="text_13">
      <!-- 2.5 -->
      <g transform="translate(23.510313 73.666421) scale(0.08 -0.08)">
       <use xlink:href="#DejaVuSerif-32"/>
       <use xlink:href="#DejaVuSerif-2e" transform="translate(63.623047 0)"/>
       <use xlink:href="#DejaVuSerif-35" transform="translate(95.410156 0)"/>
      </g>
     </g>
    </g>
    <g id="ytick_7">
     <g id="line2d_27">
      <path d="M 43.232813 53.177548 
L 495.687813 53.177548 
" clip-path="url(#pa3857b4f4b)" style="fill: none; stroke: #b0b0b0; stroke-opacity: 0.25; stroke-width: 0.5; stroke-linecap: square"/>
     </g>
     <g id="line2d_28">
      <g>
       <use xlink:href="#m9047b9fcdc" x="43.232813" y="53.177548" style="stroke: #000000; stroke-width: 0.8"/>
      </g>
     </g>
     <g id="text_14">
      <!-- 3.0 -->
      <g transform="translate(23.510313 56.216923) scale(0.08 -0.08)">
       <use xlink:href="#DejaVuSerif-33"/>
       <use xlink:href="#DejaVuSerif-2e" transform="translate(63.623047 0)"/>
       <use xlink:href="#DejaVuSerif-30" transform="translate(95.410156 0)"/>
      </g>
     </g>
    </g>
    <g id="ytick_8">
     <g id="line2d_29">
      <path d="M 43.232813 35.728049 
L 495.687813 35.728049 
" clip-path="url(#pa3857b4f4b)" style="fill: none; stroke: #b0b0b0; stroke-opacity: 0.25; stroke-width: 0.5; stroke-linecap: square"/>
     </g>
     <g id="line2d_30">
      <g>
       <use xlink:href="#m9047b9fcdc" x="43.232813" y="35.728049" style="stroke: #000000; stroke-width: 0.8"/>
      </g>
     </g>
     <g id="text_15">
      <!-- 3.5 -->
      <g transform="translate(23.510313 38.767424) scale(0.08 -0.08)">
       <use xlink:href="#DejaVuSerif-33"/>
       <use xlink:href="#DejaVuSerif-2e" transform="translate(63.623047 0)"/>
       <use xlink:href="#DejaVuSerif-35" transform="translate(95.410156 0)"/>
      </g>
     </g>
    </g>
    <g id="text_16">
     <!-- % -->
     <g transform="translate(17.638594 98.952024) rotate(-90) scale(0.09 -0.09)">
      <defs>
       <path id="DejaVuSerif-25" d="M 1434 4459 
Q 1159 4459 1004 4200 
Q 850 3941 850 3475 
Q 850 3016 1008 2753 
Q 1166 2491 1434 2491 
Q 1700 2491 1854 2752 
Q 2009 3013 2009 3475 
Q 2009 3938 1854 4198 
Q 1700 4459 1434 4459 
z
M 4653 2169 
Q 4381 2169 4226 1906 
Q 4072 1644 4072 1178 
Q 4072 719 4228 458 
Q 4384 197 4653 197 
Q 4922 197 5075 458 
Q 5228 719 5228 1178 
Q 5228 1641 5073 1905 
Q 4919 2169 4653 2169 
z
M 4653 2450 
Q 5147 2450 5437 2106 
Q 5728 1763 5728 1178 
Q 5728 594 5436 251 
Q 5144 -91 4653 -91 
Q 4153 -91 3862 251 
Q 3572 594 3572 1178 
Q 3572 1766 3864 2108 
Q 4156 2450 4653 2450 
z
M 4263 4750 
L 4738 4750 
L 1819 -91 
L 1344 -91 
L 4263 4750 
z
M 1428 4750 
Q 1922 4750 2215 4408 
Q 2509 4066 2509 3481 
Q 2509 2891 2217 2550 
Q 1925 2209 1428 2209 
Q 931 2209 642 2551 
Q 353 2894 353 3481 
Q 353 4063 643 4406 
Q 934 4750 1428 4750 
z
" transform="scale(0.015625)"/>
      </defs>
      <use xlink:href="#DejaVuSerif-25"/>
     </g>
    </g>
   </g>
   <g id="patch_3">
    <path d="M 43.232813 164.19436 
L 43.232813 25.158281 
" style="fill: none; stroke: #000000; stroke-width: 0.6; stroke-linejoin: miter; stroke-linecap: square"/>
   </g>
   <g id="patch_4">
    <path d="M 43.232813 164.19436 
L 495.687813 164.19436 
" style="fill: none; stroke: #000000; stroke-width: 0.6; stroke-linejoin: miter; stroke-linecap: square"/>
   </g>
   <g id="line2d_31">
    <path d="M 63.798949 146.415403 
L 68.369201 140.928252 
L 72.939454 139.655707 
L 77.509706 139.393388 
L 82.079959 138.834948 
L 86.650211 139.054476 
L 91.220464 139.565199 
L 95.790717 139.299632 
L 100.360969 140.15064 
L 104.931222 140.646544 
L 109.501474 141.455746 
L 114.071727 142.43297 
L 118.641979 142.203259 
L 123.212232 142.749577 
L 127.782484 142.621138 
L 132.352737 143.606423 
L 136.922989 144.835215 
L 141.493242 145.563704 
L 146.063494 146.13424 
L 150.633747 138.143753 
L 155.203999 122.3307 
L 159.774252 106.90798 
L 164.344504 90.654078 
L 168.914757 73.859677 
L 173.485009 57.459124 
L 178.055262 40.893781 
L 182.625515 44.583531 
L 187.195767 57.896379 
L 191.76602 71.980287 
L 196.336272 85.933015 
L 200.906525 100.170133 
L 205.476777 113.970716 
L 210.04703 128.740153 
L 214.617282 132.652929 
L 219.187535 133.864293 
L 223.757787 134.057716 
L 228.32804 134.415976 
L 232.898292 134.798765 
L 237.468545 135.341012 
L 242.038797 135.449853 
L 246.60905 135.155341 
L 251.179302 134.754563 
L 255.749555 135.078433 
L 260.319807 135.055811 
L 264.89006 134.835695 
L 269.460313 134.701801 
L 274.030565 134.40978 
L 278.600818 134.58906 
L 283.17107 134.519129 
L 287.741323 134.030502 
L 292.311575 134.118253 
L 296.881828 135.208155 
L 301.45208 135.576758 
L 306.022333 135.324815 
L 310.592585 136.325993 
L 315.162838 139.180292 
L 319.73309 141.98117 
L 324.303343 144.615339 
L 328.873595 132.636341 
L 333.443848 131.756061 
L 338.0141 131.833426 
L 342.584353 130.82038 
L 347.154605 127.543071 
L 351.724858 124.726425 
L 356.29511 121.403449 
L 360.865363 132.101066 
L 365.435616 132.586073 
L 370.005868 132.458803 
L 374.576121 132.285544 
L 379.146373 132.641097 
L 383.716626 132.567573 
L 388.286878 132.741583 
L 392.857131 132.3798 
L 397.427383 132.057543 
L 401.997636 132.729174 
L 406.567888 135.327817 
L 411.138141 137.842282 
L 415.708393 140.353415 
L 420.278646 143.266273 
L 424.848898 146.639124 
L 429.419151 149.654842 
L 433.989403 151.698309 
L 438.559656 151.730855 
L 443.129908 151.908007 
L 447.700161 152.183958 
L 452.270414 152.224184 
L 456.840666 152.139976 
L 461.410919 152.24652 
L 465.981171 152.639617 
L 470.551424 152.786878 
L 475.121676 152.911616 
" clip-path="url(#pa3857b4f4b)" style="fill: none; stroke: #cc3333; stroke-width: 1.5; stroke-linecap: square"/>
   </g>
   <g id="text_17">
    <!-- Avail — DA Utilization (%) -->
    <g transform="translate(196.288828 19.158281) scale(0.11 -0.11)">
     <defs>
      <path id="DejaVuSerif-41" d="M 1281 1691 
L 2994 1691 
L 2138 3909 
L 1281 1691 
z
M -38 0 
L -38 331 
L 372 331 
L 2034 4666 
L 2559 4666 
L 4225 331 
L 4684 331 
L 4684 0 
L 2988 0 
L 2988 331 
L 3506 331 
L 3116 1356 
L 1153 1356 
L 763 331 
L 1275 331 
L 1275 0 
L -38 0 
z
" transform="scale(0.015625)"/>
      <path id="DejaVuSerif-69" d="M 622 4353 
Q 622 4497 726 4603 
Q 831 4709 978 4709 
Q 1122 4709 1226 4603 
Q 1331 4497 1331 4353 
Q 1331 4206 1228 4103 
Q 1125 4000 978 4000 
Q 831 4000 726 4103 
Q 622 4206 622 4353 
z
M 1356 331 
L 1900 331 
L 1900 0 
L 231 0 
L 231 331 
L 781 331 
L 781 2988 
L 231 2988 
L 231 3322 
L 1356 3322 
L 1356 331 
z
" transform="scale(0.015625)"/>
      <path id="DejaVuSerif-6c" d="M 1313 331 
L 1856 331 
L 1856 0 
L 184 0 
L 184 331 
L 738 331 
L 738 4531 
L 184 4531 
L 184 4863 
L 1313 4863 
L 1313 331 
z
" transform="scale(0.015625)"/>
      <path id="DejaVuSerif-2014" d="M 281 1906 
L 6119 1906 
L 6119 1491 
L 281 1491 
L 281 1906 
z
" transform="scale(0.015625)"/>
      <path id="DejaVuSerif-55" d="M 897 4331 
L 300 4331 
L 300 4666 
L 2125 4666 
L 2125 4331 
L 1528 4331 
L 1528 1919 
Q 1528 1025 1820 672 
Q 2113 319 2828 319 
Q 3544 319 3836 672 
Q 4128 1025 4128 1919 
L 4128 4331 
L 3531 4331 
L 3531 4666 
L 5106 4666 
L 5106 4331 
L 4513 4331 
L 4513 1856 
Q 4513 791 4103 350 
Q 3694 -91 2713 -91 
Q 1731 -91 1314 353 
Q 897 797 897 1856 
L 897 4331 
z
" transform="scale(0.015625)"/>
      <path id="DejaVuSerif-74" d="M 691 2988 
L 184 2988 
L 184 3322 
L 691 3322 
L 691 4353 
L 1269 4353 
L 1269 3322 
L 2350 3322 
L 2350 2988 
L 1269 2988 
L 1269 878 
Q 1269 456 1350 337 
Q 1431 219 1650 219 
Q 1875 219 1978 351 
Q 2081 484 2088 781 
L 2522 781 
Q 2497 328 2275 118 
Q 2053 -91 1600 -91 
Q 1103 -91 897 129 
Q 691 350 691 878 
L 691 2988 
z
" transform="scale(0.015625)"/>
      <path id="DejaVuSerif-7a" d="M 256 0 
L 256 269 
L 2338 2988 
L 691 2988 
L 691 2413 
L 359 2413 
L 359 3322 
L 3078 3322 
L 3078 3053 
L 997 331 
L 2803 331 
L 2803 934 
L 3138 934 
L 3138 0 
L 256 0 
z
" transform="scale(0.015625)"/>
      <path id="DejaVuSerif-28" d="M 2041 -997 
Q 1281 -656 893 83 
Q 506 822 506 1931 
Q 506 3044 893 3783 
Q 1281 4522 2041 4863 
L 2041 4556 
Q 1559 4225 1350 3623 
Q 1141 3022 1141 1931 
Q 1141 844 1350 242 
Q 1559 -359 2041 -691 
L 2041 -997 
z
" transform="scale(0.015625)"/>
      <path id="DejaVuSerif-29" d="M 453 -997 
L 453 -691 
Q 934 -359 1145 242 
Q 1356 844 1356 1931 
Q 1356 3022 1145 3623 
Q 934 4225 453 4556 
L 453 4863 
Q 1216 4522 1603 3783 
Q 1991 3044 1991 1931 
Q 1991 822 1603 83 
Q 1216 -656 453 -997 
z
" transform="scale(0.015625)"/>
     </defs>
     <use xlink:href="#DejaVuSerif-41"/>
     <use xlink:href="#DejaVuSerif-76" transform="translate(68.216797 0)"/>
     <use xlink:href="#DejaVuSerif-61" transform="translate(124.710938 0)"/>
     <use xlink:href="#DejaVuSerif-69" transform="translate(184.330078 0)"/>
     <use xlink:href="#DejaVuSerif-6c" transform="translate(216.3125 0)"/>
     <use xlink:href="#DejaVuSerif-20" transform="translate(248.294922 0)"/>
     <use xlink:href="#DejaVuSerif-2014" transform="translate(280.082031 0)"/>
     <use xlink:href="#DejaVuSerif-20" transform="translate(380.082031 0)"/>
     <use xlink:href="#DejaVuSerif-44" transform="translate(411.869141 0)"/>
     <use xlink:href="#DejaVuSerif-41" transform="translate(492.044922 0)"/>
     <use xlink:href="#DejaVuSerif-20" transform="translate(564.261719 0)"/>
     <use xlink:href="#DejaVuSerif-55" transform="translate(596.048828 0)"/>
     <use xlink:href="#DejaVuSerif-74" transform="translate(680.326172 0)"/>
     <use xlink:href="#DejaVuSerif-69" transform="translate(720.511719 0)"/>
     <use xlink:href="#DejaVuSerif-6c" transform="translate(752.494141 0)"/>
     <use xlink:href="#DejaVuSerif-69" transform="translate(784.476562 0)"/>
     <use xlink:href="#DejaVuSerif-7a" transform="translate(816.458984 0)"/>
     <use xlink:href="#DejaVuSerif-61" transform="translate(869.144531 0)"/>
     <use xlink:href="#DejaVuSerif-74" transform="translate(928.763672 0)"/>
     <use xlink:href="#DejaVuSerif-69" transform="translate(968.949219 0)"/>
     <use xlink:href="#DejaVuSerif-6f" transform="translate(1000.931641 0)"/>
     <use xlink:href="#DejaVuSerif-6e" transform="translate(1061.136719 0)"/>
     <use xlink:href="#DejaVuSerif-20" transform="translate(1125.541016 0)"/>
     <use xlink:href="#DejaVuSerif-28" transform="translate(1157.328125 0)"/>
     <use xlink:href="#DejaVuSerif-25" transform="translate(1196.341797 0)"/>
     <use xlink:href="#DejaVuSerif-29" transform="translate(1291.361328 0)"/>
    </g>
   </g>
   <g id="legend_1">
    <g id="patch_5">
     <path d="M 422.126563 55.157031 
L 490.087812 55.157031 
Q 491.687813 55.157031 491.687813 53.557031 
L 491.687813 30.758281 
Q 491.687813 29.158281 490.087812 29.158281 
L 422.126563 29.158281 
Q 420.526563 29.158281 420.526563 30.758281 
L 420.526563 53.557031 
Q 420.526563 55.157031 422.126563 55.157031 
z
" style="fill: #ffffff; opacity: 0.9; stroke: #cccccc; stroke-linejoin: miter"/>
    </g>
    <g id="patch_6">
     <path d="M 423.726562 38.437031 
L 439.726562 38.437031 
L 439.726562 32.837031 
L 423.726562 32.837031 
z
" style="fill: #b3cde3; fill-opacity: 0.6; stroke: #b3cde3; stroke-opacity: 0.6; stroke-linejoin: miter"/>
    </g>
    <g id="text_18">
     <!-- Utilization -->
     <g transform="translate(446.126562 38.437031) scale(0.08 -0.08)">
      <use xlink:href="#DejaVuSerif-55"/>
      <use xlink:href="#DejaVuSerif-74" transform="translate(84.277344 0)"/>
      <use xlink:href="#DejaVuSerif-69" transform="translate(124.462891 0)"/>
      <use xlink:href="#DejaVuSerif-6c" transform="translate(156.445312 0)"/>
      <use xlink:href="#DejaVuSerif-69" transform="translate(188.427734 0)"/>
      <use xlink:href="#DejaVuSerif-7a" transform="translate(220.410156 0)"/>
      <use xlink:href="#DejaVuSerif-61" transform="translate(273.095703 0)"/>
      <use xlink:href="#DejaVuSerif-74" transform="translate(332.714844 0)"/>
      <use xlink:href="#DejaVuSerif-69" transform="translate(372.900391 0)"/>
      <use xlink:href="#DejaVuSerif-6f" transform="translate(404.882812 0)"/>
      <use xlink:href="#DejaVuSerif-6e" transform="translate(465.087891 0)"/>
     </g>
    </g>
    <g id="line2d_32">
     <path d="M 423.726562 47.379531 
L 431.726562 47.379531 
L 439.726562 47.379531 
" style="fill: none; stroke: #cc3333; stroke-width: 1.5; stroke-linecap: square"/>
    </g>
    <g id="text_19">
     <!-- 7d avg -->
     <g transform="translate(446.126562 50.179531) scale(0.08 -0.08)">
      <defs>
       <path id="DejaVuSerif-64" d="M 3359 331 
L 3909 331 
L 3909 0 
L 2784 0 
L 2784 519 
Q 2616 206 2355 57 
Q 2094 -91 1709 -91 
Q 1097 -91 708 395 
Q 319 881 319 1663 
Q 319 2444 706 2928 
Q 1094 3413 1709 3413 
Q 2094 3413 2355 3264 
Q 2616 3116 2784 2803 
L 2784 4531 
L 2241 4531 
L 2241 4863 
L 3359 4863 
L 3359 331 
z
M 2784 1497 
L 2784 1825 
Q 2784 2422 2554 2737 
Q 2325 3053 1888 3053 
Q 1444 3053 1217 2703 
Q 991 2353 991 1663 
Q 991 975 1217 622 
Q 1444 269 1888 269 
Q 2325 269 2554 583 
Q 2784 897 2784 1497 
z
" transform="scale(0.015625)"/>
       <path id="DejaVuSerif-67" d="M 3359 2988 
L 3359 72 
Q 3359 -644 2965 -1033 
Q 2572 -1422 1844 -1422 
Q 1516 -1422 1216 -1362 
Q 916 -1303 641 -1184 
L 641 -488 
L 941 -488 
Q 997 -813 1206 -963 
Q 1416 -1113 1806 -1113 
Q 2313 -1113 2548 -827 
Q 2784 -541 2784 72 
L 2784 519 
Q 2616 206 2355 57 
Q 2094 -91 1709 -91 
Q 1097 -91 708 395 
Q 319 881 319 1663 
Q 319 2444 706 2928 
Q 1094 3413 1709 3413 
Q 2094 3413 2355 3264 
Q 2616 3116 2784 2803 
L 2784 3322 
L 3909 3322 
L 3909 2988 
L 3359 2988 
z
M 2784 1825 
Q 2784 2422 2554 2737 
Q 2325 3053 1888 3053 
Q 1444 3053 1217 2703 
Q 991 2353 991 1663 
Q 991 975 1217 622 
Q 1444 269 1888 269 
Q 2325 269 2554 583 
Q 2784 897 2784 1497 
L 2784 1825 
z
" transform="scale(0.015625)"/>
      </defs>
      <use xlink:href="#DejaVuSerif-37"/>
      <use xlink:href="#DejaVuSerif-64" transform="translate(63.623047 0)"/>
      <use xlink:href="#DejaVuSerif-20" transform="translate(127.636719 0)"/>
      <use xlink:href="#DejaVuSerif-61" transform="translate(159.423828 0)"/>
      <use xlink:href="#DejaVuSerif-76" transform="translate(219.042969 0)"/>
      <use xlink:href="#DejaVuSerif-67" transform="translate(275.537109 0)"/>
     </g>
    </g>
   </g>
  </g>
 </g>
 <defs>
  <clipPath id="pa3857b4f4b">
   <rect x="43.232813" y="25.158281" width="452.455" height="139.036079"/>
  </clipPath>
 </defs>
</svg>
