<svg xmlns="http://www.w3.org/2000/svg" viewBox="0 0 750 380" font-family="Helvetica, Arial, sans-serif">
<rect width="750" height="380" fill="#fff"/>
<text x="80" y="18" font-size="11" font-weight="600" fill="#222">Polkadot DA: Historical Cost per MiB per Day (USD, log scale)</text>
<text x="80" y="30" font-size="7" fill="#888">30 purchases  ·  100 renewals  ·  using DOT/USD at time of each event</text>
<defs><clipPath id="ctcp"><rect x="80" y="44" width="650" height="276"/></clipPath></defs>
<line x1="80" y1="320.0" x2="730" y2="320.0" stroke="#ddd" stroke-width="0.7"/>
<text x="75" y="323.0" text-anchor="end" font-size="6.5" fill="#444">$1e-6</text>
<line x1="80" y1="278.5" x2="730" y2="278.5" stroke="#f0f0f0" stroke-width="0.4"/>
<line x1="80" y1="223.5" x2="730" y2="223.5" stroke="#f0f0f0" stroke-width="0.4"/>
<line x1="80" y1="182.0" x2="730" y2="182.0" stroke="#ddd" stroke-width="0.7"/>
<text x="75" y="185.0" text-anchor="end" font-size="6.5" fill="#444">$1e-5</text>
<line x1="80" y1="140.5" x2="730" y2="140.5" stroke="#f0f0f0" stroke-width="0.4"/>
<line x1="80" y1="85.5" x2="730" y2="85.5" stroke="#f0f0f0" stroke-width="0.4"/>
<line x1="80" y1="44.0" x2="730" y2="44.0" stroke="#ddd" stroke-width="0.7"/>
<text x="75" y="47.0" text-anchor="end" font-size="6.5" fill="#444">$1e-4</text>
<line x1="80" y1="44" x2="80" y2="320" stroke="#333" stroke-width="0.7"/>
<line x1="80" y1="320" x2="730" y2="320" stroke="#333" stroke-width="0.7"/>
<text x="16" y="182" text-anchor="middle" font-size="8" fill="#444" transform="rotate(-90,16,182)">USD / MiB / day (log)</text>
<circle clip-path="url(#ctcp)" cx="222.0" cy="159.3" r="3" fill="#2a9d8f" opacity="0.7"/>
<circle clip-path="url(#ctcp)" cx="244.4" cy="225.6" r="3" fill="#2a9d8f" opacity="0.7"/>
<circle clip-path="url(#ctcp)" cx="244.4" cy="225.6" r="3" fill="#2a9d8f" opacity="0.7"/>
<circle clip-path="url(#ctcp)" cx="251.8" cy="224.3" r="3" fill="#2a9d8f" opacity="0.7"/>
<circle clip-path="url(#ctcp)" cx="251.8" cy="224.3" r="3" fill="#2a9d8f" opacity="0.7"/>
<circle clip-path="url(#ctcp)" cx="266.8" cy="222.5" r="3" fill="#2a9d8f" opacity="0.7"/>
<circle clip-path="url(#ctcp)" cx="401.3" cy="111.2" r="3" fill="#2a9d8f" opacity="0.7"/>
<circle clip-path="url(#ctcp)" cx="446.1" cy="224.5" r="3" fill="#2a9d8f" opacity="0.7"/>
<circle clip-path="url(#ctcp)" cx="453.6" cy="224.1" r="3" fill="#2a9d8f" opacity="0.7"/>
<circle clip-path="url(#ctcp)" cx="461.0" cy="222.1" r="3" fill="#2a9d8f" opacity="0.7"/>
<circle clip-path="url(#ctcp)" cx="461.0" cy="222.1" r="3" fill="#2a9d8f" opacity="0.7"/>
<circle clip-path="url(#ctcp)" cx="468.5" cy="221.6" r="3" fill="#2a9d8f" opacity="0.7"/>
<circle clip-path="url(#ctcp)" cx="468.5" cy="221.6" r="3" fill="#2a9d8f" opacity="0.7"/>
<circle clip-path="url(#ctcp)" cx="617.9" cy="117.4" r="3" fill="#2a9d8f" opacity="0.7"/>
<circle clip-path="url(#ctcp)" cx="617.9" cy="117.4" r="3" fill="#2a9d8f" opacity="0.7"/>
<circle clip-path="url(#ctcp)" cx="662.8" cy="245.4" r="3" fill="#2a9d8f" opacity="0.7"/>
<circle clip-path="url(#ctcp)" cx="662.8" cy="245.4" r="3" fill="#2a9d8f" opacity="0.7"/>
<circle clip-path="url(#ctcp)" cx="662.8" cy="245.4" r="3" fill="#2a9d8f" opacity="0.7"/>
<circle clip-path="url(#ctcp)" cx="662.8" cy="245.4" r="3" fill="#2a9d8f" opacity="0.7"/>
<circle clip-path="url(#ctcp)" cx="662.8" cy="245.4" r="3" fill="#2a9d8f" opacity="0.7"/>
<circle clip-path="url(#ctcp)" cx="662.8" cy="245.4" r="3" fill="#2a9d8f" opacity="0.7"/>
<circle clip-path="url(#ctcp)" cx="662.8" cy="245.4" r="3" fill="#2a9d8f" opacity="0.7"/>
<circle clip-path="url(#ctcp)" cx="662.8" cy="245.4" r="3" fill="#2a9d8f" opacity="0.7"/>
<circle clip-path="url(#ctcp)" cx="662.8" cy="245.4" r="3" fill="#2a9d8f" opacity="0.7"/>
<circle clip-path="url(#ctcp)" cx="662.8" cy="245.4" r="3" fill="#2a9d8f" opacity="0.7"/>
<circle clip-path="url(#ctcp)" cx="662.8" cy="245.4" r="3" fill="#2a9d8f" opacity="0.7"/>
<circle clip-path="url(#ctcp)" cx="662.8" cy="245.4" r="3" fill="#2a9d8f" opacity="0.7"/>
<circle clip-path="url(#ctcp)" cx="670.2" cy="243.6" r="3" fill="#2a9d8f" opacity="0.7"/>
<circle clip-path="url(#ctcp)" cx="677.7" cy="245.7" r="3" fill="#2a9d8f" opacity="0.7"/>
<circle clip-path="url(#ctcp)" cx="685.2" cy="246.8" r="3" fill="#2a9d8f" opacity="0.7"/>
<circle clip-path="url(#ctcp)" cx="80.0" cy="203.7" r="3" fill="#e76f51" opacity="0.7"/>
<circle clip-path="url(#ctcp)" cx="87.5" cy="204.5" r="3" fill="#e76f51" opacity="0.7"/>
<circle clip-path="url(#ctcp)" cx="87.5" cy="204.5" r="3" fill="#e76f51" opacity="0.7"/>
<circle clip-path="url(#ctcp)" cx="87.5" cy="208.0" r="3" fill="#e76f51" opacity="0.7"/>
<circle clip-path="url(#ctcp)" cx="87.5" cy="176.2" r="3" fill="#e76f51" opacity="0.7"/>
<circle clip-path="url(#ctcp)" cx="87.5" cy="101.2" r="3" fill="#e76f51" opacity="0.7"/>
<circle clip-path="url(#ctcp)" cx="87.5" cy="204.5" r="3" fill="#e76f51" opacity="0.7"/>
<circle clip-path="url(#ctcp)" cx="87.5" cy="206.3" r="3" fill="#e76f51" opacity="0.7"/>
<circle clip-path="url(#ctcp)" cx="87.5" cy="204.5" r="3" fill="#e76f51" opacity="0.7"/>
<circle clip-path="url(#ctcp)" cx="87.5" cy="101.2" r="3" fill="#e76f51" opacity="0.7"/>
<circle clip-path="url(#ctcp)" cx="94.9" cy="211.1" r="3" fill="#e76f51" opacity="0.7"/>
<circle clip-path="url(#ctcp)" cx="94.9" cy="211.1" r="3" fill="#e76f51" opacity="0.7"/>
<circle clip-path="url(#ctcp)" cx="94.9" cy="211.1" r="3" fill="#e76f51" opacity="0.7"/>
<circle clip-path="url(#ctcp)" cx="94.9" cy="211.1" r="3" fill="#e76f51" opacity="0.7"/>
<circle clip-path="url(#ctcp)" cx="94.9" cy="211.1" r="3" fill="#e76f51" opacity="0.7"/>
<circle clip-path="url(#ctcp)" cx="94.9" cy="211.1" r="3" fill="#e76f51" opacity="0.7"/>
<circle clip-path="url(#ctcp)" cx="94.9" cy="211.1" r="3" fill="#e76f51" opacity="0.7"/>
<circle clip-path="url(#ctcp)" cx="117.4" cy="210.3" r="3" fill="#e76f51" opacity="0.7"/>
<circle clip-path="url(#ctcp)" cx="124.8" cy="215.0" r="3" fill="#e76f51" opacity="0.7"/>
<circle clip-path="url(#ctcp)" cx="124.8" cy="218.5" r="3" fill="#e76f51" opacity="0.7"/>
<circle clip-path="url(#ctcp)" cx="132.3" cy="216.0" r="3" fill="#e76f51" opacity="0.7"/>
<circle clip-path="url(#ctcp)" cx="139.8" cy="220.9" r="3" fill="#e76f51" opacity="0.7"/>
<circle clip-path="url(#ctcp)" cx="281.7" cy="83.9" r="3" fill="#e76f51" opacity="0.7"/>
<circle clip-path="url(#ctcp)" cx="281.7" cy="224.2" r="3" fill="#e76f51" opacity="0.7"/>
<circle clip-path="url(#ctcp)" cx="281.7" cy="224.2" r="3" fill="#e76f51" opacity="0.7"/>
<circle clip-path="url(#ctcp)" cx="281.7" cy="222.4" r="3" fill="#e76f51" opacity="0.7"/>
<circle clip-path="url(#ctcp)" cx="281.7" cy="226.0" r="3" fill="#e76f51" opacity="0.7"/>
<circle clip-path="url(#ctcp)" cx="281.7" cy="222.4" r="3" fill="#e76f51" opacity="0.7"/>
<circle clip-path="url(#ctcp)" cx="289.2" cy="221.7" r="3" fill="#e76f51" opacity="0.7"/>
<circle clip-path="url(#ctcp)" cx="289.2" cy="227.0" r="3" fill="#e76f51" opacity="0.7"/>
<circle clip-path="url(#ctcp)" cx="289.2" cy="227.0" r="3" fill="#e76f51" opacity="0.7"/>
<circle clip-path="url(#ctcp)" cx="289.2" cy="225.2" r="3" fill="#e76f51" opacity="0.7"/>
<circle clip-path="url(#ctcp)" cx="289.2" cy="221.7" r="3" fill="#e76f51" opacity="0.7"/>
<circle clip-path="url(#ctcp)" cx="296.7" cy="227.7" r="3" fill="#e76f51" opacity="0.7"/>
<circle clip-path="url(#ctcp)" cx="296.7" cy="195.8" r="3" fill="#e76f51" opacity="0.7"/>
<circle clip-path="url(#ctcp)" cx="296.7" cy="224.2" r="3" fill="#e76f51" opacity="0.7"/>
<circle clip-path="url(#ctcp)" cx="296.7" cy="120.9" r="3" fill="#e76f51" opacity="0.7"/>
<circle clip-path="url(#ctcp)" cx="296.7" cy="120.9" r="3" fill="#e76f51" opacity="0.7"/>
<circle clip-path="url(#ctcp)" cx="296.7" cy="225.9" r="3" fill="#e76f51" opacity="0.7"/>
<circle clip-path="url(#ctcp)" cx="304.1" cy="225.9" r="3" fill="#e76f51" opacity="0.7"/>
<circle clip-path="url(#ctcp)" cx="326.6" cy="234.1" r="3" fill="#e76f51" opacity="0.7"/>
<circle clip-path="url(#ctcp)" cx="326.6" cy="234.1" r="3" fill="#e76f51" opacity="0.7"/>
<circle clip-path="url(#ctcp)" cx="326.6" cy="234.1" r="3" fill="#e76f51" opacity="0.7"/>
<circle clip-path="url(#ctcp)" cx="326.6" cy="234.1" r="3" fill="#e76f51" opacity="0.7"/>
<circle clip-path="url(#ctcp)" cx="326.6" cy="234.1" r="3" fill="#e76f51" opacity="0.7"/>
<circle clip-path="url(#ctcp)" cx="349.0" cy="232.6" r="3" fill="#e76f51" opacity="0.7"/>
<circle clip-path="url(#ctcp)" cx="401.3" cy="231.1" r="3" fill="#e76f51" opacity="0.7"/>
<circle clip-path="url(#ctcp)" cx="490.9" cy="80.2" r="3" fill="#e76f51" opacity="0.7"/>
<circle clip-path="url(#ctcp)" cx="490.9" cy="220.5" r="3" fill="#e76f51" opacity="0.7"/>
<circle clip-path="url(#ctcp)" cx="490.9" cy="220.5" r="3" fill="#e76f51" opacity="0.7"/>
<circle clip-path="url(#ctcp)" cx="490.9" cy="218.7" r="3" fill="#e76f51" opacity="0.7"/>
<circle clip-path="url(#ctcp)" cx="490.9" cy="222.2" r="3" fill="#e76f51" opacity="0.7"/>
<circle clip-path="url(#ctcp)" cx="490.9" cy="218.7" r="3" fill="#e76f51" opacity="0.7"/>
<circle clip-path="url(#ctcp)" cx="498.4" cy="218.4" r="3" fill="#e76f51" opacity="0.7"/>
<circle clip-path="url(#ctcp)" cx="498.4" cy="225.5" r="3" fill="#e76f51" opacity="0.7"/>
<circle clip-path="url(#ctcp)" cx="505.9" cy="224.5" r="3" fill="#e76f51" opacity="0.7"/>
<circle clip-path="url(#ctcp)" cx="505.9" cy="224.5" r="3" fill="#e76f51" opacity="0.7"/>
<circle clip-path="url(#ctcp)" cx="505.9" cy="222.7" r="3" fill="#e76f51" opacity="0.7"/>
<circle clip-path="url(#ctcp)" cx="505.9" cy="219.2" r="3" fill="#e76f51" opacity="0.7"/>
<circle clip-path="url(#ctcp)" cx="505.9" cy="222.7" r="3" fill="#e76f51" opacity="0.7"/>
<circle clip-path="url(#ctcp)" cx="505.9" cy="222.7" r="3" fill="#e76f51" opacity="0.7"/>
<circle clip-path="url(#ctcp)" cx="505.9" cy="222.7" r="3" fill="#e76f51" opacity="0.7"/>
<circle clip-path="url(#ctcp)" cx="505.9" cy="222.7" r="3" fill="#e76f51" opacity="0.7"/>
<circle clip-path="url(#ctcp)" cx="505.9" cy="222.7" r="3" fill="#e76f51" opacity="0.7"/>
<circle clip-path="url(#ctcp)" cx="505.9" cy="219.2" r="3" fill="#e76f51" opacity="0.7"/>
<circle clip-path="url(#ctcp)" cx="505.9" cy="115.9" r="3" fill="#e76f51" opacity="0.7"/>
<circle clip-path="url(#ctcp)" cx="505.9" cy="219.2" r="3" fill="#e76f51" opacity="0.7"/>
<circle clip-path="url(#ctcp)" cx="505.9" cy="222.7" r="3" fill="#e76f51" opacity="0.7"/>
<circle clip-path="url(#ctcp)" cx="513.3" cy="191.2" r="3" fill="#e76f51" opacity="0.7"/>
<circle clip-path="url(#ctcp)" cx="520.8" cy="216.9" r="3" fill="#e76f51" opacity="0.7"/>
<circle clip-path="url(#ctcp)" cx="528.3" cy="111.4" r="3" fill="#e76f51" opacity="0.7"/>
<circle clip-path="url(#ctcp)" cx="543.2" cy="221.1" r="3" fill="#e76f51" opacity="0.7"/>
<circle clip-path="url(#ctcp)" cx="580.6" cy="229.8" r="3" fill="#e76f51" opacity="0.7"/>
<circle clip-path="url(#ctcp)" cx="700.1" cy="251.0" r="3" fill="#e76f51" opacity="0.7"/>
<circle clip-path="url(#ctcp)" cx="700.1" cy="103.6" r="3" fill="#e76f51" opacity="0.7"/>
<circle clip-path="url(#ctcp)" cx="700.1" cy="243.9" r="3" fill="#e76f51" opacity="0.7"/>
<circle clip-path="url(#ctcp)" cx="700.1" cy="243.9" r="3" fill="#e76f51" opacity="0.7"/>
<circle clip-path="url(#ctcp)" cx="700.1" cy="242.1" r="3" fill="#e76f51" opacity="0.7"/>
<circle clip-path="url(#ctcp)" cx="700.1" cy="245.7" r="3" fill="#e76f51" opacity="0.7"/>
<circle clip-path="url(#ctcp)" cx="700.1" cy="242.1" r="3" fill="#e76f51" opacity="0.7"/>
<circle clip-path="url(#ctcp)" cx="707.6" cy="250.7" r="3" fill="#e76f51" opacity="0.7"/>
<circle clip-path="url(#ctcp)" cx="707.6" cy="138.5" r="3" fill="#e76f51" opacity="0.7"/>
<circle clip-path="url(#ctcp)" cx="715.1" cy="252.2" r="3" fill="#e76f51" opacity="0.7"/>
<circle clip-path="url(#ctcp)" cx="715.1" cy="248.7" r="3" fill="#e76f51" opacity="0.7"/>
<circle clip-path="url(#ctcp)" cx="715.1" cy="246.9" r="3" fill="#e76f51" opacity="0.7"/>
<circle clip-path="url(#ctcp)" cx="715.1" cy="243.3" r="3" fill="#e76f51" opacity="0.7"/>
<circle clip-path="url(#ctcp)" cx="715.1" cy="243.3" r="3" fill="#e76f51" opacity="0.7"/>
<circle clip-path="url(#ctcp)" cx="715.1" cy="250.4" r="3" fill="#e76f51" opacity="0.7"/>
<circle clip-path="url(#ctcp)" cx="715.1" cy="252.2" r="3" fill="#e76f51" opacity="0.7"/>
<circle clip-path="url(#ctcp)" cx="715.1" cy="246.9" r="3" fill="#e76f51" opacity="0.7"/>
<circle clip-path="url(#ctcp)" cx="715.1" cy="246.9" r="3" fill="#e76f51" opacity="0.7"/>
<circle clip-path="url(#ctcp)" cx="722.5" cy="247.7" r="3" fill="#e76f51" opacity="0.7"/>
<circle clip-path="url(#ctcp)" cx="722.5" cy="247.7" r="3" fill="#e76f51" opacity="0.7"/>
<circle clip-path="url(#ctcp)" cx="722.5" cy="247.7" r="3" fill="#e76f51" opacity="0.7"/>
<circle clip-path="url(#ctcp)" cx="722.5" cy="247.7" r="3" fill="#e76f51" opacity="0.7"/>
<circle clip-path="url(#ctcp)" cx="722.5" cy="247.7" r="3" fill="#e76f51" opacity="0.7"/>
<circle clip-path="url(#ctcp)" cx="722.5" cy="244.2" r="3" fill="#e76f51" opacity="0.7"/>
<circle clip-path="url(#ctcp)" cx="722.5" cy="215.9" r="3" fill="#e76f51" opacity="0.7"/>
<circle clip-path="url(#ctcp)" cx="722.5" cy="253.0" r="3" fill="#e76f51" opacity="0.7"/>
<circle clip-path="url(#ctcp)" cx="730.0" cy="254.8" r="3" fill="#e76f51" opacity="0.7"/>
<line clip-path="url(#ctcp)" x1="80" y1="225.6" x2="730" y2="225.6" stroke="#2a9d8f" stroke-width="1" stroke-dasharray="6,3" opacity="0.6"/>
<line clip-path="url(#ctcp)" x1="80" y1="222.7" x2="730" y2="222.7" stroke="#e76f51" stroke-width="1" stroke-dasharray="6,3" opacity="0.6"/>
<line x1="80.0" y1="320" x2="80.0" y2="323" stroke="#333" stroke-width="0.5"/>
<text x="80.0" y="334" text-anchor="middle" font-size="6.5" fill="#666">Nov 16</text>
<line x1="161.3" y1="320" x2="161.3" y2="323" stroke="#333" stroke-width="0.5"/>
<text x="161.3" y="334" text-anchor="middle" font-size="6.5" fill="#666">Nov 26</text>
<line x1="242.5" y1="320" x2="242.5" y2="323" stroke="#333" stroke-width="0.5"/>
<text x="242.5" y="334" text-anchor="middle" font-size="6.5" fill="#666">Dec 7</text>
<line x1="323.8" y1="320" x2="323.8" y2="323" stroke="#333" stroke-width="0.5"/>
<text x="323.8" y="334" text-anchor="middle" font-size="6.5" fill="#666">Dec 18</text>
<line x1="405.0" y1="320" x2="405.0" y2="323" stroke="#333" stroke-width="0.5"/>
<text x="405.0" y="334" text-anchor="middle" font-size="6.5" fill="#666">Dec 29</text>
<line x1="486.3" y1="320" x2="486.3" y2="323" stroke="#333" stroke-width="0.5"/>
<text x="486.3" y="334" text-anchor="middle" font-size="6.5" fill="#666">Jan 9</text>
<line x1="567.5" y1="320" x2="567.5" y2="323" stroke="#333" stroke-width="0.5"/>
<text x="567.5" y="334" text-anchor="middle" font-size="6.5" fill="#666">Jan 20</text>
<line x1="648.8" y1="320" x2="648.8" y2="323" stroke="#333" stroke-width="0.5"/>
<text x="648.8" y="334" text-anchor="middle" font-size="6.5" fill="#666">Jan 31</text>
<line x1="730.0" y1="320" x2="730.0" y2="323" stroke="#333" stroke-width="0.5"/>
<text x="730.0" y="334" text-anchor="middle" font-size="6.5" fill="#666">Feb 11</text>
<text x="405" y="374" text-anchor="middle" font-size="8" fill="#444">Date</text>
<rect x="516" y="45" width="214" height="45" rx="2" fill="white" fill-opacity="0.9" stroke="#eee" stroke-width="0.5"/>
<circle cx="525" cy="52" r="3" fill="#2a9d8f" opacity="0.7"/>
<text x="532" y="55" font-size="6.5" fill="#444">Purchase (median $4.83e-6/MiB/day)</text>
<circle cx="525" cy="65" r="3" fill="#e76f51" opacity="0.7"/>
<text x="532" y="68" font-size="6.5" fill="#444">Renewal (median $5.07e-6/MiB/day)</text>
<line x1="520" y1="78" x2="534" y2="78" stroke="#2a9d8f" stroke-width="1" stroke-dasharray="6,3" opacity="0.6"/>
<text x="538" y="81" font-size="6.5" fill="#444">Median lines</text>
</svg>
