<svg xmlns="http://www.w3.org/2000/svg" viewBox="0 0 750 460" font-family="Helvetica, Arial, sans-serif">
<rect width="750" height="460" fill="#fff"/>
<text x="56" y="18" font-size="11" font-weight="600" fill="#222">Coretime Market: Prices &amp; Utilization per Sale Cycle</text>
<text x="56" y="30" font-size="7" fill="#888">3 sales  ·  30 purchases  ·  100 renewals  ·  DOT/USD $1.28</text>
<defs>
  <clipPath id="cpTop"><rect x="56" y="44" width="674" height="87"/></clipPath>
  <clipPath id="cpBot"><rect x="56" y="145" width="674" height="259"/></clipPath>
</defs>
<rect clip-path="url(#cpTop)" x="264.7" y="44" width="217.9" height="87" fill="#f0f4ff"/>
<rect clip-path="url(#cpTop)" x="482.6" y="44" width="217.5" height="87" fill="#fff6f0"/>
<rect clip-path="url(#cpTop)" x="700.1" y="44" width="29.9" height="87" fill="#f0f4ff"/>
<line x1="56" y1="131.0" x2="730" y2="131.0" stroke="#e0e0e0" stroke-width="0.5"/>
<text x="52" y="134.0" text-anchor="end" font-size="6" fill="#999">0</text>
<line x1="56" y1="96.5" x2="730" y2="96.5" stroke="#e0e0e0" stroke-width="0.5"/>
<text x="52" y="99.5" text-anchor="end" font-size="6" fill="#999">50</text>
<line x1="56" y1="62.0" x2="730" y2="62.0" stroke="#e0e0e0" stroke-width="0.5"/>
<text x="52" y="65.0" text-anchor="end" font-size="6" fill="#999">100</text>
<line x1="56" y1="44" x2="56" y2="131" stroke="#333" stroke-width="0.7"/>
<line x1="56" y1="131" x2="730" y2="131" stroke="#333" stroke-width="0.7"/>
<text x="728" y="54" text-anchor="end" font-size="6.5" font-style="italic" fill="#999">full range</text>
<circle clip-path="url(#cpTop)" cx="199.9" cy="111.9" r="2" fill="#2a9d8f" opacity="0.5"/>
<circle clip-path="url(#cpTop)" cx="225.1" cy="124.1" r="2" fill="#2a9d8f" opacity="0.5"/>
<circle clip-path="url(#cpTop)" cx="224.6" cy="124.1" r="2" fill="#2a9d8f" opacity="0.5"/>
<circle clip-path="url(#cpTop)" cx="228.8" cy="124.1" r="2" fill="#2a9d8f" opacity="0.5"/>
<circle clip-path="url(#cpTop)" cx="229.2" cy="124.1" r="2" fill="#2a9d8f" opacity="0.5"/>
<circle clip-path="url(#cpTop)" cx="249.3" cy="124.1" r="2" fill="#2a9d8f" opacity="0.5"/>
<circle clip-path="url(#cpTop)" cx="386.9" cy="78.4" r="2" fill="#2a9d8f" opacity="0.5"/>
<circle clip-path="url(#cpTop)" cx="433.8" cy="124.1" r="2" fill="#2a9d8f" opacity="0.5"/>
<circle clip-path="url(#cpTop)" cx="438.9" cy="124.1" r="2" fill="#2a9d8f" opacity="0.5"/>
<circle clip-path="url(#cpTop)" cx="447.4" cy="124.1" r="2" fill="#2a9d8f" opacity="0.5"/>
<circle clip-path="url(#cpTop)" cx="452.2" cy="124.1" r="2" fill="#2a9d8f" opacity="0.5"/>
<circle clip-path="url(#cpTop)" cx="458.6" cy="124.1" r="2" fill="#2a9d8f" opacity="0.5"/>
<circle clip-path="url(#cpTop)" cx="457.6" cy="124.1" r="2" fill="#2a9d8f" opacity="0.5"/>
<circle clip-path="url(#cpTop)" cx="612.1" cy="84.2" r="2" fill="#2a9d8f" opacity="0.5"/>
<circle clip-path="url(#cpTop)" cx="610.3" cy="84.2" r="2" fill="#2a9d8f" opacity="0.5"/>
<circle clip-path="url(#cpTop)" cx="658.5" cy="124.1" r="2" fill="#2a9d8f" opacity="0.5"/>
<circle clip-path="url(#cpTop)" cx="658.5" cy="124.1" r="2" fill="#2a9d8f" opacity="0.5"/>
<circle clip-path="url(#cpTop)" cx="657.6" cy="124.1" r="2" fill="#2a9d8f" opacity="0.5"/>
<circle clip-path="url(#cpTop)" cx="658.4" cy="124.1" r="2" fill="#2a9d8f" opacity="0.5"/>
<circle clip-path="url(#cpTop)" cx="657.6" cy="124.1" r="2" fill="#2a9d8f" opacity="0.5"/>
<circle clip-path="url(#cpTop)" cx="657.0" cy="124.1" r="2" fill="#2a9d8f" opacity="0.5"/>
<circle clip-path="url(#cpTop)" cx="657.7" cy="124.1" r="2" fill="#2a9d8f" opacity="0.5"/>
<circle clip-path="url(#cpTop)" cx="659.4" cy="124.1" r="2" fill="#2a9d8f" opacity="0.5"/>
<circle clip-path="url(#cpTop)" cx="657.2" cy="124.1" r="2" fill="#2a9d8f" opacity="0.5"/>
<circle clip-path="url(#cpTop)" cx="659.4" cy="124.1" r="2" fill="#2a9d8f" opacity="0.5"/>
<circle clip-path="url(#cpTop)" cx="659.0" cy="124.1" r="2" fill="#2a9d8f" opacity="0.5"/>
<circle clip-path="url(#cpTop)" cx="658.8" cy="124.1" r="2" fill="#2a9d8f" opacity="0.5"/>
<circle clip-path="url(#cpTop)" cx="664.2" cy="124.1" r="2" fill="#2a9d8f" opacity="0.5"/>
<circle clip-path="url(#cpTop)" cx="673.5" cy="124.1" r="2" fill="#2a9d8f" opacity="0.5"/>
<circle clip-path="url(#cpTop)" cx="676.0" cy="124.1" r="2" fill="#2a9d8f" opacity="0.5"/>
<circle clip-path="url(#cpTop)" cx="55.9" cy="123.7" r="1.5" fill="#e76f51" opacity="0.45"/>
<circle clip-path="url(#cpTop)" cx="60.0" cy="123.7" r="1.5" fill="#e76f51" opacity="0.45"/>
<circle clip-path="url(#cpTop)" cx="59.3" cy="123.7" r="1.5" fill="#e76f51" opacity="0.45"/>
<circle clip-path="url(#cpTop)" cx="60.7" cy="124.1" r="1.5" fill="#e76f51" opacity="0.45"/>
<circle clip-path="url(#cpTop)" cx="62.0" cy="119.3" r="1.5" fill="#e76f51" opacity="0.45"/>
<circle clip-path="url(#cpTop)" cx="61.8" cy="90.0" r="1.5" fill="#e76f51" opacity="0.45"/>
<circle clip-path="url(#cpTop)" cx="62.6" cy="123.7" r="1.5" fill="#e76f51" opacity="0.45"/>
<circle clip-path="url(#cpTop)" cx="63.8" cy="123.9" r="1.5" fill="#e76f51" opacity="0.45"/>
<circle clip-path="url(#cpTop)" cx="64.0" cy="123.7" r="1.5" fill="#e76f51" opacity="0.45"/>
<circle clip-path="url(#cpTop)" cx="63.1" cy="90.0" r="1.5" fill="#e76f51" opacity="0.45"/>
<circle clip-path="url(#cpTop)" cx="66.0" cy="124.1" r="1.5" fill="#e76f51" opacity="0.45"/>
<circle clip-path="url(#cpTop)" cx="66.3" cy="124.1" r="1.5" fill="#e76f51" opacity="0.45"/>
<circle clip-path="url(#cpTop)" cx="65.1" cy="124.1" r="1.5" fill="#e76f51" opacity="0.45"/>
<circle clip-path="url(#cpTop)" cx="65.4" cy="124.1" r="1.5" fill="#e76f51" opacity="0.45"/>
<circle clip-path="url(#cpTop)" cx="65.6" cy="124.1" r="1.5" fill="#e76f51" opacity="0.45"/>
<circle clip-path="url(#cpTop)" cx="68.7" cy="124.1" r="1.5" fill="#e76f51" opacity="0.45"/>
<circle clip-path="url(#cpTop)" cx="70.6" cy="124.1" r="1.5" fill="#e76f51" opacity="0.45"/>
<circle clip-path="url(#cpTop)" cx="91.5" cy="123.7" r="1.5" fill="#e76f51" opacity="0.45"/>
<circle clip-path="url(#cpTop)" cx="99.0" cy="123.7" r="1.5" fill="#e76f51" opacity="0.45"/>
<circle clip-path="url(#cpTop)" cx="100.3" cy="124.1" r="1.5" fill="#e76f51" opacity="0.45"/>
<circle clip-path="url(#cpTop)" cx="110.7" cy="123.7" r="1.5" fill="#e76f51" opacity="0.45"/>
<circle clip-path="url(#cpTop)" cx="117.8" cy="124.1" r="1.5" fill="#e76f51" opacity="0.45"/>
<circle clip-path="url(#cpTop)" cx="264.2" cy="54.9" r="1.5" fill="#e76f51" opacity="0.45"/>
<circle clip-path="url(#cpTop)" cx="265.3" cy="123.7" r="1.5" fill="#e76f51" opacity="0.45"/>
<circle clip-path="url(#cpTop)" cx="265.8" cy="123.7" r="1.5" fill="#e76f51" opacity="0.45"/>
<circle clip-path="url(#cpTop)" cx="265.4" cy="123.5" r="1.5" fill="#e76f51" opacity="0.45"/>
<circle clip-path="url(#cpTop)" cx="265.5" cy="123.9" r="1.5" fill="#e76f51" opacity="0.45"/>
<circle clip-path="url(#cpTop)" cx="265.4" cy="123.5" r="1.5" fill="#e76f51" opacity="0.45"/>
<circle clip-path="url(#cpTop)" cx="269.5" cy="123.5" r="1.5" fill="#e76f51" opacity="0.45"/>
<circle clip-path="url(#cpTop)" cx="272.6" cy="124.1" r="1.5" fill="#e76f51" opacity="0.45"/>
<circle clip-path="url(#cpTop)" cx="272.3" cy="124.1" r="1.5" fill="#e76f51" opacity="0.45"/>
<circle clip-path="url(#cpTop)" cx="273.5" cy="123.9" r="1.5" fill="#e76f51" opacity="0.45"/>
<circle clip-path="url(#cpTop)" cx="272.1" cy="123.5" r="1.5" fill="#e76f51" opacity="0.45"/>
<circle clip-path="url(#cpTop)" cx="277.6" cy="123.9" r="1.5" fill="#e76f51" opacity="0.45"/>
<circle clip-path="url(#cpTop)" cx="277.3" cy="118.9" r="1.5" fill="#e76f51" opacity="0.45"/>
<circle clip-path="url(#cpTop)" cx="277.5" cy="123.5" r="1.5" fill="#e76f51" opacity="0.45"/>
<circle clip-path="url(#cpTop)" cx="278.2" cy="88.7" r="1.5" fill="#e76f51" opacity="0.45"/>
<circle clip-path="url(#cpTop)" cx="277.0" cy="88.7" r="1.5" fill="#e76f51" opacity="0.45"/>
<circle clip-path="url(#cpTop)" cx="279.1" cy="123.7" r="1.5" fill="#e76f51" opacity="0.45"/>
<circle clip-path="url(#cpTop)" cx="287.3" cy="123.5" r="1.5" fill="#e76f51" opacity="0.45"/>
<circle clip-path="url(#cpTop)" cx="312.1" cy="123.9" r="1.5" fill="#e76f51" opacity="0.45"/>
<circle clip-path="url(#cpTop)" cx="311.6" cy="123.9" r="1.5" fill="#e76f51" opacity="0.45"/>
<circle clip-path="url(#cpTop)" cx="311.9" cy="123.9" r="1.5" fill="#e76f51" opacity="0.45"/>
<circle clip-path="url(#cpTop)" cx="312.4" cy="123.9" r="1.5" fill="#e76f51" opacity="0.45"/>
<circle clip-path="url(#cpTop)" cx="312.3" cy="123.9" r="1.5" fill="#e76f51" opacity="0.45"/>
<circle clip-path="url(#cpTop)" cx="332.2" cy="123.9" r="1.5" fill="#e76f51" opacity="0.45"/>
<circle clip-path="url(#cpTop)" cx="387.0" cy="123.9" r="1.5" fill="#e76f51" opacity="0.45"/>
<circle clip-path="url(#cpTop)" cx="482.7" cy="52.6" r="1.5" fill="#e76f51" opacity="0.45"/>
<circle clip-path="url(#cpTop)" cx="483.4" cy="123.5" r="1.5" fill="#e76f51" opacity="0.45"/>
<circle clip-path="url(#cpTop)" cx="481.4" cy="123.5" r="1.5" fill="#e76f51" opacity="0.45"/>
<circle clip-path="url(#cpTop)" cx="483.2" cy="123.2" r="1.5" fill="#e76f51" opacity="0.45"/>
<circle clip-path="url(#cpTop)" cx="483.5" cy="123.7" r="1.5" fill="#e76f51" opacity="0.45"/>
<circle clip-path="url(#cpTop)" cx="483.0" cy="123.2" r="1.5" fill="#e76f51" opacity="0.45"/>
<circle clip-path="url(#cpTop)" cx="485.1" cy="123.2" r="1.5" fill="#e76f51" opacity="0.45"/>
<circle clip-path="url(#cpTop)" cx="485.3" cy="124.1" r="1.5" fill="#e76f51" opacity="0.45"/>
<circle clip-path="url(#cpTop)" cx="492.6" cy="123.9" r="1.5" fill="#e76f51" opacity="0.45"/>
<circle clip-path="url(#cpTop)" cx="490.9" cy="123.9" r="1.5" fill="#e76f51" opacity="0.45"/>
<circle clip-path="url(#cpTop)" cx="492.8" cy="123.7" r="1.5" fill="#e76f51" opacity="0.45"/>
<circle clip-path="url(#cpTop)" cx="492.4" cy="123.2" r="1.5" fill="#e76f51" opacity="0.45"/>
<circle clip-path="url(#cpTop)" cx="492.5" cy="123.7" r="1.5" fill="#e76f51" opacity="0.45"/>
<circle clip-path="url(#cpTop)" cx="493.7" cy="123.7" r="1.5" fill="#e76f51" opacity="0.45"/>
<circle clip-path="url(#cpTop)" cx="493.9" cy="123.7" r="1.5" fill="#e76f51" opacity="0.45"/>
<circle clip-path="url(#cpTop)" cx="494.9" cy="123.7" r="1.5" fill="#e76f51" opacity="0.45"/>
<circle clip-path="url(#cpTop)" cx="492.8" cy="123.7" r="1.5" fill="#e76f51" opacity="0.45"/>
<circle clip-path="url(#cpTop)" cx="494.3" cy="123.2" r="1.5" fill="#e76f51" opacity="0.45"/>
<circle clip-path="url(#cpTop)" cx="493.1" cy="87.5" r="1.5" fill="#e76f51" opacity="0.45"/>
<circle clip-path="url(#cpTop)" cx="494.9" cy="123.2" r="1.5" fill="#e76f51" opacity="0.45"/>
<circle clip-path="url(#cpTop)" cx="494.7" cy="123.7" r="1.5" fill="#e76f51" opacity="0.45"/>
<circle clip-path="url(#cpTop)" cx="502.2" cy="118.5" r="1.5" fill="#e76f51" opacity="0.45"/>
<circle clip-path="url(#cpTop)" cx="510.4" cy="123.7" r="1.5" fill="#e76f51" opacity="0.45"/>
<circle clip-path="url(#cpTop)" cx="517.7" cy="87.5" r="1.5" fill="#e76f51" opacity="0.45"/>
<circle clip-path="url(#cpTop)" cx="532.2" cy="123.7" r="1.5" fill="#e76f51" opacity="0.45"/>
<circle clip-path="url(#cpTop)" cx="573.2" cy="124.1" r="1.5" fill="#e76f51" opacity="0.45"/>
<circle clip-path="url(#cpTop)" cx="699.2" cy="124.1" r="1.5" fill="#e76f51" opacity="0.45"/>
<circle clip-path="url(#cpTop)" cx="700.4" cy="50.3" r="1.5" fill="#e76f51" opacity="0.45"/>
<circle clip-path="url(#cpTop)" cx="701.1" cy="123.2" r="1.5" fill="#e76f51" opacity="0.45"/>
<circle clip-path="url(#cpTop)" cx="701.0" cy="123.2" r="1.5" fill="#e76f51" opacity="0.45"/>
<circle clip-path="url(#cpTop)" cx="700.9" cy="123.0" r="1.5" fill="#e76f51" opacity="0.45"/>
<circle clip-path="url(#cpTop)" cx="700.8" cy="123.5" r="1.5" fill="#e76f51" opacity="0.45"/>
<circle clip-path="url(#cpTop)" cx="699.9" cy="123.0" r="1.5" fill="#e76f51" opacity="0.45"/>
<circle clip-path="url(#cpTop)" cx="703.3" cy="124.1" r="1.5" fill="#e76f51" opacity="0.45"/>
<circle clip-path="url(#cpTop)" cx="704.1" cy="86.2" r="1.5" fill="#e76f51" opacity="0.45"/>
<circle clip-path="url(#cpTop)" cx="709.1" cy="124.1" r="1.5" fill="#e76f51" opacity="0.45"/>
<circle clip-path="url(#cpTop)" cx="710.3" cy="123.7" r="1.5" fill="#e76f51" opacity="0.45"/>
<circle clip-path="url(#cpTop)" cx="708.9" cy="123.5" r="1.5" fill="#e76f51" opacity="0.45"/>
<circle clip-path="url(#cpTop)" cx="709.6" cy="123.0" r="1.5" fill="#e76f51" opacity="0.45"/>
<circle clip-path="url(#cpTop)" cx="708.6" cy="123.0" r="1.5" fill="#e76f51" opacity="0.45"/>
<circle clip-path="url(#cpTop)" cx="710.2" cy="123.9" r="1.5" fill="#e76f51" opacity="0.45"/>
<circle clip-path="url(#cpTop)" cx="709.8" cy="124.1" r="1.5" fill="#e76f51" opacity="0.45"/>
<circle clip-path="url(#cpTop)" cx="709.0" cy="123.5" r="1.5" fill="#e76f51" opacity="0.45"/>
<circle clip-path="url(#cpTop)" cx="711.5" cy="123.5" r="1.5" fill="#e76f51" opacity="0.45"/>
<circle clip-path="url(#cpTop)" cx="718.5" cy="123.5" r="1.5" fill="#e76f51" opacity="0.45"/>
<circle clip-path="url(#cpTop)" cx="718.9" cy="123.5" r="1.5" fill="#e76f51" opacity="0.45"/>
<circle clip-path="url(#cpTop)" cx="719.0" cy="123.5" r="1.5" fill="#e76f51" opacity="0.45"/>
<circle clip-path="url(#cpTop)" cx="718.6" cy="123.5" r="1.5" fill="#e76f51" opacity="0.45"/>
<circle clip-path="url(#cpTop)" cx="719.7" cy="123.5" r="1.5" fill="#e76f51" opacity="0.45"/>
<circle clip-path="url(#cpTop)" cx="719.4" cy="123.0" r="1.5" fill="#e76f51" opacity="0.45"/>
<circle clip-path="url(#cpTop)" cx="719.8" cy="118.2" r="1.5" fill="#e76f51" opacity="0.45"/>
<circle clip-path="url(#cpTop)" cx="721.4" cy="124.1" r="1.5" fill="#e76f51" opacity="0.45"/>
<circle clip-path="url(#cpTop)" cx="730.6" cy="124.1" r="1.5" fill="#e76f51" opacity="0.45"/>
<rect clip-path="url(#cpTop)" x="56" y="122.0" width="674" height="2.7" fill="#4361ee" opacity="0.06" stroke="#4361ee" stroke-width="0.5" stroke-dasharray="3,2"/>
<rect clip-path="url(#cpBot)" x="264.7" y="145" width="217.9" height="259" fill="#f0f4ff"/>
<text x="373.6" y="156" text-anchor="middle" font-size="7" font-weight="600" fill="#555">32/72 cores (44%)</text>
<text x="373.6" y="166" text-anchor="middle" font-size="6" fill="#888">7 new · 25 renew</text>
<rect clip-path="url(#cpBot)" x="482.6" y="145" width="217.5" height="259" fill="#fff6f0"/>
<text x="591.3" y="156" text-anchor="middle" font-size="7" font-weight="600" fill="#555">43/72 cores (60%)</text>
<text x="591.3" y="166" text-anchor="middle" font-size="6" fill="#888">17 new · 26 renew</text>
<rect clip-path="url(#cpBot)" x="700.1" y="145" width="29.9" height="259" fill="#f0f4ff"/>
<text x="715.0" y="156" text-anchor="middle" font-size="7" font-weight="600" fill="#555">27/77 cores (35%)</text>
<text x="715.0" y="166" text-anchor="middle" font-size="6" fill="#888">0 new · 27 renew</text>
<line x1="56" y1="350.2" x2="730" y2="350.2" stroke="#e0e0e0" stroke-width="0.5"/>
<text x="52" y="353.2" text-anchor="end" font-size="6.5" fill="#666">10.0</text>
<line x1="56" y1="282.8" x2="730" y2="282.8" stroke="#e0e0e0" stroke-width="0.5"/>
<text x="52" y="285.8" text-anchor="end" font-size="6.5" fill="#666">11.0</text>
<line x1="56" y1="215.5" x2="730" y2="215.5" stroke="#e0e0e0" stroke-width="0.5"/>
<text x="52" y="218.5" text-anchor="end" font-size="6.5" fill="#666">12.0</text>
<line x1="56" y1="148.2" x2="730" y2="148.2" stroke="#e0e0e0" stroke-width="0.5"/>
<text x="52" y="151.2" text-anchor="end" font-size="6.5" fill="#666">13.0</text>
<line x1="56" y1="145" x2="56" y2="404" stroke="#333" stroke-width="0.7"/>
<line x1="56" y1="404" x2="730" y2="404" stroke="#333" stroke-width="0.7"/>
<text x="14" y="267.5" text-anchor="middle" font-size="8" fill="#444" transform="rotate(-90,14,267.5)">Price (DOT)</text>
<text x="728" y="156" text-anchor="end" font-size="6.5" font-style="italic" fill="#999">zoomed</text>
<line clip-path="url(#cpBot)" x1="56" y1="350.2" x2="730" y2="350.2" stroke="#4361ee" stroke-width="1.2" stroke-dasharray="6,3" opacity="0.5"/>
<text x="732" y="353.2" font-size="6" fill="#4361ee">10 DOT</text>
<line clip-path="url(#cpBot)" x1="56" y1="330.0" x2="730" y2="330.0" stroke="#e76f51" stroke-width="0.4" stroke-dasharray="2,4" opacity="0.35"/>
<text clip-path="url(#cpBot)" x="59" y="328.0" font-size="5" fill="#c06040" opacity="0.6">×1.03¹</text>
<line clip-path="url(#cpBot)" x1="56" y1="309.2" x2="730" y2="309.2" stroke="#e76f51" stroke-width="0.4" stroke-dasharray="2,4" opacity="0.35"/>
<text clip-path="url(#cpBot)" x="59" y="307.2" font-size="5" fill="#c06040" opacity="0.6">×1.03²</text>
<line clip-path="url(#cpBot)" x1="56" y1="287.7" x2="730" y2="287.7" stroke="#e76f51" stroke-width="0.4" stroke-dasharray="2,4" opacity="0.35"/>
<text clip-path="url(#cpBot)" x="59" y="285.7" font-size="5" fill="#c06040" opacity="0.6">×1.03³</text>
<line clip-path="url(#cpBot)" x1="56" y1="265.7" x2="730" y2="265.7" stroke="#e76f51" stroke-width="0.4" stroke-dasharray="2,4" opacity="0.35"/>
<text clip-path="url(#cpBot)" x="59" y="263.7" font-size="5" fill="#c06040" opacity="0.6">×1.03⁴</text>
<line clip-path="url(#cpBot)" x1="56" y1="242.9" x2="730" y2="242.9" stroke="#e76f51" stroke-width="0.4" stroke-dasharray="2,4" opacity="0.35"/>
<text clip-path="url(#cpBot)" x="59" y="240.9" font-size="5" fill="#c06040" opacity="0.6">×1.03⁵</text>
<line clip-path="url(#cpBot)" x1="56" y1="219.5" x2="730" y2="219.5" stroke="#e76f51" stroke-width="0.4" stroke-dasharray="2,4" opacity="0.35"/>
<text clip-path="url(#cpBot)" x="59" y="217.5" font-size="5" fill="#c06040" opacity="0.6">×1.03⁶</text>
<line clip-path="url(#cpBot)" x1="56" y1="195.4" x2="730" y2="195.4" stroke="#e76f51" stroke-width="0.4" stroke-dasharray="2,4" opacity="0.35"/>
<line clip-path="url(#cpBot)" x1="56" y1="170.6" x2="730" y2="170.6" stroke="#e76f51" stroke-width="0.4" stroke-dasharray="2,4" opacity="0.35"/>
<circle clip-path="url(#cpBot)" cx="225.1" cy="350.2" r="3.5" fill="#2a9d8f" opacity="0.6"/>
<circle clip-path="url(#cpBot)" cx="224.6" cy="350.2" r="3.5" fill="#2a9d8f" opacity="0.6"/>
<circle clip-path="url(#cpBot)" cx="228.8" cy="350.2" r="3.5" fill="#2a9d8f" opacity="0.6"/>
<circle clip-path="url(#cpBot)" cx="229.2" cy="350.2" r="3.5" fill="#2a9d8f" opacity="0.6"/>
<circle clip-path="url(#cpBot)" cx="249.3" cy="350.2" r="3.5" fill="#2a9d8f" opacity="0.6"/>
<circle clip-path="url(#cpBot)" cx="433.8" cy="350.2" r="3.5" fill="#2a9d8f" opacity="0.6"/>
<circle clip-path="url(#cpBot)" cx="438.9" cy="350.2" r="3.5" fill="#2a9d8f" opacity="0.6"/>
<circle clip-path="url(#cpBot)" cx="447.4" cy="350.2" r="3.5" fill="#2a9d8f" opacity="0.6"/>
<circle clip-path="url(#cpBot)" cx="452.2" cy="350.2" r="3.5" fill="#2a9d8f" opacity="0.6"/>
<circle clip-path="url(#cpBot)" cx="458.6" cy="350.2" r="3.5" fill="#2a9d8f" opacity="0.6"/>
<circle clip-path="url(#cpBot)" cx="457.6" cy="350.2" r="3.5" fill="#2a9d8f" opacity="0.6"/>
<circle clip-path="url(#cpBot)" cx="658.5" cy="350.2" r="3.5" fill="#2a9d8f" opacity="0.6"/>
<circle clip-path="url(#cpBot)" cx="658.5" cy="350.2" r="3.5" fill="#2a9d8f" opacity="0.6"/>
<circle clip-path="url(#cpBot)" cx="657.6" cy="350.2" r="3.5" fill="#2a9d8f" opacity="0.6"/>
<circle clip-path="url(#cpBot)" cx="658.4" cy="350.2" r="3.5" fill="#2a9d8f" opacity="0.6"/>
<circle clip-path="url(#cpBot)" cx="657.6" cy="350.2" r="3.5" fill="#2a9d8f" opacity="0.6"/>
<circle clip-path="url(#cpBot)" cx="657.0" cy="350.2" r="3.5" fill="#2a9d8f" opacity="0.6"/>
<circle clip-path="url(#cpBot)" cx="657.7" cy="350.2" r="3.5" fill="#2a9d8f" opacity="0.6"/>
<circle clip-path="url(#cpBot)" cx="659.4" cy="350.2" r="3.5" fill="#2a9d8f" opacity="0.6"/>
<circle clip-path="url(#cpBot)" cx="657.2" cy="350.2" r="3.5" fill="#2a9d8f" opacity="0.6"/>
<circle clip-path="url(#cpBot)" cx="659.4" cy="350.2" r="3.5" fill="#2a9d8f" opacity="0.6"/>
<circle clip-path="url(#cpBot)" cx="659.0" cy="350.2" r="3.5" fill="#2a9d8f" opacity="0.6"/>
<circle clip-path="url(#cpBot)" cx="658.8" cy="350.2" r="3.5" fill="#2a9d8f" opacity="0.6"/>
<circle clip-path="url(#cpBot)" cx="664.2" cy="350.2" r="3.5" fill="#2a9d8f" opacity="0.6"/>
<circle clip-path="url(#cpBot)" cx="673.5" cy="350.2" r="3.5" fill="#2a9d8f" opacity="0.6"/>
<circle clip-path="url(#cpBot)" cx="676.0" cy="350.2" r="3.5" fill="#2a9d8f" opacity="0.6"/>
<circle clip-path="url(#cpBot)" cx="55.9" cy="309.2" r="3" fill="#e76f51" opacity="0.55"/>
<circle clip-path="url(#cpBot)" cx="60.0" cy="309.2" r="3" fill="#e76f51" opacity="0.55"/>
<circle clip-path="url(#cpBot)" cx="59.3" cy="309.2" r="3" fill="#e76f51" opacity="0.55"/>
<circle clip-path="url(#cpBot)" cx="60.7" cy="350.2" r="3" fill="#e76f51" opacity="0.55"/>
<circle clip-path="url(#cpBot)" cx="62.6" cy="309.2" r="3" fill="#e76f51" opacity="0.55"/>
<circle clip-path="url(#cpBot)" cx="63.8" cy="330.0" r="3" fill="#e76f51" opacity="0.55"/>
<circle clip-path="url(#cpBot)" cx="64.0" cy="309.2" r="3" fill="#e76f51" opacity="0.55"/>
<circle clip-path="url(#cpBot)" cx="66.0" cy="350.2" r="3" fill="#e76f51" opacity="0.55"/>
<circle clip-path="url(#cpBot)" cx="66.3" cy="350.2" r="3" fill="#e76f51" opacity="0.55"/>
<circle clip-path="url(#cpBot)" cx="65.1" cy="350.2" r="3" fill="#e76f51" opacity="0.55"/>
<circle clip-path="url(#cpBot)" cx="65.4" cy="350.2" r="3" fill="#e76f51" opacity="0.55"/>
<circle clip-path="url(#cpBot)" cx="65.6" cy="350.2" r="3" fill="#e76f51" opacity="0.55"/>
<circle clip-path="url(#cpBot)" cx="68.7" cy="350.2" r="3" fill="#e76f51" opacity="0.55"/>
<circle clip-path="url(#cpBot)" cx="70.6" cy="350.2" r="3" fill="#e76f51" opacity="0.55"/>
<circle clip-path="url(#cpBot)" cx="91.5" cy="309.2" r="3" fill="#e76f51" opacity="0.55"/>
<circle clip-path="url(#cpBot)" cx="99.0" cy="309.2" r="3" fill="#e76f51" opacity="0.55"/>
<circle clip-path="url(#cpBot)" cx="100.3" cy="350.2" r="3" fill="#e76f51" opacity="0.55"/>
<circle clip-path="url(#cpBot)" cx="110.7" cy="309.2" r="3" fill="#e76f51" opacity="0.55"/>
<circle clip-path="url(#cpBot)" cx="117.8" cy="350.2" r="3" fill="#e76f51" opacity="0.55"/>
<circle clip-path="url(#cpBot)" cx="265.3" cy="309.2" r="3" fill="#e76f51" opacity="0.55"/>
<circle clip-path="url(#cpBot)" cx="265.8" cy="309.2" r="3" fill="#e76f51" opacity="0.55"/>
<circle clip-path="url(#cpBot)" cx="265.4" cy="287.7" r="3" fill="#e76f51" opacity="0.55"/>
<circle clip-path="url(#cpBot)" cx="265.5" cy="330.0" r="3" fill="#e76f51" opacity="0.55"/>
<circle clip-path="url(#cpBot)" cx="265.4" cy="287.7" r="3" fill="#e76f51" opacity="0.55"/>
<circle clip-path="url(#cpBot)" cx="269.5" cy="287.7" r="3" fill="#e76f51" opacity="0.55"/>
<circle clip-path="url(#cpBot)" cx="272.6" cy="350.2" r="3" fill="#e76f51" opacity="0.55"/>
<circle clip-path="url(#cpBot)" cx="272.3" cy="350.2" r="3" fill="#e76f51" opacity="0.55"/>
<circle clip-path="url(#cpBot)" cx="273.5" cy="330.0" r="3" fill="#e76f51" opacity="0.55"/>
<circle clip-path="url(#cpBot)" cx="272.1" cy="287.7" r="3" fill="#e76f51" opacity="0.55"/>
<circle clip-path="url(#cpBot)" cx="277.6" cy="330.0" r="3" fill="#e76f51" opacity="0.55"/>
<circle clip-path="url(#cpBot)" cx="277.5" cy="287.7" r="3" fill="#e76f51" opacity="0.55"/>
<circle clip-path="url(#cpBot)" cx="279.1" cy="309.2" r="3" fill="#e76f51" opacity="0.55"/>
<circle clip-path="url(#cpBot)" cx="287.3" cy="287.7" r="3" fill="#e76f51" opacity="0.55"/>
<circle clip-path="url(#cpBot)" cx="312.1" cy="330.0" r="3" fill="#e76f51" opacity="0.55"/>
<circle clip-path="url(#cpBot)" cx="311.6" cy="330.0" r="3" fill="#e76f51" opacity="0.55"/>
<circle clip-path="url(#cpBot)" cx="311.9" cy="330.0" r="3" fill="#e76f51" opacity="0.55"/>
<circle clip-path="url(#cpBot)" cx="312.4" cy="330.0" r="3" fill="#e76f51" opacity="0.55"/>
<circle clip-path="url(#cpBot)" cx="312.3" cy="330.0" r="3" fill="#e76f51" opacity="0.55"/>
<circle clip-path="url(#cpBot)" cx="332.2" cy="330.0" r="3" fill="#e76f51" opacity="0.55"/>
<circle clip-path="url(#cpBot)" cx="387.0" cy="330.0" r="3" fill="#e76f51" opacity="0.55"/>
<circle clip-path="url(#cpBot)" cx="483.4" cy="287.7" r="3" fill="#e76f51" opacity="0.55"/>
<circle clip-path="url(#cpBot)" cx="481.4" cy="287.7" r="3" fill="#e76f51" opacity="0.55"/>
<circle clip-path="url(#cpBot)" cx="483.2" cy="265.7" r="3" fill="#e76f51" opacity="0.55"/>
<circle clip-path="url(#cpBot)" cx="483.5" cy="309.2" r="3" fill="#e76f51" opacity="0.55"/>
<circle clip-path="url(#cpBot)" cx="483.0" cy="265.7" r="3" fill="#e76f51" opacity="0.55"/>
<circle clip-path="url(#cpBot)" cx="485.1" cy="265.7" r="3" fill="#e76f51" opacity="0.55"/>
<circle clip-path="url(#cpBot)" cx="485.3" cy="350.2" r="3" fill="#e76f51" opacity="0.55"/>
<circle clip-path="url(#cpBot)" cx="492.6" cy="330.0" r="3" fill="#e76f51" opacity="0.55"/>
<circle clip-path="url(#cpBot)" cx="490.9" cy="330.0" r="3" fill="#e76f51" opacity="0.55"/>
<circle clip-path="url(#cpBot)" cx="492.8" cy="309.2" r="3" fill="#e76f51" opacity="0.55"/>
<circle clip-path="url(#cpBot)" cx="492.4" cy="265.7" r="3" fill="#e76f51" opacity="0.55"/>
<circle clip-path="url(#cpBot)" cx="492.5" cy="309.2" r="3" fill="#e76f51" opacity="0.55"/>
<circle clip-path="url(#cpBot)" cx="493.7" cy="309.2" r="3" fill="#e76f51" opacity="0.55"/>
<circle clip-path="url(#cpBot)" cx="493.9" cy="309.2" r="3" fill="#e76f51" opacity="0.55"/>
<circle clip-path="url(#cpBot)" cx="494.9" cy="309.2" r="3" fill="#e76f51" opacity="0.55"/>
<circle clip-path="url(#cpBot)" cx="492.8" cy="309.2" r="3" fill="#e76f51" opacity="0.55"/>
<circle clip-path="url(#cpBot)" cx="494.3" cy="265.7" r="3" fill="#e76f51" opacity="0.55"/>
<circle clip-path="url(#cpBot)" cx="494.9" cy="265.7" r="3" fill="#e76f51" opacity="0.55"/>
<circle clip-path="url(#cpBot)" cx="494.7" cy="309.2" r="3" fill="#e76f51" opacity="0.55"/>
<circle clip-path="url(#cpBot)" cx="510.4" cy="309.2" r="3" fill="#e76f51" opacity="0.55"/>
<circle clip-path="url(#cpBot)" cx="532.2" cy="309.2" r="3" fill="#e76f51" opacity="0.55"/>
<circle clip-path="url(#cpBot)" cx="573.2" cy="350.2" r="3" fill="#e76f51" opacity="0.55"/>
<circle clip-path="url(#cpBot)" cx="699.2" cy="350.2" r="3" fill="#e76f51" opacity="0.55"/>
<circle clip-path="url(#cpBot)" cx="701.1" cy="265.7" r="3" fill="#e76f51" opacity="0.55"/>
<circle clip-path="url(#cpBot)" cx="701.0" cy="265.7" r="3" fill="#e76f51" opacity="0.55"/>
<circle clip-path="url(#cpBot)" cx="700.9" cy="242.9" r="3" fill="#e76f51" opacity="0.55"/>
<circle clip-path="url(#cpBot)" cx="700.8" cy="287.7" r="3" fill="#e76f51" opacity="0.55"/>
<circle clip-path="url(#cpBot)" cx="699.9" cy="242.9" r="3" fill="#e76f51" opacity="0.55"/>
<circle clip-path="url(#cpBot)" cx="703.3" cy="350.2" r="3" fill="#e76f51" opacity="0.55"/>
<circle clip-path="url(#cpBot)" cx="709.1" cy="350.2" r="3" fill="#e76f51" opacity="0.55"/>
<circle clip-path="url(#cpBot)" cx="710.3" cy="309.2" r="3" fill="#e76f51" opacity="0.55"/>
<circle clip-path="url(#cpBot)" cx="708.9" cy="287.7" r="3" fill="#e76f51" opacity="0.55"/>
<circle clip-path="url(#cpBot)" cx="709.6" cy="242.9" r="3" fill="#e76f51" opacity="0.55"/>
<circle clip-path="url(#cpBot)" cx="708.6" cy="242.9" r="3" fill="#e76f51" opacity="0.55"/>
<circle clip-path="url(#cpBot)" cx="710.2" cy="330.0" r="3" fill="#e76f51" opacity="0.55"/>
<circle clip-path="url(#cpBot)" cx="709.8" cy="350.2" r="3" fill="#e76f51" opacity="0.55"/>
<circle clip-path="url(#cpBot)" cx="709.0" cy="287.7" r="3" fill="#e76f51" opacity="0.55"/>
<circle clip-path="url(#cpBot)" cx="711.5" cy="287.7" r="3" fill="#e76f51" opacity="0.55"/>
<circle clip-path="url(#cpBot)" cx="718.5" cy="287.7" r="3" fill="#e76f51" opacity="0.55"/>
<circle clip-path="url(#cpBot)" cx="718.9" cy="287.7" r="3" fill="#e76f51" opacity="0.55"/>
<circle clip-path="url(#cpBot)" cx="719.0" cy="287.7" r="3" fill="#e76f51" opacity="0.55"/>
<circle clip-path="url(#cpBot)" cx="718.6" cy="287.7" r="3" fill="#e76f51" opacity="0.55"/>
<circle clip-path="url(#cpBot)" cx="719.7" cy="287.7" r="3" fill="#e76f51" opacity="0.55"/>
<circle clip-path="url(#cpBot)" cx="719.4" cy="242.9" r="3" fill="#e76f51" opacity="0.55"/>
<circle clip-path="url(#cpBot)" cx="721.4" cy="350.2" r="3" fill="#e76f51" opacity="0.55"/>
<circle clip-path="url(#cpBot)" cx="730.6" cy="350.2" r="3" fill="#e76f51" opacity="0.55"/>
<text x="393" y="142" text-anchor="middle" font-size="6" fill="#888">↑ 4 purchases + 14 renewals above 13 DOT (see top panel)</text>
<line x1="56.0" y1="404" x2="56.0" y2="407" stroke="#333" stroke-width="0.5"/>
<text x="56.0" y="418" text-anchor="middle" font-size="6.5" fill="#666">Nov 16</text>
<line x1="152.3" y1="404" x2="152.3" y2="407" stroke="#333" stroke-width="0.5"/>
<text x="152.3" y="418" text-anchor="middle" font-size="6.5" fill="#666">Nov 29</text>
<line x1="248.6" y1="404" x2="248.6" y2="407" stroke="#333" stroke-width="0.5"/>
<text x="248.6" y="418" text-anchor="middle" font-size="6.5" fill="#666">Dec 11</text>
<line x1="344.9" y1="404" x2="344.9" y2="407" stroke="#333" stroke-width="0.5"/>
<text x="344.9" y="418" text-anchor="middle" font-size="6.5" fill="#666">Dec 24</text>
<line x1="441.1" y1="404" x2="441.1" y2="407" stroke="#333" stroke-width="0.5"/>
<text x="441.1" y="418" text-anchor="middle" font-size="6.5" fill="#666">Jan 5</text>
<line x1="537.4" y1="404" x2="537.4" y2="407" stroke="#333" stroke-width="0.5"/>
<text x="537.4" y="418" text-anchor="middle" font-size="6.5" fill="#666">Jan 17</text>
<line x1="633.7" y1="404" x2="633.7" y2="407" stroke="#333" stroke-width="0.5"/>
<text x="633.7" y="418" text-anchor="middle" font-size="6.5" fill="#666">Jan 30</text>
<line x1="730.0" y1="404" x2="730.0" y2="407" stroke="#333" stroke-width="0.5"/>
<text x="730.0" y="418" text-anchor="middle" font-size="6.5" fill="#666">Feb 11</text>
<text x="393" y="454" text-anchor="middle" font-size="8" fill="#444">Date</text>
<rect x="516" y="340" width="214" height="56" rx="2" fill="white" fill-opacity="0.92" stroke="#ddd" stroke-width="0.5"/>
<line x1="520" y1="346" x2="534" y2="346" stroke="#4361ee" stroke-width="1.2" stroke-dasharray="6,3" opacity="0.5"/>
<text x="538" y="349" font-size="6.5" fill="#444">Sale end price / base (10 DOT)</text>
<circle cx="527" cy="360" r="3.5" fill="#2a9d8f" opacity="0.6"/>
<text x="538" y="363" font-size="6.5" fill="#444">Purchase price</text>
<circle cx="527" cy="374" r="3" fill="#e76f51" opacity="0.55"/>
<text x="538" y="377" font-size="6.5" fill="#444">Renewal price (3% bump per cycle)</text>
<line x1="520" y1="388" x2="534" y2="388" stroke="#e76f51" stroke-width="0.4" stroke-dasharray="2,4" opacity="0.4"/>
<text x="538" y="391" font-size="6.5" fill="#444">Renewal bump levels (1.03ⁿ × base)</text>
</svg>
